<?xml version="1.0" standalone="no"?>
<!DOCTYPE svg PUBLIC "-//W3C//DTD SVG 1.1//EN" "http://www.w3.org/Graphics/SVG/1.1/DTD/svg11.dtd" >
<svg xmlns="http://www.w3.org/2000/svg">
<metadata>Generated by IcoMoon</metadata>
<defs>
<font id="icomoon" horiz-adv-x="1024">
<font-face units-per-em="1024" ascent="960" descent="-64" />
<missing-glyph horiz-adv-x="1024" />
<glyph unicode="&#x20;" horiz-adv-x="512" d="" />
<glyph unicode="&#xe900;" glyph-name="about-us" d="M512 960c-282.819 0-512-229.181-512-512s229.181-512 512-512c282.819 0 512 229.181 512 512s-229.181 512-512 512zM355.962 881.981c19.505-48.762 107.276-48.762 156.038-48.762 9.752 0 19.505-4.876 19.505-14.629-9.752-24.381-29.257-73.143-14.629-102.4 9.752-14.629 19.505-19.505 39.010-19.505s34.133 4.876 53.638 9.752c29.257 9.752 48.762 14.629 63.39-4.876 24.381-24.381 9.752-43.886 4.876-53.638-48.762-14.629-146.286-58.514-146.286-112.152 0-9.752 0-14.629 0-19.505-4.876 0-14.629 0-19.505 0h-43.886c-19.505 4.876-34.133-4.876-43.886-19.505-19.505-43.886 34.133-121.905 68.267-151.162 0 0 0 0 0 0-39.010 9.752-112.152 43.886-151.162 82.895-14.629 14.629-24.381 29.257-34.133 43.886-9.752 19.505-24.381 48.762-68.267 48.762-29.257 0-68.267 34.133-68.267 68.267 0 9.752 4.876 14.629 9.752 24.381 14.629 24.381 19.505 48.762-14.629 82.895-4.876 4.876-14.629 14.629-29.257 19.505 53.638 78.019 131.657 136.533 219.429 165.79zM458.362-10.362c0 4.876-4.876 14.629-9.752 19.505-9.752 9.752-39.010 34.133-39.010 58.514 0 9.752 34.133 39.010 68.267 58.514 4.876 0 9.752 4.876 9.752 9.752 14.629 29.257 43.886 68.267 63.39 68.267 43.886 0 78.019 4.876 117.029-24.381 14.629-9.752 29.257-29.257 43.886-43.886 19.505-24.381 43.886-48.762 68.267-58.514-78.019-53.638-170.667-87.771-268.19-87.771-19.505-4.876-34.133-4.876-53.638 0zM828.952 111.543c-4.876 0-4.876 0 0 0-4.876 0-4.876 0-4.876 0-19.505 0-48.762 29.257-73.143 58.514-14.629 14.629-34.133 34.133-48.762 48.762-53.638 43.886-102.4 39.010-151.162 39.010-48.762-4.876-87.771-63.39-102.4-87.771-29.257-14.629-92.648-53.638-87.771-102.4 0-24.381 9.752-43.886 24.381-58.514-195.048 53.638-336.457 234.057-336.457 443.733 0 73.143 19.505 146.286 48.762 209.676 9.752 0 19.505 0 24.381 9.752 0 0 4.876-4.876 4.876-4.876 14.629-19.505 19.505-24.381 19.505-24.381v0c0 0-4.876-4.876-4.876-9.752-4.876-9.752-14.629-24.381-14.629-48.762 0-58.514 53.638-117.029 117.029-117.029 14.629 0 19.505-4.876 34.133-29.257 9.752-14.629 19.505-34.133 39.010-53.638 48.762-48.762 146.286-97.524 199.924-97.524 29.257 0 48.762 0 58.514 19.505s-4.876 34.133-39.010 68.267c-29.257 29.257-53.638 73.143-58.514 92.648h39.010c58.514 0 68.267 9.752 68.267 68.267 0 14.629 53.638 43.886 117.029 68.267 4.876 0 4.876 4.876 9.752 4.876 24.381 24.381 43.886 78.019 0 126.781-39.010 39.010-82.895 24.381-117.029 14.629-9.752-4.876-24.381-9.752-34.133-9.752 0 9.752 9.752 34.133 19.505 53.638 0 4.876 4.876 4.876 4.876 9.752 0 29.257-19.505 68.267-68.267 68.267-73.143 0-97.524 9.752-107.276 14.629 29.257 19.505 63.39 24.381 102.4 24.381 253.562 0 463.238-209.676 463.238-463.238 0-131.657-58.514-253.562-146.286-336.457z" />
<glyph unicode="&#xe901;" glyph-name="account-balance" d="M1019.124 116.419h-1014.248v697.295h1019.124v-697.295zM53.638 165.181h921.6v599.771h-921.6v-599.771zM633.905 599.162l-24.381-53.638c-29.257 19.505-63.39 29.257-92.648 29.257s-48.762-9.752-48.762-34.133c0-58.514 170.667-29.257 170.667-146.286 0-68.267-58.514-97.524-121.905-97.524-48.762 0-97.524 14.629-131.657 43.886l24.381 48.762c29.257-24.381 73.143-39.010 107.276-39.010 29.257 0 53.638 9.752 53.638 34.133 0 68.267-170.667 29.257-170.667 146.286 0 63.39 58.514 92.648 117.029 92.648 43.886 4.876 87.771-4.876 117.029-24.381zM516.876 209.067c-14.629 0-24.381 9.752-24.381 24.381v73.143c0 14.629 9.752 24.381 24.381 24.381s24.381-9.752 24.381-24.381v-73.143c0-14.629-14.629-24.381-24.381-24.381zM516.876 599.162c-14.629 0-24.381 9.752-24.381 24.381v73.143c0 14.629 9.752 24.381 24.381 24.381s24.381-9.752 24.381-24.381v-73.143c0-14.629-14.629-24.381-24.381-24.381z" />
<glyph unicode="&#xe902;" glyph-name="additem" d="M461.591-59.207c-223.379 22.047-412.853 198.17-451.742 419.911-8.17 46.583-8.17 128.009 0 174.592 28.004 159.675 133.239 298.151 281.607 370.56 298.891 145.868 649.207-29.106 721.212-360.228 10.252-47.144 10.187-147.443-0.126-195.254-31.42-145.659-117.027-265.846-243.431-341.759-88.976-53.435-201.607-78.275-307.52-67.822zM569.708-28.817c184.148 22.567 341.961 152.178 398.301 327.122 18.403 57.145 22.342 83.538 22.342 149.695s-3.939 92.55-22.342 149.695c-47.701 148.12-172.509 268.693-322.838 311.885-288.137 82.785-580.234-115.443-611.265-414.828-20.255-195.42 85.182-386.362 262.63-475.615 53.658-26.989 95.31-39.16 171.207-50.029 23.309-3.338 64.663-2.497 101.966 2.075zM497.112 334.102l-1.166 98.712-197.424 2.332v25.708l197.424 2.332 2.332 197.424h30.21v-199.593h195.254v-26.034h-195.254v-199.593h-30.21z" />
<glyph unicode="&#xe903;" glyph-name="arrowdown" d="M269.406 410.111l-249.132 274.608 62.34 68.306 435.285-479.624 76.94 85.668c42.317 47.117 138.46 155.059 213.651 239.87l136.71 154.202 62.798-69.161-133.195-149.605c-73.257-82.283-183.386-205.69-244.731-274.238l-111.536-124.633z" />
<glyph unicode="&#xe904;" glyph-name="arrowleft" d="M479.926 689.052l274.608 249.132 68.306-62.34-479.624-435.285 85.668-76.94c47.117-42.317 155.059-138.46 239.87-213.651l154.202-136.71-69.161-62.798-149.605 133.195c-82.283 73.257-205.69 183.386-274.238 244.731l-124.633 111.536z" />
<glyph unicode="&#xe905;" glyph-name="arrowright" d="M548.347 199.591l-274.608-249.132-68.306 62.34 479.624 435.285-85.668 76.94c-47.117 42.317-155.059 138.46-239.87 213.651l-154.202 136.71 69.161 62.798 149.605-133.195c82.283-73.257 205.69-183.386 274.238-244.731l124.633-111.536z" />
<glyph unicode="&#xe906;" glyph-name="arrowup" d="M269.406 478.532l-249.132-274.608 62.34-68.306 435.285 479.624 76.94-85.668c42.317-47.117 138.46-155.059 213.651-239.87l136.71-154.202 62.798 69.161-133.195 149.605c-73.257 82.283-183.386 205.69-244.731 274.238l-111.536 124.633z" />
<glyph unicode="&#xe907;" glyph-name="assisted-purchase" d="M468.195 425.183v-35.051h211.595v35.051zM802.653-62.429h-462.318c-46.232 0-84.758 35.051-84.758 77.113v406.596h111.727v-35.051h-73.2v-371.545c0-24.536 19.263-42.062 46.232-42.062h462.318c26.969 0 46.232 17.526 46.232 42.062v371.545h-73.2v35.051h111.727v-406.596c0-42.062-38.526-77.113-84.758-77.113zM24.388 958.074c-12.276 0-23.176-9.445-23.176-20.949v-215.032c0-11.504 10.9-20.949 23.176-20.949h85.932c12.276 0 23.101 9.445 23.101 20.949v215.032c0 11.504-10.825 20.949-23.101 20.949zM39.739 923.022h55.156v-186.827h-55.156zM525.91 937.056c-137.915-0.414-275.867-0.815-413.859-1.3l0.151-35.051c137.558 0.488 275.097 0.886 412.579 1.3 10.006-1.135 19.997-2.235 29.948-3.423 12.435-5.844 24.91-11.822 37.323-17.731 27.26-34.645 54.582-69.318 81.794-104.059l0.234-0.273 0.151-0.273c21.718-25.739 47.004-57.151 60.644-71.63 7.714-16.499 32.271-67.786 46.131-98.903 11.238-28.021 22.38-56.078 33.56-84.137-1.715-0.538-3.4-1.103-5.117-1.643-4.557 0.185-9.136 0.39-13.695 0.548-4.159 1.911-8.321 3.801-12.491 5.682-20.628 32.476-41.23 64.938-61.928 97.35l-0.599 0.958-0.752 0.89c-21.307 25.378-42.662 50.673-64.045 75.99l4.43-7.8-11.719 17.132c-18.64 16.226-32 25.109-50.723 41.264l-2.332 1.986-2.935 1.232c-15.7 6.521-31.404 12.996-47.18 19.444v0l-18.793 1.575c-28.453-0.234-46.166-0.517-74.664-0.822l-12.328-2.567-12.453-6.748c-4.406-7.507-2.601-6.087-7.101-13.698l-2.512-16.084 3.386-7.668c9.269-20.824 18.404-41.393 27.54-62.161l0.6-1.369 0.753-1.164c10.996-16.67 21.966-33.307 32.883-50.044l1.731-2.807 2.784-1.986c15.134-11.006 30.18-22 45.223-33.066l1.806-1.369 2.107-0.89c15.397-6.573 30.799-13.149 46.126-19.785 5.866-4.884 11.711-9.794 17.532-14.719 1.56-3.957 3.121-7.935 4.667-11.912-0.945-1.097-1.913-2.186-2.859-3.286-3.375 0.346-6.769 0.697-10.158 1.027-37.933 16.645-75.535 33.118-113.397 49.633l-0.387 0.137-0.304 0.137c-53.346 21.121-106.696 42.142-160.11 63.187-35.951 22.559-71.883 45.079-107.904 67.57-16.695 16.041-33.347 32.017-50.115 47.99l-4.364 4.108-6.095 1.027c-8.326 1.394-16.731 2.784-25.132 4.108l-6.546-34.572c6.227-0.981 12.403-1.992 18.586-3.013 15.742-15.008 31.5-30.046 47.18-45.115l1.355-1.369 1.731-1.027c37.071-23.145 74.068-46.27 111.065-69.487l1.505-1.027 1.731-0.685c53.951-21.256 107.884-42.538 161.781-63.873 38.612-16.843 77.029-33.675 115.73-50.66l3.010-1.3 9.533-1.961c7.971-0.767 13.242 2.489 21.187 1.647l13.827 4.214c5.378 6.242 10.714 12.434 16.028 18.621v0l3.011 16.567c-3.242 8.447 0.565 5.504-2.746 13.872l-6.024 11.249-6.128 6.987c-7.714 6.546-15.46 13.036-23.251 19.511l-2.107 1.78-2.559 1.096c-15.612 6.766-31.272 13.498-46.954 20.197-13.576 9.981-27.137 19.917-40.785 29.848-10.082 15.447-20.174 30.818-30.324 46.21-7.857 17.856-15.686 35.599-23.627 53.467 1.241 2.103 2.455 4.204 3.687 6.298 23.224 0.239 46.404 0.419 69.603 0.616 13.455-5.507 26.858-11.009 40.257-16.567 17.627-15.214 35.269-30.458 52.823-45.731 20.737-24.556 41.422-49.187 62.079-73.8 21.455-33.599 42.881-67.242 64.261-100.91l2.935-4.656 5.267-2.328c7.075-3.167 14.034-6.332 21.069-9.584l3.762-1.78 4.29-0.137c7.081-0.229 14.017-0.449 21.069-0.753l3.762-0.205 3.462 1.096c9.076 2.864 18.159 5.693 27.164 8.489l8.809 9.054 3.080 13.538c-13.488 33.895-26.995 67.64-40.558 101.459l-0.151 0.346-0.078 0.273c-14.188 31.858-28.47 63.641-42.739 95.434l-0.903 2.19-1.579 1.849c-22.063 26.302-44.15 52.545-66.293 78.79l-0.38 0.483c-27.992 35.737-56.086 71.439-84.126 107.071l-2.633 3.423-4.064 1.917c-14.809 7.058-29.699 14.113-44.545 21.083l-3.010 1.369-3.311 0.41c-11.564 1.388-23.127 2.721-34.764 4.039l-1.28 0.137zM572.186 927.541l-10.61-33.751c128.719-33.567 257.373-67.137 386.017-100.773-5.885-6.25-11.71-12.433-17.608-18.69-2.58-1.564-5.869-3.56-5.869-3.56l21.445-29.095c0 0 5.384 3.276 7.901 4.792l2.257 1.3 1.731 1.849c7.153 7.586 14.236 15.082 21.37 22.66l11.725 26.772-1.341 18.137c-8.613 2.764-17.196 5.455-25.884 8.147l-0.897 0.273c-130.040 33.996-260.129 68.002-390.238 101.932zM558.19 932.881l-15.426-32.108c144.573-57.514 289.068-115.012 433.573-172.587l-0.385-0.41c-8.021-7.755-16-15.404-24.004-23.139-7.93-1.19-15.881-2.401-23.853-3.628-7.232 0.234-14.427 0.424-21.671 0.616-64.219 26.606-127.978 52.975-192.030 79.413l-15.952-31.902c65.212-26.917 130.168-53.755 195.567-80.851l3.536-1.438 3.837-0.137c9.168-0.229 18.251-0.517 27.39-0.822l2.031-0.068 1.956 0.346c10.668 1.646 21.239 3.215 31.83 4.792l6.471 0.958 4.44 4.381c9.117 8.811 18.138 17.488 27.239 26.289 7.646 5.383 6.232 10.666 18.205 15.951l4.406 10.795-3.946 19.19c-154.365 61.507-308.78 122.919-463.221 184.359zM439.074 569.701c-4.693-6.153-9.507-12.402-14.222-18.553l-0.304-0.483-0.304-0.41c-2.312-3.441-4.691-6.974-7.073-10.474l-0.978-1.369-0.6-1.506c-5.585-13.158-9.462-21.597-16.855-39.57l3.315 10.269-4.671-15.746c-0.252-4.464-0.496-8.958-0.828-13.487l-0.078-0.483v-0.483c-0.554-46.32-1.099-92.652-1.731-139.042l38.526-0.483c0.625 46.088 1.18 92.133 1.731 138.152 0.271 3.737 2.309 14.742 2.53 18.437 5.061 11.831 8.315 16.469 13.347 28.321 1.883 2.771 3.728 5.549 5.568 8.284 4.732 6.174 9.511 12.445 14.222 18.621zM581.893 622.552l-3.537-0.483c-13.695-1.956-27.315-3.94-41.010-5.956l5.869-32.998c12.43 1.83 24.759 3.562 37.172 5.34 12.052-2.557 24.004-5.062 35.968-7.668 8.407-3.252 16.782-6.55 25.133-9.858 13.247-8.517 23.82-16.232 36.989-24.795 3.669-5.21 9.979-11.347 13.728-16.691 1.694-2.75 3.383-5.497 5.116-8.284 4.72-12.078 9.475-24.229 14.222-36.284 0.239-3.828 0.463-7.624 0.753-11.501 0.804-46.239 1.685-92.528 2.559-138.836l36.721 0.548c-0.878 46.567-1.751 93.161-2.559 139.658v0.819c-0.327 4.552-0.644 9.061-0.903 13.555l-0.151 2.464-0.903 2.328c-5.178 13.145-10.425 26.455-15.576 39.638l-0.531 1.369-0.753 1.3c-2.184 3.504-4.351 6.961-6.471 10.406l-0.302 0.41-0.234 0.41c-4.265 6.079-8.621 12.39-13.093 18.69l-1.882 2.67-2.859 1.849c-14.663 9.55-29.403 19.065-44.167 28.553l-1.58 1.027-1.731 0.685c-9.527 3.787-19.070 7.525-28.669 11.234l-1.355 0.548-1.505 0.273c-13.656 2.977-27.227 5.914-41.010 8.831zM414.017 356.449c-29.596 0-52.146-23.692-52.146-50.66s22.55-50.66 52.146-50.66c29.596 0 52.146 23.693 52.146 50.66s-22.55 50.66-52.146 50.66zM414.017 323.862c8.208 0 16.253-7.075 16.253-18.073s-8.046-18.073-16.253-18.073c-8.208 0-16.329 7.075-16.329 18.073s8.121 18.073 16.329 18.073zM728.625 351.588c-29.596 0-52.146-23.693-52.146-50.66s22.55-50.66 52.146-50.66c29.596 0 52.146 23.693 52.146 50.66s-22.55 50.66-52.146 50.66zM728.625 319.002c8.208 0 16.329-7.075 16.329-18.073s-8.121-18.073-16.329-18.073c-8.208 0-16.253 7.075-16.253 18.073s8.046 18.073 16.253 18.073z" />
<glyph unicode="&#xe908;" glyph-name="blog" d="M631.848 307.091c0-88.267-52.96-145.64-136.814-145.64-48.547 0-83.854 17.653-101.507 52.96v-52.96h-66.2v410.441h61.787v-167.707c22.067 35.307 57.373 52.96 101.507 52.96 83.854 0 141.227-57.373 141.227-150.054zM565.647 311.504c0 52.96-35.307 92.68-88.267 92.68s-88.267-39.72-88.267-92.68c0-57.373 35.307-97.094 88.267-97.094s88.267 39.72 88.267 97.094zM517.101-37.15c-255.974 0-463.401 207.427-463.401 463.401s207.427 463.401 463.401 463.401c255.974 0 463.401-207.427 463.401-463.401s-207.427-463.401-463.401-463.401zM517.101 845.518c-229.494 0-419.268-189.774-419.268-419.268s189.774-419.268 419.268-419.268c229.494 0 419.268 189.774 419.268 419.268s-189.774 419.268-419.268 419.268zM830.448 368.877c-13.24 0-22.067 8.827-22.067 22.067 0 180.947-150.054 331.001-331.001 331.001-13.24 0-22.067 8.827-22.067 22.067s8.827 22.067 22.067 22.067c207.427 0 375.134-167.707 375.134-375.134 0-13.24-8.827-22.067-22.067-22.067zM724.528 368.877c-13.24 0-22.067 8.827-22.067 22.067 0 123.574-101.507 225.080-225.080 225.080-8.827 0-22.067 8.827-22.067 17.653s8.827 22.067 22.067 22.067c150.054 0 269.214-119.16 269.214-269.214 0-8.827-8.827-17.653-22.067-17.653z" />
<glyph unicode="&#xe909;" glyph-name="calendar" d="M164.937 863.321c-65.56 0-118.84-49.007-118.84-112.44v-664.972c0-60.771 52.684-112.44 118.84-112.44h690.698c65.56 0 118.902 49.007 118.902 112.44v665.475l-0.064 0.44c-3.699 62.907-56.036 111.498-118.838 111.498zM164.937 831.195h690.698c46.424 0 84.052-34.936 86.776-81.255v-664.031c0-45.795-36.684-80.313-86.776-80.313h-690.698c-49.497 0-86.713 38.283-86.713 80.313v664.972c0 45.795 36.622 80.313 86.713 80.313zM688.608 911.509v-128.502h32.125v128.502zM296.639 911.509v-128.502h32.125v128.502zM55.698 670.568v-32.125h905.976v32.125z" />
<glyph unicode="&#xe90a;" glyph-name="check-circle" d="M360.991 375.551c-71.105 71.175-83.805 85.786-79.919 91.945 2.541 4.028 7.069 8.139 10.062 9.137s39.481-32.023 81.083-73.379l75.64-75.194 142.217 141.976c78.219 78.087 144.198 141.976 146.62 141.976 5.687 0 14.817-9.136 14.817-14.826 0-4.398-299.326-306.259-303.687-306.259-1.262 0-40.337 38.080-86.833 84.622zM425.654-53.871c-165.503 30.642-306.231 137.741-375.654 285.887-91.745 195.778-47.687 430.12 109.415 581.963 74.861 72.355 150.425 112.937 251.053 134.828 48.461 10.542 156.611 10.594 203.228 0.097 101.238-22.796 177.083-63.128 249.279-132.558 43.576-41.907 72.732-79.487 97.933-126.231 140.522-260.645 25.458-592.53-246.139-709.953-62.268-26.921-111.134-37.070-187.148-38.869-47.048-1.113-77.683 0.34-101.966 4.835zM593.025-27.475c104.142 17.874 193.96 65.747 269.024 143.389 38.817 40.151 63.422 75.446 86.597 124.224 111.916 235.553 12.783 524.439-219.263 638.964-84.945 41.924-169.010 58.207-257.022 49.785-207.103-19.818-376.306-160.986-429.33-358.195-10.591-39.393-11.639-50.316-11.639-121.39 0-71.094 1.046-81.995 11.656-121.492 6.411-23.864 22.204-64.868 35.095-91.119 95.802-195.082 301.751-300.747 514.881-264.167z" />
<glyph unicode="&#xe90b;" glyph-name="checkmark" d="M389.486 32.856l-347.618 352.73 71.568 71.568 276.050-276.050 541.876 603.22 76.681-71.568z" />
<glyph unicode="&#xe90c;" glyph-name="close" d="M24.381-64c-4.876 0-14.629 0-19.505 4.876-9.752 9.752-9.752 24.381 0 34.133l975.238 975.238c9.752 9.752 24.381 9.752 34.133 0s9.752-24.381 0-34.133l-975.238-975.238c0-4.876-9.752-4.876-14.629-4.876zM999.619-64c-4.876 0-14.629 0-19.505 4.876l-975.238 975.238c-4.876 9.752-4.876 29.257 0 39.010s24.381 9.752 34.133 0l975.238-975.238c9.752-9.752 9.752-24.381 0-34.133 0-9.752-9.752-9.752-14.629-9.752z" />
<glyph unicode="&#xe90d;" glyph-name="contactus" d="M193.049 544.525c0 12.59 0 20.984 0 33.574 0 172.066 146.885 310.557 327.344 310.557s327.344-138.492 327.344-310.557c0-8.393 0-16.787 0-25.18l-41.967 4.197c0 8.393 0 16.787 0 20.984 0 146.885-125.902 268.59-285.377 268.59-155.279 0-285.377-121.705-285.377-268.59 0-8.393 0-20.984 0-29.377l-41.967-4.197zM713.443 91.279v41.967c29.377 0 54.557 8.393 67.148 25.18 33.574 37.77 20.984 100.721 20.984 104.918l41.967 8.393c0-4.197 12.59-83.934-33.574-138.492-20.984-29.377-54.557-41.967-96.525-41.967zM658.885 133.246c12.59 0 20.984-8.393 20.984-20.984s-8.393-20.984-20.984-20.984h-130.098c-12.59 0-20.984 8.393-20.984 20.984s8.393 20.984 20.984 20.984h130.098zM658.885 175.213h-130.098c-33.574 0-62.951-29.377-62.951-62.951s29.377-62.951 62.951-62.951h130.098c33.574 0 62.951 29.377 62.951 62.951s-25.18 62.951-62.951 62.951v0zM247.607 519.344v-226.623h-50.361c-33.574 0-58.754 25.18-58.754 58.754v109.115c0 33.574 25.18 58.754 58.754 58.754h50.361zM289.574 561.311h-92.328c-54.557 0-100.721-46.164-100.721-100.721v-109.115c0-54.557 46.164-100.721 100.721-100.721h88.131v310.557h4.197zM839.344 519.344c33.574 0 58.754-25.18 58.754-58.754v-109.115c0-33.574-25.18-58.754-58.754-58.754h-46.164v226.623h46.164zM839.344 561.311h-88.131v-310.557h88.131c54.557 0 100.721 46.164 100.721 100.721v109.115c-4.197 54.557-46.164 100.721-100.721 100.721v0z" />
<glyph unicode="&#xe90e;" glyph-name="copylink" d="M512 960c141.517 0 269.312-57.549 361.882-149.914 92.774-92.774 149.914-220.774 149.914-362.291 0-141.107-57.344-269.312-149.914-361.882-92.57-92.365-220.365-149.914-361.882-149.914s-269.312 57.549-361.882 149.914c-92.774 92.774-149.914 220.774-149.914 361.882 0 141.517 57.344 269.517 149.914 362.291 92.57 92.365 220.365 149.914 361.882 149.914v0zM845.619 781.824c-85.402 85.197-203.162 138.035-333.619 138.035s-248.218-52.634-333.619-138.035c-85.606-85.402-138.24-203.571-138.24-333.824 0-130.048 52.634-248.218 138.24-333.619 85.402-85.402 203.162-138.24 333.619-138.24s248.218 53.043 333.619 138.24c85.606 85.402 138.24 203.571 138.24 333.619 0 130.253-52.634 248.422-138.24 333.824v0zM408.371 428.339c-6.963 0-13.722 3.482-17.408 9.83l-63.283 103.834c-31.13 51.2-14.95 118.17 36.25 149.299 24.781 15.155 53.862 19.661 82.125 12.698 28.262-6.758 52.019-24.371 67.174-49.152l63.078-103.834c5.939-9.626 2.867-22.323-6.758-28.058-9.626-5.939-22.323-2.867-28.058 6.758l-63.078 103.834c-9.421 15.36-24.166 26.419-41.779 30.515-17.613 4.301-35.84 1.434-51.2-7.987-31.949-19.456-41.984-61.235-22.733-92.979l63.078-103.834c5.939-9.626 2.867-22.323-6.758-28.058-3.482-1.843-7.168-2.867-10.65-2.867zM603.75 188.928c-36.659 0-72.499 18.637-92.979 52.224l-63.078 103.834c-5.939 9.626-2.867 22.323 6.758 28.058 9.626 5.939 22.323 2.867 28.058-6.758l63.283-103.834c9.421-15.36 24.166-26.214 41.779-30.515s35.84-1.434 51.2 7.987c31.949 19.456 41.984 61.030 22.528 92.979l-63.078 103.834c-5.939 9.626-2.867 22.323 6.758 28.058 9.626 5.939 22.323 2.867 28.058-6.758l63.283-104.038c31.13-51.2 14.746-118.17-36.25-149.299-17.613-10.65-37.069-15.77-56.32-15.77zM559.104 352.358c-6.963 0-13.722 3.482-17.613 9.83l-92.16 151.347c-5.939 9.626-2.867 22.323 6.758 28.058 9.626 5.939 22.323 2.867 28.058-6.758l92.16-151.347c5.939-9.626 2.867-22.323-6.758-28.058-3.072-2.048-6.758-3.072-10.445-3.072z" />
<glyph unicode="&#xe90f;" glyph-name="duties" d="M828.235 896.753v-48.188h-271.059l-36.141 48.188h307.2zM858.353 926.871h-400.565l81.318-108.424h316.235zM831.247 737.129v-81.318c0-60.235-54.212-108.424-120.471-108.424s-120.471 48.188-120.471 108.424c0 3.012 0 3.012 0 6.024l3.012 33.129h-54.212l24.094 45.176h268.047zM861.365 767.247h-316.235l-57.224-105.412h72.282c0-3.012 0-6.024 0-6.024 0-78.306 66.259-138.541 150.588-138.541s150.588 63.247 150.588 138.541c0 3.012 0 6.024 0 6.024zM551.176 478.118c-25.385 0-48.2-11.264-63-29.765l-0.235-0.295-168.882-235.235c-19.553-27.375-15.729-67.11 12.529-87.294 27.375-19.553 67.051-15.729 87.235 12.529l123.294 162.766v-337.706h349.353c44.507 0 81.353 36.787 81.353 81.294v358.412c0 41.343-33.951 75.294-75.294 75.294zM551.176 448h346.353c24.916 0 45.176-20.261 45.176-45.176v-358.412c0-27.775-23.46-51.176-51.235-51.176h-319.235v397.176l-177.882-234.825c-9.933-13.907-30.504-16.094-45.294-5.529-13.891 9.922-16.053 30.39-5.529 45.176v0.060l168.176 234.235c9.294 11.617 22.691 18.47 39.47 18.47zM111.412 80.588v-72.294c0-23.090 18.74-45.176 45.176-45.176h256c24.763 0 48.235 18.74 48.235 45.176v72.294zM141.529 50.471h289.176v-42.176c0-9.705-6.74-15.059-18.118-15.059h-256c-9.705 0-15.059 8.031-15.059 15.059zM57.235 414.882c-23.090 0-45.176-18.74-45.176-45.176v-259c0-25.098 21.74-45.176 48.176-45.176h69.294v349.353zM57.235 384.765h42.176v-289.118h-39.176c-9.705 0-18.059 10.039-18.059 15.059v259c0 9.705 8.031 15.059 15.059 15.059zM812.588 471.235l-253-390.647h295.765v30.118h-240.353l222.882 344.176zM840.294 351.647v-373.471h30.118v373.471z" />
<glyph unicode="&#xe910;" glyph-name="email" d="M923.279 729.18v-562.361h-805.77v562.361h805.77zM923.279 775.344h-805.77c-25.18 0-46.164-20.984-46.164-46.164v-562.361c0-25.18 20.984-46.164 46.164-46.164h805.77c25.18 0 46.164 20.984 46.164 46.164v562.361c-4.197 25.18-20.984 46.164-46.164 46.164v0zM520.393 368.262c-29.377 0-58.754 12.59-83.934 33.574l-335.738 306.361c-8.393 8.393-8.393 20.984 0 33.574 4.197 8.393 20.984 8.393 29.377 0l335.738-306.361c29.377-29.377 75.541-29.377 104.918 0l335.738 306.361c8.393 8.393 25.18 8.393 33.574 0s8.393-25.18 0-33.574l-335.738-306.361c-25.18-20.984-54.557-33.574-83.934-33.574zM923.279 137.443c-4.197 0-12.59 0-16.787 4.197l-302.164 264.393c-8.393 8.393-8.393 20.984 0 33.574 8.393 8.393 20.984 8.393 33.574 0l302.164-264.393c8.393-8.393 8.393-20.984 0-33.574-4.197-4.197-8.393-4.197-16.787-4.197zM113.311 137.443c-4.197 0-12.59 4.197-16.787 8.393-8.393 8.393-8.393 25.18 0 33.574l302.164 264.393c8.393 8.393 25.18 8.393 33.574 0s8.393-25.18 0-33.574l-302.164-264.393c-4.197-8.393-12.59-8.393-16.787-8.393z" />
<glyph unicode="&#xe911;" glyph-name="email-circle" d="M512 960c141.517 0 269.312-57.549 361.882-149.914 92.774-92.774 149.914-220.774 149.914-362.291 0-141.107-57.344-269.312-149.914-361.882-92.57-92.365-220.365-149.914-361.882-149.914s-269.312 57.549-361.882 149.914c-92.774 92.774-149.914 220.774-149.914 361.882 0 141.517 57.344 269.517 149.914 362.291 92.57 92.365 220.365 149.914 361.882 149.914v0zM845.619 781.824c-85.402 85.197-203.162 138.035-333.619 138.035s-248.218-52.634-333.619-138.035c-85.606-85.402-138.24-203.571-138.24-333.824 0-130.048 52.634-248.218 138.24-333.619 85.402-85.402 203.162-138.24 333.619-138.24s248.218 53.043 333.619 138.24c85.606 85.402 138.24 203.571 138.24 333.619 0 130.253-52.634 248.422-138.24 333.824v0zM710.246 679.424h-404.685c-31.334 0-56.934-25.6-56.934-56.934v-328.499c0-31.334 25.6-56.934 56.934-56.934 72.294-0.205 120.832-0.41 153.395-0.41 42.803 0 58.368 0.205 64.717 0.41h186.573c31.334 0 56.934 25.6 56.934 56.934v328.499c0 31.539-25.6 56.934-56.934 56.934zM707.379 638.464l-178.381-178.381c-11.469-11.469-30.31-11.469-41.779 0l-178.381 178.381h398.541zM710.246 278.016h-186.573l-2.867-0.205c-15.77-0.41-135.578-0.205-215.245 0.205-8.602 0-15.974 7.373-15.974 15.974v305.971l168.755-168.755c13.722-13.722 31.744-20.685 49.766-20.685s36.045 6.758 49.766 20.685l168.141 168.141v-305.357c0.205-8.806-7.168-15.974-15.77-15.974z" />
<glyph unicode="&#xe912;" glyph-name="error" d="M514.235 947.765c-273.312-0.009-494.873-221.57-494.882-494.881v-0.001c0.009-273.312 221.57-494.873 494.881-494.882h0.001c273.312 0.009 494.873 221.57 494.882 494.881v0.001c-0.009 273.312-221.57 494.874-494.881 494.882h-0.001zM478 686.235h72.471v-116.647l-12.118-197.176h-48.235l-12.118 197.176v116.647zM514.235 308.059c24.141 0 40.235-20.153 40.235-44.294s-16.094-44.235-40.235-44.235c-24.141 0-40.235 20.094-40.235 44.235s16.094 44.294 40.235 44.294z" />
<glyph unicode="&#xe913;" glyph-name="expected-packages" horiz-adv-x="1019" d="M688.641 111.407h-360.296c-9.481 0-23.704 9.481-23.704 18.963l-37.926 137.481-237.037-4.741c-9.481 0-18.963 4.741-23.704 9.481-4.741 9.481-4.741 18.963 0 23.704l99.556 222.815c4.741 14.222 18.963 18.963 33.185 14.222s18.963-18.963 14.222-33.185l-85.333-184.889 213.333 4.741c9.481 0 23.704-9.481 23.704-18.963l37.926-137.481h327.111l71.111 142.222c4.741 9.481 9.481 14.222 23.704 14.222l189.63-4.741-90.074 184.889c-4.741 14.222 0 28.444 14.222 33.185s28.444 0 33.185-14.222l104.296-222.815c4.741-9.481 4.741-18.963 0-23.704-4.741-9.481-14.222-9.481-23.704-9.481l-218.074 4.741-71.111-142.222c0-9.481-4.741-14.222-14.222-14.222zM935.159-64h-848.593c-14.222 0-23.704 9.481-23.704 18.963l-61.63 327.111c-4.741 14.222 4.741 28.444 18.963 28.444 14.222 4.741 28.444-4.741 28.444-18.963l56.889-308.148h805.926l56.889 308.148c4.741 14.222 14.222 23.704 28.444 18.963s23.704-14.222 18.963-28.444l-61.63-327.111c4.741-9.481-9.481-18.963-18.963-18.963zM513.233 291.556c-9.481 0-14.222 4.741-18.963 9.481l-227.556 270.222c-4.741 9.481-9.481 18.963-4.741 28.444s14.222 14.222 23.704 14.222h104.296v322.37c0 14.222 9.481 23.704 23.704 23.704h189.63c14.222 0 23.704-9.481 23.704-23.704v-322.37h104.296c9.481 0 18.963-4.741 23.704-14.222s4.741-18.963-4.741-28.444l-227.556-270.222c4.741-4.741-4.741-9.481-9.481-9.481zM337.826 566.519l170.667-203.852 170.667 203.852h-75.852c-14.222 0-23.704 9.481-23.704 23.704v317.63h-142.222v-317.63c0-14.222-9.481-23.704-23.704-23.704z" />
<glyph unicode="&#xe914;" glyph-name="facebook" d="M512 960c141.312 0 268.288-57.344 362.496-149.504 92.16-92.16 149.504-221.184 149.504-362.496s-57.344-268.288-149.504-362.496c-94.208-92.16-221.184-149.504-362.496-149.504s-268.288 57.344-362.496 149.504c-92.16 94.208-149.504 221.184-149.504 362.496s57.344 268.288 149.504 362.496c92.16 92.16 221.184 149.504 362.496 149.504v0zM845.824 781.824c-86.016 86.016-202.752 137.216-333.824 137.216s-247.808-51.2-333.824-137.216-137.216-202.752-137.216-333.824 53.248-247.808 139.264-333.824c83.968-86.016 200.704-137.216 331.776-137.216s247.808 53.248 333.824 137.216c86.016 86.016 137.216 202.752 137.216 333.824s-51.2 247.808-137.216 333.824v0zM550.912 552.448v40.96c0 20.48 14.336 24.576 22.528 24.576 10.24 0 59.392 0 59.392 0v90.112h-79.872c-90.112 0-110.592-65.536-110.592-108.544v-47.104h-53.248v-104.448h53.248c0-118.784 0-262.144 0-262.144h104.448c0 0 0 145.408 0 262.144h77.824l4.096 40.96 6.144 63.488h-83.968z" />
<glyph unicode="&#xe915;" glyph-name="help" d="M560.762 677.181c0-29.257-19.505-48.762-48.762-48.762s-48.762 19.505-48.762 48.762c0 29.257 19.505 53.638 48.762 53.638s48.762-24.381 48.762-53.638zM468.114 174.933v390.095h82.895v-390.095h-82.895zM512-34.743c-268.19 0-482.743 219.429-482.743 482.743 0 268.19 214.552 482.743 482.743 482.743s482.743-219.429 482.743-482.743c0-268.19-214.552-482.743-482.743-482.743zM512 881.981c-238.933 0-433.981-195.048-433.981-433.981s195.048-433.981 433.981-433.981 433.981 195.048 433.981 433.981c0 238.933-195.048 433.981-433.981 433.981z" />
<glyph unicode="&#xe916;" glyph-name="instagram" d="M512 960c141.312 0 268.288-57.344 362.496-149.504 92.16-92.16 149.504-221.184 149.504-362.496s-57.344-268.288-149.504-362.496c-94.208-92.16-221.184-149.504-362.496-149.504s-268.288 57.344-362.496 149.504c-92.16 94.208-149.504 221.184-149.504 362.496s57.344 270.336 149.504 362.496c92.16 92.16 221.184 149.504 362.496 149.504v0zM845.824 781.824c-86.016 86.016-202.752 137.216-333.824 137.216s-247.808-51.2-333.824-137.216c-86.016-86.016-137.216-202.752-137.216-333.824s53.248-247.808 139.264-333.824c83.968-86.016 200.704-137.216 331.776-137.216s247.808 53.248 333.824 139.264c86.016 83.968 137.216 200.704 137.216 331.776s-51.2 247.808-137.216 333.824v0zM512 677.376c73.728 0 81.92 0 110.592-2.048 26.624-2.048 40.96-6.144 51.2-10.24 12.288-6.144 22.528-10.24 32.768-20.48s14.336-18.432 20.48-32.768c4.096-10.24 8.192-24.576 10.24-51.2 2.048-28.672 2.048-36.864 2.048-110.592s0-81.92-2.048-110.592c-2.048-26.624-6.144-40.96-10.24-51.2-6.144-12.288-10.24-22.528-20.48-32.768s-18.432-14.336-32.768-20.48c-10.24-4.096-24.576-8.192-51.2-10.24-28.672-2.048-36.864-2.048-110.592-2.048s-81.92 0-110.592 2.048c-26.624 2.048-40.96 6.144-51.2 10.24-12.288 6.144-22.528 10.24-32.768 20.48s-14.336 18.432-20.48 32.768c-4.096 10.24-8.192 24.576-10.24 51.2 0 30.72 0 38.912 0 112.64s0 81.92 2.048 110.592c2.048 26.624 6.144 40.96 10.24 51.2 6.144 12.288 10.24 22.528 20.48 32.768s18.432 14.336 32.768 20.48c10.24 4.096 24.576 8.192 51.2 10.24 26.624 0 36.864 0 108.544 0zM512 726.528c-73.728 0-83.968 0-112.64-2.048s-49.152-6.144-67.584-12.288c-18.432-6.144-32.768-16.384-49.152-32.768s-24.576-30.72-32.768-49.152c-6.144-18.432-10.24-36.864-12.288-67.584-2.048-28.672-2.048-38.912-2.048-112.64s0-83.968 2.048-112.64c2.048-28.672 6.144-49.152 12.288-67.584s16.384-32.768 32.768-49.152 30.72-24.576 49.152-32.768c18.432-6.144 36.864-10.24 67.584-12.288 28.672-2.048 38.912-2.048 112.64-2.048s83.968 0 112.64 2.048c28.672 2.048 49.152 6.144 67.584 12.288s32.768 16.384 49.152 32.768c14.336 14.336 24.576 30.72 32.768 49.152 6.144 18.432 10.24 36.864 12.288 67.584 2.048 28.672 2.048 38.912 2.048 112.64s0 83.968-2.048 112.64c-2.048 28.672-6.144 49.152-12.288 67.584s-16.384 32.768-32.768 49.152c-14.336 14.336-30.72 24.576-49.152 32.768-18.432 6.144-36.864 10.24-67.584 12.288-28.672 2.048-38.912 2.048-112.64 2.048zM512 593.408c-77.824 0-141.312-63.488-141.312-141.312s63.488-141.312 141.312-141.312 141.312 63.488 141.312 141.312c0 77.824-63.488 141.312-141.312 141.312zM512 359.936c-51.2 0-90.112 40.96-90.112 90.112s40.96 90.112 90.112 90.112 90.112-40.96 90.112-90.112-38.912-90.112-90.112-90.112zM692.224 599.552c0-18.432-14.336-32.768-32.768-32.768s-32.768 14.336-32.768 32.768c0 18.432 14.336 32.768 32.768 32.768 16.384 0 32.768-16.384 32.768-32.768z" />
<glyph unicode="&#xe917;" glyph-name="language" d="M516.876-20.114c-258.438 0-468.114 209.676-468.114 468.114s209.676 468.114 468.114 468.114 468.114-209.676 468.114-468.114c4.876-258.438-209.676-468.114-468.114-468.114zM516.876 872.229c-229.181 0-419.352-190.171-419.352-424.229s190.171-419.352 419.352-419.352 419.352 190.171 419.352 419.352c4.876 234.057-185.295 424.229-419.352 424.229zM516.876-20.114c-156.038 0-277.943 204.8-277.943 468.114s121.905 468.114 277.943 468.114 277.943-204.8 277.943-468.114-121.905-468.114-277.943-468.114zM516.876 872.229c-126.781 0-229.181-195.048-229.181-419.352s107.276-419.352 229.181-419.352 229.181 195.048 229.181 419.352-102.4 419.352-229.181 419.352zM516.876-20.114c-14.629 0-24.381 9.752-24.381 24.381v887.467c0 14.629 9.752 24.381 24.381 24.381s24.381-9.752 24.381-24.381v-887.467c0-14.629-9.752-24.381-24.381-24.381zM975.238 423.619h-916.724c-14.629 0 24.381 9.752 24.381 24.381s-34.133 24.381-24.381 24.381h916.724c14.629 0-24.381-9.752-24.381-24.381s39.010-24.381 24.381-24.381z" />
<glyph unicode="&#xe918;" glyph-name="lightbulb" d="M512 777.429c-154.548 0-278.476-122.633-278.476-276 0-76.683 32.768-121.924 66.857-160.381 34.046-38.409 68.651-71.602 86-134.952 9.653-38.438 0-79.143 0-79.143-2.904-11.65 12.902 15.856 24.908 15.837 69.464 88.548 59.636 7.183 89.454 10.775l14.489 21.011 96.458-29.092c12.007 0.019 25.118-30.182 22.215-18.531 0 0-9.48 40.542 0 78.857 19.127 63.309 54.621 96.731 89.143 135.143 34.607 38.507 67.429 83.793 67.429 160.476 0 153.367-123.928 276-278.476 276zM512 740.476c135.147 0 241.524-105.454 241.524-239.048 0-66.797-24.826-98.898-58-135.81s-75.476-77.016-97.238-149.524c-0.068-0.283-0.132-0.57-0.19-0.857-9.596-38.020 4.612-51.502 7.542-66.743l-96.87 38.251-86.577-45.794v9.697c2.93 15.242 9.596 26.568 0 64.588-0.030 0.127-0.062 0.254-0.095 0.38-19.813 72.618-61.236 112.943-94 149.905s-57.619 69.108-57.619 135.905c0 133.593 106.377 239.048 241.524 239.048zM508 954.286c-10.082-0.163-18.193-8.375-18.193-18.48 0-0.099 0.001-0.198 0.002-0.296v0.015-80.952c-0.004-0.145-0.006-0.316-0.006-0.488 0-10.208 8.275-18.483 18.483-18.483s18.483 8.275 18.483 18.483c0 0.171-0.002 0.342-0.007 0.513l0.001-0.025v80.952c0.001 0.084 0.002 0.182 0.002 0.281 0 10.208-8.275 18.483-18.483 18.483-0.099 0-0.198-0.001-0.296-0.002h0.015zM898.381 707.619c-2.409-0.031-4.696-0.518-6.79-1.378l0.123 0.045-78-29.429c-7.296-2.584-12.427-9.424-12.427-17.463 0-10.208 8.275-18.483 18.483-18.483 2.521 0 4.925 0.505 7.115 1.419l-0.122-0.045 78 29.429c7.237 2.616 12.316 9.426 12.316 17.423 0 10.208-8.275 18.483-18.483 18.483-0.075 0-0.15 0-0.225-0.001h0.011zM830.667 369.143c-9.979-0.292-17.958-8.452-17.958-18.475 0-6.67 3.533-12.514 8.83-15.765l0.081-0.046 70.571-44.095c2.783-1.768 6.174-2.818 9.81-2.818 10.209 0 18.484 8.276 18.484 18.484 0 6.573-3.431 12.345-8.599 15.622l-0.075 0.045-70.571 44.095c-2.833 1.856-6.304 2.96-10.033 2.96-0.189 0-0.378-0.003-0.566-0.008l0.028 0.001zM207.619 369.143c-3.717-0.004-7.175-1.105-10.071-2.996l0.071 0.043-70.571-44.095c-5.244-3.322-8.675-9.094-8.675-15.667 0-10.209 8.276-18.484 18.484-18.484 3.636 0 7.026 1.050 9.885 2.862l-0.075-0.045 70.571 44.095c5.37 3.297 8.898 9.138 8.898 15.803 0 10.208-8.275 18.483-18.483 18.483-0.012 0-0.024 0-0.036 0h0.002zM120.857 703.905c-9.785-0.526-17.52-8.588-17.52-18.458 0-8.126 5.244-15.027 12.533-17.504l0.13-0.038 74.286-25.81c1.802-0.644 3.881-1.017 6.048-1.017 10.213 0 18.493 8.28 18.493 18.493 0 8.047-5.14 14.894-12.316 17.436l-0.129 0.040-74.286 25.714c-1.915 0.734-4.13 1.16-6.444 1.16-0.279 0-0.557-0.006-0.833-0.018l0.039 0.001zM468 189.714c-24.083 0-46.158-6.462-63.333-18.286s-30-30.373-30-52v-3.619c0-21.627 12.825-40.081 30-51.905s39.25-18.286 63.333-18.286h84.857c24.083 0 46.158 6.462 63.333 18.286s30 30.278 30 51.905v3.619c0 21.627-12.825 40.176-30 52s-39.25 18.286-63.333 18.286zM468 151.238h84.857c16.981 0 31.903-4.9 41.524-11.524s13.429-13.642 13.429-20.286v-3.619c0-6.644-3.808-13.662-13.429-20.286s-24.542-11.524-41.524-11.524h-84.857c-16.981 0-31.903 4.9-41.524 11.524s-13.333 13.642-13.333 20.286v3.619c0 6.644 3.713 13.662 13.333 20.286s24.542 11.524 41.524 11.524zM466.524 84.238c-24.083 0-46.158-6.462-63.333-18.286s-30-30.373-30-52v-3.619c0-21.627 12.825-40.081 30-51.905s39.25-18.286 63.333-18.286h84.857c24.083 0 46.158 6.462 63.333 18.286s30 30.278 30 51.905v3.619c0 21.627-12.825 40.176-30 52s-39.25 18.286-63.333 18.286zM466.524 45.762h84.857c16.981 0 31.903-4.9 41.524-11.524s13.429-13.642 13.429-20.286v-3.619c0-6.644-3.808-13.662-13.429-20.286s-24.542-11.524-41.524-11.524h-84.857c-16.981 0-31.903 4.9-41.524 11.524s-13.333 13.642-13.333 20.286v3.619c0 6.644 3.713 13.662 13.333 20.286s24.542 11.524 41.524 11.524z" />
<glyph unicode="&#xe919;" glyph-name="livechat" d="M513.772-64c-283.46 0-513.772 226.768-513.772 510.228s230.311 513.772 513.772 513.772 513.772-230.311 513.772-513.772-230.311-510.228-513.772-510.228zM513.772 924.567c-265.744 0-478.339-212.595-478.339-478.339s212.595-478.339 478.339-478.339 478.339 212.595 478.339 478.339-216.138 478.339-478.339 478.339zM751.17 130.879l-3.543 3.543v-3.543zM722.824 531.266v85.038c-3.543 49.606-42.519 88.581-92.125 88.581h-329.522c-49.606 0-88.581-38.976-88.581-88.581v-187.792c0-46.062 35.433-81.495 77.952-88.581v-127.557l113.384 113.384c0-46.062 38.976-88.581 88.581-88.581h152.36l102.754-102.754v106.298c35.433 14.173 60.235 46.062 60.235 85.038v116.927c0 49.606-35.433 85.038-85.038 88.581zM400.388 375.363l-77.952-77.952v77.952h-21.26c-28.346 0-53.149 24.803-53.149 53.149v187.792c0 28.346 24.803 53.149 56.692 53.149h322.436c31.889 0 56.692-21.26 56.692-53.149v-187.792c0-28.346-21.26-53.149-53.149-53.149h-230.311zM775.972 325.758c0-28.346-21.26-49.606-46.062-53.149l-14.173-3.543v-53.149l-56.692 56.692h-166.533c-28.346 0-53.149 24.803-53.149 53.149v14.173h194.879c49.606 0 88.581 38.976 88.581 88.581v67.322c28.346 0 53.149-21.26 53.149-53.149v-116.927z" />
<glyph unicode="&#xe91a;" glyph-name="logout" d="M448.61 209.067c-4.876 0-4.876 0-9.752 0-9.752 4.876-14.629 14.629-14.629 24.381v102.4h-307.2c-14.629 0-24.381 9.752-24.381 24.381v180.419c0 14.629 9.752 24.381 24.381 24.381h302.324v97.524c0 9.752 4.876 19.505 14.629 24.381s19.505 4.876 24.381-4.876l258.438-214.552c4.876-4.876 9.752-9.752 9.752-19.505s-4.876-14.629-9.752-19.505l-258.438-214.552c0-4.876-4.876-4.876-9.752-4.876zM141.41 379.733h302.324c14.629 0 24.381-9.752 24.381-24.381v-73.143l195.048 165.79-195.048 165.79v-73.143c0-14.629-9.752-24.381-24.381-24.381h-302.324v-136.533zM833.829-39.619h-565.638c-34.133 0-58.514 34.133-58.514 73.143v165.79c0 14.629 9.752 24.381 24.381 24.381s24.381-9.752 24.381-24.381v-165.79c0-14.629 9.752-24.381 9.752-24.381h565.638c4.876 0 9.752 9.752 9.752 24.381v833.829c0 14.629-9.752 24.381-9.752 24.381h-565.638c-4.876 0-9.752-9.752-9.752-24.381v-170.667c0-19.505-9.752-29.257-24.381-29.257s-24.381 9.752-24.381 24.381v175.543c0 39.010 29.257 73.143 58.514 73.143h565.638c34.133 0 58.514-34.133 58.514-73.143v-833.829c0-43.886-24.381-73.143-58.514-73.143z" />
<glyph unicode="&#xe91b;" glyph-name="magnifier" d="M949.169 46.277l-236.308 236.308c0 0-3.938 0-3.938 3.938 59.077 66.954 98.462 153.6 98.462 248.123 0 200.862-165.415 366.277-366.277 366.277s-366.277-165.415-366.277-366.277c0-200.862 165.415-366.277 366.277-366.277 90.585 0 177.231 35.446 240.246 90.585 0 0 0-3.938 3.938-3.938l236.308-236.308c3.938-3.938 11.815-3.938 15.754-3.938s11.815 0 11.815 3.938c7.877 7.877 7.877 19.692 0 27.569zM441.108 207.754c-181.169 0-326.892 145.723-326.892 326.892s145.723 326.892 326.892 326.892c181.169 0 326.892-145.723 326.892-326.892s-145.723-326.892-326.892-326.892z" />
<glyph unicode="&#xe91c;" glyph-name="my-account" d="M512 389.486c-107.276 0-195.048 87.771-195.048 195.048s87.771 195.048 195.048 195.048c107.276 0 195.048-87.771 195.048-195.048s-87.771-195.048-195.048-195.048zM512 730.819c-82.895 0-146.286-63.39-146.286-146.286s63.39-146.286 146.286-146.286 146.286 63.39 146.286 146.286-63.39 146.286-146.286 146.286zM682.667-24.99h-341.333c-58.514 0-107.276 29.257-141.41 78.019-29.257 48.762-29.257 112.152-4.876 160.914l68.267 126.781c19.505 39.010 58.514 63.39 102.4 63.39h292.571c43.886 0 82.895-24.381 107.276-63.39l68.267-126.781c24.381-48.762 24.381-107.276-4.876-160.914-43.886-53.638-97.524-78.019-146.286-78.019zM365.714 355.352c-24.381 0-48.762-14.629-63.39-39.010l-68.267-126.781c-19.505-34.133-19.505-78.019 4.876-112.152s58.514-53.638 97.524-53.638h341.333c34.133 0 73.143 19.505 102.4 58.514 19.505 29.257 19.505 73.143 0 107.276l-68.267 126.781c-9.752 24.381-34.133 39.010-63.39 39.010h-282.819z" />
<glyph unicode="&#xe91d;" glyph-name="my-packages" d="M419.352-0.61c-4.876 0-9.752 0-14.629 4.876l-375.467 243.81c-4.876 4.876-9.752 9.752-9.752 19.505v487.619c0 9.752 4.876 19.505 14.629 19.505 9.752 4.876 19.505 4.876 24.381 0l375.467-243.81c4.876-4.876 9.752-14.629 9.752-19.505v-487.619c0-9.752-4.876-19.505-14.629-19.505 0-4.876-4.876-4.876-9.752-4.876zM68.267 277.333l326.705-209.676v429.105l-326.705 209.676v-429.105zM297.448 355.352c-4.876 0-9.752 0-14.629 4.876l-136.533 87.771c-4.876 0-9.752 9.752-9.752 19.505v214.552c0 9.752 4.876 19.505 14.629 19.505 9.752 4.876 19.505 4.876 24.381 0l136.533-82.895c4.876-4.876 9.752-9.752 9.752-19.505v-224.305c0-9.752-4.876-19.505-14.629-19.505-4.876 0-4.876 0-9.752 0zM185.295 477.257l87.771-53.638v165.79l-87.771 48.762v-160.914zM989.867 608.914l-380.343 238.933-560.762-117.029-9.752 48.762 570.514 121.905c4.876 0 14.629 0 19.505-4.876l390.095-243.81-29.257-43.886zM419.352-0.61c-4.876 0-9.752 0-14.629 4.876s-9.752 9.752-9.752 19.505v487.619c0 9.752 9.752 19.505 19.505 24.381l580.267 121.905c4.876 0 14.629 0 19.505-4.876s9.752-9.752 9.752-19.505v-487.619c0-9.752-9.752-19.505-19.505-24.381l-585.143-121.905c4.876 0 4.876 0 0 0zM443.733 487.010v-433.981l531.505 112.152v433.981l-531.505-112.152zM157.454 702.996l572.094 122.88 10.24-47.675-572.094-122.88-10.24 47.675zM279.342 620.106l572.094 122.88 10.24-47.675-572.094-122.88-10.24 47.675z" />
<glyph unicode="&#xe91e;" glyph-name="myshipito" d="M278.606 824.722c-144.28 0-268.38-118.226-268.38-268.494 0-32.644 6.779-65.2 19.374-97.096 36.488-114.69 153.142-227.611 260.175-316.928 107.324-89.56 206.499-153.165 206.499-153.165l15.841-10.143 15.841 10.257c0 0 97.568 63.644 204.106 153.165 106.317 89.336 222.844 202.319 262.226 316.244 12.74 32.074 19.487 64.83 19.487 97.665v1.368c-6.466 148.72-124.1 267.127-268.38 267.127-140.816 0-203.38-90.128-231.912-139.489-8.642 17.516-7.741 24.166-28.377 47.75-39.754 45.433-107.275 91.739-206.499 91.739zM278.606 766.373c81.656 0 130.901-35.541 162.624-71.796s42.964-71.34 42.964-71.34l23.932-74.303 30.656 71.682c0 0 62.687 145.757 206.613 145.757 112.263 0 204.428-91.444 209.918-210.829-0.088-25.061-4.939-50.183-15.271-76.013l-0.228-0.572-0.344-0.798c-30.876-90.055-141.387-204.189-244.904-291.172-95.265-80.049-169.256-128.231-182.681-137.096-13.503 8.789-88.766 57.017-184.73 137.098-104.189 86.944-214.36 201.282-242.397 290.489l-0.342 1.026-0.456 1.026c-10.424 26.061-15.385 51.412-15.385 76.696 0 118.134 97.578 210.146 210.032 210.146z" />
<glyph unicode="&#xe91f;" glyph-name="my-us-address" d="M516.876-54.248l-273.067 482.743c0 4.876-53.638 97.524-58.514 190.171 0 126.781 73.143 243.81 185.295 302.324 24.381 9.752 48.762 19.505 73.143 24.381s48.762 9.752 73.143 9.752c180.419 0 331.581-151.162 331.581-331.581 0-102.4-53.638-185.295-58.514-190.171l-273.067-487.619zM516.876 901.486c-19.505 0-39.010 0-58.514-4.876-24.381-4.876-43.886-9.752-63.39-19.505-97.524-48.762-160.914-146.286-160.914-258.438 0-82.895 48.762-165.79 48.762-165.79l229.181-404.724 234.057 409.6c0 0 48.762 78.019 48.762 165.79 4.876 151.162-121.905 277.943-277.943 277.943zM516.876 477.257c-82.895 0-146.286 68.267-146.286 146.286s68.267 146.286 146.286 146.286c82.895 0 146.286-68.267 146.286-146.286s-63.39-146.286-146.286-146.286zM516.876 725.943c-53.638 0-97.524-43.886-97.524-97.524s43.886-97.524 97.524-97.524c53.638 0 97.524 43.886 97.524 97.524s-43.886 97.524-97.524 97.524zM516.876 477.257c-82.895 0-146.286 68.267-146.286 146.286s68.267 146.286 146.286 146.286 146.286-68.267 146.286-146.286-63.39-146.286-146.286-146.286zM516.876 725.943c-53.638 0-97.524-43.886-97.524-97.524s43.886-97.524 97.524-97.524 97.524 43.886 97.524 97.524c0 53.638-43.886 97.524-97.524 97.524z" />
<glyph unicode="&#xe920;" glyph-name="notification" d="M512 4.267c-48.762 0-117.029 24.381-136.533 141.41l-4.876 29.257h282.819l-4.876-29.257c-19.505-117.029-87.771-141.41-136.533-141.41zM429.105 126.171c19.505-63.39 53.638-68.267 82.895-68.267s63.39 9.752 82.895 68.267h-165.79zM941.105 126.171h-858.21l9.752 29.257c0 9.752 4.876 19.505 9.752 24.381l-4.876 9.752 4.876 4.876c78.019 43.886 117.029 87.771 117.029 126.781v273.067c9.752 102.4 92.648 190.171 204.8 219.429 14.629 0 24.381 9.752 24.381 19.505v9.752c0 48.762 24.381 73.143 63.39 73.143s63.39-24.381 63.39-68.267v-14.629c0-9.752 9.752-19.505 19.505-24.381 112.152-29.257 195.048-117.029 204.8-214.552v-273.067c0-39.010 39.010-82.895 117.029-126.781l4.876-4.876 4.876-9.752c4.876-9.752 4.876-19.505 9.752-24.381l4.876-29.257zM165.79 174.933h687.543c-68.267 48.762-102.4 97.524-102.4 146.286v273.067c-4.876 73.143-73.143 146.286-165.79 170.667-34.133 9.752-53.638 39.010-53.638 73.143v9.752c0 19.505-4.876 19.505-14.629 19.505s-14.629 0-14.629-24.381v-9.752c-4.876-34.133-29.257-63.39-63.39-68.267-92.648-24.381-160.914-97.524-165.79-175.543v-268.19c0-48.762-34.133-97.524-107.276-146.286z" />
<glyph unicode="&#xe921;" glyph-name="packages-in-warehouse" horiz-adv-x="1019" d="M509.683 960l-509.683-254.842v-764.525h194.606v630.154h630.154v-630.154h194.606v759.891zM968.398-13.032h-101.937v583.819c0 23.167-23.167 46.335-46.335 46.335h-625.52c-23.167 0-46.335-23.167-46.335-46.335v-583.819h-101.937v685.756l463.348 231.674 458.715-231.674zM634.787 403.982h-250.208v-217.774h-101.937v-250.208h454.081v250.208h-101.937zM430.914 357.647h157.538v-171.439h-157.538zM328.977-13.032v157.538h157.538v-157.538zM685.756 139.873v-157.538h-157.538v157.538h101.937z" />
<glyph unicode="&#xe922;" glyph-name="partners" horiz-adv-x="1036" d="M620.38-59.017c-19.932 0-39.864 9.966-54.813 24.915l-370.592 376.501c-9.966-4.983-15.146-28.185-20.129-18.219l-112.56 115.1c-9.966 9.966-9.966 24.915 0 34.881l229.217 234.2c0 4.983 4.983 9.966 14.949 9.966l433.518-4.983c14.949 0 24.915-9.966 24.915-24.915s-9.966-24.915-24.915-24.915v0l-423.552 4.983-204.302-209.285 104.642-109.625 9.966 4.983c9.966 4.983 24.915 4.983 29.898-4.983l338.842-348.808c9.966-9.966 29.898-9.966 39.864 0 9.966 14.949 9.966 29.898 0 44.847l-64.779 74.745c-9.966 9.966-9.966 24.915 0 34.881s24.915 9.966 34.881 0l104.642-109.625c4.983-4.983 9.966-9.966 19.932-9.966v0c4.983 0 14.949 4.983 19.932 9.966 9.966 9.966 9.966 19.932 4.983 34.881-4.983 4.983-9.966 4.983-9.966 9.966l-99.659 104.642c-9.966 9.966-9.966 24.915 0 34.881s24.915 9.966 34.881 0l109.625-109.625c0-4.983 4.983-4.983 4.983-9.966h9.966c4.983 0 14.949 4.983 19.932 9.966 9.966 14.949 9.966 29.898 0 44.847l-109.625 109.625c-9.966 9.966-9.966 24.915 0 34.881s24.915 9.966 34.881 0l79.727-64.779c14.949-14.949 29.898-14.949 39.864 0s9.966 29.898 0 44.847l-219.251 224.234c-9.966 9.966-9.966 24.915 0 34.881s24.915 9.966 34.881 0l219.251-224.234c29.898-29.898 29.898-79.727 0-114.608-9.966-9.966-24.915-19.932-39.864-19.932 19.932-29.898 14.949-69.762-9.966-99.659-14.949-14.949-29.898-19.932-44.847-24.915 0-19.932-9.966-39.864-24.915-54.813s-34.881-24.915-54.813-24.915v0c-14.949 0-29.898 4.983-39.864 9.966-4.983-9.966-9.966-19.932-19.932-24.915-9.966-19.932-29.898-29.898-49.83-29.898zM156.964 175.182c-19.932 0-39.864 4.983-49.83 19.932l-9.966 9.966c-24.915 24.915-24.915 74.745 0 99.659l59.796 54.813c9.966 9.966 29.898 19.932 49.83 19.932v0c19.932 0 39.864-4.983 49.83-19.932l9.966-9.966c14.949-9.966 19.932-24.915 24.915-44.847 0-19.932-4.983-39.864-24.915-59.796v0l-59.796-54.813c-9.966-9.966-29.898-14.949-49.83-14.949zM206.793 334.637c-4.983 0-9.966 0-14.949-4.983l-59.796-54.813c-4.983-4.983-4.983-24.915 0-29.898l14.949-14.949c4.983-4.983 24.915-4.983 29.898 0l59.796 54.813c4.983 4.983 9.966 14.949 9.966 19.932s0 9.966-4.983 9.966l-14.949 14.949c-4.983 0-14.949 4.983-19.932 4.983zM201.81 60.574c-19.932 0-39.864 4.983-49.83 19.932l-9.966 9.966c-24.915 24.915-24.915 74.745 0 99.659l99.659 94.676c24.915 24.915 74.745 24.915 99.659 0l9.966-9.966c24.915-24.915 24.915-74.745 0-99.659l-99.659-94.676c-9.966-14.949-29.898-19.932-49.83-19.932zM286.521 254.91c-4.983 0-9.966 0-14.949-4.983l-99.659-94.676c-4.983-4.983-4.983-24.915 0-29.898l9.966-9.966c4.983-4.983 24.915-4.983 29.898 0l99.659 94.676c4.983 4.983 4.983 24.915 0 29.898l-9.966 9.966c0 4.983-4.983 4.983-14.949 4.983zM276.555-19.153v0c-19.932 0-39.864 4.983-49.83 19.932l-9.966 9.966c-24.915 24.915-24.915 74.745 0 99.659l99.659 94.676c24.915 24.915 74.745 24.915 99.659 0l9.966-9.966c24.915-34.881 24.915-74.745 0-99.659l-99.659-94.676c-9.966-14.949-29.898-19.932-49.83-19.932zM366.248 180.165c-4.983 0-9.966 0-14.949-4.983l-99.659-94.676c-4.983-4.983-4.983-24.915 0-29.898l9.966-9.966c4.983-4.983 9.966-4.983 14.949-4.983v0c4.983 0 9.966 0 14.949 4.983l99.659 94.676c4.983 9.966 4.983 19.932 0 34.881l-9.966 4.983c-4.983 0-9.966 4.983-14.949 4.983zM391.163-64c-19.932 0-39.864 4.983-49.83 19.932l-9.966 9.966c-24.915 24.915-24.915 74.745 0 99.659l59.796 59.796c9.966 9.966 29.898 19.932 49.83 19.932v0c19.932 0 39.864-4.983 49.83-19.932l9.966-9.966c14.949-9.966 19.932-24.915 24.915-44.847 0-19.932-4.983-39.864-24.915-59.796v0l-59.796-54.813c-9.966-14.949-29.898-19.932-49.83-19.932zM440.993 95.455c-4.983 0-9.966 0-14.949-4.983l-59.796-54.813c-4.983-4.983-4.983-24.915 0-29.898l9.966-9.966c4.983-4.983 24.915-4.983 29.898 0l59.796 54.813c4.983 4.983 9.966 14.949 9.966 19.932s0 9.966-4.983 9.966l-14.949 14.949c-4.983-4.983-9.966 0-14.949 0zM874.511 324.672l-34.881 34.881 94.676 89.693-204.302 204.302h-234.2l-169.421-159.455c-4.983-4.983-4.983-14.949-4.983-19.932s4.983-14.949 9.966-19.932l34.881-34.881c9.966-9.966 24.915-9.966 34.881 0l119.591 119.591c19.932 24.915 54.813 39.864 89.693 39.864s64.779-14.949 89.693-39.864l-39.864-34.881c-24.915 29.898-74.745 29.898-99.659 0l-119.591-119.591c-29.898-29.898-79.727-29.898-109.625 0l-34.881 34.881c-14.949 14.949-24.915 34.881-24.915 54.813s9.966 39.864 24.915 54.813l184.37 184.37h274.063l254.131-259.114zM972.134 418.783v0c-5.036 0-15.108 5.036-20.144 10.072l-251.803 256.839c-10.072 10.072-10.072 25.18 0 35.252l211.515 216.551c10.072 10.072 25.18 10.072 35.252 0s10.072-25.18 0-35.252l-196.406-201.442 216.551-221.587 30.216 35.252c10.072 10.072 25.18 10.072 35.252 0s10.072-25.18 0-35.252l-50.361-50.361c0-5.036-5.036-10.072-10.072-10.072zM77.236 424.331c-4.983 0-14.949 4.983-19.932 9.966l-49.83 49.83c-9.966 9.966-9.966 24.915 0 34.881s24.915 9.966 34.881 0l29.898-34.881 224.234 234.2-194.336 199.319c-4.983 9.966-4.983 24.915 4.983 34.881s24.915 9.966 34.881 0l214.268-219.251c9.966-9.966 9.966-24.915 0-34.881l-259.114-269.080c-9.966-4.983-14.949-4.983-19.932-4.983z" />
<glyph unicode="&#xe923;" glyph-name="pencil" d="M398.543 120.338c-4.318 0-12.954 4.318-17.271 4.318l-189.986 189.986c-8.636 8.636-8.636 21.589 0 30.225l453.376 453.376c8.636 8.636 21.589 8.636 30.225 0l189.986-189.986c8.636-8.636 8.636-21.589 0-30.225l-453.376-453.376c-4.318-4.318-8.636-4.318-12.954-4.318zM238.782 331.914l159.761-159.761 418.834 418.834-159.761 159.761zM113.564 25.345c-4.318 0-12.954 4.318-17.271 4.318-4.318 4.318-8.636 12.954-4.318 21.589l94.993 284.98c4.318 8.636 8.636 12.954 17.271 12.954s12.954 0 21.589-4.318l189.986-189.986c4.318-4.318 8.636-12.954 4.318-21.589 0-8.636-8.636-12.954-12.954-17.271l-284.98-94.993c-4.318 4.318-8.636 4.318-8.636 4.318zM217.193 288.735l-69.086-211.576 211.576 69.086zM847.602 569.397c-4.318 0-12.954 0-17.271 4.318l-189.986 189.986c-4.318 4.318-4.318 8.636-4.318 17.271s4.318 12.954 8.636 17.271l94.993 94.993c21.589 21.589 56.132 21.589 77.722 0l142.49-142.49c21.589-21.589 21.589-56.132 0-77.722v0l-94.993-94.993c-4.318-4.318-12.954-8.636-17.271-8.636zM687.841 780.973l159.761-159.761 77.722 77.722c4.318 4.318 4.318 12.954 0 17.271l-142.49 142.49c-4.318 4.318-12.954 4.318-17.271 0z" />
<glyph unicode="&#xe924;" glyph-name="phone" d="M285.377 817.311v0 0zM281.18 813.115l151.082-155.279c-25.18-25.18-50.361-50.361-79.738-75.541-4.197-4.197-8.393-12.59-16.787-20.984-16.787-29.377 0-58.754 12.59-75.541v-4.197c8.393-12.59 16.787-29.377 25.18-41.967 20.984-29.377 41.967-54.557 67.148-83.934 25.18-25.18 54.557-50.361 79.738-71.344 12.59-8.393 25.18-16.787 41.967-25.18l4.197-4.197c16.787-12.59 33.574-20.984 50.361-20.984 8.393 0 12.59 0 20.984 4.197s16.787 8.393 16.787 12.59c25.18 25.18 50.361 50.361 75.541 75.541l4.197 4.197 151.082-155.279-96.525-92.328c-25.18-20.984-50.361-33.574-79.738-33.574s-62.951 12.59-96.525 20.984c-209.836 88.131-465.836 386.098-470.033 566.557 0 29.377 12.59 58.754 41.967 83.934l96.525 92.328zM285.377 859.279c-12.59 0-20.984-4.197-33.574-12.59l-96.525-96.525c-33.574-33.574-54.557-75.541-54.557-113.311 0-197.246 268.59-512 499.41-595.934 33.574-12.59 71.344-25.18 109.115-25.18s71.344 12.59 109.115 46.164l96.525 92.328c16.787 16.787 20.984 37.77 8.393 50.361l-163.672 167.869c-4.197 4.197-12.59 8.393-20.984 8.393s-20.984-4.197-29.377-12.59c-29.377-29.377-58.754-54.557-83.934-83.934l-4.197-4.197c0 0 0 0-4.197 0-8.393 0-25.18 12.59-33.574 16.787-12.59 8.393-25.18 16.787-37.77 25.18-25.18 20.984-50.361 41.967-75.541 62.951-20.984 25.18-41.967 50.361-62.951 75.541-8.393 12.59-16.787 25.18-20.984 37.77-4.197 8.393-20.984 25.18-12.59 37.77 4.197 8.393 4.197 12.59 8.393 12.59 29.377 25.18 54.557 50.361 79.738 75.541 16.787 16.787 20.984 37.77 8.393 50.361l-163.672 167.869c-8.393 12.59-12.59 16.787-20.984 16.787v0z" />
<glyph unicode="&#xe925;" glyph-name="plus" d="M87.771 487.010h853.333v-48.762h-853.333v48.762zM487.619 891.733h48.762v-853.333h-48.762v853.333z" />
<glyph unicode="&#xe926;" glyph-name="pricing" d="M234.057-39.619c-14.629 0-29.257 4.876-34.133 9.752-9.752 9.752-29.257 29.257-24.381 73.143l34.133 185.295c4.876 43.886-14.629 102.4-43.886 131.657l-136.533 131.657c-29.257 34.133-29.257 63.39-24.381 73.143s19.505 39.010 63.39 43.886l185.295 24.381c43.886 4.876 92.648 43.886 112.152 82.895l82.895 165.79c19.505 39.010 48.762 48.762 63.39 48.762s43.886-4.876 63.39-48.762l82.895-165.79c19.505-39.010 68.267-78.019 112.152-82.895l185.295-24.381c43.886-4.876 58.514-29.257 63.39-43.886 4.876-9.752 4.876-39.010-24.381-73.143l-131.657-131.657c-29.257-29.257-48.762-92.648-43.886-131.657l29.257-185.295c9.752-43.886-9.752-68.267-24.381-73.143-9.752-9.752-39.010-19.505-78.019 0l-165.79 87.771c-39.010 19.505-102.4 19.505-141.41 0l-165.79-87.771c-14.629-4.876-29.257-9.752-39.010-9.752zM492.495 867.352l-82.895-170.667c-24.381-48.762-92.648-97.524-146.286-107.276l-185.295-24.381c-19.505-4.876-24.381-9.752-29.257-14.629s0-9.752 14.629-24.381l131.657-131.657c43.886-39.010 68.267-117.029 58.514-175.543l-29.257-185.295c-4.876-19.505 0-24.381 4.876-29.257 4.876 0 9.752-4.876 29.257 4.876l165.79 87.771c53.638 29.257 131.657 29.257 185.295 0l165.79-87.771c14.629-9.752 24.381-4.876 29.257-4.876 0 0 4.876 9.752 4.876 29.257l-29.257 185.295c-9.752 58.514 14.629 136.533 58.514 175.543l131.657 131.657c0 14.629 4.876 24.381 4.876 24.381s-9.752 9.752-24.381 9.752l-185.295 24.381c-58.514 9.752-121.905 53.638-151.162 107.276l-82.895 165.79c-9.752 14.629-14.629 19.505-19.505 19.505s-9.752 4.876-19.505-9.752v0zM614.4 565.029l-24.381-53.638c-29.257 19.505-63.39 29.257-92.648 29.257s-48.762-9.752-48.762-34.133c0-58.514 170.667-29.257 170.667-146.286 0-68.267-58.514-97.524-121.905-97.524-48.762 0-97.524 14.629-131.657 43.886l24.381 48.762c29.257-24.381 73.143-39.010 107.276-39.010 29.257 0 53.638 9.752 53.638 34.133 0 68.267-170.667 29.257-170.667 146.286 0 63.39 58.514 92.648 117.029 92.648 43.886 0 87.771-9.752 117.029-24.381zM497.371 174.933c-14.629 0-24.381 9.752-24.381 24.381v73.143c0 14.629 9.752 24.381 24.381 24.381s24.381-9.752 24.381-24.381v-73.143c4.876-14.629-9.752-24.381-24.381-24.381zM497.371 565.029c-9.752 0-19.505 4.876-19.505 19.505v73.143c0 14.629 9.752 24.381 24.381 24.381s24.381-9.752 24.381-24.381v-73.143c0-9.752-14.629-19.505-29.257-19.505z" />
<glyph unicode="&#xe927;" glyph-name="prohibited" d="M507.124 14.019c-243.81 0-438.857 195.048-438.857 438.857s195.048 438.857 438.857 438.857 438.857-195.048 438.857-438.857-195.048-438.857-438.857-438.857zM507.124 847.848c-214.552 0-390.095-175.543-390.095-390.095s175.543-390.095 390.095-390.095 390.095 175.543 390.095 390.095-175.543 390.095-390.095 390.095zM828.952 165.181c-4.876 0-9.752 0-14.629 4.876l-643.657 531.505c-9.752 4.876 24.381 29.257 29.257 39.010 9.752 9.752-9.752 4.876 0 0l638.781-526.629c9.752-9.752 9.752-24.381 4.876-34.133 0-9.752-9.752-14.629-14.629-14.629z" />
<glyph unicode="&#xe928;" glyph-name="returns" d="M551.374 426.739h-179.003v131.997h179.003c75.732 0 130.81 38.322 130.81 80.901 0 46.838-61.962 80.901-130.81 80.901h-206.542v-93.675l-337.351 166.061 330.466 166.061v-102.191h206.542c192.772 0 351.121-97.933 351.121-217.156s-151.464-212.898-344.236-212.898zM441.219 469.318h110.156c151.464 0 282.273 76.643 282.273 174.576 0 93.675-123.925 174.576-282.273 174.576h-275.389v51.096l-158.349-76.643 151.464-76.643v46.838h275.389c110.155 0 199.657-55.354 199.657-123.481s-89.501-123.481-199.657-123.481h-103.271zM261.642 558.168c-13.199-0.011-24.641-5.853-30.3-14.392l-0.090-0.149-145.897-223.967c0-0.016 0-0.035 0-0.054s0-0.038 0-0.057v0.003l-0.404-0.521c-2.315-3.435-3.7-7.496-3.765-11.805v-0.016l-1.345-349.498c0-0.012 0-0.025 0-0.039 0-14.631 15.221-26.496 34.016-26.535h849.165c0.016 0 0.035 0 0.053 0 18.838 0 34.109 11.88 34.109 26.535 0 0.196-0.003 0.392-0.008 0.588l0.001-0.029-10.085 350.544c-0.151 4.101-1.476 7.936-3.72 11.343l0.089-0.15-0.536 0.942c-0.167 0.205-0.256 0.308-0.345 0.411l0.077-0.094-141.194 221.145-61.048-23.642 117.524-184.111-270.548-0.317c-1.73 0.255-3.728 0.407-5.768 0.419h-174.956c-2.816-0.002-5.551-0.269-8.168-0.77l0.234 0.038c-0.020 0-0.043 0-0.066 0s-0.047 0-0.070 0l-267.72-0.317 111.742 171.349h90.898v53.146zM919.59 281.582l8.471-297.403h-779.91l1.21 296.461 264.362 0.317 4.572-105.132c0.646-14.26 15.661-25.629 34.089-25.629 0.023 0 0.046 0 0.069 0h169.156c0.014 0 0.030 0 0.046 0 18.838 0 34.109 11.88 34.109 26.535 0 0.013 0 0.025 0 0.038v-0.002 104.5zM587.591 281.163v-77.932h-102.195l-3.496 77.829z" />
<glyph unicode="&#xe929;" glyph-name="sent-packages" d="M687.175 111.126h-359.981c-9.729 0-19.458 9.729-24.323 19.458l-38.917 136.209-238.366-4.865c-9.729 0-14.594 4.865-19.458 9.729-4.865 9.729-4.865 14.594 0 24.323l102.157 218.907c4.865 19.458 19.458 24.323 29.188 19.458 14.594-4.865 19.458-19.458 14.594-34.052l-82.698-184.855 214.043 4.865c14.594 0 19.458-9.729 24.323-19.458l38.917-136.209h325.929l68.105 141.074c4.865 9.729 9.729 14.594 24.323 14.594l189.72-4.865-87.563 184.855c-4.865 14.594 0 29.188 9.729 34.052 14.594 4.865 29.188 0 34.052-9.729l107.021-218.907c4.865-9.729 4.865-19.458 0-24.323-4.865-9.729-14.594-9.729-24.323-9.729l-214.043 4.865-68.105-141.074c-4.865-19.458-14.594-24.323-24.323-24.323zM935.27-64h-846.442c-14.594 0-24.323 9.729-24.323 19.458l-63.24 325.929c-4.865 14.594 4.865 29.188 19.458 29.188 14.594 4.865 29.188-4.865 34.052-19.458l58.375-306.47h802.66l58.375 306.47c4.865 14.594 14.594 24.323 29.188 19.458s24.323-14.594 19.458-29.188l-63.24-325.929c0-9.729-9.729-19.458-24.323-19.458zM609.341 291.116h-189.72c-14.594 0-24.323 9.729-24.323 24.323v321.064h-107.021c-9.729 0-19.458 4.865-24.323 14.594s-4.865 19.458 4.865 29.188l223.772 272.418c9.729 9.729 29.188 9.729 38.917 0l223.772-272.418c4.865-9.729 9.729-19.458 4.865-29.188s-14.594-14.594-24.323-14.594h-107.021v-321.064c4.865-9.729-4.865-24.323-19.458-24.323zM443.945 344.627h141.074v321.064c0 14.594 9.729 24.323 24.323 24.323h77.834l-170.261 204.314-170.261-204.314h77.834c14.594 0 24.323-9.729 24.323-24.323v-321.064z" />
<glyph unicode="&#xe92a;" glyph-name="service" d="M468.076 783.061c-46.256 0-83.207-39.048-83.207-87.81v-139.524c12.922-2.174 27.399-5.087 46.256-10.286v144.952c0 24.381 17.362 39.699 35.505 43.524l1.445 0.381h444.040c23.128 0 37.041-19.543 37.041-39.047v-414.476c0-24.381-18.539-39.048-37.041-39.048h-77.696c5.959-6.767 10.747-14.839 13.010-24.381 1.466-7.729 0.962-15.982-0.361-24.381h65.048c41.63 0 78.671 39.048 83.296 87.81v414.476c0 48.762-37.041 87.81-83.297 87.81zM509.743 37.004c-23.128 0-50.882 4.876-74.010 19.505-60.133 34.133-240.531 170.667-277.536 195.048h-97.138c-18.502 0-32.379 14.629-32.379 34.133v238.933c0 19.505 13.877 34.133 32.379 34.133h124.891c4.626 0 143.394 4.876 185.024 0 50.882-4.876 189.65-53.638 300.664-92.648l9.251-4.876c74.010-24.381 97.138-39.010 97.138-63.39 0-19.505-4.626-53.638-27.754-78.019-18.502-14.629-41.63-19.505-69.384-14.629l-217.403 43.886c0 0 0 0 0 0 37.005-29.257 106.389-68.267 124.891-78.019h194.275c4.626 0 55.507-14.629 64.758-53.638 4.626-24.381-4.626-53.638-27.754-78.019l-4.626-4.876c-60.133-29.257-212.778-78.019-235.906-82.895-9.251-4.876-32.379-14.629-69.384-14.629zM74.936 300.318h101.763l4.626-4.876c0 0 217.403-160.914 277.536-199.924 50.882-29.257 101.763-4.876 101.763-4.876h4.626c0 0 161.896 48.762 226.654 78.019 13.877 14.629 13.877 24.381 13.877 29.257 0 9.752-18.502 14.629-27.754 19.505h-198.901l-4.626 4.876c-4.626 0-92.512 48.762-138.768 87.771-9.251 4.876-32.379 29.257-27.754 58.514 4.626 24.381 32.379 34.133 37.005 34.133h4.626l240.531-48.762c13.877-4.876 27.754-4.876 32.379 4.876 4.626 4.876 9.251 14.629 9.251 29.257-9.251 4.876-23.128 14.629-64.758 29.257l-9.251 4.876c-101.763 34.133-245.157 82.895-291.413 87.771-37.005 4.876-175.773 0-175.773 0h-115.64zM634.58 779.442c-45.080 0-68.662 20.304-68.662-41.037v-110.41c0-61.341 37.314-111.029 82.394-111.029h86.544c45.080 0 82.319 49.688 82.319 111.029v110.41c0 61.341-40.129 41.037-85.21 41.037zM646.144 761.608h89.435c24.744 0 42.964 9.202 42.964-23.204v-110.41c0-32.406-18.943-58.148-43.687-58.148h-86.544c-24.744 0-43.762 25.743-43.762 58.148v110.41c0 32.406 16.851 23.204 41.594 23.204z" />
<glyph unicode="&#xe92b;" glyph-name="shipito-logo" horiz-adv-x="3680" d="M451.175 387.037c-17.203-84.334-65.989-155.005-133.24-200.421l-1.137-0.701c-63.761-47.57-140.854-80.968-224.68-93.979l-2.859-0.376h-7.554c-9.012 0-23.81 27.3-44.704 81.28-14.549 28.837-24.83 62.424-28.895 97.865l-0.128 1.393c0 4.064 4.064 6.67 10.16 7.818 44.572 8.507 83.501 19.748 120.853 34.106l-4.764-1.644c38.73 14.725 67.381 47.813 75.631 88.332l0.128 0.762c0.373 3.421 0.567 7.36 0.567 11.312 0 27.43-9.52 52.639-25.402 72.466l0.188-0.246c-36.003 52.573-55.749 81.595-58.045 87.071-13.088 26.608-20.767 57.918-20.767 91.008 0 14.853 1.529 29.284 4.451 43.253l-0.25-1.389c16.32 76.020 63.948 138.574 128.408 174.634l1.33 0.693c59.813 38.224 130.564 64.973 206.523 75.444l2.729 0.315h9.85q8.702 0 11.308-13.914c13.916-61.734 28.826-112.722 46.353-162.446l-3.107 10.091c0.19-0.885 0.31-1.897 0.31-2.916s-0.122-2.032-0.316-2.988l0.005 0.072c-0.573-5.592-5.27-9.914-10.983-9.914-0.441 0-0.832 0.007-1.269 0.066l0.060-0.001c-5.65 0.257-10.926 0.889-16.122 1.845l0.704-0.123c-4.768 0.947-10.359 1.58-16.072 1.721l-0.184 0.001c-0.5 0.001-1.023 0.002-1.592 0.002-27.428 0-53.156-7.11-75.509-19.562l0.817 0.387c-24.764-11.435-42.8-33.786-48.077-60.708l-0.071-0.563c-0.196-2.733-0.32-5.913-0.32-9.147 0-29.463 9.964-56.583 26.671-78.231l-0.197 0.311 59.766-96.962c13.912-27.172 22.096-59.246 22.096-93.226 0-11.678-0.955-23.11-2.798-34.23zM1146.603 540.012l-70.546-398.492q-3.49-20.32-20.010-22.616c-12.766 0-40.904-2.342-84.77-2.342-4.565-0.131-9.902-0.195-15.244-0.195-25.336 0-50.236 1.775-74.622 5.201l2.799-0.316c-12.502 2.342-17.14 10.47-14.798 24.958 5.786 33.086 15.372 83.002 29.022 149.485s22.352 116.089 29.022 149.749c7.818 44.968-11.044 67.63-58.044 67.63-21.657-1.518-41.473-8.197-58.559-18.868l0.563 0.316c-25.269-13.341-38.873-27.565-41.525-42.099l-25.268-142.816c-3.18-18.598-7.818-46.426-13.65-83.576s-10.16-65.024-13.65-83.312c-0.381-12.387-9.845-22.477-21.966-23.807l-0.122-0.003c-12.192 0-45.852-2.342-101.027-2.342-3.87-0.183-8.385-0.255-12.951-0.255-20.060 0-39.683 1.78-58.736 5.204l2.025-0.311c-13.341 3.18-18.863 9.85-17.141 20.32 5.212 29.022 13.65 76.022 24.648 136.983s19.436 106.813 24.958 137.293q33.086 188.926 51.064 312.879c3.754 29.022 7.818 58.044 12.192 87.066 3.233 22.67 5.073 48.839 5.073 75.448 0 4.069-0.058 8.136-0.128 12.199l0.003-0.627c-0.248 1.653-0.376 3.56-0.376 5.522s0.128 3.87 0.383 5.72l-0.007-0.198c0.762 5.647 4.951 10.102 10.354 11.303l0.071 0.004c14.472 3.182 31.054 5.021 48.075 5.021 2.405 0 4.761-0.056 7.115-0.122l-0.325 0.002c31.054 0 49.342 2.342 54.29 2.916l106.813 12.192c6.096 0 8.702-4.064 7.244-12.192s-6.096-29.022-11.308-50.226c-5.212-21.204-9.586-42.672-11.044-50.226q-26.417-130.623-40.067-206.381c0-7.554 0-11.618 3.754-11.618s11.882 6.67 33.086 20.32c20.132 13.137 43.38 25.651 67.695 36.206l3.115 1.208c27.052 12.197 58.558 19.621 91.761 20.319l0.254 0.001c2.724 0.135 5.85 0.252 9.075 0.252 40.84 0 78.296-14.673 107.315-39.056l-0.254 0.196c23.244-21.282 37.78-51.815 37.78-85.674 0-10.092-1.274-19.871-3.687-29.157l0.186 0.817zM1427.549 386.463c-4.948-29.022-11.618-69.926-20.32-125.675s-15.372-97.537-20.32-125.101c-1.652-8.137-8.637-14.232-17.086-14.534h-0.007c-21.332-2.354-46.039-3.738-71.063-3.738-6.228 0-12.451 0.069-18.668 0.251l0.896-0.005c-5.527-0.183-12.058-0.255-18.55-0.255-24.761 0-49.158 1.342-73.218 4.003l2.979-0.255c-8.128 1.458-13.076 4.064-14.224 7.554-0.057 0.822-0.063 1.777-0.063 2.731 0 5.209 0.642 10.283 1.902 15.11l-0.071-0.441c4.948 26.416 12.502 66.483 22.926 119.889s18.288 93.472 22.926 120.463c15.055 74.17 26.928 163.706 33.025 254.782l0.325 6.418c-0.186 1.837-0.257 3.941-0.257 6.096s0.119 4.259 0.31 6.355l-0.005-0.259c0 7.554 7.244 11.308 17.404 11.308s27.3 0 49.032-3.49c21.778-3.49 38.034-3.18 49.342-3.18s29.022 0 50.8 2.606c21.778 2.606 39.492 2.916 50.8 2.916s13.076-3.754 11.618-11.308c-0.948-4.454-1.913-8.188-3.114-11.806l0.199 0.763c-20.191-68.52-40.19-156.659-55.38-246.395l-2.091-14.801zM1518.415 815.745q-17.978-100.716-130.887-100.406c-1.909-0.126-4.184-0.19-6.417-0.19-26.606 0-50.937 9.644-69.787 25.586l0.135-0.128c-14.678 14.222-23.818 34.106-23.818 56.142 0 6.738 0.834 13.329 2.475 19.56l-0.126-0.564c5.843 31.118 23.759 57.221 48.642 73.735l0.436 0.256c22.924 16.702 51.634 26.733 82.737 26.733 0.944 0 1.841-0.002 2.738-0.007l-0.131 0.001c1.083 0.058 2.406 0.064 3.683 0.064 26.865 0 51.312-10.412 69.531-27.425l-0.062 0.061c14.283-14.030 23.114-33.527 23.114-55.065 0-6.533-0.819-12.831-2.343-18.866l0.124 0.515zM2178.99 399.229c-13.267-81.594-52.447-152.28-108.654-205.046l-0.19-0.185c-53.853-52.263-127.396-84.466-208.488-84.466-1.198 0-2.356 0.002-3.557 0.006l0.185-0.001c-33.472 0.451-64.967 8.566-92.962 22.61l1.207-0.571c-16.192 6.026-30.166 13.337-43.049 22.171l0.641-0.436c-4.948 0-8.438-5.786-10.47-17.14-3.49-19.746-7.818-49.342-12.766-88.834s-9.276-69.088-12.766-88.835c-0.833-10.351-9.463-18.419-19.947-18.419-0.828 0-1.657 0.060-2.478 0.135l0.119-0.003h-117.808c-3.243-0.133-7.056-0.246-10.919-0.246-14.167 0-28.076 1.138-41.659 3.31l1.467-0.19c-8.010 1.077-14.161 7.875-14.161 16.127 0 1.834 0.31 3.556 0.833 5.201l-0.055-0.124 79.512 444.964c12.507 62.044 19.631 133.361 19.631 206.381 0 7.435-0.067 14.866-0.199 22.292l0.005-1.088c-0.068 1.464-0.128 3.182-0.128 4.948s0.059 3.484 0.131 5.152l-0.003-0.25c0.701 5.278 4.191 9.65 8.896 11.562l0.119 0.055c25.461 7.871 55.752 14.287 86.867 18.032l2.541 0.253c26.927 4.768 58.552 8.006 90.749 8.956l0.952 0.006c14.798 0 21.778-9.85 20.32-29.022s0-29.022 2.607-29.022c15.821 12.254 33.911 22.861 53.275 31.049l1.593 0.579c30.615 17.34 66.995 28.251 105.735 29.902l0.506 0.005c83.576 0 145.111-29.022 186.061-82.738s51.064-122.184 36.266-207.219zM1964.791 399.229c1.593 6.985 2.534 14.992 2.534 23.241 0 21.277-6.105 41.148-16.704 57.91l0.255-0.451c-14.097 22.159-38.54 36.638-66.306 36.638-1.073 0-2.152-0.006-3.18-0.064l0.133 0.001c-0.124 0-0.251 0-0.381 0-31.497 0-59.816-13.647-79.373-35.31l-0.069-0.071c-19.685-21.787-33.41-49.335-38.482-79.763l-0.126-0.896c-2.342-8.692-3.675-18.612-3.675-28.894 0-19.684 4.891-38.225 13.529-54.431l-0.316 0.631c13.143-21.52 36.458-35.626 63.121-35.626 1.976 0 3.993 0.068 5.912 0.246l-0.255-0.005q102.748 1.147 123.068 118.121zM2465.458 386.464c-4.948-29.022-11.618-69.926-20.32-125.675s-15.372-97.536-20.32-125.1c-1.653-8.137-8.637-14.233-17.086-14.534h-0.007c-21.345-2.355-46.159-3.738-71.245-3.738-6.286 0-12.568 0.069-18.798 0.255l0.896-0.005c-5.144-0.131-11.183-0.246-17.273-0.246-24.579 0-48.842 1.337-72.768 3.993l2.929-0.255c-8.127 1.458-13.076 4.064-14.224 7.554-0.057 0.822-0.063 1.777-0.063 2.731 0 5.209 0.641 10.283 1.902 15.11l-0.071-0.441c4.638 26.416 12.502 66.482 22.926 119.889s18.288 93.472 22.926 120.463c15.054 74.17 26.928 163.706 33.025 254.782l0.325 6.418c-0.185 1.837-0.255 3.941-0.255 6.096s0.119 4.259 0.311 6.355l-0.005-0.259q1.722 11.308 17.404 11.308c10.734 0 27.3 0 48.768-3.49s38.298-3.18 49.652-3.18c11.308 0 29.022 0 50.8 2.606s39.492 2.916 50.8 2.916c11.308 0 13.076-3.754 11.618-11.308-0.947-4.501-1.912-8.188-3.114-11.806l0.195 0.763c-20.57-68.399-41.024-156.473-56.716-246.147l-2.166-15.054zM2556.324 815.745c-11.882-67.056-55.438-100.406-131.197-100.406-1.849-0.124-4.061-0.188-6.232-0.188-26.55 0-50.87 9.597-69.662 25.537l0.135-0.127c-14.678 14.223-23.818 34.106-23.818 56.142 0 6.738 0.831 13.329 2.475 19.56l-0.126-0.564c5.843 31.118 23.758 57.221 48.642 73.735l0.436 0.256c22.923 16.699 51.63 26.727 82.683 26.727 0.441 0 0.827-0.001 1.268-0.002h-0.064c1.082 0.058 2.406 0.064 3.683 0.064 26.865 0 51.312-10.412 69.531-27.425l-0.062 0.061c14.982-14.102 24.267-34.095 24.267-56.206 0-6.098-0.701-12.058-2.036-17.722zM2946.688 290.385c-4.184-20.962-8.887-38.609-14.551-55.765l0.947 3.243c-6.98-23.5-11.308-40.64-13.34-51.684-0.762-7.94-3.364-15.172-7.367-21.394l0.124 0.19c-6.218-5.152-13.273-9.649-20.893-13.090l-0.627-0.251c-49.909-25.787-108.91-40.904-171.461-40.904-0.32 0-0.641 0-0.961 0h0.061q-167.199 0-145.111 127.707c4.638 25.532 12.192 63.566 23.236 114.631s18.598 89.409 23.236 116.089q4.374 25.268-25.268 25.268h-15.109q-21.778 0-19.172 15.682c0 6.096 3.18 15.682 6.406 29.022s5.523 22.352 6.406 29.022c0.882 6.67 3.18 20.32 5.212 36.84s3.49 29.022 4.948 37.15c1.458 8.128 14.534 11.882 39.492 12.766 13.914 0 22.042 4.064 24.384 11.618 6.095 19.554 11.176 42.926 14.287 66.929l0.246 2.159c7.818 46.426 10.734 70.236 10.734 67.894q12.193 65.598 24.648 65.598c15.681-0.696 30.477-3.179 44.578-7.301l-1.333 0.321c12.136-3.308 27.115-6.283 42.363-8.25l1.722-0.188c19.172-2.916 48.194-6.406 87.066-11.044 9.586 0 13.914-4.064 12.766-9.85-2.607-15.372-8.127-38.872-15.946-69.926s-13.65-53.406-16.256-67.894c-2.607-14.534 0-29.022 11.618-29.022s33.97 0 61.534 0c27.564 0 48.458 1.722 62.418 1.722 8.438 0 12.192-2.916 11.044-8.438s-4.948-22.352-9.85-40.066c-3.429-10.477-6.855-23.821-9.518-37.47l-0.376-2.287c-1.722-9.276-3.754-22.926-6.67-40.64s-4.948-31.054-6.406-40.33c-1.458-9.276-7.818-12.193-19.172-12.193h-120.466q-8.702 0-13.076-25.268c-1.722-9.276-4.064-22.926-7.244-41.214s-4.948-32.202-6.67-40.904c-2.545-10.089-4.008-21.6-4.008-33.528s1.463-23.439 4.248-34.487l-0.19 0.957c7.554-16.566 26.416-24.958 58.044-24.958 15.555 0.827 30.156 3.235 44.138 6.994l-1.468-0.325c11.303 3.23 24.57 5.585 38.17 6.612l0.701 0.058c6.096 2.916 9.276-1.458 7.818-9.85zM3583.763 404.751c-13.724-85.986-56.637-160.102-117.99-213.558l-0.446-0.376c-58.428-51.059-135.446-82.229-219.668-82.229-2.352 0-4.701 0.007-7.050 0.066l0.325-0.002c-4.454-0.311-9.712-0.501-14.981-0.501-71.513 0-135.715 31.427-179.581 81.165l-0.246 0.255c-32.645 41.028-52.394 93.611-52.394 150.823 0 20.324 2.481 40.073 7.181 58.938l-0.325-1.658c13.469 86.738 55.437 161.815 115.828 217.126l0.26 0.25c57.979 51.944 135.001 83.696 219.404 83.696 2.86 0 5.718-0.056 8.573-0.122l-0.441 0.002q130.623 0 197.059-81.854t44.394-212.167zM3393.948 404.751c1.583 6.921 2.475 14.862 2.475 23.044 0 21.268-6.1 41.085-16.646 57.844l0.251-0.451c-13.202 21.595-36.638 35.813-63.38 35.813-1.398 0-2.788-0.057-4.131-0.124l0.19 0.002c-32.135-0.19-61.025-13.974-81.215-35.888l-0.069-0.068c-21.585-20.838-36.577-48.392-41.662-79.26l-0.124-0.827c-1.709-7.171-2.665-15.37-2.665-23.815 0-20.951 5.967-40.507 16.263-57.029l-0.251 0.451c13.847-21.653 37.782-35.81 65.020-35.81 1.337 0 2.664 0.055 3.993 0.119l-0.19-0.002c32.061 0.246 60.83 14.031 80.904 35.888l0.069 0.068c21.080 21.091 35.812 48.573 41.089 79.246l0.131 0.887zM3627.319 806.159c0 0 0 0 0 0h-19.172c0 0 0 0 0 0s0 0 0 0 0 3.49-2.342 6.096c-2.342 2.606-3.49 8.702-6.406 15.372 0 0-2.033 2.032-4.374 2.342h-5.522c0 0 0 0 0-2.606-0.124-1.581-0.184-3.371-0.184-5.212s0.061-3.677 0.19-5.463l-0.004 0.251c0-4.638 0-8.128 0-10.734s0 0 0 0h-20.010c0 0-1.722 0-1.722 1.458s0 9.586 0 17.404c0 7.818 0 13.34 0 17.404 0 14.534 0 26.106 0 34.234v0c0 0 0 0 0 0h31.364c0.501 0.007 1.012 0.056 1.579 0.056 6.674 0 12.892-2.090 18.027-5.597l-0.124 0.065c5.142-3.743 8.444-9.718 8.444-16.503 0-0.32-0.003-0.641-0.006-0.96v0.059c0.006-0.44 0.008-0.946 0.008-1.453 0-3.874-0.762-7.561-2.153-10.931l0.061 0.191c-2.104-3.488-4.831-6.358-8.057-8.639l-0.069-0.063c0 0 0 0 0 0l6.096-13.076c1.588-3.748 3.054-8.314 4.199-13.010l0.131-0.641zM3605.541 852.895c0.004 0.197 0.007 0.449 0.007 0.701 0 3.296-1.593 6.167-4.063 7.995l-0.008 0.005c-2.607 1.138-5.653 1.778-8.834 1.778-0.451 0-0.896-0.004-1.393-0.057l0.061 0.001c-3.49 0-5.212 0-5.212 0-0.124-1.523-0.184-3.3-0.184-5.080s0.061-3.557 0.19-5.329l-0.004 0.249v-6.98c0 0 0 0 1.722 0h6.67c6.67-2.606 11.044 0.574 11.044 6.67zM3597.723 767.551c-0.069 0-0.19 0-0.311 0-41.209 0-74.61 33.401-74.61 74.61s33.401 74.61 74.61 74.61c41.209 0 74.61-33.401 74.61-74.61 0-0.12 0-0.194 0-0.315v0.004c-0.183-40.963-33.338-74.117-74.296-74.3zM3597.723 901.354c-32.84 0-59.502-26.663-59.502-59.502s26.663-59.502 59.502-59.502c32.84 0 59.502 26.663 59.502 59.502v0c0 32.84-26.663 59.502-59.502 59.502z" />
<glyph unicode="&#xe92c;" glyph-name="shipping-calculator" d="M258.349 786.202h46.972v-216.073h-46.972v216.073zM173.798 696.954h216.073v-46.972h-216.073v46.972zM189.311 301.972l33.214 33.219 152.807-152.785-33.214-33.219-152.807 152.785zM189.273 182.427l152.785 152.785 33.214-33.214-152.785-152.785-33.214 33.214zM582.459 701.651h216.073v-46.972h-216.073v46.972zM648.22 325.872h178.495v-46.972h-178.495v46.972zM648.22 208.44h178.495v-46.972h-178.495v46.972zM925.358-35.817h-822.018c-46.972 0-84.55 37.578-84.55 84.55v817.321c0 46.972 37.578 84.55 84.55 84.55h822.018c46.972 0 84.55-37.578 84.55-84.55v-822.018c-4.697-46.972-42.275-79.853-84.55-79.853zM103.339 903.633c-18.789 0-37.578-18.789-37.578-37.578v-822.018c0-18.789 14.092-37.578 37.578-37.578h822.018c18.789 0 37.578 14.092 37.578 37.578v822.018c0 18.789-14.092 37.578-37.578 37.578h-822.018zM958.239 433.908h-446.239c-14.092 0-23.486 9.394-23.486 23.486s9.394 23.486 23.486 23.486h446.239c14.092 0 23.486-9.394 23.486-23.486s-9.394-23.486-23.486-23.486zM512-35.817c-14.092 0-23.486 9.394-23.486 23.486v465.028c0 14.092 9.394 23.486 23.486 23.486s23.486-9.394 23.486-23.486v-465.028c0-9.394-9.394-23.486-23.486-23.486z" />
<glyph unicode="&#xe92d;" glyph-name="shopping" horiz-adv-x="1027" d="M971.839 903.424h-181.314c-12.951 0-21.585-10.005-21.585-20.011l-47.487-200.109h-660.501c-8.634 0-12.951-5.003-21.585-10.005-4.317-5.003-4.317-15.008-4.317-25.014l116.559-405.222c8.634-15.008 17.268-20.011 30.219-20.011h466.236c12.951 0 21.585 10.005 21.585 20.011l138.144 605.331h164.046c12.951 0 25.902 10.005 25.902 30.016s-12.951 25.014-25.902 25.014zM626.479 278.082h-431.7l-103.608 350.191h613.014zM669.649 57.962c0-33.155-23.193-60.033-51.804-60.033s-51.804 26.878-51.804 60.033c0 33.155 23.193 60.033 51.804 60.033s51.804-26.878 51.804-60.033zM315.655 57.962c0-33.155-23.193-60.033-51.804-60.033s-51.804 26.878-51.804 60.033c0 33.155 23.193 60.033 51.804 60.033s51.804-26.878 51.804-60.033z" />
<glyph unicode="&#xe92e;" glyph-name="times" d="M197.223 178.884l603.398 603.398 34.48-34.48-603.398-603.398-34.48 34.48zM193.775 747.802l34.48 34.48 603.398-603.398-34.48-34.48-603.398 603.398z" />
<glyph unicode="&#xe92f;" glyph-name="transit-times" d="M530.071 312.471c18.071 0 33.129 9.035 42.165 24.094l150.588 207.812c6.024 6.024 3.012 18.071-3.012 21.082s-12.047 3.012-18.071 0l-207.812-150.588c-24.094-18.071-30.118-54.212-12.047-81.318 12.047-15.059 27.106-24.094 45.176-24.094 0 3.012 3.012 3.012 3.012 3.012zM499.953 372.706c0 6.024 3.012 15.059 9.035 18.071l126.494 90.353-90.353-126.494c-9.035-12.047-24.094-15.059-36.141-6.024-6.024 6.024-9.035 15.059-9.035 24.094v0zM891.482 610.635c0 0 0 0 0 0-3.012 0-3.012 0 0 0-18.071 30.118-36.141 54.212-57.224 78.306l33.129 33.129 24.094-24.094 69.271 69.271-69.271 69.271-69.271-69.271 21.082-21.082-33.129-33.129c-24.094 21.082-48.188 42.165-78.306 57.224 0 0 0 0 0 0s0 0 0 0c-51.2 30.118-105.412 48.188-165.647 54.212v18.071h24.094c21.082 0 39.153 18.071 39.153 39.153s-18.071 39.153-39.153 39.153h-144.565c-21.082 0-39.153-18.071-39.153-39.153s18.071-39.153 39.153-39.153h24.094v-18.071c-18.071 0-36.141-3.012-54.212-9.035-9.035-3.012-15.059-9.035-12.047-18.071s9.035-15.059 18.071-12.047c0 0 0 0 0 0 15.059 3.012 30.118 6.024 45.176 9.035h18.071c6.024 0 9.035 0 15.059 0v-30.118c0-9.035 6.024-15.059 15.059-15.059s15.059 6.024 15.059 15.059v30.118c57.224-3.012 117.459-18.071 168.659-45.176l-15.059-27.106c-3.012-9.035-3.012-18.071 6.024-21.082s18.071-3.012 21.082 6.024l18.071 27.106c51.2-33.129 93.365-75.294 123.482-123.482l-27.106-15.059c-6.024-6.024-9.035-15.059-6.024-21.082s15.059-9.035 21.082-6.024l27.106 15.059c27.106-54.212 42.165-111.435 45.176-171.671h-33.129c-9.035 0-15.059-6.024-15.059-15.059s6.024-15.059 15.059-15.059h33.129c-3.012-60.235-18.071-117.459-45.176-171.671l-24.094 12.047c-9.035 3.012-18.071 3.012-21.082-6.024s-3.012-18.071 6.024-21.082l27.106-15.059c-33.129-51.2-75.294-93.365-123.482-123.482l-15.059 27.106c-3.012 9.035-15.059 9.035-21.082 6.024s-9.035-15.059-6.024-21.082v0l15.059-27.106c-51.2-27.106-108.424-42.165-168.659-45.176v30.118c0 9.035-6.024 15.059-15.059 15.059s-15.059-6.024-15.059-15.059v-33.129c-27.106 0-51.2 3.012-75.294 9.035-9.035 3.012-18.071-3.012-18.071-12.047s3.012-18.071 12.047-18.071c0 0 0 0 0 0 33.129-6.024 63.247-12.047 96.376-12.047h3.012c75.294 0 147.576 21.082 213.835 57.224 0 0 0 0 0 0s0 0 0 0c66.259 39.153 120.471 93.365 156.612 156.612 0 0 0 0 0 0s0 0 0 0c72.282 138.541 72.282 301.176-3.012 436.706v0zM888.471 791.341l24.094-24.094-24.094-24.094-24.094 24.094 24.094 24.094zM499.953 827.482v48.188h-57.224c-3.012 0-9.035 3.012-9.035 9.035 0 3.012 3.012 9.035 9.035 9.035 0 0 0 0 0 0h144.565c3.012 0 9.035-3.012 9.035-9.035 0-3.012-3.012-9.035-9.035-9.035 0 0 0 0 0 0h-57.224v-48.188c-6.024 0-12.047 0-15.059 0h-3.012c-3.012 0-6.024 0-9.035 0 3.012 0 0 0-3.012 0zM373.459 697.976h-81.318c-9.035 0-15.059-6.024-15.059-15.059s6.024-15.059 15.059-15.059h81.318c9.035 0 15.059 6.024 15.059 15.059s-6.024 15.059-15.059 15.059zM373.459 586.541h-162.635c-9.035 0-15.059-6.024-15.059-15.059s6.024-18.071 15.059-18.071h159.624c9.035 0 15.059 6.024 15.059 15.059 3.012 12.047-3.012 18.071-12.047 18.071v0zM373.459 475.106h-240.941c-9.035 0-15.059-6.024-15.059-15.059s6.024-15.059 15.059-15.059h240.941c9.035 0 15.059 6.024 15.059 15.059 0 6.024-6.024 15.059-15.059 15.059v0zM373.459 360.659h-307.2c-9.035 0-15.059-6.024-15.059-15.059s6.024-15.059 15.059-15.059h304.188c9.035 0 15.059 6.024 15.059 15.059 3.012 9.035-3.012 15.059-12.047 15.059zM373.459 249.224h-210.824c-9.035 0-15.059-6.024-15.059-15.059s6.024-15.059 15.059-15.059h207.812c9.035 0 15.059 6.024 15.059 15.059 3.012 9.035-3.012 15.059-12.047 15.059zM373.459 137.788h-114.447c-9.035 0-15.059-6.024-15.059-15.059s6.024-15.059 15.059-15.059v0h111.435c9.035 0 15.059 6.024 15.059 15.059 3.012 6.024-3.012 15.059-12.047 15.059z" />
<glyph unicode="&#xe930;" glyph-name="trash" horiz-adv-x="1048" d="M758.965 743.153h-473.851v188.737h473.851v-188.737zM325.271 783.31h393.537v108.424h-393.537v-108.424zM20.078 783.31h1003.922v-40.157h-1003.922v40.157zM762.98-31.875h-481.882c-60.235 0-108.424 48.188-108.424 104.408v710.776h164.643v-40.157h-124.486v-670.62c0-36.141 32.125-64.251 68.267-64.251h481.882c36.141 0 68.267 28.11 68.267 64.251v670.62h-120.471v40.157h160.627v-710.776c4.016-56.22-48.188-104.408-108.424-104.408zM329.286 606.62h40.157v-465.82h-40.157v465.82zM678.651 606.62h40.157v-465.82h-40.157v465.82z" />
<glyph unicode="&#xe931;" glyph-name="twitter" d="M512 960c141.312 0 268.288-57.344 362.496-149.504 92.16-92.16 149.504-221.184 149.504-362.496s-57.344-268.288-149.504-362.496c-94.208-92.16-221.184-149.504-362.496-149.504s-268.288 57.344-362.496 149.504c-92.16 94.208-149.504 221.184-149.504 362.496s57.344 270.336 149.504 362.496c92.16 92.16 221.184 149.504 362.496 149.504v0zM845.824 781.824c-86.016 86.016-202.752 137.216-333.824 137.216s-247.808-51.2-333.824-137.216c-86.016-86.016-137.216-202.752-137.216-333.824s53.248-247.808 139.264-333.824c83.968-86.016 200.704-137.216 331.776-137.216s247.808 53.248 333.824 139.264c86.016 83.968 137.216 200.704 137.216 331.776s-51.2 247.808-137.216 333.824v0zM774.144 607.744c-18.432-8.192-38.912-14.336-61.44-16.384 22.528 14.336 38.912 32.768 47.104 59.392-20.48-12.288-43.008-20.48-67.584-26.624-18.432 20.48-47.104 32.768-77.824 32.768-59.392 0-106.496-47.104-106.496-104.448 0-8.192 2.048-16.384 4.096-24.576-90.112 4.096-167.936 47.104-221.184 110.592-8.192-16.384-14.336-32.768-14.336-53.248 0-36.864 18.432-69.632 47.104-88.064-18.432 0-34.816 4.096-49.152 12.288 0 0 0 0 0-2.048 0-14.336 2.048-26.624 8.192-38.912 12.288-32.768 43.008-57.344 77.824-65.536-10.24-2.048-18.432-4.096-28.672-4.096-6.144 0-14.336 0-20.48 2.048 14.336-40.96 53.248-71.68 100.352-73.728-36.864-28.672-81.92-45.056-133.12-45.056-8.192 0-16.384 0-26.624 2.048 47.104-30.72 104.448-47.104 163.84-47.104 167.936 0 270.336 116.736 296.96 235.52 4.096 22.528 6.144 43.008 6.144 63.488 0 4.096 0 10.24 0 14.336 22.528 18.432 40.96 36.864 55.296 57.344v0z" />
<glyph unicode="&#xe932;" glyph-name="upload" d="M873.054 621.238h-176.941c-24.834 0-49.668 9.313-65.189 27.938-15.521 15.521-21.73 37.251-21.73 58.98v173.837c0 6.208 3.105 12.417 9.313 15.521s12.417 0 15.521-3.104l248.338-245.234c3.105-3.104 6.208-12.417 3.105-15.521 0-9.313-6.208-12.417-12.417-12.417zM640.237 844.742v-139.69c0-15.521 3.105-27.938 12.417-37.251s24.834-15.521 40.355-15.521h139.69zM798.552 50.060h-176.941c-9.313 0-15.521 6.208-15.521 15.521s6.208 15.521 15.521 15.521h176.941c31.042 0 55.876 24.834 55.876 55.876v484.259h-161.42c-46.563 0-86.918 40.355-86.918 86.918v158.316h-378.716c-31.042 0-55.876-24.834-55.876-58.98v-673.617c0-31.042 24.834-55.876 55.876-55.876h176.941c9.313 0 15.521-6.208 15.521-15.521s-6.208-15.521-15.521-15.521h-176.941c-46.563 0-86.918 40.355-86.918 86.918v676.722c0 49.668 37.251 90.023 86.918 90.023h394.237c9.313 0 15.521-6.208 15.521-15.521v-173.837c0-31.042 24.834-55.876 55.876-55.876h176.941c9.313 0 15.521-6.208 15.521-15.521v-499.781c0-49.668-40.355-90.023-86.918-90.023zM705.426 369.795c-3.105 0-9.313 0-12.417 3.105l-183.149 180.045-183.149-180.045c-6.208-6.208-15.521-6.208-21.73 0s-6.208 15.521 0 21.73l192.462 189.358c6.208 6.208 15.521 6.208 21.73 0l192.462-189.358c6.208-6.208 6.208-15.521 0-21.73 3.105-3.105-3.105-3.105-6.208-3.105zM512.963-27.546c-9.313 0-15.521 6.208-15.521 15.521v586.699c0 9.313 6.208 15.521 15.521 15.521s15.521-6.208 15.521-15.521v-586.699c0-9.313-6.208-15.521-15.521-15.521z" />
<glyph unicode="&#xe933;" glyph-name="vk" d="M827.392 278.016c0 2.048-2.048 2.048-2.048 4.096-10.24 18.432-30.72 43.008-61.44 71.68v0 0 0 0c-14.336 12.288-22.528 22.528-26.624 26.624-6.144 8.192-8.192 16.384-4.096 26.624 2.048 6.144 12.288 20.48 28.672 43.008 8.192 12.288 16.384 20.48 20.48 26.624 36.864 49.152 53.248 79.872 49.152 94.208l-2.048 4.096c-2.048 2.048-4.096 4.096-10.24 6.144s-12.288 2.048-20.48 0h-92.16c-2.048 0-4.096 0-6.144 0s-4.096 0-4.096 0h-4.096c-2.048 0-2.048-2.048-4.096-4.096s-2.048-4.096-4.096-6.144c-10.24-26.624-22.528-49.152-34.816-71.68-8.192-12.288-14.336-24.576-22.528-34.816-6.144-10.24-12.288-16.384-16.384-22.528-4.096-4.096-8.192-8.192-12.288-10.24s-6.144-4.096-8.192-4.096c-2.048 0-4.096 0-6.144 2.048s-6.144 4.096-8.192 8.192c-2.048 4.096-2.048 8.192-4.096 12.288 0 4.096 0 10.24-2.048 12.288 0 4.096 0 8.192 0 16.384 0 6.144 0 10.24 0 14.336 0 8.192 0 16.384 0 26.624s0 16.384 0 22.528c0 6.144 0 12.288 0 18.432s0 10.24-2.048 14.336c0 4.096-2.048 6.144-4.096 10.24s-4.096 6.144-6.144 8.192c4.096-4.096 0-2.048-4.096-2.048-12.288 2.048-26.624 4.096-43.008 4.096-38.912 0-65.536-2.048-77.824-8.192-4.096-2.048-8.192-6.144-12.288-10.24s-4.096-8.192-2.048-8.192c12.288-2.048 22.528-6.144 26.624-14.336l2.048-4.096c2.048-2.048 2.048-8.192 4.096-14.336s2.048-14.336 2.048-22.528c2.048-16.384 2.048-28.672 0-40.96-2.048-10.24-2.048-20.48-2.048-26.624s-2.048-10.24-4.096-14.336c-2.048-4.096-4.096-6.144-4.096-6.144s-2.048-2.048-2.048-2.048-6.144-2.048-8.192-2.048c-2.048 0-6.144 2.048-10.24 4.096s-8.192 6.144-14.336 12.288c-4.096 6.144-10.24 12.288-16.384 22.528s-12.288 20.48-18.432 32.768l-6.144 10.24c-4.096 6.144-8.192 14.336-12.288 26.624-6.144 12.288-10.24 22.528-14.336 32.768-2.048 4.096-4.096 8.192-8.192 10.24h-2.048c-2.048 0-2.048 2.048-6.144 2.048-2.048 0-4.096 2.048-8.192 2.048h-88.064c-8.192 0-14.336-2.048-18.432-6.144l-2.048-2.048c0-2.048 0-2.048 0-6.144 0-2.048 0-6.144 2.048-8.192 12.288-30.72 26.624-59.392 40.96-88.064s28.672-51.2 38.912-67.584c10.24-16.384 22.528-32.768 34.816-49.152 12.288-14.336 18.432-24.576 22.528-28.672s6.144-8.192 8.192-10.24l8.192-8.192c6.144-6.144 12.288-12.288 22.528-18.432 10.24-8.192 20.48-14.336 32.768-20.48s26.624-12.288 43.008-16.384c16.384-4.096 30.72-6.144 47.104-6.144h45.056c8.192 0 12.288 2.048 16.384 6.144l2.048 2.048c0 2.048 2.048 4.096 2.048 6.144s2.048 6.144 2.048 8.192c0 10.24 0 18.432 2.048 24.576 2.048 8.192 4.096 12.288 6.144 16.384s4.096 6.144 6.144 10.24c2.048 2.048 4.096 4.096 6.144 4.096s2.048 0 2.048 2.048c6.144 2.048 10.24 0 18.432-4.096 6.144-4.096 14.336-10.24 20.48-18.432s14.336-16.384 22.528-24.576c8.192-8.192 16.384-16.384 22.528-20.48l6.144-4.096c4.096-2.048 10.24-4.096 16.384-6.144s12.288-2.048 18.432-2.048l81.92 2.048c8.192 0 14.336 2.048 18.432 4.096s8.192 6.144 8.192 8.192c0 4.096 0 6.144 0 10.24-2.048 8.192-4.096 10.24-4.096 12.288v0zM522.24 951.808c141.312 0 268.288-57.344 362.496-149.504 92.16-92.16 149.504-221.184 149.504-362.496s-57.344-268.288-149.504-362.496c-92.16-92.16-221.184-149.504-362.496-149.504s-268.288 57.344-362.496 149.504c-92.16 92.16-149.504 221.184-149.504 362.496s57.344 270.336 149.504 362.496c92.16 92.16 221.184 149.504 362.496 149.504v0zM856.064 773.632c-86.016 86.016-202.752 137.216-333.824 137.216s-247.808-53.248-333.824-137.216c-86.016-83.968-139.264-202.752-139.264-333.824s53.248-247.808 139.264-333.824c86.016-86.016 202.752-139.264 333.824-139.264s247.808 53.248 333.824 139.264c86.016 86.016 139.264 202.752 139.264 333.824-2.048 131.072-55.296 249.856-139.264 333.824v0z" />
<glyph unicode="&#xe934;" glyph-name="warn" d="M64.328 36.386c-36.345 18.637-47.657 49.74-33.098 91.005 9.274 26.286 409.571 717.342 425.076 733.834 18.207 19.366 33.399 26.748 55.040 26.748 23.758 0 44.777-10.447 59.964-29.803 14.191-18.088 415.33-702.502 424.243-723.835 3.237-7.746 5.885-24.597 5.885-37.446 0-28.593-11.717-48.020-36.881-61.149-17.211-8.98-20.939-9.065-447.097-10.202l-429.741-1.146zM523.634 211.562c39.545 13.785 30.769 70.297-12.388 79.776-36.665 8.053-61.081-39.422-35.396-68.826 13.096-14.992 27.029-18.185 47.785-10.95zM534.603 364.041c3.773 30.148 11.241 180.059 11.241 225.647v42.285h-70.781l2.79-118.237c1.534-65.030 4.066-129.464 5.625-143.186l2.835-24.949h45.983z" />
<glyph unicode="&#xe935;" glyph-name="youtube" d="M512 960c141.312 0 268.288-57.344 362.496-149.504 92.16-92.16 149.504-221.184 149.504-362.496s-57.344-268.288-149.504-362.496c-94.208-92.16-221.184-149.504-362.496-149.504s-268.288 57.344-362.496 149.504c-92.16 94.208-149.504 221.184-149.504 362.496s57.344 268.288 149.504 362.496c92.16 92.16 221.184 149.504 362.496 149.504v0zM845.824 781.824c-86.016 86.016-202.752 137.216-333.824 137.216s-247.808-51.2-333.824-137.216c-86.016-86.016-137.216-202.752-137.216-333.824s53.248-247.808 139.264-333.824c83.968-86.016 200.704-137.216 331.776-137.216s247.808 53.248 333.824 137.216c86.016 86.016 137.216 202.752 137.216 333.824s-51.2 247.808-137.216 333.824v0zM782.336 583.168c-8.192 22.528-24.576 34.816-49.152 45.056-22.528 10.24-120.832 16.384-223.232 16.384s-200.704-6.144-223.232-16.384c-22.528-10.24-38.912-22.528-49.152-45.056-8.192-22.528-12.288-79.872-12.288-135.168s4.096-110.592 12.288-133.12c8.192-22.528 24.576-34.816 49.152-45.056 22.528-10.24 122.88-14.336 223.232-16.384 100.352 0 198.656 6.144 223.232 16.384 22.528 10.24 38.912 22.528 49.152 45.056 8.192 22.528 12.288 77.824 12.288 133.12 2.048 57.344-2.048 112.64-12.288 135.168zM442.368 341.504v231.424l196.608-124.928-196.608-106.496z" />
<glyph unicode="&#xe936;" glyph-name="fulfillment" horiz-adv-x="1027" d="M512 803.74h182.857v-182.857h-66.494v-33.247h99.74v249.351h-249.351v-73.143h33.247zM591.792 438.026h-252.675v292.571h252.675v-292.571zM372.364 471.273h186.182v226.078h-186.182v-226.078zM984.104 321.662l-69.818 139.636c-3.325 6.649-9.974 9.974-13.299 9.974h-269.299c-6.649 0-13.299-3.325-13.299-9.974l-69.818-139.636c0-3.325-3.325-3.325-3.325-6.649v-219.429c0-9.974 6.649-16.623 16.623-16.623h408.935c9.974 0 16.623 6.649 16.623 16.623v219.429c0 3.325 0 6.649-3.325 6.649zM644.987 438.026h249.351l53.195-106.39h-352.416zM741.403 295.065h49.87v-49.87h-49.87zM575.169 108.883v186.182h129.662v-66.494c0-9.974 6.649-16.623 16.623-16.623h83.117c9.974 0 16.623 6.649 16.623 16.623v66.494h129.662v-186.182zM505.351 238.545l-176.208 139.636v-79.792h-106.39c-36.571 0-66.494 29.922-66.494 66.494s29.922 66.494 66.494 66.494h93.091v109.714h-93.091c-99.74 0-179.532-79.792-179.532-179.532s83.117-182.857 182.857-182.857h106.39v-83.117zM222.753 218.597c-83.117 0-146.286 66.494-146.286 146.286 0 83.117 66.494 146.286 146.286 146.286h56.519v-39.896h-53.195c-56.519 0-103.065-46.545-103.065-103.065s46.545-103.065 103.065-103.065h142.961v39.896l79.792-63.169-83.117-66.494v43.221c0 0-142.961 0-142.961 0z" />
</font>
</defs>
</svg>
