<?xml version="1.0" encoding="utf-8"?>
<!-- Generator: Adobe Illustrator 22.1.0, SVG Export Plug-In . SVG Version: 6.00 Build 0)  -->
<svg version="1.1"
	 id="svg4179" inkscape:version="0.91 r13725" sodipodi:docname="Prime Day logo 2015.svg" xmlns:cc="http://creativecommons.org/ns#" xmlns:dc="http://purl.org/dc/elements/1.1/" xmlns:inkscape="http://www.inkscape.org/namespaces/inkscape" xmlns:rdf="http://www.w3.org/1999/02/22-rdf-syntax-ns#" xmlns:sodipodi="http://sodipodi.sourceforge.net/DTD/sodipodi-0.dtd" xmlns:svg="http://www.w3.org/2000/svg"
	 xmlns="http://www.w3.org/2000/svg" xmlns:xlink="http://www.w3.org/1999/xlink" x="0px" y="0px" viewBox="0 0 747.6 359.4"
	 style="enable-background:new 0 0 747.6 359.4;" xml:space="preserve">
<style type="text/css">
	.st0{fill:none;}
	.st1{fill:#FFFFFF;}
	.st2{fill:#5E8DAC;}
	.st3{fill:#D1D1D1;}
	.st4{fill:#A5A5A5;}
	.st5{fill:#B9E4EF;}
	.st6{fill:#0F2233;}
	.st7{fill:#E0DFDE;}
	.st8{fill:#E0A791;}
	.st9{fill:#DA5A5A;}
	.st10{fill:#8C2C2C;}
	.st11{fill:#E3E3E3;}
	.st12{fill:#EEBDA6;}
	.st13{fill:#333333;}
	.st14{fill:#494949;}
	.st15{fill:#E1E4E6;}
	.st16{fill:#C4845C;}
	.st17{fill:#EBB190;}
	.st18{fill:#E0E0E0;}
	.st19{fill:#973A14;}
	.st20{fill:#2E512C;}
	.st21{fill:#548746;}
	.st22{fill:#918C8A;}
	.st23{fill:#959794;}
	.st24{fill:#231B17;}
	.st25{fill:#353535;}
	.st26{fill:#E48A64;}
	.st27{fill:#ECECEA;}
	.st28{fill:#DA0826;}
	.st29{fill:#223C63;}
	.st30{fill:#030303;}
	.st31{fill:#E6986B;}
	.st32{fill:#DF6029;}
	.st33{fill:#417272;}
	.st34{fill:#67B5B1;}
	.st35{fill:#5E1B0C;}
	.st36{fill:#855539;}
	.st37{fill:#A25F3D;}
	.st38{fill:#FCF8FB;}
	.st39{fill:#96CACC;}
	.st40{fill:#487F7F;}
	.st41{fill:#686868;}
	.st42{fill:#ABABAB;}
	.st43{fill:#E2CD07;}
	.st44{fill:#D84421;}
	.st45{fill:#3A3A3A;}
	.st46{fill:#4576BF;}
	.st47{fill:#EDEEEF;}
	.st48{fill:#919191;}
	.st49{fill:#BABABA;}
	.st50{fill:#A8DEEF;}
	.st51{fill:#AF231C;}
	.st52{fill:#424242;}
	.st53{fill:none;stroke:#424242;stroke-miterlimit:10;}
	.st54{fill:#FCFCFC;}
	.st55{fill:#E2EDEB;}
</style>
<path class="st0" d="M659.1,183.7c2.9,14.6,5.1,35.8,5,66.4c-0.3,54.1-4.8,90.2-8,108.9h33.4c-0.2-17.7-2.3-54.7-12.7-110.6
	C671,217.4,664.7,197,659.1,183.7z"/>
<path class="st0" d="M659.9,174.1c6.6,13.3,14.5,35.8,21.6,73.5C692,303.7,694.1,341,694.3,359h29.4c-3.2-19.1-10.8-55.5-28.2-107.9
	C680.6,206.3,668,184.5,659.9,174.1z"/>
<path class="st1" d="M659.9,174.1c-1-1.3-2-2.4-2.8-3.4c0.2,1,0.4,2,0.6,3.1c-0.5-0.9-1-1.7-1.5-2.5c1.1,3.5,2.1,7.6,3.1,12.5
	c5.6,13.3,11.9,33.7,17.7,64.8c10.5,55.8,12.5,92.8,12.7,110.6h4.7c-0.2-18-2.3-55.3-12.8-111.4
	C674.4,209.9,666.5,187.4,659.9,174.1z"/>
<path class="st1" d="M659.9,174.1c8.1,10.4,20.8,32.2,35.6,77.1c17.4,52.4,25,88.8,28.2,107.9h4.6c-3.2-19.2-10.8-56.1-28.5-109.4
	c-22.1-66.7-39.7-83.9-46-88.1c0.9,1.8,1.7,3.7,2.3,5.6C657.3,169.1,658.6,171.4,659.9,174.1z"/>
<path class="st1" d="M664.1,250.1c0.2-30.6-2.1-51.8-5-66.4c-3.7-9-7.1-14.7-9.8-18.4c0.4,0.9,0.8,1.8,1,2.8
	c-0.1-0.1-0.2-0.2-0.4-0.3c4.5,12.1,9.7,36.2,9.4,82.4c-0.3,54.7-4.9,90.7-8,108.9h4.7C659.3,340.3,663.9,304.2,664.1,250.1z"/>
<g>
	<path class="st2" d="M622.5,359.7c1-9.3,1.5-18.7,1.5-28.2c0-144.8-117.4-262.2-262.2-262.2S99.5,186.7,99.5,331.5
		c0,9.5,0.5,18.9,1.5,28.2H622.5z"/>
	<g>
		<g>
			<rect x="342.3" y="330.5" class="st3" width="39.4" height="24.8"/>
			<polygon class="st4" points="373.5,330.6 342.3,330.6 342.3,355.2 			"/>
		</g>
		<g>
			<rect x="287.4" y="245.1" class="st5" width="148.7" height="74.2"/>
			<path class="st6" d="M438.1,237.9H285.4c-2.2,0-4.1,1.8-4.1,4.1v88c0,2.2,1.8,4.1,4.1,4.1h152.6c2.2,0,4.1-1.8,4.1-4.1v-88
				C442.1,239.8,440.3,237.9,438.1,237.9z M433.6,316.2H289.9v-69.5h143.7V316.2z"/>
			<path class="st7" d="M281.4,322.6v7.4c0,2.2,1.8,4.1,4.1,4.1h152.6c2.2,0,4.1-1.8,4.1-4.1v-7.4H281.4z"/>
			<path class="st7" d="M401.4,359.2v-2c0-2.2-1.8-4.1-4.1-4.1h-71.1c-2.2,0-4.1,1.8-4.1,4.1v2H401.4z"/>
		</g>
	</g>
	<g>
		<path class="st8" d="M336.4,214.9l11,18.9l-11.9,5l-10.4-17.8c-1.4-2.4-0.4-5.6,2.2-6.7l3.2-1.3
			C332.7,212,335.2,212.9,336.4,214.9z"/>
		<g>
			<g>
				<path class="st9" d="M384.3,157.3l0.2,30.1c0.1,16.6-11.3,30.2-25.4,30.3c-14.1,0.1-25.6-13.4-25.7-30l-0.2-30.1l-17.2,0.1
					l0.2,30.1c0.1,25.7,19.4,46.5,43,46.4c23.6-0.1,42.6-21.2,42.5-46.9l-0.2-30.1L384.3,157.3z"/>
			</g>
			<g>
				<path class="st10" d="M328.8,157.6l0.1,25.5c0.1,10.2,4.4,19.2,11.1,24.6c-4.1-5.3-6.6-12.3-6.6-20l-0.2-30.1L328.8,157.6z"/>
				<path class="st10" d="M397.1,157.3l0.1,25.5c0.1,25.7-18.9,46.8-42.5,46.9c-10.4,0.1-19.9-3.9-27.3-10.6
					c7.9,9.4,19.2,15.3,31.8,15.2c23.6-0.1,42.6-21.2,42.5-46.9l-0.2-30.1L397.1,157.3z"/>
			</g>
			<g>
				
					<rect x="316" y="142.2" transform="matrix(1 -5.748550e-03 5.748550e-03 1 -0.8565 1.8684)" class="st1" width="17.2" height="15.5"/>
				
					<rect x="384.3" y="141.8" transform="matrix(1 -5.745594e-03 5.745594e-03 1 -0.8527 2.2598)" class="st1" width="17.1" height="15.5"/>
			</g>
			<g>
				
					<rect x="324.5" y="142.2" transform="matrix(1 -5.750160e-03 5.750160e-03 1 -0.8565 1.8934)" class="st11" width="8.6" height="15.5"/>
				
					<rect x="392.3" y="141.8" transform="matrix(1 -5.752778e-03 5.752778e-03 1 -0.8536 2.2856)" class="st11" width="9.1" height="15.5"/>
			</g>
		</g>
		<path class="st12" d="M347.2,196.4c0-1.8-1.7-3.2-3.9-3.2l-4,0c-2.1,0-3.8,1.5-3.8,3.3l0.1,12.8l0,7l0.1,21
			c0,4.8,4.7,8.7,10.3,8.6l28.9-0.2c5.7,0,10.3-4,10.2-8.7l-0.1-21l0-7l-0.1-12.8c0-1.8-1.7-3.2-3.9-3.2l-4,0
			c-2.1,0-3.8,1.5-3.8,3.3l0,4.1l-0.9,0l0-4.1c0-1.8-1.7-3.2-3.9-3.2l-4,0c-2.1,0-3.8,1.5-3.8,3.3l0,4.1l-0.9,0l0-4.1
			c0-1.8-1.7-3.2-3.9-3.2l-4,0c-2.1,0-3.8,1.5-3.8,3.3l0,4.1l-0.9,0L347.2,196.4z"/>
		<path class="st8" d="M341,238.1c-1.8,0-3.5-0.1-5.2-0.2c0.4,4.5,4.9,8.1,10.3,8.1l28.9-0.2c5.7,0,10.3-4,10.2-8.7l-0.1-21l0-6.7
			C379.9,225.7,362.2,238,341,238.1z"/>
		<polygon class="st13" points="387.4,316.1 387.1,260.8 333.5,261.2 333.8,316.1 		"/>
		<polygon class="st14" points="360.6,316.1 360.3,261 333.3,261.2 333.6,316.1 		"/>
		
			<rect x="349.7" y="224.1" transform="matrix(-5.744626e-03 -1 1 -5.744626e-03 111.2712 612.5132)" class="st15" width="20.9" height="53.8"/>
		
			<rect x="363.4" y="237.6" transform="matrix(-5.744626e-03 -1 1 -5.744626e-03 125.0818 626.0878)" class="st3" width="20.9" height="26.4"/>
		<path class="st13" d="M341.4,251c2,0,3.5,1.3,3.6,3c0,1.6-1.6,3-3.5,3c-2,0-3.5-1.3-3.6-3C337.8,252.4,339.4,251.1,341.4,251z"/>
	</g>
	<polygon class="st11" points="300.7,138.2 287.1,134.6 292.2,128.7 276,125.4 282.7,120.9 267,114.8 272.1,108.9 252.2,102.5 
		279.3,107.1 273.7,113 289.8,119 283.9,124.3 299.8,127.3 293.4,132.6 	"/>
	<polygon class="st11" points="303.4,161.8 295.4,173.4 291.6,166.6 282.9,180.6 281,172.7 269.9,185.3 266.1,178.5 253.1,195 
		266.8,171.2 270.5,178.4 281.7,165.4 284.6,172.8 293,158.9 295.7,166.7 	"/>
	<polygon class="st11" points="340.6,136.9 343.8,122.8 334.8,125.4 339.7,109.1 331.3,113.7 333,96.8 324,99.4 327.5,78.3 
		318.3,105.4 327.6,102.4 325.7,119.7 334.4,116.1 329.4,132.1 338.3,128.1 	"/>
	<polygon class="st11" points="406.5,134.7 412.9,122.3 417.8,128.5 424.4,113.6 427.5,121.1 436.8,107.3 441.7,113.5 452.2,95.7 
		442,120.7 437.2,114.1 427.9,128.3 423.9,121.5 417.5,136.2 413.6,128.9 	"/>
	<polygon class="st11" points="410.5,150.7 424.3,149.5 421.7,156.9 437.8,154.6 433.2,161.2 449.8,161.7 447.2,169.1 467.9,168.5 
		441.2,173.2 444.3,165.7 427.3,165.3 430.9,158.3 415.1,160.8 419.2,153.6 	"/>
	<polygon class="st11" points="392.5,134.1 401.3,123.8 395.5,121.8 406.2,110.3 399.8,110.2 409.1,96.8 403.4,94.8 415.8,78.7 
		397.6,97.2 403.7,99 394,112.7 400.1,113.7 389.5,124.8 395.9,125.6 	"/>
	<g>
		
			<ellipse transform="matrix(0.1587 -0.9873 0.9873 0.1587 330.9453 554.4435)" class="st11" cx="490.8" cy="83" rx="25.7" ry="25.7"/>
		<g>
			<path class="st16" d="M494,78.9c0-1.2,0.2-2.3,0.5-3.4h-7.9c0.3,1,0.5,2.2,0.5,3.4c0,3.4-1.4,6.4-3.4,8h13.2v-0.4
				C495.2,84.9,494,82.1,494,78.9z"/>
			<path class="st17" d="M497.2,73.1c0,4.3-2.9,9.5-6.4,9.5s-6.4-5.2-6.4-9.5c0-4.3,2.9-7.8,6.4-7.8S497.2,68.8,497.2,73.1z"/>
			<path class="st18" d="M490.4,86.1c-2.2,0-4.2-0.4-5.6-1l4.5,9.8h1.7l5.2-9.8l-0.1,0C494.7,85.7,492.7,86.1,490.4,86.1z"/>
			<path d="M494.8,83.3L494.8,83.3l-4,9.3l-4.5-9.3c-5.2,0.5-9.1,4.9-9.1,10.3v3c3.6,3.3,8.4,5.4,13.6,5.4s10.1-2.1,13.6-5.4v-3
				C504.4,87.8,500.5,83.3,494.8,83.3z"/>
			<path class="st19" d="M497.5,69c-0.3-0.8-0.8-1.6-1.4-2.2c-0.2-0.2-0.7-0.6-1.2-0.9c-0.2-0.1-0.3-0.2-0.5-0.2
				c-0.2,0-0.3,0-0.5,0.1c-0.1,0-0.2,0.1-0.3,0.2c-0.3,0.1-0.3,0.4-0.2,0.8c0,0.2,0,0.4,0.1,0.5c0.3,1.5,1.3,2.4,2.5,3.5
				c0.8,0.8,1.2,1.6,1.4,2.7C498,72.1,498.1,70.4,497.5,69z"/>
			<path class="st19" d="M492.3,64.3c-1-0.1-2-0.2-3,0.1c-0.2,0-0.3,0.1-0.5,0.2c-1.1,0.6-2.7,0.9-3.4,2.4c-0.1,0.1-0.2,0.2-0.3,0.4
				c-0.4,0.6-0.8,1.3-1,2c0,0.2-0.1,0.4-0.1,0.5c-0.3,1.3-0.3,2.6-0.2,3.9c0.5-1.1,1.3-2,2.3-2.6c1.6-0.9,3.5-1,5.2-1.7
				c1-0.4,2-1,2.5-2.1c0.1-0.1,0.1-0.3,0.1-0.4c0-0.1,0.1-0.3,0.1-0.4c0-0.1,0-0.3,0-0.4c0-0.1,0-0.3-0.1-0.4
				c-0.2-0.3-0.5-1.3-1-1.2C492.7,64.4,492.5,64.3,492.3,64.3z"/>
			<ellipse class="st17" cx="484.4" cy="73.9" rx="0.6" ry="2.1"/>
			<path class="st17" d="M497.8,73.9c0,1.2-0.3,2.1-0.6,2.1c-0.3,0-0.6-0.9-0.6-2.1c0-1.2,0.3-2.1,0.6-2.1
				C497.5,71.8,497.8,72.8,497.8,73.9z"/>
		</g>
	</g>
	<g>
		<ellipse transform="matrix(0.9282 -0.372 0.372 0.9282 -59.1894 87.2178)" class="st11" cx="196.4" cy="197" rx="40" ry="40"/>
		<g>
			<path class="st16" d="M201.5,189.9c0-1.9,0.3-3.6,0.7-5.2h-12.3c0.5,1.6,0.7,3.4,0.7,5.2c0,5.3-2.1,10-5.2,12.4H206v-0.6
				C203.3,199.1,201.5,194.8,201.5,189.9z"/>
			<path class="st17" d="M206.4,180.8c0,6.7-4.4,14.7-9.9,14.7s-9.9-8-9.9-14.7c0-6.7,4.4-12.2,9.9-12.2S206.4,174.1,206.4,180.8z"
				/>
			<path class="st20" d="M195.8,201c-3.5,0-6.6-0.6-8.7-1.6l6.9,15.2h2.7l8.1-15.3l-0.1,0C202.6,200.4,199.4,201,195.8,201z"/>
			<path class="st21" d="M202.7,196.2l-0.2,0l-6.1,14.6l-6.9-14.6c-8.2,0.8-14.4,7.7-14.4,16.1v4.6c5.6,5.2,13.1,8.5,21.3,8.5
				c8.3,0,15.8-3.2,21.3-8.5v-4.6C217.8,203.4,211.6,196.2,202.7,196.2z"/>
			<path class="st22" d="M206.8,174.4c-0.5-1.2-1.2-2.4-2.2-3.3c-0.3-0.3-1.1-1-1.8-1.4c-0.3-0.1-0.5-0.3-0.8-0.3
				c-0.3,0-0.5,0.1-0.7,0.1c-0.2,0.1-0.4,0.2-0.5,0.3c-0.4,0.1-0.4,0.6-0.3,1.3c0,0.3,0,0.6,0.1,0.9c0.4,2.4,2.1,3.7,3.8,5.4
				c1.2,1.2,1.8,2.6,2.3,4.1C207.6,179.2,207.7,176.7,206.8,174.4z"/>
			<path class="st22" d="M186.2,174.4c0.5-1.2,1.2-2.4,2.2-3.3c0.3-0.3,1.1-1,1.8-1.4c0.3-0.1,0.5-0.3,0.8-0.3
				c0.3,0,0.5,0.1,0.7,0.1c0.2,0.1,0.4,0.2,0.5,0.3c0.4,0.1,0.4,0.6,0.3,1.3c0,0.3,0,0.6-0.1,0.9c-0.4,2.4-2.1,3.7-3.8,5.4
				c-1.2,1.2-1.8,2.6-2.3,4.1C185.5,179.2,185.3,176.7,186.2,174.4z"/>
			<path class="st17" d="M187.4,182.1c0,1.8-0.4,3.2-0.9,3.2s-0.9-1.5-0.9-3.2s0.4-3.2,0.9-3.2S187.4,180.3,187.4,182.1z"/>
			<path class="st17" d="M207.3,182.1c0,1.8-0.4,3.2-0.9,3.2c-0.5,0-0.9-1.5-0.9-3.2s0.4-3.2,0.9-3.2
				C206.9,178.9,207.3,180.3,207.3,182.1z"/>
			<path class="st22" d="M200.5,190.3c-0.5-0.9-1.2-1.5-2.2-1.8c-0.4-0.1-1.5-0.4-1.6,0.2c0,0.1,0,0.2-0.1,0.3c0-0.1,0-0.2-0.1-0.3
				c-0.1-0.6-1.2-0.3-1.6-0.2c-1,0.3-1.7,0.9-2.2,1.8c0,0,0,0,0,0c0.1-0.1,0.2-0.1,0.2-0.2c0.1-0.1,0.2,0,0.2,0.1c0,0.1,0,0.1,0,0.2
				c0.1-0.1,0.2-0.2,0.3-0.3c0,0,0.1,0,0.1,0c0.2-0.2,0.4-0.4,0.6-0.4c0.1,0,0.1,0,0.1,0.1c0,0.1,0.1,0.3,0.1,0.4c0,0,0,0,0,0
				c0-0.1,0.1-0.1,0.2-0.1c0,0,0,0,0,0c0.2-0.2,0.4-0.5,0.7-0.4c0.1,0,0.2,0.2,0.2,0.3c0-0.1,0-0.1,0.1-0.2c0-0.1,0.1-0.2,0.2-0.1
				l0.7,0.5c0-0.1,0-0.1,0-0.2c0,0.1,0,0.1,0,0.2l0.7-0.5c0.1-0.1,0.2,0,0.2,0.1c0,0.1,0,0.1,0.1,0.2c0-0.2,0.1-0.3,0.2-0.3
				c0.3-0.1,0.5,0.2,0.7,0.4c0,0,0,0,0,0c0.1,0,0.2,0,0.2,0.1c0,0,0,0,0,0c0-0.1,0-0.3,0.1-0.4c0-0.1,0.1-0.1,0.1-0.1
				c0.2,0,0.4,0.2,0.6,0.4c0,0,0.1,0,0.1,0c0.1,0.1,0.2,0.2,0.3,0.3c0-0.1,0-0.1,0-0.2c0-0.1,0.1-0.2,0.2-0.1
				C200.4,190.2,200.5,190.3,200.5,190.3C200.6,190.3,200.5,190.3,200.5,190.3z"/>
			<g>
				<path d="M205,179.4h-0.4h-5h-2h-0.4h-1.2h-0.4h-2h-5h-0.4v1.2h0.3v2.2c0,1.5,0.8,2.7,1.9,2.7h3.7c1,0,1.9-1.2,1.9-2.7v-2.2h0.3
					v-0.4h1.2v0.4h0.3v2.2c0,1.5,0.8,2.7,1.9,2.7h3.7c1,0,1.9-1.2,1.9-2.7v-2.2h0.3l1-0.5v-0.8L205,179.4z M194.7,183.9
					c0,0.2-0.2,0.4-0.4,0.4h-4.8c-0.2,0-0.4-0.2-0.4-0.4v-3c0-0.2,0.2-0.4,0.4-0.4h4.8c0.2,0,0.4,0.2,0.4,0.4V183.9z M203.8,183.9
					c0,0.2-0.2,0.4-0.4,0.4h-4.8c-0.2,0-0.4-0.2-0.4-0.4v-3c0-0.2,0.2-0.4,0.4-0.4h4.8c0.2,0,0.4,0.2,0.4,0.4V183.9z"/>
				<polygon points="186.9,180 187.9,180.5 187.9,179.4 186.9,179.2 				"/>
			</g>
		</g>
	</g>
	<g>
		
			<ellipse transform="matrix(0.162 -0.9868 0.9868 0.162 78.4506 307.6065)" class="st11" cx="220.3" cy="107.6" rx="30.9" ry="30.9"/>
		<g>
			<path class="st16" d="M224.2,102.1c0-1.4,0.2-2.8,0.6-4h-9.5c0.4,1.3,0.6,2.6,0.6,4c0,4.1-1.6,7.7-4,9.6h15.9v-0.5
				C225.6,109.2,224.2,105.9,224.2,102.1z"/>
			<path class="st17" d="M227.3,95.2c0,5.2-2.8,12.4-7,12.4s-7-7-7-12.2c0-5.2,2.7-9.6,7-9.6S227.3,90,227.3,95.2z"/>
			<path class="st1" d="M219.9,110.7c-2.7,0-5.1-0.5-6.7-1.2l5.3,11.7h2.1l6.2-11.8l-0.1,0C225.1,110.2,222.6,110.7,219.9,110.7z"/>
			<path class="st23" d="M225.2,107l-0.1,0l-4.7,11.2L215,107c-6.3,0.6-11.1,6-11.1,12.4v3.6c4.3,4,10.1,6.5,16.4,6.5
				s12.2-2.5,16.4-6.5v-3.6C236.8,112.5,232,107,225.2,107z"/>
			<path class="st17" d="M214.1,96.1c0,1.4-0.3,2.5-0.7,2.5c-0.4,0-0.7-1.1-0.7-2.5c0-1.4,0.3-2.5,0.7-2.5
				C213.8,93.6,214.1,94.7,214.1,96.1z"/>
			<path class="st17" d="M228,96.1c0,1.4-0.3,2.5-0.7,2.5c-0.4,0-0.7-1.1-0.7-2.5c0-1.4,0.3-2.5,0.7-2.5
				C227.7,93.6,228,94.7,228,96.1z"/>
			<path class="st24" d="M221.1,102.2h-1.5c-1.1,0-2,0.9-2,2v3.3c0,1.1,0.9,2,2,2h1.5c1.1,0,2-0.9,2-2v-3.3
				C223,103.1,222.2,102.2,221.1,102.2z M222.7,105.9c0,0.5-0.8,1-1.7,1h-1.3c-0.9,0-1.7-0.4-1.7-1v-1.6c0-0.5,0.8-1,1.7-1h1.3
				c0.9,0,1.7,0.4,1.7,1V105.9z"/>
			<polygon class="st25" points="215,107 220.3,118.2 225,107 226.1,107 220.4,119.8 214.1,107.1 			"/>
		</g>
	</g>
	<g>
		
			<ellipse transform="matrix(0.5418 -0.8405 0.8405 0.5418 77.6962 521.0314)" class="st11" cx="516.8" cy="189.2" rx="43.4" ry="43.4"/>
		<g>
			<path class="st26" d="M522.5,182.2c0-2,0.3-3.9,0.8-5.7H510c0.5,1.8,0.8,3.7,0.8,5.7c0,5.8-2.3,10.8-5.7,13.4h22.3v-0.7
				C524.5,192.2,522.5,187.5,522.5,182.2z"/>
			<path class="st17" d="M526.9,172.7c0,7.3-3.9,17.5-9.9,17.5c-5.9,0-9.8-9.9-9.8-17.2c0-7.3,3.8-13.6,9.8-13.6
				C523,159.5,526.9,165.4,526.9,172.7z"/>
			<path class="st27" d="M516.7,194.4c-3.8,0-4.6-4.7-7-5.7l-8.6,5l6.2,11.7l26.4-1l-4.2-13.3l-5.9-2.3
				C523.3,189.7,520.5,194.4,516.7,194.4z"/>
			<g>
				<polygon class="st1" points="513.1,197 516.4,194.4 509.7,188.7 509.5,189 				"/>
				<polygon class="st1" points="520.4,197 517.1,194.4 523.6,188.8 523.7,189 				"/>
			</g>
			<polygon class="st28" points="517,199.2 519,196.9 516.7,194.4 514.3,196.9 516.4,199.2 514.3,211.7 516.7,211.7 519.2,211.7 			
				"/>
			<ellipse class="st17" cx="507.3" cy="173.7" rx="1" ry="3.5"/>
			<ellipse class="st17" cx="526.9" cy="173.7" rx="1" ry="3.5"/>
			<path class="st29" d="M524.2,189c0,0.3,0.1,0.7,0.1,1c0,4.6-3.3,10.9-7.5,10.9s-7.6-6.3-7.6-10.9c0-0.4,0-0.7,0.1-1.1
				c-8.8,0.9-15.6,8.4-15.6,17.4v5c6,5.7,14.2,9.2,23.1,9.2c8.9,0,17.1-3.5,23.1-9.2v-5C539.9,197,533.5,189.4,524.2,189z"/>
			<g>
				<path class="st30" d="M516.6,182c-0.2-0.7-1.1-0.8-1.8-0.7c-0.6,0.2-0.8,0.6-1.2,1.1c-0.4,0.6-0.9,1-1.5,1.2c0.3,0,0.6,0,0.9,0
					c0.5-0.1,0.9-0.3,1.4-0.5c0.4-0.2,0.6-0.1,1-0.1C516.2,183.1,516.6,182.6,516.6,182C516.6,182,516.6,182,516.6,182z"/>
				<path class="st30" d="M516.9,182c0.2-0.7,1.1-0.8,1.8-0.7c0.6,0.2,0.8,0.6,1.2,1.1c0.4,0.6,0.9,1,1.5,1.2c-0.3,0-0.6,0-0.9,0
					c-0.5-0.1-0.9-0.3-1.4-0.5c-0.4-0.2-0.6-0.1-1-0.1C517.3,183.1,516.9,182.6,516.9,182C516.9,182,516.9,182,516.9,182z"/>
			</g>
			<path class="st30" d="M525.3,165.4c-0.1-0.3,0.3-0.5,0.4-0.3c0.2,0.3,0.5,0.7,0.7,1c-0.5-1.7-1.5-3.2-2.9-4.4
				c-0.3-0.2,0.1-0.6,0.4-0.4c0.1,0,0.2,0.1,0.2,0.1c-0.8-1.3-2.1-2.1-3.6-2.3c-0.2,0-0.4-0.4-0.1-0.5c0.4-0.2,0.8-0.3,1.3-0.5
				c-3.5-1-7.3-0.2-10.2,2.1c-0.2,0.1-0.4-0.1-0.2-0.2c0.3-0.3,0.6-0.7,0.9-1c-2,0.9-3.4,2.6-3.9,4.7c0,0.2-0.3,0.1-0.3-0.1
				c0.1-0.5,0.2-1,0.4-1.5c-1,1.8-1.3,3.8-0.9,5.8c0,0.1-0.1,0.3-0.2,0.2c-0.2-0.2-0.4-0.3-0.6-0.5c1.2,2.8,0.2,6.1,1.1,9
				c0.4-1.9,0.6-3.8,0.3-5.7c-0.3-2.1,0.9-3.5,2-5.3c0.4-0.6,1.1-2.6,2.3-1.8c1.1,0.7,1.8,1.2,3.2,0.9c0.6-0.1,1.3-0.3,1.9-0.3
				c1.7,0.1,2.1,1.3,3.4,2.1c1.5,0.9,3,1.1,4.2,2.5c0.9,1,1.4,2.5,1.4,3.8c0.1,1.8-0.2,2,0.2,3.7
				C527.9,172.3,527.3,169.4,525.3,165.4z"/>
		</g>
	</g>
	<g>
		
			<ellipse transform="matrix(0.7071 -0.7071 0.7071 0.7071 95.5761 308.0749)" class="st11" cx="419.7" cy="38.7" rx="31.4" ry="31.4"/>
		<g>
			<path class="st17" d="M412.8,27.6c0,1.4-0.3,2.5-0.7,2.5c-0.4,0-0.7-1.1-0.7-2.5c0-1.4,0.3-2.5,0.7-2.5
				C412.5,25.1,412.8,26.2,412.8,27.6z"/>
			<g>
				<path class="st31" d="M423.8,32.9c0-1.5,0.2-2.8,0.6-4.1h-9.6c0.4,1.3,0.6,2.7,0.6,4.1c0,4.2-1.7,7.8-4.1,9.7h16.1v-0.5
					C425.2,40.1,423.8,36.7,423.8,32.9z"/>
				<path class="st17" d="M427.7,25.8c0,5.3-3.5,12.4-7.8,12.4c-4.3,0-7.8-7.1-7.8-12.4s3.5-9.5,7.8-9.5
					C424.2,16.3,427.7,20.5,427.7,25.8z"/>
				<path class="st32" d="M420,41.3c-2.7,0-5.2-0.5-6.8-1.3l-3,18.9l9.6-3.9l6.3-12l0.9-3C425.2,40.8,422.8,41.3,420,41.3z"/>
				<path class="st33" d="M425.1,38.8c0,0.2,0,0.5,0,0.7c0,3.3-10,17.9-13,17.9s2.1-14.5,2.1-17.9c0-0.3,0-0.5,0-0.8
					c-6.4,0.6-11.3,6.1-11.3,12.6V55c4.4,4.1,10.2,6.6,16.7,6.6c6.5,0,12.3-2.5,16.7-6.6v-3.6C436.4,44.6,431.8,39,425.1,38.8z"/>
				<path class="st34" d="M430.8,51c0,0.5-0.4,0.8-0.8,0.8h-4.7c-0.5,0-0.8-0.4-0.8-0.8l0,0c0-0.5,0.4-0.8,0.8-0.8h4.7
					C430.5,50.2,430.8,50.6,430.8,51L430.8,51z"/>
				<path class="st35" d="M426.6,37.8c1.1-4.6,4.9-10.9,0.7-15c-0.1,0.2,0,1.3,0,1.3c0,0.3,0.1,0.5,0.1,0.8c0,0.7,0,1.5,0,2.2
					c-0.1,1.2-0.3,2.5-0.7,3.7c-0.8,2.7-1.9,5.3-3,7.9c-1.1,2.7-2.2,5.6-2.1,8.6c0.1,2.7,1.4,5.1,3.2,6.9c-0.1-0.5-0.2-1-0.2-1.5
					c0-0.3,0.4-0.3,0.5-0.1c1,1.7,2.6,2.9,4.5,3.4c-1.5-2.2-3-4.7-2.5-7.5c0-0.2,0.4-0.2,0.5-0.1c0.5,1,1.2,2,2,2.8
					C427.1,47.2,425.5,42.5,426.6,37.8z"/>
				<path class="st17" d="M428.4,26.8c0,1.4-0.3,2.5-0.7,2.5c-0.4,0-0.7-1.1-0.7-2.5c0-1.4,0.3-2.5,0.7-2.5
					C428.1,24.2,428.4,25.4,428.4,26.8z"/>
				<path class="st35" d="M428.2,25.9c0-0.2,0-0.4,0-0.6c0,0,0-0.1,0-0.1c-0.1-3.4-1.7-6.9-5-8.6c-2-1-4.6-1.3-6.5-0.2
					c-0.9,0.5-2,1.5-2.5,2.5c-1.1,1-2,2.3-2.3,3.9c-0.4,1.8,0,3.4,0.2,5.1c0.1-0.2,0.2-0.4,0.3-0.6c0.1-0.2,0.2-0.5,0.4-0.6
					c0,0,0.1,0,0.1,0c0.4-0.4,0.8-0.8,1.1-1.2c0.6-0.8,0.9-1.7,1.1-2.6c2.1,1.2,5.5,1.4,7.5,1.4c2,0,4.4,0.1,5.5,1.7
					C428.2,26,428.2,25.9,428.2,25.9z"/>
			</g>
		</g>
	</g>
	<g>
		
			<ellipse transform="matrix(0.2057 -0.9786 0.9786 0.2057 215.4239 337.7983)" class="st11" cx="315.8" cy="36.2" rx="36.2" ry="36.2"/>
		<g>
			<path class="st36" d="M320.7,28.8c0-1.8,0.2-3.5,0.7-5.1h-11.9c0.4,1.6,0.7,3.3,0.7,5.1c0,5.2-2,9.7-5.1,12H325v-0.6
				C322.4,37.7,320.7,33.5,320.7,28.8z"/>
			<path class="st37" d="M324.2,21.3c0,5.5-3.5,13.1-8.8,13.1c-5.3,0-8.8-7.4-8.8-12.9c0-5.5,3.4-10.2,8.8-10.2
				C320.7,11.4,324.2,15.8,324.2,21.3z"/>
			<path class="st38" d="M314.9,39.6c-3.4,0-6.4-0.6-8.5-1.5l6.7,14.7h2.6l7.8-14.8l-0.1,0C321.5,39,318.4,39.6,314.9,39.6z"/>
			<path class="st39" d="M321.9,34.9l-0.2,0L315.8,49l-6.7-14.1c-7.9,0.8-14,7.5-14,15.6V55c5.4,5.1,12.7,8.2,20.7,8.2
				c8,0,15.3-3.1,20.7-8.2v-4.5C336.5,41.9,330.5,34.9,321.9,34.9z"/>
			<g>
				<path class="st37" d="M307.6,22.4c0,1.7-0.4,3.1-0.9,3.1c-0.5,0-0.9-1.4-0.9-3.1c0-1.7,0.4-3.1,0.9-3.1
					C307.2,19.3,307.6,20.7,307.6,22.4z"/>
				<path class="st37" d="M324.9,22.4c0,1.7-0.4,3.1-0.9,3.1c-0.5,0-0.9-1.4-0.9-3.1c0-1.7,0.4-3.1,0.9-3.1
					C324.5,19.3,324.9,20.7,324.9,22.4z"/>
			</g>
			<polygon class="st40" points="309.1,34.9 315.8,49 321.7,34.9 325.4,34.9 322.5,39.9 320,40.3 321.3,42 315.8,51 310.2,42.3 
				311.1,40.3 308.6,39.9 305.6,35.2 			"/>
			<path d="M327.6,27.2c-0.1-0.1-0.1-0.3,0-0.4c1.2-0.8,1.9-2.5,1.5-4c-0.4-1.6-1.3-2.8-2.5-3.7c-0.1-0.1-0.1-0.2-0.1-0.3
				c0.7-3.6-2.1-6.6-5.3-5.6c-0.1,0-0.2,0-0.2-0.1c-0.6-3.5-4.3-3.4-6.7-3.1c-0.1,0-0.1-0.1,0-0.1c0,0,0,0,0,0
				c-2.3-1.6-5.1,0.1-5.2,3.2c0,0.1-0.1,0.3-0.2,0.2c-1.2-0.1-2.2,0.6-2.9,1.7c-0.8,1.1-2,3.3-0.4,4.3c0.2,0.1,0.2,0.4,0,0.5
				c-2.5,1.5-2.7,5.1-0.5,7c0.2,0.2-0.1,0.6-0.3,0.4c-1.3-0.6-1.6,2.1-1.6,2.9c0.1,1.4,1.1,3,2.5,2.2c0.2-0.1,0.4,0.1,0.3,0.4
				c-1,2.1,2.2,2.4,2.9,0.9c0.5-1.1,0.3-2.2-0.5-2.9c-0.2-0.2,0-0.6,0.2-0.5c0.9-0.9,1-1.5,0.2-1.9c-0.1-0.1-0.2-0.3-0.1-0.4
				c0.7-1.2,0.3-2.8-0.9-3.3c-0.1-0.1-0.2-0.3-0.1-0.4c1.2-1,1.6-2.7,1-4.3c0-0.1,0-0.3,0.1-0.3c1-0.8,1.4-2.2,1-3.5
				c-0.1-0.2,0.1-0.4,0.3-0.3c0.9,0.1,1.6-0.4,2-1.2c0.1-0.3,0.6,0,0.4,0.3c0,0.1-0.1,0.1-0.1,0.2c0.8,1.9,2.5,3.3,4.4,3.4
				c1.2,0,2.1-0.3,3.1-0.8c0.5-0.3,1-0.4,1.5-0.5c0.2,0,0.2,0.2,0.2,0.3l-0.1,0.4c0,0.2-0.3,0.2-0.3,0c0-0.1-0.3-0.1-0.7,0
				c-0.2,1.4-0.4,2.7,0.4,4c0.5,0.7,1,1.1,1.6,1.5c0,0,0,0,0,0c0.2-0.1,0.4,0.1,0.4,0.3c0.1,0.1,0,0.2,0,0.2c0,0,0,0-0.1,0l0,0
				c-1.3,0.7-1.3,2.4-0.1,3.2c0.2,0.1,0.1,0.4-0.1,0.5c-1.4,0.5-1.8,2.5-0.5,3.5c0.2,0.2,0.1,0.5-0.1,0.5c-1.2,0.1-0.2,1.9,0.3,2.2
				c0.5,0.3,1.1,0.5,1.7,0.2c0.8-0.3,1-0.8,1.4-1.6c0-0.1,0.1-0.1,0.1-0.1c1-0.3,2.1-0.8,2.6-1.9C328.7,29.1,328.6,27.8,327.6,27.2z
				"/>
			<path d="M319,20.4c-1.2,0-2.2,0.7-2.7,1.8c-0.3-0.3-0.6-0.4-1-0.4c-0.4,0-0.7,0.2-1,0.4c-0.4-1-1.5-1.8-2.7-1.8
				c-1.6,0-2.9,1.3-2.9,2.9c0,1.6,1.3,2.9,2.9,2.9c1.6,0,2.9-1.3,2.9-2.9c0-0.3-0.1-0.6-0.2-0.9c0.1,0,0.1-0.1,0.2-0.1
				c0.2-0.2,0.5-0.3,0.8-0.3c0.3,0,0.5,0.1,0.8,0.3c0.1,0,0.1,0.1,0.2,0.1c-0.1,0.3-0.1,0.6-0.1,0.9c0,1.6,1.3,2.9,2.9,2.9
				s2.9-1.3,2.9-2.9C321.9,21.7,320.6,20.4,319,20.4z M311.7,25.7c-1.3,0-2.4-1.1-2.4-2.4s1.1-2.4,2.4-2.4s2.4,1.1,2.4,2.4
				S313,25.7,311.7,25.7z M319,25.7c-1.3,0-2.4-1.1-2.4-2.4s1.1-2.4,2.4-2.4s2.4,1.1,2.4,2.4S320.3,25.7,319,25.7z"/>
			<g>
				<g>
					<rect x="322.8" y="50.2" class="st38" width="7.5" height="5.1"/>
					<g>
						<rect x="323.4" y="50.6" class="st41" width="2.1" height="2.3"/>
						<rect x="325.9" y="51.1" class="st41" width="3.8" height="0.5"/>
						<rect x="325.9" y="52" class="st41" width="3.8" height="0.5"/>
						<g>
							<rect x="323.4" y="53.3" class="st41" width="6.2" height="0.3"/>
							<rect x="323.4" y="53.8" class="st41" width="6.2" height="0.3"/>
							<rect x="323.4" y="54.3" class="st41" width="6.2" height="0.3"/>
						</g>
					</g>
				</g>
				<rect x="325.3" y="49" class="st42" width="2.5" height="1.2"/>
			</g>
		</g>
	</g>
	<g>
		<polygon class="st1" points="241.4,245.2 241.4,239.9 246.6,239.9 246.6,238.5 241.4,238.5 241.4,233.3 239.9,233.3 239.9,238.5 
			234.7,238.5 234.7,239.9 239.9,239.9 239.9,245.2 		"/>
		<polygon class="st1" points="145.5,321.6 145.5,318.2 148.9,318.2 148.9,317.2 145.5,317.2 145.5,313.8 144.5,313.8 144.5,317.2 
			141.1,317.2 141.1,318.2 144.5,318.2 144.5,321.6 		"/>
		<polygon class="st1" points="108,180.9 108,178.6 110.3,178.6 110.3,178 108,178 108,175.8 107.4,175.8 107.4,178 105.1,178 
			105.1,178.6 107.4,178.6 107.4,180.9 		"/>
		<polygon class="st1" points="80,144.9 80,142.6 82.2,142.6 82.2,142 80,142 80,139.7 79.4,139.7 79.4,142 77.1,142 77.1,142.6 
			79.4,142.6 79.4,144.9 		"/>
		<polygon class="st1" points="199,134.9 199,130.8 203.1,130.8 203.1,129.7 199,129.7 199,125.6 197.9,125.6 197.9,129.7 
			193.8,129.7 193.8,130.8 197.9,130.8 197.9,134.9 		"/>
		<polygon class="st1" points="255.3,289.1 255.3,286.9 257.5,286.9 257.5,286.3 255.3,286.3 255.3,284.1 254.7,284.1 254.7,286.3 
			252.5,286.3 252.5,286.9 254.7,286.9 254.7,289.1 		"/>
		<polygon class="st1" points="261.9,189.1 261.9,185 265.9,185 265.9,183.9 261.9,183.9 261.9,179.8 260.7,179.8 260.7,183.9 
			256.6,183.9 256.6,185 260.7,185 260.7,189.1 		"/>
		<polygon class="st1" points="82.8,306.5 82.8,302.4 86.9,302.4 86.9,301.3 82.8,301.3 82.8,297.2 81.7,297.2 81.7,301.3 
			77.6,301.3 77.6,302.4 81.7,302.4 81.7,306.5 		"/>
	</g>
	<g>
		<polygon class="st1" points="534.8,276.8 540.1,276.8 540.1,282.1 541.5,282.1 541.5,276.8 546.7,276.8 546.7,275.4 541.5,275.4 
			541.5,270.2 540.1,270.2 540.1,275.4 534.8,275.4 		"/>
		<polygon class="st1" points="458.5,180.9 461.9,180.9 461.9,184.3 462.8,184.3 462.8,180.9 466.2,180.9 466.2,180 462.8,180 
			462.8,176.6 461.9,176.6 461.9,180 458.5,180 		"/>
		<polygon class="st1" points="599.1,143.5 601.4,143.5 601.4,145.7 602,145.7 602,143.5 604.3,143.5 604.3,142.9 602,142.9 
			602,140.6 601.4,140.6 601.4,142.9 599.1,142.9 		"/>
		<polygon class="st1" points="645.1,234.4 649.2,234.4 649.2,238.5 650.3,238.5 650.3,234.4 654.4,234.4 654.4,233.3 650.3,233.3 
			650.3,229.2 649.2,229.2 649.2,233.3 645.1,233.3 		"/>
		<polygon class="st1" points="490.9,290.8 493.1,290.8 493.1,293 493.7,293 493.7,290.8 495.9,290.8 495.9,290.2 493.7,290.2 
			493.7,288 493.1,288 493.1,290.2 490.9,290.2 		"/>
		<polygon class="st1" points="590.9,297.3 595,297.3 595,301.4 596.1,301.4 596.1,297.3 600.2,297.3 600.2,296.2 596.1,296.2 
			596.1,292.1 595,292.1 595,296.2 590.9,296.2 		"/>
		<polygon class="st1" points="473.5,118.3 477.6,118.3 477.6,122.4 478.8,122.4 478.8,118.3 482.9,118.3 482.9,117.1 478.8,117.1 
			478.8,113 477.6,113 477.6,117.1 473.5,117.1 		"/>
	</g>
	<g>
		<polygon class="st1" points="379.4,102.2 372.5,102.2 372.5,95.3 370.6,95.3 370.6,102.2 363.8,102.2 363.8,104 370.6,104 
			370.6,110.9 372.5,110.9 372.5,104 379.4,104 		"/>
		<polygon class="st1" points="479.2,227.5 474.7,227.5 474.7,223.1 473.5,223.1 473.5,227.5 469.1,227.5 469.1,228.7 473.5,228.7 
			473.5,233.2 474.7,233.2 474.7,228.7 479.2,228.7 		"/>
		<polygon class="st1" points="295.3,276.5 292.4,276.5 292.4,273.5 291.6,273.5 291.6,276.5 288.6,276.5 288.6,277.3 291.6,277.3 
			291.6,280.2 292.4,280.2 292.4,277.3 295.3,277.3 		"/>
		<polygon class="st1" points="248.3,313.1 245.3,313.1 245.3,310.1 244.5,310.1 244.5,313.1 241.5,313.1 241.5,313.9 244.5,313.9 
			244.5,316.9 245.3,316.9 245.3,313.9 248.3,313.9 		"/>
		<polygon class="st1" points="235.2,157.6 229.9,157.6 229.9,152.2 228.4,152.2 228.4,157.6 223,157.6 223,159 228.4,159 
			228.4,164.4 229.9,164.4 229.9,159 235.2,159 		"/>
		<polygon class="st1" points="436.8,83.9 433.9,83.9 433.9,81 433.1,81 433.1,83.9 430.2,83.9 430.2,84.7 433.1,84.7 433.1,87.6 
			433.9,87.6 433.9,84.7 436.8,84.7 		"/>
		<polygon class="st1" points="306.1,75.4 300.7,75.4 300.7,70 299.3,70 299.3,75.4 293.9,75.4 293.9,76.9 299.3,76.9 299.3,82.2 
			300.7,82.2 300.7,76.9 306.1,76.9 		"/>
		<polygon class="st1" points="459.5,309.4 454.1,309.4 454.1,304.1 452.7,304.1 452.7,309.4 447.3,309.4 447.3,310.9 452.7,310.9 
			452.7,316.2 454.1,316.2 454.1,310.9 459.5,310.9 		"/>
	</g>
	<g>
		<g>
			<path class="st43" d="M639.1,159.9l-2.2-4l-1.8-7.1l-0.1-3.8l1-1.3l1.1-1.1l4.2-0.1l5.1,3l2.8,1.6l-1.1,0.7l2.9,3.9
				c0,0,2.5,3.3,2.5,3.6c0,0.2-0.1,1.7-0.1,1.7l-3.4-1.3l-1.3-1.1l2.2,4.1l1.4,4.3l0.3,1.3l-2.6-0.9l-2.8-3.2l-1-0.9l-1.3-1.1l1,4
				l-2.9-1.9l-2.7-2.7L639.1,159.9z"/>
			<path class="st44" d="M648.8,148c1.2,0.3,2.4,0.8,3.4,1.6c-1-2.1-2.8-3.6-4.8-4.7c-1.8-1.1-3.8-2.3-5.9-2.9
				c-2.1-0.6-4.7-0.5-6.3,1.1c-0.9,0.9-1.5,2.2-1.4,3.4c-0.1,0.6,0,1.2,0.1,1.7c-0.1,1,0.3,2.1,0.6,3c0.5,1.7,1.2,3.3,1.9,4.9
				c1.5,3.1,3.3,5.9,5.5,8.5c-0.5-1.8-0.9-3.6-1.4-5.4c0-0.1,0.1-0.2,0.2-0.1c3,3.1,6.2,6,9.5,8.8c-0.6-2-1.4-3.9-2.6-5.6
				c-0.1-0.1,0.1-0.2,0.2-0.1c3.6,3.5,7.2,7,9.6,11.4c-0.8-5.6-2.8-11-5.8-15.8c-0.1-0.1,0.1-0.2,0.2-0.2c1.8,1.2,3.3,2.6,4.7,4.2
				c-0.3-5.4-3.2-10.5-7.7-13.5C648.6,148.1,648.6,147.9,648.8,148z M647,147c-0.9-0.3-1.9-0.3-2.8,0.1c3.6,1.6,6.5,4.7,8,8.4
				c0,0.1-0.1,0.2-0.2,0.1c-1.7-1.6-3.9-2.7-6.3-3.1c3.1,2.9,5.2,6.8,5.8,11c0,0.1-0.1,0.2-0.2,0.1c-1.8-3.5-4.6-6.3-8.1-8
				c0.3,1.7,0.7,3.3,1,5c0,0.1-0.1,0.1-0.2,0.1c-1-1.4-2.1-2.8-3.3-4c-0.5-0.5-1.4-1.6-2.1-0.8c-0.6,0.7-0.2,1.6,0.1,2.3
				c0,0.1-0.1,0.2-0.2,0.1c-0.9-1.6-1.5-3.3-2-5.1c-0.6-1.7-1-3.5-1.2-5.3c-0.1-1.7,0-3.7,1.7-4.5c1.7-0.8,3.7-0.3,5.4,0.3
				c1.8,0.7,3.4,1.7,4.7,3.1C647.2,146.9,647.1,147,647,147z"/>
			<path class="st0" d="M637.3,143.5c-1.9,0.9-1.9,3-1.7,4.8c0.1,0.7,0.2,1.5,0.4,2.2c0-0.3-0.1-0.6-0.1-1c0-0.1,0.1-0.1,0.1,0
				c0.1,0.8,0.2,1.6,0.4,2.4c0.2,0.6,0.4,1.3,0.7,1.9c0,0.1,0,0.2-0.1,0.2c0.3,1,0.7,2,1.1,2.9c-0.1-0.4,0-0.7,0.2-1
				c0.4-0.5,1-0.7,1.5-0.4c0.9,0.6,1.6,1.5,2.3,2.3c0.6,0.7,1.2,1.5,1.8,2.3c-0.3-1.6-0.6-3.2-0.9-4.7c0-0.1,0.1-0.1,0.1-0.1
				c3.4,1.7,6.2,4.3,8,7.6c-0.8-4-2.8-7.7-5.8-10.4c-0.1-0.1,0-0.2,0.1-0.2c2.4,0.3,4.6,1.2,6.4,2.8c-1.5-3.5-4.4-6.4-7.9-7.9
				c-0.1,0-0.1-0.2,0-0.2c0.9-0.4,1.8-0.5,2.8-0.3c-1.2-1.2-2.6-2.1-4.1-2.7C640.9,143.3,638.9,142.8,637.3,143.5z"/>
		</g>
		<path class="st45" d="M640.1,142.5c-0.2-2-0.8-4.4-1.7-7.2l-10.7,7.4c2.3,1.9,4.3,3.3,6.1,4.1L640.1,142.5z"/>
		<g>
			<polygon class="st46" points="608.1,129.4 610.3,144.6 626.8,165.2 624.3,141.4 			"/>
			<polygon class="st46" points="633.3,112 646.7,119.4 660.1,142.1 638.8,131.4 			"/>
		</g>
		<path class="st47" d="M625.7,98c12.9,18.7,17.2,38.3,9.4,43.6c-7.7,5.4-24.5-5.5-37.5-24.2c-12.9-18.7-9.4-43.6-9.4-43.6
			S612.8,79.3,625.7,98z"/>
		<path class="st48" d="M620.2,139.7c6,3.5,11.4,4.4,14.9,1.9c3.5-2.4,4.6-7.8,3.5-14.7L620.2,139.7z"/>
		<g>
			<path class="st49" d="M599,97.7c0.1-3.3,2.9-5.8,6.2-5.7c3.3,0.1,5.8,2.9,5.7,6.2c-0.1,3.3-2.9,5.8-6.2,5.7
				C601.4,103.8,598.9,101,599,97.7z"/>
			<path class="st50" d="M609.1,95.1c1.6,2.3,1,5.4-1.3,7c-2.3,1.6-5.4,1-7-1.3c-1.6-2.3-1-5.4,1.3-7
				C604.4,92.2,607.5,92.8,609.1,95.1z"/>
		</g>
		<path class="st51" d="M598.8,119c1.7,2.4,3.5,4.6,5.2,6.7l27.2-18.8c-1.3-2.4-2.8-4.9-4.5-7.3L598.8,119z"/>
		<g>
			<path class="st52" d="M629.1,138.6c0.3,0.4,0.2,1-0.2,1.3c-0.4,0.3-1,0.2-1.3-0.2s-0.2-1,0.2-1.3
				C628.2,138,628.8,138.2,629.1,138.6z"/>
			<path class="st52" d="M632.5,136.2c0.3,0.4,0.2,1-0.2,1.3c-0.4,0.3-1,0.2-1.3-0.2c-0.3-0.4-0.2-1,0.2-1.3
				C631.6,135.7,632.2,135.8,632.5,136.2z"/>
			<path class="st52" d="M635.9,133.8c0.3,0.4,0.2,1-0.2,1.3c-0.4,0.3-1,0.2-1.3-0.2c-0.3-0.4-0.2-1,0.2-1.3
				C635.1,133.3,635.6,133.4,635.9,133.8z"/>
		</g>
		<path class="st51" d="M603.5,79.5c-8.4-4.2-15.3-5.8-15.3-5.8s-1,7,0,16.3L603.5,79.5z"/>
		<polygon class="st46" points="621,121.1 620.6,124.3 642.6,152.4 624,121.8 		"/>
		<path class="st53" d="M629.2,118.4"/>
		<path class="st53" d="M622.3,123.1"/>
	</g>
	<g>
		<path class="st54" d="M198.6,268.6c0.8,0,1.5-0.8,1.5-1.8V265c0-1-0.7-1.8-1.5-1.8h-5.9h-3.2h-0.4c2.1-3.1,2.7-7.4,0.2-10.6
			c-0.6-0.8-1.4-1.4-2.4-1.5c-0.8-0.1-2,0-1.9,0.9c0,4.5-1.4,9.4-6.2,11.1c-0.2,0.1-0.3,0.2-0.3,0.5c-1.5,0.7-2.5,2.4-2.5,4.4v0
			v13.2v0c0,2.6,1.8,4.7,4,4.7h9.7h3.2h5.9c0.8,0,1.5-0.8,1.5-1.8v-1.8c0-1-0.7-1.8-1.5-1.8h-1.9v-0.4h1.9c0.8,0,1.5-0.8,1.5-1.8
			v-1.8c0-1-0.7-1.8-1.5-1.8h-1.9v-0.4h1.9c0.8,0,1.5-0.8,1.5-1.8v-1.8c0-1-0.7-1.8-1.5-1.8h-1.9v-0.4H198.6z"/>
		<polygon class="st54" points="165.1,263.2 154.2,263.2 154.2,263.3 154.2,274.5 154.2,285.7 165,285.7 165,285.7 174.5,285.7 
			174.5,274.7 174.5,263.2 165.1,263.2 		"/>
	</g>
	<g>
		<rect x="141.3" y="152.3" class="st54" width="34.1" height="1.2"/>
		<rect x="146.5" y="126.3" class="st54" width="1.2" height="34.2"/>
		<rect x="149.6" y="144.4" class="st54" width="3.1" height="7.2"/>
		<rect x="153.7" y="142.7" class="st54" width="3.1" height="8.9"/>
		<rect x="157.9" y="141.3" class="st54" width="3.1" height="10.2"/>
		<rect x="162" y="140.1" class="st54" width="3.1" height="11.5"/>
		<rect x="166.2" y="138.5" class="st54" width="3.1" height="13"/>
		<rect x="170.3" y="136.7" class="st54" width="3.1" height="14.8"/>
		<path class="st54" d="M167.3,131.5l-2.6,0.4l0.7,0.9c-1.5,1.7-3.6,3.2-6.1,4.4c-4.2,1.8-8.4,2-11.1,0.8c2,2.9,7.7,3.3,13.3,0.9
			c2.3-1,4.3-2.4,5.7-3.9l0,0l0.8,1l0.9-2.4l0.9-2.4L167.3,131.5z"/>
	</g>
	<g>
		<path class="st54" d="M90.3,223.3c-0.2,0-0.4,0.1-0.4,0.1s0-0.1-0.1-0.3c-0.1-0.2-0.2-0.4-0.3-0.6c-0.1-0.2-0.2-0.4-0.3-0.6
			c-0.1-0.2-0.1-0.3-0.1-0.3s-0.1-0.1-0.2-0.3c-0.1-0.2-0.2-0.3-0.4-0.5c-0.1-0.2-0.3-0.4-0.4-0.5c-0.1-0.1-0.2-0.2-0.2-0.2
			s0.1-0.1,0.2-0.3c0.1-0.2,0.3-0.5,0.5-0.7c0.4-0.5,0.7-1.1,0.7-1.1s0,0-0.1-0.1c-0.1-0.1-0.2-0.2-0.3-0.3c-0.3-0.3-0.6-0.6-1-0.9
			c-0.2-0.1-0.4-0.3-0.6-0.4c-0.2-0.1-0.4-0.2-0.5-0.3c-0.2-0.1-0.3-0.2-0.4-0.2c-0.1-0.1-0.1-0.1-0.1-0.1s-0.4,0.5-0.8,1
			c-0.2,0.2-0.4,0.5-0.6,0.7c-0.1,0.2-0.2,0.3-0.2,0.3s-0.4-0.2-0.9-0.4c-0.2-0.1-0.4-0.2-0.6-0.2c-0.2,0-0.3-0.1-0.3-0.1
			s-0.1,0-0.3-0.1c-0.2,0-0.4-0.1-0.6-0.1c-0.5-0.1-0.9-0.1-0.9-0.1s0-0.2-0.1-0.4c0-0.2-0.1-0.5-0.1-0.9c-0.1-0.6-0.3-1.3-0.3-1.3
			s-0.1,0-0.2,0c-0.1,0-0.3,0-0.4,0c-0.2,0-0.4,0-0.6,0c-0.2,0-0.5,0-0.7,0.1c-0.5,0.1-1,0.2-1.3,0.3c-0.2,0-0.3,0.1-0.4,0.1
			c-0.1,0-0.2,0-0.2,0s0,0.6,0.1,1.3c0,0.3,0.1,0.6,0.1,0.9c0,0.2,0.1,0.4,0.1,0.4s-0.1,0-0.3,0.1c-0.2,0.1-0.4,0.2-0.6,0.3
			c-0.2,0.1-0.4,0.2-0.6,0.3c-0.2,0.1-0.3,0.1-0.3,0.1s-0.1,0.1-0.3,0.2c-0.2,0.1-0.3,0.2-0.5,0.4c-0.2,0.1-0.4,0.3-0.5,0.4
			c-0.1,0.1-0.2,0.2-0.2,0.2s-0.1-0.1-0.3-0.2c-0.2-0.1-0.5-0.3-0.7-0.5c-0.5-0.4-1.1-0.7-1.1-0.7s0,0-0.1,0.1
			c-0.1,0.1-0.2,0.2-0.3,0.3c-0.3,0.3-0.6,0.6-0.9,1c-0.1,0.2-0.3,0.4-0.4,0.6c-0.1,0.2-0.2,0.4-0.3,0.5c-0.1,0.2-0.2,0.3-0.2,0.4
			c-0.1,0.1-0.1,0.1-0.1,0.1s0.5,0.4,1,0.8c0.2,0.2,0.5,0.4,0.7,0.6c0.2,0.1,0.3,0.2,0.3,0.2s-0.2,0.4-0.4,0.9
			c-0.1,0.2-0.2,0.4-0.2,0.6c0,0.2-0.1,0.3-0.1,0.3s0,0.1-0.1,0.3c0,0.2-0.1,0.4-0.1,0.6c-0.1,0.5-0.1,0.9-0.1,0.9s-0.2,0-0.4,0.1
			c-0.2,0-0.5,0.1-0.9,0.1c-0.6,0.1-1.3,0.3-1.3,0.3s0,0.1,0,0.2c0,0.1,0,0.3,0,0.4c0,0.2,0,0.4,0,0.6c0,0.2,0,0.5,0.1,0.7
			c0.1,0.5,0.2,1,0.3,1.3c0,0.2,0.1,0.3,0.1,0.4c0,0.1,0,0.2,0,0.2s0.6,0,1.3-0.1c0.3,0,0.6-0.1,0.9-0.1c0.2,0,0.4-0.1,0.4-0.1
			s0,0.1,0.1,0.3c0.1,0.2,0.2,0.4,0.3,0.6c0.1,0.2,0.2,0.4,0.3,0.6c0.1,0.2,0.1,0.3,0.1,0.3s0.1,0.1,0.2,0.3
			c0.1,0.2,0.2,0.3,0.4,0.5c0.1,0.2,0.3,0.4,0.4,0.5c0.1,0.1,0.2,0.2,0.2,0.2s-0.1,0.1-0.2,0.3c-0.1,0.2-0.3,0.5-0.5,0.7
			c-0.4,0.5-0.7,1.1-0.7,1.1s0,0,0.1,0.1c0.1,0.1,0.2,0.2,0.3,0.3c0.3,0.3,0.6,0.6,1,0.9c0.2,0.1,0.4,0.3,0.6,0.4
			c0.2,0.1,0.4,0.2,0.5,0.3c0.2,0.1,0.3,0.2,0.4,0.2c0.1,0.1,0.1,0.1,0.1,0.1s0.4-0.5,0.8-1c0.2-0.2,0.4-0.5,0.6-0.7
			c0.1-0.2,0.2-0.3,0.2-0.3s0.4,0.2,0.9,0.4c0.2,0.1,0.4,0.2,0.6,0.2c0.2,0,0.3,0.1,0.3,0.1s0.1,0,0.3,0.1c0.2,0,0.4,0.1,0.6,0.1
			c0.5,0.1,0.9,0.1,0.9,0.1s0,0.2,0.1,0.4c0,0.2,0.1,0.5,0.1,0.9c0.1,0.6,0.3,1.3,0.3,1.3s0.1,0,0.2,0c0.1,0,0.3,0,0.4,0
			c0.2,0,0.4,0,0.6,0c0.2,0,0.5,0,0.7-0.1c0.5-0.1,1-0.2,1.3-0.3c0.2,0,0.3-0.1,0.4-0.1c0.1,0,0.2,0,0.2,0s0-0.6-0.1-1.3
			c0-0.3-0.1-0.6-0.1-0.9c0-0.2-0.1-0.4-0.1-0.4s0.1,0,0.3-0.1c0.2-0.1,0.4-0.2,0.6-0.3c0.2-0.1,0.4-0.2,0.6-0.3
			c0.2-0.1,0.3-0.1,0.3-0.1s0.1-0.1,0.3-0.2c0.2-0.1,0.3-0.2,0.5-0.4c0.2-0.1,0.4-0.3,0.5-0.4c0.1-0.1,0.2-0.2,0.2-0.2
			s0.1,0.1,0.3,0.2c0.2,0.1,0.5,0.3,0.7,0.5c0.5,0.4,1.1,0.7,1.1,0.7s0,0,0.1-0.1c0.1-0.1,0.2-0.2,0.3-0.3c0.3-0.3,0.6-0.6,0.9-1
			c0.1-0.2,0.3-0.4,0.4-0.6c0.1-0.2,0.2-0.4,0.3-0.5c0.1-0.2,0.2-0.3,0.2-0.4c0.1-0.1,0.1-0.1,0.1-0.1s-0.5-0.4-1-0.8
			c-0.2-0.2-0.5-0.4-0.7-0.6c-0.2-0.1-0.3-0.2-0.3-0.2s0.2-0.4,0.4-0.9c0.1-0.2,0.2-0.4,0.2-0.6c0-0.2,0.1-0.3,0.1-0.3
			s0-0.1,0.1-0.3c0-0.2,0.1-0.4,0.1-0.6c0.1-0.5,0.1-0.9,0.1-0.9s0.2,0,0.4-0.1c0.2,0,0.5-0.1,0.9-0.1c0.6-0.1,1.3-0.3,1.3-0.3
			s0-0.1,0-0.2c0-0.1,0-0.3,0-0.4c0-0.2,0-0.4,0-0.6c0-0.2,0-0.5-0.1-0.7c-0.1-0.5-0.2-1-0.3-1.3c0-0.2-0.1-0.3-0.1-0.4
			c0-0.1,0-0.2,0-0.2s-0.6,0-1.3,0.1C90.8,223.3,90.5,223.3,90.3,223.3z M86.7,228.7c0,0.1,0,0.2-0.1,0.2c0,0,0,0.1-0.1,0.2
			c0,0.1,0,0.1-0.1,0.2c-0.2,0.5-0.5,1-0.9,1.6c-0.2,0.3-0.4,0.5-0.6,0.7c-0.1,0.1-0.2,0.2-0.3,0.3c-0.1,0-0.1,0.1-0.2,0.1
			c-0.1,0-0.1,0.1-0.2,0.1c-0.1,0.1-0.2,0.1-0.3,0.2c-0.1,0.1-0.2,0.1-0.2,0.1c-0.1,0.1-0.2,0.1-0.2,0.1s-0.1,0-0.2,0.1
			c-0.1,0-0.1,0.1-0.2,0.1c-0.1,0-0.2,0.1-0.3,0.1c-0.1,0-0.1,0-0.2,0.1c-0.1,0-0.1,0-0.2,0.1c-0.1,0.1-0.3,0.1-0.4,0.1
			c-0.3,0.1-0.6,0.2-0.9,0.2c-0.6,0.1-1.3,0.1-1.8,0c-0.1,0-0.1,0-0.2,0c-0.1,0-0.1,0-0.2,0c-0.1,0-0.2,0-0.3-0.1
			c-0.1,0-0.2-0.1-0.2-0.1s-0.1,0-0.2-0.1c-0.1,0-0.2,0-0.2-0.1c0,0-0.1,0-0.2-0.1c-0.1,0-0.1,0-0.2-0.1c-0.5-0.2-1-0.5-1.6-0.9
			c-0.3-0.2-0.5-0.4-0.7-0.6c-0.1-0.1-0.2-0.2-0.3-0.3c0-0.1-0.1-0.1-0.1-0.2c0-0.1-0.1-0.1-0.1-0.2c-0.1-0.1-0.1-0.2-0.2-0.3
			c-0.1-0.1-0.1-0.2-0.1-0.2c-0.1-0.1-0.1-0.2-0.1-0.2s0-0.1-0.1-0.2c0-0.1-0.1-0.1-0.1-0.2c0-0.1-0.1-0.2-0.1-0.3
			c0-0.1,0-0.1-0.1-0.2c0-0.1,0-0.1-0.1-0.2c-0.1-0.1-0.1-0.3-0.1-0.4c-0.1-0.3-0.2-0.6-0.2-0.9c-0.1-0.6-0.1-1.3,0-1.8
			c0-0.1,0-0.1,0-0.2c0-0.1,0-0.1,0-0.2c0-0.1,0-0.2,0.1-0.3c0-0.1,0.1-0.2,0.1-0.2s0-0.1,0.1-0.2c0-0.1,0-0.2,0.1-0.2
			c0,0,0-0.1,0.1-0.2c0-0.1,0-0.1,0.1-0.2c0.2-0.5,0.5-1,0.9-1.6c0.2-0.3,0.4-0.5,0.6-0.7c0.1-0.1,0.2-0.2,0.3-0.3
			c0.1,0,0.1-0.1,0.2-0.1c0.1,0,0.1-0.1,0.2-0.1c0.1-0.1,0.2-0.1,0.3-0.2c0.1-0.1,0.2-0.1,0.2-0.1c0.1-0.1,0.2-0.1,0.2-0.1
			s0.1,0,0.2-0.1c0.1,0,0.1-0.1,0.2-0.1c0.1,0,0.2-0.1,0.3-0.1c0.1,0,0.1,0,0.2-0.1c0.1,0,0.1,0,0.2-0.1c0.1-0.1,0.3-0.1,0.4-0.1
			c0.3-0.1,0.6-0.2,0.9-0.2c0.6-0.1,1.3-0.1,1.8,0c0.1,0,0.1,0,0.2,0c0.1,0,0.1,0,0.2,0c0.1,0,0.2,0,0.3,0.1c0.1,0,0.2,0.1,0.2,0.1
			s0.1,0,0.2,0.1c0.1,0,0.2,0,0.2,0.1c0,0,0.1,0,0.2,0.1c0.1,0,0.1,0,0.2,0.1c0.5,0.2,1,0.5,1.6,0.9c0.3,0.2,0.5,0.4,0.7,0.6
			c0.1,0.1,0.2,0.2,0.3,0.3c0,0.1,0.1,0.1,0.1,0.2c0,0.1,0.1,0.1,0.1,0.2c0.1,0.1,0.1,0.2,0.2,0.3c0.1,0.1,0.1,0.2,0.1,0.2
			c0.1,0.1,0.1,0.2,0.1,0.2s0,0.1,0.1,0.2c0,0.1,0.1,0.1,0.1,0.2c0,0.1,0.1,0.2,0.1,0.3c0,0.1,0,0.1,0.1,0.2c0,0.1,0,0.1,0.1,0.2
			c0.1,0.1,0.1,0.3,0.1,0.4c0.1,0.3,0.2,0.6,0.2,0.9c0.1,0.6,0.1,1.3,0,1.8c0,0.1,0,0.1,0,0.2c0,0.1,0,0.1,0,0.2
			c0,0.1,0,0.2-0.1,0.3c0,0.1-0.1,0.2-0.1,0.2S86.8,228.5,86.7,228.7z"/>
		<path class="st54" d="M107.3,233.4c-0.2,0-0.3,0-0.3,0s0-0.1-0.1-0.2c-0.1-0.1-0.1-0.3-0.2-0.5c-0.1-0.2-0.2-0.3-0.2-0.5
			c-0.1-0.1-0.1-0.2-0.1-0.2s0-0.1-0.1-0.2c-0.1-0.1-0.2-0.3-0.3-0.4c-0.1-0.2-0.2-0.3-0.3-0.4c-0.1-0.1-0.2-0.2-0.2-0.2
			s0.1-0.1,0.2-0.3c0.1-0.2,0.3-0.4,0.4-0.6c0.3-0.4,0.5-0.8,0.5-0.8s0,0-0.1-0.1c-0.1-0.1-0.1-0.1-0.3-0.2
			c-0.2-0.2-0.5-0.5-0.8-0.7c-0.2-0.1-0.3-0.2-0.5-0.3c-0.2-0.1-0.3-0.2-0.4-0.3c-0.1-0.1-0.2-0.1-0.3-0.2c-0.1,0-0.1-0.1-0.1-0.1
			s-0.3,0.4-0.7,0.8c-0.2,0.2-0.3,0.4-0.4,0.5c-0.1,0.1-0.2,0.2-0.2,0.2s-0.3-0.2-0.7-0.3c-0.2-0.1-0.4-0.1-0.5-0.2
			c-0.1,0-0.2-0.1-0.2-0.1s-0.1,0-0.2-0.1c-0.1,0-0.3-0.1-0.5-0.1c-0.4-0.1-0.7-0.1-0.7-0.1s0-0.1,0-0.3c0-0.2-0.1-0.4-0.1-0.7
			c-0.1-0.5-0.2-1-0.2-1s0,0-0.1,0c-0.1,0-0.2,0-0.3,0c-0.1,0-0.3,0-0.5,0c-0.2,0-0.4,0-0.6,0.1c-0.4,0.1-0.8,0.1-1,0.2
			c-0.1,0-0.3,0.1-0.3,0.1c-0.1,0-0.1,0-0.1,0s0,0.5,0.1,1c0,0.2,0,0.5,0.1,0.7c0,0.2,0,0.3,0,0.3s-0.1,0-0.2,0.1
			c-0.1,0.1-0.3,0.1-0.5,0.2c-0.2,0.1-0.3,0.2-0.5,0.2c-0.1,0.1-0.2,0.1-0.2,0.1s-0.1,0-0.2,0.1c-0.1,0.1-0.3,0.2-0.4,0.3
			c-0.2,0.1-0.3,0.2-0.4,0.3c-0.1,0.1-0.2,0.2-0.2,0.2s-0.1-0.1-0.3-0.2c-0.2-0.1-0.4-0.3-0.6-0.4c-0.4-0.3-0.8-0.5-0.8-0.5
			s0,0-0.1,0.1c-0.1,0.1-0.1,0.1-0.2,0.3c-0.2,0.2-0.5,0.5-0.7,0.8c-0.1,0.2-0.2,0.3-0.3,0.5c-0.1,0.2-0.2,0.3-0.3,0.4
			c-0.1,0.1-0.1,0.2-0.2,0.3c0,0.1-0.1,0.1-0.1,0.1s0.4,0.3,0.8,0.7c0.2,0.2,0.4,0.3,0.5,0.4c0.1,0.1,0.2,0.2,0.2,0.2
			s-0.2,0.3-0.3,0.7c-0.1,0.2-0.1,0.4-0.2,0.5c0,0.1-0.1,0.2-0.1,0.2s0,0.1-0.1,0.2c0,0.1-0.1,0.3-0.1,0.5c-0.1,0.4-0.1,0.7-0.1,0.7
			s-0.1,0-0.3,0c-0.2,0-0.4,0.1-0.7,0.1c-0.5,0.1-1,0.2-1,0.2s0,0,0,0.1c0,0.1,0,0.2,0,0.3c0,0.1,0,0.3,0,0.5c0,0.2,0,0.4,0.1,0.6
			c0.1,0.4,0.1,0.8,0.2,1c0,0.1,0.1,0.3,0.1,0.3c0,0.1,0,0.1,0,0.1s0.5,0,1-0.1c0.2,0,0.5,0,0.7-0.1c0.2,0,0.3,0,0.3,0
			s0,0.1,0.1,0.2c0.1,0.1,0.1,0.3,0.2,0.5c0.1,0.2,0.2,0.3,0.2,0.5c0.1,0.1,0.1,0.2,0.1,0.2s0,0.1,0.1,0.2c0.1,0.1,0.2,0.3,0.3,0.4
			c0.1,0.2,0.2,0.3,0.3,0.4c0.1,0.1,0.2,0.2,0.2,0.2s-0.1,0.1-0.2,0.3c-0.1,0.2-0.3,0.4-0.4,0.6c-0.3,0.4-0.5,0.8-0.5,0.8
			s0,0,0.1,0.1c0.1,0.1,0.1,0.1,0.3,0.2c0.2,0.2,0.5,0.5,0.8,0.7c0.2,0.1,0.3,0.2,0.5,0.3c0.2,0.1,0.3,0.2,0.4,0.3
			c0.1,0.1,0.2,0.1,0.3,0.2c0.1,0,0.1,0.1,0.1,0.1s0.3-0.4,0.7-0.8c0.2-0.2,0.3-0.4,0.4-0.5c0.1-0.1,0.2-0.2,0.2-0.2
			s0.3,0.2,0.7,0.3c0.2,0.1,0.4,0.1,0.5,0.2c0.1,0,0.2,0.1,0.2,0.1s0.1,0,0.2,0.1c0.1,0,0.3,0.1,0.5,0.1c0.4,0.1,0.7,0.1,0.7,0.1
			s0,0.1,0,0.3c0,0.2,0.1,0.4,0.1,0.7c0.1,0.5,0.2,1,0.2,1s0,0,0.1,0c0.1,0,0.2,0,0.3,0c0.1,0,0.3,0,0.5,0c0.2,0,0.4,0,0.6-0.1
			c0.4-0.1,0.8-0.1,1-0.2c0.1,0,0.3-0.1,0.3-0.1c0.1,0,0.1,0,0.1,0s0-0.5-0.1-1c0-0.2,0-0.5-0.1-0.7c0-0.2,0-0.3,0-0.3
			s0.1,0,0.2-0.1c0.1-0.1,0.3-0.1,0.5-0.2c0.2-0.1,0.3-0.2,0.5-0.2c0.1-0.1,0.2-0.1,0.2-0.1s0.1,0,0.2-0.1c0.1-0.1,0.3-0.2,0.4-0.3
			c0.2-0.1,0.3-0.2,0.4-0.3c0.1-0.1,0.2-0.2,0.2-0.2s0.1,0.1,0.3,0.2c0.2,0.1,0.4,0.3,0.6,0.4c0.4,0.3,0.8,0.5,0.8,0.5s0,0,0.1-0.1
			c0.1-0.1,0.1-0.1,0.2-0.3c0.2-0.2,0.5-0.5,0.7-0.8c0.1-0.2,0.2-0.3,0.3-0.5c0.1-0.2,0.2-0.3,0.3-0.4c0.1-0.1,0.1-0.2,0.2-0.3
			c0-0.1,0.1-0.1,0.1-0.1s-0.4-0.3-0.8-0.7c-0.2-0.2-0.4-0.3-0.5-0.4c-0.1-0.1-0.2-0.2-0.2-0.2s0.2-0.3,0.3-0.7
			c0.1-0.2,0.1-0.4,0.2-0.5c0-0.1,0.1-0.2,0.1-0.2s0-0.1,0.1-0.2c0-0.1,0.1-0.3,0.1-0.5c0.1-0.4,0.1-0.7,0.1-0.7s0.1,0,0.3,0
			c0.2,0,0.4-0.1,0.7-0.1c0.5-0.1,1-0.2,1-0.2s0,0,0-0.1c0-0.1,0-0.2,0-0.3c0-0.1,0-0.3,0-0.5c0-0.2,0-0.4-0.1-0.6
			c-0.1-0.4-0.1-0.8-0.2-1c0-0.1-0.1-0.3-0.1-0.3c0-0.1,0-0.1,0-0.1s-0.5,0-1,0.1C107.8,233.4,107.5,233.4,107.3,233.4z
			 M104.5,237.7c0,0.1,0,0.1-0.1,0.2c0,0,0,0.1,0,0.1c0,0,0,0.1-0.1,0.1c-0.1,0.4-0.4,0.8-0.7,1.2c-0.2,0.2-0.3,0.4-0.5,0.6
			c-0.1,0.1-0.2,0.2-0.3,0.2c0,0-0.1,0.1-0.1,0.1c0,0-0.1,0.1-0.1,0.1c-0.1,0.1-0.2,0.1-0.2,0.2c-0.1,0-0.1,0.1-0.2,0.1
			c-0.1,0.1-0.2,0.1-0.2,0.1s-0.1,0-0.2,0.1c0,0-0.1,0.1-0.2,0.1c-0.1,0-0.2,0.1-0.2,0.1c0,0-0.1,0-0.1,0.1c0,0-0.1,0-0.2,0.1
			c-0.1,0-0.2,0.1-0.3,0.1c-0.2,0.1-0.5,0.1-0.7,0.2c-0.5,0.1-1,0.1-1.4,0c0,0-0.1,0-0.1,0c0,0-0.1,0-0.1,0c-0.1,0-0.1,0-0.2,0
			c-0.1,0-0.2,0-0.2,0s-0.1,0-0.2,0c-0.1,0-0.1,0-0.2-0.1c0,0-0.1,0-0.1,0c0,0-0.1,0-0.1-0.1c-0.4-0.1-0.8-0.4-1.2-0.7
			c-0.2-0.2-0.4-0.3-0.6-0.5c-0.1-0.1-0.2-0.2-0.2-0.3c0,0-0.1-0.1-0.1-0.1c0,0-0.1-0.1-0.1-0.1c-0.1-0.1-0.1-0.2-0.2-0.2
			c0-0.1-0.1-0.1-0.1-0.2c-0.1-0.1-0.1-0.2-0.1-0.2s0-0.1-0.1-0.2c0,0-0.1-0.1-0.1-0.2c0-0.1-0.1-0.2-0.1-0.2c0,0,0-0.1-0.1-0.1
			c0,0,0-0.1-0.1-0.2c0-0.1-0.1-0.2-0.1-0.3c-0.1-0.2-0.1-0.5-0.2-0.7c-0.1-0.5-0.1-1,0-1.4c0,0,0-0.1,0-0.1c0,0,0-0.1,0-0.1
			c0-0.1,0-0.1,0-0.2c0-0.1,0-0.2,0-0.2s0-0.1,0.1-0.2c0-0.1,0-0.1,0.1-0.2c0,0,0-0.1,0-0.1c0,0,0-0.1,0.1-0.1
			c0.1-0.4,0.4-0.8,0.7-1.2c0.2-0.2,0.3-0.4,0.5-0.6c0.1-0.1,0.2-0.2,0.3-0.2c0,0,0.1-0.1,0.1-0.1c0,0,0.1-0.1,0.1-0.1
			c0.1-0.1,0.2-0.1,0.2-0.2c0.1,0,0.1-0.1,0.2-0.1c0.1-0.1,0.2-0.1,0.2-0.1s0.1,0,0.2-0.1c0,0,0.1-0.1,0.2-0.1
			c0.1,0,0.2-0.1,0.2-0.1c0,0,0.1,0,0.1-0.1c0,0,0.1,0,0.2-0.1c0.1,0,0.2-0.1,0.3-0.1c0.2-0.1,0.5-0.1,0.7-0.2c0.5-0.1,1-0.1,1.4,0
			c0,0,0.1,0,0.1,0c0,0,0.1,0,0.1,0c0.1,0,0.1,0,0.2,0c0.1,0,0.2,0,0.2,0s0.1,0,0.2,0.1c0.1,0,0.1,0,0.2,0.1c0,0,0.1,0,0.1,0
			c0,0,0.1,0,0.1,0.1c0.4,0.1,0.8,0.4,1.2,0.7c0.2,0.2,0.4,0.3,0.6,0.5c0.1,0.1,0.2,0.2,0.2,0.3c0,0,0.1,0.1,0.1,0.1
			c0,0,0.1,0.1,0.1,0.1c0.1,0.1,0.1,0.2,0.2,0.2c0,0.1,0.1,0.1,0.1,0.2c0.1,0.1,0.1,0.2,0.1,0.2s0,0.1,0.1,0.2c0,0,0.1,0.1,0.1,0.2
			c0,0.1,0.1,0.2,0.1,0.2c0,0,0,0.1,0.1,0.1c0,0,0,0.1,0.1,0.2c0,0.1,0.1,0.2,0.1,0.3c0.1,0.2,0.1,0.5,0.2,0.7c0.1,0.5,0.1,1,0,1.4
			c0,0,0,0.1,0,0.1c0,0,0,0.1,0,0.1c0,0.1,0,0.1,0,0.2c0,0.1,0,0.2,0,0.2S104.6,237.6,104.5,237.7z"/>
		<path class="st54" d="M99.5,212.4c-0.1,0-0.2,0-0.2,0s0-0.1-0.1-0.1c0-0.1-0.1-0.2-0.1-0.3c-0.1-0.1-0.1-0.2-0.2-0.3
			c0-0.1-0.1-0.1-0.1-0.1s0-0.1-0.1-0.1c0-0.1-0.1-0.2-0.2-0.3c-0.1-0.1-0.2-0.2-0.2-0.3c-0.1-0.1-0.1-0.1-0.1-0.1s0.1-0.1,0.1-0.2
			c0.1-0.1,0.2-0.2,0.3-0.4c0.2-0.3,0.4-0.6,0.4-0.6s0,0-0.1-0.1c0,0-0.1-0.1-0.2-0.2c-0.1-0.1-0.3-0.3-0.5-0.5
			c-0.1-0.1-0.2-0.2-0.3-0.2c-0.1-0.1-0.2-0.1-0.3-0.2c-0.1,0-0.2-0.1-0.2-0.1c0,0-0.1,0-0.1,0s-0.2,0.2-0.4,0.5
			c-0.1,0.1-0.2,0.3-0.3,0.4c-0.1,0.1-0.1,0.2-0.1,0.2s-0.2-0.1-0.5-0.2c-0.1,0-0.2-0.1-0.3-0.1c-0.1,0-0.2,0-0.2,0s-0.1,0-0.2,0
			c-0.1,0-0.2,0-0.3-0.1c-0.2,0-0.5-0.1-0.5-0.1s0-0.1,0-0.2c0-0.1,0-0.3-0.1-0.5c-0.1-0.3-0.1-0.7-0.1-0.7s0,0-0.1,0
			c-0.1,0-0.1,0-0.2,0c-0.1,0-0.2,0-0.3,0c-0.1,0-0.2,0-0.4,0c-0.3,0-0.5,0.1-0.7,0.1c-0.1,0-0.2,0-0.2,0.1c-0.1,0-0.1,0-0.1,0
			s0,0.3,0,0.7c0,0.2,0,0.3,0,0.5c0,0.1,0,0.2,0,0.2s-0.1,0-0.1,0.1c-0.1,0-0.2,0.1-0.3,0.1c-0.1,0.1-0.2,0.1-0.3,0.2
			c-0.1,0-0.1,0.1-0.1,0.1s-0.1,0-0.1,0.1c-0.1,0-0.2,0.1-0.3,0.2c-0.1,0.1-0.2,0.1-0.3,0.2c-0.1,0.1-0.1,0.1-0.1,0.1
			s-0.1-0.1-0.2-0.1c-0.1-0.1-0.2-0.2-0.4-0.3c-0.3-0.2-0.6-0.4-0.6-0.4s0,0-0.1,0.1c0,0-0.1,0.1-0.2,0.2c-0.1,0.1-0.3,0.3-0.5,0.5
			c-0.1,0.1-0.2,0.2-0.2,0.3c-0.1,0.1-0.1,0.2-0.2,0.3c0,0.1-0.1,0.2-0.1,0.2c0,0,0,0.1,0,0.1s0.2,0.2,0.5,0.4
			c0.1,0.1,0.3,0.2,0.4,0.3c0.1,0.1,0.2,0.1,0.2,0.1s-0.1,0.2-0.2,0.5c0,0.1-0.1,0.2-0.1,0.3c0,0.1,0,0.2,0,0.2s0,0.1,0,0.2
			c0,0.1,0,0.2-0.1,0.3c0,0.2-0.1,0.5-0.1,0.5s-0.1,0-0.2,0c-0.1,0-0.3,0-0.5,0.1c-0.3,0.1-0.7,0.1-0.7,0.1s0,0,0,0.1
			c0,0.1,0,0.1,0,0.2c0,0.1,0,0.2,0,0.3c0,0.1,0,0.2,0,0.4c0,0.3,0.1,0.5,0.1,0.7c0,0.1,0,0.2,0.1,0.2c0,0.1,0,0.1,0,0.1
			s0.3,0,0.7,0c0.2,0,0.3,0,0.5,0c0.1,0,0.2,0,0.2,0s0,0.1,0.1,0.1c0,0.1,0.1,0.2,0.1,0.3c0.1,0.1,0.1,0.2,0.2,0.3
			c0,0.1,0.1,0.1,0.1,0.1s0,0.1,0.1,0.1c0,0.1,0.1,0.2,0.2,0.3c0.1,0.1,0.2,0.2,0.2,0.3c0.1,0.1,0.1,0.1,0.1,0.1s-0.1,0.1-0.1,0.2
			c-0.1,0.1-0.2,0.2-0.3,0.4c-0.2,0.3-0.4,0.6-0.4,0.6s0,0,0.1,0.1c0,0,0.1,0.1,0.2,0.2c0.1,0.1,0.3,0.3,0.5,0.5
			c0.1,0.1,0.2,0.2,0.3,0.2c0.1,0.1,0.2,0.1,0.3,0.2c0.1,0,0.2,0.1,0.2,0.1c0,0,0.1,0,0.1,0s0.2-0.2,0.4-0.5
			c0.1-0.1,0.2-0.3,0.3-0.4c0.1-0.1,0.1-0.2,0.1-0.2s0.2,0.1,0.5,0.2c0.1,0,0.2,0.1,0.3,0.1c0.1,0,0.2,0,0.2,0s0.1,0,0.2,0
			c0.1,0,0.2,0,0.3,0.1c0.2,0,0.5,0.1,0.5,0.1s0,0.1,0,0.2c0,0.1,0,0.3,0.1,0.5c0.1,0.3,0.1,0.7,0.1,0.7s0,0,0.1,0
			c0.1,0,0.1,0,0.2,0c0.1,0,0.2,0,0.3,0c0.1,0,0.2,0,0.4,0c0.3,0,0.5-0.1,0.7-0.1c0.1,0,0.2,0,0.2-0.1c0.1,0,0.1,0,0.1,0
			s0-0.3,0-0.7c0-0.2,0-0.3,0-0.5c0-0.1,0-0.2,0-0.2s0.1,0,0.1-0.1c0.1,0,0.2-0.1,0.3-0.1c0.1-0.1,0.2-0.1,0.3-0.2
			c0.1,0,0.1-0.1,0.1-0.1s0.1,0,0.1-0.1c0.1,0,0.2-0.1,0.3-0.2c0.1-0.1,0.2-0.2,0.3-0.2c0.1-0.1,0.1-0.1,0.1-0.1s0.1,0.1,0.2,0.1
			c0.1,0.1,0.2,0.2,0.4,0.3c0.3,0.2,0.6,0.4,0.6,0.4s0,0,0.1-0.1c0,0,0.1-0.1,0.2-0.2c0.1-0.1,0.3-0.3,0.5-0.5
			c0.1-0.1,0.2-0.2,0.2-0.3c0.1-0.1,0.1-0.2,0.2-0.3c0-0.1,0.1-0.2,0.1-0.2c0,0,0-0.1,0-0.1s-0.2-0.2-0.5-0.4
			c-0.1-0.1-0.3-0.2-0.4-0.3c-0.1-0.1-0.2-0.1-0.2-0.1s0.1-0.2,0.2-0.5c0-0.1,0.1-0.2,0.1-0.3c0-0.1,0-0.1,0-0.1s0-0.1,0-0.2
			c0-0.1,0-0.2,0.1-0.3c0-0.2,0.1-0.5,0.1-0.5s0.1,0,0.2,0c0.1,0,0.3,0,0.5-0.1c0.3-0.1,0.7-0.1,0.7-0.1s0,0,0-0.1
			c0-0.1,0-0.1,0-0.2c0-0.1,0-0.2,0-0.3c0-0.1,0-0.2,0-0.4c0-0.3-0.1-0.5-0.1-0.7c0-0.1,0-0.2-0.1-0.2c0-0.1,0-0.1,0-0.1
			s-0.3,0-0.7,0C99.8,212.4,99.6,212.4,99.5,212.4z M97.6,215.3c0,0,0,0.1,0,0.1c0,0,0,0.1,0,0.1c0,0,0,0.1,0,0.1
			c-0.1,0.2-0.3,0.6-0.5,0.8c-0.1,0.1-0.2,0.3-0.3,0.4c-0.1,0.1-0.1,0.1-0.2,0.2c0,0-0.1,0-0.1,0.1c0,0-0.1,0-0.1,0.1
			c-0.1,0-0.1,0.1-0.1,0.1c0,0-0.1,0.1-0.1,0.1c-0.1,0-0.1,0.1-0.1,0.1s0,0-0.1,0.1c0,0-0.1,0-0.1,0.1c0,0-0.1,0.1-0.2,0.1
			c0,0-0.1,0-0.1,0c0,0-0.1,0-0.1,0c-0.1,0-0.1,0-0.2,0.1c-0.2,0-0.3,0.1-0.5,0.1c-0.3,0-0.7,0-0.9,0c0,0-0.1,0-0.1,0
			c0,0-0.1,0-0.1,0c-0.1,0-0.1,0-0.1,0c-0.1,0-0.1,0-0.1,0s0,0-0.1,0c0,0-0.1,0-0.1,0c0,0-0.1,0-0.1,0c0,0-0.1,0-0.1,0
			c-0.2-0.1-0.6-0.3-0.8-0.5c-0.1-0.1-0.3-0.2-0.4-0.3c-0.1-0.1-0.1-0.1-0.2-0.2c0,0,0-0.1-0.1-0.1c0,0,0-0.1-0.1-0.1
			c0-0.1-0.1-0.1-0.1-0.1c0,0-0.1-0.1-0.1-0.1c0-0.1-0.1-0.1-0.1-0.1s0,0-0.1-0.1c0,0,0-0.1-0.1-0.1c0,0-0.1-0.1-0.1-0.2
			c0,0,0-0.1,0-0.1c0,0,0-0.1,0-0.1c0-0.1,0-0.1-0.1-0.2c0-0.2-0.1-0.3-0.1-0.5c0-0.3,0-0.7,0-0.9c0,0,0-0.1,0-0.1c0,0,0-0.1,0-0.1
			c0-0.1,0-0.1,0-0.1c0-0.1,0-0.1,0-0.1s0,0,0-0.1c0,0,0-0.1,0-0.1c0,0,0-0.1,0-0.1c0,0,0-0.1,0-0.1c0.1-0.2,0.3-0.6,0.5-0.8
			c0.1-0.1,0.2-0.3,0.3-0.4c0.1-0.1,0.1-0.1,0.2-0.2c0,0,0.1,0,0.1-0.1c0,0,0.1,0,0.1-0.1c0.1,0,0.1-0.1,0.1-0.1
			c0,0,0.1-0.1,0.1-0.1c0.1,0,0.1-0.1,0.1-0.1s0,0,0.1-0.1c0,0,0.1,0,0.1-0.1c0,0,0.1-0.1,0.2-0.1c0,0,0.1,0,0.1,0c0,0,0.1,0,0.1,0
			c0.1,0,0.1,0,0.2-0.1c0.2,0,0.3-0.1,0.5-0.1c0.3,0,0.7,0,0.9,0c0,0,0.1,0,0.1,0c0,0,0.1,0,0.1,0c0.1,0,0.1,0,0.1,0
			c0.1,0,0.1,0,0.1,0s0,0,0.1,0c0,0,0.1,0,0.1,0c0,0,0.1,0,0.1,0c0,0,0.1,0,0.1,0c0.2,0.1,0.6,0.3,0.8,0.5c0.1,0.1,0.3,0.2,0.4,0.3
			c0.1,0.1,0.1,0.1,0.2,0.2c0,0,0,0.1,0.1,0.1c0,0,0,0.1,0.1,0.1c0,0.1,0.1,0.1,0.1,0.1c0,0,0.1,0.1,0.1,0.1c0,0.1,0.1,0.1,0.1,0.1
			s0,0,0.1,0.1c0,0,0,0.1,0.1,0.1c0,0,0.1,0.1,0.1,0.2c0,0,0,0.1,0,0.1c0,0,0,0.1,0,0.1c0,0.1,0,0.1,0.1,0.2c0,0.2,0.1,0.3,0.1,0.5
			c0,0.3,0,0.7,0,0.9c0,0,0,0.1,0,0.1c0,0,0,0.1,0,0.1c0,0.1,0,0.1,0,0.1c0,0.1,0,0.1,0,0.1S97.6,215.2,97.6,215.3z"/>
	</g>
	<g>
		<g>
			<path class="st54" d="M593.7,170.9c-0.5,1.1-1.5,1.8-2.8,1.8c-1.2,0-2.3-0.7-2.8-1.8c-1.7,0.2-3,2.2-3,4.7v6.2
				c0.7,0.5,1.4,1,2.2,1.3v-6.5c0-0.2,0.2-0.5,0.5-0.5s0.5,0.2,0.5,0.5v6.9c0.8,0.2,1.7,0.4,2.6,0.4c0.9,0,1.8-0.1,2.6-0.4v-6.9
				c0-0.2,0.2-0.5,0.5-0.5s0.5,0.2,0.5,0.5v6.5c0.8-0.3,1.5-0.8,2.2-1.3v-6.2C596.6,173.1,595.3,171.1,593.7,170.9z"/>
			<circle class="st54" cx="590.9" cy="168.7" r="3"/>
		</g>
		<g>
			<g>
				<path class="st54" d="M605,162c-0.5,1.1-1.5,1.8-2.8,1.8s-2.3-0.7-2.8-1.8c-1.7,0.2-3,2.2-3,4.7v6.2c0.7,0.5,1.4,1,2.2,1.3v-6.5
					c0-0.2,0.2-0.5,0.5-0.5s0.5,0.2,0.5,0.5v6.9c0.8,0.2,1.7,0.4,2.6,0.4c0.9,0,1.8-0.1,2.6-0.4v-6.9c0-0.2,0.2-0.5,0.5-0.5
					s0.5,0.2,0.5,0.5v6.5c0.8-0.3,1.5-0.8,2.2-1.3v-6.2C608,164.2,606.7,162.1,605,162z"/>
				<path class="st54" d="M605.3,159.8c0,1.7-1.4,3-3,3c-1.7,0-3-1.4-3-3s1.4-3,3-3C603.9,156.7,605.3,158.1,605.3,159.8z"/>
			</g>
			<g>
				<path class="st54" d="M582.3,162c-0.5,1.1-1.5,1.8-2.8,1.8s-2.3-0.7-2.8-1.8c-1.7,0.2-3,2.2-3,4.7v6.2c0.7,0.5,1.4,1,2.2,1.3
					v-6.5c0-0.2,0.2-0.5,0.5-0.5s0.5,0.2,0.5,0.5v6.9c0.8,0.2,1.7,0.4,2.6,0.4c0.9,0,1.8-0.1,2.6-0.4v-6.9c0-0.2,0.2-0.5,0.5-0.5
					c0.2,0,0.5,0.2,0.5,0.5v6.5c0.8-0.3,1.5-0.8,2.2-1.3v-6.2C585.3,164.2,584,162.1,582.3,162z"/>
				<path class="st54" d="M582.6,159.8c0,1.7-1.4,3-3,3c-1.7,0-3-1.4-3-3s1.4-3,3-3C581.2,156.7,582.6,158.1,582.6,159.8z"/>
			</g>
		</g>
	</g>
	<g>
		<g>
			<path class="st54" d="M364.6,86.9c-1.8,0-3.6-0.4-5.2-1.1c-1.6-0.7-3-1.6-4.3-2.9c-1.2-1.2-2.2-2.7-2.9-4.3
				c-0.7-1.7-1.1-3.4-1.1-5.2s0.4-3.6,1.1-5.2c0.7-1.6,1.6-3,2.9-4.3c1.2-1.2,2.7-2.2,4.3-2.9c1.7-0.7,3.4-1.1,5.2-1.1
				s3.6,0.4,5.2,1.1c1.6,0.7,3,1.6,4.3,2.9c1.2,1.2,2.2,2.7,2.9,4.3c0.7,1.7,1.1,3.4,1.1,5.2s-0.4,3.6-1.1,5.2
				c-0.7,1.6-1.6,3-2.9,4.3c-1.2,1.2-2.7,2.2-4.3,2.9C368.1,86.5,366.4,86.9,364.6,86.9z M364.6,62.4c-6.1,0-11.1,5-11.1,11.1
				c0,6.1,5,11.1,11.1,11.1c6.1,0,11.1-5,11.1-11.1C375.7,67.4,370.7,62.4,364.6,62.4z"/>
		</g>
		<g>
			<path class="st54" d="M364.6,80.4c-1.9,0-3.6-0.7-4.9-2c-1.3-1.3-2-3.1-2-4.9s0.7-3.6,2-4.9c1.3-1.3,3.1-2,4.9-2s3.6,0.7,4.9,2
				c1.3,1.3,2,3.1,2,4.9s-0.7,3.6-2,4.9C368.2,79.7,366.4,80.4,364.6,80.4z M364.6,68.9c-2.6,0-4.6,2.1-4.6,4.6
				c0,2.6,2.1,4.6,4.6,4.6c2.6,0,4.6-2.1,4.6-4.6C369.2,70.9,367.1,68.9,364.6,68.9z"/>
		</g>
		<g>
			<path class="st54" d="M364.6,83.7c-1.4,0-2.7-0.3-4-0.8c-1.2-0.5-2.3-1.2-3.2-2.2c-0.9-0.9-1.7-2-2.2-3.2c-0.5-1.3-0.8-2.6-0.8-4
				c0-1.4,0.3-2.7,0.8-4c0.5-1.2,1.2-2.3,2.2-3.2c0.9-0.9,2-1.7,3.2-2.2c1.3-0.5,2.6-0.8,4-0.8c1.4,0,2.7,0.3,4,0.8
				c1.2,0.5,2.3,1.2,3.2,2.2c0.9,0.9,1.7,2,2.2,3.2c0.5,1.3,0.8,2.6,0.8,4c0,1.4-0.3,2.7-0.8,4c-0.5,1.2-1.2,2.3-2.2,3.2
				c-0.9,0.9-2,1.7-3.2,2.2C367.3,83.4,365.9,83.7,364.6,83.7z M364.6,65.6c-4.3,0-7.9,3.5-7.9,7.9c0,4.3,3.5,7.9,7.9,7.9
				s7.9-3.5,7.9-7.9C372.4,69.2,368.9,65.6,364.6,65.6z"/>
		</g>
		<g>
			<path class="st54" d="M368.1,73.5c0,1.9-1.6,3.5-3.5,3.5c-1.9,0-3.5-1.6-3.5-3.5c0-1.9,1.6-3.5,3.5-3.5
				C366.5,70,368.1,71.6,368.1,73.5z"/>
		</g>
	</g>
	<path class="st54" d="M491.4,258.7c0-3.5-2.7-6.4-5.9-6.4c-3.3,0-5.9,2.9-5.9,6.4c0-3.5-2.7-6.4-5.9-6.4c-3.3,0-5.9,2.9-5.9,6.4
		c0,2.4,1.2,4.5,3,5.6l0,0l0,0c0.3,0.2,0.7,0.4,1,0.5l7.8,3.8l7.8-3.8c0.4-0.1,0.7-0.3,1-0.5l0,0h0
		C490.2,263.1,491.4,261.1,491.4,258.7z"/>
	<path class="st54" d="M527,301.4c-1.8-0.9-4.1-0.2-5,1.7c-0.8,1.6-0.4,3.5,1,4.6l-6.3,12.5c-1.2-0.4-2.6-0.1-3.6,0.8l-11.8-8.3
		c0.2-1.3-0.3-2.8-1.5-3.6c-1.7-1.2-4-0.9-5.2,0.8c-1.1,1.4-1,3.4,0.2,4.7l-8.3,11.2c-1.6-0.7-3.5-0.2-4.5,1.2
		c-1.2,1.7-0.9,4,0.8,5.2c1.7,1.2,4,0.9,5.2-0.8c1.1-1.4,1-3.4-0.2-4.7l8.3-11.2c1.6,0.7,3.5,0.2,4.5-1.2c0,0,0,0,0-0.1l11.5,8
		c-0.7,1.6-0.1,3.5,1.3,4.5c1.7,1.2,4,0.8,5.2-0.9c1.1-1.6,0.8-3.7-0.6-4.9l6.3-12.5c1.7,0.4,3.4-0.4,4.2-1.9
		C529.6,304.5,528.8,302.3,527,301.4z"/>
	<g>
		<g>
			<circle class="st55" cx="210.7" cy="330.3" r="6.6"/>
			<g>
				<path class="st55" d="M210.7,338.7c-4.6,0-8.4-3.8-8.4-8.4c0-4.6,3.8-8.4,8.4-8.4c4.6,0,8.4,3.8,8.4,8.4
					C219.1,335,215.3,338.7,210.7,338.7z M210.7,322.3c-4.4,0-8,3.6-8,8c0,4.4,3.6,8,8,8c4.4,0,8-3.6,8-8
					C218.7,325.9,215.1,322.3,210.7,322.3z"/>
			</g>
		</g>
		<g>
			<circle class="st55" cx="300.4" cy="211.5" r="6.6"/>
			<g>
				<path class="st55" d="M300.4,219.9c-4.6,0-8.4-3.8-8.4-8.4c0-4.6,3.8-8.4,8.4-8.4c4.6,0,8.4,3.8,8.4,8.4
					C308.8,216.1,305,219.9,300.4,219.9z M300.4,203.5c-4.4,0-8,3.6-8,8c0,4.4,3.6,8,8,8c4.4,0,8-3.6,8-8
					C308.4,207.1,304.8,203.5,300.4,203.5z"/>
			</g>
		</g>
		<g>
			<path class="st55" d="M144.5,115.5c0,2.2-1.8,4-4,4c-2.2,0-4-1.8-4-4c0-2.2,1.8-4,4-4C142.8,111.5,144.5,113.3,144.5,115.5z"/>
			<g>
				<path class="st55" d="M140.6,120.5c-2.8,0-5-2.2-5-5c0-2.8,2.2-5,5-5c2.8,0,5,2.2,5,5C145.6,118.2,143.3,120.5,140.6,120.5z
					 M140.6,110.7c-2.6,0-4.8,2.1-4.8,4.8c0,2.6,2.1,4.8,4.8,4.8c2.6,0,4.8-2.1,4.8-4.8C145.3,112.9,143.2,110.7,140.6,110.7z"/>
			</g>
		</g>
		<g>
			<path class="st55" d="M59.5,324c0,2.2-1.8,4-4,4c-2.2,0-4-1.8-4-4c0-2.2,1.8-4,4-4C57.7,320,59.5,321.8,59.5,324z"/>
			<g>
				<path class="st55" d="M55.5,329c-2.8,0-5-2.2-5-5c0-2.8,2.2-5,5-5c2.8,0,5,2.2,5,5C60.5,326.7,58.3,329,55.5,329z M55.5,319.2
					c-2.6,0-4.8,2.1-4.8,4.8c0,2.6,2.1,4.8,4.8,4.8c2.6,0,4.8-2.1,4.8-4.8C60.3,321.3,58.1,319.2,55.5,319.2z"/>
			</g>
		</g>
	</g>
	<g>
		<g>
			<path class="st55" d="M622.5,215.6c2.9,1.5,4,5.1,2.5,8c-1.5,2.9-5.1,4-8,2.5c-2.9-1.5-4-5.1-2.5-8
				C616,215.2,619.6,214.1,622.5,215.6z"/>
			<g>
				<path class="st55" d="M626.4,224.4c-1.9,3.7-6.5,5.1-10.1,3.2c-3.7-1.9-5.1-6.5-3.2-10.1c1.9-3.7,6.5-5.1,10.1-3.2
					C626.9,216.1,628.3,220.7,626.4,224.4z M613.3,217.6c-1.8,3.5-0.5,7.9,3,9.7c3.5,1.8,7.9,0.5,9.7-3c1.8-3.5,0.5-7.9-3-9.7
					C619.5,212.7,615.2,214.1,613.3,217.6z"/>
			</g>
		</g>
		<g>
			<path class="st55" d="M565.2,95c2.9,1.5,4,5.1,2.5,8s-5.1,4-8,2.5c-2.9-1.5-4-5.1-2.5-8C558.6,94.6,562.2,93.5,565.2,95z"/>
			<g>
				<path class="st55" d="M569.1,103.8c-1.9,3.7-6.5,5.1-10.1,3.2c-3.7-1.9-5.1-6.5-3.2-10.1c1.9-3.7,6.5-5.1,10.1-3.2
					C569.6,95.6,571,100.1,569.1,103.8z M556,97c-1.8,3.5-0.5,7.9,3,9.7c3.5,1.8,7.9,0.5,9.7-3c1.8-3.5,0.5-7.9-3-9.7
					C562.2,92.1,557.9,93.5,556,97z"/>
			</g>
		</g>
		<g>
			<path class="st55" d="M421.5,184.4c1.7,0.9,2.4,3.1,1.5,4.8c-0.9,1.7-3.1,2.4-4.8,1.5c-1.7-0.9-2.4-3.1-1.5-4.8
				C417.6,184.2,419.7,183.5,421.5,184.4z"/>
			<g>
				<path class="st55" d="M423.8,189.6c-1.1,2.2-3.9,3-6,1.9c-2.2-1.1-3-3.9-1.9-6c1.1-2.2,3.9-3,6-1.9S425,187.4,423.8,189.6z
					 M416,185.6c-1.1,2.1-0.3,4.7,1.8,5.8c2.1,1.1,4.7,0.3,5.8-1.8c1.1-2.1,0.3-4.7-1.8-5.8C419.7,182.7,417.1,183.5,416,185.6z"/>
			</g>
		</g>
		<g>
			<path class="st55" d="M551.9,338.5c1.7,0.9,2.4,3.1,1.5,4.8c-0.9,1.7-3.1,2.4-4.8,1.5c-1.7-0.9-2.4-3.1-1.5-4.8
				C548.1,338.2,550.2,337.6,551.9,338.5z"/>
			<g>
				<path class="st55" d="M554.3,343.7c-1.1,2.2-3.9,3-6,1.9s-3-3.9-1.9-6c1.1-2.2,3.9-3,6-1.9C554.6,338.8,555.4,341.5,554.3,343.7
					z M546.5,339.6c-1.1,2.1-0.3,4.7,1.8,5.8c2.1,1.1,4.7,0.3,5.8-1.8c1.1-2.1,0.3-4.7-1.8-5.8C550.2,336.7,547.6,337.5,546.5,339.6
					z"/>
			</g>
		</g>
	</g>
</g>
</svg>
