<?xml version="1.0" encoding="utf-8"?>
<!-- Generator: Adobe Illustrator 22.1.0, SVG Export Plug-In . SVG Version: 6.00 Build 0)  -->
<svg version="1.1"
	 id="svg4179" inkscape:version="0.91 r13725" sodipodi:docname="Prime Day logo 2015.svg" xmlns:cc="http://creativecommons.org/ns#" xmlns:dc="http://purl.org/dc/elements/1.1/" xmlns:inkscape="http://www.inkscape.org/namespaces/inkscape" xmlns:rdf="http://www.w3.org/1999/02/22-rdf-syntax-ns#" xmlns:sodipodi="http://sodipodi.sourceforge.net/DTD/sodipodi-0.dtd" xmlns:svg="http://www.w3.org/2000/svg"
	 xmlns="http://www.w3.org/2000/svg" xmlns:xlink="http://www.w3.org/1999/xlink" x="0px" y="0px" viewBox="0 0 747.6 635.9"
	 style="enable-background:new 0 0 747.6 635.9;" xml:space="preserve">
<style type="text/css">
	.st0{fill:#FFFFFF;}
	.st1{fill:#5D8CAB;}
	.st2{fill:#D1D1D1;}
	.st3{fill:#A4A3A3;}
	.st4{fill:#BAE3EE;}
	.st5{fill:#102232;}
	.st6{fill:#DFDEDD;}
	.st7{fill:#DEA690;}
	.st8{fill:#DA5A5A;}
	.st9{fill:#8C2C2D;}
	.st10{fill:#E2E2E2;}
	.st11{fill:#ECBBA5;}
	.st12{fill:#333333;}
	.st13{fill:#4A4A4A;}
	.st14{fill:#E0E3E5;}
	.st15{fill:#C2825B;}
	.st16{fill:#E9B08F;}
	.st17{fill:#DFDFDF;}
	.st18{fill:#963B20;}
	.st19{fill:#2F512D;}
	.st20{fill:#558645;}
	.st21{fill:#908B89;}
	.st22{fill:#949693;}
	.st23{fill:#231B17;}
	.st24{fill:#353535;}
	.st25{fill:#E38964;}
	.st26{fill:#EBEBE9;}
	.st27{fill:#D91F29;}
	.st28{fill:#223C63;}
	.st29{fill:#030303;}
	.st30{fill:#E5976B;}
	.st31{fill:#DE6027;}
	.st32{fill:#427272;}
	.st33{fill:#66B4B0;}
	.st34{fill:#5D1D10;}
	.st35{fill:#845639;}
	.st36{fill:#A15F3D;}
	.st37{fill:#FAF7FA;}
	.st38{fill:#95C9CB;}
	.st39{fill:#477F80;}
	.st40{fill:#686868;}
	.st41{fill:#AAABAB;}
	.st42{fill:#DFCB21;}
	.st43{fill:#D64527;}
	.st44{fill:none;}
	.st45{fill:#3A3A3A;}
	.st46{fill:#4776BA;}
	.st47{fill:#EDEDEE;}
	.st48{fill:#90908F;}
	.st49{fill:#B9B9BA;}
	.st50{fill:#A8DEEE;}
	.st51{fill:#AE2524;}
	.st52{fill:#434343;}
	.st53{fill:none;stroke:#434343;stroke-miterlimit:10;}
	.st54{fill:#FCFDFF;}
	.st55{fill:#E0EBE9;}
</style>
<g>
	<path class="st0" d="M663.2,442.3c-1-1.4-2.1-2.5-2.9-3.6c0.2,1,0.4,2.1,0.6,3.3c-0.5-0.9-1-1.8-1.6-2.6c1.2,3.7,2.2,8,3.3,13.1
		c5.9,14,12.5,35.4,18.6,68c11,58.5,13.1,97.4,13.3,116h4.9c-0.2-18.9-2.4-58-13.4-116.9C678.4,479.9,670.2,456.3,663.2,442.3z"/>
	<path class="st0" d="M663.2,442.4c8.5,10.9,21.8,33.8,37.4,80.9c18.3,55,26.2,93.2,29.6,113.2h4.8c-3.4-20.1-11.3-58.9-29.9-114.8
		c-23.2-70-41.7-88-48.3-92.4c0.9,1.9,1.8,3.9,2.4,5.9C660.5,437.2,661.9,439.6,663.2,442.4z"/>
	<path class="st0" d="M667.6,522.2c0.2-32.1-2.2-54.4-5.2-69.7c-3.9-9.4-7.4-15.4-10.3-19.3c0.4,0.9,0.8,1.9,1,2.9
		c-0.1-0.1-0.2-0.2-0.4-0.3c4.7,12.7,10.2,38,9.9,86.5c-0.3,57.4-5.1,95.2-8.4,114.3h4.9C662.6,616.8,667.4,578.9,667.6,522.2z"/>
	<path class="st1" d="M642.8,636.6c1-9.8,1.6-19.6,1.6-29.6c0-151.9-123.2-275.1-275.1-275.1S94,455,94,607c0,10,0.5,19.8,1.6,29.6
		H642.8z"/>
	<g>
		<g>
			<rect x="348.8" y="605.8" class="st2" width="41.3" height="26"/>
			<polygon class="st3" points="381.5,605.9 348.8,605.9 348.8,631.7 			"/>
		</g>
		<g>
			<rect x="291.2" y="516.2" class="st4" width="156" height="77.9"/>
			<path class="st5" d="M449.3,508.6H289.1c-2.3,0-4.3,1.9-4.3,4.3v92.3c0,2.3,1.9,4.3,4.3,4.3h160.1c2.3,0,4.3-1.9,4.3-4.3v-92.3
				C453.5,510.6,451.6,508.6,449.3,508.6z M444.6,590.8H293.8v-72.9h150.8L444.6,590.8L444.6,590.8z"/>
			<path class="st6" d="M284.9,597.5v7.8c0,2.3,1.9,4.3,4.3,4.3h160.1c2.3,0,4.3-1.9,4.3-4.3v-7.8H284.9z"/>
			<path class="st6" d="M410.8,635.9v-2.1c0-2.3-1.9-4.3-4.3-4.3h-74.6c-2.3,0-4.3,1.9-4.3,4.3v2.1H410.8z"/>
		</g>
	</g>
	<g>
		<path class="st7" d="M342.6,459.1l11.5,19.8l-12.5,5.2l-10.9-18.7c-1.5-2.5-0.4-5.9,2.3-7l3.4-1.4
			C338.7,456.1,341.3,457,342.6,459.1z"/>
		<g>
			<g>
				<path class="st8" d="M392.9,398.7l0.2,31.6c0.1,17.4-11.9,31.7-26.7,31.8c-14.8,0.1-26.9-14.1-27-31.5l-0.2-31.6l-18,0.1
					l0.2,31.6c0.1,27,20.4,48.8,45.1,48.7c24.8-0.1,44.7-22.2,44.6-49.2l-0.2-31.6L392.9,398.7z"/>
			</g>
			<g>
				<path class="st9" d="M334.6,399l0.1,26.8c0.1,10.7,4.6,20.1,11.6,25.8c-4.3-5.6-6.9-12.9-6.9-21l-0.2-31.6H334.6z"/>
				<path class="st9" d="M406.3,398.7l0.1,26.8c0.1,27-19.8,49.1-44.6,49.2c-10.9,0.1-20.9-4.1-28.6-11.1
					c8.3,9.9,20.1,16.1,33.4,15.9c24.8-0.1,44.7-22.2,44.6-49.2l-0.2-31.6L406.3,398.7z"/>
			</g>
			<g>
				
					<rect x="321.2" y="382.8" transform="matrix(1 -5.748455e-03 5.748455e-03 1 -2.242 1.9047)" class="st0" width="18" height="16.3"/>
				
					<rect x="392.9" y="382.4" transform="matrix(1 -5.745499e-03 5.745499e-03 1 -2.2373 2.3152)" class="st0" width="17.9" height="16.3"/>
			</g>
			<g>
				
					<rect x="330.1" y="382.8" transform="matrix(1 -5.750065e-03 5.750065e-03 1 -2.2426 1.9306)" class="st10" width="9" height="16.3"/>
				
					<rect x="401.3" y="382.4" transform="matrix(1 -5.752683e-03 5.752683e-03 1 -2.24 2.3423)" class="st10" width="9.5" height="16.3"/>
			</g>
		</g>
		<path class="st11" d="M353.9,439.7c0-1.9-1.8-3.4-4.1-3.4h-4.2c-2.2,0-4,1.6-4,3.5l0.1,13.4v7.3l0.1,22c0,5,4.9,9.1,10.8,9
			l30.3-0.2c6,0,10.8-4.2,10.7-9.1l-0.1-22v-7.3l-0.1-13.4c0-1.9-1.8-3.4-4.1-3.4h-4.2c-2.2,0-4,1.6-4,3.5v4.3h-0.9v-4.3
			c0-1.9-1.8-3.4-4.1-3.4H372c-2.2,0-4,1.6-4,3.5v4.3H367v-4.3c0-1.9-1.8-3.4-4.1-3.4h-4.2c-2.2,0-4,1.6-4,3.5v4.3h-0.9L353.9,439.7
			z"/>
		<path class="st7" d="M347.4,483.5c-1.9,0-3.7-0.1-5.5-0.2c0.4,4.7,5.1,8.5,10.8,8.5l30.3-0.2c6,0,10.8-4.2,10.7-9.1l-0.1-22v-7
			C388.2,470.5,369.7,483.4,347.4,483.5z"/>
		<polygon class="st12" points="396.1,591 395.8,507.3 339.6,507.7 339.9,591 		"/>
		<polygon class="st13" points="368,591 367.7,507.5 339.3,507.7 339.7,591 		"/>
		
			<rect x="339.4" y="486" transform="matrix(1 -5.744531e-03 5.744531e-03 1 -2.8485 2.1198)" class="st14" width="56.5" height="21.9"/>
		
			<rect x="367.9" y="485.8" transform="matrix(1 -5.744531e-03 5.744531e-03 1 -2.8475 2.2013)" class="st2" width="27.7" height="21.9"/>
		<path class="st12" d="M347.8,497c2.1,0,3.7,1.4,3.8,3.1c0,1.7-1.7,3.1-3.7,3.1c-2.1,0-3.7-1.4-3.8-3.1
			C344.1,498.5,345.7,497.1,347.8,497z"/>
	</g>
	<polygon class="st10" points="292.7,261.5 280.1,253.9 287,249.5 271.7,241.3 279.7,238.8 265.8,227.9 272.7,223.5 254.6,211.1 
		280.4,223.9 273.1,228.1 287.4,239 279.9,242.5 295,250.3 287,253.7 	"/>
	<polygon class="st10" points="310.5,317.7 295.8,318.8 298.8,311.3 281.7,313.4 286.9,306.6 269.3,305.8 272.3,298.3 250.3,298.5 
		278.7,294 275.3,301.8 293.3,302.4 289.2,309.6 306,307.3 301.4,314.7 	"/>
	<polygon class="st10" points="347,234.6 350.4,219.8 340.9,222.5 346.1,205.4 337.3,210.3 339,192.5 329.6,195.3 333.3,173.1 
		323.6,201.6 333.4,198.4 331.4,216.6 340.5,212.8 335.3,229.6 344.6,225.4 	"/>
	<polygon class="st10" points="433.1,259.5 435.3,245 442.2,249.5 443.8,232.5 449.4,238.9 454,222.1 460.9,226.6 465.4,205.4 
		463.7,233.6 456.7,228.7 452.2,245.9 446,240.5 444.5,257.3 438.2,251.4 	"/>
	<polygon class="st10" points="420.5,319.2 430.5,308.6 433.6,316.3 444.7,303.2 445.7,311.6 459,300.4 462.1,308 478,293.1 
		460.3,315.4 457.5,307.4 443.9,318.9 441.8,310.9 431.2,323.9 429.4,315.4 	"/>
	<polygon class="st10" points="401.5,231.7 410.7,220.9 404.6,218.8 415.8,206.7 409.1,206.6 418.9,192.5 412.9,190.4 425.9,173.5 
		406.8,193 413.2,194.8 403,209.2 409.4,210.3 398.3,221.9 405,222.8 	"/>
	<g>
		
			<ellipse transform="matrix(0.1587 -0.9873 0.9873 0.1587 298.5159 645.2001)" class="st10" cx="527.9" cy="147.4" rx="31.5" ry="31.5"/>
		<g>
			<path class="st15" d="M531.8,142.4c0-1.5,0.2-2.8,0.6-4.2h-9.7c0.4,1.2,0.6,2.7,0.6,4.2c0,4.2-1.7,7.8-4.2,9.8h16.2v-0.5
				C533.3,149.7,531.8,146.3,531.8,142.4z"/>
			<path class="st16" d="M535.7,135.2c0,5.3-3.6,11.6-7.8,11.6s-7.8-6.4-7.8-11.6c0-5.3,3.6-9.6,7.8-9.6S535.7,130,535.7,135.2z"/>
			<path class="st17" d="M527.4,151.2c-2.7,0-5.1-0.5-6.9-1.2l5.5,12h2.1l6.4-12h-0.1C532.7,150.7,530.2,151.2,527.4,151.2z"/>
			<path d="M532.8,147.7L532.8,147.7l-4.9,11.4l-5.5-11.4c-6.4,0.6-11.1,6-11.1,12.6v3.7c4.4,4,10.3,6.6,16.7,6.6
				c6.4,0,12.4-2.6,16.7-6.6v-3.7C544.5,153.3,539.8,147.7,532.8,147.7z"/>
			<path class="st18" d="M536.1,130.2c-0.4-1-1-2-1.7-2.7c-0.2-0.2-0.9-0.7-1.5-1.1c-0.2-0.1-0.4-0.2-0.6-0.2c-0.2,0-0.4,0-0.6,0.1
				c-0.1,0-0.2,0.1-0.4,0.2c-0.4,0.1-0.4,0.5-0.2,1c0,0.2,0,0.5,0.1,0.6c0.4,1.8,1.6,2.9,3.1,4.3c1,1,1.5,2,1.7,3.3
				C536.7,134,536.8,131.9,536.1,130.2z"/>
			<path class="st18" d="M529.7,124.5c-1.2-0.1-2.4-0.2-3.7,0.1c-0.2,0-0.4,0.1-0.6,0.2c-1.3,0.7-3.3,1.1-4.2,2.9
				c-0.1,0.1-0.2,0.2-0.4,0.5c-0.5,0.7-1,1.6-1.2,2.4c0,0.2-0.1,0.5-0.1,0.6c-0.4,1.6-0.4,3.2-0.2,4.8c0.6-1.3,1.6-2.4,2.8-3.2
				c2-1.1,4.3-1.2,6.4-2.1c1.2-0.5,2.4-1.2,3.1-2.6c0.1-0.1,0.1-0.4,0.1-0.5c0-0.1,0.1-0.4,0.1-0.5c0-0.1,0-0.4,0-0.5s0-0.4-0.1-0.5
				c-0.2-0.4-0.6-1.6-1.2-1.5C530.2,124.6,530,124.5,529.7,124.5z"/>
			<ellipse class="st16" cx="520" cy="136.2" rx="0.7" ry="2.6"/>
			<path class="st16" d="M536.5,136.2c0,1.5-0.4,2.6-0.7,2.6c-0.4,0-0.7-1.1-0.7-2.6c0-1.5,0.4-2.6,0.7-2.6S536.5,134.9,536.5,136.2
				z"/>
		</g>
	</g>
	<g>
		<ellipse class="st10" cx="167.3" cy="261.9" rx="49" ry="49"/>
		<g>
			<path class="st15" d="M173.5,253.2c0-2.3,0.4-4.4,0.9-6.4h-15.1c0.6,2,0.9,4.2,0.9,6.4c0,6.5-2.6,12.2-6.4,15.2H179v-0.7
				C175.7,264.5,173.5,259.2,173.5,253.2z"/>
			<path class="st16" d="M179.5,242.1c0,8.2-5.4,18-12.1,18s-12.1-9.8-12.1-18s5.4-14.9,12.1-14.9S179.5,233.8,179.5,242.1z"/>
			<path class="st19" d="M166.6,266.8c-4.3,0-8.1-0.7-10.7-2l8.5,18.6h3.3l9.9-18.7h-0.1C174.9,266.1,171,266.8,166.6,266.8z"/>
			<path class="st20" d="M175,260.9h-0.2l-7.5,17.9l-8.5-17.9c-10,1-17.6,9.4-17.6,19.7v5.6c6.9,6.4,16,10.4,26.1,10.4
				c10.2,0,19.4-3.9,26.1-10.4v-5.6C193.5,269.7,185.9,260.9,175,260.9z"/>
			<path class="st21" d="M180,234.2c-0.6-1.5-1.5-2.9-2.7-4c-0.4-0.4-1.3-1.2-2.2-1.7c-0.4-0.1-0.6-0.4-1-0.4
				c-0.4,0-0.6,0.1-0.9,0.1c-0.2,0.1-0.5,0.2-0.6,0.4c-0.5,0.1-0.5,0.7-0.4,1.6c0,0.4,0,0.7,0.1,1.1c0.5,2.9,2.6,4.5,4.7,6.6
				c1.5,1.5,2.2,3.2,2.8,5C181,240.1,181.1,237,180,234.2z"/>
			<path class="st21" d="M154.8,234.2c0.6-1.5,1.5-2.9,2.7-4c0.4-0.4,1.3-1.2,2.2-1.7c0.4-0.1,0.6-0.4,1-0.4s0.6,0.1,0.9,0.1
				c0.2,0.1,0.5,0.2,0.6,0.4c0.5,0.1,0.5,0.7,0.4,1.6c0,0.4,0,0.7-0.1,1.1c-0.5,2.9-2.6,4.5-4.7,6.6c-1.5,1.5-2.2,3.2-2.8,5
				C153.9,240.1,153.7,237,154.8,234.2z"/>
			<path class="st16" d="M156.3,243.6c0,2.2-0.5,3.9-1.1,3.9s-1.1-1.8-1.1-3.9c0-2.1,0.5-3.9,1.1-3.9S156.3,241.4,156.3,243.6z"/>
			<path class="st16" d="M180.6,243.6c0,2.2-0.5,3.9-1.1,3.9s-1.1-1.8-1.1-3.9c0-2.1,0.5-3.9,1.1-3.9
				C180.2,239.7,180.6,241.4,180.6,243.6z"/>
			<path class="st21" d="M172.3,253.7c-0.6-1.1-1.5-1.8-2.7-2.2c-0.5-0.1-1.8-0.5-2,0.2c0,0.1,0,0.2-0.1,0.4c0-0.1,0-0.2-0.1-0.4
				c-0.1-0.7-1.5-0.4-2-0.2c-1.2,0.4-2.1,1.1-2.7,2.2l0,0c0.1-0.1,0.2-0.1,0.2-0.2c0.1-0.1,0.2,0,0.2,0.1c0,0.1,0,0.1,0,0.2
				c0.1-0.1,0.2-0.2,0.4-0.4h0.1c0.2-0.2,0.5-0.5,0.7-0.5c0.1,0,0.1,0,0.1,0.1c0,0.1,0.1,0.4,0.1,0.5l0,0c0-0.1,0.1-0.1,0.2-0.1l0,0
				c0.2-0.2,0.5-0.6,0.9-0.5c0.1,0,0.2,0.2,0.2,0.4c0-0.1,0-0.1,0.1-0.2c0-0.1,0.1-0.2,0.2-0.1l0.9,0.6c0-0.1,0-0.1,0-0.2
				c0,0.1,0,0.1,0,0.2l0.9-0.6c0.1-0.1,0.2,0,0.2,0.1c0,0.1,0,0.1,0.1,0.2c0-0.2,0.1-0.4,0.2-0.4c0.4-0.1,0.6,0.2,0.9,0.5l0,0
				c0.1,0,0.2,0,0.2,0.1l0,0c0-0.1,0-0.4,0.1-0.5c0-0.1,0.1-0.1,0.1-0.1c0.2,0,0.5,0.2,0.7,0.5h0.1c0.1,0.1,0.2,0.2,0.4,0.4
				c0-0.1,0-0.1,0-0.2s0.1-0.2,0.2-0.1C172.2,253.6,172.3,253.7,172.3,253.7C172.4,253.7,172.3,253.7,172.3,253.7z"/>
			<g>
				<path d="M177.8,240.3h-0.5h-6.1h-2.4h-0.5h-1.5h-0.5h-2.4h-6.1h-0.5v1.5h0.4v2.7c0,1.8,1,3.3,2.3,3.3h4.5c1.2,0,2.3-1.5,2.3-3.3
					v-2.7h0.4v-0.5h1.5v0.5h0.4v2.7c0,1.8,1,3.3,2.3,3.3h4.5c1.2,0,2.3-1.5,2.3-3.3v-2.7h0.4l1.2-0.6v-1L177.8,240.3z M165.2,245.9
					c0,0.2-0.2,0.5-0.5,0.5h-5.9c-0.2,0-0.5-0.2-0.5-0.5v-3.7c0-0.2,0.2-0.5,0.5-0.5h5.9c0.2,0,0.5,0.2,0.5,0.5V245.9z M176.4,245.9
					c0,0.2-0.2,0.5-0.5,0.5H170c-0.2,0-0.5-0.2-0.5-0.5v-3.7c0-0.2,0.2-0.5,0.5-0.5h5.9c0.2,0,0.5,0.2,0.5,0.5V245.9z"/>
				<polygon points="155.7,241.1 156.9,241.7 156.9,240.3 155.7,240.1 				"/>
			</g>
		</g>
	</g>
	<g>
		
			<ellipse transform="matrix(0.162 -0.9868 0.9868 0.162 27.7407 327.5346)" class="st10" cx="206.7" cy="147.4" rx="37.8" ry="37.8"/>
		<g>
			<path class="st15" d="M211.5,140.6c0-1.7,0.2-3.4,0.7-4.9h-11.6c0.5,1.6,0.7,3.2,0.7,4.9c0,5-2,9.4-4.9,11.8h19.5v-0.6
				C213.2,149.3,211.5,145.3,211.5,140.6z"/>
			<path class="st16" d="M215.3,132.2c0,6.4-3.4,15.2-8.6,15.2c-5.1,0-8.6-8.6-8.6-14.9c0-6.4,3.3-11.8,8.6-11.8
				C212,120.7,215.3,125.8,215.3,132.2z"/>
			<path class="st0" d="M206.2,151.2c-3.3,0-6.2-0.6-8.2-1.5l6.5,14.3h2.6l7.6-14.5h-0.1C212.6,150.6,209.5,151.2,206.2,151.2z"/>
			<path class="st22" d="M212.7,146.6h-0.1l-5.8,13.7l-6.6-13.7c-7.7,0.7-13.6,7.3-13.6,15.2v4.4c5.3,4.9,12.4,8,20.1,8
				c7.7,0,14.9-3.1,20.1-8v-4.4C226.9,153.4,221,146.6,212.7,146.6z"/>
			<path class="st16" d="M199.1,133.3c0,1.7-0.4,3.1-0.9,3.1c-0.5,0-0.9-1.3-0.9-3.1s0.4-3.1,0.9-3.1
				C198.7,130.2,199.1,131.6,199.1,133.3z"/>
			<path class="st16" d="M216.1,133.3c0,1.7-0.4,3.1-0.9,3.1s-0.9-1.3-0.9-3.1s0.4-3.1,0.9-3.1S216.1,131.6,216.1,133.3z"/>
			<path class="st23" d="M207.7,140.8h-1.8c-1.3,0-2.4,1.1-2.4,2.4v4c0,1.3,1.1,2.4,2.4,2.4h1.8c1.3,0,2.4-1.1,2.4-2.4v-4
				C210,141.9,209,140.8,207.7,140.8z M209.6,145.3c0,0.6-1,1.2-2.1,1.2H206c-1.1,0-2.1-0.5-2.1-1.2v-2c0-0.6,1-1.2,2.1-1.2h1.6
				c1.1,0,2.1,0.5,2.1,1.2V145.3z"/>
			<polygon class="st24" points="200.2,146.6 206.7,160.4 212.4,146.6 213.8,146.6 206.8,162.3 199.1,146.8 			"/>
		</g>
	</g>
	<g>
		
			<ellipse transform="matrix(0.7071 -0.7071 0.7071 0.7071 -24.2297 473.6455)" class="st10" cx="559.6" cy="266.1" rx="53.2" ry="53.2"/>
		<g>
			<path class="st25" d="M566.7,257.5c0-2.4,0.4-4.8,1-7h-16.3c0.6,2.2,1,4.5,1,7c0,7.1-2.8,13.2-7,16.4h27.3v-0.9
				C569.2,269.8,566.7,264,566.7,257.5z"/>
			<path class="st16" d="M572.1,245.9c0,8.9-4.8,21.4-12.1,21.4c-7.2,0-12-12.1-12-21.1c0-8.9,4.7-16.7,12-16.7
				C567.3,229.7,572.1,237,572.1,245.9z"/>
			<path class="st26" d="M559.6,272.5c-4.7,0-5.6-5.8-8.6-7l-10.5,6.1l7.6,14.3l32.3-1.2l-5.1-16.3l-7.2-2.8
				C567.7,266.7,564.3,272.5,559.6,272.5z"/>
			<g>
				<polygon class="st0" points="555.2,275.7 559.2,272.5 551,265.5 550.8,265.9 				"/>
				<polygon class="st0" points="564.1,275.7 560.1,272.5 568.1,265.6 568.2,265.9 				"/>
			</g>
			<polygon class="st27" points="560,278.4 562.4,275.5 559.6,272.5 556.7,275.5 559.2,278.4 556.7,293.7 559.6,293.7 562.7,293.7 
							"/>
			<ellipse class="st16" cx="548.1" cy="247.1" rx="1.2" ry="4.3"/>
			<ellipse class="st16" cx="572.1" cy="247.1" rx="1.2" ry="4.3"/>
			<path class="st28" d="M568.8,265.9c0,0.4,0.1,0.9,0.1,1.2c0,5.6-4,13.4-9.2,13.4c-5.1,0-9.3-7.7-9.3-13.4c0-0.5,0-0.9,0.1-1.3
				c-10.8,1.1-19.1,10.3-19.1,21.3v6.1c7.3,7,17.4,11.3,28.3,11.3c10.9,0,20.9-4.3,28.3-11.3v-6.1
				C588,275.7,580.2,266.4,568.8,265.9z"/>
			<g>
				<path class="st29" d="M559.5,257.3c-0.2-0.9-1.3-1-2.2-0.9c-0.7,0.2-1,0.7-1.5,1.3c-0.5,0.7-1.1,1.2-1.8,1.5c0.4,0,0.7,0,1.1,0
					c0.6-0.1,1.1-0.4,1.7-0.6c0.5-0.2,0.7-0.1,1.2-0.1C559,258.6,559.5,258,559.5,257.3L559.5,257.3z"/>
				<path class="st29" d="M559.8,257.3c0.2-0.9,1.3-1,2.2-0.9c0.7,0.2,1,0.7,1.5,1.3c0.5,0.7,1.1,1.2,1.8,1.5c-0.4,0-0.7,0-1.1,0
					c-0.6-0.1-1.1-0.4-1.7-0.6c-0.5-0.2-0.7-0.1-1.2-0.1C560.3,258.6,559.8,258,559.8,257.3L559.8,257.3z"/>
			</g>
			<path class="st29" d="M570.1,237c-0.1-0.4,0.4-0.6,0.5-0.4c0.2,0.4,0.6,0.9,0.9,1.2c-0.6-2.1-1.8-3.9-3.6-5.4
				c-0.4-0.2,0.1-0.7,0.5-0.5c0.1,0,0.2,0.1,0.2,0.1c-1-1.6-2.6-2.6-4.4-2.8c-0.2,0-0.5-0.5-0.1-0.6c0.5-0.2,1-0.4,1.6-0.6
				c-4.3-1.2-8.9-0.2-12.5,2.6c-0.2,0.1-0.5-0.1-0.2-0.2c0.4-0.4,0.7-0.9,1.1-1.2c-2.4,1.1-4.2,3.2-4.8,5.8c0,0.2-0.4,0.1-0.4-0.1
				c0.1-0.6,0.2-1.2,0.5-1.8c-1.2,2.2-1.6,4.7-1.1,7.1c0,0.1-0.1,0.4-0.2,0.2c-0.2-0.2-0.5-0.4-0.7-0.6c1.5,3.4,0.2,7.5,1.3,11
				c0.5-2.3,0.7-4.7,0.4-7c-0.4-2.6,1.1-4.3,2.4-6.5c0.5-0.7,1.3-3.2,2.8-2.2c1.3,0.9,2.2,1.5,3.9,1.1c0.7-0.1,1.6-0.4,2.3-0.4
				c2.1,0.1,2.6,1.6,4.2,2.6c1.8,1.1,3.7,1.3,5.1,3.1c1.1,1.2,1.7,3.1,1.7,4.7c0.1,2.2-0.2,2.4,0.2,4.5
				C573.3,245.4,572.6,241.9,570.1,237z"/>
		</g>
	</g>
	<g>
		<ellipse class="st10" cx="440.8" cy="76.3" rx="38.5" ry="38.5"/>
		<g>
			<path class="st16" d="M432.3,62.7c0,1.7-0.4,3.1-0.9,3.1c-0.5,0-0.9-1.3-0.9-3.1s0.4-3.1,0.9-3.1S432.3,61,432.3,62.7z"/>
			<g>
				<path class="st30" d="M445.8,69.2c0-1.8,0.2-3.4,0.7-5h-11.8c0.5,1.6,0.7,3.3,0.7,5c0,5.1-2.1,9.6-5,11.9h19.7v-0.6
					C447.5,78,445.8,73.9,445.8,69.2z"/>
				<path class="st16" d="M450.6,60.5c0,6.5-4.3,15.2-9.6,15.2c-5.3,0-9.6-8.7-9.6-15.2s4.3-11.6,9.6-11.6
					C446.3,48.9,450.6,54,450.6,60.5z"/>
				<path class="st31" d="M441.2,79.5c-3.3,0-6.4-0.6-8.3-1.6l-3.7,23.1l11.8-4.8l7.7-14.7l1.1-3.7
					C447.5,78.9,444.6,79.5,441.2,79.5z"/>
				<path class="st32" d="M447.4,76.4c0,0.2,0,0.6,0,0.9c0,4-12.2,21.9-15.9,21.9c-3.7,0,2.6-17.8,2.6-21.9c0-0.4,0-0.6,0-1
					c-7.8,0.7-13.8,7.5-13.8,15.4v4.5c5.4,5,12.5,8.1,20.5,8.1c8,0,15.1-3.1,20.5-8.1v-4.4C461.2,83.5,455.6,76.7,447.4,76.4z"/>
				<path class="st33" d="M454.4,91.4c0,0.6-0.5,1-1,1h-5.8c-0.6,0-1-0.5-1-1l0,0c0-0.6,0.5-1,1-1h5.8
					C454,90.4,454.4,90.9,454.4,91.4L454.4,91.4z"/>
				<path class="st34" d="M449.2,75.2c1.3-5.6,6-13.4,0.9-18.4c-0.1,0.2,0,1.6,0,1.6c0,0.4,0.1,0.6,0.1,1c0,0.9,0,1.8,0,2.7
					c-0.1,1.5-0.4,3.1-0.9,4.5c-1,3.3-2.3,6.5-3.7,9.7c-1.3,3.3-2.7,6.9-2.6,10.5c0.1,3.3,1.7,6.2,3.9,8.5c-0.1-0.6-0.2-1.2-0.2-1.8
					c0-0.4,0.5-0.4,0.6-0.1c1.2,2.1,3.2,3.6,5.5,4.2c-1.8-2.7-3.7-5.8-3.1-9.2c0-0.2,0.5-0.2,0.6-0.1c0.6,1.2,1.5,2.4,2.4,3.4
					C449.9,86.7,447.9,81,449.2,75.2z"/>
				<path class="st16" d="M451.4,61.7c0,1.7-0.4,3.1-0.9,3.1c-0.5,0-0.9-1.3-0.9-3.1c0-1.7,0.4-3.1,0.9-3.1
					C451.1,58.6,451.4,60,451.4,61.7z"/>
				<path class="st34" d="M451.2,60.6c0-0.2,0-0.5,0-0.7v-0.1c-0.1-4.2-2.1-8.5-6.1-10.5c-2.4-1.2-5.6-1.6-8-0.2
					c-1.1,0.6-2.4,1.8-3.1,3.1c-1.3,1.2-2.4,2.8-2.8,4.8c-0.5,2.2,0,4.2,0.2,6.2c0.1-0.2,0.2-0.5,0.4-0.7s0.2-0.6,0.5-0.7h0.1
					c0.5-0.5,1-1,1.3-1.5c0.7-1,1.1-2.1,1.3-3.2c2.6,1.5,6.7,1.7,9.2,1.7s5.4,0.1,6.7,2.1C451.2,60.8,451.2,60.6,451.2,60.6z"/>
			</g>
		</g>
	</g>
	<g>
		
			<ellipse transform="matrix(0.2057 -0.9786 0.9786 0.2057 174.3955 367.4319)" class="st10" cx="313.5" cy="76.3" rx="44.3" ry="44.3"/>
		<g>
			<path class="st35" d="M319.5,67.2c0-2.2,0.2-4.3,0.9-6.2h-14.6c0.5,2,0.9,4,0.9,6.2c0,6.4-2.4,11.9-6.2,14.7h24.4v-0.7
				C321.6,78.1,319.5,73,319.5,67.2z"/>
			<path class="st36" d="M323.8,58c0,6.7-4.3,16-10.8,16s-10.8-9.1-10.8-15.8s4.2-12.5,10.8-12.5C319.5,45.9,323.8,51.3,323.8,58z"
				/>
			<path class="st37" d="M312.4,80.4c-4.2,0-7.8-0.7-10.4-1.8l8.2,18h3.2l9.6-18.1h-0.1C320.5,79.7,316.7,80.4,312.4,80.4z"/>
			<path class="st38" d="M321,74.7h-0.2L313.5,92l-8.2-17.3c-9.7,1-17.1,9.2-17.1,19.1v5.5c6.6,6.2,15.6,10,25.4,10
				c9.8,0,18.7-3.8,25.4-10v-5.5C338.9,83.3,331.5,74.7,321,74.7z"/>
			<g>
				<path class="st36" d="M303.5,59.4c0,2.1-0.5,3.8-1.1,3.8s-1.1-1.7-1.1-3.8c0-2.1,0.5-3.8,1.1-3.8S303.5,57.3,303.5,59.4z"/>
				<path class="st36" d="M324.7,59.4c0,2.1-0.5,3.8-1.1,3.8s-1.1-1.7-1.1-3.8c0-2.1,0.5-3.8,1.1-3.8S324.7,57.3,324.7,59.4z"/>
			</g>
			<polygon class="st39" points="305.3,74.7 313.5,92 320.8,74.7 325.3,74.7 321.7,80.8 318.7,81.3 320.3,83.4 313.5,94.4 
				306.7,83.8 307.8,81.3 304.7,80.8 301,75.1 			"/>
			<path d="M328,65.3c-0.1-0.1-0.1-0.4,0-0.5c1.5-1,2.3-3.1,1.8-4.9c-0.5-2-1.6-3.4-3.1-4.5c-0.1-0.1-0.1-0.2-0.1-0.4
				c0.9-4.4-2.6-8.1-6.5-6.9c-0.1,0-0.2,0-0.2-0.1c-0.7-4.3-5.3-4.2-8.2-3.8c-0.1,0-0.1-0.1,0-0.1l0,0c-2.8-2-6.2,0.1-6.4,3.9
				c0,0.1-0.1,0.4-0.2,0.2c-1.5-0.1-2.7,0.7-3.6,2.1c-1,1.3-2.4,4-0.5,5.3c0.2,0.1,0.2,0.5,0,0.6c-3.1,1.8-3.3,6.2-0.6,8.6
				c0.2,0.2-0.1,0.7-0.4,0.5c-1.6-0.7-2,2.6-2,3.6c0.1,1.7,1.3,3.7,3.1,2.7c0.2-0.1,0.5,0.1,0.4,0.5c-1.2,2.6,2.7,2.9,3.6,1.1
				c0.6-1.3,0.4-2.7-0.6-3.6c-0.2-0.2,0-0.7,0.2-0.6c1.1-1.1,1.2-1.8,0.2-2.3c-0.1-0.1-0.2-0.4-0.1-0.5c0.9-1.5,0.4-3.4-1.1-4
				c-0.1-0.1-0.2-0.4-0.1-0.5c1.5-1.2,2-3.3,1.2-5.3c0-0.1,0-0.4,0.1-0.4c1.2-1,1.7-2.7,1.2-4.3c-0.1-0.2,0.1-0.5,0.4-0.4
				c1.1,0.1,2-0.5,2.4-1.5c0.1-0.4,0.7,0,0.5,0.4c0,0.1-0.1,0.1-0.1,0.2c1,2.3,3.1,4,5.4,4.2c1.5,0,2.6-0.4,3.8-1
				c0.6-0.4,1.2-0.5,1.8-0.6c0.2,0,0.2,0.2,0.2,0.4l-0.1,0.5c0,0.2-0.4,0.2-0.4,0c0-0.1-0.4-0.1-0.9,0c-0.2,1.7-0.5,3.3,0.5,4.9
				c0.6,0.9,1.2,1.3,2,1.8l0,0c0.2-0.1,0.5,0.1,0.5,0.4c0.1,0.1,0,0.2,0,0.2s0,0-0.1,0l0,0c-1.6,0.9-1.6,2.9-0.1,3.9
				c0.2,0.1,0.1,0.5-0.1,0.6c-1.7,0.6-2.2,3.1-0.6,4.3c0.2,0.2,0.1,0.6-0.1,0.6c-1.5,0.1-0.2,2.3,0.4,2.7c0.6,0.4,1.3,0.6,2.1,0.2
				c1-0.4,1.2-1,1.7-2c0-0.1,0.1-0.1,0.1-0.1c1.2-0.4,2.6-1,3.2-2.3C329.3,67.6,329.2,66,328,65.3z"/>
			<path d="M317.5,56.9c-1.5,0-2.7,0.9-3.3,2.2c-0.4-0.4-0.7-0.5-1.2-0.5s-0.9,0.2-1.2,0.5c-0.5-1.2-1.8-2.2-3.3-2.2
				c-2,0-3.6,1.6-3.6,3.6c0,2,1.6,3.6,3.6,3.6c2,0,3.6-1.6,3.6-3.6c0-0.4-0.1-0.7-0.2-1.1c0.1,0,0.1-0.1,0.2-0.1
				c0.2-0.2,0.6-0.4,1-0.4s0.6,0.1,1,0.4c0.1,0,0.1,0.1,0.2,0.1c-0.1,0.4-0.1,0.7-0.1,1.1c0,2,1.6,3.6,3.6,3.6s3.6-1.6,3.6-3.6
				C321,58.5,319.4,56.9,317.5,56.9z M308.5,63.4c-1.6,0-2.9-1.3-2.9-2.9s1.3-2.9,2.9-2.9c1.6,0,2.9,1.3,2.9,2.9
				S310.1,63.4,308.5,63.4z M317.5,63.4c-1.6,0-2.9-1.3-2.9-2.9s1.3-2.9,2.9-2.9c1.6,0,2.9,1.3,2.9,2.9S319,63.4,317.5,63.4z"/>
			<g>
				<g>
					<rect x="322.1" y="93.4" class="st37" width="9.2" height="6.2"/>
					<g>
						<rect x="322.8" y="93.9" class="st40" width="2.6" height="2.8"/>
						<rect x="325.9" y="94.5" class="st40" width="4.7" height="0.6"/>
						<rect x="325.9" y="95.6" class="st40" width="4.7" height="0.6"/>
						<g>
							<rect x="322.8" y="97.2" class="st40" width="7.6" height="0.4"/>
							<rect x="322.8" y="97.8" class="st40" width="7.6" height="0.4"/>
							<rect x="322.8" y="98.4" class="st40" width="7.6" height="0.4"/>
						</g>
					</g>
				</g>
				<rect x="325.2" y="92" class="st41" width="3.1" height="1.5"/>
			</g>
		</g>
	</g>
	<g>
		<polygon class="st0" points="242.2,332.5 242.2,326.2 248.4,326.2 248.4,324.5 242.2,324.5 242.2,318.3 240.4,318.3 240.4,324.5 
			234.3,324.5 234.3,326.2 240.4,326.2 240.4,332.5 		"/>
		<polygon class="st0" points="128.4,423.2 128.4,419.1 132.4,419.1 132.4,417.9 128.4,417.9 128.4,413.9 127.2,413.9 127.2,417.9 
			123.2,417.9 123.2,419.1 127.2,419.1 127.2,423.2 		"/>
		<polygon class="st0" points="83.9,256.2 83.9,253.4 86.6,253.4 86.6,252.7 83.9,252.7 83.9,250.1 83.2,250.1 83.2,252.7 
			80.4,252.7 80.4,253.4 83.2,253.4 83.2,256.2 		"/>
		<polygon class="st0" points="50.6,213.4 50.6,210.7 53.3,210.7 53.3,210 50.6,210 50.6,207.3 49.9,207.3 49.9,210 47.2,210 
			47.2,210.7 49.9,210.7 49.9,213.4 		"/>
		<polygon class="st0" points="191.9,201.6 191.9,196.7 196.8,196.7 196.8,195.4 191.9,195.4 191.9,190.5 190.6,190.5 190.6,195.4 
			185.7,195.4 185.7,196.7 190.6,196.7 190.6,201.6 		"/>
		<polygon class="st0" points="258.7,384.6 258.7,382 261.3,382 261.3,381.3 258.7,381.3 258.7,378.6 258,378.6 258,381.3 
			255.4,381.3 255.4,382 258,382 258,384.6 		"/>
		<polygon class="st0" points="266.5,265.9 266.5,261 271.3,261 271.3,259.7 266.5,259.7 266.5,254.8 265.1,254.8 265.1,259.7 
			260.3,259.7 260.3,261 265.1,261 265.1,265.9 		"/>
		<polygon class="st0" points="54,405.2 54,400.4 58.8,400.4 58.8,399.1 54,399.1 54,394.2 52.7,394.2 52.7,399.1 47.8,399.1 
			47.8,400.4 52.7,400.4 52.7,405.2 		"/>
	</g>
	<polygon class="st0" points="557,365.8 562.6,365.8 562.6,371.4 564.1,371.4 564.1,365.8 569.5,365.8 569.5,364.4 564.1,364.4 
		564.1,358.9 562.6,358.9 562.6,364.4 557,364.4 	"/>
	<polygon class="st0" points="470.7,292.9 474.3,292.9 474.3,296.5 475.2,296.5 475.2,292.9 478.8,292.9 478.8,292 475.2,292 
		475.2,288.4 474.3,288.4 474.3,292 470.7,292 	"/>
	<polygon class="st0" points="633.7,213 638.5,213 638.5,217.6 639.8,217.6 639.8,213 644.6,213 644.6,211.7 639.8,211.7 639.8,207 
		638.5,207 638.5,211.7 633.7,211.7 	"/>
	<polygon class="st0" points="504.7,408.2 507,408.2 507,410.6 507.7,410.6 507.7,408.2 510,408.2 510,407.6 507.7,407.6 
		507.7,405.3 507,405.3 507,407.6 504.7,407.6 	"/>
	<polygon class="st0" points="322.7,281.9 327,281.9 327,286.2 328.2,286.2 328.2,281.9 332.5,281.9 332.5,280.7 328.2,280.7 
		328.2,276.4 327,276.4 327,280.7 322.7,280.7 	"/>
	<polygon class="st0" points="486.5,215.1 490.8,215.1 490.8,219.4 492,219.4 492,215.1 496.3,215.1 496.3,213.8 492,213.8 
		492,209.5 490.8,209.5 490.8,213.8 486.5,213.8 	"/>
	<g>
		<polygon class="st0" points="387.7,198.2 380.5,198.2 380.5,191 378.5,191 378.5,198.2 371.4,198.2 371.4,200.1 378.5,200.1 
			378.5,207.3 380.5,207.3 380.5,200.1 387.7,200.1 		"/>
		<polygon class="st0" points="492.4,329.7 487.7,329.7 487.7,325.1 486.5,325.1 486.5,329.7 481.8,329.7 481.8,330.9 486.5,330.9 
			486.5,335.7 487.7,335.7 487.7,330.9 492.4,330.9 		"/>
		<polygon class="st0" points="299.5,381.1 296.4,381.1 296.4,377.9 295.6,377.9 295.6,381.1 292.4,381.1 292.4,381.9 295.6,381.9 
			295.6,385 296.4,385 296.4,381.9 299.5,381.9 		"/>
		<polygon class="st0" points="250.2,419.5 247,419.5 247,416.3 246.2,416.3 246.2,419.5 243,419.5 243,420.3 246.2,420.3 
			246.2,423.5 247,423.5 247,420.3 250.2,420.3 		"/>
		<polygon class="st0" points="236.4,256.3 230.9,256.3 230.9,250.7 229.3,250.7 229.3,256.3 223.6,256.3 223.6,257.8 229.3,257.8 
			229.3,263.5 230.9,263.5 230.9,257.8 236.4,257.8 		"/>
		<polygon class="st0" points="447.9,179 444.9,179 444.9,176 444.1,176 444.1,179 441,179 441,179.8 444.1,179.8 444.1,182.9 
			444.9,182.9 444.9,179.8 447.9,179.8 		"/>
		<polygon class="st0" points="310.8,170.1 305.1,170.1 305.1,164.4 303.7,164.4 303.7,170.1 298,170.1 298,171.7 303.7,171.7 
			303.7,177.2 305.1,177.2 305.1,171.7 310.8,171.7 		"/>
		<polygon class="st0" points="471.8,415.6 466.1,415.6 466.1,410 464.6,410 464.6,415.6 459,415.6 459,417.2 464.6,417.2 
			464.6,422.7 466.1,422.7 466.1,417.2 471.8,417.2 		"/>
	</g>
	<g>
		<g>
			<path class="st42" d="M641.4,424.9l-2.3-4.2l-1.9-7.4l-0.1-4l1-1.4l1.2-1.2l4.4-0.1l5.4,3.1l2.9,1.7l-1.2,0.7l3,4.1
				c0,0,2.6,3.5,2.6,3.8c0,0.2-0.1,1.8-0.1,1.8l-3.6-1.4l-1.4-1.2l2.3,4.3l1.5,4.5l0.3,1.4l-2.7-0.9l-2.9-3.4l-1-0.9l-1.4-1.2l1,4.2
				l-3-2l-2.8-2.8L641.4,424.9z"/>
			<path class="st43" d="M651.6,412.4c1.3,0.3,2.5,0.8,3.6,1.7c-1-2.2-2.9-3.8-5-4.9c-1.9-1.2-4-2.4-6.2-3c-2.2-0.6-4.9-0.5-6.6,1.2
				c-0.9,0.9-1.6,2.3-1.5,3.6c-0.1,0.6,0,1.3,0.1,1.8c-0.1,1,0.3,2.2,0.6,3.1c0.5,1.8,1.3,3.5,2,5.1c1.6,3.3,3.5,6.2,5.8,8.9
				c-0.5-1.9-0.9-3.8-1.5-5.7c0-0.1,0.1-0.2,0.2-0.1c3.1,3.3,6.5,6.3,10,9.2c-0.6-2.1-1.5-4.1-2.7-5.9c-0.1-0.1,0.1-0.2,0.2-0.1
				c3.8,3.7,7.6,7.3,10.1,12c-0.8-5.9-2.9-11.5-6.1-16.6c-0.1-0.1,0.1-0.2,0.2-0.2c1.9,1.3,3.5,2.7,4.9,4.4
				c-0.3-5.7-3.4-11-8.1-14.2C651.4,412.5,651.4,412.3,651.6,412.4z M649.7,411.3c-0.9-0.3-2-0.3-2.9,0.1c3.8,1.7,6.8,4.9,8.4,8.8
				c0,0.1-0.1,0.2-0.2,0.1c-1.8-1.7-4.1-2.8-6.6-3.3c3.3,3,5.5,7.1,6.1,11.5c0,0.1-0.1,0.2-0.2,0.1c-1.9-3.7-4.8-6.6-8.5-8.4
				c0.3,1.8,0.7,3.5,1,5.2c0,0.1-0.1,0.1-0.2,0.1c-1-1.5-2.2-2.9-3.5-4.2c-0.5-0.5-1.5-1.7-2.2-0.8c-0.6,0.7-0.2,1.7,0.1,2.4
				c0,0.1-0.1,0.2-0.2,0.1c-0.9-1.7-1.6-3.5-2.1-5.4c-0.6-1.8-1-3.7-1.3-5.6c-0.1-1.8,0-3.9,1.8-4.7c1.8-0.8,3.9-0.3,5.7,0.3
				c1.9,0.7,3.6,1.8,4.9,3.3C649.9,411.2,649.8,411.3,649.7,411.3z"/>
			<path class="st44" d="M639.5,407.7c-2,0.9-2,3.1-1.8,5c0.1,0.7,0.2,1.6,0.4,2.3c0-0.3-0.1-0.6-0.1-1c0-0.1,0.1-0.1,0.1,0
				c0.1,0.8,0.2,1.7,0.4,2.5c0.2,0.6,0.4,1.4,0.7,2c0,0.1,0,0.2-0.1,0.2c0.3,1,0.7,2.1,1.2,3c-0.1-0.4,0-0.7,0.2-1
				c0.4-0.5,1-0.7,1.6-0.4c0.9,0.6,1.7,1.6,2.4,2.4c0.6,0.7,1.3,1.6,1.9,2.4c-0.3-1.7-0.6-3.4-0.9-4.9c0-0.1,0.1-0.1,0.1-0.1
				c3.6,1.8,6.5,4.5,8.4,8c-0.8-4.2-2.9-8.1-6.1-10.9c-0.1-0.1,0-0.2,0.1-0.2c2.5,0.3,4.8,1.3,6.7,2.9c-1.6-3.7-4.6-6.7-8.3-8.3
				c-0.1,0-0.1-0.2,0-0.2c0.9-0.4,1.9-0.5,2.9-0.3c-1.3-1.3-2.7-2.2-4.3-2.8C643.3,407.4,641.2,406.9,639.5,407.7z"/>
		</g>
		<path class="st45" d="M642.5,406.6c-0.2-2.1-0.8-4.6-1.8-7.6l-11.2,7.8c2.4,2,4.5,3.5,6.4,4.3L642.5,406.6z"/>
		<g>
			<polygon class="st46" points="608.9,392.9 611.2,408.8 628.5,430.4 625.9,405.5 			"/>
			<polygon class="st46" points="635.3,374.6 649.4,382.4 663.4,406.2 641.1,395 			"/>
		</g>
		<path class="st47" d="M627.3,359.9c13.5,19.6,18,40.2,9.9,45.7c-8.1,5.7-25.7-5.8-39.3-25.4c-13.5-19.6-9.9-45.7-9.9-45.7
			S613.8,340.3,627.3,359.9z"/>
		<path class="st48" d="M621.6,403.7c6.3,3.7,12,4.6,15.6,2c3.7-2.5,4.8-8.2,3.7-15.4L621.6,403.7z"/>
		<g>
			<path class="st49" d="M599.3,359.6c0.1-3.5,3-6.1,6.5-6c3.5,0.1,6.1,3,6,6.5c-0.1,3.5-3,6.1-6.5,6
				C601.8,366,599.2,363.1,599.3,359.6z"/>
			<path class="st50" d="M609.9,356.9c1.7,2.4,1,5.7-1.4,7.3s-5.7,1-7.3-1.4c-1.7-2.4-1-5.7,1.4-7.3S608.2,354.5,609.9,356.9z"/>
		</g>
		<path class="st51" d="M599.1,381.9c1.8,2.5,3.7,4.8,5.5,7l28.5-19.7c-1.4-2.5-2.9-5.1-4.7-7.7L599.1,381.9z"/>
		<g>
			<path class="st52" d="M630.9,402.5c0.3,0.4,0.2,1-0.2,1.4s-1,0.2-1.4-0.2s-0.2-1,0.2-1.4C630,401.9,630.6,402.1,630.9,402.5z"/>
			<path class="st52" d="M634.5,400c0.3,0.4,0.2,1-0.2,1.4s-1,0.2-1.4-0.2c-0.3-0.4-0.2-1,0.2-1.4
				C633.5,399.5,634.2,399.6,634.5,400z"/>
			<path class="st52" d="M638,397.5c0.3,0.4,0.2,1-0.2,1.4c-0.4,0.3-1,0.2-1.4-0.2s-0.2-1,0.2-1.4C637.2,397,637.7,397.1,638,397.5z
				"/>
		</g>
		<path class="st51" d="M604.1,340.5c-8.8-4.4-16.1-6.1-16.1-6.1s-1,7.3,0,17.1L604.1,340.5z"/>
		<polygon class="st46" points="622.4,384.2 622,387.5 645.1,417 625.6,384.9 		"/>
		<path class="st53" d="M631,381.3"/>
		<path class="st53" d="M623.8,386.2"/>
	</g>
	<g>
		<path class="st54" d="M115,133c0.8,0,1.6-0.8,1.6-1.9v-1.9c0-1-0.7-1.9-1.6-1.9h-6.2h-3.4H105c2.2-3.3,2.8-7.8,0.2-11.1
			c-0.6-0.8-1.5-1.5-2.5-1.6c-0.8-0.1-2.1,0-2,0.9c0,4.7-1.5,9.9-6.5,11.6c-0.2,0.1-0.3,0.2-0.3,0.5c-1.6,0.7-2.6,2.5-2.6,4.6l0,0
			v13.9l0,0c0,2.7,1.9,4.9,4.2,4.9h10.2h3.4h6.2c0.8,0,1.6-0.8,1.6-1.9v-1.9c0-1-0.7-1.9-1.6-1.9h-2v-0.4h2c0.8,0,1.6-0.8,1.6-1.9
			v-1.9c0-1-0.7-1.9-1.6-1.9h-2V139h2c0.8,0,1.6-0.8,1.6-1.9v-1.9c0-1-0.7-1.9-1.6-1.9h-2v-0.4h1.8V133z"/>
		<polygon class="st54" points="79.8,127.3 68.4,127.3 68.4,127.4 68.4,139.2 68.4,150.9 79.7,150.9 79.7,150.9 89.7,150.9 
			89.7,139.4 89.7,127.3 		"/>
	</g>
	<g>
		<rect x="227.7" y="496" class="st54" width="45.2" height="1.6"/>
		<rect x="234.6" y="461.5" class="st54" width="1.6" height="45.3"/>
		<rect x="238.7" y="485.5" class="st54" width="4.1" height="9.5"/>
		<rect x="244.1" y="483.3" class="st54" width="4.1" height="11.8"/>
		<rect x="249.7" y="481.4" class="st54" width="4.1" height="13.5"/>
		<rect x="255.1" y="479.8" class="st54" width="4.1" height="15.2"/>
		<rect x="260.7" y="477.7" class="st54" width="4.1" height="17.2"/>
		<rect x="266.1" y="475.3" class="st54" width="4.1" height="19.6"/>
		<path class="st54" d="M262.1,468.4l-3.4,0.5l0.9,1.2c-2,2.3-4.8,4.2-8.1,5.8c-5.6,2.4-11.1,2.6-14.7,1.1
			c2.6,3.8,10.2,4.4,17.6,1.2c3-1.3,5.7-3.2,7.6-5.2l0,0l1.1,1.3l1.2-3.2l1.2-3.2L262.1,468.4z"/>
	</g>
	<g>
		<path class="st54" d="M59,444.5c-0.2,0-0.4,0.1-0.4,0.1s0-0.1-0.1-0.3c-0.1-0.2-0.2-0.4-0.3-0.6c-0.1-0.2-0.2-0.4-0.3-0.6
			c-0.1-0.2-0.1-0.3-0.1-0.3s-0.1-0.1-0.2-0.3c-0.1-0.2-0.2-0.3-0.4-0.5c-0.1-0.2-0.3-0.4-0.4-0.5c-0.1-0.1-0.2-0.2-0.2-0.2
			s0.1-0.1,0.2-0.3c0.1-0.2,0.3-0.5,0.5-0.7c0.4-0.5,0.7-1.2,0.7-1.2s0,0-0.1-0.1c-0.1-0.1-0.2-0.2-0.3-0.3c-0.3-0.3-0.6-0.6-1-0.9
			c-0.2-0.1-0.4-0.3-0.6-0.4c-0.2-0.1-0.4-0.2-0.5-0.3c-0.2-0.1-0.3-0.2-0.4-0.2c-0.1-0.1-0.1-0.1-0.1-0.1s-0.4,0.5-0.8,1
			c-0.2,0.2-0.4,0.5-0.6,0.7c-0.1,0.2-0.2,0.3-0.2,0.3s-0.4-0.2-0.9-0.4c-0.2-0.1-0.4-0.2-0.6-0.2s-0.3-0.1-0.3-0.1s-0.1,0-0.3-0.1
			c-0.2,0-0.4-0.1-0.6-0.1c-0.5-0.1-0.9-0.1-0.9-0.1s0-0.2-0.1-0.4c0-0.2-0.1-0.5-0.1-0.9c-0.1-0.6-0.3-1.4-0.3-1.4s-0.1,0-0.2,0
			c-0.1,0-0.3,0-0.4,0c-0.2,0-0.4,0-0.6,0c-0.2,0-0.5,0-0.7,0.1c-0.5,0.1-1,0.2-1.4,0.3c-0.2,0-0.3,0.1-0.4,0.1c-0.1,0-0.2,0-0.2,0
			s0,0.6,0.1,1.4c0,0.3,0.1,0.6,0.1,0.9c0,0.2,0.1,0.4,0.1,0.4s-0.1,0-0.3,0.1c-0.2,0.1-0.4,0.2-0.6,0.3c-0.2,0.1-0.4,0.2-0.6,0.3
			c-0.2,0.1-0.3,0.1-0.3,0.1s-0.1,0.1-0.3,0.2c-0.2,0.1-0.3,0.2-0.5,0.4c-0.2,0.1-0.4,0.3-0.5,0.4c-0.1,0.1-0.2,0.2-0.2,0.2
			s-0.1-0.1-0.3-0.2c-0.2-0.1-0.5-0.3-0.7-0.5c-0.5-0.4-1.2-0.7-1.2-0.7s0,0-0.1,0.1c-0.1,0.1-0.2,0.2-0.3,0.3
			c-0.3,0.3-0.6,0.6-0.9,1c-0.1,0.2-0.3,0.4-0.4,0.6c-0.1,0.2-0.2,0.4-0.3,0.5c-0.1,0.2-0.2,0.3-0.2,0.4c-0.1,0.1-0.1,0.1-0.1,0.1
			s0.5,0.4,1,0.8c0.2,0.2,0.5,0.4,0.7,0.6c0.2,0.1,0.3,0.2,0.3,0.2s-0.2,0.4-0.4,0.9c-0.1,0.2-0.2,0.4-0.2,0.6s-0.1,0.3-0.1,0.3
			s0,0.1-0.1,0.3c0,0.2-0.1,0.4-0.1,0.6c-0.1,0.5-0.1,0.9-0.1,0.9s-0.2,0-0.4,0.1c-0.2,0-0.5,0.1-0.9,0.1c-0.6,0.1-1.4,0.3-1.4,0.3
			s0,0.1,0,0.2s0,0.3,0,0.4c0,0.2,0,0.4,0,0.6c0,0.2,0,0.5,0.1,0.7c0.1,0.5,0.2,1,0.3,1.4c0,0.2,0.1,0.3,0.1,0.4c0,0.1,0,0.2,0,0.2
			s0.6,0,1.4-0.1c0.3,0,0.6-0.1,0.9-0.1c0.2,0,0.4-0.1,0.4-0.1s0,0.1,0.1,0.3c0.1,0.2,0.2,0.4,0.3,0.6c0.1,0.2,0.2,0.4,0.3,0.6
			c0.1,0.2,0.1,0.3,0.1,0.3s0.1,0.1,0.2,0.3c0.1,0.2,0.2,0.3,0.4,0.5c0.1,0.2,0.3,0.4,0.4,0.5c0.1,0.1,0.2,0.2,0.2,0.2
			s-0.1,0.1-0.2,0.3c-0.1,0.2-0.3,0.5-0.5,0.7c-0.4,0.5-0.7,1.2-0.7,1.2s0,0,0.1,0.1c0.1,0.1,0.2,0.2,0.3,0.3c0.3,0.3,0.6,0.6,1,0.9
			c0.2,0.1,0.4,0.3,0.6,0.4s0.4,0.2,0.5,0.3c0.2,0.1,0.3,0.2,0.4,0.2c0.1,0.1,0.1,0.1,0.1,0.1s0.4-0.5,0.8-1
			c0.2-0.2,0.4-0.5,0.6-0.7c0.1-0.2,0.2-0.3,0.2-0.3s0.4,0.2,0.9,0.4c0.2,0.1,0.4,0.2,0.6,0.2c0.2,0,0.3,0.1,0.3,0.1s0.1,0,0.3,0.1
			c0.2,0,0.4,0.1,0.6,0.1c0.5,0.1,0.9,0.1,0.9,0.1s0,0.2,0.1,0.4c0,0.2,0.1,0.5,0.1,0.9c0.1,0.6,0.3,1.4,0.3,1.4s0.1,0,0.2,0
			c0.1,0,0.3,0,0.4,0c0.2,0,0.4,0,0.6,0s0.5,0,0.7-0.1c0.5-0.1,1-0.2,1.4-0.3c0.2,0,0.3-0.1,0.4-0.1c0.1,0,0.2,0,0.2,0
			s0-0.6-0.1-1.4c0-0.3-0.1-0.6-0.1-0.9c0-0.2-0.1-0.4-0.1-0.4s0.1,0,0.3-0.1c0.2-0.1,0.4-0.2,0.6-0.3c0.2-0.1,0.4-0.2,0.6-0.3
			c0.2-0.1,0.3-0.1,0.3-0.1s0.1-0.1,0.3-0.2c0.2-0.1,0.3-0.2,0.5-0.4c0.2-0.1,0.4-0.3,0.5-0.4c0.1-0.1,0.2-0.2,0.2-0.2
			s0.1,0.1,0.3,0.2c0.2,0.1,0.5,0.3,0.7,0.5c0.5,0.4,1.2,0.7,1.2,0.7s0,0,0.1-0.1c0.1-0.1,0.2-0.2,0.3-0.3c0.3-0.3,0.6-0.6,0.9-1
			c0.1-0.2,0.3-0.4,0.4-0.6c0.1-0.2,0.2-0.4,0.3-0.5c0.1-0.2,0.2-0.3,0.2-0.4c0.1-0.1,0.1-0.1,0.1-0.1s-0.5-0.4-1-0.8
			c-0.2-0.2-0.5-0.4-0.7-0.6c-0.2-0.1-0.3-0.2-0.3-0.2s0.2-0.4,0.4-0.9c0.1-0.2,0.2-0.4,0.2-0.6c0-0.2,0.1-0.3,0.1-0.3
			s0-0.1,0.1-0.3c0-0.2,0.1-0.4,0.1-0.6c0.1-0.5,0.1-0.9,0.1-0.9s0.2,0,0.4-0.1c0.2,0,0.5-0.1,0.9-0.1c0.6-0.1,1.4-0.3,1.4-0.3
			s0-0.1,0-0.2s0-0.3,0-0.4c0-0.2,0-0.4,0-0.6s0-0.5-0.1-0.7c-0.1-0.5-0.2-1-0.3-1.4c0-0.2-0.1-0.3-0.1-0.4s0-0.2,0-0.2
			s-0.6,0-1.4,0.1C59.5,444.5,59.2,444.5,59,444.5z M55.2,450.2c0,0.1,0,0.2-0.1,0.2c0,0,0,0.1-0.1,0.2c0,0.1,0,0.1-0.1,0.2
			c-0.2,0.5-0.5,1-0.9,1.7c-0.2,0.3-0.4,0.5-0.6,0.7c-0.1,0.1-0.2,0.2-0.3,0.3c-0.1,0-0.1,0.1-0.2,0.1c-0.1,0-0.1,0.1-0.2,0.1
			c-0.1,0.1-0.2,0.1-0.3,0.2c-0.1,0.1-0.2,0.1-0.2,0.1c-0.1,0.1-0.2,0.1-0.2,0.1s-0.1,0-0.2,0.1c-0.1,0-0.1,0.1-0.2,0.1
			c-0.1,0-0.2,0.1-0.3,0.1c-0.1,0-0.1,0-0.2,0.1c-0.1,0-0.1,0-0.2,0.1c-0.1,0.1-0.3,0.1-0.4,0.1c-0.3,0.1-0.6,0.2-0.9,0.2
			c-0.6,0.1-1.4,0.1-1.9,0c-0.1,0-0.1,0-0.2,0s-0.1,0-0.2,0c-0.1,0-0.2,0-0.3-0.1c-0.1,0-0.2-0.1-0.2-0.1s-0.1,0-0.2-0.1
			c-0.1,0-0.2,0-0.2-0.1c0,0-0.1,0-0.2-0.1c-0.1,0-0.1,0-0.2-0.1c-0.5-0.2-1-0.5-1.7-0.9c-0.3-0.2-0.5-0.4-0.7-0.6
			c-0.1-0.1-0.2-0.2-0.3-0.3c0-0.1-0.1-0.1-0.1-0.2c0-0.1-0.1-0.1-0.1-0.2c-0.1-0.1-0.1-0.2-0.2-0.3c-0.1-0.1-0.1-0.2-0.1-0.2
			c-0.1-0.1-0.1-0.2-0.1-0.2s0-0.1-0.1-0.2c0-0.1-0.1-0.1-0.1-0.2c0-0.1-0.1-0.2-0.1-0.3c0-0.1,0-0.1-0.1-0.2c0-0.1,0-0.1-0.1-0.2
			c-0.1-0.1-0.1-0.3-0.1-0.4c-0.1-0.3-0.2-0.6-0.2-0.9c-0.1-0.6-0.1-1.4,0-1.9c0-0.1,0-0.1,0-0.2s0-0.1,0-0.2c0-0.1,0-0.2,0.1-0.3
			c0-0.1,0.1-0.2,0.1-0.2s0-0.1,0.1-0.2c0-0.1,0-0.2,0.1-0.2c0,0,0-0.1,0.1-0.2c0-0.1,0-0.1,0.1-0.2c0.2-0.5,0.5-1,0.9-1.7
			c0.2-0.3,0.4-0.5,0.6-0.7c0.1-0.1,0.2-0.2,0.3-0.3c0.1,0,0.1-0.1,0.2-0.1c0.1,0,0.1-0.1,0.2-0.1c0.1-0.1,0.2-0.1,0.3-0.2
			c0.1-0.1,0.2-0.1,0.2-0.1c0.1-0.1,0.2-0.1,0.2-0.1s0.1,0,0.2-0.1c0.1,0,0.1-0.1,0.2-0.1c0.1,0,0.2-0.1,0.3-0.1
			c0.1,0,0.1,0,0.2-0.1c0.1,0,0.1,0,0.2-0.1c0.1-0.1,0.3-0.1,0.4-0.1c0.3-0.1,0.6-0.2,0.9-0.2c0.6-0.1,1.4-0.1,1.9,0
			c0.1,0,0.1,0,0.2,0s0.1,0,0.2,0c0.1,0,0.2,0,0.3,0.1c0.1,0,0.2,0.1,0.2,0.1s0.1,0,0.2,0.1c0.1,0,0.2,0,0.2,0.1c0,0,0.1,0,0.2,0.1
			c0.1,0,0.1,0,0.2,0.1c0.5,0.2,1,0.5,1.7,0.9c0.3,0.2,0.5,0.4,0.7,0.6c0.1,0.1,0.2,0.2,0.3,0.3c0,0.1,0.1,0.1,0.1,0.2
			c0,0.1,0.1,0.1,0.1,0.2c0.1,0.1,0.1,0.2,0.2,0.3c0.1,0.1,0.1,0.2,0.1,0.2c0.1,0.1,0.1,0.2,0.1,0.2s0,0.1,0.1,0.2
			c0,0.1,0.1,0.1,0.1,0.2c0,0.1,0.1,0.2,0.1,0.3c0,0.1,0,0.1,0.1,0.2c0,0.1,0,0.1,0.1,0.2c0.1,0.1,0.1,0.3,0.1,0.4
			c0.1,0.3,0.2,0.6,0.2,0.9c0.1,0.6,0.1,1.4,0,1.9c0,0.1,0,0.1,0,0.2s0,0.1,0,0.2c0,0.1,0,0.2-0.1,0.3c0,0.1-0.1,0.2-0.1,0.2
			S55.3,450,55.2,450.2z"/>
		<path class="st54" d="M76.9,455.1c-0.2,0-0.3,0-0.3,0s0-0.1-0.1-0.2s-0.1-0.3-0.2-0.5c-0.1-0.2-0.2-0.3-0.2-0.5
			c-0.1-0.1-0.1-0.2-0.1-0.2s0-0.1-0.1-0.2s-0.2-0.3-0.3-0.4c-0.1-0.2-0.2-0.3-0.3-0.4c-0.1-0.1-0.2-0.2-0.2-0.2s0.1-0.1,0.2-0.3
			c0.1-0.2,0.3-0.4,0.4-0.6c0.3-0.4,0.5-0.8,0.5-0.8s0,0-0.1-0.1c-0.1-0.1-0.1-0.1-0.3-0.2c-0.2-0.2-0.5-0.5-0.8-0.7
			c-0.2-0.1-0.3-0.2-0.5-0.3c-0.2-0.1-0.3-0.2-0.4-0.3c-0.1-0.1-0.2-0.1-0.3-0.2c-0.1,0-0.1-0.1-0.1-0.1s-0.3,0.4-0.7,0.8
			c-0.2,0.2-0.3,0.4-0.4,0.5c-0.1,0.1-0.2,0.2-0.2,0.2s-0.3-0.2-0.7-0.3c-0.2-0.1-0.4-0.1-0.5-0.2c-0.1,0-0.2-0.1-0.2-0.1
			s-0.1,0-0.2-0.1c-0.1,0-0.3-0.1-0.5-0.1c-0.4-0.1-0.7-0.1-0.7-0.1s0-0.1,0-0.3s-0.1-0.4-0.1-0.7c-0.1-0.5-0.2-1-0.2-1s0,0-0.1,0
			s-0.2,0-0.3,0s-0.3,0-0.5,0c-0.2,0-0.4,0-0.6,0.1c-0.4,0.1-0.8,0.1-1,0.2c-0.1,0-0.3,0.1-0.3,0.1c-0.1,0-0.1,0-0.1,0s0,0.5,0.1,1
			c0,0.2,0,0.5,0.1,0.7c0,0.2,0,0.3,0,0.3s-0.1,0-0.2,0.1c-0.1,0.1-0.3,0.1-0.5,0.2c-0.2,0.1-0.3,0.2-0.5,0.2
			c-0.1,0.1-0.2,0.1-0.2,0.1s-0.1,0-0.2,0.1c-0.1,0.1-0.3,0.2-0.4,0.3c-0.2,0.1-0.3,0.2-0.4,0.3c-0.1,0.1-0.2,0.2-0.2,0.2
			s-0.1-0.1-0.3-0.2c-0.2-0.1-0.4-0.3-0.6-0.4c-0.4-0.3-0.8-0.5-0.8-0.5s0,0-0.1,0.1c-0.1,0.1-0.1,0.1-0.2,0.3
			c-0.2,0.2-0.5,0.5-0.7,0.8c-0.1,0.2-0.2,0.3-0.3,0.5c-0.1,0.2-0.2,0.3-0.3,0.4c-0.1,0.1-0.1,0.2-0.2,0.3c0,0.1-0.1,0.1-0.1,0.1
			s0.4,0.3,0.8,0.7c0.2,0.2,0.4,0.3,0.5,0.4c0.1,0.1,0.2,0.2,0.2,0.2s-0.2,0.3-0.3,0.7c-0.1,0.2-0.1,0.4-0.2,0.5
			c0,0.1-0.1,0.2-0.1,0.2s0,0.1-0.1,0.2c0,0.1-0.1,0.3-0.1,0.5c-0.1,0.4-0.1,0.7-0.1,0.7s-0.1,0-0.3,0c-0.2,0-0.4,0.1-0.7,0.1
			c-0.5,0.1-1,0.2-1,0.2s0,0,0,0.1c0,0.1,0,0.2,0,0.3c0,0.1,0,0.3,0,0.5c0,0.2,0,0.4,0.1,0.6c0.1,0.4,0.1,0.8,0.2,1
			c0,0.1,0.1,0.3,0.1,0.3c0,0.1,0,0.1,0,0.1s0.5,0,1-0.1c0.2,0,0.5,0,0.7-0.1c0.2,0,0.3,0,0.3,0s0,0.1,0.1,0.2
			c0.1,0.1,0.1,0.3,0.2,0.5c0.1,0.2,0.2,0.3,0.2,0.5c0.1,0.1,0.1,0.2,0.1,0.2s0,0.1,0.1,0.2c0.1,0.1,0.2,0.3,0.3,0.4
			c0.1,0.2,0.2,0.3,0.3,0.4c0.1,0.1,0.2,0.2,0.2,0.2s-0.1,0.1-0.2,0.3c-0.1,0.2-0.3,0.4-0.4,0.6c-0.3,0.4-0.5,0.8-0.5,0.8
			s0,0,0.1,0.1c0.1,0.1,0.1,0.1,0.3,0.2c0.2,0.2,0.5,0.5,0.8,0.7c0.2,0.1,0.3,0.2,0.5,0.3c0.2,0.1,0.3,0.2,0.4,0.3
			c0.1,0.1,0.2,0.1,0.3,0.2c0.1,0,0.1,0.1,0.1,0.1s0.3-0.4,0.7-0.8c0.2-0.2,0.3-0.4,0.4-0.5c0.1-0.1,0.2-0.2,0.2-0.2
			s0.3,0.2,0.7,0.3c0.2,0.1,0.4,0.1,0.5,0.2c0.1,0,0.2,0.1,0.2,0.1s0.1,0,0.2,0.1c0.1,0,0.3,0.1,0.5,0.1c0.4,0.1,0.7,0.1,0.7,0.1
			s0,0.1,0,0.3c0,0.2,0.1,0.4,0.1,0.7c0.1,0.5,0.2,1,0.2,1s0,0,0.1,0c0.1,0,0.2,0,0.3,0c0.1,0,0.3,0,0.5,0c0.2,0,0.4,0,0.6-0.1
			c0.4-0.1,0.8-0.1,1-0.2c0.1,0,0.3-0.1,0.3-0.1c0.1,0,0.1,0,0.1,0s0-0.5-0.1-1c0-0.2,0-0.5-0.1-0.7c0-0.2,0-0.3,0-0.3
			s0.1,0,0.2-0.1c0.1-0.1,0.3-0.1,0.5-0.2c0.2-0.1,0.3-0.2,0.5-0.2c0.1-0.1,0.2-0.1,0.2-0.1s0.1,0,0.2-0.1c0.1-0.1,0.3-0.2,0.4-0.3
			c0.2-0.1,0.3-0.2,0.4-0.3c0.1-0.1,0.2-0.2,0.2-0.2s0.1,0.1,0.3,0.2c0.2,0.1,0.4,0.3,0.6,0.4c0.4,0.3,0.8,0.5,0.8,0.5s0,0,0.1-0.1
			c0.1-0.1,0.1-0.1,0.2-0.3c0.2-0.2,0.5-0.5,0.7-0.8c0.1-0.2,0.2-0.3,0.3-0.5c0.1-0.2,0.2-0.3,0.3-0.4c0.1-0.1,0.1-0.2,0.2-0.3
			c0-0.1,0.1-0.1,0.1-0.1s-0.4-0.3-0.8-0.7c-0.2-0.2-0.4-0.3-0.5-0.4c-0.1-0.1-0.2-0.2-0.2-0.2s0.2-0.3,0.3-0.7
			c0.1-0.2,0.1-0.4,0.2-0.5c0-0.1,0.1-0.2,0.1-0.2s0-0.1,0.1-0.2c0-0.1,0.1-0.3,0.1-0.5c0.1-0.4,0.1-0.7,0.1-0.7s0.1,0,0.3,0
			s0.4-0.1,0.7-0.1c0.5-0.1,1-0.2,1-0.2s0,0,0-0.1c0-0.1,0-0.2,0-0.3c0-0.1,0-0.3,0-0.5c0-0.2,0-0.4-0.1-0.6c-0.1-0.4-0.1-0.8-0.2-1
			c0-0.1-0.1-0.3-0.1-0.3c0-0.1,0-0.1,0-0.1s-0.5,0-1,0.1C77.4,455.1,77.1,455.1,76.9,455.1z M73.9,459.7c0,0.1,0,0.1-0.1,0.2v0.1
			c0,0,0,0.1-0.1,0.1c-0.1,0.4-0.4,0.8-0.7,1.3c-0.2,0.2-0.3,0.4-0.5,0.6c-0.1,0.1-0.2,0.2-0.3,0.2l-0.1,0.1l-0.1,0.1
			c-0.1,0.1-0.2,0.1-0.2,0.2c-0.1,0-0.1,0.1-0.2,0.1c-0.1,0.1-0.2,0.1-0.2,0.1s-0.1,0-0.2,0.1c0,0-0.1,0.1-0.2,0.1s-0.2,0.1-0.2,0.1
			s-0.1,0-0.1,0.1c0,0-0.1,0-0.2,0.1c-0.1,0-0.2,0.1-0.3,0.1c-0.2,0.1-0.5,0.1-0.7,0.2c-0.5,0.1-1,0.1-1.5,0h-0.1h-0.1
			c-0.1,0-0.1,0-0.2,0c-0.1,0-0.2,0-0.2,0s-0.1,0-0.2,0c-0.1,0-0.1,0-0.2-0.1h-0.1c0,0-0.1,0-0.1-0.1c-0.4-0.1-0.8-0.4-1.3-0.7
			c-0.2-0.2-0.4-0.3-0.6-0.5c-0.1-0.1-0.2-0.2-0.2-0.3l-0.1-0.1l-0.1-0.1c-0.1-0.1-0.1-0.2-0.2-0.2c0-0.1-0.1-0.1-0.1-0.2
			c-0.1-0.1-0.1-0.2-0.1-0.2s0-0.1-0.1-0.2c0,0-0.1-0.1-0.1-0.2c0-0.1-0.1-0.2-0.1-0.2s0-0.1-0.1-0.1c0,0,0-0.1-0.1-0.2
			c0-0.1-0.1-0.2-0.1-0.3c-0.1-0.2-0.1-0.5-0.2-0.7c-0.1-0.5-0.1-1,0-1.5v-0.1v-0.1c0-0.1,0-0.1,0-0.2s0-0.2,0-0.2s0-0.1,0.1-0.2
			c0-0.1,0-0.1,0.1-0.2v-0.1c0,0,0-0.1,0.1-0.1c0.1-0.4,0.4-0.8,0.7-1.3c0.2-0.2,0.3-0.4,0.5-0.6c0.1-0.1,0.2-0.2,0.3-0.2l0.1-0.1
			l0.1-0.1c0.1-0.1,0.2-0.1,0.2-0.2c0.1,0,0.1-0.1,0.2-0.1c0.1-0.1,0.2-0.1,0.2-0.1s0.1,0,0.2-0.1c0,0,0.1-0.1,0.2-0.1
			s0.2-0.1,0.2-0.1s0.1,0,0.1-0.1c0,0,0.1,0,0.2-0.1c0.1,0,0.2-0.1,0.3-0.1c0.2-0.1,0.5-0.1,0.7-0.2c0.5-0.1,1-0.1,1.5,0h0.1h0.1
			c0.1,0,0.1,0,0.2,0c0.1,0,0.2,0,0.2,0s0.1,0,0.2,0.1c0.1,0,0.1,0,0.2,0.1h0.1c0,0,0.1,0,0.1,0.1c0.4,0.1,0.8,0.4,1.3,0.7
			c0.2,0.2,0.4,0.3,0.6,0.5c0.1,0.1,0.2,0.2,0.2,0.3l0.1,0.1l0.1,0.1c0.1,0.1,0.1,0.2,0.2,0.2c0,0.1,0.1,0.1,0.1,0.2
			c0.1,0.1,0.1,0.2,0.1,0.2s0,0.1,0.1,0.2c0,0,0.1,0.1,0.1,0.2s0.1,0.2,0.1,0.2s0,0.1,0.1,0.1c0,0,0,0.1,0.1,0.2
			c0,0.1,0.1,0.2,0.1,0.3c0.1,0.2,0.1,0.5,0.2,0.7c0.1,0.5,0.1,1,0,1.5v0.1v0.1c0,0.1,0,0.1,0,0.2c0,0.1,0,0.2,0,0.2
			S74,459.5,73.9,459.7z"/>
		<path class="st54" d="M68.7,433.1c-0.1,0-0.2,0-0.2,0s0-0.1-0.1-0.1c0-0.1-0.1-0.2-0.1-0.3c-0.1-0.1-0.1-0.2-0.2-0.3
			c0-0.1-0.1-0.1-0.1-0.1s0-0.1-0.1-0.1c0-0.1-0.1-0.2-0.2-0.3c-0.1-0.1-0.2-0.2-0.2-0.3c-0.1-0.1-0.1-0.1-0.1-0.1s0.1-0.1,0.1-0.2
			c0.1-0.1,0.2-0.2,0.3-0.4c0.2-0.3,0.4-0.6,0.4-0.6s0,0-0.1-0.1c0,0-0.1-0.1-0.2-0.2c-0.1-0.1-0.3-0.3-0.5-0.5
			c-0.1-0.1-0.2-0.2-0.3-0.2c-0.1-0.1-0.2-0.1-0.3-0.2c-0.1,0-0.2-0.1-0.2-0.1h-0.1c0,0-0.2,0.2-0.4,0.5c-0.1,0.1-0.2,0.3-0.3,0.4
			c-0.1,0.1-0.1,0.2-0.1,0.2s-0.2-0.1-0.5-0.2c-0.1,0-0.2-0.1-0.3-0.1c-0.1,0-0.2,0-0.2,0s-0.1,0-0.2,0s-0.2,0-0.3-0.1
			c-0.2,0-0.5-0.1-0.5-0.1s0-0.1,0-0.2s0-0.3-0.1-0.5c-0.1-0.3-0.1-0.7-0.1-0.7s0,0-0.1,0c-0.1,0-0.1,0-0.2,0c-0.1,0-0.2,0-0.3,0
			c-0.1,0-0.2,0-0.4,0c-0.3,0-0.5,0.1-0.7,0.1c-0.1,0-0.2,0-0.2,0.1c-0.1,0-0.1,0-0.1,0s0,0.3,0,0.7c0,0.2,0,0.3,0,0.5
			c0,0.1,0,0.2,0,0.2s-0.1,0-0.1,0.1c-0.1,0-0.2,0.1-0.3,0.1c-0.1,0.1-0.2,0.1-0.3,0.2c-0.1,0-0.1,0.1-0.1,0.1s-0.1,0-0.1,0.1
			c-0.1,0-0.2,0.1-0.3,0.2c-0.1,0.1-0.2,0.1-0.3,0.2c-0.1,0.1-0.1,0.1-0.1,0.1s-0.1-0.1-0.2-0.1c-0.1-0.1-0.2-0.2-0.4-0.3
			c-0.3-0.2-0.6-0.4-0.6-0.4s0,0-0.1,0.1c0,0-0.1,0.1-0.2,0.2c-0.1,0.1-0.3,0.3-0.5,0.5c-0.1,0.1-0.2,0.2-0.2,0.3
			c-0.1,0.1-0.1,0.2-0.2,0.3c0,0.1-0.1,0.2-0.1,0.2v0.1c0,0,0.2,0.2,0.5,0.4c0.1,0.1,0.3,0.2,0.4,0.3c0.1,0.1,0.2,0.1,0.2,0.1
			s-0.1,0.2-0.2,0.5c0,0.1-0.1,0.2-0.1,0.3c0,0.1,0,0.2,0,0.2s0,0.1,0,0.2s0,0.2-0.1,0.3c0,0.2-0.1,0.5-0.1,0.5s-0.1,0-0.2,0
			c-0.1,0-0.3,0-0.5,0.1c-0.3,0.1-0.7,0.1-0.7,0.1s0,0,0,0.1c0,0.1,0,0.1,0,0.2s0,0.2,0,0.3c0,0.1,0,0.2,0,0.4
			c0,0.3,0.1,0.5,0.1,0.7c0,0.1,0,0.2,0.1,0.2c0,0.1,0,0.1,0,0.1s0.3,0,0.7,0c0.2,0,0.3,0,0.5,0c0.1,0,0.2,0,0.2,0s0,0.1,0.1,0.1
			c0,0.1,0.1,0.2,0.1,0.3c0.1,0.1,0.1,0.2,0.2,0.3c0,0.1,0.1,0.1,0.1,0.1s0,0.1,0.1,0.1c0,0.1,0.1,0.2,0.2,0.3
			c0.1,0.1,0.2,0.2,0.2,0.3c0.1,0.1,0.1,0.1,0.1,0.1s-0.1,0.1-0.1,0.2c-0.1,0.1-0.2,0.2-0.3,0.4c-0.2,0.3-0.4,0.6-0.4,0.6
			s0,0,0.1,0.1c0,0,0.1,0.1,0.2,0.2s0.3,0.3,0.5,0.5c0.1,0.1,0.2,0.2,0.3,0.2c0.1,0.1,0.2,0.1,0.3,0.2c0.1,0,0.2,0.1,0.2,0.1h0.1
			c0,0,0.2-0.2,0.4-0.5c0.1-0.1,0.2-0.3,0.3-0.4c0.1-0.1,0.1-0.2,0.1-0.2s0.2,0.1,0.5,0.2c0.1,0,0.2,0.1,0.3,0.1c0.1,0,0.2,0,0.2,0
			s0.1,0,0.2,0s0.2,0,0.3,0.1c0.2,0,0.5,0.1,0.5,0.1s0,0.1,0,0.2c0,0.1,0,0.3,0.1,0.5c0.1,0.3,0.1,0.7,0.1,0.7s0,0,0.1,0
			c0.1,0,0.1,0,0.2,0s0.2,0,0.3,0c0.1,0,0.2,0,0.4,0c0.3,0,0.5-0.1,0.7-0.1c0.1,0,0.2,0,0.2-0.1c0.1,0,0.1,0,0.1,0s0-0.3,0-0.7
			c0-0.2,0-0.3,0-0.5c0-0.1,0-0.2,0-0.2s0.1,0,0.1-0.1c0.1,0,0.2-0.1,0.3-0.1c0.1-0.1,0.2-0.1,0.3-0.2c0.1,0,0.1-0.1,0.1-0.1
			s0.1,0,0.1-0.1c0.1,0,0.2-0.1,0.3-0.2c0.1-0.1,0.2-0.2,0.3-0.2c0.1-0.1,0.1-0.1,0.1-0.1s0.1,0.1,0.2,0.1c0.1,0.1,0.2,0.2,0.4,0.3
			c0.3,0.2,0.6,0.4,0.6,0.4s0,0,0.1-0.1c0,0,0.1-0.1,0.2-0.2c0.1-0.1,0.3-0.3,0.5-0.5c0.1-0.1,0.2-0.2,0.2-0.3
			c0.1-0.1,0.1-0.2,0.2-0.3c0-0.1,0.1-0.2,0.1-0.2v-0.1c0,0-0.2-0.2-0.5-0.4c-0.1-0.1-0.3-0.2-0.4-0.3c-0.1-0.1-0.2-0.1-0.2-0.1
			s0.1-0.2,0.2-0.5c0-0.1,0.1-0.2,0.1-0.3c0-0.1,0-0.1,0-0.1s0-0.1,0-0.2c0-0.1,0-0.2,0.1-0.3c0-0.2,0.1-0.5,0.1-0.5s0.1,0,0.2,0
			c0.1,0,0.3,0,0.5-0.1c0.3-0.1,0.7-0.1,0.7-0.1s0,0,0-0.1c0-0.1,0-0.1,0-0.2c0-0.1,0-0.2,0-0.3s0-0.2,0-0.4c0-0.3-0.1-0.5-0.1-0.7
			c0-0.1,0-0.2-0.1-0.2c0-0.1,0-0.1,0-0.1s-0.3,0-0.7,0C69,433.1,68.8,433.1,68.7,433.1z M66.7,436.1v0.1v0.1v0.1
			c-0.1,0.2-0.3,0.6-0.5,0.8c-0.1,0.1-0.2,0.3-0.3,0.4c-0.1,0.1-0.1,0.1-0.2,0.2c0,0-0.1,0-0.1,0.1c0,0-0.1,0-0.1,0.1
			c-0.1,0-0.1,0.1-0.1,0.1l-0.1,0.1c-0.1,0-0.1,0.1-0.1,0.1s0,0-0.1,0.1c0,0-0.1,0-0.1,0.1c0,0-0.1,0.1-0.2,0.1h-0.1h-0.1
			c-0.1,0-0.1,0-0.2,0.1c-0.2,0-0.3,0.1-0.5,0.1c-0.3,0-0.7,0-0.9,0h-0.1h-0.1c-0.1,0-0.1,0-0.1,0c-0.1,0-0.1,0-0.1,0s0,0-0.1,0
			h-0.1h-0.1H62c-0.2-0.1-0.6-0.3-0.8-0.5c-0.1-0.1-0.3-0.2-0.4-0.3c-0.1-0.1-0.1-0.1-0.2-0.2c0,0,0-0.1-0.1-0.1c0,0,0-0.1-0.1-0.1
			c0-0.1-0.1-0.1-0.1-0.1l-0.1-0.1c0-0.1-0.1-0.1-0.1-0.1s0,0-0.1-0.1c0,0,0-0.1-0.1-0.1c0,0-0.1-0.1-0.1-0.2v-0.1v-0.1
			c0-0.1,0-0.1-0.1-0.2c0-0.2-0.1-0.3-0.1-0.5c0-0.3,0-0.7,0-0.9V435v-0.1c0-0.1,0-0.1,0-0.1c0-0.1,0-0.1,0-0.1s0,0,0-0.1v-0.1v-0.1
			v-0.1c0.1-0.2,0.3-0.6,0.5-0.8c0.1-0.1,0.2-0.3,0.3-0.4c0.1-0.1,0.1-0.1,0.2-0.2c0,0,0.1,0,0.1-0.1c0,0,0.1,0,0.1-0.1
			c0.1,0,0.1-0.1,0.1-0.1l0.1-0.1c0.1,0,0.1-0.1,0.1-0.1s0,0,0.1-0.1c0,0,0.1,0,0.1-0.1c0,0,0.1-0.1,0.2-0.1h0.1h0.1
			c0.1,0,0.1,0,0.2-0.1c0.2,0,0.3-0.1,0.5-0.1c0.3,0,0.7,0,0.9,0h0.1h0.1c0.1,0,0.1,0,0.1,0c0.1,0,0.1,0,0.1,0s0,0,0.1,0h0.1H64h0.1
			c0.2,0.1,0.6,0.3,0.8,0.5c0.1,0.1,0.3,0.2,0.4,0.3c0.1,0.1,0.1,0.1,0.2,0.2c0,0,0,0.1,0.1,0.1c0,0,0,0.1,0.1,0.1
			c0,0.1,0.1,0.1,0.1,0.1l0.1,0.1c0,0.1,0.1,0.1,0.1,0.1s0,0,0.1,0.1c0,0,0,0.1,0.1,0.1c0,0,0.1,0.1,0.1,0.2v0.1v0.1
			c0,0.1,0,0.1,0.1,0.2c0,0.2,0.1,0.3,0.1,0.5c0,0.3,0,0.7,0,0.9v0.1v0.1c0,0.1,0,0.1,0,0.1c0,0.1,0,0.1,0,0.1S66.7,436,66.7,436.1z
			"/>
	</g>
	<g>
		<g>
			<path class="st54" d="M643.3,135.5c-0.9,2-2.7,3.2-5,3.2c-2.1,0-4.1-1.2-5-3.2c-3,0.4-5.3,3.9-5.3,8.3v11
				c1.2,0.9,2.5,1.8,3.9,2.3v-11.5c0-0.4,0.4-0.9,0.9-0.9c0.5,0,0.9,0.4,0.9,0.9v12.2c1.4,0.4,3,0.7,4.6,0.7c1.6,0,3.2-0.2,4.6-0.7
				v-12.2c0-0.4,0.4-0.9,0.9-0.9s0.9,0.4,0.9,0.9v11.5c1.4-0.5,2.7-1.4,3.9-2.3v-11C648.4,139.4,646.1,135.8,643.3,135.5z"/>
			<circle class="st54" cx="638.3" cy="131.6" r="5.3"/>
		</g>
		<g>
			<g>
				<path class="st54" d="M663.3,119.7c-0.9,2-2.7,3.2-5,3.2c-2.3,0-4.1-1.2-5-3.2c-3,0.4-5.3,3.9-5.3,8.3v11
					c1.2,0.9,2.5,1.8,3.9,2.3v-11.5c0-0.4,0.4-0.9,0.9-0.9s0.9,0.4,0.9,0.9V142c1.4,0.4,3,0.7,4.6,0.7c1.6,0,3.2-0.2,4.6-0.7v-12.2
					c0-0.4,0.4-0.9,0.9-0.9c0.5,0,0.9,0.4,0.9,0.9v11.5c1.4-0.5,2.7-1.4,3.9-2.3v-11C668.6,123.6,666.3,119.9,663.3,119.7z"/>
				<path class="st54" d="M663.9,115.8c0,3-2.5,5.3-5.3,5.3c-3,0-5.3-2.5-5.3-5.3c0-2.8,2.5-5.3,5.3-5.3
					C661.4,110.3,663.9,112.8,663.9,115.8z"/>
			</g>
			<g>
				<path class="st54" d="M623.1,119.7c-0.9,2-2.7,3.2-5,3.2c-2.3,0-4.1-1.2-5-3.2c-3,0.4-5.3,3.9-5.3,8.3v11
					c1.2,0.9,2.5,1.8,3.9,2.3v-11.5c0-0.4,0.4-0.9,0.9-0.9s0.9,0.4,0.9,0.9V142c1.4,0.4,3,0.7,4.6,0.7c1.6,0,3.2-0.2,4.6-0.7v-12.2
					c0-0.4,0.4-0.9,0.9-0.9c0.4,0,0.9,0.4,0.9,0.9v11.5c1.4-0.5,2.7-1.4,3.9-2.3v-11C628.4,123.6,626.1,119.9,623.1,119.7z"/>
				<path class="st54" d="M623.6,115.8c0,3-2.5,5.3-5.3,5.3c-3,0-5.3-2.5-5.3-5.3c0-2.8,2.5-5.3,5.3-5.3
					C621.1,110.3,623.6,112.8,623.6,115.8z"/>
			</g>
		</g>
	</g>
	<g>
		<g>
			<path class="st54" d="M377.6,165.4c-1.9,0-3.8-0.4-5.5-1.2c-1.7-0.7-3.1-1.7-4.5-3c-1.3-1.3-2.3-2.8-3-4.5
				c-0.7-1.8-1.2-3.6-1.2-5.5s0.4-3.8,1.2-5.5c0.7-1.7,1.7-3.1,3-4.5c1.3-1.3,2.8-2.3,4.5-3c1.8-0.7,3.6-1.2,5.5-1.2
				c1.9,0,3.8,0.4,5.5,1.2c1.7,0.7,3.1,1.7,4.5,3c1.3,1.3,2.3,2.8,3,4.5c0.7,1.8,1.2,3.6,1.2,5.5s-0.4,3.8-1.2,5.5
				c-0.7,1.7-1.7,3.1-3,4.5c-1.3,1.3-2.8,2.3-4.5,3C381.3,164.9,379.5,165.4,377.6,165.4z M377.6,139.7c-6.4,0-11.6,5.2-11.6,11.6
				c0,6.4,5.2,11.6,11.6,11.6c6.4,0,11.6-5.2,11.6-11.6C389.3,144.9,384,139.7,377.6,139.7z"/>
		</g>
		<g>
			<path class="st54" d="M377.6,158.5c-2,0-3.8-0.7-5.1-2.1c-1.4-1.4-2.1-3.3-2.1-5.1c0-1.9,0.7-3.8,2.1-5.1
				c1.4-1.4,3.3-2.1,5.1-2.1c1.9,0,3.8,0.7,5.1,2.1c1.4,1.4,2.1,3.3,2.1,5.1c0,1.9-0.7,3.8-2.1,5.1
				C381.4,157.8,379.5,158.5,377.6,158.5z M377.6,146.5c-2.7,0-4.8,2.2-4.8,4.8c0,2.7,2.2,4.8,4.8,4.8c2.7,0,4.8-2.2,4.8-4.8
				C382.5,148.6,380.3,146.5,377.6,146.5z"/>
		</g>
		<g>
			<path class="st54" d="M377.6,162c-1.5,0-2.8-0.3-4.2-0.8c-1.3-0.5-2.4-1.3-3.4-2.3c-0.9-0.9-1.8-2.1-2.3-3.4
				c-0.5-1.4-0.8-2.7-0.8-4.2c0-1.5,0.3-2.8,0.8-4.2c0.5-1.3,1.3-2.4,2.3-3.4c0.9-0.9,2.1-1.8,3.4-2.3c1.4-0.5,2.7-0.8,4.2-0.8
				c1.5,0,2.8,0.3,4.2,0.8c1.3,0.5,2.4,1.3,3.4,2.3c0.9,0.9,1.8,2.1,2.3,3.4c0.5,1.4,0.8,2.7,0.8,4.2c0,1.5-0.3,2.8-0.8,4.2
				c-0.5,1.3-1.3,2.4-2.3,3.4c-0.9,0.9-2.1,1.8-3.4,2.3C380.5,161.7,379,162,377.6,162z M377.6,143c-4.5,0-8.3,3.7-8.3,8.3
				c0,4.5,3.7,8.3,8.3,8.3c4.6,0,8.3-3.7,8.3-8.3C385.8,146.8,382.2,143,377.6,143z"/>
		</g>
		<g>
			<path class="st54" d="M381.3,151.3c0,2-1.7,3.7-3.7,3.7c-2,0-3.7-1.7-3.7-3.7c0-2,1.7-3.7,3.7-3.7
				C379.6,147.6,381.3,149.3,381.3,151.3z"/>
		</g>
	</g>
	<path class="st54" d="M553.4,468.6c0-3.7-2.8-6.7-6.2-6.7c-3.5,0-6.2,3-6.2,6.7c0-3.7-2.8-6.7-6.2-6.7c-3.5,0-6.2,3-6.2,6.7
		c0,2.5,1.3,4.7,3.1,5.9l0,0l0,0c0.3,0.2,0.7,0.4,1,0.5l8.2,4l8.2-4c0.4-0.1,0.7-0.3,1-0.5l0,0l0,0
		C552.1,473.2,553.4,471.1,553.4,468.6z"/>
	<path class="st54" d="M548.5,513.9c-1.9-0.9-4.3-0.2-5.2,1.8c-0.8,1.7-0.4,3.7,1,4.8l-6.6,13.1c-1.3-0.4-2.7-0.1-3.8,0.8l-12.4-8.7
		c0.2-1.4-0.3-2.9-1.6-3.8c-1.8-1.3-4.2-0.9-5.5,0.8c-1.2,1.5-1,3.6,0.2,4.9l-8.7,11.8c-1.7-0.7-3.7-0.2-4.7,1.3
		c-1.3,1.8-0.9,4.2,0.8,5.5c1.8,1.3,4.2,0.9,5.5-0.8c1.2-1.5,1-3.6-0.2-4.9l8.7-11.8c1.7,0.7,3.7,0.2,4.7-1.3c0,0,0,0,0-0.1
		l12.1,8.4c-0.7,1.7-0.1,3.7,1.4,4.7c1.8,1.3,4.2,0.8,5.5-0.9c1.2-1.7,0.8-3.9-0.6-5.1l6.6-13.1c1.8,0.4,3.6-0.4,4.4-2
		C551.2,517.2,550.3,514.9,548.5,513.9z"/>
	<g>
		<circle class="st55" cx="210.7" cy="449.7" r="6.9"/>
		<g>
			<path class="st55" d="M210.7,458.5c-4.8,0-8.8-4-8.8-8.8c0-4.8,4-8.8,8.8-8.8c4.8,0,8.8,4,8.8,8.8
				C219.5,454.6,215.5,458.5,210.7,458.5z M210.7,441.3c-4.6,0-8.4,3.8-8.4,8.4s3.8,8.4,8.4,8.4c4.6,0,8.4-3.8,8.4-8.4
				S215.3,441.3,210.7,441.3z"/>
		</g>
	</g>
	<g>
		<circle class="st55" cx="361.5" cy="294.5" r="6.9"/>
		<g>
			<path class="st55" d="M361.5,303.3c-4.8,0-8.8-4-8.8-8.8s4-8.8,8.8-8.8s8.8,4,8.8,8.8C370.3,299.3,366.3,303.3,361.5,303.3z
				 M361.5,286.1c-4.6,0-8.4,3.8-8.4,8.4s3.8,8.4,8.4,8.4s8.4-3.8,8.4-8.4S366.1,286.1,361.5,286.1z"/>
		</g>
	</g>
	<g>
		<path class="st55" d="M145.3,189.9c0,2.3-1.9,4.2-4.2,4.2c-2.3,0-4.2-1.9-4.2-4.2s1.9-4.2,4.2-4.2
			C143.5,185.7,145.3,187.6,145.3,189.9z"/>
		<g>
			<path class="st55" d="M141.2,195.2c-2.9,0-5.2-2.3-5.2-5.2c0-2.9,2.3-5.2,5.2-5.2c2.9,0,5.2,2.3,5.2,5.2
				C146.4,192.8,144,195.2,141.2,195.2z M141.2,184.9c-2.7,0-5,2.2-5,5c0,2.7,2.2,5,5,5c2.7,0,5-2.2,5-5
				C146.1,187.2,143.9,184.9,141.2,184.9z"/>
		</g>
	</g>
	<g>
		<path class="st55" d="M23.2,522.4c0,2.3-1.9,4.2-4.2,4.2s-4.2-1.9-4.2-4.2s1.9-4.2,4.2-4.2S23.2,520.1,23.2,522.4z"/>
		<g>
			<path class="st55" d="M19,527.7c-2.9,0-5.2-2.3-5.2-5.2c0-2.9,2.3-5.2,5.2-5.2s5.2,2.3,5.2,5.2C24.3,525.2,22,527.7,19,527.7z
				 M19,517.4c-2.7,0-5,2.2-5,5c0,2.7,2.2,5,5,5c2.7,0,5-2.2,5-5S21.8,517.4,19,517.4z"/>
		</g>
	</g>
	<g>
		<path class="st55" d="M642.8,329.3c3,1.6,4.2,5.4,2.6,8.4c-1.6,3-5.4,4.2-8.4,2.6s-4.2-5.4-2.6-8.4
			C636,328.9,639.8,327.8,642.8,329.3z"/>
		<g>
			<path class="st55" d="M646.9,338.6c-2,3.9-6.8,5.4-10.6,3.4c-3.9-2-5.4-6.8-3.4-10.6c2-3.9,6.8-5.4,10.6-3.4
				C647.4,329.9,648.9,334.7,646.9,338.6z M633.1,331.4c-1.9,3.7-0.5,8.3,3.1,10.2c3.7,1.9,8.3,0.5,10.2-3.1
				c1.9-3.7,0.5-8.3-3.1-10.2C639.7,326.3,635.1,327.8,633.1,331.4z"/>
		</g>
	</g>
	<g>
		<path class="st55" d="M181.3,561.3c3,1.6,4.2,5.4,2.6,8.4c-1.6,3-5.4,4.2-8.4,2.6c-3-1.6-4.2-5.4-2.6-8.4
			C174.4,560.9,178.2,559.7,181.3,561.3z"/>
		<g>
			<path class="st55" d="M185.4,570.6c-2,3.9-6.8,5.4-10.6,3.4c-3.9-2-5.4-6.8-3.4-10.6c2-3.9,6.8-5.4,10.6-3.4
				C185.9,562,187.4,566.7,185.4,570.6z M171.7,563.4c-1.9,3.7-0.5,8.3,3.1,10.2s8.3,0.5,10.2-3.1c1.9-3.7,0.5-8.3-3.1-10.2
				C178.2,558.3,173.7,559.7,171.7,563.4z"/>
		</g>
	</g>
	<g>
		<path class="st55" d="M443.4,386.3c1.8,0.9,2.5,3.3,1.6,5c-0.9,1.8-3.3,2.5-5,1.6c-1.8-0.9-2.5-3.3-1.6-5
			C439.3,386.1,441.5,385.4,443.4,386.3z"/>
		<g>
			<path class="st55" d="M445.8,391.8c-1.2,2.3-4.1,3.1-6.3,2c-2.3-1.2-3.1-4.1-2-6.3c1.2-2.3,4.1-3.1,6.3-2
				C446,386.7,447,389.5,445.8,391.8z M437.6,387.6c-1.2,2.2-0.3,4.9,1.9,6.1s4.9,0.3,6.1-1.9c1.2-2.2,0.3-4.9-1.9-6.1
				S438.8,385.4,437.6,387.6z"/>
		</g>
	</g>
	<g>
		<path class="st55" d="M590.7,533.5c1.8,0.9,2.5,3.3,1.6,5c-0.9,1.8-3.3,2.5-5,1.6c-1.8-0.9-2.5-3.3-1.6-5
			C586.8,533.1,589,532.5,590.7,533.5z"/>
		<g>
			<path class="st55" d="M593.3,538.9c-1.2,2.3-4.1,3.1-6.3,2c-2.2-1.2-3.1-4.1-2-6.3c1.2-2.3,4.1-3.1,6.3-2
				C593.6,533.8,594.4,536.6,593.3,538.9z M585.1,534.6c-1.2,2.2-0.3,4.9,1.9,6.1c2.2,1.2,4.9,0.3,6.1-1.9c1.2-2.2,0.3-4.9-1.9-6.1
				C589,531.6,586.2,532.4,585.1,534.6z"/>
		</g>
	</g>
</g>
</svg>
