<?xml version="1.0" encoding="utf-8"?>
<!-- Generator: Adobe Illustrator 22.1.0, SVG Export Plug-In . SVG Version: 6.00 Build 0)  -->
<svg version="1.1"
	 id="svg4179" inkscape:version="0.91 r13725" sodipodi:docname="Prime Day logo 2015.svg" xmlns:cc="http://creativecommons.org/ns#" xmlns:dc="http://purl.org/dc/elements/1.1/" xmlns:inkscape="http://www.inkscape.org/namespaces/inkscape" xmlns:rdf="http://www.w3.org/1999/02/22-rdf-syntax-ns#" xmlns:sodipodi="http://sodipodi.sourceforge.net/DTD/sodipodi-0.dtd" xmlns:svg="http://www.w3.org/2000/svg"
	 xmlns="http://www.w3.org/2000/svg" xmlns:xlink="http://www.w3.org/1999/xlink" x="0px" y="0px" viewBox="0 0 91.5 256.6"
	 style="enable-background:new 0 0 91.5 256.6;" xml:space="preserve">
<style type="text/css">
	.st0{fill:#331907;}
	.st1{fill:#E0AA79;}
	.st2{fill:#3A1E0A;}
	.st3{fill:#3C313F;}
	.st4{fill:#C93131;}
	.st5{fill:#8E5A46;}
	.st6{fill:#FFFFFF;}
	.st7{fill:#D66A18;}
	.st8{fill:#994710;}
</style>
<g>
	<path class="st0" d="M89.1,32.1C89,32.1,88.9,32,88.8,32c0,0-1.7-0.1-4.2-3.5c-0.3-0.5-0.9-1.7-1.5-3.2c-1.7-4.1-4.5-10.8-9.4-15.6
		c-6.1-6.1-15.5-9.3-27.8-9.3c-23,0-27.5,14.1-27.9,15.8c-1.3,0.7-10.6,6.9-8.8,28.9c0,0.1,0.2,8.8,4.5,17.3
		c2.7,5.4,2.5,8.3,1.8,9.8c-0.6,1.3-1.5,1.7-1.8,1.8c-0.8,0.2-0.8,0.7-0.8,0.9c0.2,1.1,2.9,2.2,5,2.2c0.9,0,1.7-0.2,2.3-0.6
		c0.1,0.7-0.1,2.2-1.4,3c-0.4,0.2-0.4,0.6-0.3,0.7c0.2,0.8,2.4,1.1,3.6,1.1c1.2,0,3.2-0.2,5.1-1.2c-0.5,0.7-0.9,1.5-1.2,1.9
		c-0.1,0.1-0.1,0.2-0.1,0.3s0.2,0.2,0.2,0.2c0.5,0.2,1.1,0.2,1.6,0.2c3.6,0,6.1-3.4,6.5-6.5c0.1-0.6,0.1-1.1-0.1-1.6
		c9.4,0.6,26.5,1.7,27.3,1.9c0.2,0.1,0.6,0.5,0.9,0.9c1.5,1.7,4.2,5,9.2,5c0.6,0,1.2-0.1,1.8-0.2c2-0.3,2.5-0.5,2.6-0.9
		c0.2-0.4-0.1-0.7-0.5-1.2c-0.7-0.8-1.7-2.2-1.2-4.7c0.5,0.2,1.3,0.4,2.2,0.4c1.1,0,2.1-0.3,2.9-1c0.3-0.2,0.7-0.6,0.7-1
		s-0.3-0.7-0.7-0.9c-0.7-0.7-2.1-1.7-1-5.7c0.4-0.5,3-3.6,4.9-8.9C85,53.3,86.7,45,84,35c0.2,0,0.4,0.1,0.7,0.1
		c1.1,0,2.7-0.4,4.1-2.6C89.2,32.4,89.2,32.2,89.1,32.1z"/>
	<path class="st1" d="M76,105c-1.6-8.4-6.1-12.6-11.7-15.1c-3,2.1-7.7,11.5,0.2,23.7c0.7,1,8.4,42.5,6,50.4
		c0.9,0.7,7.1,4.6,11.6,2.2C83.5,165.5,76.2,105.8,76,105z"/>
	<path class="st1" d="M72.1,20.6C67.6,14.1,59.5,9.4,51.8,9.1c0,0-0.2,0-0.4,0V8.7c0,0-1.9,0.1-3.8,0.2c-1.9-0.1-3.8-0.2-3.8-0.2
		v0.3c-0.2,0-0.4,0-0.4,0c-7.7,0.3-15.6,5.2-20.3,11.5c-7.7,10.4-4.3,33.7-2.6,42C24,75.6,36.8,83,47.6,83c10.8,0,23.7-7.9,27-20.4
		C76.4,55.3,80,32,72.1,20.6z"/>
	<path class="st2" d="M36.7,52.3c0,2.4-1.7,4.4-3.7,4.4s-3.7-2-3.7-4.4c0-2.4,1.7-4.4,3.7-4.4C35,47.9,36.7,49.9,36.7,52.3z"/>
	<path class="st2" d="M66.2,52.3c0,2.4-1.7,4.4-3.7,4.4c-2.1,0-3.7-2-3.7-4.4c0-2.5,1.7-4.4,3.7-4.4C64.5,47.9,66.2,49.9,66.2,52.3z
		"/>
	<path class="st2" d="M28.4,45.3c-0.2,0-0.5-0.1-0.7-0.3c-0.4-0.4-0.4-1.1,0-1.5c1.8-2,7.3-3.1,10.5-1c0.5,0.3,0.6,1,0.2,1.5
		c-0.3,0.5-1,0.6-1.5,0.2c-2.3-1.6-6.5-0.6-7.7,0.7C29,45.1,28.7,45.3,28.4,45.3z"/>
	<path class="st2" d="M67.3,45.4c-0.2,0-0.6-0.1-0.7-0.3c-1.7-1.7-5.6-1.7-8,0.1c-0.5,0.3-1.2,0.2-1.5-0.2c-0.3-0.5-0.2-1.2,0.2-1.5
		c3.2-2.5,8.4-2.4,10.8,0.2c0.4,0.4,0.4,1.2,0,1.6C67.8,45.3,67.5,45.4,67.3,45.4z"/>
	<path class="st0" d="M74.9,16.4c-5.6-6.6-14.5-10-26.5-10l0,0c-3.4,0-7.1,0.2-11,0.8c-0.4,0.1-10,1.4-16.6,10.6
		c-5.7,7.9-7.4,19-4.8,33c0.1,0.2,0.2,0.5,0.6,0.6c0.1,0,0.1,0,0.2,0c0.2,0,0.4-0.1,0.6-0.2c0.2-0.3,6-8.1,7.6-18.6
		c1.4,2,4.3,5,9.5,6.1c0.1,0,0.1,0,0.2,0c0.2,0,0.6-0.2,0.7-0.4c0.2-0.4,0.5-2.3-2.1-10.8c3.6,3.6,11.3,9.9,22.1,11.2h0.1
		c0.2,0,0.4-0.1,0.6-0.2c0.2-0.2,0.2-0.5,0.1-0.7l-2.6-7.2c2.6,2,7.7,5.5,15.1,8.9c4.9,2.3,8.8,2.6,10.7,2.6c0.9,0,1.4-0.1,1.4-0.1
		c0.3-0.1,0.6-0.2,0.6-0.6C81.2,40.7,83.5,26.6,74.9,16.4z"/>
	<path class="st1" d="M82.4,164.9c0.2-0.1-4.4-38.2-5.5-52.5c-4.2,3.9-4.9,3.6-8.7,8c0.9,9.3,2.1,19.5,2.6,26.7
		c0.2,2.7,0.7,13.3,0.1,15.8c-0.3,1.7-1.8,2.9-1.7,6.4l0.5,7.1c0.2,1.9,2.6,2.2,3.1,0.4c0.1-0.5-0.3-6,1-5.3
		c2.6,1.4-1.5,10.7-0.3,11.6c1.8,1.6,5.4,0.2,7.5-5.4C82.6,173.4,82.6,167.7,82.4,164.9z"/>
	<path class="st1" d="M47.1,86.5l-7,0.5l-6.2,1.7c0,0,2.6,11.5,15.1,10.2c12.6-1.3,11.1-10.7,11.1-10.7L54.7,87L47.1,86.5z"/>
	<rect x="40.1" y="76.6" class="st1" width="14.7" height="16.5"/>
	<path class="st1" d="M28.4,197.4l-1.3,49.8c0,0,6.5,1.9,12.7,7.5c0.4-0.5,1.3-1.5,1.3-2.6l2.4-54.7
		C38.2,197.2,33.7,197.2,28.4,197.4z"/>
	<path class="st1" d="M50.3,197.5l0.4,54.6c0,1.3,1.1,2.2,1.5,2.7c7.8-6.5,12.5-7.7,12.5-7.7L65,198
		C59.8,197.9,55.5,197.6,50.3,197.5z"/>
	<path class="st3" d="M66.1,156.8l-0.8-1.4H29.6l-0.9,1.3l-1.1,46.2c5.3-0.2,11.4-0.1,16.7,0l1.4-37.2h3.6l0.2,37.2
		c5.2,0.2,11.2-0.2,16.4,0L66.1,156.8z"/>
	<path class="st1" d="M28.8,90.9c-3.2,1.7-6,3.8-9.3,7.6c3.6,5.7,3.7,3.7,5.1,10.3c0.6-2.2,4.2,1.3,4.4,0.3c0,0,0,0.9,0,2.3
		C30.5,104.9,30.4,97.7,28.8,90.9z"/>
	<path class="st4" d="M65.9,140.8c0-9.2-1.1-28.5-1.1-28.5c0.1,0.2-2.7-10.7,0.6-21.9c-1.9-0.8-3.8-1.7-5.3-2.2
		c0,0-1.8,9.2-12.5,9.2s-12.8-9.2-12.8-9.2c-2.2,0.8-4.2,1.7-6,2.6c1.6,6.9,1.8,14.1,0.2,20.6c-0.1,6.2-0.2,23.2-0.2,29.4
		c0,7.6-0.2,15.9-0.2,15.9s10.5,0.9,18.5,0.9c7.9,0,18.9-0.9,18.9-0.9S65.9,150,65.9,140.8z"/>
	<path class="st4" d="M14.7,253.7c-1,0.9-1.5,1.1-0.9,2.2c0.3,0.7,1.5,0.6,2.6,0.6H40c1.7,0,1-2.2,1-6.3c-11,0-12.3-4.1-15.1-4.1
		C21.6,248.4,17.1,251.3,14.7,253.7z"/>
	<path class="st4" d="M76.9,253.7c1,0.9,1.5,1.1,0.9,2.2c-0.3,0.7-1.5,0.6-2.6,0.6H51.6c-1.7,0-1-2.2-1-6.3c11,0,12.3-4.1,15.1-4.1
		C68.3,247.4,74.2,251.3,76.9,253.7z"/>
	<path class="st1" d="M22.8,97.6c-0.1-0.1-0.2-0.2-0.4-0.1c-0.2,0-2.7,0.8-2.8,1C2.3,128.3,9.1,133.8,9.1,133.8
		c1.9,2.8,6.4,6.8,19.8,9.7c2.9,0.7,9.8,0.2,13.6-1.3c-0.1-0.8-6.1-8.8-7.8-10.3c-3.3,0-16-3.9-15.9-4.3c3.9-9,9.4-16.2,11.5-18.8
		C30.5,108.6,25.7,100,22.8,97.6z"/>
	<path class="st5" d="M55.8,69.9c-0.2-0.2-0.4-0.3-0.7-0.3H39.9c-0.2,0-0.5,0.2-0.7,0.4c-0.2,0.2-0.2,0.6-0.1,0.9
		c0.4,1.7,3.1,4.7,8.4,4.7l0,0c4.7,0,8.5-2.2,8.5-5C56,70.4,55.9,70,55.8,69.9z"/>
	<path class="st6" d="M54.2,69.7c-0.2-0.1-0.3-0.2-0.5-0.2H41.5c-0.2,0-0.4,0.1-0.6,0.2c-0.2,0.2-0.2,0.3-0.1,0.5
		c0.8,2.2,3.1,2.3,6.5,2.3l0,0c3.1,0,6.9-0.1,7.1-2.4C54.4,69.9,54.3,69.9,54.2,69.7z"/>
	<path class="st1" d="M39.4,141.6c0.2-2.7,2.1-2.6,3.6-5.2c1.3-2.4,2.5-2.6,3.7-7c0.5-1.7,2.5-1.9,2.9,0.3c0.4,2-0.9,4.3-0.9,5
		c2.8-2.3,3.1-7.3,4-7.6c4.4-1.8,1.2,7-0.8,9.5C52.3,135.8,44.1,144.3,39.4,141.6z"/>
	<g>
		<path class="st7" d="M23.8,104.5c8.9-6.2,21.2-4.1,27.3,4.8c6.1,8.8,3.9,21.1-5,27.3c-8.9,6.2-21.2,4.1-27.3-4.8
			C12.7,122.9,15,110.7,23.8,104.5z"/>
		<path class="st8" d="M54.5,119.7c-0.2-0.7-0.6-1.5-1.1-2.2c0-0.1-1-2.1-3.3-2.9c-0.5-0.2-1.2-0.4-2-0.4c-0.9,0-1.7,0.2-2.1,0.3
			c0-0.1-0.1-0.1-0.1-0.2c-0.2-0.3-0.4-0.8-0.7-1.5c-0.3-0.6-1-1.9-1-1.9c1.7-0.7,3.5-1.1,5-1.2c0.1,0,0.2,0,0.2,0
			c1,0,1.8,0.3,2,0.4l0.4,0.2c-0.2-0.3-0.4-0.7-0.7-1.1c-0.1-0.2-0.2-0.3-0.3-0.5c-0.3-0.1-0.7-0.2-1.2-0.2c-0.2,0-0.3,0-0.5,0
			c-0.6,0-1.2,0.1-1.7,0.2c-1.1,0.2-2.5,0.6-3.4,0.8c-0.2,0.1-0.4,0.1-0.6,0.2c-0.1-0.1-0.1-0.2-0.2-0.2c-0.2-0.2-0.4-0.6-0.7-1
			c-0.5-0.7-1-1.2-1.2-1.6c0.6-0.2,1.5-0.7,2.4-1.4c0.5-0.4,0.7-0.8,0.8-1.3c0-0.3,0-0.7-0.2-0.9c-0.6-0.3-1.1-0.6-1.7-0.8l0.2,0.3
			c0.1,0.2,0.2,0.7,0.2,0.9c0,0.2-0.2,0.4-0.4,0.7c-0.3,0.5-1.6,1.1-2.4,1.4l0,0c-0.1-0.1-0.2-0.2-0.3-0.3c-0.8-0.8-2.5-2.5-4.2-3.3
			c-1.2-0.6-2.5-0.9-3.4-1.1c-0.8,0.1-1.7,0.3-2.6,0.6l0.1,0.3h0.2c0,0,0.3,0,0.7,0c0.5,0,1,0,1.4,0.1c0.9,0.2,1.8,0.6,3.1,1.3
			c1.8,1,3,2.2,3.5,2.8c-0.5,0.2-1.4,0.4-2.4,0.6c-1.6,0.2-3.4,0.3-3.4,0.3h-0.2c-0.2,0-0.6,0-1,0c-0.6,0-1.2,0-1.9,0
			c-1.2,0-2.3,0.1-3.2,0.2c-1.9,0.2-3.7,0.8-4.7,1.2l-0.2,0.1c-1.3,0.4-2.7,1.5-3.6,2.2c-0.7,1.1-1.2,2.2-1.6,3.3l0.7-0.9
			c0.2-0.2,0.8-1,1.7-1.7s1.9-1.2,3-1.6c2-0.9,4.6-1.3,8.2-1.3c0.6,0,1.2,0,1.8,0c0.2,0,0.5,0,0.7,0c3.3,0,6-0.7,7.2-1.2
			c0.2,0.2,0.4,0.5,0.7,0.8l0.4,0.5c0.5,0.7,0.9,1.2,1.2,1.6c-0.6,0.2-1.8,0.8-3.9,1.7c-3.1,1.4-3.1,1.4-7.8,4.2l-0.2,0.2
			c-3.1,1.9-5.9,3.9-8.2,5.9c-2,1.7-3.6,3.4-4.2,4.6c-0.4,0.7-0.7,1.3-0.7,1.7c0.2,0.7,0.6,1.2,0.9,1.9l0.2,0.1l-0.2-0.7
			c0,0-0.1-0.4,0.3-1.3c0.4-1.2,1.7-2.6,4.3-5c2.7-2.5,7-5,10.8-7.4c1.8-1.1,4.5-2.5,6.7-3.5c1.2-0.6,2.2-1,2.7-1.2
			c0,0.1,0.1,0.1,0.1,0.2c0.2,0.3,0.4,0.7,0.7,1.4c0.6,1,0.9,1.7,1.1,2.1c-0.3,0.2-0.9,0.6-2.3,1.7c-1.9,1.5-3.5,4.5-4.4,6.7
			l-0.1,0.2c-0.1,0.2-0.2,0.6-0.3,0.9c-0.7,1.6-1.7,4.1-4,7.9c-1.4,2.2-2.4,3.6-3.6,4.8c-0.9,0.9-1.8,1.3-1.8,1.4l-0.4,0.2
			c0.5,0.2,1.1,0.4,1.6,0.5c0.5-0.2,1.3-0.8,2.3-1.9c1.3-1.6,2.4-3,3.2-4.3c1.6-2.6,3.3-6.2,5.1-10.5c1-2.4,2.7-4.5,4.8-5.9l0.1-0.1
			c0.2-0.2,0.4-0.2,0.6-0.3c0.2,0.3,0.6,1.2,1.2,3.7c1.4,5,1.2,7.7,0.7,11.5c-0.5,3.5-3,5.6-3,5.6l-0.2,0.2l0.2,0.3
			c0.7-0.3,1.2-0.7,1.8-1.2c0,0,0.1,0,0.1-0.1l0.2-0.2c0.6-0.7,1.2-1.8,1.6-2.9c0.3-0.8,0.5-1.7,0.6-2.3l0.1-0.6
			c0.4-1.8,0.3-5.9-0.5-9.5c-0.7-2.8-1.2-4.5-1.5-5.1c0.2-0.1,0.7-0.2,1.2-0.2c0.8,0,1.9,0.1,2.7,0.7c1,0.7,2.1,2.2,2.6,3.6l0.1,0.2
			c0.6,1.2,0.7,2.2,0.7,2.3l0.2,1.4h0.1c0.2-1.2,0.3-2.4,0.3-3.6C54.6,120.1,54.5,120,54.5,119.7z"/>
	</g>
	<path class="st1" d="M39.4,141.6c-0.9-0.7-2.2-1.7,1.1-4.3c1.2-0.9,1.8-1.2,3.8-5.5c0.9-2.1,2.7-2.1,2.5,0c-0.2,2-0.7,2.6-0.8,3.3
		c2.8-2.3,3.5-7.4,4.4-7.8c4.1-1.4,0.8,7.1-1.2,9.6C49.6,136.3,44.7,143.6,39.4,141.6z"/>
</g>
</svg>
