<?xml version="1.0" encoding="utf-8"?>
<!-- Generator: Adobe Illustrator 22.1.0, SVG Export Plug-In . SVG Version: 6.00 Build 0)  -->
<svg version="1.1"
	 id="svg4179" inkscape:version="0.91 r13725" sodipodi:docname="Prime Day logo 2015.svg" xmlns:cc="http://creativecommons.org/ns#" xmlns:dc="http://purl.org/dc/elements/1.1/" xmlns:inkscape="http://www.inkscape.org/namespaces/inkscape" xmlns:rdf="http://www.w3.org/1999/02/22-rdf-syntax-ns#" xmlns:sodipodi="http://sodipodi.sourceforge.net/DTD/sodipodi-0.dtd" xmlns:svg="http://www.w3.org/2000/svg"
	 xmlns="http://www.w3.org/2000/svg" xmlns:xlink="http://www.w3.org/1999/xlink" x="0px" y="0px" viewBox="0 0 91.5 256.6"
	 style="enable-background:new 0 0 91.5 256.6;" xml:space="preserve">
<style type="text/css">
	.st0{fill:#FFD4AE;}
	.st1{fill:#3C313F;}
	.st2{fill:#B71C1C;}
	.st3{fill:#968D81;}
	.st4{fill:#C93131;}
	.st5{fill:#EFEAE4;}
	.st6{fill:#C68E75;}
	.st7{fill:#3A1E0A;}
	.st8{fill:#AA3131;}
	.st9{fill:#AA3570;}
</style>
<g>
	<path class="st0" d="M70.1,145c0.7,3.6,0.9,8,0.7,10.8h0.1c0.2,1.7,0.4,2.7,0.5,6c-0.8,0.8-1.4,2.8-2,3.6c-0.7,0.8-2,2.4-0.1,2.5
		c0.5,0,1.9-1.3,2.2-1.2c0.3,0.2-0.2,1.4-0.3,1.7c-0.2,0.7-0.2,1.6-0.2,2.3c0,0.8-0.1,1.7,0.2,2.5c0.2,0.7,0.5,0.8,0.7,0.2
		c0.6-1.3,1.4-2.3,2-3.6c0.7-1.2,1.1-2.6,1.4-4c0.1-0.3,0.2-0.7,0.2-0.9c0.6-3.7,2.2-11,2.3-17.2C75.2,148.1,72.7,147.5,70.1,145z"
		/>
	<rect x="48.6" y="87.1" class="st0" width="10.7" height="17.4"/>
	<path class="st1" d="M71.6,166.5c-0.1-4.2,0-8.3-1-12c-0.1-0.3-0.4-0.5-0.7-0.5c-2.9,0.2-5.9,0.2-8.9,0.2c-7.9,0-14-1.3-22.7-1.8
		c-0.3,0-0.6,1.1-0.7,1.4c-1.2,4-1.2,8.5-1.2,13c-0.1,6.2,5.8,75.8,5,77.7l-0.1,0.1c-0.1,0.2-0.1,0.3-0.1,0.5
		c0.1,0.2-0.6,0.3-0.4,0.4c3.6,1.8,7.4,3.8,10.2,6.4c0.2,0.1,0.3,0.2,0.5,0.2c0.2,0,0.2,0,0.4-0.1c0.7-0.4,0.7-1.1,0.7-2.9l-0.2-87
		h3.3l9.1,87c0,1.3-0.2,2.2,0.6,2.8c0.2,0.2,0.5,0.2,0.7,0.1c4-1.8,7.9-4,10.9-5.9c0.2-0.1-0.5-0.2-0.5-0.4s0-0.3-0.1-0.5
		c-0.2-0.2-0.3-0.5-0.4-0.7C75.1,242.6,71.6,170.6,71.6,166.5z"/>
	<path class="st0" d="M21.9,105v-1.5c0.6-4.1,0.2-9.9-2.1-10.7c-2.8-0.9-0.1,6.4-1.9,6.4c-1.7-1.1-6.5-8.7-8.9-7.4
		c-2.1,1.2,5,6.5,4.4,7.4c-0.5,0.8-6.5-6.4-8.2-4.4C4,96.4,8.4,99.4,9.3,100c0.6,0.5,2.4,2.2,1.2,2.2c-0.3,0-2.2-1-2.9-1.4
		s-2.6-1.4-3.2-0.2c-0.7,1.4,1.9,2.6,2.2,2.8c1.7,0.9,3.2,1.9,4.7,3c0.8,0.7,1.7,1.5,2.6,2.2c1.4,2.2,4.9,13.2,8.7,20.3
		c2.8-1.2,4.9-4.8,6.2-7.6C23.8,112.6,22,104.8,21.9,105z"/>
	<path class="st2" d="M67.7,117.5c0-1.2-0.3-2-0.3-2C67.5,116.2,67.6,116.9,67.7,117.5z"/>
	<path class="st3" d="M68.7,146.4c1.3,3.8-1.7-5.5-2.6-9.9c-1.8-7.4,0.4-15.1,0.8-15.7c0.6-1.1,0.7-2.2,0.7-3.1
		c-0.1-0.7-0.2-1.3-0.3-2c0,0,0.2,0.8,0.3,2c2,12.9,2.4,22.3,2.4,27.5c0.3,2.4,5.1,3.1,7.7,2.3c0.1-8.7-0.4-17.6-0.9-21.2
		c-3-22.2-5.3-24.4-11.2-28c-0.2-0.2-1.2-0.9-3.4-1.9c-0.1-0.1-3.1-1.7-3.1-1.7s-0.5,3.6-5,3.6s-5.6-3.6-5.6-3.6s-2.5,1.5-2.6,1.6
		c-7.1,2.9-9.8,7.5-11.7,12.4c-0.7,1.8-4,16-4.9,14.1c-0.2-0.3-0.6-0.7-0.8-1.2c-1.3,2.8-3.9,5.5-6.7,6.7c0.6,1.2,1.2,2.2,1.7,2.9
		c3.5,5.4,8.8,7.1,12.7-0.2c2.2-4,3.6-13.5,4.6-17.6c0.2,0.6-0.9,3.6,0.3,6.6c1.3,3.2,1.4,14.1-0.1,20.5c-0.8,3.6-3.2,9.7-4.3,15.8
		c0,0,4.3,1.8,16.1,1.8s17.8-1.8,17.8-1.8C70.9,151.9,69,147.4,68.7,146.4z"/>
	<path class="st4" d="M31.8,250c-0.9,0.6-1.2,0.8-0.7,1.7c0.2,0.5,1.2,0.4,2.1,0.4h18.7c1.4,0,0.7-1.7,0.7-4.8
		c-8.7,0-9.1-3.1-11.3-3.1C39.9,245.9,33.9,248.6,31.8,250z"/>
	<path class="st5" d="M36.4,250.4c0,0-0.7-1.9-1.5-2.1c-0.9-0.2-4.5,2-4.5,2.6s-0.4,1.2,2,1.2c2.3,0,4,0,4,0S36.7,251.8,36.4,250.4z
		"/>
	<path class="st5" d="M53.1,251.8c0,0.3,0.1,0.7-0.3,0.7H31.1c-0.3,0-0.7-0.2-0.7-0.7l0,0c0-0.3,0.2-0.7,0.7-0.7h21.7
		C53.1,251.2,53.1,251.5,53.1,251.8L53.1,251.8z"/>
	<path class="st5" d="M39.1,249.4c-0.2,0-0.5-0.2-0.6-0.4c-0.2-0.5-0.8-1.1-1.2-1.3l-0.2-0.2c-0.2-0.2-0.2-0.7,0-1
		c0.2-0.2,0.7-0.2,1,0l0.2,0.2c0.4,0.3,1.1,1,1.5,1.7c0.2,0.3,0,0.7-0.3,0.9C39.3,249.4,39.2,249.4,39.1,249.4z"/>
	<path class="st5" d="M41.3,248c-0.2,0-0.5-0.2-0.7-0.4c-0.2-0.4-0.9-1.2-1.2-1.4c-0.3-0.2-0.4-0.6-0.2-0.9c0.2-0.3,0.6-0.4,0.9-0.2
		c0.5,0.3,1.4,1.3,1.7,2c0.2,0.3,0,0.7-0.3,0.9C41.4,247.9,41.3,248,41.3,248z"/>
	<path class="st4" d="M85.3,250c0.9,0.6,1.2,0.8,0.7,1.7c-0.2,0.5-1.2,0.4-2.1,0.4H65.3c-1.4,0-0.7-1.7-0.7-4.8
		c8.7,0,9.1-3.1,11.3-3.1C77.2,245.9,83.3,248.6,85.3,250z"/>
	<path class="st5" d="M80.8,250.4c0,0,0.7-1.9,1.5-2.1c0.9-0.2,4.5,2,4.5,2.6c-0.1,0.7,0.4,1.2-2,1.2c-2.3,0-4,0-4,0
		S80.5,251.8,80.8,250.4z"/>
	<path class="st5" d="M64.1,251.8c0,0.3-0.1,0.7,0.3,0.7h21.7c0.3,0,0.7-0.2,0.7-0.7l0,0c0-0.3-0.2-0.7-0.7-0.7H64.4
		C64.1,251.2,64.1,251.5,64.1,251.8L64.1,251.8z"/>
	<path class="st5" d="M78.1,249.4c-0.1,0-0.2,0-0.2-0.1c-0.3-0.2-0.5-0.6-0.3-0.9c0.3-0.7,1.1-1.4,1.5-1.7l0.2-0.2
		c0.2-0.2,0.7-0.2,1,0c0.2,0.2,0.2,0.7,0,1l-0.2,0.2c-0.3,0.2-0.9,0.8-1.2,1.3C78.6,249.2,78.3,249.4,78.1,249.4z"/>
	<path class="st5" d="M75.9,248c-0.1,0-0.2,0-0.2-0.1c-0.3-0.2-0.5-0.6-0.3-0.9c0.3-0.7,1.2-1.7,1.7-2c0.3-0.2,0.7-0.1,0.9,0.2
		c0.2,0.3,0.1,0.7-0.2,0.9c-0.3,0.2-1,0.9-1.2,1.4C76.4,247.8,76.2,248,75.9,248z"/>
	<path class="st0" d="M78.1,26.8c-5.3-7.4-10.7-7.7-19.4-8h-9.4c-8.7,0.3-14.1,0.6-19.4,8s-3.2,9.3-2.8,18.4
		c0.3,6.8-3.7,2.1-0.9,20.9s19.2,25,27.9,25S78,86,82,66.1c4.1-19.8-1.2-14.1-0.9-20.9C81.4,36.3,83.4,34.3,78.1,26.8z"/>
	<path class="st6" d="M53.5,83.1c-3,0-5.6-1.2-7.5-3.3c-0.4-0.4-0.3-1.2,0.1-1.5c0.4-0.4,1.2-0.3,1.5,0.1c2.2,2.5,5,2.6,6.5,2.6
		c2.3-0.2,4.5-1.2,5.5-2.6c0.3-0.5,1-0.6,1.5-0.2c0.5,0.3,0.6,1,0.2,1.5c-1.3,1.9-4.1,3.3-7.1,3.5C53.9,83,53.7,83.1,53.5,83.1z"/>
	<path class="st7" d="M42.4,62c0,2.5-1.7,4.5-3.8,4.5c-2.2,0-3.8-2.1-3.8-4.5c0-2.5,1.7-4.5,3.8-4.5C40.8,57.4,42.4,59.5,42.4,62z"
		/>
	<path class="st7" d="M43.4,54.8c-0.3,0-0.7-0.2-0.9-0.4c-1.1-1.2-2.6-1.5-3.6-1.5c-1.7,0-3.3,0.6-4.2,1.6c-0.4,0.5-1.2,0.5-1.7,0.1
		c-0.5-0.4-0.5-1.2-0.1-1.7c1.4-1.4,3.6-2.3,6-2.2c2.2,0,4,0.8,5.3,2.3c0.4,0.5,0.4,1.2-0.1,1.7C44,54.7,43.7,54.8,43.4,54.8z"/>
	<path class="st7" d="M65.7,54.7c-0.2,0-0.5-0.1-0.7-0.2c-0.5-0.4-0.6-1.2-0.2-1.7c1-1.2,2.8-2.1,4.8-2.2c2.2-0.1,4.1,0.7,5.5,2.1
		c0.4,0.5,0.4,1.2,0,1.7c-0.5,0.4-1.2,0.4-1.7,0C72.2,53,70.6,53,69.8,53c-1.5,0.1-2.6,0.7-3.1,1.3C66.4,54.5,66.1,54.7,65.7,54.7z"
		/>
	<path class="st7" d="M73.3,62c0,2.5-1.7,4.5-3.8,4.5c-2.2,0-3.8-2.1-3.8-4.5c0-2.5,1.7-4.5,3.8-4.5C71.6,57.4,73.3,59.5,73.3,62z"
		/>
	<path class="st8" d="M68.7,71.6c-3.3,0-6.1-1.3-7.8-3.6c-1.7-2.4-2.8-6.2-2.8-8.2c0-4.6,15.1-4.7,15.2-4.7c5.7,0,8.5,1,8.5,3.1
		C81.8,66.9,75.1,71.6,68.7,71.6z M60.4,59.9c0,1.7,1.1,4.9,2.4,6.8c1.2,1.7,3.3,2.6,5.9,2.6c5.2,0,10.7-3.9,10.8-11
		c-0.4-0.2-2.1-0.9-6.2-0.9C66.6,57.5,61,58.9,60.4,59.9z"/>
	<path class="st8" d="M39.2,71.6L39.2,71.6c-6.4,0-13.1-4.7-13.1-13.5c0-0.7,0-3.1,8.8-3.1c0.6,0,14.9,0.1,14.9,4.7
		c0,2-1.2,5.8-2.8,8.2C45.4,70.3,42.5,71.6,39.2,71.6z M28.4,58.3c0.1,7.1,5.6,11,10.8,11l0,0c2.6,0,4.7-1,5.9-2.6
		c1.4-2,2.4-5.2,2.4-6.9c-0.4-0.9-5.9-2.4-12.6-2.4C30.6,57.4,28.9,58,28.4,58.3z"/>
	<path class="st8" d="M48.9,62.3c-0.4,0-0.7-0.2-1-0.5c-0.3-0.5-0.2-1.2,0.3-1.6c2.1-1.4,9.5-1.1,11.3-0.3c0.6,0.2,0.9,0.9,0.7,1.5
		c-0.2,0.6-0.9,0.9-1.5,0.7c-1.5-0.7-7.9-0.7-9.1,0.2C49.3,62.3,49,62.3,48.9,62.3z"/>
	<path class="st9" d="M88.6,46.6c0-15.4-5-29-19-34.1c-19.5-7-40.9-2-50.8,19.9c-3.9,8.6-3.3,27,0.1,35.8c4.7,12.3,8.7,16,9.8,16.9
		c-4.2-17.9-0.2-33.9,0-34.4c-0.2,0.7,45.4-11.2,48.8-14.6c4.4,12.2,5.9,23.5,4.5,30C87.7,59.6,88.6,52.5,88.6,46.6z"/>
</g>
</svg>
