<?xml version="1.0" encoding="utf-8"?>
<!-- Generator: Adobe Illustrator 22.1.0, SVG Export Plug-In . SVG Version: 6.00 Build 0)  -->
<svg version="1.1"
	 id="svg4179" inkscape:version="0.91 r13725" sodipodi:docname="Prime Day logo 2015.svg" xmlns:cc="http://creativecommons.org/ns#" xmlns:dc="http://purl.org/dc/elements/1.1/" xmlns:inkscape="http://www.inkscape.org/namespaces/inkscape" xmlns:rdf="http://www.w3.org/1999/02/22-rdf-syntax-ns#" xmlns:sodipodi="http://sodipodi.sourceforge.net/DTD/sodipodi-0.dtd" xmlns:svg="http://www.w3.org/2000/svg"
	 xmlns="http://www.w3.org/2000/svg" xmlns:xlink="http://www.w3.org/1999/xlink" x="0px" y="0px" viewBox="0 0 91.5 256.6"
	 style="enable-background:new 0 0 91.5 256.6;" xml:space="preserve">
<style type="text/css">
	.st0{fill:#FFCC99;}
	.st1{fill:#4C414F;}
	.st2{fill:#7FA5B2;}
	.st3{fill:#D67B30;}
	.st4{fill:#BA8663;}
	.st5{fill:#66666D;}
</style>
<g>
	<g>
		<path class="st0" d="M91.4,169.2c-2.7-24.8-10.9-55.4-17.4-65.2c-1.1-1.6-2.4-3.1-4.1-4.6c-0.3,1.3-0.6,2.6-0.8,4
			c-2-4.3-5.7-8.4-15.5-11.7v-9H37.7v9c-8.5,2.9-12.9,6-15.5,9.4c-0.1-0.7-0.2-1.4-0.2-2.1c-1.8,1.6-3.4,3.3-4.5,5
			c-6.5,9.8-14.6,40.4-17.4,65.2c0,0.2-0.7,7.5,2,14.5c2.2,5.7,6.2,9.4,8,5.5c0.7-1.3-2.6-7.4-0.7-11.7c0.2-0.7,1.1-0.7,1.5-0.7
			c0.6,0,0.2,5.2,0.4,5.8c0.4,1.8,3.6,1.7,3.7-0.3l0.5-7.4c0.1-1.2,0.1-2.2-0.9-3.1c-0.6-0.6-1-1-1.3-1.6c0.1,0,0.2-0.1,0.2-0.2
			c0.1-0.1,0.1-0.2,0-0.3c-0.2-0.4,3.6-27.3,8.9-44.2c0.6-3.5,0.8-6.9,0.8-10.3c0.1-0.2,0.1-0.5,0.2-0.7l42.7-5.2
			c0.5,2.6,1.2,5.9,2.2,9.4c0.1,2,0.2,3.9,0.4,5.8c5.5,16.9,9.4,44.7,9.3,45.2c-0.1,0.1-0.1,0.2,0,0.3c0.1,0.1,0.1,0.2,0.2,0.2
			c-0.3,0.6-0.7,1-1.3,1.6c-1,1-1,1.9-0.9,3.1l0.5,7.4c0.2,2,3.3,2.2,3.7,0.3c0.1-0.5-0.2-5.8,0.4-5.8c0.4,0,1.2,0.1,1.5,0.7
			c1.9,4.2-1.3,10.3-0.7,11.7c1.8,3.9,5.6,0.2,8-5.5C92.4,176.8,91.4,169.4,91.4,169.2z"/>
		<path class="st0" d="M63.1,58.5c-1,5.5,2.3,10.1,7.3,11c5,1,9.8-2,10.8-7.4s-2.3-10.8-7.3-11.7C68.9,49.4,64,53,63.1,58.5z"/>
		<path class="st0" d="M28.4,58.5c1,5.5-2.3,10.1-7.3,11c-5,1-9.8-2-10.8-7.4s2.3-10.8,7.3-11.7C22.6,49.4,27.4,53,28.4,58.5z"/>
		<path class="st0" d="M70.5,21.6C65.7,15,58.1,10.7,50,10.3c0,0-0.2,0-0.4,0V10c0,0-2,0.1-4,0.2c-2-0.1-4-0.2-4-0.2v0.3
			c-0.2,0-0.4,0-0.4,0c-8,0.3-15.6,4.6-20.5,11.2c-4.9,6.6-5.5,15-5.1,22.9c0.3,6,1.3,15.7,1.7,21.7c4.9,18.3,17,21.3,28.4,21.3
			S69.5,84.4,74,66.2c0.3-6,1.3-15.7,1.7-21.7C76.1,36.5,75.4,28.1,70.5,21.6z"/>
		<path class="st1" d="M16.1,253.9c-1.2,2.5,0.4,2.2,1.3,2.2h21.2c0.2,0,1.7-0.2,2.4-1.2c-1.7-3.3-9.9-6.9-14.9-8.8
			C26.1,246,17.9,250.2,16.1,253.9z"/>
		<path class="st1" d="M75.3,253.9c-2-3.5-9.7-7.8-9.7-7.8c-4.6,1.7-12.2,4.7-15.2,8.8c0.2,0.2,0.5,0.4,0.7,0.5
			c0.7,0.4,1.4,0.5,1.7,0.5h21.2C74.9,256,76.7,256.3,75.3,253.9z M52.9,255.6L52.9,255.6L52.9,255.6z"/>
		<path class="st2" d="M65.9,246.3c0,0,7.6-42.4,7.6-75.5c0-35.3-55.7-38.2-55.7-0.2c0,34.7,7.7,75.6,7.7,75.6s9.1,3.5,15.5,8.8
			c0.4-0.5,0.4-1.4,0.4-2.5l3.8-70l4.5,70c0,1.2,0.2,2.2,0.7,2.6C58.5,249.1,65.9,246.3,65.9,246.3z"/>
		<path class="st3" d="M24.5,50.8c-0.3,0-0.6-0.1-0.8-0.3c-0.4-0.5-0.4-1.2,0.1-1.6c2.2-1.9,8.9-2.8,12-1c0.5,0.3,0.7,1,0.4,1.6
			c-0.3,0.6-1,0.7-1.6,0.4c-2.2-1.2-7.9-0.7-9.3,0.7C25,50.8,24.7,50.8,24.5,50.8z"/>
		<path class="st3" d="M68.1,51.3c-0.3,0-0.7-0.2-0.9-0.4c-1.2-1.4-7.1-2.1-9.5-1.1c-0.6,0.2-1.2-0.1-1.5-0.7
			c-0.2-0.6,0.1-1.2,0.7-1.5c2.9-1.2,10.1-0.7,12.2,1.7c0.4,0.5,0.3,1.2-0.2,1.6C68.6,51.2,68.3,51.3,68.1,51.3z"/>
		<path class="st4" d="M45.4,79c-3.6,0-6.7-0.9-8.8-2.6c-0.5-0.4-0.6-1.1-0.2-1.6c0.4-0.5,1.1-0.6,1.6-0.2c1.7,1.4,4.9,2.2,8.4,2
			c3.1-0.2,6-1.1,7-2.2c0.4-0.5,1.2-0.5,1.6-0.1c0.5,0.4,0.5,1.2,0.1,1.6c-1.5,1.7-4.8,2.8-8.6,3C46.2,79,45.7,79,45.4,79z"/>
		<path class="st3" d="M21.1,32.7c-0.4,0.8-0.2,5.2,4.5,5c4.2-0.2,6.6-2.7,8.7-4.9c0,0-4,6.3,1.3,7.5c5.3,1.2,10.3-5.6,10.3-5.6
			c-0.7,0.6-0.8,3.5,1.2,4.5c3.2,1.5,10.7,0.3,19-10.6c7.8,9.8,8.4,26.8,8.4,28c0,0.5,0.2,1.8,0.8,1.7c0.7-0.2,0.8-2.7,0.8-3.3
			c0.5-4,0.7-8,0.7-12c0-7.4,2.2-21.5-11.2-30.3c-8.2-5.5-25.1-6-34.5-2.9c-6.5,2.2-12.8,7.7-15.2,14.2c-2.6,7.1-2.5,12.7-1.7,26.8
			c0.1,1.6,0.2,3.1,0.5,4.5c0.2,1,0.2,2.1,0.5,3.1c0.5,2.2,1.2,0.6,1.2-0.7C16.7,55.5,16.1,40.4,21.1,32.7z"/>
		<path class="st4" d="M34.7,59.4c-0.2,0-0.3,0-0.5-0.1c-3.4-1.7-8-0.9-9-0.1c-0.5,0.4-1.2,0.2-1.6-0.2c-0.4-0.5-0.2-1.2,0.2-1.6
			c1.8-1.4,7.4-2.1,11.4-0.1c0.6,0.2,0.8,1,0.5,1.5C35.5,59.1,35.1,59.4,34.7,59.4z"/>
		<path class="st4" d="M66.6,59.2c-0.2,0-0.3,0-0.5-0.1c-2-1-6.6-1.4-8.8-0.1c-0.5,0.3-1.2,0.2-1.6-0.3c-0.3-0.5-0.2-1.2,0.3-1.6
			c3.1-1.9,8.4-1.3,11-0.1c0.6,0.2,0.8,0.9,0.5,1.5C67.4,59,67,59.2,66.6,59.2z"/>
	</g>
	<path class="st5" d="M69.7,126.3L69.7,126.3c-0.2-1.2-0.3-1.9-0.3-2.2c0-0.1,0-0.2,0-0.2c-0.4-3.5-0.5-6.9-0.4-10.2
		c4.9-2.5,8.4-3.6,8.4-3.6c-1.2-6-5-9.6-6.6-11c0-0.1-0.1-0.2-0.2-0.2c-3.1-2.7-8.1-4.5-12.5-6.2c-0.1,0-3.1,6-12.5,6
		c-7.8,0-12-6.1-12.1-6c-4.4,1.7-9.2,3.3-12,5.7c0,0-5.9,3.8-7.5,11.7c0,0,3.6,1.2,8.6,3.7c0.1,3.2,0,6.5-0.4,10.1
		c0,0.2-0.1,0.2-0.1,0.4c-0.2,0.9-0.6,3.9-2.1,9.3c-1.3,4.9-4.4,14.9-4.4,24.1c0,6,1,10.9,6,15c3.5,2.8,11.4,5.5,24.1,5.5
		c12.2,0,20.8-2.8,24.1-5.5c5-4.1,6-8.9,6-15c0-9.3-3.1-19.2-4.4-24.1C70.6,130.7,70.1,128.3,69.7,126.3z"/>
</g>
</svg>
