<?xml version="1.0" encoding="UTF-8" standalone="no"?>
<!-- Generator: Adobe Illustrator 22.1.0, SVG Export Plug-In . SVG Version: 6.00 Build 0)  -->

<svg
   xmlns:dc="http://purl.org/dc/elements/1.1/"
   xmlns:cc="http://creativecommons.org/ns#"
   xmlns:rdf="http://www.w3.org/1999/02/22-rdf-syntax-ns#"
   xmlns:svg="http://www.w3.org/2000/svg"
   xmlns="http://www.w3.org/2000/svg"
   xmlns:sodipodi="http://sodipodi.sourceforge.net/DTD/sodipodi-0.dtd"
   xmlns:inkscape="http://www.inkscape.org/namespaces/inkscape"
   version="1.1"
   id="svg4179"
   inkscape:version="0.92.3 (2405546, 2018-03-11)"
   sodipodi:docname="FlowChart1.html"
   x="0px"
   y="0px"
   viewBox="0 0 1140 795.99997"
   xml:space="preserve"
   width="1140"
   height="796"><metadata
   id="metadata417"><rdf:RDF><cc:Work
       rdf:about=""><dc:format>image/svg+xml</dc:format><dc:type
         rdf:resource="http://purl.org/dc/dcmitype/StillImage" /><dc:title></dc:title></cc:Work></rdf:RDF></metadata><defs
   id="defs415" />
<style
   type="text/css"
   id="style2">
	.st0{fill:#929090;}
	.st1{fill:#EDEEEE;}
	.st2{fill:#F6F6F6;}
	.st3{fill:url(#SVGID_1_);}
	.st4{fill:url(#SVGID_2_);}
	.st5{fill:#D6D6D6;}
	.st6{fill:url(#SVGID_3_);}
	.st7{fill:url(#SVGID_4_);}
	.st8{fill:url(#SVGID_5_);}
	.st9{fill:url(#SVGID_6_);}
	.st10{fill:url(#SVGID_7_);}
	.st11{fill:url(#SVGID_8_);}
	.st12{fill:url(#SVGID_9_);}
	.st13{fill:url(#SVGID_10_);}
	.st14{fill:url(#SVGID_11_);}
	.st15{fill:url(#SVGID_12_);}
	.st16{fill:url(#SVGID_13_);}
	.st17{fill:#FFFFFF;}
	.st18{fill:url(#SVGID_14_);}
	.st19{fill:#3F3B39;}
	.st20{fill:#888888;}
	.st21{fill:url(#SVGID_15_);}
	.st22{fill:url(#SVGID_16_);}
	.st23{fill:url(#SVGID_17_);}
	.st24{fill:url(#SVGID_18_);}
	.st25{fill:url(#SVGID_19_);}
	.st26{fill:url(#SVGID_20_);}
	.st27{fill:url(#SVGID_21_);}
	.st28{fill:url(#SVGID_22_);}
	.st29{fill:url(#SVGID_23_);}
	.st30{fill:url(#SVGID_24_);}
	.st31{fill:url(#SVGID_25_);}
	.st32{fill:url(#SVGID_26_);}
	.st33{fill:url(#SVGID_27_);}
	.st34{fill:#ABABAB;}
	.st35{fill:#780000;}
	.st36{fill:#D19161;}
	.st37{fill:#2B2B2B;}
	.st38{fill:#787878;}
	.st39{fill:#618CC7;}
	.st40{fill:#406BA3;}
	.st41{fill:#4D4D4D;}
	.st42{fill:#CCCCCC;}
	.st43{fill:#990000;}
	.st44{fill:#F5B382;}
	.st45{fill:#999999;}
	.st46{fill:#A6BDDE;}
	.st47{fill:#57331A;}
	.st48{fill:#E3A370;}
	.st49{fill:#F7C7A1;}
	.st50{fill:#E6CC80;}
	.st51{fill:#C2AB5C;}
	.st52{opacity:0.5;fill:#FFFFFF;enable-background:new    ;}
	.st53{fill:#9CB5D6;}
	.st54{fill:#00A9CE;}
	.st55{fill:#808080;}
	.st56{fill:#00A3C8;}
	.st57{fill:#616161;}
	.st58{font-family:'Montserrat-Light';}
	.st59{font-size:41.8227px;}
	.st60{fill:none;}
	.st61{fill:#EDE4CC;}
	.st62{fill:#E5C26A;}
	.st63{fill:#FEC997;}
</style>
<sodipodi:namedview
   bordercolor="#666666"
   borderopacity="1.0"
   fit-margin-bottom="0"
   fit-margin-left="0"
   fit-margin-right="0"
   fit-margin-top="0"
   id="base"
   inkscape:current-layer="svg4179"
   inkscape:cx="416.078"
   inkscape:cy="469.32014"
   inkscape:document-units="px"
   inkscape:pageopacity="0.0"
   inkscape:pageshadow="2"
   inkscape:window-height="1356"
   inkscape:window-maximized="1"
   inkscape:window-width="2560"
   inkscape:window-x="-8"
   inkscape:window-y="-8"
   inkscape:zoom="0.49497475"
   pagecolor="#ffffff"
   showgrid="false">
	</sodipodi:namedview>












<g
   id="g637"
   transform="matrix(1.1639636,0,0,1.0702642,35.523312,53.519015)"><g
     id="g238">
	<path
   id="path5"
   d="M 889,302.4 H 775.4 c -0.8,0 -1.5,-0.7 -1.5,-1.5 v -82.1 c 0,-0.8 0.7,-1.5 1.5,-1.5 0,0 0,0 0,0 H 889 c 0.8,0 1.5,0.6 1.5,1.4 0,0 0,0 0,0 v 82 c 0,1 -0.6,1.7 -1.5,1.7 0,0 0,0 0,0 z"
   class="st0"
   inkscape:connector-curvature="0"
   style="fill:#929090" />
	<path
   id="path7"
   d="m 764.5,305.2 c 0.1,1.3 1.2,2.2 2.4,2.2 h 130.8 c 1.2,0.1 2.3,-0.9 2.4,-2.1 0,0 0,0 0,0 v -0.5 H 764.5 Z"
   class="st0"
   inkscape:connector-curvature="0"
   style="fill:#929090" />
	<rect
   id="rect9"
   height="5.1999998"
   width="135.60001"
   class="st1"
   y="299.60001"
   x="764.40002"
   style="fill:#edeeee" />
	<rect
   id="rect11"
   height="70.099998"
   width="105.1"
   class="st2"
   y="223.3"
   x="779.79999"
   style="fill:#f6f6f6" />
	<path
   id="path13"
   d="m 843.3,303.5 h -22.1 c -0.1,0 -0.1,-0.1 -0.1,-0.2 v -0.9 c 0,-0.1 0.1,-0.1 0.1,-0.2 h 22.1 c 0.1,0 0.1,0.1 0.1,0.2 v 0.9 c 0,0.1 0,0.1 -0.1,0.2 z"
   class="st0"
   inkscape:connector-curvature="0"
   style="fill:#929090" />
	
		<linearGradient
   gradientTransform="matrix(1,0,0,-1,0,646.8817)"
   y2="409.11761"
   x2="835.37903"
   y1="409.11761"
   x1="829.72821"
   gradientUnits="userSpaceOnUse"
   id="SVGID_1_">
		<stop
   id="stop15"
   style="stop-color:#00A9CE"
   offset="0" />
		<stop
   id="stop17"
   style="stop-color:#00A9CE"
   offset="1" />
	</linearGradient>
	<path
   id="path20"
   d="m 832.6,234.9 c -1.6,0 -2.8,1.3 -2.8,2.8 0,1.6 1.3,2.8 2.8,2.8 1.6,0 2.8,-1.3 2.8,-2.8 0,0 0,0 0,0 0,-1.5 -1.3,-2.8 -2.8,-2.8 z"
   class="st3"
   style="fill:url(#SVGID_1_)"
   inkscape:connector-curvature="0" />
	
		<linearGradient
   gradientTransform="matrix(1,0,0,-1,0,646.8817)"
   y2="402.51419"
   x2="836.72778"
   y1="402.51419"
   x1="828.37378"
   gradientUnits="userSpaceOnUse"
   id="SVGID_2_">
		<stop
   id="stop22"
   style="stop-color:#00A9CE"
   offset="0" />
		<stop
   id="stop24"
   style="stop-color:#00A9CE"
   offset="1" />
	</linearGradient>
	<path
   id="path27"
   d="m 834.2,241.4 h -3.4 c -0.5,0 -0.9,0.3 -1.1,0.7 l -1.1,2.2 c -0.5,1 -0.1,2.2 0.9,2.8 0.3,0.2 0.6,0.2 0.9,0.2 h 4.2 c 1.1,0 2.1,-0.9 2.1,-2 0,-0.3 -0.1,-0.7 -0.2,-0.9 l -1.1,-2.2 c -0.3,-0.5 -0.7,-0.8 -1.2,-0.8 z"
   class="st4"
   style="fill:url(#SVGID_2_)"
   inkscape:connector-curvature="0" />
	<rect
   id="rect29"
   height="5"
   width="26.700001"
   class="st5"
   y="253.39999"
   x="819.79999"
   style="fill:#d6d6d6" />
	<rect
   id="rect31"
   height="5"
   width="26.700001"
   class="st5"
   y="262.70001"
   x="819.79999"
   style="fill:#d6d6d6" />
	
		<linearGradient
   gradientTransform="matrix(1,0,0,-1,0,646.8817)"
   y2="370.45001"
   x2="846.48499"
   y1="370.45001"
   x1="819.77838"
   gradientUnits="userSpaceOnUse"
   id="SVGID_3_">
		<stop
   id="stop33"
   style="stop-color:#00A9CE"
   offset="0" />
		<stop
   id="stop35"
   style="stop-color:#00A9CE"
   offset="1" />
	</linearGradient>
	<rect
   id="rect38"
   height="5"
   width="26.700001"
   class="st6"
   y="273.89999"
   x="819.79999"
   style="fill:url(#SVGID_3_)" />
	
		<linearGradient
   gradientTransform="matrix(1,0,0,-1,0,646.8817)"
   y2="390.99289"
   x2="823.31207"
   y1="390.99289"
   x1="821.78137"
   gradientUnits="userSpaceOnUse"
   id="SVGID_4_">
		<stop
   id="stop40"
   style="stop-color:#00A9CE"
   offset="0" />
		<stop
   id="stop42"
   style="stop-color:#00A9CE"
   offset="1" />
	</linearGradient>
	<circle
   id="circle45"
   r="0.80000001"
   cy="255.89999"
   cx="822.5"
   class="st7"
   style="fill:url(#SVGID_4_)" />
	
		<linearGradient
   gradientTransform="matrix(1,0,0,-1,0,646.8817)"
   y2="390.99289"
   x2="825.54309"
   y1="390.99289"
   x1="824.02863"
   gradientUnits="userSpaceOnUse"
   id="SVGID_5_">
		<stop
   id="stop47"
   style="stop-color:#00A9CE"
   offset="0" />
		<stop
   id="stop49"
   style="stop-color:#00A9CE"
   offset="1" />
	</linearGradient>
	<circle
   id="circle52"
   r="0.80000001"
   cy="255.89999"
   cx="824.79999"
   class="st8"
   style="fill:url(#SVGID_5_)" />
	
		<linearGradient
   gradientTransform="matrix(1,0,0,-1,0,646.8817)"
   y2="390.99289"
   x2="827.79028"
   y1="390.99289"
   x1="826.25958"
   gradientUnits="userSpaceOnUse"
   id="SVGID_6_">
		<stop
   id="stop54"
   style="stop-color:#00A9CE"
   offset="0" />
		<stop
   id="stop56"
   style="stop-color:#00A9CE"
   offset="1" />
	</linearGradient>
	<circle
   id="circle59"
   r="0.80000001"
   cy="255.89999"
   cx="827"
   class="st9"
   style="fill:url(#SVGID_6_)" />
	
		<linearGradient
   gradientTransform="matrix(1,0,0,-1,0,646.8817)"
   y2="390.99289"
   x2="830.02142"
   y1="390.99289"
   x1="828.4906"
   gradientUnits="userSpaceOnUse"
   id="SVGID_7_">
		<stop
   id="stop61"
   style="stop-color:#00A9CE"
   offset="0" />
		<stop
   id="stop63"
   style="stop-color:#00A9CE"
   offset="1" />
	</linearGradient>
	<circle
   id="circle66"
   r="0.80000001"
   cy="255.89999"
   cx="829.29999"
   class="st10"
   style="fill:url(#SVGID_7_)" />
	
		<linearGradient
   gradientTransform="matrix(1,0,0,-1,0,646.8817)"
   y2="390.99289"
   x2="832.25232"
   y1="390.99289"
   x1="830.73792"
   gradientUnits="userSpaceOnUse"
   id="SVGID_8_">
		<stop
   id="stop68"
   style="stop-color:#00A9CE"
   offset="0" />
		<stop
   id="stop70"
   style="stop-color:#00A9CE"
   offset="1" />
	</linearGradient>
	<circle
   id="circle73"
   r="0.80000001"
   cy="255.89999"
   cx="831.5"
   class="st11"
   style="fill:url(#SVGID_8_)" />
	
		<linearGradient
   gradientTransform="matrix(1,0,0,-1,0,646.8817)"
   y2="390.99289"
   x2="834.49957"
   y1="390.99289"
   x1="832.96881"
   gradientUnits="userSpaceOnUse"
   id="SVGID_9_">
		<stop
   id="stop75"
   style="stop-color:#00A9CE"
   offset="0" />
		<stop
   id="stop77"
   style="stop-color:#00A9CE"
   offset="1" />
	</linearGradient>
	<circle
   id="circle80"
   r="0.80000001"
   cy="255.89999"
   cx="833.70001"
   class="st12"
   style="fill:url(#SVGID_9_)" />
	
		<linearGradient
   gradientTransform="matrix(1,0,0,-1,0,646.8817)"
   y2="381.67819"
   x2="823.31207"
   y1="381.67819"
   x1="821.78137"
   gradientUnits="userSpaceOnUse"
   id="SVGID_10_">
		<stop
   id="stop82"
   style="stop-color:#00A9CE"
   offset="0" />
		<stop
   id="stop84"
   style="stop-color:#00A9CE"
   offset="1" />
	</linearGradient>
	<circle
   id="circle87"
   r="0.80000001"
   cy="265.20001"
   cx="822.5"
   class="st13"
   style="fill:url(#SVGID_10_)" />
	
		<linearGradient
   gradientTransform="matrix(1,0,0,-1,0,646.8817)"
   y2="381.67819"
   x2="825.54309"
   y1="381.67819"
   x1="824.02863"
   gradientUnits="userSpaceOnUse"
   id="SVGID_11_">
		<stop
   id="stop89"
   style="stop-color:#00A9CE"
   offset="0" />
		<stop
   id="stop91"
   style="stop-color:#00A9CE"
   offset="1" />
	</linearGradient>
	<circle
   id="circle94"
   r="0.80000001"
   cy="265.20001"
   cx="824.79999"
   class="st14"
   style="fill:url(#SVGID_11_)" />
	
		<linearGradient
   gradientTransform="matrix(1,0,0,-1,0,646.8817)"
   y2="381.67819"
   x2="827.79028"
   y1="381.67819"
   x1="826.25958"
   gradientUnits="userSpaceOnUse"
   id="SVGID_12_">
		<stop
   id="stop96"
   style="stop-color:#00A9CE"
   offset="0" />
		<stop
   id="stop98"
   style="stop-color:#00A9CE"
   offset="1" />
	</linearGradient>
	<circle
   id="circle101"
   r="0.80000001"
   cy="265.20001"
   cx="827"
   class="st15"
   style="fill:url(#SVGID_12_)" />
	
		<linearGradient
   gradientTransform="matrix(1,0,0,-1,0,646.8817)"
   y2="381.67819"
   x2="830.02142"
   y1="381.67819"
   x1="828.4906"
   gradientUnits="userSpaceOnUse"
   id="SVGID_13_">
		<stop
   id="stop103"
   style="stop-color:#00A9CE"
   offset="0" />
		<stop
   id="stop105"
   style="stop-color:#00A9CE"
   offset="1" />
	</linearGradient>
	<circle
   id="circle108"
   r="0.80000001"
   cy="265.20001"
   cx="829.29999"
   class="st16"
   style="fill:url(#SVGID_13_)" />
	<g
   id="g114">
		<rect
   id="rect110"
   height="46.099998"
   width="77.900002"
   class="st17"
   y="238.39999"
   x="721.5"
   style="fill:#ffffff" />
		<path
   id="path112"
   d="M 800,285.1 H 721 V 238 h 79 z m -78,-1 h 77 V 239 h -77 z"
   class="st0"
   inkscape:connector-curvature="0"
   style="fill:#929090" />
	</g>
	
		<linearGradient
   gradientTransform="matrix(1,0,0,-1,0,646.8817)"
   y2="400.01459"
   x2="737.91602"
   y1="400.01459"
   x1="730.35992"
   gradientUnits="userSpaceOnUse"
   id="SVGID_14_">
		<stop
   id="stop116"
   style="stop-color:#00A9CE"
   offset="0" />
		<stop
   id="stop118"
   style="stop-color:#00A9CE"
   offset="1" />
	</linearGradient>
	<circle
   id="circle121"
   r="3.8"
   cy="246.89999"
   cx="734.09998"
   class="st18"
   style="fill:url(#SVGID_14_)" />
	<rect
   id="rect123"
   height="2.5"
   width="26.700001"
   class="st5"
   y="245"
   x="741.5"
   style="fill:#d6d6d6" />
	<rect
   id="rect125"
   height="2.5"
   width="26.700001"
   class="st5"
   y="256.79999"
   x="747.09998"
   style="fill:#d6d6d6" />
	<rect
   id="rect127"
   height="2.5"
   width="26.700001"
   class="st5"
   y="266.29999"
   x="765.40002"
   style="fill:#d6d6d6" />
	<rect
   id="rect129"
   height="2.5"
   width="26.700001"
   class="st5"
   y="271.60001"
   x="765.40002"
   style="fill:#d6d6d6" />
	<rect
   id="rect131"
   height="2.5"
   width="26.700001"
   class="st5"
   y="277"
   x="765.40002"
   style="fill:#d6d6d6" />
	<path
   id="path133"
   d="m 904.7,326.3 h -39.6 c -0.4,0 -0.7,-0.3 -0.8,-0.7 0,0 0,-0.1 0,-0.1 V 250 c 0,-0.4 0.3,-0.7 0.7,-0.8 0,0 0,0 0.1,0 h 39.6 c 0.4,0 0.8,0.3 0.8,0.7 0,0 0,0.1 0,0.1 v 75.5 c 0,0.4 -0.4,0.8 -0.8,0.8 z"
   class="st19"
   inkscape:connector-curvature="0"
   style="fill:#3f3b39" />
	<rect
   id="rect135"
   height="57.400002"
   width="36.599998"
   class="st2"
   y="258.39999"
   x="866.5"
   style="fill:#f6f6f6" />
	<path
   id="path137"
   d="M 888.7,254.9 H 881 c -0.3,0 -0.5,-0.2 -0.5,-0.5 0,0 0,0 0,0 0,-0.3 0.2,-0.5 0.5,-0.5 0,0 0,0 0,0 h 7.7 c 0.3,0 0.5,0.2 0.5,0.5 0,0 0,0 0,0 0,0.2 -0.2,0.5 -0.5,0.5 z"
   class="st20"
   inkscape:connector-curvature="0"
   style="fill:#888888" />
	<path
   id="path139"
   d="m 879.3,254.3 c 0,-0.4 -0.3,-0.7 -0.7,-0.7 -0.4,0 -0.7,0.3 -0.7,0.7 0,0.4 0.3,0.7 0.7,0.7 0.4,0.1 0.7,-0.2 0.7,-0.7 0,0.1 0,0.1 0,0 z"
   class="st20"
   inkscape:connector-curvature="0"
   style="fill:#888888" />
	<circle
   id="circle141"
   r="2.5999999"
   cy="321.29999"
   cx="885"
   class="st20"
   style="fill:#888888" />
	
		<linearGradient
   gradientTransform="matrix(1,0,0,-1,0,646.8817)"
   y2="379.78922"
   x2="887.86401"
   y1="379.78922"
   x1="882.21332"
   gradientUnits="userSpaceOnUse"
   id="SVGID_15_">
		<stop
   id="stop143"
   style="stop-color:#00A9CE"
   offset="0" />
		<stop
   id="stop145"
   style="stop-color:#00A9CE"
   offset="1" />
	</linearGradient>
	<path
   id="path148"
   d="m 885.1,264.3 c -1.6,0 -2.8,1.3 -2.8,2.8 0,1.5 1.3,2.8 2.8,2.8 1.6,0 2.8,-1.3 2.8,-2.8 0,0 0,0 0,0 0,-1.6 -1.2,-2.8 -2.8,-2.8 z"
   class="st21"
   style="fill:url(#SVGID_15_)"
   inkscape:connector-curvature="0" />
	
		<linearGradient
   gradientTransform="matrix(1,0,0,-1,0,646.8817)"
   y2="373.18591"
   x2="889.2207"
   y1="373.18591"
   x1="880.86169"
   gradientUnits="userSpaceOnUse"
   id="SVGID_16_">
		<stop
   id="stop150"
   style="stop-color:#00A9CE"
   offset="0" />
		<stop
   id="stop152"
   style="stop-color:#00A9CE"
   offset="1" />
	</linearGradient>
	<path
   id="path155"
   d="m 886.8,270.7 h -3.4 c -0.5,0 -0.9,0.3 -1.1,0.7 l -1.1,2.2 c -0.5,1 -0.1,2.2 0.9,2.8 0.3,0.2 0.6,0.2 0.9,0.2 h 4.3 c 1.1,0 2.1,-0.9 2.1,-2 0,-0.3 -0.1,-0.7 -0.2,-0.9 l -1.1,-2.2 c -0.4,-0.5 -0.9,-0.8 -1.3,-0.8 z"
   class="st22"
   style="fill:url(#SVGID_16_)"
   inkscape:connector-curvature="0" />
	<rect
   id="rect157"
   height="5"
   width="26.700001"
   class="st5"
   y="282.79999"
   x="872.29999"
   style="fill:#d6d6d6" />
	<rect
   id="rect159"
   height="5"
   width="26.700001"
   class="st5"
   y="292"
   x="872.29999"
   style="fill:#d6d6d6" />
	
		<linearGradient
   gradientTransform="matrix(1,0,0,-1,0,646.8817)"
   y2="341.12149"
   x2="898.97009"
   y1="341.12149"
   x1="872.26343"
   gradientUnits="userSpaceOnUse"
   id="SVGID_17_">
		<stop
   id="stop161"
   style="stop-color:#00A9CE"
   offset="0" />
		<stop
   id="stop163"
   style="stop-color:#00A9CE"
   offset="1" />
	</linearGradient>
	<rect
   id="rect166"
   height="5"
   width="26.700001"
   class="st23"
   y="303.29999"
   x="872.29999"
   style="fill:url(#SVGID_17_)" />
	
		<linearGradient
   gradientTransform="matrix(1,0,0,-1,0,646.8817)"
   y2="361.66449"
   x2="875.79718"
   y1="361.66449"
   x1="874.26642"
   gradientUnits="userSpaceOnUse"
   id="SVGID_18_">
		<stop
   id="stop168"
   style="stop-color:#00A9CE"
   offset="0" />
		<stop
   id="stop170"
   style="stop-color:#00A9CE"
   offset="1" />
	</linearGradient>
	<circle
   id="circle173"
   r="0.80000001"
   cy="285.20001"
   cx="875"
   class="st24"
   style="fill:url(#SVGID_18_)" />
	
		<linearGradient
   gradientTransform="matrix(1,0,0,-1,0,646.8817)"
   y2="361.66449"
   x2="878.04437"
   y1="361.66449"
   x1="876.51367"
   gradientUnits="userSpaceOnUse"
   id="SVGID_19_">
		<stop
   id="stop175"
   style="stop-color:#00A9CE"
   offset="0" />
		<stop
   id="stop177"
   style="stop-color:#00A9CE"
   offset="1" />
	</linearGradient>
	<circle
   id="circle180"
   r="0.80000001"
   cy="285.20001"
   cx="877.29999"
   class="st25"
   style="fill:url(#SVGID_19_)" />
	
		<linearGradient
   gradientTransform="matrix(1,0,0,-1,0,646.8817)"
   y2="361.66449"
   x2="880.27551"
   y1="361.66449"
   x1="878.74469"
   gradientUnits="userSpaceOnUse"
   id="SVGID_20_">
		<stop
   id="stop182"
   style="stop-color:#00A9CE"
   offset="0" />
		<stop
   id="stop184"
   style="stop-color:#00A9CE"
   offset="1" />
	</linearGradient>
	<circle
   id="circle187"
   r="0.80000001"
   cy="285.20001"
   cx="879.5"
   class="st26"
   style="fill:url(#SVGID_20_)" />
	
		<linearGradient
   gradientTransform="matrix(1,0,0,-1,0,646.8817)"
   y2="361.66449"
   x2="882.50641"
   y1="361.66449"
   x1="880.97559"
   gradientUnits="userSpaceOnUse"
   id="SVGID_21_">
		<stop
   id="stop189"
   style="stop-color:#00A9CE"
   offset="0" />
		<stop
   id="stop191"
   style="stop-color:#00A9CE"
   offset="1" />
	</linearGradient>
	<circle
   id="circle194"
   r="0.80000001"
   cy="285.20001"
   cx="881.70001"
   class="st27"
   style="fill:url(#SVGID_21_)" />
	
		<linearGradient
   gradientTransform="matrix(1,0,0,-1,0,646.8817)"
   y2="361.66449"
   x2="884.75372"
   y1="361.66449"
   x1="883.22302"
   gradientUnits="userSpaceOnUse"
   id="SVGID_22_">
		<stop
   id="stop196"
   style="stop-color:#00A9CE"
   offset="0" />
		<stop
   id="stop198"
   style="stop-color:#00A9CE"
   offset="1" />
	</linearGradient>
	<circle
   id="circle201"
   r="0.80000001"
   cy="285.20001"
   cx="884"
   class="st28"
   style="fill:url(#SVGID_22_)" />
	
		<linearGradient
   gradientTransform="matrix(1,0,0,-1,0,646.8817)"
   y2="361.66449"
   x2="886.98468"
   y1="361.66449"
   x1="885.45392"
   gradientUnits="userSpaceOnUse"
   id="SVGID_23_">
		<stop
   id="stop203"
   style="stop-color:#00A9CE"
   offset="0" />
		<stop
   id="stop205"
   style="stop-color:#00A9CE"
   offset="1" />
	</linearGradient>
	<circle
   id="circle208"
   r="0.80000001"
   cy="285.20001"
   cx="886.20001"
   class="st29"
   style="fill:url(#SVGID_23_)" />
	
		<linearGradient
   gradientTransform="matrix(1,0,0,-1,0,646.8817)"
   y2="352.3497"
   x2="875.79718"
   y1="352.3497"
   x1="874.26642"
   gradientUnits="userSpaceOnUse"
   id="SVGID_24_">
		<stop
   id="stop210"
   style="stop-color:#00A9CE"
   offset="0" />
		<stop
   id="stop212"
   style="stop-color:#00A9CE"
   offset="1" />
	</linearGradient>
	<circle
   id="circle215"
   r="0.80000001"
   cy="294.5"
   cx="875"
   class="st30"
   style="fill:url(#SVGID_24_)" />
	
		<linearGradient
   gradientTransform="matrix(1,0,0,-1,0,646.8817)"
   y2="352.3497"
   x2="878.04437"
   y1="352.3497"
   x1="876.51367"
   gradientUnits="userSpaceOnUse"
   id="SVGID_25_">
		<stop
   id="stop217"
   style="stop-color:#00A9CE"
   offset="0" />
		<stop
   id="stop219"
   style="stop-color:#00A9CE"
   offset="1" />
	</linearGradient>
	<circle
   id="circle222"
   r="0.80000001"
   cy="294.5"
   cx="877.29999"
   class="st31"
   style="fill:url(#SVGID_25_)" />
	
		<linearGradient
   gradientTransform="matrix(1,0,0,-1,0,646.8817)"
   y2="352.3497"
   x2="880.27551"
   y1="352.3497"
   x1="878.74469"
   gradientUnits="userSpaceOnUse"
   id="SVGID_26_">
		<stop
   id="stop224"
   style="stop-color:#00A9CE"
   offset="0" />
		<stop
   id="stop226"
   style="stop-color:#00A9CE"
   offset="1" />
	</linearGradient>
	<circle
   id="circle229"
   r="0.80000001"
   cy="294.5"
   cx="879.5"
   class="st32"
   style="fill:url(#SVGID_26_)" />
	
		<linearGradient
   gradientTransform="matrix(1,0,0,-1,0,646.8817)"
   y2="352.3497"
   x2="882.50641"
   y1="352.3497"
   x1="880.97559"
   gradientUnits="userSpaceOnUse"
   id="SVGID_27_">
		<stop
   id="stop231"
   style="stop-color:#00A9CE"
   offset="0" />
		<stop
   id="stop233"
   style="stop-color:#00A9CE"
   offset="1" />
	</linearGradient>
	<circle
   id="circle236"
   r="0.80000001"
   cy="294.5"
   cx="881.70001"
   class="st33"
   style="fill:url(#SVGID_27_)" />
</g><g
     id="g336">
	<path
   id="path240"
   d="m 449,622.3 c 0.6,0.9 0.4,2.5 -0.6,3.3 -1,0.8 -9,2.9 -11.9,2.5 -2.9,-0.4 -8,-3 -9.9,-2.8 -1.9,0.2 -6.4,0 -7.6,-1.4 -0.5,-0.6 0,-2.3 1,-4.3 1,1.4 2.4,3.1 3.6,3 3.1,-0.1 10,1 12.5,2.2 3.7,1.7 9.9,-0.1 12.9,-2.5 z"
   class="st34"
   inkscape:connector-curvature="0"
   style="fill:#ababab" />
	<path
   id="path242"
   d="m 431.8,614.1 c 0,0.1 0.1,0.2 0.1,0.3 0.9,1.7 7.2,5.2 8.8,5.2 1.5,0 6.9,1.8 7.7,2.1 0.8,0.3 0.5,0.3 0.6,0.6 -3,2.4 -9.2,4.2 -12.9,2.5 -2.5,-1.1 -9.4,-2.3 -12.5,-2.2 -1.2,0 -2.6,-1.7 -3.6,-3 0.2,-0.4 0.4,-0.8 0.6,-1.3 0.5,-1 1.1,-2.1 1.7,-3 5.3,5.3 5.7,0.4 9.5,-1.2 z"
   class="st35"
   inkscape:connector-curvature="0"
   style="fill:#780000" />
	<path
   id="path244"
   d="m 428.8,596.2 c 1.9,-1.2 5.5,1.8 6.5,2.1 -0.8,3.6 -3.8,14 -3.6,15.4 0.1,1.4 0,0.3 0.1,0.4 -3.7,1.6 -4.1,6.5 -9.4,1.3 0.3,-0.4 0.5,-0.8 0.7,-1.2 0.7,-1.1 1.3,-1.9 1.7,-2.5 0.9,-1.6 3.4,-15.1 4,-15.5 z"
   class="st36"
   inkscape:connector-curvature="0"
   style="fill:#d19161" />
	<path
   id="path246"
   d="m 414.1,565.2 c 3.6,5.9 10.3,13.5 12.4,20.1 2.1,6.6 -0.9,20.6 -0.6,21.2 2.2,-0.5 8,0.5 10.2,1 1,-3.2 2.9,-19.2 3,-21.9 0,-2.7 -1.5,-14.4 -3.3,-22.7 -1.3,0.9 -3.3,1.9 -5,2 -0.8,-5.4 -0.8,-8.3 -3.7,-14.8 0.8,7.3 0.9,14 0.9,15.3 -4.7,0.4 -9.7,0.3 -13.9,-0.2 z"
   class="st37"
   inkscape:connector-curvature="0"
   style="fill:#2b2b2b" />
	<polygon
   id="polygon248"
   points="438.9,598.7 438.4,609.6 423.1,609 423.5,598 "
   class="st38"
   style="fill:#787878" />
	<path
   id="path250"
   d="m 437,561.9 c -0.7,-18.1 -8,-42.1 -14.6,-51.1 -6.6,-9 -12.9,-15.8 -18.9,-11.5 -6.1,4.3 -7.7,9 -8.4,12.8 -0.8,3.8 0,13.2 1.8,16.6 1.8,3.4 8.8,12.7 9.1,16.5 0.2,3.9 -1.2,9.1 -0.9,18.1 3.9,1.6 14,3 22.9,2.1 0,-1.4 -0.1,-8 -0.9,-15.3 2.9,6.6 2.9,9.5 3.7,14.8 2.3,-0.1 5.4,-2.3 6.2,-3 z"
   class="st39"
   inkscape:connector-curvature="0"
   style="fill:#618cc7" />
	<path
   id="path252"
   d="m 436.8,558.7 c -1.2,-15.2 -6.4,-33.5 -11.8,-43.7 -6.3,12.5 -20.3,1.5 -29,-6.4 -0.5,1.2 -0.8,2.4 -1,3.6 -0.8,3.8 0,13.2 1.8,16.6 0.1,0.2 0.3,0.5 0.4,0.8 0,0 0.1,-0.1 0.1,-0.1 -0.1,-0.3 -0.4,-0.3 0.5,-0.4 1.2,2.5 17.4,16.6 29.4,24.6 -0.1,-1.1 -0.2,-2.3 -0.3,-3.5 0.7,1.7 1.3,3.1 1.7,4.4 3.2,1.9 6.1,3.4 8.2,4.1 z"
   class="st40"
   inkscape:connector-curvature="0"
   style="fill:#406ba3" />
	<path
   id="path254"
   d="m 407.7,564.1 c 1.2,6.9 3.7,17.2 2.9,21 -1,4.6 -9.3,21.4 -9.3,22 2.2,0.4 9.3,2.9 11.2,4.2 2.1,-2.6 10.3,-17 10.8,-19.3 0.5,-2.3 5.9,-20.2 5.9,-35.7 -0.5,-1.8 -1.1,-3.7 -2.2,-6.3 0.8,7.3 0.9,14 0.9,15.3 -7.2,0.8 -15.4,0 -20.2,-1.2 z"
   class="st41"
   inkscape:connector-curvature="0"
   style="fill:#4d4d4d" />
	<path
   id="path256"
   d="m 423.8,627.5 c 0.4,1 0,2.7 -1,3.3 -1.2,0.8 -10.2,3.1 -13.1,2.4 -2.8,-0.7 -7.6,-4 -9.4,-4.1 -1.9,-0.1 -6.3,-0.8 -7.4,-2.4 -0.4,-0.6 0.3,-2.3 1.5,-4.1 0.8,1.5 1.9,3.3 3.2,3.5 3.1,0.3 9.8,2.3 12.1,3.8 3.5,2 10.8,-0.4 14.1,-2.4 z"
   class="st42"
   inkscape:connector-curvature="0"
   style="fill:#cccccc" />
	<path
   id="path258"
   d="m 406.8,618.5 c 0,0.1 0,0.2 0.1,0.3 0.5,1.4 3,3.6 5.2,5 1.4,0.9 2.8,1.6 3.3,1.5 1.4,-0.2 6.6,0.8 7.8,1.5 0.3,0.1 0.5,0.4 0.6,0.7 -3.3,1.9 -10.6,4.4 -14,2.3 -2.4,-1.5 -9.1,-3.5 -12.1,-3.8 -1.2,-0.1 -2.4,-1.9 -3.2,-3.5 0.3,-0.4 0.5,-0.8 0.8,-1.2 0.6,-0.9 1.4,-1.9 2.1,-2.8 4.5,6 5.5,1.1 9.4,0 z"
   class="st43"
   inkscape:connector-curvature="0"
   style="fill:#990000" />
	<path
   id="path260"
   d="m 406.2,600.4 c 2,-1 5.3,2.5 6.2,2.9 -1.3,3.5 -5.5,13.4 -5.6,14.8 -0.1,1.4 0,0.3 0,0.4 -3.9,1.1 -5,5.9 -9.5,0 0.3,-0.4 0.6,-0.7 0.8,-1.1 0.8,-1 1.5,-1.8 1.9,-2.3 1.3,-1.3 5.5,-14.4 6.2,-14.7 z"
   class="st44"
   inkscape:connector-curvature="0"
   style="fill:#f5b382" />
	<polygon
   id="polygon262"
   points="419.3,603 414.2,614.1 398.7,607 403.8,596 "
   class="st45"
   style="fill:#999999" />
	<path
   id="path264"
   d="m 419.3,509.5 c -3.5,-7 -8.8,-14.3 -14.4,-13.3 -6.1,1.1 -8.2,9.4 -2.2,19 0.6,-2.7 1.1,-4.6 1.9,-5 0.8,-0.4 6.7,0.6 10.2,3.6 -0.6,-4.9 0.1,-7.6 0.7,-7.9 0.6,-0.2 2.7,2.4 3.8,3.6 z"
   class="st46"
   inkscape:connector-curvature="0"
   style="fill:#a6bdde" />
	<path
   id="path266"
   d="m 403.6,492.3 v 0 c 2.5,0 4.2,1.3 5.2,3.6 l 2.2,5.4 4.4,13.4 -15,-10.3 -0.4,-6.8 c -0.1,-2.5 1.2,-4.8 3.6,-5.3 z"
   class="st44"
   inkscape:connector-curvature="0"
   style="fill:#f5b382" />
	<polygon
   id="polygon268"
   points="406.1,508.2 412.6,506 415.5,514.6 "
   class="st17"
   style="fill:#ffffff" />
	<path
   id="path270"
   d="m 369.8,447.7 c -0.3,0.2 -0.5,0.4 -0.8,0.6 -3.4,2.8 -6,7.2 -6.6,10.9 0.6,-1.5 3.9,-5 7.8,-3.6 -11.3,0.8 -10.9,15.3 -6.2,19 -1.6,-3.5 -2.2,-8 1.9,-10.5 l 0.4,-0.2 c -8.1,8.2 8.5,19.3 10.8,22.5 2.2,3.3 3.5,12.1 6.2,14.1 1.9,1.3 9.6,2.8 16.2,2.1 2.5,-0.3 5,-0.8 6.8,-1.8 -1.5,-4 -3,-7.9 -4.6,-11 -3.8,-8 -18.7,-30.4 -31.9,-42.1 z"
   class="st47"
   inkscape:connector-curvature="0"
   style="fill:#57331a" />
	<path
   id="path272"
   d="m 416.4,479.6 c -0.8,-3.6 -8.2,-10 -10.8,-14.4 -2.6,-4.4 -3.6,-11.6 -6.6,-14.5 -2.9,-2.9 -6.3,-2.8 -6.9,0.6 -1.9,-10.8 -13.1,-9.9 -17.6,-6.5 4.8,-1.1 7.5,0.8 8.8,4.1 -4.4,-4.7 -10.1,-4 -14.1,-1.1 13.3,11.7 28.1,34.2 32,42.2 1.5,3.1 2.8,7.5 4.3,11.4 0.5,-0.3 1.8,-0.9 2.2,-1.2 5.9,-4.7 9.5,-17 8.7,-20.6 z"
   class="st47"
   inkscape:connector-curvature="0"
   style="fill:#57331a" />
	<path
   id="path274"
   d="m 379.9,458.1 c 4.9,-2.6 15.4,-5.4 17.9,-2 3,4 12.5,17.8 12.7,21.3 0.2,3.4 -8.9,4.6 -12.1,6.4 -4.2,-7 -11.2,-17.1 -18.5,-25.7 z"
   class="st44"
   inkscape:connector-curvature="0"
   style="fill:#f5b382" />
	<path
   id="path276"
   d="m 398.3,483.9 c -1.6,1 -3.6,3.9 -5.6,6.5 -1.7,2.2 -3.6,4.1 -5.2,4.2 -3.6,0.4 -15.1,-16.1 -16.3,-18.4 -1,-1.9 2.2,-10.5 5.2,-14.9 0.6,-0.8 1.1,-1.6 1.7,-2 0.4,-0.4 1.1,-0.8 1.8,-1.2 7.4,8.6 14.4,18.6 18.6,25.7 -0.1,0.1 -0.2,0.1 -0.2,0.1 z"
   class="st48"
   inkscape:connector-curvature="0"
   style="fill:#e3a370" />
	<path
   id="path278"
   d="m 406.1,461.4 c -0.7,0.3 -1.3,0.8 -1.7,1.4 0.3,0.8 0.8,1.7 1.2,2.4 0.9,1.5 2.4,3.3 4,5.2 2.1,-0.8 3,-3.5 2.1,-5.9 -0.9,-2.6 -3.4,-3.9 -5.6,-3.1 z"
   class="st44"
   inkscape:connector-curvature="0"
   style="fill:#f5b382" />
	<path
   id="path280"
   d="m 371.8,484.6 c -1.5,1.7 -1.1,4.5 0.8,6.2 2,1.8 4.8,1.8 6.3,0.1 0,0 0.1,-0.1 0.1,-0.1 -0.6,-1.8 -1.2,-3.4 -1.9,-4.4 -0.5,-0.7 -1.6,-1.7 -3,-3 -0.9,0.2 -1.7,0.6 -2.3,1.2 z"
   class="st48"
   inkscape:connector-curvature="0"
   style="fill:#e3a370" />
	<path
   id="path282"
   d="m 399.5,485.4 c -0.2,0.1 -0.3,0.2 -0.5,0.3 -0.2,0.1 0.5,-0.5 -0.6,0.4 -1.1,0.9 -5.2,5.5 -4.9,7 0.2,1.6 3.5,5 5.5,4.4 2,-0.6 2.9,-2.4 4.1,-3.8 0.1,-0.1 0.2,-0.2 0.3,-0.3 -1.1,-2.8 -2.4,-5.5 -3.9,-8 z"
   class="st48"
   inkscape:connector-curvature="0"
   style="fill:#e3a370" />
	<path
   id="path284"
   d="m 406.9,482.7 c -1.6,-0.1 -5.1,1.5 -7.4,2.8 1.5,2.5 2.8,5.2 3.9,8 0.3,-0.3 0.6,-0.7 0.9,-0.9 1.6,-1.3 4.2,-0.6 5.4,-2.9 1.1,-2.3 -1.2,-6.9 -2.8,-7 z"
   class="st44"
   inkscape:connector-curvature="0"
   style="fill:#f5b382" />
	<path
   id="path286"
   d="m 406.7,483.1 c -1.7,3 -8.3,7.9 -12.7,9.9 6.8,0.4 10.7,-0.7 12.7,-9.9 z"
   class="st17"
   inkscape:connector-curvature="0"
   style="fill:#ffffff" />
	<path
   id="path288"
   d="m 394.5,467.2 c -0.6,0.6 -0.4,1.9 0.6,3 1,1 2.3,1.3 2.9,0.7 0.6,-0.6 0.4,-1.9 -0.6,-3 -0.9,-1 -2.2,-1.4 -2.9,-0.7 z"
   inkscape:connector-curvature="0" />
	<path
   id="path290"
   d="m 382.3,475.6 c -0.8,0.3 -1.2,1.6 -0.8,2.9 0.4,1.4 1.4,2.2 2.3,1.9 0.9,-0.3 1.2,-1.6 0.8,-2.9 -0.4,-1.3 -1.4,-2.2 -2.3,-1.9 z"
   inkscape:connector-curvature="0" />
	<path
   id="path292"
   d="m 399.4,459.5 -7,4.8 c -1.2,0.8 -1.9,1.9 -2.3,3.2 -0.3,1.2 -0.2,2.5 0.6,3.6 0.2,0.3 0.3,0.5 0.5,0.7 l -2.5,1.7 c -0.2,-0.3 -0.3,-0.5 -0.5,-0.7 -0.7,-1.1 -1.9,-1.7 -3.2,-1.8 -1.2,-0.2 -2.6,0.1 -3.8,0.9 l -7,4.8 c -1.2,0.8 -1.9,1.9 -2.3,3.2 -0.4,1.3 -0.2,2.5 0.6,3.6 3,4.4 6.9,5.8 10.4,5.3 1.4,-0.2 2.6,-0.7 3.7,-1.5 1.1,-0.8 2,-1.7 2.7,-2.9 1.6,-2.7 1.8,-6.3 -0.3,-10.2 l 2.5,-1.7 c 2.8,3.4 6.3,4.5 9.4,4 1.4,-0.2 2.6,-0.7 3.7,-1.5 1.1,-0.8 2,-1.7 2.7,-2.9 1.7,-3 1.8,-7.2 -1.2,-11.6 -0.7,-1.1 -1.9,-1.7 -3.2,-1.8 -1,-0.3 -2.3,0 -3.5,0.8 z m -24.3,18.3 7,-4.8 c 0.9,-0.6 1.9,-0.8 2.9,-0.8 0.9,0.1 1.7,0.5 2.2,1.3 2.7,3.9 2.6,7.6 1.1,10.2 -0.6,1 -1.4,1.9 -2.3,2.5 -0.9,0.6 -2,1.1 -3.2,1.3 -3,0.5 -6.4,-0.8 -9.1,-4.7 -0.5,-0.7 -0.6,-1.7 -0.4,-2.5 0.3,-1 0.9,-1.8 1.8,-2.5 z m 18.1,-12.4 6.9,-4.8 c 0.9,-0.6 1.9,-0.8 2.9,-0.8 0.9,0.1 1.7,0.5 2.2,1.3 2.7,3.9 2.6,7.6 1.1,10.2 -0.6,1 -1.4,1.9 -2.3,2.5 -0.9,0.6 -2,1.1 -3.2,1.3 -3,0.5 -6.4,-0.8 -9.1,-4.7 -0.5,-0.7 -0.6,-1.7 -0.4,-2.5 0.4,-1 1,-1.8 1.9,-2.5 z"
   class="st43"
   inkscape:connector-curvature="0"
   style="fill:#990000" />
	<polygon
   id="polygon294"
   points="401.2,481.4 396.4,477.1 391.5,472.7 398,483.4 "
   class="st49"
   style="fill:#f7c7a1" />
	<polygon
   id="polygon296"
   points="398,483.4 391.5,472.7 391.5,472.9 393.1,479 394.8,485.4 398,483.4 "
   class="st44"
   style="fill:#f5b382" />
	<path
   id="path298"
   d="m 377.3,467.5 -1.4,1.5 c -0.4,0.4 -0.4,1.1 0,1.5 v 0 c 0.4,0.4 1.1,0.4 1.5,0 l 1.4,-1.5 c 0.4,-0.4 0.4,-1.1 0,-1.5 v 0 c -0.5,-0.4 -1.1,-0.4 -1.5,0 z"
   inkscape:connector-curvature="0" />
	<path
   id="path300"
   d="m 390.6,458.4 -1.9,0.8 c -0.6,0.2 -0.8,0.8 -0.6,1.4 v 0 c 0.2,0.6 0.8,0.8 1.4,0.6 l 1.9,-0.8 c 0.6,-0.2 0.8,-0.8 0.6,-1.4 v 0 c -0.3,-0.5 -0.9,-0.8 -1.4,-0.6 z"
   inkscape:connector-curvature="0" />
	<polygon
   id="polygon302"
   points="480.2,479.7 480.2,552.3 420.2,552.3 420.2,483.5 "
   class="st50"
   style="fill:#e6cc80" />
	<polygon
   id="polygon304"
   points="480.2,479.7 480.2,552.3 498.9,552.3 498.9,488.2 "
   class="st51"
   style="fill:#c2ab5c" />
	<polygon
   id="polygon306"
   points="455.7,552.3 443.8,552.3 443.8,482 455.7,481.5 "
   class="st52"
   style="opacity:0.5;fill:#ffffff;enable-background:new" />
	<polygon
   id="polygon308"
   points="481.2,504.6 498.9,512.4 498.9,521.1 498.9,527.2 480.2,521.3 420.2,524.1 420.2,507.3 480.3,504.5 "
   class="st52"
   style="opacity:0.5;fill:#ffffff;enable-background:new" />
	<polygon
   id="polygon310"
   points="493.1,552.3 487.6,552.3 487.6,483.1 493.1,485.6 "
   class="st52"
   style="opacity:0.5;fill:#ffffff;enable-background:new" />
	<path
   id="path312"
   d="m 446.5,557.2 -2.4,-6.6 c -0.1,0 -0.2,0.1 -0.3,0.1 l 1.4,5.5 c 0.5,1.8 -2.3,2.5 -2.8,0.6 l -1.4,-5.4 c -0.1,0 -0.3,0 -0.4,0.1 l 0.5,3.9 c 0.2,1.5 -2.1,1.7 -2.2,0.2 l -0.5,-4.3 c 0,0 -0.1,-0.1 -0.1,-0.1 -0.7,-1.6 -1.5,-4.3 -1.4,-6.8 0.1,-1.2 0.3,-2.5 1.6,-3 2.3,-0.8 3.9,-1.6 6.3,-1.7 l 6.4,-0.2 c 1,0 1.9,0.8 1.9,1.8 v 0 c 0,1 -0.8,1.9 -1.8,1.9 l -4,0.1 c 0.8,1.4 1.5,2.9 1.7,4 v 0 c 0.1,0.1 0.2,0.2 0.2,0.3 l 2.9,5.1 c 0.9,1.7 -1.6,3 -2.5,1.4 l -2.7,-4.8 c 0,0 -0.1,0 -0.2,0.1 l 2.5,6.8 c 0.6,1.8 -2.1,2.7 -2.7,1 z"
   class="st44"
   inkscape:connector-curvature="0"
   style="fill:#f5b382" />
	<polygon
   id="polygon314"
   points="443.1,540.7 431.2,535.1 428.9,539.8 440.9,545.5 "
   class="st44"
   style="fill:#f5b382" />
	<path
   id="path316"
   d="m 423.4,541.8 c -8.9,-2.8 -19.5,-7.3 -26,-12.1 -0.2,-0.3 -0.4,-0.7 -0.5,-0.9 -1.8,-3.4 -2.6,-12.7 -1.8,-16.6 0.2,-1.1 0.5,-2.3 1,-3.6 11.6,10.6 20.2,17.4 31.8,23 z"
   class="st39"
   inkscape:connector-curvature="0"
   style="fill:#618cc7" />
	<polygon
   id="polygon318"
   points="436.5,534 431.1,546.4 422.9,542.9 428.3,530.4 "
   class="st53"
   style="fill:#9cb5d6" />
	<g
   id="g334">
		<path
   id="path320"
   d="m 432.1,516.6 c -0.1,1 -0.6,1.8 -1.6,2.6 -0.8,0.6 -1.7,1.1 -2.8,1.3 0,0 0,0 -0.1,0 -0.1,0 -0.3,-0.3 -0.6,-1 -0.3,-0.7 -0.4,-1.1 -0.4,-1.2 0,0 0,-0.1 0.1,-0.1 0.5,-0.1 1,-0.3 1.4,-0.5 0.6,-0.3 0.8,-0.7 0.9,-1.1 0,-0.3 -0.1,-0.6 -0.3,-1 -0.5,-0.6 -0.7,-1 -0.8,-1.1 -0.3,-0.5 -0.4,-1.1 -0.3,-1.7 0.1,-0.9 0.6,-1.7 1.5,-2.2 0.8,-0.6 1.7,-0.9 2.5,-1.1 0,0 0.1,0 0.1,0 0.1,0 0.1,0 0.2,0.2 0.2,0.6 0.4,1.3 0.6,1.9 0,0 0,0 0,0.1 0,0.1 0,0.1 -0.1,0.1 v 0 c -0.1,0 -0.1,0 -0.2,0 -0.1,0 -0.1,0 -0.2,0 -0.3,0 -0.6,0.1 -0.9,0.3 -0.3,0.2 -0.5,0.5 -0.6,0.8 0,0.3 0.1,0.6 0.4,1.1 0.5,0.7 0.8,1.1 0.8,1.2 0.4,0.3 0.5,0.9 0.4,1.4 z"
   class="st54"
   inkscape:connector-curvature="0"
   style="fill:#00a9ce" />
		<path
   id="path322"
   d="m 440.7,514.3 -0.7,5 c 0,0.1 -0.1,0.3 -0.3,0.3 -0.2,0 -0.5,0 -1.1,0.1 -0.4,0 -0.7,0 -1.1,0 -0.2,0 -0.2,-0.1 -0.2,-0.3 0,-0.4 0.1,-1.1 0.3,-1.9 0.1,-0.8 0.2,-1.5 0.3,-1.9 0.1,-0.6 -0.2,-0.8 -0.8,-0.8 -0.3,0 -0.5,0.1 -0.7,0.3 -0.3,0.2 -0.5,0.4 -0.5,0.6 l -0.2,1.8 c 0,0.2 -0.1,0.6 -0.1,1.1 0,0.5 -0.1,0.8 -0.1,1.1 0,0.2 -0.1,0.3 -0.3,0.3 -0.2,0 -0.6,0 -1.3,0.1 -0.3,0 -0.6,0 -0.8,0 -0.2,0 -0.3,-0.1 -0.2,-0.3 0,-0.4 0.1,-1 0.2,-1.7 0.1,-0.8 0.2,-1.4 0.2,-1.7 0.2,-1.6 0.3,-2.9 0.5,-3.9 0,-0.4 0.1,-0.7 0.1,-1.1 0,-0.3 0,-0.7 0,-1.1 0,0 0,-0.1 0,-0.1 0,-0.1 0,-0.1 0.1,-0.2 0.2,0 0.4,-0.1 0.7,-0.1 0.4,0 0.6,0 0.7,-0.1 l 1.3,-0.2 c 0.1,0 0.1,0 0.1,0.1 0,0.2 0,0.4 -0.1,0.6 0,0.3 -0.1,0.5 -0.1,0.6 -0.2,1.1 -0.3,1.9 -0.4,2.6 0,0.1 0,0.1 0,0.1 0,0 0.1,-0.1 0.4,-0.3 0.3,-0.2 0.6,-0.4 0.8,-0.5 0.3,-0.2 0.7,-0.3 1.1,-0.3 0.6,0 1.1,0.1 1.5,0.4 0.6,0.4 0.8,0.8 0.7,1.4 z"
   class="st54"
   inkscape:connector-curvature="0"
   style="fill:#00a9ce" />
		<path
   id="path324"
   d="m 444.3,516.1 c 0,0.3 -0.1,0.9 -0.2,1.6 -0.1,0.7 -0.1,1.2 -0.2,1.6 0,0.1 -0.1,0.2 -0.2,0.2 -0.4,0 -0.7,0.1 -1.1,0.1 -0.4,0 -0.7,0 -1.1,0 -0.1,0 -0.2,0 -0.2,-0.1 0,-0.1 0,-0.1 0,-0.2 0,-0.3 0.1,-0.8 0.2,-1.5 0.1,-0.7 0.2,-1.2 0.2,-1.5 0.2,-1.1 0.3,-2.2 0.3,-3.3 0,0 0,-0.1 0,-0.2 0,-0.1 0.1,-0.1 0.2,-0.2 0.1,0 0.3,0 0.6,0 0.3,0 0.5,0 0.6,0 0.1,0 0.3,0 0.6,-0.1 0.3,0 0.5,0 0.6,-0.1 0.1,0 0.2,0 0.2,0.1 0,0 0,0.1 0,0.1 -0.2,1.3 -0.4,2.4 -0.5,3.5 z m 0.9,-5.4 c -0.1,0.8 -0.6,1.3 -1.6,1.3 -0.3,0 -0.7,0 -1,-0.3 -0.3,-0.2 -0.4,-0.5 -0.3,-0.9 0,-0.4 0.3,-0.7 0.6,-0.9 0.3,-0.2 0.6,-0.4 1,-0.4 0.3,0 0.7,0.1 0.9,0.3 0.3,0.2 0.4,0.6 0.4,0.9 z"
   class="st54"
   inkscape:connector-curvature="0"
   style="fill:#00a9ce" />
		<path
   id="path326"
   d="m 453.6,515.5 c -0.1,1 -0.6,1.9 -1.2,2.6 -0.7,0.7 -1.6,1.1 -2.6,1.2 -0.4,0 -0.8,0 -1.1,-0.2 -0.4,-0.2 -0.6,-0.3 -0.6,-0.3 0,0 -0.1,0.1 -0.1,0.2 0,0.3 -0.1,0.6 -0.1,1.1 0,0.5 -0.1,0.8 -0.1,1.1 0,0.1 -0.1,0.3 -0.3,0.3 v 0 l -1.5,0.1 c -0.2,0 -0.4,0 -0.6,0 -0.1,0 -0.2,-0.1 -0.2,-0.2 v 0 l 0.7,-5.6 c 0.1,-0.9 0.2,-1.9 0.1,-2.8 0,0 0,-0.1 0,-0.1 0,-0.1 0,-0.1 0.1,-0.2 0.3,-0.1 0.7,-0.2 1.1,-0.3 0.4,-0.1 0.8,-0.1 1.1,-0.2 0.2,0 0.3,0.1 0.3,0.3 0,0.3 0,0.4 0,0.4 0,0 0.2,-0.1 0.7,-0.4 0.5,-0.3 0.9,-0.4 1.3,-0.5 1.1,0 1.8,0.3 2.4,0.9 0.6,0.7 0.8,1.5 0.6,2.6 z m -2.6,0.1 c 0,-0.3 0,-0.7 -0.2,-1 -0.2,-0.3 -0.6,-0.4 -0.9,-0.4 -0.4,0 -0.7,0.2 -1,0.5 -0.3,0.3 -0.4,0.6 -0.4,1 0,0.4 0,0.8 0.2,1 0.2,0.3 0.5,0.4 0.9,0.4 0.7,0 1.2,-0.5 1.4,-1.5 z"
   class="st54"
   inkscape:connector-curvature="0"
   style="fill:#00a9ce" />
		<path
   id="path328"
   d="m 457.2,515.5 c 0,0.3 -0.1,0.9 -0.2,1.6 -0.1,0.7 -0.1,1.2 -0.2,1.6 0,0.1 -0.1,0.2 -0.2,0.2 -0.4,0 -0.7,0.1 -1.1,0.1 -0.4,0 -0.7,0 -1.1,0 -0.1,0 -0.2,0 -0.2,-0.1 0,-0.1 0,-0.1 0,-0.2 0,-0.3 0.1,-0.8 0.2,-1.5 0.1,-0.7 0.2,-1.2 0.2,-1.5 0.2,-1.1 0.3,-2.2 0.3,-3.3 0,-0.1 0,-0.1 0,-0.2 0,-0.1 0.1,-0.1 0.2,-0.2 0.1,0 0.3,0 0.6,0 0.3,0 0.5,0 0.6,0 0.1,0 0.3,0 0.6,-0.1 0.3,-0.1 0.5,0 0.6,-0.1 0.1,0 0.2,0 0.2,0.1 0,0 0,0.1 0,0.1 -0.2,1.3 -0.4,2.4 -0.5,3.5 z m 0.9,-5.4 c -0.1,0.8 -0.6,1.3 -1.6,1.3 -0.3,0 -0.7,0 -1,-0.3 -0.3,-0.2 -0.4,-0.5 -0.3,-0.9 0,-0.4 0.3,-0.7 0.6,-0.9 0.3,-0.2 0.6,-0.4 1,-0.4 0.3,0 0.7,0.1 0.9,0.3 0.3,0.2 0.4,0.6 0.4,0.9 z"
   class="st54"
   inkscape:connector-curvature="0"
   style="fill:#00a9ce" />
		<path
   id="path330"
   d="m 463.2,516.4 c 0,0.2 -0.1,0.4 -0.1,0.7 0,0.2 -0.1,0.4 -0.1,0.6 0,0.1 0,0.2 -0.1,0.3 -0.1,0.1 -0.2,0.1 -0.3,0.2 -0.6,0.4 -1.4,0.6 -2.1,0.6 -1.4,0.1 -2,-0.4 -1.9,-1.5 0,-0.3 0.1,-0.8 0.2,-1.4 0.1,-0.6 0.2,-1.1 0.2,-1.4 0,-0.2 -0.1,-0.3 -0.3,-0.3 h -0.1 c 0,0 -0.1,0 -0.1,0 -0.2,0 -0.3,0 -0.3,-0.2 0,-0.1 0,-0.2 0,-0.3 0,-0.2 0,-0.3 0,-0.3 0,-0.1 0,-0.3 0,-0.5 0,-0.2 0,-0.4 0,-0.5 0,-0.1 0.2,-0.2 0.5,-0.2 0.2,0 0.3,-0.1 0.3,-0.2 0.1,-0.3 0.1,-0.6 0.1,-0.9 0,-0.6 0.1,-0.9 0.1,-0.9 0.1,-0.6 0.2,-0.8 0.3,-0.8 0.2,0 0.4,0 0.6,0 0.2,0 0.4,0.1 0.6,0.1 0.3,0 0.6,0 1.1,0.1 0.1,0 0.2,0 0.2,0.1 0,0.2 -0.1,0.5 -0.2,0.9 -0.1,0.4 -0.1,0.7 -0.2,0.9 0,0.3 0,0.3 0.2,0.3 0.2,0 0.4,0 0.8,0 0.3,0 0.6,0 0.8,0 0.1,0 0.2,0 0.1,0.1 0,0.1 0,0.3 -0.1,0.5 -0.1,0.2 -0.1,0.4 -0.1,0.5 0,0.1 0,0.3 0,0.5 0,0.2 0,0.4 0,0.5 0,0.1 -0.1,0.2 -0.2,0.2 -0.1,0 -0.3,0 -0.5,0 -0.2,0 -0.4,0 -0.5,0 h -0.5 c -0.1,0 -0.1,0.1 -0.2,0.3 l -0.1,0.5 c 0,0.2 0,0.4 0,0.5 0,0.4 0,0.7 0,0.8 0.1,0.2 0.3,0.3 0.7,0.3 0.2,0 0.3,0 0.5,-0.1 0.2,0 0.3,-0.1 0.5,-0.1 0.2,0 0.2,0 0.2,0.1 z"
   class="st54"
   inkscape:connector-curvature="0"
   style="fill:#00a9ce" />
		<path
   id="path332"
   d="m 471.1,514.6 c -0.1,1.1 -0.6,2 -1.4,2.7 -0.8,0.7 -1.7,1.1 -2.8,1.1 -1.1,0 -1.9,-0.3 -2.5,-0.9 -0.6,-0.6 -0.8,-1.5 -0.7,-2.5 0.1,-1.1 0.6,-2 1.3,-2.8 0.8,-0.7 1.7,-1.1 2.8,-1.2 1.1,0 1.9,0.3 2.5,0.9 0.7,0.7 0.9,1.6 0.8,2.7 z m -2.4,0.1 c 0,-0.3 0,-0.7 -0.2,-1 -0.2,-0.3 -0.5,-0.4 -0.8,-0.4 -0.4,0 -0.8,0.2 -1,0.5 -0.3,0.3 -0.4,0.6 -0.5,1 0,0.3 0,0.7 0.2,1 0.2,0.3 0.6,0.4 0.9,0.4 0.4,0 0.7,-0.2 1,-0.5 0.2,-0.2 0.4,-0.6 0.4,-1 z"
   class="st54"
   inkscape:connector-curvature="0"
   style="fill:#00a9ce" />
	</g>
</g><g
     id="g346">
	<polygon
   id="polygon338"
   points="626.9,47.5 710.6,131.2 701.1,140.7 730,148.4 722.3,119.5 712.7,129.1 629.1,45.4 "
   class="st55"
   style="fill:#808080" />
	<polygon
   id="polygon340"
   points="656.9,575.7 647.4,566.2 731.1,482.5 728.9,480.4 645.3,564.1 635.7,554.5 628,583.4 "
   class="st55"
   style="fill:#808080" />
	<polygon
   id="polygon342"
   points="200.1,582.4 116.4,498.7 125.9,489.2 97,481.4 104.7,510.3 114.3,500.8 197.9,584.5 "
   class="st55"
   style="fill:#808080" />
	<polygon
   id="polygon344"
   points="179.6,63.7 95.9,147.4 98.1,149.5 181.7,65.8 191.3,75.3 199,46.4 170.1,54.2 "
   class="st55"
   style="fill:#808080" />
</g><g
     id="g358">
	<path
   id="path348"
   d="M 50.5,276.1 38.7,255.3 c 0,0 0,-1.8 4.5,-0.9 4.5,0.9 18.1,2.7 26.2,1.8 8.1,-0.9 15.4,-2.7 16.3,-1.8 0.9,0.9 -3.6,6.3 -3.6,6.3 L 75,276.1 Z"
   class="st56"
   inkscape:connector-curvature="0"
   style="fill:#00a3c8" />
	<g
   id="g352">
		<path
   id="path350"
   d="m 112,330.8 c 0,-32 -28.7,-61.4 -61.7,-52.1 -14.9,4.2 -26.8,16 -32.6,30.1 -3.9,9.5 -9.4,40.9 1.9,47.7 3.5,2.1 85,0.7 86.2,0 5.2,-3.1 6.2,-20.7 6.2,-25.7 z"
   class="st56"
   inkscape:connector-curvature="0"
   style="fill:#00a3c8" />
	</g>
	<path
   id="path354"
   d="M 75.9,279.7 H 48.7 c -1.7,0 -3.2,-1.4 -3.2,-3.2 v 0 c 0,-1.7 1.4,-3.2 3.2,-3.2 h 27.1 c 1.7,0 3.2,1.4 3.2,3.2 v 0 c 0,1.8 -1.4,3.2 -3.1,3.2 z"
   class="st57"
   inkscape:connector-curvature="0"
   style="fill:#616161" />
	<text
   style="font-size:41.8227005px;line-height:0%;font-family:Montserrat-Light;fill:#ffffff"
   id="text356"
   class="st17 st58 st59"
   transform="translate(49.2957,335.143)">$</text>

</g><g
     id="g366">
	<circle
   id="circle360"
   r="4.5"
   cy="22.9"
   cx="453"
   class="st0"
   style="fill:#929090" />
	<g
   id="g364">
		<path
   id="path362"
   d="m 453,28.4 c -5.6,0 -10.2,4.4 -10.5,10 h 20.9 c -0.2,-5.5 -4.8,-10 -10.4,-10 z"
   class="st0"
   inkscape:connector-curvature="0"
   style="fill:#929090" />
	</g>
</g><g
     id="g374">
	<circle
   id="circle368"
   r="4.5"
   cy="61.900002"
   cx="453"
   class="st0"
   style="fill:#929090" />
	<g
   id="g372">
		<path
   id="path370"
   d="m 453,67.4 c -5.6,0 -10.2,4.4 -10.5,10 h 20.9 c -0.2,-5.5 -4.8,-10 -10.4,-10 z"
   class="st0"
   inkscape:connector-curvature="0"
   style="fill:#929090" />
	</g>
</g><g
     id="g382">
	<circle
   id="circle376"
   r="4.5"
   cy="47.900002"
   cx="483.5"
   class="st0"
   style="fill:#929090" />
	<g
   id="g380">
		<path
   id="path378"
   d="m 483.5,53.4 c -5.6,0 -10.2,4.4 -10.5,10 h 21 c -0.3,-5.5 -4.9,-10 -10.5,-10 z"
   class="st0"
   inkscape:connector-curvature="0"
   style="fill:#929090" />
	</g>
</g><g
     id="g390">
	<circle
   id="circle384"
   r="4.5"
   cy="79.900002"
   cx="483.5"
   class="st0"
   style="fill:#929090" />
	<g
   id="g388">
		<path
   id="path386"
   d="m 483.5,85.4 c -5.6,0 -10.2,4.4 -10.5,10 h 21 c -0.3,-5.5 -4.9,-10 -10.5,-10 z"
   class="st0"
   inkscape:connector-curvature="0"
   style="fill:#929090" />
	</g>
</g><g
     id="g402">
	<g
   id="g396">
		<path
   id="path392"
   d="m 501,70.4 c 8.3,0 15,-6.7 15,-15 0,-8.3 -6.7,-15 -15,-15 H 389 v 30 z"
   class="st60"
   inkscape:connector-curvature="0"
   style="fill:none" />
		<path
   id="path394"
   d="m 327,70.4 c -8.3,0 -15,-6.7 -15,-15 0,-8.3 6.7,-15 15,-15 h 62 v -30 h -62 c -24.8,0 -45,20.2 -45,45 0,24.8 20.2,45 45,45 h 62 v -30 z"
   class="st56"
   inkscape:connector-curvature="0"
   style="fill:#00a3c8" />
	</g>
	<rect
   id="rect398"
   height="30"
   width="30"
   class="st61"
   y="10.4"
   x="374"
   style="fill:#ede4cc" />
	<rect
   id="rect400"
   height="30"
   width="30"
   class="st61"
   y="70.400002"
   x="374"
   style="fill:#ede4cc" />
</g><polygon
     id="polygon404"
     points="439,32.4 429,29.4 429,36.4 417,27.4 417,36.4 409,25.4 414,27.4 414,21.4 425,29.4 425,21.4 "
     class="st62"
     style="fill:#e5c26a" /><polygon
     id="polygon406"
     points="439,89.4 429,86.4 429,93.4 417,84.4 417,93.4 409,82.4 414,84.4 414,78.4 425,86.4 425,78.4 "
     class="st62"
     style="fill:#e5c26a" /><g
     id="g410">
	<path
   id="path408"
   d="m 554.7,46.9 c 0.6,0.6 1.1,1.6 1.1,2.6 0,1.6 -1,3 -2.4,3.4 0.6,0.6 1,1.4 1,2.4 v 0.1 c 0,1.4 -0.9,2.7 -2.1,3 0.7,0.6 1.1,1.5 1.1,2.5 v 0.3 c 0,1.8 -1.3,3.3 -3,3.3 H 534 c 0,0 -4.4,0 -5.2,-1 -0.5,-0.7 -1.5,-1.3 -2.2,-1.6 -0.3,-0.2 -0.6,-0.3 -0.6,-0.3 h -5 V 44.1 c 0,0 4.4,-0.3 7.1,-1.7 0.5,-0.3 0.9,-0.6 1.3,-0.9 2.2,-2.2 5.5,-8.4 6,-11.6 0.5,-3.2 -0.4,-5.4 0,-7 0.4,-1.6 5.9,-2.8 7.5,5.8 0.7,3.8 0.5,6.8 0,9.1 -0.1,0.5 -0.2,1 -0.3,1.4 h 10.7 c 0.7,0 1.4,0.2 1.9,0.6 1,0.7 1.7,2 1.7,3.4 0.1,1.6 -0.9,3.1 -2.2,3.7 z"
   class="st63"
   inkscape:connector-curvature="0"
   style="fill:#fec997" />
</g><path
     id="path412"
     d="m 525.4,42.5 v 20.2 c 0,0.9 -0.8,1.7 -1.7,1.7 h -13.6 c -1.1,0 -1.9,-0.9 -1.7,-2 l 1.7,-9.8 1.8,-10.4 c 0.1,-0.8 0.8,-1.4 1.7,-1.4 h 10.1 c 0.9,0 1.7,0.8 1.7,1.7 z"
     class="st56"
     inkscape:connector-curvature="0"
     style="fill:#00a3c8" /></g>
</svg>