<?xml version="1.0" encoding="utf-8"?>
<!-- Generator: Adobe Illustrator 22.1.0, SVG Export Plug-In . SVG Version: 6.00 Build 0)  -->
<svg version="1.1"
	 id="svg4179" inkscape:version="0.91 r13725" sodipodi:docname="Prime Day logo 2015.svg" xmlns:cc="http://creativecommons.org/ns#" xmlns:dc="http://purl.org/dc/elements/1.1/" xmlns:inkscape="http://www.inkscape.org/namespaces/inkscape" xmlns:rdf="http://www.w3.org/1999/02/22-rdf-syntax-ns#" xmlns:sodipodi="http://sodipodi.sourceforge.net/DTD/sodipodi-0.dtd" xmlns:svg="http://www.w3.org/2000/svg"
	 xmlns="http://www.w3.org/2000/svg" xmlns:xlink="http://www.w3.org/1999/xlink" x="0px" y="0px" viewBox="0 0 334.7 162.4"
	 style="enable-background:new 0 0 334.7 162.4;" xml:space="preserve">
<style type="text/css">
	.st0{fill:#ABABAB;}
	.st1{fill:#780000;}
	.st2{fill:#D19161;}
	.st3{fill:#2B2B2B;}
	.st4{fill:#787878;}
	.st5{fill:#618CC7;}
	.st6{fill:#406BA3;}
	.st7{fill:#4D4D4D;}
	.st8{fill:#CCCCCC;}
	.st9{fill:#990000;}
	.st10{fill:#F5B382;}
	.st11{fill:#999999;}
	.st12{fill:#A6BDDE;}
	.st13{fill:#FFFFFF;}
	.st14{fill:#57331A;}
	.st15{fill:#E3A370;}
	.st16{fill:#F7C7A1;}
	.st17{fill:#E6CC80;}
	.st18{fill:#C2AB5C;}
	.st19{opacity:0.5;fill:#FFFFFF;enable-background:new    ;}
	.st20{fill:#9CB5D6;}
	.st21{fill:#00A9CE;}
	.st22{fill:#808080;}
	.st23{fill:#00A3C8;}
	.st24{fill:#616161;}
</style>
<g>
	<path class="st0" d="M271.4,154.8c0.3,0.5,0.2,1.5-0.3,1.9c-0.6,0.5-5.2,1.7-6.8,1.4c-1.7-0.2-4.6-1.8-5.7-1.6
		c-1.1,0.1-3.7,0-4.4-0.8c-0.3-0.3,0-1.3,0.6-2.5c0.6,0.8,1.4,1.8,2.1,1.8c1.8-0.1,5.8,0.6,7.2,1.3
		C266.1,157.2,269.7,156.1,271.4,154.8L271.4,154.8z"/>
	<path class="st1" d="M261.5,150c0,0.1,0,0.1,0.1,0.2c0.5,1,4.1,3,5,3c0.9,0,4,1,4.4,1.2s0.3,0.2,0.4,0.3c-1.8,1.4-5.3,2.4-7.4,1.5
		c-1.5-0.7-5.4-1.3-7.2-1.3c-0.7,0-1.5-0.9-2.1-1.8c0.1-0.2,0.2-0.5,0.3-0.7c0.3-0.6,0.6-1.2,1-1.8
		C259.1,153.8,259.4,150.9,261.5,150L261.5,150z"/>
	<path class="st2" d="M259.8,139.8c1.1-0.7,3.2,1,3.7,1.2c-0.5,2.1-2.2,8-2.1,8.8s0,0.1,0,0.2c-2.1,0.9-2.4,3.7-5.4,0.7
		c0.1-0.2,0.3-0.5,0.4-0.7c0.4-0.6,0.7-1.1,0.9-1.4C258,147.8,259.5,140,259.8,139.8L259.8,139.8z"/>
	<path class="st3" d="M251.3,122c2.1,3.4,5.9,7.8,7.1,11.5c1.2,3.8-0.5,11.8-0.4,12.2c1.3-0.3,4.6,0.3,5.9,0.6
		c0.6-1.8,1.7-11,1.7-12.6c0-1.6-0.9-8.3-1.9-13.1c-0.8,0.5-1.9,1.1-2.8,1.2c-0.4-3.1-0.5-4.7-2.1-8.5c0.5,4.2,0.5,8,0.5,8.8
		C256.6,122.3,253.8,122.2,251.3,122L251.3,122z"/>
	<polygon class="st4" points="256.8,140.8 265.6,141.2 265.3,147.5 256.5,147.1 	"/>
	<path class="st5" d="M264.5,120.1c-0.4-10.4-4.6-24.2-8.4-29.3c-3.8-5.2-7.4-9.1-10.8-6.6c-3.5,2.5-4.4,5.2-4.8,7.4
		c-0.4,2.2,0,7.6,1,9.5c1,1.9,5.1,7.3,5.2,9.5c0.1,2.2-0.7,5.3-0.5,10.4c2.2,0.9,8,1.7,13.2,1.2c0-0.8-0.1-4.6-0.5-8.8
		c1.7,3.8,1.7,5.4,2.1,8.5C262.2,121.7,264,120.5,264.5,120.1L264.5,120.1z"/>
	<path class="st6" d="M264.4,118.2c-0.7-8.7-3.7-19.3-6.8-25.1c-3.6,7.2-11.7,0.9-16.6-3.7c-0.3,0.7-0.4,1.4-0.6,2
		c-0.4,2.2,0,7.6,1,9.5c0.1,0.1,0.1,0.3,0.2,0.4c0,0,0,0,0.1-0.1c0-0.2-0.2-0.1,0.3-0.2c0.7,1.5,10,9.5,16.9,14.1
		c0-0.7-0.1-1.3-0.2-2c0.4,0.9,0.7,1.8,1,2.5C261.5,116.9,263.2,117.8,264.4,118.2L264.4,118.2z"/>
	<path class="st7" d="M247.7,121.3c0.7,3.9,2.1,9.9,1.7,12c-0.6,2.6-5.3,12.3-5.3,12.6c1.3,0.2,5.3,1.7,6.4,2.4
		c1.2-1.5,5.9-9.8,6.2-11.1c0.3-1.3,3.4-11.6,3.4-20.5c-0.3-1-0.7-2.1-1.3-3.6c0.5,4.2,0.5,8,0.5,8.8
		C255.1,122.5,250.5,122,247.7,121.3L247.7,121.3z"/>
	<path class="st8" d="M256.9,157.7c0.2,0.6,0,1.5-0.6,1.9c-0.7,0.4-5.9,1.8-7.5,1.4c-1.6-0.4-4.4-2.3-5.4-2.4
		c-1.1,0-3.6-0.4-4.2-1.4c-0.2-0.4,0.2-1.3,0.9-2.4c0.5,0.9,1.1,1.9,1.8,2c1.8,0.2,5.6,1.3,7,2.2
		C250.8,160.3,255.1,158.9,256.9,157.7L256.9,157.7z"/>
	<path class="st9" d="M247.2,152.6c0,0.1,0,0.1,0,0.2c0.3,0.8,1.7,2,3,2.9c0.8,0.5,1.6,0.9,1.9,0.9c0.8-0.1,3.8,0.5,4.5,0.9
		c0.1,0.1,0.3,0.2,0.3,0.4c-1.9,1.1-6.1,2.5-8,1.3c-1.4-0.9-5.2-2-7-2.2c-0.7-0.1-1.4-1.1-1.8-2c0.1-0.2,0.3-0.4,0.4-0.7
		c0.4-0.5,0.8-1.1,1.2-1.6C244.3,156,244.9,153.2,247.2,152.6L247.2,152.6z"/>
	<path class="st10" d="M246.8,142.2c1.1-0.6,3,1.4,3.5,1.7c-0.7,2-3.2,7.7-3.2,8.5c0,0.8,0,0.2,0,0.2c-2.2,0.6-2.8,3.4-5.5,0
		c0.2-0.2,0.3-0.4,0.5-0.6c0.5-0.6,0.9-1,1.1-1.3C244,149.9,246.4,142.4,246.8,142.2L246.8,142.2z"/>
	<polygon class="st11" points="245.4,139.6 254.3,143.7 251.4,150 242.5,146 	"/>
	<path class="st12" d="M254.4,90c-2-4-5.1-8.2-8.3-7.6c-3.5,0.6-4.7,5.4-1.3,10.9c0.4-1.5,0.6-2.6,1.1-2.9c0.5-0.2,3.9,0.4,5.9,2.1
		c-0.3-2.8,0.1-4.4,0.4-4.5C252.5,87.8,253.7,89.3,254.4,90L254.4,90z"/>
	<path class="st10" d="M245.3,80.1L245.3,80.1c1.4,0,2.4,0.7,3,2l1.3,3.1l2.6,7.7l-8.6-5.9l-0.2-3.9
		C243.2,81.7,243.9,80.4,245.3,80.1L245.3,80.1z"/>
	<polygon class="st13" points="250.5,87.9 252.2,92.9 246.8,89.2 	"/>
	<path class="st14" d="M225.9,54.5c-0.1,0.1-0.3,0.2-0.4,0.3c-1.9,1.6-3.4,4.1-3.8,6.2c0.4-0.9,2.3-2.9,4.5-2.1
		c-6.5,0.4-6.3,8.8-3.5,10.9c-0.9-2-1.3-4.6,1.1-6l0.2-0.1c-4.6,4.7,4.9,11.1,6.2,12.9c1.3,1.9,2,7,3.6,8.1c1.1,0.8,5.5,1.6,9.3,1.2
		c1.5-0.1,2.8-0.5,3.9-1c-0.9-2.3-1.8-4.5-2.6-6.3C242,74.1,233.5,61.2,225.9,54.5L225.9,54.5z"/>
	<path class="st14" d="M252.7,72.8c-0.5-2-4.7-5.8-6.2-8.3c-1.5-2.5-2.1-6.7-3.8-8.3c-1.7-1.7-3.6-1.6-4,0.3
		c-1.1-6.2-7.5-5.7-10.1-3.7c2.7-0.6,4.3,0.4,5,2.3c-2.6-2.7-5.8-2.3-8.1-0.6c7.6,6.7,16.1,19.6,18.4,24.2c0.9,1.8,1.6,4.3,2.5,6.6
		c0.3-0.1,1-0.5,1.2-0.7C251.1,81.9,253.1,74.8,252.7,72.8L252.7,72.8z"/>
	<path class="st10" d="M231.7,60.4c2.8-1.5,8.8-3.1,10.3-1.1c1.7,2.3,7.2,10.2,7.3,12.2c0.1,2-5.1,2.6-6.9,3.7
		C239.9,71.2,235.9,65.4,231.7,60.4L231.7,60.4z"/>
	<path class="st15" d="M242.3,75.3c-0.9,0.6-2.1,2.3-3.2,3.7c-1,1.2-2,2.3-3,2.4c-2,0.2-8.7-9.3-9.3-10.6c-0.6-1.1,1.3-6.1,3-8.6
		c0.3-0.5,0.7-0.9,0.9-1.1c0.2-0.2,0.6-0.4,1-0.7C235.9,65.4,239.9,71.2,242.3,75.3C242.3,75.3,242.3,75.3,242.3,75.3L242.3,75.3z"
		/>
	<path class="st10" d="M246.8,62.3c-0.4,0.1-0.8,0.4-1,0.8c0.2,0.5,0.4,0.9,0.7,1.4c0.5,0.9,1.4,1.9,2.3,3c1.2-0.5,1.7-2,1.2-3.4
		C249.4,62.7,248,61.9,246.8,62.3L246.8,62.3z"/>
	<path class="st15" d="M227.1,75.7c-0.9,1-0.7,2.6,0.5,3.6c1.1,1,2.7,1,3.6,0.1c0,0,0,0,0-0.1c-0.3-1-0.7-1.9-1.1-2.5
		c-0.3-0.4-0.9-1-1.7-1.8C227.9,75.1,227.4,75.3,227.1,75.7L227.1,75.7z"/>
	<path class="st15" d="M243,76.2c-0.1,0-0.2,0.1-0.3,0.2c-0.1,0.1,0.3-0.3-0.3,0.2s-3,3.1-2.8,4c0.1,0.9,2,2.8,3.2,2.5
		c1.1-0.3,1.7-1.4,2.3-2.2c0-0.1,0.1-0.1,0.1-0.2C244.6,79.1,243.8,77.6,243,76.2L243,76.2z"/>
	<path class="st10" d="M247.2,74.6c-0.9-0.1-2.9,0.9-4.2,1.6c0.9,1.4,1.6,3,2.2,4.6c0.2-0.2,0.3-0.4,0.5-0.5
		c0.9-0.7,2.4-0.4,3.1-1.7C249.5,77.3,248.1,74.6,247.2,74.6L247.2,74.6z"/>
	<path class="st13" d="M247.1,74.8c-1,1.7-4.7,4.5-7.3,5.7C243.7,80.7,246,80.1,247.1,74.8L247.1,74.8z"/>
	<path d="M240.1,65.7c-0.4,0.4-0.2,1.1,0.3,1.7c0.6,0.6,1.3,0.8,1.7,0.4c0.4-0.4,0.2-1.1-0.3-1.7C241.3,65.5,240.5,65.3,240.1,65.7
		L240.1,65.7z"/>
	<path d="M233.1,70.5c-0.5,0.1-0.7,0.9-0.5,1.7c0.2,0.8,0.8,1.3,1.3,1.1c0.5-0.1,0.7-0.9,0.5-1.7C234.2,70.8,233.6,70.3,233.1,70.5
		L233.1,70.5z"/>
	<path class="st9" d="M242.9,61.3l-4,2.7c-0.7,0.5-1.1,1.1-1.3,1.8c-0.2,0.7-0.1,1.5,0.3,2.1c0.1,0.1,0.2,0.3,0.3,0.4l-1.4,1
		c-0.1-0.1-0.2-0.3-0.3-0.4c-0.4-0.6-1.1-1-1.8-1c-0.7-0.1-1.5,0.1-2.2,0.5l-4,2.7c-0.7,0.5-1.1,1.1-1.3,1.8
		c-0.2,0.7-0.1,1.5,0.3,2.1c1.7,2.5,4,3.3,6,3c0.8-0.1,1.5-0.4,2.1-0.9c0.6-0.4,1.2-1,1.6-1.7c0.9-1.6,1-3.6-0.2-5.9l1.5-1
		c1.6,1.9,3.6,2.6,5.4,2.3c0.8-0.1,1.5-0.4,2.1-0.9c0.6-0.4,1.2-1,1.6-1.7c1-1.7,1-4.2-0.7-6.7c-0.4-0.6-1.1-1-1.8-1
		C244.4,60.6,243.6,60.8,242.9,61.3L242.9,61.3z M228.9,71.8l4-2.7c0.5-0.4,1.1-0.5,1.7-0.4c0.5,0,1,0.3,1.3,0.7
		c1.5,2.2,1.5,4.4,0.7,5.8c-0.3,0.6-0.8,1.1-1.3,1.4c-0.5,0.4-1.2,0.6-1.8,0.7c-1.7,0.3-3.7-0.5-5.2-2.7c-0.3-0.4-0.3-0.9-0.2-1.4
		C228.1,72.7,228.4,72.1,228.9,71.8L228.9,71.8z M239.3,64.7l4-2.7c0.5-0.4,1.1-0.5,1.7-0.4c0.5,0,1,0.3,1.3,0.7
		c1.5,2.2,1.5,4.4,0.7,5.8c-0.3,0.6-0.8,1.1-1.3,1.4c-0.5,0.4-1.2,0.6-1.8,0.7c-1.7,0.3-3.7-0.5-5.2-2.7c-0.3-0.4-0.3-0.9-0.2-1.4
		C238.5,65.5,238.8,65,239.3,64.7L239.3,64.7z"/>
	<polygon class="st16" points="242.1,75 244,73.8 241.2,71.3 238.4,68.8 	"/>
	<polygon class="st10" points="238.4,68.8 238.4,68.9 239.3,72.5 240.2,76.1 242.1,75 242.1,75 	"/>
	<path d="M230.2,65.9l-0.8,0.9c-0.2,0.2-0.2,0.6,0,0.9l0,0c0.2,0.2,0.6,0.2,0.9,0l0.8-0.9c0.2-0.2,0.2-0.6,0-0.9l0,0
		C230.8,65.6,230.4,65.6,230.2,65.9L230.2,65.9z"/>
	<path d="M237.9,60.6l-1.1,0.5c-0.3,0.1-0.5,0.5-0.3,0.8l0,0c0.1,0.3,0.5,0.5,0.8,0.3l1.1-0.5c0.3-0.1,0.5-0.5,0.3-0.8l0,0
		C238.5,60.7,238.2,60.5,237.9,60.6L237.9,60.6z"/>
	<polygon class="st17" points="254.9,75.1 289.3,72.8 289.3,114.5 254.9,114.5 	"/>
	<polygon class="st18" points="300.1,77.7 289.3,72.8 289.3,114.5 300.1,114.5 	"/>
	<polygon class="st19" points="275.3,73.9 275.3,114.5 268.4,114.5 268.4,74.2 	"/>
	<polygon class="st19" points="300.1,100.1 289.3,96.7 254.9,98.3 254.9,88.7 289.4,87.1 289.9,87.2 300.1,91.6 300.1,96.6 	"/>
	<polygon class="st19" points="296.7,76.2 296.7,114.5 293.6,114.5 293.6,74.8 	"/>
	<path class="st10" d="M270,117.3l-1.4-3.8c-0.1,0-0.1,0-0.2,0.1l0.8,3.1c0.3,1-1.3,1.4-1.6,0.4l-0.8-3.1c-0.1,0-0.1,0-0.2,0
		l0.3,2.3c0.1,0.9-1.2,1-1.3,0.1l-0.3-2.5c0,0,0,0,0-0.1c-0.4-0.9-0.9-2.5-0.8-3.9c0-0.7,0.2-1.4,0.9-1.7c1.3-0.5,2.2-0.9,3.6-1
		l3.7-0.1c0.6,0,1.1,0.4,1.1,1l0,0c0,0.6-0.4,1.1-1,1.1l-2.3,0.1c0.5,0.8,0.9,1.7,1,2.3l0,0c0,0,0.1,0.1,0.1,0.2l1.7,2.9
		c0.5,0.9-0.9,1.7-1.4,0.8l-1.6-2.7c0,0-0.1,0-0.1,0l1.4,3.9C271.8,117.8,270.3,118.4,270,117.3L270,117.3z"/>
	<polygon class="st10" points="266.7,110.6 268,107.9 261.2,104.6 259.9,107.4 	"/>
	<path class="st5" d="M256.7,108.5c-5.1-1.6-11.2-4.2-15-7c-0.1-0.2-0.2-0.4-0.3-0.5c-1-1.9-1.5-7.3-1-9.5c0.1-0.6,0.3-1.3,0.6-2
		c6.7,6.1,11.6,10,18.3,13.2L256.7,108.5L256.7,108.5z"/>
	<polygon class="st20" points="259.5,102 264.2,104 261.1,111.2 256.4,109.2 	"/>
	<g>
		<path class="st21" d="M261.7,94.1c-0.1,0.6-0.4,1-0.9,1.5c-0.5,0.4-1,0.6-1.6,0.8c0,0,0,0,0,0c-0.1,0-0.2-0.2-0.3-0.6
			c-0.2-0.4-0.2-0.6-0.2-0.7c0,0,0,0,0.1,0c0.3-0.1,0.6-0.1,0.8-0.3c0.3-0.2,0.5-0.4,0.5-0.7c0-0.2,0-0.4-0.2-0.6
			c-0.3-0.4-0.4-0.6-0.4-0.6c-0.1-0.3-0.2-0.6-0.2-0.9c0.1-0.5,0.4-0.9,0.9-1.3c0.4-0.3,0.9-0.5,1.5-0.6c0,0,0,0,0.1,0
			c0,0,0.1,0,0.1,0.1c0.1,0.4,0.2,0.7,0.4,1.1c0,0,0,0,0,0c0,0,0,0.1-0.1,0.1l0,0c0,0-0.1,0-0.1,0s-0.1,0-0.1,0
			c-0.2,0-0.4,0.1-0.5,0.2c-0.2,0.1-0.3,0.3-0.3,0.5c0,0.2,0,0.4,0.2,0.6c0.3,0.4,0.4,0.7,0.5,0.7C261.7,93.4,261.8,93.8,261.7,94.1
			z"/>
		<path class="st21" d="M266.6,92.7l-0.4,2.9c0,0.1,0,0.1-0.1,0.2c-0.1,0-0.3,0-0.6,0c-0.2,0-0.4,0-0.6,0c-0.1,0-0.1-0.1-0.1-0.2
			c0-0.2,0.1-0.6,0.1-1.1c0.1-0.5,0.1-0.9,0.1-1.1c0-0.3-0.1-0.5-0.4-0.5c-0.1,0-0.3,0.1-0.4,0.1c-0.2,0.1-0.3,0.2-0.3,0.3l-0.1,1
			c0,0.1,0,0.3-0.1,0.6c0,0.3,0,0.5-0.1,0.6c0,0.1-0.1,0.2-0.1,0.2c-0.1,0-0.3,0-0.7,0c-0.2,0-0.3,0-0.5,0c-0.1,0-0.1-0.1-0.1-0.1
			c0-0.2,0.1-0.6,0.1-1c0-0.4,0.1-0.8,0.1-1c0.1-0.9,0.2-1.7,0.3-2.2c0-0.2,0-0.4,0-0.6c0-0.2,0-0.4,0-0.6c0,0,0,0,0-0.1
			c0,0,0-0.1,0.1-0.1c0.1,0,0.2,0,0.4-0.1c0.2,0,0.3,0,0.4,0l0.8-0.1c0,0,0.1,0,0,0.1c0,0.1,0,0.2-0.1,0.4c0,0.2,0,0.3-0.1,0.4
			c-0.1,0.6-0.2,1.1-0.2,1.5c0,0,0,0.1,0,0.1c0,0,0.1,0,0.2-0.1c0.1-0.1,0.3-0.2,0.5-0.3c0.2-0.1,0.4-0.2,0.7-0.2
			c0.3,0,0.6,0.1,0.9,0.2C266.6,92.1,266.7,92.4,266.6,92.7z"/>
		<path class="st21" d="M268.7,93.8c0,0.2,0,0.5-0.1,0.9c0,0.4-0.1,0.7-0.1,0.9c0,0,0,0.1-0.1,0.1c-0.2,0-0.4,0-0.6,0
			c-0.2,0-0.4,0-0.6,0c0,0-0.1,0-0.1,0c0,0,0-0.1,0-0.1c0-0.2,0.1-0.5,0.1-0.9s0.1-0.7,0.1-0.9c0.1-0.6,0.1-1.2,0.1-1.9
			c0,0,0,0,0-0.1s0-0.1,0.1-0.1c0.1,0,0.2,0,0.3,0s0.3,0,0.4,0c0.1,0,0.2,0,0.4,0c0.2,0,0.3,0,0.4,0c0.1,0,0.1,0,0.1,0.1
			c0,0,0,0,0,0.1C268.9,92.5,268.8,93.1,268.7,93.8z M269.2,90.7c-0.1,0.5-0.4,0.7-0.9,0.8c-0.2,0-0.4,0-0.6-0.1
			c-0.1-0.1-0.2-0.3-0.2-0.5c0-0.2,0.1-0.4,0.3-0.5c0.2-0.1,0.4-0.2,0.6-0.2c0.2,0,0.4,0,0.5,0.2C269.2,90.3,269.2,90.5,269.2,90.7
			L269.2,90.7z"/>
		<path class="st21" d="M274.1,93.4c-0.1,0.6-0.3,1.1-0.7,1.5c-0.4,0.4-0.9,0.7-1.5,0.7c-0.2,0-0.5,0-0.7-0.1
			c-0.2-0.1-0.3-0.1-0.3-0.1c0,0,0,0-0.1,0.1c0,0.1,0,0.4-0.1,0.6c0,0.3,0,0.5-0.1,0.6c0,0.1-0.1,0.1-0.1,0.1l0,0l-0.9,0
			c-0.1,0-0.2,0-0.4,0c-0.1,0-0.1-0.1-0.1-0.1v0l0.4-3.2c0.1-0.5,0.1-1.1,0.1-1.6c0,0,0,0,0-0.1c0,0,0-0.1,0-0.1
			c0.2-0.1,0.4-0.1,0.6-0.2c0.2,0,0.4-0.1,0.7-0.1c0.1,0,0.2,0.1,0.1,0.2c0,0.1,0,0.2,0,0.2c0,0,0.1-0.1,0.4-0.2s0.5-0.2,0.8-0.3
			c0.6,0,1,0.1,1.4,0.5C274,92.3,274.1,92.8,274.1,93.4z M272.5,93.5c0-0.2,0-0.4-0.1-0.6s-0.3-0.2-0.5-0.2c-0.2,0-0.4,0.1-0.6,0.3
			s-0.2,0.4-0.2,0.6c0,0.2,0,0.4,0.1,0.6c0.1,0.2,0.3,0.2,0.5,0.2C272.2,94.3,272.5,94,272.5,93.5L272.5,93.5z"/>
		<path class="st21" d="M276.1,93.4c0,0.2,0,0.5-0.1,0.9c0,0.4-0.1,0.7-0.1,0.9c0,0,0,0.1-0.1,0.1c-0.2,0-0.4,0-0.6,0
			c-0.2,0-0.4,0-0.6,0c0,0-0.1,0-0.1,0c0,0,0-0.1,0-0.1c0-0.2,0.1-0.5,0.1-0.9c0-0.4,0.1-0.7,0.1-0.9c0.1-0.6,0.1-1.2,0.1-1.9
			c0,0,0-0.1,0-0.1c0,0,0-0.1,0.1-0.1c0.1,0,0.2,0,0.3,0s0.3,0,0.4,0c0.1,0,0.2,0,0.4,0c0.2,0,0.3,0,0.4,0c0.1,0,0.1,0,0.1,0.1
			c0,0,0,0,0,0.1C276.3,92.1,276.2,92.8,276.1,93.4z M276.6,90.3c-0.1,0.5-0.4,0.7-0.9,0.8c-0.2,0-0.4,0-0.6-0.1
			c-0.1-0.1-0.2-0.3-0.2-0.5c0-0.2,0.1-0.4,0.3-0.5c0.2-0.1,0.4-0.2,0.6-0.2c0.2,0,0.4,0,0.5,0.2C276.6,89.9,276.6,90.1,276.6,90.3
			L276.6,90.3z"/>
		<path class="st21" d="M279.6,93.9c0,0.1,0,0.2-0.1,0.4c0,0.1,0,0.2-0.1,0.4c0,0,0,0.1,0,0.1c0,0-0.1,0.1-0.1,0.1
			c-0.4,0.2-0.8,0.3-1.2,0.3c-0.8,0-1.1-0.2-1.1-0.9c0-0.2,0.1-0.5,0.1-0.8c0.1-0.4,0.1-0.6,0.1-0.8c0-0.1,0-0.2-0.2-0.2h0
			c0,0,0,0,0,0c-0.1,0-0.1,0-0.1-0.1c0,0,0-0.1,0-0.2c0-0.1,0-0.2,0-0.2c0,0,0-0.1,0-0.3s0-0.2,0-0.3c0,0,0.1-0.1,0.3-0.1
			c0.1,0,0.1,0,0.2-0.1c0-0.2,0.1-0.3,0.1-0.5c0-0.4,0-0.5,0-0.5c0-0.3,0.1-0.5,0.1-0.5c0.1,0,0.2,0,0.3,0c0.1,0,0.2,0,0.3,0
			c0.1,0,0.3,0,0.6,0c0.1,0,0.1,0,0.1,0.1c0,0.1,0,0.3-0.1,0.5c0,0.2-0.1,0.4-0.1,0.5c0,0.1,0,0.2,0.1,0.2c0.1,0,0.2,0,0.4,0
			c0.2,0,0.3,0,0.4,0c0,0,0.1,0,0.1,0c0,0.1,0,0.2,0,0.3s0,0.2,0,0.3s0,0.2,0,0.3c0,0.1,0,0.2,0,0.3c0,0,0,0.1-0.1,0.1
			c0,0-0.1,0-0.3,0s-0.2,0-0.3,0l-0.3,0c0,0-0.1,0.1-0.1,0.2l0,0.3c0,0.1,0,0.2,0,0.3c0,0.2,0,0.4,0,0.5c0,0.1,0.2,0.2,0.4,0.2
			c0.1,0,0.2,0,0.3-0.1C279.3,93.9,279.4,93.9,279.6,93.9C279.6,93.9,279.6,93.9,279.6,93.9z"/>
		<path class="st21" d="M284.1,92.9c-0.1,0.6-0.3,1.1-0.8,1.6c-0.4,0.4-1,0.7-1.6,0.7c-0.6,0-1.1-0.1-1.4-0.5
			c-0.3-0.4-0.5-0.9-0.4-1.5c0.1-0.6,0.3-1.2,0.8-1.6c0.4-0.4,0.9-0.6,1.6-0.7c0.6,0,1.1,0.1,1.4,0.5
			C284,91.8,284.2,92.3,284.1,92.9z M282.7,93c0-0.2,0-0.4-0.1-0.6c-0.1-0.2-0.3-0.2-0.5-0.2c-0.2,0-0.4,0.1-0.6,0.3
			c-0.1,0.2-0.2,0.4-0.3,0.6c0,0.2,0,0.4,0.1,0.6c0.1,0.2,0.3,0.2,0.5,0.2c0.2,0,0.4-0.1,0.6-0.3C282.6,93.4,282.7,93.2,282.7,93z"
			/>
	</g>
</g>
<g>
	<rect x="148.5" y="94.7" class="st22" width="26.8" height="1"/>
	<g>
		<polygon class="st22" points="149.9,90.2 141.3,95.2 149.9,100.1 		"/>
	</g>
</g>
<g>
	<path class="st23" d="M49.2,75.9L42.5,64c0,0,0-1,2.6-0.5c2.6,0.5,10.4,1.6,15.1,1c4.7-0.5,8.8-1.6,9.3-1c0.5,0.5-2.1,3.6-2.1,3.6
		l-4.2,8.8H49.2z"/>
	<g>
		<path class="st23" d="M84.5,107.3C84.5,89,68,72.1,49.1,77.4c-8.6,2.4-15.4,9.2-18.7,17.3c-2.2,5.5-5.4,23.5,1.1,27.4
			c2,1.2,48.8,0.4,49.5,0C84,120.3,84.5,110.2,84.5,107.3z"/>
	</g>
	<path class="st24" d="M64.4,78H47.5c-0.6,0-1.1-0.5-1.1-1.1v-1.4c0-0.6,0.5-1.1,1.1-1.1h16.9c0.6,0,1.1,0.5,1.1,1.1v1.4
		C65.6,77.5,65.1,78,64.4,78z"/>
	<g>
		<path class="st13" d="M56.6,100.4c2.5,0.8,5.2,1.7,5.2,4.9c0,2.6-2.1,4.3-5.2,4.6v3.2h-1.5v-3.2c-2.3-0.1-4.4-1.2-5.9-2.5l0.9-1.7
			c1.4,1.4,3.3,2.2,5,2.4v-6c-2.4-0.7-4.9-1.6-4.9-4.7c0-2.4,1.9-4,4.9-4.3v-2.9h1.5V93c1.8,0.1,3.5,0.7,4.8,1.5l-0.8,1.8
			c-1.3-0.8-2.7-1.3-3.9-1.4V100.4z M55.1,99.9v-5c-1.7,0.2-2.8,0.9-2.8,2.2C52.3,98.7,53.6,99.4,55.1,99.9z M56.6,102.5v5.5
			c1.9-0.2,3.1-1.2,3.1-2.5C59.7,103.7,58.3,103,56.6,102.5z"/>
	</g>
</g>
<g>
	<rect x="259.6" y="0.3" class="st22" width="1" height="26.8"/>
	<g>
		<polygon class="st22" points="255.2,25.6 260.1,34.3 265.1,25.6 		"/>
	</g>
</g>
<g>
	<rect x="56" y="7.4" class="st22" width="1" height="26.8"/>
	<g>
		<polygon class="st22" points="61.5,8.9 56.5,0.3 51.5,8.9 		"/>
	</g>
</g>
</svg>
