<?xml version="1.0" encoding="utf-8"?>
<!-- Generator: Adobe Illustrator 22.1.0, SVG Export Plug-In . SVG Version: 6.00 Build 0)  -->
<svg version="1.1"
	 id="svg4179" inkscape:version="0.91 r13725" sodipodi:docname="Prime Day logo 2015.svg" xmlns:cc="http://creativecommons.org/ns#" xmlns:dc="http://purl.org/dc/elements/1.1/" xmlns:inkscape="http://www.inkscape.org/namespaces/inkscape" xmlns:rdf="http://www.w3.org/1999/02/22-rdf-syntax-ns#" xmlns:sodipodi="http://sodipodi.sourceforge.net/DTD/sodipodi-0.dtd" xmlns:svg="http://www.w3.org/2000/svg"
	 xmlns="http://www.w3.org/2000/svg" xmlns:xlink="http://www.w3.org/1999/xlink" x="0px" y="0px" viewBox="0 0 334.7 75"
	 style="enable-background:new 0 0 334.7 75;" xml:space="preserve">
<style type="text/css">
	.st0{fill:#929090;}
	.st1{fill:none;}
	.st2{fill:#00A3C8;}
	.st3{fill:#EDE4CC;}
	.st4{fill:#E5C26A;}
	.st5{fill:#FEC997;}
	.st6{fill:#EDEEEE;}
	.st7{fill:#F6F6F6;}
	.st8{fill:url(#SVGID_1_);}
	.st9{fill:url(#SVGID_2_);}
	.st10{fill:#D6D6D6;}
	.st11{fill:url(#SVGID_3_);}
	.st12{fill:url(#SVGID_4_);}
	.st13{fill:url(#SVGID_5_);}
	.st14{fill:url(#SVGID_6_);}
	.st15{fill:url(#SVGID_7_);}
	.st16{fill:url(#SVGID_8_);}
	.st17{fill:url(#SVGID_9_);}
	.st18{fill:url(#SVGID_10_);}
	.st19{fill:url(#SVGID_11_);}
	.st20{fill:url(#SVGID_12_);}
	.st21{fill:url(#SVGID_13_);}
	.st22{fill:#FFFFFF;stroke:#929090;stroke-miterlimit:10;}
	.st23{fill:url(#SVGID_14_);}
	.st24{fill:#3F3B39;}
	.st25{fill:#888888;}
	.st26{fill:url(#SVGID_15_);}
	.st27{fill:url(#SVGID_16_);}
	.st28{fill:url(#SVGID_17_);}
	.st29{fill:url(#SVGID_18_);}
	.st30{fill:url(#SVGID_19_);}
	.st31{fill:url(#SVGID_20_);}
	.st32{fill:url(#SVGID_21_);}
	.st33{fill:url(#SVGID_22_);}
	.st34{fill:url(#SVGID_23_);}
	.st35{fill:url(#SVGID_24_);}
	.st36{fill:url(#SVGID_25_);}
	.st37{fill:url(#SVGID_26_);}
	.st38{fill:url(#SVGID_27_);}
	.st39{fill:#808080;}
</style>
<g>
	<g>
		<circle class="st0" cx="92.9" cy="21.2" r="2.4"/>
		<g>
			<path class="st0" d="M92.9,24.1c-3,0-5.4,2.3-5.5,5.3h11.1C98.2,26.5,95.8,24.1,92.9,24.1z"/>
		</g>
	</g>
	<g>
		<circle class="st0" cx="92.9" cy="41.8" r="2.4"/>
		<g>
			<path class="st0" d="M92.9,44.7c-3,0-5.4,2.3-5.5,5.3h11.1C98.2,47.1,95.8,44.7,92.9,44.7z"/>
		</g>
	</g>
	<g>
		<circle class="st0" cx="109" cy="34.4" r="2.4"/>
		<g>
			<path class="st0" d="M109,37.3c-3,0-5.4,2.3-5.5,5.3h11.1C114.4,39.7,111.9,37.3,109,37.3z"/>
		</g>
	</g>
	<g>
		<circle class="st0" cx="109" cy="51.3" r="2.4"/>
		<g>
			<path class="st0" d="M109,54.2c-3,0-5.4,2.3-5.5,5.3h11.1C114.4,56.6,111.9,54.2,109,54.2z"/>
		</g>
	</g>
	<g>
		<g>
			<path class="st1" d="M118.2,46.3c4.4,0,7.9-3.6,7.9-7.9s-3.6-7.9-7.9-7.9H59.1v15.8H118.2z"/>
			<path class="st2" d="M26.3,46.3c-4.4,0-7.9-3.6-7.9-7.9s3.6-7.9,7.9-7.9h32.7V14.6H26.3c-13.1,0-23.8,10.7-23.8,23.8
				s10.7,23.8,23.8,23.8h32.7V46.3H26.3z"/>
		</g>
		<rect x="51.1" y="14.6" class="st3" width="15.8" height="15.8"/>
		<rect x="51.1" y="46.3" class="st3" width="15.8" height="15.8"/>
	</g>
	<polygon class="st4" points="69.1,23.1 71.7,24.1 71.7,20.9 77.5,25.2 77.5,20.9 84.9,26.8 79.7,25.2 79.7,28.9 73.3,24.1 
		73.3,28.9 	"/>
	<polygon class="st4" points="69.1,52.6 71.7,53.7 71.7,50.5 77.5,54.7 77.5,50.5 84.9,56.3 79.7,54.7 79.7,58.4 73.3,53.7 
		73.3,58.4 	"/>
	<g>
		<path class="st5" d="M146.6,33.9c0.3,0.3,0.6,0.8,0.6,1.4c0,0.8-0.5,1.6-1.2,1.8c0.3,0.3,0.5,0.8,0.5,1.3v0.1
			c0,0.8-0.5,1.4-1.1,1.6c0.4,0.3,0.6,0.8,0.6,1.3v0.2c0,0.9-0.7,1.7-1.6,1.7h-8.7c0,0-2.3,0-2.8-0.6c-0.3-0.4-0.8-0.7-1.1-0.8
			c-0.2-0.1-0.3-0.1-0.3-0.1h-2.7v-9.2c0,0,2.3-0.2,3.8-0.9c0.3-0.1,0.5-0.3,0.7-0.5c1.2-1.2,2.9-4.4,3.1-6.1c0.2-1.7-0.2-2.9,0-3.7
			c0.2-0.9,3.1-1.5,4,3.1c0.4,2,0.3,3.6,0,4.8c-0.1,0.3-0.1,0.5-0.2,0.7h5.7c0.4,0,0.7,0.1,1,0.3c0.5,0.4,0.9,1,0.9,1.8
			C147.8,32.8,147.3,33.5,146.6,33.9z"/>
	</g>
	<path class="st2" d="M131.1,31.5v10.7c0,0.5-0.4,0.9-0.9,0.9H123c-0.6,0-1-0.5-0.9-1l0.9-5.2l1-5.5c0.1-0.4,0.4-0.7,0.9-0.7h5.3
		C130.7,30.6,131.1,31,131.1,31.5z"/>
</g>
<g>
	<path class="st0" d="M321.8,57.4h-70.7c-0.5,0-0.9-0.4-0.9-0.9V5.4c0-0.5,0.4-0.9,0.9-0.9c0,0,0,0,0,0h70.7c0.5,0,0.9,0.4,0.9,0.9
		c0,0,0,0,0,0v51C322.7,57,322.3,57.4,321.8,57.4C321.8,57.4,321.8,57.4,321.8,57.4z"/>
	<path class="st0" d="M244.3,59.1c0.1,0.8,0.7,1.4,1.5,1.3h81.4c0.8,0,1.4-0.5,1.5-1.3c0,0,0,0,0,0v-0.3h-84.4V59.1z"/>
	<rect x="244.2" y="55.6" class="st6" width="84.4" height="3.2"/>
	<rect x="253.8" y="8.2" class="st7" width="65.4" height="43.6"/>
	<path class="st0" d="M293.3,58h-13.8c0,0-0.1-0.1-0.1-0.1v-0.6c0-0.1,0-0.1,0.1-0.1h13.8c0.1,0,0.1,0,0.1,0.1v0.6
		C293.4,58,293.4,58,293.3,58z"/>
	
		<linearGradient id="SVGID_1_" gradientUnits="userSpaceOnUse" x1="284.8725" y1="63.5104" x2="288.3893" y2="63.5104" gradientTransform="matrix(1 0 0 -1 0 80.6667)">
		<stop  offset="0" style="stop-color:#00A9CE"/>
		<stop  offset="1" style="stop-color:#00A9CE"/>
	</linearGradient>
	<path class="st8" d="M286.6,15.4c-1,0-1.8,0.8-1.8,1.8c0,1,0.8,1.8,1.8,1.8c1,0,1.8-0.8,1.8-1.8c0,0,0,0,0,0
		C288.4,16.2,287.6,15.4,286.6,15.4L286.6,15.4z"/>
	
		<linearGradient id="SVGID_2_" gradientUnits="userSpaceOnUse" x1="284.0295" y1="59.4007" x2="289.2287" y2="59.4007" gradientTransform="matrix(1 0 0 -1 0 80.6667)">
		<stop  offset="0" style="stop-color:#00A9CE"/>
		<stop  offset="1" style="stop-color:#00A9CE"/>
	</linearGradient>
	<path class="st9" d="M287.7,19.4h-2.1c-0.3,0-0.6,0.2-0.7,0.4l-0.7,1.4c-0.3,0.6-0.1,1.4,0.5,1.7c0.2,0.1,0.4,0.1,0.6,0.1h2.6
		c0.7,0,1.3-0.6,1.3-1.3c0-0.2,0-0.4-0.1-0.6l-0.7-1.4C288.2,19.6,288,19.4,287.7,19.4L287.7,19.4z"/>
	<rect x="278.7" y="26.9" class="st10" width="16.6" height="3.1"/>
	<rect x="278.7" y="32.7" class="st10" width="16.6" height="3.1"/>
	
		<linearGradient id="SVGID_3_" gradientUnits="userSpaceOnUse" x1="278.6801" y1="39.4451" x2="295.3012" y2="39.4451" gradientTransform="matrix(1 0 0 -1 0 80.6667)">
		<stop  offset="0" style="stop-color:#00A9CE"/>
		<stop  offset="1" style="stop-color:#00A9CE"/>
	</linearGradient>
	<rect x="278.7" y="39.7" class="st11" width="16.6" height="3.1"/>
	
		<linearGradient id="SVGID_4_" gradientUnits="userSpaceOnUse" x1="279.9266" y1="52.2303" x2="280.8793" y2="52.2303" gradientTransform="matrix(1 0 0 -1 0 80.6667)">
		<stop  offset="0" style="stop-color:#00A9CE"/>
		<stop  offset="1" style="stop-color:#00A9CE"/>
	</linearGradient>
	<circle class="st12" cx="280.4" cy="28.4" r="0.5"/>
	
		<linearGradient id="SVGID_5_" gradientUnits="userSpaceOnUse" x1="281.3253" y1="52.2303" x2="282.2678" y2="52.2303" gradientTransform="matrix(1 0 0 -1 0 80.6667)">
		<stop  offset="0" style="stop-color:#00A9CE"/>
		<stop  offset="1" style="stop-color:#00A9CE"/>
	</linearGradient>
	<circle class="st13" cx="281.8" cy="28.4" r="0.5"/>
	
		<linearGradient id="SVGID_6_" gradientUnits="userSpaceOnUse" x1="282.7137" y1="52.2303" x2="283.6664" y2="52.2303" gradientTransform="matrix(1 0 0 -1 0 80.6667)">
		<stop  offset="0" style="stop-color:#00A9CE"/>
		<stop  offset="1" style="stop-color:#00A9CE"/>
	</linearGradient>
	<circle class="st14" cx="283.2" cy="28.4" r="0.5"/>
	
		<linearGradient id="SVGID_7_" gradientUnits="userSpaceOnUse" x1="284.1022" y1="52.2303" x2="285.0549" y2="52.2303" gradientTransform="matrix(1 0 0 -1 0 80.6667)">
		<stop  offset="0" style="stop-color:#00A9CE"/>
		<stop  offset="1" style="stop-color:#00A9CE"/>
	</linearGradient>
	<circle class="st15" cx="284.6" cy="28.4" r="0.5"/>
	
		<linearGradient id="SVGID_8_" gradientUnits="userSpaceOnUse" x1="285.5008" y1="52.2303" x2="286.4434" y2="52.2303" gradientTransform="matrix(1 0 0 -1 0 80.6667)">
		<stop  offset="0" style="stop-color:#00A9CE"/>
		<stop  offset="1" style="stop-color:#00A9CE"/>
	</linearGradient>
	<circle class="st16" cx="286" cy="28.4" r="0.5"/>
	
		<linearGradient id="SVGID_9_" gradientUnits="userSpaceOnUse" x1="286.8893" y1="52.2303" x2="287.842" y2="52.2303" gradientTransform="matrix(1 0 0 -1 0 80.6667)">
		<stop  offset="0" style="stop-color:#00A9CE"/>
		<stop  offset="1" style="stop-color:#00A9CE"/>
	</linearGradient>
	<circle class="st17" cx="287.4" cy="28.4" r="0.5"/>
	
		<linearGradient id="SVGID_10_" gradientUnits="userSpaceOnUse" x1="279.9266" y1="46.4331" x2="280.8793" y2="46.4331" gradientTransform="matrix(1 0 0 -1 0 80.6667)">
		<stop  offset="0" style="stop-color:#00A9CE"/>
		<stop  offset="1" style="stop-color:#00A9CE"/>
	</linearGradient>
	<circle class="st18" cx="280.4" cy="34.2" r="0.5"/>
	
		<linearGradient id="SVGID_11_" gradientUnits="userSpaceOnUse" x1="281.3253" y1="46.4331" x2="282.2678" y2="46.4331" gradientTransform="matrix(1 0 0 -1 0 80.6667)">
		<stop  offset="0" style="stop-color:#00A9CE"/>
		<stop  offset="1" style="stop-color:#00A9CE"/>
	</linearGradient>
	<circle class="st19" cx="281.8" cy="34.2" r="0.5"/>
	
		<linearGradient id="SVGID_12_" gradientUnits="userSpaceOnUse" x1="282.7137" y1="46.4331" x2="283.6664" y2="46.4331" gradientTransform="matrix(1 0 0 -1 0 80.6667)">
		<stop  offset="0" style="stop-color:#00A9CE"/>
		<stop  offset="1" style="stop-color:#00A9CE"/>
	</linearGradient>
	<circle class="st20" cx="283.2" cy="34.2" r="0.5"/>
	
		<linearGradient id="SVGID_13_" gradientUnits="userSpaceOnUse" x1="284.1022" y1="46.4331" x2="285.0549" y2="46.4331" gradientTransform="matrix(1 0 0 -1 0 80.6667)">
		<stop  offset="0" style="stop-color:#00A9CE"/>
		<stop  offset="1" style="stop-color:#00A9CE"/>
	</linearGradient>
	<circle class="st21" cx="284.6" cy="34.2" r="0.5"/>
	<rect x="217.5" y="17.6" class="st22" width="48.5" height="28.7"/>
	
		<linearGradient id="SVGID_14_" gradientUnits="userSpaceOnUse" x1="223.0296" y1="57.845" x2="227.7322" y2="57.845" gradientTransform="matrix(1 0 0 -1 0 80.6667)">
		<stop  offset="0" style="stop-color:#00A9CE"/>
		<stop  offset="1" style="stop-color:#00A9CE"/>
	</linearGradient>
	<circle class="st23" cx="225.4" cy="22.8" r="2.4"/>
	<rect x="230" y="21.6" class="st10" width="16.6" height="1.6"/>
	<rect x="233.5" y="29" class="st10" width="16.6" height="1.6"/>
	<rect x="244.9" y="34.9" class="st10" width="16.6" height="1.6"/>
	<rect x="244.9" y="38.2" class="st10" width="16.6" height="1.6"/>
	<rect x="244.9" y="41.6" class="st10" width="16.6" height="1.6"/>
	<path class="st24" d="M331.5,72.2h-24.6c-0.3,0-0.5-0.2-0.5-0.4c0,0,0,0,0-0.1v-47c0-0.3,0.2-0.5,0.4-0.5c0,0,0,0,0,0h24.6
		c0.3,0,0.5,0.2,0.5,0.4c0,0,0,0,0,0.1v47C332,72,331.8,72.2,331.5,72.2L331.5,72.2z"/>
	<rect x="307.8" y="30" class="st7" width="22.8" height="35.7"/>
	<path class="st25" d="M321.6,27.8h-4.8c-0.2,0-0.3-0.1-0.3-0.3c0,0,0,0,0,0c0-0.2,0.1-0.3,0.3-0.3c0,0,0,0,0,0h4.8
		c0.2,0,0.3,0.1,0.3,0.3c0,0,0,0,0,0C321.9,27.7,321.7,27.8,321.6,27.8z"/>
	<path class="st25" d="M315.7,27.5c0-0.2-0.2-0.4-0.4-0.4s-0.4,0.2-0.4,0.4s0.2,0.4,0.4,0.4C315.5,27.9,315.7,27.7,315.7,27.5
		C315.7,27.5,315.7,27.5,315.7,27.5z"/>
	<circle class="st25" cx="319.3" cy="69.2" r="1.6"/>
	
		<linearGradient id="SVGID_15_" gradientUnits="userSpaceOnUse" x1="317.5371" y1="45.2575" x2="321.0539" y2="45.2575" gradientTransform="matrix(1 0 0 -1 0 80.6667)">
		<stop  offset="0" style="stop-color:#00A9CE"/>
		<stop  offset="1" style="stop-color:#00A9CE"/>
	</linearGradient>
	<path class="st26" d="M319.4,33.6c-1,0-1.8,0.8-1.8,1.8s0.8,1.8,1.8,1.8c1,0,1.8-0.8,1.8-1.8c0,0,0,0,0,0
		C321.1,34.4,320.3,33.6,319.4,33.6L319.4,33.6z"/>
	
		<linearGradient id="SVGID_16_" gradientUnits="userSpaceOnUse" x1="316.6959" y1="41.1479" x2="321.8982" y2="41.1479" gradientTransform="matrix(1 0 0 -1 0 80.6667)">
		<stop  offset="0" style="stop-color:#00A9CE"/>
		<stop  offset="1" style="stop-color:#00A9CE"/>
	</linearGradient>
	<path class="st27" d="M320.4,37.7h-2.1c-0.3,0-0.6,0.2-0.7,0.4l-0.7,1.4c-0.3,0.6-0.1,1.4,0.5,1.7c0.2,0.1,0.4,0.1,0.6,0.1h2.6
		c0.7,0,1.3-0.6,1.3-1.3c0-0.2,0-0.4-0.1-0.6l-0.7-1.4C320.9,37.8,320.7,37.7,320.4,37.7L320.4,37.7z"/>
	<rect x="311.3" y="45.2" class="st10" width="16.6" height="3.1"/>
	<rect x="311.3" y="50.9" class="st10" width="16.6" height="3.1"/>
	
		<linearGradient id="SVGID_17_" gradientUnits="userSpaceOnUse" x1="311.3447" y1="21.1923" x2="327.9658" y2="21.1923" gradientTransform="matrix(1 0 0 -1 0 80.6667)">
		<stop  offset="0" style="stop-color:#00A9CE"/>
		<stop  offset="1" style="stop-color:#00A9CE"/>
	</linearGradient>
	<rect x="311.3" y="57.9" class="st28" width="16.6" height="3.1"/>
	
		<linearGradient id="SVGID_18_" gradientUnits="userSpaceOnUse" x1="312.5913" y1="33.9774" x2="313.5439" y2="33.9774" gradientTransform="matrix(1 0 0 -1 0 80.6667)">
		<stop  offset="0" style="stop-color:#00A9CE"/>
		<stop  offset="1" style="stop-color:#00A9CE"/>
	</linearGradient>
	<circle class="st29" cx="313.1" cy="46.7" r="0.5"/>
	
		<linearGradient id="SVGID_19_" gradientUnits="userSpaceOnUse" x1="313.9899" y1="33.9774" x2="314.9426" y2="33.9774" gradientTransform="matrix(1 0 0 -1 0 80.6667)">
		<stop  offset="0" style="stop-color:#00A9CE"/>
		<stop  offset="1" style="stop-color:#00A9CE"/>
	</linearGradient>
	<circle class="st30" cx="314.5" cy="46.7" r="0.5"/>
	
		<linearGradient id="SVGID_20_" gradientUnits="userSpaceOnUse" x1="315.3784" y1="33.9774" x2="316.331" y2="33.9774" gradientTransform="matrix(1 0 0 -1 0 80.6667)">
		<stop  offset="0" style="stop-color:#00A9CE"/>
		<stop  offset="1" style="stop-color:#00A9CE"/>
	</linearGradient>
	<circle class="st31" cx="315.9" cy="46.7" r="0.5"/>
	
		<linearGradient id="SVGID_21_" gradientUnits="userSpaceOnUse" x1="316.7668" y1="33.9774" x2="317.7195" y2="33.9774" gradientTransform="matrix(1 0 0 -1 0 80.6667)">
		<stop  offset="0" style="stop-color:#00A9CE"/>
		<stop  offset="1" style="stop-color:#00A9CE"/>
	</linearGradient>
	<circle class="st32" cx="317.2" cy="46.7" r="0.5"/>
	
		<linearGradient id="SVGID_22_" gradientUnits="userSpaceOnUse" x1="318.1654" y1="33.9774" x2="319.1181" y2="33.9774" gradientTransform="matrix(1 0 0 -1 0 80.6667)">
		<stop  offset="0" style="stop-color:#00A9CE"/>
		<stop  offset="1" style="stop-color:#00A9CE"/>
	</linearGradient>
	<circle class="st33" cx="318.6" cy="46.7" r="0.5"/>
	
		<linearGradient id="SVGID_23_" gradientUnits="userSpaceOnUse" x1="319.5539" y1="33.9774" x2="320.5066" y2="33.9774" gradientTransform="matrix(1 0 0 -1 0 80.6667)">
		<stop  offset="0" style="stop-color:#00A9CE"/>
		<stop  offset="1" style="stop-color:#00A9CE"/>
	</linearGradient>
	<circle class="st34" cx="320" cy="46.7" r="0.5"/>
	
		<linearGradient id="SVGID_24_" gradientUnits="userSpaceOnUse" x1="312.5913" y1="28.1803" x2="313.5439" y2="28.1803" gradientTransform="matrix(1 0 0 -1 0 80.6667)">
		<stop  offset="0" style="stop-color:#00A9CE"/>
		<stop  offset="1" style="stop-color:#00A9CE"/>
	</linearGradient>
	<circle class="st35" cx="313.1" cy="52.5" r="0.5"/>
	
		<linearGradient id="SVGID_25_" gradientUnits="userSpaceOnUse" x1="313.9899" y1="28.1803" x2="314.9426" y2="28.1803" gradientTransform="matrix(1 0 0 -1 0 80.6667)">
		<stop  offset="0" style="stop-color:#00A9CE"/>
		<stop  offset="1" style="stop-color:#00A9CE"/>
	</linearGradient>
	<circle class="st36" cx="314.5" cy="52.5" r="0.5"/>
	
		<linearGradient id="SVGID_26_" gradientUnits="userSpaceOnUse" x1="315.3784" y1="28.1803" x2="316.331" y2="28.1803" gradientTransform="matrix(1 0 0 -1 0 80.6667)">
		<stop  offset="0" style="stop-color:#00A9CE"/>
		<stop  offset="1" style="stop-color:#00A9CE"/>
	</linearGradient>
	<circle class="st37" cx="315.9" cy="52.5" r="0.5"/>
	
		<linearGradient id="SVGID_27_" gradientUnits="userSpaceOnUse" x1="316.7668" y1="28.1803" x2="317.7195" y2="28.1803" gradientTransform="matrix(1 0 0 -1 0 80.6667)">
		<stop  offset="0" style="stop-color:#00A9CE"/>
		<stop  offset="1" style="stop-color:#00A9CE"/>
	</linearGradient>
	<circle class="st38" cx="317.2" cy="52.5" r="0.5"/>
</g>
<g>
	<rect x="160.3" y="37.8" class="st39" width="29.1" height="1.1"/>
	<g>
		<polygon class="st39" points="187.8,43.8 197.2,38.4 187.8,33 		"/>
	</g>
</g>
</svg>
