<?xml version="1.0" encoding="utf-8"?>
<!-- Generator: Adobe Illustrator 22.1.0, SVG Export Plug-In . SVG Version: 6.00 Build 0)  -->
<svg version="1.1"
	 id="svg4179" inkscape:version="0.91 r13725" sodipodi:docname="Prime Day logo 2015.svg" xmlns:cc="http://creativecommons.org/ns#" xmlns:dc="http://purl.org/dc/elements/1.1/" xmlns:inkscape="http://www.inkscape.org/namespaces/inkscape" xmlns:rdf="http://www.w3.org/1999/02/22-rdf-syntax-ns#" xmlns:sodipodi="http://sodipodi.sourceforge.net/DTD/sodipodi-0.dtd" xmlns:svg="http://www.w3.org/2000/svg"
	 xmlns="http://www.w3.org/2000/svg" xmlns:xlink="http://www.w3.org/1999/xlink" x="0px" y="0px" viewBox="0 0 715.5 324.3"
	 style="enable-background:new 0 0 715.5 324.3;" xml:space="preserve">
<style type="text/css">
	.st0{fill:#808080;}
	.st1{fill:#FFFFFF;}
	.st2{fill:#E0DFDE;}
	.st3{fill:#00A3C8;}
	.st4{fill-rule:evenodd;clip-rule:evenodd;fill:#FFFFFF;}
	.st5{clip-path:url(#SVGID_2_);}
	.st6{fill:#FFD4AE;}
	.st7{fill:#3C313F;}
	.st8{fill:#B71C1C;}
	.st9{fill:#968D81;}
	.st10{fill:#C93131;}
	.st11{fill:#EFEAE4;}
	.st12{fill:#C68E75;}
	.st13{fill:#3A1E0A;}
	.st14{fill:#AA3131;}
	.st15{fill:#AA3570;}
	.st16{clip-path:url(#SVGID_4_);}
	.st17{fill:#9B6937;}
	.st18{fill:#605F6D;}
	.st19{fill:#E0AA79;}
	.st20{fill:#8E5A46;}
	.st21{fill:#F9D45F;}
	.st22{clip-path:url(#SVGID_6_);}
	.st23{fill:#FCD89F;}
	.st24{fill:#331907;}
	.st25{fill:#BA8663;}
	.st26{fill:#7FA5B2;}
	.st27{fill:#C6A273;}
	.st28{fill:#AACC42;}
	.st29{clip-path:url(#SVGID_8_);}
	.st30{fill:#91B3BC;}
	.st31{fill:#A37246;}
	.st32{fill:#4C414F;}
	.st33{fill:#6D4524;}
	.st34{clip-path:url(#SVGID_10_);}
	.st35{fill:#B5AC9E;}
	.st36{fill:#6BA534;}
	.st37{fill:#FFCC99;}
	.st38{fill:#473224;}
	.st39{fill:#597A1A;}
	.st40{fill:#93867C;}
	.st41{opacity:0.6;fill:#CC9A75;enable-background:new    ;}
</style>
<rect x="504.7" y="81.7" transform="matrix(0.2912 -0.9567 0.9567 0.2912 136.4848 647.5432)" class="st0" width="1" height="299.9"/>
<rect x="-6.5" y="159.9" transform="matrix(0.3104 -0.9506 0.9506 0.3104 -73.6067 219.3104)" class="st0" width="241.8" height="1"/>
<rect x="70.4" y="231.2" transform="matrix(0.9567 -0.2909 0.2909 0.9567 -57.8665 74.1364)" class="st0" width="299.9" height="1"/>
<rect x="340.7" y="116.7" transform="matrix(0.8305 -0.557 0.557 0.8305 14.2982 281.336)" class="st0" width="257.7" height="1"/>
<g>
	<line class="st1" x1="31.2" y1="131.9" x2="182.7" y2="176.4"/>
	<g>
		
			<rect x="32.6" y="130.4" transform="matrix(0.2822 -0.9593 0.9593 0.2822 -103.2915 126.8193)" class="st0" width="1" height="4"/>
		<path class="st0" d="M171.1,173.5l-7.6-2.2l0.3-1l7.6,2.2L171.1,173.5z M156,169.1l-7.6-2.2l0.3-1l7.6,2.2L156,169.1z
			 M140.8,164.6l-7.6-2.2l0.3-1l7.6,2.2L140.8,164.6z M125.7,160.2l-7.6-2.2l0.3-1l7.6,2.2L125.7,160.2z M110.6,155.7l-7.6-2.2
			l0.3-1l7.6,2.2L110.6,155.7z M95.4,151.3l-7.6-2.2l0.3-1l7.6,2.2L95.4,151.3z M80.3,146.8l-7.6-2.2l0.3-1l7.6,2.2L80.3,146.8z
			 M65.2,142.4l-7.6-2.2l0.3-1l7.6,2.2L65.2,142.4z M50,137.9l-7.6-2.2l0.3-1l7.6,2.2L50,137.9z"/>
		
			<rect x="180.2" y="173.9" transform="matrix(0.2822 -0.9593 0.9593 0.2822 -38.9783 299.6235)" class="st0" width="1" height="4"/>
	</g>
</g>
<g>
	<line class="st1" x1="192.5" y1="179.1" x2="242.4" y2="296.7"/>
	<g>
		<rect x="192.7" y="178.9" transform="matrix(0.9206 -0.3906 0.3906 0.9206 -55.3222 89.8516)" class="st0" width="1" height="4"/>
		<path class="st0" d="M237.2,285.9l-3.1-7.4l0.9-0.4l3.1,7.4L237.2,285.9z M231,271.2l-3.1-7.4l0.9-0.4l3.1,7.4L231,271.2z
			 M224.7,256.5l-3.1-7.4l0.9-0.4l3.1,7.4L224.7,256.5z M218.5,241.8l-3.1-7.4l0.9-0.4l3.1,7.4L218.5,241.8z M212.3,227.1l-3.1-7.4
			l0.9-0.4l3.1,7.4L212.3,227.1z M206,212.4l-3.1-7.4l0.9-0.4l3.1,7.4L206,212.4z M199.8,197.7l-3.1-7.4l0.9-0.4l3.1,7.4
			L199.8,197.7z"/>
		
			<rect x="241.1" y="292.9" transform="matrix(0.9206 -0.3905 0.3905 0.9206 -95.9642 117.7433)" class="st0" width="1" height="4"/>
	</g>
</g>
<g>
	<line class="st1" x1="411.7" y1="49" x2="516.8" y2="166.6"/>
	<g>
		<rect x="412.5" y="48.5" transform="matrix(0.7455 -0.6665 0.6665 0.7455 71.4319 288.0874)" class="st0" width="1" height="4"/>
		<path class="st0" d="M508.5,158.1l-5.3-5.9l0.7-0.7l5.3,5.9L508.5,158.1z M498,146.3l-5.3-5.9l0.7-0.7l5.3,5.9L498,146.3z
			 M487.5,134.6l-5.3-5.9l0.7-0.7l5.3,5.9L487.5,134.6z M477,122.8l-5.3-5.9l0.7-0.7l5.3,5.9L477,122.8z M466.5,111.1l-5.3-5.9
			l0.7-0.7l5.3,5.9L466.5,111.1z M456,99.3l-5.3-5.9l0.7-0.7l5.3,5.9L456,99.3z M445.5,87.6l-5.3-5.9L441,81l5.3,5.9L445.5,87.6z
			 M435,75.8l-5.3-5.9l0.7-0.7l5.3,5.9L435,75.8z M424.5,64.1l-5.3-5.9l0.7-0.7l5.3,5.9L424.5,64.1z"/>
		<rect x="515" y="163.1" transform="matrix(0.7454 -0.6666 0.6666 0.7454 21.145 385.6325)" class="st0" width="1" height="4"/>
	</g>
</g>
<g>
	<line class="st1" x1="191.6" y1="179.1" x2="411.7" y2="49"/>
	<g>
		<rect x="191.3" y="177.6" transform="matrix(0.861 -0.5086 0.5086 0.861 -63.704 123.0611)" class="st0" width="4" height="1"/>
		<path class="st0" d="M202.1,173.4l-0.5-0.9l6.9-4.1l0.5,0.9L202.1,173.4z M215.9,165.3l-0.5-0.9l6.9-4.1l0.5,0.9L215.9,165.3z
			 M229.7,157.2l-0.5-0.9l6.9-4.1l0.5,0.9L229.7,157.2z M243.4,149l-0.5-0.9l6.9-4.1l0.5,0.9L243.4,149z M257.2,140.9l-0.5-0.9
			l6.9-4.1l0.5,0.9L257.2,140.9z M270.9,132.8l-0.5-0.9l6.9-4.1l0.5,0.9L270.9,132.8z M284.7,124.6l-0.5-0.9l6.9-4.1l0.5,0.9
			L284.7,124.6z M298.4,116.5l-0.5-0.9l6.9-4.1l0.5,0.9L298.4,116.5z M312.2,108.4l-0.5-0.9l6.9-4.1l0.5,0.9L312.2,108.4z
			 M325.9,100.3l-0.5-0.9l6.9-4.1l0.5,0.9L325.9,100.3z M339.7,92.1l-0.5-0.9l6.9-4.1l0.5,0.9L339.7,92.1z M353.4,84l-0.5-0.9
			l6.9-4.1l0.5,0.9L353.4,84z M367.2,75.9l-0.5-0.9l6.9-4.1l0.5,0.9L367.2,75.9z M381,67.7l-0.5-0.9l6.9-4.1l0.5,0.9L381,67.7z
			 M394.7,59.6l-0.5-0.9l6.9-4.1l0.5,0.9L394.7,59.6z"/>
		<rect x="407.9" y="49.5" transform="matrix(0.8603 -0.5097 0.5097 0.8603 31.7585 215.9513)" class="st0" width="4" height="1"/>
	</g>
</g>
<g>
	<line class="st1" x1="474.9" y1="291.4" x2="689.7" y2="150.6"/>
	<g>
		
			<rect x="474.6" y="289.8" transform="matrix(0.8359 -0.5488 0.5488 0.8359 -81.1168 309.1906)" class="st0" width="4" height="1"/>
		<path class="st0" d="M485.3,285.2l-0.5-0.8l6.7-4.4l0.5,0.8L485.3,285.2z M498.7,276.4l-0.5-0.8l6.7-4.4l0.5,0.8L498.7,276.4z
			 M512.1,267.6l-0.5-0.8l6.7-4.4l0.5,0.8L512.1,267.6z M525.5,258.8L525,258l6.7-4.4l0.5,0.8L525.5,258.8z M538.9,250l-0.5-0.8
			l6.7-4.4l0.5,0.8L538.9,250z M552.4,241.2l-0.5-0.8l6.7-4.4l0.5,0.8L552.4,241.2z M565.8,232.4l-0.5-0.8l6.7-4.4l0.5,0.8
			L565.8,232.4z M579.2,223.6l-0.5-0.8l6.7-4.4l0.5,0.8L579.2,223.6z M592.6,214.8l-0.5-0.8l6.7-4.4l0.5,0.8L592.6,214.8z
			 M606.1,206l-0.5-0.8l6.7-4.4l0.5,0.8L606.1,206z M619.5,197.2l-0.5-0.8l6.7-4.4l0.5,0.8L619.5,197.2z M632.9,188.4l-0.5-0.8
			l6.7-4.4l0.5,0.8L632.9,188.4z M646.3,179.6l-0.5-0.8l6.7-4.4l0.5,0.8L646.3,179.6z M659.7,170.8l-0.5-0.8l6.7-4.4l0.5,0.8
			L659.7,170.8z M673.2,162l-0.5-0.8l6.7-4.4l0.5,0.8L673.2,162z"/>
		<rect x="686" y="151.2" transform="matrix(0.8359 -0.5488 0.5488 0.8359 29.6273 402.4717)" class="st0" width="4" height="1"/>
	</g>
</g>
<rect x="610.7" y="39.5" transform="matrix(0.9509 -0.3096 0.3096 0.9509 -19.6236 197.1126)" class="st0" width="1" height="241.8"/>
<rect x="256.5" y="-11.7" transform="matrix(0.5568 -0.8307 0.8307 0.5568 16.5832 265.4207)" class="st0" width="1" height="257.7"/>
<g>
	<line class="st1" x1="363.5" y1="188" x2="472.2" y2="284.2"/>
	<g>
		<rect x="364.5" y="187.3" transform="matrix(0.6628 -0.7488 0.7488 0.6628 -18.6871 337.167)" class="st0" width="1" height="4"/>
		<path class="st0" d="M462.9,276.6l-6-5.3l0.7-0.7l6,5.3L462.9,276.6z M450.8,265.9l-6-5.3l0.7-0.7l6,5.3L450.8,265.9z
			 M438.7,255.2l-6-5.3l0.7-0.7l6,5.3L438.7,255.2z M426.6,244.5l-6-5.3l0.7-0.7l6,5.3L426.6,244.5z M414.5,233.8l-6-5.3l0.7-0.7
			l6,5.3L414.5,233.8z M402.5,223.1l-6-5.3l0.7-0.7l6,5.3L402.5,223.1z M390.4,212.4l-6-5.3l0.7-0.7l6,5.3L390.4,212.4z
			 M378.3,201.7l-6-5.3l0.7-0.7l6,5.3L378.3,201.7z"/>
		
			<rect x="470.3" y="280.9" transform="matrix(0.6628 -0.7488 0.7488 0.6628 -53.1153 447.8725)" class="st0" width="1" height="4"/>
	</g>
</g>
<g>
	<line class="st1" x1="363.5" y1="188" x2="242.4" y2="296.7"/>
	<g>
		<rect x="360.1" y="188.8" transform="matrix(0.7442 -0.668 0.668 0.7442 -33.8553 290.2891)" class="st0" width="4" height="1"/>
		<path class="st0" d="M251.7,289l-0.7-0.7l6.1-5.4l0.7,0.7L251.7,289z M263.9,278.1l-0.7-0.7l6.1-5.4l0.7,0.7L263.9,278.1z
			 M276,267.2l-0.7-0.7l6.1-5.4l0.7,0.7L276,267.2z M288.1,256.3l-0.7-0.7l6.1-5.4l0.7,0.7L288.1,256.3z M300.3,245.5l-0.7-0.7
			l6.1-5.4l0.7,0.7L300.3,245.5z M312.4,234.6l-0.7-0.7l6.1-5.4l0.7,0.7L312.4,234.6z M324.5,223.7l-0.7-0.7l6.1-5.4l0.7,0.7
			L324.5,223.7z M336.6,212.8l-0.7-0.7l6.1-5.4l0.7,0.7L336.6,212.8z M348.8,201.9l-0.7-0.7l6.1-5.4l0.7,0.7L348.8,201.9z"/>
		<rect x="241.8" y="294.9" transform="matrix(0.7442 -0.668 0.668 0.7442 -134.9262 238.4575)" class="st0" width="4" height="1"/>
	</g>
</g>
<g>
	<line class="st1" x1="689.7" y1="150.6" x2="516.8" y2="166.6"/>
	<g>
		
			<rect x="685.7" y="150.3" transform="matrix(0.9958 -9.176800e-02 9.176800e-02 0.9958 -10.9341 63.7422)" class="st0" width="4" height="1"/>
		<path class="st0" d="M528.7,166l-0.1-1l7.9-0.7l0.1,1L528.7,166z M544.4,164.6l-0.1-1l7.9-0.7l0.1,1L544.4,164.6z M560.1,163.1
			l-0.1-1l7.9-0.7l0.1,1L560.1,163.1z M575.8,161.7l-0.1-1l7.9-0.7l0.1,1L575.8,161.7z M591.5,160.2l-0.1-1l7.9-0.7l0.1,1
			L591.5,160.2z M607.2,158.7l-0.1-1l7.9-0.7l0.1,1L607.2,158.7z M622.9,157.3l-0.1-1l7.9-0.7l0.1,1L622.9,157.3z M638.6,155.8
			l-0.1-1l7.9-0.7l0.1,1L638.6,155.8z M654.3,154.4l-0.1-1l7.9-0.7l0.1,1L654.3,154.4z M670,152.9l-0.1-1l7.9-0.7l0.1,1L670,152.9z"
			/>
		
			<rect x="516.8" y="165.9" transform="matrix(0.9958 -9.176800e-02 9.176800e-02 0.9958 -13.0846 48.3107)" class="st0" width="4" height="1"/>
	</g>
</g>
<g>
	<circle class="st2" cx="362.4" cy="188" r="86.4"/>
</g>
<g>
	<circle class="st2" cx="645.7" cy="270.9" r="44.6"/>
</g>
<g>
	<g>
		<circle class="st2" cx="570.9" cy="44.6" r="44.6"/>
	</g>
</g>
<g>
	<g>
		<circle class="st2" cx="79.9" cy="270.9" r="44.6"/>
	</g>
</g>
<g>
	<circle class="st2" cx="154.7" cy="44.6" r="44.6"/>
</g>
<g>
	<circle class="st3" cx="26.7" cy="131" r="26.7"/>
</g>
<g>
	<circle class="st3" cx="243.3" cy="297.6" r="26.7"/>
</g>
<g>
	<circle class="st3" cx="688.8" cy="151.5" r="26.7"/>
</g>
<g>
	<circle class="st3" cx="515.9" cy="165.7" r="19.6"/>
</g>
<g>
	<circle class="st3" cx="191.1" cy="177.2" r="19.6"/>
</g>
<g>
	<circle class="st3" cx="478.5" cy="288.7" r="26.7"/>
</g>
<g>
	<path class="st1" d="M526.6,160.4c-0.7,0.3-1.5,0.5-2.3,0.6c0.8-0.5,1.4-1.2,1.7-2.1c-0.8,0.4-1.6,0.8-2.5,0.9
		c-0.7-0.8-1.7-1.2-2.9-1.2c-2.2,0-3.9,1.7-3.9,3.9c0,0.3,0.1,0.6,0.1,0.9c-3.3-0.2-6.2-1.7-8.1-4c-0.3,0.6-0.5,1.2-0.5,1.9
		c0,1.3,0.7,2.5,1.7,3.2c-0.6,0-1.2-0.2-1.8-0.5c0,0,0,0,0,0.1c0,0.5,0.1,1,0.3,1.4c0.5,1.2,1.6,2.1,2.9,2.4c-0.3,0.1-0.7,0.1-1,0.1
		c-0.2,0-0.5,0-0.7-0.1c0.5,1.5,2,2.7,3.7,2.7c-1.3,1-3,1.6-4.9,1.6c-0.3,0-0.6,0-0.9-0.1c1.7,1.1,3.8,1.7,6,1.7
		c6.1,0,9.9-4.2,10.9-8.7c0.2-0.8,0.3-1.6,0.3-2.3c0-0.2,0-0.3,0-0.5C525.4,161.9,526.1,161.2,526.6,160.4L526.6,160.4z"/>
</g>
<g>
	<path class="st4" d="M479.7,285.1v-1.7c0-0.8,0.5-1,0.9-1c0.4,0,2.3,0,2.3,0v-3.6h-3.2c-3.6,0-4.4,2.6-4.4,4.4v1.9h-2.1v2.5v1.7
		h2.1c0,4.7,0,10.4,0,10.4h4.2c0,0,0-5.8,0-10.4h3.1l0.1-1.6l0.2-2.5H479.7z"/>
</g>
<g>
	<path class="st1" d="M253.8,297.5c0,3.6-1.6,5.9-4,5.9c-1.3,0-2.3-0.7-2.4-2.1l0-0.8c-0.9,1.6-2.6,2.5-4.5,2.5
		c-3,0-5.5-2.3-5.5-5.5c0-3.2,2.2-5.6,5.3-5.6c2.2,0,3.8,1.3,4.3,2.3V292h1.7v8.6c0,1,0.6,1.5,1.3,1.5c1.4,0,2.5-1.9,2.5-4.6
		c0-5-3.5-8.7-8.9-8.7c-5.1,0-9.1,3.8-9.1,8.7c0,4.8,3.8,8.3,8.8,8.3c1.3,0,3.1-0.4,4.3-1.3l0.6,1.3c-1.3,0.9-3.4,1.4-4.9,1.4
		c-5.8,0-10.2-4.1-10.2-9.8c0-5.8,4.5-10.1,10.5-10.1C249.5,287.4,253.8,291.6,253.8,297.5z M239.2,297.4c0,2.2,1.6,4,3.8,4
		c2.3,0,3.9-1.7,3.9-3.9c0-2.2-1.6-3.8-3.9-3.8C240.7,293.6,239.2,295.2,239.2,297.4z"/>
</g>
<g>
	<g>
		<circle class="st1" cx="27.2" cy="123.9" r="4.2"/>
	</g>
	<g>
		<g>
			<path class="st1" d="M27.2,129.1c-5.3,0-9.5,4.1-9.8,9.3H37C36.7,133.2,32.4,129.1,27.2,129.1z"/>
		</g>
	</g>
</g>
<g>
	<path class="st3" d="M386.9,40.4c0.7-1.8,1.9-2.7,3.8-3.5c1.8-0.8,9.6-1.3,17.5-1.3c7.9,0,15.6,0.5,17.4,1.3c1.8,0.8,3,1.7,3.8,3.5
		c0.7,1.8,1.1,6.1,1.1,10.5c0,4.4-0.4,8.7-1.1,10.5c-0.7,1.8-1.9,2.7-3.8,3.5c-1.8,0.8-9.6,1.2-17.4,1.3c-7.9,0-15.7-0.5-17.5-1.3
		c-1.8-0.8-3-1.7-3.8-3.5c-0.7-1.8-1.1-6.1-1.1-10.5C385.8,46.6,386.2,42.2,386.9,40.4L386.9,40.4z"/>
	<g>
		<polygon class="st1" points="402.5,41.2 402.5,59.3 417.9,51 		"/>
	</g>
</g>
<g>
	<g>
		<line class="st1" x1="183.4" y1="178.1" x2="198.4" y2="188.3"/>
		
			<rect x="190.4" y="174.2" transform="matrix(0.5621 -0.8271 0.8271 0.5621 -67.9539 238.0978)" class="st1" width="1" height="18.1"/>
	</g>
	<g>
		<line class="st1" x1="183.4" y1="178.3" x2="198.1" y2="165.9"/>
		
			<rect x="181.1" y="171.6" transform="matrix(0.766 -0.6429 0.6429 0.766 -65.9818 162.8876)" class="st1" width="19.3" height="1"/>
	</g>
	<g>
		<g>
			<circle class="st1" cx="183.4" cy="177.9" r="3.3"/>
			<path class="st1" d="M183.4,175.6c0.2,0,0.4,0,0.7,0.1c0.6,0.2,1.1,0.6,1.4,1.1c0.3,0.5,0.4,1.2,0.2,1.8c-0.3,1-1.2,1.7-2.2,1.7
				c-0.2,0-0.4,0-0.7-0.1c-0.6-0.2-1.1-0.6-1.4-1.1c-0.3-0.5-0.4-1.2-0.2-1.8C181.4,176.3,182.4,175.6,183.4,175.6 M183.4,174.6
				c-1.4,0-2.8,0.9-3.2,2.4c-0.5,1.8,0.5,3.6,2.3,4.1c0.3,0.1,0.6,0.1,0.9,0.1c1.4,0,2.8-0.9,3.2-2.4c0.5-1.8-0.5-3.6-2.3-4.1
				C184,174.6,183.7,174.6,183.4,174.6L183.4,174.6z"/>
		</g>
	</g>
	<g>
		<g>
			<circle class="st1" cx="196.4" cy="167.3" r="3.3"/>
			<path class="st1" d="M196.4,165c0.2,0,0.4,0,0.7,0.1c0.6,0.2,1.1,0.6,1.4,1.1c0.3,0.5,0.4,1.2,0.2,1.8c-0.3,1-1.2,1.7-2.2,1.7
				c-0.2,0-0.4,0-0.7-0.1c-1.2-0.4-1.9-1.7-1.6-2.9C194.4,165.6,195.3,165,196.4,165 M196.4,164c-1.4,0-2.8,0.9-3.2,2.4
				c-0.5,1.8,0.5,3.6,2.3,4.1c0.3,0.1,0.6,0.1,0.9,0.1c1.4,0,2.8-0.9,3.2-2.4c0.5-1.8-0.5-3.6-2.3-4.1C197,164,196.7,164,196.4,164
				L196.4,164z"/>
		</g>
	</g>
	<g>
		<g>
			<circle class="st1" cx="196.4" cy="187.3" r="3.3"/>
			<path class="st1" d="M196.4,185c0.2,0,0.4,0,0.7,0.1c0.6,0.2,1.1,0.6,1.4,1.1c0.3,0.5,0.4,1.2,0.2,1.8c-0.3,1-1.2,1.7-2.2,1.7
				c-0.2,0-0.4,0-0.7-0.1c-0.6-0.2-1.1-0.6-1.4-1.1c-0.3-0.5-0.4-1.2-0.2-1.8C194.4,185.7,195.3,185,196.4,185 M196.4,184
				c-1.4,0-2.8,0.9-3.2,2.4c-0.5,1.8,0.5,3.6,2.3,4.1c0.3,0.1,0.6,0.1,0.9,0.1c1.4,0,2.8-0.9,3.2-2.4c0.5-1.8-0.5-3.6-2.3-4.1
				C197,184.1,196.7,184,196.4,184L196.4,184z"/>
		</g>
	</g>
</g>
<g>
	<defs>
		<circle id="SVGID_1_" cx="362.4" cy="188" r="86.4"/>
	</defs>
	<clipPath id="SVGID_2_">
		<use xlink:href="#SVGID_1_"  style="overflow:visible;"/>
	</clipPath>
	<g class="st5">
		<path class="st6" d="M378.7,254.2c0.6,3.4,0.9,7.8,0.6,10.4h0.1c0.2,1.6,0.4,2.6,0.5,5.8c-0.8,0.8-1.4,2.7-1.9,3.4
			c-0.6,0.8-1.9,2.3-0.1,2.4c0.5,0,1.8-1.3,2.1-1.1c0.3,0.2-0.2,1.4-0.3,1.6c-0.2,0.7-0.2,1.5-0.2,2.2c0,0.8-0.1,1.6,0.2,2.4
			c0.2,0.7,0.5,0.8,0.7,0.2c0.6-1.3,1.4-2.2,1.9-3.5c0.6-1.2,1-2.6,1.4-3.8c0.1-0.3,0.2-0.6,0.2-0.9c0.6-3.6,2.2-10.6,2.2-16.6
			C383.7,257.2,381.2,256.6,378.7,254.2z"/>
		<rect x="357.9" y="198.2" class="st6" width="10.3" height="16.9"/>
		<path class="st7" d="M380.2,275c-0.1-4.1,0-8-1-11.6c-0.1-0.3-0.4-0.5-0.6-0.5c-2.8,0.2-5.7,0.2-8.6,0.2c-7.7,0-13.5-1.3-21.9-1.8
			c-0.3,0-0.6,1-0.6,1.4c-1.1,3.8-1.2,8.2-1.2,12.6c-0.1,6,5.6,73.4,4.8,75.1l-0.1,0.1c-0.1,0.2-0.1,0.3-0.1,0.5
			c0.1,0.2-0.6,0.3-0.4,0.4c3.4,1.8,7.1,3.7,9.8,6.2c0.2,0.1,0.3,0.2,0.5,0.2s0.2,0,0.4-0.1c0.6-0.4,0.7-1,0.7-2.8l-0.2-84.2h3.2
			l8.8,84.2c0,1.3-0.2,2.1,0.6,2.7c0.2,0.2,0.5,0.2,0.7,0.1c3.8-1.8,7.7-3.8,10.6-5.7c0.2-0.1-0.5-0.2-0.5-0.4s0-0.3-0.1-0.5
			c-0.2-0.2-0.3-0.5-0.4-0.6C383.5,348.6,380.2,278.9,380.2,275z"/>
		<path class="st6" d="M332.1,215.5V214c0.6-3.9,0.2-9.6-2-10.3c-2.7-0.9-0.1,6.2-1.8,6.2c-1.7-1-6.2-8.4-8.6-7.1
			c-2,1.1,4.8,6.3,4.2,7.1c-0.5,0.8-6.3-6.2-7.9-4.2c-1.2,1.5,3.1,4.4,3.9,5c0.6,0.5,2.3,2.2,1.2,2.2c-0.3,0-2.1-1-2.8-1.4
			c-0.7-0.4-2.6-1.4-3.1-0.2c-0.6,1.4,1.8,2.5,2.2,2.7c1.6,0.9,3.1,1.8,4.6,2.9c0.8,0.6,1.6,1.4,2.5,2.1c1.4,2.1,4.7,12.8,8.4,19.7
			c2.7-1.2,4.7-4.6,6-7.4C333.9,222.8,332.2,215.3,332.1,215.5z"/>
		<path class="st8" d="M376.4,227.6c0-1.1-0.3-1.9-0.3-1.9C376.2,226.3,376.3,227,376.4,227.6z"/>
		<path class="st9" d="M377.4,255.5c1.3,3.7-1.7-5.4-2.5-9.6c-1.8-7.2,0.4-14.6,0.8-15.2c0.6-1,0.7-2.2,0.7-3
			c-0.1-0.6-0.2-1.3-0.3-1.9c0,0,0.2,0.8,0.3,1.9c1.9,12.5,2.3,21.6,2.3,26.6c0.3,2.3,5,3,7.4,2.2c0.1-8.4-0.4-17-0.9-20.5
			c-2.9-21.5-5.1-23.6-10.8-27c-0.2-0.2-1.2-0.9-3.3-1.8c-0.1-0.1-3-1.7-3-1.7s-0.5,3.4-4.9,3.4s-5.4-3.4-5.4-3.4s-2.4,1.4-2.5,1.5
			c-6.9,2.8-9.4,7.3-11.4,12c-0.7,1.8-3.8,15.4-4.7,13.7c-0.2-0.3-0.6-0.7-0.8-1.2c-1.3,2.7-3.8,5.3-6.5,6.5
			c0.6,1.1,1.1,2.1,1.6,2.8c3.4,5.2,8.5,6.9,12.3-0.2c2.1-3.8,3.5-13,4.5-17c0.2,0.6-0.9,3.4,0.3,6.4c1.3,3.1,1.4,13.6-0.1,19.8
			c-0.8,3.5-3.1,9.4-4.2,15.3c0,0,4.2,1.8,15.6,1.8c11.4,0,17.2-1.8,17.2-1.8C379.5,260.9,377.7,256.5,377.4,255.5z"/>
		<path class="st10" d="M341.7,355.8c-0.9,0.6-1.1,0.8-0.7,1.7c0.2,0.5,1.1,0.4,2,0.4h18.1c1.4,0,0.7-1.7,0.7-4.6c-8.4,0-8.8-3-11-3
			C349.5,351.8,343.7,354.4,341.7,355.8z"/>
		<path class="st11" d="M346.1,356.2c0,0-0.6-1.8-1.4-2c-0.9-0.2-4.4,1.9-4.3,2.6s-0.4,1.2,1.9,1.2c2.2,0,3.8,0,3.8,0
			S346.4,357.6,346.1,356.2z"/>
		<path class="st11" d="M362.3,357.6c0,0.3,0.1,0.6-0.3,0.6h-21c-0.3,0-0.6-0.2-0.6-0.6l0,0c0-0.3,0.2-0.6,0.6-0.6h21
			C362.3,356.9,362.3,357.2,362.3,357.6L362.3,357.6z"/>
		<path class="st11" d="M348.7,355.2c-0.2,0-0.5-0.2-0.6-0.4c-0.2-0.5-0.8-1-1.1-1.3l-0.2-0.2c-0.2-0.2-0.2-0.6,0-1
			c0.2-0.2,0.6-0.2,1,0l0.2,0.2c0.4,0.3,1,1,1.4,1.7c0.2,0.3,0,0.7-0.3,0.9C348.9,355.2,348.8,355.2,348.7,355.2z"/>
		<path class="st11" d="M350.8,353.8c-0.2,0-0.5-0.2-0.6-0.4c-0.2-0.4-0.9-1.1-1.1-1.4c-0.3-0.2-0.4-0.6-0.2-0.9s0.6-0.4,0.9-0.2
			c0.5,0.3,1.4,1.3,1.7,1.9c0.2,0.3,0,0.7-0.3,0.9C351,353.7,350.9,353.8,350.8,353.8z"/>
		<path class="st10" d="M393.5,355.8c0.9,0.6,1.1,0.8,0.7,1.7c-0.2,0.5-1.1,0.4-2,0.4h-18.1c-1.4,0-0.7-1.7-0.7-4.6
			c8.4,0,8.8-3,11-3C385.6,351.8,391.5,354.4,393.5,355.8z"/>
		<path class="st11" d="M389.1,356.2c0,0,0.6-1.8,1.4-2c0.9-0.2,4.4,1.9,4.3,2.6s0.4,1.2-1.9,1.2c-2.2,0-3.8,0-3.8,0
			S388.7,357.6,389.1,356.2z"/>
		<path class="st11" d="M372.9,357.6c0,0.3-0.1,0.6,0.3,0.6h21c0.3,0,0.6-0.2,0.6-0.6l0,0c0-0.3-0.2-0.6-0.6-0.6h-21
			C372.9,356.9,372.9,357.2,372.9,357.6L372.9,357.6z"/>
		<path class="st11" d="M386.4,355.2c-0.1,0-0.2,0-0.2-0.1c-0.3-0.2-0.5-0.6-0.3-0.9c0.3-0.7,1-1.4,1.4-1.7l0.2-0.2
			c0.2-0.2,0.6-0.2,1,0c0.2,0.2,0.2,0.6,0,1l-0.2,0.2c-0.3,0.2-0.9,0.8-1.1,1.3C386.9,355,386.7,355.2,386.4,355.2z"/>
		<path class="st11" d="M384.3,353.8c-0.1,0-0.2,0-0.2-0.1c-0.3-0.2-0.5-0.6-0.3-0.9c0.3-0.7,1.2-1.6,1.7-1.9
			c0.3-0.2,0.7-0.1,0.9,0.2c0.2,0.3,0.1,0.7-0.2,0.9c-0.3,0.2-1,0.9-1.1,1.4C384.8,353.6,384.6,353.8,384.3,353.8z"/>
		<path class="st6" d="M386.5,139.8c-5.1-7.2-10.3-7.4-18.7-7.8h-9.1c-8.4,0.3-13.6,0.6-18.7,7.8c-5.1,7.2-3.1,9-2.7,17.8
			c0.3,6.6-3.6,2-0.9,20.2s18.6,24.2,27,24.2c8.4,0,23-4.9,27-24.2c3.9-19.2-1.2-13.7-0.9-20.2C389.7,149,391.6,147,386.5,139.8z"/>
		<path class="st12" d="M362.7,194.3c-2.9,0-5.4-1.1-7.3-3.2c-0.4-0.4-0.3-1.1,0.1-1.4c0.4-0.4,1.1-0.3,1.4,0.1
			c2.1,2.4,4.8,2.6,6.2,2.5c2.2-0.2,4.4-1.1,5.3-2.5c0.3-0.5,1-0.6,1.4-0.2c0.5,0.3,0.6,1,0.2,1.4c-1.3,1.8-4,3.2-6.9,3.4
			C363.1,194.2,362.9,194.3,362.7,194.3z"/>
		<path class="st13" d="M351.9,173.8c0,2.4-1.7,4.4-3.7,4.4c-2.1,0-3.7-2-3.7-4.4c0-2.4,1.7-4.4,3.7-4.4
			C350.3,169.4,351.9,171.4,351.9,173.8z"/>
		<path class="st13" d="M352.9,166.9c-0.3,0-0.6-0.2-0.9-0.4c-1-1.2-2.5-1.4-3.4-1.4c-1.6,0-3.2,0.6-4.1,1.5
			c-0.4,0.5-1.1,0.5-1.6,0.1c-0.5-0.4-0.5-1.1-0.1-1.6c1.4-1.4,3.5-2.2,5.8-2.2c2.1,0,3.8,0.8,5.1,2.2c0.4,0.5,0.4,1.2-0.1,1.6
			C353.5,166.8,353.2,166.9,352.9,166.9z"/>
		<path class="st13" d="M374.5,166.8c-0.2,0-0.5-0.1-0.7-0.2c-0.5-0.4-0.6-1.1-0.2-1.6c1-1.2,2.7-2,4.6-2.1c2.1-0.1,3.9,0.6,5.3,2
			c0.4,0.5,0.4,1.2,0,1.6c-0.5,0.4-1.2,0.4-1.6,0c-1.2-1.3-2.7-1.4-3.5-1.4c-1.4,0.1-2.6,0.7-3,1.3
			C375.1,166.6,374.8,166.8,374.5,166.8z"/>
		<path class="st13" d="M381.9,173.8c0,2.4-1.7,4.4-3.7,4.4c-2.1,0-3.7-2-3.7-4.4c0-2.4,1.7-4.4,3.7-4.4
			C380.2,169.4,381.9,171.4,381.9,173.8z"/>
		<path class="st14" d="M377.4,183.2c-3.2,0-5.9-1.3-7.5-3.5c-1.7-2.3-2.7-6-2.7-7.9c0-4.5,14.6-4.6,14.7-4.6c5.5,0,8.2,1,8.2,3
			C390,178.6,383.5,183.2,377.4,183.2z M369.4,171.8c0,1.6,1,4.7,2.3,6.6c1.1,1.6,3.2,2.6,5.7,2.6c5,0,10.3-3.8,10.4-10.6
			c-0.4-0.2-2-0.9-6-0.9C375.3,169.5,369.9,170.9,369.4,171.8z"/>
		<path class="st14" d="M348.8,183.2L348.8,183.2c-6.2,0-12.6-4.6-12.6-13c0-0.7,0-3,8.6-3c0.6,0,14.4,0.1,14.4,4.6
			c0,1.9-1.1,5.6-2.7,7.9C354.8,181.9,352,183.2,348.8,183.2z M338.4,170.3c0.1,6.9,5.4,10.6,10.4,10.6l0,0c2.5,0,4.6-1,5.7-2.6
			c1.4-1.9,2.3-5,2.3-6.6c-0.4-0.9-5.7-2.3-12.2-2.3C340.5,169.4,338.8,170,338.4,170.3z"/>
		<path class="st14" d="M358.2,174.2c-0.4,0-0.7-0.2-1-0.5c-0.3-0.5-0.2-1.2,0.3-1.5c2-1.4,9.2-1,11-0.3c0.6,0.2,0.9,0.9,0.6,1.4
			c-0.2,0.6-0.9,0.9-1.4,0.6c-1.4-0.6-7.7-0.6-8.8,0.2C358.6,174.2,358.3,174.2,358.2,174.2z"/>
		<path class="st15" d="M396.6,159c0-14.9-4.9-28.1-18.4-33c-18.9-6.8-39.6-1.9-49.1,19.3c-3.8,8.3-3.2,26.1,0.1,34.6
			c4.6,11.9,8.4,15.4,9.5,16.3c-4.1-17.3-0.2-32.8,0-33.3c-0.2,0.6,43.9-10.8,47.2-14.2c4.2,11.8,5.7,22.7,4.4,29
			C395.8,171.5,396.6,164.7,396.6,159z"/>
	</g>
</g>
<g>
	<defs>
		<circle id="SVGID_3_" cx="645.7" cy="270.9" r="44.6"/>
	</defs>
	<clipPath id="SVGID_4_">
		<use xlink:href="#SVGID_3_"  style="overflow:visible;"/>
	</clipPath>
	<g class="st16">
		<path class="st17" d="M662.7,257.8c-0.9-20.4-17.8-19.9-17.8-19.9c0,0-0.1,0-0.1,0s-0.1,0-0.1,0c0,0-16.9-0.5-17.8,19.9
			s5.3,22.7,5.3,23.7s-3.1,3.4-0.7,6.9c2.1,3.2,10,4.2,13.3,3.2c3.4,1,11.2-0.1,13.3-3.2c2.4-3.6-0.7-5.9-0.7-6.9
			S663.7,278.2,662.7,257.8z"/>
		<g>
			<path class="st7" d="M636.2,284.6L636.2,284.6C636.2,284.6,636.2,284.6,636.2,284.6c0.1-0.1,0.2-0.1,0.2-0.2v0
				c0.5-0.3,1.8-0.8,3.4-1.3c0,0,0.1,0,0.2,0c0,0,0.1,0.1,0.1,0.1v0c0.8,4.5,7.4,4.5,8.2,0v0c0,0,0-0.1,0.1-0.1c0,0,0.1,0,0.2,0
				c2.2,0.6,3.6,1.4,3.6,1.4c1.2,0.9,12.8,10,11.6,15.6c-0.4,1.5-2.2,7.3-5.9,11.8c-0.9,1.1-2-0.7-2.8-1.5c-0.4-0.4-1.4-1.2-1.5-2.1
				c0-0.1,0-0.3,0.2-0.4c1.6-2.2,3.5-5,3.5-5c1.7-3.3,1.2-4,1.2-4c-0.5-2.2-5.4-6-6.1-6.7c0.1,1.9-0.9,3.5-1.2,3.8
				c-1,1.5-1.2,4.9-0.3,8.8c0.1,0.6,0.5,1.4,0.9,2.4c0.2,0.5,0.5,1.1,0.7,1.8c0,0.3,0.1,0.6,0.3,0.8c0.9,2.7,1.8,6.1,2.3,10.7
				c1.5,13.4,3.3,47.8,3.2,47.8c-13.7,2.5-26,0.4-26,0.2c0-16.4,1.5-44.7,1.8-48c0.4-4.6,0.9-8,1.8-10.7c0.2-0.2,0.3-0.5,0.3-0.8
				c0.2-0.6,0.5-1.2,0.7-1.8c0.4-1,0.7-1.8,0.9-2.4c0.9-3.9,0.8-7.3-0.3-8.8c-0.2-0.3-1.3-1.8-1.2-3.7c-1.2,1.1-5.5,4.5-5.9,6.5
				c0,0-0.5,0.7,1.2,4c0,0,1.8,2.7,3.5,5c0.1,0.1,0.1,0.3,0.2,0.4c-0.2,0.9-1.1,1.7-1.5,2.1c-0.8,0.7-1.9,2.6-2.8,1.5
				c-3.8-4.5-5.6-10.3-5.9-11.8C623.6,294.7,634.1,286.2,636.2,284.6z"/>
			<path class="st18" d="M652.3,309.2c0.1,0.3,0.2,0.5,0.3,0.8C652.4,309.8,652.3,309.6,652.3,309.2z"/>
			<path class="st19" d="M649.7,311.1c0.7,0.3,2.1-0.5,2.6-0.8c-0.4,0.3-3.2,1.8-1.8,2.6c0.9,0.5,2.1-0.6,2.7-1.1
				c-0.6,0.5-0.9,0.5-1.3,1.3c-0.4,0.8,0.3,0.9,0.9,0.9c0.9-0.1,2.1-0.8,2.9-1.2c1.2-0.6,0.7-1.8,0-2.7c-0.5-0.6-0.9-1.3-1.6-1.7
				c-0.7-0.4-1.5,0-2.2,0.2c-0.9,0.3-1.7,0.6-2.3,1.4c-0.3,0.4-0.6,0.8-0.1,1.1C649.6,311,649.7,311.1,649.7,311.1z"/>
			<path class="st18" d="M635.7,310.1c-0.9,2.7-1.4,6.1-1.4,10.7L635.7,310.1z"/>
			<path class="st19" d="M638.9,311.1c-0.7,0.3-2.1-0.5-2.6-0.8c0.4,0.3,3.2,1.8,1.8,2.6c-0.9,0.5-2.1-0.6-2.7-1.1
				c0.6,0.5,0.9,0.5,1.3,1.3c0.4,0.8-0.3,0.9-0.9,0.9c-0.9-0.1-2.1-0.8-2.9-1.2c-1.2-0.6-0.7-1.8,0-2.7c0.5-0.6,0.9-1.3,1.6-1.7
				c0.7-0.4,1.5,0,2.2,0.2c0.9,0.3,1.7,0.6,2.3,1.4c0.3,0.4,0.6,0.8,0.1,1.1C639,311,639,311.1,638.9,311.1z"/>
			<path class="st19" d="M633,247c2.9-4.1,3.6-4.5,8.4-4.7l4.9-0.8c4.8,0.2,7.3,2.7,10.2,6.8c2.9,4.1,3.2,1.4,2.9,6.3
				c-0.2,3.7,2.1,1.1,0.5,11.5c-1.5,10.4-10.5,13.7-15.3,13.7c-4.7,0-13.8-2.7-15.3-13.7c-1.5-11.3,0.7-7.7,0.5-11.5
				C629.6,249.8,630.1,251.1,633,247z"/>
			<path class="st20" d="M644.8,274.8c1.7,0,3.7-0.4,4.8-1.6c0.2-0.3,0.2-0.7,0-0.9c-0.3-0.2-0.7-0.2-0.9,0
				c-0.8,0.9-2.5,1.3-4.5,1.2c-1.5-0.1-2.7-0.5-3.2-1.1c-0.2-0.3-0.6-0.4-0.9-0.2c-0.3,0.2-0.4,0.6-0.2,0.9c0.6,0.9,2.2,1.5,4.1,1.7
				C644.4,274.7,644.6,274.8,644.8,274.8z"/>
			<path class="st13" d="M651,263.5c0,1.4,0.9,2.5,2.1,2.5s2.1-1.1,2.1-2.5c0-1.4-0.9-2.5-2.1-2.5C652,261,651,262.1,651,263.5z"/>
			<path class="st13" d="M650.5,259.1c0.2,0,0.4-0.1,0.5-0.2c0.6-0.7,1.4-0.8,2-0.8c0.9,0,1.8,0.3,2.3,0.9c0.2,0.3,0.6,0.3,0.9,0
				c0.3-0.2,0.3-0.6,0-0.9c-0.8-0.8-2-1.3-3.3-1.3c-1.2,0-2.2,0.5-2.9,1.3c-0.2,0.3-0.2,0.7,0,0.9
				C650.2,259,650.3,259.1,650.5,259.1z"/>
			<path class="st13" d="M638.3,259c0.1,0,0.3,0,0.4-0.1c0.3-0.2,0.3-0.6,0.1-0.9c-0.5-0.7-1.6-1.1-2.7-1.2c-1.2,0-2.2,0.4-3,1.2
				c-0.2,0.3-0.2,0.7,0,0.9c0.3,0.2,0.7,0.2,0.9,0c0.7-0.7,1.5-0.8,2-0.8c0.8,0,1.4,0.4,1.7,0.7C637.9,258.9,638,259,638.3,259z"/>
			<path class="st13" d="M634,263.5c0,1.4,0.9,2.5,2.1,2.5c1.2,0,2.1-1.1,2.1-2.5c0-1.4-0.9-2.5-2.1-2.5S634,262.1,634,263.5z"/>
		</g>
		<path class="st21" d="M628.8,260c0,0,5-9.3,15.4-9.2c4.5,0,11.9,0.8,16.4,9.3c0,0,0.7-19.2-13.5-19.4
			C634.6,240.5,628.6,248.4,628.8,260z"/>
		<path class="st17" d="M628.1,260.9l0.7-0.8c0,0,1.4-13.8,15.5-13.8c14.1,0,16.2,13.9,16.2,13.9s1.3-7.5-1-11.8s-6.3-10.5-17.1-8.5
			C631.6,242,627.8,251.9,628.1,260.9z"/>
		<path class="st17" d="M658.5,280.1c-9.1,0.7-18.1,0.5-27.3,0.2c0.5,0.6,0.9,0.9,0.9,1.2c0,1,0,4.7,3.6,7.2c4.2,3,11.4,4,18.6-0.8
			c3.6-2.4,3.2-5.4,3.2-6.4C657.5,281.3,657.9,280.9,658.5,280.1z"/>
	</g>
</g>
<g>
	<defs>
		<circle id="SVGID_5_" cx="571.2" cy="44.6" r="44.6"/>
	</defs>
	<clipPath id="SVGID_6_">
		<use xlink:href="#SVGID_5_"  style="overflow:visible;"/>
	</clipPath>
	<g class="st22">
		<ellipse class="st23" cx="571.7" cy="72.2" rx="6.8" ry="4"/>
		<path class="st24" d="M596.1,45c0,15.9-16.7,19.1-24.8,19.1c-9,0-24.8-3.3-24.8-19.1s7.5-31.8,24.8-31.8
			C591,13.2,596.1,29.2,596.1,45z"/>
		<path class="st23" d="M561.2,104.2c-1.2,2.8-2.3,6.3-2.3,11.3c-0.1,9.5,4.2,46.9,3.8,54.2c-0.1,1.6,0.1,2.3-0.6,3
			c-0.4,0.5,8,0.6,8,0.6s0.6,0.9,0.6-1.1l-0.7-57.4l1.6-0.2l1.6,0.2l2.1,16.7l5.6,40.5c0.3,2,0,1.1,0,1.1s10,1.2,9.5,0.8
			c-0.7-0.6-1.7-4.2-2-5.7c-1-4.9-1.9-23.5-2.9-38c0,0,2.1-1,0,0c-0.2-7.5-1.1-11.8-1.1-14.9c-0.1-4.6-1-7.9-2.1-10.6
			C575.4,105.2,568.1,104.2,561.2,104.2z"/>
		<path class="st23" d="M588,23.4c-3.6-5.1-7.2-5.3-13.2-5.5h-6.4c-5.9,0.2-9.6,0.4-13.2,5.5s-2.2,6.4-1.9,12.5
			c0.2,4.6-2.6,0.9-0.6,14.3c1.7,11.2,13.1,15.9,18.9,15.9c5.9,0,17.2-4.6,18.9-15.9c2.2-13.6-0.3-17.3-1.7-21.7
			C588.2,26.1,591.6,28.5,588,23.4z"/>
		<rect x="567.9" y="64.1" class="st23" width="7.4" height="11.4"/>
		<path class="st25" d="M571.3,59.6c-2.1,0-4.6-0.5-5.9-2c-0.3-0.3-0.2-0.7,0.1-1c0.3-0.3,0.7-0.2,1,0.1c1,1.1,3.1,1.7,5.5,1.5
			c1.9-0.1,3.4-0.7,3.9-1.4c0.2-0.3,0.7-0.4,1-0.2c0.3,0.2,0.4,0.7,0.2,1c-0.7,1.1-2.6,1.9-5,2.1C571.9,59.5,571.6,59.6,571.3,59.6z
			"/>
		<path class="st13" d="M558.4,41.5c-0.3,0-0.6-0.2-0.7-0.5c-0.1-0.4,0.1-0.9,0.5-1c2.7-0.9,5.5-0.7,7.2,0.5
			c0.3,0.3,0.5,0.7,0.2,1.1s-0.7,0.5-1.1,0.2c-1-0.7-3.3-1.1-5.8-0.3C558.7,41.5,558.6,41.5,558.4,41.5z"/>
		<path class="st13" d="M578.9,41.7c-0.2,0-0.5-0.1-0.6-0.3c-0.2-0.3-0.2-0.9,0.2-1.1c1.4-1,5.7-1.3,7.4-0.2
			c0.4,0.2,0.5,0.7,0.3,1.1c-0.2,0.4-0.7,0.5-1.1,0.3c-1.2-0.7-4.8-0.5-5.7,0.2C579.2,41.7,579,41.7,578.9,41.7z"/>
		<path class="st23" d="M586.5,75.7c-1.3,2.3-1.1,3.2-2.7,5.1c2.2,1.8,5.2,6.1,5.6,8c0,0,0.6,0.9-1.5,4.9c0,0-1.7,4-3.8,6.7
			c-0.1,0.2-0.8-0.3-0.9-0.1c0.2,1,1.5,2.1,1.9,2.6c1,0.9,1.2,3.1,2.3,1.8c4.8-5.5,7.1-12.7,7.6-14.6
			C596.2,85.8,591.1,79.8,586.5,75.7z"/>
		<path class="st23" d="M556.8,75.7c-4.6,4.2-9.8,10.2-8.8,14.6c0.5,1.9,2.8,9,7.6,14.6c1.1,1.3,1.3-0.9,2.3-1.8
			c0.5-0.5,1.7-1.5,1.9-2.6c-0.1-0.2-0.7,0.3-0.9,0.1c-2.1-2.7-3.8-6.7-3.8-6.7c-2.1-4-1.5-4.9-1.5-4.9c0.5-2.1,3.9-6.5,6-8.3
			C557.6,79,558.2,77.8,556.8,75.7z"/>
		<path class="st18" d="M561.4,101.4c-0.1,0.3-0.2,0.7-0.4,1C561.3,102.1,561.4,101.8,561.4,101.4z"/>
		<path class="st24" d="M585.4,28.4c0,0-3.3,3.5-13.4,6c-21.6,5.3-20.4,9.3-20.4,9.3s-5.5-3.4-1.4-15.2c5.4-16,29.9-16.3,35.8-8.7
			c12.6,16.1,4.7,29.3,4.7,29.3S590.7,37.7,585.4,28.4z"/>
		<path class="st13" d="M564.3,47.1c-0.2,0-0.3-0.1-0.5-0.2c-1.5-1.4-3.6-1.8-5.9-1.3c-0.4,0.1-0.9-0.2-1-0.6
			c-0.1-0.4,0.2-0.9,0.6-1c2.9-0.7,5.5-0.1,7.4,1.7c0.3,0.3,0.3,0.8,0.1,1.1C564.8,47.1,564.6,47.1,564.3,47.1z"/>
		<path class="st13" d="M578.9,47c-0.2,0-0.5-0.1-0.7-0.3c-0.3-0.3-0.3-0.9,0.1-1.1c1.9-1.7,4.6-2.3,7.4-1.5c0.4,0.1,0.7,0.5,0.6,1
			c-0.1,0.4-0.6,0.7-1,0.6c-2.3-0.6-4.5-0.2-6,1.1C579.3,47,579.1,47,578.9,47z"/>
		<path class="st26" d="M585.1,115.3c-0.7-5.3-1.3-7.8-2.3-10.6c-0.1-0.2-0.3-0.3-0.5-0.3c-2.2,0.1-4.6,0.2-7.4,0.2
			c-2.6,0-5.1-0.1-7.6-0.1c-2-0.1-4-0.1-5.9-0.1l0,0c-0.2,0-0.3,0.1-0.5,0.3c-1.1,2.7-2.3,5.5-2.4,10.7c0,0.6,0,3.4,0.1,4.3
			c0,0.2,0.2,0.5,0.5,0.5c1.5,0.1,3.2,0.1,4.9,0.1s4.1-0.1,6.2-0.1c0.2,0,0.5-0.2,0.5-0.5v-4.7h2.3l0.3,4.7c0,0.2,0.2,0.4,0.4,0.5
			c0.6,0.1,4.1,0.1,5.1,0.1c2.2,0,4.9,0,6.4-0.1c0.1,0,0.2-0.1,0.3-0.2c0.1-0.1,0.1-0.2,0.1-0.3
			C585.4,119.5,585.2,115.6,585.1,115.3z"/>
		<path class="st27" d="M557.5,173.5c-0.6,0.4-0.8,0.6-0.5,1.1c0.2,0.3,0.7,0.3,1.4,0.3h11.9c0.9,0,0.5-1.1,0.5-3.2
			c-5.8,0-6.7-2.1-8.1-2.1C561.7,170.8,558.9,172.6,557.5,173.5z"/>
		<path class="st27" d="M594.1,173.5c0.6,0.4,0.8,0.6,0.5,1.1c-0.2,0.3-0.7,0.3-1.4,0.3h-11.9c-0.9,0-0.5-1.1-0.5-3.2
			c5.8,0,6.7-2.1,8.1-2.1C589.9,170.8,592.7,172.6,594.1,173.5z"/>
		<path class="st23" d="M585.6,130.4C585.6,130.4,587.6,129.4,585.6,130.4L585.6,130.4z"/>
		<path class="st28" d="M577.3,69.4c-0.1,0-0.2-0.1-0.2,0s-1,1.9-5.5,1.9c-4,0-4.7-2.2-5.3-2c-0.1,0-0.1,0-0.2,0
			c-3.8,0.7-7.5,3.8-10.2,6.2c1.4,2.1,2.1,4.5,4.2,6.2c0.6-0.5,1-0.9,1.3-1c-0.2,2.3,1.2,4.2,1.5,4.6c1.4,1.9,1.5,6.1,0.4,10.8
			c-0.2,0.8-0.6,1.7-1.1,3c-0.3,0.6-0.6,1.4-0.9,2.2c0.1,0.4-0.1,0.7-0.4,1c-0.2,0.5-1.9,6.1-2.1,6.7c0,0,5.3,0.6,12.8,0.6
			s12.7-0.6,12.7-0.6c-0.2-0.8-1.7-6.1-1.9-6.7c-0.3-0.3-0.4-0.6-0.4-1c-0.3-0.8-0.6-1.5-0.9-2.2c-0.5-1.2-0.9-2.2-1.1-3
			c-1.1-4.7-1-8.9,0.4-10.8c0.3-0.4,1.6-2.2,1.5-4.6c0.3,0.3,0.9,0.7,1.5,1.3c1.6-1.9,2.7-4.2,3.9-6.4
			C585,73.5,582.2,70.5,577.3,69.4z"/>
		<path class="st23" d="M564.7,103.6c-0.9,0.3-2.6-0.5-3.3-1c0.5,0.3,4,2.3,2.3,3.2c-1.1,0.6-2.7-0.8-3.5-1.3
			c0.8,0.5,1.2,0.6,1.7,1.5c0.5,0.9-0.3,1.1-1.1,1c-1.2-0.2-3.5-1.4-4.6-1.9c-1.5-0.7,0-1.7,0.9-2.9c0.6-0.7,0.6-1.1,1.4-1.6
			c0.9-0.5,2.6-0.5,3.4-0.2c1.1,0.3,2.2,0.8,2.9,1.7c0.3,0.5,0.7,1,0.1,1.4C564.8,103.6,564.7,103.6,564.7,103.6z"/>
		<path class="st23" d="M578.4,103.6c0.9,0.3,2.6-0.5,3.3-1c-0.5,0.3-4,2.3-2.3,3.2c1.1,0.6,2.7-0.8,3.5-1.3
			c-0.8,0.5-1.2,0.6-1.7,1.5c-0.5,0.9,0.3,1.1,1.1,1c1.2-0.2,2.6-1,3.7-1.5c1.5-0.7,2.1-1.5,1.2-2.7c-0.6-0.7-1.6-1.9-2.4-2.3
			c-0.9-0.5-2.7-0.3-3.6-0.1c-1.1,0.3-2.2,0.8-2.9,1.7c-0.3,0.5-0.7,1-0.1,1.4C578.3,103.6,578.4,103.6,578.4,103.6z"/>
	</g>
</g>
<g>
	<defs>
		<circle id="SVGID_7_" cx="79.9" cy="270.9" r="44.6"/>
	</defs>
	<clipPath id="SVGID_8_">
		<use xlink:href="#SVGID_7_"  style="overflow:visible;"/>
	</clipPath>
	<g class="st29">
		<path class="st7" d="M59.6,404.5c-0.7,0.5-1,0.7-0.6,1.5c0.2,0.5,1,0.4,1.8,0.4h16.2c1.2,0,0.7-1.5,0.7-4.2
			c-7.5,0-7.8-2.7-9.7-2.7C66.6,400.9,61.4,403.3,59.6,404.5z"/>
		<path class="st7" d="M101.2,404.5c0.7,0.5,1,0.7,0.6,1.5c-0.2,0.5-1,0.4-1.8,0.4H83.9c-1.2,0-0.7-1.5-0.7-4.2
			c7.5,0,7.8-2.7,9.7-2.7C94.2,400.9,99.3,403.3,101.2,404.5z"/>
		<path class="st30" d="M92.8,400.1l0.5-61.2H67.7l0.5,61.2c0,0,5,1.3,9.2,5c0.3-0.3,0.3-1,0.3-1.8l0.5-57.5h4.8l0.5,57.5
			c0,0.9,0.1,1.5,0.4,1.8C89,400.9,92.8,400.1,92.8,400.1z"/>
		<path class="st11" d="M63.3,404.9c0,0-0.6-1.7-1.3-1.8c-0.7-0.2-4,1.8-3.9,2.3c0.1,0.6-0.3,1.1,1.7,1.1s3.5,0,3.5,0
			S63.6,406.1,63.3,404.9z"/>
		<path class="st11" d="M77.9,406.1c0,0.3,0.1,0.6-0.3,0.6H58.7c-0.3,0-0.6-0.2-0.6-0.6l0,0c0-0.3,0.2-0.6,0.6-0.6h18.9
			C77.9,405.5,77.9,405.7,77.9,406.1L77.9,406.1z"/>
		<path class="st11" d="M65.7,403.8c-0.2,0-0.3-0.1-0.5-0.3c-0.2-0.5-0.7-1-1-1.2l-0.2-0.1c-0.2-0.2-0.2-0.5,0-0.7
			c0.2-0.2,0.5-0.2,0.7,0l0.1,0.1c0.3,0.3,1,0.9,1.3,1.5c0.1,0.2,0,0.5-0.2,0.6C65.8,403.8,65.8,403.8,65.7,403.8z"/>
		<path class="st11" d="M67.6,402.5c-0.2,0-0.3-0.1-0.5-0.3c-0.2-0.4-0.8-1.1-1.1-1.3c-0.2-0.1-0.3-0.5-0.2-0.7
			c0.1-0.2,0.5-0.3,0.7-0.2c0.5,0.3,1.2,1.1,1.5,1.7c0.1,0.2,0,0.5-0.2,0.6C67.8,402.5,67.7,402.5,67.6,402.5z"/>
		<path class="st11" d="M97.4,404.9c0,0,0.6-1.7,1.3-1.8c0.7-0.2,4,1.8,3.9,2.3s0.3,1.1-1.7,1.1s-3.5,0-3.5,0S97.1,406.1,97.4,404.9
			z"/>
		<path class="st11" d="M82.9,406.1c0,0.3-0.1,0.6,0.3,0.6h18.9c0.3,0,0.6-0.2,0.6-0.6l0,0c0-0.3-0.2-0.6-0.6-0.6H83.1
			C82.8,405.5,82.9,405.7,82.9,406.1L82.9,406.1z"/>
		<path class="st11" d="M95,403.8c-0.1,0-0.1,0-0.2-0.1c-0.2-0.1-0.3-0.4-0.2-0.6c0.3-0.6,0.9-1.2,1.3-1.5l0.1-0.1
			c0.2-0.2,0.5-0.2,0.7,0s0.2,0.5,0,0.7l-0.2,0.1c-0.3,0.2-0.8,0.7-1,1.2C95.4,403.7,95.2,403.8,95,403.8z"/>
		<path class="st11" d="M93.1,402.5c-0.1,0-0.1,0-0.2-0.1c-0.2-0.1-0.3-0.4-0.2-0.6c0.3-0.6,1-1.4,1.5-1.7c0.2-0.1,0.5-0.1,0.7,0.2
			c0.1,0.2,0.1,0.5-0.2,0.7c-0.3,0.2-0.9,0.9-1.1,1.3C93.5,402.4,93.3,402.5,93.1,402.5z"/>
		<path class="st31" d="M97.5,245.1c-3.1-4.5-8.8-7.8-14.2-8c0,0-0.1,0-0.3,0v-0.2c0,0-1.3,0.1-2.6,0.1c-1.4-0.1-2.6-0.1-2.6-0.1
			v0.2c-0.2,0-0.3,0-0.3,0c-5.4,0.2-10.9,3.6-14.2,8c-5.4,7.2-3,23.6-1.8,29.3c3.3,12.2,11.4,14.3,18.9,14.3s15.9-2.1,18.9-14.3
			C100.5,269.3,103,253.1,97.5,245.1z"/>
		<path class="st31" d="M80.2,292.4l-5.4,0.4l-4.6,1.4c0,0,0.5,6.1,9.1,5.2c8.6-0.9,9.9-5.8,9.9-5.8l-3.1-0.8L80.2,292.4z"/>
		<path class="st31" d="M92.7,268c-0.7,3.9,1.6,7.1,5.1,7.8c3.5,0.7,6.9-1.4,7.6-5.3c0.7-3.9-1.6-7.6-5.1-8.3
			C96.8,261.6,93.4,264.1,92.7,268z"/>
		<path class="st31" d="M68.1,268c0.7,3.9-1.6,7.1-5.1,7.8c-3.5,0.7-6.9-1.4-7.6-5.3c-0.7-3.9,1.6-7.6,5.1-8.3
			C64.1,261.6,67.5,264.1,68.1,268z"/>
		<rect x="75" y="285.4" class="st31" width="10.8" height="12.1"/>
		<path class="st7" d="M101.1,302.8c-1.6-4.9-3.9-6.3-12-9.1c0,0-2.9,3.4-8.8,3.4c-5.9,0-8.4-3.4-8.4-3.4c-8.2,2.9-10.4,4.3-12,9.1
			c-0.7,2.1-3.5,12-4.6,23.5c2.7,0.6,5.3,1.8,8,2.9c0.3-6.4,3.7-17,4.2-19.7c0,0,1.7,14.7,1.7,19.7s-0.7,10.7-0.7,10.7l2.7-0.4
			c0,0,3.9,1,9.4,1s9.8-1,9.8-1l3.2,0.4c0,0-1.3-4.6-1.3-10.7s1.7-19.7,1.7-19.7c0.5,2.7,3.3,13.2,3.6,19.7c2.7-1.1,5.3-2.3,8-2.9
			C104.1,314.8,101.8,304.9,101.1,302.8z"/>
		<path class="st31" d="M70.9,339.5c-0.2-0.1-1.8-0.7-2.1-0.8c-0.4-0.1-1.3-0.8-1.3-0.8c-1.4-1.2-4.9-8.4-5.3-9.9
			c-2.5,0.9-4.9,0.9-7.4,1.5c3.5,9.4,10.8,17.5,13,19C67.7,348.1,70.9,340.2,70.9,339.5z"/>
		<path class="st31" d="M90,339.5c0.2-0.1,1.8-0.7,2.1-0.8c0.4-0.1,1.3-0.8,1.3-0.8c1.4-1.2,4.9-8.4,5.3-9.9
			c2.5,0.9,4.9,0.9,7.4,1.5c-3.5,9.4-10.8,17.5-13,19L90,339.5z"/>
		<path class="st7" d="M62.6,323.6c-1.4-0.7-6.1-3.3-7.9-0.4c-0.6,0.9-0.2,1.9-0.2,1.9c-1,1-1.3,3.3,0.2,4c-0.5,3,3.1,2.7,4.9,2.3
			s5.9-1.5,3.5-4C64.5,326.5,64.4,324.5,62.6,323.6z"/>
		<path class="st32" d="M60.8,324.2C60.8,324.2,60.8,324.2,60.8,324.2l-4.5-0.7c-0.1,0-0.2-0.2-0.2-0.5c0-0.2,0.1-0.4,0.2-0.3
			l4.5,0.7c0.1,0,0.2,0.2,0.2,0.5C61,324,60.9,324.2,60.8,324.2z"/>
		<path class="st32" d="M57.8,327.4L57.8,327.4l3.9-0.4c0.1,0,0.3,0.2,0.3,0.3c0.1,0.2,0,0.4-0.1,0.4l-3.9,0.4
			c-0.1,0-0.3-0.2-0.3-0.3C57.6,327.6,57.7,327.4,57.8,327.4z"/>
		<path class="st7" d="M97.4,323.9c1.4-0.8,6.2-3.8,8.3-1c0.7,0.9,0.4,1.9,0.4,1.9c1.1,1,1.6,3.2,0.1,4c0.7,3-3.1,2.9-4.9,2.7
			c-1.8-0.2-6.4-1.1-4-3.8C95.6,326.9,95.5,325,97.4,323.9z"/>
		<path class="st32" d="M99.3,324.3C99.4,324.3,99.4,324.3,99.3,324.3l4.7-1c0.1-0.1,0.2-0.2,0.2-0.5s-0.2-0.3-0.3-0.3l-4.7,1
			c-0.1,0.1-0.2,0.2-0.2,0.5C99.1,324.2,99.2,324.3,99.3,324.3z"/>
		<path class="st32" d="M102.8,327.3C102.8,327.3,102.8,327.3,102.8,327.3l-4.2-0.1c-0.1,0-0.3,0.2-0.3,0.4c-0.1,0.2,0,0.4,0.1,0.4
			l4.2,0.1c0.1,0,0.3-0.2,0.3-0.4C103,327.5,102.9,327.3,102.8,327.3z"/>
		<path class="st13" d="M72,265.9c0,1.6-1.1,2.9-2.4,2.9s-2.4-1.3-2.4-2.9c0-1.6,1.1-2.9,2.4-2.9C70.9,263,72,264.4,72,265.9z"/>
		<path class="st13" d="M93.8,265.9c0,1.6-1.1,2.9-2.4,2.9c-1.3,0-2.4-1.3-2.4-2.9c0-1.6,1.1-2.9,2.4-2.9
			C92.7,263,93.8,264.4,93.8,265.9z"/>
		<path class="st13" d="M66.2,261.4c-0.2,0-0.5-0.1-0.6-0.2c-0.2-0.2-0.3-0.4-0.3-0.6s0.1-0.5,0.2-0.6c0.9-1,2.8-1.6,4.7-1.6
			c1.3,0,2.4,0.3,3.2,0.9c0.2,0.1,0.3,0.3,0.4,0.6c0.1,0.2,0,0.5-0.2,0.7c-0.2,0.2-0.5,0.4-0.7,0.4c-0.2,0-0.3-0.1-0.5-0.2
			c-0.6-0.4-1.3-0.6-2.2-0.6c-1.5,0-2.9,0.5-3.4,1.1C66.8,261.3,66.5,261.4,66.2,261.4z"/>
		<path class="st13" d="M95,261.5c-0.2,0-0.5-0.1-0.7-0.3c-0.6-0.6-1.5-0.9-2.6-0.9c-1.1,0-2.3,0.3-3.1,1c-0.2,0.1-0.3,0.2-0.6,0.2
			c-0.3,0-0.6-0.1-0.7-0.3c-0.2-0.2-0.2-0.5-0.2-0.7c0.1-0.2,0.2-0.5,0.3-0.6c1.1-0.9,2.7-1.4,4.2-1.4c1.6,0,3.1,0.5,3.9,1.5
			c0.3,0.3,0.3,1-0.1,1.3C95.4,261.4,95.2,261.5,95,261.5z"/>
		<path class="st33" d="M80.2,282.2c-1.3,0-4.5-0.2-6.1-2.1c-0.2-0.2-0.2-0.4-0.2-0.6s0.1-0.5,0.3-0.6c0.2-0.2,0.3-0.2,0.6-0.2
			c0.2,0,0.5,0.1,0.6,0.3c0.9,0.9,2.7,1.5,4.8,1.5c0.3,0,0.5,0,0.8,0c1.9-0.1,3.5-0.7,3.9-1.4c0.2-0.2,0.5-0.4,0.7-0.4
			c0.2,0,0.3,0.1,0.5,0.2c0.2,0.1,0.3,0.3,0.3,0.6c0.1,0.2,0,0.5-0.1,0.6c-0.8,1.2-2.8,2-5.3,2.2C80.8,282.1,80.5,282.2,80.2,282.2z
			"/>
		<path class="st24" d="M60.6,263.2c0.2-5.2,0.3-14.7,4.9-14.7c3.4,0,4.3,0.8,14.7,0.8c9.2,0,11.8-1,15.2-1c3.7,0,4.6,4.9,4.7,11.7
			c0,1.4,0.1,2.8,0.2,4.2c0.1,0.8,0.1,1.7,0.2,2.5c0,0.3,0.1,1.3,0.5,1.1c0.5-0.1,0.6-1.9,0.6-2.3c0.3-2.7,0.5-5.5,0.5-8.2
			c0-5,1.5-14.8-7.6-20.8c-5.6-3.7-17.2-4.1-23.7-2c-4.5,1.5-8.8,5.3-10.4,9.8c-1.8,4.9-1.7,8.7-1.1,18.4c0.1,1,0.2,2.1,0.3,3.1
			c0.1,0.7,0.2,1.4,0.3,2.1c0.3,1.5,0.9,0.4,0.9-0.5C60.7,266,60.5,264.6,60.6,263.2z"/>
		<path class="st24" d="M85.7,287.8c-1.7,0.5-3.6,0.1-3.8-1.3c-0.2-1.5-2.9-1.5-3,0c-0.2,1.3-1.7,1.7-3.5,1.4
			c-1-0.2-1.8-0.8-2.1-0.9c-0.7-0.1-0.7,0.6-0.1,1.3c0.5,0.6,1.1,1,1.9,1.4c2.9,1.5,7.6,1.5,10.6-0.1c0.6-0.3,2.4-1.5,2.4-2
			C88.2,286.4,86.3,287.6,85.7,287.8z"/>
	</g>
</g>
<g>
	<defs>
		<circle id="SVGID_9_" cx="154.7" cy="44.6" r="44.6"/>
	</defs>
	<clipPath id="SVGID_10_">
		<use xlink:href="#SVGID_9_"  style="overflow:visible;"/>
	</clipPath>
	<g class="st34">
		<path class="st35" d="M180.9,43.4c0-7.2-1.4-15.5-7.7-24.3c-2.7-3.8-8.2-4.1-12.7-3.9c-2.1,0.1-4.2,0.4-6.2,0.9
			c-2.1-0.5-6.4-4.1-8.4-3.1c-4.1,1.9-5.3,2.6-9,6.4c-6.3,6.6-8.6,17.1-8.6,23.3c0,10.4,5.9,15.1,13,18.5c6.6,2.7,8.9,2.7,21.9,1.2
			C173.2,61.1,180.9,53.5,180.9,43.4z"/>
		<path class="st6" d="M171.8,110.4c0.1-0.1-2.2-32.4-3.1-36.4c-0.5-1.9-1.3-2.2-1.9-3.3c-2.7,0.7-2.7,3.4-3,7
			c0.1,0.3,0.1,0.8-0.1,1.3c1,7.1,1.5,15.3,2,22.2c0.1,1.8,0.7,10.2-0.1,10.6c-0.7,0.4-1,1.5-1,2.2l-0.4,4.1
			c-0.1,1.1,1.4,1.5,1.8,0.5c0.1-0.3,0.5-3.1,0.9-3.1c0.3,0.1,0.2,0.1,0.3,0.5c0.9,2.5-1.9,5.4-1.6,6.2c0.9,2.3,2.7,0.7,4.8-2.1
			C172.1,118,172.3,114,171.8,110.4z"/>
		<path class="st36" d="M172.1,110.4L172.1,110.4c0-0.5-0.1-1.7-0.3-5.1c-0.2-3.4-0.6-7.6-0.9-11.6c-0.5-6.4-1.4-17.5-1.9-19.7
			c-0.3-1.4-0.8-1.9-1.3-2.5c-0.2-0.3-0.5-0.5-0.6-0.9c-0.1-0.1-0.2-0.2-0.3-0.1c-2.7,0.8-2.9,3.2-3.1,6.6l-0.1,0.6v0.1
			c0.1,0.4,0.1,0.8-0.1,1.1c0,0.1,0,0.1,0,0.1c0.9,6.9,1.5,14.7,2,22.2v0.1c0.5,6.6,0.3,9,0.2,9.9c0,0.2,0.1,0.3,0.2,0.3
			c1.1,0.3,2.2,0.4,3.3,0.4c1,0,1.9-0.1,2.7-0.3c0.1-0.1,0.2-0.2,0.2-0.3C172.1,111,172.1,110.7,172.1,110.4z"/>
		<path class="st6" d="M163.7,76.8c0,0,0.3,0.5,0.5,1.1c-0.1-3.7,0.1-7.3,2.7-8.3c-1.3-1.8-5.4-3.3-9.2-5.8
			c-1.1-0.4-1.7,0.9-2.5,1.1c-0.7-0.2-2.5-0.7-3.6-0.3c-1.5,0.7-4.7,2.3-5.7,2.9c1.7,5.6,3.7,10.5,1.9,15.7c0.9,2.3,1,6,0.5,10
			c-0.6,5.3-4.9,9.1-5,19.7c-0.1,9.8-3.4,46.7-4.7,54.1c-0.3,1.6-1.8,5.2-2.5,5.8c-0.5,0.4,2.1,1.1,2.1,1.1s6.5-1,6.8-3.1l7.4-59.1
			l2.7-0.2l2.1,0.2l-0.1,16.7l-0.1,42.2c0,2.1,0.6,1.1,0.6,1.1s7.4,3.3,10,4.5c1.5,0.7,1.1-0.7,1.1-0.7s-2.7,0.1-2.8-2.7
			c0-0.1-0.1-1.3-0.5-1.7c-0.6-0.7-1.4-1.9-1.5-3.5c-0.2-5.1-0.7-24.2,0.5-39h1.1c0.5-7,1.5-13.1,1.4-16.3
			c-0.1-10.6-4.5-13.9-5-19.2c-0.6-5.3,0.1-9.9,1.4-11.8c0.5-0.7,0.7-1.4,0.8-1.9c0-0.2,0-0.3,0-0.5C164,78.3,163.8,77.5,163.7,76.8
			z"/>
		<path class="st37" d="M164.2,79.5c0-0.1,0.1-0.2,0.1-0.2c0-0.1-0.1-0.2-0.1-0.2C164.2,79.2,164.2,79.3,164.2,79.5z"/>
		<path class="st37" d="M151,65.9L151,65.9c0-0.1-0.1-0.2-0.2-0.2c-0.1-0.1-0.2-0.1-0.2,0c-3,0.7-5,1.8-5,1.8
			c-1.6,1.1-16.8,13.1-15.2,20.5c0.4,1.8,1.7,8.1,8.4,14.5c0.1-0.1,0.1-0.1,0.1-0.1c0.6-0.6,1.5-0.6,2.1,0c0.4-1.6,1.2-3.3,1.8-4.1
			c0.1-0.1,0.1-0.1,0.2-0.2c-1.7-1-4.8-5.7-4.8-5.7c-2.3-4.3-1.7-6.4-1.7-6.4c0.6-2.9,7.8-8.9,8.8-9.9c0,0.1,0.2,0.6,0.2,0.6
			c1.7-3,3.9-4.6,6.1-7.4C151.4,68.1,151.2,67,151,65.9z"/>
		<rect x="151.6" y="59.7" class="st6" width="7.2" height="11.1"/>
		<path class="st24" d="M160.5,65.4"/>
		<path class="st38" d="M137.2,170.7c-1.1,2.2-3.1,3.7-3.1,3.7c-1.2,1.4-1.3,2.1-0.1,2.2c0,0,2.3,0.3,3.9-0.1
			c3.4-0.9,5.3-3.4,5.6-3.6l0.2,2.5c0.9,0.5,1.4-0.1,1.4-0.1s1.1-7.2,0.1-7.9c-0.2-0.1,0,0,0,0c0.1,0.1-2.6,4.7-6.6,5.5
			c-0.7,0.2-1.5,0.2-1.9-0.6C136.7,171.9,137,171.1,137.2,170.7z"/>
		<path class="st38" d="M165.3,170.7c1.1,2.2,3.1,3.7,3.1,3.7c1.2,1.4,1.3,2.1,0.1,2.2c0,0-2.3,0.3-3.9-0.1
			c-3.4-0.9-5.3-3.4-5.6-3.6l-0.2,2.5c-0.9,0.5-1.4-0.1-1.4-0.1s-1.1-7.2-0.1-7.9c0.2-0.1,0,0,0,0c-0.1,0.1,2.6,4.7,6.6,5.5
			c0.7,0.2,1.5,0.2,1.9-0.6C165.8,171.9,165.4,171.1,165.3,170.7z"/>
		<path class="st18" d="M164.6,168.4c-0.2-5.1,0.9-24.9,2.1-39.8c0,0,0,0,0.1,0c0.5-7,0.9-13.1,0.9-16.3c-0.1-5.3-1.7-8.7-2.9-11.5
			c-6.3-0.1-12.7-0.6-19.1-1.1c-1.7,3-3,6.7-3.5,12.6c-1.9,22.7-3.1,48.7-4.4,56.1c-0.3,1.6,8.6,2.3,8.8,0.2l7.5-56.4h2.1l-0.1,16.2
			l0.2,40.3C156.3,170.9,164.7,170.1,164.6,168.4z"/>
		<path class="st36" d="M163.4,84.1c0.1-0.5,2.6-3.2,1.5-7.6c1.4-0.7,2.6-1.3,4.2-1.6c-0.5-3.5-2.3-6.5-5.7-8.3c0,0-3.3-1.4-3.3-1.4
			c0-0.1-1.5,14-5.1,14c-2.7,0-5.1-13.9-5.1-13.9c-1.7,0.8-3.3,1.3-3.3,1.4c0-0.1-2.9,0.8-5.8,4.1c-0.1,0.2-0.6,0.4-0.8,0.7
			c1.4,1,4.1,3.6,4.8,5.3l-0.1,0.8c-0.3,4.5,1.4,6.3,1.5,7.9c0.4,4.1-0.1,10.7-1,13.2c-0.6,1.8-2.1,5.3-2.5,8.1
			c1.7,1.8,22.3,2.2,24,0.4c-0.9-3.3-1.5-7-2.2-9C164.1,96.6,162.6,88.8,163.4,84.1z"/>
		<path class="st6" d="M145.9,98.9c-0.7-0.2-2.3-0.6-2.3-0.6c-0.4,0-1-0.4-1.7-1c-1.4,0.1-2.5,0.7-2.9,1.4c-0.6,0.9-0.9,1.9-1.1,3
			c0.9,0.9,2.1,2,3.5,2.5c1.3,0.5,1.7,0.2,3.5,1.4c0.7,0.5,1.5-0.1,1-1c-0.5-0.9-1.7-1.3-1.9-1.5c1.8,0,3.4,1.7,3.8,1.6
			c2.2-0.7-1.8-3.5-3.4-3.8c0.4,0.1,1.6-0.2,3.4,1.2c0.5,0.4,0.9,0.3,1.1,0.1c0.5-0.5,0.3-1-0.1-1.5
			C148.2,99.7,147.1,99.2,145.9,98.9z"/>
		<path class="st36" d="M144.3,68.5c-0.1-0.1-0.1-0.1-0.2-0.1c-0.1,0-0.2,0-0.2,0.1c-3.6,2.9-15.2,12.9-13.7,19.6l0.1,0.2
			c0.5,2,1.8,8.2,8.4,14.4c0.1,0.1,0.2,0.1,0.2,0.1l0,0l0,0l0,0c2.3-0.1,4.3-3.3,4.5-4.5c0-0.1,0-0.1,0-0.1c0-0.1,0-0.1-0.1-0.2
			c0,0,0-0.1-0.1-0.1c-0.1-0.1-0.1-0.1-0.2-0.1c-1.7-1.1-4.6-5.5-4.6-5.5c-2.2-4.1-1.7-6.2-1.7-6.3c0.5-2.5,6.2-7.5,8.1-9.2
			c0.1-0.1,0.2-0.2,0.2-0.2c0,0.1,0,0.1,0.1,0.1c0,0.1,0.1,0.2,0.2,0.3c0.1,0.1,0.2,0,0.3-0.1c0.4-0.7,0.9-1.5,1.5-2.2
			c0.1-0.1,0.1-0.2,0.1-0.3C146.4,72.3,145.3,70.4,144.3,68.5z"/>
		<path class="st1" d="M160.4,65.4l-0.1-0.1c-0.7,2.1-2.3,9.2-5.1,11.4c-0.1,0.1-3.7-2.7-5.1-11.2l-0.2,0.1c0.9,4.8,1,32.1-1,42.3
			c-0.2,1.1,14.2,1.3,13.9,0.2c-2.4-8.5-2.9-26.1-2.7-36.1C160.1,68.8,160.2,66.5,160.4,65.4z"/>
		<path class="st39" d="M164.2,82.9c-0.1,0-0.2,0-0.2-0.1c-0.2-0.1-0.2-0.4-0.1-0.6c0.5-0.6,0.6-1.8,0.5-3.1
			c-0.1-0.6-0.5-1.8-0.9-2.7c-0.6-1.4-0.9-2.2-0.8-2.7c0.1-0.2,0.2-0.3,0.5-0.3c0.2,0.1,0.3,0.3,0.3,0.5c-0.1,0.3,0.5,1.4,0.7,2.2
			c0.5,1.1,0.9,2.2,1,3c0.2,2.1-0.3,3.1-0.7,3.7C164.3,82.8,164.2,82.9,164.2,82.9z"/>
		<path class="st39" d="M144.5,77.2c0.2-0.1,0.3-0.3,0.4-0.3l-0.1,0.8c0,0.3-0.1,0.7-0.1,1c0.2-0.5,0.5-1.1,0.7-1.7
			c0.6-1.4,1-2.2,0.9-2.7c-0.1-0.2-0.3-0.3-0.5-0.3c-0.2,0.1-0.3,0.3-0.3,0.5c0.1,0.3-0.5,1.4-0.9,2.2
			C144.8,76.8,144.7,77,144.5,77.2z"/>
		<path class="st37" d="M140.1,42.2c0.3,2.9-1.3,5.5-3.8,5.8c-2.5,0.3-4.7-1.8-5.1-4.7c-0.3-2.9,1.3-5.5,3.8-5.8
			C137.5,37.2,139.8,39.3,140.1,42.2z"/>
		<path class="st6" d="M171.7,17.8c-3.7-5.1-7.4-5.3-13.4-5.5h-6.5c-6,0.2-9.9,3.7-13.5,8.8c-3.7,5.1-2.1,3.2-1.8,9.4
			c0.2,4.7-2.6,1.4-0.6,14.4c1.9,13.1,13.3,17.2,19.2,17.2c6,0,16.4-3.5,19.2-17.2c2.8-13.8-0.9-9.8-0.6-14.4
			C173.9,24.3,175.4,23,171.7,17.8z"/>
		<path class="st13" d="M146.8,41.6c0,1.6-1.1,2.9-2.5,2.9c-1.4,0-2.5-1.3-2.5-2.9c0-1.6,1.1-2.9,2.5-2.9S146.8,40,146.8,41.6z"/>
		<path class="st40" d="M147.7,37.7c-0.2,0-0.7-0.2-1-0.2c-1.8-0.5-3.5-0.3-5,0c-0.5,0.1-0.8,0.3-1.1,0.1c-0.3-0.3-0.3-0.8-0.1-1.1
			c1-1,6.6-1.2,7.8,0c0.3,0.3,0.3,0.9-0.1,1.1C148.1,37.7,147.9,37.7,147.7,37.7z"/>
		<path class="st40" d="M163.1,37.7c-0.2,0-0.3-0.1-0.5-0.2c-0.3-0.3-0.4-0.8-0.1-1.1c0.7-0.9,6.2-1.1,7.1-0.1
			c0.3,0.3,0.3,0.9,0,1.1c-0.3,0.3-0.7,0.1-1.1,0c-1.7-0.3-3.3-0.2-4.2,0C163.9,37.4,163.3,37.7,163.1,37.7z"/>
		<path class="st12" d="M154.8,56c-2.1,0-4.6-0.5-6-2.1c-0.3-0.3-0.2-0.8,0.1-1c0.3-0.3,0.8-0.2,1,0.1c1,1.1,3.2,1.7,5.7,1.5
			c1.9-0.1,3.5-0.7,4-1.4c0.2-0.3,0.7-0.4,1-0.2c0.3,0.2,0.4,0.7,0.2,1c-0.8,1.1-2.7,1.9-5.1,2.1C155.4,56,155.1,56,154.8,56z"/>
		<path class="st13" d="M168.2,41.6c0,1.6-1.1,2.9-2.5,2.9c-1.4,0-2.5-1.3-2.5-2.9c0-1.6,1.1-2.9,2.5-2.9
			C167.1,38.6,168.2,40,168.2,41.6z"/>
		<path class="st35" d="M167.8,14c-8.7-5.4-17.5-3.6-24.3,0c-3.4,1.8-11.2,9.7-12.2,21.6c-3.9,12.3,5.5,15.5,5.5,15.5
			c-0.2-4.4-4.1-11.1,8-20.8c8.6-6.8,17.9-9.6,17.9-9.6s2.5,3,7.6,10.8c3.5,5.3,5,12.8,5,12.8l1.8-9.2l0,0
			C178.3,29.5,176.2,19.2,167.8,14z"/>
		<path class="st41" d="M146.5,55c-0.3,0-0.6-0.3-0.6-0.6c-0.1-1.5,0.5-2.5,1.4-3.5c0.2-0.3,0.6-0.3,0.9-0.1
			c0.3,0.2,0.3,0.6,0.1,0.9c-0.7,0.9-1.1,1.5-1.1,2.7C147.2,54.7,146.9,55,146.5,55L146.5,55z"/>
		<path class="st41" d="M163.4,55L163.4,55c-0.3,0-0.6-0.3-0.6-0.6c0.1-1.2-0.4-1.8-1.1-2.7c-0.2-0.3-0.2-0.7,0.1-0.9
			c0.3-0.2,0.7-0.2,0.9,0.1c0.9,1.1,1.4,1.9,1.4,3.5C164,54.7,163.7,55,163.4,55z"/>
	</g>
</g>
<g>
	<path class="st1" d="M690.8,149.7c3.7,1.1,7.6,2.4,7.6,7.2c0,3.8-3,6.3-7.6,6.7v4.7h-2.2v-4.7c-3.3-0.2-6.5-1.7-8.7-3.8l1.3-2.5
		c2.1,2,4.8,3.3,7.4,3.5v-8.8c-3.6-1.1-7.3-2.4-7.3-6.9c0-3.5,2.9-5.9,7.3-6.3v-4.3h2.2v4.3c2.6,0.1,5.2,1,7,2.3l-1.2,2.7
		c-1.9-1.2-4-1.9-5.8-2.1V149.7z M688.7,149.1v-7.4c-2.5,0.2-4.1,1.4-4.1,3.2C684.5,147.2,686.3,148.2,688.7,149.1z M690.8,152.8
		v8.1c2.8-0.3,4.5-1.7,4.5-3.8C695.3,154.6,693.3,153.6,690.8,152.8z"/>
</g>
</svg>
