<?xml version="1.0" encoding="utf-8"?>
<!-- Generator: Adobe Illustrator 22.1.0, SVG Export Plug-In . SVG Version: 6.00 Build 0)  -->
<svg version="1.1" id="Layer_1" xmlns="http://www.w3.org/2000/svg" xmlns:xlink="http://www.w3.org/1999/xlink" x="0px" y="0px"
	 viewBox="0 0 211 211" style="enable-background:new 0 0 211 211;" xml:space="preserve">
<style type="text/css">
	.st0{clip-path:url(#SVGID_2_);fill:#F4F4F4;stroke:#D7D7D7;stroke-miterlimit:10;}
	.st1{clip-path:url(#SVGID_2_);fill:none;}
	.st2{clip-path:url(#SVGID_2_);fill:#FFFFFF;stroke:#00A9CD;stroke-miterlimit:10;}
	.st3{clip-path:url(#SVGID_2_);fill:#20284D;stroke:#00A9CD;stroke-miterlimit:10;}
	.st4{clip-path:url(#SVGID_2_);fill:#C3E555;}
	.st5{clip-path:url(#SVGID_2_);fill:#FFFFFF;}
	.st6{fill:none;stroke:#D7D7D7;stroke-miterlimit:10;}
</style>
<title>Map AU</title>
<g>
	<defs>
		<rect id="SVGID_1_" x="0.5" y="0.5" width="210" height="210"/>
	</defs>
	<clipPath id="SVGID_2_">
		<use xlink:href="#SVGID_1_"  style="overflow:visible;"/>
	</clipPath>
	<rect x="0.5" y="0.5" class="st0" width="210" height="210"/>
	<rect x="0.5" y="0.5" class="st1" width="210" height="210"/>
	<path class="st2" d="M105,165.4c1.1,0.3,1.3,1.6,0.3,1S104,165.1,105,165.4z"/>
	<path class="st2" d="M103.3,165.5c0.7-0.1,1.1,0.3,0.4,0.4S102.7,165.6,103.3,165.5z"/>
	<path class="st2" d="M85,173.6c0.4,0.4,0.3,0.1-0.2,0.6s-2.3,1-2.6,3.7c-0.1,1.1-0.9,1.3-0.7-0.5C82,175.2,84.6,173.1,85,173.6z"/>
	<path class="st2" d="M79.7,177.2c-0.2,0.8,0.3,2.3,0.6,1.1S79.9,176.4,79.7,177.2z"/>
	<path class="st2" d="M85.5,171.1c0.5-0.4,1.2-0.1,0.6,0.6S85,171.5,85.5,171.1z"/>
	<path class="st2" d="M118.2,165c-1.1-1.6-2.9-2.5-4.8-2.5c-1.8-0.2-1.2-1.2,0-2.4s0.9-2,0.4-2.6s-0.7-1-2,0.2s-2,0.8-1.9-1
		s1.6-1.9,3.1-2.9s1.8-2.2-0.2-2s-2.1-3-3.4-1s-1.9,0.8-1.9-1.7s2.6-3.4,5.1-5.1s1.7,2.2,2.3,0.2c0.5-1.7,0.9-3.1-0.2-3.1
		c-2.1,0-4.3-2.7-8-1.1c-4.6,2-3.3-2.1-5.9-1.3c-5.9,1.9-4.3-2.2-6.6-1.1s-1.9-3.4-3.8-1.5c-1.2,1.1-3.9,0.1-4.8-1.3s-1.6,0.3-2.6-2
		c-1-2.6-2.3-0.9-1.7-2.9c1-3.6-1.7,1.1-3-3.6c-0.6-2.1,0.6-2.2,2-2.6s2.1,0.6,1.3-2.8s-7.4,2.3-9.2,3.1c-2.6,1.2-0.2,4.8-2.6,4.6
		s0.6-3.3-2.8-4.7c-1.5-0.6-2.7-1.4-3.9,1.1s-2.4,1-2.8-0.2s-1.5-1.7-2.4-0.3s-1.3-0.9-3.2,1.6s-1.6,2.2-0.1,5s-1.2,3.7-2.8,1.9
		c-1-1.2-1.9-1.6-3.2-1c-0.9,0.4-1.5-0.4-2.7-0.5c-2.1-0.1,0.7-1.4-1.1-2.7c-1.3-0.9-2.7,0.9-3.7,0.3s-1.9,1.1-1.7,3s-3,2.9,0.4,3.5
		c1.5,0.3,2.4,3.8-1.1,3.6c-5.6-0.2-1.9-3.2-4.8-3.2c-1.5,0-0.9,1.5-2.3,1.7c-1.1,0.2-0.1,1.9-1.9,2.3s-0.9,2.8,1.5,2.8
		c5.2,0.1-1.9,2.2,1.8,4.1c1.8,0.9-3.4,3.6-2.4,1.5c0.7-1.7-2.5-0.8-2-2.3s-1.6-2.7-3.1-1.2s-1.6-1.1-3.4,1.3
		c-1.4,1.8-4,0.7-5.1-0.7c-0.8-0.8-1.2-2-0.9-3.1c0.2-1.1,0.3-2.3-1.2-1.1s-0.3-1.1-2.2-1s-0.9,3-0.9,5.9s-3.2,4.6-5,7
		s-2.1,3.4-0.6,5s0.9,3.4-1.9,3.1s1.4-2.7-2.7-3.6s2.3-4.5-1.3-4.3c-1.2,0.1-0.9-1.9-1.8-0.5c-1.4,2.1-2.2-0.5-4.3-2.4
		c-1.4-1.3-2.4-1.2-1.7-3.2s0.3-3.5-1.2-3.6s-3.2,0.5-3.6,1.2c-2,3.6-2.2,0.2-3.3,1.3c-1.2,1.3-2.4,1-0.9,2.3c1,0.9,3.5,2.2-0.4,4.1
		c-2.4,1.1,0.5,3.2-3.2,3.8c-3.4,0.5,0.5,2.8-3.8,2.8c-2.4,0-1.5-1.9-4.1-1.8c-1.1,0.1-1.2-2.6-3.6,0.7c-1.3,1.9-3-0.5-5.3,1.3
		c-1.2,1.1-3,1-4-0.1l-0.1-0.1c-1-0.9-0.7,1.1-2,1.1s-2.4,0.6-2.3,2.2s0,2,2.2,3c4.5,1.9-1,3.7,4.9,6.7c4.1,2.1-1.2,3.2-0.9,7.9
		c0.1,2.2-1.5,1-3,2s-0.9,2.9-3.7,2.4c-1.8-0.4-4.4,1-4.4,2.2s-0.3,0.9,1.8,2.3s0.2,2.4,2,3.6c1,0.7,1.1,1.4,3.5,0.5
		c3.3-1.1,0.7,1.5,2.3,3.6c2,2.6-2.8-0.3-1.9,3c0.5,1.8-4.6,2.9-1.4,5.2c2,1.4-2.5,1.1,0.9,5c2.9,3.2,5.3,1,7.7,2.9
		c1.4,1.1,3.1,2.3,4.6,0.2s0.4,1.3,3-0.9s1.3,1.3,2,1.9s1,1.1-0.6,1.9s0.5,1.8-3.2,4.4c-0.8,0.6-0.5,2.1,0.2,3.8
		c1-0.2,3,1.1,3.8-0.1c0.5-0.8,3.6-1,3.5-1.5c0-0.2,2.3,0.3,3.2-0.6c1.4-1.5,2.7-1.6,4.3-2.6c0.4-0.3-1-1.3,0.4-2.1s0.1-4.2,4.5-4.6
		c2.2-0.2-0.3-1,1.1-1.6c2-0.8-1-1,0.9-2.5c1.3-0.4,1.8-1.2,2.8-1.8c0.8-0.3,1.5-0.8,2.1-1.4c1.4-1,3.3-1,4.7,0.1
		c1.1,0.6,2.3,0.8,3.5,0.7c5.6-0.3,0.9,1.5,2.6,2.1c3.7,1.2-1-4.1,6.8,2c0.9,0.7,2.7,0.4,3.5,2.1c1,2.1,2.5,0.4,4,2.2
		c4.9,5.9-1.4-4.6,4.4,1.4c0,0.2,0.4,0,0.7,0.2c2.5,1.4,0.8-0.3,2.8,1.6c1.4,1.4,2.5,2.9,3.3,4.7c0.5,1,0.7,2,0.7,3.1
		c0.3,1.9,0.3,3.9,0,5.8c1.4,1.9-0.1,0.9,1.5,2.4c1,0.9,1.7,2,2.1,3.2c0.5,1.2,1.3,2.2,2.2,3.2c0.3,0.4,0.5,1.9,0.5,3.5
		c0.1,2.2-0.4,3.8-1.6,4.6s2.4,4.7,1.7,1.8c1-0.9,3.5-0.6,4.5,0.2c1.6,1.3,0.8,3.7,0,3.5c-0.6-0.2-0.7,0.3-0.2,1
		c0.8,1.2,4.9-0.1,5.7,2.9c0.7,2.5,3.2,1.2,3.2,3s1.3,0.7,1.8,1.8c0.2,0.6-0.1,1,0,2.1c0.2,0.6,0.4-1.1,2,0.5c0.5,0.5-0.7,1-0.5,1.5
		c3.1-0.2,6.1,0.9,8.3,3.1c2.5,2.5,3.2,3.4,3.2,5.1s1.7,3.7,2.2,5.2c0.3,1,1.8-1,3.4,1.1c1.4,1.9,3.1,0.8,4.7,3.3s0.2,3.1,1,4.1
		c0.3,0.4-0.3,0.2,2,0.9s4,3,5.4,5.1c1.6,2.4,1.8,2.9,2.1,2.9c2,0.1,1.4-0.6,2.3,0.7c0.6,0.9,4.5-1,6.3,3.3c0.8,1.8-0.1,0.4,0.7,1.9
		c3.1,1.1,0.9-1.1,5-1.8s9,4.3,8.2,1.8c-0.4-1.2,1.4-1.9,4.6,1c3.8,3.4,1.7,4.7,3.4,5.6c1.9,1,2.1,1.7,2.3,3.4
		c0.1,1.1,0.5,0.8,0.1,1.6c-0.4,1.3,0.7,1.8,1.5,0.4c0.7-1.1,2,1.8,2.6,0.2c1.3-3,2.6,1,3.9,1.2c1.8,0.2,4.1,1.2,0.9,2.5
		c-1.1,0.6-2,1.4-2.9,2.2c-0.3,1.1,0.5,0.9,2.8,0.1c1-0.4,1.8-1.2,2.3-0.6c0.8,0.9,2-1,3-0.5c1.3,0.7,1.8,0,1.8-0.7
		c0-1.4,1.7-0.8,4.2,3.5c3.9,6.8,0.7,3.7,0.9,6.9c0.1,1.8-1.3-0.3-0.9,1.5c0,0.7,2.9,0.5,2.5,1.6s3.1-0.3,4.7,2.1
		c2.8,1.9,0.5,3.1,1.4,3c1.6-0.2,1.5-0.3,2.4,0.4c1.5,1.2,2-0.5,3.7-1.8c2.9-0.8,3.5,1.9,4.6,3.3c2.9,3.4-0.1,2.8,0.6,3.1
		c1.5,0.6,0.7,1.4,0.9,3.1c0.2,1.9,1.2,1.7,1.4,4.1c0.1,2.2,3.4,1.5,4.5,7.9c0.3,2.3,0.4,6.3,1.2,8.4c1,3.2,4.2,2.3,2.3,7.1
		c-1.2,3-4.6-0.1-5.7,2c-0.3,0.6-1.4-0.1-1.8,0.8s-3.1,0.5,0.5,3.3c1.8,1.4,0,2.4-1.4,5.9c-0.4,1-0.1,2.8-2.1,2.9
		c-0.7-0.1-1.5,0.2-2,0.8c-0.3,0.5-1.2,0.7-0.3,2s-1.2,2-0.1,3c1.5,1.5-1.8,1,0.9,3.6c2.3,1.7,4.1,0.4,5.1,0.4
		c1.3,0.1,2.6,0.7,4,0.2c1.1-0.4,2.4-3.8,2.3-4.4c-0.2-2,2.2-3.6,3.3-5.3c0.4-0.6,1.2-1.6,2.2-1.6c1.8,0,0.3-0.5,1.2-0.9
		c1.6-0.7,2.7-0.7,3.2-2.9c0.6-2.4-0.7-4-0.4-6.2c0.2-1.4-2.2-2.3,3.3-5.9c3.1-2,6.6-3,6.6-1.8c-0.1,1.9,1.4-0.3,2.6,0.8
		c0.1-1.3,2.1-0.8,1.7-2.1c-0.7-2.2,1.8-1.9,0.1-2.4c-3.4-1,0.1-3.6-0.7-4.7c-1.7-2-0.5-1.9-0.6-2.4c-0.5-3.1,1.5-1.7,0.8-3.5
		c-0.5-1.3-1.1,1.2-2.6-2c-0.9-2-2.4,0.6-5.5-3.3c-1.7-2.2-3.6,0.1-5.4-1.4c-1.2-1-1.2,0.6-1.2-2.6c0-0.8-1.4-0.2-1.1-1.8
		c0.8-1.5,1.7-2.8,2.9-4.1c1.1-1.3-0.1-2,0-3.5s0.6-2,1.6-2.3s0.4-1.1,1.4-1.2c0.8-0.7,0.2-2.8,1.3-3.5c1.4-0.9,0.9-1.4,1.9-2.5
		s2.9-4,6.1-4c1,2.8,0.6,1.1,1.9,1c2.9-0.2,0.7,1.9,0.2,1.7s-1.1-0.2-0.6,0.4c0.9,1,3.7,1.3,5.2,3c0.9-1,1.7,0.3,2.7,0.9
		c4.2-2.5,8.7,1.2,8.2,0.8c1.6,1.3-0.4,2.4,2.7,3.9c0.1,0.6,0.5,2.1-0.2,1.8s0.7,1.8,0.3,1.6c-1.5-0.5,0.4,1.7,1.2,2.7
		c2.9,3.4,4.6,1.2,5.7,2.6c2,2.5,1.4,0.9,2.2,0c0.3-0.3,0.3-5.1,1.4-6.4c1.8-2.3,2.7-1.8,0.6-4.6c-1-1.4,0.7-1.2-2.5-4.4
		c-0.9-1.2-2.3-3.3-3.6-4c-2.2-1.3-1.7,0.1-3-1.4c-0.6-0.7-0.6-1.8-1.2-1.8c0-1.6-2.2-2.5-3.1-2.4c-1.2-0.2-2.3-0.7-3.2-1.5
		c-1.6-2-1.9-1.5-4.4-2.1c1,0.2-1.7-0.7-4.8-2.8c-2.5-1.6,0.2-0.6-4-3.7s-5.2-1.9-9.6-3.7c-1.8-0.8-2.6-1.8-4.7-1.8
		c-1.6-1.4-6.9-3.8-9.5-4.7c-2.3-0.7-4.5-2-6.3-3.6c-1.6-1.6-0.9-4.5,2.6-5.1c2.2-0.4,1.6-2.5,3.1-2.7c1.3-0.2,0.6-2.9-1-4.5
		c-1.9-1.9-2.4-1.4-3.7-0.4c-6.1-0.1-5.4,0.2-4.4,0.9c3.1,2.1-4.3,2.4-2.5,0c3.2-0.9-0.6-0.8-1.6-0.8c-8.1,0.4,2.9,1.4-3.4,2
		c-3.2,0.2-5.6-1.2-2.2-1.1c0.5,0,1.1,0,1.6-0.3c0-0.5-5.3-0.3-7.7-0.8c-2.1-0.4-1-2-3.1-2c-0.4,0-2.6-0.3-2.9-0.8
		c-0.2-0.3-0.4-2.9-0.9-3c-3.9-0.8-1-2.5-2.4-3.7s-2.1-0.4-4.6-2.5c-0.8-0.7-1.7-1.3-1.6-2.4c0-1.6-2.5-1.5-3.7-2.5
		c-2.8-2.7-5.1-5.8-6.8-9.2c-2.7-6.4-2.2-9-4.2-13.7c-0.5-1.2-0.5-2.8-1.5-3.9c-0.8-0.9-0.9-0.6-1.3-2c-0.1-0.7-0.3-1.4-0.5-2.1
		c-0.2-0.7-0.7-1.4-1.2-1.8c-1.4-1.4,2.2-0.6-0.8-2.3c-0.7-0.4-0.6-1.9-2.2-2c0.2,1.4-0.4,0.7-0.4,1.4c-1,0-1.3-1.3-2.1-1.7
		s-1.4-0.1-2.3-0.9c-1.4-1.2-1.8-2-3-2.7c-3.5-2-6-5.8-9.3-6.3c-3-0.5-3.2-3-5.2-3.9s-2.8-3.1-3.6-4.6c-1.2-2.4-1.5-5.9-1.9-8.2
		c-0.3-1.8-0.9-2.4-0.7-4.3c0.8-6.5-2.5,3.5-1.2-3.6c0.8,0.5,1.1-0.2,1.2-0.6c0.2-3.2,1.5-0.3,1.7,0.4c0.3,1,1,0.7,1.3,0.5
		c0.6-0.4-0.3-2.3-0.5-2.7s1-1.6,1.4-1.2c0.2,0.4-0.4,1.9,0.2,2.4c0.8,0.3,1.3-0.9,1.3-2.2c-0.1-2.4,0.7-0.5,1.2-1.8
		s-3.3-2.1-1.3-0.5c0.4,0.3-1.4,1.2-2.1,0.8c-1.4-0.9,2.2-2.6,0.7-2c-0.7,0.2-1.5-0.6-1.1-0.2c-1.5-1.8,0.5,1.2-1.2,1.1
		c-1.8-0.8,0.2-1.9-0.3-1.9c-1.2,0-2.2-2.4-1-2.7c0.6-0.2,1,1,0.8,1.1c2.4,3.6-0.2-0.7,0.8-1.9c-0.6-0.1-1.1-1.1-1.1-1.8
		c-0.1-1.5-0.4-0.9-0.9,0.5c-0.7,2.2-0.6,1.8-1.4,0.7c0.1-0.8,0.3-1.2,0.4-2.2c0.1-1.9-2.6,1.9-2-3.3c0.1-1.1,2.3,1.6,2.8-2.6
		c0.2-1.4,0.5-1.6,1.4-1.5c0.5,0.1,0,1.3,0.5,1.4s2.4-1.1,1.9-1.5c-0.9-0.6-1.1,0.4-1.9-0.3c0.7-0.9,4.8-3.2,4.9-1.9
		c0,0.4,0.8,0.4,1.2,0c1.1-1.1,2.2,1.4-0.8,1.6c-1,0.1-2.4,1.3-1.9,1.7c-0.3,0.9,3.8-1.3,4.6-1.5c2.5-0.6,2.4-1.7,5.1-2.2
		c1.6-0.3-1.9-4.4,1.7-0.7c1-0.3,2-0.5,3-0.5c0.7-0.9,1.4-1.7,2.3-2.4c0-1.8-3,1.3-2.4-0.5c0.2-0.6,0.9-2,1.3-1.3s1.1-2.5,2.5,0.2
		c0.2,0.4,0.3-1.7,1.7,0.1c2.7,3.4-0.3,1.9,0.5,2.6c1.1,0.8,4.4-1.9,4.8-1.9c0-0.7-0.9-0.9-0.9-1.6c2.7-1,3.6,1.7,5.5,2.3
		c1.2,0.4,1.5,1.8,0.7,1.6c-2.3-0.5,0.9,1.3-0.6,1.4c-0.5,0-1.3-0.9-1.5-0.2c0.2,0.3,0.3,0.4,0.4,0.6c1.8,0.2,3.4,0.3,4,0.4
		C120.4,169.8,119.5,166.8,118.2,165z M46.1,166.8c-0.3,1.5-2.3,1.3-1.4,3c0.7,1.2,1,0.9,0.8,3.3c-0.5,0.8-1.5,1.1-2.3,0.6
		c-0.2-0.1-0.3-0.2-0.4-0.4c-1.1-1.2-1.8,1.1-2.5-0.8c-0.6-1.7,1.4-1,1-3.1c-0.3-1.6,1-1.9,1.3-2.2c3.7-3.9,3.3-4.8,6.2-6.4
		C49.7,162.1,47.1,162.6,46.1,166.8L46.1,166.8z M78.5,197.5c1-1.8,2.4,1.8,1.3,3.1c-0.9,1.1-4.1-1.2-2.6-2.6
		C77.6,197,78.2,197.9,78.5,197.5L78.5,197.5z"/>
	<path class="st2" d="M39.1,124.8c-2.2-2-1.3,2.2-3.6,1.5s0.2,2.8-3.1,3c-2.6,0.2-1.6-1.7-5.5-2.4c-3.8-0.8,1.8-3-5-4.7
		c-2.3-0.6-1.8-0.4-4.5,0.2c-3,0.7,0.5-0.8-0.7-3.2c-2.3-4.4,3.7-5.8,3.7-8.5c0-1,0.8-1.5-0.8-1.5c-1.8,0-1.1-2-2.5-3.4
		s-4.6-2.3-6.8-2.8s-1.9-1.3-4.1-1.4s-0.9,1.1-3.3,1s-0.5-0.8-2.3-2s0.5,2.9-2.1,2.1c-1.9-0.5,0.9-2.7-0.9-4.4
		C-3.7,97-3,99.7-4.5,98.1s-0.7,1.7-2,1s-2.5,0.7-2.8,2.7c-0.4,2.5,2.3-0.1,4.6,0.3c1.7,0.3-0.2,3.6-0.8,2.4s-2.6-0.8-2.2,0.4
		s-0.6,1.1-4.3-0.5c-4.6-2-3.4,3.2-6.8,1.9c-1.3-0.5-3.6,1.3-3.1-0.9c0.4-1.7-7.6,3.4-5.3,0c1.3-1.9-0.2-1.4-2.7-0.5s0.2,3.8-2,3.2
		s2,1.9-5.7,2.4c-2.8,0.2,0.2-3.9-1.7-3.4c-1.1,0.2-2.2,0.3-3.3,0.1c-1.4,0,0.6,1.7-1.8,2.7c-1.8,0.7-1.9,2.2,1,2s2.3,1.6,0.2,2.7
		s1,1.1-5.2,5.7c-2.9,2.1-1.3,2.8-2.2,3.3s-0.6,1.4-3,1.2s-3.9,1.5-2.4,3s-1.5,1.5-0.2,3.3s-2.3,1.5-4.7,3.8s-3.9,2.3-2.7,3.3
		c2.2,1.7-1.8,0.9-1.7,4.5c0,1.9,2.8-0.4,1.4,3.9c-1,3.1-0.6,1.7-2.7,2.1s-0.5,1.4-1.2,2.5s0.2,0.9,2.5,0.9c1.6,0,2.6-0.1,3.3-1
		c-0.4,0.2-1,0.1-1.3-0.3c-0.2-0.3,0.4-1.8,0.8-2.5c2.3-4,2.8-6.3,5.3-6c1.6,0.2,2.6-1.5,4.2-1.9c1.9-0.4,3.9,0.1,5.3,1.4
		c2.5,1.8,7,2.7,4.5,3.4c-1.2,0.3-2.2,1-4.3,0.5c-0.5-0.1-1-0.3-1.4-0.5c-0.7,1,1.6,0.7,1.6,2.4c0,2-1.7,0.9-1.3,3.2
		s1.9-0.9,2.2,3.2c0.2,2.4,0.4-1.9,3,2.4c0.6,0.9,1.1,1.9,1.4,3c0.2-0.3,0.4-0.4,0.8-0.1c1,1.2,2.8,1.3,4,0.3l0.1-0.1
		c2.3-1.8,4,0.5,5.3-1.3c2.4-3.4,2.5-0.7,3.6-0.7c2.5-0.1,1.6,1.8,4.1,1.8c4.4,0,0.4-2.4,3.8-2.8c3.7-0.5,0.8-2.6,3.2-3.8
		c3.9-1.8,1.4-3.1,0.4-4.1c-1.5-1.4-0.4-1,0.9-2.3c1-1.1,1.3,2.3,3.3-1.3c0.4-0.7,2.1-1.3,3.6-1.2s1.9,1.5,1.2,3.6s0.3,1.9,1.7,3.2
		c2.1,1.9,2.9,4.6,4.3,2.4c0.9-1.4,0.6,0.6,1.8,0.5c3.6-0.2-2.7,3.4,1.3,4.3s-0.2,3.4,2.7,3.6s3.4-1.6,2-3.1s-1.2-2.5,0.6-5
		s4.9-4,5-7s-0.9-5.8,0.9-5.9s0.7,2.1,2.2,1s1.3,0,1.2,1.1c-0.3,1.1,0,2.3,0.9,3.1c1.1,1.4,3.7,2.5,5.1,0.7c1.9-2.4,1.9,0.2,3.4-1.3
		s3.7-0.3,3.1,1.2s2.7,0.6,2,2.3c-0.9,2.1,4.2-0.6,2.4-1.5c-3.7-1.8,3.4-4-1.8-4.1c-2.4,0-3.3-2.4-1.5-2.8s0.7-2.2,1.9-2.3
		c1.5-0.2,0.9-1.7,2.3-1.7c3,0-0.8,3,4.8,3.2c3.5,0.1,2.6-3.3,1.1-3.6c-3.4-0.6-0.2-1.6-0.4-3.5c-0.2-1.1,0.2-2.2,1-3
		C39,127.4,41.2,126.8,39.1,124.8z M-42.4,127.9c-1.3,0.4-2.4,1.1-3.2,2.2c-1.1,1.7-3,2.7-5.9,2.3c6.1-5.5,5.6-6.7,9.8-7.1
		C-39,125.1-42.4,127.9-42.4,127.9z"/>
	<path class="st3" d="M192.6,89.8c0.2-2.3-3.4-0.6-3-4.2c0.4-4.3-2.4-1.5-2.4-5.9c0-3.5,2.2-3.2,2.4-5.1c-0.5-3.6-0.6-3-2.1-2.9
		c-6.2,0.3-2.5-2.9-4.6-2.5s-1-0.8-3.1-0.8c-2.9,0,0.2,3.3-6.2,2.8c-0.2,0-0.3-0.1-0.4-0.1c-7.4-0.7-6.2-5-9.4-5
		c-2.1,0-1,1.4-2.6,1.4c-1.4,0-2.9-2-4.9-2.3c-1.4-0.2-1.5-2-4.5-2s-1.9,1.5-3.4,1.6s0.6-3.1-1.6-2.3c-1.5,0.5-1.9-1.5-2.7,0.2
		s0.6,2-0.1,5.3c-1,4.6-1.7-0.5-4,2c-0.2,0.2-0.3,0.4-0.5,0.6c-2.6,3-0.8,4-2,5c-0.7,0.6-1.1-1.5-3-1.1s-3.1-1.7-3.2,0.1
		s-1.3-0.1-1.6,1.5s-2.3,0.8-3.2-0.3c-1.2-1.6-3.4,0.2-4.4-1.4s1.2-2.2-2.2-3.5c-0.7-0.3-1.3-0.6-1.9-1c0.4,3.6-0.5,3-1.5,4.6
		s-3.7-1.1-5.2-1.2s-1.9-0.2-2,2.9s-2.6,6.2-4.8,6.2s-7.2,2.4-9.8,4S91.3,88.2,97,95c3.1,3.7-0.5,4.2-0.5,5.8s2.7,0.2,3.6,1.8
		c1.4,2.6-1.5,2.9-1.1,5.7c0.3,1.9-2.7,1.1-4.8-0.9c-3.3-3.1,2-0.8-1-3.8c-1.5-1.5-2.4-2-5.2-0.1s-1.7-2.1-3.6-1.2
		c-1.5,0.8-1.2-0.7-2.7-0.3c-2.3,0.6,1.6-3-2-1.3c-1.8,0.9,0.7,2.7-0.2,4.1s-2.1-0.5-4.1-0.5s-1.9,1.5-7.5,1.4
		c-6.2-0.2,1,2.3-5.9,2.2c-3.1,0-0.8,2.1-1.9,2.1s-3.2,2.9-3.4,1.3s-1.1,0.3-4.2,0.8c-3.9,0.5-0.9-2.2-3-2.7
		c-2.6-0.7,1.8-3.4-2.7-1.9c-2.2,0.7-2.7-2.6-5.4-1c-2.8,1.8-1-2.3-2.9-1.3c-1.6,0.9,0.2,3.1,0,4.9s-4.1,6-6,5.8s0.7-1,0.6-2.9
		s-1.2-0.4-2.3-0.4c-2-0.1,0.8-1.9-2-3.7c-1.5-1-0.3-1.8-3-1.8s-0.5-1.5-2.5-1.5s-0.6,1.6-3.4,1.8l-2.7,0.2c0.4,1.1,0.4,2.1,1.7,2.1
		c1.6,0,0.8,0.5,0.8,1.5c0,1.3-1.4,2.3-2.6,3.4c0.8,1.2,1.2,1.8,1.2,2.7c0,1.2,0.4,2.1,0.4,3c0,0.5,0.6,1.3,0.8,2.1
		c0.5,0.1,1.1,0.2,1.6,0.3c6.8,1.7,1.2,3.9,5,4.7c4,0.8,3,2.6,5.5,2.4c3.3-0.2,1-3.6,3.1-3s1.4-3.5,3.6-1.5s0,2.6,1.2,4.4
		c0.2-0.1,0.5-0.1,0.8,0c1,0.5,2.4-1.2,3.7-0.3c1.8,1.3-1,2.6,1.1,2.7c1.2,0,1.8,0.9,2.7,0.5c1.3-0.6,2.2-0.1,3.2,1
		c1.6,1.8,4.3,0.8,2.8-1.9s-1.8-2.6,0.1-5s2.3-0.2,3.2-1.6s2-0.9,2.4,0.3s1.6,2.7,2.8,0.2c1.2-2.5,2.4-1.7,3.9-1.1
		c3.4,1.4,0.3,4.5,2.8,4.7s0-3.4,2.6-4.6c1.8-0.8,8.4-6.5,9.2-3.1s0.1,2.4-1.3,2.8s-2.5,0.4-2,2.6c1.2,4.7,4,0,3,3.6
		c-0.6,2,0.7,0.3,1.7,2.9c0.9,2.3,1.7,0.6,2.6,2s3.6,2.4,4.8,1.3c1.9-1.9,1.5,2.6,3.8,1.5s0.7,3,6.6,1.1c2.6-0.8,1.3,3.3,5.9,1.3
		c3.8-1.6,5.9,1.1,8,1.1c0.1,0,0.2,0.1,0.3,0.1h0.2c2.4-0.7,1.8,0.7,3.8-0.3c1.1-0.5,2.3,1.6,3.8,1.2c2.3-0.5,2.2,0.9,5.5,1.4
		c3.4,0.5,5.1-0.6,6.2,1.1c1.6,2.4,1.4-0.4,3.1-1.9c2.3-2.2,3.7-0.1,4-2.5s1.3-3.1,3-2.3s0.7-1.2,3-1.6c2.7-0.5,3.6,0.1,4.9,0
		c0.2,0,0.4,0,0.6,0c3.9-0.9,3.4,3.4,4.5,1.6c2.1-3.5,2.5-0.7,3.2-2.9c0.5-1.6,1.6,0.4,3.2-0.5c3.4-2,5.2,3.9,6.1,2
		c1-2.1-1.3-2-1.2-4.5c0.1-2.1,1-2.4,2.9-2.5c-0.5-1-3.5-1.1,0.4-3.4c2-1.2-0.3-3.9,4.8-3.8c1,0,3.5,0.9,1.8-2.8
		c-2.9-6,2.5-2.9-0.1-6.9c-1.2-1.9,0.1-3.1,1.2-3.1s2.6,0.7,2.9-1.3s1.8-1.3,1.1-3s-3.9-1.5-5.1-1.1s-3.1-3,0-2.6s-0.6-2.1,3.8-2.1
		c3.4,0,2.7,2.9,4.1,2.9c1.1,0,1.6-2.1,5.7-0.5c0.7,0.2,2.9,0.3,1.2-1.2s0.6-1.5-0.9-3.3s2-1.2,1.6-3.1c-0.2-1.1,0.4-2.1,1.3-2.7
		c-1,0.2-2.1-0.4-2.3-1.5C192.5,90.3,192.5,90.1,192.6,89.8z"/>
	<path class="st2" d="M232.2,40c-1.6-0.2-2.9-2.8-2.7-4.5s-1.5-2.9-4.2-2.8c-5.5,0.1-1.8-1-4.9-1.4c-2.6-0.4-2.7-2.7-3.8-2.7
		s-1.2,0.1-0.6,1.2s-1.7,2.1-3.8,1.4c-3.1-1.1-0.5-3.1-3.8-3.7c-2.7-0.5-2.1-3,0.7-2.8c2,0.1,0.9-3.1,0.2-3.7
		c-1.4-1.3-1.2,1.9-3.7,0.9c-1.8-0.8-0.9,1.4-3.7,0.9s-1.1-2.9-3.3-2.6c-2.5,0.3-8.5-5.3-9.7-2.5c-0.6,1.4-0.2,1.1,2,3.1
		s1.3,3.3-0.6,2.8s-0.1,1.4-2.3,1.2s-0.4,2.5-3,2.5s-3.5-1.2-3.5-3.3s-1,0.1-3-3.2s-3,0.4-3.7-2.1c-0.2-0.9-1.3,0.3-1.5-1
		c-0.4-2.9,3.7-1.2,4.1-3.2c0.3-1.4,1.2,0.1,1.2-2s-4.4-2.7-6.6-2.2c-1.9,0.4-3.4,3.7-3.5-0.6c0-2.4-2.1,1.7-4.5-2.4
		c-1.4-2.4,0.1,2.8-6.7-1.3c-2.4-1.5-4.1,2.5-4.2-0.9c0-1.5-3-2.2-1.9-2.9c0.6-0.4,0.6-1.3,0.2-1.8c-0.4-0.5-1.1-0.6-1.7-0.3
		c-1.9,0.8-1.4-1.7-3.6-1c-1.6,0.5-1.2,1.2-0.9,3.5c0.1,1,0.3,1.7-1.5,2.3s-2.6-0.2-3.2,0.3l0,0c-2,1.5-1-0.4-3.2-0.1
		s-0.2-1.5-0.6-2.3S133.2,4,135.2,1c1-1.5-1.6-1.1-1.5-2s-0.3-1.3-1.6-0.4s-1.1-0.9-2.8-0.9s-2.4,1.8-1.1,2c1.3,0.2-0.1,1.9,1.5,1.8
		s3.1,2.1-1.4,2.1c-0.9,0-1.8,0.3-2.6,0.8c-1.5,0.8-3.3,1.3-5,1.3c-3.8,0.2,1.5,3.5-7.5,2.5c-1.9-0.2-2.6,0.3-2.3,1.4
		s-1.6,3.3-2.7,1.9c-2.3-1.9-1.2,2.5-3.4,1.2s0.3,2.2-4,2.2c-4.7,0,0.6,5.3-6.2,1.9c-2.3-1.2-1.1,1.9-4.4,1.6
		c-1.8-0.3-3.5,0.4-4.7,1.8c-1.8,1.8-1.9,0.9-2.3,4s-1.8,0.2-1.8-1.2s-1.7-0.3-1.9-1.6s-2.5-0.6-1.8,0s-0.7,2.2,0.1,2.2
		s1.5-0.4,1.8,2c0.4,5.2,6.8,3.6,6.8,6.7c0,1.6,2.7-0.5,0.3,3.6C85.2,38.3,84,37.1,84,38s0,1.9,1.8,2.2s0,1.5,1.8,2.3
		c1.2,0.5-0.1,2.5,1.9,2.8c0.9,0.2-0.6,2,3.1,5.3c3,2.7,2.9-3.9,9.5,6.7c1.4,2.4,1.3-0.4,4.3,1.9c2,1.5-0.2,2.5,1.6,3.7
		c1.1,0.7,0.9,0.6,2.1-0.2c2.9-2,1.4,2,4.9,2.6c1.5,0.2,0.7,2.2,3.5,4c0.6,0.4,1.3,0.7,1.9,1c3.4,1.3,1.2,1.9,2.2,3.5
		s3.2-0.2,4.4,1.4c0.9,1.2,3,1.9,3.2,0.3s1.4,0.3,1.6-1.5s1.4,0.4,3.2-0.1s2.3,1.6,3,1.1c1.3-1-0.5-1.9,2-5c0.2-0.2,0.3-0.4,0.5-0.6
		c2.4-2.5,3,2.7,4-2c0.8-3.3-0.6-3.6,0.1-5.3s1.2,0.4,2.7-0.2c2.3-0.8,0.2,2.4,1.6,2.3s0.3-1.6,3.4-1.6s3.1,1.8,4.5,2
		c1.9,0.4,3.5,2.3,4.9,2.3c1.6,0,0.5-1.4,2.6-1.4c3.2,0,1.8,4.5,9.8,5.1c6.4,0.5,3.3-2.8,6.2-2.8c2,0,0.9,1.3,3.1,0.8
		s-1.6,2.8,4.6,2.5c1.5,0,1.6-0.7,2.1,2.9c2.3-2.1-0.3-2.5,2.9-7.6c1.1-1.8,3-4.2,6.1-1.9c3.6,2.7,2.6-2.2,4.4,0.4
		c1.2,1.9,2.7,0.1,4.7-0.4s0.6-2.6,3.6-2.5s-0.5-3.5,3.9-3.4s-0.5-7.1,6-8.6c5-1.2,2.1-3.4,3.4-3.4c2.9,0,1.9-3,5.5-2.7
		s1.7-1.1,4.8-0.8C235.3,41.6,234,40.1,232.2,40z"/>
	<path class="st2" d="M139.9,207.6c0.5,0.7,1.5-0.2,1-0.7s-0.8-0.5-0.3-1.1s0.6-1.3-0.4-1.2s-0.9-0.4-0.9,0.1s0.5,0.6-0.1,1.1
		S139.4,207,139.9,207.6z"/>
	<path class="st2" d="M141.3,211.5c-0.8-1.3,0.4-0.4,1.4,0.4s2.8-0.1,1.3-0.5c-1.2-0.4-2.3-0.9-3.3-1.6c-1-0.6-1.4-0.4-0.9,0.8
		S142.1,212.8,141.3,211.5z"/>
	<path class="st2" d="M145,206.7c-1.2-0.3-0.5,1.9,0.2,1.5s1.1-0.3,1.5,0.4s1,0.2,0.6-0.4C146.8,207.4,145.9,206.8,145,206.7z"/>
	<path class="st2" d="M140.2,191.9c1,0.5,1.5-0.1,1-0.5S139.1,191.4,140.2,191.9z"/>
	<path class="st2" d="M134.6,204.4c0.7-1.1-0.1-1.6-0.6-1S133.9,205.5,134.6,204.4z"/>
	<path class="st2" d="M139.8,190.1c1.1,0.9,2.2,0.2,1.1-0.5S138.7,189.2,139.8,190.1z"/>
	<path class="st2" d="M139.9,195.2c0.9,1,2.8,1,1.5-0.2s-0.3-1.7-0.8-2.1s-0.3,0.5-1.3-0.6s-2.2-0.7-1.2,0s0.4,1.5-0.5,0.9
		s-1.9,0.1-0.6,0.8S139,194.2,139.9,195.2z"/>
	<path class="st2" d="M135.2,207.3c2.1,1.1,1.3-0.6-0.1-1.4S133.1,206.2,135.2,207.3z"/>
	<path class="st2" d="M132.4,184.1c-1.4,0-1.5,2.6,2.2,2.4c3.4-0.1,0.6,1,1.9,1.9s2.8,0.9,2.1,0.1s0-1,1.7-0.4s-0.8-1.7-1.6-2.3
		c-1.9-0.1-2.3-1-0.8-1.4s-1.9-1.5-2.9-4c-0.6-1.6-1.6,0.8-1.2,2.2C134,183.7,133.7,184.1,132.4,184.1z"/>
	<path class="st2" d="M133.2,188.4c0.3,0.9,1.5-0.2,1.2-0.9S133,187.5,133.2,188.4z"/>
	<path class="st2" d="M132.5,196.6c-1.1-1.7,0.6-1,0-3c-0.4-1.2-0.9-2.6-0.4-3.9c0.4-1,0.6-2.8-0.2-1.9c-0.6,0.7-2.3-2.4-1.9-4.9
		c0-1.8-1.1-1.4-1.8,0.2s-0.1,2,0.8,2.6c0.6,0.4,0.2,1.7,1.3,2.7s0,2.4-1,1c-0.8-1.1-1.6-0.8-0.6,1.9c0.6,1.5,1.5-0.7,0.8,1.3
		c-0.9,1.1,1.4,1.3,0.8,2.5s-0.3,1.3,1,2.5s1.7,2,2.4,1.3S133.7,198.3,132.5,196.6z"/>
	<path class="st2" d="M138.7,206.5c-0.6-0.3-0.6-0.3-0.9-1.2s-1.8,0.7-1,0.7s0.5,0.5,1,1.3S139.3,206.8,138.7,206.5z"/>
	<path class="st2" d="M127.9,196.6c-0.7,0-1.3,0.6-1.3,1.2c0,0.2,0,0.3,0.1,0.5c0.3,1.2,1.3,0.5,1.2-0.6
		C128.5,197.1,128.5,196.6,127.9,196.6z"/>
	<path class="st2" d="M137.9,209c1.2,0.6,1.1-0.6-0.1-1.1S136.7,208.4,137.9,209z"/>
	<path class="st2" d="M130.6,200.7c0.9,0.7,1.7,1.5,2.4,2.4c0.4,0.6,2.1-1,0.6-1.5c-1.5-0.6-2.6-1.9-2.9-3.4c-0.3-1.3-1-2.5-1.7-1.7
		s1.9,2,0.6,3.3C130.1,200.7,130,200.2,130.6,200.7z"/>
	<path class="st2" d="M115.9,189.3c0.3,0.6,0.3,2.1-0.4,1S115.5,188.6,115.9,189.3z"/>
	<path class="st2" d="M128.6,202.6c1,0,0.4-1-0.3-1S127.7,202.6,128.6,202.6z"/>
	<path class="st2" d="M128.7,193.6c0.2,0.7,0,1.5-0.5,0.8S128.5,193,128.7,193.6z"/>
	<path class="st2" d="M138.4,190.5c0.5-0.1,1.4,0.7,0.6,0.8S137.9,190.5,138.4,190.5z"/>
	<path class="st2" d="M128.9,199.9c0,0.6-0.6,0.9-0.6,0.3S128.9,199.2,128.9,199.9z"/>
	<path class="st2" d="M143,204.4c1.5,1.4,2,2.5,0.3,1.2S142,203.5,143,204.4z"/>
	<path class="st2" d="M141.3,202.7c0.5,0.5,0.7,1.3,0.2,0.9S140.8,202.2,141.3,202.7z"/>
	<path class="st2" d="M141.8,205.9c0.4,0.1,0.7,0.6,0.2,0.9S141.3,205.8,141.8,205.9z"/>
	<path class="st2" d="M247.3,177.5c-2.8,0.5-0.5-1.3-3.8-0.9s-0.9-2-3.3-1.7c-3.3,0.4-2.6-1.9-1.3-1.9s-1.9-4.3,1.4-2.2
		c0.9,0.5,2-0.8-0.5-2.4s-0.2,1.3-2.3,0.6c-2.6-0.9,2.4-3.4-0.5-4.3c-2.2-0.6,3.1-3.4-0.6-3.9c-1.5-0.2,1.2-2.6-0.1-2.8
		c-0.5-0.1-2.3-1.1-1.7,1s-0.9-0.2-2.3,0s-0.6,0.8-1.5,2.1c-1.8,2.8-1.4-0.4-3.8,2.6c-1.8,2.2-0.4-1.9-2.6-0.1
		c-0.8,0.7-1.5,0.5-2.7-0.5s-1.9,0.7-4.4-0.1c-1.1-0.5-2.5-0.4-3.5,0.2c-1.4,0.7-0.9-1.1-3.2-1.5c-4.9-0.9-1.4-2.6-4.5-3.7
		c-1.2-0.4-2.6-0.9-3.2-0.2s-2.4,1.4-1.6-0.4s-1.2-0.4-2.5-1.7s-0.4-1.9-1.8-3.3s-1.1-2.4-5.1-3.4s-2-4.9-4.4-4.8
		c-1.5,0.1-0.9-2.6-3.4-2.6H184c-0.6,1.4-3.1,1.7-4.6-0.9c-1.1-1.9-5.3-1-4.1,1.6c1.5,3.1,1.1,2.9-0.1,2.9c-2,0-0.4-2.2-3-1.3
		c-3.1,1.1,0.6,1.9-2.3,3.4c-1.9,1-4.3-0.5-5.3,1.8c-0.6,1.5-1.6,0.2-2.6,0.1c-0.6-0.1-1.1,0.2-1.7,1.5l0,0c-2,4.5,3.2,3.6,2.1,5.2
		c-2.1,2.8,0.9,5.6-1.4,5.6c-4.8-0.1-3.9,0.9-4.4,1.5c-0.4,0.3-0.8,0.4-1.3,0.4c-2,0.1-5,2.4-0.4,2.5c0.8,2.9-2.3,1.8-2.2,3.3
		c0.1,2.3,3.4,2,2.1,3.6c-0.7,0.9-2.4-0.8-3.8,1.1s-2.1-2.8-4.4-1.9s-1.6-2.3-2.7-0.5c-2.3,3.7-2.1-0.1-3.7-0.3
		c-3.3-0.2-0.8-2.2-2.2-2.7c-2.1-0.6-0.2-1.8-1.6-2.2s-2.2,7.7-5.8,5.8s-3.8,2.5-6.2,0s-3.2-0.2-2.3,0.9s-1.3,0-1.9,1.4
		s-1.7-1.2-4-0.5s-4-1.5-4-1.5l0,0c-0.1,0-0.2,0-0.3,0c-0.1,0-0.7-0.6-0.9-0.7c-1.6-0.5-1,0.1-0.9,1.5s1,1.2,1,3.1
		c0,2.8,1.3,0.3,0.9,4.5c-0.2,2.7,2.2,5.2,3.5,6.4c4.2,3.9-0.5,2.5,2.9,5.7c0.9,0.8,1.6-0.5,1.1,1.2c-0.2,0.8,0.6,1.3,1.2-0.7
		c4,0.5-0.3-0.7,1.6-3.2c0.9-1.2,1.6-2.4,2.1-1.7c2,2.6,1.3-3.2,1.3-3.6c0.8,0.6,2.4-6.2,2.9-7.1c1.3-2.2,2.7-1.2,4.8,0.3
		c1.7,1.2,2.6,2.6,5.9,5c1.3,0.6,3.2,1.6,2.8,2.9c-0.7,2.4,3.1-0.3,0.3,7c-0.7,1.7,1.4,4.8,2.7,6.3c0.6,0.7,1.4,1.9,2.3,2.1
		c0.6,0.1,1.3,2.8,3.5,3.5c1.4,0.5,1.7,1.7,2.7,2.6c0.4,0.4,3.7,2.1,1.8,2.6c-0.8,0.2-2.4-1.6-3-1.9c-1.9-0.9-3.8-2.9-5.4-4.3
		c-3.5-3,0.4,2-2.8-1.1c-1.7-1.6,4.8,1.2-0.5-2.2c-2-2.4-1.4-0.9-2-0.9c-1.3-0.7-1.2-3.2-2.8-2.9s5.9,6.3,3.4,5.4
		c-2.8-1.1,2.6,2.2,3.3,2.7c0.2-0.4,1,0.3,1.6,0.8s-1,0.5-0.2,1.2s2.1,1.2,1.3,0s0.2-1,0.9-0.1c0.9,0.7,1.8,1.4,2.8,2
		c0.9,0.8-0.1,1.2-0.7,0.5s-3.6-2.2-1.3-0.1c0.3,0.3,0.2,1.4-1.9,0.1c-1.2,0.8-0.6,1,0.2,1.6c1.1,0.7-0.3,1.2,1.1,2
		c1.1,0.7-0.4-0.4,2,2.4c3.1,3.7,0.2-0.5,2.4,1.1c3.5,2.8-2.3-0.1,0.6,2c1.4,1,2.6,2.2,3.6,3.6c2.6,2.6,0.3,1.1,0.6,1.6
		c0.6,1.4,2.6,2.6,2.1,1.7c-1.3-2.3,2.6,0.7,3.5,1.3c0.6,0.5,1.1,1.9,1.6,1.4c0.7-0.7,1.9-0.1,0.9,0.8c-0.6,0.5-0.9,1.2-0.8,2
		c0.1,1.1,1.9,0.5,1.5,1.4c-0.7,1.7,1.6,0.4,1.5,1.3c-0.2,2,1.1-1,2.2,0.6c2.4,0.2-0.3-1.4,1.7-1.5c5.2-0.4-3.7,2.1,4.8,1.1
		c-0.2-1.2-0.5-0.2-1.2-0.9c0-0.4-2.4-1.4,0.6-1.5c2-0.1-0.2,1.7,2.7,1.3c4.4,0.1,0.3,1.8,3.3,1.8c1.4,0.5,1.5-0.9,2.2,1
		s2.6-2.8,9.1,6.1c1.7,2.4,4.1,1.8,5.4,3.6c1.5,1.6,3.2,3.2,4.9,4.5c0.3,0.2,0.5,0.4,0.7,0.6c1.5-0.2,1.5-1.3,2.3-0.8
		s1.2-0.4,0.8-1.4c-1-2.2-2.8-3.8-5-4.6c-3-1,0.1-2.3-2.4-3.1s-3-4-2.5-4.6s0.6-2-0.5-2.3s-0.4-0.9-2.3-0.6s-3.2-1.7-4.8-3.3
		s-2.8-3.4-4.8-4.3s-0.2-2-4.6-6.3c-1.7-1.7-1.8,0.2-2.6-2.1s-2.5,1.1-3.3-2.2c-0.7-2.9-2.3-1.3-2-5.4c0.4-4.4-2.6-1-1.5-3.8
		c0.6-1.3-0.7-4.3-1.6-4c-1.7,0.6-1.5,0.5-1.2-1.6c0.4-2.9-1.5,0.3-1.5-2.2c0-1.7-0.6,0.3-1.6-1.1s-1.7,1.6-4-1.4
		c-1.8-2.3,3.1-0.8,0.8-3c-1.1-1.1-1.2-1.9-0.4-2.7c1.6-1.5,0-2.8,0.4-5.2s0.6-3.4,2-3c0.5,0.1,1.1,0.1,1.5-0.1
		c0.8-0.4,1.3-0.9,2.7,0.6c1.1,1.2,3.8,5.7,6.2,5.8s0.1-1.1,2.5-3.9s3.8-4,5.5-2.7s1.8-0.6,2.8,0.6s1.7-0.1,2.6-1.7
		c1.8-2.9,1.1,0.6,2.6,0.4c2.3-0.2,1.3,1.3,3.6,2.3c3.9,1.8,1.8-3.3,4.4-0.8c2.9,2.8,2.1-1.3,3.2,0.7c1.6,2.9,1.6-0.5,2.8,0.7
		s1.4-1.6,3.8,0.5s3.4,2.2,4.6,0.2s1.7-1.2,2.5-1.5c1.6-0.6,0,1.7,1.2,1.4c1.4-0.3,2.1,2,2.7-0.1c1.2-3.9,0.9,0.3,3.6-0.3
		s4.4,3.7,4.2,1.2s1.3,0.2,2-0.4s1.4-1.7,1.4,0.7c0,0.8,0.5,2.5,1.6,1.5s1.6,2.6,0.3,2.2s0.3,3.8,0.8,2.2s1-0.7,1.9-0.2
		c2,1.2,2-0.2,3.2-0.8l0,0c-0.7-4.4,1.2-0.9,2.5-2.5c2-2.3-0.5-0.7-0.4-2.9c0.1-1.4-2.2-3.3,0-3.2s-0.6-1,1.2-2.1
		c1-0.6,1.7,1.5,4.4,1.5C249.8,180.3,249.5,177.1,247.3,177.5z M158.1,212.3c-1,0.5-1.6,0.3-1.8-0.5s-0.2-1.3,1.3-1.1
		s1.7,0.3,1.9,0.9C159.8,212.6,159,211.9,158.1,212.3z"/>
	<path class="st2" d="M178.7,137.4c-4.4-2.8,3-1.4-2.6-4.9c-2.2-1.4,2.5-3.3-2.9-3c-2.7,0.1-4,0-4.1,2.5s2.2,2.4,1.2,4.5
		c-0.9,1.9-2.7-4-6.1-2c-1.6,1-2.7-1.1-3.2,0.5c-0.7,2.3-1.1-0.6-3.2,2.9c-1.1,1.8-0.6-2.5-4.5-1.6c-1.7,0.4-2.5-0.6-5.6,0
		c-2.3,0.4-1.3,2.4-3,1.6s-2.7-0.1-3,2.3s-1.7,0.3-4,2.5c-1.7,1.5-1.6,4.3-3.1,1.9c-1.1-1.7-2.8-0.6-6.2-1.1
		c-3.2-0.5-3.1-1.9-5.5-1.4c-1.5,0.4-2.7-1.7-3.8-1.2c-2,1-1.4-0.4-3.8,0.3h-0.2c0.7,0.3,0.3,1.4-0.1,2.9c-0.5,2,0.2-1.8-2.3-0.2
		s-5.1,2.6-5.1,5.1s0.6,3.8,1.9,1.7s1.4,1.2,3.4,1s1.8,1.1,0.2,2s-3,1-3.1,2.9s0.7,2.2,1.9,1s1.4-0.8,2-0.2s0.9,1.4-0.4,2.6
		s-1.8,2.2,0,2.4c1.9,0,3.6,1,4.7,2.6c1.3,1.8,2.2,4.9,0.5,4.8c-0.6,0-2.3-0.2-4-0.4c0.8,1.2,0.2,1.2,0.5,1.6c0.1,0.1-0.1,0.4,0,0.5
		c-5.7-2-1.4,0.9-3.4,0.9l0,0c0,0,1.7,2.3,4,1.5s3.4,1.9,4,0.5s2.7-0.2,1.9-1.4s-0.1-3.4,2.3-0.9s2.7-1.9,6.2,0
		c3.5,1.9,4.3-6.2,5.8-5.8s-0.5,1.5,1.6,2.2c1.5,0.4-1.1,2.4,2.2,2.7c1.6,0.1,1.4,3.9,3.7,0.3c1.1-1.8,0.5,1.4,2.7,0.5
		s3,3.8,4.4,1.9s3.1-0.2,3.8-1.1c1.3-1.5-2.1-1.3-2.1-3.6c-0.1-1.5,3-0.4,2.2-3.3c-4.6-0.1-1.6-2.4,0.4-2.5c0.5,0,0.9-0.1,1.3-0.4
		c0.6-0.6-0.3-1.6,4.4-1.5c2.2,0.1-0.7-2.8,1.4-5.6c1.2-1.6-4.1-0.6-2.1-5.2l0,0c0.6-1.3,1.2-1.6,1.7-1.5c1,0.1,1.9,1.4,2.6-0.1
		c1-2.3,3.4-0.8,5.3-1.8c2.9-1.5-0.8-2.3,2.3-3.4c2.6-1,1,1.3,3,1.3c1.2,0,1.6,0.2,0.1-2.9c-1.2-2.6,3-3.5,4.1-1.6
		c1.4,2.6,4,2.3,4.6,0.9l0,0C180.6,139.8,180.9,138.8,178.7,137.4z"/>
	<path class="st2" d="M252.1,212.6c-2.1,0.9-1.6-2.8-3.6-2.5c-2.3,0.3-1.4-4.7-4.2-3.5c-1.3,0.6-0.8-1.4-1.8-0.8s-2.3-2.1-1.2-3.3
		s-1.5-2.7,0.3-3.5s1.2-2.6,4.1-5.9c1.3-1.5-0.1-2.5,1.2-4.2c0.8-1-0.3-1.2-2.6-1.2s-2.1,1.5-4.2,1.5c-0.4,0-0.8,0.1-1.1,0.3
		c-1.2,0.6-1.1,2-3.2,0.8c-0.9-0.5-1.3-1.4-1.9,0.2s-2.1-2.5-0.8-2.2s0.8-3.2-0.3-2.2s-1.6-0.7-1.6-1.5c0-2.4-0.8-1.2-1.4-0.7
		s-2.3-2.1-2,0.4s-1.5-1.8-4.2-1.2s-2.4-3.6-3.6,0.3c-0.7,2.1-1.3-0.2-2.7,0.1c-1.2,0.3,0.3-2.1-1.2-1.4c-0.8,0.3-1.3-0.5-2.5,1.5
		s-2.3,1.9-4.6-0.2s-2.6,0.7-3.8-0.5s-1.2,2.2-2.8-0.7c-1.1-2-0.3,2-3.2-0.7c-2.6-2.4-0.5,2.6-4.4,0.8c-2.3-1.1-1.3-2.5-3.6-2.3
		c-1.5,0.1-0.8-3.3-2.6-0.4c-1,1.6-1.6,2.9-2.6,1.7s-1.1,0.6-2.8-0.6s-3,0-5.5,2.7s-0.1,4-2.5,3.9s-5.1-4.6-6.2-5.8
		c-1.4-1.5-1.9-1-2.7-0.6c-0.5,0.2-1,0.3-1.5,0.1c-1.5-0.4-1.6,0.7-2,3s1.2,3.7-0.4,5.2c-0.9,0.8-0.7,1.7,0.4,2.7
		c2.3,2.2-2.5,0.8-0.8,3c2.3,2.9,2.8,0,3.9,1.4s1.6-0.6,1.6,1.1c0,2.5,1.9-0.7,1.5,2.2c-0.3,2.1-0.5,2.2,1.2,1.6
		c0.9-0.3,2.2,2.7,1.6,4c-1.2,2.7,1.8-0.7,1.5,3.8c-0.3,4,1.3,2.5,2,5.4c0.8,3.4,2.4-0.1,3.3,2.2s0.9,0.4,2.6,2.1
		c4.4,4.3,2.6,5.4,4.6,6.3s3.2,2.6,4.8,4.3s2.8,3.6,4.8,3.3s1.2,0.3,2.3,0.6s1,1.7,0.5,2.3s0,3.8,2.5,4.6s-0.6,2.1,2.4,3.1
		c2.2,0.8,4,2.4,5,4.6c0.4,1,0.1,1.9-0.8,1.4s-0.8,0.7-2.3,0.8l0,0l0.9,1.1c0,0.1,0.1,0.1,0.1,0.2h0.1v0.1c0.3,0,0.5,0,0.8-0.1
		l2.7-0.9c0,0,0.1,0,0.2,0c0.4-0.1,0.8-0.3,1.1-0.5c0.7-0.6,1.8-0.5,2.4,0.3l0,0l0.3-0.1c0.4,0.4,2.4,2.6,2.9,3l0.6,0.6
		c0.6-0.1,0.9-0.2,1.3,1c0.1,0.2,0.1,0.4,0.2,0.6l0.5,0.6c0.5,0.1,1.1-1,1.2,0.4c0,0.4,0.1,0.7,0.2,1.1l0,0c0.3,0.2,0.7,0.4,1.1,0.5
		c0.4-0.4,1-0.8,1.5-0.2l0.3,0.3l0,0c0.5-0.1,1.1,0.3,1.2,0.8c0,0.1,0,0.2,0,0.3l0,0v0.7c0,0.6,0.4,1,1,0.8c0.4-0.2,0.9,0,1.1,0.4
		v0.1c0.1-0.1,0.1-0.2,0.2-0.2c0.1-0.1,0.1-0.2,0.1-0.2c3.2-2.6,2.1-4.7,0.2-6.8s1.9-3.1-0.3-5.4c-1.2-1.3-0.5-3.1,1.8-2.9
		s2.5-0.4,1.9-2.5s1.5-1.8,1.2-4.6c-0.1-1.5,2-0.3,3.6-3.5c0.6-1.2,2.2-0.3,2.3,1.4s1.4,2.1,1.9,0.7s2.5-0.9,1.4-2.1
		c-1.6-1.8,0.4-2.9-1.8-3.3c-1.5-0.3-2-2.3-1.2-3s1.4-1.4,1.9,0.2s1.9-0.4,2.8-0.1s1.4-0.8,2.3-0.2c0-0.9-0.7-2.3,0.5-2.3
		c1-0.1,1.6,0.1,1.9,1.1c0.9,3,0.7,0.1,2.1,0.2c1.1,0.1-0.2-2.3,0.5-2.8s1.2-1.4-0.3-3c-4.6-5.1-6.5-6.4-5.2-7.2
		c1.7-0.9,3.3,2.6,7,0.3C252.8,213.9,253.3,212.1,252.1,212.6z M242.6,188.4h-0.1h-0.1H242.6z"/>
	<path class="st2" d="M143.9-14c0.6-2-0.7-2.8-3.8-3.9c-4.1-1.5-0.7-1.9-0.8-4.3c0-1.2,0.2,0.6-2.5-3.6s1.1-4.5,1.4-6.8
		s1.9-3.4,0.2-4.9c-2.7-2.3,0.3-1.3-0.3-4.5c-0.4-1.8-2.2,1.7-3.8-3.9c-1.4-4.8,2-3.7,1.7-5.2s1.3-3-1-4c-4.7-1.9-4.3-4.6-8.9-6.3
		c-3.1-1.2-0.3-1.7-0.8-4.6c-0.6-3.9,5.1-0.8,5.1-6.8c0-4.5,2.8-2.4,1.1-5.7c-1.1-2.1-0.4-4.4-2.1-6.6s1-2.6-1.4-5
		c-1.4-1.3-1.1-1.6-0.5-1.8c-0.1-0.4,1.9-1.2-0.1-1.8c-0.6-0.2-0.9-0.3-1.3,0.5s-0.8,0.5-1.8,0.4s-2-0.6-2.8-1.3
		c-0.3-0.6-0.8,2.3-2.6,0c-0.4-0.5-0.9-1.3-2-1.2s-0.3-1.4,0.4-1.5s0.6,0,1-1s1.2,0.7,1.3-0.8c0-0.5-0.5-1.5-1.1-1.1
		s-0.8-0.1-0.6-0.7s-1.3-1.6-2-1.5s-1-1.2-0.2-1.3s0.6-0.9,1-1.6s-0.6-1.3-1.4-1.2s-1.2-0.7-0.6-0.9s0.7-1.9-0.4-1.8
		c-1.3,0.2-0.9,1.6-2.3,1.8c-0.2,0-0.4,0-0.7,0c-1.2,0-2-0.2-1.5,0.8s-0.8,2.7-1-0.2c0-0.4-0.7-0.1-0.6,0.2
		c-0.6,1.3-1.3,0.2-0.1-1.5c0.1-0.2-0.6-0.2-0.6-0.4c-0.5,1-0.8,0-1.6,0.3c-1.1,0.5-1.5-0.4-0.5-0.7s0.2-0.7-0.3-1s-0.3-1.2-0.9-1.1
		s-1.5,0.2-1.5-0.1c-0.1-0.4-0.2-0.7-0.4-1c-0.2-0.3-0.1-0.6-0.7,0.1s-0.8-0.1-1.4-0.5s-0.4-1,0.3-0.8s0-0.7-0.7-0.7
		s-0.6-0.6-0.3-0.8s0.5-0.3,0.3-0.7s-0.4-0.7-0.9-0.2c-1.2,1-0.4-0.4-0.6-0.8c-0.2-0.5-0.1-1.1,0.3-1.4c0.8-0.7-0.7-0.9-0.8-0.5
		s-0.3,0.7-1,0.8s-0.8,0.5-0.8,1.4s-0.6,0.7-1.5,1.4s-1.1-0.2-0.9-0.8s0-1.2-0.4-0.5s-1.6,0.8-1.7,0.1s-1-0.8-1.1-1.3s0.5-0.4,1-0.1
		s1,0.1,1.5-0.3s0.6-0.4,1.5,0s1.1,0.1,1.8-0.4s0.6-0.8-0.1-0.7s-3.5,0.1-5,0.2s-0.4-0.6-2.5-0.6c-1.6,0-1.6-1.8-2-1.5
		s-0.2-0.2-0.5,1s0.1,1.7-0.5,2c-0.7,0.3-0.9,1.2-1.3,1.9c-0.3,0.4,0.4,0.7,0.7,0c0.7-1.4,2.7-0.1,2.5,0.7s-0.7,1-1.2,0.8
		c0.1,0.9,0.3,1.4-0.9,1.2c-0.8-0.1-1,0.2-1,0.8c2.1,1.5-1.9,1.7-1,0.2c0.1-0.5-0.1-1-0.6-1.2c-1.2,0,0.3,1-1.9,0.9
		c-1.3,0.5-2.3,1.4-3,2.6c0.6,0.3,0.8,1,0.5,1.6c-0.1,0.3-0.4,0.5-0.7,0.6c0.2,3.2-1.1-1-1-1.6c-3.3,0.1-2.9,1.1-6.5,1.2
		c-0.6,0,0.9-0.8-2.2-0.6c-1.8,0.3-1.5,1-2.9,1.7c-1.2,0-1.6,2-1.7,2.3c1.7,0,2.5-3.6,3.8-2.1c0.3,0.4,0.2,1.1-1.1,1.2
		c0.3,0.8-0.4,0.8-1.6,1.1c-0.5,0.7-2.3,2.6-2.1,0.9c0.1-0.8-1.8-0.6-2.5,1.2c0,0.9,2.1-1,1.4,0.5c-0.2,0.4,0.4,0.2,0.8-0.3
		s1-0.4,0.5,2.1c-0.9,0.5-0.9,2.6-1.2,0.9c-0.9-0.2-1.8-0.2-1-1.1c0.3-0.4-0.4-0.5-0.8-0.3c-0.6,0.2-0.8-0.9-1-0.6
		c-1.1,2.6-3.8,0-1.3-0.2c1.1-0.1-0.2-1-1-0.9s0.5-1.3-2.6-1.1c-2.2,0.1-3,2.2-4.3,1.7c0.1,0.6,0.1,1.3,0,1.9c3.5,1.1-0.4,1.5-0.9,0
		c-2.3,3.7-0.2-0.7-0.4-2.5c-0.4-0.1-0.7-0.3-1-0.2c-0.8,0.2-1-0.1-0.9-1.7c-3.2,0,0.5-1.2,1.7-1.3c2-0.2,2.4-2.1,3.1-2.5
		c2.6-1.3,2.4-1,2.4-3.8c0-1.1-0.1-2.1-0.1-3.1s0.8-0.9,1.1-1.8s3.2-0.3,4.1-0.4c-0.4-2.1-1-4-3.7-4.4c-2.8-0.4-2.8-0.2-3.7,3.1
		c0.8,1,1.3-2,2.3,0c-0.3,1,1.2,2.9-1.1,2.3c-0.7-0.3-1-0.8-2.2-0.5c0,0.2-2.3,0.9-3.4,2.5c-0.6,0.9-1.8,2.8-2.1,2.7
		c-0.8-0.3-1.2-3.2-2-3.8c-1.3-0.8-1-0.4-3.7-1.4c-0.6-0.6-1.2-1.1-2-1.4c-0.3,0-0.6-0.1-0.9-0.2c-1.6-0.6-2,1.1-3.2,1.2
		c1,3-3.5,2.6-1.2,0.2c0.6,0.2,0.5-0.9,0.6-1.4c0.3-1,1.7-0.3-1-1.5c-0.6-0.3-1.2-0.2-2.8,0.4c-1.7,0-2.5,1-3,1.1
		c-3.4,0.3-0.8-1.4,1.6-2.2c0.6-0.2,1.2-0.7,1.5-1.3c0.8-1.2,0-1.2,0.3-2.5c0.1-0.5-1-0.3-1.7-0.4c-4.5,5.7-2.4-0.5,1-1.8
		c1.4,2.1,0.6-0.2,1-0.3c0.3-1.3-1.4-0.2-1.3-1.2c0.1-1.2,0-1.4-0.5-1.9c-0.7-0.7-1.9-1.6-1.6-1.1c0.7,1.4-1,2.9-2.1,1
		c0.2-2.1-5.1-0.7-4.8-1.7c0.6-2-1-0.2-1-0.6c-2.9,3.4-4,1.9-3,0.5c-0.1,0-0.3,0-0.4,0.1c-0.6,0.1-1.2,0.5-1.5,1s-0.9,0.9-1.5,0.9
		s-1-0.4-1-1c0,0,0,0,0-0.1c0-0.6-0.3-1.1-0.7-1.1s-0.7-0.2-0.9-0.5c-0.4-0.3-1-0.5-1.5-0.4H6.7c-0.7,0.1-1.5-0.1-2.2-0.4
		c-0.7-0.3-1.4-0.5-2.2-0.5l-3.6,0.2c-0.7,0-1.3-0.3-1.4-0.7s-0.8-0.7-1.4-0.8l0,0c-0.7,1.6-1.5,3.7-0.7,4.1
		c4.1,1.9-0.3,5.5,3.3,4.3c0.7,1.6,1.6,2.1,2.4,3.6c3.1,2.5-5.1,0.2-1.5,5c1.2,0,2.4,0,3-1.2c0.4-0.7,1.2-1.9,2.3-1.5
		s-1,2.7-1.3,3.1c-0.8,1.3-2.3,1.9-3.8,1.7c-1.2-0.1-4.4-2.3-4.7,1c0.5-0.1,1,0,1.4,0.2c0.6,1.5-0.6,2-2.2,1
		c-0.9,0.3,0.6,1.7,1.5,2.2s4,0.2,3.5-1c2.8-1.1,10.3-2.3,2.6,2.1c-0.8,0.4-0.1,1-0.9,1.8c-0.8,4.1,3.2-0.2,3.9,5H2.6
		c0.1,0.6-0.6,2.8-0.4,3.7s0.6,1.8,1.3,2c2,0.5-2.3,0.8,2,1c1.1,0,2.2,0.1,3.3,0.1c4.6-0.6,4.8-0.3,5.3,0.8c3.3,8.2-0.1,4.7-1.2,2.5
		c-1.2-2.4-3-2.7-5.1-1.8c-1.7,0.7-4.8,0.3-6,0.6c-3.8,1-2.6-5.3-6-1c0.5,0.2-1.2,4.4-1.2,4.4s-1.8,1.5,0.4,4.8
		c3,3.6-2.2,3.9-3.7,0.1c-0.5-1.3-1.5-2.3-2.2-1c-0.8,1.5-2.9,2.5-0.9,1.9s1,1.9,1.2,3c-1.9,1.7-3.5,1.4-3.1,0.2
		c0.6-1.6-2.7-1.1-2.8-1.5c-0.1-1.7,2-1.4,2.6-2.7c-1.9-1.6-0.8-2.6-2.8-2.1s1.5-3.7-1.8-3.7c-4.5,0-9.3,3-13.5,1.6
		c-3.2-1-8,1-6.5,5.1c-1.5,0-2.1-1.7-2.2-0.2c-0.1,0.9-0.8,3.3-0.1,4.1c1.3,1.6,6.3-1.5,6.8,1.6c0.2,1.2-1.1,2.5-2.7,3.1
		c1.1,2.2-1.5,2.1,0,5.9c1.9,4.5-2.9,3.7-3.3,10.1s-2.5,4.4-4.3,3.9c-5.9-1.6-3.8,1-3.3,1.9c0.8,1.7-2.2,0.8-0.9,3s2.3-0.2,3.7,1
		c2.8,2.5,1.8-1.9,4,0.8c3.3,4,0.2,2.8,0.8,5.7s-1,0.1-2.3,2.2c-2.9,4.9-3.9,0.7-5.5,3.1s-1.7,2.5,0.2,2.6c4.2,0.2,1.4,5-0.7,4.5
		s-3,1.9-5.2,1c-3.6-1.4-1.4,3.6-3.4,1.1c-2.6-3.1-2.5-0.4-3.9-2.2s-2.8-0.6-1.7,0.3s1.8,2.8,0,2.2c-1.8-0.6-4.4-0.8-4.2,0.2
		s2.1,0.9,1,2.2c-1.5,1.8,1.6,0.4,1.5,2.6s2-1,1.8,2s2.8,1.5,2.7,6.5c0,0.5-0.1,0.9-0.2,1.4c-0.8,3.7-4.2,4.1-3.9,5.9
		c0.5,3.3,2.5-1.8,3,0.6c0.4,1.9-4.5,4.5-5.5,4.6s-2.6-0.8-1.7,1.9c0.4,1.3,1.2,0.8,2.3,0.7c2.9-0.5,0.1,0.6,2.1,2.1s0.7,2.3,0,2.5
		c-0.9,0.1-1.5,1-1.4,1.8c0,0.2,0.1,0.3,0.1,0.5c0,0.1,0.1,0.1,0.1,0.2c0.8,2.1,2,0,3.1,2.1c1.6,3.2,2.7,1,3.2,2.1
		c0.9,2.3-2.7,1.6-2.3,2.9c0.8,2.8,3.6,0.5,4.3,1.8s1.4,1.5,0.2,2.6s2,1.1,1.3,2.5s-3.1-0.7-3.1,1.3s-2.2-1-3.3,3.7v0.1
		c0.3,0.4,0.3,1.2,0,2.2c-0.6,1.8-0.2,3.8,1,3.1s1.4,4.5,7.3,5.2c2,0.2,1.3,0.6,1.3,2.1c-0.1,5-3.4-1-3.7,9.5V48
		c1.1-0.4,2.3,0,3,0.8c3.1,2.7-2.3,1.9,3.6,6.3c2.1,1.5-0.5,3.1,2.4,3.1c3.6,0-0.5-3.5,2.9-2.6s1.5,4,3.3,4.2s0-3,2.5-1.7
		c5.7,3.1,2.9-1.3,6.3-1.1s0.4,2.9,3.7,3s0.5,2.7,3.6,1.7s5.2-1.7,6.8,0c2.8,3.1,4.9,0.4,4.9,1.6c-0.1,2.4-1.6,0.9-1.8,2.8
		s-1.2-0.2-2.6,2.6s-0.6-1.5-4,2.7c-4.7,5.8-2.3,5-3.2,6.6c-2,3.9,0.1,5.1-1.3,6.3c-2.7,2.2-0.2,3.6-2,3.1s-1.7,2.2-0.5,2.9
		c2.7,1.4-1.6,3.3-1.2,6.7s-2.6,4.1,0.1,5.6c1.4,0.8,0.8,1.8,0.8,1.8v0.1c1.3-0.4,1.9-0.3,0.9,1.1c-2.3,3.4,5.7-1.7,5.3,0
		c-0.5,2.2,1.8,0.4,3.1,0.9c3.4,1.3,2.2-3.9,6.8-1.9c3.7,1.6,4.7,1.8,4.3,0.5s1.6-1.6,2.2-0.4s2.5-2.2,0.8-2.4
		c-2.2-0.4-5,2.2-4.6-0.3c0.3-2,1.6-3.4,2.8-2.7s0.5-2.6,1.9-1s0.8-1.1,2.2,0.2c1.8,1.7-1,3.8,0.9,4.4c2.7,0.8,0.3-3.3,2.1-2.1
		s-0.1,1.9,2.3,2s1.2-1.1,3.3-1s1.9,1,4.1,1.4s5.4,1.4,6.8,2.8c0.4,0.4,0.6,0.8,0.8,1.3l2.7-0.2c2.7-0.2,1.4-1.8,3.4-1.8
		s-0.1,1.5,2.6,1.5s1.5,0.8,3,1.8c2.7,1.8-0.1,3.6,2,3.7c1.2,0.1,2.3-1.5,2.3,0.4s-2.5,2.7-0.6,2.9s5.8-4,6-5.8s-1.6-4,0-4.9
		c1.9-1.1,0.1,3.1,2.9,1.3c2.7-1.7,3.2,1.7,5.4,1c4.5-1.5,0.2,1.3,2.7,1.9c2.1,0.5-0.9,3.2,3,2.7c3.1-0.4,4-2.5,4.2-0.8
		s2.3-1.3,3.4-1.3s-1.3-2.2,1.9-2.1c6.9,0.1-0.4-2.4,5.9-2.2c5.6,0.2,5.5-1.4,7.5-1.4s3.1,1.9,4.1,0.5s-1.6-3.2,0.2-4.1
		c3.5-1.7-0.3,1.9,2,1.3c1.4-0.4,1.2,1.1,2.7,0.3c1.9-1,0.8,3.1,3.6,1.2s3.8-1.3,5.2,0.1c3,3-2.3,0.7,1,3.8c2,1.9,5,2.8,4.8,0.9
		c-0.4-2.8,2.5-3.1,1.1-5.7c-0.9-1.6-3.6-0.2-3.6-1.8s3.5-2.1,0.5-5.8c-5.7-6.8-4.8-7-2.3-8.6s7.5-4,9.8-4s4.8-3.1,4.8-6.2
		s0.5-3,2-2.9s3.8,2.7,5,1.2s2-1,1.5-4.7c-2.8-1.8-2-3.7-3.5-4c-3.4-0.5-2-4.5-4.9-2.6c-1.2,0.8-1,0.9-2.1,0.2
		c-1.8-1.2,0.5-2.1-1.6-3.7c-3-2.2-2.9,0.5-4.3-1.9c-6.6-10.6-6.5-4-9.5-6.7c-3.7-3.3-2.1-5.2-3.1-5.3c-2-0.3-0.7-2.3-1.9-2.8
		c-1.8-0.8,0-2-1.8-2.3S84,38.9,84,38s1.2,0.3,2.7-2.1c2.5-4.1-0.3-2-0.3-3.6c0-3.1-6.4-1.5-6.8-6.7c-0.2-2.5-1-2-1.8-2
		s0.6-1.6-0.1-2.2s1.6-1.3,1.8,0s1.9,0.2,1.9,1.6s1.4,4.3,1.8,1.2s0.5-2.2,2.3-4c1.1-1.4,2.9-2,4.7-1.8c3.3,0.2,2.1-2.8,4.4-1.6
		c6.8,3.5,1.5-1.8,6.2-1.9c4.3,0,1.9-3.5,4-2.2s1-3.2,3.4-1.2c1.2,1.4,3-0.7,2.7-1.9s0.5-1.6,2.3-1.4c9,1,3.7-2.2,7.5-2.5
		c1.7,0,3.5-0.5,5-1.3c0.8-0.5,1.7-0.7,2.6-0.8c4.6,0,3.1-2.2,1.4-2.1s-0.2-1.6-1.5-1.8s-0.5-2,1.1-2s1.5,1.8,2.8,0.8
		s1.8-0.6,1.6,0.4s2.5,0.5,1.5,2c-2,3,1.1,0.6,1.5,1.4s-1.6,2.6,0.6,2.3s1.1,1.6,3.2,0.1c0,0-1.1-1.2,1.3-4.5c2-2.6,2.4-7.4,3.4-9.1
		S142.9-10.6,143.9-14z M88.8-114.6c-0.2,0.8-1,0.4-0.8-0.1s-0.7-0.5-0.7-1.1s1.1,0,1-0.5s0.2-0.5,0.9-0.6s0.9,0.2,1.1,0.9
		C90.8-114.6,89.1-115.8,88.8-114.6z"/>
	<path class="st2" d="M237.4,46.9l0.2,1.3c0.2,0.6,0.8,1,1.4,1h2.1c0.7,0,1.4-0.3,1.8-0.9l0.7-1.2c0.3-0.5,0.9-1,1.5-1.1
		c0.6-0.2,1.2-0.5,1.6-1l0.4-0.5c0.4-0.6,0.9-1.1,1.6-1.4c0.6-0.3,1.3-0.2,1.9,0.1l0.4,0.3c0.5,0.4,0.9,1,0.9,1.7v0.4
		c0.1,0.7,0.3,1.3,0.8,1.8l1.1,1c0.6,0.5,1.3,0.8,2,0.8h0.6c0.6,0,1.2,0.3,1.4,0.9c0.1,0.6-0.1,1.2-0.5,1.7l-1.4,1.7
		c-0.4,0.5-0.5,1.2-0.2,1.8l0.1,0.2c0.3,0.5,0.8,0.9,1.4,1c0.6-0.1,1.2-0.3,1.7-0.7l0.7-0.5c0.5-0.4,1.3-0.4,1.8,0l0.9,0.7
		c0.6,0.4,1.3,0.5,2,0.4l0.4-0.1c0.6-0.2,1.1-0.7,1.1-1.4l-0.1-1.4c0-0.7,0.3-1.3,0.8-1.8l0,0c0.5-0.5,1.2-0.8,1.9-0.9
		c0.7-0.1,1.4-0.4,1.9-0.8l1.1-0.9c0.5-0.4,1.3-0.5,1.9-0.1l0.8,0.5c0.6,0.4,1.3,0.4,1.9,0l0.4-0.3c0.6-0.4,1.3-0.6,2-0.7
		c0.7,0,1.3,0.3,1.9,0.8L282,51c0.4,0.4,0.8,1,1,1.6c0.2,0.5,0.7,0.8,1.2,0.8c0.6,0,1.2-0.4,1.5-1l1.4-3c0.3-0.5,0.9-0.7,1.4-0.4
		h0.1l0.9,0.6c0.5,0.3,1.1,0.2,1.4-0.3c0,0,0,0,0-0.1l0.5-1.2c0.3-0.5,1-0.8,1.6-0.6l3.1,0.9c0.7,0.2,1.5,0.2,2.3-0.1l0.8-0.2
		c0.7-0.2,1.4-0.2,2.1,0c0.6,0.3,1.1,0.8,1.4,1.4l0.1,0.2c0.3,0.6,0.9,0.8,1.5,0.6l0.2-0.1c0.7-0.2,1.4-0.1,2,0.4l2.7,2.5
		c0.5,0.5,1.1,1.1,1.4,1.5c0.4,0.5,0.9,0.9,1.5,1.2l2,1.2c0.7,0.3,1.5,0.5,2.2,0.5l1.1-0.1c0.7,0,1.3,0.3,1.3,0.7s0.6,0.8,1.3,0.9
		l1.5,0.2c0.5,0.1,1,0.4,1.4,0.8c0.3-0.2,0.7-0.3,1.1-0.2l5.5,2.2c0.6,0.2,1,0,1-0.6l-0.3-1.9c-0.1-0.7-0.5-1.3-1-1.8l-2.3-1.8
		c-0.5-0.4-0.8-1.1-0.9-1.7l0.1-2.3c0-0.7-0.1-1.4-0.3-2.1l-1.4-3.8c-0.2-0.6,0-1.3,0.4-1.8l7.7-9.4l5-6.1c0.5-0.6,1-1.1,1.6-1.5
		l4-2.7c0.5-0.4,1.3-1,1.8-1.4l5-4.7c0.6-0.5,1.3-0.7,2-0.8h3c0.6,0,1.2-0.4,1.4-1l0.5-7.2c0.1-0.7-0.1-1.3-0.5-1.9l-1.5-1.8
		c-0.4-0.5-0.6-1.1-0.6-1.7V3.8c0.1-0.7,0.6-1.2,1.2-1.5l3.3-1.1c0.6-0.2,0.7-0.7,0.1-1l-1.6-1c-0.5-0.4-1.4-0.9-2-1.3L352.9-4
		c-0.6-0.4-0.9-1.1-0.9-1.8l0.1-2.7c0-0.7-0.3-1.3-0.9-1.8l-3.8-2.8c-0.5-0.4-0.7-1.1-0.5-1.7l1.3-2.6c0.3-0.6,0.1-1.3-0.3-1.8
		l-3.3-3.2c-0.3-0.2-0.3-0.7-0.1-1c0.1-0.1,0.2-0.2,0.3-0.2c-0.4-0.3-0.6-0.9-0.6-1.4l0.4-1.8c0.2-0.7,0.5-1.4,1-1.9l0.7-0.7
		c0.5-0.5,0.6-1.2,0.3-1.8l-0.2-0.4c-0.3-0.6-0.3-1.4-0.1-2l1.1-2.4c0.3-0.7,0.3-1.4,0.2-2l-0.4-1.3c-0.3-0.6-0.7-1.2-1.3-1.6
		l-4.8-3c-0.7-0.4-1.4-0.6-2.2-0.6H338c-0.6,0-1.2-0.4-1.4-1l-0.2-1.7c-0.1-0.7,0.1-1.3,0.5-1.9l5.3-6.5c0.5-0.5,1.2-0.9,1.9-1.1
		l4.3-0.9c0.7-0.2,1.4-0.5,2.1-0.9l3.1-2.5c0.5-0.4,0.8-1.1,0.8-1.8l-1-7.4c-0.1-0.7-0.4-1.3-0.9-1.8l-0.6-0.8
		c-0.4-0.5-0.4-1.2-0.1-1.7l0.8-1.1c0.3-0.5,0.2-1.2-0.3-1.6l-2.8-2.2c-0.5-0.4-0.8-1-0.8-1.7l0.3-4c0-0.6-0.2,0-0.5-0.5l-1.6-2.6
		l0.1-1.2c0-0.7-0.1-1.4-0.4-2.1l-2.2-5.2c-0.1-0.3,0-0.6,0.1-0.8c-0.3-0.4-0.5-1-0.5-1.5l0.2-4.8c0-0.7-0.2-1.4-0.7-2l-2-2.6
		c-0.5-0.6-1.1-1-1.9-1.2h-0.2c-0.7-0.2-1.3-0.6-1.8-1.2l-0.7-1c-0.4-0.5-1.1-0.7-1.7-0.4c-0.6,0.2-1.3,0-1.6-0.5l-0.3-0.4
		c-0.4-0.5-0.9-1.2-1.1-1.5c-0.5-0.4-1.1-0.6-1.7-0.7l-3.4-0.4c0.2,0.4,0.3,0.8,0.4,1.2c0.1,0.4-0.3,0.8-1,0.8l-5-0.1
		c-0.8,0-1.6,0.1-2.4,0.3l-1.2,0.3c-0.8,0.2-1.6,0.3-2.4,0.3h-22.8c-0.7,0-1.8,0-2.4-0.1l-12.6-1c-0.8-0.1-1.6-0.2-2.4-0.3l-8.8-1.7
		c-0.8-0.1-1.6-0.2-2.4-0.2l-7.8-0.3c-1,1.3-2,2.6-2.8,2.8c-1.7,0.5-4.7-0.2-4.4,1.5c1.2,6.5,0,6.4-1.1,1.8
		c-0.2-1.1-1.8-0.8-2.3-0.8c0-0.7-0.3-1.2-0.9-1.2c-2,0,1.7-1.9,1.7-1.9c2.3-1,4.8-1.5,7.1-3.1l-1.1-0.6c-2,1.5-4.8,2-7.4,3.4
		c-2.4,1.3-6.6,0-7.8,0c-1,0.9-2.5,0.7-2.5-0.4c-2.4,0.7-3.2-3.3-5.2-1.4c-0.1-3.2-1.9-1.4-1.3-4.4c0.9-3.8-1.8-1.1-1.5-3.7
		c-0.6,0,0.4-2.2-0.7-2.1c-0.8,0.1-1.9-1.8-0.7-2.2c5.2,1.6,7.5,4.4,8.2,6.5c5-2.1-2.6-5.2-3-5.5c-4.8-2.4-6.2-5.1-10.2-4.2
		c1.2-0.3-5.5-0.2-10.3,0.6c-1.1,0.2-4.4,1.7-5.1,1.8c-1.4,0.4-4.7,0.2-8.4,1.5c0,0.9-0.8,0.7-1.2,1c-3.1,2,5.4,0.8-0.6,3
		c-0.8,0.3-1.2-1.5-1.4-1.2c-1.6,0-3.8,1.7-5.1,2.3c-2.4,1.3-2,0.4-5,0.7c-1.7,0.1-2.7,1-4.2,2.1c-1.2,0.9-1.4,2.3-2.7,3.5
		c-0.7,0.9-1.6,1.7-2.5,2.3c-1.2,0.9-2.5,1.7-3.8,2.3c-5.1,1.4-6.5,2.6-9,2.9c-2.8,0.3-3.4,1.4-7.5,1.7c-0.9,0.1-2-0.3-2.8,0
		c-1.6,0.8-3.3,1.6-5,2.2c-1.8,0-1.7,1.1-3,0.9c-1-0.2,0.5,1.2-1.7,1c-1-0.1-0.6,0.8-0.1,1.1c0.5,0.9,0.6,1.5-0.4,1.4
		c-1.8-0.2-0.9,0.6-0.9,1.2s0.6,0.2,1.3,0.5c0.2,1-0.8,2.4-0.8,1.2s-1.2-1.2-1.1-0.7s-0.4,1.3-1.1,1.9s-0.9,0.6-0.9,2
		s-0.8,2-1.1,0.9s-0.9-0.8-0.9,0.2c0,0.8-0.2,1.5-0.4,2.2c-0.2,1,0.2,1.2,1.5,1s0.9,1.9,0.1,1.4s0.1,1.4,0.1,2.1s0.7,1.4,0.9,0.4
		s1.4-0.9,0.9,0c-0.3,0.6-0.5,2.6,0.6,1.6c0.3-0.3,1.2-1.5,0.5,0.5c0.5,1.4-1.8-0.4-1.2,1.6c0.3,1.1-0.4,0.7-1.2,1s-1.4-0.9-1-1.8
		s-1.8,0.4-0.8-1.8c0.4-0.9,1.3-0.2,0.8-0.7c-0.6-0.8-1-1.8-1.2-2.8c-0.2-1.6-1.2-1.5-2.4-1.6c-0.7,0.1-1.2-0.4-1.3-1.1
		c0-0.1,0-0.2,0-0.3c0.1-0.3-0.5-1-1.2-1.3s0.6,1.2-0.9,1.4c-0.3,0-0.6,0-0.9,0c-0.2,0-0.3-0.1-0.3-0.1c-0.6,0.2-0.9,0.5,0.5,1.8
		c2.4,2.3-0.4,2.8,1.4,5c1.7,2.2,1.1,4.5,2.1,6.6c1.8,3.3-1.1,1.3-1.1,5.7c0,6-5.7,2.9-5.1,6.8c0.5,2.9-2.4,3.5,0.8,4.6
		c4.6,1.7,4.2,4.4,8.9,6.3c2.3,0.9,0.8,2.5,1,4s-3.1,0.3-1.7,5.2c1.6,5.6,3.5,2.1,3.8,3.9c0.6,3.1-2.3,2.1,0.3,4.5
		c1.8,1.5,0.1,2.6-0.2,4.9s-4.1,2.7-1.4,6.8s2.5,2.4,2.5,3.6c0.1,2.4-3.3,2.8,0.8,4.3c3.1,1.1,4.4,1.9,3.8,3.9
		c-1,3.4,2.2,3.6,1.3,5.3S144-2.3,142,0.3c-2.5,3.2-1.3,4.4-1.3,4.5l0,0c0.7-0.5,1.4,0.3,3.2-0.3s1.6-1.2,1.5-2.3
		c-0.3-2.3-0.6-3,0.9-3.5c2.2-0.7,1.7,1.8,3.6,1c0.6-0.4,1.4-0.2,1.8,0.5c0.3,0.6,0.2,1.3-0.3,1.7c-1.1,0.7,1.8,1.5,1.9,2.9
		c0.1,3.4,1.8-0.6,4.2,0.9c6.8,4,5.3-1.2,6.7,1.3c2.4,4.2,4.5,0,4.5,2.4c0.1,4.4,1.6,1,3.5,0.6c2.1-0.4,6.6,0.1,6.6,2.2
		s-0.9,0.6-1.2,2c-0.4,2-4.4,0.3-4.1,3.2c0.2,1.3,1.2,0.1,1.5,1c0.7,2.5,1.7-1.2,3.7,2.1s3,1.1,3,3.2s0.9,3.3,3.5,3.3s0.8-2.8,3-2.5
		s0.5-1.7,2.3-1.2s2.7-0.7,0.6-2.8s-2.6-1.7-2-3.1c1.2-2.8,7.2,2.9,9.7,2.5c2.1-0.3,0.5,2,3.3,2.6s1.9-1.6,3.7-0.9
		c2.5,1.1,2.3-2.2,3.7-0.9c0.7,0.7,1.7,3.9-0.2,3.7c-2.8-0.2-3.4,2.2-0.7,2.8c3.3,0.7,0.7,2.7,3.8,3.7c2.1,0.7,4.4-0.3,3.8-1.4
		s-0.5-1.2,0.6-1.2s1.2,2.3,3.8,2.7c3.1,0.4-0.5,1.5,4.9,1.4c2.7,0,4.5,1.2,4.2,2.8s1,4.3,2.7,4.5c1.8,0,3.2,1.5,3.1,3.3v0.1
		l0.7,2.2C236.8,45.9,237.2,46.3,237.4,46.9z M175-112.8c-1.4-0.3-1.3,0.6-1.3,1.6s-0.9,0.9-2.4,0.8s0.3-0.9,1.2-1.7
		s1.6-1.6,2.2-2.3s1-0.5,1.3,0.4S176.4-112.5,175-112.8z M180.9-116.7c-1.5,0.6-4.6,1.4-4,0.6c0.6-0.7,1.4-1.3,2.2-1.8
		C179.9-118.5,182.4-117.3,180.9-116.7L180.9-116.7z M203.7-127.1c-1.6-0.5-0.4,2.2-2.5,1.2s-3.4-2.1-1.6-2.4s4.4-0.2,5.4-0.6
		S205.3-126.6,203.7-127.1L203.7-127.1z"/>
	<path class="st2" d="M239.9,156.8l0.8-1.1c0.4-0.5,1.1-0.8,1.8-0.6l1.8,0.4c0.8,0.2,1.5,0.1,2.2-0.3l2.3-1.1
		c0.6-0.4,1.1-0.9,1.5-1.5l0.6-1.4c0.3-0.6,1-1,1.6-1.1l1.2-0.1c0.7-0.1,1.5,0.1,2.1,0.6l1.4,1.2c0.5,0.4,1.3,0.5,1.9,0.1l1-0.6
		c0.6-0.3,1.2-0.3,1.8,0c0.6,0.3,1.3,0.4,1.9,0.3l1.3-0.3c0.8-0.2,1.6-0.2,2.4-0.1l0.2,0.1l2.1,0.4c0.7,0.1,1.5-0.1,2.1-0.5l1.2-0.9
		c0.5-0.4,1.3-0.3,1.7,0.1l1.3,1.3c0.5,0.5,1.2,0.6,1.9,0.3l0.4-0.2c0.6-0.3,1.1-0.8,1.2-1.5l0.2-1.5c0.2-0.6,0.7-1.2,1.3-1.3
		l0.7-0.1c0.7-0.1,1.5,0,2.2,0.3l1,0.5c0.7,0.3,1.5,0.3,2.2,0.1l0.9-0.3c0.6-0.3,1.1-0.8,1.4-1.4l0.2-0.9c0.2-0.7,0.8-1.1,1.4-1.3
		l1-0.3c0.6-0.1,1.1-0.6,1.3-1.2c0-0.6-0.2-1.2-0.5-1.7l-0.2-0.2c-0.4-0.6-0.5-1.3-0.2-1.9l0.4-0.8c0.4-0.6,1-1,1.7-1h0.9
		c0.7,0,1.3-0.4,1.6-1c0.2-0.6,0.4-1.3,0.4-2V133c0-0.7,0.3-1.4,0.7-2l2.1-2.6c0.4-0.5,0.8-5.6,0.9-6.1l0.2-1.2
		c0.1-0.7,0.5-1.3,1.1-1.7l2-1.4c0.6-0.4,1-1,1.2-1.7l1-4.2c0.2-0.6,0.8-1.1,1.4-1.3l0.7-0.2c0.6-0.1,1.1-0.7,1.2-1.3v-2.6
		c0.1-0.7,0.4-1.3,1-1.7l1.4-1c0.6-0.4,1.1-1,1.5-1.6l1.3-2.3c0.4-0.6,1-0.9,1.7-0.9h0.7c0.7,0.1,1.3-0.3,1.6-0.9l0.2-0.5
		c0.2-0.4,0.6-0.6,1-0.5c0.1,0,0.2,0.1,0.3,0.2l0.5,0.3c0.6,0.4,1.4,0.7,2.1,0.7h0.1c0.7,0,1.4-0.3,2-0.8l5.1-5.2
		c0.3-0.3,0.5-0.7,0.6-1.1c-0.2-0.1-0.4-0.2-0.5-0.4l-2.5-2.9c-0.5-0.5-1.2-0.6-1.8-0.4l-2.7,1.3c-0.6,0.2-1.2,0-1.5-0.5l-1.2-3.2
		c-0.3-0.6-0.9-1-1.6-1.1l-2-0.1c-0.6,0-1.1-0.5-1.2-1.1v-1.5c-0.1-0.7-0.5-1.2-1.1-1.5l-1.4-0.5c-0.3-0.1-0.6-0.3-0.8-0.6L312,80
		c-0.6,0.4-1.4,0.6-2.1,0.6h-1.2c-0.7,0-1.5,0.2-2.1,0.7l-0.3,0.3c-0.6,0.5-1.3,0.7-2.1,0.8h-0.4c-0.7,0-1.3-0.4-1.7-1l-1.4-3
		c-0.3-0.6-0.8-1.2-1.4-1.7l-2.4-1.9c-0.6-0.4-1.3-0.5-1.9-0.1l-1.1,0.6c-0.7,0.3-1.5,0.5-2.2,0.4l-0.4-0.1
		c-0.7-0.1-1.4,0.2-1.9,0.7l-0.1,0.1c-0.5,0.5-1.2,0.7-1.9,0.6l-1-0.2c-0.8-0.2-1.5-0.4-2.2-0.8l-1.7-0.9c-0.7-0.3-1.4-0.4-2.1-0.1
		l-1.6,0.7c-0.7,0.3-1.5,0.4-2.3,0.3h-0.7c-0.7,0-1.4,0.2-1.9,0.8l-0.9,1c-0.5,0.5-0.8,1.2-1,1.9l-0.7,2.8c-0.2,0.6-0.8,1-1.5,1
		h-1.2c-0.7,0-1.4,0.3-2,0.8l-2.5,2.3c-0.6,0.5-1.3,0.8-2,0.9h-0.7c-0.8,0.1-1.5-0.1-2.2-0.5l-2.5-1.8c-0.6-0.4-1.4-0.6-2.1-0.5
		l-2.5,0.3c-0.7,0.1-1.3,0.6-1.6,1.2l-1,2.7c-0.3,0.6-0.9,1-1.6,1.1l-2.2,0.3c-0.8,0.1-1.6,0-2.3-0.2l-1.1-0.3
		c-0.7-0.2-1.5-0.3-2.3-0.1l-3.1,0.7c-0.7,0.2-1.4,0.6-2,1.1l-1,1c-0.4,0.5-0.5,1.2-0.3,1.8l1.1,2c0.3,0.5,0.1,1.1-0.4,1.3
		c-0.1,0-0.1,0.1-0.2,0.1l-2.2,0.9c-0.7,0.3-1.5,0.4-2.3,0.5h-3.5c-0.8,0-1.5,0.2-2.2,0.6l-0.6,0.3c-0.7,0.4-1.4,0.5-2.2,0.3l-1-0.3
		c-0.8-0.2-1.6-0.3-2.4-0.2l-7.3,0.2c-0.7,0-1.4-0.3-1.8-0.9l-0.3-0.4c-0.4-0.6-1-1.1-1.7-1.4l-3-1.4c-0.7-0.3-1.3-0.8-1.9-1.3
		l-2.8-2.7c-0.6-0.5-1.3-0.7-2-0.7l-1.2,0.4c-1,0.5-1.5,1.6-1.3,2.7c0.4,1.9-3.1,1.3-1.6,3.1s-0.9,1.8,0.9,3.3s-0.5,1.4-1.2,1.2
		c-4.1-1.5-4.6,0.5-5.7,0.5c-1.4,0-0.6-2.9-4.1-2.9c-4.4,0-0.6,2.6-3.8,2.1s-1.2,3,0,2.6s4.4-0.6,5.1,1.1s-0.7,1-1.1,3
		s-1.8,1.3-2.9,1.3s-2.5,1.2-1.2,3.1c2.5,4-2.8,0.9,0.1,6.9c1.7,3.7-0.8,2.8-1.8,2.8c-5.1-0.1-2.8,2.7-4.8,3.8
		c-3.9,2.3-0.9,2.4-0.4,3.4h1.1c5.5-0.3,0.7,1.6,2.9,3c5.7,3.6-1.8,2.1,2.6,4.9c2.2,1.4,2,2.4,5.1,4.3l0,0h0.1
		c2.5,0,1.9,2.6,3.4,2.6c2.5-0.1,0.4,3.8,4.4,4.8s3.7,2,5.1,3.4s0.4,1.9,1.8,3.3s3.2-0.1,2.5,1.7s1,1.2,1.6,0.4s2-0.3,3.2,0.2
		c3.1,1.1-0.4,2.9,4.5,3.7c2.3,0.4,1.8,2.2,3.2,1.5c1-0.7,2.4-0.8,3.5-0.2c2.5,0.8,3.2-0.9,4.4,0.1s1.9,1.2,2.7,0.5
		c2.2-1.9,0.8,2.3,2.6,0.1c2.5-3,2,0.2,3.8-2.6c0.9-1.3,0.1-1.9,1.5-2.1s2.9,2.1,2.3,0s1.2-1.1,1.7-1l0,0c0.5-0.4,1.2-0.6,1.9-0.5
		C238.8,157.4,239.4,157.2,239.9,156.8z M217.8,128.4c-1.2,0.5-3.8,0.2-4.4,2.1s-2.2,2.6-4,2.6c-1.3-0.1-2.5,0.4-3.2,1.4
		c-1.9,1.9-4.2,1.7-7,1.1c-5.8-1.2,0.2-4.4,3.2-4.4s5.1-1.7,6.4-2.1c2.5-0.9,1.6-2.1,3.9-2.8c2.1-0.7,1.6-2.2,1.8-3.6
		c0.2-1.6,2.3,0.1,2.9,0.2C219.9,124.2,219.6,127.6,217.8,128.4L217.8,128.4z"/>
	<path class="st2" d="M198.9,91.8l2.8,2.7c0.6,0.5,1.2,0.9,1.9,1.3l3,1.4c0.7,0.3,1.2,0.8,1.7,1.4l0.3,0.4c0.4,0.6,1.1,0.9,1.8,0.9
		l7.3-0.2c0.8,0,1.6,0.1,2.4,0.2l1,0.3c0.7,0.2,1.5,0,2.2-0.3l0.6-0.3c0.7-0.4,1.4-0.6,2.2-0.6h3.5c0.8,0,1.6-0.2,2.3-0.5l2.2-0.9
		c0.5-0.2,0.8-0.7,0.7-1.2c0-0.1,0-0.1-0.1-0.2l-1.1-2c-0.2-0.6-0.1-1.3,0.3-1.8l1-1c0.6-0.5,1.3-0.9,2-1.1l3.1-0.7
		c0.8-0.2,1.6-0.1,2.3,0.1l1.1,0.3c0.8,0.2,1.5,0.3,2.3,0.2l2.2-0.3c0.7-0.1,1.3-0.5,1.6-1.1l1-2.7c0.3-0.6,0.9-1,1.6-1.2l2.5-0.3
		c0.7,0,1.5,0.1,2.1,0.5l2.5,1.8c0.6,0.4,1.4,0.6,2.2,0.5h0.7c0.7-0.1,1.4-0.4,2-0.9l2.5-2.4c0.6-0.5,1.3-0.7,2-0.8h1.2
		c0.7,0,1.2-0.4,1.5-1l0.7-2.8c0.2-0.7,0.5-1.3,1-1.9l0.9-1c0.5-0.5,1.2-0.8,1.9-0.8h0.7c0.8,0,1.6-0.1,2.3-0.3l1.6-0.7
		c0.7-0.2,1.5-0.2,2.1,0.1l1.8,0.9c0.7,0.3,1.4,0.6,2.2,0.8l1,0.2c0.7,0.1,1.4-0.1,1.9-0.6l0.1-0.1c0.5-0.5,1.2-0.7,1.9-0.7l0.4,0.1
		c0.7,0.1,1.5,0,2.2-0.4l1.1-0.6c0.6-0.3,1.3-0.3,1.9,0.1l2.3,1.9c0.5,0.5,1,1,1.4,1.7l1.4,3c0.3,0.6,1,1,1.7,1h0.4
		c0.8,0,1.5-0.3,2.1-0.8l0.3-0.3c0.6-0.4,1.3-0.7,2.1-0.7h1.2c0.8,0.1,1.6-0.1,2.2-0.6l0.9-0.7c-0.2-0.2-0.3-0.5-0.3-0.8v-2.4
		c0.1-0.7,0.4-1.3,0.9-1.8l2.9-2.5c0.5-0.5,0.9-1.1,1-1.8l0.5-5c0.1-0.7,0.5-1.3,1-1.7l1.6-1c0.6-0.4,1.1-0.9,1.5-1.6l0.4-0.7
		c0.1-0.2,0.3-0.3,0.5-0.4c-0.3-0.4-0.8-0.7-1.4-0.8l-1.5-0.2c-0.6-0.1-1.2-0.5-1.3-0.9s-0.6-0.7-1.3-0.7l-1.1,0.1
		c-0.8,0-1.5-0.2-2.2-0.5l-2.1-1.1c-0.6-0.3-1.1-0.8-1.5-1.3c-0.3-0.4-0.9-1-1.4-1.5l-2.7-2.5c-0.6-0.5-1.3-0.6-2-0.4l-0.2,0.1
		c-0.6,0.2-1.2,0-1.5-0.6l-0.1-0.2c-0.3-0.6-0.8-1.1-1.4-1.4c-0.7-0.2-1.4-0.2-2.1,0l-0.8,0.2c-0.7,0.2-1.5,0.3-2.3,0.1l-3.1-0.9
		c-0.6-0.2-1.3,0.1-1.6,0.6l-0.5,1.2c-0.3,0.5-0.9,0.7-1.4,0.4c0,0,0,0-0.1,0l-0.9-0.6c-0.5-0.3-1.1-0.2-1.4,0.3c0,0,0,0,0,0.1
		l-1.4,3c-0.3,0.6-0.8,1-1.5,1c-0.5,0-1-0.3-1.2-0.8c-0.2-0.6-0.6-1.1-1-1.6l-1.8-1.7c-0.5-0.4-1.2-0.7-1.9-0.8
		c-0.7,0-1.4,0.3-2,0.7l-0.4,0.3c-0.6,0.4-1.3,0.4-1.9,0l-0.8-0.5c-0.6-0.4-1.3-0.3-1.9,0.1l-1.1,0.9c-0.6,0.4-1.2,0.7-1.9,0.8
		c-0.7,0.1-1.3,0.4-1.9,0.9l0,0c-0.5,0.5-0.7,1.1-0.8,1.8l0.1,1.4c0,0.7-0.5,1.2-1.1,1.4l-0.4,0.1c-0.7,0.1-1.4,0-2-0.4l-0.9-0.7
		c-0.5-0.4-1.3-0.4-1.8,0l-0.7,0.5c-0.5,0.4-1.1,0.6-1.7,0.7c-0.6-0.1-1.1-0.4-1.4-1l-0.1-0.2c-0.3-0.6-0.2-1.3,0.2-1.8l1.4-1.7
		c0.4-0.5,0.6-1.1,0.5-1.7c-0.2-0.6-0.8-0.9-1.4-0.9h-0.6c-0.7,0-1.4-0.3-2-0.8l-1.1-1c-0.5-0.5-0.7-1.2-0.8-1.8v-0.4
		c-0.1-0.7-0.4-1.3-0.9-1.7l-0.4-0.3c-0.6-0.4-1.3-0.4-1.9-0.1c-0.6,0.4-1.1,0.9-1.6,1.4l-0.4,0.5c-0.4,0.5-1,0.9-1.6,1.1
		c-0.6,0.2-1.1,0.6-1.5,1.1l-0.7,1.2c-0.4,0.6-1.1,0.9-1.8,0.9h-2.1c-0.6,0-1.2-0.4-1.4-1l-0.2-1.3c-0.2-0.6-0.7-1.1-1.4-1.3
		l-0.7-2.2c-3.1-0.3-1.2,1.1-4.8,0.8s-2.6,2.7-5.5,2.7c-1.2,0,1.6,2.2-3.4,3.4c-6.5,1.5-1.4,8.7-6,8.6s-1,3.5-3.9,3.4
		s-1.6,2-3.6,2.5s-3.4,2.2-4.7,0.4c-1.8-2.7-0.7,2.2-4.4-0.4c-3.2-2.3-5,0.1-6.1,1.9c-3.2,5.1-0.6,5.5-2.9,7.6l0,0
		c-0.1,1.8-2.4,1.6-2.4,5.1c0,4.4,2.9,1.5,2.4,5.9c-0.4,3.6,3.2,1.8,3,4.2c-0.2,1,0.5,2.1,1.5,2.3c0.3,0.1,0.6,0.1,0.9,0l1.2-0.4
		C197.6,91.1,198.3,91.3,198.9,91.8z"/>
	<path class="st2" d="M19,116.7c0-0.9-0.4-1.5-1.2-2.7c-1.3,1.3-2.4,2.8-1.1,5.1c0.1,0.3,0.2,0.5,0.2,0.8c0.2,1.9-2.2,3,0.5,2.4
		c1.8-0.4,2.2-0.6,2.9-0.5c-0.1-0.8-0.8-1.6-0.8-2.1C19.5,118.9,19,117.9,19,116.7z"/>
	<path class="st4" d="M150,35.9c-0.9,0-1.8,0.1-2.6,0.3c-0.9,0.2-1.8,0.5-2.7,0.9c-4.3,2-7,6.4-6.9,11.1c0.2,2.5,0.9,5,2.1,7.2
		l10,17.7l10.2-17.8c1.3-2.1,2.1-4.6,2.2-7.1C162.2,41.5,156.8,36,150,35.9z M150,52.9c-2.8,0-5-2.2-5-4.9c0-2.8,2.2-5,4.9-5
		s5,2.2,5,4.9l0,0C154.9,50.7,152.7,52.9,150,52.9L150,52.9z"/>
	<circle class="st5" cx="150" cy="48" r="4.9"/>
</g>
<rect x="0.5" y="0.5" class="st6" width="210" height="210"/>
</svg>
