<?xml version="1.0" encoding="utf-8"?>
<!-- Generator: Adobe Illustrator 24.1.3, SVG Export Plug-In . SVG Version: 6.00 Build 0)  -->
<svg version="1.1" id="Layer_1" xmlns="http://www.w3.org/2000/svg" xmlns:xlink="http://www.w3.org/1999/xlink" x="0px" y="0px"
	 viewBox="0 0 116 117.1" style="enable-background:new 0 0 116 117.1;" xml:space="preserve">
<style type="text/css">
	.st0{opacity:0.2;fill:#FFFFFF;enable-background:new    ;}
	.st1{fill:none;}
</style>
<path class="st0" d="M57.3,3.2C26.7,3.2,1.9,28,1.9,58.7c0,30.6,24.8,55.4,55.4,55.4c30.6,0,55.4-24.8,55.4-55.4
	C112.8,28,87.9,3.2,57.3,3.2z M97.6,25.8c2.1,4.1-3,0.9-3.2,3c-1.2-0.4-1.8-1.4-2.9-2c-0.5-0.3-1.5-0.1-1.8-0.4
	c-0.5-0.4-0.4-1.1-0.9-1.5c-1.9-1.5-6.1,0.9-7.8,1.9c-0.5,0.3-1,0.3-1.3,0.8c-0.5,0.9,0.2,1.1,0,1.9c-0.2,1.1-1.7,1.7-2.2,2.6
	c-1.1,2.2,1.1,5.4,0.8,7.8c-0.2,1.4-1.6,2.8-1.1,4c0.2,0.5,1.1,0.9,1.4,1.5c0.3,0.5,0.4,1.2,0.8,1.8c1.3,1.8,3.1,3.7,4.5,5.4
	c0.8,0.9,2,1.2,3.2,0.9c1-0.2,2.6-0.6,3.6-1c1.3-0.6,1.5-1.5,2.8-0.9c1.1,0.5,2,1.8,3.3,0.7c1,1-0.1,2.8-0.3,3.9
	c-0.3,1.4,0.3,2.7,1.2,3.9c1.1,1.5,1.3,1.7,1.1,3.7c-0.2,1.5-0.6,2.9-0.9,4.5c-0.3,1.5-1.2,2.6-1.2,4.1c0,1.4,0.7,2.6,0.5,4.1
	c-0.2,1.3-0.2,3-0.6,4.3c-0.4,1.3-1.3,2.5-1.7,3.9c-0.4,1.3-0.3,3,0.6,4.1c1,1.1,1.9,0.5,3-0.4c2.2-1.7,3.2-4.5,4.7-6.8
	c1.5-2.3,3-4.4,4-6.8c0.2-0.5,0.5-1,0.7-1.5c-2.4,8.5-7,16.3-13.4,22.7c-10,10-23.2,15.5-37.3,15.5C43.2,111.4,30,105.9,20,96
	C10,86,4.5,72.8,4.5,58.7C4.5,44.6,10,31.3,20,21.3c0.2-0.2,0.5-0.5,0.7-0.7c-0.2,0.6-0.4,1.1-0.7,1.6c-0.8,1.2-2.1,1.6-2.9,2.7
	c-0.7,1-1.3,2.5-1.6,3.6c-0.3,1.2-0.1,2.7-0.5,3.9c-0.5,1.5-1.5,2.5-1.3,4.2c2.1,0.6,1.2-3.2,3-3.4c0.6,1.4,0.2,4.1,0,5.6
	c-0.2,2.1-0.6,2.7,0.6,4.5c1,1.5,1.3,2.4,3.3,2.6c1.8,0.2,2.5,1,3.3,2.7c1.4,0.3,2.2,0.5,2.4,2.1c0.6,0.3,1.7,1.4,2.4,1.6
	c0.9,0.2,2.4-1.1,3.3-0.1c1.4,1.7-1.8,6.1-2.4,7.6c-0.9,2.2-1,5.5,1.1,7.1c1.1,0.8,2.2,1.2,2.6,2.7c0.3,1.4,0.1,2.5,0.7,3.8
	c0.9,2,3.1,2.7,4.7,4.2c2,2,1.9,4.7,1.9,7.5c0,3,1.1,5.3,1.5,8c0.4,2.8,1.2,5.5,1.8,8.2c0.4,2.1,2.2,5.2,4.8,4.8
	c0.2-1-0.8-1.7-1-2.7c-0.1-0.9,0.1-1.8,0-2.7c-0.3-1.9-0.3-3,0.9-4.6c0.4-0.6,1-1,1.5-1.6c0.9-1.1,0.2-0.8,0.2-2
	c0-1.5,0.4-0.8,1.3-1.2c0.5-0.2,1-1,1.4-1.4c0.8-0.8,2-1.8,2.7-2.8c0.7-1.1,0.6-2.7,1.3-3.8c0.8-1.3,2-1.3,3.1-2.2
	c1.5-1.1,0.9-2.3,1.1-3.8c0.5-2.5,1.6-5.4,3.2-7.4c2-2.6,2.9-4.7,0.4-7.2c-1.2-1.2-1.8-0.9-3.5-1.3c-1.2-0.3-2.3-1.2-3.6-1.4
	c-0.8-0.1-1.2,0.2-1.9,0c-0.6-0.2-0.6-0.6-1.2-0.5c-1,0-2.4,2.1-3.3,0.8c-0.5-0.7,1-2.8,0.9-3.8c-0.1-1.2-0.5-3.2-1.7-3.9
	c-0.5-0.3-1.5-0.3-2-0.5c-0.7-0.3-1.3-0.7-1.9-1c-0.8-0.5-2.2-1.3-2.6-2.2c-0.9,0-1.6-0.6-2.5-0.5c-0.9,0-1.4,0.4-2.4,0.3
	c-0.8-0.1-1.7-0.7-2.6-0.6c-0.6,0.1-1.4,0.8-2,1.1c-1.3,0.8-2.8,1.3-4.2,1.6c-2.3,0.4-2.7-0.4-2.6-2.6l-0.3-0.7
	c0.8-2.4-0.7-2.5-2.4-3.1c-0.2-1.7,1.8-2.9,1-4.7c-1.8-0.1-3.7,4.8-5.1,2.7c-1-1.4,0.5-5.3,1.4-6.5c0.9-1.2,4-3.4,5.5-3.6
	c1.2-0.1,2.2,0.4,2.6,1.4c0.5,1.1-0.1,2.1,0,3.4c1.5-0.3,1.1-2.2,1-3.2c-0.1-1.7,0.8-1.6,1.6-2.8c0.8-1.1,0.9-2.4,1.9-3.4
	c0.8-0.8,1.6-1.7,2.5-2.5c0.9-0.9,2-0.8,3-1.4c1.5-1-0.5-2.8,1.7-2.7c0.8,0,0.4,0.5,1.4,0.3c0.4-0.1,1.2-0.5,1.7-0.7
	c2.1-0.8,0.6-1.1-0.3-2.2c-1.2-1.4,0.5-1.2,1.8-1.4c0.9-0.2,0.7-0.5,1.5,0.1c0.7,0.5,0.3,1.1,1.3,1.1c2-0.1,0.6-2,0.2-2.7
	c-0.8-1.1-0.9-1.9-2.5-1.9c0.2-0.5,0.2-1.2-0.1-1.7c-1.3,0.2-1.6-0.8-2.6-1.2c-1.7-0.6-1.4,0.8-2.1,1.7c-0.7,1-2.1,0.8-2.6,2
	c-0.5,1.2,0,2.2-2,1.9c0.3-0.8,0.2-1.7,0.1-2.5c-0.6-0.1-1.1-0.2-1.7-0.4c0-2,2.2-2.2,3.7-2.4c1.7-0.2,2.2-1.9,3.8-2.2
	c1.4-0.3,2.4,2,4.2,0.7c1-0.8,0.5-1.2,0.2-1.9c-0.1-0.2-0.6-0.6-0.7-0.8c0,0,0,0,0-0.1c1.3-0.3,2.7-0.5,4.1-0.6
	C51.5,7,52,7.9,52.4,8.4c0.2,0.4,0.6,0.6,0.8,1.1c0.2,0.5-0.3,1.1,0.3,1.4c0.9,0.5,3.6-2.7,4.3-3.3c0.8-0.7,1.3-1,1.1-1.7
	c4.3,0.1,8.6,0.8,12.7,1.9c0.3,0.4,0.7,0.8,1,1.3c0.7,1,1.2,1.9,2.5,2.3c0.8,0.3,3.2,0.2,2.2,1.9c-0.9,1.6-1.9-0.5-2.4-1
	c-0.6-0.7-2.5-1.5-2.5,0.1c0.1,2.4,5.4,2,4.3,4.6c0.6,0.4,1.9,1,1.7,1.9c-0.3,1.1-1.7,0.4-1.7,1.9c0,2.1,2.3,3.8,4.4,3
	c2.2-0.8,0.6-3.9,3.1-4.2c1-0.1,1.6,0.2,2.5,0.9c0.7,0.6,1.2,1.9,2.2,1.8c0.1-0.6-0.4-1.1-0.5-1.7c0.8,0.2,2.4,1.2,2.8,1.9
	c0.7,1,0.6,2.5,2.3,1.2c-0.3-0.2-0.4-0.7-0.5-0.8C95.1,23,96.6,23.9,97.6,25.8z"/>
<rect x="2" y="2.7" class="st1" width="111.9" height="111.9"/>
</svg>
