<?xml version="1.0" encoding="utf-8"?>
<!-- Generator: Adobe Illustrator 22.1.0, SVG Export Plug-In . SVG Version: 6.00 Build 0)  -->
<svg version="1.1" id="Layer_1" xmlns="http://www.w3.org/2000/svg" xmlns:xlink="http://www.w3.org/1999/xlink" x="0px" y="0px"
	 viewBox="0 0 21 21" style="enable-background:new 0 0 21 21;" xml:space="preserve">
<style type="text/css">
	.st0{fill:#808080;}
</style>
<g>
	<g>
		<path class="st0" d="M0.5,21c-0.1,0-0.3,0-0.4-0.1c-0.2-0.2-0.2-0.5,0-0.7l20-20c0.2-0.2,0.5-0.2,0.7,0s0.2,0.5,0,0.7l-20,20
			C0.8,21,0.6,21,0.5,21z"/>
		<path class="st0" d="M20.5,21c-0.1,0-0.3,0-0.4-0.1l-20-20C0,0.7,0,0.3,0.1,0.1s0.5-0.2,0.7,0l20,20c0.2,0.2,0.2,0.5,0,0.7
			C20.8,21,20.6,21,20.5,21z"/>
	</g>
</g>
</svg>
