<?xml version="1.0" encoding="utf-8"?>
<!-- Generator: Adobe Illustrator 25.2.1, SVG Export Plug-In . SVG Version: 6.00 Build 0)  -->
<svg version="1.1" id="Layer_1" xmlns="http://www.w3.org/2000/svg" xmlns:xlink="http://www.w3.org/1999/xlink" x="0px" y="0px"
	 viewBox="0 0 532.6 294.8" style="enable-background:new 0 0 532.6 294.8;" xml:space="preserve">
<style type="text/css">
	.st0{fill:#4D4D4D;}
	.st1{fill:#575757;}
	.st2{fill:#CCCCCC;}
	.st3{fill:#D3C3E0;}
	.st4{fill:#FFFFFF;}
	.st5{fill:#DEDEDE;}
	.st6{fill:#374754;}
	.st7{fill:#556C80;}
	.st8{fill:#6988A1;}
	.st9{fill:#11161A;}
	.st10{fill:#333333;}
	.st11{fill:#778681;}
	.st12{fill:#2D9ACC;}
	.st13{fill:#7CD51C;}
	.st14{fill:#B8C6CC;}
	.st15{fill:#222B33;}
	.st16{fill:#4E6578;}
	.st17{fill:#2D3A45;}
	.st18{fill:#D51CA4;}
	.st19{fill:#F2F2F2;}
</style>
<g>
	<g>
		<g>
			<path class="st0" d="M408.3,286.2c-13.8-16.2-27.5-32.3-41.2-48.5c-2-2.3-6.9-5-12.7-5.1c-4.1,0-8.1,0-12.2,0
				c-1.2,1.5-3.1,2.4-5.2,2.4H185.5c-2.1,0-3.9-0.9-5.2-2.4c-4.1,0-8.1,0-12.2,0c-5.8,0.1-10.6,2.7-12.7,5.1
				c-13.7,16.2-27.5,32.3-41.2,48.5c-2.6,2.9,2.1,5.1,8.1,5.1c92.6,0,185.2,0,277.8,0C406.2,291.3,410.8,289,408.3,286.2z"/>
			<path class="st1" d="M158.8,91.7c0-2.8,2.3-5.2,5.2-5.2h194.5c2.8,0,5.2,2.3,5.2,5.2v126.9c0,4.7-3.8,8.4-8.4,8.4h-188
				c-4.7,0-8.4-3.8-8.4-8.4V91.7z"/>
			<path class="st2" d="M115.9,277.4c2-2.3,48-41,53.7-41.1c61.1,0,122.2,0,183.3,0c5.7,0.1,51.8,38.9,53.8,41.2v1.3
				c0,4.6-3.6,8.5-8.2,8.7c-0.2,0-0.3,0-0.5,0c-91.1,0-182.2,0-273.4,0c-0.1,0-0.3,0-0.4,0c-4.7-0.2-8.3-4.1-8.2-8.8L115.9,277.4z"
				/>
			<g>
				<path class="st3" d="M172.2,234.9c-0.5,0.8-2,1.4-3.4,1.4c-2.3,0-4.7,0-7,0c-1.4,0-2.1-0.6-1.5-1.4c0.9-1.3,1.9-2.6,2.8-3.8
					c0.6-0.8,2.1-1.4,3.4-1.4c2.7,0,4,0,6.7,0c1.3,0,2,0.6,1.5,1.4C173.9,232.3,173,233.6,172.2,234.9z"/>
				<path class="st3" d="M185.7,234.9c-0.4,0.8-1.9,1.4-3.2,1.4c-2.3,0-4.7,0-7,0c-1.4,0-2.1-0.6-1.6-1.4c0.8-1.3,1.6-2.6,2.4-3.8
					c0.5-0.8,1.9-1.4,3.3-1.4c2.7,0,4,0,6.7,0c1.3,0,2.1,0.6,1.6,1.4C187.1,232.3,186.4,233.6,185.7,234.9z"/>
				<path class="st3" d="M199.2,234.9c-0.3,0.8-1.7,1.4-3.1,1.4c-2.3,0-4.7,0-7,0c-1.4,0-2.2-0.6-1.8-1.4c0.7-1.3,1.4-2.6,2-3.8
					c0.4-0.8,1.8-1.4,3.1-1.4c2.7,0,4,0,6.7,0c1.3,0,2.1,0.6,1.8,1.4C200.3,232.3,199.8,233.6,199.2,234.9z"/>
				<path class="st3" d="M212.7,234.9c-0.3,0.8-1.6,1.4-3,1.4c-2.3,0-4.7,0-7,0c-1.4,0-2.2-0.6-1.9-1.4c0.6-1.3,1.1-2.6,1.7-3.8
					c0.3-0.8,1.7-1.4,3-1.4c2.7,0,4,0,6.7,0c1.3,0,2.2,0.6,1.9,1.4C213.6,232.3,213.2,233.6,212.7,234.9z"/>
				<path class="st3" d="M226.2,234.9c-0.2,0.8-1.5,1.4-2.8,1.4c-2.3,0-4.7,0-7,0c-1.4,0-2.3-0.6-2.1-1.4c0.4-1.3,0.8-2.6,1.3-3.8
					c0.3-0.8,1.5-1.4,2.8-1.4c2.7,0,4,0,6.7,0c1.3,0,2.2,0.6,2.1,1.4C226.8,232.3,226.5,233.6,226.2,234.9z"/>
				<path class="st3" d="M239.7,234.9c-0.1,0.8-1.3,1.4-2.7,1.4c-2.3,0-4.7,0-7,0c-1.4,0-2.4-0.6-2.2-1.4c0.3-1.3,0.6-2.6,0.9-3.8
					c0.2-0.8,1.4-1.4,2.7-1.4c2.7,0,4,0,6.7,0c1.3,0,2.3,0.6,2.2,1.4C240.1,232.3,239.9,233.6,239.7,234.9z"/>
				<path class="st3" d="M253.2,234.9c0,0.8-1.2,1.4-2.6,1.4c-2.3,0-4.7,0-7,0c-1.4,0-2.4-0.6-2.3-1.4c0.2-1.3,0.3-2.6,0.5-3.8
					c0.1-0.8,1.3-1.4,2.6-1.4c2.7,0,4,0,6.7,0c1.3,0,2.4,0.6,2.3,1.4C253.3,232.3,253.3,233.6,253.2,234.9z"/>
				<path class="st3" d="M266.7,234.9c0,0.8-1,1.4-2.4,1.4c-2.3,0-4.7,0-7,0c-1.4,0-2.5-0.6-2.5-1.4c0-1.3,0.1-2.6,0.1-3.8
					c0-0.8,1.1-1.4,2.4-1.4c2.7,0,4,0,6.7,0c1.3,0,2.4,0.6,2.5,1.4C266.6,232.3,266.7,233.6,266.7,234.9z"/>
				<path class="st3" d="M280.2,234.9c0.1,0.8-0.9,1.4-2.3,1.4c-2.3,0-4.7,0-7,0c-1.4,0-2.5-0.6-2.6-1.4c-0.1-1.3-0.2-2.6-0.3-3.8
					c-0.1-0.8,1-1.4,2.3-1.4c2.7,0,4,0,6.7,0c1.3,0,2.5,0.6,2.6,1.4C279.8,232.3,280,233.6,280.2,234.9z"/>
				<path class="st3" d="M293.7,234.9c0.2,0.8-0.8,1.4-2.2,1.4c-2.3,0-4.7,0-7,0c-1.4,0-2.6-0.6-2.7-1.4c-0.2-1.3-0.4-2.6-0.6-3.8
					c-0.1-0.8,0.8-1.4,2.2-1.4c2.7,0,4,0,6.7,0c1.3,0,2.5,0.6,2.7,1.4C293.1,232.3,293.4,233.6,293.7,234.9z"/>
				<path class="st3" d="M307.2,234.9c0.3,0.8-0.6,1.4-2,1.4c-2.3,0-4.7,0-7,0c-1.4,0-2.7-0.6-2.9-1.4c-0.3-1.3-0.7-2.6-1-3.8
					c-0.2-0.8,0.7-1.4,2-1.4c2.7,0,4,0,6.7,0c1.3,0,2.6,0.6,2.9,1.4C306.3,232.3,306.8,233.6,307.2,234.9z"/>
				<path class="st3" d="M320.7,234.9c0.3,0.8-0.5,1.4-1.9,1.4c-2.3,0-4.7,0-7,0c-1.4,0-2.7-0.6-3-1.4c-0.5-1.3-0.9-2.6-1.4-3.8
					c-0.3-0.8,0.6-1.4,1.9-1.4c2.7,0,4,0,6.7,0c1.3,0,2.7,0.6,3,1.4C319.6,232.3,320.2,233.6,320.7,234.9z"/>
				<path class="st3" d="M334.2,234.9c0.4,0.8-0.4,1.4-1.8,1.4c-2.3,0-4.7,0-7,0c-1.4,0-2.8-0.6-3.1-1.4c-0.6-1.3-1.2-2.6-1.8-3.8
					c-0.4-0.8,0.4-1.4,1.8-1.4c2.7,0,4,0,6.7,0c1.3,0,2.7,0.6,3.1,1.4C332.8,232.3,333.5,233.6,334.2,234.9z"/>
				<path class="st3" d="M184.4,242.4c-0.4,0.8-1.9,1.4-3.4,1.4c-2.5,0-4.9,0-7.4,0c-1.5,0-2.3-0.6-1.8-1.4c0.8-1.3,1.6-2.6,2.3-3.8
					c0.5-0.8,2-1.4,3.4-1.4c2.4,0,4.7,0,7.1,0c1.4,0,2.2,0.6,1.8,1.4C185.8,239.9,185.1,241.2,184.4,242.4z"/>
				<path class="st3" d="M198.7,242.4c-0.3,0.8-1.8,1.4-3.2,1.4c-2.5,0-4.9,0-7.4,0c-1.5,0-2.3-0.6-1.9-1.4c0.7-1.3,1.3-2.6,2-3.8
					c0.4-0.8,1.8-1.4,3.2-1.4c2.4,0,4.7,0,7.1,0c1.4,0,2.3,0.6,1.9,1.4C199.8,239.9,199.2,241.2,198.7,242.4z"/>
				<path class="st3" d="M212.9,242.4c-0.2,0.8-1.6,1.4-3.1,1.4c-2.5,0-4.9,0-7.4,0c-1.5,0-2.4-0.6-2.1-1.4c0.5-1.3,1.1-2.6,1.6-3.8
					c0.3-0.8,1.7-1.4,3.1-1.4c2.4,0,4.7,0,7.1,0c1.4,0,2.3,0.6,2.1,1.4C213.8,239.9,213.3,241.2,212.9,242.4z"/>
				<path class="st3" d="M227.2,242.4c-0.2,0.8-1.5,1.4-3,1.4c-2.5,0-4.9,0-7.4,0c-1.5,0-2.5-0.6-2.2-1.4c0.4-1.3,0.8-2.6,1.2-3.8
					c0.2-0.8,1.6-1.4,3-1.4c2.4,0,4.7,0,7.1,0c1.4,0,2.4,0.6,2.2,1.4C227.8,239.9,227.5,241.2,227.2,242.4z"/>
				<path class="st3" d="M241.4,242.4c-0.1,0.8-1.4,1.4-2.8,1.4c-2.5,0-4.9,0-7.4,0c-1.5,0-2.5-0.6-2.4-1.4c0.3-1.3,0.5-2.6,0.8-3.8
					c0.2-0.8,1.4-1.4,2.8-1.4c2.4,0,4.7,0,7.1,0c1.4,0,2.4,0.6,2.4,1.4C241.8,239.9,241.6,241.2,241.4,242.4z"/>
				<path class="st3" d="M255.7,242.4c0,0.8-1.2,1.4-2.7,1.4c-2.5,0-4.9,0-7.4,0c-1.5,0-2.6-0.6-2.5-1.4c0.1-1.3,0.3-2.6,0.4-3.8
					c0.1-0.8,1.3-1.4,2.7-1.4c2.4,0,4.7,0,7.1,0c1.4,0,2.5,0.6,2.5,1.4C255.8,239.9,255.7,241.2,255.7,242.4z"/>
				<path class="st3" d="M269.9,242.4c0.1,0.8-1.1,1.4-2.5,1.4c-2.5,0-4.9,0-7.4,0c-1.5,0-2.6-0.6-2.6-1.4c0-1.3,0-2.6,0.1-3.8
					c0-0.8,1.2-1.4,2.5-1.4c2.4,0,4.7,0,7.1,0c1.4,0,2.6,0.6,2.6,1.4C269.8,239.9,269.9,241.2,269.9,242.4z"/>
				<path class="st3" d="M284.2,242.4c0.1,0.8-0.9,1.4-2.4,1.4c-2.5,0-4.9,0-7.4,0c-1.5,0-2.7-0.6-2.8-1.4c-0.1-1.3-0.2-2.6-0.3-3.8
					c-0.1-0.8,1-1.4,2.4-1.4c2.4,0,4.7,0,7.1,0c1.4,0,2.6,0.6,2.8,1.4C283.8,239.9,284,241.2,284.2,242.4z"/>
				<path class="st3" d="M298.5,242.4c0.2,0.8-0.8,1.4-2.3,1.4c-2.5,0-4.9,0-7.4,0c-1.5,0-2.8-0.6-2.9-1.4c-0.2-1.3-0.5-2.6-0.7-3.8
					c-0.1-0.8,0.9-1.4,2.3-1.4c2.4,0,4.7,0,7.1,0c1.4,0,2.7,0.6,2.9,1.4C297.8,239.9,298.1,241.2,298.5,242.4z"/>
				<path class="st3" d="M312.7,242.4c0.3,0.8-0.7,1.4-2.1,1.4c-2.5,0-4.9,0-7.4,0c-1.5,0-2.8-0.6-3-1.4c-0.4-1.3-0.7-2.6-1.1-3.8
					c-0.2-0.8,0.7-1.4,2.1-1.4c2.4,0,4.7,0,7.1,0c1.4,0,2.8,0.6,3,1.4C311.8,239.9,312.2,241.2,312.7,242.4z"/>
				<path class="st3" d="M327,242.4c0.4,0.8-0.5,1.4-2,1.4c-2.5,0-4.9,0-7.4,0c-1.5,0-2.9-0.6-3.2-1.4c-0.5-1.3-1-2.6-1.5-3.8
					c-0.3-0.8,0.6-1.4,2-1.4c2.4,0,4.7,0,7.1,0c1.4,0,2.8,0.6,3.2,1.4C325.8,239.9,326.4,241.2,327,242.4z"/>
				<path class="st3" d="M341.2,242.4c0.4,0.8-0.4,1.4-1.9,1.4c-2.5,0-4.9,0-7.4,0c-1.5,0-2.9-0.6-3.3-1.4c-0.6-1.3-1.2-2.6-1.9-3.8
					c-0.4-0.8,0.5-1.4,1.9-1.4c2.4,0,4.7,0,7.1,0c1.4,0,2.9,0.6,3.3,1.4C339.8,239.9,340.5,241.2,341.2,242.4z"/>
				<path class="st3" d="M182.4,250c-0.4,0.8-1.9,1.4-3.5,1.4c-2.6,0-5.2,0-7.8,0c-1.5,0-2.4-0.6-2-1.4c0.8-1.3,1.5-2.6,2.3-3.8
					c0.5-0.8,2-1.4,3.5-1.4c2.5,0,5,0,7.5,0c1.5,0,2.4,0.6,2,1.4C183.7,247.5,183,248.7,182.4,250z"/>
				<path class="st3" d="M197.4,250c-0.3,0.8-1.8,1.4-3.3,1.4c-2.6,0-5.2,0-7.8,0c-1.5,0-2.5-0.6-2.1-1.4c0.6-1.3,1.3-2.6,1.9-3.8
					c0.4-0.8,1.9-1.4,3.3-1.4c2.5,0,5,0,7.5,0c1.5,0,2.4,0.6,2.1,1.4C198.4,247.5,197.9,248.7,197.4,250z"/>
				<path class="st3" d="M212.4,250c-0.2,0.8-1.7,1.4-3.2,1.4c-2.6,0-5.2,0-7.8,0c-1.5,0-2.5-0.6-2.2-1.4c0.5-1.3,1-2.6,1.5-3.8
					c0.3-0.8,1.7-1.4,3.2-1.4c2.5,0,5,0,7.5,0c1.5,0,2.5,0.6,2.2,1.4C213.2,247.5,212.8,248.7,212.4,250z"/>
				<path class="st3" d="M227.4,250c-0.2,0.8-1.5,1.4-3.1,1.4c-2.6,0-5.2,0-7.8,0c-1.5,0-2.6-0.6-2.4-1.4c0.4-1.3,0.8-2.6,1.1-3.8
					c0.2-0.8,1.6-1.4,3.1-1.4c2.5,0,5,0,7.5,0c1.5,0,2.5,0.6,2.4,1.4C227.9,247.5,227.6,248.7,227.4,250z"/>
				<path class="st3" d="M242.4,250c-0.1,0.8-1.4,1.4-2.9,1.4c-2.6,0-5.2,0-7.8,0c-1.5,0-2.7-0.6-2.5-1.4c0.3-1.3,0.5-2.6,0.8-3.8
					c0.2-0.8,1.5-1.4,2.9-1.4c2.5,0,5,0,7.5,0c1.5,0,2.6,0.6,2.5,1.4C242.7,247.5,242.5,248.7,242.4,250z"/>
				<path class="st3" d="M257.4,250c0,0.8-1.3,1.4-2.8,1.4c-2.6,0-5.2,0-7.8,0c-1.5,0-2.7-0.6-2.6-1.4c0.1-1.3,0.3-2.6,0.4-3.8
					c0.1-0.8,1.3-1.4,2.8-1.4c2.5,0,5,0,7.5,0c1.5,0,2.7,0.6,2.6,1.4C257.4,247.5,257.4,248.7,257.4,250z"/>
				<path class="st3" d="M272.4,250c0.1,0.8-1.1,1.4-2.7,1.4c-2.6,0-5.2,0-7.8,0c-1.5,0-2.8-0.6-2.8-1.4c0-1.3,0-2.6,0-3.8
					c0-0.8,1.2-1.4,2.7-1.4c2.5,0,5,0,7.5,0c1.5,0,2.7,0.6,2.8,1.4C272.2,247.5,272.3,248.7,272.4,250z"/>
				<path class="st3" d="M287.4,250c0.1,0.8-1,1.4-2.5,1.4c-2.6,0-5.2,0-7.8,0c-1.5,0-2.8-0.6-2.9-1.4c-0.1-1.3-0.2-2.6-0.4-3.8
					c-0.1-0.8,1.1-1.4,2.5-1.4c2.5,0,5,0,7.5,0c1.5,0,2.8,0.6,2.9,1.4C286.9,247.5,287.2,248.7,287.4,250z"/>
				<path class="st3" d="M302.4,250c0.2,0.8-0.9,1.4-2.4,1.4c-2.6,0-5.2,0-7.8,0c-1.5,0-2.9-0.6-3.1-1.4c-0.3-1.3-0.5-2.6-0.8-3.8
					c-0.1-0.8,0.9-1.4,2.4-1.4c2.5,0,5,0,7.5,0c1.5,0,2.8,0.6,3.1,1.4C301.7,247.5,302,248.7,302.4,250z"/>
				<path class="st3" d="M317.4,250c0.3,0.8-0.7,1.4-2.3,1.4c-2.6,0-5.2,0-7.8,0c-1.5,0-3-0.6-3.2-1.4c-0.4-1.3-0.8-2.6-1.1-3.8
					c-0.2-0.8,0.8-1.4,2.3-1.4c2.5,0,5,0,7.5,0c1.5,0,2.9,0.6,3.2,1.4C316.4,247.5,316.9,248.7,317.4,250z"/>
				<path class="st3" d="M332.4,250c0.4,0.8-0.6,1.4-2.1,1.4c-2.6,0-5.2,0-7.8,0c-1.5,0-3-0.6-3.3-1.4c-0.5-1.3-1-2.6-1.5-3.8
					c-0.3-0.8,0.7-1.4,2.1-1.4c2.5,0,5,0,7.5,0c1.5,0,3,0.6,3.3,1.4C331.2,247.5,331.8,248.7,332.4,250z"/>
				<path class="st3" d="M180.4,257.6c-0.4,0.8-2,1.4-3.6,1.4c-2.7,0-5.5,0-8.2,0c-1.6,0-2.6-0.6-2.1-1.4c0.7-1.3,1.5-2.6,2.2-3.8
					c0.4-0.8,2.1-1.4,3.6-1.4c2.6,0,5.2,0,7.8,0c1.5,0,2.5,0.6,2.1,1.4C181.7,255,181,256.3,180.4,257.6z"/>
				<path class="st3" d="M196.1,257.6c-0.3,0.8-1.9,1.4-3.5,1.4c-2.7,0-5.5,0-8.2,0c-1.6,0-2.6-0.6-2.3-1.4c0.6-1.3,1.2-2.6,1.9-3.8
					c0.4-0.8,1.9-1.4,3.5-1.4c2.6,0,5.2,0,7.8,0c1.5,0,2.6,0.6,2.3,1.4C197.2,255,196.7,256.3,196.1,257.6z"/>
				<path class="st3" d="M211.9,257.6c-0.2,0.8-1.7,1.4-3.3,1.4c-2.7,0-5.5,0-8.2,0c-1.6,0-2.7-0.6-2.4-1.4c0.5-1.3,1-2.6,1.5-3.8
					c0.3-0.8,1.8-1.4,3.3-1.4c2.6,0,5.2,0,7.8,0c1.5,0,2.6,0.6,2.4,1.4C212.7,255,212.3,256.3,211.9,257.6z"/>
				<path class="st3" d="M227.7,257.6c-0.2,0.8-1.6,1.4-3.2,1.4c-2.7,0-5.5,0-8.2,0c-1.6,0-2.7-0.6-2.5-1.4c0.4-1.3,0.7-2.6,1.1-3.8
					c0.2-0.8,1.6-1.4,3.2-1.4c2.6,0,5.2,0,7.8,0c1.5,0,2.7,0.6,2.5,1.4C228.2,255,227.9,256.3,227.7,257.6z"/>
				<path class="st3" d="M243.4,257.6c-0.1,0.8-1.4,1.4-3.1,1.4c-2.7,0-5.5,0-8.2,0c-1.6,0-2.8-0.6-2.7-1.4c0.2-1.3,0.5-2.6,0.7-3.8
					c0.1-0.8,1.5-1.4,3.1-1.4c2.6,0,5.2,0,7.8,0c1.5,0,2.7,0.6,2.7,1.4C243.7,255,243.5,256.3,243.4,257.6z"/>
				<path class="st3" d="M259.2,257.6c0,0.8-1.3,1.4-2.9,1.4c-2.7,0-5.5,0-8.2,0c-1.6,0-2.9-0.6-2.8-1.4c0.1-1.3,0.2-2.6,0.3-3.8
					c0.1-0.8,1.4-1.4,2.9-1.4c2.6,0,5.2,0,7.8,0c1.5,0,2.8,0.6,2.8,1.4C259.2,255,259.2,256.3,259.2,257.6z"/>
				<path class="st3" d="M274.9,257.6c0.1,0.8-1.2,1.4-2.8,1.4c-2.7,0-5.5,0-8.2,0c-1.6,0-2.9-0.6-2.9-1.4c0-1.3,0-2.6,0-3.8
					c0-0.8,1.2-1.4,2.8-1.4c2.6,0,5.2,0,7.8,0c1.5,0,2.9,0.6,2.9,1.4C274.7,255,274.8,256.3,274.9,257.6z"/>
				<path class="st3" d="M290.7,257.6c0.1,0.8-1,1.4-2.7,1.4c-2.7,0-5.5,0-8.2,0c-1.6,0-3-0.6-3.1-1.4c-0.1-1.3-0.3-2.6-0.4-3.8
					c-0.1-0.8,1.1-1.4,2.7-1.4c2.6,0,5.2,0,7.8,0c1.5,0,2.9,0.6,3.1,1.4C290.2,255,290.4,256.3,290.7,257.6z"/>
				<path class="st3" d="M306.4,257.6c0.2,0.8-0.9,1.4-2.5,1.4c-2.7,0-5.5,0-8.2,0c-1.6,0-3.1-0.6-3.2-1.4c-0.3-1.3-0.5-2.6-0.8-3.8
					c-0.2-0.8,1-1.4,2.5-1.4c2.6,0,5.2,0,7.8,0c1.5,0,3,0.6,3.2,1.4C305.7,255,306,256.3,306.4,257.6z"/>
				<path class="st3" d="M322.2,257.6c0.3,0.8-0.8,1.4-2.4,1.4c-2.7,0-5.5,0-8.2,0c-1.6,0-3.1-0.6-3.3-1.4c-0.4-1.3-0.8-2.6-1.2-3.8
					c-0.2-0.8,0.8-1.4,2.4-1.4c2.6,0,5.2,0,7.8,0c1.5,0,3,0.6,3.3,1.4C321.2,255,321.7,256.3,322.2,257.6z"/>
				<path class="st3" d="M337.9,257.6c0.4,0.8-0.6,1.4-2.2,1.4c-2.7,0-5.5,0-8.2,0c-1.6,0-3.2-0.6-3.5-1.4c-0.5-1.3-1-2.6-1.6-3.8
					c-0.3-0.8,0.7-1.4,2.2-1.4c2.6,0,5.2,0,7.8,0c1.5,0,3.1,0.6,3.5,1.4C336.7,255,337.3,256.3,337.9,257.6z"/>
				<path class="st3" d="M354.7,257.6c0.5,0.8-0.5,1.4-2.1,1.4c-2.7,0-5.5,0-8.2,0c-1.6,0-3.2-0.6-3.6-1.4c-0.7-1.3-1.3-2.6-2-3.8
					c-0.4-0.8,0.6-1.4,2.1-1.4c2.6,0,5.2,0,7.8,0c1.5,0,3.2,0.6,3.6,1.4C353.2,255,354,256.3,354.7,257.6z"/>
				<path class="st3" d="M380.2,257.6c0.6,0.8-0.3,1.4-1.9,1.4c-5.7,0-11.3,0-17,0c-1.6,0-3.3-0.6-3.8-1.4c-0.8-1.3-1.6-2.6-2.4-3.8
					c-0.5-0.8,0.4-1.4,2-1.4c5.4,0,10.8,0,16.3,0c1.5,0,3.3,0.6,3.8,1.4C378.3,255,379.3,256.3,380.2,257.6z"/>
				<path class="st3" d="M169.8,265.2c-0.4,0.8-2.1,1.4-3.8,1.4c-2.9,0-5.7,0-8.6,0c-1.7,0-2.7-0.6-2.2-1.4c0.8-1.3,1.6-2.6,2.4-3.8
					c0.5-0.8,2.2-1.4,3.8-1.4c2.7,0,5.5,0,8.2,0c1.6,0,2.6,0.6,2.2,1.4C171.2,262.6,170.5,263.9,169.8,265.2z"/>
				<path class="st3" d="M186.3,265.2c-0.3,0.8-2,1.4-3.7,1.4c-2.9,0-5.7,0-8.6,0c-1.7,0-2.7-0.6-2.3-1.4c0.7-1.3,1.3-2.6,2-3.8
					c0.4-0.8,2-1.4,3.7-1.4c2.7,0,5.5,0,8.2,0c1.6,0,2.7,0.6,2.3,1.4C187.4,262.6,186.9,263.9,186.3,265.2z"/>
				<path class="st3" d="M202.8,265.2c-0.3,0.8-1.8,1.4-3.5,1.4c-2.9,0-5.7,0-8.6,0c-1.7,0-2.8-0.6-2.5-1.4c0.5-1.3,1.1-2.6,1.6-3.8
					c0.3-0.8,1.9-1.4,3.5-1.4c2.7,0,5.5,0,8.2,0c1.6,0,2.7,0.6,2.5,1.4C203.7,262.6,203.3,263.9,202.8,265.2z"/>
				<path class="st3" d="M301.4,265.2c0.2,0.8-1,1.4-2.7,1.4c-30.4,0-60.9,0-91.3,0c-1.7,0-2.9-0.6-2.6-1.4c0.4-1.3,0.8-2.6,1.3-3.8
					c0.2-0.8,1.8-1.4,3.4-1.4c29.2,0,58.5,0,87.7,0c1.6,0,3.1,0.6,3.3,1.4C300.7,262.6,301.1,263.9,301.4,265.2z"/>
				<path class="st3" d="M318.3,265.2c0.3,0.8-0.9,1.4-2.6,1.4c-2.9,0-5.7,0-8.6,0c-1.7,0-3.2-0.6-3.4-1.4c-0.3-1.3-0.7-2.6-1-3.8
					c-0.2-0.8,1-1.4,2.6-1.4c2.7,0,5.5,0,8.2,0c1.6,0,3.2,0.6,3.4,1.4C317.4,262.6,317.9,263.9,318.3,265.2z"/>
				<path class="st3" d="M334.8,265.2c0.3,0.8-0.7,1.4-2.4,1.4c-2.9,0-5.7,0-8.6,0c-1.7,0-3.3-0.6-3.6-1.4c-0.5-1.3-0.9-2.6-1.4-3.8
					c-0.3-0.8,0.8-1.4,2.4-1.4c2.7,0,5.5,0,8.2,0c1.6,0,3.2,0.6,3.6,1.4C333.7,262.6,334.3,263.9,334.8,265.2z"/>
				<path class="st3" d="M386,265.2c0.6,0.8-0.3,1.4-2,1.4c-2.9,0-5.7,0-8.6,0c-1.7,0-3.5-0.6-4-1.4c-0.9-1.3-1.7-2.6-2.6-3.8
					c-0.5-0.8,0.4-1.4,2-1.4c2.7,0,5.5,0,8.2,0c1.6,0,3.4,0.6,4,1.4C384,262.6,385,263.9,386,265.2z"/>
				<path class="st3" d="M369.4,265.2c0.5,0.8-0.5,1.4-2.2,1.4c-2.9,0-5.7,0-8.6,0c-1.7,0-3.4-0.6-3.8-1.4c-0.7-1.3-1.5-2.6-2.2-3.8
					c-0.4-0.8,0.5-1.4,2.2-1.4c2.7,0,5.5,0,8.2,0c1.6,0,3.3,0.6,3.8,1.4C367.7,262.6,368.6,263.9,369.4,265.2z"/>
				<path class="st3" d="M352,265.2c0.4,0.8-0.6,1.4-2.3,1.4c-2.9,0-5.7,0-8.6,0c-1.7,0-3.3-0.6-3.7-1.4c-0.6-1.3-1.2-2.6-1.8-3.8
					c-0.4-0.8,0.7-1.4,2.3-1.4c2.7,0,5.5,0,8.2,0c1.6,0,3.3,0.6,3.7,1.4C350.6,262.6,351.3,263.9,352,265.2z"/>
				<path class="st3" d="M374.5,250c0.6,0.8-0.2,1.4-1.7,1.4c-11.6,0-23.1,0-34.7,0c-1.5,0-3.1-0.6-3.5-1.4
					c-0.6-1.3-1.3-2.6-1.9-3.8c-0.4-0.8,0.5-1.4,2-1.4c11.1,0,22.1,0,33.2,0c1.5,0,3.1,0.6,3.7,1.4
					C372.5,247.5,373.5,248.7,374.5,250z"/>
				<path class="st3" d="M363,234.9c0.6,0.8-0.1,1.4-1.5,1.4c-7.5,0-14.9,0-22.4,0c-1.4,0-2.9-0.6-3.3-1.4c-0.7-1.3-1.4-2.6-2.2-3.8
					c-0.4-0.8,0.3-1.4,1.6-1.4c7.1,0,14.2,0,21.3,0c1.3,0,2.9,0.6,3.4,1.4C361,232.3,362,233.6,363,234.9z"/>
				<path class="st3" d="M368.7,242.4c0.6,0.8-0.1,1.4-1.6,1.4c-6.9,0-13.7,0-20.6,0c-1.5,0-3-0.6-3.4-1.4c-0.7-1.3-1.5-2.6-2.2-3.8
					c-0.4-0.8,0.3-1.4,1.7-1.4c6.6,0,13.1,0,19.7,0c1.4,0,3,0.6,3.6,1.4C366.8,239.9,367.7,241.2,368.7,242.4z"/>
				<path class="st3" d="M169.6,242.4c-0.5,0.8-2,1.4-3.5,1.4c-3.2,0-6.4,0-9.7,0c-1.5,0-2.2-0.6-1.6-1.4c0.9-1.3,1.9-2.6,2.8-3.8
					c0.6-0.8,2.1-1.4,3.5-1.4c3.1,0,6.2,0,9.2,0c1.4,0,2.1,0.6,1.7,1.4C171.2,239.9,170.4,241.2,169.6,242.4z"/>
				<path class="st3" d="M167.2,250c-0.5,0.8-2.1,1.4-3.6,1.4c-4.2,0-8.4,0-12.5,0c-1.5,0-2.3-0.6-1.8-1.4c0.9-1.3,1.9-2.6,2.8-3.8
					c0.6-0.8,2.2-1.4,3.7-1.4c4,0,8,0,12,0c1.5,0,2.3,0.6,1.8,1.4C168.8,247.5,168,248.7,167.2,250z"/>
				<path class="st3" d="M165.1,257.6c-0.4,0.8-2.1,1.4-3.7,1.4c-5.2,0-10.4,0-15.7,0c-1.6,0-2.5-0.6-1.9-1.4
					c0.9-1.3,1.9-2.6,2.8-3.8c0.6-0.8,2.3-1.4,3.8-1.4c5,0,10,0,15,0c1.5,0,2.4,0.6,2,1.4C166.6,255,165.9,256.3,165.1,257.6z"/>
				<path class="st3" d="M152.8,265.2c-0.5,0.8-2.2,1.4-3.9,1.4c-2.9,0-5.7,0-8.6,0c-1.7,0-2.6-0.6-2.1-1.4c0.9-1.3,1.9-2.6,2.8-3.8
					c0.6-0.8,2.3-1.4,3.9-1.4c2.7,0,5.5,0,8.2,0c1.6,0,2.5,0.6,2.1,1.4C154.5,262.6,153.7,263.9,152.8,265.2z"/>
			</g>
			<path class="st4" d="M405.9,276c-13.5-15.9-27.1-31.8-40.6-47.7c-2-2.3-6.8-4.9-12.5-5c-4,0-8,0-12,0c-1.2,1.4-3,2.4-5.1,2.4
				h-149c-2,0-3.9-0.9-5.1-2.4c-4,0-8,0-12,0c-5.7,0.1-10.5,2.7-12.5,5c-13.5,15.9-27.1,31.8-40.6,47.7c-2.5,2.8,2.1,5,8,5
				c91.1,0,182.2,0,273.4,0C403.9,281,408.4,278.8,405.9,276z"/>
			<g>
				<path class="st5" d="M179,234c-0.4,0.6-1.8,1.2-3.1,1.2c-2.2,0-4.3,0-6.5,0c-1.3,0-1.9-0.5-1.4-1.2c0.9-1.1,1.7-2.2,2.6-3.2
					c0.5-0.6,1.9-1.2,3.1-1.2c2.5,0,3.7,0,6.2,0c1.2,0,1.8,0.5,1.4,1.2C180.6,231.9,179.8,233,179,234z"/>
				<path class="st5" d="M191.5,234c-0.4,0.6-1.7,1.2-3,1.2c-2.2,0-4.3,0-6.5,0c-1.3,0-2-0.5-1.5-1.2c0.7-1.1,1.5-2.2,2.2-3.2
					c0.4-0.6,1.8-1.2,3-1.2c2.5,0,3.7,0,6.2,0c1.2,0,1.9,0.5,1.5,1.2C192.8,231.9,192.2,233,191.5,234z"/>
				<path class="st5" d="M204,234c-0.3,0.6-1.6,1.2-2.9,1.2c-2.2,0-4.3,0-6.5,0c-1.3,0-2-0.5-1.6-1.2c0.6-1.1,1.3-2.2,1.9-3.2
					c0.4-0.6,1.7-1.2,2.9-1.2c2.5,0,3.7,0,6.2,0c1.2,0,2,0.5,1.6,1.2C205,231.9,204.5,233,204,234z"/>
				<path class="st5" d="M216.5,234c-0.2,0.6-1.5,1.2-2.8,1.2c-2.2,0-4.3,0-6.5,0c-1.3,0-2.1-0.5-1.8-1.2c0.5-1.1,1-2.2,1.5-3.2
					c0.3-0.6,1.5-1.2,2.8-1.2c2.5,0,3.7,0,6.2,0c1.2,0,2,0.5,1.8,1.2C217.3,231.9,216.9,233,216.5,234z"/>
				<path class="st5" d="M229,234c-0.2,0.6-1.3,1.2-2.6,1.2c-2.2,0-4.3,0-6.5,0c-1.3,0-2.1-0.5-1.9-1.2c0.4-1.1,0.8-2.2,1.2-3.2
					c0.2-0.6,1.4-1.2,2.6-1.2c2.5,0,3.7,0,6.2,0c1.2,0,2.1,0.5,1.9,1.2C229.5,231.9,229.2,233,229,234z"/>
				<path class="st5" d="M241.4,234c-0.1,0.6-1.2,1.2-2.5,1.2c-2.2,0-4.3,0-6.5,0c-1.3,0-2.2-0.5-2-1.2c0.3-1.1,0.5-2.2,0.8-3.2
					c0.2-0.6,1.3-1.2,2.5-1.2c2.5,0,3.7,0,6.2,0c1.2,0,2.1,0.5,2,1.2C241.8,231.9,241.6,233,241.4,234z"/>
				<path class="st5" d="M253.9,234c0,0.6-1.1,1.2-2.4,1.2c-2.2,0-4.3,0-6.5,0c-1.3,0-2.2-0.5-2.2-1.2c0.2-1.1,0.3-2.2,0.5-3.2
					c0.1-0.6,1.2-1.2,2.4-1.2c2.5,0,3.7,0,6.2,0c1.2,0,2.2,0.5,2.1,1.2C254,231.9,254,233,253.9,234z"/>
				<path class="st5" d="M266.4,234c0,0.6-1,1.2-2.2,1.2c-2.2,0-4.3,0-6.5,0c-1.3,0-2.3-0.5-2.3-1.2c0-1.1,0.1-2.2,0.1-3.2
					c0-0.6,1-1.2,2.2-1.2c2.5,0,3.7,0,6.2,0c1.2,0,2.2,0.5,2.3,1.2C266.3,231.9,266.3,233,266.4,234z"/>
				<path class="st5" d="M278.9,234c0.1,0.6-0.8,1.2-2.1,1.2c-2.2,0-4.3,0-6.5,0c-1.3,0-2.4-0.5-2.4-1.2c-0.1-1.1-0.2-2.2-0.2-3.2
					c0-0.6,0.9-1.2,2.1-1.2c2.5,0,3.7,0,6.2,0c1.2,0,2.3,0.5,2.4,1.2C278.5,231.9,278.7,233,278.9,234z"/>
				<path class="st5" d="M291.3,234c0.2,0.6-0.7,1.2-2,1.2c-2.2,0-4.3,0-6.5,0c-1.3,0-2.4-0.5-2.5-1.2c-0.2-1.1-0.4-2.2-0.6-3.2
					c-0.1-0.6,0.8-1.2,2-1.2c2.5,0,3.7,0,6.2,0c1.2,0,2.4,0.5,2.5,1.2C290.7,231.9,291,233,291.3,234z"/>
				<path class="st5" d="M303.8,234c0.2,0.6-0.6,1.2-1.9,1.2c-2.2,0-4.3,0-6.5,0c-1.3,0-2.5-0.5-2.7-1.2c-0.3-1.1-0.6-2.2-0.9-3.2
					c-0.2-0.6,0.7-1.2,1.9-1.2c2.5,0,3.7,0,6.2,0c1.2,0,2.4,0.5,2.7,1.2C303,231.9,303.4,233,303.8,234z"/>
				<path class="st5" d="M316.3,234c0.3,0.6-0.5,1.2-1.7,1.2c-2.2,0-4.3,0-6.5,0c-1.3,0-2.5-0.5-2.8-1.2c-0.4-1.1-0.9-2.2-1.3-3.2
					c-0.3-0.6,0.5-1.2,1.7-1.2c2.5,0,3.7,0,6.2,0c1.2,0,2.5,0.5,2.8,1.2C315.2,231.9,315.8,233,316.3,234z"/>
				<path class="st5" d="M328.8,234c0.4,0.6-0.3,1.2-1.6,1.2c-2.2,0-4.3,0-6.5,0c-1.3,0-2.6-0.5-2.9-1.2c-0.5-1.1-1.1-2.2-1.6-3.2
					c-0.3-0.6,0.4-1.2,1.6-1.2c2.5,0,3.7,0,6.2,0c1.2,0,2.5,0.5,2.9,1.2C327.5,231.9,328.1,233,328.8,234z"/>
				<path class="st5" d="M190.3,240.4c-0.4,0.6-1.8,1.2-3.1,1.2c-2.3,0-4.6,0-6.8,0c-1.4,0-2.1-0.5-1.7-1.2c0.7-1.1,1.4-2.2,2.2-3.2
					c0.4-0.6,1.8-1.2,3.1-1.2c2.2,0,4.4,0,6.5,0c1.3,0,2,0.5,1.7,1.2C191.6,238.3,190.9,239.3,190.3,240.4z"/>
				<path class="st5" d="M203.5,240.4c-0.3,0.6-1.6,1.2-3,1.2c-2.3,0-4.6,0-6.8,0c-1.4,0-2.2-0.5-1.8-1.2c0.6-1.1,1.2-2.2,1.8-3.2
					c0.4-0.6,1.7-1.2,3-1.2c2.2,0,4.4,0,6.5,0c1.3,0,2.1,0.5,1.8,1.2C204.5,238.3,204,239.3,203.5,240.4z"/>
				<path class="st5" d="M216.7,240.4c-0.2,0.6-1.5,1.2-2.9,1.2c-2.3,0-4.6,0-6.8,0c-1.4,0-2.2-0.5-1.9-1.2c0.5-1.1,1-2.2,1.5-3.2
					c0.3-0.6,1.6-1.2,2.9-1.2c2.2,0,4.4,0,6.5,0c1.3,0,2.2,0.5,1.9,1.2C217.4,238.3,217.1,239.3,216.7,240.4z"/>
				<path class="st5" d="M229.8,240.4c-0.2,0.6-1.4,1.2-2.7,1.2c-2.3,0-4.6,0-6.8,0c-1.4,0-2.3-0.5-2.1-1.2c0.4-1.1,0.7-2.2,1.1-3.2
					c0.2-0.6,1.4-1.2,2.7-1.2c2.2,0,4.4,0,6.5,0c1.3,0,2.2,0.5,2.1,1.2C230.4,238.3,230.1,239.3,229.8,240.4z"/>
				<path class="st5" d="M243,240.4c-0.1,0.6-1.3,1.2-2.6,1.2c-2.3,0-4.6,0-6.8,0c-1.4,0-2.3-0.5-2.2-1.2c0.3-1.1,0.5-2.2,0.8-3.2
					c0.1-0.6,1.3-1.2,2.6-1.2c2.2,0,4.4,0,6.5,0c1.3,0,2.3,0.5,2.2,1.2C243.3,238.3,243.2,239.3,243,240.4z"/>
				<path class="st5" d="M256.2,240.4c0,0.6-1.1,1.2-2.5,1.2c-2.3,0-4.6,0-6.8,0c-1.4,0-2.4-0.5-2.3-1.2c0.1-1.1,0.3-2.2,0.4-3.2
					c0.1-0.6,1.2-1.2,2.5-1.2c2.2,0,4.4,0,6.5,0c1.3,0,2.3,0.5,2.3,1.2C256.2,238.3,256.2,239.3,256.2,240.4z"/>
				<path class="st5" d="M269.4,240.4c0.1,0.6-1,1.2-2.4,1.2c-2.3,0-4.6,0-6.8,0c-1.4,0-2.4-0.5-2.4-1.2c0-1.1,0-2.2,0-3.2
					c0-0.6,1.1-1.2,2.4-1.2c2.2,0,4.4,0,6.5,0c1.3,0,2.4,0.5,2.4,1.2C269.2,238.3,269.3,239.3,269.4,240.4z"/>
				<path class="st5" d="M282.5,240.4c0.1,0.6-0.9,1.2-2.2,1.2c-2.3,0-4.6,0-6.8,0c-1.4,0-2.5-0.5-2.6-1.2c-0.1-1.1-0.2-2.2-0.3-3.2
					c-0.1-0.6,0.9-1.2,2.2-1.2c2.2,0,4.4,0,6.5,0c1.3,0,2.4,0.5,2.6,1.2C282.1,238.3,282.3,239.3,282.5,240.4z"/>
				<path class="st5" d="M295.7,240.4c0.2,0.6-0.8,1.2-2.1,1.2c-2.3,0-4.6,0-6.8,0c-1.4,0-2.6-0.5-2.7-1.2c-0.2-1.1-0.4-2.2-0.7-3.2
					c-0.1-0.6,0.8-1.2,2.1-1.2c2.2,0,4.4,0,6.5,0c1.3,0,2.5,0.5,2.7,1.2C295,238.3,295.4,239.3,295.7,240.4z"/>
				<path class="st5" d="M308.9,240.4c0.3,0.6-0.6,1.2-2,1.2c-2.3,0-4.6,0-6.8,0c-1.4,0-2.6-0.5-2.8-1.2c-0.3-1.1-0.7-2.2-1-3.2
					c-0.2-0.6,0.7-1.2,2-1.2c2.2,0,4.4,0,6.5,0c1.3,0,2.5,0.5,2.8,1.2C308,238.3,308.4,239.3,308.9,240.4z"/>
				<path class="st5" d="M322,240.4c0.3,0.6-0.5,1.2-1.8,1.2c-2.3,0-4.6,0-6.8,0c-1.4,0-2.7-0.5-2.9-1.2c-0.5-1.1-0.9-2.2-1.4-3.2
					c-0.3-0.6,0.6-1.2,1.9-1.2c2.2,0,4.4,0,6.5,0c1.3,0,2.6,0.5,2.9,1.2C320.9,238.3,321.5,239.3,322,240.4z"/>
				<path class="st5" d="M335.2,240.4c0.4,0.6-0.4,1.2-1.7,1.2c-2.3,0-4.6,0-6.8,0c-1.4,0-2.7-0.5-3.1-1.2c-0.6-1.1-1.1-2.2-1.7-3.2
					c-0.3-0.6,0.4-1.2,1.7-1.2c2.2,0,4.4,0,6.5,0c1.3,0,2.7,0.5,3.1,1.2C333.9,238.3,334.5,239.3,335.2,240.4z"/>
				<path class="st5" d="M188.4,246.8c-0.4,0.6-1.8,1.2-3.2,1.2c-2.4,0-4.8,0-7.2,0c-1.4,0-2.2-0.5-1.8-1.2c0.7-1.1,1.4-2.2,2.1-3.2
					c0.4-0.6,1.9-1.2,3.2-1.2c2.3,0,4.6,0,6.9,0c1.4,0,2.2,0.5,1.8,1.2C189.6,244.6,189,245.7,188.4,246.8z"/>
				<path class="st5" d="M202.3,246.8c-0.3,0.6-1.7,1.2-3.1,1.2c-2.4,0-4.8,0-7.2,0c-1.4,0-2.3-0.5-1.9-1.2c0.6-1.1,1.2-2.2,1.8-3.2
					c0.3-0.6,1.7-1.2,3.1-1.2c2.3,0,4.6,0,6.9,0c1.4,0,2.2,0.5,1.9,1.2C203.3,244.6,202.8,245.7,202.3,246.8z"/>
				<path class="st5" d="M216.2,246.8c-0.2,0.6-1.5,1.2-3,1.2c-2.4,0-4.8,0-7.2,0c-1.4,0-2.3-0.5-2.1-1.2c0.5-1.1,0.9-2.2,1.4-3.2
					c0.3-0.6,1.6-1.2,3-1.2c2.3,0,4.6,0,6.9,0c1.4,0,2.3,0.5,2.1,1.2C216.9,244.6,216.5,245.7,216.2,246.8z"/>
				<path class="st5" d="M230,246.8c-0.1,0.6-1.4,1.2-2.8,1.2c-2.4,0-4.8,0-7.2,0c-1.4,0-2.4-0.5-2.2-1.2c0.4-1.1,0.7-2.2,1.1-3.2
					c0.2-0.6,1.5-1.2,2.8-1.2c2.3,0,4.6,0,6.9,0c1.4,0,2.3,0.5,2.2,1.2C230.5,244.6,230.3,245.7,230,246.8z"/>
				<path class="st5" d="M243.9,246.8c-0.1,0.6-1.3,1.2-2.7,1.2c-2.4,0-4.8,0-7.2,0c-1.4,0-2.5-0.5-2.3-1.2c0.2-1.1,0.5-2.2,0.7-3.2
					c0.1-0.6,1.4-1.2,2.7-1.2c2.3,0,4.6,0,6.9,0c1.4,0,2.4,0.5,2.3,1.2C244.1,244.6,244,245.7,243.9,246.8z"/>
				<path class="st5" d="M257.7,246.8c0,0.6-1.2,1.2-2.6,1.2c-2.4,0-4.8,0-7.2,0c-1.4,0-2.5-0.5-2.4-1.2c0.1-1.1,0.2-2.2,0.4-3.2
					c0.1-0.6,1.2-1.2,2.6-1.2c2.3,0,4.6,0,6.9,0c1.4,0,2.5,0.5,2.4,1.2C257.8,244.6,257.8,245.7,257.7,246.8z"/>
				<path class="st5" d="M271.6,246.8c0.1,0.6-1,1.2-2.5,1.2c-2.4,0-4.8,0-7.2,0c-1.4,0-2.6-0.5-2.6-1.2c0-1.1,0-2.2,0-3.2
					c0-0.6,1.1-1.2,2.5-1.2c2.3,0,4.6,0,6.9,0c1.4,0,2.5,0.5,2.6,1.2C271.4,244.6,271.5,245.7,271.6,246.8z"/>
				<path class="st5" d="M285.5,246.8c0.1,0.6-0.9,1.2-2.3,1.2c-2.4,0-4.8,0-7.2,0c-1.4,0-2.6-0.5-2.7-1.2c-0.1-1.1-0.2-2.2-0.3-3.2
					c-0.1-0.6,1-1.2,2.3-1.2c2.3,0,4.6,0,6.9,0c1.4,0,2.6,0.5,2.7,1.2C285,244.6,285.3,245.7,285.5,246.8z"/>
				<path class="st5" d="M299.3,246.8c0.2,0.6-0.8,1.2-2.2,1.2c-2.4,0-4.8,0-7.2,0c-1.4,0-2.7-0.5-2.8-1.2c-0.2-1.1-0.5-2.2-0.7-3.2
					c-0.1-0.6,0.9-1.2,2.2-1.2c2.3,0,4.6,0,6.9,0c1.4,0,2.6,0.5,2.8,1.2C298.7,244.6,299,245.7,299.3,246.8z"/>
				<path class="st5" d="M313.2,246.8c0.3,0.6-0.7,1.2-2.1,1.2c-2.4,0-4.8,0-7.2,0c-1.4,0-2.7-0.5-2.9-1.2c-0.4-1.1-0.7-2.2-1.1-3.2
					c-0.2-0.6,0.7-1.2,2.1-1.2c2.3,0,4.6,0,6.9,0c1.4,0,2.7,0.5,2.9,1.2C312.3,244.6,312.7,245.7,313.2,246.8z"/>
				<path class="st5" d="M327.1,246.8c0.3,0.6-0.5,1.2-2,1.2c-2.4,0-4.8,0-7.2,0c-1.4,0-2.8-0.5-3.1-1.2c-0.5-1.1-0.9-2.2-1.4-3.2
					c-0.3-0.6,0.6-1.2,2-1.2c2.3,0,4.6,0,6.9,0c1.4,0,2.7,0.5,3.1,1.2C325.9,244.6,326.5,245.7,327.1,246.8z"/>
				<path class="st5" d="M186.6,253.2c-0.3,0.6-1.8,1.2-3.3,1.2c-2.5,0-5,0-7.6,0c-1.5,0-2.4-0.5-2-1.2c0.7-1.1,1.4-2.2,2.1-3.2
					c0.4-0.6,1.9-1.2,3.3-1.2c2.4,0,4.8,0,7.2,0c1.4,0,2.3,0.5,2,1.2C187.8,251,187.2,252.1,186.6,253.2z"/>
				<path class="st5" d="M201.2,253.2c-0.3,0.6-1.7,1.2-3.2,1.2c-2.5,0-5,0-7.6,0c-1.5,0-2.4-0.5-2.1-1.2c0.6-1.1,1.1-2.2,1.7-3.2
					c0.3-0.6,1.8-1.2,3.2-1.2c2.4,0,4.8,0,7.2,0c1.4,0,2.4,0.5,2.1,1.2C202.1,251,201.6,252.1,201.2,253.2z"/>
				<path class="st5" d="M215.7,253.2c-0.2,0.6-1.6,1.2-3.1,1.2c-2.5,0-5,0-7.6,0c-1.5,0-2.5-0.5-2.2-1.2c0.5-1.1,0.9-2.2,1.4-3.2
					c0.3-0.6,1.6-1.2,3.1-1.2c2.4,0,4.8,0,7.2,0c1.4,0,2.4,0.5,2.2,1.2C216.4,251,216.1,252.1,215.7,253.2z"/>
				<path class="st5" d="M230.3,253.2c-0.1,0.6-1.5,1.2-3,1.2c-2.5,0-5,0-7.6,0c-1.5,0-2.5-0.5-2.3-1.2c0.3-1.1,0.7-2.2,1-3.2
					c0.2-0.6,1.5-1.2,3-1.2c2.4,0,4.8,0,7.2,0c1.4,0,2.5,0.5,2.3,1.2C230.7,251,230.5,252.1,230.3,253.2z"/>
				<path class="st5" d="M244.8,253.2c-0.1,0.6-1.3,1.2-2.8,1.2c-2.5,0-5,0-7.6,0c-1.5,0-2.6-0.5-2.5-1.2c0.2-1.1,0.4-2.2,0.7-3.2
					c0.1-0.6,1.4-1.2,2.8-1.2c2.4,0,4.8,0,7.2,0c1.4,0,2.5,0.5,2.5,1.2C245.1,251,245,252.1,244.8,253.2z"/>
				<path class="st5" d="M259.4,253.2c0,0.6-1.2,1.2-2.7,1.2c-2.5,0-5,0-7.6,0c-1.5,0-2.6-0.5-2.6-1.2c0.1-1.1,0.2-2.2,0.3-3.2
					c0.1-0.6,1.3-1.2,2.7-1.2c2.4,0,4.8,0,7.3,0c1.4,0,2.6,0.5,2.6,1.2C259.4,251,259.4,252.1,259.4,253.2z"/>
				<path class="st5" d="M273.9,253.2c0.1,0.6-1.1,1.2-2.6,1.2c-2.5,0-5,0-7.6,0c-1.5,0-2.7-0.5-2.7-1.2c0-1.1,0-2.2,0-3.2
					c0-0.6,1.1-1.2,2.6-1.2c2.4,0,4.8,0,7.2,0c1.4,0,2.6,0.5,2.7,1.2C273.7,251,273.8,252.1,273.9,253.2z"/>
				<path class="st5" d="M288.5,253.2c0.1,0.6-1,1.2-2.5,1.2c-2.5,0-5,0-7.6,0c-1.5,0-2.8-0.5-2.8-1.2c-0.1-1.1-0.3-2.2-0.4-3.2
					c-0.1-0.6,1-1.2,2.4-1.2c2.4,0,4.8,0,7.2,0c1.4,0,2.7,0.5,2.8,1.2C288,251,288.3,252.1,288.5,253.2z"/>
				<path class="st5" d="M303.1,253.2c0.2,0.6-0.8,1.2-2.3,1.2c-2.5,0-5,0-7.6,0c-1.5,0-2.8-0.5-3-1.2c-0.2-1.1-0.5-2.2-0.7-3.2
					c-0.1-0.6,0.9-1.2,2.3-1.2c2.4,0,4.8,0,7.2,0c1.4,0,2.8,0.5,3,1.2C302.4,251,302.7,252.1,303.1,253.2z"/>
				<path class="st5" d="M317.6,253.2c0.3,0.6-0.7,1.2-2.2,1.2c-2.5,0-5,0-7.6,0c-1.5,0-2.9-0.5-3.1-1.2c-0.4-1.1-0.7-2.2-1.1-3.2
					c-0.2-0.6,0.8-1.2,2.2-1.2c2.4,0,4.8,0,7.2,0c1.4,0,2.8,0.5,3.1,1.2C316.7,251,317.1,252.1,317.6,253.2z"/>
				<path class="st5" d="M332.2,253.2c0.3,0.6-0.6,1.2-2.1,1.2c-2.5,0-5,0-7.6,0c-1.5,0-2.9-0.5-3.2-1.2c-0.5-1.1-1-2.2-1.4-3.2
					c-0.3-0.6,0.6-1.2,2.1-1.2c2.4,0,4.8,0,7.2,0c1.4,0,2.9,0.5,3.2,1.2C331,251,331.6,252.1,332.2,253.2z"/>
				<path class="st5" d="M347.7,253.2c0.4,0.6-0.4,1.2-1.9,1.2c-2.5,0-5,0-7.6,0c-1.5,0-3-0.5-3.3-1.2c-0.6-1.1-1.2-2.2-1.8-3.2
					c-0.4-0.6,0.5-1.2,1.9-1.2c2.4,0,4.8,0,7.3,0c1.4,0,2.9,0.5,3.3,1.2C346.3,251,347,252.1,347.7,253.2z"/>
				<path class="st5" d="M371.3,253.2c0.5,0.6-0.2,1.2-1.7,1.2c-5.2,0-10.4,0-15.7,0c-1.5,0-3.1-0.5-3.5-1.2
					c-0.7-1.1-1.5-2.2-2.2-3.2c-0.4-0.6,0.4-1.2,1.8-1.2c5,0,10,0,15,0c1.4,0,3,0.5,3.6,1.2C369.5,251,370.4,252.1,371.3,253.2z"/>
				<path class="st5" d="M176.8,259.5c-0.4,0.6-1.9,1.2-3.5,1.2c-2.6,0-5.3,0-7.9,0c-1.6,0-2.5-0.5-2-1.2c0.7-1.1,1.5-2.2,2.2-3.2
					c0.4-0.6,2-1.2,3.5-1.2c2.5,0,5.1,0,7.6,0c1.5,0,2.4,0.5,2,1.2C178.1,257.4,177.5,258.5,176.8,259.5z"/>
				<path class="st5" d="M192.1,259.5c-0.3,0.6-1.8,1.2-3.4,1.2c-2.6,0-5.3,0-7.9,0c-1.6,0-2.5-0.5-2.2-1.2c0.6-1.1,1.2-2.2,1.9-3.2
					c0.4-0.6,1.9-1.2,3.4-1.2c2.5,0,5.1,0,7.6,0c1.5,0,2.5,0.5,2.2,1.2C193.1,257.4,192.6,258.5,192.1,259.5z"/>
				<path class="st5" d="M207.3,259.5c-0.2,0.6-1.7,1.2-3.3,1.2c-2.6,0-5.3,0-7.9,0c-1.6,0-2.6-0.5-2.3-1.2c0.5-1.1,1-2.2,1.5-3.2
					c0.3-0.6,1.8-1.2,3.3-1.2c2.5,0,5.1,0,7.6,0c1.5,0,2.5,0.5,2.3,1.2C208.1,257.4,207.7,258.5,207.3,259.5z"/>
				<path class="st5" d="M298.4,259.5c0.2,0.6-0.9,1.2-2.5,1.2c-28.1,0-56.2,0-84.4,0c-1.6,0-2.6-0.5-2.4-1.2
					c0.4-1.1,0.8-2.2,1.2-3.2c0.2-0.6,1.6-1.2,3.1-1.2c27,0,54,0,81.1,0c1.5,0,2.9,0.5,3,1.2C297.8,257.4,298.1,258.5,298.4,259.5z"
					/>
				<path class="st5" d="M314.1,259.5c0.2,0.6-0.8,1.2-2.4,1.2c-2.6,0-5.3,0-7.9,0c-1.6,0-3-0.5-3.2-1.2c-0.3-1.1-0.6-2.2-0.9-3.2
					c-0.2-0.6,0.9-1.2,2.4-1.2c2.5,0,5.1,0,7.6,0c1.5,0,2.9,0.5,3.2,1.2C313.2,257.4,313.7,258.5,314.1,259.5z"/>
				<path class="st5" d="M329.3,259.5c0.3,0.6-0.7,1.2-2.3,1.2c-2.6,0-5.3,0-7.9,0c-1.6,0-3-0.5-3.3-1.2c-0.4-1.1-0.9-2.2-1.3-3.2
					c-0.3-0.6,0.8-1.2,2.3-1.2c2.5,0,5.1,0,7.6,0c1.5,0,3,0.5,3.3,1.2C328.2,257.4,328.8,258.5,329.3,259.5z"/>
				<path class="st5" d="M376.6,259.5c0.5,0.6-0.3,1.2-1.9,1.2c-2.6,0-5.3,0-7.9,0c-1.6,0-3.2-0.5-3.7-1.2c-0.8-1.1-1.6-2.2-2.4-3.2
					c-0.5-0.6,0.4-1.2,1.9-1.2c2.5,0,5.1,0,7.6,0c1.5,0,3.1,0.5,3.7,1.2C374.8,257.4,375.7,258.5,376.6,259.5z"/>
				<path class="st5" d="M361.3,259.5c0.5,0.6-0.4,1.2-2,1.2c-2.6,0-5.3,0-7.9,0c-1.6,0-3.2-0.5-3.6-1.2c-0.7-1.1-1.4-2.2-2-3.2
					c-0.4-0.6,0.5-1.2,2-1.2c2.5,0,5.1,0,7.6,0c1.5,0,3.1,0.5,3.6,1.2C359.7,257.4,360.5,258.5,361.3,259.5z"/>
				<path class="st5" d="M345.2,259.5c0.4,0.6-0.6,1.2-2.1,1.2c-2.6,0-5.3,0-7.9,0c-1.6,0-3.1-0.5-3.4-1.2c-0.6-1.1-1.1-2.2-1.7-3.2
					c-0.3-0.6,0.6-1.2,2.1-1.2c2.5,0,5.1,0,7.6,0c1.5,0,3,0.5,3.4,1.2C343.8,257.4,344.5,258.5,345.2,259.5z"/>
				<path class="st5" d="M365.9,246.8c0.5,0.6-0.2,1.2-1.6,1.2c-10.7,0-21.4,0-32.1,0c-1.4,0-2.9-0.5-3.2-1.2
					c-0.6-1.1-1.2-2.2-1.8-3.2c-0.3-0.6,0.5-1.2,1.8-1.2c10.2,0,20.5,0,30.7,0c1.4,0,2.9,0.5,3.4,1.2
					C364.1,244.6,365,245.7,365.9,246.8z"/>
				<path class="st5" d="M355.3,234c0.5,0.6-0.1,1.2-1.4,1.2c-6.9,0-13.8,0-20.7,0c-1.3,0-2.6-0.5-3-1.2c-0.7-1.1-1.3-2.2-2-3.2
					c-0.4-0.6,0.3-1.2,1.5-1.2c6.6,0,13.1,0,19.7,0c1.2,0,2.6,0.5,3.2,1.2C353.5,231.9,354.4,233,355.3,234z"/>
				<path class="st5" d="M360.6,240.4c0.5,0.6-0.1,1.2-1.5,1.2c-6.3,0-12.7,0-19,0c-1.4,0-2.8-0.5-3.2-1.2c-0.7-1.1-1.4-2.2-2.1-3.2
					c-0.4-0.6,0.3-1.2,1.6-1.2c6.1,0,12.1,0,18.2,0c1.3,0,2.8,0.5,3.3,1.2C358.8,238.3,359.7,239.3,360.6,240.4z"/>
				<path class="st5" d="M176.6,240.4c-0.4,0.6-1.9,1.2-3.2,1.2c-3,0-6,0-8.9,0c-1.4,0-2-0.5-1.5-1.2c0.9-1.1,1.7-2.2,2.6-3.2
					c0.5-0.6,2-1.2,3.3-1.2c2.8,0,5.7,0,8.5,0c1.3,0,2,0.5,1.5,1.2C178.1,238.3,177.4,239.3,176.6,240.4z"/>
				<path class="st5" d="M174.4,246.8c-0.4,0.6-1.9,1.2-3.3,1.2c-3.9,0-7.7,0-11.6,0c-1.4,0-2.2-0.5-1.7-1.2
					c0.9-1.1,1.7-2.2,2.6-3.2c0.5-0.6,2-1.2,3.4-1.2c3.7,0,7.4,0,11.1,0c1.4,0,2.1,0.5,1.7,1.2C175.9,244.6,175.2,245.7,174.4,246.8
					z"/>
				<path class="st5" d="M172.5,253.2c-0.4,0.6-2,1.2-3.5,1.2c-4.8,0-9.6,0-14.5,0c-1.5,0-2.3-0.5-1.8-1.2c0.9-1.1,1.7-2.2,2.6-3.2
					c0.5-0.6,2.1-1.2,3.5-1.2c4.6,0,9.3,0,13.9,0c1.4,0,2.3,0.5,1.8,1.2C173.9,251,173.2,252.1,172.5,253.2z"/>
				<path class="st5" d="M161.2,259.5c-0.4,0.6-2.1,1.2-3.6,1.2c-2.6,0-5.3,0-7.9,0c-1.6,0-2.4-0.5-1.9-1.2c0.9-1.1,1.7-2.2,2.6-3.2
					c0.5-0.6,2.1-1.2,3.6-1.2c2.5,0,5.1,0,7.6,0c1.5,0,2.4,0.5,1.9,1.2C162.7,257.4,161.9,258.5,161.2,259.5z"/>
			</g>
		</g>
		<g>
			<rect x="162.7" y="93.1" class="st6" width="197" height="119.5"/>
			<rect x="162.7" y="93.1" class="st7" width="197" height="6.2"/>
			<circle class="st8" cx="169" cy="96.2" r="1.9"/>
			<circle class="st8" cx="175.5" cy="96.2" r="1.9"/>
			<circle class="st8" cx="182" cy="96.2" r="1.9"/>
		</g>
		<g>
			<rect x="172.8" y="83.9" class="st9" width="197" height="119.5"/>
			<path class="st10" d="M214.1,192.6h-2.4c-11.5,0-20.8-9.3-20.8-20.8v-56.2c0-11.5,9.3-20.8,20.8-20.8h2.4
				c11.5,0,20.8,9.3,20.8,20.8v56.2C235,183.3,225.7,192.6,214.1,192.6z"/>
			<g>
				<rect x="246.9" y="95.5" class="st11" width="1.2" height="1.8"/>
				<rect x="246.3" y="99.2" class="st11" width="1.8" height="1.8"/>
				<rect x="246.3" y="103" class="st11" width="1.8" height="1.8"/>
				<rect x="246.3" y="106.8" class="st11" width="1.8" height="1.8"/>
				<rect x="246.3" y="110.6" class="st11" width="1.8" height="1.8"/>
				<rect x="246.3" y="114.4" class="st11" width="1.8" height="1.8"/>
				<rect x="246.3" y="118.2" class="st11" width="1.8" height="1.8"/>
				<rect x="246.3" y="121.9" class="st11" width="1.8" height="1.8"/>
				<rect x="246.3" y="125.7" class="st11" width="1.8" height="1.8"/>
				<rect x="246.3" y="129.5" class="st11" width="1.8" height="1.8"/>
				<rect x="245.6" y="133.3" class="st11" width="2.4" height="1.8"/>
				<rect x="245.6" y="137.1" class="st11" width="2.4" height="1.8"/>
				<rect x="245.6" y="140.9" class="st11" width="2.4" height="1.8"/>
				<rect x="245.6" y="144.6" class="st11" width="2.4" height="1.8"/>
				<rect x="245.6" y="148.4" class="st11" width="2.4" height="1.8"/>
				<rect x="245.6" y="152.2" class="st11" width="2.4" height="1.8"/>
				<rect x="245.6" y="156" class="st11" width="2.4" height="1.8"/>
				<rect x="245.6" y="159.8" class="st11" width="2.4" height="1.8"/>
				<rect x="245.6" y="163.6" class="st11" width="2.4" height="1.8"/>
				<rect x="245.6" y="167.3" class="st11" width="2.4" height="1.8"/>
				<rect x="245.6" y="171.1" class="st11" width="2.4" height="1.8"/>
				<rect x="245.6" y="174.9" class="st11" width="2.4" height="1.8"/>
				<rect x="245.6" y="178.7" class="st11" width="2.4" height="1.8"/>
				<rect x="245.6" y="182.5" class="st11" width="2.4" height="1.8"/>
				<rect x="245.6" y="186.3" class="st11" width="2.4" height="1.8"/>
				<rect x="245.6" y="190" class="st11" width="2.4" height="1.8"/>
				<rect x="255.9" y="95.5" class="st12" width="41.5" height="1.8"/>
				<rect x="255.9" y="99.1" class="st12" width="29.7" height="1.8"/>
				<rect x="323.7" y="99.1" class="st12" width="5.5" height="1.8"/>
				<rect x="332.1" y="99.1" class="st13" width="10.5" height="1.8"/>
				<rect x="288.4" y="99.1" class="st14" width="32.7" height="1.8"/>
				<rect x="263.9" y="102.7" class="st12" width="27.3" height="1.8"/>
				<rect x="274.3" y="106.4" class="st12" width="25.2" height="1.8"/>
				<rect x="274.3" y="110" class="st12" width="17.9" height="1.8"/>
				<rect x="294.8" y="110" class="st14" width="23.1" height="1.8"/>
				<rect x="320.3" y="110" class="st13" width="8.4" height="1.8"/>
				<rect x="323" y="131.8" class="st13" width="6.2" height="1.8"/>
				<rect x="308.3" y="160.9" class="st13" width="6.2" height="1.8"/>
				<rect x="320.3" y="168.2" class="st13" width="8.4" height="1.8"/>
				<rect x="312.7" y="179.1" class="st13" width="3.9" height="1.8"/>
				<rect x="290" y="153.7" class="st13" width="5.8" height="1.8"/>
				<rect x="303.4" y="142.7" class="st13" width="8.3" height="1.8"/>
				<rect x="290.6" y="120.9" class="st13" width="8.4" height="1.8"/>
				<rect x="274.3" y="113.6" class="st12" width="25.2" height="1.8"/>
				<rect x="263.9" y="117.3" class="st12" width="27.3" height="1.8"/>
				<rect x="293.7" y="117.3" class="st12" width="11.5" height="1.8"/>
				<rect x="263.9" y="120.9" class="st12" width="24" height="1.8"/>
				<rect x="255.9" y="124.6" class="st12" width="17.8" height="1.8"/>
				<rect x="308.1" y="117.2" class="st12" width="6.6" height="1.8"/>
				<rect x="255.9" y="128.2" class="st12" width="26.1" height="1.8"/>
				<rect x="263.9" y="131.8" class="st12" width="20.1" height="1.8"/>
				<rect x="286.3" y="131.8" class="st14" width="16.2" height="1.8"/>
				<rect x="304.7" y="131.8" class="st14" width="16.2" height="1.8"/>
				<rect x="263.9" y="135.5" class="st12" width="35.7" height="1.8"/>
				<rect x="274.3" y="139.1" class="st12" width="17.9" height="1.8"/>
				<rect x="274.3" y="142.7" class="st12" width="27.1" height="1.8"/>
				<rect x="274.3" y="146.4" class="st12" width="21.3" height="1.8"/>
				<rect x="274.3" y="150" class="st12" width="27.1" height="1.8"/>
				<rect x="264.2" y="153.7" class="st12" width="23.7" height="1.8"/>
				<rect x="290.1" y="168.2" class="st14" width="28.3" height="1.8"/>
				<rect x="255.9" y="160.9" class="st12" width="21.8" height="1.8"/>
				<rect x="275.9" y="157.3" class="st12" width="4.7" height="1.8"/>
				<rect x="255.9" y="164.6" class="st12" width="26.8" height="1.8"/>
				<rect x="303.2" y="179.1" class="st12" width="7.2" height="1.8"/>
				<rect x="287.2" y="179.1" class="st14" width="13.7" height="1.8"/>
				<rect x="263.9" y="168.2" class="st12" width="24" height="1.8"/>
				<rect x="263.9" y="171.9" class="st12" width="26.3" height="1.8"/>
				<rect x="274.3" y="175.5" class="st12" width="28.2" height="1.8"/>
				<rect x="274.3" y="179.1" class="st12" width="10.6" height="1.8"/>
				<rect x="274.3" y="182.8" class="st12" width="23.1" height="1.8"/>
				<rect x="263.9" y="186.4" class="st12" width="15.6" height="1.8"/>
				<rect x="282.5" y="160.9" class="st12" width="10.4" height="1.8"/>
				<rect x="295.5" y="160.9" class="st14" width="10.4" height="1.8"/>
				<rect x="263.9" y="190" class="st12" width="27.3" height="1.8"/>
				<rect x="294.5" y="190" class="st12" width="8.1" height="1.8"/>
			</g>
			<g>
				<rect x="195.1" y="103.2" class="st11" width="1" height="1.5"/>
				<rect x="194.7" y="105.6" class="st11" width="1.5" height="1.5"/>
				<rect x="194.7" y="108" class="st11" width="1.5" height="1.5"/>
				<rect x="194.7" y="110.4" class="st11" width="1.5" height="1.5"/>
				<rect x="194.7" y="112.8" class="st11" width="1.5" height="1.5"/>
				<rect x="194.7" y="115.2" class="st11" width="1.5" height="1.5"/>
				<rect x="194.7" y="117.6" class="st11" width="1.5" height="1.5"/>
				<rect x="194.7" y="120" class="st11" width="1.5" height="1.5"/>
				<rect x="194.7" y="122.4" class="st11" width="1.5" height="1.5"/>
				<rect x="194.7" y="124.8" class="st11" width="1.5" height="1.5"/>
				<rect x="194.1" y="127.3" class="st11" width="2" height="1.5"/>
				<rect x="194.1" y="129.7" class="st11" width="2" height="1.5"/>
				<rect x="194.1" y="132.1" class="st11" width="2" height="1.5"/>
				<rect x="194.1" y="134.5" class="st11" width="2" height="1.5"/>
				<rect x="194.1" y="136.9" class="st11" width="2" height="1.5"/>
				<rect x="194.1" y="139.3" class="st11" width="2" height="1.5"/>
				<rect x="194.1" y="141.7" class="st11" width="2" height="1.5"/>
				<rect x="194.1" y="144.1" class="st11" width="2" height="1.5"/>
				<rect x="194.1" y="146.5" class="st11" width="2" height="1.5"/>
				<rect x="194.1" y="148.9" class="st11" width="2" height="1.5"/>
				<rect x="194.1" y="151.3" class="st11" width="2" height="1.5"/>
				<rect x="194.1" y="153.7" class="st11" width="2" height="1.5"/>
				<rect x="194.1" y="156.1" class="st11" width="2" height="1.5"/>
				<rect x="194.1" y="158.6" class="st11" width="2" height="1.5"/>
				<rect x="194.1" y="161" class="st11" width="2" height="1.5"/>
				<rect x="194.1" y="163.4" class="st11" width="2" height="1.5"/>
				<rect x="194.1" y="165.8" class="st11" width="2" height="1.5"/>
				<rect x="194.1" y="168.2" class="st11" width="2" height="1.5"/>
				<rect x="194.1" y="170.6" class="st11" width="2" height="1.5"/>
				<rect x="194.1" y="173" class="st11" width="2" height="1.5"/>
				<rect x="194.1" y="175.4" class="st11" width="2" height="1.5"/>
				<rect x="194.1" y="177.8" class="st11" width="2" height="1.5"/>
				<rect x="194.1" y="180.2" class="st11" width="2" height="1.5"/>
				<rect x="194.1" y="182.6" class="st11" width="2" height="1.5"/>
				<rect x="201" y="103.2" class="st12" width="19.8" height="1.5"/>
				<rect x="201" y="105.6" class="st12" width="14.1" height="1.5"/>
				<rect x="207.3" y="108" class="st12" width="13" height="1.5"/>
				<rect x="214.7" y="110.4" class="st12" width="12" height="1.5"/>
				<rect x="214.7" y="112.8" class="st12" width="8.5" height="1.5"/>
				<rect x="214.7" y="115.2" class="st12" width="12" height="1.5"/>
				<rect x="207.3" y="117.6" class="st12" width="13" height="1.5"/>
				<rect x="207.3" y="120" class="st12" width="11.5" height="1.5"/>
				<rect x="201" y="122.4" class="st12" width="8.5" height="1.5"/>
				<rect x="201" y="124.8" class="st12" width="12.4" height="1.5"/>
				<rect x="207.3" y="127.3" class="st12" width="9.6" height="1.5"/>
				<rect x="207.3" y="129.7" class="st12" width="17" height="1.5"/>
				<rect x="214.7" y="132.1" class="st12" width="8.5" height="1.5"/>
				<rect x="214.7" y="134.5" class="st12" width="12.9" height="1.5"/>
				<rect x="214.7" y="136.9" class="st12" width="10.1" height="1.5"/>
				<rect x="214.7" y="139.3" class="st12" width="12.9" height="1.5"/>
				<rect x="207.4" y="141.7" class="st12" width="11.3" height="1.5"/>
				<rect x="201" y="144.1" class="st12" width="10.4" height="1.5"/>
				<rect x="213" y="144.1" class="st12" width="2.2" height="1.5"/>
				<rect x="201" y="146.5" class="st12" width="12.8" height="1.5"/>
				<rect x="207.3" y="148.9" class="st12" width="11.5" height="1.5"/>
				<rect x="207.3" y="151.3" class="st12" width="12.5" height="1.5"/>
				<rect x="214.7" y="153.7" class="st12" width="13.4" height="1.5"/>
				<rect x="214.7" y="156.1" class="st12" width="5.1" height="1.5"/>
				<rect x="214.7" y="158.6" class="st12" width="11" height="1.5"/>
				<rect x="207.3" y="161" class="st12" width="7.4" height="1.5"/>
				<rect x="216.5" y="161" class="st12" width="3.3" height="1.5"/>
				<rect x="207.3" y="163.4" class="st12" width="12.3" height="1.5"/>
				<rect x="214.7" y="165.8" class="st12" width="5.6" height="1.5"/>
				<rect x="214.7" y="168.2" class="st12" width="12.9" height="1.5"/>
				<rect x="207.3" y="170.6" class="st12" width="13" height="1.5"/>
				<rect x="201" y="173" class="st12" width="16.5" height="1.5"/>
				<rect x="201" y="175.4" class="st12" width="10.4" height="1.5"/>
				<rect x="207.3" y="177.8" class="st12" width="8.1" height="1.5"/>
				<rect x="216.9" y="177.8" class="st12" width="4.4" height="1.5"/>
				<rect x="201" y="180.2" class="st12" width="12.4" height="1.5"/>
				<rect x="201" y="182.6" class="st12" width="4.9" height="1.5"/>
			</g>
			<rect x="172.8" y="83.9" class="st15" width="197" height="6.2"/>
			<circle class="st6" cx="179.1" cy="87" r="1.9"/>
			<circle class="st6" cx="185.5" cy="87" r="1.9"/>
			<circle class="st6" cx="192" cy="87" r="1.9"/>
		</g>
	</g>
	<g>
		<rect x="340.6" y="64.3" class="st6" width="53.3" height="70.8"/>
		<rect x="346.5" y="69.2" class="st14" width="10.6" height="10.6"/>
		<rect x="362.7" y="70.2" class="st14" width="13.6" height="1.6"/>
		<rect x="362.7" y="77" class="st14" width="18.1" height="1.6"/>
		<rect x="380.2" y="70.2" class="st14" width="7.7" height="1.6"/>
		
			<rect x="374.3" y="73.6" transform="matrix(-1 -1.224647e-16 1.224647e-16 -1 762.2535 148.7035)" class="st14" width="13.6" height="1.6"/>
		
			<rect x="362.7" y="73.6" transform="matrix(-1 -1.224647e-16 1.224647e-16 -1 733.0836 148.7035)" class="st14" width="7.7" height="1.6"/>
		<rect x="346.5" y="85.6" class="st14" width="10.6" height="10.6"/>
		<rect x="362.7" y="86.5" class="st14" width="13.6" height="1.6"/>
		<rect x="362.7" y="93.4" class="st14" width="18.1" height="1.6"/>
		<rect x="380.2" y="86.5" class="st14" width="7.7" height="1.6"/>
		
			<rect x="374.3" y="90" transform="matrix(-1 -1.224647e-16 1.224647e-16 -1 762.2535 181.4573)" class="st14" width="13.6" height="1.6"/>
		
			<rect x="362.7" y="90" transform="matrix(-1 -1.224647e-16 1.224647e-16 -1 733.0836 181.4573)" class="st14" width="7.7" height="1.6"/>
		<rect x="346.5" y="101.9" class="st14" width="10.6" height="10.6"/>
		<rect x="362.7" y="102.9" class="st14" width="13.6" height="1.6"/>
		<rect x="362.7" y="109.7" class="st14" width="18.1" height="1.6"/>
		<rect x="380.2" y="102.9" class="st14" width="7.7" height="1.6"/>
		
			<rect x="374.3" y="106.3" transform="matrix(-1 -1.224647e-16 1.224647e-16 -1 762.2535 214.2111)" class="st14" width="13.6" height="1.6"/>
		
			<rect x="362.7" y="106.3" transform="matrix(-1 -1.224647e-16 1.224647e-16 -1 733.0836 214.2111)" class="st14" width="7.7" height="1.6"/>
		<rect x="346.5" y="118.3" class="st14" width="10.6" height="10.6"/>
		<rect x="362.7" y="119.3" class="st14" width="13.6" height="1.6"/>
		<rect x="362.7" y="126.1" class="st14" width="18.1" height="1.6"/>
		<rect x="380.2" y="119.3" class="st14" width="7.7" height="1.6"/>
		
			<rect x="374.3" y="122.7" transform="matrix(-1 -1.224647e-16 1.224647e-16 -1 762.2535 246.965)" class="st14" width="13.6" height="1.6"/>
		
			<rect x="362.7" y="122.7" transform="matrix(-1 -1.224647e-16 1.224647e-16 -1 733.0836 246.965)" class="st14" width="7.7" height="1.6"/>
	</g>
	<rect x="240.3" y="53.4" class="st13" width="58" height="15.8"/>
	<rect x="434.4" y="100.9" class="st13" width="39.4" height="15.8"/>
	<g>
		<rect x="397.6" y="156.8" class="st16" width="89.1" height="78"/>
		<rect x="391.9" y="151.1" class="st17" width="89.1" height="78"/>
		<rect x="386.2" y="145.4" class="st9" width="89.1" height="78"/>
		<g>
			<rect x="395" y="152.9" class="st11" width="0.8" height="1.2"/>
			<rect x="394.7" y="155.4" class="st11" width="1.2" height="1.2"/>
			<rect x="394.7" y="157.8" class="st11" width="1.2" height="1.2"/>
			<rect x="394.7" y="160.3" class="st11" width="1.2" height="1.2"/>
			<rect x="394.7" y="162.8" class="st11" width="1.2" height="1.2"/>
			<rect x="394.7" y="165.2" class="st11" width="1.2" height="1.2"/>
			<rect x="394.7" y="167.7" class="st11" width="1.2" height="1.2"/>
			<rect x="394.7" y="170.2" class="st11" width="1.2" height="1.2"/>
			<rect x="394.7" y="172.6" class="st11" width="1.2" height="1.2"/>
			<rect x="394.7" y="175.1" class="st11" width="1.2" height="1.2"/>
			<rect x="394.2" y="177.6" class="st11" width="1.6" height="1.2"/>
			<rect x="394.2" y="180" class="st11" width="1.6" height="1.2"/>
			<rect x="394.2" y="182.5" class="st11" width="1.6" height="1.2"/>
			<rect x="394.2" y="185" class="st11" width="1.6" height="1.2"/>
			<rect x="394.2" y="187.5" class="st11" width="1.6" height="1.2"/>
			<rect x="394.2" y="189.9" class="st11" width="1.6" height="1.2"/>
			<rect x="394.2" y="192.4" class="st11" width="1.6" height="1.2"/>
			<rect x="394.2" y="194.9" class="st11" width="1.6" height="1.2"/>
			<rect x="394.2" y="197.3" class="st11" width="1.6" height="1.2"/>
			<rect x="394.2" y="199.8" class="st11" width="1.6" height="1.2"/>
			<rect x="394.2" y="202.3" class="st11" width="1.6" height="1.2"/>
			<rect x="394.2" y="204.7" class="st11" width="1.6" height="1.2"/>
			<rect x="394.2" y="207.2" class="st11" width="1.6" height="1.2"/>
			<rect x="394.2" y="209.7" class="st11" width="1.6" height="1.2"/>
			<rect x="394.2" y="212.1" class="st11" width="1.6" height="1.2"/>
			<rect x="394.2" y="214.6" class="st11" width="1.6" height="1.2"/>
			<rect x="400.9" y="152.9" class="st12" width="27.1" height="1.2"/>
			<rect x="400.9" y="155.3" class="st12" width="19.4" height="1.2"/>
			<rect x="445.2" y="155.3" class="st12" width="3.6" height="1.2"/>
			<rect x="450.6" y="155.3" class="st13" width="6.9" height="1.2"/>
			<rect x="422.1" y="155.3" class="st14" width="21.3" height="1.2"/>
			<rect x="406.1" y="157.6" class="st12" width="17.8" height="1.2"/>
			<rect x="413" y="160" class="st12" width="16.4" height="1.2"/>
			<rect x="413" y="162.4" class="st12" width="11.7" height="1.2"/>
			<rect x="426.3" y="162.4" class="st14" width="15.1" height="1.2"/>
			<rect x="442.9" y="162.4" class="st13" width="5.5" height="1.2"/>
			<rect x="444.7" y="176.6" class="st13" width="4.1" height="1.2"/>
			<rect x="435.1" y="195.6" class="st13" width="4.1" height="1.2"/>
			<rect x="442.9" y="200.4" class="st13" width="5.5" height="1.2"/>
			<rect x="438" y="207.5" class="st13" width="2.5" height="1.2"/>
			<rect x="423.2" y="190.9" class="st13" width="3.8" height="1.2"/>
			<rect x="431.9" y="183.8" class="st13" width="5.4" height="1.2"/>
			<rect x="423.6" y="169.5" class="st13" width="5.5" height="1.2"/>
			<rect x="413" y="164.8" class="st12" width="16.4" height="1.2"/>
			<rect x="406.1" y="167.1" class="st12" width="17.8" height="1.2"/>
			<rect x="425.6" y="167.1" class="st12" width="7.5" height="1.2"/>
			<rect x="406.1" y="169.5" class="st12" width="15.7" height="1.2"/>
			<rect x="400.9" y="171.9" class="st12" width="11.6" height="1.2"/>
			<rect x="435" y="167.1" class="st12" width="4.3" height="1.2"/>
			<rect x="400.9" y="174.3" class="st12" width="17" height="1.2"/>
			<rect x="406.1" y="176.6" class="st12" width="13.1" height="1.2"/>
			<rect x="420.8" y="176.6" class="st14" width="10.6" height="1.2"/>
			<rect x="432.8" y="176.6" class="st14" width="10.6" height="1.2"/>
			<rect x="406.1" y="179" class="st12" width="23.3" height="1.2"/>
			<rect x="413" y="181.4" class="st12" width="11.7" height="1.2"/>
			<rect x="413" y="183.8" class="st12" width="17.7" height="1.2"/>
			<rect x="413" y="186.1" class="st12" width="13.9" height="1.2"/>
			<rect x="413" y="188.5" class="st12" width="17.7" height="1.2"/>
			<rect x="406.4" y="190.9" class="st12" width="15.4" height="1.2"/>
			<rect x="423.2" y="200.4" class="st14" width="18.5" height="1.2"/>
			<rect x="400.9" y="195.6" class="st12" width="14.2" height="1.2"/>
			<rect x="414" y="193.2" class="st12" width="3" height="1.2"/>
			<rect x="400.9" y="198" class="st12" width="17.5" height="1.2"/>
			<rect x="431.8" y="207.5" class="st12" width="4.7" height="1.2"/>
			<rect x="421.4" y="207.5" class="st14" width="8.9" height="1.2"/>
			<rect x="406.1" y="200.4" class="st12" width="15.7" height="1.2"/>
			<rect x="406.1" y="202.7" class="st12" width="17.1" height="1.2"/>
			<rect x="413" y="205.1" class="st12" width="18.4" height="1.2"/>
			<rect x="413" y="207.5" class="st12" width="6.9" height="1.2"/>
			<rect x="413" y="209.9" class="st12" width="15.1" height="1.2"/>
			<rect x="406.1" y="212.2" class="st12" width="10.2" height="1.2"/>
			<rect x="418.3" y="195.6" class="st12" width="6.8" height="1.2"/>
			<rect x="426.8" y="195.6" class="st14" width="6.8" height="1.2"/>
			<rect x="406.1" y="214.6" class="st12" width="17.8" height="1.2"/>
			<rect x="426.1" y="214.6" class="st12" width="5.3" height="1.2"/>
		</g>
		<rect x="386.2" y="145.4" class="st15" width="89.1" height="4.1"/>
		<circle class="st6" cx="390.3" cy="147.4" r="1.2"/>
		<circle class="st6" cx="394.5" cy="147.4" r="1.2"/>
		<circle class="st6" cx="398.7" cy="147.4" r="1.2"/>
	</g>
	<g>
		<rect x="66.1" y="154.2" class="st6" width="72" height="57.8"/>
		<circle class="st14" cx="102.1" cy="169.1" r="9.1"/>
		<rect x="82.6" y="183.1" class="st14" width="39" height="5.4"/>
		<rect x="82.6" y="192.7" class="st14" width="39" height="5.4"/>
		<rect x="93.7" y="203.1" class="st14" width="16.9" height="5.4"/>
	</g>
	<g>
		<rect x="102.1" y="3.5" class="st6" width="56.7" height="76.9"/>
		<rect x="111" y="10.1" class="st12" width="39" height="3"/>
		<rect x="111" y="16.4" class="st12" width="13.3" height="3"/>
		<rect x="127.3" y="16.4" class="st12" width="22.6" height="3"/>
		<rect x="111" y="22.2" class="st12" width="19" height="3"/>
		<rect x="111" y="39.9" class="st12" width="19" height="3"/>
		<rect x="132.7" y="22.2" class="st12" width="17.2" height="3"/>
		
			<rect x="136.6" y="33.7" transform="matrix(-1 -1.224647e-16 1.224647e-16 -1 286.6082 70.4772)" class="st12" width="13.3" height="3"/>
		
			<rect x="111" y="33.7" transform="matrix(-1 -1.224647e-16 1.224647e-16 -1 244.601 70.4772)" class="st12" width="22.6" height="3"/>
		
			<rect x="130.9" y="27.9" transform="matrix(-1 -1.224647e-16 1.224647e-16 -1 280.9079 58.7674)" class="st12" width="19" height="3"/>
		
			<rect x="111" y="27.9" transform="matrix(-1 -1.224647e-16 1.224647e-16 -1 239.1917 58.7674)" class="st12" width="17.2" height="3"/>
		<rect x="155.4" y="3.5" class="st10" width="3.4" height="76.9"/>
		<rect x="155.4" y="25.2" class="st12" width="3.4" height="32.4"/>
	</g>
	<g>
		<g>
			<path class="st4" d="M100.2,214.7c0-0.4-0.1-0.7-0.1-1.1h3.9c0,0.2,0,0.4,0,0.6L100.2,214.7z"/>
			<path class="st4" d="M151.5,221.7h-3.9v-2.9h3.9V221.7z M143.7,221.7h-3.9v-2.9h3.9V221.7z M135.9,221.7H132v-2.9h3.9V221.7z
				 M128.1,221.7h-3.9v-2.9h3.9V221.7z M120.3,221.7h-3.9v-2.9h3.9V221.7z M112.5,221.7l-3.9,0l0.1-2.9l0.1,0h3.7V221.7z
				 M104.1,220.2c-1.3-0.9-2.3-2.2-2.9-3.7l2.7-1.1c0.4,1,1,1.8,1.9,2.4L104.1,220.2z"/>
			<rect x="153.8" y="218.3" class="st4" width="0.8" height="3.9"/>
		</g>
	</g>
	<path class="st4" d="M103.6,150h-2.9v-3.9h2.9V150z M103.6,142.2h-2.9v-3.9h2.9V142.2z M103.6,134.4h-2.9v-3.9h2.9V134.4z
		 M103.6,126.6h-2.9v-2.3c0-0.6,0.1-1.3,0.2-1.9l2.8,0.7c-0.1,0.4-0.1,0.8-0.1,1.2V126.6z M105.2,120.5l-2-2.1
		c1.2-1.1,2.6-1.8,4.2-2.1l0.5,2.9C106.9,119.3,106,119.8,105.2,120.5z M123.3,119.1h-3.9v-2.9h3.9V119.1z M115.5,119.1h-3.9v-2.9
		h3.9V119.1z M127.7,118.1l-1.4-2.6c0.9-0.5,1.6-1.2,2.1-2.1l2.6,1.4C130.3,116.1,129.1,117.3,127.7,118.1z M131.9,110.3H129v-3.9
		h2.9V110.3z M131.9,102.5H129v-3.9h2.9V102.5z M131.9,94.7H129v-3.9h2.9V94.7z M131.9,86.9H129v-0.3h2.9V86.9z"/>
	<path class="st4" d="M235,62.7h-3.9v-2.9h3.9V62.7z M227.2,62.7h-3.9v-2.9h3.9V62.7z M219.4,62.7h-3.9v-2.9h3.9V62.7z M211.6,62.7
		h-3.9v-2.9h3.9V62.7z M203.8,62.7h-3.9v-2.9h3.9V62.7z M196,62.7h-3.9v-2.9h3.9V62.7z M188.2,62.7h-3.9v-2.9h3.9V62.7z M180.4,62.7
		h-3.9v-2.9h3.9V62.7z M172.6,62.7h-3.9v-2.9h3.9V62.7z M164.8,62.7h-1.1v-2.9h1.1V62.7z"/>
	<path class="st4" d="M421.4,142.1h-2.9v-3.9h2.9V142.1z M421.4,134.3h-2.9v-3.9h2.9V134.3z M421.4,126.5h-2.9v-3.9h2.9V126.5z
		 M421.4,118.7h-2.9v-3.9h2.9V118.7z M421.4,110.9h-2.9V107h2.9V110.9z M421.4,103.1h-2.9v-3.9h2.9V103.1z M421.4,95.3h-2.9v-3.9
		h2.9V95.3z M421.4,87.5h-2.9v-3.9h2.9V87.5z M421.4,79.7h-2.9v-3.9h2.9V79.7z M421.4,71.9h-2.9V68h2.9V71.9z M421.4,64.1h-2.9v-3.9
		h2.9V64.1z M314.9,62.7H311v-2.9h3.9V62.7z M307.1,62.7h-3.9v-2.9h3.9V62.7z M319.1,62.6l-0.5-2.9c1-0.2,1.9-0.6,2.7-1.3l2,2.1
		C322.1,61.7,320.7,62.4,319.1,62.6z M325.7,56.5l-2.8-0.7c0.1-0.4,0.1-0.8,0.1-1.2v-2.3h2.9v2.3C325.9,55.3,325.8,55.9,325.7,56.5z
		 M421.4,56.3h-2.9v-3.9h2.9V56.3z M421.4,48.5h-2.9v-3.9h2.9V48.5z M325.9,48.4H323v-3.9h2.9V48.4z M418,41.3
		c-0.4-0.9-1.1-1.7-2-2.3l1.6-2.5c1.3,0.9,2.4,2.1,3,3.6L418,41.3z M326.4,41.3l-2.7-1.2c0.7-1.5,1.7-2.7,3.1-3.5l1.6,2.5
		C327.4,39.6,326.8,40.4,326.4,41.3z M413.1,38.2h-3.9v-2.9h3.9V38.2z M405.3,38.2h-3.9v-2.9h3.9V38.2z M397.5,38.2h-3.9v-2.9h3.9
		V38.2z M389.7,38.2h-3.9v-2.9h3.9V38.2z M381.9,38.2H378v-2.9h3.9V38.2z M374.1,38.2h-3.9v-2.9h3.9V38.2z M366.3,38.2h-3.9v-2.9
		h3.9V38.2z M358.5,38.2h-3.9v-2.9h3.9V38.2z M350.7,38.2h-3.9v-2.9h3.9V38.2z M342.9,38.2H339v-2.9h3.9V38.2z M335.1,38.2h-3.9
		v-2.9h3.9V38.2z"/>
	<g>
		<polygon class="st4" points="447.5,139.7 446.1,138.3 454.1,130.3 524.6,130.3 524.6,132.2 454.9,132.2 		"/>
		<path class="st4" d="M446,142.7c-1.7,0-3-1.4-3-3c0-1.7,1.4-3,3-3c1.7,0,3,1.4,3,3C449,141.4,447.7,142.7,446,142.7z M446,138.8
			c-0.5,0-0.9,0.4-0.9,0.9c0,0.5,0.4,0.9,0.9,0.9s0.9-0.4,0.9-0.9C446.9,139.2,446.5,138.8,446,138.8z"/>
	</g>
	<g>
		<polygon class="st4" points="83.9,145.4 76.5,138 6.8,138 6.8,136 77.3,136 85.3,144 		"/>
		<path class="st4" d="M85.4,148.5c-1.7,0-3-1.4-3-3c0-1.7,1.4-3,3-3c1.7,0,3,1.4,3,3C88.4,147.1,87,148.5,85.4,148.5z M85.4,144.6
			c-0.5,0-0.9,0.4-0.9,0.9s0.4,0.9,0.9,0.9s0.9-0.4,0.9-0.9S85.9,144.6,85.4,144.6z"/>
	</g>
	<g>
		<polygon class="st4" points="278.6,46.6 271.2,39.2 201.5,39.2 201.5,37.2 272,37.2 280,45.2 		"/>
		<path class="st4" d="M280.1,49.7c-1.7,0-3-1.4-3-3c0-1.7,1.4-3,3-3c1.7,0,3,1.4,3,3C283.1,48.3,281.7,49.7,280.1,49.7z
			 M280.1,45.8c-0.5,0-0.9,0.4-0.9,0.9c0,0.5,0.4,0.9,0.9,0.9s0.9-0.4,0.9-0.9C280.9,46.2,280.5,45.8,280.1,45.8z"/>
	</g>
	<circle class="st13" cx="371.8" cy="36.8" r="4.9"/>
	<circle class="st18" cx="102.1" cy="129.4" r="4.9"/>
	<g>
		<rect x="447.8" y="245.9" class="st19" width="5.5" height="5.5"/>
		<rect x="457.6" y="245.9" class="st19" width="5.5" height="5.5"/>
		<rect x="467.4" y="245.9" class="st19" width="5.5" height="5.5"/>
		<rect x="477.2" y="245.9" class="st19" width="5.5" height="5.5"/>
	</g>
</g>
</svg>
