<?xml version="1.0" encoding="utf-8"?>
<!-- Generator: Adobe Illustrator 25.2.1, SVG Export Plug-In . SVG Version: 6.00 Build 0)  -->
<svg version="1.1" id="Layer_1" xmlns="http://www.w3.org/2000/svg" xmlns:xlink="http://www.w3.org/1999/xlink" x="0px" y="0px"
	 viewBox="0 0 574 381" style="enable-background:new 0 0 574 381;" xml:space="preserve">
<style type="text/css">
	.st0{fill:#F9F9F9;}
	.st1{fill:#E2E2E2;}
	.st2{opacity:0.5;fill:#00A9CE;}
	.st3{fill:#FFFFFF;}
	.st4{fill:#535353;}
</style>
<rect x="0.4" y="-0.5" class="st0" width="572.6" height="381"/>
<rect x="0.4" y="95.5" class="st1" width="573.6" height="1"/>
<rect x="0.4" y="152.6" class="st1" width="573.6" height="1"/>
<rect x="0.4" y="209.7" class="st1" width="573.6" height="1"/>
<rect x="0.4" y="266.8" class="st1" width="573.6" height="1"/>
<rect x="0.4" y="323.9" class="st1" width="573.6" height="1"/>
<polygon class="st2" points="501.6,280 453.4,309.2 353.3,227.5 318.1,262.1 244.6,277.5 187.2,253.7 92.4,249.3 23.9,150.1 
	0.4,164.4 0.4,381.5 572,381.5 572,337.4 "/>
<g>
	<circle class="st3" cx="23.9" cy="150" r="5"/>
	<path class="st4" d="M23.9,155.5c-3,0-5.5-2.5-5.5-5.5s2.5-5.5,5.5-5.5s5.5,2.5,5.5,5.5S27,155.5,23.9,155.5z M23.9,145.5
		c-2.5,0-4.5,2-4.5,4.5s2,4.5,4.5,4.5s4.5-2,4.5-4.5S26.4,145.5,23.9,145.5z"/>
</g>
<g>
	<circle class="st3" cx="90.9" cy="248" r="5"/>
	<path class="st4" d="M90.9,253.5c-3,0-5.5-2.5-5.5-5.5s2.5-5.5,5.5-5.5s5.5,2.5,5.5,5.5S94,253.5,90.9,253.5z M90.9,243.5
		c-2.5,0-4.5,2-4.5,4.5s2,4.5,4.5,4.5s4.5-2,4.5-4.5S93.4,243.5,90.9,243.5z"/>
</g>
<g>
	<circle class="st3" cx="186.9" cy="254" r="5"/>
	<path class="st4" d="M186.9,259.5c-3,0-5.5-2.5-5.5-5.5c0-3,2.5-5.5,5.5-5.5s5.5,2.5,5.5,5.5C192.4,257,190,259.5,186.9,259.5z
		 M186.9,249.5c-2.5,0-4.5,2-4.5,4.5c0,2.5,2,4.5,4.5,4.5s4.5-2,4.5-4.5C191.4,251.5,189.4,249.5,186.9,249.5z"/>
</g>
<g>
	<circle class="st3" cx="244.9" cy="277" r="5"/>
	<path class="st4" d="M244.9,282.5c-3,0-5.5-2.5-5.5-5.5s2.5-5.5,5.5-5.5s5.5,2.5,5.5,5.5S248,282.5,244.9,282.5z M244.9,272.5
		c-2.5,0-4.5,2-4.5,4.5s2,4.5,4.5,4.5s4.5-2,4.5-4.5S247.4,272.5,244.9,272.5z"/>
</g>
<g>
	<circle class="st3" cx="319.9" cy="261" r="5"/>
	<path class="st4" d="M319.9,266.5c-3,0-5.5-2.5-5.5-5.5s2.5-5.5,5.5-5.5s5.5,2.5,5.5,5.5S323,266.5,319.9,266.5z M319.9,256.5
		c-2.5,0-4.5,2-4.5,4.5s2,4.5,4.5,4.5s4.5-2,4.5-4.5S322.4,256.5,319.9,256.5z"/>
</g>
<g>
	<circle class="st3" cx="352.9" cy="228" r="5"/>
	<path class="st4" d="M352.9,233.5c-3,0-5.5-2.5-5.5-5.5s2.5-5.5,5.5-5.5s5.5,2.5,5.5,5.5S356,233.5,352.9,233.5z M352.9,223.5
		c-2.5,0-4.5,2-4.5,4.5s2,4.5,4.5,4.5s4.5-2,4.5-4.5S355.4,223.5,352.9,223.5z"/>
</g>
<g>
	<circle class="st3" cx="450.9" cy="307" r="5"/>
	<path class="st4" d="M450.9,312.5c-3,0-5.5-2.5-5.5-5.5s2.5-5.5,5.5-5.5s5.5,2.5,5.5,5.5S454,312.5,450.9,312.5z M450.9,302.5
		c-2.5,0-4.5,2-4.5,4.5s2,4.5,4.5,4.5s4.5-2,4.5-4.5S453.4,302.5,450.9,302.5z"/>
</g>
<g>
	<circle class="st3" cx="499.9" cy="283" r="5"/>
	<path class="st4" d="M499.9,288.5c-3,0-5.5-2.5-5.5-5.5s2.5-5.5,5.5-5.5s5.5,2.5,5.5,5.5S503,288.5,499.9,288.5z M499.9,278.5
		c-2.5,0-4.5,2-4.5,4.5s2,4.5,4.5,4.5s4.5-2,4.5-4.5S502.4,278.5,499.9,278.5z"/>
</g>
</svg>
