<?xml version="1.0" encoding="utf-8"?>
<!-- Generator: Adobe Illustrator 25.2.1, SVG Export Plug-In . SVG Version: 6.00 Build 0)  -->
<svg version="1.1"
	 id="Layer_1" xmlns:cc="http://creativecommons.org/ns#" xmlns:dc="http://purl.org/dc/elements/1.1/" xmlns:inkscape="http://www.inkscape.org/namespaces/inkscape" xmlns:rdf="http://www.w3.org/1999/02/22-rdf-syntax-ns#" xmlns:sodipodi="http://sodipodi.sourceforge.net/DTD/sodipodi-0.dtd" xmlns:svg="http://www.w3.org/2000/svg"
	 xmlns="http://www.w3.org/2000/svg" xmlns:xlink="http://www.w3.org/1999/xlink" x="0px" y="0px" viewBox="0 0 211.4 147.5"
	 style="enable-background:new 0 0 211.4 147.5;" xml:space="preserve">
<style type="text/css">
	.st0{fill:#00A3C7;}
	.st1{enable-background:new    ;}
	.st2{fill:#FFFFFF;}
</style>
<path id="path6" inkscape:connector-curvature="0" class="st0" d="M211.3,58.7c-0.1,0-0.2,0.4-0.3,0.3c-0.1,0-0.5,0-0.5-0.1
	c0-0.2,0.3-0.2,0.3-0.2c0.1-0.2-0.1-0.3-0.1-0.5c-0.1-0.1-0.2-0.2-0.2-0.5c-0.1-0.2-0.1-0.2-0.1-0.3c-0.1-0.2-0.3-0.5-0.4-0.5
	c0,0-0.2,0-0.3,0c0.1,0.3-0.1,0.5-0.5-0.1c-0.3-0.4,0.3-0.4-0.1-1.2c-0.2-0.3,0.6,0.1,0.2-0.6c-0.1-0.2-0.4-0.1-0.6-0.1
	c-0.2,0-0.3-0.1-0.4-0.2c-0.1-0.1-0.3-0.1-0.3-0.3c0-0.3,0.3-0.2,0.3-0.5c0-0.2,0-6,0-6.3s-0.2-0.2-0.3-0.3s-1.3-1.4-1.3-1.4
	s-0.2,0-0.5,0s0.1,0.2-0.3,0.4c-0.2,0.1-0.3-0.2-0.4-0.2c-0.2,0,0,0.2-0.2,0.2c-0.3,0,0.3,0.2-0.7,0.2c-0.3,0,0.1,0.3-0.4,0.3
	c-0.2,0-0.4-0.3-0.5-0.6c-0.1-0.2,0.2,0,0.1-0.5c0-0.3-0.1-0.2-0.2-0.2c-0.2,0-0.2-0.2-0.5-0.3c-0.1,0-0.1-0.1-0.2,0.1
	c-0.1,0.2-2.7,3.8-2.8,4s-0.1,0.4-0.3,1.2c0,0.2,0,0.3-0.3,0.5c-0.3,0.1-0.3,0.3-0.6,0.9c-0.2,0.4,0.1,0.2,0.1,0.6
	c0,0.2-0.4,0-0.2,0.3s-0.2,0.1,0.1,0.5c0.1,0.1,0.1,0.3-0.1,0.3c-0.1,0,0,0.2-0.3,0.2c-0.1,0-0.2,0.1-0.2,0.3s-0.1,0.4-0.3,0.4
	s-0.6,0.4-0.8,0.7c-0.3,0.4,0.4,0.6,0.2,0.8s-0.3-0.4-0.6-0.3c-0.1,0.1-0.1,0.2-0.1,0.4s-0.1,0.2-0.2,0.3c-0.2,0.3,0-0.4-0.4-0.3
	c-0.2,0,0,0.2-0.3,0.2c-0.2,0,0.1,0.3-0.3,0.3c-0.3,0-0.2-0.3-0.5-0.3c-0.2,0-0.2,0-0.2,0.1c0,0.2-0.4,0-0.4,0.2s0.2,0,0.2,0.3
	s-0.4,0.2-0.4,0.8c0,0-10.2,0-10.7,0c0-0.3-0.5,0.1-0.7,0.1c-0.3,0-0.6-0.3-0.8-0.1s-0.5-0.1-0.7,0.3c-0.2,0.3-0.9,0.5-1.2,0.8
	s-1.1,1.1-1.3,1.4c-0.3,0.3,0.4,0.3-0.5,0.9c-0.5,0.3-0.4,0.4-0.6,0.4c-0.2,0-0.3,0.3-0.6,0.4c0,0.1,0,0.1,0.1,0.2
	c0.2,0.2,0.5,0,0.5,0.2s0,0.3-0.3,0.3c0,0.3,0.3,1,0.1,1.3c-0.1,0.3-0.8,0.4-1,0.5s-0.7,0.2-0.7,0.5c0,0.4-0.9,0.1-0.8,0.4h-1.3
	c-0.2,0-0.6-0.1-0.5,0.1c-0.2,0-0.6,0.1-0.8,0s-0.2-0.4-0.5-0.4s-0.3-0.2-0.6-0.2H170c-0.3,0-1.8-0.2-1.8,0.2c0,0.3-0.7,0.2-1.1,0.3
	c-0.1,0-0.1,0-0.2,0c0,0.6,0.1,0.8,0.3,1s0.3-0.1,0.4,0.3c0.1,0.4-0.4,0.2-0.4,0.3c0,0.1,0.2,0.4,0.2,0.4c0.1,0.1,0.2,0.8,0.2,0.8
	c-0.2,0-0.3,0.1-0.5,0.2c0,0.4-0.2,0.3-0.5,0.3c0,0.2,0.1,0.4,0,0.5s-0.4,0.1-0.5,0.2c-0.4,0.2-0.5,0.6-0.9,0.7
	c-0.2,0.1-0.5,0.1-0.7,0.2s-0.3,0.3-0.5,0.5c-0.2,0.1-0.3-0.1-0.4,0.2c-0.1,0.3-0.4,0.1-0.6,0c0,0.8-1.5,0.6-1.9,1
	c-0.2,0.1-0.1,0.2-0.3,0.2c-0.1,0-0.2,0.4-0.2,0.5c-0.1,0-0.3,0-0.4,0c-0.1,0-0.1,0-0.2,0.1c-0.1,0.2-0.3,0.4-0.5,0.4
	c-0.2,0.1-0.4,0.1-0.5,0.3c-0.1,0.1-0.2,0.1-0.3,0.2c-0.6,0.1-0.7,1-1.4,1c0,0.5-0.9,0.1-1.1,0.1c-0.2,0-0.5-0.1-0.6,0.1
	c-0.3,0.3-0.4,0.3-0.9,0.3H154c-0.3,0-0.2,0-0.3-0.3c-0.1-0.2-0.3-0.3-0.5-0.4c0,0.1-0.3,0.4-0.4,0.2c0-0.1-0.1-0.1-0.1-0.2
	s-0.3-0.1-0.4-0.2c-0.3-0.1-0.6-0.3-0.9-0.4c-0.2-0.1-0.4,0-0.4-0.3c0-0.2,0-0.5,0.1-0.7s0.5-1,0.8-1.1c0.1,0,0.1,0,0.1,0
	c0.1-0.2,0-0.5,0-0.7s0.3,0,0.2-0.6c0-0.2,0.3-0.3,0.6-0.3c0.1,0,0.1-0.1,0.2-0.1c0,0,0,0-0.1,0c-0.2-0.3,0.1-1,0.2-1.3
	c0.2,0,0.4-0.1,0.6,0c0.1,0,0.2,0.2,0.2,0.3l0,0c0.1,0,0.2-0.2,0.2-0.4c0-0.3,0.1-1,0.2-1.2c0-0.1,0.2-0.6,0.4-1c-0.1,0-0.1,0-0.1,0
	l0,0c-0.2-0.1-0.4-0.7-0.4-0.8c-0.1-0.5-0.1-1.1-0.2-1.6c-0.1-0.4,0.1-1.3-0.3-1.6c-0.3-0.2-0.6-0.5-1-0.6c-0.2-0.1-0.9,0.3-1.2,0.4
	c-0.3,0.1-0.4,0.5-0.6,0.5c-0.4,0-0.3,0.6-0.5,0.8c-0.2,0.1-0.6,0.1-0.9,0.1c-0.6,0.1-0.5-0.6-0.5-1c0.3,0.1,0.1-0.3,0.2-0.4
	c0.1-0.1,0.4,0,0.6-0.1c0.2-0.1,0.2-0.3,0.5-0.3c0-0.2-0.1-0.2,0.1-0.3c0.1,0,0.1-0.2,0.1-0.3s0.3-0.1,0.4-0.4
	c0.1-0.3,0.4-0.3,0.3-0.6c0-0.4,0-0.8,0.1-1.2c0-0.2,0.2-0.7,0-0.8c-0.2-0.2-0.5-0.1-0.5-0.5s0.4-0.3,0.5-0.5
	c0.2-0.4-0.7-1.2-1.1-1.3c-0.3-0.1-0.6-0.2-0.9-0.4c-0.2-0.1,0-0.2-0.3-0.2c-0.2,0-0.3,0-0.5-0.1c-0.3-0.1-0.4-0.4-0.7-0.6
	c-0.2-0.1-0.4-0.1-0.5-0.2v-0.6c-0.6,0-1.3,0.2-1.9,0c0,0.2-0.3,0.6-0.4,0.7c-0.1,0.1-0.3,0.1-0.4,0.1c0,0.2,0.1,0.5,0.1,0.7
	c0,0.3-0.1,0.3-0.3,0.3c-0.3,0-0.6,0.4-0.9,0.6c0.3,0.2,0.1,0.7,0.1,0.9c-0.1,0.2-0.1,0.1-0.2,0.3c-0.1,0.1,0,0.3-0.3,0.3
	c0,0-0.1-0.7-0.2-0.6c0.1-0.1,0.2,0,0.2-0.2c0-0.1-0.2-0.6-0.3-0.3c-0.1,0.1-0.1,0.2-0.2,0.3h-0.1c-0.3,0-0.2,0.2-0.2,0.4
	c-0.1,0-0.2,0-0.2,0.1h-0.5c0,0.1,0,0.1-0.1,0.2c-0.1,0-0.2,0-0.2,0.1c-0.2,0-0.2,0.2-0.3,0.4s-0.1,0.6-0.4,0.6
	c-0.3,0.1-0.1,0.3,0,0.5c-0.4,0,0.1,0.7-0.3,0.6c0,0.2,0,0.3,0,0.5c0,0.1-0.2,0.1-0.2,0.3c-0.1,0.1-0.1,0.3-0.1,0.4
	c-0.1,0.2-0.3,0.1-0.2,0.4c0,0.2,0.3,1.6,0,1.6c-0.2,0.1,0.1,0.9-0.3,0.9c-0.2,0.5,0.2,0.9,0.3,1.3s0,0.8,0.5,1
	c0,0.2-0.1,0.4,0.1,0.5c0.2,0.1,0.2,0.1,0.2,0.3c0,0.5,0.1,1,0.1,1.5c0,0.1,0,0.3,0,0.4c0,0.2-0.2,0.1-0.2,0.3c0,0.2,0.1,0.4,0,0.5
	c-0.1,0.2-0.2,0.1-0.2,0.4c0,0.1,0,0.3-0.2,0.3c-0.3,0.1,0,0.4-0.3,0.5c-0.2,0.1-0.2,0.1-0.2,0.3c0.1,0.3-0.1,0.6-0.3,0.8
	c-0.1,0.1-0.1,0.3-0.2,0.4c-0.1,0.3-0.1,0.6-0.4,0.6c-0.1,0-0.2,0.3-0.2,0.4c-0.1,0.1-0.3,0.1-0.5,0.1s-0.3,0-0.5,0.1
	s-0.1,0.2-0.3,0.4c-0.2,0.1-0.4-0.2-0.5-0.2c-0.2,0-0.5-0.1-0.7,0c0-0.1,0-0.1-0.1-0.2c-0.1,0-0.1-0.3-0.1-0.4s0-0.4-0.1-0.5
	c-0.2-0.1-0.1-0.2-0.1-0.4c0-0.1,0-0.2-0.2-0.2c-0.1-0.3-0.2-1-0.3-1.3c-0.3,0-0.3-0.4-0.3-0.5c0-0.5,0-1,0.1-1.5
	c0-0.2,0.2-0.4,0.2-0.6c0-0.3-0.4-0.4-0.4-0.5s0.1-0.4,0.1-0.5c0,0-0.1,0-0.2,0l0.2-0.5c-0.4,0.1-0.2-0.9-0.2-1.1
	c0.1-0.5,0.4-0.9,0.6-1.4c0.4-0.8,0.1-0.7-0.1-1c-0.1-0.1,0-0.3,0-0.3s0.1-0.1,0.2-0.4c0.1-0.2,0.1-0.4,0.3-0.6
	c0.2-0.2,0.2,0,0.4-0.2c0.1-0.2,0.1-0.4-0.1-0.5c-0.1-0.1-0.1-0.3,0-0.3c0.1-0.1,0.2-0.4,0.2-0.7c0-0.2,0.2-0.5,0.3-0.7
	s0.3-0.6,0.3-0.8c0.1-0.3,0.3-0.3,0.4-0.5c0.2-0.2,0.1-0.3,0.1-0.4c0-0.1,0.3-0.4,0.4-0.5c0.1-0.1,0.1-0.5,0.1-0.5
	c0-0.1,0.2,0,0.3-0.1c0-0.1-0.1-0.4-0.3-0.4s-0.2,0.2-0.3,0.4s-0.2,0.3-0.3,0.2s-0.2,0.1-0.2,0.3s-0.1,0.3-0.2,0.4
	c-0.1,0.2-0.2,0.3-0.2,0.4c0,0.1,0.1,0.3,0,0.4c-0.1,0.1-0.2-0.1-0.3-0.2c-0.1-0.1-0.1,0-0.2,0.1c-0.1,0.1-0.2,0-0.4,0
	c0,0.2-0.2,0.2-0.3,0.3c-0.3,0.2,0,0.6-0.4,0.7c-0.4,0.1-0.3,0.5-0.7,0.5c-0.1-0.3,0.1-1.2,0.3-1.2l0.2-0.5c-0.3-0.1-0.2-0.3,0-0.4
	c0.2-0.1,0.8,0.2,0.9-0.5c0.1-0.4,0.4-0.8,0.8-1.3c0-0.3,0.3-0.2,0.3-0.5c0.1,0,0.2-0.2,0.1-0.3c0-0.3,0-0.3,0.2-0.5
	s0.4-0.1,0.5-0.4c0.1-0.2,0-0.6,0.2-0.5c0.1,0.1,0.2,0.2,0.1,0.5c0,0.3,0,0.3,0.2,0.3s0.4-0.3,0.4-0.3c0-0.5,0.2-0.6,0.8-0.7
	c0,0.1,0.1,0.3,0,0.4c-0.2,0.2-0.3-0.1-0.3,0.3c0,0.1,0,0.2,0.1,0.2c0.3,0.1,0.3,0,0.5-0.2s0.7-0.2,0.7-0.5c0.1-0.5,0.5-0.7,1.1-0.7
	c0.5,0,1.1,0.2,1.5-0.1s0.2-0.6,0.8-0.5c0.5,0.1,1.1,0.3,1.6,0.5c0.2,0.1,0,0.3,0.2,0.4c0.2,0.1,0.5,0.1,0.7,0.1
	c0-0.3,0-0.7,0.5-0.7c0.2,0,0.4,0.1,0.7,0.2c0.3,0.1,0.6,0.1,0.9,0.1c0.3,0,1.1-0.1,1.2,0c0.4,0.1,0.2-0.3,0.2-0.4
	c0,0-0.2-0.2-0.4-0.2c-0.1,0,0.4,0.5,0,0.3c-0.1-0.1-0.1-0.1-0.3-0.2c0.1-0.1,0.1-0.2,0.2-0.3l0,0c-0.3-0.1-0.3,0.3-0.5,0
	c-0.1-0.2,0.2-0.1,0.1-0.5c-0.1-0.3-0.4-0.8-0.6-1.1c-0.2-0.2-0.3-0.2-0.3,0s-0.2,0-0.2,0.2s-0.3,0.2-0.4,0
	c-0.1-0.2-0.1-0.2-0.3-0.2s-0.3,0.2-0.3,0.2l-0.3-0.2v-0.1l0,0c-0.2,0.1-0.5,0.2-0.7,0.1c-0.6-0.1-0.7-0.2-0.5-0.6
	c-0.3,0-0.2-0.4,0-0.5c0.1,0,0-0.2,0-0.3c-0.1,0-0.2,0-0.4,0c-0.4,0-1.4,0-1.5,0.4c-0.2,0.4-2.5-0.3-2.6,0.2c0,0.1-0.2,0-0.3,0
	s0,0.3-0.1,0.4c-0.2,0.1-0.7,0.1-0.8,0.3c-0.2,0.4-1.3,0-1.8,0c-0.1,0-0.5,0-0.5,0.2c-0.5-0.1-0.5-0.3-0.9-0.6
	c-0.2-0.2-0.2,0-0.3-0.3c0-0.1-0.1-0.3-0.1-0.4c-0.1,0-0.1,0-0.2-0.1c-0.2-0.2-0.4-0.2-0.6-0.4c-0.3-0.4-0.6-0.2-1-0.3
	c-0.5-0.1-0.3,0.1-0.3,0.1c-0.1,0-0.1-0.1-0.2-0.3c-0.1-0.1-0.1,0-0.3,0.1c-0.3,0.1-0.3,0.2-0.3,0.2c-0.1,0-0.2,0.1-0.2,0.2
	c0,0.1-0.1,0.3-0.2,0.1c-0.2-0.2,0-0.3,0-0.4c0-0.1,0.1-0.3,0.2-0.3c0.1,0,0.2-0.3,0.3-0.4c0.1-0.1,0.2-0.3,0.3-0.3s0.1-0.2,0.1-0.3
	s-0.1-0.2,0.1-0.2c0.1,0,0.3-0.1,0.4-0.1c0.1-0.1,0.2-0.3,0.3-0.3s0.2-0.1,0.3-0.2c0.1-0.1-0.1-0.2-0.1-0.2s0.2,0,0.3,0
	s0.2,0.1,0.4,0.1s0.4-0.2,0.4-0.3c0-0.2-0.3-0.3-0.5-0.3s-0.2,0.1-0.3,0.1s-0.1-0.1-0.3-0.1c-0.1,0-0.3,0.1-0.5,0.1s-0.4,0-0.6,0.2
	c-0.2,0.2-0.3,0.3-0.4,0.2c-0.1,0-0.4,0.3-0.5,0.5s-0.3,0.3-0.5,0.3c-0.2-0.1-0.2,0.1-0.3,0.3s-0.2,0.2-0.3,0.2s-0.3,0.3-0.4,0.5
	c-0.1,0.2-0.3,0.3-0.5,0.3s-0.3,0-0.5,0.2c-0.2,0.1-0.4,0.3-0.7,0.5s-0.7,0.1-1.1,0.1c-0.4,0-0.6,0.1-0.8,0.2
	c-0.2,0.1-0.4,0.3-0.6,0.6c-0.2,0.2-0.5,0.2-0.7,0.2s-0.3,0-0.4,0.2c-0.1,0.1-0.3,0.1-0.8-0.1c-0.4-0.1-0.4-0.3-0.5-0.5
	s-0.3,0.3-0.5,0.4c-0.1,0.1-0.2,0.2-0.3,0.1c-0.1-0.1,0-0.2,0-0.3c0.1-0.1,0.3-0.2,0.2-0.3c0-0.2-0.1,0-0.1-0.2s0.2-0.1,0.3-0.2
	c0.1-0.1,0.2-0.2,0.2-0.4s-0.2-0.2-0.3-0.3c-0.1-0.1-0.1,0-0.2,0.1s-0.2-0.1-0.2-0.2c0-0.2-0.1-0.1-0.2,0s0,0.3-0.1,0.5
	c-0.1,0.1-0.3,0.2-0.5,0.3s-0.2-0.1-0.2-0.1c-0.2,0-0.2,0.2-0.4,0.2c-0.1,0-0.3,0.1-0.4,0.1c0,0.1-0.1,0.2-0.2,0.2s-0.4-0.1-0.5,0.1
	c-0.1,0.2-0.5,0.1-0.6,0.2c0,0.2-0.1,0.2-0.2,0.1c-0.2,0-0.5,0-0.6-0.1s-0.3-0.1-0.2-0.4c0.1-0.2,0.2-0.3,0.4-0.4
	c0.1-0.1,1.4-1,1.6-1.2c0.3-0.3,0.5-0.4,0.7-0.6c0.3-0.3,0.4-0.4,0.6-0.6c0.1-0.1,0.5-0.5,0.8-0.8s1.1-0.8,1.5-1s0.9-0.3,1.4-0.5
	c0.4-0.1,0.8-0.3,1.1-0.4c0.3-0.1,0.5-0.2,0.6-0.5c0-0.3,0.4,0,0.6-0.1c0,0,0.1,0,0.1-0.1c-0.1-0.2-0.2-0.4-0.2-0.4
	c-0.1-0.2-0.4-0.1-0.6-0.1c-0.2,0-0.4-0.1-0.5,0.2c0,0.2-0.4-0.1-0.6-0.4c-0.2-0.2-0.2-0.2-0.3-0.2c-0.2,0,0-0.2-0.3-0.2
	c-0.2,0,0,0.2-0.3,0.2c-0.2,0-0.4,0.4-0.5,0.1c-0.1-0.2-0.4,0.2-0.6,0s-0.4,0.3-0.7,0c-0.1-0.2-0.3-0.5-0.4-0.6c0,0-0.2,0-0.5,0
	c0.1,0.4-0.4,0-0.3,0.3c0.1,0.2-0.3,0.1-0.2,0.3c0.1,0.2-0.5,0.1-0.4,0.3c0.2,0.2-0.6-0.1-0.5,0.2c0.2,0.4-0.3,0.2-0.6-0.1
	c-0.3-0.3-0.3,0-0.6-0.4c-0.3-0.6-0.5-0.1-0.7-0.4c-0.1-0.2-0.3,0.2-0.6-0.5c-0.1-0.3-0.2,0.1-0.3-0.2c-0.2-0.3-0.1,0.1-0.5,0.1
	c-0.3,0-0.2,0.2-0.2,0.5c0,0.4-0.4,0-0.5-0.3c-0.2-0.3,0.1-0.4-0.3-0.8c-0.3-0.3-0.3,0.1-0.4,0.2c-0.1,0.2-0.7-0.4-0.2-0.4
	s0.2-0.6-0.2-0.4c-0.3,0.1-0.3-0.3-0.7-0.2c-0.3,0.1-0.2-0.5-0.6-0.3s-0.6,0.1-0.7-0.1c-0.1-0.2-0.2,0.2-0.6,0.2
	c-0.2,0-0.4,0-0.3,0.3s-0.6-0.1-0.6,0.3c0,0.2-0.5,0.2-0.6-0.2c-0.2-0.4-0.4-0.6-0.7-0.6c-0.2,0.1-0.6,0.2-0.7,0
	c-0.2-0.3-0.3,0.2-0.4-0.1s-0.4-0.1-0.7,0.1c-0.2,0.1-0.5,0-0.7-0.3l0,0c-0.4-0.1-0.4-0.5-0.9-0.4c-0.3,0.1-0.7,0.3-1,0
	c0-0.1-0.1-0.1-0.1-0.2H7.4c0,0-0.1,0-0.1,0.1l0,0c0,0,0,0.1,0,0.2c0.1,0.3,0.2,0.3,0.3,0.4c0.1,0.1,0.3,0.2,0.2,0.4
	c0,0.1-0.2,0.2-0.1,0.3c0.4,0.7,0.1-0.6,0.5-0.4c0.1,0.1,0.2,0.2,0.2,0.3c0.1,0.1-0.1,0.2,0,0.4s0.3,0.4,0.2,0.5
	c0,0.1-0.1,0.1-0.2,0.2c-0.2,0.1-0.6-0.1-0.4-0.2c0.3-0.2-0.1-0.1-0.2-0.2c0-0.1,0-0.1-0.1-0.2c-0.2,0,0.1,0.6,0,0.7
	c0,0.4-0.3,0.8-0.5,1.1c0.5,0.1,0.4,0.3,0.6,0.7c0.3,0.3,0.6,0.2,0.6,0.7c0.4,0,0.3-0.5,0-0.6c-0.5-0.2-0.6-0.4-0.7-0.8
	c-0.1-0.3,0-0.3,0.3-0.2c0.1,0,0.2,0,0.2-0.1C8.2,42,8.1,42.1,8,42c-0.1-0.1-0.2-0.5,0-0.4s0.3,0.4,0.6,0.6c0.3,0.1-0.4,0.2-0.5,0.3
	c-0.2,0.3,0.1,0.6,0.4,0.7c-0.1-0.1-0.2-0.3-0.3-0.4c0.2,0,0.3-0.1,0.5-0.1c0,0.5,0.6,1.2,0.2,1.6c-0.5,0.4-0.4,1.2-0.3,1.7
	c0,0.3,0.3,1-0.1,1.1c-0.2,0.1-0.4,0.1-0.7,0.2c-0.2,0.5-0.8,1.5-1.1,0.9c-0.3-0.6-0.1-1,0.5-1.1c-0.1-0.2,0-0.3-0.1-0.6
	c0.2,0,0.2-0.1,0.2-0.3c0.2-0.1,0.3-0.2,0.5-0.3C8,45.7,8,45.5,8,45.2c0.5,0,0-1-0.2-1.1C7.5,44.6,7.4,45,7,45.4
	c-0.2,0.2-0.9,1.1-1.2,1.1c0-0.4,0.6-1.3,0.9-1.6c0.1-0.1,0.1-0.4,0.4-0.4c0.2,0,0.2-0.1,0.3-0.2c0.1-0.2,0.1-0.4,0.1-0.6
	c-0.1,0-0.2-0.1-0.2-0.2c-0.1-0.2-0.1-0.5-0.1-0.7c-0.1,0-0.3,0.1-0.4,0.2c0,0.1,0.1,0.3,0.1,0.4c-0.1,0.1-0.5-0.6-0.5-0.2
	c0,0.6-0.4-0.3-0.4-0.4c-0.2-0.1-0.3,0.1-0.4,0.2c-0.2,0.1-0.4,0-0.7,0c-0.4,0-0.6-0.1-1-0.2c-0.4,0-0.8-0.1-1.2,0
	c-0.4,0-0.5-0.4-0.6-0.4c-0.5,0-0.7-0.1-1.1-0.4c-0.3-0.2-0.7-0.4-1-0.3c0,0.3,0.2,0.4,0.1,0.7c-0.1,0.4-0.1,0.8,0,1.2
	s0.3,0.6,0.6,0.9c0.3,0.2,0.5,0.4,0.6,0.7c0.1,0.4-0.1,1.1,0.1,1.5C1.5,47,1.7,47,1.8,47.3c0.3,0.6-0.5,1.7,0.5,2
	c0-0.2-0.1-1.2,0-1.3s0.7,0.2,0.9,0.3c-0.3,0.2-0.3,1.4-0.7,1.5c-0.3,0.1-0.2,0.1-0.2,0.4c0,0.2-0.1,0.4-0.1,0.6
	c0.5,0,0.5-0.1,0.5-0.6c0.2,0,0.7,0.1,0.6,0.3c-0.1,0.2-0.4,0.5-0.4,0.7c0,0.1,0,0.6-0.1,0.6c-0.2,0-0.2-0.7-0.3-0.7
	s-0.1,0.3-0.1,0.4c0,0.3-0.1,0.5,0.2,0.6c0.2,0.1,1.8-0.1,1.8,0.4c-0.1,0.4-1.2,0.4-1.7,0.1c0,0.2,0.1,0.3,0.2,0.4
	C3,53.2,3,53.4,3,53.6c0,0.2-0.2,0.1-0.2,0.4c0,0.4,0.1,0.6,0.2,1c0,0.2,0,0.5-0.1,0.7c0,0.1,0,0.5,0,0.6c-0.1,0.3-0.1,0.7,0,1
	c0,0.2,0,0.4-0.1,0.5c-0.1,0.2,0,0.6-0.1,0.9c-0.1,0.8-0.1,1.5-0.2,2.3c-0.1,0.5-0.1,1.2-0.1,1.7c0,0.6-0.2,1.4-0.3,2
	c-0.1,0.4-0.3,0.8-0.5,1.2c-0.2,0.3-0.2,0.5-0.2,0.9c0,0.5-0.3,1.2-0.2,0.9c-0.1,0.4-0.6,0.6-0.4,1c0.2,0.3,0.7,0.6,0.7,1
	c0,0.5-0.4,0.3-0.3,0.8c0.1,0.7,0.2,1.2,0.3,1.5c0.1,0.4,0.7,0.7,0.7,1c0,0.2-0.4,0.7-0.2,0.9c0.3,0.5,0.6,0.5,0.6,1.1
	c0,0.8-0.2,1.5-0.2,2.2c0,0.4-0.1,0.8-0.4,1.1c-0.2,0.2-0.7,1.1-0.6,1.4s0.2,0.2,0.2,0.5c-0.1,0.3,0,0.4,0.2,0.6
	c0.1,0,0.1,0,0.1,0.1c0.3,0.1,0.4,0.2,0.5,0.4c0.2,0.2,0.3,0.2,0.4,0.4C2.9,81.9,2.9,82,3,82.1c0.1,0.1,0.1,0.1,0.2,0.3
	c0.2,0.2,0.2,0.5,0.3,0.9c0,0.2,0,0.3,0,0.4c0,0.4-0.2,0.4-0.2,1c0.1,0.6,0.4,0.8,0.5,1.2c0.1,0.4-0.2,0.6,0.1,0.9s0.6,0.6,0.8,0.8
	c0.2,0.2,0.3,0.7,0.7,0.8c0.3,0.1,0.5,0.2,0.5,0.5C6,89.2,6,89.3,6.3,89.4c0.2,0.1,0.1,0.3,0.1,0.5c0.1,0.4-0.4,0.7-0.2,1
	c0.1,0.1,0.5-0.3,0.7-0.3c0.3,0.1,0.6,0.4,0.8,0.7c0.1,0.2,0.5,0.1,0.5,0.2c-0.1-0.3,0-1.5,0.3-1.4s0.3,0.2,0.3,0.5
	c0,0.2-0.3,0.5-0.3,0.6c0.1,0.3,0.3,0.3,0.4,0.6c0,0.2,0.4,0.2,0.4,0.4c0.1,0.4,0,0.9-0.5,0.5c-0.4-0.3-0.2-0.8-0.4-1S8,91.8,8,92
	c0,0.2-0.1,0.7,0,0.9c0,0.2,0.2,0.2,0.3,0.4c0.1,0.2,0,0.5,0,0.8c0,0.4,0.2,0.6,0.5,0.8c0.5,0.3,0.4,0.5,0.8,0.7
	c0.1-0.1,0.3,0,0.4,0c0.1,0,0.1-0.2,0.2-0.2c0.1,0.1,0.3,0.2,0.3,0.4c0.2,0.4,0.1,1.7-0.3,1.2c-0.1-0.1-0.1,0.2-0.3,0.3
	c0.4,0.4,0,1.1,0.5,1.5c0.2,0.2,0.6,0.3,0.7,0.6c0.1,0.2,0.1,0.3,0.2,0.4c0.1,0.1,0.2,0,0.3,0.1s0.1,0.3,0.2,0.6
	c0.1,0.2,0.3,0.4,0.4,0.5c0.1,0.1,0.1,0.3,0.2,0.4c0.3,0.4,0.3-0.3,0.8,0.7c0.2,0.4,0.5,0.1,0.7,0.5c0,0.1,0,0.3-0.1,0.7
	c0.2,0,0.2,0.3,0.4,0.3c0.2,0.1,0.4-0.2,0.6,0.1c0.1,0.2-0.2,0.6-0.1,0.8c0,0.1,0,0.1,0.2,0.3c0.1,0.1,0.1,0.2,0,0.3
	c-0.1,0.1-0.1,0.2-0.1,0.3c0,0.1,0.1,0,0.2,0.2c0.1,0.1,0,0.2-0.1,0.3c-0.1,0.1-0.1,0.3-0.1,0.3c0.1,0.1,0.1,0.1,0.3,0.1
	s0.3,0.2,0.3,0.3c0.1,0.1,0.1,0.1,0.3,0.1c0.2-0.1,0.4,0,0.7-0.1c0.3-0.1,0.6,0,0.9,0.1c0.2,0.1,0.4,0.2,0.5,0.1s0.3,0,0.4,0.1
	s0.2,0,0.2-0.1c0.1-0.1,0.3,0,0.6,0.1c0.2,0.1,0.5,0.4,0.6,0.4c0.1,0.1,0.3,0.2,0.3,0.3c0,0.1,0.1,0.3,0.3,0.4
	c0.2,0.1,0.3,0.1,0.5,0.2c0.2,0,0.4,0.2,0.6,0.2c0.2,0.1,0.3,0.1,0.3,0.1c0.8-0.5,1.2,0.1,1.5,0.6c0.1,0.2-0.2,0.2-0.2,0.4
	c0.1,0.2,0.5,0.3,0.7,0.2c0.4-0.3,0.5-0.1,0.9,0.3c0.3,0.3,0.6,0.3,0.9,0.6c0.3,0.3,0.8,0.7,1.1,0.9c0.3,0.2,0.5,0.7,0.6,1
	c0.3,0.8-0.1,0.9,0.2,1.7c0,0.1,0.2,0,0.3,0c0.1,0.1,0.1,0.3,0.1,0.3v0.1c0.6-0.5,0.6-0.1,1.2-0.2c0.5-0.1,7.5-0.7,7.7-0.8
	c0.2,0,0.1,0.1-0.1,0.2c-0.2,0.1-0.3,0.2-0.3,0.5c-0.1,0.3-0.1,0.4,0.1,0.4c0.3,0,0.3,0,0.5,0.1s11.8,4.7,12.2,4.9
	c0.4,0.2,0.6,0.2,0.9,0.2h9.5c0.4,0,0.5,0,0.6-1.8c0-0.2,0.1-0.3,0.3-0.3s5.4,0,5.7,0c0.4,0,0.3,0.4,0.5,0.1
	c0.1-0.1,0.4,0.2,0.4,0.4c0.2,0.6,0.2,0.9,0.7,1.2c0.6,0.3,0.2-0.2,0.5,0s0.2,0,0.5,0.3c0.5,0.5,0.5,0.7,0.9,0.9
	c0.5,0.2,0.6,1.1,1.6,1.4c0.8,0.3,0.4,0.4,0.8,0.5c0.3,0.1-0.1,0.2,0.3,0.3c0.5,0.2,0,0.4,0.5,1.1c0.8,1.1-0.1,0.8,0.4,1.8
	c0.4,0.8,0.5,1.1,0.9,1.3c0.7,0.3,0.8,1,1.8,1.1c0.6,0.1-0.1,0.5,0.9,0.4c0.2,0,0.1,0.2,1.3,0.9c0.1,0.1,0.3-0.1,0.4-0.2
	c0.1-0.3,0.3,0,0.4-0.4c0.1-0.5,0.5-0.1,0.5-0.4c0-0.3-0.2-0.2,0-0.5c0.3-0.3,0.7-1.4,0.8-1.7c0.1-0.3,0.3-0.3,0.5-0.2
	c0.5,0.1,0.2-0.3,0.6-0.1c0.5,0.2,0.1-0.5,0.5-0.5c0.3,0,0.4,0.5,1.2,0.4c0.9-0.1,0.7,0,1.3,0.1c0.4,0,0.2-0.2,0.4-0.2
	c0.2,0,0.1,0.3,0.2,0.1c0.1-0.1,0.1,0,0.2,0c0.3,0,0,0.6,0.4,0.6c0.3-0.1-0.2,0.4,0.2,0.3c0.4-0.1,0.2,0,0.2,0.2s0.2,0.3,0.4,0.3
	c0.2,0,0.3,0.1,0.3,0.3c0,0.2,0,0.2,0.1,0.3c0.4,0.1,0.2,0.3,0.4,0.4c0.4,0.1,0.1,0.4,0.4,0.6c0.4,0.3,0,0.7,0.4,1.1
	c0.5,0.6,0.1,1.2,0.5,1.6c0.2,0.2-0.1,0.2,0.3,0.4c0.3,0.2-0.3,0.1,0,0.6s0.6,1.2,0.7,0.7c0.1-0.4,0.2-0.1,0.3,0.2
	c0.3,0.6,0.4,0.4,0.4,0.6c0,0.3,0.2,0.1,0.2,0.5s0.1,0.1,0.3,0.4c0.2,0.5,0.7,0.7,0.6,0.5c-0.1-0.4,0.3,0.1,0.4,0.2
	c0.3,0.3-0.1,0.2,0.2,0.6c0.3,0.3-0.5,0.4-0.1,0.8c0.5,0.4-0.2,0.8,0.3,1.3c1.1,1.1,0.5,1.7,1,2.1c0.4,0.3-0.3,0.5,0.4,0.5
	c0.7,0,0.4,0.2,0.7,0.2c0.4-0.1,0.5,0.6,0.8,0.5c0.4-0.2,0.5,0.3,0.7,0.1c0.3-0.2,0.4,0.8,1,0.6c0.4-0.1,0.4,0.3,0.6,0.1
	c0.1-0.2,0.5,0,0.7-0.1c0.4-0.1,0.3,0.3,0.6,0.1c0.3-0.2,0.6,0.7,0.8,0.6c0.3-0.1,0.1,0.2,0.4,0.2s0-0.3,0.3-0.3s0-0.2,0.5-0.2
	c0.1,0,0.1,0,0.2,0c0-0.1,0-0.4,0-0.4c0-0.2,0-0.2-0.1-0.3c0-0.1-0.1-0.3,0-0.3c0-0.2-0.1-0.4-0.2-0.9c-0.2-0.7-0.5-1.6-0.5-2.4
	c0-0.6,0.2-1.4,0.3-1.8c0.2-0.4,0.7-1.3,0.9-1.6c0.2-0.3,0.4-0.5,0.6-0.8c0.2-0.2,0.7-0.6,1.1-0.9c0.2-0.1,0.2-0.1,0.5-0.3
	c0.1-0.1,0.2-0.3,0.4-0.5c0.4-0.2,0.9-0.5,1.4-0.7s1-0.5,1.1-0.6c0.2-0.1,0.2-0.6,0.4-0.7c0.2-0.1,0.3-0.1,0.6-0.2
	c0.3-0.1,0.3-0.4,0.7-0.7c0.2-0.2,0.5-0.5,0.8-0.6c0.1-0.1,0.4-0.3,0.6-0.4c0.4-0.3,0.1-0.3,0.4-0.5c0,0,0.3-0.2,0.4-0.3
	c0,0,0,0-0.1,0c0.1-0.1,0.1-0.1,0.1,0c0.1-0.1,0.3-0.1,0.4-0.2c0.2-0.1,0.5-0.2,0.8-0.3c0.3-0.1,0.6-0.3,1-0.4
	c0.2-0.1,0.4,0.1,0.6,0.1c0.2-0.1,0.3-0.4,0.4-0.4s0.3-0.1,0.4-0.1c0-0.1,0.8,0.1,0.8,0.1c1.3-0.5,1.4,0.7,2.7,0.8
	c1.1,0.1,1,0.3,1.7-0.1c0.5,0.1,0.3-0.3,0.2-0.4c-0.1-0.1,0-0.3,0.2-0.3s0.4-0.3,0.7-0.3c0.6,0.1-0.2,0.3,0.4,0.3
	c1.3,0,0.5,0.3,0.6,0.4c0.5-0.2,0.2,0.5,0.5,0.4c0.2,0,0.2,0.1,0.4,0.1c0.6,0.1,0,0.3,0.2,0.4s0.9,0.1,0.1,0.3c-0.2,0,0,0.3,0.4,0.5
	c0.7,0.3,0.8,0.2,1.5,0.2c-0.1-0.4,0.3,0.2,0.6-0.3c0.2-0.4,0.2-0.2,0.5-0.2c0-0.2,0.2,0.2,0.5,0.2c-0.1,0.1,0,0.2,0.2,0.2
	c-0.1,0.3,0,0.4,0.4,0.6c0.2,0.1,0.4-0.2,0.6-0.3c0.3-0.2,0.4-0.3,0.5-0.4c0.2-0.1,0.3-0.2,0.5-0.2s0.4,0,0.6,0.2
	c0.2,0.2,0.7,0.4,0.7,0.8c0,0.4,0.1,0.5-0.1,0.6c-0.1,0.2-0.2,0.4,0,0.3c0.1-0.1,0.3-0.3,0.4-0.4c0.1-0.1,0.3-0.3,0.5-0.2
	c0.3,0.1,0.2,0,0.4-0.2c0.1-0.2,0.4-0.4,0.5-0.4c0.1-0.1,0-0.2,0-0.4c-0.1-0.1-0.3-0.5-0.5-0.6c-0.1-0.1-0.3-0.4-0.6-0.4
	c-0.2,0-0.5-0.1-0.8-0.2c-0.2,0,0.2-0.3,0-0.4c-0.3-0.1-0.5-0.4-0.2-0.4s0.5,0,0.6,0s0,0-0.1-0.1s0-0.3,0.1-0.3s0.4-0.2,0.6-0.6
	c0.2-0.4,0.2-0.5,0.2-0.8c-0.1-0.3,0-0.4-0.2-0.2c-0.3,0.2-0.3,0.3-0.5,0.3s-0.1-0.1-0.3-0.1c-0.2,0.1-0.2,0.1-0.3,0.2
	s-0.2,0.1-0.2,0.2s0.1,0.3-0.1,0.4c-0.2,0.1-0.2,0.1-0.4-0.1s-0.3-0.2-0.1-0.4c0.2-0.2,0-0.3,0.4-0.4c0.5-0.1,0.8-0.1,0.9-0.2
	c0.1-0.1,0.2-0.3,0.3-0.4c0.2-0.2,0.2-0.2,0.5-0.3c0.1-0.1,0.1-0.1,0.3-0.1s0.2,0,0.5,0c0.1,0,0.4,0,0.5,0c0.2,0,0.2,0.2,0.3,0.2
	c0.3,0,0.9,0.2,1.1,0.1c0.2-0.2,0.3-0.3,0.3-0.3c0.4-0.5,0.2,0.3,0.3,0.5s0.3,0,0.4-0.1c0.2-0.4,0.3-0.2,0.5-0.4
	c0.2-0.2,0-0.9,0.2-1.1c0.1-0.1,0.1-0.2,0.2,0.1c0.1,0.2,0.4,0.3,0.3,0.6c-0.1,0.1,0,0.7-0.1,0.9c-0.1,0.1-0.7,0.2-0.7,0.3
	c0,0.1,0.6-0.1,0.7-0.1c0.5,0,1.2-0.2,1.5-0.3c0.2,0,0.3-0.1,0.5-0.1c0.1,0,0.2-0.4,0.3-0.4c0.3-0.2,0-0.6,0.2-0.6
	c0.1,0,0.3,0.3,0.2,0.4c0,0.1,0.1,0,0.2-0.1c0-0.1,0.4-0.1,0.4,0.1s-1,0.5-1,0.5c0.1,0.1,1.3-0.2,1.4-0.2c0.5-0.1,0.7-0.3,1.1-0.3
	c0.3-0.1,0.9-0.3,1.1,0.1c-0.3,0-0.5,0-0.8,0.1c-0.8,0.1-0.4,0.2,0.2,0.2c0.2,0,0.4,0,0.6,0c0.3,0.2,0.5,0.3,0.8,0.5
	c0.3,0.1,0.5,0.2,0.7,0.4c0.2,0.1,0.3,0.2,0.4,0.3c0,0.1,0.3,0.1,0.2,0.2c0.1,0.1,0.2,0.2,0.3,0.3c0.2,0.1,0.4,0.1,0.5,0.3
	c0.2,0.3,0.1,0.3,0.4,0.6c0,0-0.1,0.5-0.1,0.6c0.1,0.1,0.2-0.1,0.4,0c0.3,0,0.6,0.5,0.8,0.4c0.2,0,0.6-0.3,0.8-0.5
	c0,0,0.9-0.5,0.8-0.6c-0.1-0.1-0.7,0.4-0.7,0.4c-0.3,0.2-0.6,0.5-1,0.5l-0.3-0.3c0.2,0,0.3,0,0.5-0.1c0.3,0,0.8-0.4,0.9-0.6
	c0.1-0.1,0.2,0.1,0.3-0.1c0.1-0.1,0.3-0.2,0.5-0.3c0.2-0.1,0.3,0.2,0.5,0.2s0.1-0.4,0-0.5c0-0.1,0-0.1,0.1-0.2
	c0.1-0.2,0.3-0.1,0.6-0.1s0.3-0.2,0.6-0.1c0.2,0,0.4,0.3,0.5,0.4c0.5,0.1,0.8,0.3,1,0.8c0.1,0.3-0.1,0.2,0.4,0.6
	c0.2,0.1,0.2,0,0.3,0.2c0,0.1-0.1,0.5,0,0.6c0.2,0.2,0.5,0.1,0.6,0.3c0.2,0.3,0.2,0.5,0.4,0.6s0.2,0.4,0.2,0.4c0.2,0,0,0.3,0.2,0.3
	c0.2-0.1,0.6-0.3,0.8-0.1c0.1,0.1,0.1,0.4,0.3,0.4s-0.1,0.4,0.2,0.3c0,0.2-0.2,0.3-0.2,0.5c0,0.1,0.2,0.6,0.2,0.7
	c0,0.1-0.2,0.2-0.3,0.3c0,0,0.1,0,0.3,0.1c0.1,0,0.1,0.2,0,0.2c-0.1,0.1-0.2,0-0.3,0.2c-0.1,0.3,0.3-0.1,0.2,0.4
	c0,0.1-0.2-0.1-0.2,0c0,0.3-0.1,0.3-0.1,0.6c-0.1,0,0.1,0.2,0.1,0.3c0,0.2-0.2,0.3-0.2,0.4c-0.1,0.4-0.2,0.9-0.2,1.4
	c0,0.2,0.3,0.3,0.4,0.4c0,0.1,0,0.3,0,0.4c0,0.1,0.1-0.1,0.1-0.2c0.1-0.1,0.2,0,0.2-0.1s0.1-0.4,0-0.5c-0.1-0.2-0.3-0.3-0.3-0.5
	l0.2-0.3c0.2-0.1,0.4,0.1,0.4,0.3c0,0.1-0.1,0.3,0,0.4c0,0.1,0.2,0.1,0.2,0.1c0.1-0.1-0.1-0.3,0-0.4l0.3,0.1c0,0.3-0.1,0.4-0.3,0.6
	c-0.3,0.3-0.4,0.4-0.5,0.8c0,0.1-0.2,0.1-0.2,0.1c-0.1,0.2,0,0.2,0.2,0.3s0.1,0.2,0.2,0.3c0,0.1-0.1,0.2,0,0.3
	c0,0.1,0.2,0.2,0.3,0.3c0,0.3,0.1,0.4,0.2,0.6c0.2,0.4,0.4,1,0.8,1.3v-0.2c0.1,0,0.3,0.1,0.3,0c0-0.2-0.1-0.3,0.1-0.4
	c0.1-0.1,0.2-0.2,0.4-0.2c0,0.1-0.2,0.1-0.2,0.2c0,0.2,0.1,0,0.2,0.2c0,0.1,0,0.2-0.1,0.3c0,0.1-0.1,0.2,0,0.5
	c-0.2-0.1-0.3-0.3-0.4-0.3c-0.1,0,0.1,0.2,0.2,0.4c0.1,0.2,0.1,0.5,0.1,0.6c0.1,0,0.1-0.3,0.2-0.3c0.1,0.1,0.3,0.4,0.4,0.4
	c0.3,0.1,0.3,0.5,0.3,0.9c0.1,0.4,0.1,1.3,0.5,1.5c0.4,0.1,0.8,0.2,1.1,0.5c0.2,0.2,0.3,0.3,0.4,0.6c0.1,0.3,0.1,0,0.2,0.2
	c0.1,0.2-0.1,0.4,0.1,0.6c0.1,0.2,0.2,0,0.1,0.4c-0.1,0.3,0,0.4,0,0.5c0.3,0,0.3,0.1,0.5,0.2c0.4,0.1,0.2-0.1,0.5-0.1
	c0.3-0.3,0.5,0,0.7,0c0-0.2,0.3-0.1,0.4-0.1c0-0.2,0.2-0.1,0.4-0.1c0.4,0.1,0.2-0.2,0.5-0.3c0,0.4-0.4,0.9-0.6,1.1
	c-0.2,0.2-0.8,0.4-1,0.8c0.2,0,0.2-0.1,0.5-0.2c0.3-0.2,0.5-0.3,0.6-0.4c0.3-0.2,0.4-0.5,0.6-0.8c0.3-0.3,0.1-0.3,0.3-0.5
	c0.1-0.1,0.3-0.6,0.2-0.6c0,0-0.1,0.6-0.3,0.3c-0.1-0.2-0.1-0.4-0.1-0.6c0-0.2,0.2-0.5,0.3-0.7c0-0.1,0.2-0.3,0.2-0.3
	c0.1,0,0,0.4,0.1,0.3c0.1,0,0-0.1,0-0.2c0-0.1,0.1-0.3,0.2-0.5c-0.1,0,0-0.4,0-0.6c0-0.6,0.2-1.5,0.2-1.7c0.1-0.6,0.2-1.1,0.1-1.7
	c0-0.2-0.1-0.8-0.2-0.9c-0.1-0.1-0.1-0.3-0.2-0.4c-0.1-0.1,0-0.2-0.1-0.3c0-0.1,0-0.1-0.1-0.3c-0.1-0.1-0.1-0.3-0.2-0.4
	c-0.1-0.1-0.2-0.6-0.3-1c0-0.2-0.2-0.3-0.2-0.6c-0.1-0.2-0.1-0.4-0.3-0.5c-0.1-0.1-0.3-0.4-0.3-0.4c0-0.1-0.1-0.4-0.2-0.7
	c0-0.2,0-0.3-0.1-0.3s0,0.4-0.1,0.4c-0.5-0.2-0.5-1,0-1.2c0,0.1,0,0.3,0,0.5c0,0.1,0,0.2,0.1,0.2c0,0,0-0.5,0-0.7
	c0.1-0.2,0.3-0.2,0.3-0.3c-0.2-0.4-0.3-0.7-0.8-1.2c0,0.1-0.2,0.4-0.2,0.6c0,0.1,0.2,0.1,0.2,0.2c0,0.1-0.1,0.3-0.1,0.4
	c0,0.1,0,0.3,0,0.4c-0.1-0.4-0.4-1.1-0.4-1.6c0-0.2,0.3-0.7,0.2-0.9s-0.1-0.3-0.3-0.5s-0.2-0.4-0.3-0.6c-0.4-0.6-0.8-2.1-1-2.6
	s-0.1-0.5-0.2-0.7c-0.1,0-0.1-0.2-0.1-0.2c0-0.1,0-0.1-0.1-0.5s-0.1-0.4-0.1-0.5c-0.1-0.2-0.1-0.1-0.1-0.4c0-0.2,0-0.6-0.1-0.8
	c0-0.2-0.1-0.2-0.1-0.4c0-0.4,0.1-0.3-0.1-0.8c-0.1-0.3,0-0.2,0.1-0.4c0-0.3,0.1-0.3,0.1-0.5s0-0.1,0.1-0.4c0-0.4,0.1-0.2,0.3-0.5
	c0.1-0.2,0.1-0.1,0.2-0.3c0.1-0.3-0.3-0.6,0.1-0.8c0.4-0.2,0.1-0.8,0.3-1.2c0.1-0.2,0.3-0.2,0.4-0.4c0.1-0.2,0.1-0.4,0.3-0.4
	c-0.1-0.1,0.1-0.1,0.2-0.2c0.2-0.1,0.2-0.3,0.2-0.5s0.2-0.1,0.4-0.4c0.2-0.2,0.5-0.4,0.6-0.6c0.1-0.1,0.2,0,0.3-0.1
	c0.2-0.2,0.2-0.2,0.2-0.4c0-0.1,0.2-0.1,0.3-0.2c0.2-0.3,0.2-0.5,0.5-0.5c0.4,0,0.6-0.3,1-0.4s0.2-0.2,0.3-0.4c0,0,0.2-0.1,0.3-0.1
	c0.5-0.2,0.6-0.4,0.9-0.8c0.2-0.3,0.4,0,0.5-0.1c0.2-0.2,0.2-0.4,0.4-0.5c0.3-0.2,0.3-0.4,0.3-0.8c0,0,0-0.1,0.1-0.3
	c0.1-0.2,0-0.2,0.1-0.3c0.1-0.1,0.5-0.6,0.4-0.5s0.2-0.3,0.4-0.5s0.2-0.2,0.3-0.3c0.1-0.1,0.2-0.3,0.3-0.3c0-0.1,0.3-0.1,0.4-0.2
	c0.2-0.2,0.3-0.2,0.5-0.2c0.4-0.1,0.6-0.2,1-0.2s0.5,0.2,0.8,0.2c0.2,0,0.1-0.3,0.3-0.7c0.2-0.4,0.2-0.4,0.3-0.7
	c0.1-0.1,0,0,0.1-0.3c0.2-0.3,0.1-0.2,0.3-0.3c0.1,0,0.2-0.2,0.3-0.2c0.1-0.1,0.2-0.2,0.3-0.3c0.2-0.2,0.2-0.1,0.5-0.3
	c0.3-0.1,0.3-0.2,0.5-0.3c0.2-0.1,0.2-0.1,0.4-0.2c0.4-0.3,0.9-0.3,1.4-0.3c0.1,0,0.4,0,0.6,0.1c0.2,0.1,0.2,0.4,0.2,0.4
	c0.2,0-0.2-0.1,0.4-0.7c0.3-0.3,0.9-0.9,1.1-1.1c0.2-0.1,0.1,0,0.3-0.2c0.2-0.1,0.3-0.2,0.5-0.3c0.4-0.2,0.7-0.3,1.1-0.4
	c0.1,0,0.2,0,0.2,0c0.1-0.1,0.1-0.2,0-0.3c-0.1-0.1-0.3,0.1-0.4,0.2c-0.5,0.2-1,0.4-1.4,0.7c-0.2,0.1-0.4,0.3-0.5,0.4
	c0,0.1-0.1,0.2-0.2,0.2c-0.2,0-0.4-0.3-0.5-0.2c-0.1,0,0.1,0.1,0,0.2c0,0.1-0.2,0.1-0.3,0.1c0-0.1,0-0.4-0.1-0.4
	c-0.2,0-0.4,0.2-0.6,0.2c-0.1,0-0.3,0.3-0.6,0.3c-0.4,0.1-0.8-0.1-0.8-0.5c0.2,0,0.3,0.3,0.6,0.3c0.2,0,0.5-0.3,0.6-0.4
	c0.3-0.2,0.4-0.3,0.5-0.7c0.1-0.2,0.2-0.3,0.1-0.4c-0.1-0.1-0.4-0.2-0.7-0.3c-0.1,0-0.9-0.3-0.8-0.3c0.1-0.1,0.8,0.3,1,0.3
	s-0.2-0.7-0.1-0.7c-0.1,0,0.4,0.7,0.5,0.7s0.2-0.3,0.3-0.3c0.1,0.1-0.1,0.4-0.1,0.4c0.1,0.1,0.7-0.1,0.8,0c0.4,0.1,0.5,0,0.7-0.3
	c0.1-0.2,0.1-0.6,0.3-0.8c0.1-0.1,0.2,0,0.4,0c0.3-0.2,0.3-0.2,0.3-0.5s0.1-0.7-0.1-0.9c-0.2-0.2-0.5-0.2-0.5,0.1
	c0,0.3,0,0.6-0.3,0.7c0.1,0,0-0.7,0-0.8c-0.1-0.4-0.2,0-0.3-0.2c-0.1-0.1-0.2-0.1-0.3,0c-0.3,0.1-0.4,0.4-0.7,0.2
	c-0.1-0.1-0.7,0.1-1.1,0.1c-0.2,0-0.1-0.2-0.1-0.2c0.1,0,0.4,0.1,0.7,0s0.6-0.3,0.7-0.3c0.2-0.1,0.4-0.2,0.6-0.3h0.2
	c0.1-0.1,0-0.2,0.1-0.3c0.1-0.1,0.3-0.1,0.4-0.1c0.2,0,0.4,0.7,0.5,0.7s-0.1-0.8-0.4-1.3c-0.2-0.3-0.4-0.4-0.5-0.8
	c0-0.1,0.2-0.1,0.2-0.2s0.1-0.4,0.1-0.5c-0.1-0.3,0-0.4,0-0.4c0.1,0,0.2,0.4,0.2,0.7c0.1,0.4,0.2,0.9,0.2,1.1c0,0.3,0.4,1.2,0.5,1.4
	c0.1,0.3,0.3,0.6,0.3,0.7c0.2,0.4,0.4,0.8,0.4,1.3c0,0.3-0.1,0.5-0.1,0.8c0,0.4,0.1,0.6,0.2-0.2c0.1-0.5,0.1-0.7,0-1.3
	c-0.1-0.5-0.4-0.9-0.6-1.3c-0.2-0.4-0.4-0.9-0.5-1.3s-0.1-0.5-0.2-0.9c0-0.5-0.4-0.9-0.4-1.4c0-0.1-0.1-0.3-0.2-0.3
	c-0.3-0.1-0.8,0.2-0.8-0.2c-0.3,0.1-0.4,0.2-0.7,0.3c-0.1-0.1-0.3-0.5-0.5-0.7c-0.3-0.3-0.7-0.5-0.8-0.9c0.5,0,0.7,0.3,0.9,0.5
	c0.3,0.3,0.1,1.2,0.9,0.4c-0.1-0.3,0-0.6-0.4-0.6c0-0.3-0.4-0.2-0.4-0.3c0-0.2,0.4-0.1,0.4-0.2c-0.1-0.1-0.2-0.4-0.3-0.5
	c0.1,0,0.1-0.1,0.2-0.1c0.1,0,0.4,0.4,0.5,0.4s0-0.4,0.1-0.3c0-0.1-0.1-0.4-0.2-0.5c-0.1,0-0.1,0.1-0.2,0c-0.1-0.2,0-0.2-0.1-0.3
	c-0.2-0.3-0.4-0.1-0.6-0.2c-0.2-0.2-0.2-0.3-0.3-0.5c0.2,0,0.2,0.3,0.4,0.4l0.1-0.2c0,0,0,0.2,0.1,0.3c0.1,0.1,0.2,0,0.3,0
	c0.1,0.1,0.3,0.1,0.4,0.1c0-0.1-0.2,0-0.2-0.1s0.2-0.4,0.2-0.5c0-0.4,0.2-0.4,0.2-0.5c0-0.3-0.1-0.3-0.5-0.4s-0.6-0.6-0.9-0.8
	c-0.3-0.2-0.7-0.1-1-0.3c-0.2-0.1-0.9-1.2-0.4-1.2c-0.1,0.3,0.3,0.7,0.5,0.8c0.2,0.2,0.5,0.3,0.8,0.3c0.2,0,0.3,0.1,0.5,0.2
	c0,0.3,0,0.2,0.2,0.3c0.1,0.1,0.1-0.2,0.2-0.1c0.1,0.1,0.3,0.4,0.4,0.5c0-0.4,0-0.4-0.1-0.8c-0.1-0.3,0-0.6-0.1-0.9
	c-0.4-0.2-0.4-0.8-0.4-1.2c0-0.1-0.3-0.5-0.1-0.5s0.3-0.4,0.2-0.7c-0.1-0.4,0.3,0,0.3-0.1c0-0.2-0.1-0.5-0.1-0.7s-0.3-0.2-0.4-0.3
	c0.2,0,0.5-0.4,0.6-0.5s0.2-0.2,0.3-0.3c0,0.1,0,0.2,0.1,0.2s0-0.3,0-0.3h0.3c0-0.2,0.2-0.2,0.2-0.3c0.1-0.1-0.1-0.3-0.1-0.4
	c0.4,0,0.3,0.1,0.3,0.4c0.1,0.2,0,0.3-0.2,0.2c0,0.2-0.2,0.2-0.3,0.2c-0.1,0.1-0.1,0.3-0.2,0.4l-0.1,0.1c-0.2,0-0.2,0.1-0.1,0.3
	c0,0.3,0.1,0.6,0.1,0.9c-0.1,0-0.2,0-0.2-0.2c-0.3,0.1-0.3,0.5-0.3,0.8c0.2,0,0.4-0.2,0.6-0.3c0,0.2,0.1,0.5-0.2,0.5
	s-0.3,0.6-0.3,0.9c0.1-0.1,0.2-0.3,0.3-0.3c0,0.5,0.4,0.4,0.7,0.6c0.4,0.4-0.6-0.2-0.7-0.2c0,0.2-0.2,0.2-0.1,0.4
	c0.1,0,0.6,0.2-0.1,0.2c-0.2,0,0,0.3,0.2,0.5c0.1,0.3,0.2,0.6,0.4,0.8c0.1,0,0-0.1,0.2-0.2c0.3-0.1,0.4,0,0.6,0.1
	c0.4,0.2,0.1,0.2,0,0.3c0.2,0,0.5-0.1,0.5,0.2c-0.1-0.1-0.1,0.1-0.1,0.2c0.1,0.1,0.3,0,0.2,0.2c0,0.1-0.1,0.1-0.2,0.1
	c-0.2,0.1-0.2,0.5,0.1,0.5c0,0,0.2-0.2,0.3-0.2c0.1,0.1,0,0.1,0.1,0.2s-0.2,0.6-0.3,0.7c-0.5,0.8-0.8,1.6-0.8,2.6
	c0.1-0.1,0.2,0,0.2,0.2c0.2-0.1,0-0.3,0.2-0.3s0.1-0.1,0.1-0.2s0-0.1,0.1-0.4c0.1-0.2,0.3-0.4,0.4-0.7c0.2-0.6,0.3-0.4,0.5-0.4
	c0-0.3,0.4-0.9,0.6-1.2c0.1-0.2,0.3-0.1,0.3-0.2c0.2-0.2,0.4-0.6,0.5-0.8c0.1-0.1,0.1-0.3,0.1-0.4l0.2-0.4c0-0.1,0-0.2,0.1-0.3
	c0,0,0.1-0.1,0.1,0c0-0.5,0.1-0.2,0.1-0.6c0-0.3,0-0.5,0-0.6c0,0,0,0,0-0.2c0,0.1,0,0.1,0,0.2c0-0.1,0-0.8-0.1-0.9s0,0.1-0.3-0.1
	c-0.1,0-0.4-0.4-0.4-0.6s-0.2,0-0.2-0.3c0-0.1,0-0.2-0.1-0.3c-0.2-0.2-0.2-0.2-0.2-0.5c0-0.2-0.1-0.3-0.2-0.4
	c-0.1-0.2-0.2-0.5-0.3-0.7c0,0-0.1-0.7,0-0.7c0.2,0.2,0.2,0.4,0.4,0.6c0.1,0.1,0,0.1,0.1,0.2c0.1,0.2,0.3,0.2,0.5,0.3
	c0.1,0.1,0.2,0.2,0.3,0.3l0.1,0.1c0.1,0.1,0.5,0.1,0.8,0.1c0.3,0.1,0.5,0.3,0.5,0.4c0,0.3-0.3,0.6-0.3,0.9c0.5,0,0.7-0.3,0.8-0.7
	c0-0.1,0.1-0.1,0.1-0.2c0.1-0.2,0.2-0.4,0.3-0.6c0.1-0.1,0.2-0.2,0.3-0.3c0.3-0.2,0.4-0.2,0.7-0.5c0.2-0.2,0.4-0.8,0.6-1
	c0.5-0.5,0.3-1,0.5-1.8c0-0.2,0.1-0.8,0.1-0.6c0,0.1,0.1-0.3,0.1-0.4s0.1-0.2,0.1-0.5S185,80.2,185,80c-0.1,0,0,0.2-0.1,0.2
	c-0.2,0-0.7-0.2-0.9-0.2c0-0.2,0.3-0.3,0.5-0.4c0.1-0.1,0.2-0.1,0.2-0.2c0.1-0.1-0.1-0.3-0.1-0.3c0.2,0.1,0.2,0.4,0.3,0.4
	c0-0.1,0.5,0.1,0.6,0s0.7-0.1,0.9-0.1s1.1-0.2,1.3-0.3c0.2-0.1-0.3,0-0.5,0s-0.3,0.1-0.5,0.1c-0.1,0,0.1-0.1,0.3-0.2
	s0.9-0.2,1.2-0.3c0.3-0.1,0.5,0,0.8,0c0.3-0.1,1.4-0.4,1.7-0.5c0.2-0.1,0.7-0.4,1-0.5c0.4-0.1,0.7-0.2,0.8-0.4
	c0.1-0.1,0.2-0.2-0.1-0.2c-0.2,0-0.2,0.1-0.4,0.2c-0.1,0.1-0.3,0.1-0.4,0c-0.1-0.1,0-0.1-0.2-0.1s-0.1,0.1-0.3,0.1s-0.3,0-0.4,0.1
	c-0.1,0.1-0.2,0.2-0.2,0.3c-0.1,0.1-0.1,0.2-0.2,0.1c-0.1-0.1-0.2-0.1,0-0.2s0.2,0,0.3-0.1s0.2-0.3,0.3-0.3s0.1,0.1,0.2,0.1
	c0.1,0,0.2-0.2,0.1-0.3c-0.1-0.1-0.1-0.4-0.2-0.3c-0.1,0.1-0.6,0.5-0.7,0.5c-0.1,0.1-0.2,0.2-0.7,0.2c-0.4,0.1-1,0-1.1,0
	s-0.3-0.1-0.3,0c0,0-0.1,0.1-0.1,0.2s-0.4,0-0.6,0c-0.2,0-0.3-0.1-0.3-0.1s0,0.1-0.1,0.1s0,0-0.3,0.1c-0.3,0-0.3,0.3-0.6,0.3
	s-0.4,0.3-0.4,0.2c-0.1-0.2-0.1-0.3,0.1-0.4c0.2-0.1,0.5-0.4,0.8-0.5c0.2-0.1,0.7-0.3,0.8-0.4s0.6-0.2,0.7-0.2
	c0.1,0,0.3-0.1,0.5-0.2c0.2-0.2,0.2-0.3,0.4-0.3c0.2-0.1,0.1,0.1,0.3,0.1s0.7,0,1,0s1.3-0.2,1.4-0.2c0.1,0,0.2,0,0.5-0.1
	c0.3,0,0.3-0.1,0.5-0.1s0.3,0.2,0.4,0c0.1-0.1,0.5-0.1,0.7-0.1c0.6-0.1,0.7-0.3,0.7-0.9c0-0.2,0.2-0.6,0.1-0.6c0-0.1-0.1-0.2,0-0.3
	c0,0,0.1,0.2,0.3,0.2c0,0,0.1,0.2,0.2,0.2c0.1,0,0.1-0.1,0.1-0.2c0.1-0.1,0.2,0,0.2,0c-0.1,0.4-0.4,0.3-0.5,0.7
	c-0.1,0.5-0.1,0.4,0,0.3s0.3-0.2,0.3-0.2c0.2,0,0.1,0.3,0.2,0.3c0.1,0,0.2-0.3,0.2-0.3c0.2,0.1,0.4,0.1,0.6-0.1
	c0.2-0.1,0-0.4,0.3-0.4c0.1,0,0.2,0,0.2-0.1c0-0.2,0.5-0.4,0.6-0.5c0,0.4,0.1,0.7-0.2,0.9c-0.2,0.1-0.8,0.3-0.8,0.5
	c0.2,0,0.4-0.2,0.6-0.3c0.2-0.1,0.4-0.2,0.5-0.3c0.2-0.2,0.4,0.1,0.6-0.2c0.1-0.2,0.4-0.2,0.6-0.2c0.3-0.1,0.5-0.1,0.7-0.1
	c0,0,0.1-0.1,0.3,0s0,0.4,0,0.6c0.1,0,0.1-0.1,0.1-0.3c0.1-0.3,0.2-0.5,0.2-0.6c0-0.2-0.1-0.9-0.2-1.1c-0.1-0.2-0.4-0.8-0.5-0.9
	c-0.2,0-0.5,0-0.4,0.1c0,0.1,0.1,0.5,0.2,0.5c0.1,0,0.2,0,0.1,0c-0.1,0,0-0.5,0-0.4c0.1,0,0.2,0.4,0.3,0.7c0,0.2,0,0.5,0.1,0.4
	s0.2,0,0.2,0.1s0,0.1,0,0.3c-0.1,0.4-0.3,0.2-0.5,0.3c-0.2,0.1-0.5,0-0.7,0.1c-0.2,0-0.2,0-0.5-0.1s-0.2-0.2-0.2-0.5
	c0-0.4-0.1-0.3-0.5-0.3c0,0-0.1-0.2,0-0.2c0.1-0.1,0.3,0,0.3-0.1s-0.1,0-0.1-0.1c-0.1-0.2-0.1-0.7-0.2-0.8c-0.1-0.2-0.1-0.3-0.2-0.4
	c-0.1-0.3-0.2-0.1-0.4-0.2c0,0-0.2-0.3-0.2-0.2c0,0.3-0.2,0.3-0.3,0.2c-0.5-0.3,0.2-0.4,0.1-0.4l-0.2-0.4c0.2,0.2,0.4-0.3,0.8-0.5
	c0.4-0.2,0.3-0.1,0.6-0.3c0.3-0.2,0.2-0.5-0.2-0.3c-0.2,0.1-0.4-0.4-0.4-0.5c-0.1-0.3,0-0.3,0-0.6c-0.1-0.4,0.4-0.6,0.6-0.9
	c0.2-0.3,0.1-1,0.4-1.1c0.3-0.2,1-0.6,0.6-0.7c0-0.2-0.1-0.2,0.1-0.2c0-0.1,0.5-0.1,0.6-0.2s-0.1-0.4-0.1-0.6
	c0.1-0.3-0.1-0.6,0.4-0.6c0.3,0,0.2-0.4,0.4-0.2s0.1,0,0,0.2c-0.1,0.2-0.1,0.3,0,0.2c0.2-0.1,0.3-0.1,0.4,0c0.1,0.1,0.1,0.2,0.3,0.1
	c0.2-0.2,0.2-0.1,0.2-0.2s0-0.1,0-0.2c0-0.1-0.1-0.5,0-0.4c0.1,0,0.1,0.3,0.2,0.3c0.1,0,0,0.1,0.1,0.1s0.1,0.1,0.2,0.1
	c0.1-0.1,0.1-0.5,0.2-0.3c0.1,0.2,0,0.3,0.1,0.1s0.2-0.3,0.3-0.5c0-0.1,0.2-0.3,0.3-0.1s0.1,0.3,0.2,0.3c0.1,0.1,0.1,0.1,0.3-0.1
	c0.2-0.2,0.4-0.4,0.5-0.5s-0.1-0.1-0.1-0.3s0-0.2,0.2-0.5c0.2-0.2,0.3-0.4,0.3-0.5c0-0.2-0.2-0.1-0.1-0.3c0-0.2-0.1-0.2,0.3-0.2
	c0.3-0.1,0.5-0.6,0.5-0.3c0,0.2,0,0.2-0.1,0.4s-0.2,0.3,0,0.2c0.1-0.1,0.1,0,0,0.1s-0.2,0.3,0,0.2s0.4-0.1,0.4,0
	c0.1,0.1,0,0.1-0.1,0.3c-0.1,0.1-0.1,0.4,0,0.4c0.1,0.1-0.1,0.1,0.2,0c0.2-0.2,0.3-0.2,0.2-0.3s-0.4-0.3-0.2-0.3
	c0.1,0,0.2,0.2,0.3,0.2s0.1-0.1,0.1-0.2c-0.1-0.1-0.2-0.1-0.2-0.3s0.1-0.3,0.2-0.3c0.1,0,0.2-0.1,0.2-0.2c0-0.1,0.2-0.2,0.2,0
	s0,0.3,0.1,0.4c0.1,0,0.1,0.1,0,0.2c-0.1,0.1-0.2,0.2-0.1,0.4c0.1,0.1,0.1,0.2,0.3,0.2s0.3-0.1,0.4-0.2c0.2-0.1,0.2-0.1,0.2-0.2
	c0-0.2-0.1-0.2-0.2-0.4c-0.1-0.1-0.4-0.2-0.1-0.3c0.3-0.1,0.4-0.1,0.4,0c0.1,0.2-0.1,0.2,0,0.4c0.1,0.1,0.2,0.3,0.3,0.2
	s0.1-0.2,0.3-0.2c0.3,0,0.4-0.1,0.3-0.3c0-0.2,0.2-0.4,0.2-0.4s0-0.1,0.2,0s0.2,0.2,0.3,0.1c0.2-0.1,0.3-0.2,0.3-0.4s0-0.1,0-0.2
	c0-0.1,0,0.1,0.1-0.1c0.1-0.3,0.3,0.1,0.3,0.2c0.2-0.1,0.2-0.2,0.2-0.4c0-0.1,0,0.2,0.2,0.2c0,0.1,0.1,0,0.3,0c0.1,0,0.1,0,0.2,0
	c0.1,0,0-0.1,0.2-0.1c0.1-0.1,0.1-0.1,0.2-0.2c0.1-0.1,0.2-0.1,0.3-0.3c0.1-0.1,0.2-0.2,0.3-0.5C211.4,58.8,211.5,58.8,211.3,58.7
	L211.3,58.7z M160.4,138.3c0.5,0,0.6,0.1,0.7,0.6c0.1,0.3,0.2,0.8,0,1c-0.6,0.7-1.1-0.4-1.3-0.8C160.3,139,160.6,138.8,160.4,138.3z
	 M100.2,140.5c0.1,0.2,0.1,0.2,0.1,0.3s0.1,0.2,0.2,0.4s0.2,0.5,0.3,0.7c0.1,0.2,0.1,0.6,0.1,0.8c0,0.1,0,0.1,0,0.1h-0.1
	c0,0,0-0.1-0.2-0.1c-0.1,0-0.1,0-0.2-0.1s0-0.1,0-0.3c0-0.1,0-0.3,0-0.4c0-0.1-0.2-0.5-0.3-0.6c-0.1-0.1-0.2-0.3-0.2-0.3
	s-0.1-0.1,0-0.1v-0.1c0-0.1,0-0.1,0-0.1s0-0.1,0-0.2c0-0.1,0-0.2-0.1-0.3c0-0.2,0-0.1,0-0.2c0-0.1,0-0.1-0.1-0.1c-0.1-0.1,0,0,0.1,0
	c0.1,0.1,0.1,0.2,0.2,0.3C100.1,140.1,100.2,140.4,100.2,140.5L100.2,140.5z M105,132.3c-0.2,0.1-0.4,0.2-0.5,0.3s-0.2,0.1-0.3,0.2
	c-0.1,0.1-0.2,0.2-0.3,0.3c-0.1,0.2-0.1,0-0.1,0s-0.1,0.1-0.2,0.1c-0.1,0.1,0,0.1-0.1,0.2c-0.1,0.1-0.3,0.1-0.4,0.1
	s-0.1,0.1-0.1,0.1s0,0-0.1,0.1c0,0-0.1,0.1-0.2,0.1s-0.1,0-0.1,0s-0.1,0.1-0.2,0.1s-0.1,0-0.2,0.1s0,0.1,0,0.2c0,0.1-0.1,0.1-0.1,0
	c-0.1-0.1-0.1,0-0.1,0.1c0,0,0,0-0.1,0.1c0,0,0,0.1-0.1,0.2c-0.1,0.1-0.1,0.2-0.1,0.2c0,0.1,0,0.2-0.1,0.2s-0.1,0.1,0,0.1
	c0,0,0,0-0.1,0.1s0,0-0.1,0c0,0-0.1-0.1-0.1,0c0,0,0,0.1-0.1,0.2c-0.1,0.1,0,0.1,0,0.2c0,0.1,0,0,0.1,0.1c0,0,0,0.1,0,0.2
	c0,0.1-0.1,0.1-0.2,0.2c-0.1,0.1-0.1,0.2-0.2,0.3c0,0.1-0.1,0-0.1,0.1c0,0,0,0.1,0,0.2c0,0.1-0.1,0.1-0.1,0.2
	c-0.1,0.1-0.1,0.3-0.1,0.3c0,0.1,0,0.1,0,0.2c0,0-0.1,0.1-0.1,0.2c0,0.1,0,0.1,0,0.2c0,0.1,0,0.1,0,0.1s0,0.1,0,0.2
	c0,0.1,0,0.3,0,0.4c0,0,0,0.1,0,0.2c0,0.1,0,0.2,0,0.4s0,0.1,0,0.2c0,0.1,0,0-0.1,0V139c0-0.1,0-0.2-0.1-0.3c0-0.1,0-0.2,0-0.2
	c0-0.1,0-0.1,0-0.2c0-0.1,0-0.1,0-0.1s-0.1,0.1-0.3,0.1c-0.2,0.1-0.1,0-0.2,0s-0.1,0-0.2,0s-0.1,0-0.1-0.1s0-0.1-0.1-0.1
	c0,0-0.1-0.1-0.1-0.2v-0.1c0,0,0,0.1,0.1,0.1c0,0,0.1,0,0,0v-0.1c0-0.1,0.1,0,0.1,0.1s0,0.2,0,0.2s0,0.1,0.1,0s0.1-0.1,0.2-0.2
	c0.1-0.1,0-0.1,0.1-0.1c0.1-0.1,0.1,0,0.1,0.1l-0.1,0.1c0,0-0.1,0-0.1,0.1c0,0,0.1,0.1,0.2,0s0.2-0.1,0.3-0.1c0,0,0.1-0.3,0.1-0.4
	c0-0.1,0.1-0.5,0.2-0.6s0.2-0.4,0.3-0.5c0,0,0-0.1-0.2-0.1c-0.1,0-0.3-0.2-0.3-0.3s0-0.1,0-0.2c0.1-0.1,0-0.1-0.1,0
	c-0.1,0-0.1,0-0.2,0.1c-0.1,0-0.1,0,0-0.1s0.2,0,0.3-0.1c0.1,0,0.1,0.1,0.2,0.1c0.1-0.1,0.1-0.1,0.2-0.1c0.2,0,0.1,0.1,0.1,0.1
	c0,0.1,0.1,0.1,0.2,0.1s0.1-0.2,0.2-0.2c0-0.1,0.1-0.2,0.2-0.2c0.1-0.1,0.1,0,0.1,0s0,0,0-0.2c0-0.1,0.1-0.1,0.1-0.2
	c0-0.1,0-0.1,0-0.2c0-0.1,0-0.1,0-0.2h-0.1c0,0,0,0.1-0.2,0.2c-0.2,0.1-0.2,0-0.3,0c-0.1,0,0-0.1,0-0.1c0-0.1,0.3-0.2,0.4-0.3
	c0.1,0,0.1,0,0.2,0.1s0.1,0.1,0.2,0.1s0.2,0,0.2,0c0.1,0,0.2-0.1,0.2-0.2c0.1,0,0.2-0.2,0.2-0.2c0-0.1,0.1-0.1,0.1-0.1
	c0-0.1-0.1-0.1-0.1-0.2c0-0.1,0.1-0.1,0.1-0.2c0-0.1-0.1-0.1-0.2-0.2c-0.1-0.1,0.1,0,0.1,0c0.1,0.1,0.1,0,0.3,0
	c0.1,0,0.1,0.1,0.1,0.2c0,0.1,0,0.1,0.1,0.2c0,0.1,0.1,0,0.2,0s0.2-0.1,0.2-0.2c0,0,0.1-0.1,0.2-0.1s0.1,0,0.2-0.1s0.2-0.1,0.2-0.2
	c0.1,0,0,0,0-0.1s-0.1-0.1-0.2-0.2c-0.1-0.1-0.2-0.2-0.2-0.2c-0.1,0-0.1-0.1-0.2-0.1s-0.1-0.1-0.1-0.2c0-0.1-0.1-0.1-0.1-0.2
	c0-0.1,0-0.1,0.1-0.1s0.1,0.1,0.1,0.1s0,0.1,0.1,0.2c0.1,0,0.1,0,0.1,0.1s0,0.1,0,0c0.1,0,0.1,0,0,0.1c0,0.1,0.1,0,0.2,0
	c0.1-0.1,0.2-0.1,0.3-0.2c0.1-0.1,0.1,0,0.1-0.1c0,0,0-0.1,0.1-0.1h0.1c0.1-0.1,0.1-0.1,0.1-0.1s0,0-0.1,0.1c0,0.1-0.1,0.1,0,0.1
	c0,0,0.1,0,0,0.1c-0.1,0,0,0.1,0,0.2c0,0,0.2,0,0.3-0.1c0.2-0.1,0.4-0.1,0.5-0.1C105.3,132.2,105.2,132.3,105,132.3L105,132.3z
	 M110.1,128.2c-0.1,0.2-0.3,0.1-0.5,0.4c-0.1,0.3,0,0.2-0.2,0.2c-0.2,0.1,0,0-0.1-0.1c-0.1,0,0-0.1,0-0.2c0.1-0.1,0-0.1-0.2-0.3
	s0-0.1,0.1-0.2c0-0.1-0.1-0.1-0.3-0.1c-0.2,0-0.1-0.1,0-0.3c0.1-0.2,0.2-0.2,0.2-0.2s0,0,0.2,0c0.1,0,0.1-0.2,0.3-0.5
	c0.3-0.3,0.3,0.1,0.2,0.4c-0.1,0.3,0,0.2-0.1,0.4c-0.1,0.2-0.1,0.1-0.2,0.1c-0.1,0.1,0,0.1,0.1,0.2c0.1,0,0.3-0.1,0.5-0.2
	c0.2,0,0.2,0,0.2,0.1C110.4,128.1,110.3,128.1,110.1,128.2L110.1,128.2z M113.6,126.9c-0.1,0-0.3,0.1-0.5,0.2s-0.1,0-0.2-0.2
	s-0.1-0.2-0.1-0.3c0-0.1,0.1-0.2,0.2-0.3c0.1-0.1,0.1-0.2,0.3-0.4c0.2-0.2,0.2-0.2,0.1,0.4C113.4,126.8,113.4,126.7,113.6,126.9
	C113.8,126.9,113.7,126.9,113.6,126.9z M127.4,125.1c0,0.1-0.1,0.2-0.1,0.3c-0.2,0.3-0.5,0.2-0.8,0.2c-0.2,0-0.3-0.1-0.5-0.2
	c-0.2,0-0.1-0.2-0.2-0.4c-0.4-0.3-0.6-0.1-0.6-0.7c0-0.2,0.3-0.1,0.4-0.1c0.2,0,0.1,0.3,0.1,0.5c0.4,0,0.2-0.2,0.3-0.4
	c0.1-0.2,0.6-0.3,0.7-0.1c0.2,0.4,0.9,0.3,1.2,0.4c0,0.2,0.1,0.4,0.1,0.6C127.8,125.1,127.6,125.1,127.4,125.1z"/>
<g id="g136" transform="translate(-196.3,-319.60085)">
	<g id="g134" class="st1">
		<path id="path116" inkscape:connector-curvature="0" class="st2" d="M242.4,380.3l0.5-0.5c0.4,0.6,1,1,1.8,1c1,0,1.5-0.6,1.5-1.8
			v-4.9h-3v-0.8h3.9v5.7c0,1.7-0.8,2.6-2.3,2.6C243.7,381.5,242.9,381.1,242.4,380.3L242.4,380.3z"/>
		<path id="path118" inkscape:connector-curvature="0" class="st2" d="M248.8,378.4c0-1.8,1.3-3.1,3.1-3.1s3.1,1.3,3.1,3.1
			s-1.3,3.1-3.1,3.1S248.8,380.2,248.8,378.4z M254.1,378.4c0-1.4-0.9-2.3-2.3-2.3c-1.4,0-2.3,0.9-2.3,2.3c0,1.4,1,2.3,2.3,2.3
			C253.1,380.7,254.1,379.8,254.1,378.4z"/>
		<path id="path120" inkscape:connector-curvature="0" class="st2" d="M262.2,377.9v3.5h-0.8v-3.5c0-1.3-0.6-1.9-1.8-1.9
			c-1.3,0-2.2,0.8-2.2,2.2v3.2h-0.8v-8.6h0.8v3.6c0.5-0.6,1.3-1.2,2.3-1.2C261.2,375.3,262.2,376.1,262.2,377.9L262.2,377.9z"/>
		<path id="path122" inkscape:connector-curvature="0" class="st2" d="M270,377.9v3.5h-0.8v-3.5c0-1.3-0.6-1.9-1.8-1.9
			c-1.3,0-2.2,0.8-2.2,2.2v3.2h-0.8v-6h0.8v1.2c0.4-0.8,1.3-1.2,2.3-1.2C269,375.3,270,376.1,270,377.9L270,377.9z"/>
		<path id="path124" inkscape:connector-curvature="0" class="st2" d="M274.6,380.4l0.4-0.6c0.6,0.5,1.7,1,2.7,1
			c1.5,0,2.2-0.6,2.2-1.4c0-2.2-5-0.9-5-3.9c0-1.2,0.9-2.2,3-2.2c0.9,0,1.8,0.3,2.6,0.8l-0.3,0.6c-0.6-0.4-1.5-0.6-2.2-0.6
			c-1.5,0-2.2,0.6-2.2,1.4c0,2.2,5,0.9,5,3.9c0,1.2-0.9,2.2-3.1,2.2C276.4,381.5,275.3,381.1,274.6,380.4L274.6,380.4z"/>
		<path id="path126" inkscape:connector-curvature="0" class="st2" d="M292.5,377.9v3.5h-0.8v-3.5c0-1.3-0.6-1.9-1.8-1.9
			c-1.3,0-2.1,0.8-2.1,2.2v3.2h-0.8v-3.5c0-1.3-0.6-1.9-1.8-1.9c-1.3,0-2.1,0.8-2.1,2.2v3.2h-0.8v-6h0.8v1.2
			c0.4-0.8,1.2-1.2,2.2-1.2c1,0,1.8,0.4,2.2,1.3c0.4-0.8,1.3-1.3,2.4-1.3C291.5,375.3,292.5,376.1,292.5,377.9z"/>
		<path id="path128" inkscape:connector-curvature="0" class="st2" d="M294.6,373.4c0-0.3,0.3-0.5,0.6-0.5c0.4,0,0.6,0.3,0.6,0.5
			c0,0.4-0.3,0.6-0.6,0.6C294.8,374,294.6,373.8,294.6,373.4z M294.7,375.3h0.8v6h-0.8V375.3z"/>
		<path id="path130" inkscape:connector-curvature="0" class="st2" d="M301,381c-0.4,0.3-0.8,0.4-1.3,0.4c-1.2,0-1.8-0.6-1.8-1.8
			v-3.7h-1v-0.6h1v-1.3h0.8v1.3h1.8v0.6h-1.8v3.6c0,0.8,0.4,1.2,1,1.2c0.4,0,0.6-0.1,0.9-0.3L301,381z"/>
		<path id="path132" inkscape:connector-curvature="0" class="st2" d="M308,377.9v3.5h-0.8v-3.5c0-1.3-0.6-1.9-1.8-1.9
			c-1.3,0-2.2,0.8-2.2,2.2v3.2h-0.8v-8.6h0.8v3.6c0.5-0.6,1.3-1.2,2.3-1.2C307,375.3,308,376.1,308,377.9L308,377.9z"/>
	</g>
</g>
<sodipodi:namedview  bordercolor="#666666" borderopacity="1" gridtolerance="10" guidetolerance="10" id="namedview1689" inkscape:current-layer="Layer_1" inkscape:cx="91.033186" inkscape:cy="149.17115" inkscape:pageopacity="0" inkscape:pageshadow="2" inkscape:window-height="1341" inkscape:window-maximized="1" inkscape:window-width="2560" inkscape:window-x="-8" inkscape:window-y="-8" inkscape:zoom="1.874521" objecttolerance="10" pagecolor="#ffffff" showgrid="false">
	</sodipodi:namedview>
<g id="g866" transform="translate(-196.3,-319.60085)">
	<g id="g856">
		<g id="g854">
			<g id="g852">
				<polygon id="polygon850" points="285.2,333.4 293.1,341.3 300.9,333.4 301.7,334.1 293.1,342.7 284.5,334.1 				"/>
			</g>
		</g>
	</g>
	<g id="g864">
		<g id="g862">
			<g id="g860">
				
					<rect id="rect858" x="292.6" y="319.6" transform="matrix(1 -4.183733e-03 4.183733e-03 1 -1.3814 1.2292)" width="1" height="22.4"/>
			</g>
		</g>
	</g>
</g>
<g>
	<path class="st2" d="M52,73.9h-1.2v1.5h-0.9v-1.5h-3.5v-0.6l3.2-4.1h1l-3.1,4h2.4v-1.4h0.8v1.4H52V73.9z"/>
	<path class="st2" d="M58,73.9h-1.2v1.5h-0.9v-1.5h-3.5v-0.6l3.2-4.1h1l-3.1,4H56v-1.4h0.8v1.4H58V73.9z"/>
	<path class="st2" d="M64,73.9h-1.2v1.5H62v-1.5h-3.5v-0.6l3.2-4.1h1l-3.1,4H62v-1.4h0.8v1.4H64V73.9z"/>
	<path class="st2" d="M71.5,73.9h-3.3l-0.7,1.6h-0.9l2.9-6.3h0.9l2.9,6.3h-0.9L71.5,73.9z M71.2,73.2l-1.4-3.1l-1.4,3.1H71.2z"/>
	<path class="st2" d="M74,68.8h0.9v6.7H74V68.8z"/>
	<path class="st2" d="M79.7,71.1c0.4,0.3,0.5,0.8,0.5,1.4v2.9h-0.8v-0.6c-0.1,0.2-0.3,0.4-0.6,0.5c-0.3,0.1-0.6,0.2-0.9,0.2
		c-0.5,0-1-0.1-1.3-0.4c-0.3-0.3-0.5-0.6-0.5-1s0.2-0.8,0.5-1c0.3-0.3,0.8-0.4,1.5-0.4h1.4v-0.2c0-0.4-0.1-0.7-0.3-0.9
		c-0.2-0.2-0.5-0.3-1-0.3c-0.3,0-0.6,0-0.8,0.1c-0.3,0.1-0.5,0.2-0.7,0.4l-0.4-0.6c0.2-0.2,0.5-0.3,0.9-0.5c0.3-0.1,0.7-0.2,1.1-0.2
		C78.9,70.6,79.4,70.8,79.7,71.1z M78.9,74.6c0.2-0.1,0.4-0.4,0.5-0.6v-0.7h-1.3c-0.7,0-1.1,0.2-1.1,0.7c0,0.2,0.1,0.4,0.3,0.6
		c0.2,0.1,0.4,0.2,0.8,0.2S78.6,74.8,78.9,74.6z"/>
	<path class="st2" d="M82.1,75.3c-0.4-0.1-0.6-0.2-0.8-0.4l0.4-0.7c0.2,0.2,0.5,0.3,0.8,0.4c0.3,0.1,0.6,0.1,0.9,0.1
		c0.8,0,1.1-0.2,1.1-0.6c0-0.1-0.1-0.3-0.2-0.3s-0.2-0.1-0.4-0.2c-0.2,0-0.4-0.1-0.7-0.1c-0.4-0.1-0.7-0.1-0.9-0.2
		c-0.2-0.1-0.5-0.2-0.6-0.4c-0.2-0.2-0.3-0.4-0.3-0.8c0-0.4,0.2-0.8,0.5-1c0.4-0.3,0.8-0.4,1.4-0.4c0.3,0,0.6,0,1,0.1
		s0.6,0.2,0.8,0.3l-0.4,0.7c-0.4-0.3-0.8-0.4-1.4-0.4c-0.4,0-0.6,0.1-0.8,0.2c-0.2,0.1-0.3,0.3-0.3,0.5c0,0.2,0.1,0.3,0.2,0.4
		c0.1,0.1,0.2,0.2,0.4,0.2c0.2,0,0.4,0.1,0.7,0.1c0.4,0.1,0.7,0.1,0.9,0.2c0.2,0.1,0.4,0.2,0.6,0.4c0.2,0.2,0.3,0.4,0.3,0.8
		c0,0.4-0.2,0.8-0.6,1c-0.4,0.3-0.9,0.4-1.5,0.4C82.8,75.5,82.5,75.4,82.1,75.3z"/>
	<path class="st2" d="M88.2,73.2l-1,0.9v1.3h-0.9v-6.7h0.9v4.3l2.6-2.4h1l-2,2l2.2,2.8H90L88.2,73.2z"/>
	<path class="st2" d="M95.1,71.1c0.4,0.3,0.5,0.8,0.5,1.4v2.9h-0.8v-0.6c-0.1,0.2-0.3,0.4-0.6,0.5c-0.3,0.1-0.6,0.2-0.9,0.2
		c-0.5,0-1-0.1-1.3-0.4c-0.3-0.3-0.5-0.6-0.5-1s0.2-0.8,0.5-1c0.3-0.3,0.8-0.4,1.5-0.4h1.4v-0.2c0-0.4-0.1-0.7-0.3-0.9
		c-0.2-0.2-0.5-0.3-1-0.3c-0.3,0-0.6,0-0.8,0.1c-0.3,0.1-0.5,0.2-0.7,0.4l-0.4-0.6c0.2-0.2,0.5-0.3,0.9-0.5c0.3-0.1,0.7-0.2,1.1-0.2
		C94.2,70.6,94.7,70.8,95.1,71.1z M94.2,74.6c0.2-0.1,0.4-0.4,0.5-0.6v-0.7h-1.3c-0.7,0-1.1,0.2-1.1,0.7c0,0.2,0.1,0.4,0.3,0.6
		c0.2,0.1,0.4,0.2,0.8,0.2S94,74.8,94.2,74.6z"/>
	<path class="st2" d="M103.8,73.9h-3.3l-0.7,1.6h-0.9l2.9-6.3h0.9l2.9,6.3h-0.9L103.8,73.9z M103.4,73.2l-1.4-3.1l-1.4,3.1H103.4z"
		/>
	<path class="st2" d="M110.2,70.7l-2.1,4.8h-0.9l-2.1-4.8h0.9l1.6,3.8l1.7-3.8H110.2z"/>
	<path class="st2" d="M115.2,73.4h-3.9c0.1,0.4,0.2,0.8,0.6,1c0.3,0.3,0.7,0.4,1.2,0.4c0.6,0,1-0.2,1.4-0.6l0.5,0.6
		c-0.2,0.3-0.5,0.4-0.8,0.6c-0.3,0.1-0.7,0.2-1.1,0.2c-0.5,0-1-0.1-1.3-0.3c-0.4-0.2-0.7-0.5-0.9-0.9s-0.3-0.8-0.3-1.3
		c0-0.5,0.1-0.9,0.3-1.3s0.5-0.7,0.9-0.9c0.4-0.2,0.8-0.3,1.2-0.3c0.5,0,0.9,0.1,1.2,0.3c0.4,0.2,0.6,0.5,0.8,0.9s0.3,0.8,0.3,1.3
		C115.2,73.2,115.2,73.2,115.2,73.4z M111.8,71.7c-0.3,0.3-0.4,0.6-0.5,1h3.1c0-0.4-0.2-0.7-0.5-1s-0.6-0.4-1-0.4
		C112.4,71.4,112.1,71.5,111.8,71.7z"/>
	<path class="st2" d="M120.4,71.2c0.4,0.4,0.5,0.9,0.5,1.5v2.7H120v-2.6c0-0.5-0.1-0.8-0.3-1c-0.2-0.2-0.5-0.4-1-0.4
		c-0.5,0-0.8,0.1-1.1,0.4c-0.3,0.3-0.4,0.7-0.4,1.2v2.5h-0.9v-4.8h0.8v0.7c0.2-0.2,0.4-0.4,0.7-0.6s0.6-0.2,1-0.2
		C119.5,70.6,120,70.8,120.4,71.2z"/>
	<path class="st2" d="M126.9,70.7v4.8h-0.8v-0.7c-0.2,0.2-0.4,0.4-0.7,0.6c-0.3,0.1-0.6,0.2-0.9,0.2c-0.6,0-1.1-0.2-1.5-0.5
		c-0.4-0.4-0.5-0.9-0.5-1.6v-2.7h0.9v2.6c0,0.5,0.1,0.8,0.3,1c0.2,0.2,0.5,0.4,1,0.4c0.5,0,0.8-0.1,1.1-0.4c0.3-0.3,0.4-0.7,0.4-1.2
		v-2.5H126.9z"/>
	<path class="st2" d="M132.9,73.4H129c0.1,0.4,0.2,0.8,0.6,1c0.3,0.3,0.7,0.4,1.2,0.4c0.6,0,1-0.2,1.4-0.6l0.5,0.6
		c-0.2,0.3-0.5,0.4-0.8,0.6c-0.3,0.1-0.7,0.2-1.1,0.2c-0.5,0-1-0.1-1.3-0.3c-0.4-0.2-0.7-0.5-0.9-0.9s-0.3-0.8-0.3-1.3
		c0-0.5,0.1-0.9,0.3-1.3s0.5-0.7,0.9-0.9c0.4-0.2,0.8-0.3,1.2-0.3c0.5,0,0.9,0.1,1.2,0.3c0.4,0.2,0.6,0.5,0.8,0.9s0.3,0.8,0.3,1.3
		C132.9,73.2,132.9,73.2,132.9,73.4z M129.5,71.7c-0.3,0.3-0.4,0.6-0.5,1h3.1c0-0.4-0.2-0.7-0.5-1s-0.6-0.4-1-0.4
		C130.1,71.4,129.8,71.5,129.5,71.7z"/>
	<path class="st2" d="M47.5,87.3c-0.4-0.1-0.8-0.3-1-0.6l0.3-0.7c0.2,0.2,0.5,0.4,0.9,0.5s0.8,0.2,1.2,0.2c0.5,0,0.9-0.1,1.2-0.3
		c0.3-0.2,0.4-0.4,0.4-0.7c0-0.2-0.1-0.4-0.2-0.5s-0.3-0.2-0.5-0.3s-0.5-0.2-0.9-0.2c-0.5-0.1-0.9-0.2-1.1-0.3s-0.5-0.3-0.7-0.5
		s-0.3-0.6-0.3-1c0-0.3,0.1-0.6,0.3-0.9c0.2-0.3,0.4-0.5,0.8-0.6c0.4-0.2,0.8-0.2,1.3-0.2c0.4,0,0.7,0,1.1,0.1
		c0.4,0.1,0.7,0.2,0.9,0.4l-0.3,0.7c-0.3-0.2-0.5-0.3-0.8-0.4s-0.6-0.1-0.9-0.1c-0.5,0-0.9,0.1-1.1,0.3c-0.3,0.2-0.4,0.4-0.4,0.7
		c0,0.2,0.1,0.4,0.2,0.5c0.1,0.1,0.3,0.2,0.5,0.3s0.5,0.2,0.9,0.2c0.5,0.1,0.9,0.2,1.1,0.3c0.3,0.1,0.5,0.3,0.7,0.5s0.3,0.5,0.3,0.9
		c0,0.3-0.1,0.6-0.3,0.9c-0.2,0.3-0.5,0.5-0.8,0.6c-0.4,0.2-0.8,0.2-1.4,0.2C48.4,87.5,47.9,87.4,47.5,87.3z"/>
	<path class="st2" d="M56.9,82.7v4.8h-0.8v-0.7c-0.2,0.2-0.4,0.4-0.7,0.6c-0.3,0.1-0.6,0.2-0.9,0.2c-0.6,0-1.1-0.2-1.5-0.5
		c-0.4-0.4-0.5-0.9-0.5-1.6v-2.7h0.9v2.6c0,0.5,0.1,0.8,0.3,1c0.2,0.2,0.5,0.4,1,0.4c0.5,0,0.8-0.1,1.1-0.4c0.3-0.3,0.4-0.7,0.4-1.2
		v-2.5H56.9z"/>
	<path class="st2" d="M58.6,81.6c-0.1-0.1-0.2-0.2-0.2-0.4s0.1-0.3,0.2-0.4c0.1-0.1,0.3-0.2,0.4-0.2s0.3,0.1,0.4,0.2
		c0.1,0.1,0.2,0.2,0.2,0.4c0,0.2-0.1,0.3-0.2,0.4s-0.3,0.2-0.4,0.2S58.7,81.7,58.6,81.6z M58.6,82.7h0.9v4.8h-0.9V82.7z"/>
	<path class="st2" d="M63.8,87.2c-0.1,0.1-0.3,0.2-0.5,0.2c-0.2,0.1-0.4,0.1-0.6,0.1c-0.5,0-0.9-0.1-1.1-0.4
		c-0.3-0.3-0.4-0.6-0.4-1.1v-2.6h-0.8v-0.7h0.8v-1h0.9v1h1.4v0.7h-1.4V86c0,0.3,0.1,0.5,0.2,0.6s0.3,0.2,0.6,0.2
		c0.3,0,0.5-0.1,0.7-0.2L63.8,87.2z"/>
	<path class="st2" d="M68.9,85.4h-3.9c0.1,0.4,0.2,0.8,0.6,1c0.3,0.3,0.7,0.4,1.2,0.4c0.6,0,1-0.2,1.4-0.6l0.5,0.6
		c-0.2,0.3-0.5,0.4-0.8,0.6c-0.3,0.1-0.7,0.2-1.1,0.2c-0.5,0-1-0.1-1.3-0.3s-0.7-0.5-0.9-0.9c-0.2-0.4-0.3-0.8-0.3-1.3
		c0-0.5,0.1-0.9,0.3-1.3s0.5-0.7,0.9-0.9c0.4-0.2,0.8-0.3,1.2-0.3s0.9,0.1,1.2,0.3c0.4,0.2,0.6,0.5,0.8,0.9c0.2,0.4,0.3,0.8,0.3,1.3
		C69,85.2,69,85.2,68.9,85.4z M65.6,83.7c-0.3,0.3-0.4,0.6-0.5,1h3.1c0-0.4-0.2-0.7-0.5-1s-0.6-0.4-1-0.4S65.8,83.5,65.6,83.7z"/>
	<path class="st2" d="M76.5,83.4l-0.2,1.7h1.3v0.7h-1.3L76,87.4h-0.6l0.2-1.6h-1.7l-0.2,1.6H73l0.2-1.6H72v-0.7h1.3l0.2-1.7h-1.3
		v-0.7h1.3l0.2-1.6h0.6l-0.2,1.6H76l0.2-1.6h0.6l-0.2,1.6h1.2v0.7H76.5z M75.9,83.4h-1.7L74,85.2h1.7L75.9,83.4z"/>
	<path class="st2" d="M82.3,84.2c0.4,0.3,0.6,0.8,0.6,1.4c0,0.4-0.1,0.7-0.3,1s-0.4,0.5-0.8,0.7c-0.4,0.2-0.8,0.3-1.3,0.3
		c-0.4,0-0.9-0.1-1.3-0.2c-0.4-0.1-0.8-0.3-1-0.6l0.4-0.7c0.2,0.2,0.5,0.4,0.8,0.5s0.7,0.2,1.1,0.2c0.5,0,0.8-0.1,1.1-0.3
		c0.3-0.2,0.4-0.5,0.4-0.8c0-0.4-0.1-0.7-0.4-0.9c-0.3-0.2-0.8-0.3-1.5-0.3h-1.4l0.3-3.3h3.6v0.8h-2.8l-0.2,1.7h0.7
		C81.2,83.7,81.9,83.8,82.3,84.2z"/>
	<path class="st2" d="M85.6,81.1v6.3h-0.9v-5.5h-1.4v-0.8H85.6z"/>
	<path class="st2" d="M90.8,84.2c0.4,0.3,0.6,0.8,0.6,1.4c0,0.4-0.1,0.7-0.3,1s-0.4,0.5-0.8,0.7c-0.4,0.2-0.8,0.3-1.3,0.3
		c-0.4,0-0.9-0.1-1.3-0.2c-0.4-0.1-0.8-0.3-1-0.6l0.4-0.7c0.2,0.2,0.5,0.4,0.8,0.5s0.7,0.2,1.1,0.2c0.5,0,0.8-0.1,1.1-0.3
		c0.3-0.2,0.4-0.5,0.4-0.8c0-0.4-0.1-0.7-0.4-0.9c-0.3-0.2-0.8-0.3-1.5-0.3h-1.4l0.3-3.3h3.6v0.8h-2.8l-0.2,1.7h0.7
		C89.7,83.7,90.4,83.8,90.8,84.2z"/>
	<path class="st2" d="M93.4,87.1c-0.4-0.3-0.7-0.6-0.9-1.1c-0.2-0.5-0.3-1.1-0.3-1.7s0.1-1.2,0.3-1.7c0.2-0.5,0.5-0.9,0.9-1.1
		c0.4-0.3,0.8-0.4,1.3-0.4c0.5,0,0.9,0.1,1.3,0.4c0.4,0.3,0.7,0.6,0.9,1.1c0.2,0.5,0.3,1.1,0.3,1.7S97.2,85.5,97,86
		c-0.2,0.5-0.5,0.9-0.9,1.1c-0.4,0.3-0.8,0.4-1.3,0.4C94.3,87.5,93.8,87.4,93.4,87.1z M96,86.1c0.3-0.4,0.5-1,0.5-1.8
		c0-0.8-0.2-1.4-0.5-1.8c-0.3-0.4-0.7-0.6-1.2-0.6c-0.5,0-0.9,0.2-1.2,0.6c-0.3,0.4-0.5,1-0.5,1.8c0,0.8,0.2,1.4,0.5,1.8
		c0.3,0.4,0.7,0.6,1.2,0.6C95.3,86.7,95.7,86.5,96,86.1z"/>
	<path class="st2" d="M48.3,93.9h-2.2v-0.8h5.2v0.8h-2.2v5.5h-0.9V93.9z"/>
	<path class="st2" d="M52.4,99.2c-0.4-0.2-0.7-0.5-0.9-0.9c-0.2-0.4-0.3-0.8-0.3-1.3s0.1-0.9,0.3-1.3c0.2-0.4,0.5-0.7,0.9-0.9
		s0.8-0.3,1.3-0.3c0.5,0,0.9,0.1,1.3,0.3c0.4,0.2,0.7,0.5,0.9,0.9s0.3,0.8,0.3,1.3s-0.1,0.9-0.3,1.3c-0.2,0.4-0.5,0.7-0.9,0.9
		c-0.4,0.2-0.8,0.3-1.3,0.3C53.2,99.5,52.8,99.4,52.4,99.2z M54.5,98.5c0.2-0.1,0.4-0.3,0.6-0.6c0.1-0.3,0.2-0.5,0.2-0.9
		s-0.1-0.6-0.2-0.9c-0.1-0.3-0.3-0.5-0.6-0.6c-0.2-0.1-0.5-0.2-0.8-0.2c-0.3,0-0.6,0.1-0.8,0.2c-0.2,0.1-0.4,0.3-0.6,0.6
		s-0.2,0.5-0.2,0.9s0.1,0.6,0.2,0.9c0.1,0.3,0.3,0.5,0.6,0.6c0.2,0.1,0.5,0.2,0.8,0.2C54,98.7,54.3,98.7,54.5,98.5z"/>
	<path class="st2" d="M58.9,94.9c0.3-0.1,0.7-0.2,1.1-0.2v0.8c0,0-0.1,0-0.2,0c-0.5,0-0.8,0.1-1.1,0.4s-0.4,0.7-0.4,1.2v2.4h-0.9
		v-4.8h0.8v0.8C58.4,95.2,58.6,95,58.9,94.9z"/>
	<path class="st2" d="M62.5,94.9c0.3-0.1,0.7-0.2,1.1-0.2v0.8c0,0-0.1,0-0.2,0c-0.5,0-0.8,0.1-1.1,0.4s-0.4,0.7-0.4,1.2v2.4H61v-4.8
		h0.8v0.8C62,95.2,62.2,95,62.5,94.9z"/>
	<path class="st2" d="M67.9,95.1c0.4,0.3,0.5,0.8,0.5,1.4v2.9h-0.8v-0.6c-0.1,0.2-0.3,0.4-0.6,0.5c-0.3,0.1-0.6,0.2-0.9,0.2
		c-0.5,0-1-0.1-1.3-0.4c-0.3-0.3-0.5-0.6-0.5-1s0.2-0.8,0.5-1c0.3-0.3,0.8-0.4,1.5-0.4h1.4v-0.2c0-0.4-0.1-0.7-0.3-0.9
		c-0.2-0.2-0.5-0.3-1-0.3c-0.3,0-0.6,0-0.8,0.1c-0.3,0.1-0.5,0.2-0.7,0.4l-0.4-0.6c0.2-0.2,0.5-0.3,0.9-0.5c0.3-0.1,0.7-0.2,1.1-0.2
		C67,94.6,67.5,94.8,67.9,95.1z M67,98.6c0.2-0.1,0.4-0.4,0.5-0.6v-0.7h-1.3c-0.7,0-1.1,0.2-1.1,0.7c0,0.2,0.1,0.4,0.3,0.6
		c0.2,0.1,0.4,0.2,0.8,0.2S66.8,98.8,67,98.6z"/>
	<path class="st2" d="M74,95.2c0.4,0.4,0.5,0.9,0.5,1.5v2.7h-0.9v-2.6c0-0.5-0.1-0.8-0.3-1c-0.2-0.2-0.5-0.4-1-0.4
		c-0.5,0-0.8,0.1-1.1,0.4c-0.3,0.3-0.4,0.7-0.4,1.2v2.5H70v-4.8h0.8v0.7c0.2-0.2,0.4-0.4,0.7-0.6s0.6-0.2,1-0.2
		C73.2,94.6,73.7,94.8,74,95.2z"/>
	<path class="st2" d="M77,99.2c-0.4-0.2-0.7-0.5-0.9-0.9c-0.2-0.4-0.3-0.8-0.3-1.3s0.1-0.9,0.3-1.3c0.2-0.4,0.5-0.7,0.9-0.9
		c0.4-0.2,0.8-0.3,1.3-0.3c0.4,0,0.8,0.1,1.2,0.3c0.3,0.2,0.6,0.4,0.8,0.8l-0.7,0.4c-0.1-0.2-0.3-0.4-0.6-0.5
		c-0.2-0.1-0.5-0.2-0.7-0.2c-0.3,0-0.6,0.1-0.8,0.2c-0.2,0.1-0.4,0.3-0.6,0.6s-0.2,0.5-0.2,0.9c0,0.3,0.1,0.6,0.2,0.9
		c0.1,0.3,0.3,0.5,0.6,0.6c0.2,0.1,0.5,0.2,0.8,0.2c0.3,0,0.5-0.1,0.7-0.2s0.4-0.3,0.6-0.5l0.7,0.4c-0.2,0.3-0.4,0.6-0.8,0.8
		c-0.3,0.2-0.7,0.3-1.2,0.3C77.8,99.5,77.3,99.4,77,99.2z"/>
	<path class="st2" d="M85.5,97.4h-3.9c0.1,0.4,0.2,0.8,0.6,1c0.3,0.3,0.7,0.4,1.2,0.4c0.6,0,1-0.2,1.4-0.6l0.5,0.6
		c-0.2,0.3-0.5,0.4-0.8,0.6c-0.3,0.1-0.7,0.2-1.1,0.2c-0.5,0-1-0.1-1.3-0.3s-0.7-0.5-0.9-0.9c-0.2-0.4-0.3-0.8-0.3-1.3
		c0-0.5,0.1-0.9,0.3-1.3s0.5-0.7,0.9-0.9c0.4-0.2,0.8-0.3,1.2-0.3s0.9,0.1,1.2,0.3c0.4,0.2,0.6,0.5,0.8,0.9c0.2,0.4,0.3,0.8,0.3,1.3
		C85.6,97.2,85.6,97.2,85.5,97.4z M82.2,95.7c-0.3,0.3-0.4,0.6-0.5,1h3.1c0-0.4-0.2-0.7-0.5-1s-0.6-0.4-1-0.4S82.4,95.5,82.2,95.7z"
		/>
	<path class="st2" d="M87.4,98.4c0.1,0.1,0.2,0.3,0.2,0.4c0,0.1,0,0.2,0,0.3s-0.1,0.2-0.1,0.4l-0.4,1.3h-0.6l0.3-1.3
		c-0.1,0-0.2-0.1-0.3-0.2c-0.1-0.1-0.1-0.2-0.1-0.3c0-0.2,0.1-0.3,0.2-0.4c0.1-0.1,0.3-0.2,0.4-0.2C87.1,98.3,87.3,98.3,87.4,98.4z"
		/>
	<path class="st2" d="M92.5,99.1c-0.5-0.3-0.9-0.7-1.2-1.2c-0.3-0.5-0.4-1-0.4-1.7c0-0.6,0.1-1.2,0.4-1.7c0.3-0.5,0.7-0.9,1.2-1.2
		c0.5-0.3,1.1-0.4,1.7-0.4c0.5,0,0.9,0.1,1.4,0.2c0.4,0.2,0.8,0.4,1,0.7L96,94.6c-0.5-0.5-1.1-0.7-1.8-0.7c-0.5,0-0.9,0.1-1.3,0.3
		s-0.7,0.5-0.9,0.9s-0.3,0.8-0.3,1.2c0,0.5,0.1,0.9,0.3,1.2c0.2,0.4,0.5,0.7,0.9,0.9s0.8,0.3,1.3,0.3c0.7,0,1.3-0.3,1.8-0.8l0.6,0.6
		c-0.3,0.3-0.6,0.6-1,0.7c-0.4,0.2-0.9,0.3-1.4,0.3C93.5,99.5,93,99.4,92.5,99.1z"/>
	<path class="st2" d="M101.7,97.9h-3.3l-0.7,1.6h-0.9l2.9-6.3h0.9l2.9,6.3h-0.9L101.7,97.9z M101.4,97.2l-1.4-3.1l-1.4,3.1H101.4z"
		/>
	<path class="st2" d="M110.2,93.9c0.5,0.5,0.7,1.3,0.7,2.3c0,0.7-0.1,1.3-0.4,1.8c-0.2,0.5-0.6,0.9-1,1.1c-0.4,0.3-1,0.4-1.6,0.4
		c-0.3,0-0.6,0-0.9-0.1c-0.3-0.1-0.5-0.2-0.7-0.3l0.3-0.7c0.3,0.2,0.7,0.3,1.2,0.3c0.7,0,1.2-0.2,1.5-0.6s0.6-1,0.6-1.8v-0.2
		c-0.2,0.3-0.4,0.5-0.7,0.6s-0.7,0.2-1.1,0.2c-0.4,0-0.8-0.1-1.1-0.2c-0.3-0.2-0.6-0.4-0.8-0.7c-0.2-0.3-0.3-0.6-0.3-1
		c0-0.4,0.1-0.7,0.3-1s0.5-0.5,0.8-0.7s0.7-0.2,1.1-0.2C109.1,93.1,109.7,93.4,110.2,93.9z M109.1,96.1c0.2-0.1,0.4-0.3,0.5-0.4
		c0.1-0.2,0.2-0.4,0.2-0.6c0-0.2-0.1-0.4-0.2-0.6c-0.1-0.2-0.3-0.3-0.5-0.4s-0.5-0.2-0.8-0.2c-0.4,0-0.7,0.1-1,0.3
		c-0.3,0.2-0.4,0.5-0.4,0.9s0.1,0.7,0.4,0.9s0.6,0.3,1,0.3C108.6,96.2,108.9,96.2,109.1,96.1z"/>
	<path class="st2" d="M113,99.1c-0.4-0.3-0.7-0.6-0.9-1.1c-0.2-0.5-0.3-1.1-0.3-1.7s0.1-1.2,0.3-1.7c0.2-0.5,0.5-0.9,0.9-1.1
		c0.4-0.3,0.8-0.4,1.3-0.4c0.5,0,0.9,0.1,1.3,0.4c0.4,0.3,0.7,0.6,0.9,1.1c0.2,0.5,0.3,1.1,0.3,1.7s-0.1,1.2-0.3,1.7
		c-0.2,0.5-0.5,0.9-0.9,1.1c-0.4,0.3-0.8,0.4-1.3,0.4C113.8,99.5,113.4,99.4,113,99.1z M115.5,98.1c0.3-0.4,0.5-1,0.5-1.8
		c0-0.8-0.2-1.4-0.5-1.8c-0.3-0.4-0.7-0.6-1.2-0.6c-0.5,0-0.9,0.2-1.2,0.6c-0.3,0.4-0.5,1-0.5,1.8c0,0.8,0.2,1.4,0.5,1.8
		c0.3,0.4,0.7,0.6,1.2,0.6C114.8,98.7,115.2,98.5,115.5,98.1z"/>
	<path class="st2" d="M121.5,96.2c0.4,0.3,0.6,0.8,0.6,1.4c0,0.4-0.1,0.7-0.3,1c-0.2,0.3-0.4,0.5-0.8,0.7c-0.4,0.2-0.8,0.3-1.3,0.3
		c-0.4,0-0.9-0.1-1.3-0.2c-0.4-0.1-0.8-0.3-1-0.6l0.4-0.7c0.2,0.2,0.5,0.4,0.8,0.5s0.7,0.2,1.1,0.2c0.5,0,0.8-0.1,1.1-0.3
		s0.4-0.5,0.4-0.8c0-0.4-0.1-0.7-0.4-0.9c-0.3-0.2-0.8-0.3-1.5-0.3h-1.4l0.3-3.3h3.6v0.8H119l-0.2,1.7h0.7
		C120.4,95.7,121.1,95.8,121.5,96.2z"/>
	<path class="st2" d="M124.2,99.1c-0.4-0.3-0.7-0.6-0.9-1.1c-0.2-0.5-0.3-1.1-0.3-1.7s0.1-1.2,0.3-1.7c0.2-0.5,0.5-0.9,0.9-1.1
		c0.4-0.3,0.8-0.4,1.3-0.4c0.5,0,0.9,0.1,1.3,0.4c0.4,0.3,0.7,0.6,0.9,1.1c0.2,0.5,0.3,1.1,0.3,1.7s-0.1,1.2-0.3,1.7
		c-0.2,0.5-0.5,0.9-0.9,1.1c-0.4,0.3-0.8,0.4-1.3,0.4C125,99.5,124.5,99.4,124.2,99.1z M126.7,98.1c0.3-0.4,0.5-1,0.5-1.8
		c0-0.8-0.2-1.4-0.5-1.8c-0.3-0.4-0.7-0.6-1.2-0.6c-0.5,0-0.9,0.2-1.2,0.6c-0.3,0.4-0.5,1-0.5,1.8c0,0.8,0.2,1.4,0.5,1.8
		c0.3,0.4,0.7,0.6,1.2,0.6C126,98.7,126.4,98.5,126.7,98.1z"/>
	<path class="st2" d="M132.7,96.4c0.3,0.3,0.5,0.7,0.5,1.2c0,0.4-0.1,0.7-0.3,1c-0.2,0.3-0.4,0.5-0.8,0.7c-0.4,0.2-0.8,0.3-1.3,0.3
		c-0.5,0-0.9-0.1-1.3-0.2c-0.4-0.1-0.8-0.3-1-0.6l0.4-0.7c0.2,0.2,0.5,0.4,0.8,0.5s0.7,0.2,1.1,0.2c0.5,0,0.8-0.1,1.1-0.3
		c0.3-0.2,0.4-0.5,0.4-0.8c0-0.3-0.1-0.6-0.4-0.8c-0.3-0.2-0.6-0.3-1.2-0.3h-0.5v-0.6l1.6-1.9h-3v-0.8h4.2v0.6l-1.6,2
		C131.9,95.9,132.3,96,132.7,96.4z"/>
	<path class="st2" d="M47.7,110.8c-0.5-0.5-0.7-1.2-0.7-2.1v-3.6h0.9v3.5c0,1.3,0.6,2,1.8,2c0.6,0,1-0.2,1.3-0.5
		c0.3-0.3,0.5-0.8,0.5-1.5v-3.5h0.9v3.6c0,0.9-0.2,1.6-0.7,2.1c-0.5,0.5-1.1,0.7-2,0.7C48.8,111.5,48.1,111.3,47.7,110.8z"/>
	<path class="st2" d="M54.6,111.3c-0.4-0.1-0.8-0.3-1-0.6l0.3-0.7c0.2,0.2,0.5,0.4,0.9,0.5s0.8,0.2,1.2,0.2c0.5,0,0.9-0.1,1.2-0.3
		c0.3-0.2,0.4-0.4,0.4-0.7c0-0.2-0.1-0.4-0.2-0.5s-0.3-0.2-0.5-0.3s-0.5-0.2-0.9-0.2c-0.5-0.1-0.9-0.2-1.1-0.3s-0.5-0.3-0.7-0.5
		s-0.3-0.6-0.3-1c0-0.3,0.1-0.6,0.3-0.9c0.2-0.3,0.4-0.5,0.8-0.6c0.4-0.2,0.8-0.2,1.3-0.2c0.4,0,0.7,0,1.1,0.1
		c0.4,0.1,0.7,0.2,0.9,0.4l-0.3,0.7c-0.3-0.2-0.5-0.3-0.8-0.4s-0.6-0.1-0.9-0.1c-0.5,0-0.9,0.1-1.1,0.3c-0.3,0.2-0.4,0.4-0.4,0.7
		c0,0.2,0.1,0.4,0.2,0.5c0.1,0.1,0.3,0.2,0.5,0.3s0.5,0.2,0.9,0.2c0.5,0.1,0.9,0.2,1.1,0.3c0.3,0.1,0.5,0.3,0.7,0.5s0.3,0.5,0.3,0.9
		c0,0.3-0.1,0.6-0.3,0.9c-0.2,0.3-0.5,0.5-0.8,0.6c-0.4,0.2-0.8,0.2-1.4,0.2C55.5,111.5,55,111.4,54.6,111.3z"/>
	<path class="st2" d="M63.7,109.9h-3.3l-0.7,1.6h-0.9l2.9-6.3h0.9l2.9,6.3h-0.9L63.7,109.9z M63.4,109.2l-1.4-3.1l-1.4,3.1H63.4z"/>
</g>
</svg>
