<?xml version="1.0" encoding="UTF-8" standalone="no"?>
<!-- Generator: Adobe Illustrator 24.1.3, SVG Export Plug-In . SVG Version: 6.00 Build 0)  -->

<svg
   xmlns:dc="http://purl.org/dc/elements/1.1/"
   xmlns:cc="http://creativecommons.org/ns#"
   xmlns:rdf="http://www.w3.org/1999/02/22-rdf-syntax-ns#"
   xmlns:svg="http://www.w3.org/2000/svg"
   xmlns="http://www.w3.org/2000/svg"
   xmlns:xlink="http://www.w3.org/1999/xlink"
   xmlns:sodipodi="http://sodipodi.sourceforge.net/DTD/sodipodi-0.dtd"
   xmlns:inkscape="http://www.inkscape.org/namespaces/inkscape"
   version="1.1"
   id="Layer_1"
   x="0px"
   y="0px"
   viewBox="0 0 386.7019 279.51248"
   xml:space="preserve"
   sodipodi:docname="Partner_Step3Cropped.html"
   width="386.7019"
   height="279.51248"
   inkscape:version="0.92.3 (2405546, 2018-03-11)"><metadata
   id="metadata213"><rdf:RDF><cc:Work
       rdf:about=""><dc:format>image/svg+xml</dc:format><dc:type
         rdf:resource="http://purl.org/dc/dcmitype/StillImage" /><dc:title></dc:title></cc:Work></rdf:RDF></metadata><defs
   id="defs211" /><sodipodi:namedview
   pagecolor="#ffffff"
   bordercolor="#666666"
   borderopacity="1"
   objecttolerance="10"
   gridtolerance="10"
   guidetolerance="10"
   inkscape:pageopacity="0"
   inkscape:pageshadow="2"
   inkscape:window-width="2560"
   inkscape:window-height="1341"
   id="namedview209"
   showgrid="false"
   inkscape:zoom="0.862084"
   inkscape:cx="-59.943715"
   inkscape:cy="195.61247"
   inkscape:window-x="-8"
   inkscape:window-y="-8"
   inkscape:window-maximized="1"
   inkscape:current-layer="Layer_1" />
<style
   type="text/css"
   id="style2">
	.st0{fill:#D6D7D8;}
	.st1{fill-rule:evenodd;clip-rule:evenodd;fill:#FABF61;}
	.st2{fill-rule:evenodd;clip-rule:evenodd;fill:#F5B382;}
	.st3{fill-rule:evenodd;clip-rule:evenodd;fill:#E3A370;}
	.st4{fill-rule:evenodd;clip-rule:evenodd;fill:#F0DBB8;}
	.st5{fill-rule:evenodd;clip-rule:evenodd;fill:#E6E6E6;}
	.st6{fill-rule:evenodd;clip-rule:evenodd;}
	.st7{fill-rule:evenodd;clip-rule:evenodd;fill:#895531;}
	.st8{fill:#333333;}
	.st9{fill:#FFFFFF;stroke:#000000;stroke-width:4;stroke-miterlimit:10;}
	.st10{fill:#F4F4F4;}
	.st11{fill:#F5B382;}
	.st12{fill:#E5E5E5;}
	.st13{fill:#CCCCCC;}
	.st14{fill:#AEB8A5;}
	.st15{fill:#F5A8B3;}
	.st16{fill:#9EBEA2;}
	.st17{fill:#B4CDB8;}
	.st18{fill:#F8BCC3;}
	.st19{fill:#ECABB3;}
	.st20{fill:#E7D3CE;}
	.st21{fill:#D8C8BB;}
	.st22{fill:#946C5E;}
	.st23{fill:#A88774;}
	.st24{fill:#E96058;}
	.st25{fill:#F79C98;}
	.st26{fill:#F07C78;}
	.st27{fill:#D9C9BA;}
	.st28{fill:#E1D7CD;}
	.st29{fill:#9F8A75;}
	.st30{fill:#816549;}
	.st31{fill:#F5A788;}
	.st32{fill:#F38961;}
	.st33{fill:#D19278;}
	.st34{fill:#F7A588;}
	.st35{fill:#B7B6B6;}
	.st36{fill:#20284D;}
	.st37{fill:none;stroke:#F4F4F4;stroke-width:4;stroke-linecap:round;stroke-linejoin:round;stroke-miterlimit:10;}
	.st38{fill:none;stroke:#FFFFFF;stroke-linecap:round;stroke-linejoin:round;stroke-miterlimit:10;}
	.st39{fill:#0462A4;}
	.st40{fill:#FFFFFF;}
	.st41{font-family:'MyriadPro-Regular';}
	.st42{font-size:9.8314px;}
	.st43{clip-path:url(#SVGID_2_);}
</style>

<g
   id="g206"
   transform="translate(-115.4,-209.7)">
	<path
   class="st1"
   d="m 432.2,400.4 c 1.8,7.6 25.7,49.8 32.7,75.8 -19.2,14.4 -52.4,17.6 -56.1,5.8 -4.7,-14.9 -24,-47.2 -31.3,-47.2 -3.9,0 -21,16.6 -28.7,16.4 -7.7,-0.2 -19.3,-9.1 -25,-11.6 -0.2,1.4 1.7,-8.8 5.2,-10.4 0.4,-2 0.1,-0.6 1.4,-1.1 12,6.5 12.9,5.2 20.2,6.9 7.3,1.7 21.7,-29.8 24,-34.3 0.7,-2.9 9.9,-12.2 12.5,-11 3.9,-1.2 15.7,-6.4 17,-7.3 1.3,-0.9 15.7,-5.4 18.2,-7.3 2.5,-1.9 25.2,-20.1 33.2,-18.9 8,1.2 25.1,23 21.4,21.8 -0.8,0.2 -5.7,4.5 -8.9,5.9 -6.1,-5.9 -10.8,-6.1 -16.5,-6 -5.8,0 -21,14.9 -19.3,22.5 z"
   id="path6"
   inkscape:connector-curvature="0"
   style="clip-rule:evenodd;fill:#fabf61;fill-rule:evenodd" />
	<path
   class="st2"
   d="m 329.9,440.8 c 4.4,0.9 7.4,-10.8 2.5,-11.3 -2.5,-1.4 -18.2,-10.1 -18.8,-11.5 -0.5,-1.3 0.3,-10.6 -1.1,-10.7 -1.4,-0.1 -8.4,-5.3 -10.6,-4.4 -2.2,0.9 -8.5,9.6 -8.4,10.9 0,1.4 4,4 5.4,3.4 1.4,-0.6 4.5,-5.7 5.9,-7 1.4,-1.3 2.6,-0.2 1.4,2.2 -1.2,2.4 -6.9,12.9 -8,16.3 -1.2,3.4 7.3,-0.2 10.4,1.6 3.2,1.9 15.4,7 21.6,10.7 -0.3,-0.2 -0.6,-0.4 -0.3,-0.2 z"
   id="path8"
   inkscape:connector-curvature="0"
   style="clip-rule:evenodd;fill:#f5b382;fill-rule:evenodd" />
	<path
   class="st3"
   d="m 300,404.3 c -2.6,-1.6 -5.4,-2.7 -7.3,-2.3 -3.1,0.6 -3.6,4 -3.1,5.3 0.5,1.4 1.8,2 2.4,2.1 -2.7,1.1 -4.8,11.4 -4.2,13.2 0.6,1.7 6.7,6.5 10.2,6.8 -0.1,-0.2 0,-0.5 0.1,-0.8 1.2,-3.4 6.9,-13.9 8,-16.3 1.2,-2.4 0,-3.5 -1.4,-2.2 -1.4,1.3 -4.5,6.4 -5.9,7 -1.4,0.6 -5.4,-2 -5.4,-3.4 0,-1 3.9,-6.6 6.6,-9.4 z"
   id="path10"
   inkscape:connector-curvature="0"
   style="clip-rule:evenodd;fill:#e3a370;fill-rule:evenodd" />
	<path
   class="st2"
   d="m 484.3,413.4 c 1.8,2.4 4.1,4.4 6,4.7 3.1,0.5 4.8,-2.5 4.8,-3.9 0,-1.4 -1,-2.5 -1.5,-2.8 2.9,-0.1 8.5,-9 8.5,-10.9 0.2,-9.5 -15.5,-12.9 -16.8,-14.5 -2.3,-2.9 -12,-12 -16.5,-17.5 0.2,0.3 0.4,0.5 0.2,0.3 -3.8,-2.4 -10.7,7.5 -6.3,9.7 1.8,2.2 13.6,15.9 13.6,17.3 0,1.4 -4,9.8 -2.7,10.4 1.3,0.6 6,7.9 8.4,7.9 0.5,0 1.3,-0.3 2.3,-0.7 z"
   id="path12"
   inkscape:connector-curvature="0"
   style="clip-rule:evenodd;fill:#f5b382;fill-rule:evenodd" />
	<polygon
   class="st4"
   points="486.6,379.4 470.4,394 460.7,383.3 476.8,368.7 "
   id="polygon14"
   style="clip-rule:evenodd;fill:#f0dbb8;fill-rule:evenodd" />
	<polygon
   class="st4"
   points="340.5,428 333,448.5 319.4,443.4 326.9,423 "
   id="polygon16"
   style="clip-rule:evenodd;fill:#f0dbb8;fill-rule:evenodd" />
	<path
   class="st4"
   d="m 380.7,383.7 c 5.4,-0.6 11.5,3 12.2,4.1 -2.4,11.6 -6.5,28.2 -8.5,32 l -7.8,-11.1 -4.1,9.8 c -4.8,-8.6 2.9,-34.2 8.2,-34.8 z"
   id="path18"
   inkscape:connector-curvature="0"
   style="clip-rule:evenodd;fill:#f0dbb8;fill-rule:evenodd" />
	<path
   class="st3"
   d="m 364.1,391.7 c 5.2,4.1 7.2,7.3 11.9,12.8 -1.1,3.2 9.9,-9 6.8,-12.3 -3.4,-3.6 -8.4,-9.2 -11.6,-15.3 -1.1,-0.1 -2.4,-0.2 -3.8,-0.6 -0.3,2.1 -1,9.8 -3.3,15.4 z"
   id="path20"
   inkscape:connector-curvature="0"
   style="clip-rule:evenodd;fill:#e3a370;fill-rule:evenodd" />
	<path
   class="st4"
   d="m 384.7,424.1 c 1,1.5 1.1,3.1 0.3,3.7 -0.8,0.6 -2.3,-0.2 -3.3,-1.7 -1,-1.5 -1.1,-3.1 -0.3,-3.7 0.9,-0.5 2.3,0.2 3.3,1.7 z"
   id="path22"
   inkscape:connector-curvature="0"
   style="clip-rule:evenodd;fill:#f0dbb8;fill-rule:evenodd" />
	<path
   class="st4"
   d="m 396.2,436.8 c 1.2,1.3 1.5,3 0.7,3.6 -0.8,0.7 -2.3,0.1 -3.5,-1.3 -1.2,-1.3 -1.5,-3 -0.7,-3.6 0.8,-0.6 2.4,0 3.5,1.3 z"
   id="path24"
   inkscape:connector-curvature="0"
   style="clip-rule:evenodd;fill:#f0dbb8;fill-rule:evenodd" />
	<path
   class="st4"
   d="m 410.3,452.3 c 1,1.5 1,3.2 0.2,3.7 -0.8,0.5 -2.3,-0.2 -3.3,-1.8 -1,-1.5 -1,-3.2 -0.2,-3.7 0.9,-0.5 2.3,0.3 3.3,1.8 z"
   id="path26"
   inkscape:connector-curvature="0"
   style="clip-rule:evenodd;fill:#f0dbb8;fill-rule:evenodd" />
	<path
   class="st2"
   d="m 372.4,346 c 4.2,0.1 -27.2,-12 -39.2,-8.1 -12.1,3.9 -24.5,33.5 -24.2,36.8 0.5,5.3 9.3,8.1 11,9.4 1.7,1.3 -0.6,7.1 2.1,10.5 5.7,2.4 13.8,-2.7 14.9,-1.5 1.1,1.3 -3.8,6.1 -11.6,10.5 -0.4,2.2 5.8,17.9 8.6,17.5 2.8,-0.4 26.7,-13.6 31,-19.1 4.3,-5.5 5.4,-18.1 5.9,-20.9 24.7,5.9 16.7,-31.1 -5.4,-8.1 -1.2,-2 1.7,-13.1 -7.1,-16.2 -8.8,-3.1 -2.4,-14.7 14,-10.8 z"
   id="path28"
   inkscape:connector-curvature="0"
   style="clip-rule:evenodd;fill:#f5b382;fill-rule:evenodd" />
	<path
   class="st5"
   d="m 326,395.2 c 0.6,2 1.9,4.2 3.2,6.1 5.6,-3.6 8.8,-7.1 7.8,-8.2 -0.9,-1 -6.1,2 -11,2.1 z"
   id="path30"
   inkscape:connector-curvature="0"
   style="clip-rule:evenodd;fill:#e6e6e6;fill-rule:evenodd" />
	<path
   class="st6"
   d="m 331.1,357.1 c 1.5,0.4 2.2,2.8 1.5,5.5 -0.6,2.7 -2.4,4.6 -3.8,4.2 -1.5,-0.4 -2.2,-2.8 -1.5,-5.5 0.7,-2.7 2.3,-4.5 3.8,-4.2 z"
   id="path32"
   inkscape:connector-curvature="0"
   style="clip-rule:evenodd;fill-rule:evenodd" />
	<path
   class="st6"
   d="m 330.4,342.4 c 6.3,-1.7 6.3,0.2 9.4,5.7 -3.2,-4 -4.3,-6.3 -9.4,-5.7 z"
   id="path34"
   inkscape:connector-curvature="0"
   style="clip-rule:evenodd;fill-rule:evenodd" />
	<path
   class="st7"
   d="m 386,373.8 c 12.6,-8.3 17.5,-27.2 9.7,-31.6 2.2,-21.7 -20.6,-33.6 -40.2,-30.3 4.3,-2.9 12.2,-5.1 12.2,-5.1 -14.3,-4.3 -28.1,-0.8 -34.1,13.6 -0.8,-11.3 13,-15.1 12.5,-15.2 -1.5,0 -2.4,0.3 -4,0.4 -17.3,0.8 -19.7,9.9 -18.4,20.5 -2.2,-3.8 -3.8,-9.2 -0.2,-16.5 -7.4,9.6 -3.7,23.2 6.3,30 1.1,-0.8 2.3,-1.4 3.4,-1.7 12.1,-3.9 43.5,8.2 39.2,8.1 -16.4,-3.9 -22.8,7.7 -14,10.8 8.8,3.1 5.9,14.2 7.1,16.2 13,-13.5 21.1,-6.2 20.5,0.8 z"
   id="path36"
   inkscape:connector-curvature="0"
   style="clip-rule:evenodd;fill:#895531;fill-rule:evenodd" />
	<path
   d="m 312.2,433.2 -5.6,3.4 c -0.9,0.6 -2.2,0.3 -2.8,-0.7 l -27,-43.9 c -0.6,-0.9 -0.3,-2.2 0.7,-2.8 l 5.6,-3.4 c 0.9,-0.6 2.2,-0.3 2.8,0.7 l 27,43.9 c 0.5,1 0.2,2.2 -0.7,2.8 z"
   id="path38"
   inkscape:connector-curvature="0" />
	<path
   class="st8"
   d="m 308.3,429.7 v 0 c -0.8,0.5 -1.9,0.3 -2.5,-0.6 l -23.6,-38.4 c -0.5,-0.8 -0.3,-1.9 0.6,-2.5 v 0 c 0.8,-0.5 1.9,-0.3 2.5,0.6 l 23.6,38.4 c 0.5,0.9 0.2,2 -0.6,2.5 z"
   id="path40"
   inkscape:connector-curvature="0"
   style="fill:#333333" />
	<circle
   class="st9"
   cx="271.29999"
   cy="374"
   r="27.5"
   id="circle42"
   style="fill:#ffffff;stroke:#000000;stroke-width:4;stroke-miterlimit:10" />
	<circle
   class="st10"
   cx="271.29999"
   cy="374"
   r="26.9"
   id="circle44"
   style="fill:#f4f4f4" />
	<g
   id="g48">
		<path
   class="st11"
   d="m 306.4,403.9 c -1.8,-0.9 -3.5,-1.6 -4.4,-1.2 -2.2,0.9 -8.5,9.6 -8.4,10.9 0,1.4 4,4 5.4,3.4 1.4,-0.6 4.5,-5.7 5.9,-7 0.4,-0.3 0.7,-0.5 1,-0.6 0,-0.1 0,-0.2 0.1,-0.3 0.3,-1.8 0.5,-3.5 0.4,-5.2 z"
   id="path46"
   inkscape:connector-curvature="0"
   style="fill:#f5b382" />
	</g>
	<g
   id="g116">
		<rect
   x="210.60001"
   y="233.7"
   class="st10"
   width="106.1"
   height="61.5"
   id="rect50"
   style="fill:#f4f4f4" />
		<polygon
   class="st12"
   points="316.8,233.7 320.7,228.5 215.7,228.5 210.6,233.7 "
   id="polygon52"
   style="fill:#e5e5e5" />
		<polygon
   class="st13"
   points="316.8,233.7 320.7,228.5 320.7,292.8 316.8,295.2 "
   id="polygon54"
   style="fill:#cccccc" />
		<circle
   class="st14"
   cx="243.5"
   cy="275.79999"
   r="13.7"
   id="circle56"
   style="fill:#aeb8a5" />
		<circle
   class="st15"
   cx="243.5"
   cy="275.79999"
   r="11.7"
   id="circle58"
   style="fill:#f5a8b3" />
		<path
   class="st16"
   d="m 239.5,255.4 -17.3,21.2 c 6,4.6 14.6,3.4 19.2,-2.6 4.3,-5.7 3.5,-13.8 -1.9,-18.6 z"
   id="path60"
   inkscape:connector-curvature="0"
   style="fill:#9ebea2" />
		<path
   class="st17"
   d="m 230.5,252.1 c -7.5,0 -13.7,6.1 -13.7,13.7 0,4.3 2,8.3 5.4,10.9 l 17.4,-21.2 c -2.6,-2.2 -5.7,-3.4 -9.1,-3.4 z"
   id="path62"
   inkscape:connector-curvature="0"
   style="fill:#b4cdb8" />
		<path
   class="st18"
   d="M 265.6,275.6 V 287 c 0,1.3 1,2.2 2.2,2.2 h 1.3 v -13.7 h -3.5 z"
   id="path64"
   inkscape:connector-curvature="0"
   style="fill:#f8bcc3" />
		<path
   class="st19"
   d="m 269.2,289.3 h 2.8 c 1.3,0 2.2,-1 2.2,-2.2 v -11.4 h -5 z"
   id="path66"
   inkscape:connector-curvature="0"
   style="fill:#ecabb3" />
		<polygon
   class="st20"
   points="265.6,272.4 265.6,275.6 269.2,275.6 269.2,272.4 266.5,272.4 "
   id="polygon68"
   style="fill:#e7d3ce" />
		<polygon
   class="st21"
   points="269.2,275.6 274.2,275.6 274.2,272.4 273.4,272.4 269.2,272.4 "
   id="polygon70"
   style="fill:#d8c8bb" />
		<rect
   x="269.20001"
   y="269.89999"
   class="st22"
   width="4.0999999"
   height="2.5999999"
   id="rect72"
   style="fill:#946c5e" />
		<rect
   x="266.5"
   y="269.89999"
   class="st23"
   width="2.7"
   height="2.5999999"
   id="rect74"
   style="fill:#a88774" />
		<path
   class="st24"
   d="m 269.9,263.7 c -0.5,0 -1,-0.1 -1.4,-0.3 l -0.9,1.2 0.9,-1.2 c -0.6,-0.2 -1,-0.6 -1.5,-1 v 7.4 h 5.6 v -7.4 c -0.6,0.9 -1.6,1.3 -2.7,1.3 z"
   id="path76"
   inkscape:connector-curvature="0"
   style="fill:#e96058" />
		<path
   class="st25"
   d="m 272,257.5 h -0.9 c -2.2,0 -4,1.7 -4,4 v 0 1 c 0.4,0.4 0.9,0.8 1.5,1 l 4.2,-5.3 v -0.1 c -0.1,-0.4 -0.4,-0.6 -0.8,-0.6 z"
   id="path78"
   inkscape:connector-curvature="0"
   style="fill:#f79c98" />
		<path
   class="st26"
   d="m 269.9,263.7 c 1,0 2.1,-0.5 2.8,-1.3 v -4.3 l -4.2,5.3 c 0.5,0.3 0.9,0.3 1.4,0.3 z"
   id="path80"
   inkscape:connector-curvature="0"
   style="fill:#f07c78" />
		<polygon
   class="st27"
   points="287.4,260.5 287.4,271.2 290.5,271.2 291.1,260.5 "
   id="polygon82"
   style="fill:#d9c9ba" />
		<polygon
   class="st28"
   points="283.7,271.2 287.4,271.2 287.4,260.5 283.1,260.5 "
   id="polygon84"
   style="fill:#e1d7cd" />
		<path
   class="st29"
   d="m 283.7,271.2 0.8,16.3 c 0,1.5 1.2,2.6 2.6,2.6 0.1,0 0.2,0 0.3,0 v -18.8 z"
   id="path86"
   inkscape:connector-curvature="0"
   style="fill:#9f8a75" />
		<path
   class="st30"
   d="M 287.4,271.2 V 290 c 1.3,-0.1 2.2,-1.3 2.2,-2.6 v 0 l 0.8,-16.2 z"
   id="path88"
   inkscape:connector-curvature="0"
   style="fill:#816549" />
		<path
   class="st31"
   d="m 290.3,246.1 h -6.5 c -2.7,0 -4.9,2.2 -4.8,4.9 0,0.7 0.1,1.4 0.5,2 l 2.7,5.6 11.4,-11.4 c -0.9,-0.7 -2.1,-1.1 -3.3,-1.1 z"
   id="path90"
   inkscape:connector-curvature="0"
   style="fill:#f5a788" />
		<path
   class="st32"
   d="m 293.6,247.4 -11.4,11.4 0.9,1.8 h 7.9 l 3.6,-7.5 c 1.1,-2 0.6,-4.3 -1,-5.7 z"
   id="path92"
   inkscape:connector-curvature="0"
   style="fill:#f38961" />
		<path
   class="st29"
   d="m 300.3,259.5 0.5,29.1 c 0,0.5 0.3,0.8 0.8,0.8 v 0 c 0.2,0 0.3,-0.1 0.5,-0.1 v -29.8 z"
   id="path94"
   inkscape:connector-curvature="0"
   style="fill:#9f8a75" />
		<path
   class="st30"
   d="m 302.1,289.3 c 0.2,-0.1 0.3,-0.4 0.3,-0.7 l 0.5,-29.1 H 302 Z"
   id="path96"
   inkscape:connector-curvature="0"
   style="fill:#816549" />
		<polygon
   class="st28"
   points="300.3,259.5 302.1,259.5 302.1,249.1 300,249.1 "
   id="polygon98"
   style="fill:#e1d7cd" />
		<polygon
   class="st27"
   points="303,259.5 303.2,249.1 302.1,249.1 302.1,259.5 "
   id="polygon100"
   style="fill:#d9c9ba" />
		<path
   class="st33"
   d="m 304.2,242.4 c -1,5.6 -3.8,5.9 -4.5,5.9 l 0.3,0.8 h 3.1 l 1.7,-5.5 c 0.2,-0.5 -0.1,-1.1 -0.6,-1.2 z"
   id="path102"
   inkscape:connector-curvature="0"
   style="fill:#d19278" />
		<path
   class="st34"
   d="m 304.2,242.4 c -0.1,-0.1 -0.2,-0.1 -0.3,-0.1 h -0.6 c -2.2,0 -3.9,1.7 -3.9,3.9 0,0.4 0.1,0.8 0.2,1.2 l 0.3,0.9 c 0.5,0 3.3,-0.3 4.3,-5.9 z"
   id="path104"
   inkscape:connector-curvature="0"
   style="fill:#f7a588" />
		<path
   class="st34"
   d="m 312.1,248.1 c -0.1,1 -0.6,2.1 -1.4,2.8 -0.8,-0.7 -1.3,-1.7 -1.4,-2.8 0.1,-1 0.6,-2.1 1.4,-2.8 0.8,0.7 1.3,1.7 1.4,2.8 z"
   id="path106"
   inkscape:connector-curvature="0"
   style="fill:#f7a588" />
		<path
   class="st29"
   d="m 309.5,259.5 0.5,29.1 c 0,0.4 0.3,0.8 0.8,0.8 v 0 c 0.1,0 0.3,-0.1 0.4,-0.1 v -29.8 z"
   id="path108"
   inkscape:connector-curvature="0"
   style="fill:#9f8a75" />
		<path
   class="st30"
   d="m 311.2,289.3 c 0.2,-0.1 0.3,-0.4 0.3,-0.7 l 0.4,-29.1 h -0.8 v 29.8 z"
   id="path110"
   inkscape:connector-curvature="0"
   style="fill:#816549" />
		<polygon
   class="st28"
   points="309.5,259.5 311.2,259.5 311.2,249.1 309.3,249.1 "
   id="polygon112"
   style="fill:#e1d7cd" />
		<polygon
   class="st27"
   points="312,259.5 312.1,249.1 311.2,249.1 311.2,259.5 "
   id="polygon114"
   style="fill:#d9c9ba" />
	</g>
	<g
   id="g156">
		<g
   id="g124">
			<rect
   x="126.9"
   y="373"
   class="st35"
   width="3.3"
   height="63.599998"
   id="rect118"
   style="fill:#b7b6b6" />
			<g
   id="g122">
				<path
   class="st36"
   d="M 129.1,434.1 H 128 c -2,0 -3.6,1.6 -3.6,3.6 V 484 c 0,2 1.6,3.6 3.6,3.6 h 1.1 c 2,0 3.6,-1.6 3.6,-3.6 v -46.3 c 0.1,-2 -1.6,-3.6 -3.6,-3.6 z m -0.5,49.4 c -1.2,0 -2.1,-0.9 -2.1,-2.1 0,-1.2 0.9,-2.1 2.1,-2.1 1.2,0 2.1,0.9 2.1,2.1 0,1.1 -1,2.1 -2.1,2.1 z"
   id="path120"
   inkscape:connector-curvature="0"
   style="fill:#20284D" />
			</g>
		</g>
		<g
   id="g132">
			<rect
   x="171.3"
   y="317.70001"
   class="st35"
   width="3.3"
   height="91.199997"
   id="rect126"
   style="fill:#b7b6b6" />
			<g
   id="g130">
				<path
   class="st36"
   d="m 173.5,399.8 h -1.1 c -2,0 -3.6,1.6 -3.6,3.6 v 46.3 c 0,2 1.6,3.6 3.6,3.6 h 1.1 c 2,0 3.6,-1.6 3.6,-3.6 v -46.3 c 0,-2 -1.6,-3.6 -3.6,-3.6 z m -0.6,49.4 c -1.2,0 -2.1,-0.9 -2.1,-2.1 0,-1.2 0.9,-2.1 2.1,-2.1 1.2,0 2.1,0.9 2.1,2.1 0,1.1 -0.9,2.1 -2.1,2.1 z"
   id="path128"
   inkscape:connector-curvature="0"
   style="fill:#20284D" />
			</g>
		</g>
		<g
   id="g140">
			<rect
   x="215.60001"
   y="352.10001"
   class="st35"
   width="3.3"
   height="91.199997"
   id="rect134"
   style="fill:#b7b6b6" />
			<g
   id="g138">
				<path
   class="st36"
   d="m 217.9,434.1 h -1.1 c -2,0 -3.6,1.6 -3.6,3.6 V 484 c 0,2 1.6,3.6 3.6,3.6 h 1.1 c 2,0 3.6,-1.6 3.6,-3.6 v -46.3 c 0,-2 -1.6,-3.6 -3.6,-3.6 z m -0.6,49.4 c -1.2,0 -2.1,-0.9 -2.1,-2.1 0,-1.2 0.9,-2.1 2.1,-2.1 1.2,0 2.1,0.9 2.1,2.1 0,1.1 -0.9,2.1 -2.1,2.1 z"
   id="path136"
   inkscape:connector-curvature="0"
   style="fill:#20284D" />
			</g>
		</g>
		<g
   id="g144">
			<path
   class="st35"
   d="m 135.5,332.7 h -13.4 c -3.7,0 -6.7,3 -6.7,6.7 v 28.5 c 0,3.7 3,6.7 6.7,6.7 h 13.4 c 3.7,0 6.7,-3 6.7,-6.7 v -28.5 c 0,-3.8 -3,-6.7 -6.7,-6.7 z m -12.4,30.5 c 0,0.8 -0.7,1.5 -1.6,1.5 H 121 c -0.9,0 -1.6,-0.7 -1.6,-1.5 V 344 c 0,-0.8 0.7,-1.5 1.6,-1.5 h 0.5 c 0.9,0 1.6,0.7 1.6,1.5 z m 7.8,4.4 c 0,1.2 -0.8,2.2 -1.8,2.2 h -0.5 c -1,0 -1.8,-1 -1.8,-2.2 v -28 c 0,-1.2 0.8,-2.2 1.8,-2.2 h 0.5 c 1,0 1.8,1 1.8,2.2 z m 7.2,-4.4 c 0,0.8 -0.7,1.5 -1.6,1.5 H 136 c -0.9,0 -1.6,-0.7 -1.6,-1.5 V 344 c 0,-0.8 0.7,-1.5 1.6,-1.5 h 0.5 c 0.9,0 1.6,0.7 1.6,1.5 z"
   id="path142"
   inkscape:connector-curvature="0"
   style="fill:#b7b6b6" />
		</g>
		<g
   id="g148">
			<path
   class="st35"
   d="m 158.7,302.7 c -9.2,0 -16.7,7.5 -16.7,16.7 h 33.5 c 0,-9.2 -7.5,-16.7 -16.8,-16.7 z"
   id="path146"
   inkscape:connector-curvature="0"
   style="fill:#b7b6b6" />
		</g>
		<path
   class="st37"
   d="m 161.8,307.8 c 0,0 6.1,0.3 6.6,6.6"
   id="path150"
   inkscape:connector-curvature="0"
   style="fill:none;stroke:#f4f4f4;stroke-width:4;stroke-linecap:round;stroke-linejoin:round;stroke-miterlimit:10" />
		<path
   class="st35"
   d="m 230.7,359.6 c 0,12.5 -6.2,18.4 -13.8,18.4 -7.6,0 -13.8,-5.9 -13.8,-18.4 0,-12.5 6.2,-26.8 13.8,-26.8 7.6,0 13.8,14.3 13.8,26.8 z"
   id="path152"
   inkscape:connector-curvature="0"
   style="fill:#b7b6b6" />
		<path
   class="st37"
   d="m 226.2,363.2 c 0,0 0.9,6 -5.2,7.8"
   id="path154"
   inkscape:connector-curvature="0"
   style="fill:none;stroke:#f4f4f4;stroke-width:4;stroke-linecap:round;stroke-linejoin:round;stroke-miterlimit:10" />
	</g>
	<g
   id="g192">
		<rect
   x="144.2"
   y="217.7"
   class="st35"
   width="29"
   height="5"
   id="rect158"
   style="fill:#b7b6b6" />
		<rect
   x="142.2"
   y="209.7"
   class="st36"
   width="33.099998"
   height="11"
   id="rect160"
   style="fill:#20284D" />
		<g
   id="g180">
			<line
   class="st38"
   x1="145.3"
   y1="217.7"
   x2="145.3"
   y2="211.7"
   id="line162"
   style="fill:none;stroke:#ffffff;stroke-linecap:round;stroke-linejoin:round;stroke-miterlimit:10" />
			<line
   class="st38"
   x1="148.60001"
   y1="217.7"
   x2="148.60001"
   y2="211.7"
   id="line164"
   style="fill:none;stroke:#ffffff;stroke-linecap:round;stroke-linejoin:round;stroke-miterlimit:10" />
			<line
   class="st38"
   x1="152"
   y1="217.7"
   x2="152"
   y2="211.7"
   id="line166"
   style="fill:none;stroke:#ffffff;stroke-linecap:round;stroke-linejoin:round;stroke-miterlimit:10" />
			<line
   class="st38"
   x1="155.3"
   y1="217.7"
   x2="155.3"
   y2="211.7"
   id="line168"
   style="fill:none;stroke:#ffffff;stroke-linecap:round;stroke-linejoin:round;stroke-miterlimit:10" />
			<line
   class="st38"
   x1="158.7"
   y1="217.7"
   x2="158.7"
   y2="211.7"
   id="line170"
   style="fill:none;stroke:#ffffff;stroke-linecap:round;stroke-linejoin:round;stroke-miterlimit:10" />
			<line
   class="st38"
   x1="162"
   y1="217.7"
   x2="162"
   y2="211.7"
   id="line172"
   style="fill:none;stroke:#ffffff;stroke-linecap:round;stroke-linejoin:round;stroke-miterlimit:10" />
			<line
   class="st38"
   x1="165.39999"
   y1="217.7"
   x2="165.39999"
   y2="211.7"
   id="line174"
   style="fill:none;stroke:#ffffff;stroke-linecap:round;stroke-linejoin:round;stroke-miterlimit:10" />
			<line
   class="st38"
   x1="168.7"
   y1="217.7"
   x2="168.7"
   y2="211.7"
   id="line176"
   style="fill:none;stroke:#ffffff;stroke-linecap:round;stroke-linejoin:round;stroke-miterlimit:10" />
			<line
   class="st38"
   x1="172.10001"
   y1="217.7"
   x2="172.10001"
   y2="211.7"
   id="line178"
   style="fill:none;stroke:#ffffff;stroke-linecap:round;stroke-linejoin:round;stroke-miterlimit:10" />
		</g>
		<rect
   x="144.7"
   y="220.7"
   class="st35"
   width="28"
   height="3"
   id="rect182"
   style="fill:#b7b6b6" />
		<g
   id="g190">
			<path
   class="st39"
   d="m 172.3,275.7 h -27.2 c -4.6,0 -8.4,-3.8 -8.4,-8.4 V 232 c 0,-4.6 3.8,-8.4 8.4,-8.4 h 27.2 c 4.6,0 8.4,3.8 8.4,8.4 v 35.2 c 0,4.7 -3.8,8.5 -8.4,8.5 z"
   id="path184"
   inkscape:connector-curvature="0"
   style="fill:#0462a4" />
			<rect
   x="136.7"
   y="236.7"
   class="st36"
   width="44"
   height="31"
   id="rect186"
   style="fill:#20284D" />
			<text
   transform="translate(141.5637,254.8625)"
   class="st40 st41 st42"
   id="text188"
   style="font-size:9.83139992px;font-family:MyriadPro-Regular;fill:#ffffff">Vitamin</text>

		</g>
	</g>
	<g
   id="g204">
		<defs
   id="defs195">
			<circle
   id="SVGID_1_"
   cx="271.29999"
   cy="374"
   r="26.9" />
		</defs>
		<clipPath
   id="SVGID_2_">
			<use
   xlink:href="#SVGID_1_"
   style="overflow:visible"
   id="use197"
   x="0"
   y="0"
   width="100%"
   height="100%" />
		</clipPath>
		<g
   class="st43"
   clip-path="url(#SVGID_2_)"
   id="g202">
			<path
   class="st35"
   d="m 280.4,354.7 h -19.2 c -5.3,0 -9.5,4.3 -9.5,9.5 v 40.6 c 0,5.3 4.3,9.5 9.5,9.5 h 19.2 c 5.3,0 9.5,-4.3 9.5,-9.5 v -40.6 c 0,-5.3 -4.2,-9.5 -9.5,-9.5 z m -17.8,43.5 c 0,1.2 -1,2.2 -2.2,2.2 h -0.7 c -1.2,0 -2.2,-1 -2.2,-2.2 v -27.4 c 0,-1.2 1,-2.2 2.2,-2.2 h 0.7 c 1.2,0 2.2,1 2.2,2.2 z m 11.2,6.2 c 0,1.7 -1.2,3.1 -2.6,3.1 h -0.8 c -1.4,0 -2.6,-1.4 -2.6,-3.1 v -39.9 c 0,-1.7 1.2,-3.1 2.6,-3.1 h 0.8 c 1.4,0 2.6,1.4 2.6,3.1 z m 10.3,-6.2 c 0,1.2 -1,2.2 -2.2,2.2 h -0.7 c -1.2,0 -2.2,-1 -2.2,-2.2 v -27.4 c 0,-1.2 1,-2.2 2.2,-2.2 h 0.7 c 1.2,0 2.2,1 2.2,2.2 z"
   id="path200"
   inkscape:connector-curvature="0"
   style="fill:#b7b6b6" />
		</g>
	</g>
</g>
</svg>
