<?xml version="1.0" encoding="UTF-8" standalone="no"?>
<!-- Generator: Adobe Illustrator 24.1.3, SVG Export Plug-In . SVG Version: 6.00 Build 0)  -->

<svg
   xmlns:dc="http://purl.org/dc/elements/1.1/"
   xmlns:cc="http://creativecommons.org/ns#"
   xmlns:rdf="http://www.w3.org/1999/02/22-rdf-syntax-ns#"
   xmlns:svg="http://www.w3.org/2000/svg"
   xmlns="http://www.w3.org/2000/svg"
   xmlns:sodipodi="http://sodipodi.sourceforge.net/DTD/sodipodi-0.dtd"
   xmlns:inkscape="http://www.inkscape.org/namespaces/inkscape"
   version="1.1"
   id="Layer_1"
   x="0px"
   y="0px"
   viewBox="0 0 200.19999 120.7"
   xml:space="preserve"
   sodipodi:docname="Partner_Step2a Cropped.svg"
   width="200.2"
   height="120.7"
   inkscape:version="0.92.3 (2405546, 2018-03-11)"><metadata
   id="metadata398"><rdf:RDF><cc:Work
       rdf:about=""><dc:format>image/svg+xml</dc:format><dc:type
         rdf:resource="http://purl.org/dc/dcmitype/StillImage" /><dc:title></dc:title></cc:Work></rdf:RDF></metadata><defs
   id="defs396" />
<style
   type="text/css"
   id="style2">
	.st0{fill:#E2E2E2;}
	.st1{fill:#00A3C7;}
	.st2{enable-background:new    ;}
	.st3{fill:#FFFFFF;}
	.st4{fill:#3F3B39;}
	.st5{fill:#F6F6F6;}
	.st6{fill:#888888;}
	.st7{fill:#ACD7F2;}
	.st8{fill:#EDEEEE;}
	.st9{fill:#DCDCDC;}
	.st10{fill:#2EA7E0;}
	.st11{fill:#00AAD0;}
	.st12{fill:#929090;}
	.st13{fill:#78CDE7;stroke:#156081;stroke-width:0.5;stroke-linecap:round;stroke-linejoin:round;stroke-miterlimit:10;}
	.st14{fill:#A7003D;}
	.st15{fill:#D60051;}
	.st16{fill:#BF2345;}
	.st17{fill:#252221;}
	.st18{fill:#595757;}
	.st19{fill:#9E9EA0;}
	.st20{fill:#C8C8C9;}
	.st21{fill:#F29600;}
	.st22{fill:#F7B52D;}
	.st23{fill:#EA5515;}
	.st24{fill:#045993;}
	.st25{fill:#066EB7;}
	.st26{fill:#0462A4;}
	.st27{fill:#C30E24;}
	.st28{fill:#156081;}
	.st29{fill:#0D435D;}
	.st30{fill:#980C22;}
</style>







<sodipodi:namedview
   bordercolor="#666666"
   borderopacity="1"
   gridtolerance="10"
   guidetolerance="10"
   id="namedview1689"
   inkscape:current-layer="Layer_1"
   inkscape:cx="96.733186"
   inkscape:cy="53.837145"
   inkscape:pageopacity="0"
   inkscape:pageshadow="2"
   inkscape:window-height="1341"
   inkscape:window-maximized="1"
   inkscape:window-width="2560"
   inkscape:window-x="-8"
   inkscape:window-y="-8"
   inkscape:zoom="1.874521"
   objecttolerance="10"
   pagecolor="#ffffff"
   showgrid="false">
	</sodipodi:namedview>

<g
   id="g1360"
   transform="translate(-190.6,-137.9)">
	<path
   id="path868"
   class="st4"
   d="m 232.3,258.2 h -40.9 c -0.5,0 -0.8,-0.4 -0.8,-0.8 v -78 c 0,-0.5 0.4,-0.8 0.8,-0.8 h 40.9 c 0.5,0 0.8,0.4 0.8,0.8 v 78 c 0,0.5 -0.4,0.8 -0.8,0.8 z"
   inkscape:connector-curvature="0"
   style="fill:#3f3b39" />
	<rect
   id="rect870"
   x="192.89999"
   y="188.2"
   class="st5"
   width="37.799999"
   height="59.200001"
   style="fill:#f6f6f6" />
	<g
   id="g876">
		<path
   id="path872"
   class="st6"
   d="m 215.8,184.5 h -7.9 c -0.4,0 -0.5,-0.3 -0.5,-0.5 0,-0.4 0.3,-0.5 0.5,-0.5 h 7.9 c 0.4,0 0.5,0.3 0.5,0.5 0,0.2 -0.2,0.5 -0.5,0.5 z"
   inkscape:connector-curvature="0"
   style="fill:#888888" />
		<path
   id="path874"
   class="st6"
   d="m 206.2,183.9 c 0,-0.4 -0.4,-0.7 -0.7,-0.7 -0.4,0 -0.7,0.4 -0.7,0.7 0,0.4 0.4,0.7 0.7,0.7 0.3,0.1 0.7,-0.3 0.7,-0.7 z"
   inkscape:connector-curvature="0"
   style="fill:#888888" />
	</g>
	<g
   id="g912">
		<path
   id="path878"
   class="st7"
   d="m 195.5,203.7 v 19.6 c 0,0.6 0.5,1.1 1.1,1.1 h 30.5 c 0.6,0 1.1,-0.5 1.1,-1.1 v -19.6 z"
   inkscape:connector-curvature="0"
   style="fill:#acd7f2" />
		<g
   id="g908">
			<path
   id="path880"
   class="st5"
   d="m 205.2,210.9 c 1.1,-0.6 6.4,-3 6.6,-3.1 0.8,-0.6 2.9,-1.7 3.2,-1.8 0.3,-0.1 0.5,0.5 0.7,0.7 0.2,0.4 2.2,1.8 0.5,2.9 -1.6,1.1 -12,3.8 -12.3,3.2 -0.4,-1.1 0.7,-1.7 1.3,-1.9 z"
   inkscape:connector-curvature="0"
   style="fill:#f6f6f6" />
			<g
   id="g884">
				<path
   id="path882"
   class="st4"
   d="m 215,207.4 c -0.1,-0.4 -0.3,-0.8 -0.4,-1.2 -0.8,0.4 -2.2,1.1 -2.8,1.6 0,0 -0.2,0.1 -0.4,0.2 0.3,0.5 0.5,1 0.6,1.1 0.4,0.1 3.1,-1.2 3,-1.7 z"
   inkscape:connector-curvature="0"
   style="fill:#3f3b39" />
			</g>
			<path
   id="path886"
   class="st3"
   d="m 199.2,218.2 c -0.6,0 -0.8,-1.3 -0.6,-1.7 -0.3,-4 3.2,-4.8 5.3,-4.4 0.4,-0.1 8,-3.9 9.5,-4.3 1.8,-0.6 3.4,2.5 5,2.5 1.8,0.1 4.1,-1 4.2,-1.6 0.3,-0.8 0.8,-2 1.6,-0.8 0.8,1.3 1.5,6.8 0.8,8.6 0.2,0.3 0.2,1.7 -0.2,1.7 -4.1,0 -13.1,0 -17.5,0 -2.2,0 -7.2,0 -8.1,0 z"
   inkscape:connector-curvature="0"
   style="fill:#ffffff" />
			<g
   id="g898">
				<path
   id="path888"
   class="st4"
   d="m 221,211.1 c 0.5,0 1.5,-0.2 2,-0.4 0.5,0.5 1.1,0.6 1.9,0.7 -0.3,-1.5 -0.5,-2.9 -0.9,-3.4 -0.8,-1.3 -1.4,0 -1.6,0.8 -0.2,0.5 -1.6,1.3 -3.1,1.5 0.5,0.8 0.7,0.8 1.7,0.8 z"
   inkscape:connector-curvature="0"
   style="fill:#3f3b39" />
				<path
   id="path890"
   class="st8"
   d="m 215.3,208.3 c -0.6,-0.5 -1.3,-0.8 -2,-0.5 -1.4,0.5 -9,4.2 -9.5,4.3 -0.1,0.2 -0.3,0.8 -0.4,1.7 1.2,-0.5 8.8,-4.2 11.9,-5.5 z"
   inkscape:connector-curvature="0"
   style="fill:#edeeee" />
				<path
   id="path892"
   class="st3"
   d="M 203.5,216.4 H 225 c 0.4,-1 0.4,-3.2 0.1,-5.1 -0.9,0 -1.4,-0.2 -1.9,-0.7 -0.5,0.3 -1.4,0.4 -2,0.4 -1.1,0 -1.3,0 -1.5,-0.9 -0.4,0.1 -0.8,0.1 -1.2,0.1 -1,0 -2,-1.3 -3.1,-2 -3.1,1.4 -10.7,5 -11.8,5.4 -0.1,1 -0.2,1.9 -0.1,2.8 z"
   inkscape:connector-curvature="0"
   style="fill:#ffffff" />
				<path
   id="path894"
   class="st5"
   d="m 203.6,213.7 c -0.1,0 -0.1,0 0,0 -0.1,0 -0.1,0 0,0 0.1,-0.9 0.3,-1.5 0.4,-1.7 -2.2,-0.4 -5.5,0.4 -5.3,4.4 h 4.9 c -0.2,-0.9 -0.1,-1.8 0,-2.7 z"
   inkscape:connector-curvature="0"
   style="fill:#f6f6f6" />
				<path
   id="path896"
   class="st9"
   d="m 225,216.4 h -21.5 -4.9 c -0.2,0.4 0,1.7 0.6,1.7 0.5,0 2.5,0 4.5,0 1.4,0 2.8,0 3.8,0 4.3,0 13.2,0 17.5,0 0.1,0.1 0.1,-1.3 0,-1.7 z"
   inkscape:connector-curvature="0"
   style="fill:#dcdcdc" />
			</g>
			<path
   id="path900"
   class="st3"
   d="m 204.6,212.7 c -0.2,-0.1 -0.3,-0.3 -0.2,-0.4 v 0 l 0.5,-1.6 c 0,-0.1 0.1,-0.2 0.2,-0.2 v 0 c 0.1,0 0.2,0 0.3,0 v 0 l 1.1,0.6 0.5,-1.4 c 0.1,-0.2 0.3,-0.3 0.4,-0.2 v 0 l 1.4,0.5 0.7,-1.5 c 0.1,-0.2 0.3,-0.3 0.4,-0.2 v 0 l 1.3,0.5 0.4,-1.3 c 0,-0.1 0.1,-0.2 0.2,-0.2 v 0 c 0.1,0 0.2,-0.1 0.3,0 v 0 l 1.8,0.5 c 0.2,0.1 0.3,0.3 0.2,0.4 v 0 c -0.1,0.2 -0.3,0.3 -0.4,0.2 v 0 l -1.4,-0.5 -0.4,1.3 c 0,0.1 -0.1,0.2 -0.2,0.2 v 0 c -0.1,0 -0.2,0 -0.3,0 v 0 l -1.4,-0.4 -0.7,1.5 c -0.1,0.2 -0.3,0.3 -0.4,0.2 v 0 l -1.4,-0.5 -0.6,1.5 c 0,0.1 -0.1,0.2 -0.2,0.2 v 0 c -0.1,0 -0.2,0 -0.3,0 v 0 l -1.1,-0.5 -0.4,1.3 v 0 c 0.1,0 0,0.1 -0.3,0 v 0 c 0.1,0.1 0,0.1 0,0 z"
   inkscape:connector-curvature="0"
   style="fill:#ffffff" />
			<g
   id="g906">
				<path
   id="path902"
   class="st4"
   d="m 207.8,211.8 1.8,4.7 h 1.6 l -2,-5.4 c -0.5,0.2 -1,0.5 -1.4,0.7 z"
   inkscape:connector-curvature="0"
   style="fill:#3f3b39" />
				<path
   id="path904"
   class="st4"
   d="m 210.6,210.4 2.3,6 h 1.6 l -2.5,-6.7 c -0.5,0.4 -1.1,0.5 -1.4,0.7 z"
   inkscape:connector-curvature="0"
   style="fill:#3f3b39" />
			</g>
		</g>
		<path
   id="path910"
   class="st10"
   d="m 227.1,201.9 h -30.5 c -0.6,0 -1.1,0.5 -1.1,1.1 v 1.1 h 32.8 V 203 c -0.1,-0.7 -0.5,-1.1 -1.2,-1.1 z"
   inkscape:connector-curvature="0"
   style="fill:#2ea7e0" />
	</g>
	<rect
   id="rect914"
   x="200.89999"
   y="234"
   class="st11"
   width="21.1"
   height="9.1000004"
   style="fill:#00aad0" />
	<g
   id="g922">
		<path
   id="path916"
   class="st3"
   d="m 207.3,236.4 c 0.8,0 1.3,0.4 1.3,1 0,0.5 -0.3,0.8 -0.7,0.9 0.5,0.1 0.9,0.5 0.9,1 0,0.6 -0.5,1.1 -1.4,1.1 h -1.7 v -4 z m -1.1,1.8 h 1.2 c 0.5,0 0.8,-0.3 0.8,-0.6 0,-0.4 -0.4,-0.6 -0.8,-0.6 h -1.2 z m 0,1.7 h 1.2 c 0.6,0 1.1,-0.3 1.1,-0.7 0,-0.4 -0.4,-0.7 -1.1,-0.7 h -1.2 z"
   inkscape:connector-curvature="0"
   style="fill:#ffffff" />
		<path
   id="path918"
   class="st3"
   d="m 212.9,238.8 c 0,1.1 -0.6,1.7 -1.7,1.7 -1.1,0 -1.7,-0.6 -1.7,-1.7 v -2.3 h 0.5 v 2.3 c 0,0.8 0.5,1.2 1.2,1.2 0.7,0 1.2,-0.5 1.2,-1.2 v -2.3 h 0.5 z"
   inkscape:connector-curvature="0"
   style="fill:#ffffff" />
		<path
   id="path920"
   class="st3"
   d="M 215.4,240.5 H 215 v -1.4 l -1.5,-2.6 h 0.5 l 1.3,2.1 1.3,-2.1 h 0.5 l -1.5,2.5 z"
   inkscape:connector-curvature="0"
   style="fill:#ffffff" />
	</g>
	<g
   id="g1276">
		<path
   id="path924"
   class="st12"
   d="M 379.4,225.6 H 262 c -0.9,0 -1.5,-0.7 -1.5,-1.5 v -84.7 c 0,-0.9 0.7,-1.5 1.5,-1.5 h 117.4 c 0.9,0 1.5,0.7 1.5,1.5 V 224 c 0,0.9 -0.7,1.6 -1.5,1.6 z"
   inkscape:connector-curvature="0"
   style="fill:#929090" />
		<path
   id="path926"
   class="st8"
   d="m 250.7,222.7 h 140 v 7.5 c 0,0.4 -0.3,0.6 -0.6,0.6 H 251.3 c -0.4,0 -0.6,-0.3 -0.6,-0.6 z"
   inkscape:connector-curvature="0"
   style="fill:#edeeee" />
		<g
   id="g930">
			<path
   id="path928"
   class="st12"
   d="m 250.7,228.5 c 0,1.2 1.1,2.3 2.5,2.3 h 135.1 c 1.4,0 2.5,-1 2.5,-2.3 V 228 H 250.7 Z"
   inkscape:connector-curvature="0"
   style="fill:#929090" />
		</g>
		<rect
   id="rect932"
   x="266.5"
   y="144"
   class="st13"
   width="108.5"
   height="72.400002"
   style="fill:#78cde7;stroke:#156081;stroke-width:0.5;stroke-linecap:round;stroke-linejoin:round;stroke-miterlimit:10" />
		<rect
   id="rect934"
   x="278.60001"
   y="152.3"
   class="st3"
   width="34.700001"
   height="37.099998"
   style="fill:#ffffff" />
		<rect
   id="rect936"
   x="316.5"
   y="152.3"
   class="st3"
   width="22.700001"
   height="24.700001"
   style="fill:#ffffff" />
		<rect
   id="rect938"
   x="316.5"
   y="179.7"
   class="st3"
   width="22.700001"
   height="24.799999"
   style="fill:#ffffff" />
		<rect
   id="rect940"
   x="342.20001"
   y="152.3"
   class="st3"
   width="22.700001"
   height="24.700001"
   style="fill:#ffffff" />
		<rect
   id="rect942"
   x="342.20001"
   y="179.7"
   class="st3"
   width="22.700001"
   height="24.799999"
   style="fill:#ffffff" />
		<g
   id="g978">
			<g
   id="g946">
				<path
   id="path944"
   class="st14"
   d="m 319.8,169 -0.3,1.1 c -0.2,0.7 0,1 0.6,1.1 0.4,0.1 1.1,0.3 1.1,-0.2 l 0.4,-1.7 z"
   inkscape:connector-curvature="0"
   style="fill:#a7003d" />
			</g>
			<g
   id="g950">
				<path
   id="path948"
   class="st14"
   d="m 336,169 0.3,1.1 c 0.2,0.7 0,1 -0.6,1.1 -0.4,0.1 -1.1,0.3 -1.1,-0.2 l -0.4,-1.7 z"
   inkscape:connector-curvature="0"
   style="fill:#a7003d" />
			</g>
			<path
   id="path952"
   class="st14"
   d="m 332.5,161 c -0.2,-0.7 -0.4,-1.4 -0.8,-1.8 -1.1,-0.8 -2.5,-1 -3.7,-1 -1.2,0 -2.7,0.2 -3.7,1 -0.4,0.3 -0.6,1.1 -0.8,1.8 -0.9,4.2 -0.6,12.2 -0.6,12.2 0,0.4 0.3,0.6 0.5,0.6 h 9 c 0.4,0 0.5,-0.4 0.5,-0.6 0.1,-0.1 0.4,-8.1 -0.4,-12.2 z"
   inkscape:connector-curvature="0"
   style="fill:#a7003d" />
			<g
   id="g958">
				<path
   id="path954"
   class="st15"
   d="m 336.2,169 -1.8,-8.4 c -0.4,-1.5 -1.1,-3.6 -2.2,-3.8 -0.7,-0.2 -0.8,1.1 -0.6,1.9 l 2.4,11.5 c 0.1,0.4 1,0.3 1.4,0.2 0.8,-0.2 1,-0.6 0.8,-1.4 z"
   inkscape:connector-curvature="0"
   style="fill:#d60051" />
				<path
   id="path956"
   class="st15"
   d="m 323.5,156.8 c -1,0.3 -1.8,2.3 -2.2,3.8 l -1.8,8.4 c -0.2,0.9 0,1.2 0.8,1.4 0.4,0.1 1.3,0.3 1.4,-0.2 l 2.4,-11.5 c 0.2,-1 0.1,-2 -0.6,-1.9 z"
   inkscape:connector-curvature="0"
   style="fill:#d60051" />
			</g>
			<path
   id="path960"
   class="st16"
   d="m 332.8,158.5 c -0.2,-0.7 -0.5,-1.6 -0.8,-1.9 -1.1,-0.9 -2.7,-1.1 -4.1,-1.1 -1.3,0 -3,0.3 -4.1,1.1 -0.4,0.4 -0.7,1.1 -0.8,1.9 -1,4.6 -0.6,13.2 -0.6,13.2 0,0.4 0.4,0.7 0.6,0.7 h 9.8 c 0.4,0 0.6,-0.4 0.6,-0.7 0.2,0 0.3,-8.6 -0.6,-13.2 z"
   inkscape:connector-curvature="0"
   style="fill:#bf2345" />
			<g
   id="g968">
				<g
   id="g964">
					<path
   id="path962"
   class="st15"
   d="m 330,168.6 h -4 c -0.2,0 -0.3,-0.2 -0.3,-0.4 0,-0.2 0.1,-0.4 0.3,-0.4 h 4 c 0.2,0 0.3,0.2 0.3,0.4 -0.1,0.4 -0.2,0.4 -0.3,0.4 z"
   inkscape:connector-curvature="0"
   style="fill:#d60051" />
				</g>
				<path
   id="path966"
   class="st15"
   d="m 331.4,162.2 c -0.4,-0.5 -1.1,-0.2 -1.9,1.1 -0.4,0.5 -0.5,1.1 -0.7,1.7 0.1,-0.5 0.2,-1.2 0.2,-1.8 0,-1.8 -0.4,-3 -0.9,-3 -0.5,0 -0.9,1.1 -0.9,3 0,0.5 0.1,1.2 0.2,1.8 -0.2,-0.5 -0.4,-1.2 -0.7,-1.7 -0.8,-1.3 -1.6,-1.7 -1.9,-1.1 -0.4,0.5 -0.1,1.8 0.7,3.1 0.8,1.3 2.3,1.8 2.6,1.8 0.3,0 1.8,-0.4 2.6,-1.7 0.8,-1.4 1,-2.7 0.7,-3.2 z"
   inkscape:connector-curvature="0"
   style="fill:#d60051" />
			</g>
			<g
   id="g972">
				<path
   id="path970"
   class="st14"
   d="m 328,158 c 1.1,0 1.9,-0.9 2.1,-2.3 -0.7,-0.2 -1.4,-0.3 -2.1,-0.3 -0.6,0 -1.4,0.1 -2.1,0.3 0.2,1.4 0.9,2.3 2.1,2.3 z"
   inkscape:connector-curvature="0"
   style="fill:#a7003d" />
			</g>
			<g
   id="g976">
				<path
   id="path974"
   class="st15"
   d="m 328,158.4 c -1.4,0 -2.3,-1.1 -2.3,-2.5 0,-0.3 0.2,-0.4 0.4,-0.4 0.3,0 0.4,0.2 0.4,0.4 0,1.1 0.6,1.8 1.6,1.8 1,0 1.6,-0.7 1.6,-1.8 0,-0.3 0.2,-0.4 0.4,-0.4 0.3,0 0.4,0.2 0.4,0.4 -0.2,1.4 -1.1,2.5 -2.5,2.5 z"
   inkscape:connector-curvature="0"
   style="fill:#d60051" />
			</g>
		</g>
		<g
   id="g1084">
			<rect
   id="rect980"
   x="291.20001"
   y="179.10001"
   class="st17"
   width="8.8999996"
   height="5.6999998"
   style="fill:#252221" />
			<g
   id="g984">
				<path
   id="path982"
   class="st18"
   d="m 309,177.6 0.4,1.8 c 0.3,1.1 0,1.5 -1.1,1.8 -0.5,0.2 -1.7,0.4 -1.8,-0.2 l -0.5,-2.6 z"
   inkscape:connector-curvature="0"
   style="fill:#595757" />
			</g>
			<g
   id="g988">
				<path
   id="path986"
   class="st18"
   d="m 283.2,177.6 -0.4,1.8 c -0.3,1.1 0,1.5 1.1,1.8 0.5,0.2 1.7,0.4 1.8,-0.2 l 0.5,-2.6 z"
   inkscape:connector-curvature="0"
   style="fill:#595757" />
			</g>
			<g
   id="g994">
				<path
   id="path990"
   class="st4"
   d="m 282.9,177.6 2.9,-13 c 0.5,-2.3 1.8,-5.4 3.4,-5.8 1.1,-0.3 1.3,1.6 1,3 l -3.9,17.6 c -0.2,0.6 -1.5,0.4 -2.2,0.3 -1.2,-0.4 -1.6,-0.9 -1.2,-2.1 z"
   inkscape:connector-curvature="0"
   style="fill:#3f3b39" />
				<path
   id="path992"
   class="st4"
   d="m 303.1,158.7 c 1.6,0.4 3,3.5 3.4,5.8 l 2.9,13 c 0.4,1.4 0,1.8 -1.3,2.2 -0.6,0.2 -2,0.4 -2.2,-0.3 l -4,-17.6 c 0,-1.4 0.1,-3.2 1.2,-3.1 z"
   inkscape:connector-curvature="0"
   style="fill:#3f3b39" />
			</g>
			<path
   id="path996"
   class="st17"
   d="m 288.2,161.3 c 0.3,-1.1 0.7,-2.4 1.4,-2.9 1.8,-1.4 4.4,-1.6 6.5,-1.6 2.1,0 4.7,0.4 6.5,1.6 0.6,0.5 1.1,1.8 1.4,2.9 1.4,7 1,20.3 1,20.3 0,0.5 -0.5,1.1 -1.1,1.1 h -15.7 c -0.5,0 -1.1,-0.5 -1.1,-1.1 0,0.1 -0.4,-13.2 1.1,-20.3 z"
   inkscape:connector-curvature="0"
   style="fill:#252221" />
			<g
   id="g1002">
				<path
   id="path998"
   class="st4"
   d="m 297.9,181.6 h 6.2 c 0,1.4 0,2.3 0,2.3 0,0.5 -0.5,1 -1,1 h -5.3 z"
   inkscape:connector-curvature="0"
   style="fill:#3f3b39" />
				<path
   id="path1000"
   class="st4"
   d="m 294,181.6 v 3.2 h -5.3 c -0.5,0 -1,-0.5 -1,-1 0,0 0,-0.9 0,-2.3 h 6.3 z"
   inkscape:connector-curvature="0"
   style="fill:#3f3b39" />
			</g>
			<g
   id="g1006">
				<path
   id="path1004"
   class="st17"
   d="m 295.9,160.6 c -1.8,0 -3.1,-1.4 -3.3,-3.4 1.1,-0.3 2.3,-0.4 3.3,-0.4 1,0 2.3,0.1 3.3,0.4 -0.2,2.1 -1.5,3.4 -3.3,3.4 z"
   inkscape:connector-curvature="0"
   style="fill:#252221" />
			</g>
			<g
   id="g1014">
				<path
   id="path1008"
   class="st18"
   d="m 297.3,156.8 v 0 0 c 0.1,0 0,0 0,0 z"
   inkscape:connector-curvature="0"
   style="fill:#595757" />
				<path
   id="path1010"
   class="st18"
   d="m 299,157.1 c -0.4,-0.1 -0.6,-0.1 -1,-0.2 0.4,0.1 0.7,0.1 1,0.2 z"
   inkscape:connector-curvature="0"
   style="fill:#595757" />
				<path
   id="path1012"
   class="st18"
   d="m 299.3,157.2 c 1.1,0.3 2.3,0.6 3.2,1.3 0.6,0.5 1.1,1.8 1.4,2.9 1.4,7 1.1,20.3 1.1,20.3 0,0.5 -0.5,1.1 -1.1,1.1 h -6.6 v -22.4 c 1.1,-0.6 1.8,-1.7 2,-3.2 z"
   inkscape:connector-curvature="0"
   style="fill:#595757" />
			</g>
			<g
   id="g1038">
				<g
   id="g1020">
					<g
   id="g1018">
						<path
   id="path1016"
   class="st4"
   d="m 297.1,160.7 c 0.2,0 0.3,0 0.4,0 0.8,-0.3 2.8,-1.1 3.1,-3.3 0,-0.2 -0.2,-0.3 -0.6,-0.4 -0.5,-0.2 -0.7,-0.3 -0.8,0 -0.4,1.4 -1,1.9 -2.1,2.3 -0.4,0.2 -0.4,0.5 -0.3,0.9 -0.1,0.2 -0.1,0.5 0.3,0.5 z"
   inkscape:connector-curvature="0"
   style="fill:#3f3b39" />
					</g>
				</g>
				<g
   id="g1024">
					<path
   id="path1022"
   class="st18"
   d="m 297.9,160.7 c -0.1,0 -0.1,0 -0.2,-0.1 l -0.6,-1.4 c 0,-0.1 0,-0.2 0.1,-0.2 0.1,0 0.2,0 0.3,0.1 l 0.6,1.4 c -0.1,0 -0.1,0.1 -0.2,0.2 0.1,0 0,0 0,0 z"
   inkscape:connector-curvature="0"
   style="fill:#595757" />
				</g>
				<g
   id="g1028">
					<path
   id="path1026"
   class="st18"
   d="m 299,160.1 c -0.1,0 -0.1,0 0,0 l -1.1,-1.2 c -0.1,-0.1 -0.1,-0.2 0,-0.3 0.1,-0.1 0.2,-0.1 0.3,0 l 1.1,1.1 c 0.1,0.1 0.1,0.2 0,0.3 -0.2,0 -0.3,0.1 -0.3,0.1 z"
   inkscape:connector-curvature="0"
   style="fill:#595757" />
				</g>
				<g
   id="g1032">
					<path
   id="path1030"
   class="st18"
   d="m 299.9,159.1 v 0 l -1.4,-0.8 c -0.1,-0.1 -0.1,-0.2 -0.1,-0.3 0.1,-0.1 0.2,-0.1 0.3,-0.1 l 1.3,0.8 c 0.1,0.1 0.1,0.2 0.1,0.3 -0.1,0.1 -0.2,0.1 -0.2,0.1 z"
   inkscape:connector-curvature="0"
   style="fill:#595757" />
				</g>
				<g
   id="g1036">
					<path
   id="path1034"
   class="st18"
   d="m 300.3,158 v 0 l -1.5,-0.4 c -0.1,0 -0.2,-0.1 -0.1,-0.2 0,-0.1 0.1,-0.2 0.2,-0.1 l 1.5,0.4 c 0.1,0 0.2,0.1 0.1,0.2 0,0.1 -0.1,0.1 -0.2,0.1 z"
   inkscape:connector-curvature="0"
   style="fill:#595757" />
				</g>
			</g>
			<g
   id="g1046">
				<path
   id="path1040"
   class="st18"
   d="m 294.7,156.8 v 0 0 c -0.1,0 -0.1,0 0,0 z"
   inkscape:connector-curvature="0"
   style="fill:#595757" />
				<path
   id="path1042"
   class="st18"
   d="m 293,157.1 c 0.4,-0.1 0.6,-0.1 1,-0.2 -0.3,0.1 -0.7,0.1 -1,0.2 z"
   inkscape:connector-curvature="0"
   style="fill:#595757" />
				<path
   id="path1044"
   class="st18"
   d="m 292.6,157.2 c -1.1,0.3 -2.3,0.6 -3.2,1.3 -0.6,0.5 -1.1,1.8 -1.4,2.9 -1.4,7 -1.1,20.3 -1.1,20.3 0,0.5 0.5,1.1 1.1,1.1 h 6.5 v -22.4 c -0.9,-0.6 -1.6,-1.7 -1.9,-3.2 z"
   inkscape:connector-curvature="0"
   style="fill:#595757" />
			</g>
			<g
   id="g1070">
				<g
   id="g1052">
					<g
   id="g1050">
						<path
   id="path1048"
   class="st4"
   d="m 294.9,160.7 c -0.2,0 -0.3,0 -0.4,0 -0.8,-0.3 -2.8,-1.1 -3.1,-3.3 0,-0.2 0.2,-0.3 0.6,-0.4 0.5,-0.2 0.7,-0.3 0.8,0 0.4,1.4 1,1.9 2.1,2.3 0.4,0.2 0.4,0.5 0.3,0.9 -0.1,0.2 -0.1,0.5 -0.3,0.5 z"
   inkscape:connector-curvature="0"
   style="fill:#3f3b39" />
					</g>
				</g>
				<g
   id="g1056">
					<path
   id="path1054"
   class="st18"
   d="m 294,160.7 v 0 c -0.2,-0.1 -0.2,-0.2 -0.2,-0.3 l 0.6,-1.4 c 0,-0.1 0.2,-0.1 0.3,-0.1 0.1,0 0.1,0.2 0.1,0.2 l -0.6,1.4 c 0,0.1 -0.1,0.2 -0.2,0.2 z"
   inkscape:connector-curvature="0"
   style="fill:#595757" />
				</g>
				<g
   id="g1060">
					<path
   id="path1058"
   class="st18"
   d="m 293,160.1 c 0,0 -0.1,0 0,0 -0.2,-0.2 -0.2,-0.3 -0.1,-0.4 l 1.1,-1.1 c 0.1,-0.1 0.2,-0.1 0.3,0 0.1,0.1 0.1,0.2 0,0.3 l -1.1,1.1 c -0.2,0 -0.2,0.1 -0.2,0.1 z"
   inkscape:connector-curvature="0"
   style="fill:#595757" />
				</g>
				<g
   id="g1064">
					<path
   id="path1062"
   class="st18"
   d="m 292.1,159.1 c -0.1,0 -0.1,0 -0.2,-0.1 -0.1,-0.1 0,-0.2 0.1,-0.3 l 1.3,-0.8 c 0.1,-0.1 0.2,0 0.3,0.1 0.1,0.1 0,0.2 -0.1,0.3 z"
   inkscape:connector-curvature="0"
   style="fill:#595757" />
				</g>
				<g
   id="g1068">
					<path
   id="path1066"
   class="st18"
   d="m 291.5,158 c -0.1,0 -0.2,-0.1 -0.2,-0.1 0,-0.1 0,-0.2 0.1,-0.2 l 1.5,-0.4 c 0.1,0 0.2,0 0.2,0.1 0,0.1 0,0.2 -0.1,0.2 l -1.5,0.4 c 0.1,0 0.1,0 0,0 z"
   inkscape:connector-curvature="0"
   style="fill:#595757" />
				</g>
			</g>
			<path
   id="path1072"
   class="st4"
   d="m 300.5,181.1 c -0.5,-0.9 -0.8,-2.7 -0.7,-5.7 1,-0.1 1.5,-0.4 3.9,-0.5 0.4,3.2 0.5,5.3 -0.1,6.2 z"
   inkscape:connector-curvature="0"
   style="fill:#3f3b39" />
			<path
   id="path1074"
   class="st4"
   d="m 291.4,181.1 c 0.5,-0.9 0.8,-2.7 0.7,-5.7 -1,-0.1 -1.5,-0.4 -3.9,-0.5 -0.4,3.2 -0.5,5.3 0.1,6.2 z"
   inkscape:connector-curvature="0"
   style="fill:#3f3b39" />
			<g
   id="g1082">
				<path
   id="path1076"
   class="st17"
   d="m 302.2,164.4 c 0,0.8 -0.6,1.4 -1.5,1.4 -0.8,0 -1.5,-0.6 -1.5,-1.4 0,-0.8 0.6,-1.4 1.5,-1.4 0.8,0 1.5,0.6 1.5,1.4 z"
   inkscape:connector-curvature="0"
   style="fill:#252221" />
				<path
   id="path1078"
   class="st4"
   d="m 302,164.4 c 0,0.6 -0.5,1.2 -1.3,1.2 -0.7,0 -1.3,-0.5 -1.3,-1.2 0,-0.7 0.5,-1.2 1.3,-1.2 0.7,0 1.3,0.5 1.3,1.2 z"
   inkscape:connector-curvature="0"
   style="fill:#3f3b39" />
				<polygon
   id="polygon1080"
   class="st18"
   points="301.7,164.1 301.2,164.6 301.3,165.2 300.7,165 300.1,165.2 300.2,164.6 299.6,164.1 300.3,164 300.7,163.3 301,164 "
   style="fill:#595757" />
			</g>
		</g>
		<g
   id="g1138">
			<g
   id="g1088">
				<path
   id="path1086"
   class="st4"
   d="m 320.1,196.4 -0.3,1.1 c -0.2,0.7 0,1 0.6,1.1 0.4,0.1 1,0.3 1.1,-0.2 l 0.4,-1.6 z"
   inkscape:connector-curvature="0"
   style="fill:#3f3b39" />
			</g>
			<g
   id="g1092">
				<path
   id="path1090"
   class="st4"
   d="m 335.5,196.4 0.3,1.1 c 0.2,0.7 0,1 -0.6,1.1 -0.4,0.1 -1,0.3 -1.1,-0.2 l -0.4,-1.6 z"
   inkscape:connector-curvature="0"
   style="fill:#3f3b39" />
			</g>
			<path
   id="path1094"
   class="st19"
   d="m 332.3,188.7 c -0.2,-0.6 -0.4,-1.4 -0.7,-1.7 -1,-0.7 -2.4,-1 -3.5,-1 -1.1,0 -2.5,0.2 -3.5,1 -0.4,0.3 -0.5,1.1 -0.7,1.7 -0.8,4 -0.5,11.6 -0.5,11.6 0,0.4 0.3,0.6 0.5,0.6 h 8.6 c 0.4,0 0.5,-0.3 0.5,-0.6 -0.2,0 0,-7.6 -0.7,-11.6 z"
   inkscape:connector-curvature="0"
   style="fill:#9e9ea0" />
			<g
   id="g1100">
				<path
   id="path1096"
   class="st18"
   d="m 335.8,196.3 -1.7,-8 c -0.3,-1.4 -1.1,-3.3 -2,-3.6 -0.6,-0.2 -0.8,1 -0.5,1.8 l 2.3,11 c 0.1,0.4 0.9,0.3 1.3,0.2 0.6,-0.3 0.7,-0.5 0.6,-1.4 z"
   inkscape:connector-curvature="0"
   style="fill:#595757" />
				<path
   id="path1098"
   class="st18"
   d="m 323.7,184.7 c -1,0.2 -1.8,2.2 -2,3.6 l -1.7,8 c -0.2,0.8 0,1.1 0.7,1.4 0.4,0.1 1.2,0.3 1.3,-0.2 l 2.3,-11 c 0.2,-0.8 0.1,-1.9 -0.6,-1.8 z"
   inkscape:connector-curvature="0"
   style="fill:#595757" />
			</g>
			<path
   id="path1102"
   class="st8"
   d="m 332.6,186.3 c -0.2,-0.7 -0.4,-1.5 -0.8,-1.8 -1.1,-0.8 -2.6,-1.1 -3.9,-1.1 -1.2,0 -2.8,0.2 -3.9,1.1 -0.4,0.4 -0.6,1.1 -0.8,1.8 -0.9,4.3 -0.6,12.5 -0.6,12.5 0,0.4 0.4,0.6 0.6,0.6 h 9.3 c 0.4,0 0.5,-0.4 0.6,-0.6 0.1,0.2 0.4,-8.1 -0.5,-12.5 z"
   inkscape:connector-curvature="0"
   style="fill:#edeeee" />
			<g
   id="g1106">
				<path
   id="path1104"
   class="st19"
   d="m 328,185.9 c 1.1,0 1.8,-0.9 2,-2.2 -0.6,-0.2 -1.4,-0.2 -2,-0.2 -0.6,0 -1.3,0.1 -2,0.2 0.2,1.3 0.9,2.2 2,2.2 z"
   inkscape:connector-curvature="0"
   style="fill:#9e9ea0" />
			</g>
			<g
   id="g1110">
				<path
   id="path1108"
   class="st20"
   d="m 328,186.2 c -1.3,0 -2.3,-1 -2.3,-2.4 0,-0.3 0.2,-0.4 0.4,-0.4 0.3,0 0.4,0.2 0.4,0.4 0,1.1 0.5,1.7 1.5,1.7 0.9,0 1.5,-0.6 1.5,-1.7 0,-0.3 0.2,-0.4 0.4,-0.4 0.3,0 0.4,0.2 0.4,0.4 -0.2,1.5 -1,2.4 -2.3,2.4 z"
   inkscape:connector-curvature="0"
   style="fill:#c8c8c9" />
			</g>
			<g
   id="g1136">
				<g
   id="g1114">
					<path
   id="path1112"
   class="st20"
   d="m 328.7,188.1 v 1.9 h 0.5 v 1 h -0.5 v 0.3 h 0.4 v 1.1 h -1.8 v -1.1 h 0.4 V 191 h -1.6 v -0.8 l 1.5,-2.1 z m -1.1,1.5 -0.4,0.4 h 0.4 z"
   inkscape:connector-curvature="0"
   style="fill:#c8c8c9" />
				</g>
				<g
   id="g1122">
					<path
   id="path1116"
   class="st20"
   d="m 327,193.6 v 0.5 l -0.1,0.1 0.1,0.1 v 0.5 l -0.4,0.4 h -1.2 v -0.5 h 0.2 v -1 h -0.2 v -0.5 h 1.3 z m -0.6,0.2 h -0.3 v 0.2 h 0.3 z m 0,0.7 h -0.3 v 0.3 h 0.3 z"
   inkscape:connector-curvature="0"
   style="fill:#c8c8c9" />
					<path
   id="path1118"
   class="st20"
   d="m 328.8,193.6 v 1.3 l -0.4,0.4 h -0.8 l -0.4,-0.4 v -1.4 l 0.4,-0.4 h 0.8 z m -0.6,0.2 h -0.3 v 1 h 0.3 z"
   inkscape:connector-curvature="0"
   style="fill:#c8c8c9" />
					<path
   id="path1120"
   class="st20"
   d="m 330.9,193.3 v 0.5 h -0.2 l -0.4,0.7 v 0.3 h 0.2 v 0.5 h -0.9 v -0.5 h 0.2 v -0.3 l -0.4,-0.7 h -0.2 v -0.5 h 0.8 v 0.5 0 l 0.2,0.3 0.2,-0.3 h -0.1 v -0.5 z"
   inkscape:connector-curvature="0"
   style="fill:#c8c8c9" />
				</g>
				<g
   id="g1130">
					<path
   id="path1124"
   class="st4"
   d="m 327,193.6 v 0.5 l -0.1,0.1 0.1,0.1 v 0.5 l -0.4,0.4 h -1.2 v -0.5 h 0.2 v -1 h -0.2 v -0.5 h 1.3 z m -0.3,0.1 -0.3,-0.3 h -1 v 0.2 h 0.2 v 1.3 h -0.2 v 0.2 h 1 l 0.4,-0.4 v -0.4 l -0.2,-0.2 0.2,-0.2 z m -0.3,-0.1 v 0 l 0.1,0.4 -0.1,0.1 H 326 v -0.5 z m 0,0.7 v 0 l 0.1,0.4 -0.2,0.2 h -0.5 v -0.5 z m 0,-0.5 h -0.3 v 0.2 h 0.3 z m 0,0.7 h -0.3 v 0.3 h 0.3 z"
   inkscape:connector-curvature="0"
   style="fill:#3f3b39" />
					<path
   id="path1126"
   class="st4"
   d="m 328.8,193.6 v 1.3 l -0.4,0.4 h -0.8 l -0.4,-0.4 v -1.4 l 0.4,-0.4 h 0.8 z m -0.1,0.1 -0.3,-0.3 h -0.5 l -0.3,0.3 v 1.1 l 0.3,0.3 h 0.6 l 0.3,-0.3 z m -0.3,0.1 v 1.1 l -0.1,0.2 H 328 l -0.1,-0.2 v -1.1 l 0.2,-0.1 z m -0.2,0 h -0.3 v 1 h 0.3 z"
   inkscape:connector-curvature="0"
   style="fill:#3f3b39" />
					<path
   id="path1128"
   class="st4"
   d="m 330.9,193.3 v 0.5 h -0.2 l -0.4,0.7 v 0.3 h 0.2 v 0.5 h -0.9 v -0.5 h 0.2 v -0.3 l -0.4,-0.7 h -0.2 v -0.5 h 0.8 v 0.5 0 l 0.2,0.3 0.2,-0.3 h -0.1 v -0.5 z m -0.2,0.1 h -0.5 v 0.2 h 0.1 l -0.4,0.6 -0.4,-0.6 h 0.1 v -0.2 h -0.5 v 0.2 h 0.1 l 0.5,0.9 v 0.5 h -0.2 v 0.2 h 0.5 v -0.2 0 -0.5 l 0.5,-0.9 h 0.1 z"
   inkscape:connector-curvature="0"
   style="fill:#3f3b39" />
				</g>
				<g
   id="g1134">
					<path
   id="path1132"
   class="st4"
   d="m 328.7,188.1 v 1.9 h 0.5 v 1 h -0.5 v 0.3 h 0.4 v 1.1 h -1.8 v -1.1 h 0.4 V 191 h -1.6 v -0.8 l 1.5,-2.1 z m -0.4,0.3 h -0.8 l -1.3,1.8 v 0.5 h 1.6 v 0.9 h -0.4 v 0.4 h 1.1 v -0.4 h -0.4 v -0.9 h 0.5 v -0.4 h -0.5 z m -0.4,0.4 v 1.4 h -1.2 z m -0.3,0.8 -0.4,0.4 h 0.4 z"
   inkscape:connector-curvature="0"
   style="fill:#3f3b39" />
				</g>
			</g>
		</g>
		<g
   id="g1172">
			<g
   id="g1142">
				<path
   id="path1140"
   class="st21"
   d="m 361.1,168.8 0.3,1.1 c 0.2,0.7 0,0.9 -0.6,1.1 -0.4,0.1 -1,0.3 -1.1,-0.1 l -0.4,-1.6 z"
   inkscape:connector-curvature="0"
   style="fill:#f29600" />
			</g>
			<g
   id="g1146">
				<path
   id="path1144"
   class="st21"
   d="m 345.9,168.8 -0.3,1.1 c -0.2,0.7 0,0.9 0.6,1.1 0.4,0.1 1,0.3 1.1,-0.1 l 0.4,-1.6 z"
   inkscape:connector-curvature="0"
   style="fill:#f29600" />
			</g>
			<path
   id="path1148"
   class="st21"
   d="m 349.2,161.1 c 0.2,-0.6 0.4,-1.4 0.7,-1.7 1,-0.7 2.4,-1 3.5,-1 1.1,0 2.5,0.2 3.5,1 0.4,0.3 0.5,1 0.7,1.7 0.8,4 0.5,11.5 0.5,11.5 0,0.4 -0.3,0.6 -0.5,0.6 h -8.5 c -0.4,0 -0.5,-0.3 -0.5,-0.6 0,0 -0.2,-7.5 0.6,-11.5 z"
   inkscape:connector-curvature="0"
   style="fill:#f29600" />
			<g
   id="g1154">
				<path
   id="path1150"
   class="st22"
   d="m 345.6,168.7 1.7,-8 c 0.3,-1.4 1.1,-3.3 2,-3.6 0.6,-0.2 0.7,1 0.5,1.8 l -2.3,10.9 c -0.1,0.4 -0.9,0.3 -1.3,0.2 -0.5,-0.2 -0.8,-0.5 -0.6,-1.3 z"
   inkscape:connector-curvature="0"
   style="fill:#f7b52d" />
				<path
   id="path1152"
   class="st22"
   d="m 357.6,157.1 c 1,0.2 1.8,2.2 2,3.6 l 1.7,8 c 0.2,0.8 0,1.1 -0.7,1.3 -0.4,0.1 -1.2,0.3 -1.3,-0.2 L 357,158.9 c -0.1,-0.8 0,-2 0.6,-1.8 z"
   inkscape:connector-curvature="0"
   style="fill:#f7b52d" />
			</g>
			<path
   id="path1156"
   class="st8"
   d="m 348.8,158.8 c 0.2,-0.7 0.4,-1.5 0.8,-1.8 1.1,-0.8 2.5,-1.1 3.9,-1.1 1.4,0 2.8,0.2 3.9,1.1 0.4,0.4 0.6,1.1 0.8,1.8 0.9,4.3 0.6,12.5 0.6,12.5 0,0.4 -0.4,0.6 -0.6,0.6 h -9.3 c -0.4,0 -0.5,-0.4 -0.6,-0.6 -0.2,0 -0.3,-8.1 0.5,-12.5 z"
   inkscape:connector-curvature="0"
   style="fill:#edeeee" />
			<g
   id="g1160">
				<path
   id="path1158"
   class="st21"
   d="m 353.5,158.3 c -1.1,0 -1.8,-0.8 -2,-2.2 0.6,-0.2 1.4,-0.2 2,-0.2 0.6,0 1.3,0.1 2,0.2 -0.3,1.5 -1.1,2.2 -2,2.2 z"
   inkscape:connector-curvature="0"
   style="fill:#f29600" />
			</g>
			<g
   id="g1164">
				<path
   id="path1162"
   class="st22"
   d="m 353.5,158.7 c 1.3,0 2.3,-1 2.3,-2.4 0,-0.3 -0.2,-0.4 -0.4,-0.4 -0.3,0 -0.4,0.2 -0.4,0.4 0,1.1 -0.5,1.7 -1.5,1.7 -0.9,0 -1.5,-0.6 -1.5,-1.7 0,-0.3 -0.2,-0.4 -0.4,-0.4 -0.3,0 -0.3,0.2 -0.3,0.4 -0.1,1.4 0.8,2.4 2.2,2.4 z"
   inkscape:connector-curvature="0"
   style="fill:#f7b52d" />
			</g>
			<path
   id="path1166"
   class="st23"
   d="m 355.6,162.9 v 0 c 0.3,-0.1 0.4,-0.2 0.5,-0.4 0.1,-0.2 0.2,-0.4 0.2,-0.5 0,-0.2 0,-0.3 -0.1,-0.4 -0.1,-0.1 -0.2,-0.2 -0.3,-0.3 -0.1,-0.1 -0.3,-0.1 -0.4,-0.2 -0.1,0 -0.3,0 -0.5,0 h -0.7 -0.8 -0.2 l -0.4,1.9 v 0 l -0.8,-1.9 h -0.9 l -0.7,3.2 h 1 l 0.4,-1.9 v 0 l 0.8,1.9 h 0.2 0.8 1.2 c 0.4,0 0.7,-0.1 1,-0.4 0.3,-0.3 0.4,-0.5 0.4,-0.7 -0.1,0 -0.3,-0.1 -0.7,-0.3 z m -1.1,1.1 H 354 l 0.2,-0.6 h 0.5 c 0.2,0 0.4,0 0.4,0.1 0.1,0.1 0.1,0.2 0.1,0.3 0,0 -0.2,0.2 -0.7,0.2 z m 0.7,-1.5 c -0.1,0.1 -0.1,0.1 -0.2,0.2 -0.1,0 -0.2,0 -0.4,0 h -0.4 l 0.2,-0.6 h 0.4 c 0.2,0 0.3,0 0.4,0.1 0.1,0.1 0.1,0.1 0.1,0.2 0,-0.1 0,0 -0.1,0.1 z"
   inkscape:connector-curvature="0"
   style="fill:#ea5515" />
			<g
   id="g1170">
				<path
   id="path1168"
   class="st23"
   d="m 355.7,166.1 h -4.6 c -0.2,0 -0.3,-0.2 -0.3,-0.3 0,-0.2 0.2,-0.3 0.3,-0.3 h 4.6 c 0.2,0 0.3,0.2 0.3,0.3 0,0.3 -0.1,0.3 -0.3,0.3 z"
   inkscape:connector-curvature="0"
   style="fill:#ea5515" />
			</g>
		</g>
		<g
   id="g1262">
			<rect
   id="rect1174"
   x="350.89999"
   y="197.5"
   class="st24"
   width="5.5999999"
   height="3.7"
   style="fill:#045993" />
			<g
   id="g1178">
				<path
   id="path1176"
   class="st25"
   d="m 345.4,196.5 -0.3,1.1 c -0.2,0.7 0,1 0.6,1.1 0.4,0.1 1.1,0.3 1.1,-0.2 l 0.4,-1.7 z"
   inkscape:connector-curvature="0"
   style="fill:#066eb7" />
			</g>
			<g
   id="g1182">
				<path
   id="path1180"
   class="st25"
   d="m 361.6,196.5 0.3,1.1 c 0.2,0.7 0,1 -0.6,1.1 -0.4,0.1 -1.1,0.3 -1.1,-0.2 l -0.4,-1.7 z"
   inkscape:connector-curvature="0"
   style="fill:#066eb7" />
			</g>
			<g
   id="g1188">
				<path
   id="path1184"
   class="st26"
   d="m 361.7,196.5 -1.8,-8.4 c -0.4,-1.4 -1.1,-3.5 -2.1,-3.8 -0.7,-0.2 -0.8,1.1 -0.6,1.9 l 2.4,11.4 c 0.1,0.4 1,0.3 1.4,0.2 0.7,-0.2 0.9,-0.4 0.7,-1.3 z"
   inkscape:connector-curvature="0"
   style="fill:#0462a4" />
				<path
   id="path1186"
   class="st26"
   d="m 349.1,184.3 c -1,0.3 -1.8,2.3 -2.1,3.8 l -1.8,8.4 c -0.2,0.9 0,1.2 0.8,1.4 0.4,0.1 1.3,0.3 1.4,-0.2 l 2.4,-11.4 c 0.1,-0.9 0,-2.1 -0.7,-2 z"
   inkscape:connector-curvature="0"
   style="fill:#0462a4" />
			</g>
			<path
   id="path1190"
   class="st24"
   d="m 358.4,186.1 c -0.2,-0.7 -0.5,-1.6 -0.8,-1.8 -1.1,-0.9 -2.7,-1.1 -4,-1.1 -1.3,0 -2.9,0.3 -4,1.1 -0.4,0.4 -0.7,1.1 -0.8,1.8 -0.9,4.6 -0.6,13.1 -0.6,13.1 0,0.4 0.4,0.7 0.6,0.7 h 9.7 c 0.4,0 0.6,-0.4 0.6,-0.7 0,0 0.3,-8.7 -0.7,-13.1 z"
   inkscape:connector-curvature="0"
   style="fill:#045993" />
			<g
   id="g1196">
				<path
   id="path1192"
   class="st26"
   d="m 352.4,199.2 h -4 c 0,0.9 0,1.4 0,1.4 0,0.4 0.3,0.6 0.5,0.6 h 3.2 z"
   inkscape:connector-curvature="0"
   style="fill:#0462a4" />
				<path
   id="path1194"
   class="st26"
   d="m 354.8,199.2 v 2.1 h 3.2 c 0.4,0 0.5,-0.4 0.5,-0.6 0,0 0,-0.5 0,-1.4 0.2,-0.1 -3.7,-0.1 -3.7,-0.1 z"
   inkscape:connector-curvature="0"
   style="fill:#0462a4" />
			</g>
			<g
   id="g1200">
				<path
   id="path1198"
   class="st24"
   d="m 353.6,185.6 c 1.1,0 1.9,-0.9 2.1,-2.3 -0.7,-0.2 -1.4,-0.3 -2.1,-0.3 -0.6,0 -1.4,0.1 -2.1,0.3 0.2,1.4 1,2.3 2.1,2.3 z"
   inkscape:connector-curvature="0"
   style="fill:#045993" />
			</g>
			<g
   id="g1208">
				<path
   id="path1202"
   class="st25"
   d="m 352.7,183.1 v 0 z"
   inkscape:connector-curvature="0"
   style="fill:#066eb7" />
				<path
   id="path1204"
   class="st25"
   d="m 351.7,183.2 c 0.2,0 0.4,-0.1 0.5,-0.1 -0.1,0.1 -0.3,0.1 -0.5,0.1 z"
   inkscape:connector-curvature="0"
   style="fill:#066eb7" />
				<path
   id="path1206"
   class="st25"
   d="m 351.6,183.3 c -0.7,0.2 -1.4,0.4 -1.9,0.8 -0.4,0.4 -0.7,1.1 -0.8,1.8 -0.9,4.6 -0.6,13.1 -0.6,13.1 0,0.4 0.4,0.7 0.6,0.7 h 4 v -14.5 c -0.8,-0.2 -1.2,-0.9 -1.3,-1.9 z"
   inkscape:connector-curvature="0"
   style="fill:#066eb7" />
			</g>
			<g
   id="g1222">
				<g
   id="g1212">
					<path
   id="path1210"
   class="st26"
   d="m 352.9,185.7 c -0.1,0 -0.2,0 -0.3,0 -0.5,-0.2 -1.8,-0.7 -1.8,-2.2 0,-0.1 0.1,-0.2 0.4,-0.3 0.3,-0.1 0.5,-0.2 0.5,0 0.2,0.9 0.6,1.3 1.3,1.5 0.3,0.1 0.3,0.4 0.2,0.5 -0.1,0.2 -0.1,0.4 -0.3,0.5 z"
   inkscape:connector-curvature="0"
   style="fill:#0462a4" />
				</g>
				<path
   id="path1214"
   class="st25"
   d="m 352.3,185.8 c -0.2,-0.1 -0.4,-0.4 -0.3,-0.5 v 0 l 0.4,-0.9 c 0.1,-0.2 0.4,-0.4 0.5,-0.2 v 0 c 0.2,0.1 0.4,0.4 0.2,0.5 v 0 l -0.4,0.9 c -0.1,0.2 -0.3,0.3 -0.4,0.2 v 0 c 0,0.1 0,0.1 0,0 z"
   inkscape:connector-curvature="0"
   style="fill:#066eb7" />
				<path
   id="path1216"
   class="st25"
   d="m 351.5,185.4 c -0.2,-0.2 -0.2,-0.4 0,-0.5 v 0 l 0.6,-0.7 c 0.2,-0.2 0.4,-0.2 0.5,0 v 0 c 0.2,0.2 0.2,0.4 0,0.5 v 0 l -0.6,0.7 c -0.1,0.1 -0.2,0.2 -0.4,0.2 v 0 c 0,-0.1 0,-0.2 -0.1,-0.2 z"
   inkscape:connector-curvature="0"
   style="fill:#066eb7" />
				<path
   id="path1218"
   class="st25"
   d="m 350.8,184.7 c -0.1,-0.2 -0.1,-0.4 0.1,-0.5 v 0 l 0.8,-0.5 c 0.2,-0.1 0.4,-0.1 0.5,0.1 v 0 c 0.1,0.2 0.1,0.4 -0.1,0.5 v 0 l -0.8,0.5 c -0.1,0.1 -0.2,0.1 -0.3,0.1 v 0 c 0,-0.1 -0.1,-0.1 -0.2,-0.2 z"
   inkscape:connector-curvature="0"
   style="fill:#066eb7" />
				<path
   id="path1220"
   class="st25"
   d="m 350.5,183.9 c -0.1,-0.3 0.1,-0.4 0.3,-0.5 v 0 l 1,-0.3 c 0.3,-0.1 0.4,0.1 0.5,0.3 v 0 c 0.1,0.3 -0.1,0.4 -0.3,0.5 v 0 l -1,0.3 h -0.1 v 0 c -0.2,-0.1 -0.3,-0.2 -0.4,-0.3 z"
   inkscape:connector-curvature="0"
   style="fill:#066eb7" />
			</g>
			<g
   id="g1230">
				<path
   id="path1224"
   class="st25"
   d="m 354.4,183.1 v 0 z"
   inkscape:connector-curvature="0"
   style="fill:#066eb7" />
				<path
   id="path1226"
   class="st25"
   d="m 355.4,183.2 c -0.2,0 -0.4,-0.1 -0.5,-0.1 0.2,0.1 0.4,0.1 0.5,0.1 z"
   inkscape:connector-curvature="0"
   style="fill:#066eb7" />
				<path
   id="path1228"
   class="st25"
   d="m 355.7,183.3 c 0.7,0.2 1.4,0.4 1.9,0.8 0.4,0.4 0.7,1.1 0.8,1.8 0.9,4.6 0.6,13.1 0.6,13.1 0,0.4 -0.4,0.7 -0.6,0.7 h -4 v -14.5 c 0.7,-0.2 1.1,-0.9 1.3,-1.9 z"
   inkscape:connector-curvature="0"
   style="fill:#066eb7" />
			</g>
			<g
   id="g1244">
				<g
   id="g1234">
					<path
   id="path1232"
   class="st26"
   d="m 354.3,185.7 c 0.1,0 0.2,0 0.3,0 0.5,-0.2 1.8,-0.7 1.8,-2.2 0,-0.1 -0.1,-0.2 -0.4,-0.3 -0.3,-0.1 -0.5,-0.2 -0.5,0 -0.2,0.9 -0.6,1.3 -1.3,1.5 -0.3,0.1 -0.3,0.4 -0.2,0.5 0.1,0.2 0.1,0.4 0.3,0.5 z"
   inkscape:connector-curvature="0"
   style="fill:#0462a4" />
				</g>
				<path
   id="path1236"
   class="st25"
   d="m 354.4,185.7 -0.4,-0.9 c -0.1,-0.2 0,-0.4 0.3,-0.5 v 0 c 0.2,-0.1 0.4,0 0.5,0.3 v 0 l 0.4,0.9 c 0.1,0.2 0,0.4 -0.3,0.5 v 0 c -0.1,0 -0.1,0 -0.2,0 v 0 c -0.1,-0.1 -0.3,-0.2 -0.3,-0.3 z"
   inkscape:connector-curvature="0"
   style="fill:#066eb7" />
				<path
   id="path1238"
   class="st25"
   d="m 355.2,185.4 -0.6,-0.7 c -0.2,-0.2 -0.2,-0.4 0,-0.5 v 0 c 0.2,-0.2 0.4,-0.2 0.5,0 v 0 l 0.6,0.7 c 0.2,0.2 0.2,0.4 0,0.5 v 0 c -0.1,0.1 -0.2,0.1 -0.3,0.1 v 0 c -0.1,0 -0.1,-0.1 -0.2,-0.1 z"
   inkscape:connector-curvature="0"
   style="fill:#066eb7" />
				<path
   id="path1240"
   class="st25"
   d="m 355.8,184.8 -0.8,-0.5 c -0.2,-0.1 -0.3,-0.4 -0.1,-0.5 v 0 c 0.1,-0.2 0.4,-0.3 0.5,-0.1 v 0 l 0.8,0.5 c 0.2,0.1 0.3,0.4 0.1,0.5 v 0 c -0.1,0.1 -0.2,0.2 -0.4,0.2 v 0 c 0,-0.1 0,-0.1 -0.1,-0.1 z"
   inkscape:connector-curvature="0"
   style="fill:#066eb7" />
				<path
   id="path1242"
   class="st25"
   d="m 356.2,184.1 -1,-0.3 c -0.3,-0.1 -0.4,-0.3 -0.3,-0.5 v 0 c 0.1,-0.3 0.3,-0.4 0.5,-0.3 v 0 l 1,0.3 c 0.3,0.1 0.4,0.3 0.3,0.5 v 0 c -0.1,0.2 -0.3,0.4 -0.5,0.3 v 0 z"
   inkscape:connector-curvature="0"
   style="fill:#066eb7" />
			</g>
			<path
   id="path1246"
   class="st26"
   d="m 350.8,198.8 c 0.4,-0.5 0.5,-1.8 0.5,-3.7 -0.5,0 -1,-0.2 -2.4,-0.4 -0.3,2.1 -0.4,3.4 0.1,4.1 z"
   inkscape:connector-curvature="0"
   style="fill:#0462a4" />
			<path
   id="path1248"
   class="st26"
   d="m 356.4,198.8 c -0.4,-0.5 -0.5,-1.8 -0.5,-3.7 0.5,0 1,-0.2 2.4,-0.4 0.3,2.1 0.4,3.4 -0.1,4.1 z"
   inkscape:connector-curvature="0"
   style="fill:#0462a4" />
			<g
   id="g1260">
				<g
   id="g1254">
					<path
   id="path1250"
   class="st3"
   d="m 350.7,186.6 c -0.5,0 -1.1,0.4 -1.1,0.9 0,0.5 0.5,0.9 1.1,0.9 0.5,0 1.1,-0.4 1.1,-0.9 -0.1,-0.6 -0.6,-0.9 -1.1,-0.9 z m 0.1,1.3 v -1.1 c 0.4,0 0.6,0.3 0.6,0.5 0,0.2 -0.3,0.6 -0.6,0.6 z"
   inkscape:connector-curvature="0"
   style="fill:#ffffff" />
					<path
   id="path1252"
   class="st24"
   d="m 350.6,186.8 v 1.1 c -0.4,0 -0.6,-0.3 -0.6,-0.5 -0.1,-0.3 0.2,-0.6 0.6,-0.6 z"
   inkscape:connector-curvature="0"
   style="fill:#045993" />
				</g>
				<g
   id="g1258">
					<path
   id="path1256"
   class="st24"
   d="M 351.4,189 H 350 c -0.1,0 -0.1,-0.1 -0.1,-0.1 0,-0.1 0.1,-0.1 0.1,-0.1 h 1.4 c 0.1,0 0.1,0.1 0,0.2 0.1,-0.1 0,0 0,0 z"
   inkscape:connector-curvature="0"
   style="fill:#045993" />
				</g>
			</g>
		</g>
		<rect
   id="rect1264"
   x="278.60001"
   y="192.8"
   class="st11"
   width="35"
   height="12.4"
   style="fill:#00aad0" />
		<g
   id="g1272">
			<path
   id="path1266"
   class="st3"
   d="m 290.2,196.8 c 1.1,0 1.8,0.5 1.8,1.4 0,0.6 -0.4,1.1 -1,1.2 0.8,0.1 1.2,0.6 1.2,1.4 0,0.9 -0.7,1.4 -1.9,1.4 H 288 v -5.4 z m -1.6,2.3 h 1.6 c 0.7,0 1.1,-0.4 1.1,-0.9 0,-0.5 -0.4,-0.9 -1.1,-0.9 h -1.6 z m 0,2.4 h 1.6 c 0.9,0 1.4,-0.4 1.4,-1 0,-0.5 -0.5,-1 -1.4,-1 h -1.6 z"
   inkscape:connector-curvature="0"
   style="fill:#ffffff" />
			<path
   id="path1268"
   class="st3"
   d="m 297.8,199.9 c 0,1.4 -0.9,2.3 -2.3,2.3 -1.4,0 -2.3,-0.9 -2.3,-2.3 v -3.2 h 0.6 v 3.2 c 0,1.1 0.6,1.7 1.7,1.7 1.1,0 1.6,-0.6 1.6,-1.7 v -3.2 h 0.6 z"
   inkscape:connector-curvature="0"
   style="fill:#ffffff" />
			<path
   id="path1270"
   class="st3"
   d="m 301.2,202.1 h -0.6 v -1.8 l -2.1,-3.5 h 0.6 l 1.8,2.8 1.7,-2.8 h 0.6 l -2,3.5 z"
   inkscape:connector-curvature="0"
   style="fill:#ffffff" />
		</g>
		<path
   id="path1274"
   class="st12"
   d="m 332.1,226.7 h -22.9 c -0.1,0 -0.2,-0.1 -0.2,-0.2 v -1 c 0,-0.1 0.1,-0.2 0.2,-0.2 h 22.9 c 0.1,0 0.2,0.1 0.2,0.2 v 1 c 0,0.1 -0.1,0.2 -0.2,0.2 z"
   inkscape:connector-curvature="0"
   style="fill:#929090" />
	</g>
	<circle
   id="circle1278"
   class="st6"
   cx="212.10001"
   cy="253.10001"
   r="2.5999999"
   style="fill:#888888" />
	<g
   id="g1318">
		<g
   id="g1282">
			<path
   id="path1280"
   class="st9"
   d="m 285.6,236.6 v -11 c 0,-4.3 -3.5,-7.8 -7.8,-7.8 v 0 c -4.3,0 -7.8,3.5 -7.8,7.8 v 0 11 c 0,0.4 -0.3,0.6 -0.6,0.6 v 0 c -0.4,0 -0.6,-0.3 -0.6,-0.6 v 0 -11 c 0,-5 4.1,-9 9,-9 v 0 c 5,0 9,4.1 9,9 v 0 11 c 0,0.4 -0.3,0.6 -0.6,0.6 v 0 c -0.4,-0.1 -0.6,-0.3 -0.6,-0.6 z"
   inkscape:connector-curvature="0"
   style="fill:#dcdcdc" />
		</g>
		<rect
   id="rect1284"
   x="263.29999"
   y="232"
   class="st22"
   width="39.200001"
   height="26.6"
   style="fill:#f7b52d" />
		<rect
   id="rect1286"
   x="263.29999"
   y="232"
   class="st27"
   width="7.5"
   height="26.6"
   style="fill:#c30e24" />
		<g
   id="g1290">
			<path
   id="path1288"
   class="st8"
   d="m 294.8,235.7 v -11 c 0,-4.3 -3.5,-7.8 -7.8,-7.8 v 0 c -4.3,0 -7.8,3.5 -7.8,7.8 v 0 11 c 0,0.4 -0.3,0.6 -0.6,0.6 v 0 c -0.4,0 -0.6,-0.3 -0.6,-0.6 v 0 -11 c 0,-5 4.1,-9 9,-9 v 0 c 5,0 9,4.1 9,9 v 0 11 c 0,0.4 -0.3,0.6 -0.6,0.6 v 0 c -0.3,0 -0.6,-0.1 -0.6,-0.6 z"
   inkscape:connector-curvature="0"
   style="fill:#edeeee" />
		</g>
		<g
   id="g1314">
			<rect
   id="rect1292"
   x="286.79999"
   y="244.39999"
   class="st3"
   width="3.8"
   height="2.2"
   style="fill:#ffffff" />
			<rect
   id="rect1294"
   x="281.79999"
   y="244.39999"
   class="st3"
   width="3.8"
   height="2.2"
   style="fill:#ffffff" />
			<rect
   id="rect1296"
   x="276.79999"
   y="244.39999"
   class="st3"
   width="3.8"
   height="2.2"
   style="fill:#ffffff" />
			<rect
   id="rect1298"
   x="286.79999"
   y="244.39999"
   class="st3"
   width="3.8"
   height="2.2"
   style="fill:#ffffff" />
			<rect
   id="rect1300"
   x="286.79999"
   y="247.89999"
   class="st3"
   width="3.8"
   height="2.2"
   style="fill:#ffffff" />
			<rect
   id="rect1302"
   x="281.79999"
   y="247.89999"
   class="st3"
   width="3.8"
   height="2.2"
   style="fill:#ffffff" />
			<rect
   id="rect1304"
   x="276.79999"
   y="247.89999"
   class="st3"
   width="3.8"
   height="2.2"
   style="fill:#ffffff" />
			<rect
   id="rect1306"
   x="291.79999"
   y="247.89999"
   class="st3"
   width="3.8"
   height="2.2"
   style="fill:#ffffff" />
			<rect
   id="rect1308"
   x="286.79999"
   y="247.89999"
   class="st3"
   width="3.8"
   height="2.2"
   style="fill:#ffffff" />
			<rect
   id="rect1310"
   x="281.79999"
   y="251.39999"
   class="st3"
   width="3.8"
   height="2.2"
   style="fill:#ffffff" />
			<rect
   id="rect1312"
   x="276.79999"
   y="251.39999"
   class="st3"
   width="3.8"
   height="2.2"
   style="fill:#ffffff" />
		</g>
		<rect
   id="rect1316"
   x="276.79999"
   y="241.5"
   class="st3"
   width="11.8"
   height="1.1"
   style="fill:#ffffff" />
	</g>
	<g
   id="g1336">
		<g
   id="g1322">
			<path
   id="path1320"
   class="st9"
   d="m 257.4,226.4 v -12.3 c 0,-3.9 -3.2,-6.9 -6.9,-6.9 v 0 c -3.9,0 -6.9,3.2 -6.9,6.9 v 0 12.3 c 0,0.4 -0.3,0.6 -0.6,0.6 v 0 c -0.4,0 -0.6,-0.3 -0.6,-0.6 v 0 -12.3 c 0,-4.6 3.7,-8.2 8.2,-8.2 v 0 c 4.6,0 8.2,3.7 8.2,8.2 v 0 12.3 c 0,0.4 -0.3,0.6 -0.6,0.6 v 0 c -0.4,0 -0.8,-0.2 -0.8,-0.6 z"
   inkscape:connector-curvature="0"
   style="fill:#dcdcdc" />
		</g>
		<rect
   id="rect1324"
   x="237.10001"
   y="221.8"
   class="st28"
   width="35.799999"
   height="36.799999"
   style="fill:#156081" />
		<polygon
   id="polygon1326"
   class="st29"
   points="244.3,221.8 240.8,224.2 237.2,221.8 237.2,258.6 244.3,258.6 "
   style="fill:#0d435d" />
		<g
   id="g1330">
			<path
   id="path1328"
   class="st8"
   d="m 265.8,225.7 v -12.3 c 0,-3.9 -3.2,-6.9 -6.9,-6.9 v 0 c -3.9,0 -6.9,3.2 -6.9,6.9 v 0 12.3 c 0,0.4 -0.3,0.6 -0.6,0.6 v 0 c -0.4,0 -0.6,-0.3 -0.6,-0.6 v 0 -12.3 c 0,-4.6 3.7,-8.2 8.2,-8.2 v 0 c 4.6,0 8.2,3.7 8.2,8.2 v 0 12.3 c 0,0.4 -0.3,0.6 -0.6,0.6 v 0 c -0.6,0 -0.8,-0.2 -0.8,-0.6 z"
   inkscape:connector-curvature="0"
   style="fill:#edeeee" />
		</g>
		<rect
   id="rect1332"
   x="244.3"
   y="233.10001"
   class="st3"
   width="28.6"
   height="3.5999999"
   style="fill:#ffffff" />
		<rect
   id="rect1334"
   x="244.3"
   y="240.2"
   class="st3"
   width="28.6"
   height="9.5"
   style="fill:#ffffff" />
	</g>
	<g
   id="g1358">
		<g
   id="g1340">
			<path
   id="path1338"
   class="st9"
   d="m 313.6,242.3 v -8.1 c 0,-3.2 -2.5,-5.7 -5.7,-5.7 v 0 c -3.2,0 -5.7,2.5 -5.7,5.7 v 0 8.1 c 0,0.4 -0.3,0.6 -0.6,0.6 v 0 c -0.4,0 -0.6,-0.3 -0.6,-0.6 v 0 -8.1 c 0,-3.8 3.1,-6.8 6.8,-6.8 v 0 c 3.8,0 6.8,3.1 6.8,6.8 v 0 8.1 c 0,0.4 -0.3,0.6 -0.6,0.6 v 0 c -0.2,0 -0.4,-0.3 -0.4,-0.6 z"
   inkscape:connector-curvature="0"
   style="fill:#dcdcdc" />
		</g>
		<rect
   id="rect1342"
   x="296.29999"
   y="238.89999"
   class="st16"
   width="31"
   height="19.6"
   style="fill:#bf2345" />
		<rect
   id="rect1344"
   x="296.29999"
   y="238.89999"
   class="st30"
   width="5.9000001"
   height="19.6"
   style="fill:#980c22" />
		<g
   id="g1348">
			<path
   id="path1346"
   class="st8"
   d="m 320.4,241.7 v -8.1 c 0,-3.2 -2.5,-5.7 -5.7,-5.7 v 0 c -3.2,0 -5.7,2.5 -5.7,5.7 v 0 8.1 c 0,0.4 -0.3,0.6 -0.6,0.6 v 0 c -0.4,0 -0.6,-0.3 -0.6,-0.6 v 0 -8.1 c 0,-3.8 3.1,-6.8 6.8,-6.8 v 0 c 3.8,0 6.8,3.1 6.8,6.8 v 0 8.1 c 0,0.4 -0.3,0.6 -0.6,0.6 v 0 c -0.1,0 -0.4,-0.3 -0.4,-0.6 z"
   inkscape:connector-curvature="0"
   style="fill:#edeeee" />
		</g>
		<g
   id="g1356">
			<rect
   id="rect1350"
   x="317.60001"
   y="246.89999"
   class="st3"
   width="4.0999999"
   height="5.6999998"
   style="fill:#ffffff" />
			<rect
   id="rect1352"
   x="312"
   y="246.89999"
   class="st3"
   width="4.0999999"
   height="5.6999998"
   style="fill:#ffffff" />
			<rect
   id="rect1354"
   x="306.60001"
   y="246.89999"
   class="st3"
   width="4.0999999"
   height="5.6999998"
   style="fill:#ffffff" />
		</g>
	</g>
</g>
</svg>