<?xml version="1.0" encoding="utf-8"?>
<!-- Generator: Adobe Illustrator 24.1.3, SVG Export Plug-In . SVG Version: 6.00 Build 0)  -->
<svg version="1.1" id="Layer_1" xmlns="http://www.w3.org/2000/svg" xmlns:xlink="http://www.w3.org/1999/xlink" x="0px" y="0px"
	 viewBox="0 0 214.7 106.1" style="enable-background:new 0 0 214.7 106.1;" xml:space="preserve">
<style type="text/css">
	.st0{fill:#55D1F2;}
	.st1{fill:#20284D;}
</style>
<g>
	<path class="st0" d="M213.3,105.9c-1.5-43.3-28.2-81.4-72.1-98C83.7-8.9,27.4,19.2,6.3,75.3c-3,10.3-4.6,20.6-4.8,30.7H213.3z"/>
	<g>
		<g>
			<g>
				<path class="st1" d="M46.1,76.3c7.2,7.1,19.4,14.7,22.1,21c0.3,0.7-2.4,1.3-2.4,1.3s0.9,3.5,2.1,7.3h39.6c1.6-1,3.3-2,3.6-2.7
					c0.5-1.4,5.5,0.3,5.5,0.3c1,1,1.7,1.7,2.4,2.4h2.9c-1.1-2.2-1.8-3.7-3.1-6.2c2.1-2.4,3.1-3.6,5.2-5.9c0,0-1.2-2.4-2.1-4.9
					c-0.9-2.5,3.1-10.2,3.1-10.2c3.4-2.6,5.1-3.9,8.5-6.4c-1.6-1.2-2.4-1.8-4.1-3.1c-1.4,0.2-2.2,0.3-3.6,0.6
					c-0.2-1.3-0.4-1.9-0.6-3.2c3.9-1.4,5.9-2.1,9.7-3.5c0.8,1.6,1.1,2.3,1.9,3.9c2.1-0.2,3.1-0.3,5.1-0.5c-2-2.2-3.1-3.3-5.1-5.5
					c-5-4-7.5-6-12.6-9.9c-0.2,1.5-0.2,2.2-0.4,3.7c-1.4,0.4-2.2,0.7-3.6,1.1c-0.9-2-1.3-3-2.2-5c0,0-6.5,0-8.7,0.9
					c-2.2,0.9,1.1,2.5,0.9,4.3c-0.2,1.7,3.9,4.7,3.9,4.7c-1.1,1.6-1.7,2.4-2.9,4c1.2,1.8,1.8,2.8,2.9,4.6c-1.2,1.3-1.8,1.9-3.1,3.2
					c-1.5-2.4-2.2-3.7-3.7-6.1c-4.2-0.7-6.3-1.1-10.5-1.8c-1.2-2.3-1.8-3.5-3.1-5.8c3.5-5.7,7-11.4,10.7-17.1
					c-1.1-0.8-1.7-1.2-2.8-2.1c-1,1.6-1.4,2.4-2.4,4.1c-3.1-3.5-4.6-5.2-7.7-8.5c0,0,0.4,7.1,0.7,8.2c0.3,1.2-12.2,3.9-12.2,3.9
					c-3.1-0.5-4.6-0.7-7.6-1.1c-3.7-0.5-5.5-0.7-9-1.1c-3.3,2.5-4.9,3.8-8.1,6.5c-1.4-1-2.1-1.4-3.5-2.4c-5.3,0.2-7.8,0.3-12.4,0.8
					c-1.8,3.1-2.7,4.7-4.5,7.8c-0.8,1.1-1.2,1.6-2,2.7c0.5,2.6,0.8,3.9,1.3,6.5c-1.7,0.9-2.5,1.3-4.1,2.2c0,1.9,0,2.8,0,4.7
					c1.5-1.5,2.3-2.3,3.8-3.8c0.1,0.8,0.2,1.2,0.3,2.1c-2.5,4.3-3.8,6.5-6.3,10.9c1.7,1.1,2.6,1.7,4.5,2.9c-2,5.3-2.9,8-4.9,13.2
					C33.6,91.8,39.8,84,46.1,76.3z"/>
			</g>
			<path class="st1" d="M109.6,45.2c0,0,11.1,3.5,10.9,3.1c-0.2-0.4,1.3-7.2,1.3-7.2c1.3-0.3,1.9-0.5,3.2-0.8
				c-3.5-1.8-5.3-2.7-8.8-4.4c-0.2-1.1-0.3-1.7-0.5-2.7c0,0-7.4-2.4-7.6-3.1c-0.2-0.8-3.9,1.8-4.9-1.1c-1-3-4.6-0.5-4.6-0.5
				c-0.9,3-1.4,4.6-2.4,7.9c2.2-0.2,3.4-0.3,5.6-0.4c0,0,5-3,8.2,0.7C113.2,40.1,114.2,42.3,109.6,45.2z"/>
			<path class="st1" d="M76,45.7c-2.1-1.8-3.2-2.6-5.3-4.4c0,0,0.9-2.6,0.7-2.9c-0.2-0.4-2-0.1-2-0.1c-0.9,1-1.3,1.5-2.2,2.4
				c0.1-3.1,0.2-4.7,0.3-7.7c0,0,3.5-1,5.4-0.6c1.9,0.3-1.4,3,0.5,3.4c1.9,0.3,3.4-1.9,4.6-1.2c1.1,0.7,3.3,1.2,3.3,0.1
				c-0.1-1.1-0.6-3,0.5-2.6c1.1,0.4,4.2,7.4,4.2,7.4C82.1,41.9,80,43.1,76,45.7z"/>
			<path class="st1" d="M101.9,50.5c0.4-1.4,0.7-2.1,1.1-3.4c1.5,0.7,2.2,1,3.7,1.7c-0.8,0.6-1.2,1-1.9,1.6
				C103.7,50.5,103.1,50.5,101.9,50.5z"/>
			<path class="st1" d="M88,35.8c-0.8-1-1.2-1.5-2-2.6c0.6-0.3,0.9-0.5,1.5-0.8c-0.3-1.1-0.4-1.6-0.7-2.6c1,0,1.6-0.1,2.6-0.1
				c0.2,1.3,0.2,2,0.4,3.3c0.8-0.2,1.2-0.3,2-0.5C90.3,33.8,89.5,34.4,88,35.8z"/>
			<path class="st1" d="M92.1,31.7c-0.2-1.1-0.3-1.6-0.6-2.6c1.4-0.3,2.1-0.4,3.5-0.7C93.8,29.7,93.2,30.3,92.1,31.7z"/>
			<path class="st1" d="M77.3,30.8c-1.6-1-2.4-1.5-4-2.5c1.4-1.5,2.1-2.3,3.4-3.8c1.7-0.3,2.5-0.5,4.2-0.8c1.1,0.9,1.6,1.4,2.8,2.3
				C81.1,27.8,79.8,28.8,77.3,30.8z"/>
			<path class="st1" d="M90.7,21.6c1.3-0.1,2-0.1,3.4-0.1c1.8,1.1,2.7,1.7,4.6,2.8c1.6-0.4,2.4-0.6,4-0.9c0.1,0.7,0.2,1,0.3,1.7
				c-2.1,0.3-3.1,0.5-5.2,0.8c-2-0.9-3-1.3-5-2.2C92,22.9,91.5,22.5,90.7,21.6z"/>
			<path class="st1" d="M97,21.7c2.5,0.1,3.8,0.1,6.3,0.2c1.4-2.9,2.1-4.2,3.4-6.7c-0.9-0.4-1.3-0.6-2.1-1c1.7-0.3,2.6-0.5,4.3-0.8
				c1.8-2.1,2.7-3,4.3-4.6c-5.5-2.9-12.6-4.3-18-0.5c-0.9,0.6,6.2,3.8,6.2,3.8C99.7,15.6,98.9,17.5,97,21.7z"/>
			<path class="st1" d="M94,17.9c1.8-1.3,2.7-1.9,4.5-3.1c0,0-4.2-5.6-5.1-5.2c-0.9,0.4-2,3.7-2,3.7C92.4,15.2,93,16.1,94,17.9z"/>
			<path class="st1" d="M113.1,21.4c-1.8-2.1-2.7-3.1-4.6-5.1c1.8-0.4,2.7-0.7,4.4-1c1.5-2.7,2.2-3.9,3.5-5.9c2.4,0,3.7,0.1,6.1,0.2
				c0,0,2.1-2.4,4.6-2.1c2.5,0.3,12.4,3.6,13.2,4.1c0.8,0.5,4.8,0.8,4.8,0.8c-0.5,0.6-0.7,0.9-1.2,1.8c2,1.7,3,2.6,4.9,4.5
				c0,0,1.4,3.9,3.3,4.9c1.9,1-5.2-1.4-5.2-1.4c0.7,0.7,1,1,1.7,1.8c2,0.8,3,1.2,5.1,1.9c-0.5,0.3-0.7,0.4-1.2,0.7
				c-1.7-0.5-2.6-0.7-4.3-1.2c0.5,0.9,0.7,1.4,1.2,2.4c1.8-0.1,2.7-0.2,4.5-0.2c-3.6,2.6-5.4,4.2-9.3,7.8c0,3.8,0,5.9-0.1,10.3
				c0,0-13-3.4-12.5-7.6c0.1-0.7,0.3-3.7,0.3-3.7c-4.6-5.1-7-7.5-11.7-12.2C117.6,21.7,116.1,21.6,113.1,21.4z"/>
			<path class="st1" d="M192.9,58.4c0.6,0.4,0.9,0.6,1.5,0.9c1.2-1.2,1.8-1.8,3-2.9c0,0,0.1-1.8,0-2.9c-2.3-3.7-3.5-5.5-6.1-8.9
				c-0.6,0.8-0.8,1.2-1.4,2c-0.9,0.5-1.4,0.8-2.3,1.3c1.3,0.2,1.9,0.3,3.2,0.5c0.9,1.2,1.4,1.9,2.3,3.1c-2.2,0.9-3.4,1.3-5.7,2.2
				c0,0,1.2,5,1.4,5.3c0.8,0.3,1.2,0.5,2,0.9C191.7,59.3,192.1,59,192.9,58.4z"/>
			<path class="st1" d="M199.4,56.9c-0.7,0.3-1.2,0.5-1.5,0.6c-1.3,0.5-3.5,3.6-3.5,3.6s-0.2,5.3-1.1,6c-0.8,0.8-2.1,7.2-2.7,8.7
				c-0.6,1.5,2.1,8.6,2.1,8.6c4.9,1.5,7.1,2.2,11.2,3.5c2.4-2.1,3.5-3.2,5.8-5.3C207.1,73.5,203.8,65.3,199.4,56.9z"/>
			<path class="st1" d="M190,43c-0.6-0.4-1.6-1.1-1.8-1.2c-0.4-0.2-4.2-1.4-4.2-1.4c-0.4-0.3-0.7-0.5-1.1-0.8
				c-0.2-0.5-0.3-0.8-0.5-1.3c-0.7,0-1.1,0-1.8,0.1c-0.6,0.7-0.9,1.1-1.5,1.8c0.9,0.4,1.4,0.6,2.3,0.9c0.9,0.2,1.4,0.4,2.3,0.6
				c0.5,0.8,0.8,1.2,1.4,2c0,0,1,2.5,1.1,2.7c0.5,1,3.6-2.3,4.3-2.9C190.2,43.2,190.1,43.1,190,43z"/>
			<path class="st1" d="M180.6,45.4c0,0-1.9-2.1-1.3-2.3c0.6-0.2,1-1,1-1c0.4-0.1,0.7-0.1,1.1-0.2c1,0.9,1.5,1.4,2.5,2.3
				C183.8,44.2,181.7,46,180.6,45.4z"/>
		</g>
		<g>
			<path class="st1" d="M2.1,105.9H10c1-0.7,1.7-1.2,1.7-1.2s-0.3-2-0.8-4.7c-0.5-2.8,4.5-6.3,4.5-6.3c0.2,4.9,0.3,7.5,0.7,12.3h5.3
				c-0.2-1.8-0.5-3.8-0.9-5.4c-1.1-4.3-2.1-7-1-9.2c0.7-1.3,1.2-1.1,1.5-0.9c0,0,0,0,0,0c-0.5-0.8-0.5-1.7-0.2-4
				c0.3-2.3,2.9-6.4,1.7-6.4c-1.1,0-4.8,0.7-4.8,0.7s1.3-1.9,1.5-3.7c0.2-1.7-0.9-1-0.8-2.1c0.1-1.1,3-4.4,3-4.4
				c-0.5-1.6-0.7-2.4-1.2-4c-4.8,5.5-7,8.3-11,14.2c0.1,0.6,0.2,0.9,0.4,1.4c-2.9,4.1-4.3,6.1-6.7,10.3C2.5,97,2.2,101.5,2.1,105.9z
				"/>
		</g>
	</g>
</g>
</svg>
