<?xml version="1.0" encoding="utf-8"?>
<!-- Generator: Adobe Illustrator 24.1.3, SVG Export Plug-In . SVG Version: 6.00 Build 0)  -->
<svg version="1.1"
	 id="Layer_1" inkscape:version="0.92.3 (2405546, 2018-03-11)" sodipodi:docname="Partner_Step1Cropped.svg" xmlns:cc="http://creativecommons.org/ns#" xmlns:dc="http://purl.org/dc/elements/1.1/" xmlns:inkscape="http://www.inkscape.org/namespaces/inkscape" xmlns:rdf="http://www.w3.org/1999/02/22-rdf-syntax-ns#" xmlns:sodipodi="http://sodipodi.sourceforge.net/DTD/sodipodi-0.dtd" xmlns:svg="http://www.w3.org/2000/svg"
	 xmlns="http://www.w3.org/2000/svg" xmlns:xlink="http://www.w3.org/1999/xlink" x="0px" y="0px" viewBox="0 0 275.7 162.8"
	 style="enable-background:new 0 0 275.7 162.8;" xml:space="preserve">
<style type="text/css">
	.st0{fill:#929090;}
	.st1{fill:#EDEEEE;}
	.st2{fill:#F6F6F6;}
	.st3{fill:url(#path22_1_);}
	.st4{fill:url(#path29_1_);}
	.st5{fill:#D6D6D6;}
	.st6{fill:url(#rect40_1_);}
	.st7{fill:url(#circle47_1_);}
	.st8{fill:url(#circle54_1_);}
	.st9{fill:url(#circle61_1_);}
	.st10{fill:url(#circle68_1_);}
	.st11{fill:url(#circle75_1_);}
	.st12{fill:url(#circle82_1_);}
	.st13{fill:url(#circle89_1_);}
	.st14{fill:url(#circle96_1_);}
	.st15{fill:url(#circle103_1_);}
	.st16{fill:url(#circle110_1_);}
	.st17{fill:#FFFFFF;stroke:#929090;stroke-miterlimit:10;}
	.st18{fill:url(#circle119_1_);}
	.st19{fill:#3F3B39;}
	.st20{fill:#888888;}
	.st21{fill:url(#path146_1_);}
	.st22{fill:url(#path153_1_);}
	.st23{fill:url(#rect164_1_);}
	.st24{fill:url(#circle171_1_);}
	.st25{fill:url(#circle178_1_);}
	.st26{fill:url(#circle185_1_);}
	.st27{fill:url(#circle192_1_);}
	.st28{fill:url(#circle199_1_);}
	.st29{fill:url(#circle206_1_);}
	.st30{fill:url(#circle213_1_);}
	.st31{fill:url(#circle220_1_);}
	.st32{fill:url(#circle227_1_);}
	.st33{fill:url(#circle234_1_);}
</style>
<sodipodi:namedview  bordercolor="#666666" borderopacity="1" gridtolerance="10" guidetolerance="10" id="namedview1689" inkscape:current-layer="Layer_1" inkscape:cx="162.93318" inkscape:cy="47.771148" inkscape:pageopacity="0" inkscape:pageshadow="2" inkscape:window-height="1341" inkscape:window-maximized="1" inkscape:window-width="2560" inkscape:window-x="-8" inkscape:window-y="-8" inkscape:zoom="1.3254865" objecttolerance="10" pagecolor="#ffffff" showgrid="false">
	</sodipodi:namedview>
<path id="path7" inkscape:connector-curvature="0" class="st0" d="M224.1,127.2H54c-1.2,0-2.2-1-2.2-2.2V2.2C51.8,1,52.8,0,54,0l0,0
	h170.1c1.2,0,2.2,1,2.2,2.2l0,0v122.6C226.4,126.2,225.4,127.2,224.1,127.2L224.1,127.2z"/>
<path id="path9" inkscape:connector-curvature="0" class="st0" d="M37.7,131.4c0.2,1.9,1.7,3.4,3.7,3.2h195.7c1.9,0,3.4-1.2,3.7-3.2
	l0,0v-0.7H37.7V131.4z"/>
<rect id="rect11" x="37.7" y="122.8" class="st1" width="203" height="7.8"/>
<rect id="rect13" x="60.6" y="8.8" class="st2" width="157.2" height="104.8"/>
<path id="path15" inkscape:connector-curvature="0" class="st0" d="M155.6,128.7h-33.1l-0.2-0.2V127c0,0,0-0.2,0.2-0.2h33.1
	c0.2,0,0.2,0,0.2,0.2L155.6,128.7C155.9,128.7,155.9,128.7,155.6,128.7z"/>
<linearGradient id="path22_1_" gradientUnits="userSpaceOnUse" x1="259.8037" y1="-769.1" x2="268.2592" y2="-769.1" gradientTransform="matrix(1 0 0 -1 -124.4 -738.9)">
	<stop  offset="0" style="stop-color:#20284D"/>
	<stop  offset="1" style="stop-color:#20284D"/>
</linearGradient>
<path id="path22" inkscape:connector-curvature="0" class="st3" d="M139.5,26.1c-2.4,0-4.1,1.9-4.1,4.1c0,2.2,1.9,4.1,4.1,4.1
	c2.4,0,4.1-1.9,4.1-4.1l0,0C143.9,28,142,26.1,139.5,26.1z"/>
<linearGradient id="path29_1_" gradientUnits="userSpaceOnUse" x1="257.777" y1="-779.05" x2="270.2775" y2="-779.05" gradientTransform="matrix(1 0 0 -1 -124.4 -738.9)">
	<stop  offset="0" style="stop-color:#20284D"/>
	<stop  offset="1" style="stop-color:#20284D"/>
</linearGradient>
<path id="path29" inkscape:connector-curvature="0" class="st4" d="M142.2,35.8h-5.1c-0.7,0-1.5,0.5-1.7,1l-1.7,3.4
	c-0.7,1.5-0.2,3.4,1.2,4.1c0.5,0.2,1,0.2,1.5,0.2h6.3c1.7,0,3.2-1.5,3.2-3.2c0-0.5,0-1-0.2-1.5l-1.7-3.4
	C143.4,36.3,142.7,35.8,142.2,35.8L142.2,35.8z"/>
<rect id="rect31" x="120.5" y="53.9" class="st5" width="40" height="7.6"/>
<rect id="rect33" x="120.5" y="67.8" class="st5" width="40" height="7.6"/>
<linearGradient id="rect40_1_" gradientUnits="userSpaceOnUse" x1="244.95" y1="-827.3" x2="284.95" y2="-827.3" gradientTransform="matrix(1 0 0 -1 -124.4 -738.9)">
	<stop  offset="0" style="stop-color:#20284D"/>
	<stop  offset="1" style="stop-color:#20284D"/>
</linearGradient>
<rect id="rect40" x="120.5" y="84.6" class="st6" width="40" height="7.6"/>
<linearGradient id="circle47_1_" gradientUnits="userSpaceOnUse" x1="274.7624" y1="-796.4" x2="277.0529" y2="-796.4" gradientTransform="matrix(1 0 0 -1 -124.4 -738.9)">
	<stop  offset="0" style="stop-color:#20284D"/>
	<stop  offset="1" style="stop-color:#20284D"/>
</linearGradient>
<circle id="circle47" class="st7" cx="151.6" cy="57.5" r="1.2"/>
<linearGradient id="circle54_1_" gradientUnits="userSpaceOnUse" x1="251.2751" y1="-796.4" x2="253.5413" y2="-796.4" gradientTransform="matrix(1 0 0 -1 -124.4 -738.9)">
	<stop  offset="0" style="stop-color:#20284D"/>
	<stop  offset="1" style="stop-color:#20284D"/>
</linearGradient>
<circle id="circle54" class="st8" cx="127.8" cy="57.5" r="1.2"/>
<linearGradient id="circle61_1_" gradientUnits="userSpaceOnUse" x1="256.6134" y1="-796.4" x2="258.904" y2="-796.4" gradientTransform="matrix(1 0 0 -1 -124.4 -738.9)">
	<stop  offset="0" style="stop-color:#20284D"/>
	<stop  offset="1" style="stop-color:#20284D"/>
</linearGradient>
<circle id="circle61" class="st9" cx="133.3" cy="57.5" r="1.2"/>
<linearGradient id="circle68_1_" gradientUnits="userSpaceOnUse" x1="259.95" y1="-796.4" x2="262.2405" y2="-796.4" gradientTransform="matrix(1 0 0 -1 -124.4 -738.9)">
	<stop  offset="0" style="stop-color:#20284D"/>
	<stop  offset="1" style="stop-color:#20284D"/>
</linearGradient>
<circle id="circle68" class="st10" cx="136.7" cy="57.5" r="1.2"/>
<linearGradient id="circle75_1_" gradientUnits="userSpaceOnUse" x1="261.3145" y1="-796.4" x2="263.5806" y2="-796.4" gradientTransform="matrix(1 0 0 -1 -124.4 -738.9)">
	<stop  offset="0" style="stop-color:#20284D"/>
	<stop  offset="1" style="stop-color:#20284D"/>
</linearGradient>
<circle id="circle75" class="st11" cx="138.1" cy="57.5" r="1.2"/>
<linearGradient id="circle82_1_" gradientUnits="userSpaceOnUse" x1="264.6528" y1="-796.4" x2="266.9434" y2="-796.4" gradientTransform="matrix(1 0 0 -1 -124.4 -738.9)">
	<stop  offset="0" style="stop-color:#20284D"/>
	<stop  offset="1" style="stop-color:#20284D"/>
</linearGradient>
<circle id="circle82" class="st12" cx="141.3" cy="57.5" r="1.2"/>
<linearGradient id="circle89_1_" gradientUnits="userSpaceOnUse" x1="274.7624" y1="-810.3" x2="277.0529" y2="-810.3" gradientTransform="matrix(1 0 0 -1 -124.4 -738.9)">
	<stop  offset="0" style="stop-color:#20284D"/>
	<stop  offset="1" style="stop-color:#20284D"/>
</linearGradient>
<circle id="circle89" class="st13" cx="151.6" cy="71.4" r="1.2"/>
<linearGradient id="circle96_1_" gradientUnits="userSpaceOnUse" x1="251.2751" y1="-810.3" x2="253.5413" y2="-810.3" gradientTransform="matrix(1 0 0 -1 -124.4 -738.9)">
	<stop  offset="0" style="stop-color:#20284D"/>
	<stop  offset="1" style="stop-color:#20284D"/>
</linearGradient>
<circle id="circle96" class="st14" cx="127.8" cy="71.4" r="1.2"/>
<linearGradient id="circle103_1_" gradientUnits="userSpaceOnUse" x1="256.6134" y1="-810.3" x2="258.904" y2="-810.3" gradientTransform="matrix(1 0 0 -1 -124.4 -738.9)">
	<stop  offset="0" style="stop-color:#20284D"/>
	<stop  offset="1" style="stop-color:#20284D"/>
</linearGradient>
<circle id="circle103" class="st15" cx="133.3" cy="71.4" r="1.2"/>
<linearGradient id="circle110_1_" gradientUnits="userSpaceOnUse" x1="259.95" y1="-810.3" x2="262.2405" y2="-810.3" gradientTransform="matrix(1 0 0 -1 -124.4 -738.9)">
	<stop  offset="0" style="stop-color:#20284D"/>
	<stop  offset="1" style="stop-color:#20284D"/>
</linearGradient>
<circle id="circle110" class="st16" cx="136.7" cy="71.4" r="1.2"/>
<rect id="rect112" x="0.5" y="31.4" class="st17" width="116.5" height="69"/>
<linearGradient id="circle119_1_" gradientUnits="userSpaceOnUse" x1="137.9637" y1="-783" x2="149.2702" y2="-783" gradientTransform="matrix(1 0 0 -1 -124.4 -738.9)">
	<stop  offset="0" style="stop-color:#20284D"/>
	<stop  offset="1" style="stop-color:#20284D"/>
</linearGradient>
<circle id="circle119" class="st18" cx="19.3" cy="44.1" r="5.6"/>
<rect id="rect121" x="30.2" y="41.2" class="st5" width="40" height="3.7"/>
<rect id="rect123" x="38.8" y="59" class="st5" width="40" height="3.7"/>
<rect id="rect125" x="66.1" y="73.1" class="st5" width="40" height="3.7"/>
<rect id="rect127" x="66.1" y="81.2" class="st5" width="40" height="3.7"/>
<rect id="rect129" x="66.1" y="89.2" class="st5" width="40" height="3.7"/>
<path id="path131" inkscape:connector-curvature="0" class="st19" d="M274.4,162.8h-59.2c-0.5,0-1.2-0.5-1.2-1c0,0,0,0,0-0.2V48.7
	c0-0.5,0.5-1.2,1-1.2l0,0h59.5c0.5,0,1.2,0.5,1.2,1c0,0,0,0,0,0.2v112.8C275.6,162.3,275.1,162.8,274.4,162.8z"/>
<rect id="rect133" x="217.4" y="61.4" class="st2" width="54.8" height="85.8"/>
<path id="path135" inkscape:connector-curvature="0" class="st20" d="M250.5,56.1H239c-0.5,0-0.7-0.2-0.7-0.7l0,0
	c0-0.5,0.2-0.7,0.7-0.7l0,0h11.5c0.5,0,0.7,0.2,0.7,0.7l0,0C251.2,55.6,251,56.1,250.5,56.1z"/>
<path id="path137" inkscape:connector-curvature="0" class="st20" d="M236.4,55.3c0-0.5-0.5-1-1-1s-1,0.5-1,1s0.5,1,1,1
	S236.4,55.8,236.4,55.3z"/>
<circle id="circle139" class="st20" cx="244.9" cy="155.5" r="3.9"/>
<linearGradient id="path146_1_" gradientUnits="userSpaceOnUse" x1="365.1899" y1="-813.2" x2="373.6454" y2="-813.2" gradientTransform="matrix(1 0 0 -1 -124.4 -738.9)">
	<stop  offset="0" style="stop-color:#20284D"/>
	<stop  offset="1" style="stop-color:#20284D"/>
</linearGradient>
<path id="path146" inkscape:connector-curvature="0" class="st21" d="M245.2,70.2c-2.4,0-4.1,1.9-4.1,4.1s1.9,4.1,4.1,4.1
	s4.1-1.9,4.1-4.1l0,0C249.3,71.9,247.6,70.2,245.2,70.2z"/>
<linearGradient id="path153_1_" gradientUnits="userSpaceOnUse" x1="363.1674" y1="-822.95" x2="375.6815" y2="-822.95" gradientTransform="matrix(1 0 0 -1 -124.4 -738.9)">
	<stop  offset="0" style="stop-color:#20284D"/>
	<stop  offset="1" style="stop-color:#20284D"/>
</linearGradient>
<path id="path153" inkscape:connector-curvature="0" class="st22" d="M247.6,79.7h-5.1c-0.7,0-1.5,0.5-1.7,1l-1.7,3.4
	c-0.7,1.5-0.2,3.4,1.2,4.1c0.5,0.2,1,0.2,1.5,0.2h6.3c1.7,0,3.2-1.5,3.2-3.2c0-0.5,0-1-0.2-1.5l-1.7-3.4
	C249.1,80.2,248.3,79.7,247.6,79.7L247.6,79.7z"/>
<rect id="rect155" x="225.9" y="97.7" class="st5" width="40" height="7.6"/>
<rect id="rect157" x="225.9" y="111.6" class="st5" width="40" height="7.6"/>
<linearGradient id="rect164_1_" gradientUnits="userSpaceOnUse" x1="350.3" y1="-871.1" x2="390.3" y2="-871.1" gradientTransform="matrix(1 0 0 -1 -124.4 -738.9)">
	<stop  offset="0" style="stop-color:#20284D"/>
	<stop  offset="1" style="stop-color:#20284D"/>
</linearGradient>
<rect id="rect164" x="225.9" y="128.4" class="st23" width="40" height="7.6"/>
<linearGradient id="circle171_1_" gradientUnits="userSpaceOnUse" x1="353.2986" y1="-840.3" x2="355.5891" y2="-840.3" gradientTransform="matrix(1 0 0 -1 -124.4 -738.9)">
	<stop  offset="0" style="stop-color:#20284D"/>
	<stop  offset="1" style="stop-color:#20284D"/>
</linearGradient>
<circle id="circle171" class="st24" cx="230" cy="101.4" r="1.2"/>
<linearGradient id="circle178_1_" gradientUnits="userSpaceOnUse" x1="356.6613" y1="-840.3" x2="358.9518" y2="-840.3" gradientTransform="matrix(1 0 0 -1 -124.4 -738.9)">
	<stop  offset="0" style="stop-color:#20284D"/>
	<stop  offset="1" style="stop-color:#20284D"/>
</linearGradient>
<circle id="circle178" class="st25" cx="233.5" cy="101.4" r="1.2"/>
<linearGradient id="circle185_1_" gradientUnits="userSpaceOnUse" x1="359.9996" y1="-840.3" x2="362.2902" y2="-840.3" gradientTransform="matrix(1 0 0 -1 -124.4 -738.9)">
	<stop  offset="0" style="stop-color:#20284D"/>
	<stop  offset="1" style="stop-color:#20284D"/>
</linearGradient>
<circle id="circle185" class="st26" cx="236.9" cy="101.4" r="1.2"/>
<linearGradient id="circle192_1_" gradientUnits="userSpaceOnUse" x1="363.338" y1="-840.3" x2="365.6285" y2="-840.3" gradientTransform="matrix(1 0 0 -1 -124.4 -738.9)">
	<stop  offset="0" style="stop-color:#20284D"/>
	<stop  offset="1" style="stop-color:#20284D"/>
</linearGradient>
<circle id="circle192" class="st27" cx="240" cy="101.4" r="1.2"/>
<linearGradient id="circle199_1_" gradientUnits="userSpaceOnUse" x1="366.7007" y1="-840.3" x2="368.9912" y2="-840.3" gradientTransform="matrix(1 0 0 -1 -124.4 -738.9)">
	<stop  offset="0" style="stop-color:#20284D"/>
	<stop  offset="1" style="stop-color:#20284D"/>
</linearGradient>
<circle id="circle199" class="st28" cx="243.4" cy="101.4" r="1.2"/>
<linearGradient id="circle206_1_" gradientUnits="userSpaceOnUse" x1="370.039" y1="-840.3" x2="372.3296" y2="-840.3" gradientTransform="matrix(1 0 0 -1 -124.4 -738.9)">
	<stop  offset="0" style="stop-color:#20284D"/>
	<stop  offset="1" style="stop-color:#20284D"/>
</linearGradient>
<circle id="circle206" class="st29" cx="246.9" cy="101.4" r="1.2"/>
<linearGradient id="circle213_1_" gradientUnits="userSpaceOnUse" x1="353.2986" y1="-854.2" x2="355.5891" y2="-854.2" gradientTransform="matrix(1 0 0 -1 -124.4 -738.9)">
	<stop  offset="0" style="stop-color:#20284D"/>
	<stop  offset="1" style="stop-color:#20284D"/>
</linearGradient>
<circle id="circle213" class="st30" cx="230" cy="115.3" r="1.2"/>
<linearGradient id="circle220_1_" gradientUnits="userSpaceOnUse" x1="356.6613" y1="-854.2" x2="358.9518" y2="-854.2" gradientTransform="matrix(1 0 0 -1 -124.4 -738.9)">
	<stop  offset="0" style="stop-color:#20284D"/>
	<stop  offset="1" style="stop-color:#20284D"/>
</linearGradient>
<circle id="circle220" class="st31" cx="233.5" cy="115.3" r="1.2"/>
<linearGradient id="circle227_1_" gradientUnits="userSpaceOnUse" x1="359.9996" y1="-854.2" x2="362.2902" y2="-854.2" gradientTransform="matrix(1 0 0 -1 -124.4 -738.9)">
	<stop  offset="0" style="stop-color:#20284D"/>
	<stop  offset="1" style="stop-color:#20284D"/>
</linearGradient>
<circle id="circle227" class="st32" cx="236.9" cy="115.3" r="1.2"/>
<linearGradient id="circle234_1_" gradientUnits="userSpaceOnUse" x1="363.338" y1="-854.2" x2="365.6285" y2="-854.2" gradientTransform="matrix(1 0 0 -1 -124.4 -738.9)">
	<stop  offset="0" style="stop-color:#20284D"/>
	<stop  offset="1" style="stop-color:#20284D"/>
</linearGradient>
<circle id="circle234" class="st33" cx="240" cy="115.3" r="1.2"/>
</svg>
