<?xml version="1.0" encoding="utf-8"?>
<!-- Generator: Adobe Illustrator 25.2.1, SVG Export Plug-In . SVG Version: 6.00 Build 0)  -->
<svg version="1.1" id="Layer_1" xmlns="http://www.w3.org/2000/svg" xmlns:xlink="http://www.w3.org/1999/xlink" x="0px" y="0px"
	 viewBox="0 0 120 84.8" style="enable-background:new 0 0 120 84.8;" xml:space="preserve">
<style type="text/css">
	.st0{fill:#C88F5C;}
	.st1{fill:#373A47;}
	.st2{fill:#FFFFFF;}
	.st3{fill:#A5714E;}
	.st4{fill:#FFD8B5;}
	.st5{opacity:0.49;fill:#FFFFFF;}
	.st6{opacity:0.58;fill:#FFFFFF;}
	.st7{fill:url(#SVGID_1_);}
	.st8{fill:#333745;}
	.st9{fill:#242530;}
	.st10{fill:url(#SVGID_2_);}
</style>
<g>
	<g>
		<g>
			<g>
				<g>
					<g>
						<rect x="33" y="26.4" class="st0" width="52.9" height="39.6"/>
						<rect x="31.7" y="19.3" class="st0" width="55.3" height="9.2"/>
						<rect x="35.2" y="30.5" class="st1" width="13.7" height="3.6"/>
						<rect x="35.2" y="35.6" class="st1" width="13.7" height="1.4"/>
						<rect x="68.7" y="56" class="st2" width="15.8" height="8.4"/>
						<g>
							<rect x="69.9" y="56.7" class="st1" width="1.6" height="7"/>
							
								<rect x="72.6" y="56.7" transform="matrix(1 -1.961185e-03 1.961185e-03 1 -0.1179 0.1438)" class="st1" width="1.4" height="7"/>
							
								<rect x="72.6" y="59.1" transform="matrix(1.277482e-03 -1 1 1.277482e-03 15.8823 136.2519)" class="st1" width="7" height="2.2"/>
							
								<rect x="75.1" y="59.7" transform="matrix(3.264588e-03 -1 1 3.264588e-03 18.1705 138.5763)" class="st1" width="7" height="0.9"/>
							
								<rect x="79.8" y="56.7" transform="matrix(1 -1.545342e-03 1.545342e-03 1 -9.289391e-02 0.1249)" class="st1" width="1.8" height="7"/>
							<rect x="82.8" y="56.7" class="st1" width="0.7" height="7"/>
						</g>
						<g>
							<polygon class="st1" points="40.3,56.9 39.2,55 38.1,53.1 37,55 36,56.9 37.1,56.9 37.1,62.2 39.1,62.2 39.1,56.9 							"/>
							<rect x="35.8" y="62.6" class="st1" width="4.6" height="0.9"/>
						</g>
					</g>
				</g>
			</g>
		</g>
		<rect x="32.9" y="28.5" class="st3" width="52.9" height="1.4"/>
	</g>
	<g>
		<g>
			<g>
				<g>
					<g>
						<g>
							<path class="st4" d="M42.2,58.8c-0.3,1.1-1.4,1.7-2.5,1.4l-6.8-1.3l4,3.9l5.2,1.9l6.1,1.1c0,0,1.1,0.7,0.8,1.4
								c-0.2,0.5-1.7,0.7-2.9,0.7c-1.2,0.1-2.2,0.3-2.2,0.3s-3.3-0.1-4.6-0.3c-1.3-0.1-9.8-2.8-9.8-2.8L5,45.5l7.6-7.6l9.9,9.9
								l1.7,1.8l7.4,3.8l9.1,2.9C41.8,56.6,42.5,57.7,42.2,58.8z"/>
							<path class="st5" d="M38.6,59.3L38.6,59.3L38.6,59.3C38.6,59.3,38.7,59.4,38.6,59.3c0.1,0,0.1,0,0.1,0l1,0.3
								c0.8,0.3,1.6-0.2,1.9-1c0.2-0.8-0.2-1.6-1-1.9l-1-0.3c0,0,0,0-0.1,0c0,0-0.1,0-0.1,0l0,0l0,0c-0.3,0-0.5,0.1-0.6,0.4
								l-0.6,1.9C38.3,58.9,38.4,59.2,38.6,59.3z"/>
							<path class="st6" d="M39.5,56.5C39.4,56.5,39.4,56.5,39.5,56.5c-0.3-0.1-0.5,0.1-0.6,0.3l-0.6,1.9c-0.1,0.3,0,0.5,0.3,0.6
								l0,0l0,0c0,0,0,0,0,0c0.3-0.1,0.6-0.2,0.8-0.4C40.1,58.2,40.1,57.2,39.5,56.5z"/>
						</g>
					</g>
					<g>
						
							<linearGradient id="SVGID_1_" gradientUnits="userSpaceOnUse" x1="-591.3599" y1="1215.7223" x2="-577.8074" y2="1215.7223" gradientTransform="matrix(-0.709 0.7052 -0.7052 -0.709 460.0533 1323.9835)">
							<stop  offset="0" style="stop-color:#FFFFFF"/>
							<stop  offset="1" style="stop-color:#F5F6F7"/>
						</linearGradient>
						<polygon class="st7" points="20.4,43.4 10.8,53 14,56.2 23.6,46.6 						"/>
						
							<rect x="3.6" y="34.7" transform="matrix(0.709 -0.7052 0.7052 0.709 -27.0422 20.5104)" class="st8" width="15.4" height="16.6"/>
						<path class="st9" d="M21.7,46.3c-0.2-0.2-0.6-0.2-0.8,0c-0.2,0.2-0.2,0.6,0,0.8c0.2,0.2,0.6,0.2,0.8,0
							C22,46.9,22,46.5,21.7,46.3z"/>
					</g>
				</g>
			</g>
			<g>
				<path class="st6" d="M48.2,66.5c0,0-2.6,0-2.1,1.5c0,0,0.9-0.1,1.3-0.1c1-0.1,1.3-0.3,1.3-0.3S48.6,67.1,48.2,66.5z"/>
				<path class="st6" d="M46.7,67.4c-0.1-0.2-0.3-0.3-0.4-0.4c-0.3,0.2-0.4,0.6-0.3,1l0.9-0.1C46.8,67.7,46.8,67.6,46.7,67.4z"/>
			</g>
		</g>
		<g>
			<g>
				<g>
					<g>
						<g>
							<path class="st4" d="M77.8,58.8c0.3,1.1,1.4,1.7,2.5,1.5l6.8-1.3l-4,3.9l-5.2,1.9l-6.1,1.1c0,0-1.1,0.7-0.8,1.4
								c0.2,0.5,1.7,0.7,2.9,0.7c1.2,0.1,2.2,0.3,2.2,0.3s3.3-0.1,4.6-0.3c1.3-0.1,9.8-2.8,9.8-2.8L115,45.5l-7.6-7.6l-9.9,9.9
								l-1.7,1.8l-7.4,3.8l-9.1,2.9C78.2,56.6,77.5,57.7,77.8,58.8z"/>
							<path class="st5" d="M81.4,59.3L81.4,59.3L81.4,59.3C81.4,59.3,81.3,59.3,81.4,59.3c-0.1,0-0.1,0-0.1,0l-1,0.3
								c-0.8,0.2-1.6-0.2-1.9-1c-0.2-0.8,0.2-1.6,1-1.9l1-0.3c0,0,0,0,0.1,0c0,0,0.1,0,0.1,0l0,0l0,0c0.2,0,0.5,0.1,0.6,0.4l0.6,1.9
								C81.7,58.9,81.6,59.2,81.4,59.3z"/>
							<path class="st6" d="M80.5,56.5C80.6,56.5,80.6,56.5,80.5,56.5c0.3-0.1,0.5,0.1,0.6,0.3l0.6,1.9c0.1,0.3,0,0.5-0.3,0.6l0,0v0
								c0,0,0,0,0,0c-0.3-0.1-0.6-0.2-0.8-0.4C79.9,58.2,79.9,57.2,80.5,56.5z"/>
						</g>
					</g>
					<g>
						
							<linearGradient id="SVGID_2_" gradientUnits="userSpaceOnUse" x1="-922.7524" y1="886.1081" x2="-909.1987" y2="886.1081" gradientTransform="matrix(0.709 0.7052 0.7052 -0.709 127.3452 1323.9835)">
							<stop  offset="0" style="stop-color:#FFFFFF"/>
							<stop  offset="1" style="stop-color:#F5F6F7"/>
						</linearGradient>
						<polygon class="st10" points="99.6,43.4 109.2,53 106,56.2 96.4,46.6 						"/>
						
							<rect x="100.4" y="35.3" transform="matrix(0.7051 -0.7091 0.7091 0.7051 1.5413 89.7469)" class="st8" width="16.6" height="15.4"/>
						<path class="st9" d="M98.3,46.3c0.2-0.2,0.6-0.2,0.8,0c0.2,0.2,0.2,0.6,0,0.8c-0.2,0.2-0.6,0.2-0.8,0
							C98,46.9,98,46.5,98.3,46.3z"/>
					</g>
				</g>
			</g>
			<g>
				<path class="st6" d="M71.8,66.5c0,0,2.6,0,2.1,1.5c0,0-0.9-0.1-1.3-0.1c-1-0.1-1.3-0.3-1.3-0.3S71.4,67.1,71.8,66.5z"/>
				<path class="st6" d="M73.3,67.4c0.1-0.2,0.3-0.3,0.4-0.4c0.3,0.2,0.4,0.6,0.3,1l-0.9-0.1C73.2,67.7,73.2,67.6,73.3,67.4z"/>
			</g>
		</g>
	</g>
</g>
</svg>
