<?xml version="1.0" encoding="utf-8"?>
<!-- Generator: Adobe Illustrator 25.2.1, SVG Export Plug-In . SVG Version: 6.00 Build 0)  -->
<svg version="1.1" id="Layer_1" xmlns="http://www.w3.org/2000/svg" xmlns:xlink="http://www.w3.org/1999/xlink" x="0px" y="0px"
	 viewBox="0 0 8.6 43.6" style="enable-background:new 0 0 8.6 43.6;" xml:space="preserve">
<style type="text/css">
	.st0{fill:#FFFFFF;}
</style>
<g>
	<rect x="3.8" y="4.1" class="st0" width="1" height="35.5"/>
	<g>
		<path class="st0" d="M8.1,39.3c0,2.1-1.7,3.8-3.8,3.8s-3.8-1.7-3.8-3.8s1.7-3.8,3.8-3.8S8.1,37.3,8.1,39.3z"/>
		<path class="st0" d="M8.6,39.3C8.6,37,6.7,35,4.3,35S0,36.9,0,39.3c0,2.3,1.9,4.3,4.3,4.3S8.6,41.7,8.6,39.3
			C8.6,37,8.6,41.7,8.6,39.3z M1.1,39.3c0-1.8,1.5-3.3,3.3-3.3s3.3,1.5,3.3,3.3s-1.5,3.3-3.3,3.3S1.1,41.1,1.1,39.3
			C1.1,37.5,1.1,41.1,1.1,39.3z"/>
	</g>
	<g>
		<path class="st0" d="M8.1,4.3c0-2.1-1.7-3.8-3.8-3.8S0.5,2.2,0.5,4.3s1.7,3.8,3.8,3.8S8.1,6.4,8.1,4.3z"/>
		<path class="st0" d="M8.6,4.3c0,2.3-1.9,4.3-4.3,4.3S0,6.7,0,4.3C0,2,1.9,0,4.3,0S8.6,1.9,8.6,4.3C8.6,6.6,8.6,1.9,8.6,4.3z
			 M1.1,4.3c0,1.8,1.5,3.3,3.3,3.3s3.3-1.5,3.3-3.3S6.2,1,4.4,1S1.1,2.5,1.1,4.3C1.1,6.1,1.1,2.5,1.1,4.3z"/>
	</g>
</g>
</svg>
