<?xml version="1.0" encoding="utf-8"?>
<!-- Generator: Adobe Illustrator 25.2.1, SVG Export Plug-In . SVG Version: 6.00 Build 0)  -->
<svg version="1.1" id="Layer_1" xmlns="http://www.w3.org/2000/svg" xmlns:xlink="http://www.w3.org/1999/xlink" x="0px" y="0px"
	 viewBox="0 0 120 84.8" style="enable-background:new 0 0 120 84.8;" xml:space="preserve">
<style type="text/css">
	.st0{opacity:0.6;}
	.st1{fill:#EDEDED;}
	.st2{fill:#FFFFFF;}
	.st3{fill:#17A8CB;}
</style>
<g>
	<g class="st0">
		<path class="st1" d="M70.7,35.1c0,3.6,2.9,6.6,6.6,6.6h27.8c3.6,0,6.6-2.9,6.6-6.6l0,0c0-3.6-2.9-6.6-6.6-6.6H77.2
			C73.6,28.5,70.7,31.4,70.7,35.1L70.7,35.1z"/>
		<path class="st1" d="M95.3,30c0,3.6,2.9,6.4,6.4,6.4c3.6,0,6.4-2.9,6.4-6.4c0-3.6-2.9-6.4-6.4-6.4C98.2,23.6,95.3,26.4,95.3,30z"
			/>
		<path class="st1" d="M81.8,25.9c0,5.3,4.3,9.6,9.6,9.6c5.3,0,9.6-4.3,9.6-9.6c0-5.3-4.3-9.6-9.6-9.6
			C86.1,16.3,81.8,20.6,81.8,25.9z"/>
		<path class="st1" d="M75.9,29.8c0,2.9,2.4,5.3,5.3,5.3s5.3-2.4,5.3-5.3c0-2.9-2.4-5.3-5.3-5.3S75.9,26.8,75.9,29.8z"/>
	</g>
</g>
<path class="st2" d="M21.1,41.1c-0.4-1.7-0.7-3.5-0.7-5.3c0-11.5,9.3-20.8,20.8-20.8c8.8,0,16.3,5.5,19.3,13.1
	c2.3-1.6,5.1-2.6,8.2-2.6c7.7,0,14,6.3,14,14c0,0.7-0.1,1.4-0.2,2c5.4,2.1,9.3,7.4,9.3,13.6c0,8-6.5,14.6-14.6,14.6H24.9
	c-8,0-14.6-6.5-14.6-14.6C10.4,48.5,14.9,42.8,21.1,41.1z"/>
<path class="st3" d="M69.5,62c-0.3,0-0.5-0.1-0.7-0.3c-0.4-0.4-0.4-1,0-1.4l4.8-4.8l-4.8-4.8c-0.4-0.4-0.4-1,0-1.4s1-0.4,1.4,0
	l5.5,5.5c0.4,0.4,0.4,1,0,1.4l-5.5,5.5C70,61.9,69.7,62,69.5,62z"/>
<path class="st3" d="M51.2,62c-0.3,0-0.5-0.1-0.7-0.3c-0.4-0.4-0.4-1,0-1.4L62,48.8L50.5,37.3c-0.4-0.4-0.4-1,0-1.4s1-0.4,1.4,0
	l12.2,12.2c0.2,0.2,0.3,0.4,0.3,0.7c0,0.3-0.1,0.5-0.3,0.7L51.9,61.7C51.7,61.9,51.5,62,51.2,62z"/>
<path class="st3" d="M33.9,62c-0.3,0-0.5-0.1-0.7-0.3c-0.4-0.4-0.4-1,0-1.4l9.1-9.1l-9.1-9.1c-0.4-0.4-0.4-1,0-1.4s1-0.4,1.4,0
	l9.8,9.8c0.4,0.4,0.4,1,0,1.4l-9.8,9.8C34.5,61.9,34.2,62,33.9,62z"/>
</svg>
