<?xml version="1.0" encoding="utf-8"?>
<!-- Generator: Adobe Illustrator 25.2.1, SVG Export Plug-In . SVG Version: 6.00 Build 0)  -->
<svg version="1.1" id="Layer_1" xmlns="http://www.w3.org/2000/svg" xmlns:xlink="http://www.w3.org/1999/xlink" x="0px" y="0px"
	 viewBox="0 0 120 84.8" style="enable-background:new 0 0 120 84.8;" xml:space="preserve">
<style type="text/css">
	.st0{fill:#FFFFFF;}
</style>
<g>
	<polygon class="st0" points="7.5,34.6 9.9,39.3 15,40 11.2,43.7 12.1,48.9 7.5,46.5 2.8,48.9 3.7,43.7 -0.1,40 5.1,39.3 	"/>
	<polygon class="st0" points="33.7,34.6 36.1,39.3 41.3,40 37.5,43.7 38.4,48.9 33.7,46.5 29.1,48.9 29.9,43.7 26.2,40 31.4,39.3 	
		"/>
	<polygon class="st0" points="60,34.6 62.3,39.3 67.5,40 63.7,43.7 64.6,48.9 60,46.5 55.3,48.9 56.2,43.7 52.4,40 57.6,39.3 	"/>
	<polygon class="st0" points="86.2,34.6 88.6,39.3 93.8,40 89.9,43.7 90.9,48.9 86.2,46.5 81.6,48.9 82.4,43.7 78.7,40 83.8,39.3 	
		"/>
	<polygon class="st0" points="112.5,34.6 114.8,39.3 120,40 116.2,43.7 117.1,48.9 112.5,46.5 107.8,48.9 108.6,43.7 104.9,40 
		110.1,39.3 	"/>
</g>
</svg>
