<?xml version="1.0" encoding="utf-8"?>
<!-- Generator: Adobe Illustrator 25.2.1, SVG Export Plug-In . SVG Version: 6.00 Build 0)  -->
<svg version="1.1" id="Layer_1" xmlns="http://www.w3.org/2000/svg" xmlns:xlink="http://www.w3.org/1999/xlink" x="0px" y="0px"
	 viewBox="0 0 120 84.8" style="enable-background:new 0 0 120 84.8;" xml:space="preserve">
<style type="text/css">
	.st0{fill:#C88F5C;}
	.st1{fill:#E1C5A9;}
	.st2{fill:#E9BB8B;}
	.st3{fill:#F3D4BC;}
	.st4{fill:#FFFFFF;}
</style>
<g>
	<polygon class="st0" points="77.8,28 43.4,28 34.4,42.4 34.4,80.4 86.8,80.4 86.8,42.4 	"/>
	<g>
		<path class="st1" d="M47.3,46.2h-9.5c-0.4,0-0.6,0.2-0.6,0.6c0,0.4,0.2,0.6,0.6,0.6h9.5c0.4,0,0.6-0.2,0.6-0.6
			C47.9,46.5,47.7,46.2,47.3,46.2z"/>
	</g>
	<g>
		<path class="st1" d="M47.3,49.7h-9.5c-0.4,0-0.6,0.2-0.6,0.6s0.2,0.6,0.6,0.6h9.5c0.4,0,0.6-0.2,0.6-0.6
			C47.9,50,47.7,49.7,47.3,49.7z"/>
	</g>
	<g>
		<path class="st1" d="M47.3,53.2h-9.5c-0.4,0-0.6,0.2-0.6,0.6s0.2,0.6,0.6,0.6h9.5c0.4,0,0.6-0.2,0.6-0.6
			C47.9,53.5,47.7,53.2,47.3,53.2z"/>
	</g>
	<polygon class="st2" points="43.4,28 34.4,42.4 86.8,42.4 77.8,28 	"/>
	<polygon class="st3" points="58.2,28 64.4,28 66,42.4 55.2,42.4 	"/>
	<rect x="55.2" y="42.4" class="st1" width="10.8" height="12.1"/>
	<g>
		<g>
			<path class="st4" d="M68.5,6.8h-20v3.5h20c6.2,0,11.2,5,11.2,11.2s-5,11.2-11.2,11.2h-20v3.5h20c8.1,0,14.7-6.6,14.7-14.7
				S76.6,6.8,68.5,6.8z"/>
		</g>
		<polygon class="st4" points="48.5,13.1 41.3,8.7 41.3,8.7 48.5,4.4 		"/>
	</g>
</g>
</svg>
