<?xml version="1.0" encoding="utf-8"?>
<!-- Generator: Adobe Illustrator 25.2.1, SVG Export Plug-In . SVG Version: 6.00 Build 0)  -->
<svg version="1.1" id="Layer_1" xmlns="http://www.w3.org/2000/svg" xmlns:xlink="http://www.w3.org/1999/xlink" x="0px" y="0px"
	 viewBox="0 0 430.5 69.2" style="enable-background:new 0 0 430.5 69.2;" xml:space="preserve">
<style type="text/css">
	.st0{fill:#FFFFFF;}
</style>
<g>
	<rect x="-0.3" y="34.1" transform="matrix(0.961 -0.2764 0.2764 0.961 -5.2906 31.6814)" class="st0" width="220" height="1"/>
	<g>
		<path class="st0" d="M214.1,0.7c2-0.6,4.1,0.6,4.7,2.6c0.6,2-0.6,4.1-2.6,4.7s-4.1-0.6-4.7-2.6C211,3.3,212.1,1.2,214.1,0.7z"/>
		<path class="st0" d="M214,0.2c-2.3,0.6-3.6,3-2.9,5.3c0.6,2.3,3,3.6,5.3,2.9c2.3-0.6,3.6-3,2.9-5.3C218.6,0.9,216.3-0.5,214,0.2
			C211.7,0.8,216.3-0.5,214,0.2z M216.1,7.4c-1.7,0.5-3.5-0.5-4-2.2s0.5-3.5,2.2-4s3.5,0.5,4,2.2S217.8,6.9,216.1,7.4
			S217.8,6.9,216.1,7.4z"/>
	</g>
	<g>
		<path class="st0" d="M3.2,61.3c-2,0.6-3.1,2.7-2.6,4.7c0.6,2,2.7,3.1,4.7,2.6c2-0.6,3.1-2.7,2.6-4.7C7.2,61.9,5.2,60.7,3.2,61.3z"
			/>
		<path class="st0" d="M3,60.8c2.3-0.6,4.6,0.7,5.3,2.9C8.9,66,7.6,68.3,5.4,69c-2.3,0.7-4.7-0.6-5.3-2.9S0.8,61.5,3,60.8
			C5.3,60.2,0.8,61.5,3,60.8z M5.1,68.1c1.7-0.5,2.7-2.3,2.2-4c-0.5-1.7-2.3-2.7-4-2.2s-2.7,2.3-2.2,4C1.6,67.6,3.4,68.6,5.1,68.1
			S3.4,68.6,5.1,68.1z"/>
	</g>
</g>
<g>
	
		<rect x="320.2" y="-75.4" transform="matrix(0.2762 -0.9611 0.9611 0.2762 198.8721 333.3107)" class="st0" width="1" height="220"/>
	<g>
		<path class="st0" d="M214.2,7.9c-2-0.6-3.1-2.7-2.6-4.7c0.6-2,2.7-3.1,4.7-2.6c2,0.6,3.1,2.7,2.6,4.7
			C218.3,7.3,216.2,8.5,214.2,7.9z"/>
		<path class="st0" d="M214,8.4c2.3,0.6,4.6-0.7,5.3-2.9c0.6-2.3-0.7-4.6-2.9-5.3c-2.3-0.7-4.6,0.7-5.3,2.9
			C210.5,5.4,211.8,7.7,214,8.4C216.3,9,211.8,7.7,214,8.4z M216.1,1.2c1.7,0.5,2.7,2.3,2.2,4s-2.3,2.7-4,2.2s-2.7-2.3-2.2-4
			S214.4,0.7,216.1,1.2S214.4,0.7,216.1,1.2z"/>
	</g>
	<g>
		<ellipse transform="matrix(0.9942 -0.1074 0.1074 0.9942 -4.5049 46.154)" class="st0" cx="426.2" cy="64.9" rx="3.8" ry="3.8"/>
		<path class="st0" d="M425,69c-2.3-0.6-3.6-3-2.9-5.3c0.6-2.3,3-3.6,5.3-2.9c2.3,0.6,3.6,3,2.9,5.3C429.6,68.4,427.3,69.7,425,69
			C422.8,68.4,427.3,69.7,425,69z M427.1,61.8c-1.7-0.5-3.5,0.5-4,2.2c-0.5,1.7,0.5,3.5,2.2,4s3.5-0.5,4-2.2
			C429.8,64.1,428.8,62.3,427.1,61.8S428.8,62.3,427.1,61.8z"/>
	</g>
</g>
</svg>
