<?xml version="1.0" encoding="utf-8"?>
<!-- Generator: Adobe Illustrator 25.2.1, SVG Export Plug-In . SVG Version: 6.00 Build 0)  -->
<svg version="1.1" id="Layer_1" xmlns="http://www.w3.org/2000/svg" xmlns:xlink="http://www.w3.org/1999/xlink" x="0px" y="0px"
	 viewBox="0 0 800.9 514.7" style="enable-background:new 0 0 800.9 514.7;" xml:space="preserve">
<style type="text/css">
	.st0{fill:#165B78;}
	.st1{fill:#11161A;}
	.st2{fill:#333333;}
	.st3{fill:#778681;}
	.st4{fill:#2D9ACC;}
	.st5{fill:#7CD51C;}
	.st6{fill:#B8C6CC;}
	.st7{fill:#222B33;}
	.st8{fill:#374754;}
	.st9{fill:#D51CA4;}
	.st10{fill:#666666;}
	.st11{fill:#141A1F;}
	.st12{fill:#2F3C47;}
	.st13{fill:none;stroke:#FFFFFF;stroke-width:3.2549;stroke-miterlimit:10;}
	.st14{fill:none;stroke:#FFFFFF;stroke-width:2;stroke-miterlimit:10;stroke-dasharray:9.5316,9.5316;}
	.st15{fill:none;stroke:#FFFFFF;stroke-width:2;stroke-miterlimit:10;stroke-dasharray:9.7647;}
</style>
<rect x="0.9" y="-0.3" class="st0" width="800" height="515"/>
<g>
	<g>
		<g>
			<path class="st1" d="M553.9,336.1l-410.2,78.4c-3.1,0.6-6.1-1.4-6.7-4.5L90.3,165.6c-0.6-3.1,1.4-6.1,4.5-6.7L505,80.5
				c3.1-0.6,6.1,1.4,6.7,4.5l46.7,244.4C559,332.5,557,335.5,553.9,336.1z"/>
			<path class="st2" d="M261.5,368l-83.9,16c-2.9,0.6-5.7-1.3-6.2-4.2l-38-198.8c-0.6-2.9,1.3-5.7,4.2-6.2l83.9-16
				c2.9-0.6,5.7,1.3,6.2,4.2l38,198.8C266.3,364.7,264.4,367.5,261.5,368z"/>
			<g>
				
					<rect x="252.7" y="154.1" transform="matrix(0.9822 -0.1878 0.1878 0.9822 -24.7894 50.4798)" class="st3" width="2.7" height="4"/>
				
					<rect x="253" y="162.3" transform="matrix(0.9822 -0.1878 0.1878 0.9822 -26.3145 50.7983)" class="st3" width="3.9" height="4"/>
				
					<rect x="254.5" y="170.4" transform="matrix(0.9822 -0.1878 0.1878 0.9822 -27.8068 51.2329)" class="st3" width="3.9" height="4"/>
				
					<rect x="256.1" y="178.5" transform="matrix(0.9822 -0.1878 0.1878 0.9822 -29.2991 51.6672)" class="st3" width="3.9" height="4"/>
				
					<rect x="257.6" y="186.6" transform="matrix(0.9822 -0.1878 0.1878 0.9822 -30.7915 52.1019)" class="st3" width="3.9" height="4"/>
				
					<rect x="259.2" y="194.7" transform="matrix(0.9822 -0.1878 0.1878 0.9822 -32.2844 52.5376)" class="st3" width="3.9" height="4"/>
				
					<rect x="260.7" y="202.8" transform="matrix(0.9822 -0.1878 0.1878 0.9822 -33.7762 52.971)" class="st3" width="3.9" height="4"/>
				
					<rect x="262.3" y="210.9" transform="matrix(0.9822 -0.1878 0.1878 0.9822 -35.2686 53.4055)" class="st3" width="3.9" height="4"/>
				
					<rect x="263.8" y="219" transform="matrix(0.9822 -0.1878 0.1878 0.9822 -36.7608 53.8398)" class="st3" width="3.9" height="4"/>
				
					<rect x="265.4" y="227.1" transform="matrix(0.9822 -0.1878 0.1878 0.9822 -38.2533 54.2746)" class="st3" width="3.9" height="4"/>
				
					<rect x="265.5" y="235.3" transform="matrix(0.9822 -0.1878 0.1878 0.9822 -39.7895 54.5594)" class="st3" width="5.2" height="4"/>
				
					<rect x="267" y="243.4" transform="matrix(0.9822 -0.1878 0.1878 0.9822 -41.2813 54.993)" class="st3" width="5.2" height="4"/>
				
					<rect x="268.6" y="251.5" transform="matrix(0.9822 -0.1878 0.1878 0.9822 -42.7742 55.4285)" class="st3" width="5.2" height="4"/>
				
					<rect x="270.1" y="259.6" transform="matrix(0.9822 -0.1878 0.1878 0.9822 -44.2666 55.863)" class="st3" width="5.2" height="4"/>
				
					<rect x="271.7" y="267.7" transform="matrix(0.9822 -0.1878 0.1878 0.9822 -45.7589 56.2976)" class="st3" width="5.2" height="4"/>
				
					<rect x="273.2" y="275.8" transform="matrix(0.9822 -0.1878 0.1878 0.9822 -47.2513 56.7321)" class="st3" width="5.2" height="4"/>
				
					<rect x="274.8" y="283.9" transform="matrix(0.9822 -0.1878 0.1878 0.9822 -48.7436 57.1666)" class="st3" width="5.2" height="4"/>
				
					<rect x="276.3" y="292" transform="matrix(0.9822 -0.1878 0.1878 0.9822 -50.236 57.6012)" class="st3" width="5.2" height="4"/>
				
					<rect x="277.8" y="300.1" transform="matrix(0.9822 -0.1878 0.1878 0.9822 -51.7284 58.0357)" class="st3" width="5.2" height="4"/>
				
					<rect x="279.4" y="308.2" transform="matrix(0.9822 -0.1878 0.1878 0.9822 -53.2207 58.4703)" class="st3" width="5.2" height="4"/>
				
					<rect x="280.9" y="316.2" transform="matrix(0.9822 -0.1878 0.1878 0.9822 -54.7131 58.9048)" class="st3" width="5.2" height="4"/>
				
					<rect x="282.5" y="324.3" transform="matrix(0.9822 -0.1878 0.1878 0.9822 -56.2054 59.3393)" class="st3" width="5.2" height="4"/>
				
					<rect x="284" y="332.4" transform="matrix(0.9822 -0.1878 0.1878 0.9822 -57.6978 59.7739)" class="st3" width="5.2" height="4"/>
				
					<rect x="285.6" y="340.5" transform="matrix(0.9822 -0.1878 0.1878 0.9822 -59.1902 60.2084)" class="st3" width="5.2" height="4"/>
				
					<rect x="287.1" y="348.6" transform="matrix(0.9822 -0.1878 0.1878 0.9822 -60.6825 60.643)" class="st3" width="5.2" height="4"/>
				
					<rect x="288.7" y="356.7" transform="matrix(0.9822 -0.1878 0.1878 0.9822 -62.1749 61.0775)" class="st3" width="5.2" height="4"/>
				
					<rect x="271.3" y="142.2" transform="matrix(0.9822 -0.1878 0.1878 0.9822 -21.438 61.9866)" class="st4" width="90.4" height="4"/>
				
					<rect x="273" y="152.4" transform="matrix(0.9822 -0.1878 0.1878 0.9822 -23.5506 60.0774)" class="st4" width="64.7" height="4"/>
				
					<rect x="418.6" y="129.5" transform="matrix(0.9822 -0.1878 0.1878 0.9822 -17.1469 82.0698)" class="st4" width="12" height="4"/>
				
					<rect x="436.3" y="125.1" transform="matrix(0.9822 -0.1878 0.1878 0.9822 -15.906 86.3315)" class="st5" width="22.9" height="4"/>
				
					<rect x="342.4" y="138.5" transform="matrix(0.9822 -0.1878 0.1878 0.9822 -19.653 73.4629)" class="st6" width="71.1" height="4"/>
				
					<rect x="291.6" y="157.4" transform="matrix(0.9822 -0.1878 0.1878 0.9822 -24.2067 63.1699)" class="st4" width="59.5" height="4"/>
				
					<rect x="315.4" y="161.3" transform="matrix(0.9822 -0.1878 0.1878 0.9822 -24.567 67.2783)" class="st4" width="54.8" height="4"/>
				
					<rect x="317.1" y="170.6" transform="matrix(0.9822 -0.1878 0.1878 0.9822 -26.4183 66.2663)" class="st4" width="39" height="4"/>
				
					<rect x="360.7" y="161.1" transform="matrix(0.9822 -0.1878 0.1878 0.9822 -23.7686 75.3666)" class="st6" width="50.4" height="4"/>
				
					<rect x="415.5" y="153.7" transform="matrix(0.9822 -0.1878 0.1878 0.9822 -21.6897 82.5057)" class="st5" width="18.2" height="4"/>
				
					<rect x="430.4" y="199.7" transform="matrix(0.9822 -0.1878 0.1878 0.9822 -30.1033 85.687)" class="st5" width="13.6" height="4"/>
				
					<rect x="410.7" y="268" transform="matrix(0.9822 -0.1878 0.1878 0.9822 -43.2785 83.2055)" class="st5" width="13.6" height="4"/>
				
					<rect x="439.3" y="278.3" transform="matrix(0.9822 -0.1878 0.1878 0.9822 -44.6489 89.1909)" class="st5" width="18.2" height="4"/>
				
					<rect x="427.7" y="305.6" transform="matrix(0.9822 -0.1878 0.1878 0.9822 -50.082 86.5708)" class="st5" width="8.4" height="4"/>
				
					<rect x="368.8" y="260" transform="matrix(0.9822 -0.1878 0.1878 0.9822 -42.5251 75.1024)" class="st5" width="12.7" height="4"/>
				
					<rect x="392.9" y="230.7" transform="matrix(0.9822 -0.1878 0.1878 0.9822 -36.5412 79.6147)" class="st5" width="18.1" height="4"/>
				
					<rect x="356.5" y="189.2" transform="matrix(0.9822 -0.1878 0.1878 0.9822 -29.4025 72.056)" class="st5" width="18.2" height="4"/>
				
					<rect x="318.4" y="176.9" transform="matrix(0.9822 -0.1878 0.1878 0.9822 -27.437 68.1139)" class="st4" width="54.8" height="4"/>
				
					<rect x="297.5" y="188.5" transform="matrix(0.9822 -0.1878 0.1878 0.9822 -29.9465 64.8411)" class="st4" width="59.5" height="4"/>
				
					<rect x="361.6" y="179.5" transform="matrix(0.9822 -0.1878 0.1878 0.9822 -27.4205 73.4859)" class="st4" width="25.1" height="4"/>
				
					<rect x="299.1" y="196.9" transform="matrix(0.9822 -0.1878 0.1878 0.9822 -31.5691 64.6145)" class="st4" width="52.3" height="4"/>
				
					<rect x="283.6" y="209.3" transform="matrix(0.9822 -0.1878 0.1878 0.9822 -34.2767 60.662)" class="st4" width="38.8" height="4"/>
				
					<rect x="392.6" y="174.5" transform="matrix(0.9822 -0.1878 0.1878 0.9822 -26.0387 78.2026)" class="st4" width="14.3" height="4"/>
				
					<rect x="285" y="215.4" transform="matrix(0.9822 -0.1878 0.1878 0.9822 -35.2366 62.7111)" class="st4" width="56.9" height="4"/>
				
					<rect x="303.6" y="221.1" transform="matrix(0.9822 -0.1878 0.1878 0.9822 -36.1027 65.0826)" class="st4" width="43.7" height="4"/>
				
					<rect x="351.6" y="212.7" transform="matrix(0.9822 -0.1878 0.1878 0.9822 -33.7509 73.1595)" class="st6" width="35.3" height="4"/>
				
					<rect x="391" y="205.2" transform="matrix(0.9822 -0.1878 0.1878 0.9822 -31.6373 80.4183)" class="st6" width="35.3" height="4"/>
				
					<rect x="304.8" y="225.7" transform="matrix(0.9822 -0.1878 0.1878 0.9822 -36.6405 68.5817)" class="st4" width="77.7" height="4"/>
				<rect x="329" y="232.8" transform="matrix(0.9822 -0.1878 0.1878 0.9822 -37.898 69.6089)" class="st4" width="39" height="4"/>
				
					<rect x="330.3" y="238.8" transform="matrix(0.9822 -0.1878 0.1878 0.9822 -38.8052 71.8392)" class="st4" width="59" height="4"/>
				
					<rect x="331.9" y="247.7" transform="matrix(0.9822 -0.1878 0.1878 0.9822 -40.5744 71.1091)" class="st4" width="46.3" height="4"/>
				
					<rect x="333.2" y="254.3" transform="matrix(0.9822 -0.1878 0.1878 0.9822 -41.6751 72.6749)" class="st4" width="59" height="4"/>
				
					<rect x="313.3" y="266.9" transform="matrix(0.9822 -0.1878 0.1878 0.9822 -44.4629 68.4469)" class="st4" width="51.6" height="4"/>
				
					<rect x="374.4" y="286.5" transform="matrix(0.9822 -0.1878 0.1878 0.9822 -46.9676 81.2283)" class="st6" width="61.7" height="4"/>
				
					<rect x="298.4" y="286.3" transform="matrix(0.9822 -0.1878 0.1878 0.9822 -48.399 65.6206)" class="st4" width="47.5" height="4"/>
				
					<rect x="340.1" y="273.8" transform="matrix(0.9822 -0.1878 0.1878 0.9822 -45.651 69.7131)" class="st4" width="10.2" height="4"/>
				
					<rect x="299.8" y="293" transform="matrix(0.9822 -0.1878 0.1878 0.9822 -49.5448 67.0317)" class="st4" width="58.4" height="4"/>
				
					<rect x="407.4" y="308.8" transform="matrix(0.9822 -0.1878 0.1878 0.9822 -50.976 83.501)" class="st4" width="15.6" height="4"/>
				
					<rect x="373" y="314" transform="matrix(0.9822 -0.1878 0.1878 0.9822 -52.4435 78.4605)" class="st6" width="29.9" height="4"/>
				
					<rect x="318.4" y="298.1" transform="matrix(0.9822 -0.1878 0.1878 0.9822 -50.2236 70.0462)" class="st4" width="52.3" height="4"/>
				
					<rect x="319.9" y="305.5" transform="matrix(0.9822 -0.1878 0.1878 0.9822 -51.5306 70.9035)" class="st4" width="57.2" height="4"/>
				
					<rect x="343.6" y="308.6" transform="matrix(0.9822 -0.1878 0.1878 0.9822 -51.6554 75.8212)" class="st4" width="61.5" height="4"/>
				
					<rect x="345.5" y="319.9" transform="matrix(0.9822 -0.1878 0.1878 0.9822 -54.0999 72.7713)" class="st4" width="23.2" height="4"/>
				
					<rect x="346.7" y="325.2" transform="matrix(0.9822 -0.1878 0.1878 0.9822 -54.8185 75.6499)" class="st4" width="50.3" height="4"/>
				
					<rect x="326" y="338.8" transform="matrix(0.9822 -0.1878 0.1878 0.9822 -57.8813 70.4767)" class="st4" width="34" height="4"/>
				
					<rect x="355.6" y="277.7" transform="matrix(0.9822 -0.1878 0.1878 0.9822 -45.9939 73.8808)" class="st4" width="22.7" height="4"/>
				
					<rect x="383.3" y="272.4" transform="matrix(0.9822 -0.1878 0.1878 0.9822 -44.5075 78.9855)" class="st6" width="22.7" height="4"/>
				
					<rect x="327.3" y="344.1" transform="matrix(0.9822 -0.1878 0.1878 0.9822 -58.6437 73.2047)" class="st4" width="59.5" height="4"/>
				
					<rect x="393.1" y="335.6" transform="matrix(0.9822 -0.1878 0.1878 0.9822 -56.2368 81.47)" class="st4" width="17.5" height="4"/>
			</g>
			<g>
				
					<rect x="145.2" y="191.8" transform="matrix(0.9822 -0.1878 0.1878 0.9822 -33.728 30.9123)" class="st3" width="2.2" height="3.3"/>
				
					<rect x="145.1" y="197.1" transform="matrix(0.9822 -0.1878 0.1878 0.9822 -34.7045 31.0933)" class="st3" width="3.3" height="3.3"/>
				
					<rect x="146.1" y="202.2" transform="matrix(0.9822 -0.1878 0.1878 0.9822 -35.654 31.3698)" class="st3" width="3.3" height="3.3"/>
				
					<rect x="147.1" y="207.4" transform="matrix(0.9822 -0.1878 0.1878 0.9822 -36.6043 31.6471)" class="st3" width="3.3" height="3.3"/>
				
					<rect x="148.1" y="212.5" transform="matrix(0.9822 -0.1878 0.1878 0.9822 -37.5529 31.9227)" class="st3" width="3.3" height="3.3"/>
				
					<rect x="149.1" y="217.7" transform="matrix(0.9822 -0.1878 0.1878 0.9822 -38.5024 32.1992)" class="st3" width="3.3" height="3.3"/>
				
					<rect x="150.1" y="222.8" transform="matrix(0.9822 -0.1878 0.1878 0.9822 -39.4519 32.4756)" class="st3" width="3.3" height="3.3"/>
				
					<rect x="151" y="228" transform="matrix(0.9822 -0.1878 0.1878 0.9822 -40.4012 32.7519)" class="st3" width="3.3" height="3.3"/>
				
					<rect x="152" y="233.1" transform="matrix(0.9822 -0.1878 0.1878 0.9822 -41.3509 33.0286)" class="st3" width="3.3" height="3.3"/>
				
					<rect x="153" y="238.3" transform="matrix(0.9822 -0.1878 0.1878 0.9822 -42.3004 33.305)" class="st3" width="3.3" height="3.3"/>
				
					<rect x="152.8" y="243.6" transform="matrix(0.9822 -0.1878 0.1878 0.9822 -43.2863 33.4572)" class="st3" width="4.3" height="3.3"/>
				
					<rect x="153.8" y="248.7" transform="matrix(0.9822 -0.1878 0.1878 0.9822 -44.2357 33.7337)" class="st3" width="4.3" height="3.3"/>
				
					<rect x="154.8" y="253.9" transform="matrix(0.9822 -0.1878 0.1878 0.9822 -45.1852 34.0102)" class="st3" width="4.3" height="3.3"/>
				
					<rect x="155.7" y="259" transform="matrix(0.9822 -0.1878 0.1878 0.9822 -46.1339 34.2859)" class="st3" width="4.3" height="3.3"/>
				
					<rect x="156.7" y="264.2" transform="matrix(0.9822 -0.1878 0.1878 0.9822 -47.0844 34.5633)" class="st3" width="4.3" height="3.3"/>
				
					<rect x="157.7" y="269.3" transform="matrix(0.9822 -0.1878 0.1878 0.9822 -48.0337 34.8396)" class="st3" width="4.3" height="3.3"/>
				
					<rect x="158.7" y="274.5" transform="matrix(0.9822 -0.1878 0.1878 0.9822 -48.9832 35.1161)" class="st3" width="4.3" height="3.3"/>
				
					<rect x="159.7" y="279.6" transform="matrix(0.9822 -0.1878 0.1878 0.9822 -49.9327 35.3925)" class="st3" width="4.3" height="3.3"/>
				
					<rect x="160.7" y="284.8" transform="matrix(0.9822 -0.1878 0.1878 0.9822 -50.8822 35.669)" class="st3" width="4.3" height="3.3"/>
				
					<rect x="161.6" y="289.9" transform="matrix(0.9822 -0.1878 0.1878 0.9822 -51.8317 35.9455)" class="st3" width="4.3" height="3.3"/>
				
					<rect x="162.6" y="295.1" transform="matrix(0.9822 -0.1878 0.1878 0.9822 -52.7812 36.222)" class="st3" width="4.3" height="3.3"/>
				
					<rect x="163.6" y="300.2" transform="matrix(0.9822 -0.1878 0.1878 0.9822 -53.7307 36.4984)" class="st3" width="4.3" height="3.3"/>
				
					<rect x="164.6" y="305.3" transform="matrix(0.9822 -0.1878 0.1878 0.9822 -54.6792 36.7741)" class="st3" width="4.3" height="3.3"/>
				
					<rect x="165.6" y="310.5" transform="matrix(0.9822 -0.1878 0.1878 0.9822 -55.6299 37.0515)" class="st3" width="4.3" height="3.3"/>
				
					<rect x="166.6" y="315.6" transform="matrix(0.9822 -0.1878 0.1878 0.9822 -56.5792 37.3278)" class="st3" width="4.3" height="3.3"/>
				
					<rect x="167.6" y="320.8" transform="matrix(0.9822 -0.1878 0.1878 0.9822 -57.5287 37.6043)" class="st3" width="4.3" height="3.3"/>
				
					<rect x="168.5" y="325.9" transform="matrix(0.9822 -0.1878 0.1878 0.9822 -58.4771 37.8799)" class="st3" width="4.3" height="3.3"/>
				
					<rect x="169.5" y="331.1" transform="matrix(0.9822 -0.1878 0.1878 0.9822 -59.4277 38.1572)" class="st3" width="4.3" height="3.3"/>
				
					<rect x="170.5" y="336.2" transform="matrix(0.9822 -0.1878 0.1878 0.9822 -60.3772 38.4337)" class="st3" width="4.3" height="3.3"/>
				
					<rect x="171.5" y="341.4" transform="matrix(0.9822 -0.1878 0.1878 0.9822 -61.3269 38.7104)" class="st3" width="4.3" height="3.3"/>
				
					<rect x="172.5" y="346.5" transform="matrix(0.9822 -0.1878 0.1878 0.9822 -62.2762 38.9867)" class="st3" width="4.3" height="3.3"/>
				
					<rect x="173.5" y="351.7" transform="matrix(0.9822 -0.1878 0.1878 0.9822 -63.2259 39.2633)" class="st3" width="4.3" height="3.3"/>
				
					<rect x="174.4" y="356.8" transform="matrix(0.9822 -0.1878 0.1878 0.9822 -64.1752 39.5396)" class="st3" width="4.3" height="3.3"/>
				
					<rect x="175.4" y="362" transform="matrix(0.9822 -0.1878 0.1878 0.9822 -65.1247 39.8161)" class="st3" width="4.3" height="3.3"/>
				
					<rect x="157.3" y="185.6" transform="matrix(0.9822 -0.1878 0.1878 0.9822 -31.9783 36.9189)" class="st4" width="43.1" height="3.3"/>
				
					<rect x="158.4" y="191.9" transform="matrix(0.9822 -0.1878 0.1878 0.9822 -33.2505 36.0866)" class="st4" width="30.8" height="3.3"/>
				
					<rect x="172.9" y="194.7" transform="matrix(0.9822 -0.1878 0.1878 0.9822 -33.5448 38.6136)" class="st4" width="28.3" height="3.3"/>
				
					<rect x="189.8" y="197" transform="matrix(0.9822 -0.1878 0.1878 0.9822 -33.6981 41.6247)" class="st4" width="26.1" height="3.3"/>
				
					<rect x="190.9" y="202.9" transform="matrix(0.9822 -0.1878 0.1878 0.9822 -34.8459 41.2199)" class="st4" width="18.6" height="3.3"/>
				
					<rect x="191.8" y="207.3" transform="matrix(0.9822 -0.1878 0.1878 0.9822 -35.5971 42.1776)" class="st4" width="26.1" height="3.3"/>
				
					<rect x="176.8" y="215.3" transform="matrix(0.9822 -0.1878 0.1878 0.9822 -37.3428 39.7195)" class="st4" width="28.3" height="3.3"/>
				
					<rect x="177.8" y="220.8" transform="matrix(0.9822 -0.1878 0.1878 0.9822 -38.3816 39.6889)" class="st4" width="24.9" height="3.3"/>
				
					<rect x="165.4" y="229.1" transform="matrix(0.9822 -0.1878 0.1878 0.9822 -40.2218 36.9072)" class="st4" width="18.5" height="3.3"/>
				
					<rect x="166.3" y="233.4" transform="matrix(0.9822 -0.1878 0.1878 0.9822 -40.9449 37.9608)" class="st4" width="27.1" height="3.3"/>
				
					<rect x="180.8" y="236.6" transform="matrix(0.9822 -0.1878 0.1878 0.9822 -41.3391 40.1442)" class="st4" width="20.8" height="3.3"/>
				
					<rect x="181.7" y="240.2" transform="matrix(0.9822 -0.1878 0.1878 0.9822 -41.8611 41.8886)" class="st4" width="37" height="3.3"/>
				
					<rect x="198.7" y="244.1" transform="matrix(0.9822 -0.1878 0.1878 0.9822 -42.4419 43.4317)" class="st4" width="18.6" height="3.3"/>
				
					<rect x="199.6" y="248.3" transform="matrix(0.9822 -0.1878 0.1878 0.9822 -43.14 44.5717)" class="st4" width="28.1" height="3.3"/>
				
					<rect x="200.7" y="254.1" transform="matrix(0.9822 -0.1878 0.1878 0.9822 -44.2487 44.3013)" class="st4" width="22.1" height="3.3"/>
				
					<rect x="201.6" y="258.6" transform="matrix(0.9822 -0.1878 0.1878 0.9822 -45.0388 45.1245)" class="st4" width="28.1" height="3.3"/>
				
					<rect x="187.1" y="267.1" transform="matrix(0.9822 -0.1878 0.1878 0.9822 -46.9171 42.2114)" class="st4" width="24.6" height="3.3"/>
				
					<rect x="174.3" y="275.1" transform="matrix(0.9822 -0.1878 0.1878 0.9822 -48.6589 39.7671)" class="st4" width="22.6" height="3.3"/>
				
					<rect x="200.1" y="271.8" transform="matrix(0.9822 -0.1878 0.1878 0.9822 -47.749 42.8919)" class="st4" width="4.8" height="3.3"/>
				
					<rect x="175.2" y="279.7" transform="matrix(0.9822 -0.1878 0.1878 0.9822 -49.4705 40.5167)" class="st4" width="27.8" height="3.3"/>
				
					<rect x="189.6" y="282.6" transform="matrix(0.9822 -0.1878 0.1878 0.9822 -49.7756 43.0066)" class="st4" width="24.9" height="3.3"/>
				
					<rect x="190.6" y="287.5" transform="matrix(0.9822 -0.1878 0.1878 0.9822 -50.6642 43.4925)" class="st4" width="27.3" height="3.3"/>
				
					<rect x="207.5" y="289.4" transform="matrix(0.9822 -0.1878 0.1878 0.9822 -50.7052 46.889)" class="st4" width="29.3" height="3.3"/>
				
					<rect x="208.6" y="296.3" transform="matrix(0.9822 -0.1878 0.1878 0.9822 -52.1357 45.5134)" class="st4" width="11" height="3.3"/>
				
					<rect x="209.5" y="300.2" transform="matrix(0.9822 -0.1878 0.1878 0.9822 -52.7437 46.962)" class="st4" width="24" height="3.3"/>
				
					<rect x="194.6" y="309.1" transform="matrix(0.9822 -0.1878 0.1878 0.9822 -54.7533 43.5988)" class="st4" width="16.2" height="3.3"/>
				
					<rect x="214.5" y="306.2" transform="matrix(0.9822 -0.1878 0.1878 0.9822 -53.9326 46.4186)" class="st4" width="7.2" height="3.3"/>
				
					<rect x="195.5" y="313.3" transform="matrix(0.9822 -0.1878 0.1878 0.9822 -55.4221 44.838)" class="st4" width="26.8" height="3.3"/>
				
					<rect x="212.6" y="316.8" transform="matrix(0.9822 -0.1878 0.1878 0.9822 -55.9054 46.7171)" class="st4" width="12.1" height="3.3"/>
				
					<rect x="213.4" y="320.4" transform="matrix(0.9822 -0.1878 0.1878 0.9822 -56.4327 48.4421)" class="st4" width="28.1" height="3.3"/>
				
					<rect x="198.5" y="328.6" transform="matrix(0.9822 -0.1878 0.1878 0.9822 -58.2317 45.8019)" class="st4" width="28.3" height="3.3"/>
				
					<rect x="186" y="335.6" transform="matrix(0.9822 -0.1878 0.1878 0.9822 -59.7036 44.2841)" class="st4" width="35.9" height="3.3"/>
				
					<rect x="187.1" y="342" transform="matrix(0.9822 -0.1878 0.1878 0.9822 -61.0023 43.3612)" class="st4" width="22.6" height="3.3"/>
				
					<rect x="201.5" y="345.1" transform="matrix(0.9822 -0.1878 0.1878 0.9822 -61.3623 45.6622)" class="st4" width="17.6" height="3.3"/>
				
					<rect x="222.1" y="341.9" transform="matrix(0.9822 -0.1878 0.1878 0.9822 -60.4715 48.7233)" class="st4" width="9.7" height="3.3"/>
				
					<rect x="189" y="351.9" transform="matrix(0.9822 -0.1878 0.1878 0.9822 -62.7867 44.3075)" class="st4" width="27" height="3.3"/>
				
					<rect x="190.1" y="358.6" transform="matrix(0.9822 -0.1878 0.1878 0.9822 -64.1663 43.1063)" class="st4" width="10.6" height="3.3"/>
			</g>
			<path class="st7" d="M513.2,92.8L91.8,173.4l-1.5-7.8c-0.6-3.1,1.4-6.1,4.5-6.7L505,80.5c3.1-0.6,6.1,1.4,6.7,4.5L513.2,92.8z"/>
			<ellipse transform="matrix(0.9888 -0.1493 0.1493 0.9888 -23.3392 17.3597)" class="st8" cx="103.9" cy="164.1" rx="4" ry="4"/>
			<ellipse transform="matrix(0.9722 -0.234 0.234 0.9722 -34.5142 32.0383)" class="st8" cx="117.8" cy="161.5" rx="4" ry="4"/>
			<circle class="st8" cx="131.6" cy="158.8" r="4"/>
		</g>
	</g>
	<path class="st5" d="M311.2,433.8l-38.7,7.4c-4,0.8-7.9-1.9-8.6-5.9v0c-0.8-4,1.9-7.9,5.9-8.6l38.7-7.4c4-0.8,7.9,1.9,8.6,5.9v0
		C317.8,429.2,315.2,433,311.2,433.8z"/>
	<path class="st5" d="M148.1,374.8L89.5,386c-4,0.8-7.9-1.9-8.6-5.9v0c-0.8-4,1.9-7.9,5.9-8.6l58.5-11.2c4-0.8,7.9,1.9,8.6,5.9l0,0
		C154.7,370.2,152.1,374.1,148.1,374.8z"/>
	<path class="st5" d="M144.6,356.6l-58.5,11.2c-4,0.8-7.9-1.9-8.6-5.9v0c-0.8-4,1.9-7.9,5.9-8.6l58.5-11.2c4-0.8,7.9,1.9,8.6,5.9v0
		C151.2,352,148.6,355.9,144.6,356.6z"/>
	<path class="st5" d="M539.7,57.4l58.5-11.2c4-0.8,7.9,1.9,8.6,5.9l0,0c0.8,4-1.9,7.9-5.9,8.6l-58.5,11.2c-4,0.8-7.9-1.9-8.6-5.9
		l0,0C533,62.1,535.7,58.2,539.7,57.4z"/>
	<path class="st5" d="M543.1,75.7l58.5-11.2c4-0.8,7.9,1.9,8.6,5.9v0c0.8,4-1.9,7.9-5.9,8.6l-58.5,11.2c-4,0.8-7.9-1.9-8.6-5.9v0
		C536.5,80.3,539.1,76.4,543.1,75.7z"/>
	<path class="st5" d="M626.2,40.9l58.5-11.2c4-0.8,7.9,1.9,8.6,5.9v0c0.8,4-1.9,7.9-5.9,8.6l-58.5,11.2c-4,0.8-7.9-1.9-8.6-5.9v0
		C619.6,45.5,622.2,41.7,626.2,40.9z"/>
	<path class="st5" d="M629.7,59.1l58.5-11.2c4-0.8,7.9,1.9,8.6,5.9v0c0.8,4-1.9,7.9-5.9,8.6l-58.5,11.2c-4,0.8-7.9-1.9-8.6-5.9v0
		C623,63.7,625.7,59.9,629.7,59.1z"/>
	<path class="st5" d="M141.1,338.4l-58.5,11.2c-4,0.8-7.9-1.9-8.6-5.9v0c-0.8-4,1.9-7.9,5.9-8.6l58.5-11.2c4-0.8,7.9,1.9,8.6,5.9
		l0,0C147.7,333.8,145.1,337.6,141.1,338.4z"/>
	<path class="st5" d="M137.6,320.2l-58.5,11.2c-4,0.8-7.9-1.9-8.6-5.9l0,0c-0.8-4,1.9-7.9,5.9-8.6l58.5-11.2c4-0.8,7.9,1.9,8.6,5.9
		l0,0C144.2,315.5,141.6,319.4,137.6,320.2z"/>
	<path class="st9" d="M524.4,459.3l21.7-4.1c4-0.8,7.9,1.9,8.6,5.9l0,0c0.8,4-1.9,7.9-5.9,8.6l-21.7,4.1c-4,0.8-7.9-1.9-8.6-5.9l0,0
		C517.8,463.9,520.4,460.1,524.4,459.3z"/>
	<g>
		<path class="st10" d="M669.7,379.1L523.5,407c-1.5,0.3-2.9-0.7-3.2-2.2l-24.8-130l148.9-28.5c1.5-0.3,2.9,0.7,3.2,2.2l24.3,127.3
			C672.2,377.3,671.2,378.8,669.7,379.1z"/>
		<path class="st10" d="M658.2,371.2L512,399.2c-1.5,0.3-2.9-0.7-3.2-2.2L484,267l148.9-28.5c1.5-0.3,2.9,0.7,3.2,2.2L660.4,368
			C660.6,369.5,659.7,370.9,658.2,371.2z"/>
		<path class="st11" d="M646.6,363.4l-146.2,27.9c-1.5,0.3-2.9-0.7-3.2-2.2l-24.3-127.3c-0.3-1.5,0.7-2.9,2.2-3.2l146.2-27.9
			c1.5-0.3,2.9,0.7,3.2,2.2l24.3,127.3C649.1,361.7,648.1,363.1,646.6,363.4z"/>
		<g>
			
				<rect x="490.2" y="269" transform="matrix(0.9822 -0.1878 0.1878 0.9822 -41.9679 96.9743)" class="st3" width="1.4" height="2.1"/>
			
				<rect x="490.3" y="273.2" transform="matrix(0.9822 -0.1878 0.1878 0.9822 -42.7575 97.134)" class="st3" width="2" height="2.1"/>
			
				<rect x="491.1" y="277.4" transform="matrix(0.9822 -0.1878 0.1878 0.9822 -43.5318 97.3595)" class="st3" width="2" height="2.1"/>
			
				<rect x="491.9" y="281.6" transform="matrix(0.9822 -0.1878 0.1878 0.9822 -44.3076 97.589)" class="st3" width="2" height="2.1"/>
			
				<rect x="492.7" y="285.8" transform="matrix(0.9822 -0.1878 0.1878 0.9822 -45.0819 97.8145)" class="st3" width="2" height="2.1"/>
			<rect x="493.5" y="290" transform="matrix(0.9822 -0.1878 0.1878 0.9822 -45.8563 98.04)" class="st3" width="2" height="2.1"/>
			
				<rect x="494.3" y="294.2" transform="matrix(0.9822 -0.1878 0.1878 0.9822 -46.6292 98.2613)" class="st3" width="2" height="2.1"/>
			
				<rect x="495.1" y="298.4" transform="matrix(0.9822 -0.1878 0.1878 0.9822 -47.4035 98.4868)" class="st3" width="2" height="2.1"/>
			
				<rect x="495.9" y="302.6" transform="matrix(0.9822 -0.1878 0.1878 0.9822 -48.1797 98.7172)" class="st3" width="2" height="2.1"/>
			
				<rect x="496.7" y="306.8" transform="matrix(0.9822 -0.1878 0.1878 0.9822 -48.9541 98.9427)" class="st3" width="2" height="2.1"/>
			
				<rect x="496.8" y="311.1" transform="matrix(0.9822 -0.1878 0.1878 0.9822 -49.75 99.0873)" class="st3" width="2.7" height="2.1"/>
			
				<rect x="497.6" y="315.3" transform="matrix(0.9822 -0.1878 0.1878 0.9822 -50.5243 99.3128)" class="st3" width="2.7" height="2.1"/>
			
				<rect x="498.4" y="319.5" transform="matrix(0.9822 -0.1878 0.1878 0.9822 -51.2987 99.5383)" class="st3" width="2.7" height="2.1"/>
			
				<rect x="499.2" y="323.7" transform="matrix(0.9822 -0.1878 0.1878 0.9822 -52.073 99.7637)" class="st3" width="2.7" height="2.1"/>
			
				<rect x="500" y="327.9" transform="matrix(0.9822 -0.1878 0.1878 0.9822 -52.8487 99.9924)" class="st3" width="2.7" height="2.1"/>
			
				<rect x="500.8" y="332.1" transform="matrix(0.9822 -0.1878 0.1878 0.9822 -53.6217 100.2147)" class="st3" width="2.7" height="2.1"/>
			
				<rect x="501.6" y="336.3" transform="matrix(0.9822 -0.1878 0.1878 0.9822 -54.3961 100.4402)" class="st3" width="2.7" height="2.1"/>
			
				<rect x="502.4" y="340.5" transform="matrix(0.9822 -0.1878 0.1878 0.9822 -55.1702 100.665)" class="st3" width="2.7" height="2.1"/>
			
				<rect x="503.2" y="344.7" transform="matrix(0.9822 -0.1878 0.1878 0.9822 -55.9448 100.8911)" class="st3" width="2.7" height="2.1"/>
			
				<rect x="504" y="348.9" transform="matrix(0.9822 -0.1878 0.1878 0.9822 -56.7206 101.1198)" class="st3" width="2.7" height="2.1"/>
			
				<rect x="504.8" y="353.1" transform="matrix(0.9822 -0.1878 0.1878 0.9822 -57.4935 101.342)" class="st3" width="2.7" height="2.1"/>
			
				<rect x="505.6" y="357.3" transform="matrix(0.9822 -0.1878 0.1878 0.9822 -58.2678 101.5675)" class="st3" width="2.7" height="2.1"/>
			
				<rect x="506.4" y="361.5" transform="matrix(0.9822 -0.1878 0.1878 0.9822 -59.0422 101.793)" class="st3" width="2.7" height="2.1"/>
			
				<rect x="507.2" y="365.7" transform="matrix(0.9822 -0.1878 0.1878 0.9822 -59.8165 102.0185)" class="st3" width="2.7" height="2.1"/>
			
				<rect x="508" y="369.9" transform="matrix(0.9822 -0.1878 0.1878 0.9822 -60.5924 102.2472)" class="st3" width="2.7" height="2.1"/>
			
				<rect x="508.8" y="374.1" transform="matrix(0.9822 -0.1878 0.1878 0.9822 -61.3652 102.4694)" class="st3" width="2.7" height="2.1"/>
			
				<rect x="499.8" y="262.8" transform="matrix(0.9822 -0.1878 0.1878 0.9822 -40.2279 102.9417)" class="st4" width="46.9" height="2.1"/>
			
				<rect x="500.7" y="268.1" transform="matrix(0.9822 -0.1878 0.1878 0.9822 -41.3242 101.9513)" class="st4" width="33.6" height="2.1"/>
			
				<rect x="576.2" y="256.2" transform="matrix(0.9822 -0.1878 0.1878 0.9822 -38.0016 113.3632)" class="st4" width="6.2" height="2.1"/>
			
				<rect x="585.4" y="253.9" transform="matrix(0.9822 -0.1878 0.1878 0.9822 -37.3577 115.5745)" class="st5" width="11.9" height="2.1"/>
			
				<rect x="536.7" y="260.9" transform="matrix(0.9822 -0.1878 0.1878 0.9822 -39.3017 108.8965)" class="st6" width="36.9" height="2.1"/>
			
				<rect x="510.3" y="270.7" transform="matrix(0.9822 -0.1878 0.1878 0.9822 -41.6646 103.5557)" class="st4" width="30.9" height="2.1"/>
			
				<rect x="522.7" y="272.7" transform="matrix(0.9822 -0.1878 0.1878 0.9822 -41.8516 105.6877)" class="st4" width="28.4" height="2.1"/>
			
				<rect x="523.5" y="277.5" transform="matrix(0.9822 -0.1878 0.1878 0.9822 -42.8122 105.1625)" class="st4" width="20.2" height="2.1"/>
			
				<rect x="546.2" y="272.6" transform="matrix(0.9822 -0.1878 0.1878 0.9822 -41.4373 109.8845)" class="st6" width="26.2" height="2.1"/>
			
				<rect x="574.6" y="268.8" transform="matrix(0.9822 -0.1878 0.1878 0.9822 -40.3588 113.5897)" class="st5" width="9.5" height="2.1"/>
			
				<rect x="582.4" y="292.7" transform="matrix(0.9822 -0.1878 0.1878 0.9822 -44.7245 115.2405)" class="st5" width="7.1" height="2.1"/>
			
				<rect x="572.2" y="328.1" transform="matrix(0.9822 -0.1878 0.1878 0.9822 -51.5604 113.9512)" class="st5" width="7.1" height="2.1"/>
			
				<rect x="587" y="333.4" transform="matrix(0.9822 -0.1878 0.1878 0.9822 -52.2717 117.0575)" class="st5" width="9.5" height="2.1"/>
			
				<rect x="581" y="347.6" transform="matrix(0.9822 -0.1878 0.1878 0.9822 -55.091 115.6986)" class="st5" width="4.4" height="2.1"/>
			
				<rect x="550.4" y="323.9" transform="matrix(0.9822 -0.1878 0.1878 0.9822 -51.1695 109.7469)" class="st5" width="6.6" height="2.1"/>
			
				<rect x="562.9" y="308.7" transform="matrix(0.9822 -0.1878 0.1878 0.9822 -48.0649 112.0892)" class="st5" width="9.4" height="2.1"/>
			
				<rect x="544" y="287.2" transform="matrix(0.9822 -0.1878 0.1878 0.9822 -44.3606 108.1666)" class="st5" width="9.5" height="2.1"/>
			
				<rect x="524.2" y="280.8" transform="matrix(0.9822 -0.1878 0.1878 0.9822 -43.3407 106.121)" class="st4" width="28.4" height="2.1"/>
			
				<rect x="513.4" y="286.8" transform="matrix(0.9822 -0.1878 0.1878 0.9822 -44.6429 104.423)" class="st4" width="30.9" height="2.1"/>
			
				<rect x="546.7" y="282.1" transform="matrix(0.9822 -0.1878 0.1878 0.9822 -43.3321 108.9083)" class="st4" width="13" height="2.1"/>
			
				<rect x="514.2" y="291.2" transform="matrix(0.9822 -0.1878 0.1878 0.9822 -45.4849 104.3055)" class="st4" width="27.2" height="2.1"/>
			
				<rect x="506.2" y="297.6" transform="matrix(0.9822 -0.1878 0.1878 0.9822 -46.8897 102.2544)" class="st4" width="20.2" height="2.1"/>
			
				<rect x="562.7" y="279.6" transform="matrix(0.9822 -0.1878 0.1878 0.9822 -42.6151 111.3558)" class="st4" width="7.4" height="2.1"/>
			
				<rect x="506.9" y="300.7" transform="matrix(0.9822 -0.1878 0.1878 0.9822 -47.3878 103.3176)" class="st4" width="29.5" height="2.1"/>
			
				<rect x="516.6" y="303.7" transform="matrix(0.9822 -0.1878 0.1878 0.9822 -47.8373 104.5486)" class="st4" width="22.7" height="2.1"/>
			
				<rect x="541.5" y="299.4" transform="matrix(0.9822 -0.1878 0.1878 0.9822 -46.617 108.7394)" class="st6" width="18.3" height="2.1"/>
			
				<rect x="561.9" y="295.5" transform="matrix(0.9822 -0.1878 0.1878 0.9822 -45.5202 112.5055)" class="st6" width="18.3" height="2.1"/>
			
				<rect x="517.2" y="306.1" transform="matrix(0.9822 -0.1878 0.1878 0.9822 -48.1162 106.3638)" class="st4" width="40.3" height="2.1"/>
			
				<rect x="529.7" y="309.8" transform="matrix(0.9822 -0.1878 0.1878 0.9822 -48.7687 106.8967)" class="st4" width="20.2" height="2.1"/>
			
				<rect x="530.4" y="312.9" transform="matrix(0.9822 -0.1878 0.1878 0.9822 -49.2395 108.0541)" class="st4" width="30.6" height="2.1"/>
			
				<rect x="531.2" y="317.5" transform="matrix(0.9822 -0.1878 0.1878 0.9822 -50.1576 107.6756)" class="st4" width="24" height="2.1"/>
			
				<rect x="531.9" y="321" transform="matrix(0.9822 -0.1878 0.1878 0.9822 -50.7286 108.4876)" class="st4" width="30.6" height="2.1"/>
			
				<rect x="521.6" y="327.5" transform="matrix(0.9822 -0.1878 0.1878 0.9822 -52.1751 106.294)" class="st4" width="26.7" height="2.1"/>
			
				<rect x="553.3" y="337.7" transform="matrix(0.9822 -0.1878 0.1878 0.9822 -53.4748 112.9261)" class="st6" width="32" height="2.1"/>
			
				<rect x="513.9" y="337.6" transform="matrix(0.9822 -0.1878 0.1878 0.9822 -54.2174 104.8271)" class="st4" width="24.6" height="2.1"/>
			
				<rect x="535.5" y="331.1" transform="matrix(0.9822 -0.1878 0.1878 0.9822 -52.7915 106.9505)" class="st4" width="5.3" height="2.1"/>
			
				<rect x="514.6" y="341.1" transform="matrix(0.9822 -0.1878 0.1878 0.9822 -54.8121 105.5598)" class="st4" width="30.3" height="2.1"/>
			
				<rect x="570.4" y="349.2" transform="matrix(0.9822 -0.1878 0.1878 0.9822 -55.5543 114.1043)" class="st4" width="8.1" height="2.1"/>
			
				<rect x="552.6" y="352" transform="matrix(0.9822 -0.1878 0.1878 0.9822 -56.3162 111.49)" class="st6" width="15.5" height="2.1"/>
			
				<rect x="524.3" y="343.7" transform="matrix(0.9822 -0.1878 0.1878 0.9822 -55.1643 107.1239)" class="st4" width="27.2" height="2.1"/>
			
				<rect x="525" y="347.5" transform="matrix(0.9822 -0.1878 0.1878 0.9822 -55.8424 107.5686)" class="st4" width="29.7" height="2.1"/>
			
				<rect x="537.3" y="349.1" transform="matrix(0.9822 -0.1878 0.1878 0.9822 -55.9072 110.1203)" class="st4" width="31.9" height="2.1"/>
			
				<rect x="538.3" y="355" transform="matrix(0.9822 -0.1878 0.1878 0.9822 -57.1759 108.5385)" class="st4" width="12" height="2.1"/>
			
				<rect x="538.9" y="357.7" transform="matrix(0.9822 -0.1878 0.1878 0.9822 -57.5484 110.0313)" class="st4" width="26.1" height="2.1"/>
			
				<rect x="528.2" y="364.8" transform="matrix(0.9822 -0.1878 0.1878 0.9822 -59.1377 107.347)" class="st4" width="17.7" height="2.1"/>
			
				<rect x="543.5" y="333.1" transform="matrix(0.9822 -0.1878 0.1878 0.9822 -52.9695 109.1134)" class="st4" width="11.8" height="2.1"/>
			
				<rect x="557.9" y="330.4" transform="matrix(0.9822 -0.1878 0.1878 0.9822 -52.1985 111.7628)" class="st6" width="11.8" height="2.1"/>
			
				<rect x="528.9" y="367.6" transform="matrix(0.9822 -0.1878 0.1878 0.9822 -59.5332 108.7625)" class="st4" width="30.9" height="2.1"/>
			
				<rect x="563" y="363.1" transform="matrix(0.9822 -0.1878 0.1878 0.9822 -58.2847 113.052)" class="st4" width="9.1" height="2.1"/>
		</g>
		<path class="st7" d="M625.3,237.2l-151.6,29l-0.8-4.3c-0.3-1.5,0.7-2.9,2.2-3.2l146.2-27.9c1.5-0.3,2.9,0.7,3.2,2.2L625.3,237.2z"
			/>
		
			<ellipse transform="matrix(0.1438 -0.9896 0.9896 0.1438 152.4293 698.833)" class="st8" cx="480.1" cy="261.3" rx="2.1" ry="2.1"/>
		<path class="st8" d="M485.2,260.4c-0.2-1.1,0.5-2.2,1.7-2.5c1.1-0.2,2.2,0.5,2.5,1.7c0.2,1.1-0.5,2.2-1.7,2.5
			C486.5,262.2,485.4,261.5,485.2,260.4z"/>
		
			<ellipse transform="matrix(0.1838 -0.983 0.983 0.1838 149.3527 697.0422)" class="st8" cx="494.4" cy="258.6" rx="2.1" ry="2.1"/>
	</g>
	<g>
		<path class="st12" d="M744.7,246.6L659,263c-2.1,0.4-4.2-1-4.6-3.1l-12.9-67.3c-0.4-2.1,1-4.2,3.1-4.6l85.7-16.4
			c2.1-0.4,4.2,1,4.6,3.1l12.9,67.3C748.2,244.2,746.8,246.2,744.7,246.6z"/>
		<circle class="st6" cx="691" cy="198.3" r="10.6"/>
		
			<rect x="671.9" y="214.3" transform="matrix(0.9822 -0.1878 0.1878 0.9822 -28.4822 134.318)" class="st6" width="45.5" height="6.3"/>
		
			<rect x="674.1" y="225.4" transform="matrix(0.9822 -0.1878 0.1878 0.9822 -30.5158 134.9102)" class="st6" width="45.5" height="6.3"/>
		<path class="st5" d="M692.7,242.2l13.1-2.5c1.7-0.3,3.4,0.8,3.7,2.5v0c0.3,1.7-0.8,3.4-2.5,3.7l-13.1,2.5
			c-1.7,0.3-3.4-0.8-3.7-2.5v0C689.8,244.2,690.9,242.6,692.7,242.2z"/>
	</g>
	<g>
		<g>
			<line class="st13" x1="514.8" y1="469" x2="514.1" y2="469.1"/>
			<path class="st14" d="M516.6,469.4l-43.7,7.6c-3.4,0.6-6.6-1.6-7.3-4.9l-1.8-9.5"/>
			<line class="st13" x1="463.6" y1="461.8" x2="463.4" y2="461"/>
		</g>
	</g>
	<line class="st15" x1="321.9" y1="424.3" x2="387.3" y2="411.8"/>
	<line class="st15" x1="517.4" y1="52" x2="452.1" y2="64.5"/>
	<path class="st15" d="M259.4,436.2l-13.3,2.5c-3.4,0.6-5.6,3.9-4.9,7.3l2,10.3c0.6,3.4-1.6,6.6-4.9,7.3L162.9,478
		c-3.4,0.6-6.6-1.6-7.3-4.9l-17.4-90.8"/>
	<g>
		<polyline class="st13" points="284,446.1 292.4,451.8 356.7,439.5 		"/>
		
			<ellipse transform="matrix(0.5618 -0.8273 0.8273 0.5618 -244.5052 429.5576)" class="st13" cx="283.2" cy="445.6" rx="1" ry="1"/>
	</g>
	<g>
		<polyline class="st13" points="561.9,233.3 553.5,227.5 489.2,239.8 		"/>
		<path class="st13" d="M563.7,233.6c-0.1-0.5-0.6-0.9-1.2-0.8c-0.5,0.1-0.9,0.6-0.8,1.2s0.6,0.9,1.2,0.8
			C563.4,234.7,563.8,234.2,563.7,233.6z"/>
	</g>
	
		<ellipse transform="matrix(0.3288 -0.9444 0.9444 0.3288 -309.6997 505.6405)" class="st5" cx="200.9" cy="470.7" rx="4.6" ry="4.6"/>
	<g>
		<path class="st8" d="M704.6,204.9l-80.9,15.5c-1.5,0.3-3-0.7-3.3-2.3l-20.9-109.3c-0.3-1.5,0.7-3,2.3-3.3L682.7,90
			c1.5-0.3,3,0.7,3.3,2.3l20.9,109.3C707.2,203.1,706.2,204.6,704.6,204.9z"/>
		
			<rect x="611.6" y="110.3" transform="matrix(0.9822 -0.1878 0.1878 0.9822 -11.319 118.6132)" class="st6" width="17.5" height="17.5"/>
		
			<rect x="636.7" y="106.5" transform="matrix(0.9822 -0.1878 0.1878 0.9822 -8.723 123.5827)" class="st6" width="22.4" height="2.6"/>
		
			<rect x="638.8" y="116.9" transform="matrix(0.9822 -0.1878 0.1878 0.9822 -10.5586 124.8581)" class="st6" width="30" height="2.6"/>
		
			<rect x="665.2" y="102" transform="matrix(0.9822 -0.1878 0.1878 0.9822 -7.453 127.9447)" class="st6" width="12.7" height="2.6"/>
		
			<rect x="656.7" y="108.5" transform="matrix(-0.9822 0.1878 -0.1878 -0.9822 1344.4716 92.1194)" class="st6" width="22.4" height="2.6"/>
		
			<rect x="637.9" y="113" transform="matrix(-0.9822 0.1878 -0.1878 -0.9822 1298.4323 105.5252)" class="st6" width="12.7" height="2.6"/>
		
			<rect x="616.7" y="136.8" transform="matrix(0.9822 -0.1878 0.1878 0.9822 -16.2161 120.0397)" class="st6" width="17.5" height="17.5"/>
		
			<rect x="641.8" y="133.1" transform="matrix(0.9822 -0.1878 0.1878 0.9822 -13.6201 125.0086)" class="st6" width="22.4" height="2.6"/>
		
			<rect x="643.8" y="143.4" transform="matrix(0.9822 -0.1878 0.1878 0.9822 -15.4557 126.2841)" class="st6" width="30" height="2.6"/>
		
			<rect x="670.3" y="128.6" transform="matrix(0.9822 -0.1878 0.1878 0.9822 -12.3502 129.3698)" class="st6" width="12.7" height="2.6"/>
		
			<rect x="661.7" y="135" transform="matrix(-0.9822 0.1878 -0.1878 -0.9822 1359.5242 143.8152)" class="st6" width="22.4" height="2.6"/>
		
			<rect x="642.9" y="139.5" transform="matrix(-0.9822 0.1878 -0.1878 -0.9822 1313.4847 157.2211)" class="st6" width="12.7" height="2.6"/>
		
			<rect x="621.8" y="163.4" transform="matrix(0.9822 -0.1878 0.1878 0.9822 -21.1132 121.4649)" class="st6" width="17.5" height="17.5"/>
		
			<rect x="646.9" y="159.7" transform="matrix(0.9822 -0.1878 0.1878 0.9822 -18.5172 126.4351)" class="st6" width="22.4" height="2.6"/>
		
			<rect x="648.9" y="170" transform="matrix(0.9822 -0.1878 0.1878 0.9822 -20.3528 127.7096)" class="st6" width="30" height="2.6"/>
		
			<rect x="675.4" y="155.1" transform="matrix(0.9822 -0.1878 0.1878 0.9822 -17.2473 130.7957)" class="st6" width="12.7" height="2.6"/>
		
			<rect x="666.8" y="161.6" transform="matrix(-0.9822 0.1878 -0.1878 -0.9822 1374.5768 195.5111)" class="st6" width="22.4" height="2.6"/>
		
			<rect x="648" y="166.1" transform="matrix(-0.9822 0.1878 -0.1878 -0.9822 1328.5375 208.9162)" class="st6" width="12.7" height="2.6"/>
		
			<rect x="626.9" y="190" transform="matrix(0.9822 -0.1878 0.1878 0.9822 -26.0104 122.8916)" class="st6" width="17.5" height="17.5"/>
		
			<rect x="652" y="186.2" transform="matrix(0.9822 -0.1878 0.1878 0.9822 -23.4143 127.8605)" class="st6" width="22.4" height="2.6"/>
		
			<rect x="654" y="196.6" transform="matrix(0.9822 -0.1878 0.1878 0.9822 -25.2499 129.1359)" class="st6" width="30" height="2.6"/>
		
			<rect x="680.5" y="181.7" transform="matrix(0.9822 -0.1878 0.1878 0.9822 -22.1444 132.2216)" class="st6" width="12.7" height="2.6"/>
		
			<rect x="671.9" y="188.1" transform="matrix(-0.9822 0.1878 -0.1878 -0.9822 1389.6294 247.2071)" class="st6" width="22.4" height="2.6"/>
		
			<rect x="653.1" y="192.7" transform="matrix(-0.9822 0.1878 -0.1878 -0.9822 1343.59 260.6129)" class="st6" width="12.7" height="2.6"/>
	</g>
	<g>
		<path class="st8" d="M493.6,441.3l-82.8,15.8c-1.4,0.3-2.8-0.7-3-2.1L386,341c-0.3-1.4,0.7-2.8,2.1-3l82.8-15.8
			c1.4-0.3,2.8,0.7,3,2.1l21.8,114.1C495.9,439.7,495,441,493.6,441.3z"/>
		
			<rect x="401.1" y="340.2" transform="matrix(0.9822 -0.1878 0.1878 0.9822 -56.6515 87.1757)" class="st4" width="61.5" height="4.8"/>
		
			<rect x="403.3" y="353.8" transform="matrix(0.9822 -0.1878 0.1878 0.9822 -59.5155 84.0365)" class="st4" width="21" height="4.8"/>
		
			<rect x="428.5" y="347.5" transform="matrix(0.9822 -0.1878 0.1878 0.9822 -57.7691 90.0341)" class="st4" width="35.7" height="4.8"/>
		
			<rect x="404.9" y="362" transform="matrix(0.9822 -0.1878 0.1878 0.9822 -60.9505 85.3374)" class="st4" width="30" height="4.8"/>
		
			<rect x="410.2" y="389.4" transform="matrix(0.9822 -0.1878 0.1878 0.9822 -66.0091 86.8101)" class="st4" width="30" height="4.8"/>
		
			<rect x="438.7" y="355.8" transform="matrix(0.9822 -0.1878 0.1878 0.9822 -59.216 91.293)" class="st4" width="27.2" height="4.8"/>
		
			<rect x="448.2" y="373.1" transform="matrix(-0.9822 0.1878 -0.1878 -0.9822 979.6934 658.097)" class="st4" width="21" height="4.8"/>
		
			<rect x="408.3" y="379.3" transform="matrix(-0.9822 0.1878 -0.1878 -0.9822 916.3802 676.5322)" class="st4" width="35.7" height="4.8"/>
		
			<rect x="437.5" y="364.8" transform="matrix(-0.9822 0.1878 -0.1878 -0.9822 965.963 642.9496)" class="st4" width="30" height="4.8"/>
		
			<rect x="406.6" y="371" transform="matrix(-0.9822 0.1878 -0.1878 -0.9822 903.0881 661.2573)" class="st4" width="27.2" height="4.8"/>
		<path class="st4" d="M487.1,406l-0.8,0.2c-0.4,0.1-0.8-0.2-0.9-0.6l-9.3-48.7c-0.1-0.4,0.2-0.8,0.6-0.9l0.8-0.2
			c0.4-0.1,0.8,0.2,0.9,0.6l9.3,48.7C487.8,405.5,487.5,405.9,487.1,406z"/>
	</g>
</g>
</svg>
