<?xml version="1.0" encoding="utf-8"?>
<!-- Generator: Adobe Illustrator 27.3.1, SVG Export Plug-In . SVG Version: 6.00 Build 0)  -->
<svg version="1.1" id="Layer_1" xmlns="http://www.w3.org/2000/svg" xmlns:xlink="http://www.w3.org/1999/xlink" x="0px" y="0px"
	 viewBox="0 0 184 112.3" style="enable-background:new 0 0 184 112.3;" xml:space="preserve">
<style type="text/css">
	.st0{fill:#00A3C8;}
	.st1{fill:#FFFFFF;}
	.st2{fill:#2B100E;}
	.st3{fill:#871719;}
	.st4{opacity:0.5;fill:url(#SVGID_1_);enable-background:new    ;}
	.st5{fill:#DAA193;}
	.st6{opacity:0.5;fill:url(#SVGID_00000006709636561401683530000008014670551412748723_);enable-background:new    ;}
	.st7{opacity:0.3;fill:#FFFFFF;enable-background:new    ;}
	.st8{fill:#F6B463;}
	.st9{opacity:0.3;fill:#A9CDDF;enable-background:new    ;}
	.st10{fill:#68160F;}
	.st11{opacity:0.2;}
	.st12{fill:#6C919E;}
	.st13{opacity:0.5;fill:#FFFFFF;enable-background:new    ;}
	.st14{fill:#B3D45E;}
</style>
<path class="st0" d="M182,49.6c-0.4-0.3-0.3-0.8-0.3-1.5s-0.2-0.6-0.3-0.6c-0.1-0.1-0.2-0.8-0.2-1.3s-0.8-0.5-1.3-1s1.4-1.1,1.7-1.2
	c0.3-0.1,0.1-1,0-1.7c-0.1-0.5,0.1-1.4,0.3-1.4c0.1-0.3,0.1-0.4,0.1-0.5c0.1-0.4,0.7-1.1,0.6-1.6c-0.1-0.5-1.2-0.4-1.5-0.3
	c-0.3,0.1-0.4-1-0.3-2c0.1-0.9-0.6-1.7-1.1-2.1c-0.5-0.5-1.4-0.5-2-1s-0.5-2.5-0.6-3.2c-0.1-0.6-0.9-0.5-1.1-0.7
	c-0.3-0.2-0.3-0.6-0.4-1.2c0-0.6-1-0.6-1.3-0.8c-0.3-0.1-0.2-0.6,0-1s0.2-2.5,0.4-3.2c0.1-0.7,1.1-2.2,1.5-2.6
	c0.4-0.4-0.3-1.3-0.9-3.7c-0.6-2.4-1.6-3-1.9-3.2c-0.4-0.2-1.3,0.6-1.9,0.6c-0.6,0.1-0.8-0.6-1.2-0.9c-0.4-0.3-1.1,0.2-1.4,0.2
	c-0.3,0-0.5-1.1-0.9-1.7c-0.3-0.6-0.9,0.4-1.4,0.3c-0.4-0.1-0.7-0.4-1.1-0.6c-0.4-0.2-0.9,0.1-1,0.3c-0.2,0.2-0.4,0-1.3-0.2
	c-0.9-0.1-0.5,1.7-1.3,2.4c-0.8,0.6-4.3,0.5-5.1,0.3c-0.8-0.3-1.7,0.3-2.4,0c-0.8-0.3-5.5-3.2-6.4-3.6c-0.9-0.4-1.4,0.5-1.9,0.8
	c-0.6,0.3-1.4-0.6-2.2-1.1c-0.6-0.6-2.5-0.6-2.5-0.6c-0.6-2.3-2.1-1.3-2.7-1.7c-0.6-0.4-2.6-0.5-3.1-0.5s-0.5,0.3-0.6,1
	c-0.1,0.8-0.9,0.1-1.4,0.4c-0.5,0.4-0.5-0.3-0.4-0.9s-0.9-0.8-1.6-0.8c-0.7-0.1-1.8-0.3-3.1-0.4c-1.3-0.2-0.3,5.5-0.3,6.5
	c0,0.9,0.9,3-0.8,2.4s-2.8,0.5-3,1.4c-0.3,0.8-1,1.5-1.6,2.5s-0.3,2.8-0.4,3.5s-1.3-1.6-2-1.6s-0.8,0.7-1.4,0.9c-0.7,0.2-1-1-2-1
	s-0.8,1.8-1,1.9c-0.3,0.2-1.3,0.9-1.5,1.5c-0.3,0.5-0.6-0.5-1.5-0.6s-1.7-0.4-2.4-0.7c-0.7-0.4-2.8-0.3-3.2-0.4
	c-0.4-0.1-0.1-1.2,0.2-1.8c0.4-0.5-1.1-1.4-1.4-1.9s-1-0.1-1.7-0.8s-1.3-0.6-2.3-1.1s-0.5,1-1.4,1.6s0.1,1,0.6,1.1s-0.3,1.1-0.3,1.3
	c0,0.2,0.8,1.8,0.2,2.1c-0.5,0.4,0,1.2-1,1.6s-0.7,1.5-1,1.7s-1.3-0.9-1.4-1.1c-0.1-0.3-0.9-0.4-1.5-0.4s-0.8-0.5-1.4-0.5
	s-1.6,0.4-2.1,0.5c-0.5,0.2-0.4,1.3,0.1,1.6c0.4,0.3,0.5,1-0.1,1.4c-0.5,0.4-0.3,1.7-0.3,2.6c0,0.9-2.1,3.3-2.8,4.1
	c-0.6,0.8-1.8,0.5-2.7,0.5c-0.9,0-1.4,0.5-1.8,0.9s-1.3,0.5-1.9,0.5s-1.3,2.1-2.1,2.1c-0.8,0-2.1,0.3-1.9,1c0,0.1,0,0.2,0,0.5
	c-0.1,0.3-0.8,1.3-1.4,1.5c-0.8,0.3-0.3,0.9-0.3,2.3s1.6,0.2,2.3,2.1c0.7,1.9,0.7,1.5,1.6,2.3s1,2.1,1.9,3s-0.9,2.2-1.3,2.8
	c-0.4,0.5-0.4,1.4-0.5,2.5s2.3,0.2,2.6-0.1c0.3-0.3,0.8,0.7,1.5,1.4s0.6,1.5,0.1,1.7s0.3,1-0.3,1.2c-0.6,0.2-0.1,0.7-0.3,1
	c-0.2,0.3-0.1,1.6,0.3,2.3c0.4,0.6-0.7,0.1-1.6,0.6s-1.8-0.8-1.9-0.9c-0.1-0.1-0.9-1.1-1.6-1.2c-0.8-0.1-1.1-0.7-1.3-1.3
	c-0.2-0.6,0.8-0.8,1-1.4c0.2-0.6-0.6-0.5-1.2-1c-0.6-0.4-0.8-1-1-1.2c-0.3-0.2-2.8,0.4-3.3,0.5c-0.4,0-1.6,1-2,1.4s-1.5-1.5-2-2.1
	s-1.8,0.3-2.2,0.1c-0.4-0.1-1.4,0.4-2.2,0.3c-0.8-0.1,0.6-1,0.1-1.4c-0.5-0.3-2.2,0.4-2.1,1.1c0.1,0.8,0.6,2.6,0.6,3.2
	c0,0.5-5.2,0.1-6,0.2c-0.9,0.1-2.1,0.7-2.3,1.1c-0.2,0.4-5.2,0.1-5.5,0.1c-0.3,0.1-1.4,1.5-1.2,2.3s-1.2,0.5-2.3,0.4
	s-1.7,0.3-1.7,0.9c0,0.5-0.5,0.8-0.1,1.1S44.9,68,44.5,68c-0.4,0-1.3,1.8-1.7,1.8s-0.5,0-0.3-0.5c0.3-0.4-0.8-0.3-1.2-0.7
	c-0.5-0.4-2,0.6-2.2,1.4c0,0.1-0.1-0.1-0.1,0.2c-0.5,0.3-2.7,0.2-3,0.2c-0.1,0-0.2-0.2-0.2-0.2H23.1c-0.3,0.3-0.8,0.5-1.1,0.7
	c-0.5,0.3-1,0.2-0.8,1.1c0.2,1-1,1.3-1.4,1.7c-0.4,0.4-0.4,0.1-1.1,0.5c-0.8,0.4-0.5,0.3-1.4,0.4s0.2-0.8,0.1-1.2
	c0-0.4-0.2-0.4,0.3-1.4c0.4-1-0.6-1.3-1.1-1.3s-0.9,0.8-1.6,0.8c-0.6,0-0.5-1-0.5-1.3H3.4C3.6,70.5,3.9,71,4,71.3
	C4.2,72,3.3,71.8,2.6,72S1,74.6,0.4,75.2s0.4,1.5,0.9,1.9c0.5,0.5,0.2,1,0.2,1.6c0,0.7,0.5,1.1,1,1.5c0.6,0.4-0.1,1.6-0.1,2.8
	c-0.1,1.2,2.3,0.1,2.5,0.5c0.2,0.4,2.4,1.2,3.7,1.4c1.2,0.2,0.2,0.3,0,2c-0.1,1.8,0.6,0.3,1,1s0.6,0.7,1.7,0.9s1.7,0.1,1.8,1
	s1,0.4,1.4,0.9s1.5,0.5,2.3,0.2s0.9-0.8,1.4-0.8s0.4-1,0.4-1.6s0.4-0.5,0.7-0.3c0.3,0.1,0.6-0.3,1.1-0.4s0.9-1.8,1.1-2
	s0.8-0.1,1.1,0.1c0.3,0.3,0.7,1.4,1.1,1.5s0.5,0.9-0.1,1.5c-0.5,0.7,0.2,1.4,1.4,1.6c1.2,0.3,2-0.1,2.6-0.6s1.4-0.4,1.7,0.1
	c0.3,0.4,1,0.6,1.3,0.6s0,0.5-0.4,1.1s0.4,0.5,1.9,0.9c1.5,0.4,1.1,1.3,2.4,0.7c1.2-0.6,1.7-0.3,3-0.2c1.3,0.1,0-0.7,0.8-1.4
	c0.8-0.7,0.9-1,0.9-1.6c-0.1-0.6,0.5-0.4,0.5-1.4c-0.1-1,0.8-1.8,1-2.1c0.2-0.3,0.5-1.1,1.3-0.9s2.1-0.3,2.4-0.7
	c0.3-0.4,1.5,0.4,2.4,0.6c1,0.3,1.3-1.1,2-1.4c0.6-0.3,0.9,0.6,1.3,0.6c0.4,0,1.5-0.7,2.1-0.8c0.5-0.1,1,0.3,2,0.9s1.5,0.2,1.8-0.2
	c0.3-0.4,0.4-0.3,1.3-0.3c0.9,0,3.1-1.9,3.8-2s1.4-0.1,2.3-0.9c0.9-0.8,2.3-1,2.8-0.8s-0.1,1.1-0.4,1.4c-0.4,0.3-1.6,0.4-1.7,2.2
	c-0.1,1.8,0.8,0.1,1,1.8c0.3,1.6,1.7,1.4,2.8,1.9c1.1,0.5,0.7,1.9,0.3,3.1c-0.4,1.3,1.5,0.6,1.9,0.5s0.6,0.1,0.5,1.3
	c-0.1,1.2,1.5,1.1,3.5,2.2s5.5,0.7,6.1,0.8c0.6,0.1,1.1,0.4,2,1.1s3.8,0.5,6.2,0.6c2.4,0.1,2.6,0.9,4.5,1.2c1.9,0.3,3-0.9,3.3-1
	s1,0.7,1.2,0.7s0.5-0.3,0.8-0.4s0.5,0.3,0.7,0.4c0.1,0.1,0.5-0.3,0.9-0.5c0.3-0.1,0.4,0.9,0.7,1.2c0.3,0.3,0.8-0.4,1-0.6
	c0.1-0.3,0.9,0.1,1.7,0.6c0.8,0.5,2.6,0.5,3.1,0.6s1.2-0.9,2.2-0.9c1,0.1,1.4,0.7,1.9,0.9c0.5,0.3,2.9,0.3,3.2,0.3
	c0.4,0,0.5,0.4,0.5,1s0.9,0.3,1.6,0.5c0.7,0.1,1.5,0.1,2-0.2c0.5-0.3,0.9,0.4,1.3,0.3c0.4,0,1.8-0.7,2.3-0.8c0.5-0.1,0.6,0.5,1,0.9
	c0.5,0.5,1,0.4,1.3,0.2c0.3-0.1,1,1.1,1.5,1.1s0.8-1.1,0.7-1.8c0-0.6,0.5-0.5,1-0.5s0.9-0.8,1.3-1c0.4-0.2,0.6-1,0.9-1.5
	c0.3-0.5,1.2-0.2,1.9-0.4c0.7-0.2,0.5-1.7,0.9-3.1s1.3-0.6,1.5-0.6s0.4-0.8,0.7-0.9s0.6,0.9,1,0.9c0.5,0,0.7-1.2,1.1-1.5
	c0.4-0.3,2.5-0.6,3-0.6s2.1,0.3,2.6,0.3s2.2-0.5,3.1-0.6c0.9-0.1,1.1,0.9,2.1,1c1.1,0.1,1.6-0.3,1.9-1.1c0.2-0.9,0.3-1.1,0.5-1.2
	c0.3,0,0.7,0,1.2,0s0.3-0.2,0.5-0.7s0.5-0.4,1-0.1c0.5,0.2,1-0.2,1.4-0.2s1-0.6,1.7-0.8c0.7-0.2,1.5-0.3,1.6-0.2
	c0.1,0.1,1.8,1,2.3,1.1s1.1,0.9,1.6,0.9s0.4-1.1,0.2-1.9s-0.8-1.1-1.4-1.3c-0.6-0.2-0.3-1.8-0.4-2.3c-0.1-0.5,0.5-0.8,0.8-1.2
	c0.4-0.4,1.5-1.1,2-1.1s1.5-1.8,1.7-2.3c0.1-0.6,0.4-0.6,0.8-0.6c0.4,0,1.1-1.4,1.3-2.3c0.3-0.9,1.1-0.7,2-0.4
	c0.9,0.3,3.1-0.1,3.4-0.7c0.3-0.6-0.8-0.8-1-1s0.9-0.8,0.9-1.3s-0.5-0.3-1-0.5c-0.4-0.3,0.1-0.7,0.5-1.1s0.5-0.9,0.5-1.3
	s-1.5,0.2-1.9,0.2s0.2-0.6,0.1-1c-0.1-0.3-0.4-0.4-0.6-0.4c0-0.3-0.1-0.1-0.1-0.2c-0.3-0.3,0.1-0.8,0.3-1.1c0.2-0.3-0.5-1.9-0.1-2.3
	c0.4-0.3,0.3-1.7,0.2-2s-0.5-0.3-0.6-0.6c-0.1-0.4-0.1-1.6,0.1-1.8c0.2-0.2,0.6,0.7,0.9,0.7c0.3,0,0.6-0.3,0.7-0.5
	c0.1-0.3,0.7-0.3,1.2-0.3s1.6-1.6,2.1-2.1c0.6-0.5-0.3-1-0.3-1.3s1-0.5,1.3-1.1c0.2-0.7-0.9-1.1-1-1.7c-0.1-0.6-0.3-1-0.6-1.7
	c-0.4-0.7-1.2,0.3-1.4,0.3s-1.4-0.7-1.8-0.8c-0.4-0.1-2.1-0.2-2.2-0.7c-0.1-0.5,0.7-0.3,1.1-0.6c0.4-0.3,1.1-1,1.3-1.2
	s-0.1-0.6,0-1.1s0.8-0.2,1-0.2s0.3-0.2,0.5-0.3s0.5,0.1,0.8,0.3c0.3,0.1,1.5,0.1,2.2,1.2c0.7,1.1,2.3,0.9,2.6,1
	c0.4,0.1,0.3-1.4,0.5-1.4s0.3,0.4,0.4,0.5c0.1,0.1,1,0.1,1.6,0s2.9-0.7,3.3-0.6C182.4,50.7,182.4,49.9,182,49.6z"/>
<g>
	<path class="st1" d="M107.8,36.6c-15.5,0-28,12.6-28,28s12.6,28,28,28s28-12.6,28-28S123.3,36.6,107.8,36.6z"/>
</g>
<g>
	<g>
		<path class="st2" d="M111.9,53.6c0,0.5-0.3,1.3-1.3,2.1c-0.9,0.7-1.7,1.5-1.8,3.4c0,1.8,0,5.8,0,7.3s0,7.6,0,9.1
			c0,1.4,0,8.5,0,9.2s-0.1,2.6,1,2.9c0.6,0.1,1.4,0.2,2.1,0.3c0.8,0.1,2.2,0.1,2.2,0.1s1.4,0,2.2-0.1c0.8,0,1.6-0.2,2.1-0.3
			c1.1-0.3,1-2.2,1-2.9c0-0.7,0-7.7,0-9.2c0-1.4,0-7.5,0-9.1c0-1.5,0-5.5,0-7.3s-0.8-2.6-1.8-3.4c-0.9-0.7-1.2-1.5-1.3-2.1
			c0-0.3-0.1-1.3-0.1-2.4H112C112,52.2,111.9,53.3,111.9,53.6z"/>
		<path class="st3" d="M116.2,42.3c0,0,0-0.2,0-0.3s0-0.2-0.1-0.3s-0.6-0.2-0.8-0.2c-0.2,0-0.9,0-1.2,0c-0.2,0-1,0-1.2,0
			s-0.6,0.1-0.8,0.2c-0.1,0.1-0.1,0.2-0.1,0.3s0,0.3,0,0.3c0.4-0.1,1.2-0.1,2-0.1C115,42.2,115.8,42.2,116.2,42.3z"/>
		<path class="st3" d="M112,42.4c0.4-0.1,1.2-0.1,2.2-0.1c0.9,0,1.7,0,2.2,0.1l-0.1-0.1l0,0c-0.4-0.1-1.2-0.1-2-0.1s-1.6,0-2,0.1
			l0,0L112,42.4z"/>
		<path class="st3" d="M116.3,42.4c-0.4-0.1-1.2-0.1-2.2-0.1c-0.9,0-1.7,0-2.2,0.1l0,0v0.2v0.8c0.4-0.1,1.2-0.1,2.2-0.1
			c0.9,0,1.8,0,2.2,0.1v-0.8V42.4L116.3,42.4z"/>
		<path class="st3" d="M112.1,43.6L112.1,43.6L112.1,43.6z"/>
		<path class="st3" d="M116.2,43.6l0.1-0.2L116.2,43.6z"/>
		<path class="st3" d="M112,43.4L112,43.4l0.1,0.2l0,0c0.4-0.1,1.2-0.1,2-0.1s1.6,0,2,0.1l0.1-0.1l0,0c-0.4-0.1-1.2-0.1-2.2-0.1
			C113.2,43.3,112.4,43.3,112,43.4z"/>
		
			<linearGradient id="SVGID_1_" gradientUnits="userSpaceOnUse" x1="112" y1="70.5375" x2="116.3462" y2="70.5375" gradientTransform="matrix(1 0 0 -1 0 114)">
			<stop  offset="0" style="stop-color:#943A3F"/>
			<stop  offset="2.551013e-02" style="stop-color:#92393E"/>
			<stop  offset="1" style="stop-color:#4C2629"/>
		</linearGradient>
		<path class="st4" d="M112,43.4L112,43.4l0.1,0.2l0,0c0.4-0.1,1.2-0.1,2-0.1s1.6,0,2,0.1l0.1-0.1l0,0c-0.4-0.1-1.2-0.1-2.2-0.1
			C113.2,43.3,112.4,43.3,112,43.4z"/>
		<path class="st3" d="M114.2,43.7c0.8,0,1.6,0,2-0.1c0-0.1,0-0.1,0-0.1l0,0c-0.4-0.1-1.2-0.1-2-0.1s-1.6,0-2,0.1c0,0,0,0,0,0.1
			C112.6,43.7,113.3,43.7,114.2,43.7z"/>
		<path class="st3" d="M116.3,49.2c0-0.6-0.1-2.9-0.1-3.5c0-0.5,0-1.9,0-2.1l0,0l0,0c-0.4-0.1-1.2-0.1-2-0.1s-1.6,0-2,0.1
			c0,0,0,1.6,0,2.2c0,0.6,0,2.9-0.1,3.5c0,0.3,0,1.1-0.1,2h4.3C116.3,50.3,116.3,49.5,116.3,49.2z"/>
		<path class="st5" d="M112,51.2L112,51.2h4.3l0,0H112z"/>
		<path class="st5" d="M113.3,43.5c-0.3,0-0.6,0-0.8,0v7.7h0.8V43.5z"/>
		<path class="st5" d="M112.3,43.4c0.2,0,0.5,0,0.8-0.1v-1c-0.3,0-0.6,0-0.8,0.1V43.4z"/>
		<path class="st5" d="M113.3,42.2v-0.7c-0.1,0-0.2,0-0.3,0c-0.1,0-0.1,0-0.2,0c-0.2,0.1-0.3,0.2-0.3,0.4v0.3
			C112.7,42.2,113,42.2,113.3,42.2z"/>
		
			<linearGradient id="SVGID_00000085242157717408932450000004876359584014294409_" gradientUnits="userSpaceOnUse" x1="112.3298" y1="70.55" x2="113.3172" y2="70.55" gradientTransform="matrix(1 0 0 -1 0 114)">
			<stop  offset="0" style="stop-color:#943A3F"/>
			<stop  offset="2.551013e-02" style="stop-color:#92393E"/>
			<stop  offset="1" style="stop-color:#4C2629"/>
		</linearGradient>
		<path style="opacity:0.5;fill:url(#SVGID_00000085242157717408932450000004876359584014294409_);enable-background:new    ;" d="
			M113.3,43.5l-0.2-0.2l0,0c-0.3,0-0.6,0-0.8,0.1l0,0l0.2,0.2l0,0C112.7,43.5,113,43.5,113.3,43.5L113.3,43.5z"/>
		<path class="st7" d="M112.3,54.3c0,0.5,1.3,0.3,1.5-0.3c0,0,0-1.9,0-2.7h-1.4C112.4,52.4,112.3,53.8,112.3,54.3z"/>
		<path class="st8" d="M118.2,72.9c0-0.5,0-3.8,0-4.3s0.1-2-0.7-2.2c-0.4-0.1-1-0.2-1.7-0.2c-0.1,0-0.2,0-0.3,0c0-0.1,0-0.1,0-0.2
			c0-0.8-0.7-1.5-1.5-1.5s-1.5,0.7-1.5,1.5c0,0.1,0,0.1,0,0.2c-0.1,0-0.2,0-0.3,0c-0.6,0-1.2,0.1-1.7,0.2c-0.9,0.2-0.7,1.7-0.7,2.2
			s0,3.8,0,4.3s-0.1,2,0.7,2.2c0.4,0.1,1,0.2,1.7,0.2c0.6,0,1.7,0,1.7,0s1.1,0,1.7,0s1.2-0.1,1.7-0.2
			C118.3,74.9,118.2,73.4,118.2,72.9z"/>
		<path class="st7" d="M112.9,59.7c0-0.7,0.2-1.9,0.2-1.9s-0.1-0.3-0.8-0.6c-0.8-0.3-1.3-0.2-1.3-0.2s0,0-0.1,0.1l0,0
			c0,0,0,0-0.1,0.1l0,0c0,0,0,0-0.1,0.1l0,0c0,0,0,0,0,0.1c-0.1,0.1-0.1,0.1-0.2,0.2l0,0c0,0,0,0.1-0.1,0.1l0,0c0,0,0,0.1-0.1,0.1
			c0,0,0,0,0,0.1c0,0,0,0.1-0.1,0.1c0,0,0,0,0,0.1c0,0,0,0.1-0.1,0.1c0,0,0,0,0,0.1v0.1v0.1v0.1v0.1c0,0,0,0.1,0,0.2V59
			c0,0.1,0,0.1,0,0.2v0.1c0,0.1,0,0.1,0,0.2v0.1c0,0.1,0,0.2,0,0.3c0,1.7,0,25.7,0,26.2v0.1v0.1l0,0v0.1l0,0v0.1l0,0
			c0,0.3,0.2,0.7,0.6,1.1c0.1,0,0.2,0,0.4,0.1c0.4,0.1,0.8,0.1,1.2,0.1c0.3,0,0.6,0,0.9,0c0-2.5-0.2-22.9-0.2-24.1
			C112.9,62.5,112.9,60.4,112.9,59.7z"/>
	</g>
	<g>
		<path class="st9" d="M104.1,71.6L104.1,71.6c0-0.1,0-0.1,0-0.2l0,0c0-1.5-0.3-3.3-0.4-3.8c-0.1-0.6-0.6-2.9-0.8-3.8
			c-0.1-0.3-0.1-0.4-0.1-0.4s-0.1,0-0.3,0c-0.6,0-1.8,0-3.1,0c-1.4,0-2.6,0-3.1,0c-0.2,0-0.3,0-0.3,0l0,0c0,0,0,0.2-0.1,0.4
			c-0.2,1-0.7,3.3-0.8,3.8c-0.1,0.5-0.5,2.4-0.4,4l0,0c0,0.1,0,0.1,0,0.2l0,0l0,0c0,0.1,0,0.2,0,0.3l0,0c0,0.1,0,0.2,0,0.2l0,0l0,0
			c0,0.1,0,0.1,0,0.2l0,0v0.1c0,0,0,0,0,0.1v0.1l0,0c0,0,0,0.1,0.1,0.1l0,0V73c0,0,0,0,0,0.1v0.1c0,0,0,0,0,0.1c0,0,0,0.1,0.1,0.1
			c0,0,0,0,0,0.1c0,0,0,0.1,0.1,0.1c0,0,0,0,0,0.1c0,0,0,0,0,0.1c0,0,0,0,0,0.1l0,0c0.2,0.3,0.5,0.5,0.7,0.8l0,0l0,0l0,0l0,0
			l0.1,0.1c0,0,0,0,0.1,0.1s0.1,0.1,0.2,0.2l0,0c0.1,0,0.1,0.1,0.2,0.1c0,0,0.1,0,0.1,0.1l0.1,0.1l0,0l0,0c0.2,0.1,0.4,0.3,0.5,0.4
			l0,0c0.5,0.4,0.9,0.7,1.1,1.1l0,0c0,0,0,0.1,0.1,0.1l0,0c0,0,0,0.1,0.1,0.1c0.1,0.3,0.2,1,0.3,1.9l0,0c0,0.3,0,3.9,0,4.4
			c0,0.4,0,1-0.1,1.7c0,0.1,0,0.1,0,0.2l0,0v0.1l0,0c0,0,0,0.1-0.1,0.1l0,0c0,0,0,0.1-0.1,0.1l0,0l-0.1,0.1l0,0l-0.1,0.1l0,0
			L98,85.9l0,0L97.9,86c-0.1,0.1-0.2,0.2-0.3,0.2c-0.8,0.4-1.7,0.6-2.2,0.8c-0.2,0.1-0.4,0.1-0.4,0.1l0,0c0,0.2,1.8,0.3,4,0.3
			s4-0.1,4-0.3c0,0-0.2,0-0.4-0.1c-0.5-0.2-1.4-0.4-2.2-0.8c-0.1,0-0.2-0.1-0.3-0.2l0,0c-0.1-0.1-0.1-0.1-0.2-0.2l0,0l-0.1-0.1l0,0
			l-0.1-0.1l0,0c0,0,0-0.1-0.1-0.1l0,0c0,0,0-0.1-0.1-0.1l0,0v-0.1l0,0c0-0.1,0-0.1,0-0.2c-0.1-0.8-0.1-1.3-0.1-1.7c0-0.4,0-4,0-4.4
			c0.1-0.9,0.2-1.6,0.3-1.9c0,0,0-0.1,0.1-0.1l0,0c0,0,0-0.1,0.1-0.1l0,0c0.2-0.3,0.6-0.7,1.1-1.1l0,0c0.2-0.1,0.3-0.3,0.5-0.4l0,0
			l0,0l0.1-0.1c0,0,0.1,0,0.1-0.1c0.1-0.1,0.1-0.1,0.2-0.2l0,0c0.1-0.1,0.1-0.1,0.2-0.2c0,0,0,0,0.1-0.1l0.1-0.1l0,0l0,0l0,0l0,0
			l0,0c0.6-0.6,1.1-1.3,1.3-2.1l0,0l0,0l0,0l0,0l0,0l0,0l0,0c0-0.1,0-0.2,0-0.2l0,0c0-0.1,0-0.2,0-0.3l0,0l0,0l0,0
			C104.1,71.7,104.1,71.6,104.1,71.6z"/>
		<path class="st10" d="M103.7,71.8c-0.2-0.1-2-0.2-4.3-0.2s-4.1,0.1-4.3,0.2l0,0c0,0.2,0,0.3,0.1,0.5l0,0l0,0v0.1l0,0v0.1l0,0v0.1
			l0,0c0,0,0,0.1,0.1,0.1l0,0v0.1l0,0v0.1l0,0c0,0,0,0.1,0.1,0.1c0,0,0,0,0,0.1c0,0,0,0.1,0.1,0.1c0,0,0,0,0,0.1c0,0,0,0,0,0.1
			c0,0,0,0,0,0.1l0,0c0.2,0.3,0.4,0.5,0.6,0.7l0,0l0,0l0,0l0,0l0.1,0.1c0,0,0,0,0.1,0.1s0.1,0.1,0.2,0.2l0,0c0.1,0,0.1,0.1,0.2,0.1
			c0,0,0.1,0,0.1,0.1l0.1,0.1l0,0l0,0l0,0l0,0c0,0,0.1,0,0.1,0.1c0,0,0.1,0,0.1,0.1c0,0,0.1,0,0.1,0.1c0,0,0.1,0,0.1,0.1
			c0,0,0.1,0,0.1,0.1c0,0,0.1,0,0.1,0.1c0,0,0.1,0,0.1,0.1h0.1c0.1,0,0.1,0,0.2,0H98c0.1,0,0.1,0,0.2,0h0.1c0.1,0,0.1,0,0.2,0h0.1
			c0.1,0,0.2,0,0.3,0s0.2,0,0.3,0h0.1c0.1,0,0.1,0,0.2,0h0.1c0.1,0,0.1,0,0.2,0h0.1c0.1,0,0.1,0,0.2,0h0.1c0,0,0.1,0,0.1-0.1
			c0,0,0.1,0,0.1-0.1c0,0,0.1,0,0.1-0.1c0,0,0.1,0,0.1-0.1c0,0,0.1,0,0.1-0.1c0,0,0.1,0,0.1-0.1c0,0,0.1,0,0.1-0.1l0,0l0,0l0,0l0,0
			l0.1-0.1c0,0,0.1,0,0.1-0.1c0.1,0,0.1-0.1,0.2-0.1l0,0c0.1-0.1,0.1-0.1,0.2-0.2c0,0,0,0,0.1,0l0.1-0.1l0,0l0,0l0,0l0,0l0,0
			c0.5-0.5,1-1.2,1.2-1.9l0,0l0,0l0,0l0,0l0,0l0,0l0,0C103.7,72.2,103.7,72,103.7,71.8L103.7,71.8z"/>
		<g class="st11">
			<path class="st12" d="M103.7,67.6c-0.1-0.6-0.6-2.9-0.8-3.8c-0.1-0.3-0.1-0.4-0.1-0.4s-0.1,0-0.3,0c-0.6,0-1.8,0-3.1,0
				c-0.4,0-0.9,0-1.2,0c0.8,0,1.5,0,1.9,0c0.2,0,0.3,0,0.3,0s0,0.2,0.1,0.4c0.2,1,0.7,3.3,0.8,3.8c0.1,0.5,0.4,2.3,0.4,3.8l0,0v0.1
				l0,0v0.1l0,0l0,0l0,0c0,0.1,0,0.2,0,0.3l0,0c0,0.1,0,0.2,0,0.2l0,0l0,0l0,0l0,0l0,0l0,0l0,0c-0.2,0.8-0.8,1.5-1.3,2.1l0,0l0,0
				l0,0l0,0l0,0l-0.1,0.1c0,0,0,0-0.1,0.1s-0.1,0.1-0.2,0.2l0,0c-0.1,0.1-0.1,0.1-0.2,0.2c0,0-0.1,0-0.1,0.1L99.6,75l0,0l0,0
				c-0.2,0.1-0.4,0.3-0.5,0.4l0,0c-0.2,0.2-0.4,0.3-0.6,0.5c0.2,0.2,0.4,0.4,0.5,0.6l0,0c0,0,0,0.1,0.1,0.1l0,0c0,0,0,0.1,0.1,0.1
				c0.1,0.3,0.2,1,0.3,1.9l0,0c0,0.3,0,3.9,0,4.4c0,0.4,0,1-0.1,1.7c0,0.1,0,0.1,0,0.2l0,0V85l0,0c0,0,0,0.1-0.1,0.1l0,0
				c0,0,0,0.1-0.1,0.1l0,0l-0.1,0.1l0,0L99,85.4l0,0l-0.1,0.1l0,0l-0.1,0.1c-0.1,0-0.1,0.1-0.2,0.1c0.1,0,0.1,0.1,0.2,0.1
				c0.8,0.3,1.7,0.6,2.2,0.8c0.3,0.1,0.4,0.1,0.4,0.1c0,0.1-1.2,0.2-2.8,0.3c0.4,0,0.8,0,1.2,0c2.2,0,4-0.1,4-0.3c0,0-0.2,0-0.4-0.1
				c-0.5-0.2-1.4-0.4-2.2-0.8c-0.1,0-0.2-0.1-0.3-0.2l0,0c-0.1-0.1-0.1-0.1-0.2-0.2l0,0l-0.1-0.1l0,0l-0.1-0.1l0,0
				c0,0,0-0.1-0.1-0.1l0,0c0,0,0-0.1-0.1-0.1l0,0v-0.1l0,0c0-0.1,0-0.1,0-0.2c-0.1-0.8-0.1-1.3-0.1-1.7c0-0.4,0-4,0-4.4
				c0.1-0.9,0.2-1.6,0.3-1.9c0,0,0-0.1,0.1-0.1l0,0c0,0,0-0.1,0.1-0.1l0,0c0.2-0.3,0.6-0.7,1.1-1.1l0,0c0.2-0.1,0.3-0.3,0.5-0.4l0,0
				l0,0l0.1-0.1c0,0,0.1,0,0.1-0.1c0.1-0.1,0.1-0.1,0.2-0.2l0,0c0.1-0.1,0.1-0.1,0.2-0.2c0,0,0,0,0.1-0.1l0.1-0.1l0,0l0,0l0,0l0,0
				l0,0c0.6-0.6,1.1-1.3,1.3-2.1l0,0l0,0l0,0l0,0l0,0l0,0l0,0c0-0.1,0-0.2,0-0.2l0,0c0-0.1,0-0.2,0-0.3l0,0l0,0l0,0v-0.1l0,0v-0.1
				l0,0C104.2,69.9,103.8,68.1,103.7,67.6z"/>
		</g>
		<path class="st13" d="M98.5,64c0-0.1,0-0.2,0.1-0.3c0-0.1-0.1-0.1-0.1-0.2c-0.5,0-1,0-1.2,0s-0.3,0-0.3,0l0,0c0,0,0,0.2-0.1,0.4
			c-0.2,1-0.7,3.3-0.8,3.8c-0.1,0.5-0.5,2.4-0.4,4l0,0c0,0.1,0,0.1,0,0.2l0,0l0,0c0,0.1,0,0.2,0,0.3l0,0c0,0.1,0,0.2,0,0.2l0,0l0,0
			c0,0.1,0,0.1,0,0.2l0,0v0.1c0,0,0,0,0,0.1v0.1l0,0c0,0,0,0.1,0.1,0.1l0,0v0.1c0,0,0,0,0,0.1v0.1c0,0,0,0,0,0.1c0,0,0,0.1,0.1,0.1
			c0,0,0,0,0,0.1c0,0,0,0.1,0.1,0.1c0,0,0,0,0,0.1c0,0,0,0,0,0.1c0,0,0,0,0,0.1l0,0l0,0c0.1,0.3,0.4,0.4,0.7,0.4
			c0.4,0,0.7-0.3,0.7-0.7c0-0.1-0.1-0.3-0.1-0.4v-0.1l0,0c0,0,0-0.1-0.1-0.1l0,0V73c0,0,0,0,0-0.1v-0.1l0,0c0-0.1,0-0.1,0-0.2l0,0
			l0,0c0-0.1,0-0.2,0-0.2l0,0c0-0.1,0-0.2,0-0.3l0,0l0,0c0-0.1,0-0.1,0-0.2l0,0c-0.1-1.6,0.3-3.4,0.4-4C97.8,67.3,98.3,65,98.5,64z"
			/>
	</g>
	<path class="st14" d="M107.8,38.5c14.5,0,26.2,11.7,26.2,26.2s-11.7,26.2-26.2,26.2S81.6,79.1,81.6,64.7
		C81.6,50.2,93.3,38.5,107.8,38.5 M107.8,34.9C91.4,34.9,78,48.2,78,64.7s13.3,29.8,29.8,29.8s29.8-13.3,29.8-29.8
		S124.2,34.9,107.8,34.9z"/>
	<circle class="st3" cx="114.1" cy="66" r="0.9"/>
</g>
</svg>
