<?xml version="1.0" encoding="utf-8"?>
<!-- Generator: Adobe Illustrator 27.3.1, SVG Export Plug-In . SVG Version: 6.00 Build 0)  -->
<svg version="1.1" id="Layer_1" xmlns="http://www.w3.org/2000/svg" xmlns:xlink="http://www.w3.org/1999/xlink" x="0px" y="0px"
	 viewBox="0 0 277 277.3" style="enable-background:new 0 0 277 277.3;" xml:space="preserve">
<style type="text/css">
	.st0{fill:#00A3C8;}
	.st1{fill:#FFFFFF;}
	.st2{fill:#2B100E;}
	.st3{fill:#871719;}
	.st4{opacity:0.5;fill:url(#SVGID_1_);enable-background:new    ;}
	.st5{fill:#DAA193;}
	.st6{opacity:0.5;fill:url(#SVGID_00000146472840512838135420000017495752947991687090_);enable-background:new    ;}
	.st7{opacity:0.3;fill:#FFFFFF;enable-background:new    ;}
	.st8{fill:#F6B463;}
	.st9{opacity:0.3;fill:#A9CDDF;enable-background:new    ;}
	.st10{fill:#68160F;}
	.st11{opacity:0.2;}
	.st12{fill:#6C919E;}
	.st13{opacity:0.5;fill:#FFFFFF;enable-background:new    ;}
	.st14{fill:#B3D45E;}
</style>
<g id="japan_00000011024983870411869800000014531390029923373473_">
	<g>
		<path class="st0" d="M60.9,245.5c-0.3,0.3-0.7,0.7,0,0.7C61.2,245.8,61.5,245.2,60.9,245.5z"/>
		<path class="st0" d="M60.2,247.9c-0.3,0.3-0.3,0.7,0,0.7C60.2,248.6,60.5,247.5,60.2,247.9z"/>
		<path class="st0" d="M61.5,249.9c-0.3,0.7-0.7,0.7-0.3,1c0.3,0.3,0.3,0,0.7-0.3C61.9,249.9,62.2,249.2,61.5,249.9z"/>
		<path class="st0" d="M79.6,232.6c0,0.3,0.3,0.3,1,0.3c0.7,0,0.7-0.7,0.7-1c0-0.3-0.3-0.3-0.7-1.4c-0.3-1-0.3-0.3-0.7,0
			c-0.7,0-0.3,0.7-0.3,1C79.6,231.9,79.6,232.2,79.6,232.6z"/>
		<path class="st0" d="M83,213.9c-1,0-0.3,1,0.7,1C84,214.5,83.7,213.9,83,213.9z"/>
		<path class="st0" d="M79.6,168.9c0.7,0.3,0.7-0.3,0.3-1C79.6,167.6,79.2,168.3,79.6,168.9z"/>
		<path class="st0" d="M79.2,169.6c1,0.7,0.7-0.3,0-1C78.2,168.3,78.2,168.9,79.2,169.6z"/>
		<path class="st0" d="M86.4,224.1c-0.7,0.7-1.7,0.7-2.7,1c-1,0.3-1,0.3-1,1c0,0.7,0.3,0.3,0,0.3c0,0.3,0,0.3,0.3,0.7
			c0.3,0.3,0,0.7,0,1c-0.3,0.3,0,0.3,0.3,0.7c0.3,0,0.7,0,0.3-0.3c-0.3,0,0-0.3,0.7-0.3c0.7,0,0.3-0.3,0.7-0.7
			c0.3-0.3,0-0.3,0.3-0.7c0.3-0.3,0.7-0.3,0.7-0.7s0.3-0.7,0.7-0.7c0.3,0,0.3,0,1-0.7c0.3-0.3,0.3-0.7,0.7-0.7c0.3,0,0.3,0,0.7-0.3
			c0.3-0.3,0-0.3,0-0.7s-0.3-0.3-0.7,0C87.4,223.7,87.1,223.4,86.4,224.1z"/>
		<path class="st0" d="M80.9,166.2c0,0-1.4,1-0.7,1c0.7-0.3,0.7,0,1,1c0,1,1-0.7,1.7-1c0.3-0.3,0.7-1,0-1c-0.7,0.3-0.7,0.3-0.7-0.7
			c0-1.4-0.7-1.4-0.7-0.3C81.3,166.2,80.9,166.2,80.9,166.2z"/>
		<path class="st0" d="M82,163.5c0.7,0,0.7-0.7,0-0.7C80.9,162.8,81.3,163.5,82,163.5z"/>
		<path class="st0" d="M88.8,208.7c1,0,1.4-1,0.3-1C88.1,207.7,87.7,208.7,88.8,208.7z"/>
		<path class="st0" d="M77.5,170c-0.3,0.3-1-0.3-1,0.7c0,0.7-0.3,0.7,1,1.4c1.4,0.7,0.3-1,1.4-0.3c1,0.7,0.7-0.7-0.3-1.4
			C77.5,169.3,78.2,169.6,77.5,170z"/>
		<path class="st0" d="M89.4,182.6c0.3-1-1-1-1.4,0C88.1,183.6,89.4,183.6,89.4,182.6z"/>
		<path class="st0" d="M75.8,237c0.3,0,0.7,0,1.4-1c0.3-0.3,0.3-0.3,0.3-0.3s-0.7,0-1,0.3c-0.3,0.3-1,0-1.4,0.3
			C75.5,236.6,75.5,237,75.8,237z"/>
		<path class="st0" d="M77.9,235.6C77.9,235.6,77.5,235.6,77.9,235.6C77.9,235.6,77.9,236,77.9,235.6z"/>
		<path class="st0" d="M75.2,240.1c-0.7,0-1.4,0.3-0.7,0.3C74.8,240.7,75.8,240.4,75.2,240.1z"/>
		<path class="st0" d="M37.4,266.2c-0.7,0.3-0.3,1,0.3,1C38.7,266.9,38.4,265.6,37.4,266.2z"/>
		<path class="st0" d="M27.2,270.7c-0.7,0.3-1.7,0.7-1,1.4c0.7,0.7-1.4,1,1,0.7c1,0,1.4,0,1-0.7c-0.3-0.7,0.3-1,0.7-2
			C28.9,268.3,27.9,269.7,27.2,270.7z"/>
		<path class="st0" d="M32.3,267.9c-0.7,0-0.7,1.4,0.3,1.4C33.6,269,33,267.9,32.3,267.9z"/>
		<path class="st0" d="M62.6,250.6c0-0.7,0-1.4-0.3-0.3C61.9,250.9,62.2,251.3,62.6,250.6z"/>
		<path class="st0" d="M68.7,240.4c-0.7,0.3,0.3,0.7,0.7,0C70.4,240.1,69.4,240.1,68.7,240.4z"/>
		<path class="st0" d="M67.7,243.8c-0.7,0-1,0.3-0.3,0.3C68,244.1,68,243.8,67.7,243.8z"/>
		<path class="st0" d="M68.7,241.8C68.7,242.4,69,242.4,68.7,241.8C69.4,241.4,68.7,241.1,68.7,241.8z"/>
		<path class="st0" d="M65.6,250.6c0,0.7,0,1.7,0.3,1.4c0.7,0,0.3-0.7,1.4-0.7c1-0.3,1-0.7,0.3-0.7c-0.3-0.3-0.7-1,0-1.4
			c0.3,0,0.3-0.3,1,0s0.3,0.3,1-0.3c0.3-0.7,0.7-1.4,0-0.7c-0.7,0.3-1,0.3-1.4,0c-0.3-0.3,0-0.7,0.7-0.7c0.7,0,0.7-0.3,1.4-0.7
			c0.3-0.3,0.7-0.3,1-0.7c0.3-0.3,0-0.3,0.3-0.7c0.3,0,0,0.3,1-0.7c0.7-0.7,1.4-1,1-1.7c-0.3-0.7-0.3-0.7-0.7-0.7
			c-0.3-0.3-0.3,0-0.3,0.3s-0.3,0.3-0.7,0.7c-0.3,0.3-0.7,0-0.7,0.7c-0.3,0.7-0.3,1-0.7,1c-0.3,0,0-0.7-0.3-0.7c-0.3,0-0.3,0-1,0
			c-0.7,0-1,0.3-1,0.7s0.3,0.3,0.7,0.7c0.3,0.3,1,0.3,0.3,0.7c-0.7,0.3-0.7,0.3-1,0.7c-0.3,0.3-0.7,0.7-1.4,0.7
			c-0.7,0-0.7,0.3-0.3,0.7c0.3,0.3,0.7,0,0,0.7C66,249.9,65.3,249.9,65.6,250.6z"/>
		<path class="st0" d="M56.4,248.2c-0.7-0.3-1-0.3-1.4,0c0,0.3-0.3,0.3,0.3,0.3c0.7,0.3,0,0.3,1,0s1-0.7,0.7-0.7
			C56.8,248.6,56.8,248.6,56.4,248.2z"/>
		<path class="st0" d="M22.4,275.1c-1,0-0.7,1,0,1C22.8,276.1,23.4,275.1,22.4,275.1z"/>
		<path class="st0" d="M13.2,271.7c0.7,0.3,1-1,0-1C12.6,270.7,12.6,271.4,13.2,271.7z"/>
		<path class="st0" d="M21.1,272.4c-1,0.3,1,1,2,0.7c1-0.3,0-1.4-0.7-2.4c-0.7-0.7-1.4-0.3-1,0.3C22.1,271.7,22.1,272,21.1,272.4z"
			/>
		<path class="st0" d="M24.8,272.7c-1,0-1,0.7,0,1C25.8,273.7,25.8,272.7,24.8,272.7z"/>
		<path class="st0" d="M102.4,199.6c0-0.7,0.7,0,0.7-0.7c0-0.7-0.3-1.7,0.3-2.4c1-0.3,0.7-3.7,0.3-3.4c-0.3,0-1,1.4-1.4,2
			c-0.3,0.7,0.3,1.4,0,1.7C101.7,197.5,100.7,199.6,102.4,199.6z"/>
		<path class="st0" d="M90.5,179.8c-1.4,0-0.3,1,0.3,1C91.8,181.2,92.2,179.8,90.5,179.8z"/>
		<path class="st0" d="M92.2,225.4c0.3-0.3,0.7-0.3,0.7-0.7c-0.3-0.3-0.3-0.3-0.7,0c-0.3,0.3-1,0.3-1,0.7S91.8,225.8,92.2,225.4z"/>
		<path class="st0" d="M91.5,204c-0.3-0.3-1-0.3-0.3,0.3C91.5,204.7,91.8,204,91.5,204z"/>
		<path class="st0" d="M94.5,197.9c-0.7-0.3-1,0.3-0.3,0.7C94.9,198.5,95.2,198.2,94.5,197.9z"/>
		<path class="st0" d="M99,200.6c0.7,0,1-1,0.7-1.7c0-0.3-0.3-0.3-1-0.7c-0.3,0-0.7-0.7-1-0.3c-0.3,0-0.7,0.7-1,0.7
			c0,0.7-0.3,1.4,0.3,2c0.3,0.3,0.7,0.3,1,0.3C99,201.3,97.9,200.9,99,200.6z"/>
		<path class="st0" d="M90.5,205.7c0.7,0.3,1,0,0.7-0.3C90.5,205,89.8,205.3,90.5,205.7z"/>
		<path class="st0" d="M40.1,267.9c1-0.3,1.4-0.3,0.3-1.4c-1-0.7-1-0.7-1.4,0C38.7,267.6,38.7,268.3,40.1,267.9z"/>
		<path class="st0" d="M184.7,105c-0.3,0.3,0,0.3-0.3,0.7c-0.7,0.3-0.3,0.7,0,0.7s0.7,0,1.7-0.3c0.7-0.3,1.4-1,2-2
			c0.7-1,0.3-0.3,0.3-0.7c0-0.3,0-0.7-0.3-0.3c-0.3,0-0.3,0-1,0c-0.3-0.3,0-1,0.3-1.4c0.3-0.3,0.3-0.7,0.3-1c0-0.7,0-0.7-0.3-0.7
			c-0.3,0-0.3,0.7-0.7,1c-0.3,0.3-1,1-1.7,1.7c-0.3,0.7-0.3,1-0.3,1.4c0,0.3,0,0.7,0.3,0.3c0.3-0.3,0.7-0.3,0.7,0
			C185.7,104.3,185.1,104.6,184.7,105z"/>
		<path class="st0" d="M217,8.7c0.7,0,2,0.3,2-0.7c0-0.3-1-1.4-1.4-1.4c0,0-0.3,0.3-0.7,0.3C216.7,7.3,217,8.3,217,8.7z"/>
		<path class="st0" d="M267.4,31.8c-0.3,0.3-1.4,0.7-1.7,1c-1,1-1.4,0-2-1c-1.4-1,0.7-0.3-0.7-1.4c-1-0.7,1.4-1,1-1.7
			c-0.3-0.7-1.4-0.3-1.4-0.3c-0.7-0.3-3.7-1.4-1-4.4c0.7-0.7,1-1,1-2c0.3-0.7,0-1,0.7-1l0.3-0.3c0-0.3,0.3-1.7,0-1.7s-1,0.7-1,0.7
			l-0.3,0.3c0,0.7-0.3,0.7-1,0.7c-1.7,0.7-2,2.4-3.7,3.1c-1.4,0.3-3.7,0-4.4-0.3c-0.7-0.3-1.4-0.7-1.4-1c-0.3-0.3-1.4-1-1-0.3
			c0,0.3-0.3,0.7-0.7,0.7c-0.7-0.3,1-0.7,0-1c-3.4-0.7-3.4-0.7-2,0.3c0.3,0-2,0-2.4-0.3c-1-1,2,0-0.3-1c-0.7-0.3-1-0.7-1.4-0.7
			c-1-0.3-1.7-1.4-2.4-2c-0.7-0.7-1.7-0.7-2.4-1.7c-0.3-0.7-1.7-0.7-2-1s-0.7-0.7-1-1c-0.7-0.7-3.1-2-3.1-3.1c0-0.7-1.4-1-1.4-2
			c-0.3-0.7-0.7-0.7-0.7-1c-0.7-0.3-1-0.7-1.4-1c-0.7-0.7-1-1.4-1-2c-0.7,0-1.4-0.3-1.7-0.7c-0.3-0.3-1.4-2.4-2-2
			c-0.3,0.3-0.7,1.4-1.4,1.7c-1,0.7-1-0.3-1.7-0.7c0,0.3,0.3,2.4-0.7,2.4c0,0.7,0,1.7,0.3,2.4c2.7,4.4,2.4,6.8,2,8.8
			c0,0.3-0.3,1.4-1,2c-0.7-0.3,0.3,2.7-0.7,5.4c-0.3,1-1,1-2,1.4c-1,0.3-1.7,1-1.4,1.7c1.4,2.4-0.3,2,0.7,3.4c0.3,0.7,1,1.7,0.3,2.4
			c-0.3,0.3-1,0.7-1.4,0.7c-0.7,0.3-1.7,1-2.7,0.7c-0.3,0-0.3-0.3-0.3-0.7c-0.3-0.7-1-0.7-0.7,0c-1,0-2,0-2.7-0.3s-1-1-1.7-1.4
			c-0.3-0.3-1.4-1-1.4,0c-0.7,0.3-1.4-0.3-1,0.3c0,0.3,0.3,0.3,0,1c-0.3,0.3-0.3,0.7,0.7,1.4c0.7,0.7,0.7,0.7,1,1
			c0.3,0.3,0.7,0.7,0.7,1c-0.3,0.7-2,1.7-2,2c-0.3,0.7-1.4,1.7-1.4,0.7c-1,0-0.3,0.3-1,1c-1,0-0.7,0.7-1.4,0.7
			c-1.4,0.3-2.4,0-1.7,2.4c0.3,0.7,0,0.7,0,1c0,0.3-0.7,1-0.7,1.4c0,0.3,0.3,0.7,0.3,1c0,0.3,0,0.3,0.3,0.7c0.7,0.3,0.7,0.7,1,1
			c0.3,0.3,0.7,0,1,0.3c0.3,0.3,0.3,1.7,0.7,1.7c0,0.3,0,0.3,0.3,0.7c0.7,0.7,0.7,0.7,0.3,1.7c-0.3,0.7-0.7,1-1,2.4
			c0,0.3-1,1.4-0.3,1.4c0.7,0.3,0,1.7,1,2c1,0.3,1.7,0.7,2-0.3c0.3-0.7,1.4,0,1.7-0.7c0,0,0.3,0,0.7,0v-1c0-0.3-0.3-1.4,0.3-1.4
			c1,0,1-0.3,1.7-0.3c-0.3-0.7,0-1,0.7-1.4c0.3-0.3,0.7-0.3,0.3,0.3c-0.3,0.7,3.1-0.3,3.1,0.7c1,0.3,1,0.3,1.4-0.3
			c0.3-0.3,1-0.3,1.4-0.7c0-0.3,0-0.7-0.3-0.7c-0.3-0.3-2-0.7-2.7-1.4c-0.3-0.3-0.3-0.3-0.7-0.7c-0.3-0.3-0.3-1.4-0.7-1.7
			c-0.3-0.3,0-0.7-1-1c-1,0-1.4,1.4-2.7-0.7c-0.7-0.3-1.7-0.3-2-1c-0.3-0.3,0.3-1.7,0.7-2c0.7-1.7,1-2.4,2.7-2.4c1.7,0,2,1,3.1,2
			c0.7,0.7,1,2,1.7,1.4c0.3-0.3,0.7-1,1-1.4c0.3-0.3,1-0.7,1.4-1c1.4-1.4,3.4-1.7,5.4-2c0,0.7,1.4,0.7,2,0.7c0.7,0,0.3,0.3,0.7,1
			c0.3,0.7,0.7,0.7,1.4,0.7c1,0.3,2.4,1,2.7,2c0.3,0.7,2.4,0.3,2,1.4c0.7,0.3,2.4,0.3,3.1,1c0.3,0.7,2,0.3,2.7,1
			c0.3,0.7,1,2,1.4,2.7c1,0.7,1-2,1.4-2.7c0.3-1,0-2,0.3-3.4c0.3-1,0.7-0.3,0.7-0.7c0-0.3-0.3-0.7,0.3-0.7c-0.3,0,1-2,1.4-2
			c1-1,2-2,3.4-3.4c1-1,4.1-3.7,6.1-2.4c1,0.7,2,0.7,3.4,0.7c2.4,0,0.7-0.7,0.7-1.4c1,0,0.7-0.7,1.4-0.3c0.7,0.3-0.7,1,0.3,1.4
			c1,0.3,1.7-0.7,2-1c1.7-1-1-0.7,0.3-1c1-0.7,0.7,0.3,1.7-0.3c2.4-0.7,2.7,0,3.1-0.7c0.3-0.7,0.3-1.4,1.4-1.7
			C270.4,32.5,268.1,31.5,267.4,31.8z M214.3,43.1c0,0.3-0.7,0.3-1,0.3c-0.3,0-0.3-0.7,0-1c0.3-0.3,0.3,0,1,0S214.3,42.7,214.3,43.1
			z M219.4,41c-1,0.3-1.4,0-1-0.3c0.3-0.3,1-0.3,1-0.3C219.8,40.3,220.8,40.3,219.4,41z M252.8,29.1c-0.3,0.7-0.3,0.3-0.7,0.3
			s0-0.3,0-0.7c0-0.3,0.3-0.7,1.4-0.7C254.1,28.1,253.4,28.4,252.8,29.1z M254.5,29.4c0-0.3,0-0.3,0.7-0.3
			C256.2,29.1,254.5,29.8,254.5,29.4z"/>
		<path class="st0" d="M216,6c0-1,0.3-2-1-2C215,4.6,215,6,216,6z"/>
		<path class="st0" d="M227.9,240.4c0,1,1.7,1.4,1.4-0.3C229.3,238.7,227.9,239,227.9,240.4z"/>
		<path class="st0" d="M228.9,233.2c-0.7-1.4-2,0.3-1.4,0.7C228.3,234.3,229.6,234.6,228.9,233.2z"/>
		<path class="st0" d="M196.6,58.4c0.3,0.3,1-0.3,0.7-0.3C196.6,57.7,196.3,58,196.6,58.4z"/>
		<path class="st0" d="M198.7,49.2c0-1,0.7-1,0.7-1.7c0-1-0.3-0.7-0.7,0c-0.3,0.7-0.3,0.3-1,0.7c-0.7,0.3-0.3,1-0.3,1.7
			C197.3,50.9,198.7,50.2,198.7,49.2z"/>
		<path class="st0" d="M227.6,244.8c0,0.7,1.4,2,1.4,0.3C228.6,243.5,227.6,244.1,227.6,244.8z"/>
		<path class="st0" d="M219.8,18.2c0.7,0,1.4-0.7-0.3-0.7C218.1,17.5,219.1,18.2,219.8,18.2z"/>
		<path class="st0" d="M119.4,165.2c-0.7-0.3-0.3,0.3-1,0.3c0,1,0.7,0.3,1,0.3V165.2z"/>
		<path class="st0" d="M121.4,170c0.3-1-0.7-0.7-1-0.3C120.4,170,120.4,170,121.4,170z"/>
		<path class="st0" d="M119.4,163.5c-0.3,0-1-0.3-1.4,0C118.7,164.9,119.4,165.2,119.4,163.5z"/>
		<path class="st0" d="M136.4,135.6L136.4,135.6L136.4,135.6z"/>
		<path class="st0" d="M220.1,273.7c0,0.7,1,0.3,0.7-0.3C220.8,272.7,220.1,273.1,220.1,273.7z"/>
		<path class="st0" d="M226.9,83.2c-0.3,0-0.3-0.7-0.3-0.7c0-0.3-0.3,0-0.3,0c0-1,0-1.7,0-2.7c-0.3,0-0.3-0.7-0.3-1.4
			c0-0.7-0.7-1-1-1.4c-1-0.7,0.3-0.7,0-1.4c0,0-0.3-0.3-0.7-0.3c0-0.7,0-0.7,0-1.4c-0.3,0-0.3-0.7-0.7-1c0-0.3,0-0.7-0.3-1
			c-0.3-0.3-0.3,0-0.7-0.7c0-0.3-0.3-0.3-0.7-0.7c-0.7-0.3-1.7-0.7-1.7-1.7s-0.7-1.7-0.7-2.4c0-1.4-0.3-3.7-0.3-4.4
			c0-0.7,1-3.1,0.7-3.4c0,0-1,0.7-1.7,0.7s-1.4,0-1.7-0.7c-0.3-0.7-1-0.7-1.7-1c-0.7-0.3-1-1-1.4-0.7c-0.3,0,0,1-0.7,1.4
			c-0.3,0-0.3,1-0.7,1.4c-0.3,1-0.7,1.7-0.3,2.7c0.3,0.3,0.3,0,1-0.3c0.7-0.3,1.4,0,1.7-0.3c0.3,0,1-0.3,1.4-0.7
			c0.7-0.7,0.7-0.3,1-0.3c0,0,0.3,0.7,0.3,1c0,0.3-0.3,1.4-0.3,2c0,1-0.7,1.4-1,1.7s-1.7-1.4-2-1.4s-1-0.3-1,0.7
			c0,0.7,0,0.7-0.3,0.7c-0.3,0.3-0.7,0.7-1,0.3c-0.7-0.3-0.7-0.7-0.7-1.4c0-1,0-1.4-0.3-2c0-0.7-0.3-2.4-1.7-1.4c-1,0.7-1-1-1.7-0.7
			c0,0-0.3,0.3-0.3,1c-0.3,0.3-0.7,0.3-0.3,1c0.7,1,0,3.1-0.3,3.7c-0.3,0.7-2,0.7-2.7,0.7c0,1-0.3,0.7-1,1.4l-1,0.7
			c0,0.3,0.7,0,1,0.3s0,1.4,0,1.7c0.3,0.7,0.7,0.7,0.7,1c0,1,0,2-0.7,3.1c-0.3,0.7-0.7,1.7-1.4,1.7c-0.3,0-1,0-1.4-0.3
			c0,0.3,0,0.3,0,0.7c0,1,0.3,0.3,1,1c0.7-0.3,0.7-0.3,1.4-0.7c0.3,0,1,0.3,1.4,0.7c0,0.3,0.3,1,0.3,1.7c0,0.7-0.3,2.7-0.3,3.1
			c0-0.3,0.3,1.4-1,2.4c-0.7,0.3-0.3,1-0.3,1.4c0,0.7-0.3,1.7-0.7,2c-0.7,0.7-0.3,2-1,3.1c-0.3,0.3-1,1-1.7,2c-0.7,0.7-1,2.4-1,2.4
			c-0.3,0.3-0.7,2.7-0.7,3.4c-0.7,1.7-2,2.4-2,2.4c-0.3,0-1,0.3-1.4,0.3c-0.3,0.3-0.3,0-0.7,0.3c-0.3,0.3-1.4,0.7-1.7,1
			c-0.7,1-0.7,0.7-1.4,1.7c-0.3,1-0.3,1.4-0.7,1.7c-0.3,0.7-0.7,0.3-1,1c-0.3,0.3-0.3,0.7-0.7,1c-0.3,0.3-0.7,0.7-1,0.7
			c0,0.3-0.7,0.3-1,0.7c-0.3,0.3-1,0.7-1.4,1c0,0.7-1,0.7-1.7,0.7c-0.7,0-1,0-1.7,0.7c-0.3,0.3-1.4,0.7-1.7,0.7
			c-1.4,0.7-2.7,1-4.1,1c-1,0-1,0.7-1.4,1.7c0,0.7-0.7,1-1.4,1c-0.3,0-1-0.3-1.4-0.3c-0.7,0-1.7-0.3-2-1c-0.3-0.7,0.7-1,0.7-1.7
			c0-0.3,0-0.7,0-1s0-1.4-0.3-1c-0.3,0.3,0,0.3-1.4,0.3c0.3-0.7-0.3-0.7,0.3-1c0.3-0.3,0.3,0.3,1,0c0.3-0.3,0.7-0.7,1-1
			c0.3-0.3,1,0,1.4-0.3c0.7-0.7,0-1,0-1.4c0.3-0.3,1.4,0.3,1-1c0-0.3-0.3-0.3-1-0.3c-0.7,0-1,0-2.4,1c-0.7,0.3-1.4,0.3-2,0.7
			c0-0.3-1.4,0.7-1.4,0.7c-0.7,0.3,0,0.7-0.7,1.7c-0.7,0.7-0.3,1.4,0.3,1.4c0.3,0,0,0.7,0,1c0.3,1,0.7,1.4,0.3,2.4
			c-0.3,0.7-0.7,1.7-1,2.4c-0.3,0.3-1,1-2,2.4c-1,1.4-1.7,1.4-2,2c-1,1.4-1.7,0.3-2,1.4c-0.3,1-1,1.4-1.4,3.1c-0.3,1.7,1,2,1,3.1
			c0,0.3-0.3,0.7-0.3,1c-0.7,0,0-1.4-0.7-1c-0.7,0.3,0,1-0.3,1.4c-0.3,0.3-0.7,0.3-1,0.3c-0.3,0-0.3,0.7-0.7,0.7c-0.3,0-0.7-0.3-1,0
			c-0.7,0-1,0.7-1.4,1c-0.3,0.3-0.7,0-1-0.7s-1-0.3-1.4,0c-0.3,0.3-0.3,0.7-0.7,0.3c-0.3,0-0.3-0.7-0.7-0.7c0-0.3-1.7,1.7-1.7,1.4
			s2-2.4,2.4-2.4c0.3-0.3-0.7-1.7-1.4-1s-0.7-0.3-1.7,0.3c-0.7,0.3-1,0.7-1.7,0.7c-1.4,0-1.7-0.3-3.1-0.3c-0.3,0-0.7,0-1,0
			c-0.7,0-0.7,0.3-1.4,0.7c-0.7,0.3-0.7,0.7-1.7,0.7c-0.3,0-0.7,0.3-1.4,0.3s-0.7,0-1.4,0c0,0-0.7,0.3-1,0.3c0.3,0-0.3,0.3-0.7,0.3
			c-1,0-1.4,0-2-0.3c-0.7,0-1.7-0.3-2,0c-0.7,0.3-0.7,1-1.7,0.7c-2-1,0.3-1-0.3-1.4c-0.3-0.3-1.7-0.3-2.4-0.3c-0.7,0-0.3,0-0.7,0.3
			c-0.3,0.3-2,0.3-2.4,0.7c-0.7,0.3-2.7,0.3-2,1c0.7,0.7,0.7,1.4,0,1.7c-0.7,0.3-1.7,1-1.7,1c-0.3,0.3-0.7,0.3-1.4,1.4
			c-0.3,0.3-0.7,0.3-1,0.7c-0.3,0.3-1,0.7-1.4,1c-0.7,0.7-1,1-1.7,1.7c-0.7,0.3-1.4,1.4-2,1.7c-0.3,0.3-1.4,0-1.7,0.3
			c-0.7,0.3-1.4,1.4-1.7,2c-1,1.4-0.7,1-2.7,1c-1.7,0-2.7-0.3-3.1,0c0,0,0.7,0.3,0.7,0.7c-0.3,0.3-1.7,0-1.7,0.3c0,0.7,1.4,2,0.7,2
			c0,0-0.7,0.7-0.7,1c0,0.7,1.7,1-0.3,1.7c-1,0.3-1.4,0.7-2.4,0.7c-1.4,0.3-1.4-0.3-1.7,1c0.3,0-0.3,0,0,0.3c-0.3,0.3,0.3,0.7,0,1
			c0,0.3-1,0.3-1,0.7c-0.7,0-0.7,0.3-1.7,0c-0.7,0-0.7,0.7-1,0.7c0,0.3-0.7,0-1,0.3c0,0.3,1.4,0.7,1,0.7c0,0.3-1,0.3-1,0.3
			c-0.3,0-0.3,0.3-0.3,0.3c-0.3,0-0.3-1-1.4-1c-1,0-0.3,0-0.7,0.7c-0.3,0.3-0.7,0.3-0.7,0.3c-0.3,0,0,0.3,0,0.3c0.3,0,1,0,0.3,0.7
			c0,0-0.7,0-1,0c-0.3,0-0.3-0.3-0.3-0.3c-1.4,0.7-1-0.7-1.4-0.3c-0.3,0,0.3,0.7-1,1c-0.3,0-0.3,0.7-0.7,1.4c-0.3,0.7-0.7,0.7-0.7,1
			c0,0,0.7,0,1-0.3c0.3-0.3,1-1.7,1.4-1.7c0.3,0,0.3,0,0.3,0.3s-0.3,1,0,1.4c0.3,0.7,0.7,0,1.4,0.7c0.3,0.7-1.7,1-1.7,1.7
			c0.3,0.3,1.7-1.4,1,0.3c-0.3,0.7,0.3,0.7,0.3,1c0.3,1.7,1.7,1,1.7,2.4c0,0.7-1,1.7-0.7,1.7s0.7-0.3,0.7-0.7c0.3-0.3,1-1,1.4-1.4
			c0.7-0.7,2.4-1.4,2.7-0.7c0.3,0.7-0.7,0.7-0.7,1c0,0.3,0.3,0.7,0.3,0.7c0.3,0.3,2.4-0.7,2.4-1.4c0-0.7,0.3-1.4-0.3-2
			c-0.3-0.3-1.7,0-1.7-0.3c-0.3-0.7,0-0.3,0.3-0.7c0.3-1-0.3-2,0-2c0.3,0,1.7-0.7,2,0.7c0.3,0.7,0,1.7,0.3,2c0.3,0.7,1.4,1,1.4,1
			c0.3,0.3,0,1.7-1,1.7c-1.7,0.3-0.7,1.7-1.4,1.7c-1,0-0.7,0.3-1.4,0.7c-1,0.3,0-1-0.7-1.4c0,0.7-1,0.7-1.7,0.7
			c-1,0.3-0.7,2.4-1,3.4c0.3,0,0.7,0,0.3,0.3c1.4-1,2.4-2,2.7-2.4c0.3-0.3,1,0,1,0c0.7,0,1-1,1-1.7s0-1,0.7-1c0.3,0,0.3-0.3,0.3,0
			c0.3,0.7-1.7,1.4-0.3,2l-0.7,1c-0.3,1-0.7,0.7-1,1.4c-0.3,0.3,0,0.7-0.3,1c0,0-1.4,0.3-1.4,0s0-0.7,0-1c0-0.3,1-0.7,0.3-1
			c-0.3,0-1.4,1.4-1.7,1.4c0.3,0.3,0,0,0,0.7c0,0.3,0.7,1,1,1l-0.3,0.7c0,0.3,0,0.3,0.3,0.7c0.3,0.3-0.3,1-0.3,1.7
			c-0.3,1,0.3,0.7,1,1c0.7,0.3,0.7,2,0.3,2.7c0,0.3-0.3,1-0.7,1c-0.3,0-1-0.3-1.4,0l0.7,0.7c-0.3,1.7,1.7,1,1.7,1c1,0,1.4,0,1.4,0.7
			c0,1.4,1.7,0,1.7,0c0.3-1-0.3-0.7-0.7-1.4c0,0,0-0.3,0-0.7s-0.3,0-0.3-0.3s0-1,0-1.4c0.3,0,0.3-0.7,0.3-0.7c0.3,0,1.4,0,1,0.3
			c-0.3,1.7,0.7,0.3,1,2.7c0.3,1.4-0.3,0-0.3,2c0,0.7-0.7,0.7-1,1c0,0.3,0,1,0,1l0.7-0.7c1.4-0.7,2.7-1.4,3.4-2c0.3-0.3,1-0.3,1.4-1
			c-0.7,0-1.4-0.7-1-1.4c0-0.7,0.7-0.7,1-0.7c0.3-0.3,1.4,0.3,1.4,0.7c0,0.7,1,0,1.4,0.3c0-0.7,0-0.7,0-1.4c0.3-0.7,0.3-0.7,0.3-1
			c0.3,0,0.3-0.7,0.7-0.7v-1c0.3-0.7,0-1.4,0-1.4c-0.3-0.3,0-1,0-1s0.3-1,0.3-1.4c0-0.7,0.7-0.7,0.7-1.7c0-0.7,0.3-1.7,0.7-2
			c0-0.3-0.3-1.4,1-1c0-0.3-0.3-1,0.3-1c0-0.3-0.3-0.3-0.3-1c0-0.7,0.3,0,0.7-0.7c0-0.3,0.3-1,0.7-1c0.3,0,0.7-0.7,1-1.4
			c0-0.3,0.3,0,0.7,0c0.3-0.3,0.3,0,0.3-0.3s0-0.3-0.3-0.3c-0.3,0,0-0.3,0-0.3s0,0,0.3-0.3c0-0.3,0-0.3,0.3-0.3s0.7-0.3,0.3-0.3
			c-0.3,0-0.3,0.3-0.7,0c-0.3,0-0.7-0.3-0.7-0.7s-0.3-0.3,0-0.3c0.3,0,1-0.3,0.7-0.7c-0.3-0.3-0.3-0.3-0.7,0c-0.3,0-1,0-0.7,0
			c0.3,0,0.3-0.3,0-0.3c-0.3,0-1,0.3-0.7-0.3c0.3-0.3,0.7-0.7,0.7-1c0-0.3,0-0.3-0.3-0.3c0,0-0.3,0-0.7,0c-0.3,0-0.7,0-1,0
			c-0.3,0-0.3,0-1,0c-0.3,0-1,0.3-1.4,0.3c0,0-0.3-0.3-0.3-0.7s0.3-0.7,0.3-0.7s0.3,0.3,1,0c0.3-0.3,1-0.7,1-1
			c0.7-1.7-0.3-2.7-1.7-2.7s-1.4,1-1.7,1.4c-0.7,0-1.4-0.3-1.7-0.3c-1-0.3-1.7,0-2-0.7c-0.3-0.3-0.7-1-0.7-1.7c0-1,0.3-2,0.3-2.4
			c0.7,0,1,0.7,1.4,1c0.3,0.3,0.7,0.3,1.4,0c0.3,0,0.3-0.7,0.7-0.7c0.3,0,0.7,0.3,1,0c0.3,0,0.7-0.3,1,0c0.3,0.3,0.7-0.7,1-0.7
			c0,0,0.7-0.3,1,0c0.3,0,0.7,0.3,0.7,0.3s-0.3,0.7,0.7,1c0-0.3,0.3-0.7,0.7-0.7c0.7,0.3,2,1.4,2.4,1.4c0.3,0,0-0.3,0-0.7
			c0.3-0.3,0.3,0,0.7-0.3c0.3-0.7,0.3-2,0.7-2c0-0.3,0.3-1.4,0-1.7c0.3,0,0.7,0.3,0.7,0c0.3,0,0.3-0.3,0-0.7c-0.3,0,0-0.3,0.3-0.3
			c0.3,0,1.4,0,1.7,0c0,0,0.3,0.3,0,0.3c0,0.3-0.3,0,0,0.7c0.3,0.3,0.3,0.7,0,0.7c0,0-0.3,0.3-0.3,0s0.3-0.7,0-1
			c0-0.3-0.3-0.3-0.3-0.3c-0.3,0,0,0.3-0.3,0.3c-0.3,0-0.3,0.3-0.3,0.7s0.3,0.7,0.3,0.7s-0.7,0-0.3,0c0.3,0.3,0.3,0.3,0.7,0.3
			c0.3,0,0.7,0,0.3,0.3c-0.3,0-0.3,0.3-0.3,0.3c0.3,0,0.3,0,0.7,0c0.3,0,0.3,0.7,0.3,0c0.3-0.7,0.3-0.7,0-0.7
			c-0.3-0.3,0.3-0.7,0-0.7c0.3,0,1-0.3,1.4,0c0.7,0.7,1.7,0.3,1.7,0.3c0.7-0.3,1-0.3,1.4-0.7c0.3,0,0.7,0,0.7,0s0,0.3,0,0.7
			s0,0.7,0.7,0s1-0.3,0.7-0.7c-0.3-0.3-0.3,0-0.7-0.3c-0.3-0.3-0.3-0.3-0.3-0.7s-0.3-0.3-0.3,0s0,0.3-0.3,0.7
			c-0.3,0.3-0.3,0.7-0.3,0.7s-0.7,0.7-0.3,0c0.3-0.3,0.3-1,0.3-1s-0.3,0-0.3,0.3c-0.3,0.3-0.3,0.3-0.7,0.7c0,0.3,0,0.3-0.3,0.3
			s-0.3,0-0.7,0c-0.3,0-1,0.3-0.7-0.3c0.3-0.7,0.7-0.3,1-0.7c0.3-0.3,0-0.3,0.3-0.3c0.3,0,0,0,1,0c1-0.3,1.4-0.3,1.7-0.3
			c0.3,0,0,0,0.3,0.3c0,0.3,0,0.7,0.3,0.7c0.3,0,0.3,0,0.7,0c0.3,0,0.3,0.3,0.7,0c0.3-0.3,0-0.3,0-0.7s0-0.7,0-0.7
			c0.3,0,0.3,0,0.3,0c0.3,0.3,0.3,0.3,0.7,0c0.3-0.3,0.3-0.3,1-0.3c0.7-0.3,0.7-0.3,1-0.7c0.7-0.3,0.3,0,1-0.3c0.3-0.3,0,0,0.3-0.3
			c1.7-1,0,0.3,1,0.7c0.3,0,2.4-0.3,2.7-0.3c1,0,0.7-0.7,1-1.4c0.3,0,1-0.3,1.4,0c1-1.7,4.1-1.4,5.8-1.7c1.4,0,1.7,0.3,2.4,1
			c1.4,0.7,0,1.4-0.7,2c-0.7,0.7-1,1.4-1.4,1.7c-0.3,0.3-0.7,0.3-0.7,1c0.7,0.3,0.7,1.4,1.4,1c0.3,0,0.7-0.3,1.4-0.7
			c0.3-0.3,0.7-0.3,0.7-0.7s-0.7-0.7-0.7-1c0-0.3,0.3-0.7,0.3-1c0.3-0.3,0.7-1,1-1.4c0-0.3-0.3-0.7,0.7-1c0.3,0,1,0.3,1.4,0
			c0.3-0.3,0.7-0.3,1-0.7c0.3,0,0.7,0,1,0.3c0.3,0.3,0.3,1,0,1.7c-0.3,0.3-1,1.4-1.4,1.7c-0.3,0.3-1,0.3-1,0.3l-0.7,0.3
			c-0.3,0.3,0,0.3,0,0.7c0.3,0.3,0.7,0.7,0.7,1c0.3,0.3,0.3,0.3,0,0.7c-0.3,0-1,0-0.7,0.7c0,0.3,0.7,0,0.7,0.7c0,0.3-1,0.7-1,1.7
			c1.4,0.7,2,1.4,3.4,2c1,0.3-0.3,0.3-0.3,0.7c0,0.3,0.7,0.3,0.7,0.3c0,0.3,0,0.7,0.3,0.7c0,0,0.3,0.3,0.7,0.7c0.3,0,0.3,0,0.7,0
			c0,0,0.3,0,0.7,0.3c0,0,0.3-0.3,0.7,0c0.3,0.3,0.7,0.3,1.4,0.3l-0.3,0.7c0.3,0,1,0,1.4-0.3l-0.7-0.3c0.3-0.3,1-0.3,1.4-0.7
			c0.3-0.7,0-1,0.3-1.4c0.7,0,0.7-1.4,1.4-2.7c0.3,0,0.7-0.3,0.7-0.3c0.3-0.7,0.3-0.3,1-0.7c0.3-0.3,0-0.7,0-1
			c0-0.7,0.3-0.3,0.7-0.7c0.3,0-0.7-0.7-0.3-1c0.7-0.3,1-0.7,1.7-0.7c0.3,0,0-0.3,1-0.3v-0.3h0.7c1.4,0,0.7-1,1-1
			c0.3,0,0.3,0.7,0.7,0.7c0.3,0,1,0.3,1,0.3c0.3,0,0.7,0,0.7-0.3s-0.3-0.7,0-0.7c0-0.3,0.3-0.3,0.3-0.7c0-0.3,0-0.3-0.3-0.7
			c0-0.3,0-0.7,0-0.7c-0.3,0-0.7,0-1,0.3c-0.3,0-1-0.3-1-0.3l-0.3-0.3c-0.3-0.3-0.7-0.3-1.4-0.7s-0.7-1-0.3-2c0.7-1,1-2,1.4-2.4
			c0.3-0.7,1-0.3,1.7-0.3c0,0.7-0.3,1.7,0,2c0.3,0.3,0,0.7,0,0.7c-0.3,1,1,0.7,1.7,1c0-0.3-0.7-1.4-0.7-1.4s0.3,0.7,1,0.7
			s1.4-0.3,2-0.7c0.3,0,0.7,0.3,0.7,0.3c-0.3,0.7-1,1-1.4,1.4c-0.3,0.3-1.4,0-1.7,0.7c0,0.3-0.3,0.7,0,0.7c0.7,0.3,3.1-0.7,3.4-0.7
			c1.4-0.3,2.7-0.7,4.1-0.7c0.3,0,0.7,0.7,1.4,0.7c0.7,0,1-0.3,1.7-0.3c1,0.3,3.1,1,3.4,1c0,0-0.3-1,0-1.4c0.3-0.3,0.7-1,1-1
			c0.3-0.7,0-1.4,0.3-1.7c0.3,0,0.3-0.3,1-0.7c0.3,0,0.7,0,1-0.3c0,0-1-1.7,2.4-1.7c0.3,0,2.4,0.7,1,1.4c-0.7,0.3-1-0.3-1,0.3
			c0,0.3,0,0.3,0,0.7c0,0.7,0,0.7,0,1c0,0.7,0,1.7,0.3,2.4c0.3,0.7,0.3,0.3,1.4,0.3c0-0.3,0.3-0.7,1-0.7c0.7,0,0-1,0.7-1
			c0-0.3,0.3-0.3,0.3-0.7c0,0,0-0.3,0-0.7c0.3-0.3,0.7-0.3,0.7-0.7c0-1-0.7-0.3-0.7-1.4c0-0.7-0.3-0.7,0-1.4c0.3-0.3,0.3,0,0.7-0.3
			c0-0.3,0-0.7,0-1s0.7-0.7,0.7-0.7c1-0.3,2.4-0.3,3.4-0.3c1.4,0,0.7,1.7,1,2c0.3,0.3,0,0,0.3,0s0-0.3,0.3-0.7c0.3-0.3,1-0.7,0.7-1
			c-0.3,0-1.4-1-1-1.4c0.3,0,0-0.7,0.3-0.7c0-0.3,0-0.7,0.7-0.7c1,0,0.3-1,1-1.4c0.3,0,0.7,0,1-0.3c0.7-0.3,0.3-1.4,1.4-0.3
			c0.7,0.3,0.7,0.7,0.7,0.7s-0.3,0.7-1,1c-0.3,0.3-1,0.3-1.4,0.7c-0.3,0.3,0.3,0.3,0,0.3s-1,0.3-1,0.7c0,0.3,0,0.3,0.3,0.3
			c0.3,0.3,0,0.7,0.3,0.7c0,0,0,0.3-0.3,0.3s0,1.4,0,1.4c-0.3,1,0.3,1,0.3,1.4c-0.3,0.3-1,0.3-1,0.3c0,0.3,1,0.3,0.7,1
			c0.3,0,1,0,1.7,0c0-0.3,0-1,0.3-1.4c0.7-0.3,1-1,1.7-1.4c0.7-0.3,2,0,1.7,0c0.3,0,0.3,0,0.7-0.3c0.3-0.3,0.7-0.3,0.7-0.7
			c0-0.7,0.3-0.7,0.3-1s-0.3-2,0-2c0.7-0.3,0.7-0.3,1.4-1.4c0.7-0.7,1-0.7,1.4-1c0.3-0.3,1.7,0,2,0c1.4,0,0.3-0.3,0-1
			c-0.3-0.7-0.3-0.7-1-1.4c-0.7-0.7-1-1.4-1.4-2.4c0-0.3-0.7-1-0.7-1.7c0-0.7-0.3-1,0-1.7c0.3-1,0.7-0.7,0.7-0.7
			c0-0.3-0.3-1.4,0-1.7c0.3-0.7,0.7-1.7,0.7-1.7c0.3-0.3,0.3-1.4,0.3-1.7c0.3-1,0.3-1.4,1.4-2c1.4-0.7,1.4-0.3,1.4-2c0-1,0-1,0.3-2
			c0.3-1.4,0-1.7,0.3-2.4c0-0.3,0-1.7,0-3.1c0-1.7-0.7-2-0.7-2.7c-0.7-1.7-1-2.4,0-4.4c0.7-1.4,1.7-1.4,2.4-2c0-0.3,0.3-0.3,0.3-0.7
			c0.7-0.7,2,0,2,0c0.3,0,0.3,1,0.7,1.4c0.3,0.3,1-0.3,1.4,0c0-0.3-0.7-1.7-0.7-2c0-0.3,0.7-0.7,0.7-1c0-0.3-0.7-0.3-0.7-0.3
			s0.7-0.7,0.7-1c0-0.3-0.7-0.3-0.7-0.7c0-0.3,1,0,1.4-0.3c0.3-0.3-0.7-0.7-0.7-1c0.3-0.7,1.4,0,1.4-2c0,0-0.3-0.7,0-1l0.7,0.7
			c0.3-0.3,0.3-0.7,0.7-1c0.3-0.3,1-0.3,1.4-0.7c0,0,0.3,0,0.3-0.7l-0.7-0.3h0.7c0,0-0.7-0.3-0.3-0.3c0-0.3,0.7,0,1-0.3v-0.7
			c1-1.4-0.3-1,0-1.4c0.3-0.3,0.7,0,1-0.7c0-0.3,0.3-0.3-0.3-0.7C227.2,83.9,227.6,83.5,226.9,83.2z M100.7,184.3
			c-0.7-0.3-0.7-1.4-1.7-0.3c0-0.3,0-1,0.3-1.4c0.3-0.3,0.7,0,1.4,0c0.3,0,0.3,0.3,0.7,0.3C101,183.6,100.7,183.9,100.7,184.3z
			 M124.5,136.6c0-0.3,0-0.3,0.3-0.7c0.3,0,1,0,1.4,0C125.8,136.6,125.2,137,124.5,136.6z M127.6,135.9c0.7,0.3,0.7,0,0.7,0.7
			C127.9,136.3,127.2,136.3,127.6,135.9z M162.3,138c-0.3,0.3,0,0-0.3,0.3c-0.3,0.3-0.3,0.3-0.7,0.7c-0.3,0.3-0.7,0.7-1,1
			c-0.3,0.3-0.3-0.3-1,0.3c-0.7,0.3-0.7,1-0.7,1.4s-0.7,0.3-0.3-0.3c0.7-1,0.3-1.7,0.7-2c0.7-0.3,0.7-0.7,1-1
			c0.3-0.3,0.3-0.7,0.3-0.7c0-0.3-0.7-0.7,0-1c0.3-0.3,1-0.3,1-0.3s0.7-0.7,0.3,0c0,0.7-0.3,0.3,0,1
			C161.9,137.3,162.6,137.6,162.3,138z M177.2,145.1c-0.3,0.3-0.3,0.3-0.7,0c-0.3-0.3,0,0,0.3-0.3l0.3-0.3
			C177.6,144.4,177.6,144.8,177.2,145.1z M205.1,111.1c-0.3,0-0.3,0-0.7-0.7c-0.3-0.7,0.7-0.7,1-0.3
			C205.8,110.4,205.8,111.1,205.1,111.1z"/>
		<path class="st0" d="M95.6,175.4c0.7,0,0.7-0.3,0.7-0.3c-0.3,0-0.3-0.3-0.7-0.3c-0.3,0-0.3,0-0.3,0c0.3,0,0.7,0,0.3,0
			C95.6,175.1,95.2,175.4,95.6,175.4z"/>
		<path class="st0" d="M218.4,266.9c0,0.7,1,1.4,1,0.3C219.1,266.2,218.4,266.2,218.4,266.9z"/>
		<path class="st0" d="M88.8,156c-0.3,0.3-0.7,1.4-0.7,1.7c0.3,0,1.4-0.3,2-0.3C89.8,156.4,89.1,155.7,88.8,156z"/>
		<path class="st0" d="M201,173.4c0,0.3,1,1.4,1,0.3C201.7,172.3,201,173,201,173.4z"/>
		<path class="st0" d="M199.7,155.3c-0.3,0.3-0.7,1,0,1C200,156,200,155,199.7,155.3z"/>
		<path class="st0" d="M197,144.4c-0.3,0.3-0.3,0.3-0.3,1c0,0.3,0,0.3,0.3,0.7c0.7,0,0.7,0,0.7-0.7C198,144.8,197.3,144.1,197,144.4
			z"/>
		<path class="st0" d="M202.1,164.9c-1-0.3-1,0.7-0.3,1.4C202.4,166.2,202.7,165.2,202.1,164.9z"/>
		<path class="st0" d="M206.8,198.2c0.3,0.7,1.4,0.7,1-0.3C207.5,196.8,206.8,197.2,206.8,198.2z"/>
		<path class="st0" d="M198.7,152.6c-0.7,0-0.7,0.3-0.3,0.7c0,0.3,0.3,0.7,0.7,0.3c0.3-0.3,0.7,0,0.3-0.7
			C199,152.6,199.3,152.6,198.7,152.6z"/>
		<path class="st0" d="M218.7,259.8c0.3-0.7-0.3-1.7-0.7-0.7C217.7,260.1,218.4,260.5,218.7,259.8z"/>
		<path class="st0" d="M194.2,151.6c-0.3,0.7,0.3,0.3,0.7,0C195.3,151.2,194.9,150.9,194.2,151.6z"/>
		<path class="st0" d="M127.6,129.1c0-1.4-0.7-1-2-1C125.8,129.8,126.5,129.1,127.6,129.1z"/>
		<path class="st0" d="M143.2,146.1c0.3,0,0.7-0.7,0-0.7c-0.3,0-0.7,0-1,0.3c-0.7,0.3-0.7,0.3,0,0.3
			C142.9,146.5,142.9,146.5,143.2,146.1z"/>
		<path class="st0" d="M129.6,126.1c-0.3-0.7-1,0-1.7,0c0,1.4,0.3,1.7,2,1.7C130.3,127.4,129.9,126.4,129.6,126.1z"/>
		<path class="st0" d="M121.4,153.6c0,0.7,0.3,0.7,1,0.3C122.4,153.6,122.1,153.6,121.4,153.6z"/>
		<path class="st0" d="M139.5,148.9c0,0.3,0.3-0.3,0.3-0.3c0.3,0,0,0.3,0.7,0c0.3,0,0-0.3,0.3-1c0.3-0.7,0-0.3-0.7-0.3
			c-0.7,0-0.7,0-1.4,0.3s0,0.3,0.3,0.3C139.5,148.2,139.5,148.5,139.5,148.9z"/>
		<path class="st0" d="M144.9,155c-1.4,0,0-1-1.4-1c0-0.3,0-2,0.3-2.7c-1.4,0.3-2,0.7-3.1-0.3c-0.7-0.7-1-1-2.4-1
			c-0.7,0-1-0.3-1.7-0.3c-0.3,0-0.7,0-1,0c0,0.3,0,0-0.3,0c-0.3,0,0-0.3-0.7-0.7c-0.3,0-0.7,0-0.7,0.3c0.3,0,1,0,1,0.3
			c-0.3-0.3-1.4,0.7-1.7,1c-1.4,0.3-0.7,1-0.3,2c-0.7,0-0.7,1-1,1.4h-1.4c-1,0-0.3-0.7-1-0.7l0,0c0,0.3-0.3,0.7-0.7,0.3
			c-0.7,0-1.4,0.3-2,0.3c0-0.7-1-2-2-2c0,0.7-0.7,0.7-1,1c-0.7,0.3-0.3,1-1,1.7c0,0.3-0.3,0.3-0.7,0.3v1.7c-0.7,0.7-1.7,1-2,1.7
			c0,0-0.3,0.3-0.3,0c-0.7,0-0.3,0.3-0.7,0.7c-0.3,0.7-1,0-1.4,0.7c-0.3,0.7-1-0.3-1.7,0.3c-0.3,0.7-0.7,0.7-1.4,0.7
			c0.3,0.3,1,0.3,1,0.7c1-0.7,1.7-1.4,3.1-1.7c0,0.7-0.3,1.7,0.3,2c0.7,0.3,1.4,0.3,1.4,1c0.3,0.7-1.7,0.7-1.4,1.4
			c0.3,0.7,0.7,0,0.3,1c0,0.3,0,1,0.7,1c0,0.3-0.3,1-0.3,1.4c0.3,0,0.7-0.7,1-0.7c0.3,0,1.4,0,1.4,0.3c0.3,0.3-0.7,1-0.7,1.4
			s0.3,0,0.7,0c0.7,0,1.4,0,2,0c0.7,0,1.4,0.7,1.7,0.7c-0.3-0.7-0.7-1.7-0.7-2.4c0-1.4,0.7-1.4,1.4-2c0.3-0.3,0.7-0.3,0.7-0.7
			c0.3-0.7,1,0,1-1c0-1.7,0.3-2.4,1.7-2.4c0-1.4,3.1-1.4,4.1-1.4c1.4,0,4.1,2,4.1,3.1c1-1,0.7-1.7,1-3.1c0-0.3,0.3-0.3,0.7-0.3
			c0.7,0,0.3-0.3,0.7-0.7c0.3-0.3,0.7-0.3,1-0.3c0.7,0,0.3-0.7,1-1c0.3,0,0.7-0.7,0.7-0.7c0-0.7,1,0,1.4-0.7
			C144.2,156.4,144.6,155.3,144.9,155z"/>
		<path class="st0" d="M195.6,149.5c-0.3,0.7-0.3,0.7,0,0.7s0.3,0,0.7-0.7C196.3,149.2,195.9,148.9,195.6,149.5z"/>
		<path class="st0" d="M117,154.7v1c0.7,0,1.7-0.3,2.4-0.3C119.4,154.3,117.3,154.7,117,154.7z"/>
		<path class="st0" d="M85.4,146.1c-0.7,0.3-1.4,0.7-1.4,1c0,0.7,0,2.4-0.7,3.1c-1,0.7-0.3,2-0.3,3.1c0.7,0,1-0.7,1.4-1.7
			c0.3-0.7,0.7-0.3,1-1c0.3-0.7-0.3-1,0-2.4c1.4-0.3,0.7-1.4,1-2.4C85.7,145.8,86.4,145.8,85.4,146.1z"/>
	</g>
</g>
<path class="st1" d="M162.3,92.5c-16.4,0-29.8,13.3-29.8,29.8s13.3,29.8,29.8,29.8s29.8-13.3,29.8-29.8S178.7,92.5,162.3,92.5z"/>
<g>
	<g>
		<path class="st2" d="M166.3,111.2c0,0.5-0.3,1.3-1.3,2.1c-0.9,0.7-1.7,1.5-1.8,3.4c0,1.8,0,5.8,0,7.3s0,7.6,0,9.1
			c0,1.4,0,8.5,0,9.2s-0.1,2.6,1,2.9c0.6,0.1,1.4,0.2,2.1,0.3c0.8,0.1,2.2,0.1,2.2,0.1s1.4,0,2.2-0.1c0.8,0,1.6-0.2,2.1-0.3
			c1.1-0.3,1-2.2,1-2.9c0-0.7,0-7.7,0-9.2c0-1.4,0-7.5,0-9.1c0-1.5,0-5.5,0-7.3c0-1.8-0.8-2.6-1.8-3.4c-0.9-0.7-1.2-1.5-1.3-2.1
			c0-0.3-0.1-1.3-0.1-2.4h-4.2C166.4,109.8,166.3,110.9,166.3,111.2z"/>
		<path class="st3" d="M170.6,99.9c0,0,0-0.2,0-0.3s0-0.2-0.1-0.3c-0.1-0.1-0.6-0.2-0.8-0.2c-0.2,0-0.9,0-1.2,0c-0.2,0-1,0-1.2,0
			s-0.6,0.1-0.8,0.2c-0.1,0.1-0.1,0.2-0.1,0.3s0,0.3,0,0.3c0.4-0.1,1.2-0.1,2-0.1C169.4,99.8,170.2,99.8,170.6,99.9z"/>
		<path class="st3" d="M166.4,100c0.4-0.1,1.2-0.1,2.2-0.1c0.9,0,1.7,0,2.2,0.1l-0.1-0.1l0,0c-0.4-0.1-1.2-0.1-2-0.1s-1.6,0-2,0.1
			l0,0L166.4,100z"/>
		<path class="st3" d="M170.7,100c-0.4-0.1-1.2-0.1-2.2-0.1c-0.9,0-1.7,0-2.2,0.1l0,0v0.2v0.8c0.4-0.1,1.2-0.1,2.2-0.1
			c0.9,0,1.8,0,2.2,0.1v-0.8V100L170.7,100z"/>
		<path class="st3" d="M166.5,101.2L166.5,101.2L166.5,101.2z"/>
		<path class="st3" d="M170.6,101.2l0.1-0.2L170.6,101.2z"/>
		<path class="st3" d="M166.4,101L166.4,101l0.1,0.2l0,0c0.4-0.1,1.2-0.1,2-0.1s1.6,0,2,0.1l0.1-0.1l0,0c-0.4-0.1-1.2-0.1-2.2-0.1
			C167.6,100.9,166.8,100.9,166.4,101z"/>
		
			<linearGradient id="SVGID_1_" gradientUnits="userSpaceOnUse" x1="166.4157" y1="178.9724" x2="170.7619" y2="178.9724" gradientTransform="matrix(1 0 0 -1 0 280)">
			<stop  offset="0" style="stop-color:#943A3F"/>
			<stop  offset="2.551013e-02" style="stop-color:#92393E"/>
			<stop  offset="1" style="stop-color:#4C2629"/>
		</linearGradient>
		<path class="st4" d="M166.4,101L166.4,101l0.1,0.2l0,0c0.4-0.1,1.2-0.1,2-0.1s1.6,0,2,0.1l0.1-0.1l0,0c-0.4-0.1-1.2-0.1-2.2-0.1
			C167.6,100.9,166.8,100.9,166.4,101z"/>
		<path class="st3" d="M168.6,101.3c0.8,0,1.6,0,2-0.1c0-0.1,0-0.1,0-0.1l0,0c-0.4-0.1-1.2-0.1-2-0.1s-1.6,0-2,0.1c0,0,0,0,0,0.1
			C167,101.3,167.7,101.3,168.6,101.3z"/>
		<path class="st3" d="M170.7,106.8c0-0.6-0.1-2.9-0.1-3.5c0-0.5,0-1.9,0-2.1l0,0l0,0c-0.4-0.1-1.2-0.1-2-0.1s-1.6,0-2,0.1
			c0,0,0,1.6,0,2.2s0,2.9-0.1,3.5c0,0.3,0,1.1-0.1,2h4.3C170.7,107.9,170.7,107.1,170.7,106.8z"/>
		<path class="st5" d="M166.4,108.8L166.4,108.8h4.3l0,0H166.4z"/>
		<path class="st5" d="M167.7,101.1c-0.3,0-0.6,0-0.8,0v7.7h0.8V101.1z"/>
		<path class="st5" d="M166.7,101c0.2,0,0.5,0,0.8-0.1v-1c-0.3,0-0.6,0-0.8,0.1V101z"/>
		<path class="st5" d="M167.7,99.8v-0.7c-0.1,0-0.2,0-0.3,0s-0.1,0-0.2,0c-0.2,0.1-0.3,0.2-0.3,0.4v0.3
			C167.1,99.8,167.4,99.8,167.7,99.8z"/>
		
			<linearGradient id="SVGID_00000030459791108358914570000000222272686892474815_" gradientUnits="userSpaceOnUse" x1="166.7455" y1="178.9849" x2="167.7329" y2="178.9849" gradientTransform="matrix(1 0 0 -1 0 280)">
			<stop  offset="0" style="stop-color:#943A3F"/>
			<stop  offset="2.551013e-02" style="stop-color:#92393E"/>
			<stop  offset="1" style="stop-color:#4C2629"/>
		</linearGradient>
		<path style="opacity:0.5;fill:url(#SVGID_00000030459791108358914570000000222272686892474815_);enable-background:new    ;" d="
			M167.7,101.1l-0.2-0.2l0,0c-0.3,0-0.6,0-0.8,0.1l0,0l0.2,0.2l0,0C167.1,101.1,167.4,101.1,167.7,101.1L167.7,101.1z"/>
		<path class="st7" d="M166.7,111.9c0,0.5,1.3,0.3,1.5-0.3c0,0,0-1.9,0-2.7h-1.4C166.8,110,166.7,111.4,166.7,111.9z"/>
		<path class="st8" d="M172.6,130.5c0-0.5,0-3.8,0-4.3s0.1-2-0.7-2.2c-0.4-0.1-1-0.2-1.7-0.2c-0.1,0-0.2,0-0.3,0c0-0.1,0-0.1,0-0.2
			c0-0.8-0.7-1.5-1.5-1.5s-1.5,0.7-1.5,1.5c0,0.1,0,0.1,0,0.2c-0.1,0-0.2,0-0.3,0c-0.6,0-1.2,0.1-1.7,0.2c-0.9,0.2-0.7,1.7-0.7,2.2
			s0,3.8,0,4.3s-0.1,2,0.7,2.2c0.4,0.1,1,0.2,1.7,0.2c0.6,0,1.7,0,1.7,0s1.1,0,1.7,0c0.6,0,1.2-0.1,1.7-0.2
			C172.7,132.5,172.6,131,172.6,130.5z"/>
		<path class="st7" d="M167.3,117.3c0-0.7,0.2-1.9,0.2-1.9s-0.1-0.3-0.8-0.6c-0.8-0.3-1.3-0.2-1.3-0.2s0,0-0.1,0.1l0,0
			c0,0,0,0-0.1,0.1l0,0c0,0,0,0-0.1,0.1l0,0c0,0,0,0,0,0.1c-0.1,0.1-0.1,0.1-0.2,0.2l0,0c0,0,0,0.1-0.1,0.1l0,0c0,0,0,0.1-0.1,0.1
			c0,0,0,0,0,0.1c0,0,0,0.1-0.1,0.1c0,0,0,0,0,0.1c0,0,0,0.1-0.1,0.1c0,0,0,0,0,0.1v0.1v0.1v0.1v0.1c0,0,0,0.1,0,0.2v0.1
			c0,0.1,0,0.1,0,0.2v0.1c0,0.1,0,0.1,0,0.2v0.1c0,0.1,0,0.2,0,0.3c0,1.7,0,25.7,0,26.2v0.1v0.1l0,0v0.1l0,0v0.1l0,0
			c0,0.3,0.2,0.7,0.6,1.1c0.1,0,0.2,0,0.4,0.1c0.4,0.1,0.8,0.1,1.2,0.1c0.3,0,0.6,0,0.9,0c0-2.5-0.2-22.9-0.2-24.1
			C167.3,120.1,167.3,118,167.3,117.3z"/>
	</g>
	<g>
		<path class="st9" d="M158.5,129.2L158.5,129.2c0-0.1,0-0.1,0-0.2l0,0c0-1.5-0.3-3.3-0.4-3.8c-0.1-0.6-0.6-2.9-0.8-3.8
			c-0.1-0.3-0.1-0.4-0.1-0.4s-0.1,0-0.3,0c-0.6,0-1.8,0-3.1,0c-1.4,0-2.6,0-3.1,0c-0.2,0-0.3,0-0.3,0l0,0c0,0,0,0.2-0.1,0.4
			c-0.2,1-0.7,3.3-0.8,3.8s-0.5,2.4-0.4,4l0,0c0,0.1,0,0.1,0,0.2l0,0l0,0c0,0.1,0,0.2,0,0.3l0,0c0,0.1,0,0.2,0,0.2l0,0l0,0
			c0,0.1,0,0.1,0,0.2l0,0v0.1c0,0,0,0,0,0.1v0.1l0,0c0,0,0,0.1,0.1,0.1l0,0v0.1c0,0,0,0,0,0.1v0.1c0,0,0,0,0,0.1c0,0,0,0.1,0.1,0.1
			c0,0,0,0,0,0.1c0,0,0,0.1,0.1,0.1c0,0,0,0,0,0.1c0,0,0,0,0,0.1c0,0,0,0,0,0.1l0,0c0.2,0.3,0.5,0.5,0.7,0.8l0,0l0,0l0,0l0,0
			l0.1,0.1c0,0,0,0,0.1,0.1c0.1,0.1,0.1,0.1,0.2,0.2l0,0c0.1,0,0.1,0.1,0.2,0.1c0,0,0.1,0,0.1,0.1l0.1,0.1l0,0l0,0
			c0.2,0.1,0.4,0.3,0.5,0.4l0,0c0.5,0.4,0.9,0.7,1.1,1.1l0,0c0,0,0,0.1,0.1,0.1l0,0c0,0,0,0.1,0.1,0.1c0.1,0.3,0.2,1,0.3,1.9l0,0
			c0,0.3,0,3.9,0,4.4c0,0.4,0,1-0.1,1.7c0,0.1,0,0.1,0,0.2l0,0v0.1l0,0c0,0,0,0.1-0.1,0.1l0,0c0,0,0,0.1-0.1,0.1l0,0l-0.1,0.1l0,0
			l-0.1,0.1l0,0l-0.1,0.1l0,0l-0.1,0.1c-0.1,0.1-0.2,0.2-0.3,0.2c-0.8,0.4-1.7,0.6-2.2,0.8c-0.2,0.1-0.4,0.1-0.4,0.1l0,0
			c0,0.2,1.8,0.3,4,0.3s4-0.1,4-0.3c0,0-0.2,0-0.4-0.1c-0.5-0.2-1.4-0.4-2.2-0.8c-0.1,0-0.2-0.1-0.3-0.2l0,0
			c-0.1-0.1-0.1-0.1-0.2-0.2l0,0l-0.1-0.1l0,0l-0.1-0.1l0,0c0,0,0-0.1-0.1-0.1l0,0c0,0,0-0.1-0.1-0.1l0,0v-0.1l0,0
			c0-0.1,0-0.1,0-0.2c-0.1-0.8-0.1-1.3-0.1-1.7c0-0.4,0-4,0-4.4c0.1-0.9,0.2-1.6,0.3-1.9c0,0,0-0.1,0.1-0.1l0,0c0,0,0-0.1,0.1-0.1
			l0,0c0.2-0.3,0.6-0.7,1.1-1.1l0,0c0.2-0.1,0.3-0.3,0.5-0.4l0,0l0,0l0.1-0.1c0,0,0.1,0,0.1-0.1c0.1-0.1,0.1-0.1,0.2-0.2l0,0
			c0.1-0.1,0.1-0.1,0.2-0.2c0,0,0,0,0.1-0.1l0.1-0.1l0,0l0,0l0,0l0,0l0,0c0.6-0.6,1.1-1.3,1.3-2.1l0,0l0,0l0,0l0,0l0,0l0,0l0,0
			c0-0.1,0-0.2,0-0.2l0,0c0-0.1,0-0.2,0-0.3l0,0l0,0l0,0C158.5,129.3,158.5,129.2,158.5,129.2z"/>
		<path class="st10" d="M158.1,129.4c-0.2-0.1-2-0.2-4.3-0.2s-4.1,0.1-4.3,0.2l0,0c0,0.2,0,0.3,0.1,0.5l0,0l0,0v0.1l0,0v0.1l0,0v0.1
			l0,0c0,0,0,0.1,0.1,0.1l0,0v0.1l0,0v0.1l0,0c0,0,0,0.1,0.1,0.1c0,0,0,0,0,0.1c0,0,0,0.1,0.1,0.1c0,0,0,0,0,0.1c0,0,0,0,0,0.1
			c0,0,0,0,0,0.1l0,0c0.2,0.3,0.4,0.5,0.6,0.7l0,0l0,0l0,0l0,0l0.1,0.1c0,0,0,0,0.1,0.1c0.1,0.1,0.1,0.1,0.2,0.2l0,0
			c0.1,0,0.1,0.1,0.2,0.1c0,0,0.1,0,0.1,0.1l0.1,0.1l0,0l0,0l0,0l0,0c0,0,0.1,0,0.1,0.1c0,0,0.1,0,0.1,0.1c0,0,0.1,0,0.1,0.1
			c0,0,0.1,0,0.1,0.1c0,0,0.1,0,0.1,0.1c0,0,0.1,0,0.1,0.1c0,0,0.1,0,0.1,0.1h0.1c0.1,0,0.1,0,0.2,0h0.1c0.1,0,0.1,0,0.2,0h0.1
			c0.1,0,0.1,0,0.2,0h0.1c0.1,0,0.2,0,0.3,0s0.2,0,0.3,0h0.1c0.1,0,0.1,0,0.2,0h0.1c0.1,0,0.1,0,0.2,0h0.1c0.1,0,0.1,0,0.2,0h0.1
			c0,0,0.1,0,0.1-0.1c0,0,0.1,0,0.1-0.1c0,0,0.1,0,0.1-0.1c0,0,0.1,0,0.1-0.1c0,0,0.1,0,0.1-0.1c0,0,0.1,0,0.1-0.1
			c0,0,0.1,0,0.1-0.1l0,0l0,0l0,0l0,0l0.1-0.1c0,0,0.1,0,0.1-0.1c0.1,0,0.1-0.1,0.2-0.1l0,0c0.1-0.1,0.1-0.1,0.2-0.2c0,0,0,0,0.1,0
			l0.1-0.1l0,0l0,0l0,0l0,0l0,0c0.5-0.5,1-1.2,1.2-1.9l0,0l0,0l0,0l0,0l0,0l0,0l0,0C158.1,129.8,158.1,129.6,158.1,129.4
			L158.1,129.4z"/>
		<g class="st11">
			<path class="st12" d="M158.1,125.2c-0.1-0.6-0.6-2.9-0.8-3.8c-0.1-0.3-0.1-0.4-0.1-0.4s-0.1,0-0.3,0c-0.6,0-1.8,0-3.1,0
				c-0.4,0-0.9,0-1.2,0c0.8,0,1.5,0,1.9,0c0.2,0,0.3,0,0.3,0s0,0.2,0.1,0.4c0.2,1,0.7,3.3,0.8,3.8c0.1,0.5,0.4,2.3,0.4,3.8l0,0v0.1
				l0,0v0.1l0,0l0,0l0,0c0,0.1,0,0.2,0,0.3l0,0c0,0.1,0,0.2,0,0.2l0,0l0,0l0,0l0,0l0,0l0,0l0,0c-0.2,0.8-0.8,1.5-1.3,2.1l0,0l0,0
				l0,0l0,0l0,0l-0.1,0.1c0,0,0,0-0.1,0.1c-0.1,0.1-0.1,0.1-0.2,0.2l0,0c-0.1,0.1-0.1,0.1-0.2,0.2c0,0-0.1,0-0.1,0.1l-0.1,0.1l0,0
				l0,0c-0.2,0.1-0.4,0.3-0.5,0.4l0,0c-0.2,0.2-0.4,0.3-0.6,0.5c0.2,0.2,0.4,0.4,0.5,0.6l0,0c0,0,0,0.1,0.1,0.1l0,0
				c0,0,0,0.1,0.1,0.1c0.1,0.3,0.2,1,0.3,1.9l0,0c0,0.3,0,3.9,0,4.4c0,0.4,0,1-0.1,1.7c0,0.1,0,0.1,0,0.2l0,0v0.1l0,0
				c0,0,0,0.1-0.1,0.1l0,0c0,0,0,0.1-0.1,0.1l0,0l-0.1,0.1l0,0l-0.1,0.1l0,0l-0.1,0.1l0,0l-0.1,0.1c-0.1,0-0.1,0.1-0.2,0.1
				c0.1,0,0.1,0.1,0.2,0.1c0.8,0.3,1.7,0.6,2.2,0.8c0.3,0.1,0.4,0.1,0.4,0.1c0,0.1-1.2,0.2-2.8,0.3c0.4,0,0.8,0,1.2,0
				c2.2,0,4-0.1,4-0.3c0,0-0.2,0-0.4-0.1c-0.5-0.2-1.4-0.4-2.2-0.8c-0.1,0-0.2-0.1-0.3-0.2l0,0c-0.1-0.1-0.1-0.1-0.2-0.2l0,0
				l-0.1-0.1l0,0l-0.1-0.1l0,0c0,0,0-0.1-0.1-0.1l0,0c0,0,0-0.1-0.1-0.1l0,0v-0.1l0,0c0-0.1,0-0.1,0-0.2c-0.1-0.8-0.1-1.3-0.1-1.7
				s0-4,0-4.4c0.1-0.9,0.2-1.6,0.3-1.9c0,0,0-0.1,0.1-0.1l0,0c0,0,0-0.1,0.1-0.1l0,0c0.2-0.3,0.6-0.7,1.1-1.1l0,0
				c0.2-0.1,0.3-0.3,0.5-0.4l0,0l0,0l0.1-0.1c0,0,0.1,0,0.1-0.1c0.1-0.1,0.1-0.1,0.2-0.2l0,0c0.1-0.1,0.1-0.1,0.2-0.2
				c0,0,0,0,0.1-0.1l0.1-0.1l0,0l0,0l0,0l0,0l0,0c0.6-0.6,1.1-1.3,1.3-2.1l0,0l0,0l0,0l0,0l0,0l0,0l0,0c0-0.1,0-0.2,0-0.2l0,0
				c0-0.1,0-0.2,0-0.3l0,0l0,0l0,0v-0.1l0,0V129l0,0C158.6,127.5,158.2,125.7,158.1,125.2z"/>
		</g>
		<path class="st13" d="M152.9,121.6c0-0.1,0-0.2,0.1-0.3c0-0.1-0.1-0.1-0.1-0.2c-0.5,0-1,0-1.2,0s-0.3,0-0.3,0l0,0
			c0,0,0,0.2-0.1,0.4c-0.2,1-0.7,3.3-0.8,3.8c-0.1,0.5-0.5,2.4-0.4,4l0,0c0,0.1,0,0.1,0,0.2l0,0l0,0c0,0.1,0,0.2,0,0.3l0,0
			c0,0.1,0,0.2,0,0.2l0,0l0,0c0,0.1,0,0.1,0,0.2l0,0v0.1c0,0,0,0,0,0.1v0.1l0,0c0,0,0,0.1,0.1,0.1l0,0v0.1c0,0,0,0,0,0.1v0.1
			c0,0,0,0,0,0.1c0,0,0,0.1,0.1,0.1c0,0,0,0,0,0.1c0,0,0,0.1,0.1,0.1c0,0,0,0,0,0.1c0,0,0,0,0,0.1c0,0,0,0,0,0.1l0,0l0,0
			c0.1,0.3,0.4,0.4,0.7,0.4c0.4,0,0.7-0.3,0.7-0.7c0-0.1-0.1-0.3-0.1-0.4v-0.1l0,0c0,0,0-0.1-0.1-0.1l0,0v-0.1c0,0,0,0,0-0.1v-0.1
			l0,0c0-0.1,0-0.1,0-0.2l0,0l0,0c0-0.1,0-0.2,0-0.2l0,0c0-0.1,0-0.2,0-0.3l0,0l0,0c0-0.1,0-0.1,0-0.2l0,0c-0.1-1.6,0.3-3.4,0.4-4
			C152.2,124.9,152.7,122.6,152.9,121.6z"/>
	</g>
	<path class="st14" d="M162.2,96.1c14.5,0,26.2,11.7,26.2,26.2s-11.7,26.2-26.2,26.2S136,136.7,136,122.3
		C136,107.8,147.7,96.1,162.2,96.1 M162.2,92.5c-16.4,0-29.8,13.3-29.8,29.8s13.3,29.8,29.8,29.8s29.8-13.3,29.8-29.8
		S178.6,92.5,162.2,92.5z"/>
	<circle class="st3" cx="168.5" cy="123.6" r="0.9"/>
</g>
</svg>
