<?xml version="1.0" encoding="utf-8"?>
<!-- Generator: Adobe Illustrator 22.0.1, SVG Export Plug-In . SVG Version: 6.00 Build 0)  -->
<svg version="1.1" id="Layer_1" xmlns="http://www.w3.org/2000/svg" xmlns:xlink="http://www.w3.org/1999/xlink" x="0px" y="0px"
	 viewBox="0 0 72.7 73.2" style="enable-background:new 0 0 72.7 73.2;" xml:space="preserve">
<style type="text/css">
	.st0{fill:url(#SVGID_1_);}
	.st1{fill:url(#SVGID_2_);}
</style>
<linearGradient id="SVGID_1_" gradientUnits="userSpaceOnUse" x1="0.1587" y1="36.7727" x2="72.691" y2="36.7727" gradientTransform="matrix(0.7071 0.7071 -0.7071 0.7071 36.6828 -15.1458)">
	<stop  offset="0" style="stop-color:#00A9CE"/>
	<stop  offset="1" style="stop-color:#4D72B8"/>
</linearGradient>
<path class="st0" d="M62.1,11C47.9-3.2,24.9-3.2,10.8,11s-14.1,37.1,0,51.3s37.1,14.1,51.3,0S76.2,25.1,62.1,11z M12.2,60.8
	c-13.4-13.4-13.4-35.1,0-48.5s35.1-13.4,48.5,0s13.4,35.1,0,48.5S25.6,74.2,12.2,60.8z"/>
<linearGradient id="SVGID_2_" gradientUnits="userSpaceOnUse" x1="18.7808" y1="36.4268" x2="53.9688" y2="36.4268">
	<stop  offset="0" style="stop-color:#00A9CE"/>
	<stop  offset="1" style="stop-color:#4D72B8"/>
</linearGradient>
<path class="st1" d="M30,48.9c-0.3,0-0.5-0.1-0.7-0.3L19.1,38.3c-0.4-0.4-0.4-1,0-1.4s1-0.4,1.4,0l9.5,9.5l22.2-22.2
	c0.4-0.4,1-0.4,1.4,0s0.4,1,0,1.4L30.7,48.6C30.5,48.8,30.3,48.9,30,48.9z"/>
</svg>
