<?xml version="1.0" encoding="utf-8"?>
<!-- Generator: Adobe Illustrator 22.0.1, SVG Export Plug-In . SVG Version: 6.00 Build 0)  -->
<svg version="1.1" id="Layer_1" xmlns="http://www.w3.org/2000/svg" xmlns:xlink="http://www.w3.org/1999/xlink" x="0px" y="0px"
	 viewBox="0 0 72.7 73.2" style="enable-background:new 0 0 72.7 73.2;" xml:space="preserve">
<style type="text/css">
	.st0{fill:url(#SVGID_1_);}
	.st1{fill:url(#SVGID_2_);}
</style>
<linearGradient id="SVGID_1_" gradientUnits="userSpaceOnUse" x1="0.1587" y1="36.7727" x2="72.691" y2="36.7727" gradientTransform="matrix(0.7071 0.7071 -0.7071 0.7071 36.6828 -15.1458)">
	<stop  offset="0" style="stop-color:#20284D"/>
	<stop  offset="1" style="stop-color:#4D72B8"/>
</linearGradient>
<path class="st0" d="M62.1,11C47.9-3.2,24.9-3.2,10.8,11s-14.1,37.1,0,51.3s37.1,14.1,51.3,0S76.2,25.1,62.1,11z M12.2,60.8
	c-13.4-13.4-13.4-35.1,0-48.5s35.1-13.4,48.5,0s13.4,35.1,0,48.5S25.6,74.2,12.2,60.8z"/>
<linearGradient id="SVGID_2_" gradientUnits="userSpaceOnUse" x1="23.2498" y1="50.1742" x2="49.8093" y2="23.6146" gradientTransform="matrix(0 1 -1 0 73.3312 8.308623e-02)">
	<stop  offset="0" style="stop-color:#20284D"/>
	<stop  offset="1" style="stop-color:#4D72B8"/>
</linearGradient>
<path class="st1" d="M49.7,49.9c0.4-0.4,0.4-1,0-1.4L37.9,36.6l11.9-11.9c0.4-0.4,0.4-1,0-1.4s-1-0.4-1.4,0L36.4,35.2L24.6,23.3
	c-0.4-0.4-1-0.4-1.4,0c-0.2,0.2-0.3,0.5-0.3,0.7s0.1,0.5,0.3,0.7L35,36.6L23.2,48.5c-0.2,0.2-0.3,0.5-0.3,0.7s0.1,0.5,0.3,0.7
	c0.4,0.4,1,0.4,1.4,0L36.4,38l11.9,11.9C48.7,50.3,49.3,50.3,49.7,49.9z"/>
</svg>
