<?xml version="1.0" encoding="utf-8"?>
<!-- Generator: Adobe Illustrator 22.0.1, SVG Export Plug-In . SVG Version: 6.00 Build 0)  -->
<svg version="1.1" id="Isolation_Mode" xmlns="http://www.w3.org/2000/svg" xmlns:xlink="http://www.w3.org/1999/xlink" x="0px"
	 y="0px" viewBox="0 0 571.6 430.2" style="enable-background:new 0 0 571.6 430.2;" xml:space="preserve">
<style type="text/css">
	.st0{fill:#5BA2A9;}
	.st1{fill:#4F9EA7;}
	.st2{fill:#C1CAD1;}
	.st3{fill:#0077C0;}
	.st4{fill:#DEDEDE;}
	.st5{fill:#0067B0;}
	.st6{fill:#B3BEC6;}
	.st7{fill:#A0A0A0;}
	.st8{fill:#A5DBF2;}
	.st9{fill:#3C4A59;}
	.st10{fill:#7C8A99;}
	.st11{fill:#272729;}
	.st12{fill:#29333D;}
	.st13{fill:#4C5A69;}
	.st14{fill:#C0C0C0;}
	.st15{fill:#E0E0E0;}
	.st16{fill:#ADADAD;}
	.st17{fill:#1C2A39;}
	.st18{fill:#2C3A49;}
	.st19{fill:#D0D0D0;}
	.st20{fill:#EBE4D6;}
	.st21{fill:#899394;}
	.st22{fill:#9CA7A8;}
	.st23{fill:#0F0F0F;}
	.st24{fill:#303030;}
	.st25{fill:#102770;}
	.st26{fill:#0B1B4D;}
	.st27{fill:#1A1A1A;}
	.st28{fill:#5C5C5C;}
	.st29{fill:#8C9AA9;}
	.st30{fill:#0F2466;}
	.st31{fill:#E36A00;}
	.st32{fill:#FF7700;}
	.st33{fill:#FFA915;}
	.st34{fill:#FFCC40;}
	.st35{fill:#FFD257;}
	.st36{fill:#F9B32F;}
	.st37{fill:#F9BF3B;}
	.st38{fill:#F39C12;}
	.st39{fill:#F5AB35;}
	.st40{fill:#B5B3A0;}
	.st41{fill:#EDEBD2;}
	.st42{fill:#DEDCC4;}
	.st43{fill:#F5F3D8;}
	.st44{fill:#8F8F8F;}
	.st45{fill:#424242;}
	.st46{fill:#242424;}
	.st47{fill:#FFD45E;}
	.st48{fill:#1F1807;}
</style>
<rect x="-0.4" y="-0.9" class="st0" width="573" height="432"/>
<polygon class="st1" points="572.5,431.1 572.5,-0.9 -0.5,-0.9 -0.5,161.6 487.1,431.1 "/>
<g>
	<polygon class="st2" points="430,347.1 228.4,230.7 228.4,152.2 430,268.6 	"/>
	<polygon class="st3" points="430,347.1 228.4,230.7 228.4,220.4 430,336.8 	"/>
	<polygon class="st4" points="547.2,282.8 430,346.9 430,268.4 547.2,203.2 	"/>
	<polygon class="st5" points="547.2,282.8 430,346.9 430,336.6 547.2,271.4 	"/>
	<polygon class="st3" points="430,312.2 228.4,195.9 228.4,185.6 430,302 	"/>
	<polygon class="st5" points="547.2,248 430,312.1 430,301.8 547.2,236.6 	"/>
	<polygon class="st3" points="430,279.5 228.4,163.1 228.4,152.8 430,269.2 	"/>
	<polygon class="st5" points="547.2,215.2 430,279.3 430,269 547.2,203.8 	"/>
	<polygon class="st6" points="228.2,152.1 430.5,269.5 547,203.5 343.2,85.8 	"/>
	<g>
		<polygon class="st7" points="267,202.1 245.5,189.7 245.5,180.1 267,192.5 		"/>
		<polygon class="st8" points="246.6,189.2 246.6,180.9 267,192.7 267,201 		"/>
	</g>
	<g>
		<polygon class="st7" points="315.5,230.3 294,217.8 294,208.2 315.5,220.7 		"/>
		<polygon class="st8" points="295,217.3 295,209 315.5,220.8 315.5,229.1 		"/>
	</g>
	<g>
		<polygon class="st7" points="364.5,258.5 343,246.1 343,236.5 364.5,248.9 		"/>
		<polygon class="st8" points="344.1,245.6 344.1,237.3 364.5,249.1 364.5,257.4 		"/>
	</g>
	<g>
		<polygon class="st7" points="412.6,286.3 391.1,273.8 391.1,264.2 412.6,276.7 		"/>
		<polygon class="st8" points="392.2,273.3 392.2,265 412.6,276.8 412.6,285.1 		"/>
	</g>
	<g>
		<polygon class="st9" points="342.2,296.6 340.4,295.3 340.4,264.9 367.4,280.1 367.4,311 365.5,309.9 365.5,308.2 344,296.3 		"/>
		<polygon class="st10" points="342.2,296.6 342.2,268.1 365.5,281.1 344,296.3 		"/>
		<polygon class="st11" points="344,296.3 344,269 365.5,281.1 365.5,308.2 		"/>
		<polygon class="st12" points="342.2,296.6 365.5,309.9 365.5,308.1 344,295.7 		"/>
	</g>
	<g>
		<polygon class="st9" points="506.6,304.9 508.5,303.7 508.5,273.2 481.5,288.4 481.5,319.3 483.5,318.2 483.5,316.5 504.9,304.6 
					"/>
		<polygon class="st10" points="506.6,304.9 506.6,276.4 483.5,289.5 504.9,304.6 		"/>
		<polygon class="st11" points="504.9,304.6 504.9,277.3 483.5,289.5 483.5,316.5 		"/>
		<polygon class="st12" points="506.6,304.9 483.5,318.3 483.5,316.5 504.9,304.1 		"/>
	</g>
	<g>
		<polygon class="st9" points="390.2,323.8 388.5,322.6 388.5,292.1 415.4,307.3 415.4,338.2 413.5,337.1 413.5,335.5 392,323.5 		
			"/>
		<polygon class="st10" points="390.2,323.8 390.2,295.3 413.5,308.4 392,323.5 		"/>
		<polygon class="st8" points="392,323.5 392,296.2 413.5,308.4 413.5,335.5 		"/>
		<polygon class="st12" points="390.2,323.8 413.5,337.2 413.5,335.4 392,323 		"/>
	</g>
	<g>
		<polygon class="st9" points="293,267.7 291.2,266.5 291.2,236 318.1,251.2 318.1,282.1 316.4,281 316.4,279.3 294.9,267.4 		"/>
		<polygon class="st10" points="293,267.7 293,239.2 316.4,252.3 294.9,267.4 		"/>
		<polygon class="st8" points="294.9,267.4 294.9,240.1 316.4,252.3 316.4,279.3 		"/>
		<polygon class="st12" points="293,267.7 316.4,281.1 316.4,279.3 294.9,266.9 		"/>
	</g>
	<g>
		<polygon class="st9" points="244.6,239.9 242.7,238.7 242.7,208.2 269.8,223.4 269.8,254.3 268,253.2 268,251.6 246.4,239.6 		"/>
		<polygon class="st10" points="244.6,239.9 244.6,211.4 268,224.5 246.4,239.6 		"/>
		<polygon class="st8" points="246.4,239.6 246.4,212.3 268,224.5 268,251.6 		"/>
		<polygon class="st12" points="244.6,239.9 268,253.3 268,251.5 246.4,239.1 		"/>
	</g>
	<path class="st5" d="M255.7,226.6L255.7,226.6l-1.9,0.1l-0.3-1.4l2.3-0.1l1.2,0.7V238l-1.4-0.8L255.7,226.6L255.7,226.6z"/>
	<path class="st5" d="M302,263.4v-1l1.1-0.6c2.7-1.4,3.9-2.3,3.9-4.1c0-1.2-0.5-2.7-2.1-3.6c-1-0.6-1.7-0.4-2.2-0.3l-0.5-1.4
		c0.7-0.3,1.8-0.2,3,0.5c2.3,1.3,3.2,3.6,3.2,5.4c0,2.2-1.4,3.2-3.6,4.4l-0.8,0.4l0,0l4.7,2.7v1.4L302,263.4z"/>
	<path class="st5" d="M403,321v-3.3l-4.9-2.8v-1.1l4.7-5l1.5,0.9v7.5l1.5,0.8v1.3l-1.5-0.8v3.3L403,321z M403,316.4v-4
		c0-0.6,0-1.3,0-1.9l0,0c-0.3,0.5-0.6,0.9-0.9,1.3l-2.6,2.6l0,0L403,316.4z"/>
	<g>
		<g>
			<path class="st7" d="M441.6,229.1c1,0.6,1,2.1-0.1,2.7c-1,0.6-2.7,0.6-3.7,0s-1-2.5,0-3.1C439,228.1,440.6,228.5,441.6,229.1z"/>
			<path class="st13" d="M441.6,228.7c1,0.6,1,1.6,0,2.1c-1,0.6-2.7,0.6-3.7,0s-1-1.6,0-2.1C439,228.1,440.6,228.1,441.6,228.7z"/>
		</g>
		<g>
			<path class="st14" d="M443,226.3c1.7,1,1.6,3.5-0.1,4.4c-1.7,1-4.4,1-6.1,0s-1.7-4.1,0-5.1C438.4,224.7,441.2,225.4,443,226.3z"
				/>
			<path class="st15" d="M442.9,225.7c1.7,1,1.7,2.6,0,3.5c-1.7,1-4.4,1-6.1,0s-1.7-2.6,0-3.5C438.4,224.7,441.1,224.7,442.9,225.7z
				"/>
		</g>
	</g>
	<g>
		<g>
			<path class="st7" d="M499.5,197.4c1,0.6,1,2.1-0.1,2.7c-1,0.6-2.7,0.6-3.7,0s-1-2.5,0-3.1C496.8,196.4,498.5,196.8,499.5,197.4z"
				/>
			<path class="st13" d="M499.5,197c1,0.6,1,1.6,0,2.1c-1,0.6-2.7,0.6-3.7,0s-1-1.6,0-2.1C496.8,196.4,498.5,196.4,499.5,197z"/>
		</g>
		<g>
			<path class="st14" d="M500.8,194.6c1.7,1,1.6,3.5-0.1,4.4c-1.7,1-4.4,1-6.1,0s-1.7-4.1,0-5.1C496.2,193,499,193.7,500.8,194.6z"
				/>
			<path class="st15" d="M500.6,194c1.7,1,1.7,2.6,0,3.5c-1.7,1-4.4,1-6.1,0s-1.7-2.6,0-3.5C496.2,193,499,193,500.6,194z"/>
		</g>
	</g>
	<g>
		<g>
			<path class="st7" d="M283.6,143c1,0.6,1,2.1-0.1,2.7c-1,0.6-2.7,0.6-3.7,0s-1-2.5,0-3.1C280.9,142,282.5,142.4,283.6,143z"/>
			<path class="st13" d="M283.5,142.6c1,0.6,1,1.6,0,2.1c-1,0.6-2.7,0.6-3.7,0s-1-1.6,0-2.1C280.9,142,282.5,142,283.5,142.6z"/>
		</g>
		<g>
			<path class="st14" d="M284.9,140.2c1.7,1,1.6,3.5-0.1,4.4c-1.7,1-4.4,1-6.1,0s-1.7-4.1,0-5.1
				C280.4,138.6,283.1,139.3,284.9,140.2z"/>
			<path class="st15" d="M284.8,139.6c1.7,1,1.7,2.6,0,3.5c-1.7,1-4.4,1-6.1,0s-1.7-2.6,0-3.5C280.4,138.6,283,138.6,284.8,139.6z"
				/>
		</g>
	</g>
	<g>
		<g>
			<path class="st7" d="M341.5,111.3c1,0.6,1,2.1-0.1,2.7c-1,0.6-2.7,0.6-3.7,0s-1-2.5,0-3.1C338.8,110.3,340.5,110.7,341.5,111.3z"
				/>
			<path class="st13" d="M341.5,110.8c1,0.6,1,1.6,0,2.1c-1,0.6-2.7,0.6-3.7,0s-1-1.6,0-2.1S340.4,110.3,341.5,110.8z"/>
		</g>
		<g>
			<path class="st14" d="M342.8,108.5c1.7,1,1.6,3.5-0.1,4.4c-1.7,1-4.4,1-6.1,0s-1.7-4.1,0-5.1C338.1,106.9,341,107.5,342.8,108.5z
				"/>
			<path class="st15" d="M342.6,107.8c1.7,1,1.7,2.6,0,3.5c-1.7,1-4.4,1-6.1,0s-1.7-2.6,0-3.5C338.1,106.9,341,106.9,342.6,107.8z"
				/>
		</g>
	</g>
	<g>
		<path class="st16" d="M392.5,263.4c-1.3,0.3-2.1-0.3-1.9-1s1.4-1.3,2.7-1.6c1.3-0.3,2.1,0,1.9,0.7
			C395,262.2,393.8,263.1,392.5,263.4z"/>
		<polygon class="st17" points="404.5,254.2 394,260.4 394.5,261.8 406.2,255.3 		"/>
		<polygon class="st13" points="404.6,254.5 393.8,261.1 394,261.6 405.5,255 		"/>
		<path class="st18" d="M392.5,263.1c-1.3,0.3-2.1,0-1.9-0.7s1.4-1.6,2.7-1.9c1.3-0.3,2.1,0,1.9,0.7
			C395,261.9,393.8,262.8,392.5,263.1z"/>
	</g>
	<g>
		<path class="st16" d="M343.9,235c-1.3,0.3-2.1-0.3-1.9-1s1.4-1.3,2.7-1.6c1.3-0.3,2.1,0,1.9,0.7S345.1,234.7,343.9,235z"/>
		<polygon class="st17" points="355.8,225.8 345.4,232 346,233.4 357.6,226.9 		"/>
		<polygon class="st13" points="356,226.1 345.1,232.7 345.4,233.2 356.9,226.6 		"/>
		<path class="st18" d="M343.9,234.7c-1.3,0.3-2.1,0-1.9-0.7s1.4-1.6,2.7-1.9c1.3-0.3,2.1,0,1.9,0.7
			C346.4,233.5,345.1,234.4,343.9,234.7z"/>
	</g>
	<g>
		<path class="st16" d="M295,206.8c-1.3,0.3-2.1-0.3-1.9-1s1.4-1.3,2.7-1.6c1.3-0.3,2.1,0,1.9,0.7
			C297.5,205.6,296.4,206.4,295,206.8z"/>
		<polygon class="st17" points="307,197.6 296.5,203.7 297.1,205.2 308.9,198.6 		"/>
		<polygon class="st13" points="307.2,197.8 296.4,204.5 296.5,204.9 308,198.3 		"/>
		<path class="st18" d="M295,206.5c-1.3,0.3-2.1,0-1.9-0.7s1.4-1.6,2.7-1.9s2.1,0,1.9,0.7S296.4,206.1,295,206.5z"/>
	</g>
	<g>
		<path class="st16" d="M247,179c-1.3,0.3-2.1-0.3-1.9-1c0.2-0.7,1.4-1.3,2.7-1.6c1.3-0.3,2.1,0,1.9,0.7
			C249.4,177.8,248.3,178.6,247,179z"/>
		<polygon class="st17" points="259,169.8 248.5,175.9 249.1,177.3 260.8,170.8 		"/>
		<polygon class="st13" points="259.1,170 248.3,176.7 248.4,177.1 260,170.5 		"/>
		
			<ellipse transform="matrix(0.9179 -0.3967 0.3967 0.9179 -50.054 112.6656)" class="st18" cx="247.3" cy="177.3" rx="2.5" ry="1.1"/>
	</g>
	<g>
		<path class="st16" d="M500.4,246.1c1.3,0.3,2.1-0.3,1.9-1s-1.4-1.3-2.7-1.6c-1.3-0.3-2.1,0-1.9,0.7
			C497.9,245,499,245.8,500.4,246.1z"/>
		<polygon class="st17" points="488.5,236.9 498.9,243.1 498.2,244.5 486.6,238 		"/>
		<polygon class="st13" points="488.1,237.2 499,243.8 498.9,244.3 487.4,237.7 		"/>
		<path class="st18" d="M500.4,245.8c1.3,0.3,2.1,0,1.9-0.7s-1.4-1.6-2.7-1.9c-1.3-0.3-2.1,0-1.9,0.7
			C497.9,244.6,499,245.5,500.4,245.8z"/>
	</g>
	<g>
		<g>
			<polygon class="st7" points="424,187.8 415,193 407.1,188.5 407.1,185.5 424,184.7 			"/>
			<polygon class="st14" points="424,184.7 415,190 407.1,185.5 416.2,180.2 			"/>
		</g>
		<g>
			<polygon class="st19" points="427.2,183 410.5,192.7 402.6,188.1 402.6,186 427.2,180.8 			"/>
			<polygon class="st20" points="427.2,180.8 410.5,190.5 402.6,186 419.4,176.3 			"/>
		</g>
	</g>
	<g>
		<g>
			<polygon class="st7" points="372.9,159.2 363.8,164.4 356,159.9 356,156.8 372.9,156.1 			"/>
			<polygon class="st14" points="372.9,156.1 363.8,161.4 356,156.8 365,151.6 			"/>
		</g>
		<g>
			<polygon class="st19" points="376,154.4 359.2,164.1 351.5,159.5 351.5,157.4 376,152.2 			"/>
			<polygon class="st20" points="376,152.2 359.2,161.9 351.5,157.4 368.1,147.7 			"/>
		</g>
	</g>
	<g>
		<g>
			<path class="st21" d="M541.3,288.7l-0.4-0.3v-78.3c0-0.9-0.7-1.3-1.4-1.7l-1.9-0.9V207l2.4,0.9c0.8,0.4,1.5,1,1.5,1.9
				L541.3,288.7z"/>
			<path class="st21" d="M544.5,286.9l-0.4-0.3v-77.9c0-0.8-0.2-1-0.9-1.5l-2.5-1.7v-0.4l3.3,1.8c0.7,0.4,0.6,0.5,0.6,1.3
				L544.5,286.9z"/>
			<polygon class="st21" points="541.2,215.1 541.2,214 544,212.3 544,213.4 			"/>
			<polygon class="st21" points="541.2,227.4 541.2,226.4 544,224.7 544,225.8 			"/>
			<polygon class="st21" points="541.2,239.8 541.2,238.7 544,237 544,238.1 			"/>
			<polygon class="st21" points="541.2,252.1 541.2,251.1 544,249.4 544,250.5 			"/>
			<polygon class="st21" points="541.2,264.5 541.2,263.4 544,261.7 544,262.8 			"/>
			<polygon class="st21" points="541.2,276.9 541.2,275.8 544,274.1 544,275.2 			"/>
		</g>
		<g>
			<path class="st22" d="M541.8,288.4l-0.5,0.3v-78.3c0-0.9-0.5-1.6-1.2-2l-2.6-1.3l0.5-0.3l2.6,1.3c0.8,0.4,1.2,1.2,1.2,2V288.4z"
				/>
			<path class="st22" d="M545,286.6l-0.5,0.3V209c0-0.8-0.4-1.5-1-1.9l-2.8-1.9l0.5-0.3l2.8,1.7c0.7,0.4,1.1,1.2,1.1,1.9L545,286.6
				L545,286.6z"/>
			<polygon class="st22" points="541.7,215.3 541.7,214.3 544.5,212.6 544.5,213.7 			"/>
			<polygon class="st22" points="541.7,227.7 541.7,226.6 544.5,224.9 544.5,226 			"/>
			<polygon class="st22" points="541.7,240.1 541.7,239 544.5,237.3 544.5,238.4 			"/>
			<polygon class="st22" points="541.7,252.4 541.7,251.3 544.5,249.7 544.5,250.7 			"/>
			<polygon class="st22" points="541.7,264.8 541.7,263.7 544.5,262 544.5,263.1 			"/>
			<polygon class="st22" points="541.7,277.1 541.7,276 544.5,274.4 544.5,275.5 			"/>
		</g>
	</g>
</g>
<g>
	<g>
		<polygon class="st23" points="270,352.5 349.9,306.5 349.9,305.2 270,351.1 		"/>
		<g>
			<polygon class="st24" points="305.5,333.7 300,336.9 300,333.3 305.5,330.2 			"/>
			<polygon class="st24" points="301.1,334.7 288.9,341.8 288.9,340.6 301.1,333.5 			"/>
		</g>
		<g>
			<polygon class="st24" points="305.5,334.2 305.5,331.4 315.5,325.7 315.5,324.9 304.8,331.1 304.8,335.4 315.5,329.2 
				315.5,328.5 			"/>
			<polygon class="st24" points="310.1,331.8 309.5,332.2 309.5,328.7 310.1,328.3 			"/>
			<polygon class="st24" points="315.5,329 314.9,329.4 314.9,325.9 315.5,325.5 			"/>
		</g>
		<polygon class="st25" points="349.6,287.2 265.2,336 247.4,325.6 332,276.9 		"/>
		<g>
			<path class="st23" d="M269,343.5l-10.1,5.8c-0.2,0.1-0.4,0.4-0.4,0.6l5.2,3.2c0,0.6,0.6,0.9,1.1,0.6l9.8-6.1
				c0.2-0.1,0.4-0.4,0.4-0.6l-4.9-2.9C270,343.6,269.5,343.3,269,343.5z"/>
			<path d="M274,346.9l-10.1,5.8c-0.2,0.1-0.4,0.4-0.4,0.6v4.5c0,0.6,0.6,0.9,1.1,0.6l10.1-5.8c0.2-0.1,0.4-0.4,0.4-0.6v-4.5
				C275.1,347,274.5,346.6,274,346.9z"/>
			<path d="M254.5,346.9l10.1,5.8c0.2,0.1,0.4,0.4,0.4,0.6v4.5c0,0.6-0.6,0.9-1.1,0.6l-10.1-5.8c-0.2-0.1-0.4-0.4-0.4-0.6v-4.5
				C253.4,347,254,346.6,254.5,346.9z"/>
		</g>
		<polygon class="st26" points="265.2,336 265.2,354.3 247.5,344.5 247.5,325.6 		"/>
		<g>
			<g>
				<polygon points="328.1,319 327.5,315.9 328.9,316.3 329.4,320.1 				"/>
				<g>
					<path d="M330.6,319.1c-2.2,1-3.9-0.5-3.3-2.9s3.2-4.8,5.4-5.7c2.2-1,4.9,0.9,4.3,3.2C336.5,316.1,333,318.1,330.6,319.1z"/>
					<path class="st27" d="M331.9,320.1c-2.2,1-3.6-0.2-3-2.6s2.9-5.1,5.1-6c2.2-1,3.6,0.2,3,2.6S334.1,319.1,331.9,320.1z"/>
					<path class="st28" d="M332.2,318.7c-1.5,0.6-2.4-0.1-2-1.7s1.9-3.4,3.4-4.1c1.5-0.6,2.4,0.1,2,1.7S333.8,318.1,332.2,318.7z"/>
					<path class="st29" d="M332.5,317.5c-0.9,0.4-1.4-0.1-1.2-1c0.2-0.9,1.1-2,2-2.4s1.4,0.1,1.2,1
						C334.4,316.1,333.4,317.1,332.5,317.5z"/>
				</g>
			</g>
		</g>
		<g>
			<g>
				<polygon points="319,324.3 318.6,321.5 319.9,321.5 320.2,325.3 				"/>
				<g>
					<path d="M321.6,324.3c-2.2,1-3.9-0.5-3.3-2.9s3.2-4.8,5.4-5.7c2.2-1,4.8,0.6,4.2,3C327.4,321.1,323.9,323.4,321.6,324.3z"/>
					<path class="st27" d="M322.9,325.4c-2.2,1-3.6-0.2-3-2.6s2.9-5.1,5.1-6c2.2-1,3.6,0.2,3,2.6C327.4,321.7,325,324.4,322.9,325.4
						z"/>
					<path class="st28" d="M323.1,324c-1.5,0.6-2.4-0.1-2-1.7s1.9-3.4,3.4-4.1c1.5-0.6,2.4,0.1,2,1.7
						C326.2,321.5,324.8,323.3,323.1,324z"/>
					<path class="st29" d="M323.5,322.8c-0.9,0.4-1.4-0.1-1.2-1c0.2-0.9,1.1-2,2-2.4s1.4,0.1,1.2,1
						C325.2,321.3,324.4,322.4,323.5,322.8z"/>
				</g>
			</g>
		</g>
		<g>
			<g>
				<polygon points="330.1,321.3 329.6,318.1 331,318.5 331.4,322.3 				"/>
				<g>
					<path d="M332.8,321.3c-2.2,1-3.9-0.5-3.3-2.9s3.2-4.8,5.4-5.7c2.2-1,4.9,0.9,4.3,3.2C338.5,318.4,335,320.3,332.8,321.3z"/>
					<path class="st27" d="M334,322.3c-2.2,1-3.6-0.2-3-2.6s2.9-5.1,5.1-6c2.2-1,3.6,0.2,3,2.6S336.1,321.4,334,322.3z"/>
					<path class="st28" d="M334.2,320.9c-1.5,0.6-2.4-0.1-2-1.7s1.9-3.4,3.4-4.1c1.5-0.6,2.4,0.1,2,1.7
						C337.4,318.5,335.9,320.3,334.2,320.9z"/>
					<path class="st29" d="M334.5,319.8c-0.9,0.4-1.4-0.1-1.2-1c0.2-0.9,1.1-2,2-2.4s1.4,0.1,1.2,1S335.5,319.4,334.5,319.8z"/>
				</g>
			</g>
		</g>
		<g>
			<polygon points="274,350.1 273.5,346.9 274.8,347.3 275.1,351.1 			"/>
			<g>
				<path d="M276.5,350.2c-2.2,1-3.9-0.5-3.3-2.9s3.2-4.8,5.4-5.7c2.2-1,4.8,0.8,4.2,3.1C282.2,347.1,278.8,349.2,276.5,350.2z"/>
				<path class="st27" d="M277.6,351.2c-2.2,1-3.6-0.2-3-2.6s2.9-5.1,5.1-6c2.2-1,3.6,0.2,3,2.6C282.2,347.5,280,350.2,277.6,351.2z
					"/>
				
					<ellipse transform="matrix(0.6475 -0.762 0.762 0.6475 -166.0924 334.6649)" class="st28" cx="278.7" cy="346.9" rx="3.8" ry="1.9"/>
				<path class="st29" d="M278.4,348.6c-0.9,0.4-1.4-0.1-1.2-1c0.2-0.9,1.1-2,2-2.4s1.4,0.1,1.2,1
					C280.1,347.1,279.2,348.2,278.4,348.6z"/>
			</g>
		</g>
		<g>
			<polygon points="283,345 282.4,342.1 283.8,342.2 284.1,346.1 			"/>
			<g>
				<path d="M285.5,345.1c-2.2,1-3.9-0.5-3.3-2.9s3.2-4.8,5.4-5.7c2.2-1,4.7,0.6,4.2,2.9C291.1,341.8,287.8,344.1,285.5,345.1z"/>
				<path class="st27" d="M286.8,346.1c-2.2,1-3.6-0.2-3-2.6s2.9-5.1,5.1-6c2.2-1,3.6,0.2,3,2.6C291.2,342.4,289,345.1,286.8,346.1z
					"/>
				<path class="st28" d="M287,344.7c-1.5,0.6-2.4-0.1-2-1.7s1.9-3.4,3.4-4.1c1.5-0.6,2.4,0.1,2,1.7
					C290.1,342.2,288.5,344.1,287,344.7z"/>
				<path class="st29" d="M287.4,343.5c-0.9,0.4-1.4-0.1-1.2-1c0.2-0.9,1.1-2,2-2.4s1.4,0.1,1.2,1
					C289.1,342.1,288.2,343.1,287.4,343.5z"/>
			</g>
		</g>
		<g>
			<g>
				<polygon points="321.1,326.5 320.8,323.7 322,323.7 322.4,327.6 				"/>
				<g>
					<path d="M323.8,326.6c-2.2,1-3.9-0.5-3.3-2.9s3.2-4.8,5.4-5.7c2.2-1,4.8,0.6,4.2,3C329.5,323.4,326,325.6,323.8,326.6z"/>
					<path class="st27" d="M325,327.6c-2.2,1-3.6-0.2-3-2.6s2.9-5.1,5.1-6c2.2-1,3.6,0.2,3,2.6C329.5,323.9,327.1,326.6,325,327.6z"
						/>
					<path class="st28" d="M325.2,326.2c-1.5,0.6-2.4-0.1-2-1.7s1.9-3.4,3.4-4.1c1.5-0.6,2.4,0.1,2,1.7
						C328.4,323.7,326.8,325.6,325.2,326.2z"/>
					<path class="st29" d="M325.5,325c-0.9,0.4-1.4-0.1-1.2-1c0.2-0.9,1.1-2,2-2.4s1.4,0.1,1.2,1C327.4,323.6,326.5,324.6,325.5,325
						z"/>
				</g>
			</g>
		</g>
		<g>
			<polygon points="285,347.2 284.5,344.3 285.9,344.4 286.2,348.2 			"/>
			<g>
				<path d="M287.5,347.3c-2.2,1-3.9-0.5-3.3-2.9s3.2-4.8,5.4-5.7c2.2-1,4.7,0.6,4.2,2.9C293.2,344,289.9,346.3,287.5,347.3z"/>
				<path class="st27" d="M288.8,348.3c-2.2,1-3.6-0.2-3-2.6s2.9-5.1,5.1-6c2.2-1,3.6,0.2,3,2.6C293.4,344.6,291,347.3,288.8,348.3z
					"/>
				<path class="st28" d="M289.1,346.9c-1.5,0.6-2.4-0.1-2-1.7s1.9-3.4,3.4-4.1c1.5-0.6,2.4,0.1,2,1.7S290.6,346.2,289.1,346.9z"/>
				<path class="st29" d="M289.5,345.7c-0.9,0.4-1.4-0.1-1.2-1c0.2-0.9,1.1-2,2-2.4s1.4,0.1,1.2,1
					C291.2,344.2,290.4,345.3,289.5,345.7z"/>
			</g>
		</g>
		<g>
			<polygon points="276,352.5 275.6,349.3 276.9,349.7 277.2,353.5 			"/>
			<g>
				<path d="M278.5,352.5c-2.2,1-3.9-0.5-3.3-2.9s3.2-4.8,5.4-5.7c2.2-1,4.8,0.8,4.2,3.1C284.4,349.5,280.9,351.6,278.5,352.5z"/>
				<path class="st27" d="M279.8,353.5c-2.2,1-3.6-0.2-3-2.6s2.9-5.1,5.1-6c2.2-1,3.6,0.2,3,2.6C284.2,349.9,282,352.6,279.8,353.5z
					"/>
				<path class="st28" d="M280.1,352.2c-1.5,0.6-2.4-0.1-2-1.7s1.9-3.4,3.4-4.1c1.5-0.6,2.4,0.1,2,1.7S281.6,351.5,280.1,352.2z"/>
				<path class="st29" d="M280.5,351c-0.9,0.4-1.4-0.1-1.2-1c0.2-0.9,1.1-2,2-2.4s1.4,0.1,1.2,1C282.2,349.5,281.2,350.6,280.5,351z
					"/>
			</g>
		</g>
		<polygon class="st30" points="265,354.4 265,336 349.5,287.2 349.9,305.6 		"/>
		<g>
			<polygon class="st31" points="311.5,326.6 310.8,327.3 310.6,327.1 310.6,326.3 311.5,325.8 311.6,326 			"/>
			<polygon class="st32" points="311.6,326.8 310.8,327.3 310.8,326.5 311.6,326 			"/>
		</g>
		<g>
			<polygon class="st31" points="348,305.7 347.2,306.4 347,306.2 347,305.4 348,304.9 348,305.1 			"/>
			<polygon class="st32" points="348,305.9 347.2,306.4 347.2,305.6 348,305.1 			"/>
		</g>
		<g>
			<polygon class="st31" points="268.2,351.6 267.5,352.3 267.4,352.1 267.4,351.3 268.2,350.8 268.4,351.1 			"/>
			<polygon class="st32" points="268.4,351.9 267.5,352.3 267.5,351.6 268.4,351.1 			"/>
		</g>
		<path class="st33" d="M261.1,342.4l-7.6,3.5c-0.2,0.1-0.3,0.1-0.5,0l-1.6-0.9c-0.3-0.2-0.3-0.7,0-0.9l7.5-4.3
			c0.2-0.1,0.2-0.1,0.4,0l1.2,0.6C262.1,341.5,261.1,341.7,261.1,342.4z"/>
		<path class="st34" d="M248.6,354.9l0.3,10.8l-13.6-7.1V348c0-0.1,0-0.5,0-0.6c0.1-0.5,0.3-1.3,0.7-1.1l12.2,7.6
			c0.1,0.1,0.7,0.2,0.6,0.3C248.9,354.3,248.6,354.8,248.6,354.9z"/>
		<path class="st34" d="M253.5,345.3l-4.5,8.8c-0.3,0.5-0.9,0.7-1.3,0.4l-11.6-6.7c-0.4-0.3-0.6-0.9-0.4-1.3l4.1-8.2
			c0.5-0.8,1.2-1.3,1.4-1.4c0.3-0.1-0.3,0.8-0.1,1l11.6,6.7C253.1,344.9,253.7,344.8,253.5,345.3z"/>
		<path class="st8" d="M236.2,346.2l3.6-6.8c0.3-0.6,1.1-0.8,1.7-0.5l10.2,5.9c0.6,0.3,0.8,1.1,0.5,1.6l-3.6,6.8
			c-0.3,0.6-1.1,0.8-1.7,0.5l-10.2-5.9C236.1,347.5,235.9,346.7,236.2,346.2z"/>
		<path class="st35" d="M260.6,341.5l-6.5,3.8c-0.2,0.1-0.4,0.1-0.5,0L241,338c-0.4-0.2-0.4-0.7,0-0.9l5.8-3.3
			c0.7-0.4,1.5-0.4,2.1,0l11.8,6.8C261,340.7,261,341.3,260.6,341.5z"/>
		<path class="st36" d="M261.5,358.7l-12.8,7.2l-0.3-10.3c0-0.6,0.1-1.1,0.4-1.6l5-9.4c0.1-0.2,0.2-0.3,0.4-0.4l5.8-3.2
			c0.7-0.4,1.6,0.1,1.6,0.9L261.5,358.7L261.5,358.7z"/>
		<path class="st37" d="M252.7,357.4V352c0-0.1,0-0.2,0.1-0.3l1.3-6.4c0.1-0.1,0.1-0.2,0.2-0.2l5.3-3.1c0.4-0.2,0.9,0.1,0.9,0.5
			v11.8c0,0.2-0.1,0.4-0.3,0.5l-6.6,3.1C253.2,358.1,252.7,357.8,252.7,357.4z"/>
		<g>
			<polygon points="251.5,365.9 260.6,358.8 253.3,367.2 			"/>
			<g>
				<path d="M254.6,366.2c-1.9,0.8-3.6,0.1-3.7-1.7c1.2-0.7,10.5-6.1,9.9-3.8C260.4,363.1,257,365.3,254.6,366.2z"/>
				<path class="st27" d="M255.8,367.2c-2.2,1-3.6-0.2-3-2.6s2.9-5.1,5.1-6c2.2-1,3.6,0.2,3,2.6
					C260.5,363.6,258.1,366.3,255.8,367.2z"/>
				<path class="st28" d="M256.2,365.9c-1.5,0.6-2.4-0.1-2-1.7s1.9-3.4,3.4-4.1c1.5-0.6,2.4,0.1,2,1.7S257.8,365.2,256.2,365.9z"/>
				<path class="st29" d="M256.5,364.7c-0.9,0.4-1.4-0.1-1.2-1s1.1-2,2-2.4s1.4,0.1,1.2,1S257.5,364.3,256.5,364.7z"/>
			</g>
		</g>
		<path class="st8" d="M253.3,351.5l1.2-5.9c0-0.1,0.1-0.2,0.2-0.2l4.6-2.7c0.4-0.2,0.8,0.1,0.8,0.5v5.6c0,0.2-0.1,0.4-0.3,0.5
			l-5.8,3C253.6,352.5,253.1,352,253.3,351.5z"/>
		<g>
			<path class="st31" d="M251.6,361.3l-0.7,0.7h-0.1l0,0c0,0,0,0,0-0.1v-0.8V361l0.7-0.4h0.1l0.1,0.1c0,0,0,0,0,0.1L251.6,361.3
				C251.6,361.2,251.6,361.3,251.6,361.3z"/>
			<path class="st32" d="M251.7,361.5l-0.7,0.4c-0.1,0-0.1,0-0.1-0.1v-0.6v-0.1l0.7-0.4c0.1,0,0.1,0,0.1,0.1V361.5L251.7,361.5z"/>
		</g>
		<path class="st38" d="M248.6,364c0.2,0.1,0.5-0.1,0.7-0.2l1.1-0.9v2.2l-1.4,0.8c-0.4,0.2-0.8,0.2-1.1,0l-12.6-7.4
			c-0.2-0.1-0.3-0.3-0.2-0.5c0-0.1-0.1-2.1-0.1-2.1l0.7,0.7C236.1,356.9,248.6,364,248.6,364z"/>
		<path class="st39" d="M235.8,356.1l12.8,7.4c0.2,0.1,0.4,0.1,0.5,0l1.1-0.6h0.2l-1.1,0.9c-0.4,0.2-0.6,0.4-0.9,0.2l-13.2-7.6
			c-0.3-0.2-0.3-0.6,0-0.8l0.5-0.3v0.5C235.6,355.9,235.7,356.1,235.8,356.1z"/>
		<g>
			<g>
				<path class="st40" d="M238.2,357.6l-2.7-1.7c-0.1-0.1-0.2-0.2-0.2-0.4l-0.2-1.2c0-0.4,0.6-0.6,0.9-0.4l2.7,1.6
					c0.1,0.1,0.2,0.2,0.2,0.4v1.2C239,357.4,238.6,357.7,238.2,357.6z"/>
				<path class="st41" d="M238.1,357.6l-2.7-1.6c-0.1-0.1-0.2-0.2-0.2-0.4v-1.2c0-0.4,0.4-0.6,0.7-0.4l2.7,1.6
					c0.1,0.1,0.2,0.2,0.2,0.4v1.2C238.8,357.5,238.4,357.8,238.1,357.6z"/>
				<path class="st42" d="M238.1,357.6l-2.7-1.6c-0.1-0.1-0.3-0.2-0.2-0.7c0,0,1.3,1.1,1.8,1.3c0.5,0.2,1.9,0.6,1.9,0.6
					C238.8,357.5,238.4,357.8,238.1,357.6z"/>
			</g>
			<path class="st43" d="M237.5,356.2c0,0.3-0.2,0.4-0.5,0.2c-0.3-0.2-0.5-0.5-0.5-0.8s0.2-0.4,0.5-0.2
				C237.2,355.6,237.5,355.9,237.5,356.2z"/>
		</g>
		<g>
			<g>
				<path class="st40" d="M247.6,362.9l-2.7-1.7c-0.1-0.1-0.2-0.2-0.2-0.4l-0.2-1.2c0-0.4,0.6-0.6,0.9-0.4l2.7,1.6
					c0.1,0.1,0.2,0.2,0.2,0.4v1.2C248.3,362.7,247.9,363.1,247.6,362.9z"/>
				<path class="st41" d="M247.5,362.9l-2.7-1.6c-0.1-0.1-0.2-0.2-0.2-0.4v-1.2c0-0.4,0.4-0.6,0.7-0.4l2.7,1.6
					c0.1,0.1,0.2,0.2,0.2,0.4v1.2C248.2,362.9,247.8,363.1,247.5,362.9z"/>
				<path class="st42" d="M247.5,362.9l-2.7-1.6c-0.1-0.1-0.3-0.2-0.2-0.7c0,0,1.3,1.1,1.8,1.3c0.5,0.2,1.9,0.6,1.9,0.6
					C248.2,362.9,247.8,363.1,247.5,362.9z"/>
			</g>
			<path class="st43" d="M246.9,361.4c0,0.3-0.2,0.4-0.5,0.2c-0.3-0.2-0.5-0.5-0.5-0.8s0.2-0.4,0.5-0.2S246.9,361.1,246.9,361.4z"/>
		</g>
		<g>
			<polygon class="st44" points="245.6,355.9 239.3,352.2 239.3,350.2 245.6,353.9 			"/>
			<polygon class="st45" points="245.5,354.2 239.4,350.6 239.4,350.4 245.5,353.9 			"/>
			<polygon class="st45" points="245.5,354.6 239.4,351 239.4,350.8 245.5,354.3 			"/>
			<polygon class="st45" points="245.5,354.9 239.4,351.4 239.4,351.2 245.5,354.7 			"/>
			<polygon class="st45" points="245.5,355.3 239.4,351.8 239.4,351.6 245.5,355.1 			"/>
			<polygon class="st45" points="245.5,355.7 239.4,352.2 239.4,352 245.5,355.5 			"/>
		</g>
		<polygon class="st44" points="248.4,358.3 235.3,350.8 235.3,350.5 248.4,358.1 		"/>
		<polygon class="st46" points="244.2,357.7 239.5,355 239.5,354.1 244.2,356.8 		"/>
		<polygon class="st46" points="244.2,359.4 239.5,356.8 239.5,355.9 244.2,358.5 		"/>
		<path class="st36" d="M254.3,343.4l0.2,0.1l5.6-3.2l0.1-2.3c0,0-1.4,0.5-1.7,0.8C257.2,339.8,254.3,343.4,254.3,343.4z"/>
		<path class="st47" d="M242.8,336.8l11.7,6.7c0,0,2.7-3.5,3.8-4.4c0.4-0.3,1.8-1,1.8-1l-11.7-6.7c0,0-1.2,0.6-1.5,0.9
			C245.8,333.2,242.8,336.8,242.8,336.8z"/>
	</g>
	<g>
		<g>
			<path d="M256.1,355.2l-1.8-0.6c-0.1,0-0.1-0.1-0.1-0.2s0.1-0.1,0.2-0.1l1.3,0.5v-8.4l-1.4-0.8c-0.1,0-0.1-0.2-0.1-0.2
				c0-0.1,0.2-0.1,0.2-0.1l1.6,0.9v9H256.1z"/>
		</g>
		<polygon points="256.6,352.6 256.2,352.8 254.8,346.8 255.3,346.7 256.6,347.5 		"/>
		<polygon class="st48" points="256.2,352.8 254.8,352 254.8,346.8 256.2,347.6 		"/>
	</g>
</g>
</svg>
