<?xml version="1.0" encoding="utf-8"?>
<!-- Generator: Adobe Illustrator 22.0.1, SVG Export Plug-In . SVG Version: 6.00 Build 0)  -->
<svg version="1.1" id="Isolation_Mode" xmlns="http://www.w3.org/2000/svg" xmlns:xlink="http://www.w3.org/1999/xlink" x="0px"
	 y="0px" viewBox="0 0 571.1 546.2" style="enable-background:new 0 0 571.1 546.2;" xml:space="preserve">
<style type="text/css">
	.st0{fill:#475769;}
	.st1{fill:#F05B4C;}
	.st2{fill:#9CA8B5;}
	.st3{fill:#D7D7D7;}
	.st4{fill:#828C95;}
	.st5{fill:#5B6975;}
	.st6{fill:#A89B7A;}
	.st7{fill:#F4F4F4;}
	.st8{fill:#D6D6D6;}
	.st9{fill:#CCCCCC;}
	.st10{fill:#AEB8A5;}
	.st11{fill:#F5A8B3;}
	.st12{fill:#9EBEA2;}
	.st13{fill:#B4CDB8;}
	.st14{fill:#F8BCC3;}
	.st15{fill:#ECABB3;}
	.st16{fill:#E7D3CE;}
	.st17{fill:#D8C8BB;}
	.st18{fill:#946C5E;}
	.st19{fill:#A88774;}
	.st20{fill:#E96058;}
	.st21{fill:#F79C98;}
	.st22{fill:#F07C78;}
	.st23{fill:#D9C9BA;}
	.st24{fill:#E1D7CD;}
	.st25{fill:#9F8A75;}
	.st26{fill:#816549;}
	.st27{fill:#F5A788;}
	.st28{fill:#F38961;}
	.st29{fill:#D19278;}
	.st30{fill:#F7A588;}
	.st31{fill:#414141;}
	.st32{fill:#DBF0FA;}
	.st33{fill:#0B0B0B;}
	.st34{fill:#D2EBF7;}
	.st35{fill:#929292;}
	.st36{fill:#DCDCDC;}
	.st37{fill:none;stroke:#E8E8E8;stroke-width:3;stroke-miterlimit:5;}
	.st38{fill:#E8E8E8;}
	.st39{fill:#9B562D;}
	.st40{opacity:0.49;fill:#FFFFFF;enable-background:new    ;}
	.st41{fill:#C77D3C;}
	.st42{fill:#EBB673;}
	.st43{fill:#A5714E;}
	.st44{fill:#C9905C;}
	.st45{enable-background:new    ;}
	.st46{fill:#69341A;}
</style>
<g>
	<g id="Layer_1_1_">
		
			<rect x="253.4" y="168.4" transform="matrix(1.745296e-03 -1 1 1.745296e-03 48.5565 464.6866)" class="st0" width="7.2" height="79.2"/>
		<path class="st1" d="M296,136.3c0.5-4.5,0.6-9,0.2-13.5l10.1-38.3c0,0-33.1-22.3-49.8-22.3s-49.8,22.3-49.8,22.3l10.1,38.3
			c-0.4,4.5-0.3,9,0.2,13.5c-1.3,4.4-2.8,15.6-0.4,22.5c-4.7,12.5-2.9,46.9-2.9,46.9h84.6c0,0,2.8-34.4-1.9-46.9
			C298.9,151.9,297.3,140.7,296,136.3z"/>
		
			<rect x="186.2" y="190.3" transform="matrix(0.1321 -0.9912 0.9912 0.1321 -33.195 361.3665)" class="st0" width="7.2" height="18.7"/>
		
			<rect x="313.8" y="195.9" transform="matrix(0.9912 -0.1321 0.1321 0.9912 -23.5219 44.4366)" class="st0" width="18.7" height="7.2"/>
		<polygon class="st2" points="253.4,114.2 256.4,117.8 259.6,114.2 259.6,211.9 253.4,211.9 		"/>
		<path class="st1" d="M206.6,84.4c-5.1,4.3-15.6,24.3-14.5,39.3c-5.7,4.2-7.3,17.7-5.1,24.1c-3.7,2-6.5,18-4.4,24.4
			c-4.8,7-3.6,23-3.6,23l22,3.1c0,0,7-10.8,5.1-23.4c2.6-3.6,6.3-18,4.9-22.7c2.7-4.4,5.7-16.8,4.4-20.4c2-6.3,1.8-8.3,1.8-8.3
			S220.9,101.6,206.6,84.4z"/>
		<path class="st3" d="M183.1,173.2c3.9,2.9,15.7,5.8,21.9,2.6C201,182.6,187.6,181.3,183.1,173.2z"/>
		<path class="st4" d="M237,102.5h-17.2v21c0,2.7,2.2,4.8,4.8,4.8h13.9c2.7,0,4.8-2.2,4.8-4.8v-21H237z"/>
		<polygon class="st2" points="232.8,101.1 219,101.1 219,103.9 232.8,103.9 244.2,103.9 244.2,101.1 		"/>
		<polygon class="st3" points="232.8,103.1 219,103.1 219,103.9 232.8,103.9 244.2,103.9 244.2,103.1 		"/>
		<polygon class="st3" points="219.8,108.6 219.8,111.4 231.6,120.6 243.4,111.4 243.4,108.6 232.1,104.4 		"/>
		<polygon class="st2" points="232.8,103.9 219,103.9 219,108.1 231.6,116.8 244.2,108.1 244.2,103.9 		"/>
		<path class="st4" d="M276,102.5h17.2v21c0,2.7-2.2,4.8-4.8,4.8h-13.9c-2.7,0-4.8-2.2-4.8-4.8v-21H276z"/>
		<polygon class="st2" points="280.2,101.1 294,101.1 294,103.9 280.2,103.9 268.8,103.9 268.8,101.1 		"/>
		<polygon class="st3" points="280.2,103.1 294,103.1 294,103.9 280.2,103.9 268.8,103.9 268.8,103.1 		"/>
		<polygon class="st3" points="293.2,108.6 293.2,111.4 281.4,120.6 269.6,111.4 269.6,108.6 280.9,104.4 		"/>
		<polygon class="st2" points="280.2,103.9 294,103.9 294,108.1 281.4,116.8 268.8,108.1 268.8,103.9 		"/>
		<path class="st3" d="M187.7,148.4c3.8,3.1,15.9,6.7,22.4,3.9C205.6,158.9,191.9,156.8,187.7,148.4z"/>
		<path class="st0" d="M224.7,73.6l31.7,44.1L288,73.5c-10.4-5.7-23.1-11.4-31.5-11.4C248,62.1,235.2,67.9,224.7,73.6z"/>
		<path class="st3" d="M209.5,86l43.2,28.7L227.9,72c-6.8,3.6-11.8,6.5-15.6,9L209.5,86z"/>
		<path class="st3" d="M192.8,124.2c3.2,3.7,15,9.2,22,7.6C208.6,136.9,195.5,133.2,192.8,124.2z"/>
		<path class="st2" d="M256.4,50.2c-7,0.5-14.5,1.6-24.9,9.4c-15.9,11.9-17.4,23.8-17.4,23.8l42.3,34.3l-21.1-43.1
			C235.3,74.6,239.2,57.3,256.4,50.2z"/>
		<path class="st4" d="M212,180.9v18.2h7.7c1.8,0,3.2-1.4,3.2-3.2l0,0v-15H212z"/>
		<path class="st2" d="M210.9,169v12.5h12c1.8,0,3.2-1.4,3.2-3.2V169H210.9z"/>
		<path class="st3" d="M217.7,137.3c4.6,2.8,18.1,5,27.9,3.2C237.5,143.6,225.6,144.5,217.7,137.3z"/>
		<path class="st3" d="M217.7,158.9c4.5,2.9,17.9,5.6,27.8,4.1C237,165.8,224.3,165.8,217.7,158.9z"/>
		<path class="st1" d="M267.9,26.1c0,0-6.8-2.4-11.7-2.4c-4.9,0-11.7,2.4-11.7,2.4l-27.2,32.8h77.8L267.9,26.1z"/>
		<path class="st1" d="M306.4,84.4c5,4.3,15.6,24.3,14.5,39.3c5.7,4.2,7.3,17.7,5.1,24.1c3.7,2,6.5,18,4.4,24.4c4.8,7,3.6,23,3.6,23
			l-22,3.1c0,0-7-10.8-5.1-23.4c-2.6-3.6-6.3-18-4.9-22.7c-2.7-4.4-5.7-16.8-4.4-20.4c-2-6.3-1.8-8.3-1.8-8.3
			S292.1,101.6,306.4,84.4z"/>
		<path class="st3" d="M329.9,173.2c-3.8,2.9-15.7,5.8-21.9,2.6C312,182.6,325.4,181.3,329.9,173.2z"/>
		<path class="st3" d="M325.3,148.4c-3.8,3.1-15.9,6.7-22.4,3.9C307.4,158.9,321.1,156.8,325.3,148.4z"/>
		<path class="st3" d="M303.5,86l-43.2,28.7L285.1,72c6.8,3.5,11.8,6.5,15.6,9L303.5,86z"/>
		<path class="st3" d="M320.2,124.2c-3.2,3.7-15,9.2-21.9,7.6C304.4,136.9,317.5,133.2,320.2,124.2z"/>
		<path class="st2" d="M256.6,50.2c7,0.5,14.5,1.6,24.9,9.4c15.9,11.9,17.4,23.8,17.4,23.8l-42.4,34.3l21.3-43.1
			C277.7,74.6,273.8,57.3,256.6,50.2z"/>
		<path class="st4" d="M300.4,180.9v18.2h-7.7c-1.8,0-3.2-1.4-3.2-3.2v-15H300.4z"/>
		<path class="st2" d="M301.5,169v12.5h-12c-1.8,0-3.2-1.5-3.2-3.2V169H301.5z"/>
		<path class="st3" d="M295.4,137.3c-4.6,2.8-18.1,5-27.9,3.2C275.2,144.5,287.7,144.8,295.4,137.3z"/>
		<path class="st3" d="M295.3,158.9c-4.5,2.9-17.9,5.6-27.8,4.1C276,166.2,287.7,165.8,295.3,158.9z"/>
		<rect x="247.9" y="63.5" class="st5" width="16.9" height="13.7"/>
		<path class="st3" d="M297.5,78.9c-1.8-4.5-6.1-11.9-16-19.3c-10.5-7.8-39.6-7.8-50,0c-9.9,7.4-14.2,14.8-16,19.3l-2.1,1.3
			c3.7,1.2,7.7,0.7,11-1.4c19.6-12.1,44.3-12.1,63.9,0c3.3,2.1,7.5,2.6,11.2,1.3L297.5,78.9z"/>
		<path class="st6" d="M303.4,73.4c-3.4,4.6-10,4.9-15.3,1.8c-19.6-12.1-44.3-12.1-63.9,0c-5.2,3.1-11.9,2.8-15.3-1.8
			c-3.4-4.6-0.9-13.1,6.1-17.4c25.2-15.5,57-15.5,82.2,0C304.3,60.2,306.8,68.8,303.4,73.4z"/>
		<rect x="212" y="181.5" class="st3" width="10.9" height="2.3"/>
		<rect x="289.5" y="181.5" class="st3" width="10.9" height="2.3"/>
	</g>
</g>
<rect x="406.1" y="183.4" class="st7" width="152.3" height="88.3"/>
<polygon class="st8" points="413.4,175.9 406.1,183.4 558.5,183.4 564,175.9 "/>
<polygon class="st9" points="564,268.2 558.5,271.7 558.5,183.4 564,175.9 "/>
<circle class="st10" cx="453.3" cy="243.8" r="19.7"/>
<circle class="st11" cx="453.3" cy="243.8" r="16.8"/>
<path class="st12" d="M447.5,214.6L422.7,245c8.6,6.6,21,4.9,27.5-3.7C456.4,233,455.3,221.4,447.5,214.6z"/>
<path class="st13" d="M434.6,209.8c-10.8,0-19.7,8.7-19.7,19.6c0,6.1,2.8,11.9,7.7,15.6l24.9-30.4
	C443.9,211.5,439.4,209.8,434.6,209.8z"/>
<path class="st14" d="M485,243.5v16.4c0,1.8,1.5,3.2,3.2,3.2h1.9v-19.6H485z"/>
<path class="st15" d="M490.1,263.2h4c1.8,0,3.2-1.4,3.2-3.2v-16.4h-7.2V263.2z"/>
<polygon class="st16" points="490.1,239 486.2,239 485,239 485,243.5 490.1,243.5 "/>
<polygon class="st17" points="496.1,239 490.1,239 490.1,243.5 497.3,243.5 497.3,239 "/>
<rect x="490.1" y="235.3" class="st18" width="5.9" height="3.7"/>
<rect x="486.2" y="235.3" class="st19" width="3.9" height="3.7"/>
<path class="st20" d="M491.1,226.5c-0.7,0-1.4-0.1-2-0.4l-1.3,1.7l1.3-1.7c-0.8-0.3-1.5-0.8-2.1-1.5v10.6h8v-10.6
	C494.1,225.9,492.7,226.5,491.1,226.5z"/>
<path class="st21" d="M494.2,217.5h-1.3c-3.2,0-5.7,2.5-5.7,5.7l0,0v1.5c0.6,0.6,1.3,1.1,2.1,1.5l6-7.6v-0.1
	C495.2,217.9,494.7,217.5,494.2,217.5z"/>
<path class="st22" d="M491.1,226.5c1.5,0,3-0.7,4-1.9v-6.1l-6,7.6C489.8,226.4,490.4,226.5,491.1,226.5z"/>
<polygon class="st23" points="520.7,237.2 521.5,221.8 516.3,221.8 516.3,237.2 "/>
<polygon class="st24" points="516.3,221.8 510.1,221.8 510.9,237.2 516.3,237.2 "/>
<path class="st25" d="M510.9,237.2l1.2,23.4c0,2.1,1.7,3.7,3.7,3.7c0.2,0,0.3,0,0.5,0v-27L510.9,237.2z"/>
<path class="st26" d="M516.3,237.2v27c1.8-0.2,3.2-1.8,3.2-3.7l0,0l1.2-23.3H516.3z"/>
<path class="st27" d="M520.4,201.2h-9.3c-3.9,0-7,3.2-6.9,7.1c0,1,0.2,2,0.7,2.9l3.9,8.1l16.3-16.3
	C523.9,201.8,522.2,201.2,520.4,201.2z"/>
<path class="st28" d="M525.1,203l-16.3,16.3l1.3,2.6h11.4l5.2-10.7C528.1,208.4,527.4,205.1,525.1,203z"/>
<path class="st25" d="M534.7,220.4l0.7,41.8c0,0.7,0.5,1.2,1.2,1.2l0,0c0.3,0,0.5-0.1,0.7-0.2v-42.8L534.7,220.4L534.7,220.4z"/>
<path class="st26" d="M537.3,263.2c0.3-0.2,0.5-0.6,0.5-1l0.7-41.8h-1.3L537.3,263.2z"/>
<polygon class="st24" points="537.3,205.5 534.4,205.5 534.7,220.4 537.3,220.4 "/>
<polygon class="st23" points="537.3,205.5 537.3,220.4 538.6,220.4 538.9,205.5 "/>
<path class="st29" d="M540.4,195.9c-1.5,8.1-5.5,8.5-6.4,8.5l0.4,1.2h4.5l2.4-7.9C541.5,196.9,541.1,196.1,540.4,195.9z"/>
<path class="st30" d="M540.4,195.9c-0.2-0.1-0.3-0.1-0.5-0.1H539c-3.1,0-5.6,2.5-5.6,5.6c0,0.6,0.1,1.1,0.3,1.7l0.4,1.3
	C534.9,204.3,538.9,203.9,540.4,195.9z"/>
<path class="st30" d="M551.7,204.1c-0.2,1.5-0.9,3-2,4c-1.1-1-1.8-2.5-2-4c0.2-1.5,0.9-3,2-4C550.9,201.1,551.6,202.5,551.7,204.1z"
	/>
<path class="st25" d="M548,220.4l0.7,41.8c0,0.6,0.5,1.2,1.1,1.2l0,0c0.2,0,0.5-0.1,0.6-0.2v-42.8L548,220.4L548,220.4z"/>
<path class="st26" d="M550.4,263.2c0.3-0.2,0.5-0.6,0.5-1l0.6-41.8h-1.1V263.2z"/>
<polygon class="st24" points="550.4,205.5 547.7,205.5 548,220.4 550.4,220.4 "/>
<polygon class="st23" points="550.4,205.5 550.4,220.4 551.5,220.4 551.7,205.5 "/>
<rect x="13.3" y="174" class="st7" width="68.5" height="105.2"/>
<polygon class="st8" points="16.6,165 13.3,174 81.9,174 84.4,165 "/>
<polygon class="st9" points="84.4,275 81.9,279.1 81.9,174 84.4,165 "/>
<path class="st31" d="M30,196.1h26.2l4-8.9h-0.5H33.8c-3.3,0-6,2.7-6,6V260c0,0.1,0,0.2,0,0.4l2.2-5V196.1z"/>
<polygon class="st32" points="30,255.4 56.2,196.1 30,196.1 "/>
<path class="st33" d="M60.2,187.2l-4,9h7.2v59.4H30v-0.2l-2.2,5c0.2,3.2,2.8,5.6,6,5.6h25.8c3.3,0,6-2.7,6-6v-66.8
	C65.6,190.1,63.3,187.5,60.2,187.2z"/>
<polygon class="st34" points="30,255.6 63.4,255.6 63.4,196.1 56.2,196.1 30,255.4 "/>
<path class="st35" d="M42.7,190.5h8.1c0.5,0,0.8,0.4,0.8,0.8l0,0c0,0.5-0.4,0.8-0.8,0.8h-8.1c-0.5,0-0.8-0.4-0.8-0.8l0,0
	C41.8,190.9,42.2,190.5,42.7,190.5z"/>
<circle class="st36" cx="46.7" cy="260.7" r="3.2"/>
<path class="st37" d="M100,250.7c0,0,49.3-4.1,76,43.9"/>
<polygon class="st38" points="179.7,297 161.5,296.4 172,288.7 180.3,278.8 "/>
<polygon class="st38" points="255.6,305.2 242.2,292.8 255.1,293.8 267.9,291.8 "/>
<path class="st37" d="M401,250.7c0,0-49.3-4.1-76,43.9"/>
<polygon class="st38" points="321.2,297 339.5,296.4 329,288.7 320.6,278.8 "/>
<line class="st37" x1="255" y1="221.4" x2="255" y2="291.9"/>
<polygon class="st39" points="162.9,390.9 162.9,481.9 254.1,518.9 254.4,421.4 "/>
<polygon class="st40" points="196.1,408.6 211.9,412.9 211.9,501.3 194.7,494.4 "/>
<polygon class="st41" points="346.5,391.3 346.5,482.3 253.1,519.3 253.4,421.4 "/>
<polygon class="st39" points="253.4,353.9 253.4,421.4 344.1,385.5 "/>
<polygon class="st41" points="254.4,354.7 254.4,421.4 164.3,386 "/>
<polygon class="st42" points="127.9,357.3 164.3,387 255,355.3 217.7,323.6 "/>
<polygon class="st43" points="127.9,357.3 127.9,359.6 161.6,387 164.3,387 "/>
<polygon class="st43" points="381.2,355.3 381.2,357.6 347.5,387 344.8,387 "/>
<polygon class="st42" points="113.2,383.6 202.1,417.9 254.4,420.4 164.3,385 "/>
<polygon class="st43" points="113.2,383.6 113.2,385 201.8,419.3 202.1,417.9 "/>
<polygon class="st44" points="202.1,417.9 254.4,420.4 254.4,421.8 201.8,419.3 "/>
<polygon class="st42" points="255,354.9 290.9,322.7 380.9,355.3 344.7,387 "/>
<g class="st45">
	<g>
		<path class="st46" d="M313.3,427.7c-1.1-0.3-3,0.3-3.9,0.6v-0.8c0-0.2-0.1-0.3-0.3-0.2s-0.3,0.2-0.3,0.4v0.8l0,0
			c-0.7,0.3-3,1.2-4.2,2.5c-1.5,1.5-2,2.8-2,2.8s1.1-0.6,1.8-0.8c0.7-0.2,1.5-0.1,1.5-0.1s0.3-0.5,1.3-1c0.8-0.4,1.4-0.3,1.7-0.3
			v9.1c0,0.4-0.1,1-0.6,1.1l-0.2,0.1c-0.5,0.2-0.6-0.4-0.6-0.7c0-0.2-0.1-0.3-0.3-0.2c-0.1,0.1-0.3,0.2-0.3,0.4
			c0,1.2,0.6,1.4,1.1,1.2l0.2-0.1c0.5-0.2,1.1-0.8,1.1-1.9v-9.2c0.3-0.2,0.8-0.6,1.4-0.7c1-0.3,1.3,0,1.3,0s0.8-0.7,1.5-1
			s1.8-0.5,1.8-0.5S314.8,428.1,313.3,427.7z"/>
		<path class="st46" d="M309,426.7L309,426.7c0.1-0.1,0.1-0.2,0.1-0.3c0.1-0.2,0.2-0.6,0.1-0.7l0,0c-0.1,0-0.4,0.3-0.5,0.4
			s-0.2,0.2-0.2,0.3l0,0l0,0c0,0,0,0,0,0.1c-0.1,0.2-0.1,0.4,0,0.5C308.7,427,308.9,426.9,309,426.7z"/>
		<path class="st46" d="M310.4,425.1L310.4,425.1c0.1-0.1,0.1-0.2,0.1-0.3c0.1-0.2,0.2-0.6,0.1-0.7l0,0c-0.1,0-0.4,0.3-0.5,0.4
			s-0.2,0.2-0.2,0.3l0,0l0,0c0,0,0,0,0,0.1c-0.1,0.2-0.1,0.4,0,0.5C310.1,425.4,310.3,425.3,310.4,425.1z"/>
		<path class="st46" d="M310.2,426.2L310.2,426.2L310.2,426.2L310.2,426.2c-0.1,0.3-0.1,0.5,0,0.6s0.3,0,0.5-0.2l0,0
			c0.1-0.1,0.1-0.2,0.1-0.3c0.1-0.2,0.2-0.6,0.1-0.7l0,0c-0.1,0-0.4,0.3-0.5,0.4C310.3,426,310.2,426.1,310.2,426.2z"/>
		<path class="st46" d="M312.1,425L312.1,425c0.1-0.1,0.1-0.2,0.1-0.3c0.1-0.2,0.2-0.6,0.1-0.7l0,0c-0.1,0-0.4,0.3-0.5,0.4
			s-0.2,0.2-0.2,0.3l0,0l0,0c0,0,0,0,0,0.1c-0.1,0.2-0.1,0.4,0,0.5C311.7,425.3,311.9,425.2,312.1,425z"/>
		<path class="st46" d="M313.4,423.4L313.4,423.4c0.1-0.1,0.1-0.2,0.1-0.3c0.1-0.2,0.2-0.6,0.1-0.7l0,0c-0.1,0-0.4,0.3-0.5,0.4
			s-0.2,0.2-0.2,0.3l0,0l0,0c0,0,0,0,0,0.1c-0.1,0.2-0.1,0.4,0,0.5C313,423.7,313.3,423.6,313.4,423.4z"/>
		<path class="st46" d="M313.1,426.4L313.1,426.4L313.1,426.4C313.1,426.4,313.1,426.5,313.1,426.4c-0.1,0.3-0.1,0.5,0,0.6
			s0.3,0,0.5-0.2l0,0c0.1-0.1,0.1-0.2,0.1-0.3c0.1-0.2,0.2-0.6,0.1-0.7l0,0c-0.1,0-0.4,0.3-0.5,0.4
			C313.3,426.2,313.2,426.3,313.1,426.4z"/>
		<path class="st46" d="M315,425.2L315,425.2c0.1-0.1,0.1-0.2,0.1-0.3c0.1-0.2,0.2-0.6,0.1-0.7l0,0c-0.1,0-0.4,0.3-0.5,0.4
			s-0.2,0.2-0.2,0.3l0,0l0,0c0,0,0,0,0,0.1c-0.1,0.2-0.1,0.4,0,0.5C314.7,425.5,314.9,425.4,315,425.2z"/>
		<path class="st46" d="M311.7,426.2C311.7,426.2,311.6,426.2,311.7,426.2C311.6,426.2,311.6,426.2,311.7,426.2
			C311.6,426.2,311.6,426.2,311.7,426.2c-0.1,0.3-0.1,0.5,0,0.6s0.3,0,0.5-0.2l0,0c0.1-0.1,0.1-0.2,0.1-0.3c0.1-0.2,0.2-0.6,0.1-0.7
			l0,0c-0.1,0-0.4,0.3-0.5,0.4C311.8,426,311.7,426.1,311.7,426.2z"/>
		<path class="st46" d="M313.1,424.6L313.1,424.6L313.1,424.6C313,424.6,313,424.6,313.1,424.6c-0.1,0.3-0.1,0.5,0,0.6
			s0.3,0,0.5-0.2l0,0c0.1-0.1,0.1-0.2,0.1-0.3c0.1-0.2,0.2-0.6,0.1-0.7l0,0c-0.1,0-0.4,0.3-0.5,0.4
			C313.2,424.4,313.1,424.5,313.1,424.6z"/>
		<path class="st46" d="M300.5,448.4l18.3-6.6v-23l-18.3,7V448.4z M301.2,426.4L318,420v21.1l-16.8,6.1V426.4z"/>
		<polygon class="st46" points="328.3,433 330.2,432.3 330.2,421.4 331.3,421 329.3,417.9 327.2,422.5 328.3,422.1 		"/>
		<polygon class="st46" points="333,431.3 335,430.6 335,419.6 336,419.2 334,416.1 332,420.7 333,420.3 		"/>
		<polygon class="st46" points="338.9,429.9 324.4,435.2 324.4,436.3 338.9,431 		"/>
		<path class="st46" d="M322,417.5v23.1l18.3-6.6v-23.5L322,417.5z M339.5,433.4l-16.8,6.1v-21.2l16.8-6.4V433.4z"/>
		<path class="st46" d="M279,456.2l18.3-6.6V427l-18.3,7V456.2z M279.8,434.7l16.8-6.4V449l-16.8,6.1V434.7z"/>
		<path class="st46" d="M288.4,448.9v-6.5c2.2-1,2-3.1,2-3.1l-0.3-5.8l-1.9,0.7l-1.9,0.7l-0.3,6c0,0-0.2,2.3,2,1.6v6.5v0.1l-2.2,1.1
			v0.6l4.8-1.8v-0.6L288.4,448.9C288.4,449,288.4,448.9,288.4,448.9z"/>
	</g>
</g>
<polygon class="st39" points="306.4,418.2 254.1,420.7 254.1,422 306.6,419.6 "/>
<polygon class="st40" points="318.1,403.8 302.9,408.1 302.9,496.4 319.4,489.6 "/>
<polygon class="st43" points="398.6,382 398.6,383.4 306.6,419.6 306.4,418.2 "/>
<polygon class="st42" points="254.1,420.7 305.5,418.2 398.6,382 343.4,385.2 "/>
</svg>
