<?xml version="1.0" encoding="utf-8"?>
<!-- Generator: Adobe Illustrator 22.0.1, SVG Export Plug-In . SVG Version: 6.00 Build 0)  -->
<svg version="1.1" id="Isolation_Mode" xmlns="http://www.w3.org/2000/svg" xmlns:xlink="http://www.w3.org/1999/xlink" x="0px"
	 y="0px" viewBox="0 0 571.1 546.2" style="enable-background:new 0 0 571.1 546.2;" xml:space="preserve">
<style type="text/css">
	.st0{fill:#9B562D;}
	.st1{opacity:0.49;fill:#FFFFFF;enable-background:new    ;}
	.st2{fill:#C77D3C;}
	.st3{enable-background:new    ;}
	.st4{fill:#69341A;}
	.st5{fill:#EBB673;}
</style>
<polygon class="st0" points="129.9,184.8 129.9,356.7 299.2,426.6 299.8,242.4 "/>
<polygon class="st1" points="191.5,210.4 220.9,222.2 220.9,393.2 189,380.3 "/>
<polygon class="st2" points="470.9,185.8 470.9,358.5 297.4,427.2 297.9,245.5 "/>
<g class="st3">
	<g>
		<path class="st4" d="M409.3,257.1c-2.1-0.6-5.6,0.5-7.3,1.1v-1.5c0-0.3-0.2-0.5-0.5-0.4s-0.5,0.4-0.5,0.8v1.5l0,0
			c-1.4,0.5-5.5,2.3-7.8,4.6c-2.8,2.9-3.7,5.3-3.7,5.3s2-1.1,3.3-1.5s2.7-0.1,2.7-0.1s0.6-1,2.5-1.9c1.4-0.7,2.6-0.6,3.1-0.6v16.9
			c0,0.7-0.1,1.8-1,2.1l-0.4,0.1c-0.9,0.3-1-0.7-1-1.4c0-0.3-0.2-0.5-0.5-0.4s-0.5,0.4-0.5,0.7c0,2.1,1.1,2.5,2,2.2l0.4-0.1
			c0.9-0.3,2-1.5,2-3.6v-17.1c0.6-0.5,1.5-1,2.6-1.4c1.9-0.5,2.5,0,2.5,0s1.4-1.3,2.7-1.9c1.3-0.6,3.3-1,3.3-1
			S412,257.9,409.3,257.1z"/>
		<path class="st4" d="M401.2,255.3L401.2,255.3c0.1-0.2,0.2-0.4,0.3-0.6c0.1-0.3,0.3-1.2,0.3-1.3l0,0c-0.1,0-0.7,0.5-1,0.7
			c-0.2,0.2-0.3,0.3-0.4,0.5l0,0l0,0c0,0,0,0.1-0.1,0.1c-0.2,0.4-0.1,0.8,0.1,0.9C400.6,255.8,401,255.7,401.2,255.3z"/>
		<path class="st4" d="M403.9,252.3L403.9,252.3c0.1-0.2,0.2-0.4,0.3-0.6c0.1-0.3,0.3-1.2,0.3-1.3l0,0c-0.1,0-0.7,0.5-1,0.7
			c-0.2,0.2-0.3,0.3-0.4,0.5l0,0l0,0c0,0,0,0.1-0.1,0.1c-0.2,0.4-0.1,0.8,0.1,0.9C403.2,252.8,403.6,252.7,403.9,252.3z"/>
		<path class="st4" d="M403.4,254.4L403.4,254.4L403.4,254.4c0,0.1-0.1,0.1-0.1,0.1c-0.2,0.4-0.1,0.8,0.1,0.9
			c0.2,0.2,0.6,0.1,0.9-0.3l0,0c0.1-0.2,0.2-0.4,0.3-0.6c0.1-0.3,0.3-1.2,0.3-1.3l0,0c-0.1,0-0.7,0.5-1,0.7
			C403.7,254.1,403.5,254.2,403.4,254.4z"/>
		<path class="st4" d="M406.9,252.2L406.9,252.2c0.1-0.2,0.2-0.4,0.3-0.6c0.1-0.3,0.3-1.2,0.3-1.3l0,0c-0.1,0-0.7,0.5-1,0.7
			c-0.2,0.2-0.3,0.3-0.4,0.5l0,0l0,0c0,0,0,0.1-0.1,0.1c-0.2,0.4-0.1,0.8,0.1,0.9C406.3,252.7,406.7,252.6,406.9,252.2z"/>
		<path class="st4" d="M409.3,249.2L409.3,249.2c0.1-0.2,0.2-0.4,0.3-0.6c0.1-0.3,0.3-1.2,0.3-1.3l0,0c-0.1,0-0.7,0.5-1,0.7
			c-0.2,0.2-0.3,0.3-0.4,0.5l0,0l0,0c0,0,0,0.1-0.1,0.1c-0.2,0.4-0.1,0.8,0.1,0.9C408.7,249.8,409.1,249.6,409.3,249.2z"/>
		<path class="st4" d="M408.9,254.8L408.9,254.8C408.9,254.8,408.8,254.8,408.9,254.8c0,0.1-0.1,0.1-0.1,0.1
			c-0.2,0.4-0.1,0.8,0.1,0.9c0.2,0.2,0.6,0.1,0.9-0.3l0,0c0.1-0.2,0.2-0.4,0.3-0.6c0.1-0.3,0.3-1.2,0.3-1.3l0,0
			c-0.1,0-0.7,0.5-1,0.7C409.1,254.4,409,254.6,408.9,254.8z"/>
		<path class="st4" d="M412.4,252.6L412.4,252.6c0.1-0.2,0.2-0.4,0.3-0.6c0.1-0.3,0.3-1.2,0.3-1.3l0,0c-0.1,0-0.7,0.5-1,0.7
			c-0.2,0.2-0.3,0.3-0.4,0.5l0,0l0,0c0,0,0,0.1-0.1,0.1c-0.2,0.4-0.1,0.8,0.1,1C411.7,253.1,412.1,252.9,412.4,252.6z"/>
		<path class="st4" d="M406.1,254.3C406.1,254.3,406.1,254.4,406.1,254.3C406.1,254.4,406.1,254.4,406.1,254.3
			c0,0.1-0.1,0.1-0.1,0.1c-0.2,0.4-0.1,0.8,0.1,0.9c0.2,0.2,0.6,0.1,0.9-0.3l0,0c0.1-0.2,0.2-0.4,0.3-0.6c0.1-0.3,0.3-1.2,0.3-1.3
			l0,0c-0.1,0-0.7,0.5-1,0.7C406.4,254,406.2,254.2,406.1,254.3z"/>
		<path class="st4" d="M408.7,251.3C408.7,251.3,408.7,251.4,408.7,251.3C408.7,251.4,408.7,251.4,408.7,251.3
			c0,0.1-0.1,0.1-0.1,0.1c-0.2,0.4-0.1,0.8,0.1,0.9c0.2,0.2,0.6,0.1,0.9-0.3l0,0c0.1-0.2,0.2-0.4,0.3-0.6c0.1-0.3,0.3-1.2,0.3-1.3
			l0,0c-0.1,0-0.7,0.5-1,0.7C409,251,408.9,251.2,408.7,251.3z"/>
		<path class="st4" d="M385.4,295.6l33.9-12.3v-42.8l-33.9,13.1V295.6z M386.8,254.8l31.1-11.9v39.2l-31.1,11.3V254.8z"/>
		<polygon class="st4" points="437,267.1 440.7,265.8 440.7,245.4 442.6,244.7 438.8,239 435.1,247.6 437,246.8 		"/>
		<polygon class="st4" points="445.8,263.9 449.5,262.5 449.5,242.1 451.4,241.4 447.6,235.6 443.9,244.2 445.8,243.5 		"/>
		<polygon class="st4" points="456.7,261.2 429.8,271.1 429.8,273.1 456.7,263.3 		"/>
		<path class="st4" d="M425.3,238.3v42.9l33.9-12.3v-43.7L425.3,238.3z M457.8,267.7L426.7,279v-39.4l31.1-11.9L457.8,267.7
			L457.8,267.7z"/>
		<path class="st4" d="M345.5,310l33.9-12.3v-41.8L345.5,269V310z M346.9,270.1l31.1-11.9v38.4l-31.1,11.3V270.1z"/>
		<path class="st4" d="M363,296.5v-12c4-1.8,3.7-5.8,3.7-5.8l-0.6-10.7l-3.6,1.4l-3.6,1.4l-0.6,11.1c0,0-0.3,4.2,3.7,3v12
			c0,0.1,0,0.1,0.1,0.2l-4.1,2v1.1l9-3.3v-1.1l-4.1,1C362.9,296.7,363,296.6,363,296.5z"/>
	</g>
</g>
<polygon class="st1" points="418.2,207.2 387.5,217.5 389.9,384.8 420.5,372.1 "/>
<polygon class="st5" points="297.9,250.5 470.9,186 300.3,119 128.9,186.4 "/>
<polygon class="st1" points="246,140.7 220.9,150.6 386.5,217.5 417.2,207.2 "/>
<polygon class="st1" points="364.4,143.7 389.5,153.6 220.5,221.9 192.2,210.2 "/>
</svg>
