<?xml version="1.0" encoding="utf-8"?>
<!-- Generator: Adobe Illustrator 22.0.1, SVG Export Plug-In . SVG Version: 6.00 Build 0)  -->
<svg version="1.1" id="Isolation_Mode" xmlns="http://www.w3.org/2000/svg" xmlns:xlink="http://www.w3.org/1999/xlink" x="0px"
	 y="0px" viewBox="0 0 571.1 546.2" style="enable-background:new 0 0 571.1 546.2;" xml:space="preserve">
<style type="text/css">
	.st0{fill:#9B562D;}
	.st1{fill:#C77D3C;}
	.st2{fill:#EBB673;}
	.st3{fill:#A5714E;}
	.st4{fill:#475769;}
	.st5{fill:#F05B4C;}
	.st6{fill:#9CA8B5;}
	.st7{fill:#D7D7D7;}
	.st8{fill:#828C95;}
	.st9{fill:#5B6975;}
	.st10{fill:#A89B7A;}
	.st11{fill:#CCCCCC;}
	.st12{fill:#F4F4F4;}
	.st13{fill:#D6D6D6;}
	.st14{fill:#AEB8A5;}
	.st15{fill:#F5A8B3;}
	.st16{fill:#9EBEA2;}
	.st17{fill:#B4CDB8;}
	.st18{fill:#F8BCC3;}
	.st19{fill:#ECABB3;}
	.st20{fill:#E7D3CE;}
	.st21{fill:#D8C8BB;}
	.st22{fill:#946C5E;}
	.st23{fill:#A88774;}
	.st24{fill:#E96058;}
	.st25{fill:#F79C98;}
	.st26{fill:#F07C78;}
	.st27{fill:#D9C9BA;}
	.st28{fill:#E1D7CD;}
	.st29{fill:#9F8A75;}
	.st30{fill:#816549;}
	.st31{fill:#F5A788;}
	.st32{fill:#F38961;}
	.st33{fill:#D19278;}
	.st34{fill:#F7A588;}
	.st35{fill:#414141;}
	.st36{fill:#DBF0FA;}
	.st37{fill:#0B0B0B;}
	.st38{fill:#D2EBF7;}
	.st39{fill:#929292;}
	.st40{fill:#DCDCDC;}
	.st41{opacity:0.49;fill:#FFFFFF;enable-background:new    ;}
	.st42{fill:#C9905C;}
	.st43{enable-background:new    ;}
	.st44{fill:#69341A;}
</style>
<polygon class="st0" points="281.9,148 281.9,274 451.3,207 "/>
<polygon class="st1" points="283.7,149.5 283.7,274 115.4,207.9 "/>
<polygon class="st2" points="47.5,154.3 115.4,209.8 284.9,150.6 215.2,91.4 "/>
<polygon class="st3" points="47.5,154.3 47.5,158.6 110.4,209.8 115.4,209.8 "/>
<polygon class="st3" points="520.6,150.6 520.6,154.9 457.7,209.8 452.6,209.8 "/>
<polygon class="st2" points="284.9,149.8 351.9,89.7 520,150.6 452.4,209.8 "/>
<g>
	<g>
		<g id="Layer_1_1_">
			
				<rect x="276.4" y="279.9" transform="matrix(1.745299e-03 -1 1 1.745299e-03 -53.5558 615.2611)" class="st4" width="10" height="109.2"/>
			<path class="st5" d="M335.1,235.5c0.7-6.2,0.8-12.4,0.3-18.6l13.9-52.8c0,0-45.6-30.8-68.7-30.8s-68.7,30.8-68.7,30.8l13.9,52.8
				c-0.5,6.2-0.5,12.4,0.3,18.6c-1.8,6.1-3.9,21.5-0.5,31.1c-6.5,17.2-4,64.6-4,64.6h116.6c0,0,3.9-47.4-2.6-64.6
				C339.1,257,336.9,241.6,335.1,235.5z"/>
			
				<rect x="183.6" y="309.9" transform="matrix(0.1321 -0.9912 0.9912 0.1321 -156.2201 467.0227)" class="st4" width="10" height="25.7"/>
			
				<rect x="359.7" y="317.7" transform="matrix(0.9912 -0.1321 0.1321 0.9912 -39.3627 52.0426)" class="st4" width="25.7" height="10"/>
			<polygon class="st6" points="276.4,205 280.6,210 284.9,205 284.9,339.7 276.4,339.7 			"/>
			<path class="st5" d="M211.9,164c-7,6-21.6,33.5-20,54.2c-7.9,5.8-10,24.4-7,33.3c-5.1,2.8-8.9,24.8-6,33.7
				c-6.7,9.7-4.9,31.7-4.9,31.7l30.3,4.3c0,0,9.7-14.9,7-32.3c3.6-5,8.7-24.8,6.8-31.3c3.7-6,7.8-23.2,6.1-28.2
				c2.8-8.6,2.5-11.5,2.5-11.5S231.6,187.7,211.9,164z"/>
			<path class="st7" d="M179.4,286.4c5.3,3.9,21.7,8,30.2,3.7C204.1,299.4,185.7,297.6,179.4,286.4z"/>
			<path class="st8" d="M253.8,188.8h-23.7v29c0,3.7,3,6.7,6.7,6.7h19.1c3.7,0,6.7-3,6.7-6.7v-29H253.8z"/>
			<polygon class="st6" points="248,186.9 228.9,186.9 228.9,190.8 248,190.8 263.7,190.8 263.7,186.9 			"/>
			<polygon class="st7" points="248,189.7 228.9,189.7 228.9,190.8 248,190.8 263.7,190.8 263.7,189.7 			"/>
			<polygon class="st7" points="230,197.3 230,201.1 246.3,213.8 262.6,201.1 262.6,197.3 247,191.6 			"/>
			<polygon class="st6" points="248,190.8 228.9,190.8 228.9,196.5 246.3,208.6 263.7,196.5 263.7,190.8 			"/>
			<path class="st8" d="M307.5,188.8h23.7v29c0,3.7-3,6.7-6.7,6.7h-19.1c-3.7,0-6.7-3-6.7-6.7v-29H307.5z"/>
			<polygon class="st6" points="313.3,186.9 332.4,186.9 332.4,190.8 313.3,190.8 297.6,190.8 297.6,186.9 			"/>
			<polygon class="st7" points="313.3,189.7 332.4,189.7 332.4,190.8 313.3,190.8 297.6,190.8 297.6,189.7 			"/>
			<polygon class="st7" points="331.3,197.3 331.3,201.1 315,213.8 298.7,201.1 298.7,197.3 314.3,191.6 			"/>
			<polygon class="st6" points="313.3,190.8 332.4,190.8 332.4,196.5 315,208.6 297.6,196.5 297.6,190.8 			"/>
			<path class="st7" d="M185.7,252.2c5.3,4.2,21.9,9.2,30.9,5.3C210.5,266.7,191.6,263.7,185.7,252.2z"/>
			<path class="st4" d="M236.8,149.1l43.8,60.8l43.6-61c-14.4-7.8-31.8-15.7-43.5-15.7C269,133.2,251.3,141.2,236.8,149.1z"/>
			<path class="st7" d="M215.9,166.1l59.5,39.6l-34.2-58.9c-9.4,4.9-16.2,9-21.6,12.4L215.9,166.1z"/>
			<path class="st7" d="M192.8,218.8c4.4,5.1,20.7,12.7,30.3,10.5C214.6,236.4,196.5,231.2,192.8,218.8z"/>
			<path class="st6" d="M280.6,116.8c-9.7,0.7-20,2.2-34.4,13c-21.9,16.5-23.9,32.8-23.9,32.8l58.3,47.4l-29.2-59.5
				C251.4,150.4,256.8,126.5,280.6,116.8z"/>
			<path class="st8" d="M219.3,297v25.1h10.6c2.5,0,4.5-2,4.5-4.4l0,0V297H219.3z"/>
			<path class="st6" d="M217.8,280.6v17.3h16.5c2.5,0,4.4-2,4.5-4.5v-12.8H217.8z"/>
			<path class="st7" d="M227.1,236.9c6.3,3.9,24.9,6.9,38.5,4.4C254.4,245.6,238,246.8,227.1,236.9z"/>
			<path class="st7" d="M227.1,266.7c6.2,4.1,24.7,7.8,38.3,5.6C253.7,276.2,236.2,276.2,227.1,266.7z"/>
			<path class="st5" d="M296.4,83.5c0,0-9.4-3.3-16.2-3.3S264,83.5,264,83.5l-37.5,45.2h107.3L296.4,83.5z"/>
			<path class="st5" d="M349.4,164c6.9,6,21.6,33.5,20,54.2c7.9,5.8,10,24.4,7,33.3c5.2,2.8,8.9,24.8,6,33.7
				c6.7,9.7,4.9,31.7,4.9,31.7l-30.3,4.3c0,0-9.7-14.9-7-32.3c-3.6-5-8.7-24.8-6.8-31.3c-3.7-6-7.8-23.2-6.1-28.2
				c-2.8-8.6-2.5-11.5-2.5-11.5S329.7,187.7,349.4,164z"/>
			<path class="st7" d="M381.9,286.4c-5.3,3.9-21.7,8-30.2,3.7C357.2,299.4,375.6,297.6,381.9,286.4z"/>
			<path class="st7" d="M375.6,252.2c-5.3,4.2-21.9,9.2-30.9,5.3C350.8,266.7,369.7,263.7,375.6,252.2z"/>
			<path class="st7" d="M345.4,166.1l-59.5,39.6l34.2-58.9c9.4,4.9,16.2,9,21.6,12.4L345.4,166.1z"/>
			<path class="st7" d="M368.5,218.8c-4.4,5.1-20.7,12.7-30.3,10.5C346.7,236.4,364.8,231.2,368.5,218.8z"/>
			<path class="st6" d="M280.7,116.8c9.7,0.7,20,2.2,34.4,13c21.9,16.5,23.9,32.8,23.9,32.8L280.5,210l29.3-59.5
				C309.9,150.4,304.5,126.5,280.7,116.8z"/>
			<path class="st8" d="M341.2,297v25.1h-10.6c-2.4,0-4.4-2-4.4-4.4V297H341.2z"/>
			<path class="st6" d="M342.6,280.6v17.3h-16.5c-2.5,0-4.4-2-4.4-4.5v-12.8H342.6z"/>
			<path class="st7" d="M334.2,236.9c-6.4,3.9-24.9,6.9-38.5,4.4C306.4,246.8,323.6,247.2,334.2,236.9z"/>
			<path class="st7" d="M334.2,266.7c-6.2,4.1-24.7,7.8-38.3,5.6C307.6,276.7,323.6,276.2,334.2,266.7z"/>
			<rect x="268.8" y="135.2" class="st9" width="23.3" height="18.8"/>
			<path class="st7" d="M337.2,156.4c-2.5-6.2-8.5-16.4-22.1-26.6c-14.4-10.8-54.6-10.8-68.9,0c-13.6,10.2-19.6,20.4-22.1,26.6
				l-2.9,1.8c5.1,1.6,10.6,0.9,15.2-1.9c27-16.6,61.1-16.6,88.1,0c4.6,2.9,10.3,3.6,15.5,1.8L337.2,156.4z"/>
			<path class="st10" d="M345.3,148.7c-4.7,6.4-13.8,6.7-21,2.4c-27-16.6-61.1-16.6-88.1,0c-7.2,4.3-16.4,3.9-21.1-2.4
				c-4.7-6.4-1.3-18.1,8.4-24c34.8-21.4,78.6-21.4,113.4,0C346.6,130.6,350,142.4,345.3,148.7z"/>
			<rect x="219.3" y="297.9" class="st7" width="15.1" height="3.2"/>
			<rect x="326.1" y="297.9" class="st7" width="15.1" height="3.2"/>
		</g>
	</g>
	<polygon class="st11" points="400.3,316 392.7,320.8 392.7,199.4 400.3,189 	"/>
	<g>
		<rect x="183.1" y="199.1" class="st12" width="210.1" height="121.7"/>
		<polygon class="st13" points="193.2,188.7 183.1,199.1 393.2,199.1 400.8,188.7 		"/>
		<circle class="st14" cx="248.1" cy="282.3" r="27.1"/>
		<circle class="st15" cx="248.1" cy="282.3" r="23.1"/>
		<path class="st16" d="M240.1,242.1L205.9,284c11.9,9.1,28.9,6.7,38-5.2C252.4,267.5,250.8,251.5,240.1,242.1z"/>
		<path class="st17" d="M222.4,235.4c-15,0-27.1,12-27.2,27c0,8.5,3.9,16.4,10.6,21.6l34.3-41.9
			C235.2,237.8,228.9,235.4,222.4,235.4z"/>
		<path class="st18" d="M291.8,282v22.6c0,2.5,2,4.5,4.5,4.5h2.6V282H291.8z"/>
		<path class="st19" d="M298.9,309.1h5.5c2.5,0,4.5-2,4.5-4.5V282h-10V309.1z"/>
		<polygon class="st20" points="298.9,275.8 293.5,275.8 291.8,275.8 291.8,282 298.9,282 		"/>
		<polygon class="st21" points="307.1,275.8 298.9,275.8 298.9,282 308.8,282 308.8,275.8 		"/>
		<rect x="298.9" y="270.6" class="st22" width="8.2" height="5.2"/>
		<rect x="293.5" y="270.6" class="st23" width="5.4" height="5.2"/>
		<path class="st24" d="M300.3,258.5c-0.9,0-1.9-0.2-2.8-0.5l-1.8,2.4l1.8-2.4c-1.1-0.4-2.1-1.1-2.9-2v14.6h11V256
			C304.4,257.6,302.4,258.5,300.3,258.5z"/>
		<path class="st25" d="M304.5,246h-1.8c-4.3,0-7.9,3.5-7.9,7.9l0,0v2.1c0.8,0.9,1.8,1.6,2.9,2l8.3-10.5v-0.1
			C305.9,246.6,305.3,246,304.5,246z"/>
		<path class="st26" d="M300.3,258.5c2.1,0,4.1-0.9,5.5-2.6v-8.5l-8.3,10.5C298.4,258.4,299.3,258.5,300.3,258.5z"/>
		<polygon class="st27" points="341.1,273.2 342.2,252 335,252 335,273.2 		"/>
		<polygon class="st28" points="335,252 326.4,252 327.5,273.2 335,273.2 		"/>
		<path class="st29" d="M327.5,273.2l1.7,32.2c0,2.8,2.3,5.1,5.1,5.1c0.2,0,0.5,0,0.7,0v-37.2L327.5,273.2z"/>
		<path class="st30" d="M335,273.2v37.2c2.5-0.3,4.4-2.5,4.4-5.1l0,0l1.7-32.2H335V273.2z"/>
		<path class="st31" d="M340.7,223.5h-12.8c-5.3,0.1-9.6,4.4-9.6,9.8c0,1.4,0.3,2.8,0.9,4l5.4,11.2l22.5-22.5
			C345.4,224.4,343.1,223.5,340.7,223.5z"/>
		<path class="st32" d="M347.2,226.1l-22.4,22.4l1.8,3.5h15.8l7.1-14.7C351.2,233.5,350.3,228.9,347.2,226.1z"/>
		<path class="st29" d="M360.3,250.1l1,57.6c0,0.9,0.7,1.7,1.7,1.7l0,0c0.4,0,0.7-0.1,1-0.3v-59L360.3,250.1L360.3,250.1z"/>
		<path class="st30" d="M364,309c0.4-0.3,0.7-0.8,0.7-1.4l1-57.6H364V309z"/>
		<polygon class="st28" points="364,229.5 360,229.5 360.3,250.1 364,250.1 		"/>
		<polygon class="st27" points="364,229.5 364,250.1 365.8,250.1 366.1,229.5 		"/>
		<path class="st33" d="M368.3,216.2c-2.1,11.1-7.6,11.7-8.8,11.7l0.5,1.6h6.2l3.3-10.9C369.8,217.7,369.3,216.6,368.3,216.2z"/>
		<path class="st34" d="M368.3,216.2c-0.2-0.1-0.5-0.1-0.7-0.2h-1.2c-4.3,0-7.8,3.5-7.8,7.8c0,0.8,0.1,1.5,0.3,2.3l0.6,1.8
			C360.7,227.9,366.2,227.3,368.3,216.2z"/>
		<path class="st34" d="M383.9,227.5c-0.2,2.1-1.2,4.1-2.8,5.5c-1.6-1.4-2.5-3.4-2.8-5.5c0.2-2.1,1.2-4.1,2.8-5.5
			C382.7,223.4,383.7,225.4,383.9,227.5z"/>
		<path class="st29" d="M378.7,250.1l0.9,57.6c-0.1,0.9,0.6,1.7,1.5,1.7l0,0c0.3,0,0.6-0.1,0.9-0.3v-59L378.7,250.1L378.7,250.1z"/>
		<path class="st30" d="M382,309c0.4-0.3,0.7-0.8,0.6-1.4l0.9-57.6H382V309z"/>
		<polygon class="st28" points="382,229.5 378.4,229.5 378.7,250.1 382,250.1 		"/>
		<polygon class="st27" points="382,229.5 382,250.1 383.5,250.1 383.8,229.5 		"/>
	</g>
	<g>
		<rect x="226.2" y="199.5" class="st12" width="94.5" height="145"/>
		<polygon class="st13" points="230.8,187.1 226.2,199.5 320.7,199.5 324.2,187.1 		"/>
		<polygon class="st11" points="324.2,338.8 320.7,344.5 320.7,199.5 324.2,187.1 		"/>
		<path class="st35" d="M249.2,230h36.1l5.4-12.3H290h-35.7c-4.6,0-8.3,3.7-8.3,8.3v92.1c0,0.2,0,0.3,0,0.5l3-6.9L249.2,230z"/>
		<polygon class="st36" points="249.2,311.7 285.4,230 249.2,230 		"/>
		<path class="st37" d="M290.8,217.7l-5.4,12.4h9.9v82h-46.1v-0.3l-3,6.9c0.3,4.4,3.9,7.8,8.3,7.8h35.6c4.6,0,8.3-3.7,8.3-8.3V226
			C298.4,221.6,295.1,218.1,290.8,217.7z"/>
		<polygon class="st38" points="249.2,312.1 295.3,312.1 295.3,230 285.4,230 249.2,311.7 		"/>
		<path class="st39" d="M266.6,222.2h11.2c0.6,0,1.1,0.5,1.1,1.1l0,0c0,0.6-0.5,1.1-1.1,1.1h-11.2c-0.6,0-1.1-0.5-1.1-1.1l0,0
			C265.5,222.7,266,222.2,266.6,222.2z"/>
		<circle class="st40" cx="272.3" cy="319.1" r="4.4"/>
	</g>
</g>
<polygon class="st0" points="112.8,217.1 112.8,387.1 283.2,456.2 283.7,274 "/>
<polygon class="st41" points="174.8,250.1 204.4,258.2 204.4,423.3 172.2,410.4 "/>
<polygon class="st1" points="455.8,217.8 455.8,387.8 281.3,456.9 281.9,274 "/>
<polygon class="st2" points="20,203.4 186.1,267.5 283.7,272.2 115.4,206.1 "/>
<polygon class="st3" points="20,203.4 20,206.1 185.5,270.1 186.1,267.5 "/>
<polygon class="st42" points="186.1,267.5 283.7,272.2 283.7,274.8 185.5,270.1 "/>
<g class="st43">
	<g>
		<path class="st44" d="M393.8,285.8c-2.1-0.6-5.6,0.6-7.3,1.1v-1.5c0-0.4-0.2-0.6-0.6-0.4c-0.4,0.2-0.6,0.4-0.6,0.7v1.5l0,0
			c-1.3,0.6-5.6,2.2-7.8,4.7c-2.8,2.8-3.7,5.2-3.7,5.2s2.1-1.1,3.4-1.5c1.3-0.4,2.8-0.2,2.8-0.2s0.6-0.9,2.4-1.9
			c1.5-0.7,2.6-0.6,3.2-0.6v17c0,0.7-0.2,1.9-1.1,2.1l-0.4,0.2c-0.9,0.4-1.1-0.7-1.1-1.3c0-0.4-0.2-0.6-0.6-0.4
			c-0.2,0.2-0.6,0.4-0.6,0.7c0,2.2,1.1,2.6,2.1,2.2l0.4-0.2c0.9-0.4,2.1-1.5,2.1-3.5v-17.2c0.6-0.4,1.5-1.1,2.6-1.3
			c1.9-0.6,2.4,0,2.4,0s1.5-1.3,2.8-1.9c1.3-0.6,3.4-0.9,3.4-0.9S396.6,286.6,393.8,285.8z"/>
		<path class="st44" d="M385.7,283.9L385.7,283.9c0.2-0.2,0.2-0.4,0.2-0.6c0.2-0.4,0.4-1.1,0.2-1.3l0,0c-0.2,0-0.7,0.6-0.9,0.7
			s-0.4,0.4-0.4,0.6l0,0l0,0c0,0,0,0,0,0.2c-0.2,0.4-0.2,0.7,0,0.9C385.2,284.5,385.5,284.3,385.7,283.9z"/>
		<path class="st44" d="M388.4,281L388.4,281c0.2-0.2,0.2-0.4,0.2-0.6c0.2-0.4,0.4-1.1,0.2-1.3l0,0c-0.2,0-0.7,0.6-0.9,0.7
			c-0.2,0.2-0.4,0.4-0.4,0.6l0,0l0,0c0,0,0,0,0,0.2c-0.2,0.4-0.2,0.7,0,0.9C387.8,281.5,388.2,281.3,388.4,281z"/>
		<path class="st44" d="M388,283L388,283L388,283L388,283c-0.2,0.6-0.2,0.9,0,1.1c0.2,0.2,0.6,0,0.9-0.4l0,0
			c0.2-0.2,0.2-0.4,0.2-0.6c0.2-0.4,0.4-1.1,0.2-1.3l0,0c-0.2,0-0.7,0.6-0.9,0.7C388.2,282.6,388,282.8,388,283z"/>
		<path class="st44" d="M391.5,280.8L391.5,280.8c0.2-0.2,0.2-0.4,0.2-0.6c0.2-0.4,0.4-1.1,0.2-1.3l0,0c-0.2,0-0.7,0.6-0.9,0.7
			s-0.4,0.4-0.4,0.6l0,0l0,0c0,0,0,0,0,0.2c-0.2,0.4-0.2,0.7,0,0.9C390.8,281.3,391.2,281.1,391.5,280.8z"/>
		<path class="st44" d="M394,277.8L394,277.8c0.2-0.2,0.2-0.4,0.2-0.6c0.2-0.4,0.4-1.1,0.2-1.3l0,0c-0.2,0-0.7,0.6-0.9,0.7
			c-0.2,0.2-0.4,0.4-0.4,0.6l0,0l0,0c0,0,0,0,0,0.2c-0.2,0.4-0.2,0.7,0,0.9C393.2,278.3,393.8,278.2,394,277.8z"/>
		<path class="st44" d="M393.4,283.4L393.4,283.4L393.4,283.4C393.4,283.4,393.4,283.6,393.4,283.4c-0.2,0.6-0.2,0.9,0,1.1
			c0.2,0.2,0.6,0,0.9-0.4l0,0c0.2-0.2,0.2-0.4,0.2-0.6c0.2-0.4,0.4-1.1,0.2-1.3l0,0c-0.2,0-0.7,0.6-0.9,0.7
			C393.8,283,393.6,283.2,393.4,283.4z"/>
		<path class="st44" d="M396.9,281.1L396.9,281.1c0.2-0.2,0.2-0.4,0.2-0.6c0.2-0.4,0.4-1.1,0.2-1.3l0,0c-0.2,0-0.7,0.6-0.9,0.7
			s-0.4,0.4-0.4,0.6l0,0l0,0c0,0,0,0,0,0.2c-0.2,0.4-0.2,0.7,0,0.9C396.4,281.7,396.8,281.5,396.9,281.1z"/>
		<path class="st44" d="M390.8,283C390.8,283,390.6,283,390.8,283C390.6,283,390.6,283,390.8,283C390.6,283,390.6,283,390.8,283
			c-0.2,0.6-0.2,0.9,0,1.1c0.2,0.2,0.6,0,0.9-0.4l0,0c0.2-0.2,0.2-0.4,0.2-0.6c0.2-0.4,0.4-1.1,0.2-1.3l0,0c-0.2,0-0.7,0.6-0.9,0.7
			C391,282.6,390.8,282.8,390.8,283z"/>
		<path class="st44" d="M393.4,280L393.4,280L393.4,280C393.2,280,393.2,280,393.4,280c-0.2,0.6-0.2,0.9,0,1.1
			c0.2,0.2,0.6,0,0.9-0.4l0,0c0.2-0.2,0.2-0.4,0.2-0.6c0.2-0.4,0.4-1.1,0.2-1.3l0,0c-0.2,0-0.7,0.6-0.9,0.7
			C393.6,279.7,393.4,279.8,393.4,280z"/>
		<path class="st44" d="M369.9,324.5l34.2-12.3v-43l-34.2,13.1V324.5z M371.2,283.4l31.4-12v39.4l-31.4,11.4V283.4z"/>
		<polygon class="st44" points="421.8,295.7 425.3,294.4 425.3,274 427.4,273.3 423.7,267.5 419.7,276.1 421.8,275.4 		"/>
		<polygon class="st44" points="430.6,292.5 434.3,291.2 434.3,270.7 436.2,269.9 432.4,264.1 428.7,272.7 430.6,272 		"/>
		<polygon class="st44" points="441.6,289.9 414.5,299.8 414.5,301.9 441.6,292 		"/>
		<path class="st44" d="M410,266.8v43.1l34.2-12.3v-43.9L410,266.8z M442.7,296.5l-31.4,11.4v-39.6l31.4-12V296.5z"/>
		<path class="st44" d="M329.7,339.1l34.2-12.3v-42.2l-34.2,13.1V339.1z M331.2,298.9l31.4-12v38.7L331.2,337V298.9z"/>
		<path class="st44" d="M347.3,325.4v-12.1c4.1-1.9,3.7-5.8,3.7-5.8l-0.6-10.8l-3.5,1.3l-3.5,1.3l-0.6,11.2c0,0-0.4,4.3,3.7,3v12.1
			v0.2l-4.1,2.1v1.1l9-3.4v-1.1L347.3,325.4C347.3,325.6,347.3,325.4,347.3,325.4z"/>
	</g>
</g>
<polygon class="st0" points="380.9,268.1 283.2,272.7 283.2,275.2 381.3,270.7 "/>
<polygon class="st41" points="402.7,241.2 374.3,249.2 374.3,414.1 405.2,401.4 "/>
<polygon class="st3" points="553.1,200.5 553.1,203.1 381.3,270.7 380.9,268.1 "/>
<polygon class="st2" points="283.2,272.7 379.2,268.1 553.1,200.5 450,206.4 "/>
</svg>
