<?xml version="1.0" encoding="utf-8"?>
<!-- Generator: Adobe Illustrator 22.1.0, SVG Export Plug-In . SVG Version: 6.00 Build 0)  -->
<svg version="1.1" id="Layer_1" xmlns="http://www.w3.org/2000/svg" xmlns:xlink="http://www.w3.org/1999/xlink" x="0px" y="0px"
	 viewBox="0 0 391.3 391.3" style="enable-background:new 0 0 391.3 391.3;" xml:space="preserve">
<style type="text/css">
	.st0{fill:#F7F7F7;}
	.st1{fill:#403D3C;}
	.st2{fill:#888888;}
	.st3{fill:#B9D7F2;}
	.st4{fill:#FFFFFF;}
	.st5{fill:#EEEFEF;}
	.st6{fill:#DCDCDC;}
	.st7{fill:#65A6DE;}
	.st8{fill:#00A9CE;}
	.st9{enable-background:new    ;}
	.st10{fill:#919090;}
	.st11{fill:#96CDE6;stroke:#3A6080;stroke-width:0.5;stroke-linecap:round;stroke-linejoin:round;stroke-miterlimit:10;}
	.st12{fill:#8F003E;}
	.st13{fill:#B80050;}
	.st14{fill:#C54354;}
	.st15{fill:#292726;}
	.st16{fill:#595858;}
	.st17{fill:#9E9E9F;}
	.st18{fill:#C8C8C9;}
	.st19{fill:#DD9610;}
	.st20{fill:#E7B53E;}
	.st21{fill:#CD5621;}
	.st22{fill:#335991;}
	.st23{fill:#3F6EB4;}
	.st24{fill:#3862A1;}
	.st25{fill:#A71628;}
	.st26{fill:#3A6080;}
	.st27{fill:#2A455C;}
	.st28{fill:#DB4665;}
</style>
<rect x="0.1" y="0.3" class="st0" width="391.3" height="391.3"/>
<g>
	<path class="st1" d="M128.1,336h-48c-2,0-3.3-1.3-3.3-3.3v-96c0-1.7,1.3-3.3,3.3-3.3h48c1.7,0,3.3,1.7,3.3,3.3v96
		C131.4,334.3,130.1,336,128.1,336z"/>
	<rect x="79.8" y="245.6" class="st0" width="48.7" height="76.5"/>
	<g>
		<path class="st2" d="M109.2,240.7H99c-0.3,0-0.7-0.3-0.7-0.7c0-0.3,0.3-0.7,0.7-0.7h10.3c0.3,0,0.7,0.3,0.7,0.7
			C109.9,240.3,109.6,240.7,109.2,240.7z"/>
		<path class="st2" d="M96.6,240c0-0.7-0.3-1-1-1s-1,0.3-1,1c0,0.7,0.3,1,1,1C96.3,241,96.6,240.7,96.6,240z"/>
	</g>
	<g>
		<path class="st3" d="M83.1,265.5v25.2c0,0.7,0.7,1.3,1.3,1.3h39.4c0.7,0,1.3-0.7,1.3-1.3v-25.2H83.1z"/>
		<g>
			<path class="st0" d="M95.6,274.8c1.3-0.7,8.3-3.6,8.6-4c1-1,3.6-2.3,4.3-2.3c0.7,0,0.7,0.7,1,1s2.6,2.3,0.7,3.6s-15.6,5-15.9,4
				C93.3,275.7,94.7,275.1,95.6,274.8z"/>
			<g>
				<path class="st1" d="M108.2,270.5c0-0.3-0.3-1-0.7-1.7c-1,0.3-2.6,1.3-3.6,2c0,0-0.3,0-0.3,0.3c0.3,0.7,0.7,1.3,1,1.3
					C104.9,272.8,108.2,271.1,108.2,270.5z"/>
			</g>
			<path class="st4" d="M87.7,284.4c-0.7,0-1-1.7-0.7-2.3c-0.3-5.3,4-6.3,7-5.6c0.3,0,10.3-5,12.2-5.6c2.3-1,4.6,3.3,6.6,3.3
				c2.3,0,5.3-1.3,5.3-2c0.3-1,1-2.6,2-1c1,1.7,2,8.9,1,10.9c0.3,0.3,0.3,2.3-0.3,2.3c-5.3,0-16.9,0-22.5,0
				C95.3,284.4,88.7,284.4,87.7,284.4z"/>
			<g>
				<path class="st1" d="M115.8,275.1c0.7,0,2-0.3,2.6-0.7c0.7,1,1.3,1,2.6,1c-0.3-2-0.7-3.6-1-4.3c-1-1.7-1.7,0-2,1
					c-0.3,0.7-2,1.7-4,2C114.2,275.1,114.5,275.1,115.8,275.1z"/>
				<path class="st5" d="M108.6,271.4c-1-0.7-1.7-1-2.6-0.7c-2,0.7-11.6,5.6-12.2,5.6c0,0.3-0.3,1-0.3,2
					C94.7,278.1,104.6,273.1,108.6,271.4z"/>
				<path class="st4" d="M93.3,282h27.8c0.7-1.3,0.3-4,0-6.6c-1,0-2,0-2.6-1c-0.7,0.3-2,0.3-2.6,0.7c-1.3,0-1.7,0-2-1
					c-0.7,0-1,0-1.7,0c-1.3,0-2.6-1.7-4-2.6c-4,1.7-13.9,6.6-15.2,7C93.3,279.4,93,280.7,93.3,282z"/>
				<path class="st0" d="M93.3,278.4L93.3,278.4L93.3,278.4c0-1,0.3-2,0.3-2c-3-0.3-7.3,0.7-7,5.6H93
					C93,280.7,93.3,279.4,93.3,278.4z"/>
				<path class="st6" d="M120.8,282H93.3H87c-0.3,0.7,0,2.3,0.7,2.3c0.7,0,3.3,0,5.6,0c1.7,0,3.6,0,4.6,0c5.6,0,16.9,0,22.5,0
					C121.1,284.4,121.1,282.4,120.8,282z"/>
			</g>
			<path class="st4" d="M94.7,277.4c-0.3,0-0.3-0.3-0.3-0.3l0,0l0.7-2c0,0,0-0.3,0.3-0.3l0,0h0.3l0,0l1.3,0.7l0.7-2
				c0-0.3,0.3-0.3,0.3-0.3l0,0l1.7,0.7l1-2c0-0.3,0.3-0.3,0.3-0.3l0,0l1.7,0.7l0.7-1.7c0,0,0-0.3,0.3-0.3l0,0h0.3l0,0l2.3,0.7
				c0.3,0,0.3,0.3,0.3,0.3l0,0c0,0.3-0.3,0.3-0.3,0.3l0,0l-2-0.7l-0.7,1.7c0,0,0,0.3-0.3,0.3l0,0h-0.3l0,0l-1.7-0.7l-1,2
				c0,0.3-0.3,0.3-0.3,0.3l0,0l-1.7-0.7l-0.7,2c0,0,0,0.3-0.3,0.3l0,0H97l0,0l-1.3-0.7l-0.3,1.7l0,0C95.3,277.1,95,277.4,94.7,277.4
				L94.7,277.4C95,277.4,94.7,277.4,94.7,277.4L94.7,277.4z"/>
			<g>
				<path class="st1" d="M99,276.1l2,6h2l-2.6-7C100,275.4,99.3,275.7,99,276.1z"/>
				<path class="st1" d="M102.3,274.4l3,7.6h2l-3.3-8.6C103.6,273.8,102.9,274.1,102.3,274.4z"/>
			</g>
		</g>
		<path class="st7" d="M123.8,263.2H84.4c-0.7,0-1.3,0.7-1.3,1.3v1.3h42.4v-1.3C125.1,263.8,124.4,263.2,123.8,263.2z"/>
	</g>
	<rect x="90" y="304.9" class="st8" width="27.1" height="11.9"/>
	<g class="st9">
		<path class="st4" d="M98.3,307.9c1,0,1.6,0.5,1.6,1.3c0,0.6-0.3,1-0.9,1.1c0.7,0.1,1.2,0.6,1.2,1.3c0,0.9-0.7,1.4-1.8,1.4h-2.2
			v-5.1H98.3z M96.7,310.1h1.5c0.7,0,1.1-0.3,1.1-0.8c0-0.5-0.4-0.8-1.1-0.8h-1.5V310.1z M96.7,312.4h1.5c0.8,0,1.3-0.3,1.3-0.9
			c0-0.6-0.5-0.9-1.3-0.9h-1.5V312.4z"/>
		<path class="st4" d="M105.5,310.9c0,1.3-0.8,2.1-2.1,2.1c-1.3,0-2.1-0.8-2.1-2.1v-3h0.6v3c0,1,0.6,1.6,1.6,1.6
			c1,0,1.5-0.6,1.5-1.6v-3h0.6V310.9z"/>
		<path class="st4" d="M108.7,312.9h-0.6v-1.7l-2-3.4h0.6l1.6,2.7l1.6-2.7h0.6l-1.9,3.3V312.9z"/>
	</g>
	<g>
		<path class="st10" d="M315.8,293.3H173.1c-3.6,0-6.3-3-6.3-6.3V186.4c0-3.6,3-6.3,6.3-6.3h142.7c3.6,0,6.3,3,6.3,6.3v100.3
			C322.1,290.3,319.1,293.3,315.8,293.3z"/>
		<path class="st5" d="M154.2,289.3h180.4v7.9c0,1.3-1,2.6-2.6,2.6H156.6c-1.3,0-2.6-1-2.6-2.6v-7.9H154.2z"/>
		<g>
			<path class="st10" d="M154.2,296.9c0,1.7,1.3,3,3.3,3h174.1c1.7,0,3.3-1.3,3.3-3v-0.7H154.2V296.9z"/>
		</g>
		<rect x="174.4" y="187.7" class="st11" width="139.7" height="93.4"/>
		<rect x="190.3" y="198.6" class="st4" width="45" height="47.7"/>
		<rect x="239" y="198.6" class="st4" width="29.1" height="31.8"/>
		<rect x="239" y="234" class="st4" width="29.1" height="31.8"/>
		<rect x="272.1" y="198.6" class="st4" width="29.1" height="31.8"/>
		<rect x="272.1" y="234" class="st4" width="29.1" height="31.8"/>
		<g>
			<g>
				<path class="st12" d="M243.3,220.1l-0.3,1.7c-0.3,1,0,1.3,1,1.3c0.3,0,1.3,0.3,1.3,0l0.3-2.3L243.3,220.1z"/>
			</g>
			<g>
				<path class="st12" d="M264.2,220.1l0.3,1.7c0.3,1,0,1.3-1,1.3c-0.3,0-1.3,0.3-1.3,0l-0.7-2.3L264.2,220.1z"/>
			</g>
			<path class="st12" d="M259.5,209.9c-0.3-1-0.7-2-1-2.3c-1.3-1-3.3-1.3-4.6-1.3c-1.7,0-3.6,0.3-4.6,1.3c-0.3,0.3-0.7,1.3-1,2.3
				c-1,5.3-0.7,15.6-0.7,15.6c0,0.3,0.3,1,0.7,1h11.6c0.3,0,0.7-0.3,0.7-1C260.5,225.4,260.5,215.2,259.5,209.9z"/>
			<g>
				<path class="st13" d="M264.5,220.1l-2.3-10.9c-0.3-2-1.3-4.6-2.6-5c-1,0-1.3,1.7-1,2.6l3,14.9c0,0.7,1.3,0.3,1.7,0.3
					C264.5,221.8,264.5,221.5,264.5,220.1z"/>
				<path class="st13" d="M247.9,204.6c-1.3,0.3-2.3,3-2.6,5l-2.3,10.9c-0.3,1,0,1.7,1,1.7c0.7,0,1.7,0.3,1.7-0.3l3-14.9
					C248.9,205.9,248.9,204.2,247.9,204.6z"/>
			</g>
			<path class="st14" d="M260.2,206.6c-0.3-1-0.7-2-1-2.3c-1.3-1-3.6-1.3-5.3-1.3c-1.7,0-3.6,0.3-5.3,1.3c-0.7,0.3-1,1.3-1,2.3
				c-1.3,6-1,16.9-1,16.9c0,0.7,0.3,1,1,1h12.6c0.3,0,0.7-0.3,1-1C260.8,223.8,261.2,212.5,260.2,206.6z"/>
			<g>
				<g>
					<path class="st13" d="M256.2,219.8h-5.3c-0.3,0-0.3-0.3-0.3-0.3c0-0.3,0-0.3,0.3-0.3h5.3c0.3,0,0.3,0.3,0.3,0.3
						S256.5,219.8,256.2,219.8z"/>
				</g>
				<path class="st13" d="M258.2,211.5c-0.3-0.7-1.3-0.3-2.6,1.3c-0.3,0.7-0.7,1.3-1,2.3c0-0.7,0.3-1.7,0.3-2.3c0-2.3-0.7-4-1-4
					c-0.7,0-1,1.3-1,4c0,0.7,0,1.7,0.3,2.3c-0.3-0.7-0.7-1.7-1-2c-1-1.7-2-2-2.6-1.3c-0.3,0.7,0,2.3,1,4c1,1.7,3,2.3,3.3,2.3
					c0.7,0,2.3-0.7,3.3-2.3C258.2,213.5,258.5,212.2,258.2,211.5z"/>
			</g>
			<g>
				<path class="st12" d="M253.9,205.9c1.3,0,2.3-1,2.6-3c-1-0.3-2-0.3-2.6-0.3c-1,0-1.7,0-2.6,0.3
					C251.2,204.9,252.2,205.9,253.9,205.9z"/>
			</g>
			<g>
				<path class="st13" d="M253.9,206.6c-1.7,0-3-1.3-3-3.3c0-0.3,0.3-0.7,0.7-0.7c0,0,0,0.3,0,0.7c0,1.3,0.7,2.3,2,2.3
					c1.3,0,2-1,2-2.3c0-0.3,0.3-0.7,0.7-0.7c0.3,0,0.7,0.3,0.7,0.7C256.9,205.2,255.5,206.6,253.9,206.6z"/>
			</g>
		</g>
		<g>
			<rect x="206.2" y="233.4" class="st15" width="11.6" height="7.3"/>
			<g>
				<path class="st16" d="M229.4,231.4l0.7,2.3c0.3,1.3,0,2-1.3,2.3c-0.7,0.3-2,0.3-2.3-0.3l-0.7-3.3L229.4,231.4z"/>
			</g>
			<g>
				<path class="st16" d="M196,231.4l-0.7,2.3c-0.3,1.3,0,2,1.3,2.3c0.7,0.3,2,0.3,2.3-0.3l0.7-3.3L196,231.4z"/>
			</g>
			<g>
				<path class="st1" d="M195.6,231.1l3.6-16.6c0.7-3,2.3-7,4.3-7.6c1.7-0.3,1.7,2.3,1.3,4l-5,22.8c-0.3,1-2,0.7-2.6,0.3
					C195.6,233.4,195.3,232.7,195.6,231.1z"/>
				<path class="st1" d="M221.8,206.9c2,0.3,3.6,4.6,4.3,7.6l3.6,16.6c0.3,1.7,0,2.3-1.7,2.6c-0.7,0.3-2.6,0.7-2.6-0.3l-5-22.8
					C220.1,209.2,220.5,206.6,221.8,206.9z"/>
			</g>
			<path class="st15" d="M202.6,210.5c0.3-1.3,1-3,1.7-3.6c2.3-1.7,5.6-2,8.3-2c2.6,0,6,0.3,8.3,2c0.7,0.7,1.3,2.3,1.7,3.6
				c2,8.9,1.3,26.2,1.3,26.2c0,0.7-0.7,1.3-1.3,1.3h-20.2c-0.7,0-1.3-0.7-1.3-1.3C201.3,236.4,200.6,219.5,202.6,210.5z"/>
			<g>
				<path class="st1" d="M215.2,236.4h7.9c0,1.7,0,3,0,3c0,0.7-0.7,1.3-1.3,1.3h-6.6V236.4z"/>
				<path class="st1" d="M209.9,236.4v4h-6.6c-0.7,0-1.3-0.7-1.3-1.3c0,0,0-1,0-3h7.9V236.4z"/>
			</g>
			<g>
				<path class="st15" d="M212.5,209.5c-2.3,0-4-1.7-4.3-4.6c1.3-0.3,3-0.3,4.3-0.3s3,0,4.3,0.3
					C216.5,207.6,214.8,209.5,212.5,209.5z"/>
			</g>
			<g>
				<path class="st16" d="M214.2,204.6L214.2,204.6L214.2,204.6L214.2,204.6z"/>
				<path class="st16" d="M216.5,204.9c-0.3,0-0.7,0-1.3-0.3C215.5,204.9,215.8,204.9,216.5,204.9z"/>
				<path class="st16" d="M216.8,204.9c1.3,0.3,3,0.7,4,1.7c0.7,0.7,1.3,2.3,1.7,3.6c2,8.9,1.3,26.2,1.3,26.2c0,0.7-0.7,1.3-1.3,1.3
					h-8.3v-28.8C215.5,208.5,216.5,206.9,216.8,204.9z"/>
			</g>
			<g>
				<g>
					<g>
						<path class="st1" d="M213.8,209.5h0.3c1-0.3,3.6-1.3,4-4.3c0,0-0.3-0.3-1-0.3c-0.7-0.3-1-0.3-1,0c-0.3,1.7-1.3,2.6-2.6,3
							c-0.7,0.3-0.7,0.7-0.3,1C213.5,209.2,213.5,209.5,213.8,209.5z"/>
					</g>
				</g>
				<g>
					<path class="st16" d="M214.8,209.5L214.8,209.5l-1-2v-0.3h0.3L214.8,209.5C215.2,209.2,215.2,209.5,214.8,209.5
						C215.2,209.5,215.2,209.5,214.8,209.5z"/>
				</g>
				<g>
					<path class="st16" d="M216.5,208.5C216.5,208.5,216.2,208.5,216.5,208.5l-1.7-1.3v-0.3h0.3L216.5,208.5L216.5,208.5
						L216.5,208.5z"/>
				</g>
				<g>
					<path class="st16" d="M217.5,207.6L217.5,207.6l-1.7-1v-0.3h0.3l1.7,1C217.8,207.2,217.8,207.2,217.5,207.6
						C217.8,207.6,217.5,207.6,217.5,207.6z"/>
				</g>
				<g>
					<path class="st16" d="M218.1,206.2L218.1,206.2l-2-0.7c0,0-0.3,0,0-0.3c0,0,0,0,0.3,0l2,0.7
						C218.5,205.9,218.5,205.9,218.1,206.2C218.5,205.9,218.1,206.2,218.1,206.2z"/>
				</g>
			</g>
			<g>
				<path class="st16" d="M210.9,204.6L210.9,204.6L210.9,204.6L210.9,204.6z"/>
				<path class="st16" d="M208.5,204.9c0.3,0,0.7,0,1.3-0.3C209.5,204.9,209.2,204.9,208.5,204.9z"/>
				<path class="st16" d="M208.2,204.9c-1.3,0.3-3,1-4,1.7c-0.7,0.7-1.3,2.3-1.7,3.6c-2,8.9-1.3,26.2-1.3,26.2
					c0,0.7,0.7,1.3,1.3,1.3h8.3v-28.8C209.5,208.5,208.5,206.9,208.2,204.9z"/>
			</g>
			<g>
				<g>
					<g>
						<path class="st1" d="M211.2,209.5h-0.3c-1-0.3-3.6-1.3-4-4.3c0,0,0.3-0.3,1-0.3c0.7-0.3,1-0.3,1,0c0.3,1.7,1.3,2.6,2.6,3
							c0.3,0,0.3,0.3,0,1C211.5,209.2,211.5,209.5,211.2,209.5z"/>
					</g>
				</g>
				<g>
					<path class="st16" d="M210.2,209.5C209.9,209.5,209.9,209.5,210.2,209.5C209.9,209.5,209.9,209.2,210.2,209.5l0.7-2
						c0,0,0,0,0.3,0c0,0,0,0,0,0.3L210.2,209.5L210.2,209.5z"/>
				</g>
				<g>
					<path class="st16" d="M208.5,208.5L208.5,208.5L208.5,208.5l1.3-1.7h0.3v0.3L208.5,208.5C208.9,208.5,208.5,208.5,208.5,208.5z
						"/>
				</g>
				<g>
					<path class="st16" d="M207.5,207.6C207.5,207.6,207.2,207.6,207.5,207.6c-0.3-0.3-0.3-0.3,0-0.3l1.7-1h0.3v0.3L207.5,207.6
						L207.5,207.6z"/>
				</g>
				<g>
					<path class="st16" d="M206.9,206.2C206.9,206.2,206.6,205.9,206.9,206.2c-0.3-0.3,0-0.3,0-0.3l2-0.7h0.3v0.3L206.9,206.2
						L206.9,206.2z"/>
				</g>
			</g>
			<path class="st1" d="M218.5,235.7c-0.7-1.3-1-3.3-1-7.3c1.3,0,2-0.3,5-0.7c0.7,4.3,0.7,6.6,0,7.9H218.5z"/>
			<path class="st1" d="M206.6,235.7c0.7-1.3,1-3.3,1-7.3c-1.3,0-2-0.3-5-0.7c-0.7,4.3-0.7,6.6,0,7.9H206.6z"/>
			<g>
				<path class="st15" d="M220.5,214.2c0,1-1,2-2,2s-2-0.7-2-2c0-1,1-2,2-2C219.8,212.5,220.5,213.2,220.5,214.2z"/>
				<path class="st1" d="M220.1,214.2c0,1-0.7,1.7-1.7,1.7s-1.7-0.7-1.7-1.7s0.7-1.7,1.7-1.7S220.1,213.5,220.1,214.2z"/>
				<polygon class="st16" points="218.5,212.8 219.1,213.8 219.8,213.8 219.5,214.5 219.5,215.5 218.5,214.8 217.8,215.5 
					217.8,214.5 217.1,213.8 218.1,213.8 				"/>
			</g>
		</g>
		<g>
			<g>
				<path class="st1" d="M243.6,255.6l-0.3,1.3c-0.3,1,0,1.3,0.7,1.3c0.3,0,1.3,0.3,1.3,0l0.3-2L243.6,255.6z"/>
			</g>
			<g>
				<path class="st1" d="M263.5,255.6l0.3,1.3c0.3,1,0,1.3-0.7,1.3c-0.3,0-1.3,0.3-1.3,0l-0.3-2L263.5,255.6z"/>
			</g>
			<path class="st17" d="M259.2,245.6c-0.3-1-0.7-1.7-1-2c-1.3-1-3-1.3-4.6-1.3c-1.3,0-3.3,0.3-4.6,1.3c-0.3,0.3-0.7,1.3-1,2
				c-1,5.3-0.7,14.9-0.7,14.9c0,0.3,0.3,0.7,0.7,0.7h10.9c0.3,0,0.7-0.3,0.7-0.7C259.9,260.5,260.2,250.9,259.2,245.6z"/>
			<g>
				<path class="st16" d="M263.8,255.6l-2.3-10.6c-0.3-2-1.3-4.3-2.6-4.6c-0.7,0-0.7,1.3-0.7,2.6l3,14.2c0,0.7,1.3,0.3,1.7,0.3
					C263.8,256.9,264.2,256.5,263.8,255.6z"/>
				<path class="st16" d="M248.3,240.3c-1.3,0.3-2.3,2.6-2.6,4.6l-2,10.6c-0.3,1,0,1.3,1,1.7c0.3,0,1.7,0.3,1.7-0.3l3-14.2
					C249.3,241.6,249.3,240.3,248.3,240.3z"/>
			</g>
			<path class="st5" d="M259.9,242.6c-0.3-1-0.7-2-1-2.3c-1.3-1-3.3-1.3-5-1.3c-1.7,0-3.6,0.3-5,1.3c-0.3,0.3-1,1.3-1,2.3
				c-1,5.6-0.7,16.2-0.7,16.2c0,0.3,0.3,1,0.7,1h11.9c0.3,0,0.7-0.3,0.7-1C260.5,258.9,260.8,248.3,259.9,242.6z"/>
			<g>
				<path class="st17" d="M253.9,242c1.3,0,2.3-1,2.6-2.6c-1-0.3-2-0.3-2.6-0.3c-0.7,0-1.7,0-2.6,0.3C251.6,241,252.2,242,253.9,242
					z"/>
			</g>
			<g>
				<path class="st18" d="M253.9,242.3c-1.7,0-3-1.3-3-3c0-0.3,0.3-0.3,0.3-0.3c0.3,0,0.3,0.3,0.3,0.3c0,1.3,0.7,2.3,2,2.3
					c1.3,0,2-1,2-2.3c0-0.3,0.3-0.3,0.3-0.3l0.3,0.3C256.5,241.3,255.5,242.3,253.9,242.3z"/>
			</g>
			<g>
				<g>
					<path class="st18" d="M254.9,245v2.3h0.7v1.3h-0.7v0.3h0.3v1.3h-2.3v-1.3h0.3v-0.3h-2v-1l2-2.6H254.9z M253.2,246.6l-0.3,0.7
						h0.3V246.6z"/>
				</g>
				<g>
					<path class="st18" d="M252.6,251.9v0.7l0,0l0,0v0.7l-0.3,0.3h-1.7v-0.7h0.3v-0.7h-0.3v-0.7h1.7L252.6,251.9z M251.6,252.2
						L251.6,252.2L251.6,252.2L251.6,252.2L251.6,252.2z M251.6,253.2L251.6,253.2L251.6,253.2L251.6,253.2L251.6,253.2z"/>
					<path class="st18" d="M254.9,251.9v1.7l-0.3,0.3h-1l-0.3-0.3v-1.7l0.3-0.3h1L254.9,251.9z M254.2,252.2h-0.3v1.3h0.3V252.2z"/>
					<path class="st18" d="M257.5,251.6v0.7h-0.3l-0.7,1v0.3h0.3v0.7h-1v-0.7h0.3v-0.3l-0.7-1h-0.3v-0.7h1v0.7l0,0v0.3v-0.3l0,0
						v-0.7H257.5z"/>
				</g>
				<g>
					<path class="st1" d="M252.6,251.9v0.7l0,0l0,0v0.7l-0.3,0.3h-1.7v-0.7h0.3v-0.7h-0.3v-0.7h1.7L252.6,251.9z M252.2,251.9
						l-0.3-0.3h-1.3v0.3h0.3v1.7h-0.3v0.3h1.3l0.3-0.3v-0.7l-0.3-0.3l0.3-0.3V251.9z M251.9,251.9L251.9,251.9v0.7l0,0h-0.7v-0.7
						H251.9z M251.9,252.9L251.9,252.9v0.7l0,0h-0.7v-0.7H251.9z M251.6,252.2L251.6,252.2L251.6,252.2L251.6,252.2L251.6,252.2z
						 M251.6,253.2L251.6,253.2L251.6,253.2L251.6,253.2L251.6,253.2z"/>
					<path class="st1" d="M254.9,251.9v1.7l-0.3,0.3h-1l-0.3-0.3v-1.7l0.3-0.3h1L254.9,251.9z M254.6,251.9l-0.3-0.3h-0.7l-0.3,0.3
						v1.7l0.3,0.3h0.7l0.3-0.3V251.9z M254.2,251.9v1.3l0,0h-0.7l0,0v-1.3l0,0H254.2L254.2,251.9z M254.2,252.2h-0.3v1.3h0.3V252.2z
						"/>
					<path class="st1" d="M257.5,251.6v0.7h-0.3l-0.7,1v0.3h0.3v0.7h-1v-0.7h0.3v-0.3l-0.7-1h-0.3v-0.7h1v0.7l0,0v0.3v-0.3l0,0v-0.7
						H257.5z M257.2,251.6h-0.7v0.3l0,0l-0.3,1l-0.3-1l0,0v-0.3h-0.7v0.3l0,0l0.7,1v0.7h-0.3v0.3h0.7v-0.3h-0.3v-0.7L257.2,251.6
						L257.2,251.6L257.2,251.6z"/>
				</g>
				<g>
					<path class="st1" d="M254.9,245v2.3h0.7v1.3h-0.7v0.3h0.3v1.3h-2.3v-1.3h0.3v-0.3h-2v-1l2-2.6H254.9z M254.2,245.3h-1l-1.7,2.3
						v0.7h2v1h-0.3v0.7h1.3v-0.7h-0.3v-1h0.7v-0.3h-0.7V245.3z M253.6,245.6v2h-1.7L253.6,245.6L253.6,245.6z M253.2,246.6l-0.3,0.7
						h0.3V246.6z"/>
				</g>
			</g>
		</g>
		<g>
			<g>
				<path class="st19" d="M296.6,219.8l0.3,1.3c0.3,1,0,1.3-0.7,1.3c-0.3,0-1.3,0.3-1.3,0l-0.3-2L296.6,219.8z"/>
			</g>
			<g>
				<path class="st19" d="M276.7,219.8l-0.3,1.3c-0.3,1,0,1.3,0.7,1.3c0.3,0,1.3,0.3,1.3,0l0.3-2L276.7,219.8z"/>
			</g>
			<path class="st19" d="M281,210.2c0.3-1,0.7-2,1-2.3c1.3-1,3-1.3,4.6-1.3c1.3,0,3.3,0.3,4.6,1.3c0.3,0.3,0.7,1.3,1,2
				c1,5,0.7,14.9,0.7,14.9c0,0.3-0.3,0.7-0.7,0.7h-10.9c-0.3,0-0.7-0.3-0.7-0.7C280.4,224.8,280,215.2,281,210.2z"/>
			<g>
				<path class="st20" d="M276.4,219.8l2.3-10.3c0.3-1.7,1.3-4.3,2.6-4.6c1-0.3,1,1.3,0.7,2.3l-3,13.9c0,0.7-1.3,0.3-1.7,0.3
					C276.7,221.5,276.4,220.8,276.4,219.8z"/>
				<path class="st20" d="M292,204.9c1.3,0.3,2.3,2.6,2.6,4.6l2.3,10.3c0.3,1,0,1.3-1,1.7c-0.3,0-1.7,0.3-1.7-0.3l-3-13.9
					C291,206.2,291.3,204.6,292,204.9z"/>
			</g>
			<path class="st5" d="M280.7,206.9c0.3-1,0.7-2,1-2.3c1.3-1,3.3-1.3,5-1.3s3.6,0.3,5,1.3c0.3,0.3,1,1.3,1,2.3
				c1,5.6,0.7,16.2,0.7,16.2c0,0.3-0.3,1-0.7,1h-11.9c-0.3,0-0.7-0.3-0.7-1C279.7,223.1,279.4,212.5,280.7,206.9z"/>
			<g>
				<path class="st19" d="M286.7,206.6c-1.3,0-2.3-1-2.6-2.6c1-0.3,1.7-0.3,2.6-0.3c0.7,0,1.7,0,2.6,0.3
					C289,205.2,288,206.6,286.7,206.6z"/>
			</g>
			<g>
				<path class="st20" d="M286.7,206.9c1.7,0,3-1.3,3-3c0-0.3-0.3-0.3-0.3-0.3c-0.3,0-0.3,0.3-0.3,0.3c0,1.3-0.7,2.3-2,2.3
					c-1.7-0.3-2.3-1-2.3-2.3c0-0.3-0.3-0.3-0.3-0.3l-0.3,0.3C283.7,205.6,285,206.9,286.7,206.9z"/>
			</g>
			<path class="st21" d="M289.3,212.5L289.3,212.5c0.3,0,0.3-0.3,0.7-0.3c0-0.3,0.3-0.3,0.3-0.7c0-0.3,0-0.3,0-0.3l-0.3-0.3h-0.3
				c0,0-0.3,0-0.7,0h-1h-1h-0.3l-0.7,2.3l0,0l-1-2.3h-1.3l-1,4.3h1.3l0.7-3l0,0l1,2.3h0.3h1h1.7c0.7,0,1,0,1.3-0.3s0.3-0.7,0.3-1
				C290,212.8,290,212.5,289.3,212.5z M288,213.5h-0.7l0.3-1h0.7c0.3,0,0.3,0,0.3,0s0,0,0,0.3C289,213.5,288.7,213.5,288,213.5z
				 M289,211.9C289,211.9,288.7,211.9,289,211.9c-0.3,0.3-0.7,0.3-0.7,0.3H288v-0.7h0.7c0.3,0,0.3,0,0.3,0
				C289,211.2,289,211.5,289,211.9C289,211.5,289,211.9,289,211.9z"/>
			<g>
				<path class="st21" d="M289.6,216.5h-6c-0.3,0-0.3,0-0.3-0.3c0-0.3,0-0.3,0.3-0.3h6c0.3,0,0.3,0,0.3,0.3
					C290,216.5,289.6,216.5,289.6,216.5z"/>
			</g>
		</g>
		<g>
			<rect x="283.4" y="256.9" class="st22" width="7.3" height="4.6"/>
			<g>
				<path class="st23" d="M276.4,255.9l-0.3,1.3c-0.3,1,0,1.3,0.7,1.3c0.3,0,1.3,0.3,1.3,0l0.3-2.3L276.4,255.9z"/>
			</g>
			<g>
				<path class="st23" d="M296.9,255.9l0.3,1.3c0.3,1,0,1.3-1,1.3c-0.3,0-1.3,0.3-1.3,0l-0.3-2.3L296.9,255.9z"/>
			</g>
			<g>
				<path class="st24" d="M297.3,255.6l-2.3-10.9c-0.3-2-1.3-4.6-2.6-5c-1,0-1,1.7-0.7,2.6l3,14.9c0,0.7,1.3,0.3,1.7,0.3
					C297.3,257.2,297.6,256.9,297.3,255.6z"/>
				<path class="st24" d="M281,240c-1.3,0.3-2.3,3-2.6,5l-2.3,10.6c-0.3,1,0,1.7,1,1.7c0.7,0,1.7,0.3,1.7-0.3l3-14.9
					C282,241.3,282,239.7,281,240z"/>
			</g>
			<path class="st22" d="M293,242.3c-0.3-1-0.7-2-1-2.3c-1.3-1-3.6-1.3-5.3-1.3s-3.6,0.3-5.3,1.3c-0.3,0.3-1,1.3-1,2.3
				c-1.3,6-1,16.9-1,16.9c0,0.3,0.3,1,0.7,1h12.6c0.3,0,0.7-0.3,0.7-1C293.9,259.2,294.3,247.9,293,242.3z"/>
			<g>
				<path class="st24" d="M285.3,259.2h-5c0,1,0,2,0,2c0,0.3,0.3,1,0.7,1h4.3V259.2z"/>
				<path class="st24" d="M288.3,259.2v2.6h4.3c0.3,0,0.7-0.3,0.7-1c0,0,0-0.7,0-2h-5V259.2z"/>
			</g>
			<g>
				<path class="st22" d="M286.7,241.6c1.3,0,2.3-1,2.6-3c-1-0.3-2-0.3-2.6-0.3c-1,0-1.7,0-2.6,0.3
					C284.3,240.3,285.3,241.6,286.7,241.6z"/>
			</g>
			<g>
				<path class="st23" d="M285.7,238.3L285.7,238.3L285.7,238.3L285.7,238.3z"/>
				<path class="st23" d="M284.3,238.7c0.3,0,0.7,0,0.7,0S284.7,238.7,284.3,238.7z"/>
				<path class="st23" d="M284,238.7c-1,0.3-1.7,0.7-2.6,1c-0.3,0.3-1,1.3-1,2.3c-1.3,6-1,16.9-1,16.9c0,0.3,0.3,1,0.7,1h5.3V241
					C285,241,284.3,240,284,238.7z"/>
			</g>
			<g>
				<g>
					<path class="st24" d="M286,241.6C285.7,241.6,285.7,241.6,286,241.6c-1-0.3-2.6-1-2.6-3c0,0,0-0.3,0.7-0.3c0.3,0,0.7-0.3,0.7,0
						c0.3,1.3,0.7,1.7,1.7,2c0.3,0,0.3,0.3,0.3,0.7C286.3,241.3,286,241.6,286,241.6z"/>
				</g>
				<path class="st23" d="M285,242c-0.3,0-0.3-0.3-0.3-0.7l0,0l0.7-1c0-0.3,0.3-0.3,0.7-0.3l0,0c0.3,0,0.3,0.3,0.3,0.7l0,0l-0.7,1
					C285.7,242,285.3,242,285,242L285,242C285.3,242,285,242,285,242L285,242z"/>
				<path class="st23" d="M284,241.3c-0.3-0.3-0.3-0.7,0-0.7l0,0l1-1c0.3-0.3,0.7-0.3,0.7,0l0,0c0.3,0.3,0.3,0.7,0,0.7l0,0l-1,1
					h-0.3l0,0H284L284,241.3z"/>
				<path class="st23" d="M283.4,240.3c0-0.3,0-0.7,0-0.7l0,0l1-0.7c0.3,0,0.7,0,0.7,0l0,0c0,0.3,0,0.7,0,0.7l0,0l-1,0.7h-0.3l0,0
					C283.7,240.7,283.4,240.7,283.4,240.3L283.4,240.3z"/>
				<path class="st23" d="M282.7,239.3c0-0.3,0-0.7,0.3-0.7l0,0l1.3-0.3c0.3,0,0.7,0,0.7,0.3l0,0c0,0.3,0,0.7-0.3,0.7l0,0l-1.3,0.3
					l0,0l0,0C283,239.7,283,239.7,282.7,239.3L282.7,239.3z"/>
			</g>
			<g>
				<path class="st23" d="M288,238.3L288,238.3L288,238.3L288,238.3z"/>
				<path class="st23" d="M289.3,238.7c-0.3,0-0.7,0-0.7,0C288.7,238.7,289,238.7,289.3,238.7z"/>
				<path class="st23" d="M289.3,238.7c1,0.3,1.7,0.7,2.6,1c0.3,0.3,1,1.3,1,2.3c1.3,6,1,16.9,1,16.9c0,0.3-0.3,1-0.7,1H288V241
					C288.7,241,289.3,240,289.3,238.7z"/>
			</g>
			<g>
				<g>
					<path class="st24" d="M287.7,241.6C287.7,241.6,288,241.6,287.7,241.6c1-0.3,2.6-1,2.6-3c0,0,0-0.3-0.7-0.3
						c-0.3,0-0.7-0.3-0.7,0c-0.3,1.3-0.7,1.7-1.7,2c-0.3,0-0.3,0.3-0.3,0.7C287.3,241.3,287.3,241.6,287.7,241.6z"/>
				</g>
				<path class="st23" d="M288,241.6l-0.7-1c0-0.3,0-0.7,0.3-0.7l0,0c0.3,0,0.7,0,0.7,0.3l0,0l0.7,1c0,0.3,0,0.7-0.3,0.7l0,0
					c0,0,0,0-0.3,0l0,0C288,242,288,242,288,241.6L288,241.6z"/>
				<path class="st23" d="M289,241.3l-1-1c-0.3-0.3-0.3-0.7,0-0.7l0,0c0.3-0.3,0.7-0.3,0.7,0l0,0l1,1c0.3,0.3,0.3,0.7,0,0.7l0,0
					h-0.3l0,0C289,241.3,289,241.3,289,241.3L289,241.3z"/>
				<path class="st23" d="M289.6,240.7l-1-0.7c-0.3,0-0.3-0.3,0-0.7l0,0c0-0.3,0.3-0.3,0.7,0l0,0l1,0.7c0.3,0,0.3,0.3,0,0.7l0,0
					C290.3,240.7,290,240.7,289.6,240.7L289.6,240.7L289.6,240.7L289.6,240.7z"/>
				<path class="st23" d="M290.3,239.7l-1.3-0.3c-0.3,0-0.3-0.3-0.3-0.7l0,0c0-0.3,0.3-0.3,0.7-0.3l0,0l1.3,0.3
					c0.3,0,0.3,0.3,0.3,0.7l0,0C290.6,239.7,290.6,239.7,290.3,239.7L290.3,239.7L290.3,239.7L290.3,239.7z"/>
			</g>
			<path class="st24" d="M283,258.5c0.3-0.7,0.7-2.3,0.7-4.6c-0.7,0-1.3-0.3-3-0.3c-0.3,2.6-0.3,4.3,0,5.3h2.3V258.5z"/>
			<path class="st24" d="M290.3,258.5c-0.3-0.7-0.7-2.3-0.7-4.6c0.7,0,1.3-0.3,3-0.3c0.3,2.6,0.3,4.3,0,5.3h-2.3V258.5z"/>
			<g>
				<g>
					<path class="st4" d="M283,243c-0.7,0-1.3,0.3-1.3,1c0,0.7,0.7,1,1.3,1s1.3-0.3,1.3-1S283.7,243,283,243z M283,244.6v-1.3
						c0.3,0,1,0.3,1,0.7S283.7,244.6,283,244.6z"/>
					<path class="st22" d="M283,243.3v1.3c-0.3,0-1-0.3-1-0.7S282.4,243.3,283,243.3z"/>
				</g>
				<g>
					<path class="st22" d="M284,246h-1.7l0,0l0,0H284C284,245.6,284,245.6,284,246L284,246z"/>
				</g>
			</g>
		</g>
		<rect x="190" y="250.9" class="st8" width="45" height="15.9"/>
		<g class="st9">
			<path class="st4" d="M205.1,256c1.4,0,2.2,0.6,2.2,1.7c0,0.8-0.5,1.4-1.3,1.6c1,0.1,1.6,0.8,1.6,1.7c0,1.2-0.9,1.9-2.5,1.9h-3
				V256H205.1z M203,259h2.1c0.9,0,1.5-0.4,1.5-1.1c0-0.7-0.5-1.1-1.5-1.1H203V259z M203,262.2h2.1c1.1,0,1.8-0.4,1.8-1.2
				c0-0.8-0.7-1.2-1.8-1.2H203V262.2z"/>
			<path class="st4" d="M214.9,260.1c0,1.8-1.1,2.9-2.9,2.9c-1.8,0-2.9-1.1-2.9-2.9V256h0.8v4.1c0,1.3,0.8,2.1,2.1,2.1
				c1.3,0,2.1-0.8,2.1-2.1V256h0.8V260.1z"/>
			<path class="st4" d="M219.3,262.9h-0.8v-2.3l-2.7-4.6h0.8l2.2,3.6l2.2-3.6h0.8l-2.6,4.5V262.9z"/>
		</g>
		<path class="st10" d="M258.5,294.6h-28.5c-0.3,0-0.7-0.3-0.7-0.7v-0.3c0-0.3,0.3-0.7,0.7-0.7h28.5c0.3,0,0.7,0.3,0.7,0.7v0.3
			C259.2,294.3,258.9,294.6,258.5,294.6z"/>
	</g>
	<circle class="st2" cx="104.3" cy="329" r="3.3"/>
	<g>
		<g>
			<path class="st6" d="M198.9,307.2V293c0-5.6-4.6-10.3-10.3-10.3l0,0c-5.6,0-10.3,4.6-10.3,10.3l0,0v14.2c0,0.3-0.3,0.7-0.7,0.7
				l0,0c-0.3,0-0.7-0.3-0.7-0.7l0,0V293c0-6.3,5.3-11.6,11.6-11.6l0,0c6.3,0,11.6,5.3,11.6,11.6l0,0v14.2c0,0.3-0.3,0.7-0.7,0.7l0,0
				C199.3,308.2,198.9,307.9,198.9,307.2L198.9,307.2z"/>
		</g>
		<rect x="170.3" y="301.5" class="st20" width="50.7" height="34.1"/>
		<rect x="170.5" y="301.6" class="st25" width="9.6" height="34.1"/>
		<g>
			<path class="st5" d="M211.2,306.2V292c0-5.6-4.6-10.3-10.3-10.3l0,0c-5.6,0-10.3,4.6-10.3,10.3l0,0v14.2c0,0.3-0.3,0.7-0.7,0.7
				l0,0c-0.3,0-0.7-0.3-0.7-0.7l0,0V292c0-6.3,5.3-11.6,11.6-11.6l0,0c6.3,0,11.6,5.3,11.6,11.6l0,0v14.2c0,0.3-0.3,0.7-0.7,0.7l0,0
				C211.5,307.2,211.2,306.9,211.2,306.2L211.2,306.2z"/>
		</g>
		<g>
			<rect x="200.6" y="317.1" class="st4" width="5" height="3"/>
			<rect x="194" y="317.1" class="st4" width="5" height="3"/>
			<rect x="187.7" y="317.1" class="st4" width="5" height="3"/>
			<rect x="200.6" y="317.1" class="st4" width="5" height="3"/>
			<rect x="200.6" y="321.9" class="st4" width="5" height="3"/>
			<rect x="194" y="321.9" class="st4" width="5" height="3"/>
			<rect x="187.7" y="321.9" class="st4" width="5" height="3"/>
			<rect x="206.9" y="321.9" class="st4" width="5" height="3"/>
			<rect x="200.6" y="321.9" class="st4" width="5" height="3"/>
			<rect x="194" y="326.3" class="st4" width="5" height="3"/>
			<rect x="187.7" y="326.3" class="st4" width="5" height="3"/>
		</g>
		<rect x="187.7" y="313.8" class="st4" width="15.2" height="1.7"/>
	</g>
	<g>
		<g>
			<path class="st6" d="M162.9,294.3v-15.9c0-5-4-8.9-8.9-8.9l0,0c-5,0-8.9,4-8.9,8.9l0,0v15.9c0,0.3-0.3,0.7-0.7,0.7l0,0
				c-0.3,0-0.7-0.3-0.7-0.7l0,0v-15.9c0-6,4.6-10.6,10.6-10.6l0,0c6,0,10.6,4.6,10.6,10.6l0,0v15.9c0,0.3-0.3,0.7-0.7,0.7l0,0
				C163.2,294.9,162.9,294.6,162.9,294.3L162.9,294.3z"/>
		</g>
		<rect x="136.9" y="288.3" class="st26" width="46" height="47.3"/>
		<polygon class="st27" points="136.7,335.7 146,335.7 146,288.3 141.3,291.3 136.7,288.3 		"/>
		<g>
			<path class="st5" d="M173.4,293.3v-15.9c0-5-4-8.9-8.9-8.9l0,0c-5,0-8.9,4-8.9,8.9l0,0v15.9c0,0.3-0.3,0.7-0.7,0.7l0,0
				c-0.3,0-0.7-0.3-0.7-0.7l0,0v-15.9c0-6,4.6-10.6,10.6-10.6l0,0c6,0,10.6,4.6,10.6,10.6l0,0v15.9c0,0.3-0.3,0.7-0.7,0.7l0,0
				C173.8,294,173.4,293.6,173.4,293.3L173.4,293.3z"/>
		</g>
		<rect x="145.8" y="302.9" class="st4" width="37.1" height="4.6"/>
		<rect x="145.8" y="311.9" class="st4" width="37.1" height="12.2"/>
	</g>
	<g>
		<g>
			<path class="st6" d="M235,314.8v-10.6c0-4-3.3-7.3-7.3-7.3l0,0c-4,0-7.3,3.3-7.3,7.3l0,0v10.6c0,0.3-0.3,0.7-0.7,0.7l0,0
				c-0.3,0-0.7-0.3-0.7-0.7l0,0v-10.6c0-5,4-8.9,8.9-8.9l0,0c5,0,8.9,4,8.9,8.9l0,0v10.6c0,0.3-0.3,0.7-0.7,0.7l0,0
				C235.4,315.5,235,315.1,235,314.8L235,314.8z"/>
		</g>
		<rect x="213.1" y="310.5" class="st28" width="39.7" height="25.2"/>
		<rect x="212.8" y="310.5" class="st25" width="7.6" height="25.2"/>
		<g>
			<path class="st5" d="M244,313.8v-10.6c0-4-3.3-7.3-7.3-7.3l0,0c-4,0-7.3,3.3-7.3,7.3l0,0v10.6c0,0.3-0.3,0.7-0.7,0.7l0,0
				c-0.3,0-0.7-0.3-0.7-0.7l0,0v-10.6c0-5,4-8.9,8.9-8.9l0,0c5,0,8.9,4,8.9,8.9l0,0v10.6c0,0.3-0.3,0.7-0.7,0.7l0,0
				C244.3,314.8,244,314.5,244,313.8L244,313.8z"/>
		</g>
		<g>
			<rect x="240.5" y="320.5" class="st4" width="5.3" height="7.3"/>
			<rect x="233.2" y="320.5" class="st4" width="5.3" height="7.3"/>
			<rect x="226.2" y="320.5" class="st4" width="5.3" height="7.3"/>
		</g>
	</g>
</g>
</svg>
