<?xml version="1.0" encoding="UTF-8" standalone="no"?>
<!-- Generator: Adobe Illustrator 23.0.1, SVG Export Plug-In . SVG Version: 6.00 Build 0)  -->

<svg
   xmlns:dc="http://purl.org/dc/elements/1.1/"
   xmlns:cc="http://creativecommons.org/ns#"
   xmlns:rdf="http://www.w3.org/1999/02/22-rdf-syntax-ns#"
   xmlns:svg="http://www.w3.org/2000/svg"
   xmlns="http://www.w3.org/2000/svg"
   xmlns:sodipodi="http://sodipodi.sourceforge.net/DTD/sodipodi-0.dtd"
   xmlns:inkscape="http://www.inkscape.org/namespaces/inkscape"
   version="1.1"
   id="Layer_1"
   x="0px"
   y="0px"
   viewBox="0 0 79 65.800003"
   xml:space="preserve"
   sodipodi:docname="AnnualMembership.html"
   width="79"
   height="65.800003"
   inkscape:version="0.92.3 (2405546, 2018-03-11)"><metadata
   id="metadata77"><rdf:RDF><cc:Work
       rdf:about=""><dc:format>image/svg+xml</dc:format><dc:type
         rdf:resource="http://purl.org/dc/dcmitype/StillImage" /><dc:title>Service 2</dc:title></cc:Work></rdf:RDF></metadata><defs
   id="defs75" /><sodipodi:namedview
   pagecolor="#ffffff"
   bordercolor="#666666"
   borderopacity="1"
   objecttolerance="10"
   gridtolerance="10"
   guidetolerance="10"
   inkscape:pageopacity="0"
   inkscape:pageshadow="2"
   inkscape:window-width="716"
   inkscape:window-height="480"
   id="namedview73"
   showgrid="false"
   inkscape:zoom="2.05"
   inkscape:cx="38.8"
   inkscape:cy="32.600002"
   inkscape:window-x="382"
   inkscape:window-y="175"
   inkscape:window-maximized="0"
   inkscape:current-layer="Layer_1" />
<style
   type="text/css"
   id="style2">
	.st0{fill:#20284D;}
	.st1{fill:#F2D03D;}
	.st2{fill:#FFFFFF;}
</style>
<title
   id="title4">Service 2</title>
<g
   id="g70"
   transform="translate(-31.2,-16.799999)">
	<circle
   class="st0"
   cx="69.900002"
   cy="49.700001"
   r="32.900002"
   id="circle6"
   style="fill:#20284D" />
	<polygon
   class="st1"
   points="74.4,20.7 72.2,22.9 72.7,25.9 69.9,24.5 67.2,25.9 67.7,22.9 65.5,20.7 68.6,20.3 69.9,17.5 71.3,20.3 "
   id="polygon8"
   style="fill:#f2d03d" />
	<polygon
   class="st1"
   points="54,29.6 51.8,31.8 52.4,34.8 49.6,33.4 46.9,34.8 47.4,31.8 45.2,29.6 48.2,29.2 49.6,26.4 51,29.2 "
   id="polygon10"
   style="fill:#f2d03d" />
	<polygon
   class="st1"
   points="94.2,29.6 92,31.8 92.6,34.8 89.8,33.4 87.1,34.8 87.6,31.8 85.4,29.6 88.4,29.2 89.8,26.4 91.2,29.2 "
   id="polygon12"
   style="fill:#f2d03d" />
	<polygon
   class="st1"
   points="54,67 51.8,69.1 52.4,72.2 49.6,70.7 46.9,72.2 47.4,69.1 45.2,67 48.2,66.5 49.6,63.7 51,66.5 "
   id="polygon14"
   style="fill:#f2d03d" />
	<polygon
   class="st1"
   points="46.7,48.7 44.5,50.8 45,53.9 42.2,52.4 39.5,53.9 40,50.8 37.8,48.7 40.9,48.2 42.2,45.4 43.6,48.2 "
   id="polygon16"
   style="fill:#f2d03d" />
	<polygon
   class="st1"
   points="102,48.7 99.8,50.8 100.3,53.9 97.6,52.4 94.8,53.9 95.4,50.8 93.2,48.7 96.2,48.2 97.6,45.4 99,48.2 "
   id="polygon18"
   style="fill:#f2d03d" />
	<polygon
   class="st1"
   points="94.2,67 92,69.1 92.6,72.2 89.8,70.7 87.1,72.2 87.6,69.1 85.4,67 88.4,66.5 89.8,63.7 91.2,66.5 "
   id="polygon20"
   style="fill:#f2d03d" />
	<polygon
   class="st1"
   points="74.4,75.9 72.2,78 72.7,81.1 69.9,79.7 67.2,81.1 67.7,78 65.5,75.9 68.6,75.4 69.9,72.7 71.3,75.4 "
   id="polygon22"
   style="fill:#f2d03d" />
	<path
   class="st2"
   d="m 69.9,29.6 c 11.1,0 20.1,9 20.1,20.1 0,11.1 -9,20.1 -20.1,20.1 -11.1,0 -20.1,-9 -20.1,-20.1 0,-11.1 9.1,-20.1 20.1,-20.1 m 0,-1 c -11.6,0 -21.1,9.4 -21.1,21.1 0,11.7 9.4,21.1 21.1,21.1 C 81.6,70.8 91,61.3 91,49.7 91,38.1 81.6,28.6 69.9,28.6 Z"
   id="path24"
   inkscape:connector-curvature="0"
   style="fill:#ffffff" />
	<g
   id="g32">
		<g
   id="g28">
			<path
   class="st0"
   d="m 109.7,58.2 c 0,2.2 -1.8,4 -4,4 h -70 c -2.2,0 -4,-1.8 -4,-4 V 40.9 c 0,-2.2 1.8,-4 4,-4 h 70 c 2.2,0 4,1.8 4,4 z"
   id="path26"
   inkscape:connector-curvature="0"
   style="fill:#20284D" />
		</g>
		<path
   class="st2"
   d="m 105.7,62.7 h -70 c -2.5,0 -4.5,-2 -4.5,-4.5 V 40.9 c 0,-2.5 2,-4.5 4.5,-4.5 h 70 c 2.5,0 4.5,2 4.5,4.5 v 17.3 c 0,2.5 -2,4.5 -4.5,4.5 z m -70,-25.3 c -1.9,0 -3.5,1.6 -3.5,3.5 v 17.3 c 0,1.9 1.6,3.5 3.5,3.5 h 70 c 1.9,0 3.5,-1.6 3.5,-3.5 V 40.9 c 0,-1.9 -1.6,-3.5 -3.5,-3.5 z"
   id="path30"
   inkscape:connector-curvature="0"
   style="fill:#ffffff" />
	</g>
	<g
   id="g68">
		<g
   id="g66">
			<path
   class="st2"
   d="M 54.6,45.5 53.9,47 h -1.2 l 3,-6.8 h 1.2 l 3,6.8 H 58.7 L 58,45.5 Z m 1.7,-4.1 -1.3,3 h 2.6 z"
   id="path34"
   inkscape:connector-curvature="0"
   style="fill:#ffffff" />
			<path
   class="st2"
   d="M 65.6,43.8 V 47 h -1.1 v -2.9 c 0,-0.8 -0.5,-1.3 -1.2,-1.3 -0.9,0 -1.4,0.6 -1.5,1.4 V 47 h -1.1 v -5.2 h 1.1 v 1 c 0.4,-0.7 1,-1 1.9,-1 1.2,0 1.9,0.8 1.9,2 z"
   id="path36"
   inkscape:connector-curvature="0"
   style="fill:#ffffff" />
			<path
   class="st2"
   d="M 72,43.8 V 47 h -1.1 v -2.9 c 0,-0.8 -0.5,-1.3 -1.2,-1.3 -0.9,0 -1.4,0.6 -1.5,1.4 V 47 H 67 v -5.2 h 1.1 v 1 c 0.4,-0.7 1,-1 1.9,-1 1.3,0 2,0.8 2,2 z"
   id="path38"
   inkscape:connector-curvature="0"
   style="fill:#ffffff" />
			<path
   class="st2"
   d="M 78.1,47 H 77 v -1 c -0.4,0.7 -1,1 -1.9,1.1 -1.2,0 -1.9,-0.8 -1.9,-2 v -3.2 h 1.1 v 2.9 c 0,0.8 0.5,1.3 1.2,1.3 0.9,0 1.4,-0.7 1.4,-1.6 V 41.9 H 78 Z"
   id="path40"
   inkscape:connector-curvature="0"
   style="fill:#ffffff" />
			<path
   class="st2"
   d="m 82.8,46.4 c -0.4,0.5 -1,0.7 -1.7,0.7 -1.1,0 -1.8,-0.7 -1.8,-1.6 0,-0.9 0.7,-1.6 2,-1.6 h 1.6 v -0.2 c 0,-0.7 -0.4,-1 -1.2,-1 -0.5,0 -1,0.2 -1.5,0.5 l -0.5,-0.8 c 0.7,-0.4 1.2,-0.7 2.2,-0.7 1.3,0 2.1,0.7 2.1,1.8 v 3.4 h -1.1 v -0.5 z m 0,-1.2 v -0.5 h -1.4 c -0.7,0 -1.1,0.2 -1.1,0.7 0,0.5 0.4,0.8 1,0.8 0.8,0 1.4,-0.4 1.5,-1 z"
   id="path42"
   inkscape:connector-curvature="0"
   style="fill:#ffffff" />
			<path
   class="st2"
   d="m 85.3,47 v -7.2 h 1.1 V 47 Z"
   id="path44"
   inkscape:connector-curvature="0"
   style="fill:#ffffff" />
			<path
   class="st2"
   d="m 48.6,53.6 v 3.2 h -1.1 v -2.9 c 0,-0.8 -0.5,-1.3 -1.2,-1.3 -0.9,0 -1.4,0.7 -1.4,1.6 v 2.6 h -1.1 v -2.9 c 0,-0.8 -0.5,-1.3 -1.2,-1.3 -0.9,0 -1.4,0.7 -1.4,1.6 v 2.6 H 40.1 V 51.6 H 41 v 1 c 0.4,-0.7 1,-1 1.9,-1 0.9,0 1.6,0.5 1.8,1.2 0.3,-0.9 1,-1.2 2,-1.2 1.1,0 1.9,0.7 1.9,2 z"
   id="path46"
   inkscape:connector-curvature="0"
   style="fill:#ffffff" />
			<path
   class="st2"
   d="m 54.5,54.6 h -3.9 c 0.2,0.8 0.8,1.3 1.6,1.3 0.6,0 1.1,-0.2 1.5,-0.6 l 0.6,0.6 c -0.5,0.6 -1.2,0.9 -2.1,0.9 -1.6,0 -2.7,-1.1 -2.7,-2.6 0,-1.6 1.1,-2.6 2.6,-2.6 1.8,0 2.6,1.2 2.4,3 z m -1,-0.8 c 0,-0.8 -0.6,-1.3 -1.4,-1.3 -0.8,0 -1.4,0.5 -1.5,1.3 z"
   id="path48"
   inkscape:connector-curvature="0"
   style="fill:#ffffff" />
			<path
   class="st2"
   d="m 64.3,53.6 v 3.2 h -1.1 v -2.9 c 0,-0.8 -0.5,-1.3 -1.2,-1.3 -0.9,0 -1.4,0.7 -1.4,1.6 v 2.6 h -1.1 v -2.9 c 0,-0.8 -0.5,-1.3 -1.2,-1.3 -0.9,0 -1.4,0.7 -1.4,1.6 v 2.6 h -1.1 v -5.2 h 1.1 v 1 c 0.4,-0.7 1,-1 1.9,-1 0.9,0 1.6,0.5 1.8,1.2 0.3,-0.9 1,-1.2 2,-1.2 1,0 1.7,0.7 1.7,2 z"
   id="path50"
   inkscape:connector-curvature="0"
   style="fill:#ffffff" />
			<path
   class="st2"
   d="m 71.1,54.2 c 0,1.6 -1,2.6 -2.5,2.6 -0.8,0 -1.5,-0.3 -1.8,-0.9 v 0.9 h -1.1 v -7.2 h 1.1 v 2.9 c 0.4,-0.6 1,-0.9 1.8,-0.9 1.5,0 2.5,1 2.5,2.6 z m -1.1,0 c 0,-1 -0.7,-1.7 -1.6,-1.7 -0.9,0 -1.6,0.7 -1.6,1.7 0,1 0.7,1.7 1.6,1.7 0.9,0 1.6,-0.7 1.6,-1.7 z"
   id="path52"
   inkscape:connector-curvature="0"
   style="fill:#ffffff" />
			<path
   class="st2"
   d="m 76.8,54.6 h -3.9 c 0.2,0.8 0.8,1.3 1.6,1.3 0.6,0 1.1,-0.2 1.5,-0.6 l 0.6,0.6 c -0.5,0.6 -1.2,0.9 -2.1,0.9 -1.6,0 -2.7,-1.1 -2.7,-2.6 0,-1.6 1.1,-2.6 2.6,-2.6 1.8,0 2.5,1.2 2.4,3 z m -1,-0.8 c 0,-0.8 -0.6,-1.3 -1.4,-1.3 -0.8,0 -1.4,0.5 -1.5,1.3 z"
   id="path54"
   inkscape:connector-curvature="0"
   style="fill:#ffffff" />
			<path
   class="st2"
   d="m 79,52.6 c 0.4,-0.7 1,-1.1 1.8,-1.1 v 1.1 c -1,-0.1 -1.7,0.6 -1.8,1.4 v 2.7 H 77.9 V 51.5 H 79 Z"
   id="path56"
   inkscape:connector-curvature="0"
   style="fill:#ffffff" />
			<path
   class="st2"
   d="m 85,52.1 -0.4,0.8 c -0.5,-0.3 -1,-0.5 -1.5,-0.5 -0.4,0 -0.8,0.1 -0.8,0.5 0,1 2.8,0.4 2.8,2.3 0,1.1 -0.9,1.5 -2,1.5 -0.8,0 -1.6,-0.3 -2.1,-0.7 l 0.4,-0.8 c 0.4,0.4 1.2,0.6 1.7,0.6 0.5,0 0.8,-0.2 0.8,-0.6 0,-1.1 -2.7,-0.5 -2.7,-2.3 0,-1.1 0.9,-1.5 1.9,-1.5 0.7,0.2 1.4,0.4 1.9,0.7 z"
   id="path58"
   inkscape:connector-curvature="0"
   style="fill:#ffffff" />
			<path
   class="st2"
   d="m 91.1,53.6 v 3.2 H 90 v -2.9 c 0,-0.8 -0.5,-1.3 -1.2,-1.3 -0.9,0 -1.5,0.7 -1.5,1.6 v 2.6 h -1.1 v -7.2 h 1.1 v 3.1 c 0.4,-0.7 1,-1.1 1.9,-1.1 1.2,0 1.9,0.7 1.9,2 z"
   id="path60"
   inkscape:connector-curvature="0"
   style="fill:#ffffff" />
			<path
   class="st2"
   d="m 93.7,50.1 c 0,0.4 -0.3,0.7 -0.7,0.7 -0.4,0 -0.7,-0.3 -0.7,-0.7 0,-0.4 0.3,-0.7 0.7,-0.7 0.4,0 0.7,0.3 0.7,0.7 z m -1.2,6.7 v -5.2 h 1.1 v 5.2 z"
   id="path62"
   inkscape:connector-curvature="0"
   style="fill:#ffffff" />
			<path
   class="st2"
   d="m 100.6,54.2 c 0,1.6 -1,2.6 -2.5,2.6 -0.8,0 -1.5,-0.3 -1.8,-0.9 v 2.8 h -1.1 v -7.1 h 1.1 v 0.9 c 0.4,-0.6 1,-0.9 1.8,-0.9 1.5,0 2.5,1 2.5,2.6 z m -1.1,0 c 0,-1 -0.7,-1.7 -1.6,-1.7 -0.9,0 -1.6,0.7 -1.6,1.7 0,1 0.7,1.7 1.6,1.7 1,0 1.6,-0.7 1.6,-1.7 z"
   id="path64"
   inkscape:connector-curvature="0"
   style="fill:#ffffff" />
		</g>
	</g>
</g>
</svg>