<?xml version="1.0" encoding="UTF-8" standalone="no"?>
<!-- Generator: Adobe Illustrator 23.0.1, SVG Export Plug-In . SVG Version: 6.00 Build 0)  -->

<svg
   xmlns:dc="http://purl.org/dc/elements/1.1/"
   xmlns:cc="http://creativecommons.org/ns#"
   xmlns:rdf="http://www.w3.org/1999/02/22-rdf-syntax-ns#"
   xmlns:svg="http://www.w3.org/2000/svg"
   xmlns="http://www.w3.org/2000/svg"
   xmlns:sodipodi="http://sodipodi.sourceforge.net/DTD/sodipodi-0.dtd"
   xmlns:inkscape="http://www.inkscape.org/namespaces/inkscape"
   version="1.1"
   id="Layer_1"
   x="0px"
   y="0px"
   viewBox="0 0 83.599998 63.200001"
   xml:space="preserve"
   sodipodi:docname="largepackage.svg"
   width="83.599998"
   height="63.200001"
   inkscape:version="0.92.3 (2405546, 2018-03-11)"><metadata
   id="metadata71"><rdf:RDF><cc:Work
       rdf:about=""><dc:format>image/svg+xml</dc:format><dc:type
         rdf:resource="http://purl.org/dc/dcmitype/StillImage" /><dc:title>Service 2</dc:title></cc:Work></rdf:RDF></metadata><defs
   id="defs69" /><sodipodi:namedview
   pagecolor="#ffffff"
   bordercolor="#666666"
   borderopacity="1"
   objecttolerance="10"
   gridtolerance="10"
   guidetolerance="10"
   inkscape:pageopacity="0"
   inkscape:pageshadow="2"
   inkscape:window-width="716"
   inkscape:window-height="480"
   id="namedview67"
   showgrid="false"
   inkscape:zoom="2.05"
   inkscape:cx="41.1"
   inkscape:cy="35.700001"
   inkscape:window-x="1153"
   inkscape:window-y="607"
   inkscape:window-maximized="0"
   inkscape:current-layer="Layer_1" />
<style
   type="text/css"
   id="style2">
	.st0{fill:#C58C5C;}
	.st1{fill:#A27150;}
	.st2{fill:#E5E6E6;}
	.st3{fill:#BCBDBF;}
	.st4{fill:#69331B;}
	.st5{fill:#FFFFFF;}
</style>
<title
   id="title4">Service 2</title>
<g
   id="g64"
   transform="translate(-28.9,-22.5)">
	<g
   id="g50">
		<rect
   x="28.9"
   y="22.5"
   class="st0"
   width="83.599998"
   height="63.200001"
   id="rect6"
   style="fill:#c58c5c" />
		<rect
   x="28.9"
   y="22.5"
   class="st1"
   width="31.1"
   height="63.200001"
   id="rect8"
   style="fill:#a27150" />
		<g
   id="g48">
			<rect
   x="63.900002"
   y="27.799999"
   class="st2"
   width="35.5"
   height="9.8000002"
   id="rect10"
   style="fill:#e5e6e6" />
			<rect
   x="65.800003"
   y="29.700001"
   class="st3"
   width="13.7"
   height="1.3"
   id="rect12"
   style="fill:#bcbdbf" />
			<rect
   x="65.800003"
   y="32"
   class="st3"
   width="10.5"
   height="1.3"
   id="rect14"
   style="fill:#bcbdbf" />
			<rect
   x="65.800003"
   y="34.299999"
   class="st3"
   width="14.7"
   height="1.3"
   id="rect16"
   style="fill:#bcbdbf" />
			<rect
   x="87.800003"
   y="29.4"
   class="st3"
   width="0.89999998"
   height="6.6999998"
   id="rect18"
   style="fill:#bcbdbf" />
			<rect
   x="96.300003"
   y="29.4"
   class="st3"
   width="0.89999998"
   height="6.6999998"
   id="rect20"
   style="fill:#bcbdbf" />
			<rect
   x="89.300003"
   y="29.4"
   class="st3"
   width="0.60000002"
   height="5.0999999"
   id="rect22"
   style="fill:#bcbdbf" />
			<rect
   x="90.5"
   y="29.4"
   class="st3"
   width="0.60000002"
   height="5.0999999"
   id="rect24"
   style="fill:#bcbdbf" />
			<rect
   x="91.599998"
   y="29.4"
   class="st3"
   width="0.60000002"
   height="5.0999999"
   id="rect26"
   style="fill:#bcbdbf" />
			<rect
   x="92.800003"
   y="29.4"
   class="st3"
   width="0.60000002"
   height="5.0999999"
   id="rect28"
   style="fill:#bcbdbf" />
			<rect
   x="94"
   y="29.4"
   class="st3"
   width="0.60000002"
   height="5.0999999"
   id="rect30"
   style="fill:#bcbdbf" />
			<rect
   x="95.099998"
   y="29.4"
   class="st3"
   width="0.60000002"
   height="5.0999999"
   id="rect32"
   style="fill:#bcbdbf" />
			<g
   id="g46">
				<polygon
   class="st4"
   points="64.9,74.6 64.9,79.7 66.2,79.7 66.2,74.6 66.7,74.6 65.7,73.2 64.6,74.6 "
   id="polygon34"
   style="fill:#69331b" />
				<polygon
   class="st4"
   points="67.7,74.6 67.7,79.7 69,79.7 69,74.6 69.5,74.6 68.4,73.2 67.4,74.6 "
   id="polygon36"
   style="fill:#69331b" />
				<rect
   x="64.099998"
   y="80.300003"
   class="st4"
   width="5.6999998"
   height="0.89999998"
   id="rect38"
   style="fill:#69331b" />
				<path
   class="st4"
   d="m 76.2,76.8 v -3.6 h -3.6 v 3.6 c 0,0.6 0.1,1 0.6,1.3 0.3,0.3 0.4,0.4 0.9,0.4 v 1.6 H 72.9 V 81 h 3.4 V 80.1 H 75 v -1.5 c 0.6,-0.2 1.2,-0.9 1.2,-1.8 z m -3.2,0 v -3.2 h 2.6 v 3.2 c 0,0.7 -0.6,1.3 -1.3,1.3 C 74,78.1 73.6,78 73.4,77.7 73.1,77.5 73,77.3 73,76.8 Z"
   id="path40"
   inkscape:connector-curvature="0"
   style="fill:#69331b" />
				<path
   class="st4"
   d="m 79.5,78.7 v 1.6 h 1.2 v 0.9 h -3.4 v -0.9 h 1.2 V 78.7 C 78.2,78.6 77.9,78.4 77.6,78.3 77.3,78 77,77.5 77,77 v -3.6 h 3.6 V 77 c 0.4,0.7 -0.2,1.4 -1.1,1.7 z"
   id="path42"
   inkscape:connector-curvature="0"
   style="fill:#69331b" />
				<path
   class="st4"
   d="m 86.1,73.3 c -1.9,0 -3.4,1.5 -3.4,3.2 v 0 c 0.1,-0.1 0.4,-0.3 0.7,-0.3 0.3,0 0.7,0.1 0.7,0.3 h 0.1 c 0.1,-0.1 0.4,-0.3 0.7,-0.3 0.3,0 0.4,0 0.6,0.1 v 3.4 0.6 0 0 c 0,0.1 -0.1,0.3 -0.3,0.3 -0.1,0 -0.3,-0.1 -0.3,-0.3 h -0.4 c 0,0.4 0.3,0.7 0.7,0.7 0.4,0 0.7,-0.3 0.7,-0.7 v -4.1 c 0.1,-0.1 0.4,-0.1 0.6,-0.1 0.3,0 0.7,0.1 0.7,0.3 h 0.1 c 0.1,-0.1 0.4,-0.3 0.7,-0.3 0.3,0 0.7,0.1 0.7,0.3 v 0 c 0.7,-1.6 -0.9,-3.1 -2.6,-3.1 z"
   id="path44"
   inkscape:connector-curvature="0"
   style="fill:#69331b" />
			</g>
		</g>
	</g>
	<g
   id="g62">
		<path
   class="st5"
   d="M 71.4,55.1 66.6,53 v -0.9 l 5.5,2.4 v 1 L 66.6,58 v -0.9 z"
   id="path52"
   inkscape:connector-curvature="0"
   style="fill:#ffffff" />
		<path
   class="st5"
   d="m 78,51.2 v 2.6 c 0.5,-0.1 1.1,-0.1 1.5,-0.1 1.9,0 3.2,1.1 3.2,2.7 0,1.8 -1.3,3 -3.2,3 -1,0 -2.2,-0.4 -3.1,-1 l 0.4,-0.9 c 0.8,0.6 1.7,0.9 2.6,0.9 1.4,0 2.2,-0.8 2.2,-2 0,-1.1 -0.9,-1.8 -2.2,-1.8 -0.6,0 -1.7,0.1 -2.4,0.2 v -4.7 h 5.3 v 1 z"
   id="path54"
   inkscape:connector-curvature="0"
   style="fill:#ffffff" />
		<path
   class="st5"
   d="m 84.5,59.4 v -9.7 h 1 v 9.7 z"
   id="path56"
   inkscape:connector-curvature="0"
   style="fill:#ffffff" />
		<path
   class="st5"
   d="m 95,55.9 c 0,2 -1.3,3.5 -3.3,3.5 -1.2,0 -2.2,-0.6 -2.7,-1.5 v 1.5 h -1 v -9.7 h 1 V 54 c 0.5,-1 1.5,-1.5 2.7,-1.5 1.9,-0.1 3.3,1.4 3.3,3.4 z m -1,0 c 0,-1.5 -1,-2.6 -2.5,-2.6 -1.5,0 -2.5,1.1 -2.5,2.6 0,1.5 1,2.6 2.5,2.6 1.4,0 2.5,-1.1 2.5,-2.6 z"
   id="path58"
   inkscape:connector-curvature="0"
   style="fill:#ffffff" />
		<path
   class="st5"
   d="m 100.7,53.1 -0.4,0.8 c -0.5,-0.3 -1.2,-0.6 -1.9,-0.6 -0.8,0 -1.4,0.3 -1.4,0.9 0,1.5 3.9,0.7 3.9,3.2 0,1.4 -1.2,2 -2.5,2 -1,0 -2,-0.3 -2.6,-1 l 0.4,-0.8 c 0.6,0.6 1.5,0.9 2.3,0.9 0.8,0 1.5,-0.3 1.5,-1 0,-1.7 -3.8,-0.8 -3.8,-3.3 0,-1.3 1.1,-1.9 2.4,-1.9 0.7,0.1 1.5,0.4 2.1,0.8 z"
   id="path60"
   inkscape:connector-curvature="0"
   style="fill:#ffffff" />
	</g>
</g>
</svg>