<?xml version="1.0" encoding="utf-8"?>
<!-- Generator: Adobe Illustrator 23.0.1, SVG Export Plug-In . SVG Version: 6.00 Build 0)  -->
<svg version="1.1" id="Layer_1" xmlns="http://www.w3.org/2000/svg" xmlns:xlink="http://www.w3.org/1999/xlink" x="0px" y="0px"
	 viewBox="0 0 140 100" style="enable-background:new 0 0 140 100;" xml:space="preserve">
<style type="text/css">
	.st0{fill:#FCCF8E;}
	.st1{fill:#D8874F;}
	.st2{fill:#463D40;}
	.st3{fill:#B7B7B7;}
	.st4{fill:#9B9B9A;}
	.st5{fill:#9A3933;}
	.st6{fill:#9C9B9B;}
	.st7{fill:#818282;}
	.st8{fill:#FFFFFF;}
	.st9{fill:#20284D;}
	.st10{fill:#A1BEC6;}
	.st11{fill:#F2D03D;}
	.st12{fill:#F4DE7F;}
	.st13{fill:#EFEAE4;}
</style>
<title>Service 2</title>
<g>
	<g>
		<path class="st0" d="M49.5,37.6L49.5,37.6c1.4-0.2,2.3-1.4,2.1-2.7L51,29.2l-4.9,0.6l0.7,5.7C46.9,36.8,48.2,37.7,49.5,37.6z"/>
		<path class="st1" d="M49.2,34L49.2,34c1.4-0.2,2.3-1.4,2.1-2.7l-0.7-5.7l-4.9,0.6l0.7,5.7C46.6,33.3,47.9,34.2,49.2,34z"/>
		<path class="st0" d="M49.5,32.7L49.5,32.7c4.3-0.5,7.3-4.4,6.8-8.7l-0.7-6c-0.5-4.3-4.4-7.3-8.7-6.8l0,0c-4.3,0.5-7.3,4.4-6.8,8.7
			l0.7,6C41.3,30.2,45.2,33.2,49.5,32.7z"/>
		<path class="st0" d="M55.8,20.5c-0.7,0-1.2,1-1.2,2.2c0,1.2,0.6,2.2,1.3,2.2c0.7,0,1.2-1,1.2-2.2C57,21.5,56.5,20.5,55.8,20.5z"/>
		<path class="st2" d="M39.2,15.1l0.9,8.5c0.1,0.5,0.5,0.9,1,0.8l0,0c1.4-2.6,1.2-5-0.2-7.3c4.1,0.9,8.4,0.3,13.1-1.6l1.6,7.2l0,0
			c0.5-0.1,0.8-0.5,0.8-1l-1-8.6l-3-1.8l-4.6-1.5L48,11l-4.1-0.8l-1.4,1L39.2,15.1z"/>
		<path class="st0" d="M39.8,23c-0.9,0.2-1.4,1.3-1.1,2.5c0.3,1.2,1.4,2,2.3,1.8c0.9-0.2,1.4-1.3,1.1-2.5
			C41.8,23.6,40.7,22.8,39.8,23z"/>
		<g>
			<path class="st2" d="M46.2,24.9c0.1-0.3,0.2-0.8,0.1-1.2c-0.1-1-0.6-1.7-1.2-1.6c-0.5,0.1-0.9,0.9-0.7,1.9
				c0.1,0.5,0.2,0.9,0.4,1.2L46.2,24.9z"/>
			<g>
				<path class="st2" d="M43.9,21.3c-0.1,0-0.2,0-0.3-0.1c-0.2-0.2-0.3-0.5-0.1-0.7c0.6-0.9,2.3-0.8,2.9-0.4
					c0.2,0.1,0.3,0.5,0.2,0.7c-0.1,0.2-0.5,0.3-0.7,0.2c-0.4-0.2-1.4-0.2-1.5,0.1C44.2,21.2,44.1,21.3,43.9,21.3z"/>
			</g>
		</g>
		<g>
			<path class="st2" d="M53.6,24c0.1-0.3,0.2-0.8,0.1-1.2c-0.1-1-0.6-1.7-1.2-1.6S51.7,22,51.8,23c0.1,0.5,0.2,0.9,0.4,1.2L53.6,24z
				"/>
			<g>
				<path class="st2" d="M51.3,20.4c-0.1,0-0.3,0-0.4-0.1c-0.2-0.2-0.2-0.5,0-0.7c0.5-0.6,2.1-1.1,2.9-0.4c0.2,0.2,0.2,0.5,0,0.7
					c-0.2,0.2-0.5,0.2-0.7,0c-0.2-0.2-1.2,0-1.5,0.3C51.5,20.4,51.4,20.4,51.3,20.4z"/>
			</g>
		</g>
		<g>
			<path class="st3" d="M41.1,10.6L43.7,9c1.7-1.1,3.8-1.3,5.8-0.7l3,0.9c1.6,0.5,3.6,1.9,3.8,3.6l0.6,5.2
				c-5.1-1.6-9.5-0.7-14.2,1.7c-0.6,0.3-2.4,0.4-3.1,0.4L39,14.9C38.8,13.2,39.6,11.5,41.1,10.6z"/>
			<g>
				<path class="st4" d="M42.5,20.6c-0.3,0-0.6-0.2-0.8-0.4c-0.2-0.4-0.1-0.9,0.3-1.2c5.9-3.4,11.2-4,15.8-1.9
					c0.4,0.2,0.6,0.7,0.4,1.1c-0.2,0.4-0.7,0.6-1.1,0.4c-4.1-1.9-8.9-1.3-14.3,1.8C42.8,20.6,42.6,20.6,42.5,20.6z"/>
			</g>
		</g>
		<path class="st5" d="M51.6,27c-1,1.3-2.7,1.2-3.8,0.2c-0.3-0.3-0.5-0.1-0.2,0.3c1.1,1.6,3,1.4,4.3-0.2
			C52.2,26.9,51.9,26.6,51.6,27z"/>
		<path class="st6" d="M37.6,91.3c-0.5,0.3-0.6,0.4-0.4,0.9c0.1,0.3,0.6,0.2,1.1,0.2h9.8c0.7,0,0.4-0.9,0.4-2.5
			c-4.6,0-4.8-1.6-5.9-1.6C41.8,89.2,38.7,90.6,37.6,91.3z"/>
		<path class="st6" d="M62.9,91.3c0.5,0.3,0.6,0.4,0.4,0.9c-0.1,0.3-0.6,0.2-1.1,0.2h-9.8c-0.7,0-0.4-0.9-0.4-2.5
			c4.6,0,4.8-1.6,5.9-1.6C58.7,89.2,61.8,90.6,62.9,91.3z"/>
		<path d="M57.8,88.7l1-32.7l-17,1.4l0.9,31.3c0,0,3,0.8,5.6,3.1c0.2-0.2,0.2-0.6,0.2-1.1l1.1-25.9h1.3L52,90.7
			c0,0.5,0.1,0.9,0.3,1.1C55.5,89.2,57.8,88.7,57.8,88.7z"/>
		<path class="st0" d="M62.7,25.5c0,0-0.4-1.4,0-1.5c0.4-0.1,0.3,0.7,1.1,1.5c0.8,0.8,1.6,4.8,1.6,4.8l-0.8,5c0,0-2.5,1.5-2.7,0
			S62.7,26.6,62.7,25.5z"/>
		<path class="st0" d="M61.9,46.4c0,0-1-0.5-1.2-0.1c-0.2,0.4,0.3,0.3,1.1,1.2s4.3,1.9,4.3,1.9l5.2-1.7c0,0,0.4-1.8-1-2.1
			C68.8,45.3,63,46.5,61.9,46.4z"/>
		<path class="st0" d="M62.2,29.8c0.2,1.6,1.5,2.7,3,2.5c1.5-0.2,2.5-1.5,2.4-3.1c-0.2-1.6-1.5-2.7-3-2.5
			C63.1,26.8,62.1,28.2,62.2,29.8z"/>
		<path class="st0" d="M99.5,28.4c0,0-0.3-1.4,0.1-1.5c0.4-0.1,0.3,0.7,1,1.6c0.7,0.9,1.2,4.9,1.2,4.9l-1.2,5c0,0-2.6,1.3-2.7-0.2
			C97.9,36.7,99.4,29.6,99.5,28.4z"/>
		<path class="st0" d="M98.7,32.6c0,1.6,1.3,2.8,2.8,2.8c1.5,0,2.7-1.3,2.6-2.9c0-1.6-1.3-2.8-2.8-2.8
			C99.9,29.8,98.7,31.1,98.7,32.6z"/>
		<path class="st7" d="M94,89.2c0,0,1.8-11.1,1.8-23.7c0-13.4-20.1-14.1-20.1,0.4c0,13.2,2.9,23.3,2.9,23.3s3.5,1.3,5.9,3.4
			c0.2-0.2,0.2-0.5,0.2-0.9l1.5-21.2L88,91.6c0,0.5,0.1,0.8,0.2,1C91.2,90.2,94,89.2,94,89.2z"/>
		<path class="st0" d="M83.9,38L83.9,38c-1.3-0.1-2.4-1.2-2.3-2.6l0.3-5.7l4.9,0.3l-0.3,5.7C86.4,37,85.2,38.1,83.9,38z"/>
		<path class="st1" d="M84,32.9L84,32.9c-1.3-0.1-2.4-1.2-2.3-2.6l0.3-5.7l4.9,0.3l-0.3,5.7C86.5,32,85.3,33,84,32.9z"/>
		<path class="st0" d="M83.5,31.7L83.5,31.7c-4.3-0.2-7.6-3.9-7.3-8.2l0.3-6c0.2-4.3,3.9-7.6,8.2-7.3l0,0c4.3,0.2,7.6,3.9,7.3,8.2
			l-0.3,6C91.5,28.6,87.8,31.9,83.5,31.7z"/>
		<path class="st0" d="M76.5,20c0.7,0,1.3,0.9,1.4,2.1c0.1,1.2-0.4,2.2-1.1,2.2c-0.7,0-1.3-0.9-1.4-2.1C75.3,21,75.8,20,76.5,20z"/>
		<path class="st1" d="M92.5,13.5l-0.3,8.4c0,0.5-0.4,0.9-0.9,0.9l0,0c-1.5-2.4-1.6-4.9-0.3-7.3c-4,1.1-8.3,0.9-13.1-0.7L76.8,22
			l0,0c-0.5,0-0.9-0.4-0.8-0.9l0.4-8.6l2.8-2l4.4-1.8l-0.1,1.4l4-1.1L89,9.8L92.5,13.5z"/>
		<path class="st0" d="M92.5,21.4c0.9,0.1,1.5,1.2,1.3,2.4c-0.2,1.2-1.2,2-2.2,1.9c-0.9-0.1-1.5-1.2-1.3-2.4
			C90.6,22.1,91.5,21.2,92.5,21.4z"/>
		<g>
			<path class="st1" d="M80.9,19.6c-0.1,0-0.3,0-0.4-0.1c-0.3-0.3-1.3-0.4-1.5-0.2c-0.2,0.2-0.5,0.2-0.7,0c-0.2-0.2-0.2-0.5,0-0.7
				c0.7-0.8,2.3-0.4,2.9,0.1c0.2,0.2,0.2,0.5,0,0.7C81.2,19.5,81.1,19.6,80.9,19.6z"/>
		</g>
		<path class="st5" d="M82.8,28.5l-0.2,0c-1.6-0.1-2.8-1.4-2.7-3l0,0l5.9,0.3l0,0C85.8,27.4,84.4,28.6,82.8,28.5z"/>
		<path class="st8" d="M80.5,26.1c0-0.2,0-0.4,0-0.6l4.9,0.3c0,0.2,0,0.4-0.1,0.6c-0.1,0.4-0.5,0.7-0.9,0.7l-3-0.2
			C80.9,26.9,80.5,26.5,80.5,26.1z"/>
		<path class="st1" d="M89,17.5c0,0-3.1,0.5-6.1,0c-3-0.5-4.4-0.4-6.4-0.1c-2,0.3-4.1,0.7-4.1,0.7s1.8-2.6,3-3.3
			c1.2-0.7,3.4,0.1,5.4,0.8c2,0.6,10.3,0.3,10.3,0.3L89,17.5z"/>
		<g>
			<path class="st9" d="M90.3,7.6l-2.7-1.4c-1.8-0.9-3.9-1-5.8-0.3L79,7c-1.6,0.6-2.6,2.1-2.7,3.8L76,16c4.9-1.9,8.5-1.3,13.3,0.7
				c0.6,0.3,2.4,0.2,3.1,0.2l0.3-5.2C92.8,9.9,91.8,8.4,90.3,7.6z"/>
			<g>
				<path class="st10" d="M89.6,17.6c-0.1,0-0.3,0-0.4-0.1c-5.6-2.7-10.3-2.9-14.3-0.8c-0.4,0.2-0.9,0.1-1.1-0.3
					c-0.2-0.4-0.1-0.9,0.3-1.1C78.6,12.8,83.9,13,90,16c0.4,0.2,0.6,0.7,0.4,1.1C90.2,17.4,89.9,17.5,89.6,17.6z"/>
			</g>
		</g>
		<path class="st5" d="M78.2,22.1c0.8-0.8,2-0.6,2.7,0.2c0.2,0.2,0.3,0.1,0.2-0.2c-0.6-1.2-1.9-1.3-3-0.3
			C77.8,22.2,78,22.4,78.2,22.1z"/>
		<g>
			<path class="st1" d="M87.2,19.7c-0.1,0-0.3,0-0.4-0.1c-0.3-0.3-1.3-0.4-1.5-0.2c-0.2,0.2-0.5,0.2-0.7,0c-0.2-0.2-0.2-0.5,0-0.7
				c0.7-0.8,2.3-0.4,2.9,0.1c0.2,0.2,0.2,0.5,0,0.7C87.5,19.7,87.4,19.7,87.2,19.7z"/>
		</g>
		<path class="st5" d="M84.5,22.2c0.8-0.8,2-0.6,2.7,0.2c0.2,0.2,0.3,0.1,0.2-0.2c-0.6-1.2-1.9-1.3-3-0.3
			C84.1,22.3,84.2,22.5,84.5,22.2z"/>
		<path class="st9" d="M81.8,35.1l2.5,2.4l2.1-2.4l4.2-0.6c0,0,1.3,0.4,2.4,1.5c1.1,1.1,2.7,3.2,2.7,3.2l2.2-3.3c0,0-0.2,0.2,1.2,1
			c1.4,0.8,2,0,2,0l-3.1,6.8c0,0-0.5,1.7-2,2c-1.5,0.2-4.2-3.9-4.2-3.9s1.2,5.6,1.7,7.7c0.5,2.1,1.1,10.9,1.1,10.9
			S79,60.9,77.3,60.2c0,0-0.5-8.6-0.3-10.7s0.7-7.2,0.7-7.2s-1.1,2.4-2.7,3.5c-1.6,1.1-6.7,3.4-6.7,3.4s0.1-1.1-0.4-2
			c-0.5-0.9-1.5-1.4-1.5-1.4s3.7-1.1,5.2-2.6c1.5-1.5,4.6-7.1,5.1-7.5C77.2,35.2,81.8,35.1,81.8,35.1z"/>
		<path class="st11" d="M49.5,37.6L47,35.4l-5.1,0.5c0,0,2,4.4,1.5,7.8c-0.5,3.4-1.5,5.7-1.5,9.4s0,4.3,0,4.3s7.3-0.2,8.6-0.4
			s8.3-1,8.3-1s0.9-10.4-1.7-14.3c0,0-0.3-1.2,1.1,0c1.4,1.2,2.7,1.3,3.4,1.4c0.7,0.1,2.3,0.8,2.4-2.7s0.9-6.5,0.9-6.5
			s-0.8,1-1.7,0.6c-0.9-0.4-1.5-0.6-1.5-0.6l-0.9,4.5l-4.7-3.9l-4.4,0L49.5,37.6z"/>
		<path class="st0" d="M65.1,46.8c0,0,1-0.5,1.2-0.1c0.2,0.4-0.3,0.3-1.1,1.2c-0.8,0.9-4.3,1.9-4.3,1.9l-5.1-0.5
			c0,0-1.6-2.4-0.2-2.7S64,46.9,65.1,46.8z"/>
		<path class="st0" d="M59,49.7c0.2,1.6,1.5,2.7,3,2.5c1.5-0.2,2.5-1.5,2.4-3.1c-0.2-1.6-1.5-2.7-3-2.5C59.9,46.8,58.9,48.2,59,49.7
			z"/>
		<path class="st12" d="M41.8,35.9c0,0,1.7,0.5,2.6,1.2c0.9,0.7,5,5.9,5,5.9s0.7,0.8,2.1,1.5c1.4,0.7,5.5,1.8,5.5,1.8
			s-1.8,1.1-1.6,1.9c0.2,0.8,0.9,1.2,0.9,1.2l-7.6-1.2c0,0,0,0.8-5.2-5.6l-2.8-2.9C40.7,39.8,39.8,35.9,41.8,35.9z"/>
	</g>
	<path class="st13" d="M39.9,91.6c0,0-0.3-1-0.8-1.1c-0.5-0.1-2.4,1.1-2.4,1.4c0.1,0.4-0.2,0.6,1.1,0.7c1.3,0,2.1,0,2.1,0
		S40.1,92.3,39.9,91.6z"/>
	<path class="st13" d="M48.7,92.3c0,0.2,0,0.3-0.2,0.3H37c-0.2,0-0.3-0.2-0.3-0.3l0,0c0-0.2,0.2-0.3,0.3-0.3h11.6
		C48.8,92,48.7,92.1,48.7,92.3L48.7,92.3z"/>
	<path class="st13" d="M41.3,90.9c-0.1,0-0.2-0.1-0.3-0.2c-0.1-0.3-0.5-0.6-0.6-0.7l-0.1-0.1c-0.1-0.1-0.1-0.3,0-0.4
		c0.1-0.1,0.3-0.1,0.4,0l0.1,0.1c0.2,0.2,0.6,0.5,0.8,0.9c0.1,0.1,0,0.3-0.1,0.4C41.4,90.9,41.4,90.9,41.3,90.9z"/>
	<path class="st13" d="M42.5,90.1c-0.1,0-0.2-0.1-0.3-0.2c-0.1-0.3-0.5-0.7-0.7-0.8c-0.1-0.1-0.2-0.3-0.1-0.4
		c0.1-0.1,0.3-0.2,0.4-0.1c0.3,0.2,0.7,0.7,0.9,1c0.1,0.2,0,0.3-0.2,0.4C42.6,90.1,42.5,90.1,42.5,90.1z"/>
	<path class="st13" d="M60.6,91.6c0,0,0.3-1,0.8-1.1c0.5-0.1,2.4,1.1,2.4,1.4c-0.1,0.4,0.2,0.6-1.1,0.7c-1.3,0-2.1,0-2.1,0
		S60.4,92.3,60.6,91.6z"/>
	<path class="st13" d="M51.8,92.3c0,0.2,0,0.3,0.2,0.3h11.6c0.2,0,0.3-0.2,0.3-0.3l0,0c0-0.2-0.2-0.3-0.3-0.3H51.9
		C51.7,92,51.8,92.1,51.8,92.3L51.8,92.3z"/>
	<path class="st13" d="M59.2,90.9c0,0-0.1,0-0.1,0c-0.1-0.1-0.2-0.2-0.1-0.4c0.2-0.4,0.6-0.7,0.8-0.9l0.1-0.1c0.1-0.1,0.3-0.1,0.4,0
		c0.1,0.1,0.1,0.3,0,0.4L60.1,90c-0.2,0.1-0.5,0.5-0.6,0.7C59.4,90.9,59.3,90.9,59.2,90.9z"/>
	<path class="st13" d="M58,90.1c0,0-0.1,0-0.1,0c-0.2-0.1-0.2-0.2-0.2-0.4c0.2-0.4,0.6-0.9,0.9-1c0.1-0.1,0.3,0,0.4,0.1
		c0.1,0.1,0,0.3-0.1,0.4c-0.2,0.1-0.6,0.5-0.7,0.8C58.2,90.1,58.1,90.1,58,90.1z"/>
	<path class="st9" d="M75.1,92.1c-0.5,0.9,0.2,0.8,0.5,0.8l8.1,0c0.1,0,0.6-0.1,0.9-0.4c-0.7-1.3-3.8-2.7-5.7-3.4
		C78.9,89.1,75.8,90.7,75.1,92.1z"/>
	<path class="st9" d="M97.7,92.1c-0.7-1.3-3.7-2.9-3.7-2.9c-1.8,0.6-4.7,1.8-5.8,3.4c0.1,0.1,0.2,0.2,0.3,0.2
		c0.3,0.2,0.5,0.2,0.6,0.2l8.1,0C97.5,92.9,98.2,93,97.7,92.1z M89.1,92.7L89.1,92.7L89.1,92.7z"/>
</g>
</svg>
