<?xml version="1.0" encoding="UTF-8" standalone="no"?>
<!-- Generator: Adobe Illustrator 23.0.1, SVG Export Plug-In . SVG Version: 6.00 Build 0)  -->

<svg
   xmlns:dc="http://purl.org/dc/elements/1.1/"
   xmlns:cc="http://creativecommons.org/ns#"
   xmlns:rdf="http://www.w3.org/1999/02/22-rdf-syntax-ns#"
   xmlns:svg="http://www.w3.org/2000/svg"
   xmlns="http://www.w3.org/2000/svg"
   xmlns:xlink="http://www.w3.org/1999/xlink"
   xmlns:sodipodi="http://sodipodi.sourceforge.net/DTD/sodipodi-0.dtd"
   xmlns:inkscape="http://www.inkscape.org/namespaces/inkscape"
   version="1.1"
   id="Layer_1"
   x="0px"
   y="0px"
   viewBox="0 0 109.7561 73.658539"
   xml:space="preserve"
   sodipodi:docname="ReferAFriend2.html"
   width="109.7561"
   height="73.658539"
   inkscape:version="0.92.3 (2405546, 2018-03-11)"><metadata
   id="metadata97"><rdf:RDF><cc:Work
       rdf:about=""><dc:format>image/svg+xml</dc:format><dc:type
         rdf:resource="http://purl.org/dc/dcmitype/StillImage" /><dc:title>Service 2</dc:title></cc:Work></rdf:RDF></metadata><defs
   id="defs95" /><sodipodi:namedview
   pagecolor="#ffffff"
   bordercolor="#666666"
   borderopacity="1"
   objecttolerance="10"
   gridtolerance="10"
   guidetolerance="10"
   inkscape:pageopacity="0"
   inkscape:pageshadow="2"
   inkscape:window-width="2560"
   inkscape:window-height="1356"
   id="namedview93"
   showgrid="false"
   inkscape:zoom="2.05"
   inkscape:cx="53.341464"
   inkscape:cy="38.231709"
   inkscape:window-x="-8"
   inkscape:window-y="-8"
   inkscape:window-maximized="1"
   inkscape:current-layer="Layer_1" />
<style
   type="text/css"
   id="style2">
	.st0{fill:#00A9CE;}
	.st1{fill:#FFFFFF;}
	.st2{fill:#F2D03D;}
	.st3{font-family:'Montserrat-Regular';}
	.st4{font-size:7.7673px;}
	.st5{clip-path:url(#SVGID_2_);fill:#FCCF8E;}
	.st6{clip-path:url(#SVGID_2_);fill:#D8874F;}
	.st7{clip-path:url(#SVGID_2_);fill:#463D40;}
	.st8{clip-path:url(#SVGID_2_);}
	.st9{fill:#463D40;}
	.st10{fill:#B7B7B7;}
	.st11{fill:#9B9B9A;}
	.st12{clip-path:url(#SVGID_2_);fill:#9A3933;}
	.st13{clip-path:url(#SVGID_2_);fill:#F2D03D;}
</style>
<title
   id="title4">Service 2</title>
<rect
   x="8.8780489"
   y="9.1512203"
   class="st0"
   width="94"
   height="56.799999"
   id="rect6"
   style="fill:#00a9ce" />
<g
   id="g12"
   transform="translate(-14.121951,-11.548781)">
	<circle
   class="st0"
   cx="54.099998"
   cy="48.299999"
   r="16.5"
   id="circle8"
   style="fill:#00a9ce" />
	<path
   class="st1"
   d="m 54.1,65.3 c -9.4,0 -17,-7.6 -17,-17 0,-9.4 7.6,-17 17,-17 9.4,0 17,7.6 17,17 0,9.4 -7.7,17 -17,17 z m 0,-33 c -8.8,0 -16,7.2 -16,16 0,8.8 7.2,16 16,16 8.8,0 16,-7.2 16,-16 0,-8.8 -7.2,-16 -16,-16 z"
   id="path10"
   inkscape:connector-curvature="0"
   style="fill:#ffffff" />
</g>
<polygon
   class="st2"
   points="55.2,34.9 55.4,36.4 54.1,35.7 52.7,36.4 53,34.9 51.8,33.8 53.4,33.6 54.1,32.2 54.8,33.6 56.3,33.8 "
   id="polygon14"
   style="fill:#f2d03d"
   transform="translate(-14.121951,-11.548781)" />
<polygon
   class="st2"
   points="45,39.3 45.3,40.9 43.9,40.1 42.5,40.9 42.8,39.3 41.7,38.2 43.2,38 43.9,36.6 44.6,38 46.1,38.2 "
   id="polygon16"
   style="fill:#f2d03d"
   transform="translate(-14.121951,-11.548781)" />
<polygon
   class="st2"
   points="65.1,39.3 65.4,40.9 64,40.1 62.7,40.9 62.9,39.3 61.8,38.2 63.3,38 64,36.6 64.7,38 66.3,38.2 "
   id="polygon18"
   style="fill:#f2d03d"
   transform="translate(-14.121951,-11.548781)" />
<polygon
   class="st2"
   points="45,58.1 45.3,59.6 43.9,58.9 42.5,59.6 42.8,58.1 41.7,57 43.2,56.7 43.9,55.4 44.6,56.7 46.1,57 "
   id="polygon20"
   style="fill:#f2d03d"
   transform="translate(-14.121951,-11.548781)" />
<polygon
   class="st2"
   points="41.3,48.9 41.6,50.4 40.2,49.7 38.8,50.4 39.1,48.9 38,47.8 39.5,47.6 40.2,46.2 40.9,47.6 42.4,47.8 "
   id="polygon22"
   style="fill:#f2d03d"
   transform="translate(-14.121951,-11.548781)" />
<polygon
   class="st2"
   points="69,48.9 69.3,50.4 67.9,49.7 66.5,50.4 66.8,48.9 65.7,47.8 67.2,47.6 67.9,46.2 68.6,47.6 70.1,47.8 "
   id="polygon24"
   style="fill:#f2d03d"
   transform="translate(-14.121951,-11.548781)" />
<polygon
   class="st2"
   points="65.1,58.1 65.4,59.6 64,58.9 62.7,59.6 62.9,58.1 61.8,57 63.3,56.7 64,55.4 64.7,56.7 66.3,57 "
   id="polygon26"
   style="fill:#f2d03d"
   transform="translate(-14.121951,-11.548781)" />
<polygon
   class="st2"
   points="55.2,62.5 55.4,64.1 54.1,63.3 52.7,64.1 53,62.5 51.8,61.4 53.4,61.2 54.1,59.8 54.8,61.2 56.3,61.4 "
   id="polygon28"
   style="fill:#f2d03d"
   transform="translate(-14.121951,-11.548781)" />
<path
   class="st1"
   d="m 39.978049,27.151219 c 5.3,0 9.6,4.3 9.6,9.6 0,5.3 -4.3,9.6 -9.6,9.6 -5.3,0 -9.6,-4.3 -9.6,-9.6 0,-5.3 4.3,-9.6 9.6,-9.6 m 0,-1 c -5.8,0 -10.6,4.7 -10.6,10.6 0,5.9 4.7,10.6 10.6,10.6 5.9,0 10.6,-4.7 10.6,-10.6 0,-5.9 -4.8,-10.6 -10.6,-10.6 z"
   id="path30"
   inkscape:connector-curvature="0"
   style="fill:#ffffff" />
<g
   id="g38"
   transform="translate(-14.121951,-11.548781)">
	<g
   id="g34">
		<path
   class="st0"
   d="m 81.1,50.6 c 0,2.2 -1.8,4 -4,4 H 31.8 c -2.2,0 -4,-1.8 -4,-4 v -4.7 c 0,-2.2 1.8,-4 4,-4 h 45.3 c 2.2,0 4,1.8 4,4 z"
   id="path32"
   inkscape:connector-curvature="0"
   style="fill:#00a9ce" />
	</g>
	<path
   class="st1"
   d="M 77.1,55.1 H 31.8 c -2.5,0 -4.5,-2 -4.5,-4.5 v -4.7 c 0,-2.5 2,-4.5 4.5,-4.5 h 45.3 c 2.5,0 4.5,2 4.5,4.5 v 4.7 c 0,2.5 -2,4.5 -4.5,4.5 z M 31.8,42.4 c -1.9,0 -3.5,1.6 -3.5,3.5 v 4.7 c 0,1.9 1.6,3.5 3.5,3.5 h 45.3 c 1.9,0 3.5,-1.6 3.5,-3.5 V 45.9 C 80.6,44 79,42.4 77.1,42.4 Z"
   id="path36"
   inkscape:connector-curvature="0"
   style="fill:#ffffff" />
</g>
<g
   id="g42"
   transform="translate(15.878049,-11.548781)">
	<text
   transform="rotate(-0.0148969,195324.62,-15.036963)"
   class="st1 st3 st4"
   id="text40"
   style="font-size:7.76730013px;font-family:Montserrat-Regular;fill:#ffffff">membership</text>

</g>
<g
   id="g90"
   transform="translate(-14.121951,-11.548781)">
	<defs
   id="defs45">
		
			<rect
   id="SVGID_1_"
   x="81.5"
   y="27.1"
   transform="rotate(-180,94.74245,47.96985)"
   width="26.5"
   height="41.799999" />
	</defs>
	<clipPath
   id="SVGID_2_">
		<use
   xlink:href="#SVGID_1_"
   style="overflow:visible"
   id="use47"
   x="0"
   y="0"
   width="100%"
   height="100%" />
	</clipPath>
	<path
   class="st5"
   d="m 94.4,63.5 v 0 C 92.9,63.3 91.8,61.9 92,60.4 l 0.8,-6.3 5.4,0.7 -0.8,6.3 c -0.2,1.6 -1.5,2.6 -3,2.4 z"
   clip-path="url(#SVGID_2_)"
   id="path50"
   inkscape:connector-curvature="0"
   style="fill:#fccf8e" />
	<path
   class="st6"
   d="m 95.3,59.6 v 0 c -1.5,0 -2.7,-1.2 -2.8,-2.7 l -0.1,-6.4 5.5,-0.1 0.1,6.4 c 0,1.6 -1.2,2.8 -2.7,2.8 z"
   clip-path="url(#SVGID_2_)"
   id="path52"
   inkscape:connector-curvature="0"
   style="fill:#d8874f" />
	<path
   class="st5"
   d="m 94.4,58.1 v 0 c -4.8,-0.6 -8.1,-4.9 -7.6,-9.7 l 0.8,-6.7 c 0.6,-4.8 4.9,-8.1 9.7,-7.6 v 0 c 4.8,0.6 8.1,4.9 7.6,9.7 l -0.8,6.7 c -0.6,4.8 -5,8.2 -9.7,7.6 z"
   clip-path="url(#SVGID_2_)"
   id="path54"
   inkscape:connector-curvature="0"
   style="fill:#fccf8e" />
	<path
   class="st5"
   d="m 87.4,44.6 c 0.8,0 1.4,1.1 1.4,2.5 0,1.3 -0.7,2.4 -1.4,2.4 -0.8,0 -1.4,-1.1 -1.4,-2.5 0,-1.4 0.7,-2.4 1.4,-2.4 z"
   clip-path="url(#SVGID_2_)"
   id="path56"
   inkscape:connector-curvature="0"
   style="fill:#fccf8e" />
	<path
   class="st7"
   d="m 105.8,38.6 -1,9.4 c -0.1,0.5 -0.6,0.9 -1.1,0.9 v 0 c -1.5,-2.8 -1.4,-5.6 0.2,-8.1 -4.5,1 -9.4,0.4 -14.5,-1.8 l -1.7,8 h -0.1 c -0.5,-0.1 -0.9,-0.6 -0.9,-1.1 l 1.1,-9.6 3.3,-2 5.1,-1.7 -0.1,1.4 4.5,-0.9 1.5,1.1 z"
   clip-path="url(#SVGID_2_)"
   id="path58"
   inkscape:connector-curvature="0"
   style="fill:#463d40" />
	<path
   class="st5"
   d="m 105.2,47.3 c 1,0.2 1.6,1.4 1.2,2.7 -0.4,1.3 -1.5,2.2 -2.6,2 -1,-0.2 -1.6,-1.4 -1.2,-2.7 0.4,-1.3 1.5,-2.2 2.6,-2 z"
   clip-path="url(#SVGID_2_)"
   id="path60"
   inkscape:connector-curvature="0"
   style="fill:#fccf8e" />
	<g
   class="st8"
   clip-path="url(#SVGID_2_)"
   id="g68">
		<path
   class="st9"
   d="M 98,49.4 C 97.9,49 97.8,48.6 97.9,48 c 0.1,-1.1 0.7,-1.9 1.3,-1.8 0.6,0.1 1,1 0.8,2.1 -0.1,0.5 -0.2,1 -0.4,1.3 z"
   id="path62"
   inkscape:connector-curvature="0"
   style="fill:#463d40" />
		<g
   id="g66">
			<path
   class="st9"
   d="m 100.6,45.4 c 0.1,0 0.2,0 0.3,-0.1 0.3,-0.2 0.3,-0.5 0.2,-0.8 -0.7,-1 -2.5,-0.9 -3.2,-0.4 -0.3,0.2 -0.4,0.5 -0.2,0.8 0.2,0.3 0.5,0.3 0.8,0.2 0.4,-0.3 1.5,-0.2 1.7,0.1 0.1,0.1 0.2,0.2 0.4,0.2 z"
   id="path64"
   inkscape:connector-curvature="0"
   style="fill:#463d40" />
		</g>
	</g>
	<g
   class="st8"
   clip-path="url(#SVGID_2_)"
   id="g76">
		<path
   class="st9"
   d="M 89.8,48.4 C 89.7,48 89.6,47.6 89.7,47 c 0.1,-1.1 0.7,-1.9 1.3,-1.8 0.6,0.1 1,1 0.8,2.1 -0.1,0.5 -0.2,1 -0.4,1.3 z"
   id="path70"
   inkscape:connector-curvature="0"
   style="fill:#463d40" />
		<g
   id="g74">
			<path
   class="st9"
   d="m 92.4,44.5 c 0.1,0 0.3,-0.1 0.4,-0.2 0.2,-0.2 0.2,-0.6 0,-0.8 -0.6,-0.6 -2.4,-1.2 -3.3,-0.4 -0.2,0.2 -0.2,0.6 0,0.8 0.2,0.2 0.6,0.3 0.8,0 0.3,-0.2 1.3,0 1.7,0.3 0.1,0.2 0.3,0.3 0.4,0.3 z"
   id="path72"
   inkscape:connector-curvature="0"
   style="fill:#463d40" />
		</g>
	</g>
	<g
   class="st8"
   clip-path="url(#SVGID_2_)"
   id="g84">
		<path
   class="st10"
   d="m 103.8,33.6 -2.9,-1.8 C 99,30.6 96.6,30.3 94.5,31 l -3.3,1 c -1.8,0.6 -4,2.1 -4.2,4 l -0.7,5.8 C 92,40 96.8,41 102,43.6 c 0.7,0.3 2.7,0.4 3.4,0.4 l 0.7,-5.8 c 0.2,-1.8 -0.7,-3.6 -2.3,-4.6 z"
   id="path78"
   inkscape:connector-curvature="0"
   style="fill:#b7b7b7" />
		<g
   id="g82">
			<path
   class="st11"
   d="m 102.2,44.7 c 0.3,0 0.7,-0.2 0.8,-0.5 0.3,-0.5 0.1,-1 -0.4,-1.3 -6.5,-3.7 -12.5,-4.4 -17.6,-2.1 -0.5,0.2 -0.7,0.8 -0.5,1.3 0.2,0.5 0.8,0.7 1.3,0.5 4.5,-2.1 9.9,-1.4 15.8,2 0.3,0 0.4,0.1 0.6,0.1 z"
   id="path80"
   inkscape:connector-curvature="0"
   style="fill:#9b9b9a" />
		</g>
	</g>
	<path
   class="st12"
   d="m 92,51.8 c 1.2,1.5 3,1.4 4.2,0.2 0.4,-0.3 0.5,-0.1 0.2,0.3 -1.2,1.7 -3.3,1.6 -4.7,-0.2 -0.3,-0.5 0,-0.8 0.3,-0.3 z"
   clip-path="url(#SVGID_2_)"
   id="path86"
   inkscape:connector-curvature="0"
   style="fill:#9a3933" />
	<path
   class="st13"
   d="M 97.6,60.7 94.8,63.4 92.5,60.7 87.8,60 c 0,0 -1.4,0.4 -2.7,1.7 -1.2,1.2 -4.1,5.6 -4.1,5.6 l -2.5,-3.7 c 0,0 1.3,-1.8 -0.2,-1 -1.5,0.8 -2.2,0 -2.2,0 l 3.5,7.6 c 0,0 0.6,1.9 2.2,2.2 1.7,0.2 3.3,-2.9 3.3,-2.9 0,0 0.1,4.8 -0.5,7.1 -0.6,2.4 -1.3,12.2 -1.3,12.2 0,0 17.4,0.6 19.3,-0.2 0,0 0.6,-9.6 0.3,-11.9 -0.3,-2.3 -1.2,-7.1 -1.2,-7.1 0,0 1.7,1.7 3.4,3 1.7,1.3 7.5,3.8 7.5,3.8 0,0 -0.1,-1.2 0.5,-2.2 0.5,-1 1.7,-1.6 1.7,-1.6 0,0 -4.8,-4.3 -6.5,-6 -1.7,-1.7 -4.5,-4.8 -5,-5.3 -0.6,-0.5 -5.7,-0.6 -5.7,-0.6 z"
   clip-path="url(#SVGID_2_)"
   id="path88"
   inkscape:connector-curvature="0"
   style="fill:#f2d03d" />
</g>
</svg>