<?xml version="1.0" encoding="utf-8"?>
<!-- Generator: Adobe Illustrator 22.1.0, SVG Export Plug-In . SVG Version: 6.00 Build 0)  -->
<svg version="1.1" id="Layer_1" xmlns="http://www.w3.org/2000/svg" xmlns:xlink="http://www.w3.org/1999/xlink" x="0px" y="0px"
	 viewBox="0 0 140 100" style="enable-background:new 0 0 140 100;" xml:space="preserve">
<style type="text/css">
	.st0{fill:#BABABA;}
	.st1{fill:none;stroke:#808080;stroke-width:2;stroke-miterlimit:10;}
	.st2{fill:#00A9CE;}
	.st3{fill:#EABD8D;}
	.st4{fill:#EAEAEA;}
	.st5{fill:#FFFFFF;}
	.st6{fill:none;}
	.st7{fill:#808080;}
</style>
<title>Service 2</title>
<rect x="65.6" y="42.6" transform="matrix(0.9714 -0.2375 0.2375 0.9714 -12.0245 21.3896)" class="st0" width="34.4" height="36"/>
<polygon class="st0" points="105.7,78.4 70.7,86.9 70,80.5 103.3,72.3 "/>
<path class="st1" d="M88.5,44.9l-0.7-3c0,0-0.3-1.2-0.4-1.9c-1.3-5.4-7.2-12-12.2-10.8S68,39,69.3,44.4c0.2,0.6,0.4,1.9,0.4,1.9
	l0.7,3"/>
<rect x="56.8" y="44.3" class="st2" width="37.6" height="39.3"/>
<polygon class="st2" points="95.3,88.9 56,88.9 56.8,81.9 94.5,81.9 "/>
<path class="st1" d="M85.8,48.7v-5.5c0-6.2-4.6-14.6-10.1-14.6s-10.1,8.5-10.1,14.6v5.5"/>
<path class="st3" d="M69.2,3c2.2,0.2,4.4,0.6,6.6,1.1c3.1,0.9,24.8,7.2,24.8,7.2s-1.2,3.5-3.9,3.5S75,9.6,75,9.6S69.2,5.1,69.2,3z"
	/>
<path class="st3" d="M72.3,3.4c2.1,0.6,4.2,1.3,6.3,2.2c2.9,1.4,23.2,11.1,23.2,11.1s-1.7,3.3-4.5,2.9s-20.5-8.6-20.5-8.6
	S72,5.4,72.3,3.4z"/>
<path class="st3" d="M45.1,3h25c0,0,4.7-0.4,6.9,2.6s8,10.4,8,10.4c0.7,1,1.3,2.1,1.8,3.2c0.7,1.6-4.7,14.6-4.7,14.6
	s-1.3,1.6-3.5-2.8c-0.9-1.9,3-5.8,1.8-9.2c-1.6-4.6-5-6.9-8.4-7.1c-5.8-0.4-6.1-0.2-4.6,4s2.4,5.1,3,5.9s3.4,1.5,4.7,2.6
	s3.1,1.7,2.9,4.1s-6.9-1.5-9.8-2.8s-6.8-2.6-9.3-4c-3.8-2.4-7.5-5-11-7.9c-0.5-0.7-1.3-1-2.9-1L45.1,3L45.1,3z"/>
<rect x="39.3" y="0.7" class="st4" width="5.8" height="18.1"/>
<rect x="34.3" class="st2" width="7.4" height="19.5"/>
<circle class="st5" cx="37.7" cy="3.4" r="0.9"/>
<path class="st6" d="M83.7,34.1c1.3,2.2,2.1,4.6,2.5,7.2L87,41c-0.1-0.3-0.2-0.7-0.2-0.9C86.2,37.9,85.2,35.9,83.7,34.1z"/>
<path class="st7" d="M83.3,33.4c0.2,0.2,0.3,0.5,0.4,0.7c1.4,1.8,2.5,3.8,3.1,6c0.1,0.2,0.2,0.6,0.2,0.9l1-0.3
	c-0.1-0.3-0.2-0.7-0.2-0.9C87,36.8,85.3,34,83,31.8c-1.1-1.1-2.4-2-3.8-2.6C80.9,30.2,82.3,31.7,83.3,33.4z"/>
<path class="st7" d="M78.9,30.3c-0.3-0.2-0.7-0.4-1-0.5c0,0.1,0.1,0.1,0.1,0.2L78.9,30.3z"/>
<path class="st7" d="M87.2,42l0.7,3l1-0.3l-0.7-3c0,0-0.1-0.4-0.2-0.9l-1,0.3C87.1,41.6,87.2,42,87.2,42z"/>
<path class="st7" d="M79.2,29.1c-0.8-0.5-1.7-0.8-2.7-0.9c0.2,0.1,0.3,0.3,0.5,0.4C77.8,28.7,78.5,28.8,79.2,29.1z"/>
<path class="st7" d="M78.9,30.3c1.4,1,2.6,2.2,3.5,3.7c1.4,2.3,2.4,4.9,2.8,7.5l1.1-0.3c-0.4-2.5-1.2-4.9-2.5-7.2
	C82.4,32.5,80.8,31.2,78.9,30.3z"/>
<path class="st7" d="M85.3,43.3v5.5h1.1v-5.5c0-0.7-0.1-1.3-0.2-2l-1.1,0.3C85.2,42.2,85.3,42.8,85.3,43.3z"/>
<path class="st7" d="M77.9,29.7c0.3,0.2,0.7,0.3,1,0.5c1.9,0.9,3.6,2.2,4.8,3.8c-0.1-0.2-0.3-0.5-0.4-0.7c-1-1.7-2.4-3.2-4.1-4.2
	c-0.7-0.3-1.4-0.5-2.2-0.5C77.4,28.9,77.7,29.3,77.9,29.7z"/>
</svg>
