<?xml version="1.0" encoding="UTF-8" standalone="no"?>
<!-- Generator: Adobe Illustrator 23.0.1, SVG Export Plug-In . SVG Version: 6.00 Build 0)  -->

<svg
   xmlns:dc="http://purl.org/dc/elements/1.1/"
   xmlns:cc="http://creativecommons.org/ns#"
   xmlns:rdf="http://www.w3.org/1999/02/22-rdf-syntax-ns#"
   xmlns:svg="http://www.w3.org/2000/svg"
   xmlns="http://www.w3.org/2000/svg"
   xmlns:sodipodi="http://sodipodi.sourceforge.net/DTD/sodipodi-0.dtd"
   xmlns:inkscape="http://www.inkscape.org/namespaces/inkscape"
   version="1.1"
   id="Layer_1"
   x="0px"
   y="0px"
   viewBox="0 0 82.926819 63.902439"
   xml:space="preserve"
   sodipodi:docname="smallpackage.svg"
   inkscape:version="0.92.3 (2405546, 2018-03-11)"
   width="82.926819"
   height="63.902439"><metadata
   id="metadata67"><rdf:RDF><cc:Work
       rdf:about=""><dc:format>image/svg+xml</dc:format><dc:type
         rdf:resource="http://purl.org/dc/dcmitype/StillImage" /><dc:title>Service 2</dc:title></cc:Work></rdf:RDF></metadata><defs
   id="defs65" /><sodipodi:namedview
   pagecolor="#ffffff"
   bordercolor="#666666"
   borderopacity="1"
   objecttolerance="10"
   gridtolerance="10"
   guidetolerance="10"
   inkscape:pageopacity="0"
   inkscape:pageshadow="2"
   inkscape:window-width="2560"
   inkscape:window-height="1356"
   id="namedview63"
   showgrid="false"
   inkscape:zoom="2.05"
   inkscape:cx="34.390244"
   inkscape:cy="111.95122"
   inkscape:window-x="-8"
   inkscape:window-y="-8"
   inkscape:window-maximized="1"
   inkscape:current-layer="Layer_1" />
<style
   type="text/css"
   id="style2">
	.st0{fill:#C58C5C;}
	.st1{fill:#A27150;}
	.st2{fill:#E5E6E6;}
	.st3{fill:#BCBDBF;}
	.st4{fill:#69331B;}
	.st5{fill:#FFFFFF;}
</style>
<title
   id="title4">Service 2</title>
<g
   id="g60"
   transform="translate(-30.136593,-21.797557)">
	<rect
   x="46.400002"
   y="47.599998"
   class="st0"
   width="50.400002"
   height="38.099998"
   id="rect6"
   style="fill:#c58c5c" />
	<rect
   x="46.400002"
   y="47.599998"
   class="st1"
   width="9.3999996"
   height="38.099998"
   id="rect8"
   style="fill:#a27150" />
	<rect
   x="67.5"
   y="50.799999"
   class="st2"
   width="21.4"
   height="5.9000001"
   id="rect10"
   style="fill:#e5e6e6" />
	<rect
   x="68.699997"
   y="51.900002"
   class="st3"
   width="8.3000002"
   height="0.80000001"
   id="rect12"
   style="fill:#bcbdbf" />
	<rect
   x="68.699997"
   y="53.299999"
   class="st3"
   width="6.3000002"
   height="0.80000001"
   id="rect14"
   style="fill:#bcbdbf" />
	<rect
   x="68.699997"
   y="54.700001"
   class="st3"
   width="8.8999996"
   height="0.80000001"
   id="rect16"
   style="fill:#bcbdbf" />
	<rect
   x="81.900002"
   y="51.700001"
   class="st3"
   width="0.5"
   height="4"
   id="rect18"
   style="fill:#bcbdbf" />
	<rect
   x="87"
   y="51.700001"
   class="st3"
   width="0.5"
   height="4"
   id="rect20"
   style="fill:#bcbdbf" />
	<rect
   x="82.800003"
   y="51.700001"
   class="st3"
   width="0.40000001"
   height="3.0999999"
   id="rect22"
   style="fill:#bcbdbf" />
	<rect
   x="83.5"
   y="51.700001"
   class="st3"
   width="0.40000001"
   height="3.0999999"
   id="rect24"
   style="fill:#bcbdbf" />
	<rect
   x="84.199997"
   y="51.700001"
   class="st3"
   width="0.40000001"
   height="3.0999999"
   id="rect26"
   style="fill:#bcbdbf" />
	<rect
   x="84.900002"
   y="51.700001"
   class="st3"
   width="0.40000001"
   height="3.0999999"
   id="rect28"
   style="fill:#bcbdbf" />
	<rect
   x="85.599998"
   y="51.700001"
   class="st3"
   width="0.40000001"
   height="3.0999999"
   id="rect30"
   style="fill:#bcbdbf" />
	<rect
   x="86.300003"
   y="51.700001"
   class="st3"
   width="0.40000001"
   height="3.0999999"
   id="rect32"
   style="fill:#bcbdbf" />
	<g
   id="g46">
		<polygon
   class="st4"
   points="68.9,82.1 68.9,79 69.2,79 68.6,78.1 68,79 68.1,79 68.1,82.1 "
   id="polygon34"
   style="fill:#69331b" />
		<polygon
   class="st4"
   points="70.6,82.1 70.6,79 70.9,79 70.2,78.1 69.6,79 69.8,79 69.8,82.1 "
   id="polygon36"
   style="fill:#69331b" />
		<rect
   x="67.599998"
   y="82.400002"
   class="st4"
   width="3.4000001"
   height="0.5"
   id="rect38"
   style="fill:#69331b" />
		<path
   class="st4"
   d="m 74.9,80.3 v -2.2 h -2.2 v 2.2 c 0,0.4 0.1,0.6 0.4,0.8 0.2,0.2 0.3,0.3 0.5,0.3 v 1 h -0.7 v 0.5 h 2 v -0.5 h -0.7 v -0.9 c 0.4,-0.2 0.7,-0.6 0.7,-1.2 z m -1.9,0 v -1.9 h 1.6 v 1.9 c 0,0.4 -0.4,0.8 -0.8,0.8 -0.2,0 -0.4,-0.1 -0.5,-0.3 -0.2,0 -0.3,-0.2 -0.3,-0.5 z"
   id="path40"
   inkscape:connector-curvature="0"
   style="fill:#69331b" />
		<path
   class="st4"
   d="m 76.9,81.5 v 1 h 0.7 V 83 h -2 v -0.5 h 0.7 v -1 C 76.1,81.4 75.9,81.3 75.8,81.2 75.6,81 75.4,80.8 75.4,80.4 v -2.2 h 2.2 v 2.2 c 0.2,0.5 -0.1,0.9 -0.7,1.1 z"
   id="path42"
   inkscape:connector-curvature="0"
   style="fill:#69331b" />
		<path
   class="st4"
   d="m 80.9,78.2 c -1.1,0 -2,0.9 -2,1.9 v 0 c 0.1,-0.1 0.3,-0.2 0.4,-0.2 0.2,0 0.4,0.1 0.4,0.2 h 0.1 c 0.1,-0.1 0.3,-0.2 0.4,-0.2 0.2,0 0.3,0 0.4,0.1 v 2 0.4 0 0 c 0,0.1 -0.1,0.2 -0.2,0.2 -0.1,0 -0.2,-0.1 -0.2,-0.2 H 80 c 0,0.3 0.2,0.4 0.4,0.4 0.3,0 0.4,-0.2 0.4,-0.4 V 80 c 0.1,-0.1 0.3,-0.1 0.4,-0.1 0.2,0 0.4,0.1 0.4,0.2 h 0.1 c 0.1,-0.1 0.3,-0.2 0.4,-0.2 0.2,0 0.4,0.1 0.4,0.2 v 0 c 0.4,-1 -0.6,-1.9 -1.6,-1.9 z"
   id="path44"
   inkscape:connector-curvature="0"
   style="fill:#69331b" />
	</g>
	<g
   id="g58">
		<path
   class="st5"
   d="M 60.2,69 65,71.1 V 72 l -5.5,-2.4 v -1 L 65,66 v 0.9 z"
   id="path48"
   inkscape:connector-curvature="0"
   style="fill:#ffffff" />
		<path
   class="st5"
   d="m 70.9,65.1 v 2.6 c 0.5,-0.1 1.1,-0.1 1.5,-0.1 1.9,0 3.2,1.1 3.2,2.7 0,1.8 -1.3,3 -3.2,3 -1,0 -2.2,-0.4 -3.1,-1 l 0.4,-0.9 c 0.8,0.6 1.7,0.9 2.6,0.9 1.4,0 2.2,-0.8 2.2,-2 0,-1.1 -0.9,-1.8 -2.2,-1.8 -0.6,0 -1.7,0.1 -2.4,0.2 V 64 h 5.3 v 1 z"
   id="path50"
   inkscape:connector-curvature="0"
   style="fill:#ffffff" />
		<path
   class="st5"
   d="m 77.4,73.2 v -9.7 h 1 v 9.7 z"
   id="path52"
   inkscape:connector-curvature="0"
   style="fill:#ffffff" />
		<path
   class="st5"
   d="m 87.9,69.8 c 0,2 -1.3,3.5 -3.3,3.5 -1.2,0 -2.2,-0.6 -2.7,-1.5 v 1.5 h -1 v -9.7 h 1 v 4.3 c 0.5,-1 1.5,-1.5 2.7,-1.5 2,-0.1 3.3,1.3 3.3,3.4 z m -1,0 c 0,-1.5 -1,-2.6 -2.5,-2.6 -1.5,0 -2.5,1.1 -2.5,2.6 0,1.5 1,2.6 2.5,2.6 1.5,0 2.5,-1.1 2.5,-2.6 z"
   id="path54"
   inkscape:connector-curvature="0"
   style="fill:#ffffff" />
		<path
   class="st5"
   d="m 93.6,66.9 -0.4,0.8 c -0.5,-0.3 -1.2,-0.6 -1.9,-0.6 -0.8,0 -1.4,0.3 -1.4,0.9 0,1.5 3.9,0.7 3.9,3.2 0,1.4 -1.2,2 -2.5,2 -1,0 -2,-0.3 -2.6,-1 l 0.4,-0.8 c 0.6,0.6 1.5,0.9 2.3,0.9 0.8,0 1.5,-0.3 1.5,-1 0,-1.7 -3.8,-0.8 -3.8,-3.3 0,-1.3 1.1,-1.9 2.4,-1.9 0.7,0.2 1.5,0.4 2.1,0.8 z"
   id="path56"
   inkscape:connector-curvature="0"
   style="fill:#ffffff" />
	</g>
</g>
</svg>