<svg id="Layer_1" data-name="Layer 1" xmlns="http://www.w3.org/2000/svg" width="145" height="145" viewBox="0 0 145 145"><defs><style>.cls-1{fill:#c6c6c6;}.cls-2{fill:#fff;}.cls-3{fill:#0066B3;}.cls-4{fill:none;stroke:#3d3d3d;stroke-linecap:round;stroke-linejoin:round;}</style></defs><title>4</title><rect class="cls-1" x="23" y="39.5" width="99" height="66" rx="3" ry="3"/><rect class="cls-2" x="28.88" y="44.5" width="32" height="8"/><rect class="cls-2" x="28.88" y="52.5" width="88" height="49"/><path class="cls-3" d="M49.83,60.65a6.9,6.9,0,1,1-6.89,6.89,6.9,6.9,0,0,1,6.89-6.89"/><path class="cls-3" d="M55.06,77.89A2,2,0,0,1,56.9,79L60.44,86a4.48,4.48,0,0,1-4,6.52H43.21a4.48,4.48,0,0,1-4-6.52L42.75,79a2.07,2.07,0,0,1,1.84-1.12H55.06"/><line class="cls-4" x1="76.3" y1="88.89" x2="96.8" y2="88.89"/><line class="cls-4" x1="76.3" y1="81.43" x2="108.87" y2="81.43"/><line class="cls-4" x1="76.3" y1="73.96" x2="108.87" y2="73.96"/><line class="cls-4" x1="76.3" y1="66.5" x2="108.87" y2="66.5"/><circle class="cls-2" cx="112.87" cy="45.83" r="1.5"/><circle class="cls-2" cx="107.12" cy="45.83" r="1.5"/><circle class="cls-2" cx="101.37" cy="45.83" r="1.5"/></svg>