<?xml version="1.0" encoding="utf-8"?>
<!-- Generator: Adobe Illustrator 24.1.3, SVG Export Plug-In . SVG Version: 6.00 Build 0)  -->
<svg version="1.1" id="Layer_1" xmlns="http://www.w3.org/2000/svg" xmlns:xlink="http://www.w3.org/1999/xlink" x="0px" y="0px"
	 viewBox="0 0 111 111" style="enable-background:new 0 0 111 111;" xml:space="preserve">
<style type="text/css">
	.st0{fill:#CC0033;}
	.st1{fill:#FFCC00;}
	.st2{fill:#FFFFFF;}
</style>
<path class="st0" d="M106.3,110.5H5.7c-2.8,0-5-2.2-5-5V5.1c0-2.8,2.2-5,5-5h100.7c2.8,0,5,2.2,5,5v100.4
	C111.3,108.2,109.2,110.5,106.3,110.5z"/>
<g id="Page-1_2_">
	<g>
		<path id="Fill-2_2_" class="st1" d="M28.4,47.8l-0.1-3.5l-2.4,3.5H28.4z M27.5,41.2H31l0.8,10.4h-3.4l0-1.7h-3.9l-1.2,1.7h-3.5
			L27.5,41.2z"/>
		<g id="Group-55_2_" transform="translate(40.000000, 39.478000)">
			<path id="Fill-3_2_" class="st1" d="M-2.5,6.7c-0.3-0.1-0.6-0.2-0.9-0.2C-4.1,6.5-4.8,7.1-5,8c-0.2,0.9,0.1,1.5,1,1.5
				c0.2,0,0.3,0,0.7-0.1L-2.5,6.7z M-1.4,12.1h-4.2c-2,0-2.8-1.6-2.1-4.1C-7,5.6-5.2,3.9-3.2,3.9c0.5,0,1,0.1,1.5,0.3l0.8-2.6h2.8
				L-1.4,12.1z"/>
			<polygon id="Fill-5_2_" class="st1" points="1.3,4 4.3,4 4,8.3 6.9,4 9.4,4 3.7,12.1 1.4,12.1 			"/>
			<path id="Fill-7_2_" class="st1" d="M11.4,8.8c-0.7,0.4-1.6,0.4-1.9,1.3c-0.1,0.4,0,0.7,0.4,0.7c0.4,0,0.6-0.2,1-0.4
				c0-0.1,0-0.3,0.1-0.6L11.4,8.8z M13.1,12.2c-1.4,0.1-2.1-0.1-2.3-0.7C10,12,9.4,12.2,8.5,12.2c-1.6,0-2-0.9-1.6-2
				c0.2-0.5,0.5-1,1-1.4c1-0.9,3-1,3.9-1.6c0.2-0.7,0-1.2-0.8-1c-1,0.2-1.5,0.5-2.9,1.4l0.8-2.4c1.3-0.8,2.4-1.3,3.7-1.4
				c1.6-0.1,2.9,0.8,2.3,2.8L14.1,9c-0.3,0.8-0.3,1.1,0.5,1.1L13.1,12.2z"/>
			<path id="Fill-9_2_" class="st1" d="M16.8,4h2.8l-0.3,1.1c1-0.9,1.8-1.2,2.7-1.2c1.6,0,2.1,1.1,1.5,2.9l-1.7,5.3h-2.8l1.4-4.4
				c0.3-0.8,0.1-1.2-0.4-1.2c-0.4,0-0.9,0.3-1.4,0.9L17,12.1h-2.8L16.8,4z"/>
			<path id="Fill-11_2_" class="st1" d="M28.4,11.7c-1,0.4-1.7,0.5-2.4,0.5c-2.4,0-3.5-1.7-2.7-4.1c0.7-2,2.5-4.2,5.3-4.2
				c0.8,0,1.5,0.1,2.2,0.4L29.9,7c-0.5-0.3-1-0.5-1.6-0.5c-1,0-1.9,0.6-2.2,1.6c-0.3,0.9,0.2,1.5,1.3,1.5c0.5,0,1-0.1,1.9-0.5
				L28.4,11.7z"/>
			<path id="Fill-13_2_" class="st1" d="M34.9,7.3c0.3-1,0.1-1.5-0.5-1.5c-0.6,0-1.1,0.5-1.4,1.5H34.9z M36.3,10.9
				c-1.1,1-2.2,1.3-3.6,1.3c-2.4,0-3.4-1.8-2.7-4.2c0.8-2.4,2.9-4.1,5-4.1c2.2,0,3.1,1.8,2,4.6h-4.5c-0.2,0.8,0.2,1.6,1.3,1.6
				c0.8,0,2-0.3,3-0.9L36.3,10.9z"/>
			<path id="Fill-15_2_" class="st1" d="M8.7,16.7c0.9,0,1.3-0.4,1.6-1.1c0.2-0.7,0-1-0.9-1H8.8l-0.7,2.1H8.7z M6.3,12.8h4.4
				c2.5,0,3,1.3,2.5,2.7c-0.4,1.4-1.8,2.9-4.5,2.9H7.5l-1,3.1h-3L6.3,12.8z"/>
			<path id="Fill-17_2_" class="st1" d="M-20.1,18.3l0-2.9l-2,2.9H-20.1z M-20.7,12.8h2.9l0.7,8.7H-20l0-1.4h-3.3l-1,1.4h-2.9
				L-20.7,12.8z"/>
			<path id="Fill-19_2_" class="st1" d="M15.3,18.8c-0.6,0.4-1.3,0.3-1.6,1c-0.1,0.4,0,0.6,0.3,0.6c0.3,0,0.5-0.1,0.9-0.4
				c0-0.1,0-0.3,0.1-0.5L15.3,18.8z M16.8,21.6c-1.2,0.1-1.7-0.1-1.9-0.6c-0.7,0.4-1.2,0.7-1.9,0.7c-1.3,0-1.6-0.8-1.3-1.6
				c0.1-0.4,0.4-0.8,0.8-1.1c0.9-0.7,2.5-0.8,3.3-1.4c0.2-0.6,0-1-0.7-0.8c-0.8,0.2-1.2,0.4-2.4,1.1l0.6-2c1.1-0.7,2-1.1,3.1-1.1
				c1.4-0.1,2.5,0.6,1.9,2.3l-0.6,1.9c-0.2,0.7-0.2,0.9,0.4,0.9L16.8,21.6z"/>
			<path id="Fill-21_2_" class="st1" d="M-10.6,19.1c-0.2,0.6,0,0.9,0.7,0.7l-1.2,1.8c-0.4,0.1-0.7,0.1-1,0.1
				c-0.9,0-1.2-0.3-1.1-1.2c-0.8,0.8-1.6,1.2-2.4,1.2c-1,0-1.8-0.6-1.2-2.5l1.4-4.3h2.3l-1.2,3.6c-0.2,0.7-0.1,1,0.4,1
				c0.3,0,0.7-0.2,1.1-0.7l1.3-4h2.3L-10.6,19.1z"/>
			<path id="Fill-23_2_" class="st1" d="M-5.5,20.9c-0.8,0.5-1.5,0.8-2.3,0.8c-0.7,0-1.3-0.2-1.6-0.7c-0.2-0.4-0.2-0.9,0.1-1.8
				l0.9-2.7h-1l0.3-0.8l3.8-2.9h0.5l-0.6,2h1.9l-0.5,1.7H-6l-0.7,2c-0.2,0.6-0.1,0.9,0.4,0.9c0.4,0,0.9-0.2,1.5-0.5L-5.5,20.9z"/>
			<path id="Fill-25_2_" class="st1" d="M-1.3,19.5c0.7,0,1.3-0.5,1.6-1.3c0.2-0.8-0.1-1.3-0.7-1.3s-1.3,0.5-1.6,1.3
				C-2.3,18.9-2,19.5-1.3,19.5 M0.2,14.7c2.5,0,2.9,1.8,2.4,3.5C2,19.9,0.4,21.6-2,21.6c-2.5,0-2.9-1.8-2.4-3.5
				C-3.8,16.4-2.2,14.7,0.2,14.7"/>
			<path id="Fill-27_2_" class="st1" d="M34.3,17c-0.5-0.5-1-0.7-1.4-0.7c-0.3,0-0.6,0.2-0.7,0.5c-0.2,0.7,1,0.5,1.5,1.4
				c0.2,0.4,0.3,0.9,0.1,1.4c-0.3,0.8-1.2,2-2.9,2c-1,0-1.8-0.2-2.3-0.6l0.6-1.9c0.6,0.7,1,0.9,1.6,0.9c0.4,0,0.7-0.2,0.8-0.5
				c0.3-0.8-2.2-0.8-1.6-2.8c0.3-0.9,1.2-2,3-2c0.8,0,1.4,0.2,2,0.5L34.3,17z"/>
			<path id="Fill-29_2_" class="st1" d="M22.1,14.8l-0.6,1.8h0c0.8-1.3,1.7-1.9,2.5-1.9c0.4,0,0.8,0.2,1.3,0.5l-1.9,2.7
				c-0.2-0.4-0.5-0.6-0.8-0.6c-0.6,0-1.2,0.6-1.6,1.4l-0.9,2.8h-2.3l2.2-6.7H22.1z"/>
			<path id="Fill-31_2_" class="st1" d="M27.4,12.8l-2.6,3.7l0.5,0l-0.9,2.7c-0.3,0.9-0.3,1.4-0.1,1.8c0.3,0.5,0.9,0.7,1.6,0.7
				c0.8,0,1.5-0.2,2.3-0.8l0.7-2c-0.6,0.4-1.1,0.5-1.5,0.5c-0.5,0-0.6-0.3-0.4-0.9l0.7-2h1.9l0.5-1.7h-1.9l0.6-2L27.4,12.8z"/>
			<polygon id="Fill-33_2_" class="st1" points="37.1,21.5 43.5,1.7 40.8,1.7 34.4,21.5 			"/>
			<path id="Fill-35_2_" d="M42.3,10.4l-0.8,2.5l-0.4,0.7l-1.3,4l-0.1,0.8l-1,3c0,0,1.4,0.4,3.7,0.7l1,0.3c1.1,0.1,2.1,0.1,3.2,0
				c0.6-0.1,1.4-0.3,2.1-0.5l1.2-0.5c0.5-0.1,1.1-0.2,1.6-0.2c1.7,0,2.5,0.1,2.5,0.1l0.8-2.6l0.5-1.1l1.3-4l0.2-1.2l0.7-2l0.4-0.7
				l1.3-4l0-0.5l1-3.3c0,0-0.8,0-2.5-0.1c-0.6,0-1.3,0.1-2,0.3l-0.7,0.1c-0.8,0.2-1.5,0.5-2.1,0.5c-1.1,0.1-2.1,0.1-3.2,0l-1.1,0.1
				c-2.4-0.2-3.8-0.7-3.8-0.7l-1,3.2l-0.3,0.5l-1.3,4L42.3,10.4z"/>
			<path id="Fill-37_2_" class="st2" d="M47.4,10.4c1.1,0.1,2.1,0.1,3.2,0c0.6-0.1,1.4-0.3,2.2-0.5l1.3-4c-0.8,0.2-1.5,0.5-2.2,0.5
				c-1.1,0.1-2.1,0.1-3.2,0L47.4,10.4z"/>
			<path id="Fill-39_2_" class="st2" d="M44.8,18.3c1.1,0.1,2.1,0.1,3.2,0c0.6-0.1,1.4-0.3,2.2-0.5l1.3-4c-0.8,0.2-1.5,0.5-2.2,0.5
				c-1.1,0.1-2.1,0.1-3.2,0L44.8,18.3z"/>
			<path id="Fill-41_2_" class="st2" d="M55.3,1.9L54,5.9c0.9-0.3,1.9-0.5,2.8-0.5c1.7,0.1,2.5,0.1,2.5,0.1l1.3-4c0,0-0.7,0-2.5-0.1
				C57.2,1.4,56.2,1.6,55.3,1.9"/>
			<path id="Fill-43_2_" class="st2" d="M39.9,17.6c0,0,1.4,0.4,3.9,0.7c0.4,0,0.7,0.1,1,0.1l-1.3,4c-0.3,0-0.7-0.1-1.1-0.1
				c-2.5-0.2-3.9-0.7-3.9-0.7L39.9,17.6z"/>
			<path id="Fill-45_2_" class="st2" d="M48.6,6.4l1.3-3.9c-0.3,0-0.7-0.1-1-0.1C46.4,2.2,45,1.7,45,1.7l-1.3,4c0,0,1.4,0.4,3.9,0.7
				C48,6.4,48.3,6.4,48.6,6.4"/>
			<path id="Fill-47_2_" class="st2" d="M41.1,13.6l1.3-4c0,0,1.4,0.5,3.9,0.7c0.4,0,0.7,0.1,1,0.1l-1.3,4c-0.3,0-0.7-0.1-1-0.1
				C42.6,14,41.1,13.6,41.1,13.6"/>
			<path id="Fill-49_2_" class="st2" d="M55.5,17.4c0,0-0.8,0-2.5-0.1c-0.9,0-1.9,0.2-2.9,0.5l-1.3,4c0.9-0.3,1.9-0.5,2.9-0.5
				c1.8,0,2.5,0.1,2.5,0.1L55.5,17.4"/>
			<path id="Fill-51_2_" class="st2" d="M51.5,13.8l1.3-4c0.9-0.3,1.9-0.5,2.8-0.5c1.7,0,2.5,0.1,2.5,0.1l-1.3,4c0,0-0.7,0-2.5-0.1
				C53.4,13.3,52.4,13.5,51.5,13.8"/>
			<path id="Fill-53_2_" class="st2" d="M61.8,2.1V1.8H62c0.1,0,0.2,0,0.2,0.1c0,0.1-0.1,0.1-0.2,0.1H61.8z M61.8,2.2h0.2l0.2,0.4
				h0.1l-0.3-0.4c0.1,0,0.2-0.1,0.2-0.2c0-0.2-0.1-0.3-0.3-0.3h-0.3v0.9h0.1V2.2z M61.9,2.9c0.4,0,0.8-0.3,0.8-0.8
				c0-0.4-0.4-0.8-0.8-0.8c-0.4,0-0.8,0.3-0.8,0.8C61.2,2.6,61.5,2.9,61.9,2.9L61.9,2.9z M61.3,2.1c0-0.4,0.3-0.6,0.6-0.6
				c0.3,0,0.6,0.3,0.6,0.6c0,0.4-0.3,0.6-0.6,0.6C61.6,2.8,61.3,2.5,61.3,2.1L61.3,2.1z"/>
		</g>
	</g>
</g>
</svg>
