<?xml version="1.0" encoding="utf-8"?>
<!-- Generator: Adobe Illustrator 23.0.0, SVG Export Plug-In . SVG Version: 6.00 Build 0)  -->
<svg version="1.1" id="Layer_1" xmlns="http://www.w3.org/2000/svg" xmlns:xlink="http://www.w3.org/1999/xlink" x="0px" y="0px"
	 viewBox="0 0 145 145" style="enable-background:new 0 0 145 145;" xml:space="preserve">
<style type="text/css">
	.st0{fill:#FFFFFF;}
	.st1{fill:#C6C6C6;}
	.st2{fill:#20284D;}
	.st3{fill:none;stroke:#C6C6C6;stroke-width:2.5;stroke-miterlimit:10;}
	.st4{fill:none;stroke:#20284D;stroke-width:2.5;stroke-linecap:round;stroke-linejoin:round;stroke-miterlimit:10;}
</style>
<circle class="st0" cx="54.41" cy="55.82" r="20.93"/>
<circle class="st0" cx="90.57" cy="89.18" r="20.93"/>
<title>1</title>
<g>
	<g>
		<g>
			<path class="st1" d="M54.41,43.73c2.89,0,5.24,2.35,5.24,5.24s-2.35,5.24-5.24,5.24c-2.89,0-5.24-2.35-5.24-5.24
				S51.53,43.73,54.41,43.73"/>
		</g>
		<g>
			<path class="st2" d="M58.39,56.83c0.59,0,1.13,0.33,1.4,0.86l2.69,5.27c0.54,1.06,0.49,2.31-0.13,3.33
				c-0.62,1.02-1.71,1.63-2.91,1.63H49.38c-1.2,0-2.28-0.61-2.91-1.63c-0.62-1.02-0.67-2.26-0.13-3.33l2.69-5.27
				c0.27-0.53,0.8-0.86,1.4-0.86H58.39"/>
		</g>
	</g>
</g>
<circle class="st3" cx="54.41" cy="55.82" r="20.93"/>
<g>
	<g>
		<g>
			<path class="st1" d="M90.57,77.09c2.89,0,5.24,2.35,5.24,5.24s-2.35,5.24-5.24,5.24c-2.89,0-5.24-2.35-5.24-5.24
				S87.69,77.09,90.57,77.09"/>
		</g>
		<g>
			<path class="st2" d="M94.55,90.19c0.59,0,1.13,0.33,1.4,0.86l2.69,5.27c0.54,1.06,0.49,2.31-0.13,3.33
				c-0.62,1.02-1.71,1.63-2.91,1.63H85.54c-1.2,0-2.28-0.61-2.91-1.63c-0.62-1.02-0.67-2.26-0.13-3.33l2.69-5.27
				c0.27-0.53,0.8-0.86,1.4-0.86H94.55"/>
		</g>
	</g>
</g>
<circle class="st3" cx="90.57" cy="89.18" r="20.93"/>
<g>
	<g>
		<path class="st4" d="M39.64,80.91c0,15.54,12.6,28.13,28.13,28.13"/>
	</g>
	<polyline class="st4" points="34.55,87.06 39.31,79.84 46.53,84.6 	"/>
</g>
<g>
	<g>
		<path class="st4" d="M105.35,64.09c0-15.54-12.6-28.13-28.13-28.13"/>
	</g>
	<polyline class="st4" points="110.44,57.94 105.67,65.16 98.45,60.4 	"/>
</g>
</svg>
