<?xml version="1.0" encoding="utf-8"?>
<!-- Generator: Adobe Illustrator 24.1.3, SVG Export Plug-In . SVG Version: 6.00 Build 0)  -->
<svg version="1.1" id="Layer_1" xmlns="http://www.w3.org/2000/svg" xmlns:xlink="http://www.w3.org/1999/xlink" x="0px" y="0px"
	 viewBox="0 0 111 111" style="enable-background:new 0 0 111 111;" xml:space="preserve">
<style type="text/css">
	.st0{fill:#F2F2F2;}
	.st1{fill:#6D6E71;}
	.st2{clip-path:url(#SVGID_2_);fill:#6D6E71;}
	.st3{clip-path:url(#SVGID_4_);fill:#6D6E71;}
	.st4{clip-path:url(#SVGID_6_);fill:#6D6E71;}
	.st5{clip-path:url(#SVGID_8_);fill:#6D6E71;}
	.st6{clip-path:url(#SVGID_10_);fill:#6D6E71;}
	.st7{clip-path:url(#SVGID_12_);fill:#6D6E71;}
	.st8{clip-path:url(#SVGID_14_);fill:#6D6E71;}
	.st9{clip-path:url(#SVGID_16_);fill:#6D6E71;}
	.st10{clip-path:url(#SVGID_18_);fill:#6D6E71;}
</style>
<path class="st0" d="M106.3,110.5H5.7c-2.8,0-5-2.2-5-5V5.1c0-2.8,2.2-5,5-5h100.7c2.8,0,5,2.2,5,5v100.4
	C111.3,108.2,109.2,110.5,106.3,110.5z"/>
<g>
	<path class="st1" d="M56.7,51.1l1.4,3.3h-2.8L56.7,51.1z M56.3,50.1l-3,7.1h0.9l0.8-1.9h3.5l0.8,1.9h0.9l-3-7.1H56.3z"/>
	<polygon class="st1" points="66.7,50.1 64.7,52.9 62.7,50.1 61.6,50.1 64.2,53.7 61.6,57.2 62.7,57.2 64.7,54.5 66.7,57.2 
		67.7,57.2 65.2,53.7 67.7,50.1 	"/>
	<path class="st1" d="M72.7,51.1l1.4,3.3h-2.8L72.7,51.1z M72.2,50.1l-3,7.1h0.9l0.8-1.9h3.5l0.8,1.9h0.9l-3-7.1H72.2z"/>
	<g>
		<g>
			<defs>
				<rect id="SVGID_1_" x="7.3" y="50" width="98.3" height="7.3"/>
			</defs>
			<clipPath id="SVGID_2_">
				<use xlink:href="#SVGID_1_"  style="overflow:visible;"/>
			</clipPath>
			<path class="st2" d="M91.1,52.4c0,0.8-0.6,1.3-1.3,1.3h-2.7V51h2.7C90.5,51,91.1,51.6,91.1,52.4 M92.1,57.2l-1.5-2.8
				c0.8-0.5,1.3-1.1,1.3-2.1c0-1.2-0.9-2.2-2.1-2.2h-3.7v7.1h1v-2.6h2.5l1.4,2.6L92.1,57.2L92.1,57.2z"/>
		</g>
		<g>
			<defs>
				<rect id="SVGID_3_" x="7.3" y="50" width="98.3" height="7.3"/>
			</defs>
			<clipPath id="SVGID_4_">
				<use xlink:href="#SVGID_3_"  style="overflow:visible;"/>
			</clipPath>
			<rect x="95.1" y="50.1" class="st3" width="1" height="7.1"/>
		</g>
		<g>
			<defs>
				<rect id="SVGID_5_" x="7.3" y="50" width="98.3" height="7.3"/>
			</defs>
			<clipPath id="SVGID_6_">
				<use xlink:href="#SVGID_5_"  style="overflow:visible;"/>
			</clipPath>
			<path class="st4" d="M103.3,54.5h-2.8l1.4-3.3L103.3,54.5z M105.4,57.2l-3-7.1h-1l-3,7.1h0.9l0.8-1.9h3.5l0.8,1.9H105.4z"/>
		</g>
		<g>
			<defs>
				<rect id="SVGID_7_" x="7.3" y="50" width="98.3" height="7.3"/>
			</defs>
			<clipPath id="SVGID_8_">
				<use xlink:href="#SVGID_7_"  style="overflow:visible;"/>
			</clipPath>
			<polygon class="st5" points="82,51 78.1,51 78.1,50.2 83.6,50.2 79.3,56.4 83.8,56.4 83.8,57.2 77.7,57.2 			"/>
		</g>
		<g>
			<defs>
				<rect id="SVGID_9_" x="7.3" y="50" width="98.3" height="7.3"/>
			</defs>
			<clipPath id="SVGID_10_">
				<use xlink:href="#SVGID_9_"  style="overflow:visible;"/>
			</clipPath>
			<polygon class="st6" points="50.2,57.2 50.2,51.9 47.3,57.2 44.4,51.9 44.4,57.2 43.5,57.2 43.5,50.1 44.5,50.1 47.3,55.4 
				50.1,50.1 51.1,50.1 51.1,57.2 			"/>
		</g>
		<g>
			<defs>
				<rect id="SVGID_11_" x="7.3" y="50" width="98.3" height="7.3"/>
			</defs>
			<clipPath id="SVGID_12_">
				<use xlink:href="#SVGID_11_"  style="overflow:visible;"/>
			</clipPath>
			<path class="st7" d="M12.7,52.1c0,0.7-0.6,1.1-1.4,1.1H8.3V51h3.1C12.1,51,12.7,51.4,12.7,52.1 M13.8,55.3c0-0.9-0.5-1.4-1.2-1.7
				c0.6-0.3,1.1-0.8,1.1-1.6c0-1-1-1.9-2.2-1.9H7.3v7.1h4.3C12.8,57.2,13.8,56.3,13.8,55.3 M12.8,55.2c0,0.7-0.6,1.1-1.4,1.1H8.3V54
				h3.1C12.2,54,12.8,54.5,12.8,55.2"/>
		</g>
		<g>
			<defs>
				<rect id="SVGID_13_" x="7.3" y="50" width="98.3" height="7.3"/>
			</defs>
			<clipPath id="SVGID_14_">
				<use xlink:href="#SVGID_13_"  style="overflow:visible;"/>
			</clipPath>
			<path class="st8" d="M19.5,57.3c-2.3,0-4.1-1.7-4.1-3.7c0-2,1.8-3.6,4.1-3.6c1.4,0,2.7,0.7,3.4,1.6l-0.8,0.5
				c-0.6-0.8-1.5-1.2-2.6-1.2c-1.7,0-3.1,1.3-3.1,2.8c0,1.5,1.4,2.8,3.1,2.8c1.1,0,2-0.5,2.6-1.2l0.8,0.5
				C22.1,56.7,20.9,57.3,19.5,57.3"/>
		</g>
		<g>
			<defs>
				<rect id="SVGID_15_" x="7.3" y="50" width="98.3" height="7.3"/>
			</defs>
			<clipPath id="SVGID_16_">
				<use xlink:href="#SVGID_15_"  style="overflow:visible;"/>
			</clipPath>
			<path class="st9" d="M30.4,52.1c0,0.7-0.6,1.1-1.4,1.1h-3.1V51H29C29.7,51,30.4,51.4,30.4,52.1 M31.4,55.3c0-0.9-0.5-1.4-1.2-1.7
				c0.6-0.3,1.1-0.8,1.1-1.6c0-1-1-1.9-2.1-1.9h-4.3v7.1h4.3C30.4,57.2,31.4,56.3,31.4,55.3 M30.4,55.2c0,0.7-0.6,1.1-1.4,1.1h-3.1
				V54H29C29.8,54,30.4,54.5,30.4,55.2"/>
		</g>
		<g>
			<defs>
				<rect id="SVGID_17_" x="7.3" y="50" width="98.3" height="7.3"/>
			</defs>
			<clipPath id="SVGID_18_">
				<use xlink:href="#SVGID_17_"  style="overflow:visible;"/>
			</clipPath>
			<path class="st10" d="M37.3,57.3c-2.3,0-4.1-1.7-4.1-3.7c0-2,1.8-3.6,4.1-3.6c1.4,0,2.7,0.7,3.4,1.6l-0.8,0.5
				c-0.6-0.8-1.5-1.2-2.6-1.2c-1.7,0-3.2,1.3-3.2,2.8c0,1.5,1.4,2.8,3.2,2.8c1.1,0,2.1-0.5,2.6-1.3V54h-3.1v-0.9h4v2.4
				C40,56.7,38.8,57.3,37.3,57.3"/>
		</g>
	</g>
</g>
</svg>
