<?xml version="1.0" encoding="utf-8"?>
<!-- Generator: Adobe Illustrator 24.1.3, SVG Export Plug-In . SVG Version: 6.00 Build 0)  -->
<svg version="1.1" id="Layer_1" xmlns="http://www.w3.org/2000/svg" xmlns:xlink="http://www.w3.org/1999/xlink" x="0px" y="0px"
	 viewBox="0 0 111 111" style="enable-background:new 0 0 111 111;" xml:space="preserve">
<style type="text/css">
	.st0{fill:#F2F2F2;}
	.st1{fill:#231F20;}
</style>
<path class="st0" d="M106.3,110.5H5.7c-2.8,0-5-2.2-5-5V5.1c0-2.8,2.2-5,5-5h100.7c2.8,0,5,2.2,5,5v100.4
	C111.3,108.2,109.2,110.5,106.3,110.5z"/>
<g>
	<g>
		<g>
			<g id="BUM4l2.tif_2_">
				<g>
					<path class="st1" d="M95.5,47.4c-0.7,1.1-1.8,1.6-2.9,2.1c-1.5,0.6-2.9,1.2-4.4,1.8c-0.3,0.1-0.4,0.3-0.5,0.6
						c-0.3,2.4-0.7,4.8-1,7.2c-0.1,0.6,0.1,1.2,0.1,1.8c0,0.5-0.1,1-0.2,1.5c-0.1,0.4-0.5,0.4-0.7,0.1c-0.2-0.4-0.4-0.8-0.4-1.3
						c-0.1-1.8,0.2-3.5,0.5-5.2c0.2-1.3,0.3-2.5,0.5-3.8c-0.5,0.1-0.9,0.2-1.4,0.2c0,0-0.1-0.1-0.1-0.2c0.5-0.5,1-0.9,1.4-1.4
						c0.2-0.2,0.4-0.4,0.4-0.7c0.1-0.5,0.2-1.1,0.3-1.6c0.1-0.4,0.3-0.8,0.6-1.2c0.7,0.7,0.2,1.6,0.4,2.4c0.1,0,0.3,0,0.4,0
						c1.6-0.3,3.2-0.8,4.7-1.6c0.3-0.2,0.6-0.4,0.8-0.6c0.6-0.6,0.5-1.1-0.2-1.5c-0.5-0.2-1-0.4-1.6-0.5c-2.2-0.5-4.3-0.5-6.5,0
						c-0.8,0.2-1.7,0.3-2.6,0.4c-0.2,0-0.4,0-0.5,0c0-0.1,0-0.1-0.1-0.2c0.4-0.3,0.8-0.5,1.3-0.8c1.2-0.5,2.5-0.7,3.8-0.8
						c1.9-0.1,3.9,0,5.8,0.5c1,0.3,1.8,0.8,2.2,1.7C95.5,46.8,95.5,47.1,95.5,47.4z"/>
					<path class="st1" d="M54.2,47.4c1.1-0.1,1.1-0.1,1.7,1.5c0.3-0.2,0.5-0.4,0.7-0.6c1.6-1.1,3.3-1.7,5.2-1.9
						c0.9-0.1,1.7,0,2.5,0.5c0.7,0.5,0.9,1,0.3,1.8c-0.4,0.6-1,1.1-1.5,1.6c-0.8,0.7-1.7,1.3-2.6,2c0.2,0.3,0.5,0.6,0.8,0.9
						c1.2,1.3,2.5,2.6,3.7,3.9c0.6,0.7,1,1.5,1.5,2.2c0.2,0.4,0.1,0.6-0.3,0.9c-2.1-2.4-4.2-4.7-6.3-7.1c0,0-0.1,0-0.1,0.1
						c-0.1,1.7-0.2,3.5-0.3,5.3c-0.5-0.3-0.6-0.7-0.7-1.1c-0.1-0.8-0.2-1.5-0.1-2.3c0.1-2.1,0.4-4.2,0.6-6.2c0-0.2,0.1-0.4,0.1-0.6
						c1.2,0.8,0.5,1.9,0.7,2.9c0,0,0.1,0,0.1,0c1.4-0.8,2.6-1.6,3.6-2.9c0.3-0.4,0.2-0.6-0.2-0.7c-2.4-0.3-4.6,0.1-6.5,1.7
						c-0.6,0.5-1,1.2-1,2.1c-0.1,1.9-0.4,3.8-1.1,5.6c-0.2,0.5-0.5,1.1-0.8,1.5c-0.8,1-2,1-2.7-0.1c-0.5-0.7-0.8-1.5-1-2.3
						c-0.7-2.3-0.7-4.7-0.4-7.1c0-0.2,0.3-0.4,0.4-0.4c0.1,0,0.4,0.1,0.5,0.3c0.1,0.3,0.2,0.6,0.2,1c0,0.8-0.1,1.6-0.1,2.4
						c-0.1,1.9,0.4,3.7,1.1,5.4c0.1,0.2,0.5,0.5,0.7,0.5c0.3,0,0.7-0.3,0.8-0.5c0.4-0.9,0.7-1.9,0.9-2.9c0.4-1.8,0.6-3.5,0.4-5.3
						c0-0.3-0.2-0.7-0.3-1C54.4,48.1,54.3,47.8,54.2,47.4z"/>
					<path class="st1" d="M69.3,52.1c-0.5,0.1-0.9,0.2-1.3,0.2c0,0-0.1-0.1-0.1-0.1c0.5-0.5,0.9-0.9,1.4-1.3
						c0.3-0.3,0.5-0.5,0.5-0.9c0.1-0.5,0.2-1.1,0.3-1.6c0.1-0.4,0.3-0.7,0.5-1.1c0.1,0,0.1,0,0.2,0c0.1,0.2,0.2,0.5,0.3,0.7
						c0,0.2,0,0.4,0,0.6c-0.1,1.3-0.1,1.4,1.1,1c1.3-0.4,2.5-0.9,3.8-1.4c0.4-0.2,0.8-0.5,1.1-0.8c0.5-0.5,0.5-1.2-0.2-1.4
						c-1-0.3-2-0.5-3-0.8c-1.8-0.4-3.6-0.1-5.4,0.3c-0.9,0.2-1.9,0.3-2.8,0.4c0-0.1-0.1-0.1-0.1-0.2c0.4-0.2,0.7-0.6,1-0.7
						c0.9-0.3,1.9-0.6,2.9-0.7c2.2-0.3,4.4-0.3,6.6,0.3c0.6,0.2,1.1,0.4,1.6,0.7c1.2,0.8,1.3,2.1,0.1,2.9c-0.7,0.5-1.6,1-2.4,1.4
						c-1.4,0.6-2.8,1.1-4.1,1.6c-0.3,0.1-0.4,0.3-0.5,0.6c-0.3,2.3-0.7,4.6-1,6.9c-0.1,0.5,0,1.1,0,1.7c0,0.6,0,1.2-0.2,1.8
						c-0.1,0.5-0.5,0.5-0.7,0.1c-0.2-0.4-0.4-0.9-0.4-1.3c0.1-1.8,0.3-3.6,0.5-5.4c0.1-1,0.3-2,0.4-3C69.3,52.5,69.3,52.3,69.3,52.1
						z"/>
					<path class="st1" d="M24,45.1c-2.2-0.4-3.6,0.8-4.6,2.4c-1.9,2.9-3.1,6.2-3.6,9.6c-0.1,0.5,0,1,0,1.6c0.3,2.3,1.8,3.5,4.1,3.2
						c1.2-0.2,2.4-0.6,3.7-1c1.2-0.4,2.3-0.8,3.5-1.2c0,0.1,0.1,0.1,0.1,0.2c-0.4,0.3-0.7,0.7-1.1,1c-1.4,0.9-3,1.5-4.7,1.8
						c-1,0.2-2,0.2-3,0.1c-2.1-0.3-3.4-1.6-3.7-3.8c-0.2-1.5,0-2.9,0.4-4.3c0.6-2.3,1.4-4.6,2.6-6.7c0.8-1.3,1.6-2.5,3-3.3
						c0.9-0.5,1.8-0.8,2.9-0.4C23.8,44.5,24,44.7,24,45.1z"/>
					<path class="st1" d="M34.4,59.8c1.1-0.2,2.1-0.4,3.1-0.5c1.2-0.2,2.5-0.3,3.7-0.5c0.5-0.1,0.7,0.2,0.7,0.6
						c-1.3,0.2-2.5,0.5-3.8,0.7c-1.3,0.2-2.6,0.5-3.9,0.8c-1.2,0.3-1.5-0.5-1.4-1.4c0.2-2,0.5-4.1,0.8-6.1c0.3-2.6,0.7-5.3,1-7.9
						c0-0.3,0.1-0.6,0.5-0.6c0.4,0,0.6,0.2,0.6,0.5c0,1-0.1,1.9-0.2,2.9c-0.4,3.6-0.8,7.2-1.2,10.8C34.4,59.4,34.4,59.5,34.4,59.8z"
						/>
					<path class="st1" d="M44,48.5c-0.4,0-0.7,0-1,0c0.9-1.3,3-1.6,3.9-0.1c0.7,1,1,2.2,1,3.4c0,1.7-0.4,3.4-1.2,5
						c-0.3,0.5-0.7,1.1-1.2,1.4c-1.1,0.8-2.4,0.5-3-0.8c-0.8-1.8-1-3.8-0.3-5.7C42.6,50.5,43.1,49.5,44,48.5z M47,51.4
						c-0.3-0.8,0.1-2.2-1.4-2.5c-0.2,0-0.6,0-0.7,0.1c-0.3,0.3-0.6,0.6-0.8,1c-0.6,1.2-1,2.6-1.2,3.9c-0.2,1.1,0,2,0.4,3
						c0.4,0.9,1.1,1,1.8,0.4c0.3-0.2,0.5-0.5,0.6-0.8C46.5,54.9,46.8,53.3,47,51.4z"/>
					<path class="st1" d="M79.6,48.5c-0.4,0-0.7,0-1,0c0.9-1.2,2.9-1.6,3.9-0.2c0.8,1.2,1.1,2.5,1,3.8c-0.1,1.6-0.5,3.2-1.2,4.6
						c-0.3,0.5-0.6,1-1.1,1.3c-1.2,1-2.6,0.7-3.2-0.8c-0.7-1.7-1-3.4-0.4-5.2c0.4-1.2,0.9-2.4,1.8-3.4
						C79.4,48.7,79.5,48.6,79.6,48.5z M82.5,51.4c-0.3-0.8,0.1-2.2-1.4-2.5c-0.2,0-0.6,0-0.7,0.1c-0.3,0.3-0.6,0.6-0.8,1
						c-0.5,1.3-0.9,2.6-1.2,3.9c-0.3,1,0,2,0.4,3c0.4,0.9,1.2,1.1,1.9,0.4c0.3-0.2,0.5-0.5,0.6-0.9C82,54.8,82.4,53.2,82.5,51.4z"/>
					<path class="st1" d="M28.3,48.5c-0.4,0-0.7,0-1,0c1.1-1.3,3.2-1.7,4.1,0.1c0.4,0.8,0.7,1.7,0.8,2.6c0.2,2-0.4,3.9-1.3,5.7
						c-0.3,0.5-0.7,1-1.2,1.3c-1.1,0.7-2.3,0.4-2.9-0.8c-0.8-1.7-1-3.4-0.5-5.2C26.6,50.9,27.2,49.6,28.3,48.5z M26.9,54.9
						c0.2,0.6,0.4,1.4,0.7,2.2c0.2,0.6,0.8,0.8,1.4,0.4c0.4-0.2,0.7-0.6,0.9-1c0.7-1.3,1-2.7,1.2-4.2c0.1-1,0-1.9-0.3-2.8
						c-0.2-0.6-0.7-0.6-1.2-0.7c-0.2-0.1-0.5,0.2-0.8,0.4c-0.1,0.1-0.2,0.2-0.3,0.4C27.6,51.1,27.2,52.8,26.9,54.9z"/>
				</g>
			</g>
		</g>
	</g>
</g>
</svg>
