<?xml version="1.0" encoding="utf-8"?>
<!-- Generator: Adobe Illustrator 22.0.1, SVG Export Plug-In . SVG Version: 6.00 Build 0)  -->
<svg version="1.1" id="Layer_1" xmlns="http://www.w3.org/2000/svg" xmlns:xlink="http://www.w3.org/1999/xlink" x="0px" y="0px"
	 viewBox="0 0 177.3 100.3" style="enable-background:new 0 0 177.3 100.3;" xml:space="preserve">
<style type="text/css">
	.st0{fill:#C9905C;}
	.st1{fill:#EABC8C;}
	.st2{fill:#945C49;}
	.st3{fill:#AF784A;}
	.st4{fill:#00A9CE;}
	.st5{fill:#A5714F;}
	.st6{fill:#BF8D5E;}
	.st7{fill:#242E3F;}
	.st8{fill:#364765;}
	.st9{fill:#5A82AB;}
	.st10{fill:#8E745D;}
	.st11{fill:#1F272D;}
	.st12{fill:#FFFFFF;}
	.st13{fill:#67CDF1;}
	.st14{fill:#19C2ED;}
	.st15{fill:#767676;}
	.st16{fill:#0391C5;}
	.st17{fill:#DB4B42;}
	.st18{fill:#F1D418;}
	.st19{fill:#3AB986;}
	.st20{fill:#98989A;}
</style>
<g>
	<polygon class="st0" points="22.9,52.3 36,44.8 23.6,38.8 11.2,44.8 	"/>
	<polygon class="st1" points="11.2,44.8 5.5,45.4 18.4,39.1 23.6,38.8 	"/>
	<polygon class="st1" points="23.6,38.8 29.5,38.8 41.3,44.5 36,44.8 	"/>
	<polygon class="st2" points="23.6,38.8 23.6,51.9 36,44.8 	"/>
	<polygon class="st3" points="23.6,38.8 20.7,50.9 22.9,52.3 23.6,51.9 	"/>
</g>
<g>
	<path class="st4" d="M20.1,55.4C17.1,18,30.8,8.9,36.8,6.7c7.4-2.7,15.9,0.1,20.7,6.9L55,15.3c-4-5.6-11-8-17.2-5.8
		c-11.2,4-16.7,21.1-14.8,45.7L20.1,55.4z"/>
	<g>
		<polygon class="st4" points="52.5,15.3 58.6,19.1 58.8,11.9 		"/>
	</g>
</g>
<g>
	<polygon class="st5" points="11.2,44.8 11.2,59.4 22.9,66.4 22.9,52.3 	"/>
	<polygon class="st0" points="36,44.8 22.9,52.3 22.9,66.4 36,58.9 	"/>
	<polygon class="st6" points="5.5,50.9 5.5,51.1 16.6,59.7 22.9,52.3 	"/>
	<polygon class="st1" points="11.2,44.8 5.5,50.9 16.6,59.2 22.7,52.2 	"/>
	<polygon class="st6" points="41.3,51.2 41.3,51.4 28.8,60 22.9,52.3 	"/>
	<polygon class="st1" points="36,44.8 41.3,51.2 28.9,59.5 23.1,52.2 	"/>
</g>
<g>
	<polygon class="st0" points="152.4,52.3 165.5,44.7 153,38.8 140.6,44.8 	"/>
	<polygon class="st1" points="140.6,44.8 135,45.4 147.8,39.1 153,38.8 	"/>
	<polygon class="st1" points="153,38.8 158.9,38.7 170.8,44.3 165.5,44.7 	"/>
	<polygon class="st2" points="153,38.8 153.1,51.9 165.5,44.7 	"/>
	<polygon class="st3" points="153,38.8 150.2,50.9 152.4,52.3 153.1,51.9 	"/>
</g>
<g>
	<g>
		<g>
			<polygon class="st0" points="86.7,61.4 118.9,43.3 88.7,28.5 58.2,42.9 			"/>
			<polygon class="st1" points="58.2,42.9 44.5,44 76,29 88.7,28.5 			"/>
			<polygon class="st1" points="88.7,28.5 103,28.6 131.9,42.5 118.9,43.3 			"/>
			<polygon class="st2" points="88.7,28.5 88.4,60.4 118.9,43.3 			"/>
			<polygon class="st3" points="88.7,28.5 81.4,57.9 86.7,61.4 88.4,60.4 			"/>
		</g>
		<g>
			<polygon class="st7" points="81.9,11.5 86.6,9.6 92.5,11.6 99,74.7 87.4,75.8 86.2,62.1 85.3,75.7 73.2,74.5 			"/>
			<path class="st8" d="M66.6,27.3c1.1-3.3,2.3-6.6,3.6-9.9c0,0-0.8-2.4,9.7-4.4l3.8-0.8l-0.2,26.6l-5.8,41.5l-10-1.9
				c0,0-0.7-0.4-0.6-1.6s5.5-33,5.5-33L72,30.6l-2.5,12.8l7.7,10.4c0,0.1-2.5,0.2-2.5,0.4v0.2c-0.1,1.1-1.9,1.3-2.3,0.3l-9.7-10.2
				c-0.4-0.6-0.5-1.2-0.3-1.9C63.5,37.5,64.9,32.4,66.6,27.3z"/>
			<path class="st8" d="M106.3,27.6c-1-3.4-2.2-6.7-3.4-10c0,0,0.9-2.4-9.6-4.5l-3.8-0.8l-0.2,26.6l5.2,41.5l10-1.8
				c0,0,0.7-0.4,0.6-1.5c-0.1-1.2-5-33.1-5-33.1l0.8-13.2l2.3,12.9l-5.3,10.4c0,0.1-0.1,0.3,0,0.4v0.2c0.1,1.1,1.9,1.3,2.3,0.3
				l9.8-10.1c0.4-0.6,0.5-1.2,0.4-1.9C109.2,37.9,107.9,32.7,106.3,27.6z"/>
			<path class="st9" d="M98.2,12.6c-1.5-1.9-3.3-3.6-5.5-4.9c-1.7-1-3.7-1.8-5.8-1.9c-1.2,0-2.4,0.1-3.6,0.5
				c-1.8,0.6-3.4,1.6-4.8,2.7c-1.3,1-2.5,2.2-3.5,3.4c-0.2,0.3-0.1,0.6,0.3,0.7l7.2,1.5l1,2.4l-5.7,0.6c-0.3,0-0.5,0.3-0.4,0.5
				l6.1,19.5l0.7-23.8c0-1,1-1.8,2.2-1.8h0.2c1.2,0,2.2,0.8,2.2,1.8l0.4,23.8l6.4-19.4c0.1-0.2-0.1-0.5-0.4-0.5L89.6,17l1-2.4
				l7.3-1.4C98.2,13.2,98.4,12.8,98.2,12.6z"/>
			<ellipse class="st10" cx="76.9" cy="28.7" rx="1.2" ry="1.2"/>
			<ellipse class="st10" cx="78.1" cy="37" rx="1.2" ry="1.2"/>
			<ellipse class="st10" cx="78" cy="45.4" rx="1.2" ry="1.2"/>
			<ellipse class="st10" cx="75.7" cy="53.7" rx="1.2" ry="1.2"/>
			<polygon class="st11" points="81.9,19.1 79.3,19.6 79.2,19.3 81.8,18.8 			"/>
			<ellipse class="st10" cx="96.1" cy="28.9" rx="1.2" ry="1.2"/>
			<ellipse class="st10" cx="94.9" cy="37.2" rx="1.2" ry="1.2"/>
			<ellipse class="st10" cx="94.8" cy="45.5" rx="1.2" ry="1.2"/>
			<ellipse class="st10" cx="97" cy="53.8" rx="1.2" ry="1.2"/>
			<polygon class="st11" points="91.1,19.2 93.7,19.7 93.8,19.4 91.2,18.9 			"/>
		</g>
		<g>
			<path class="st12" d="M87.3,72.4l-14.9,2c-1.5,0.2-2.9-0.9-3.1-2.4l-3.7-28c-0.2-1.5,0.9-2.9,2.4-3.1l14.9-2
				c1.5-0.2,2.9,0.9,3.1,2.4l3.7,28C89.9,70.8,88.8,72.2,87.3,72.4z"/>
			
				<rect x="68.8" y="41.6" transform="matrix(0.9916 -0.1297 0.1297 0.9916 -6.6073 10.5378)" class="st13" width="17.6" height="28.8"/>
			<polygon class="st14" points="84.8,43.6 70.7,71.4 88.2,69.2 			"/>
		</g>
		<g>
			<path class="st12" d="M104,62.1c-0.3,0.3-0.6,0.6-1,0.8c-1.7,0.7-3.6-0.2-5.1-1.3c-3.1-2.2-5.5-5.3-7.8-8.3
				c-0.2-0.3-0.5-0.6-0.6-1s-0.1-0.8-0.1-1.2c0.1-1.2,0.3-2.5,0.7-3.7c0.1-0.3,0.2-0.6,0.5-0.8c0.2-0.2,0.5-0.2,0.7-0.3
				c0.8-0.2,1.6-0.3,2.4-0.5c0.4-0.1,0.9-0.2,1.2-0.4c0.4-0.3,0.7-0.7,0.9-1.1c0.6-1,1.1-2,1.7-3c0.1-0.2,0.2-0.4,0.3-0.7
				c0-0.3-0.1-0.6-0.1-0.9c-0.3-0.8-0.5-1.6-0.8-2.3c-0.1-0.4-0.2-0.8-0.2-1.2c0.1-0.4,0.4-0.8,0.7-1.1c0.8-0.8,1.6-1.7,2.6-2.3
				c0.5-0.3,1-0.5,1.6-0.6s1.2,0.1,1.8,0.2c3,0.4,6,1,8.8,2.1c0.4,0.2,0.8,0.3,1.2,0.5c1.6,0.8,3.3,1.9,3.5,3.7
				c0.1,0.8-0.1,1.7-0.9,2.2c-0.3,0.2-0.8,0.3-1.1,0.3c-1.3,0.2-2.6,0.6-3.8,1c-0.6,0.2-1.3,0.5-1.8,0.9c-0.6,0.5-1,1.2-1.4,1.9
				c-1.2,2.1-2.5,4.2-3.7,6.3c-0.5,0.8-1,1.7-1.1,2.7s0.1,2,0.4,2.9c0.3,1.1,0.5,2.1,0.8,3.2c0.1,0.4,0.2,0.8,0.1,1.1
				C104.2,61.7,104.1,61.9,104,62.1z"/>
			<ellipse class="st15" cx="94.1" cy="50.7" rx="1.7" ry="1.7"/>
			<ellipse class="st15" cx="104.1" cy="42.9" rx="1.7" ry="1.7"/>
			<ellipse class="st12" cx="96.9" cy="45.8" rx="0.6" ry="0.6"/>
			<ellipse class="st12" cx="99.2" cy="42" rx="0.6" ry="0.6"/>
			<ellipse class="st16" cx="100.9" cy="39" rx="0.9" ry="0.9"/>
			<ellipse class="st17" cx="103" cy="35.4" rx="0.9" ry="0.9"/>
			<ellipse class="st18" cx="100.1" cy="36" rx="0.9" ry="0.9"/>
			<ellipse class="st19" cx="103.8" cy="38.2" rx="0.9" ry="0.9"/>
			<path class="st20" d="M100.6,47.9L100,49l-1.1-0.6c-0.1-0.1-0.3,0-0.4,0.1l-0.4,0.8c-0.1,0.1,0,0.3,0.1,0.4l1.1,0.6l-0.6,1.1
				c-0.1,0.1,0,0.3,0.1,0.4l0.8,0.4c0.1,0.1,0.3,0,0.4-0.1l0.6-1.1l1.1,0.6c0.1,0.1,0.3,0,0.4-0.1l0.4-0.8c0.1-0.1,0-0.3-0.1-0.4
				l-1.1-0.6l0.6-1.1c0.1-0.1,0-0.3-0.1-0.4l-0.8-0.4C100.9,47.7,100.7,47.7,100.6,47.9z"/>
		</g>
		<g>
			<polygon class="st5" points="58.2,42.9 58,78.4 86.5,95.8 86.7,61.4 			"/>
			<polygon class="st0" points="118.9,43.3 86.7,61.4 86.5,95.8 118.7,77.7 			"/>
			<polygon class="st6" points="44.4,57.6 44.4,58.1 71.2,79.2 86.7,61.4 			"/>
			<polygon class="st1" points="58.2,42.9 44.4,57.6 71.1,78.1 86.2,61 			"/>
			<polygon class="st6" points="131.8,59 131.8,59.5 101,80.2 86.7,61.4 			"/>
			<polygon class="st1" points="118.9,43.3 131.8,59 101.2,79.1 87.3,61.1 			"/>
		</g>
	</g>
	<circle class="st15" cx="75.4" cy="40.9" r="0.3"/>
</g>
<g>
	<path class="st4" d="M154.8,55.4l-3-0.2c1.9-24.5-3.6-41.6-14.8-45.7c-6.2-2.2-13.2,0.2-17.2,5.8l-2.5-1.7
		c4.8-6.7,13.3-9.5,20.7-6.9C144.1,8.9,157.8,18,154.8,55.4z"/>
	<g>
		<polygon class="st4" points="116.1,11.9 116.3,19.1 122.4,15.3 		"/>
	</g>
</g>
<g>
	<polygon class="st5" points="140.6,44.8 140.7,59.4 152.5,66.3 152.4,52.3 	"/>
	<polygon class="st0" points="165.5,44.7 152.4,52.3 152.5,66.3 165.6,58.7 	"/>
	<polygon class="st6" points="135,51 135,51.2 146.2,59.7 152.4,52.3 	"/>
	<polygon class="st1" points="140.6,44.8 135,51 146.1,59.2 152.2,52.1 	"/>
	<polygon class="st6" points="170.8,51 170.8,51.2 158.3,59.9 152.4,52.3 	"/>
	<polygon class="st1" points="165.5,44.7 170.8,51 158.4,59.4 152.6,52.1 	"/>
</g>
</svg>
