<?xml version="1.0" encoding="utf-8"?>
<!-- Generator: Adobe Illustrator 24.1.3, SVG Export Plug-In . SVG Version: 6.00 Build 0)  -->
<svg version="1.1" id="Layer_1" xmlns="http://www.w3.org/2000/svg" xmlns:xlink="http://www.w3.org/1999/xlink" x="0px" y="0px"
	 viewBox="0 0 111 111" style="enable-background:new 0 0 111 111;" xml:space="preserve">
<style type="text/css">
	.st0{fill:#F2F2F2;}
	.st1{fill:#FFFFFF;}
</style>
<path class="st0" d="M106.3,110.5H5.7c-2.8,0-5-2.2-5-5V5.1c0-2.8,2.2-5,5-5h100.7c2.8,0,5,2.2,5,5v100.4
	C111.3,108.2,109.2,110.5,106.3,110.5z"/>
<g>
	<path d="M52.4,74.5c-0.2,0-0.4-0.1-0.7-0.1C50.2,74,49,73.3,48,72c-0.7-1-1.1-2.2-1-3.5c0.1-2.3,1.1-4,3.2-5c2-1,4-1,6,0
		c1.8,0.9,2.8,2.3,3.1,4.2c0.2,1.4,0,2.7-0.8,4c-0.8,1.3-2,2.1-3.5,2.5c-0.3,0.1-0.6,0.1-0.9,0.2c0,0-0.1,0-0.1,0
		C53.4,74.5,52.9,74.5,52.4,74.5z M50.6,68.7c0,0.3,0.1,0.6,0.1,0.9c0.2,0.9,0.7,1.6,1.6,1.8c0.3,0.1,0.6,0.1,1,0.1
		c1-0.1,1.7-0.5,2.1-1.5c0.3-0.8,0.3-1.7,0-2.6c-0.3-0.7-0.8-1.2-1.6-1.4c-0.4-0.1-0.7-0.1-1.1-0.1c-0.8,0.1-1.5,0.5-1.8,1.3
		C50.7,67.7,50.6,68.2,50.6,68.7z"/>
	<path d="M56.6,31.8c0.2,0,0.4,0.1,0.6,0.1c1.7,0.1,3.3,0.6,4.8,1.3c4,1.9,6.9,5.6,7.8,9.9c0.3,1.3,0.4,2.6,0.3,3.9
		c-0.3,3.4-1.6,6.4-4,8.8c-2.1,2.2-4.6,3.6-7.6,4.1c-7.6,1.4-14.4-3.4-16.3-10.4c-0.4-1.5-0.5-3.1-0.4-4.6c0.5-6,4.7-11.1,10.5-12.6
		c0.9-0.2,1.8-0.4,2.7-0.4c0.1,0,0.1,0,0.2,0C55.7,31.8,56.2,31.8,56.6,31.8z M69,46c0-7.3-5.9-13.1-13-13.1
		c-7.2-0.1-13.2,5.7-13.2,13.1c0,7.4,5.9,13.1,13,13.2C63,59.2,69,53.3,69,46z"/>
	<path d="M66.5,74.5c-0.2,0-0.4-0.1-0.7-0.1c-1.4-0.3-2.6-1-3.5-2.1c-0.7-0.9-1.1-1.9-1.1-3.1c-0.1-1,0.1-1.9,0.4-2.8
		c0.6-1.5,1.7-2.5,3.1-3c1.4-0.5,2.8-0.6,4.3-0.3c1,0.2,1.8,0.8,2.5,1.5c0.2,0.2,0.3,0.3,0.4,0.5c0.4,0.5,0.5,1.1,0.2,1.7
		c-0.3,0.6-0.8,0.9-1.4,0.9c-0.6,0-1-0.2-1.3-0.7c-0.4-0.5-0.9-0.9-1.5-1c-0.6-0.1-1.1-0.1-1.7,0.1c-0.6,0.3-1,0.7-1.2,1.3
		c-0.3,0.8-0.3,1.7,0.1,2.5c0.4,0.9,1.1,1.4,2,1.4c0.8,0.1,1.6-0.2,2.2-0.8c0.1-0.1,0.2-0.2,0.3-0.3c0.5-0.5,1.1-0.6,1.7-0.4
		c0.6,0.2,1,0.7,1,1.4c0,0.4-0.1,0.8-0.4,1.1c-0.8,0.9-1.8,1.6-3,1.9c-0.2,0.1-0.5,0.1-0.7,0.1c0,0-0.1,0-0.1,0
		C67.6,74.5,67,74.5,66.5,74.5z"/>
	<path d="M24.1,68.2c0-0.1,0.1-0.2,0.1-0.2c0.3-2.3,1.6-3.8,3.7-4.6c1-0.4,2.1-0.5,3.2-0.4c0.7,0.1,1.3,0.2,1.9,0.5
		c0.6,0.3,1.2,0.7,1.6,1.3c0.1,0.1,0.2,0.3,0.3,0.4c0.6,0.7,0.5,1.7-0.3,2.3c-0.7,0.6-1.8,0.4-2.3-0.3c-0.4-0.6-1-1-1.7-1.1
		c-0.9-0.2-1.9,0.1-2.5,1c-0.3,0.5-0.4,1.1-0.4,1.8c0,0.4,0.1,0.8,0.3,1.2c0.4,0.9,1.1,1.3,2,1.4c0.9,0.1,1.6-0.2,2.2-0.8
		c0.1-0.1,0.2-0.2,0.3-0.3c0.5-0.4,1-0.6,1.6-0.4c0.6,0.2,1,0.6,1.1,1.2c0.1,0.5,0,0.9-0.3,1.3c-0.8,1-1.9,1.7-3.2,1.9
		c-0.2,0-0.4,0.1-0.7,0.1c-0.5,0-1.1,0-1.6,0c0,0-0.1,0-0.1,0c-0.3,0-0.5-0.1-0.8-0.1c-2.5-0.6-4.1-2.6-4.4-4.9c0-0.1,0-0.1-0.1-0.2
		C24.1,68.8,24.1,68.5,24.1,68.2z"/>
	<path d="M77.9,74.5c-0.2,0-0.5-0.1-0.7-0.1c-1.1-0.2-2.1-0.6-2.9-1.4c-0.6-0.5-0.7-1.4-0.2-2c0.5-0.6,1.3-0.7,1.9-0.2
		c0.4,0.3,0.8,0.6,1.3,0.7c0.7,0.2,1.4,0.2,2.1,0.1c0.1,0,0.2-0.1,0.3-0.1c0.2-0.1,0.3-0.3,0.3-0.5c0-0.2-0.1-0.4-0.3-0.5
		c-0.2-0.1-0.4-0.2-0.6-0.2c-0.6-0.2-1.2-0.3-1.8-0.4c-0.6-0.2-1.1-0.4-1.6-0.7c-0.8-0.6-1.3-1.3-1.4-2.3c-0.1-0.5,0-1,0.1-1.5
		c0.2-0.9,0.8-1.6,1.7-2c0.5-0.2,1-0.4,1.5-0.4c0.9-0.1,1.9-0.1,2.8,0.2c0.9,0.2,1.7,0.7,2.3,1.4c0.8,0.8,0.4,2.1-0.7,2.3
		c-0.5,0.1-0.9,0-1.2-0.3c-0.4-0.3-0.9-0.6-1.4-0.8c-0.5-0.1-0.9-0.2-1.4-0.1c-0.1,0-0.2,0.1-0.3,0.1c-0.4,0.2-0.4,0.7-0.1,1
		c0.2,0.1,0.3,0.2,0.5,0.2c0.5,0.1,1,0.2,1.5,0.4c0.6,0.1,1.3,0.3,1.9,0.7c0.4,0.2,0.8,0.5,1.1,0.8c0.4,0.5,0.6,1,0.7,1.6
		c0,0.6,0,1.1-0.2,1.7c-0.2,0.8-0.7,1.4-1.4,1.8c-0.5,0.3-1,0.4-1.6,0.5c-0.2,0-0.3,0.1-0.5,0.1C79,74.5,78.5,74.5,77.9,74.5z"/>
	<path d="M87.7,64.9C87.7,64.9,87.7,65,87.7,64.9c-0.2,0.2-0.4,0.2-0.4,0.1c0-0.1,0-0.1,0-0.2c0-0.2,0-0.5,0-0.7c0-0.1,0-0.1,0-0.2
		c0-0.2-0.1-0.3-0.2-0.3c-0.1,0-0.3,0.1-0.3,0.2c0,0.1,0,0.2,0,0.4c0,0.2,0,0.4,0,0.6c0,0.1,0,0.1,0,0.2c0,0.1-0.1,0.2-0.2,0.2
		c-0.1,0-0.2-0.1-0.2-0.2c0-0.1,0-0.1,0-0.2c0-0.2,0-0.5,0-0.7c0-0.1,0-0.1,0-0.2c0-0.1-0.1-0.2-0.2-0.2c-0.1,0-0.3,0-0.3,0.1
		c0,0.1-0.1,0.2-0.1,0.2c0,0.2,0,0.5,0,0.7c0,0.1,0,0.2,0,0.2c0,0.1-0.1,0.2-0.2,0.2c-0.1,0-0.2-0.1-0.2-0.2c0-0.1,0-0.1,0-0.2
		c0-0.4,0-0.8,0-1.1c0-0.1,0-0.1,0-0.2c0-0.1,0.1-0.2,0.2-0.2c0.1,0,0.2,0,0.2,0.1c0,0,0,0.1,0,0.1c0.2-0.1,0.3-0.2,0.5-0.2
		c0.2,0,0.4,0.1,0.5,0.3c0.1,0,0.1-0.1,0.1-0.1c0.2-0.2,0.4-0.2,0.6-0.1c0.2,0.1,0.3,0.2,0.3,0.4c0,0,0,0.1,0,0.1
		C87.7,64.1,87.7,64.5,87.7,64.9z"/>
	<path d="M40.7,64.7c0.2-0.1,0.3-0.3,0.5-0.4c0.6-0.5,1.3-0.8,2-0.9c0.4-0.1,0.9-0.1,1.3,0c0.4,0.1,0.8,0.3,1.1,0.5
		c0.5,0.5,0.7,1.3,0.5,1.9c-0.3,0.7-0.8,1.1-1.5,1.2c-0.3,0-0.6,0-0.8-0.1c-0.6-0.1-1.1,0-1.5,0.2c-0.6,0.3-0.9,0.8-1.2,1.4
		c-0.2,0.6-0.3,1.2-0.4,1.8c0,0.8,0,1.6,0,2.3c0,0.9-0.6,1.6-1.4,1.8c-1.1,0.2-2.2-0.6-2.2-1.7c0-2.6,0-5.2,0-7.8
		c0-0.9,0.7-1.7,1.6-1.8c1-0.1,1.8,0.5,2,1.5C40.7,64.6,40.7,64.6,40.7,64.7z"/>
	<path d="M83.9,63.6c-0.1,0-0.3,0-0.3-0.2c0-0.1,0.1-0.2,0.3-0.2c0-0.1,0-0.3,0-0.4c0-0.1,0-0.1,0.1-0.2c0.1,0,0.1-0.1,0.2-0.1
		c0.1,0,0.2,0.1,0.2,0.2c0,0.1,0,0.2,0,0.3c0,0.1,0,0.1,0,0.2c0.1,0,0.1,0,0.2,0c0.1,0,0.2,0.1,0.2,0.2c0,0.1-0.1,0.1-0.2,0.2
		c-0.1,0-0.1,0-0.2,0c0,0.3,0,0.6,0,1c0,0.1,0.1,0.2,0.2,0.1c0,0,0.1,0,0.1,0c0.1,0,0.1,0,0.2,0.1c0,0.1,0,0.2-0.1,0.2
		c-0.1,0-0.2,0.1-0.2,0.1c-0.1,0-0.2,0-0.3,0c-0.2,0-0.3-0.1-0.3-0.3c0-0.1,0-0.2,0-0.3C83.9,64.2,83.9,63.9,83.9,63.6z"/>
	<path class="st1" d="M69,46c0,7.3-6,13.2-13.2,13.1c-7.1-0.1-13.1-5.8-13-13.2c0-7.4,6.1-13.1,13.2-13.1C63.1,32.9,69,38.7,69,46z
		 M68,48.9c1.5-6-1.9-12.9-8.7-14.8c-7-2-14,2.4-15.5,9.2C42.2,50.4,47,57.1,54,58.2c6.7,1.1,12.1-3.4,13.6-8c0,0-0.1,0.1-0.1,0.1
		c-0.3,0.3-0.7,0.6-1.1,0.7c-0.6,0.3-1.3,0.3-2,0.2c-0.3,0-0.6-0.1-0.8-0.2c-0.3-0.1-0.4,0-0.5,0.2c0,0.1-0.1,0.2-0.1,0.3
		c-0.1,0.2-0.1,0.5-0.2,0.7c-0.1,0.2-0.1,0.5-0.2,0.7c-0.1,0.3-0.3,0.5-0.5,0.5c-0.2,0.1-0.4,0-0.4-0.3c0-0.1,0-0.3,0-0.4
		c0.1-0.4,0.2-0.7,0.3-1.1c0-0.1,0-0.3,0-0.4c0-0.1,0-0.2-0.1-0.2c-0.1,0-0.2,0-0.3,0.1c0,0-0.1,0.1-0.1,0.2c0,0.1-0.1,0.2-0.1,0.3
		c-0.1,0.3-0.2,0.7-0.2,1c-0.1,0.3-0.3,0.6-0.5,0.8c-0.2,0.2-0.4,0.1-0.5-0.1c0-0.2-0.1-0.4,0-0.5c0.1-0.4,0.2-0.9,0.4-1.3
		c0-0.1,0.1-0.1,0.1-0.2c0-0.1,0-0.1,0-0.2c-0.1,0-0.2,0.1-0.3,0.1c-0.4,0.3-0.7,0.7-0.8,1.2c-0.1,0.2-0.2,0.4-0.4,0.5
		c-0.3,0.1-0.5,0-0.5-0.3c0-0.1,0-0.2,0-0.3c0.1-0.7,0.4-1.2,0.9-1.7c0.4-0.4,0.9-0.7,1.4-0.9c0.4-0.1,0.9-0.1,1.3,0
		c0.3,0,0.5,0.1,0.8,0.1c0.1,0,0.2,0,0.2-0.1c0-0.1,0-0.2-0.1-0.2c0,0-0.1-0.1-0.1-0.1c-0.1-0.1-0.3-0.1-0.4-0.2
		c-0.4-0.1-0.8-0.2-1.2-0.1c-0.6,0-1.2,0.1-1.6,0.6c-0.1,0.1-0.2,0.1-0.3,0.1c-0.3-0.1-0.5-0.2-0.5-0.6c0-0.2,0-0.5,0-0.7
		c0-0.3,0-0.6,0-1c0-0.2-0.1-0.4-0.2-0.5c-0.1-0.2-0.3-0.3-0.4-0.5c-0.1-0.1-0.2-0.3-0.3-0.5c-0.1-0.2-0.1-0.3,0-0.5
		c0.1-0.2,0.2-0.3,0.3-0.5c0.8-0.9,1-1.9,0.9-3c0-0.1-0.1-0.2-0.1-0.3c-0.1-0.1-0.1-0.2-0.3-0.2c-0.1,0-0.1,0.2-0.1,0.3
		c0,0.3,0,0.5,0,0.8c0,0.4-0.1,0.9-0.3,1.3c-0.2,0.5-0.6,0.8-1.1,1c-0.4,0.2-0.9,0.3-1.3,0.1c-0.1,0-0.1,0-0.2,0.1c0,0,0,0.1,0,0.1
		c0,0.2,0,0.4-0.1,0.5c-0.1,0.1-0.2,0.3-0.4,0.4c-1.1,0.8-2.2,1.5-3.4,1.8c-0.2,0.1-0.4,0.2-0.5,0.4c-0.1,0.1-0.2,0.2-0.3,0.3
		c-0.2,0.1-0.3,0.2-0.5,0.2c-0.3,0.1-0.7,0.1-1-0.1c-0.4-0.2-0.4-0.7-0.1-0.9c0.1-0.1,0.3-0.2,0.5-0.2c0.3-0.1,0.6-0.3,0.8-0.5
		c0.1-0.1,0.2-0.3,0.3-0.4c0.1-0.2,0.1-0.4,0.2-0.5c0.1-0.2,0.2-0.2,0.4-0.1c0.1,0,0.2,0.1,0.3,0.1c0.2,0.1,0.4,0,0.5-0.1
		c0.1-0.1,0.2-0.3,0.2-0.4c0.1-0.3,0.2-0.6,0.5-0.9c0.2-0.2,0.3-0.5,0.2-0.8c0-0.3,0-0.5,0.1-0.8c0.1-0.2,0.2-0.3,0.4-0.2
		c0.1,0,0.2,0.1,0.2,0.1c0.2,0.1,0.3,0.1,0.5,0.2c0.2,0,0.4,0,0.6,0c0.2-0.1,0.2-0.1,0.2-0.3c0-0.3,0-0.6,0-0.9
		c0-0.5,0.2-0.9,0.6-1.2c0.1-0.1,0.2-0.2,0.3-0.3c0.2-0.2,0.2-0.7,0-1c0,0,0,0-0.1,0c-0.1,0.1-0.1,0.2-0.2,0.2
		c-0.1,0.2-0.2,0.3-0.3,0.5c-0.2,0.2-0.6,0.4-1,0.1c0,0-0.1-0.1-0.1-0.1c-0.1-0.1-0.2,0-0.2,0c-0.1,0.1,0,0.1,0,0.2
		c0,0,0.1,0.1,0.1,0.1c0.2,0.1,0.3,0.3,0.3,0.5c0,0.3,0,0.5,0,0.8c0,0.1,0,0.2,0,0.3c0,0.3-0.2,0.5-0.6,0.5c0,0-0.1,0-0.1,0
		c-0.3,0-0.6-0.1-0.8-0.1c-0.2-0.1-0.4,0.1-0.5,0.3c0,0.1,0,0.2,0,0.4c0,0.7-0.2,1.3-0.5,1.9c-0.1,0.2-0.2,0.3-0.3,0.4
		c-0.1,0.1-0.3,0.2-0.5,0.1c-0.2-0.1-0.5-0.2-0.7-0.3c0,0-0.1,0-0.2,0c0,0,0,0.1,0,0.1c0.1,0.2,0.1,0.5,0,0.7
		c-0.1,0.2-0.2,0.3-0.5,0.2c-0.1,0-0.2-0.1-0.3-0.1c-0.2,0-0.3,0-0.4,0.2c0,0,0,0.1,0,0.1c-0.3,0.9-1,1.3-1.9,1.2
		c-0.2,0-0.4-0.1-0.6-0.3c-0.2-0.3-0.5-0.6-0.9-0.8c-0.2-0.1-0.4-0.2-0.6-0.3c-0.2-0.1-0.3-0.2-0.4-0.3c-0.2-0.2-0.3-0.5-0.2-0.8
		c0-0.1,0.1-0.1,0.1-0.2c0-0.2,0.1-0.4,0.3-0.5c0.1-0.1,0.3-0.3,0.5-0.4c0.3-0.2,0.6-0.4,0.8-0.6c0.2-0.1,0.4-0.3,0.5-0.6
		c0.1-0.2,0.2-0.5,0.3-0.7c0.1-0.4,0.3-0.7,0.5-0.9c0.3-0.3,0.6-0.6,0.9-0.8c0.2-0.1,0.4-0.2,0.6-0.4c0.2-0.2,0.4-0.4,0.5-0.7
		c0.2-0.4,0.3-0.8,0.4-1.2c0-0.1,0-0.2,0.2-0.3c0,0.1,0.1,0.1,0.1,0.2c0.1,0.1,0.1,0.2,0.2,0.2c0.3,0.3,1,0.2,1.3-0.1
		c0.2-0.2,0.3-0.5,0.4-0.8c0.1-0.4-0.1-0.8-0.5-1c-0.4-0.2-0.8-0.2-1.1,0.2c0,0-0.1,0.1-0.1,0.1c0,0-0.1,0-0.1,0.1
		c0-0.1-0.1-0.2-0.1-0.3c0-0.2,0-0.3,0.1-0.5c0.2-0.4,0.4-0.8,0.6-1.2c0.1-0.1,0.1-0.2,0.2-0.3c0.3-0.3,0.7-0.4,1,0
		c0.1,0.1,0.2,0.3,0.3,0.4c0.1,0.1,0.2,0.3,0.3,0.4C53.7,36,53.8,36,54,36c0.5-0.1,0.8-0.3,1.2-0.6c0.2-0.2,0.3-0.3,0.5-0.4
		c0.3-0.3,0.7-0.3,1,0c0.1,0,0.1,0.1,0.2,0.2c0.3,0.3,0.6,0.6,0.9,0.9c0.2,0.2,0.3,0.4,0.5,0.6c0.2,0.2,0.4,0.2,0.6,0.1
		c0.1-0.1,0.2-0.1,0.3-0.2c0.2-0.1,0.5-0.2,0.7-0.2c0.2,0,0.3,0.1,0.3,0.3c0,0.1,0,0.2,0,0.3c0,0.2-0.1,0.4-0.1,0.7
		c0,0.2,0,0.2,0.2,0.2c0.1,0,0.2,0,0.4,0c0.3,0,0.4,0.2,0.3,0.5c0,0.1-0.1,0.2-0.1,0.3c0,0.1-0.1,0.2-0.2,0.3
		c-0.2,0.3-0.1,0.5,0.2,0.5c0.1,0,0.2,0,0.3,0.1c0.3,0.1,0.3,0.3,0.2,0.5c0,0.1-0.1,0.2-0.2,0.3c-0.1,0.2-0.1,0.3,0,0.5
		c0.1,0.1,0.2,0.1,0.3,0.1c0.1,0,0.2,0,0.3,0c0.3,0,0.4,0.1,0.4,0.4c0,0.4-0.2,0.7-0.5,0.9c-0.1,0-0.1,0.1-0.1,0.1
		c-0.2,0.2-0.2,0.4,0.2,0.5c0.1,0,0.3,0.1,0.4,0.1c0.2,0.1,0.3,0.2,0.3,0.4c0,0.2-0.1,0.4-0.2,0.6c-0.2,0.2-0.1,0.5,0.2,0.6
		c0.1,0,0.2,0.1,0.3,0.1c0.1,0.1,0.3,0.1,0.4,0.2c0.1,0.1,0.2,0.2,0.1,0.4c-0.1,0.2-0.1,0.5-0.1,0.7c0,0.1,0,0.3,0,0.4
		c0,0.2-0.1,0.2-0.3,0.2c-0.1,0-0.2-0.1-0.3-0.1c-0.5-0.1-1.1,0-1.6,0.2c-0.2,0.1-0.3,0.2-0.5,0.3c-0.1,0.1-0.1,0.1-0.1,0.2
		c0.1,0.1,0.1,0,0.2,0c0.2-0.1,0.5-0.1,0.7-0.2c0.7-0.2,1.3-0.1,2,0.1c0.3,0.1,0.5,0.2,0.7,0.4c0.1,0.1,0.2,0.2,0.2,0.3
		c0,0,0.1,0,0.1,0c0.9-0.2,1.7-0.1,2.5,0.3C67.5,48.2,67.8,48.4,68,48.9z M55.1,38.9c0.1,0,0.3,0,0.4-0.1c0.2,0,0.4-0.2,0.5-0.4
		c0.2-0.3,0.2-0.6,0.2-0.9c-0.1-0.3-0.2-0.6-0.5-0.8c-0.2-0.2-0.5-0.2-0.8-0.2c-0.4,0.1-0.6,0.4-0.7,0.7c-0.1,0.2-0.1,0.5-0.1,0.8
		C54.1,38.5,54.5,38.9,55.1,38.9z M48.7,45.8c-0.1,0-0.2,0-0.2,0c-0.1,0-0.1,0.1-0.2,0.1c-0.1,0.1-0.2,0.2-0.2,0.3
		c0,0.1,0,0.2,0.1,0.3c0.1,0.1,0.2,0.1,0.3,0c0.1-0.1,0.2-0.2,0.2-0.3C48.7,46.1,48.7,46,48.7,45.8z M46.4,44.9
		c-0.1,0-0.2,0.1-0.3,0.1c-0.1,0-0.2,0.2-0.3,0.3c0,0,0,0.1,0.1,0.1c0.1,0,0.2,0,0.3,0C46.3,45.3,46.4,45.2,46.4,44.9z"/>
	<path d="M68,48.9c-0.1-0.4-0.4-0.6-0.8-0.8c-0.8-0.4-1.7-0.5-2.5-0.3c0,0-0.1,0-0.1,0c-0.1-0.1-0.2-0.2-0.2-0.3
		c-0.2-0.2-0.4-0.4-0.7-0.4c-0.7-0.2-1.3-0.3-2-0.1c-0.2,0.1-0.5,0.1-0.7,0.2c-0.1,0-0.2,0.1-0.2,0c-0.1-0.1,0-0.2,0.1-0.2
		c0.2-0.1,0.3-0.2,0.5-0.3c0.5-0.2,1-0.3,1.6-0.2c0.1,0,0.2,0.1,0.3,0.1c0.2,0.1,0.3,0,0.3-0.2c0-0.1,0-0.3,0-0.4
		c0-0.2,0-0.5,0.1-0.7c0.1-0.2,0-0.3-0.1-0.4c-0.1-0.1-0.2-0.1-0.4-0.2c-0.1,0-0.2-0.1-0.3-0.1c-0.3-0.1-0.3-0.4-0.2-0.6
		c0.1-0.2,0.2-0.4,0.2-0.6c0-0.2-0.1-0.4-0.3-0.4c-0.1,0-0.3-0.1-0.4-0.1c-0.3-0.1-0.4-0.3-0.2-0.5c0,0,0.1-0.1,0.1-0.1
		c0.3-0.2,0.4-0.6,0.5-0.9c0-0.3-0.1-0.4-0.4-0.4c-0.1,0-0.2,0-0.3,0c-0.1,0-0.2,0-0.3-0.1c-0.2-0.2-0.2-0.3,0-0.5
		c0.1-0.1,0.1-0.2,0.2-0.3c0.1-0.2,0-0.4-0.2-0.5c-0.1,0-0.2,0-0.3-0.1c-0.3-0.1-0.4-0.3-0.2-0.5c0.1-0.1,0.1-0.2,0.2-0.3
		c0-0.1,0.1-0.2,0.1-0.3c0.1-0.2-0.1-0.5-0.3-0.5c-0.1,0-0.2,0-0.4,0c-0.2,0-0.3,0-0.2-0.2c0-0.2,0.1-0.4,0.1-0.7c0-0.1,0-0.2,0-0.3
		c0-0.2-0.1-0.3-0.3-0.3c-0.2,0-0.5,0-0.7,0.2c-0.1,0.1-0.2,0.1-0.3,0.2c-0.2,0.1-0.4,0.1-0.6-0.1c-0.2-0.2-0.4-0.4-0.5-0.6
		c-0.3-0.3-0.5-0.6-0.9-0.9c-0.1,0-0.1-0.1-0.2-0.2c-0.4-0.3-0.7-0.3-1,0c-0.2,0.1-0.3,0.3-0.5,0.4c-0.3,0.3-0.7,0.5-1.2,0.6
		c-0.2,0-0.3,0-0.4-0.1c-0.1-0.1-0.2-0.3-0.3-0.4c-0.1-0.1-0.2-0.3-0.3-0.4c-0.3-0.4-0.8-0.3-1,0c-0.1,0.1-0.1,0.2-0.2,0.3
		c-0.3,0.4-0.5,0.8-0.6,1.2C51,36.6,51,36.8,51,37c0,0.1,0,0.2,0.1,0.3c0.1,0,0.1,0,0.1-0.1c0.1,0,0.1-0.1,0.1-0.1
		c0.3-0.3,0.7-0.4,1.1-0.2c0.4,0.2,0.6,0.6,0.5,1c0,0.3-0.1,0.6-0.4,0.8c-0.3,0.3-1,0.3-1.3,0.1c-0.1-0.1-0.1-0.2-0.2-0.2
		c0,0-0.1-0.1-0.1-0.2c-0.1,0.1-0.1,0.2-0.2,0.3c-0.1,0.4-0.3,0.8-0.4,1.2c-0.1,0.3-0.3,0.5-0.5,0.7c-0.2,0.1-0.4,0.3-0.6,0.4
		c-0.3,0.2-0.6,0.5-0.9,0.8c-0.2,0.3-0.4,0.6-0.5,0.9c-0.1,0.3-0.2,0.5-0.3,0.7c-0.1,0.3-0.3,0.5-0.5,0.6c-0.3,0.2-0.6,0.4-0.8,0.6
		c-0.2,0.1-0.3,0.2-0.5,0.4c-0.2,0.1-0.3,0.3-0.3,0.5c0,0.1,0,0.1-0.1,0.2c-0.1,0.3,0,0.5,0.2,0.8c0.1,0.1,0.3,0.2,0.4,0.3
		c0.2,0.1,0.4,0.2,0.6,0.3c0.4,0.2,0.7,0.4,0.9,0.8c0.1,0.2,0.3,0.3,0.6,0.3c0.9,0.1,1.6-0.3,1.9-1.2c0,0,0-0.1,0-0.1
		c0.1-0.2,0.2-0.3,0.4-0.2c0.1,0,0.2,0.1,0.3,0.1c0.2,0,0.4,0,0.5-0.2c0.1-0.2,0.1-0.5,0-0.7c0,0,0-0.1,0-0.1c0.1,0,0.1,0,0.2,0
		c0.2,0.2,0.4,0.2,0.7,0.3c0.2,0.1,0.4,0,0.5-0.1c0.1-0.1,0.3-0.3,0.3-0.4c0.3-0.6,0.5-1.2,0.5-1.9c0-0.1,0-0.2,0-0.4
		c0-0.2,0.2-0.4,0.5-0.3c0.3,0.1,0.5,0.1,0.8,0.1c0,0,0.1,0,0.1,0c0.3,0,0.5-0.2,0.6-0.5c0-0.1,0-0.2,0-0.3c0-0.3,0-0.5,0-0.8
		c0-0.2-0.1-0.4-0.3-0.5c-0.1,0-0.1-0.1-0.1-0.1c0,0-0.1-0.1,0-0.2c0.1-0.1,0.1-0.1,0.2,0c0,0,0.1,0,0.1,0.1c0.3,0.3,0.8,0.1,1-0.1
		c0.1-0.1,0.2-0.3,0.3-0.5c0.1-0.1,0.1-0.2,0.2-0.2c0,0,0.1,0,0.1,0c0.2,0.3,0.2,0.8,0,1c-0.1,0.1-0.2,0.2-0.3,0.3
		c-0.4,0.3-0.6,0.7-0.6,1.2c0,0.3,0,0.6,0,0.9c0,0.2-0.1,0.3-0.2,0.3c-0.2,0.1-0.4,0.1-0.6,0c-0.2,0-0.3-0.1-0.5-0.2
		c-0.1,0-0.2-0.1-0.2-0.1c-0.2-0.1-0.3,0-0.4,0.2c-0.1,0.3-0.2,0.5-0.1,0.8c0,0.3,0,0.5-0.2,0.8c-0.2,0.2-0.4,0.5-0.5,0.9
		c0,0.2-0.1,0.3-0.2,0.4c-0.2,0.1-0.3,0.2-0.5,0.1c-0.1,0-0.2-0.1-0.3-0.1c-0.2-0.1-0.3-0.1-0.4,0.1c-0.1,0.2-0.2,0.3-0.2,0.5
		c-0.1,0.2-0.1,0.3-0.3,0.4c-0.2,0.2-0.5,0.4-0.8,0.5c-0.2,0.1-0.3,0.1-0.5,0.2c-0.3,0.2-0.4,0.7,0.1,0.9c0.3,0.1,0.6,0.2,1,0.1
		c0.2-0.1,0.3-0.1,0.5-0.2c0.1-0.1,0.2-0.2,0.3-0.3c0.1-0.2,0.3-0.3,0.5-0.4c1.3-0.4,2.4-1,3.4-1.8c0.1-0.1,0.3-0.2,0.4-0.4
		c0.1-0.1,0.2-0.3,0.1-0.5c0,0,0-0.1,0-0.1c0-0.1,0.1-0.1,0.2-0.1c0.5,0.2,0.9,0.1,1.3-0.1c0.5-0.2,0.9-0.5,1.1-1
		c0.2-0.4,0.3-0.9,0.3-1.3c0-0.3,0-0.5,0-0.8c0-0.1,0-0.3,0.1-0.3c0.1,0,0.2,0.1,0.3,0.2c0.1,0.1,0.1,0.2,0.1,0.3
		c0.1,1.1-0.2,2.1-0.9,3c-0.1,0.1-0.2,0.3-0.3,0.5c-0.1,0.2-0.1,0.3,0,0.5c0.1,0.2,0.2,0.3,0.3,0.5c0.1,0.2,0.2,0.3,0.4,0.5
		c0.1,0.1,0.2,0.3,0.2,0.5c0,0.3,0,0.6,0,1c0,0.2,0,0.5,0,0.7c0,0.4,0.2,0.5,0.5,0.6c0.1,0,0.2,0,0.3-0.1c0.4-0.5,1-0.6,1.6-0.6
		c0.4,0,0.8,0,1.2,0.1c0.2,0,0.3,0.1,0.4,0.2c0,0,0.1,0.1,0.1,0.1c0.1,0.1,0.1,0.1,0.1,0.2c0,0.1-0.1,0.1-0.2,0.1
		c-0.3,0-0.5-0.1-0.8-0.1c-0.4-0.1-0.9-0.1-1.3,0c-0.6,0.1-1,0.5-1.4,0.9c-0.5,0.5-0.8,1-0.9,1.7c0,0.1,0,0.2,0,0.3
		c0,0.3,0.2,0.4,0.5,0.3c0.2-0.1,0.4-0.3,0.4-0.5c0.2-0.5,0.5-0.9,0.8-1.2c0.1-0.1,0.2-0.2,0.3-0.1c0,0.1,0,0.1,0,0.2
		c0,0.1-0.1,0.2-0.1,0.2c-0.2,0.4-0.3,0.8-0.4,1.3c0,0.2,0,0.4,0,0.5c0.1,0.3,0.3,0.3,0.5,0.1c0.2-0.2,0.4-0.5,0.5-0.8
		c0.1-0.3,0.2-0.7,0.2-1c0-0.1,0.1-0.2,0.1-0.3c0-0.1,0.1-0.1,0.1-0.2c0.1-0.1,0.2-0.2,0.3-0.1c0.1,0,0.1,0.1,0.1,0.2
		c0,0.1,0,0.3,0,0.4c-0.1,0.4-0.2,0.7-0.3,1.1c0,0.1,0,0.3,0,0.4c0,0.2,0.2,0.3,0.4,0.3c0.3-0.1,0.4-0.3,0.5-0.5
		c0.1-0.2,0.1-0.5,0.2-0.7c0.1-0.2,0.1-0.5,0.2-0.7c0-0.1,0.1-0.2,0.1-0.3c0.1-0.2,0.2-0.3,0.5-0.2c0.3,0.1,0.6,0.1,0.8,0.2
		c0.7,0.1,1.4,0,2-0.2c0.4-0.2,0.8-0.4,1.1-0.7c0,0,0.1-0.1,0.1-0.1c-1.5,4.6-6.8,9.1-13.6,8c-7-1.1-11.7-7.8-10.2-14.9
		c1.5-6.9,8.5-11.3,15.5-9.2C66.1,36,69.5,42.9,68,48.9z M48.2,52.8c0,0.1,0,0.1,0,0.2c0,0.2,0.2,0.3,0.4,0.2c0.2,0,0.3-0.1,0.4-0.3
		c0.1-0.3,0.2-0.6,0.2-0.8c0.1-0.4,0.2-0.8,0.5-1.1c0.1-0.1,0.2-0.2,0.4-0.2c0.1,0,0.2,0,0.3,0.1c0.3,0.1,0.6,0.1,0.8-0.2
		c0.1-0.1,0.1-0.2,0.2-0.3c0.1-0.2,0.2-0.4,0.4-0.6c0.1-0.1,0.2-0.3,0.3-0.4c0-0.1,0.1-0.2,0.1-0.2c0-0.1,0-0.1-0.1-0.2
		c-0.1-0.1-0.1,0-0.2,0c-0.1,0.1-0.2,0.2-0.3,0.3c-0.2,0.2-0.4,0.3-0.7,0.3c-0.2,0-0.4,0-0.7,0c-0.6-0.1-1.2-0.1-1.7-0.2
		c-0.3,0-0.6,0-1,0.1c-1.1,0.4-1.7,1.1-1.9,2.2c0,0.1,0,0.3,0.1,0.4c0.1,0.2,0.4,0.3,0.5,0.1c0.1-0.1,0.1-0.2,0.2-0.3
		c0.1-0.3,0.2-0.5,0.4-0.8c0.1-0.1,0.2-0.2,0.3-0.4c0,0,0.1-0.1,0.2-0.1c0.1,0,0.1,0,0.2,0c0,0,0,0.1,0,0.1c0,0,0,0,0,0.1
		c-0.1,0.2-0.3,0.5-0.4,0.7c-0.2,0.3-0.3,0.7-0.3,1.1c0,0.2,0.1,0.3,0.3,0.3c0.1,0.1,0.3,0,0.4-0.1c0.1-0.1,0.1-0.2,0.2-0.3
		c0.1-0.2,0.2-0.5,0.3-0.7c0.1-0.2,0.2-0.4,0.3-0.7c0.1-0.2,0.3-0.4,0.5-0.5c0.1,0,0.2-0.1,0.2,0c0.1,0,0.1,0.2,0,0.2
		c0,0,0,0.1-0.1,0.1c0,0.1-0.1,0.1-0.1,0.2C48.3,51.8,48.2,52.3,48.2,52.8z M56.2,51.1c0.4,0,0.9,0,1.3,0c0.2,0,0.4,0,0.6-0.1
		c0.2,0,0.3-0.1,0.5-0.3c0.1-0.1,0.1-0.2,0.2-0.3c0-0.2,0-0.3-0.2-0.3c-0.1,0-0.3,0-0.4,0c-0.1,0-0.2,0-0.3,0c-0.7,0-1.3,0-2,0
		c-0.7,0-1.3-0.1-2-0.2c-0.3-0.1-0.7-0.2-1-0.3c-0.1,0-0.2,0-0.4,0c-0.2,0-0.3,0.1-0.3,0.3c0,0.2,0,0.4,0.2,0.5
		c0.1,0.1,0.3,0.1,0.4,0.1c0.2,0,0.4,0.1,0.6,0.1c0.2,0,0.3,0.1,0.5,0.1C54.6,51.1,55.4,51.1,56.2,51.1z M58,49.6
		C58,49.6,58,49.6,58,49.6c0.1,0,0.1,0,0.2,0c0.3,0,0.4-0.2,0.4-0.4c0-0.1,0-0.1,0-0.2c0-0.2-0.1-0.3-0.3-0.3c-0.1,0-0.2,0-0.3,0
		c-1,0.1-2,0-3.1-0.1c-0.5-0.1-1-0.2-1.6-0.2c-0.1,0-0.3-0.1-0.4,0c-0.2,0.1-0.3,0.2-0.3,0.4c0,0.2,0.1,0.3,0.3,0.4
		c0.2,0.1,0.4,0.2,0.7,0.2c0.5,0.1,1.1,0.2,1.6,0.2C56.1,49.6,57,49.6,58,49.6z M56.4,48.1c0.5,0,1,0,1.5,0c0.1,0,0.3,0,0.4,0
		c0.1,0,0.2-0.1,0.2-0.2c0-0.1,0-0.1,0-0.2c0-0.3-0.1-0.5-0.4-0.5c-0.2,0-0.4,0-0.7,0c-0.9,0.1-1.7,0.1-2.6,0c-0.1,0-0.3,0-0.4,0
		c-0.2,0-0.3,0.2-0.3,0.4c0,0.2,0.1,0.3,0.3,0.4c0.2,0,0.3,0.1,0.5,0.1C55.4,48.2,55.9,48.1,56.4,48.1z M56.1,47
		C56.1,47,56.1,47,56.1,47c0.4,0,0.9-0.1,1.3-0.1c0.1,0,0.3,0,0.4-0.1c0.1,0,0.2-0.1,0.2-0.2c0-0.1,0-0.2-0.1-0.3
		c-0.1-0.2-0.2-0.3-0.4-0.2c-0.3,0.1-0.6,0.1-1,0.2c-0.1,0-0.3,0-0.4,0.1c-0.3,0.1-0.4,0.3-0.4,0.5c0,0.1,0,0.2,0.2,0.2
		C55.9,47,56,47,56.1,47z M52.3,38.1C52.3,38.1,52.3,38.1,52.3,38.1c0.1-0.1,0.1-0.1,0.1-0.2c0-0.1,0-0.2,0-0.3
		c0.3,0.2,0.2,0.4,0.2,0.7c0.1,0,0.2-0.1,0.2-0.2c0.1-0.3,0.1-0.6-0.1-0.9c-0.3-0.5-1-0.5-1.2,0c-0.2,0.4-0.2,0.7,0,1.1
		c0.1,0.2,0.2,0.3,0.4,0.3c0,0,0.1,0,0.1,0c-0.1-0.1-0.1-0.1-0.1-0.2c-0.2-0.2-0.1-0.7,0.2-0.8c0.1-0.1,0.2,0,0.2,0.1
		C52.3,37.9,52.3,38,52.3,38.1z M65.7,45.7C65.7,45.6,65.7,45.6,65.7,45.7c-0.2-0.2-0.3-0.2-0.3,0c0,0,0,0.1,0,0.1
		c0,0.3,0,0.5,0,0.8c0,0,0,0.1,0,0.1c0,0.1,0.1,0.1,0.2,0.1c0.1,0,0.1-0.1,0.1-0.1c0-0.1,0-0.2,0-0.3c0-0.1,0-0.3,0-0.4
		c0-0.1,0.1-0.2,0.2-0.2c0.1,0,0.2,0.1,0.2,0.2c0,0.2,0,0.4,0,0.6c0,0,0,0.1,0,0.1c0,0.1,0.1,0.1,0.2,0.1c0.1,0,0.1-0.1,0.1-0.1
		c0-0.1,0-0.1,0-0.2c0-0.2,0-0.3,0-0.5c0-0.1,0-0.1,0.1-0.2c0,0,0.1-0.1,0.2-0.1c0.1,0,0.1,0.1,0.1,0.2c0,0.1,0,0.1,0,0.2
		c0,0.2,0,0.3,0,0.5c0,0.1,0.1,0.2,0.2,0.2c0.1,0,0.2-0.1,0.2-0.2c0-0.3,0-0.5,0-0.8c0-0.2-0.1-0.3-0.3-0.3c-0.2,0-0.3,0.1-0.4,0.2
		C66.2,45.5,66,45.5,65.7,45.7z M64.9,45.5c0,0,0-0.1,0-0.1c0,0,0-0.1,0-0.1c0-0.1-0.1-0.2-0.2-0.2c-0.1,0-0.2,0.1-0.2,0.2
		c0,0.1,0,0.2,0,0.2c-0.1,0.1-0.2,0.1-0.2,0.2c0,0.1,0.1,0.1,0.2,0.2c0,0.1,0,0.2,0,0.3c0,0.1,0,0.3,0,0.4c0,0.1,0,0.2,0.2,0.2
		c0.1,0.1,0.3,0.1,0.4,0c0,0,0.1-0.1,0.1-0.1c0-0.1-0.1-0.1-0.1-0.1c0,0-0.1,0-0.1,0c-0.1,0-0.1,0-0.1-0.1c0-0.2,0-0.4,0-0.7
		c0.1-0.1,0.2,0,0.2-0.1C65.2,45.5,65,45.6,64.9,45.5z"/>
	<path d="M55.1,38.9c-0.5,0-0.9-0.4-1-0.8c0-0.3,0-0.5,0.1-0.8c0.1-0.4,0.3-0.6,0.7-0.7c0.3-0.1,0.5,0,0.8,0.2
		c0.3,0.2,0.4,0.5,0.5,0.8c0.1,0.3,0,0.7-0.2,0.9c-0.1,0.2-0.3,0.3-0.5,0.4C55.3,38.9,55.2,38.9,55.1,38.9z M55.5,37.6
		c0.1,0,0.2,0.1,0.2,0.2c0,0.1,0,0.2,0,0.4c0,0,0,0.1,0,0.2c0.1,0,0.2-0.1,0.2-0.2c0.1-0.3,0.1-0.6-0.1-0.9
		c-0.1-0.3-0.4-0.4-0.7-0.4c-0.3,0-0.6,0.2-0.7,0.5c-0.2,0.4-0.2,0.8,0,1.1c0.1,0.2,0.3,0.3,0.5,0.3c0,0,0.1,0,0.1,0
		c0-0.1-0.1-0.1-0.1-0.2c-0.2-0.2-0.2-0.7,0.1-0.9c0.2-0.1,0.3-0.1,0.3,0.1c0,0.1,0,0.1,0,0.2c0,0,0,0.1,0,0.1
		C55.5,37.9,55.5,37.8,55.5,37.6z"/>
	<path d="M48.7,45.8c0,0.2-0.1,0.3-0.1,0.5c0,0.1-0.1,0.2-0.2,0.3c-0.1,0.1-0.2,0.1-0.3,0c-0.1-0.1-0.1-0.2-0.1-0.3
		c0.1-0.1,0.1-0.2,0.2-0.3c0-0.1,0.1-0.1,0.2-0.1C48.6,45.8,48.6,45.8,48.7,45.8z"/>
	<path d="M46.4,44.9c0,0.2-0.1,0.4-0.2,0.5c-0.1,0.1-0.2,0-0.3,0c0,0-0.1-0.1-0.1-0.1c0-0.1,0.1-0.3,0.3-0.3
		C46.2,45,46.3,45,46.4,44.9z"/>
	<path class="st1" d="M48.2,52.8c0-0.5,0.2-1,0.4-1.4c0-0.1,0.1-0.1,0.1-0.2c0,0,0.1-0.1,0.1-0.1c0-0.1,0.1-0.2,0-0.2
		c-0.1,0-0.2,0-0.2,0c-0.2,0.1-0.4,0.3-0.5,0.5c-0.1,0.2-0.2,0.4-0.3,0.7c-0.1,0.2-0.2,0.5-0.3,0.7c-0.1,0.1-0.1,0.2-0.2,0.3
		c-0.1,0.1-0.2,0.1-0.4,0.1c-0.2-0.1-0.3-0.2-0.3-0.3c0-0.4,0.1-0.8,0.3-1.1c0.1-0.2,0.3-0.5,0.4-0.7c0,0,0,0,0-0.1
		c0-0.1,0-0.1,0-0.1c0,0-0.1,0-0.2,0c-0.1,0-0.1,0.1-0.2,0.1c-0.1,0.1-0.2,0.2-0.3,0.4c-0.1,0.2-0.3,0.5-0.4,0.8
		c-0.1,0.1-0.1,0.2-0.2,0.3c-0.2,0.2-0.4,0.1-0.5-0.1c-0.1-0.1-0.1-0.3-0.1-0.4c0.2-1.1,0.9-1.9,1.9-2.2c0.3-0.1,0.6-0.1,1-0.1
		c0.6,0.1,1.2,0.1,1.7,0.2c0.2,0,0.4,0,0.7,0c0.3,0,0.5-0.1,0.7-0.3c0.1-0.1,0.2-0.2,0.3-0.3c0.1,0,0.1-0.1,0.2,0
		c0,0,0.1,0.1,0.1,0.2c0,0.1,0,0.2-0.1,0.2c-0.1,0.1-0.2,0.3-0.3,0.4c-0.2,0.2-0.3,0.4-0.4,0.6c0,0.1-0.1,0.2-0.2,0.3
		c-0.2,0.3-0.5,0.3-0.8,0.2c-0.1,0-0.2-0.1-0.3-0.1c-0.2,0-0.3,0.1-0.4,0.2c-0.2,0.3-0.4,0.7-0.5,1.1c-0.1,0.3-0.2,0.6-0.2,0.8
		c-0.1,0.2-0.2,0.3-0.4,0.3c-0.2,0.1-0.3,0-0.4-0.2C48.2,52.9,48.2,52.8,48.2,52.8z"/>
	<path class="st1" d="M56.2,51.1c-0.8,0-1.6,0-2.3-0.2c-0.2,0-0.3-0.1-0.5-0.1c-0.2,0-0.4-0.1-0.6-0.1c-0.1,0-0.3-0.1-0.4-0.1
		c-0.2-0.1-0.2-0.2-0.2-0.5c0-0.2,0.1-0.3,0.3-0.3c0.1,0,0.2,0,0.4,0c0.3,0.1,0.7,0.2,1,0.3c0.7,0.1,1.3,0.2,2,0.2c0.7,0,1.3,0,2,0
		c0.1,0,0.2,0,0.3,0c0.1,0,0.3,0,0.4,0c0.2,0,0.2,0.1,0.2,0.3c0,0.1-0.1,0.2-0.2,0.3c-0.1,0.1-0.3,0.2-0.5,0.3
		c-0.2,0-0.4,0.1-0.6,0.1C57.1,51.1,56.6,51.1,56.2,51.1z"/>
	<path class="st1" d="M58,49.6c-0.9,0-1.8,0-2.7-0.1c-0.5,0-1.1-0.1-1.6-0.2c-0.2,0-0.5-0.1-0.7-0.2c-0.2-0.1-0.3-0.2-0.3-0.4
		c0-0.2,0.1-0.4,0.3-0.4c0.1,0,0.3,0,0.4,0c0.5,0.1,1,0.2,1.6,0.2c1,0.1,2,0.1,3.1,0.1c0.1,0,0.2,0,0.3,0c0.2,0,0.3,0.1,0.3,0.3
		c0,0.1,0,0.1,0,0.2c0,0.3-0.2,0.4-0.4,0.4C58.1,49.6,58,49.6,58,49.6C58,49.6,58,49.6,58,49.6z"/>
	<path class="st1" d="M56.4,48.1c-0.5,0-1,0-1.4,0c-0.2,0-0.3,0-0.5-0.1c-0.2-0.1-0.3-0.2-0.3-0.4c0-0.2,0.1-0.3,0.3-0.4
		c0.1,0,0.3,0,0.4,0c0.9,0.1,1.7,0.1,2.6,0c0.2,0,0.4,0,0.7,0c0.3,0,0.4,0.2,0.4,0.5c0,0.1,0,0.1,0,0.2c0,0.1-0.1,0.2-0.2,0.2
		c-0.1,0-0.3,0-0.4,0C57.4,48.2,56.9,48.2,56.4,48.1z"/>
	<path class="st1" d="M56.1,47c-0.1,0-0.2,0-0.3,0c-0.1,0-0.2-0.1-0.2-0.2c0-0.3,0.2-0.5,0.4-0.5c0.1,0,0.2,0,0.4-0.1
		c0.3-0.1,0.6-0.1,1-0.2c0.2,0,0.3,0,0.4,0.2c0,0.1,0.1,0.2,0.1,0.3c0,0.1,0,0.2-0.2,0.2c-0.1,0-0.3,0-0.4,0.1
		C57,46.9,56.5,47,56.1,47C56.1,47,56.1,47,56.1,47z"/>
	<path class="st1" d="M52.3,38.1c0-0.1,0-0.2,0-0.3c0-0.2-0.1-0.2-0.2-0.1c-0.3,0.1-0.4,0.6-0.2,0.8c0,0,0.1,0.1,0.1,0.2
		c-0.1,0-0.1,0-0.1,0c-0.2,0-0.3-0.1-0.4-0.3c-0.2-0.4-0.2-0.7,0-1.1c0.3-0.5,0.9-0.5,1.2,0c0.2,0.3,0.2,0.6,0.1,0.9
		c0,0.1,0,0.2-0.2,0.2c0-0.2,0.1-0.5-0.2-0.7c0,0.1,0,0.2,0,0.3C52.4,38,52.3,38.1,52.3,38.1C52.3,38.1,52.3,38.1,52.3,38.1z"/>
	<path class="st1" d="M65.7,45.7c0.3-0.2,0.5-0.2,0.7,0c0.1-0.1,0.3-0.2,0.4-0.2c0.2,0,0.3,0.1,0.3,0.3c0,0.3,0,0.5,0,0.8
		c0,0.1-0.1,0.2-0.2,0.2c-0.1,0-0.2-0.1-0.2-0.2c0-0.2,0-0.3,0-0.5c0-0.1,0-0.1,0-0.2c0-0.1,0-0.2-0.1-0.2c-0.1,0-0.1,0-0.2,0.1
		c0,0-0.1,0.1-0.1,0.2c0,0.2,0,0.3,0,0.5c0,0.1,0,0.1,0,0.2c0,0.1-0.1,0.1-0.1,0.1c-0.1,0-0.2,0-0.2-0.1c0,0,0-0.1,0-0.1
		c0-0.2,0-0.4,0-0.6c0-0.1-0.1-0.2-0.2-0.2c-0.1,0-0.2,0.1-0.2,0.2c0,0.1,0,0.3,0,0.4c0,0.1,0,0.2,0,0.3c0,0.1-0.1,0.1-0.1,0.1
		c-0.1,0-0.2,0-0.2-0.1c0,0,0-0.1,0-0.1c0-0.3,0-0.5,0-0.8c0,0,0-0.1,0-0.1C65.4,45.5,65.6,45.5,65.7,45.7
		C65.7,45.6,65.7,45.6,65.7,45.7z"/>
	<path class="st1" d="M64.9,45.5c0.1,0.1,0.2,0,0.2,0.2c0,0.1-0.1,0.1-0.2,0.1c0,0.2,0,0.4,0,0.7c0,0.1,0,0.1,0.1,0.1
		c0,0,0.1,0,0.1,0c0.1,0,0.1,0,0.1,0.1c0,0,0,0.1-0.1,0.1c-0.1,0.1-0.3,0.1-0.4,0c-0.1,0-0.1-0.1-0.2-0.2c0-0.1,0-0.3,0-0.4
		c0-0.1,0-0.2,0-0.3c-0.1-0.1-0.2,0-0.2-0.2c0-0.1,0.1-0.1,0.2-0.2c0,0,0-0.1,0-0.2c0-0.1,0.1-0.2,0.2-0.2c0.1,0,0.1,0.1,0.2,0.2
		c0,0,0,0.1,0,0.1C64.9,45.4,64.9,45.5,64.9,45.5z"/>
	<path class="st1" d="M55.5,37.6c0,0.2,0,0.3-0.1,0.5c0,0,0-0.1,0-0.1c0-0.1,0-0.1,0-0.2c0-0.2-0.2-0.3-0.3-0.1
		c-0.2,0.2-0.3,0.6-0.1,0.9c0,0,0.1,0.1,0.1,0.2c0,0-0.1,0-0.1,0c-0.2,0-0.4-0.1-0.5-0.3c-0.2-0.4-0.2-0.7,0-1.1
		c0.1-0.3,0.4-0.5,0.7-0.5c0.3,0,0.5,0.2,0.7,0.4c0.2,0.3,0.2,0.6,0.1,0.9c0,0.1-0.1,0.2-0.2,0.2c0-0.1,0-0.1,0-0.2
		c0-0.1,0-0.3,0-0.4C55.7,37.7,55.6,37.6,55.5,37.6z"/>
</g>
</svg>
