<?xml version="1.0" encoding="utf-8"?>
<!-- Generator: Adobe Illustrator 22.1.0, SVG Export Plug-In . SVG Version: 6.00 Build 0)  -->
<svg version="1.1" id="Layer_1" xmlns="http://www.w3.org/2000/svg" xmlns:xlink="http://www.w3.org/1999/xlink" x="0px" y="0px"
	 viewBox="0 0 145 145" style="enable-background:new 0 0 145 145;" xml:space="preserve">
<style type="text/css">
	.st0{fill:#FFFFFF;}
	.st1{fill:#C6C6C6;}
	.st2{fill:#20284D;}
	.st3{fill:none;stroke:#C6C6C6;stroke-width:2.5;stroke-miterlimit:10;}
</style>
<circle class="st0" cx="72.5" cy="72.5" r="39"/>
<title>1</title>
<path class="st1" d="M72.5,50c5.4,0,9.8,4.4,9.8,9.8s-4.4,9.8-9.8,9.8s-9.8-4.4-9.8-9.8S67.1,50,72.5,50"/>
<path class="st2" d="M79.9,74.4c1.1,0,2.1,0.6,2.6,1.6l5,9.8c1.6,3.1,0.3,6.9-2.8,8.5c-0.9,0.4-1.8,0.7-2.8,0.7H63.1
	c-3.5,0-6.3-2.8-6.3-6.3c0-1,0.2-2,0.7-2.9l5-9.8c0.5-1,1.5-1.6,2.6-1.6L79.9,74.4"/>
<circle class="st3" cx="72.5" cy="72.5" r="39"/>
</svg>
