<?xml version="1.0" encoding="utf-8"?>
<!-- Generator: Adobe Illustrator 24.1.3, SVG Export Plug-In . SVG Version: 6.00 Build 0)  -->
<svg version="1.1" id="Layer_1" xmlns="http://www.w3.org/2000/svg" xmlns:xlink="http://www.w3.org/1999/xlink" x="0px" y="0px"
	 viewBox="0 0 892 130.6" style="enable-background:new 0 0 892 130.6;" xml:space="preserve">
<style type="text/css">
	.st0{fill:#D7D8DB;}
	.st1{fill:#CED8D8;}
	.st2{fill:#ABCDDD;}
	.st3{fill:#E6E3DE;}
	.st4{fill:#1A1D22;}
	.st5{fill:#BA6336;}
	.st6{fill:#93432C;}
	.st7{fill:#E2A472;}
	.st8{fill:#FFFFFF;}
	.st9{fill:#3D7795;}
	.st10{fill:#CA895C;}
	.st11{fill:#A25E36;}
	.st12{fill:#88472D;}
	.st13{fill:#683325;}
	.st14{fill:#8A4A28;}
	.st15{fill:#7C8884;}
	.st16{fill:#934C36;}
	.st17{fill:#E5AB60;}
	.st18{fill:#BB753D;}
	.st19{fill:#CAD1D9;}
	.st20{opacity:0.6;fill:#DBA98E;enable-background:new    ;}
	.st21{fill:#708895;}
	.st22{fill:#00A9CE;}
	.st23{fill:#7F7F7E;}
	.st24{font-family:'Montserrat-Light';}
	.st25{font-size:5.073px;}
	.st26{fill:#758190;}
	.st27{fill:#F2B136;}
	.st28{fill:#E3912F;}
	.st29{fill:#363D48;}
	.st30{fill:#4F566B;}
	.st31{fill:#78CDE7;}
	.st32{fill:#FCCF8E;}
	.st33{fill:#D8874F;}
	.st34{fill:#843B2F;}
	.st35{fill:#9A3933;}
	.st36{fill:#0497AF;}
	.st37{fill:#98B3C5;}
	.st38{fill:#3F3B39;}
	.st39{fill:#F6F6F6;}
	.st40{fill:#888888;}
	.st41{fill:#ACD7F2;}
	.st42{fill:#EDEEEE;}
	.st43{fill:#DCDCDC;}
	.st44{fill:#2EA7E0;}
	.st45{fill:#00AAD0;}
	.st46{fill:#929090;}
	.st47{fill:#78CDE7;stroke:#156081;stroke-width:0.5;stroke-linecap:round;stroke-linejoin:round;stroke-miterlimit:10;}
	.st48{fill:#A7003D;}
	.st49{fill:#D60051;}
	.st50{fill:#BF2345;}
	.st51{fill:#252221;}
	.st52{fill:#595757;}
	.st53{fill:#9E9EA0;}
	.st54{fill:#C8C8C9;}
	.st55{fill:#F29600;}
	.st56{fill:#F7B52D;}
	.st57{fill:#EA5515;}
	.st58{fill:#045993;}
	.st59{fill:#066EB7;}
	.st60{fill:#0462A4;}
</style>
<g>
	<path class="st0" d="M86.4,108.2c-14.2,0-25.7-11.5-25.7-25.7v-0.4c0-19.6-15.9-35.5-35.5-35.5h-5.2c-2.6,0-4.9,1.9-5.1,4.5
		c-0.3,2.9,2,5.3,4.9,5.3h5.5c14.2,0,25.7,11.5,25.7,25.7v0.4c0,19.6,15.9,35.5,35.5,35.5h727.1v-9.8H86.4z"/>
</g>
<g>
	<g>
		<rect x="787.4" y="9.8" class="st1" width="52.8" height="47.3"/>
		<polygon class="st2" points="768.6,24.6 828.7,9.8 828.7,57.2 768.6,57.2 		"/>
		<polygon class="st2" points="739.5,24.6 787.4,9.8 787.4,57.2 739.5,57.2 		"/>
		<rect x="828.7" y="9.8" class="st3" width="52.8" height="47.3"/>
		<g>
			<rect x="742.6" y="28.3" class="st1" width="9.8" height="22.5"/>
			<rect x="743.4" y="29.1" class="st4" width="8.4" height="20.7"/>
			<rect x="743" y="32.8" class="st1" width="9.2" height="0.9"/>
			<rect x="743" y="37.1" class="st1" width="9.2" height="0.9"/>
			<rect x="743" y="41.4" class="st1" width="9.2" height="0.9"/>
			<rect x="743" y="45.6" class="st1" width="9.2" height="0.9"/>
			<rect x="747.1" y="28.7" class="st1" width="0.9" height="21.8"/>
		</g>
		<g>
			<rect x="758.8" y="28.3" class="st1" width="9.8" height="22.5"/>
			<rect x="759.6" y="29.1" class="st4" width="8.4" height="20.7"/>
			<rect x="759.2" y="32.8" class="st1" width="9.2" height="0.9"/>
			<rect x="759.2" y="37.1" class="st1" width="9.2" height="0.9"/>
			<rect x="759.2" y="41.4" class="st1" width="9.2" height="0.9"/>
			<rect x="759.2" y="45.6" class="st1" width="9.2" height="0.9"/>
			<rect x="763.3" y="28.7" class="st1" width="0.9" height="21.8"/>
		</g>
		<g>
			<rect x="775" y="28.3" class="st1" width="9.8" height="22.5"/>
			<rect x="775.7" y="29.1" class="st4" width="8.4" height="20.7"/>
			<rect x="775.4" y="32.8" class="st1" width="9.2" height="0.9"/>
			<rect x="775.4" y="37.1" class="st1" width="9.2" height="0.9"/>
			<rect x="775.4" y="41.4" class="st1" width="9.2" height="0.9"/>
			<rect x="775.4" y="45.6" class="st1" width="9.2" height="0.9"/>
			<rect x="779.5" y="28.7" class="st1" width="0.9" height="21.8"/>
		</g>
		<g>
			<rect x="791.2" y="28.3" class="st1" width="9.8" height="22.5"/>
			<rect x="791.9" y="29.1" class="st4" width="8.4" height="20.7"/>
			<rect x="791.5" y="32.8" class="st1" width="9.2" height="0.9"/>
			<rect x="791.5" y="37.1" class="st1" width="9.2" height="0.9"/>
			<rect x="791.5" y="41.4" class="st1" width="9.2" height="0.9"/>
			<rect x="791.5" y="45.6" class="st1" width="9.2" height="0.9"/>
			<rect x="795.7" y="28.7" class="st1" width="0.9" height="21.8"/>
		</g>
		<g>
			<rect x="807.3" y="28.3" class="st1" width="9.8" height="22.5"/>
			<rect x="808.1" y="29.1" class="st4" width="8.4" height="20.7"/>
			<rect x="807.7" y="32.8" class="st1" width="9.2" height="0.9"/>
			<rect x="807.7" y="37.1" class="st1" width="9.2" height="0.9"/>
			<rect x="807.7" y="41.4" class="st1" width="9.2" height="0.9"/>
			<rect x="807.7" y="45.6" class="st1" width="9.2" height="0.9"/>
			<rect x="811.8" y="28.7" class="st1" width="0.9" height="21.8"/>
		</g>
		<rect x="787.4" y="7.1" class="st5" width="41.3" height="2.7"/>
		<polygon class="st6" points="828.7,7.1 787.4,17.3 787.4,20 828.7,9.8 		"/>
		<polygon class="st6" points="787.6,7.1 739.5,21.9 739.5,24.6 787.6,9.8 		"/>
		<rect x="828.7" y="7.1" class="st7" width="52.7" height="2.7"/>
		<g>
			<rect x="832.5" y="28.2" class="st8" width="8.4" height="5.5"/>
			<rect x="833.3" y="28.9" class="st9" width="6.8" height="4"/>
		</g>
		<g>
			<rect x="844.7" y="28.2" class="st8" width="8.4" height="5.5"/>
			<rect x="845.5" y="28.9" class="st9" width="6.8" height="4"/>
		</g>
		<g>
			<rect x="857" y="28.2" class="st8" width="8.4" height="5.5"/>
			<rect x="857.7" y="28.9" class="st9" width="6.8" height="4"/>
		</g>
		<g>
			<rect x="869.2" y="28.2" class="st8" width="8.4" height="5.5"/>
			<rect x="870" y="28.9" class="st9" width="6.8" height="4"/>
		</g>
		<g>
			<rect x="832.6" y="34.6" class="st10" width="20.5" height="22.5"/>
			<rect x="833.4" y="36" class="st4" width="18.9" height="21.2"/>
			<rect x="833.4" y="35.6" class="st8" width="18.9" height="3.1"/>
		</g>
		<g>
			<rect x="857" y="34.6" class="st10" width="20.5" height="22.5"/>
			<rect x="857.8" y="36" class="st4" width="18.9" height="21.2"/>
			<rect x="857.8" y="35.6" class="st8" width="18.9" height="3.1"/>
		</g>
		<rect x="732.8" y="50.4" class="st2" width="6.7" height="6.8"/>
		<rect x="732.8" y="33.3" class="st2" width="6.7" height="17.8"/>
		<g>
			<polygon class="st11" points="836.7,45.6 836.7,48.4 834.5,48.4 834.5,57.2 850.5,57.2 850.5,45.6 			"/>
			<polygon class="st12" points="836.7,45.6 836.7,48.4 833.5,48.4 833.5,57.2 843.6,57.2 843.6,45.6 			"/>
			<g>
				<g>
					<rect x="836.5" y="45.6" class="st13" width="0.4" height="11.5"/>
				</g>
				<g>
					<rect x="840.1" y="45.6" class="st13" width="0.4" height="11.5"/>
				</g>
			</g>
			<g>
				<g>
					<rect x="845.7" y="45.6" class="st14" width="0.4" height="11.5"/>
				</g>
				<g>
					<rect x="848.2" y="45.6" class="st14" width="0.4" height="11.5"/>
				</g>
			</g>
			<g>
				<g>
					<rect x="843.6" y="48.3" class="st14" width="6.9" height="0.4"/>
				</g>
				<g>
					<rect x="843.6" y="51.3" class="st14" width="6.9" height="0.4"/>
				</g>
				<g>
					<rect x="843.6" y="54.3" class="st14" width="6.9" height="0.4"/>
				</g>
			</g>
			<g>
				<g>
					<g>
						<rect x="833.5" y="48.3" class="st13" width="10.1" height="0.4"/>
					</g>
				</g>
				<g>
					<g>
						<rect x="833.5" y="51.3" class="st13" width="10.1" height="0.4"/>
					</g>
				</g>
				<g>
					<g>
						<rect x="833.5" y="54.3" class="st13" width="10.1" height="0.4"/>
					</g>
				</g>
			</g>
			<g>
				<g>
					<rect x="842" y="47.3" class="st15" width="0.9" height="0.7"/>
					<rect x="840.9" y="50.4" class="st15" width="0.9" height="0.7"/>
					<rect x="842.2" y="52.2" class="st15" width="0.9" height="0.7"/>
					<rect x="841.2" y="55" class="st15" width="0.9" height="0.7"/>
				</g>
				<g>
					<rect x="835.1" y="54.9" class="st15" width="0.9" height="0.7"/>
					<rect x="834.3" y="53.2" class="st15" width="0.9" height="0.7"/>
					<rect x="834.1" y="50.1" class="st15" width="0.9" height="0.7"/>
				</g>
				<g>
					<rect x="838.6" y="56.1" class="st15" width="0.9" height="0.7"/>
					<rect x="838.4" y="52.6" class="st15" width="0.9" height="0.7"/>
					<rect x="837.3" y="49.1" class="st15" width="0.9" height="0.7"/>
					<rect x="838.4" y="46.2" class="st15" width="0.9" height="0.7"/>
				</g>
			</g>
			<g>
				<rect x="844.6" y="45.6" class="st14" width="0.5" height="0.5"/>
				<rect x="844.6" y="48.6" class="st14" width="0.5" height="0.5"/>
				<rect x="844.6" y="51.7" class="st14" width="0.5" height="0.5"/>
				<rect x="844.6" y="54.7" class="st14" width="0.5" height="0.5"/>
			</g>
			<g>
				<rect x="846.9" y="45.6" class="st14" width="0.5" height="0.5"/>
				<rect x="846.9" y="48.6" class="st14" width="0.5" height="0.5"/>
				<rect x="846.9" y="51.7" class="st14" width="0.5" height="0.5"/>
				<rect x="846.9" y="54.7" class="st14" width="0.5" height="0.5"/>
			</g>
			<g>
				<rect x="849.1" y="45.6" class="st14" width="0.5" height="0.5"/>
				<rect x="849.1" y="48.6" class="st14" width="0.5" height="0.5"/>
				<rect x="849.1" y="51.7" class="st14" width="0.5" height="0.5"/>
				<rect x="849.1" y="54.7" class="st14" width="0.5" height="0.5"/>
			</g>
		</g>
		<g>
			<polygon class="st11" points="861.1,45.8 861.1,48.5 858.9,48.5 858.9,57.3 872.8,57.3 872.8,45.8 			"/>
			<rect x="857.9" y="45.8" class="st12" width="6.9" height="11.5"/>
			<g>
				<g>
					<rect x="861" y="45.8" class="st13" width="0.4" height="11.5"/>
				</g>
				<g>
					<rect x="864.6" y="45.8" class="st13" width="0.4" height="11.5"/>
				</g>
			</g>
			<g>
				<g>
					<rect x="867.9" y="45.8" class="st14" width="0.4" height="11.5"/>
				</g>
				<g>
					<rect x="870.4" y="45.8" class="st14" width="0.4" height="11.5"/>
				</g>
			</g>
			<g>
				<g>
					<rect x="865.8" y="48.4" class="st14" width="6.9" height="0.4"/>
				</g>
				<g>
					<rect x="865.8" y="51.5" class="st14" width="6.9" height="0.4"/>
				</g>
				<g>
					<rect x="865.8" y="54.4" class="st14" width="6.9" height="0.4"/>
				</g>
			</g>
			<g>
				<g>
					<g>
						<rect x="857.9" y="48.4" class="st13" width="8" height="0.4"/>
					</g>
				</g>
				<g>
					<g>
						<rect x="857.9" y="51.5" class="st13" width="8" height="0.4"/>
					</g>
				</g>
				<g>
					<g>
						<rect x="857.9" y="54.4" class="st13" width="8" height="0.4"/>
					</g>
				</g>
			</g>
			<g>
				<g>
					<rect x="866.4" y="47.4" class="st15" width="0.9" height="0.7"/>
					<rect x="865.3" y="50.5" class="st15" width="0.9" height="0.7"/>
					<rect x="866.7" y="52.3" class="st15" width="0.9" height="0.7"/>
					<rect x="865.6" y="55" class="st15" width="0.9" height="0.7"/>
				</g>
				<g>
					<rect x="859.5" y="55" class="st15" width="0.9" height="0.7"/>
					<rect x="858.7" y="53.3" class="st15" width="0.9" height="0.7"/>
					<rect x="858.5" y="50.2" class="st15" width="0.9" height="0.7"/>
				</g>
				<g>
					<rect x="863" y="56.1" class="st15" width="0.9" height="0.7"/>
					<rect x="862.8" y="52.7" class="st15" width="0.9" height="0.7"/>
					<rect x="861.7" y="49.2" class="st15" width="0.9" height="0.7"/>
					<rect x="862.8" y="46.3" class="st15" width="0.9" height="0.7"/>
				</g>
			</g>
			<g>
				<rect x="866.8" y="45.8" class="st14" width="0.5" height="0.5"/>
				<rect x="866.8" y="48.7" class="st14" width="0.5" height="0.5"/>
				<rect x="866.8" y="51.8" class="st14" width="0.5" height="0.5"/>
				<rect x="866.8" y="54.8" class="st14" width="0.5" height="0.5"/>
			</g>
			<g>
				<rect x="869.1" y="45.8" class="st14" width="0.5" height="0.5"/>
				<rect x="869.1" y="48.7" class="st14" width="0.5" height="0.5"/>
				<rect x="869.1" y="51.8" class="st14" width="0.5" height="0.5"/>
				<rect x="869.1" y="54.8" class="st14" width="0.5" height="0.5"/>
			</g>
			<g>
				<rect x="871.3" y="45.8" class="st14" width="0.5" height="0.5"/>
				<rect x="871.3" y="48.7" class="st14" width="0.5" height="0.5"/>
				<rect x="871.3" y="51.8" class="st14" width="0.5" height="0.5"/>
				<rect x="871.3" y="54.8" class="st14" width="0.5" height="0.5"/>
			</g>
		</g>
		<path class="st16" d="M865,57.6h-6.9c-0.1,0-0.2,0.1-0.2,0.2c0,0.1,0.1,0.2,0.2,0.2h6.9c0.1,0,0.2-0.1,0.2-0.2
			C865.3,57.7,865.2,57.6,865,57.6z"/>
		<g>
			<g>
				<rect x="859.1" y="54.5" class="st17" width="5.7" height="3.3"/>
				<rect x="859.1" y="54.5" class="st18" width="2.1" height="3.3"/>
				<g>
					<path class="st8" d="M862.4,56.4l-0.7,0.2c-0.1,0.1-0.2,0.2-0.2,0.3l0.1,0.5c0.1,0.1,0.2,0.2,0.3,0.2l0.7-0.2
						c0.1-0.1,0.2-0.2,0.2-0.3l-0.1-0.5C862.7,56.4,862.6,56.4,862.4,56.4z"/>
					<path class="st19" d="M862.4,56.9L862,57c-0.1,0-0.2-0.1-0.2-0.1l0,0c0-0.1,0.1-0.2,0.1-0.2l0.5-0.1c0.1,0,0.2,0.1,0.2,0.1l0,0
						C862.6,56.8,862.5,56.9,862.4,56.9z"/>
					<path class="st19" d="M862.4,57.3l-0.2,0.1c-0.1,0-0.2-0.1-0.2-0.1l0,0c0-0.1,0.1-0.2,0.1-0.2l0.2-0.1c0.1,0,0.2,0.1,0.2,0.1
						l0,0C862.6,57.2,862.5,57.3,862.4,57.3z"/>
				</g>
				<rect x="862.7" y="54.5" class="st18" width="1" height="1"/>
				<polygon class="st20" points="861.2,55.3 861.2,54.5 864.8,54.5 862.9,55.3 				"/>
			</g>
			<g>
				<rect x="860.7" y="51.5" class="st17" width="4.6" height="3"/>
				<rect x="860.7" y="51.5" class="st18" width="1.6" height="3"/>
				<g>
					<path class="st19" d="M862.1,52.5l-0.5-0.2c-0.1-0.1-0.3,0-0.3,0.1l-0.2,0.5c-0.1,0.1,0,0.3,0.1,0.3l0.5,0.2
						c0.1,0.1,0.3,0,0.3-0.1l0.2-0.5C862.2,52.6,862.2,52.5,862.1,52.5z"/>
					<path class="st21" d="M861.8,52.9l-0.4-0.2c-0.1,0-0.1-0.1-0.1-0.2l0,0c0-0.1,0.1-0.1,0.2-0.1l0.4,0.2c0.1,0,0.1,0.1,0.1,0.2
						l0,0C862,52.9,861.9,52.9,861.8,52.9z"/>
					<path class="st21" d="M861.6,53.2l-0.2-0.1c-0.1,0-0.1-0.1-0.1-0.2l0,0c0-0.1,0.1-0.1,0.2-0.1l0.2,0.1c0.1,0,0.1,0.1,0.1,0.2
						l0,0C861.7,53.2,861.6,53.2,861.6,53.2z"/>
				</g>
				<rect x="863.4" y="51.5" class="st18" width="0.9" height="0.9"/>
			</g>
		</g>
		<g>
			<path class="st22" d="M844.5,16.2c-0.1,0.6-0.5,1.2-1.2,1.7c-0.6,0.5-1.2,0.7-1.9,0.8h-0.1c-0.1,0-0.2-0.3-0.4-0.7
				c-0.2-0.5-0.3-0.7-0.3-0.8c0-0.1,0.1-0.1,0.1-0.1c0.3-0.1,0.6-0.1,1-0.3c0.4-0.2,0.6-0.5,0.6-0.8c0.1-0.2,0-0.5-0.2-0.7
				c-0.3-0.5-0.5-0.7-0.5-0.7c-0.2-0.3-0.2-0.8-0.1-1.1c0.1-0.6,0.5-1.1,1.1-1.5c0.5-0.3,1.2-0.6,1.8-0.6c0.1,0,0.1,0,0.1,0
				c0.1,0,0.1,0.1,0.1,0.1c0.1,0.5,0.2,0.8,0.4,1.3v0.1c0,0.1-0.1,0.1-0.1,0.1l0,0c-0.1,0-0.1,0-0.1,0c-0.1,0-0.1,0-0.1,0
				c-0.3,0-0.5,0.1-0.6,0.2c-0.2,0.1-0.4,0.3-0.4,0.5c-0.1,0.2,0.1,0.5,0.2,0.7c0.3,0.5,0.5,0.8,0.5,0.8
				C844.6,15.4,844.6,15.8,844.5,16.2z"/>
			<path class="st22" d="M850.4,14.9l-0.6,3.4c0,0.1-0.1,0.2-0.2,0.2s-0.3,0-0.7,0c-0.3,0-0.5,0-0.8-0.1c-0.1,0-0.1-0.1-0.1-0.2
				c0.1-0.3,0.1-0.7,0.3-1.3c0.1-0.6,0.2-1,0.3-1.3c0.1-0.4-0.1-0.6-0.5-0.6c-0.2,0-0.3,0.1-0.5,0.1c-0.2,0.1-0.3,0.3-0.3,0.4
				l-0.2,1.2c0,0.1-0.1,0.4-0.1,0.7c-0.1,0.3-0.1,0.6-0.1,0.7c0,0.1-0.1,0.2-0.2,0.2s-0.4,0-0.8,0c-0.2,0-0.4,0-0.6-0.1
				c-0.1,0-0.2-0.1-0.1-0.2c0.1-0.3,0.1-0.6,0.2-1.2c0.1-0.5,0.2-0.9,0.2-1.2c0.2-1.1,0.3-1.9,0.5-2.6c0.1-0.3,0.1-0.5,0.1-0.7
				c0-0.3,0.1-0.5,0.1-0.7v-0.1c0-0.1,0.1-0.1,0.1-0.1c0.1-0.1,0.3-0.1,0.5-0.1c0.3,0,0.4,0,0.5,0l0.9-0.1c0.1,0,0.1,0.1,0.1,0.1
				c0,0.1-0.1,0.3-0.1,0.5c-0.1,0.2-0.1,0.3-0.1,0.5c-0.1,0.7-0.3,1.4-0.3,1.7c0,0.1,0,0.1,0,0.1s0.1-0.1,0.3-0.2
				c0.2-0.1,0.4-0.3,0.6-0.3c0.3-0.1,0.5-0.2,0.8-0.2c0.4,0,0.8,0.1,1,0.3C850.4,14.2,850.5,14.5,850.4,14.9z"/>
			<path class="st22" d="M852.8,16.2c-0.1,0.3-0.1,0.6-0.2,1.1s-0.1,0.8-0.2,1c0,0.1-0.1,0.1-0.1,0.1c-0.3,0-0.5,0.1-0.8,0
				c-0.3,0-0.5,0-0.8,0c-0.1,0-0.1-0.1-0.1-0.1c0-0.1,0-0.1,0-0.1c0.1-0.2,0.1-0.6,0.2-1c0.1-0.5,0.1-0.8,0.2-1
				c0.1-0.7,0.3-1.5,0.3-2.2c0-0.1,0-0.1,0-0.1s0.1-0.1,0.1-0.1c0.1,0,0.3,0,0.4,0c0.2,0,0.3,0,0.4,0s0.3,0,0.5,0c0.2,0,0.3,0,0.5,0
				c0.1,0,0.1,0.1,0.1,0.1v0.1C853.2,14.7,853,15.4,852.8,16.2z M853.6,12.5c-0.1,0.6-0.5,0.8-1.1,0.8c-0.3,0-0.5-0.1-0.6-0.2
				c-0.2-0.1-0.3-0.4-0.2-0.6c0.1-0.3,0.2-0.5,0.4-0.6c0.2-0.1,0.5-0.3,0.7-0.3c0.3,0,0.5,0.1,0.6,0.3
				C853.6,12.1,853.7,12.3,853.6,12.5L853.6,12.5z"/>
			<path class="st22" d="M859.2,16.1c-0.1,0.6-0.5,1.3-0.9,1.7c-0.5,0.5-1.1,0.7-1.8,0.7c-0.3,0-0.5-0.1-0.8-0.2
				c-0.3-0.1-0.4-0.2-0.4-0.2c-0.1,0-0.1,0.1-0.1,0.1c0,0.2-0.1,0.4-0.1,0.8c-0.1,0.3-0.1,0.6-0.1,0.8c0,0.1-0.1,0.2-0.2,0.1l0,0h-1
				c-0.1,0-0.3,0-0.5,0c-0.1,0-0.1-0.1-0.1-0.1l0,0l0.6-3.8c0.1-0.6,0.2-1.3,0.2-1.9V14c0-0.1,0.1-0.1,0.1-0.1
				c0.3-0.1,0.5-0.1,0.8-0.1c0.3-0.1,0.5-0.1,0.8-0.1c0.1,0,0.2,0.1,0.2,0.3s0,0.3,0,0.3c-0.1,0,0.1-0.1,0.5-0.3
				c0.3-0.2,0.6-0.3,0.9-0.3c0.7,0,1.2,0.3,1.5,0.7C859.2,14.7,859.4,15.3,859.2,16.1z M857.4,16c0.1-0.3,0-0.5-0.1-0.7
				c-0.1-0.2-0.4-0.3-0.6-0.3c-0.3,0-0.5,0.1-0.7,0.3c-0.2,0.2-0.3,0.5-0.3,0.7c-0.1,0.3,0,0.5,0.1,0.7c0.1,0.2,0.3,0.3,0.6,0.3
				C856.9,17.1,857.3,16.7,857.4,16L857.4,16z"/>
			<path class="st22" d="M861.7,16.2c-0.1,0.3-0.1,0.6-0.2,1.1c-0.1,0.5-0.1,0.8-0.2,1c0,0.1-0.1,0.1-0.1,0.1c-0.3,0-0.5,0.1-0.8,0
				c-0.3,0-0.5,0-0.8,0c-0.1,0-0.1-0.1-0.1-0.1c0-0.1,0-0.1,0-0.1c0.1-0.2,0.1-0.6,0.2-1c0.1-0.5,0.1-0.8,0.2-1
				c0.1-0.7,0.3-1.5,0.3-2.2c0-0.1,0-0.1,0-0.1s0.1-0.1,0.1-0.1s0.3,0,0.4,0c0.2,0,0.3,0,0.4,0s0.3,0,0.5,0c0.2,0,0.3,0,0.5,0
				c0.1,0,0.1,0.1,0.1,0.1v0.1C861.9,14.7,861.8,15.4,861.7,16.2z M862.4,12.5c-0.1,0.6-0.5,0.8-1.1,0.8c-0.3,0-0.5-0.1-0.6-0.2
				c-0.2-0.1-0.3-0.4-0.2-0.6c0.1-0.3,0.2-0.5,0.4-0.6c0.2-0.1,0.5-0.3,0.7-0.3c0.3,0,0.5,0.1,0.6,0.3
				C862.4,12.1,862.5,12.3,862.4,12.5L862.4,12.5z"/>
			<path class="st22" d="M865.8,17c0,0.1-0.1,0.3-0.1,0.5c-0.1,0.1-0.1,0.3-0.1,0.5c0,0.1,0,0.1-0.1,0.2c-0.1,0.1-0.1,0.1-0.2,0.1
				c-0.5,0.3-1,0.3-1.5,0.3c-1,0-1.4-0.4-1.2-1.1c0.1-0.2,0.1-0.5,0.2-1c0.1-0.5,0.1-0.8,0.2-1c0-0.1-0.1-0.2-0.2-0.2h-0.1h-0.1
				c-0.1,0-0.2-0.1-0.2-0.1s0-0.1,0.1-0.3c0-0.1,0.1-0.2,0.1-0.3c0-0.1,0-0.2,0.1-0.3c0-0.1,0-0.3,0.1-0.3c0-0.1,0.1-0.1,0.3-0.1
				c0.1,0,0.2-0.1,0.2-0.1c0.1-0.2,0.1-0.4,0.1-0.6c0.1-0.5,0.1-0.6,0.1-0.6c0.1-0.4,0.1-0.6,0.2-0.6c0.1,0,0.3,0,0.4,0.1
				c0.1,0,0.3,0.1,0.4,0.1c0.2,0,0.4,0.1,0.7,0.1c0.1,0,0.1,0.1,0.1,0.1c0,0.1-0.1,0.3-0.1,0.6c-0.1,0.3-0.1,0.5-0.1,0.6
				s0,0.3,0.1,0.3s0.3,0,0.5,0s0.4,0,0.5,0c0.1,0,0.1,0,0.1,0.1c0,0.1-0.1,0.2-0.1,0.3c-0.1,0.1-0.1,0.3-0.1,0.3
				c0,0.1-0.1,0.2-0.1,0.3c0,0.1-0.1,0.3-0.1,0.3c0,0.1-0.1,0.1-0.1,0.1s-0.2,0-0.3,0s-0.3,0-0.3,0h-0.4c-0.1,0-0.1,0.1-0.1,0.2
				l-0.1,0.3c0,0.1-0.1,0.3-0.1,0.3c-0.1,0.3-0.1,0.5,0,0.6s0.2,0.2,0.5,0.2c0.1,0,0.3,0,0.4-0.1c0.1,0,0.2-0.1,0.3-0.1
				C865.8,16.9,865.8,16.9,865.8,17z"/>
			<path class="st22" d="M871.2,16c-0.1,0.7-0.5,1.4-1,1.8c-0.5,0.5-1.2,0.7-1.9,0.7c-0.7,0-1.3-0.3-1.7-0.7c-0.4-0.5-0.5-1-0.4-1.7
				c0.1-0.8,0.5-1.4,1-1.9c0.5-0.5,1.2-0.7,1.9-0.7c0.7,0,1.3,0.3,1.7,0.7C871.2,14.7,871.3,15.3,871.2,16z M869.6,16
				c0.1-0.3,0-0.5-0.1-0.7c-0.1-0.2-0.3-0.3-0.6-0.3c-0.3,0-0.5,0.1-0.7,0.3c-0.2,0.2-0.3,0.5-0.4,0.6c-0.1,0.3,0,0.5,0.1,0.7
				c0.1,0.2,0.3,0.3,0.6,0.3s0.5-0.1,0.7-0.3C869.4,16.5,869.5,16.3,869.6,16z"/>
			<path class="st22" d="M871.5,12.6L871.5,12.6C871.4,12.6,871.4,12.6,871.5,12.6h-0.1l0,0l0,0v-0.1c0,0,0-0.1-0.1-0.1
				c0,0,0,0-0.1,0h-0.1l0,0v0.1c0,0.1,0,0.1,0,0.1l0,0l0,0h-0.1H871l0,0c0,0,0-0.1,0-0.1c0-0.1,0-0.1,0-0.1c0-0.1,0-0.2,0-0.3l0,0
				l0,0c0,0,0.1,0,0.1,0h0.1c0.1,0,0.1,0,0.2,0.1s0.1,0.1,0.1,0.1c0,0.1,0,0.1,0,0.1l-0.1,0.1l0,0l0.1,0.1
				C871.5,12.5,871.5,12.5,871.5,12.6z M871.4,12.2C871.4,12.2,871.4,12.2,871.4,12.2l-0.1-0.1h-0.1v0.1l0,0l0,0l0,0h0.1
				C871.3,12.3,871.4,12.3,871.4,12.2L871.4,12.2z"/>
			<path class="st22" d="M871.2,12.9c-0.3,0-0.6-0.3-0.6-0.6c0-0.3,0.3-0.6,0.6-0.6c0.3,0,0.6,0.3,0.6,0.6l0,0
				C871.9,12.7,871.6,12.9,871.2,12.9z M871.2,11.8c-0.3,0-0.5,0.2-0.5,0.5c0,0.3,0.2,0.5,0.5,0.5c0.3,0,0.5-0.2,0.5-0.5l0,0
				C871.8,12,871.6,11.8,871.2,11.8z"/>
		</g>
		<text transform="matrix(1 0 0 1 839.8696 25.0824)" class="st23 st24 st25">WAREHOUSE</text>
	</g>
	<g>
		<g>
			<path class="st4" d="M808.1,103.8c1,0,2.3,0,3.1,0c2.7,0,4.9,3,4.9,6.9c0,3.8-2.2,6.9-4.9,6.9c-1,0-2.3,0-3.1,0
				c-2.7,0-4.9-3-4.9-6.9C803.2,106.9,805.4,103.8,808.1,103.8z"/>
			<path class="st4" d="M827.4,103.8c1,0,2.3,0,3.1,0c2.7,0,4.9,3,4.9,6.9c0,3.8-2.2,6.9-4.9,6.9c-1,0-2.3,0-3.1,0
				c-2.7,0-4.9-3-4.9-6.9C822.5,106.9,824.7,103.8,827.4,103.8z"/>
			<g>
				<path class="st26" d="M804.5,98.8h-0.1c-1-0.1-1.7-0.9-1.7-2l0.9-14c0.7-9.6,2.2-19.3,4.6-28.6c0.2-0.7,0.7-1.2,1.3-1.3
					c5.9-1.4,12.3-1.4,19,0c0.9,0.2,1.4,0.9,1.4,1.7v31.7c0,1-0.8,1.8-1.8,1.8c-1,0-1.8-0.8-1.8-1.8V56.1c-5.3-1-10.3-1-15,0
					c-2.2,8.8-3.6,17.9-4.2,26.9L806,97C806.2,98,805.4,98.8,804.5,98.8z"/>
			</g>
			<path class="st27" d="M847.4,86.4h-44.9c-0.9,0-1.6,0.8-1.6,1.6v19.6h46.5V86.4z"/>
			<path class="st28" d="M851.3,86.4h-27.5v21.1h30.4V89.1C854.2,87.6,852.9,86.4,851.3,86.4z"/>
			<g>
				<path class="st4" d="M829.4,87.9H841V71.6c0-1.2-1-2.3-2.3-2.3h-3.4c-1.8,0-3.5,1.4-3.7,3.3L829.4,87.9z"/>
				<rect x="823.8" y="81.2" class="st4" width="21.2" height="6.7"/>
			</g>
			<path class="st29" d="M849.8,86.4h-46.3c-1.4,0-2.5,1.1-2.5,2.5v10.8h22.5l0.8-2c1.6-4.2,5.6-7,10.2-7h19.6l0,0
				C854.2,88.2,852.2,86.4,849.8,86.4z"/>
			<rect x="800.9" y="107.5" class="st29" width="46.5" height="3.8"/>
			<rect x="801" y="107.5" class="st30" width="22.9" height="3.8"/>
			<path class="st4" d="M830.9,103.8c1,0,2.3,0,3.1,0c2.7,0,4.9,3,4.9,6.9c0,3.8-2.2,6.9-4.9,6.9c-1,0-2.3,0-3.1,0
				c-2.7,0-4.9-3-4.9-6.9C826,106.9,828.1,103.8,830.9,103.8z"/>
			<path class="st4" d="M851.7,103.8c1,0,2.3,0,3.1,0c2.7,0,4.9,3,4.9,6.9c0,3.8-2.2,6.9-4.9,6.9c-1,0-2.3,0-3.1,0
				c-2.7,0-4.9-3-4.9-6.9C846.8,106.9,849,103.8,851.7,103.8z"/>
			<g>
				<path class="st29" d="M822,98.8h-0.1c-1-0.1-1.7-0.9-1.7-2l0.9-14c0.7-9.6,2.2-19.3,4.6-28.6c0.2-0.7,0.7-1.2,1.3-1.3
					c6.1-1.4,12.5-1.4,19,0c0.9,0.2,1.4,0.9,1.4,1.7v31.7c0,1-0.8,1.8-1.8,1.8c-1,0-1.8-0.8-1.8-1.8V56.1c-5.1-1-10.2-1-15,0
					c-2.2,8.8-3.6,17.8-4.2,26.9l-0.9,14C823.7,98,822.9,98.8,822,98.8z"/>
			</g>
			<path class="st29" d="M832,98.5h-0.3c-3,0-5.5,2.4-5.7,5.3l-0.5,7.4h12.4v-7C837.8,101.1,835.2,98.5,832,98.5z"/>
			<path class="st29" d="M852.9,98.5h-0.3c-3,0-5.5,2.4-5.7,5.3l-0.5,7.4h12.4v-7C858.6,101.1,856.1,98.5,852.9,98.5z"/>
			<path class="st4" d="M835.9,104.8v6.5H829l0.4-6.7c0.1-1.7,1.5-3,3.3-3l0,0C834.4,101.6,835.9,103,835.9,104.8z"/>
			<path class="st4" d="M856.9,104.8v6.5h-6.9l0.4-6.7c0.1-1.7,1.5-3,3.3-3l0,0C855.4,101.6,856.9,103,856.9,104.8z"/>
			<g>
				<path class="st26" d="M836.3,75.4c-2.5-0.3-5-0.3-7.5,0c-1.7,0.2-3,1.5-3.4,3.3l-0.5,3.6H840l-0.5-3.6
					C839.3,77,838,75.7,836.3,75.4z"/>
				<path class="st31" d="M828.8,75.4c0.2,0,0.5-0.1,0.8-0.1l-0.1,4.1h4.7l1.5-4.1c0.2,0,0.4,0,0.5,0.1c0.1,0,0.3,0,0.4,0.1
					l-1.3,6.7H827l1.3-6.7C828.5,75.6,828.6,75.4,828.8,75.4z"/>
				<path class="st32" d="M832.5,77.8L832.5,77.8c-0.8,0-1.3-0.7-1.3-1.3v-3.1h2.7v3.1C833.9,77.2,833.2,77.8,832.5,77.8z"/>
				<path class="st33" d="M832.5,76L832.5,76c-0.8,0-1.3-0.7-1.3-1.3v-3.1h2.7v3.1C833.9,75.3,833.2,76,832.5,76z"/>
				<path class="st32" d="M832,74.7L832,74.7c-2.4,0-4.2-2-4.2-4.2v-3.3c0-2.4,2-4.2,4.2-4.2l0,0c2.4,0,4.2,2,4.2,4.2v3.3
					C836.3,72.7,834.3,74.7,832,74.7z"/>
				<path class="st32" d="M828.4,68.6c0.3,0,0.8,0.4,0.8,1.1c0.1,0.7-0.2,1.2-0.5,1.3c-0.3,0-0.8-0.4-0.8-1.1
					C827.7,69.3,828,68.6,828.4,68.6z"/>
				<path class="st33" d="M836.4,64.5l0.1,4.7c0,0.3-0.2,0.5-0.4,0.5l0,0c-0.9-1.3-1-2.6-0.3-4c-2.2,0.8-4.6,0.8-7.2,0l-0.3,4l0,0
					c-0.2,0-0.4-0.2-0.4-0.4v-4.8l1.5-1.2l2.4-1.1V63l2.2-0.8l0.9,0.4L836.4,64.5z"/>
				<path class="st32" d="M836.7,68.6c0.3,0,0.7,0.7,0.5,1.3c-0.1,0.7-0.4,1.2-0.8,1.1c-0.3,0-0.7-0.7-0.5-1.3
					C835.9,69,836.4,68.6,836.7,68.6z"/>
				<g>
					<path class="st34" d="M833.2,70.2c-0.1-0.2-0.1-0.4-0.1-0.7c0-0.5,0.2-1,0.5-1c0.3,0,0.5,0.4,0.5,1c0,0.2,0,0.4-0.1,0.7H833.2z
						"/>
					<g>
						<path class="st33" d="M833,68.2c-0.1,0-0.2,0-0.2-0.1c-0.1-0.1-0.1-0.3,0-0.4c0.3-0.2,1.2-0.4,1.6,0c0.1,0.1,0.1,0.3,0,0.4
							c-0.1,0.1-0.3,0.1-0.4,0c-0.1-0.1-0.7-0.1-0.9,0.1C833.1,68.2,833.1,68.2,833,68.2z"/>
					</g>
				</g>
				<g>
					<path class="st34" d="M829,70.2c-0.1-0.2-0.1-0.4-0.1-0.7c0-0.5,0.2-1,0.5-1c0.3,0,0.5,0.4,0.5,1c0,0.2,0,0.4-0.1,0.7H829z"/>
					<g>
						<path class="st33" d="M830,68.2c-0.1,0-0.1,0-0.2-0.1c-0.2-0.1-0.8-0.2-0.9-0.1c-0.1,0.1-0.3,0.1-0.4,0
							c-0.1-0.1-0.1-0.3,0-0.4c0.4-0.4,1.3-0.2,1.6,0c0.1,0.1,0.1,0.2,0,0.4C830.1,68.1,830.1,68.2,830,68.2z"/>
					</g>
				</g>
				<path class="st35" d="M832.2,72.9H831c-0.5,0-1-0.4-1-1v-0.5h3.3V72C833.1,72.5,832.7,72.9,832.2,72.9z"/>
				<path class="st8" d="M830.2,71.8c0-0.1,0-0.2,0-0.3h2.7c0,0.1,0,0.2,0,0.3c0,0.2-0.2,0.4-0.4,0.4h-1.6
					C830.4,72.1,830.2,72,830.2,71.8z"/>
				<g>
					<path class="st26" d="M832,86.9c-1.4,0-3-0.2-4.6-0.5c-0.7-0.1-1.1-0.8-0.9-1.4c0.1-0.7,0.8-1.1,1.4-0.9
						c5.1,1.2,8.8,0.1,9.9-1.5c0.7-0.9,0.4-2.1-0.5-3.4c-0.4-0.5-0.2-1.3,0.3-1.7s1.3-0.2,1.7,0.3c2.1,2.9,1.3,5.1,0.7,6.2
						C838.6,85.7,835.6,86.9,832,86.9z"/>
				</g>
				<g>
					<path class="st31" d="M835.1,62.2l-1.5-0.7c-1-0.4-2.2-0.4-3.1,0l-1.5,0.7c-0.9,0.4-1.4,1.2-1.4,2.2v2.9c2.6-1.2,4.7-1,7.4,0
						c0.3,0.1,1.3,0,1.7,0v-2.9C836.5,63.4,835.9,62.5,835.1,62.2z"/>
					<g>
						<path class="st36" d="M835,67.6c-0.1,0-0.1,0-0.2,0c-3.1-1.3-5.7-1.3-7.8,0c-0.2,0.1-0.5,0.1-0.7-0.1
							c-0.1-0.2-0.1-0.5,0.1-0.7c2.4-1.4,5.3-1.4,8.7,0c0.2,0.1,0.3,0.3,0.2,0.7C835.3,67.5,835.2,67.6,835,67.6z"/>
					</g>
					<ellipse class="st3" cx="831.2" cy="63.8" rx="2" ry="1.1"/>
				</g>
				<path class="st32" d="M828.8,84.5c0,1-0.8,1.8-1.7,1.8s-1.7-0.8-1.7-1.8s0.8-1.8,1.7-1.8S828.8,83.6,828.8,84.5z"/>
			</g>
			<g>
				<path class="st29" d="M838.9,110.7c0,3.8-2.2,6.9-4.9,6.9c-2.7,0-4.9-3-4.9-6.9c0-3.8,2.2-6.9,4.9-6.9
					C836.7,103.8,838.9,106.9,838.9,110.7z"/>
				<path class="st37" d="M836.9,110.7c0,2.3-1.3,4-2.8,4c-1.5,0-2.8-1.8-2.8-4c0-2.3,1.3-4,2.8-4
					C835.6,106.7,836.9,108.5,836.9,110.7z"/>
				<path class="st29" d="M835.4,110.7c0,1.4-0.9,2.6-1.8,2.6c-1,0-1.8-1.2-1.8-2.6c0-1.4,0.9-2.6,1.8-2.6
					C834.6,108.1,835.4,109.3,835.4,110.7z"/>
			</g>
			<g>
				<path class="st29" d="M859.7,110.7c0,3.8-2.2,6.9-4.9,6.9s-4.9-3-4.9-6.9c0-3.8,2.2-6.9,4.9-6.9
					C857.5,103.8,859.7,106.9,859.7,110.7z"/>
				<path class="st37" d="M857.6,110.7c0,2.3-1.3,4-2.8,4s-2.8-1.8-2.8-4c0-2.3,1.3-4,2.8-4C856.4,106.7,857.6,108.5,857.6,110.7z"
					/>
				<path class="st29" d="M856.2,110.7c0,1.4-0.9,2.6-1.8,2.6s-1.8-1.2-1.8-2.6c0-1.4,0.9-2.6,1.8-2.6S856.2,109.3,856.2,110.7z"/>
			</g>
			<path class="st4" d="M808.8,94.7h8.2c2.1,0,3.8-1.7,3.8-3.8v-4.6h-15.8v4.6C805.1,93.1,806.8,94.7,808.8,94.7z"/>
			<g>
				<polygon class="st29" points="821.5,111.3 799.4,111.3 799.4,42.6 803.9,42.6 803.9,106.9 817.1,106.9 817.1,42.6 821.5,42.6 
									"/>
			</g>
			<g>
				<g>
					<rect x="785.2" y="86.8" class="st29" width="20.5" height="3.9"/>
				</g>
				<g>
					<rect x="802.1" y="86.8" class="st4" width="17.6" height="3.9"/>
				</g>
				<g>
					<rect x="817.1" y="42.6" class="st4" width="4.4" height="68.6"/>
				</g>
			</g>
			<g>
				<polygon class="st17" points="817.5,68.2 785.3,68.3 785.4,87 817.6,86.8 				"/>
				<polygon class="st18" points="797.2,68.3 785.3,68.3 785.4,87 797.4,86.9 				"/>
				<g>
					<path class="st8" d="M804,78.8l-3.6,0.9c-0.8,0.2-1.2,1-1.1,1.6l0.8,3.1c0.2,0.8,1,1.2,1.6,1.1l3.6-0.9c0.8-0.2,1.2-1,1.1-1.6
						l-0.8-3.1C805.4,79.1,804.6,78.6,804,78.8z"/>
					<path class="st19" d="M804.2,81.4l-2.8,0.7c-0.4,0.1-0.8-0.1-0.9-0.5l0,0c-0.1-0.4,0.1-0.8,0.5-0.9l2.8-0.7
						c0.4-0.1,0.8,0.1,0.9,0.5l0,0C804.8,81,804.6,81.4,804.2,81.4z"/>
					<path class="st19" d="M804,83.9l-1.3,0.3c-0.4,0.1-0.8-0.1-0.9-0.5l0,0c-0.1-0.4,0.1-0.8,0.5-0.9l1.3-0.3
						c0.4-0.1,0.8,0.1,0.9,0.5l0,0C804.6,83.5,804.4,83.8,804,83.9z"/>
				</g>
				<polygon class="st18" points="810.9,73.9 805.2,74 805.2,68.2 810.8,68.2 				"/>
				<polygon class="st20" points="817.7,68.4 807.1,72.5 797.2,72.5 797.2,68.4 				"/>
			</g>
			<g>
				<polygon class="st17" points="817.4,53.2 791.4,53.3 791.5,68.5 817.5,68.3 				"/>
				<polygon class="st18" points="801,53.2 791.4,53.3 791.5,68.5 801,68.4 				"/>
				<g>
					<path class="st19" d="M798.2,54.7l-2.9,0.7c-0.7,0.1-1,0.8-0.9,1.3l0.5,2.5c0.1,0.7,0.8,1,1.4,0.9l2.9-0.7
						c0.7-0.1,1-0.8,0.9-1.3l-0.5-2.5C799.4,55,798.9,54.5,798.2,54.7z"/>
					<path class="st26" d="M798.4,56.8l-2.3,0.5c-0.3,0.1-0.7-0.1-0.8-0.4l0,0c-0.1-0.3,0.1-0.7,0.4-0.8l2.3-0.5
						c0.3-0.1,0.7,0.1,0.8,0.4l0,0C799,56.5,798.8,56.8,798.4,56.8z"/>
					<path class="st26" d="M798.3,58.9l-1.1,0.2c-0.3,0.1-0.7-0.1-0.8-0.4l0,0c-0.1-0.3,0.1-0.7,0.4-0.8l1.1-0.2
						c0.3-0.1,0.7,0.1,0.8,0.4l0,0C798.9,58.4,798.7,58.7,798.3,58.9z"/>
				</g>
				<polygon class="st18" points="812.1,57.9 807.4,57.9 807.4,53.2 812,53.2 				"/>
			</g>
		</g>
	</g>
	<g>
		<g>
			<g>
				<g>
					<path class="st29" d="M768.6,81.4c-0.3,0-0.8,0-1.1-0.1c-2.8-0.5-5.1-3.3-7.3-8.5c-0.3-0.8,0-1.5,0.8-1.8
						c0.8-0.3,1.5,0,1.8,0.8c1.7,4.1,3.5,6.4,5.3,6.7c1.2,0.2,2.7-0.4,4.4-2.1c0.5-0.5,1.4-0.5,2,0s0.5,1.4,0,2
						C772.4,80.4,770.5,81.4,768.6,81.4z"/>
				</g>
				<path class="st29" d="M750.2,88h11.3c0.5-6.3,0.5-11.1,0-13.8l-12-0.4C750.4,79.6,750.6,83.2,750.2,88z"/>
				<path class="st31" d="M761.5,74.3l-9.6,1.6l1.3,6.1l-2.7-0.8c0.1,2.3,0,4.3-0.2,6.8h11.3C762,81.7,762,77.1,761.5,74.3z"/>
				<path class="st29" d="M750,68.2c2.8-0.7,5.7-1,8.7-0.9c2,0,3.7,1.4,4.2,3.4l1,4l-13.4,1.4l-1-2.5c-1.2,0-1.4,1.7-1.3,3.9
					l-1.5-5.2C746.6,70.3,748,68.6,750,68.2z"/>
				<path class="st31" d="M758.7,67.3c-0.3,0-0.7,0-0.9,0c0.5,1.4,0.9,3,1.1,4.8l-5.4,0.5c-1.1-2.4-2.1-4-2.8-4.6
					c-0.2,0-0.4,0.1-0.7,0.1c-0.2,0-0.3,0.1-0.5,0.1c0.8,1.2,1.6,4.2,2.4,7.6l9.6-1l-2.4-7.6C759,67.3,758.8,67.3,758.7,67.3z"/>
				<path class="st32" d="M754.7,69.8L754.7,69.8c0.9-0.1,1.5-0.9,1.4-1.7l-0.4-3.6l-3.1,0.3l0.4,3.6
					C753.1,69.3,753.9,69.9,754.7,69.8z"/>
				<path class="st33" d="M754.5,68.4L754.5,68.4c0.9-0.1,1.5-0.9,1.4-1.7l-0.4-3.6l-3.1,0.3l0.4,3.6
					C752.9,67.9,753.7,68.5,754.5,68.4z"/>
				<path class="st32" d="M754.7,66.8L754.7,66.8c2.7-0.3,4.7-2.7,4.4-5.4l-0.4-3.8c-0.3-2.7-2.7-4.7-5.4-4.4l0,0
					c-2.7,0.3-4.7,2.7-4.4,5.4l0.4,3.8C749.7,65,752,67,754.7,66.8z"/>
				<path class="st32" d="M758.9,59.1c-0.4,0-0.8,0.7-0.8,1.4c0,0.8,0.3,1.4,0.8,1.4c0.4,0,0.8-0.7,0.8-1.4S759.3,59.1,758.9,59.1z"
					/>
				<path class="st33" d="M748.5,55.5l0.4,5.3c0,0.3,0.3,0.5,0.7,0.5l0,0c0.9-1.6,0.9-3.1-0.1-4.7c2.6,0.7,5.3,0.3,8.2-0.9l0.9,4.6
					l0,0c0.3,0,0.5-0.3,0.5-0.7l-0.5-5.4l-1.8-1.2l-2.9-1l0.1,0.9l-2.6-0.5l-0.9,0.5L748.5,55.5z"/>
				<path class="st32" d="M748.8,60.5c-0.5,0.1-0.9,0.8-0.8,1.5c0.2,0.8,0.9,1.3,1.4,1.2s0.9-0.8,0.8-1.5
					C750,60.9,749.3,60.4,748.8,60.5z"/>
				<g>
					<path class="st34" d="M752.8,61.8c0.1-0.2,0.1-0.4,0.1-0.8c-0.1-0.7-0.4-1.1-0.8-1.1c-0.3,0-0.5,0.5-0.4,1.2
						c0,0.3,0.1,0.5,0.2,0.8L752.8,61.8z"/>
					<g>
						<path class="st33" d="M751.4,59.5c-0.1,0-0.1,0-0.2-0.1s-0.2-0.3-0.1-0.4c0.4-0.5,1.4-0.4,1.8-0.2c0.1,0.1,0.2,0.3,0.1,0.4
							s-0.3,0.2-0.4,0.1c-0.2-0.1-0.9-0.1-1,0C751.6,59.4,751.5,59.5,751.4,59.5z"/>
					</g>
				</g>
				<g>
					<path class="st34" d="M757.5,61.2c0.1-0.2,0.1-0.4,0.1-0.8c-0.1-0.7-0.4-1.1-0.8-1.1c-0.3,0-0.5,0.5-0.4,1.2
						c0,0.3,0.1,0.5,0.2,0.8L757.5,61.2z"/>
					<g>
						<path class="st33" d="M756.1,59c-0.1,0-0.2,0-0.2-0.1c-0.1-0.1-0.1-0.3,0-0.4c0.3-0.3,1.3-0.7,1.8-0.2c0.1,0.1,0.1,0.3,0,0.4
							s-0.3,0.1-0.4,0c-0.1-0.1-0.8,0-1,0.2C756.2,59,756.2,59,756.1,59z"/>
					</g>
				</g>
				<g>
					<path class="st29" d="M754.2,80.9c-3.3,0-6-1-7.4-2.7c-0.9-1.1-2.2-3.5-0.1-7.2c0.4-0.7,1.2-0.9,2-0.5c0.7,0.4,0.9,1.2,0.5,2
						c-1,1.6-1,3-0.2,4c1.4,1.7,5.9,2.5,11.6,0.5c0.8-0.2,1.5,0.1,1.7,0.9c0.2,0.8-0.1,1.5-0.9,1.7
						C758.9,80.5,756.4,80.9,754.2,80.9z"/>
				</g>
				<g>
					<path class="st31" d="M749.7,52.7l1.7-1c1.1-0.7,2.4-0.8,3.7-0.4l1.8,0.7c1,0.3,1.7,1.2,1.8,2.3l0.3,3.4
						c-3.1-1.1-5.4-0.5-8.5,0.9c-0.4,0.2-1.5,0.2-2,0.2l-0.3-3.3C748.2,54.3,748.8,53.2,749.7,52.7z"/>
					<g>
						<path class="st36" d="M750.5,59.1c-0.2,0-0.3-0.1-0.4-0.3c-0.1-0.2,0-0.5,0.2-0.8c3.8-2.1,7.2-2.4,10-1
							c0.2,0.1,0.4,0.4,0.2,0.8c-0.1,0.2-0.4,0.4-0.8,0.2c-2.6-1.2-5.6-0.9-9,1C750.6,59,750.6,59.1,750.5,59.1z"/>
					</g>
					<path class="st3" d="M752.1,54.3c0.1,0.8,1.1,1.2,2.4,1.1c1.2-0.1,2.2-0.9,2.1-1.5c-0.1-0.8-1.1-1.2-2.4-1.1
						C753,52.9,752.1,53.7,752.1,54.3z"/>
				</g>
				<path class="st32" d="M759.6,77.7c0.1,1.2,1.1,2,2.2,1.8c1.1-0.1,1.8-1.2,1.7-2.3c-0.1-1.2-1.1-2-2.2-1.8
					C760.3,75.6,759.5,76.5,759.6,77.7z"/>
				<path class="st32" d="M772.2,77.1c0.1,1.2,1.1,2,2.2,1.8c1.1-0.1,1.8-1.2,1.7-2.3c-0.1-1.2-1.1-2-2.2-1.8
					C772.9,74.9,772.1,76,772.2,77.1z"/>
				<g>
					<path class="st31" d="M757.8,117.1h-0.1c-1.1-0.1-1.8-1-1.7-2.1l1.8-28.3c0.1-1.1,1-1.8,2.1-1.7c1.1,0.1,1.8,1,1.7,2.1
						l-1.8,28.3C759.6,116.3,758.8,117.1,757.8,117.1z"/>
				</g>
				<g>
					<path class="st31" d="M747.6,116.7c-0.1,0-0.2,0-0.3,0c-1.1-0.2-1.7-1.2-1.5-2.2l4.7-28.4c0.2-1.1,1.1-1.7,2.2-1.5
						c1.1,0.2,1.7,1.2,1.5,2.2l-4.7,28.4C749.3,116.1,748.5,116.7,747.6,116.7z"/>
				</g>
				<path class="st29" d="M746.3,117.4h2.7c0.8,0,1.4-0.7,1.4-1.4v-1.5c0-1-0.9-1.8-1.8-1.8h-1.1c-1,0-1.8,0.7-2.2,1.6l-0.4,1.5
					C744.8,116.5,745.4,117.4,746.3,117.4z"/>
				<path class="st29" d="M757.1,117.4h6.6c0.5,0,1-0.4,1-0.9l0,0c0-0.7-0.2-1.3-0.9-1.6l-3.9-2.3h-3.8l-0.4,3.3
					C755.7,116.6,756.3,117.4,757.1,117.4z"/>
				<g>
					<polygon class="st17" points="759.2,65.6 777.2,64.6 777.9,76.4 759.8,77.5 					"/>
					<polygon class="st18" points="769.7,65 777.2,64.6 777.9,76.4 770.4,76.9 					"/>
					<g>
						<path class="st19" d="M772,66l2.3,0.4c0.4,0.1,0.8,0.5,0.8,1l-0.3,2c-0.1,0.4-0.5,0.8-1,0.8l-2.3-0.4c-0.4-0.1-0.8-0.5-0.8-1
							l0.3-2C771,66.2,771.4,65.9,772,66z"/>
						<path class="st26" d="M771.9,67.6l1.8,0.3c0.2,0,0.5-0.1,0.5-0.4l0,0c0-0.2-0.1-0.5-0.4-0.5l-1.8-0.3c-0.2,0-0.5,0.1-0.5,0.4
							l0,0C771.4,67.4,771.7,67.6,771.9,67.6z"/>
						<path class="st26" d="M772.1,69.3l0.9,0.1c0.2,0,0.5-0.1,0.5-0.4l0,0c0-0.2-0.1-0.5-0.4-0.5l-0.9-0.1c-0.2,0-0.5,0.1-0.5,0.4
							l0,0C771.7,68.9,771.9,69.3,772.1,69.3z"/>
					</g>
					<polygon class="st18" points="763.1,69 766.2,68.8 766,65.1 763,65.4 					"/>
				</g>
				<path class="st35" d="M756.2,63.2c-0.7,0.9-1.7,0.8-2.4,0.1c-0.2-0.2-0.3,0-0.1,0.2c0.7,1,1.8,1,2.7-0.1
					C756.5,63.1,756.4,62.9,756.2,63.2z"/>
			</g>
		</g>
	</g>
</g>
<g>
	<path class="st38" d="M147,108.6h-30.1c-0.4,0-0.6-0.2-0.6-0.6V50.6c0-0.4,0.2-0.6,0.6-0.6H147c0.4,0,0.6,0.2,0.6,0.6V108
		C147.6,108.4,147.3,108.6,147,108.6z"/>
	<rect x="118" y="57" class="st39" width="27.9" height="43.7"/>
	<g>
		<path class="st40" d="M134.8,54.3H129c-0.2,0-0.4-0.2-0.4-0.4s0.2-0.4,0.4-0.4h5.8c0.2,0,0.4,0.2,0.4,0.4
			C135.3,54.1,135,54.3,134.8,54.3z"/>
		<path class="st40" d="M127.7,53.9c0-0.3-0.2-0.5-0.5-0.5s-0.5,0.2-0.5,0.5s0.2,0.5,0.5,0.5C127.5,54.4,127.7,54.2,127.7,53.9z"/>
	</g>
	<g>
		<path class="st41" d="M119.8,68.4v14.4c0,0.5,0.4,0.8,0.8,0.8h22.5c0.5,0,0.8-0.4,0.8-0.8V68.4H119.8z"/>
		<g>
			<path class="st39" d="M127,73.7c0.8-0.5,4.7-2.2,4.8-2.2c0.6-0.5,2.1-1.2,2.4-1.4c0.3-0.1,0.4,0.4,0.5,0.5
				c0.1,0.2,1.6,1.3,0.4,2.1s-8.8,2.8-9.1,2.3C125.7,74.3,126.5,74,127,73.7z"/>
			<g>
				<path class="st38" d="M134.2,71.1c-0.1-0.2-0.2-0.6-0.3-0.9c-0.6,0.2-1.6,0.8-2.1,1.2c0,0-0.1,0.1-0.3,0.1
					c0.2,0.4,0.4,0.7,0.5,0.8C132.3,72.6,134.3,71.6,134.2,71.1z"/>
			</g>
			<path class="st8" d="M122.6,79.1c-0.5,0-0.6-0.9-0.5-1.2c-0.2-2.9,2.3-3.5,3.9-3.2c0.3-0.1,5.9-2.8,7-3.2
				c1.4-0.5,2.5,1.8,3.7,1.9c1.3,0.1,3-0.7,3.1-1.2c0.2-0.6,0.6-1.5,1.2-0.6c0.6,0.9,1.1,5.1,0.6,6.3c0.1,0.2,0.1,1.2-0.1,1.2
				c-3.1,0-9.7,0-12.9,0C126.9,79.1,123.2,79.1,122.6,79.1z"/>
			<g>
				<path class="st38" d="M138.7,73.9c0.4,0,1.1-0.1,1.5-0.3c0.4,0.4,0.8,0.5,1.4,0.5c-0.2-1.1-0.4-2.1-0.6-2.5
					c-0.6-0.9-1,0-1.2,0.6c-0.1,0.4-1.2,0.9-2.2,1.1C137.7,73.9,137.9,73.9,138.7,73.9z"/>
				<path class="st42" d="M134.4,71.8c-0.5-0.4-0.9-0.6-1.5-0.4c-1.1,0.4-6.7,3.1-7,3.2c-0.1,0.1-0.2,0.6-0.2,1.2
					C126.5,75.6,132.2,72.8,134.4,71.8z"/>
				<path class="st8" d="M125.7,77.9h15.9c0.3-0.7,0.2-2.3,0.1-3.8c-0.6,0-1.1-0.1-1.4-0.5c-0.4,0.2-1.1,0.3-1.5,0.3
					c-0.8,0-0.9,0-1.1-0.6c-0.3,0.1-0.6,0.1-0.9,0.1c-0.7,0-1.5-0.9-2.2-1.5c-2.2,1-7.9,3.7-8.7,4C125.7,76.4,125.6,77.2,125.7,77.9
					z"/>
				<path class="st39" d="M125.8,75.9C125.7,75.9,125.7,75.9,125.8,75.9C125.7,75.9,125.7,75.9,125.8,75.9c0.1-0.6,0.2-1.1,0.2-1.2
					c-1.6-0.3-4.1,0.3-3.9,3.2h3.6C125.6,77.2,125.7,76.4,125.8,75.9z"/>
				<path class="st43" d="M141.6,77.9h-15.9h-3.6c-0.1,0.3,0,1.2,0.5,1.2c0.4,0,1.8,0,3.3,0c1,0,2.1,0,2.8,0c3.2,0,9.7,0,12.9,0
					C141.7,79.1,141.7,78.1,141.6,77.9z"/>
			</g>
			<path class="st8" d="M126.6,75.1c-0.1-0.1-0.2-0.2-0.1-0.2l0,0l0.4-1.2c0-0.1,0.1-0.1,0.1-0.1l0,0c0.1,0,0.1,0,0.2,0l0,0l0.8,0.5
				l0.4-1.1c0.1-0.1,0.2-0.2,0.3-0.1l0,0l1.1,0.4l0.5-1.1c0.1-0.1,0.2-0.2,0.3-0.1l0,0l0.9,0.4l0.3-0.9c0-0.1,0.1-0.1,0.1-0.1l0,0
				c0.1,0,0.1-0.1,0.2,0l0,0l1.3,0.4c0.1,0.1,0.2,0.2,0.1,0.2l0,0c-0.1,0.1-0.2,0.2-0.2,0.1l0,0l-1.1-0.4l-0.3,0.9
				c0,0.1-0.1,0.1-0.1,0.1l0,0c-0.1,0-0.1,0-0.2,0l0,0l-0.9-0.4l-0.5,1.1c-0.1,0.1-0.2,0.2-0.2,0.1l0,0l-1-0.4l-0.5,1.1
				c0,0.1-0.1,0.1-0.1,0.1l0,0c-0.1,0-0.1,0-0.2,0l0,0l-0.8-0.4L127,75l0,0C126.8,75.1,126.8,75.1,126.6,75.1L126.6,75.1
				C126.6,75.1,126.6,75.1,126.6,75.1L126.6,75.1z"/>
			<g>
				<path class="st38" d="M128.9,74.4l1.3,3.5h1.2l-1.5-3.9C129.6,74.1,129.2,74.3,128.9,74.4z"/>
				<path class="st38" d="M131,73.4l1.7,4.4h1.2L132,73C131.6,73.1,131.2,73.3,131,73.4z"/>
			</g>
		</g>
		<path class="st44" d="M143.2,67.1h-22.5c-0.5,0-0.8,0.4-0.8,0.8v0.8H144v-0.8C144,67.4,143.6,67.1,143.2,67.1z"/>
	</g>
	<rect x="123.8" y="90.8" class="st45" width="15.5" height="6.7"/>
	<g>
		<path class="st8" d="M128.6,92.6c0.6,0,0.9,0.3,0.9,0.7c0,0.4-0.2,0.6-0.5,0.6c0.4,0.1,0.6,0.4,0.6,0.7c0,0.5-0.4,0.8-1.1,0.8
			h-1.2v-2.9L128.6,92.6L128.6,92.6z M127.7,93.9h0.9c0.4,0,0.6-0.2,0.6-0.5s-0.2-0.5-0.6-0.5h-0.9V93.9z M127.7,95.2h0.9
			c0.5,0,0.8-0.2,0.8-0.5c0-0.3-0.3-0.5-0.8-0.5h-0.9V95.2z"/>
		<path class="st8" d="M132.7,94.3c0,0.8-0.5,1.2-1.2,1.2c-0.8,0-1.2-0.5-1.2-1.2v-1.7h0.4v1.7c0,0.6,0.4,0.9,0.9,0.9
			s0.9-0.4,0.9-0.9v-1.7h0.4V94.3z"/>
		<path class="st8" d="M134.5,95.5h-0.4v-1l-1.1-1.9h0.4l0.9,1.5l0.9-1.5h0.4l-1.1,1.9L134.5,95.5L134.5,95.5z"/>
	</g>
	<g>
		<path class="st46" d="M101.4,90.7H14.9c-0.6,0-1.1-0.5-1.1-1.1V27.1c0-0.6,0.5-1.1,1.1-1.1h86.5c0.6,0,1.1,0.5,1.1,1.1v62.4
			C102.5,90.1,102.1,90.7,101.4,90.7z"/>
		<path class="st42" d="M6.6,88.5h103.2V94c0,0.2-0.2,0.5-0.5,0.5H7c-0.2,0-0.5-0.2-0.5-0.5L6.6,88.5L6.6,88.5z"/>
		<g>
			<path class="st46" d="M6.6,92.8c0,0.9,0.8,1.7,1.8,1.7H108c1,0,1.8-0.7,1.8-1.7v-0.4H6.6V92.8z"/>
		</g>
		<rect x="18.2" y="30.4" class="st47" width="80" height="53.3"/>
		<rect x="27.2" y="36.6" class="st8" width="25.6" height="27.4"/>
		<rect x="55.1" y="36.6" class="st8" width="16.7" height="18.2"/>
		<rect x="55.1" y="56.8" class="st8" width="16.7" height="18.3"/>
		<rect x="74" y="36.6" class="st8" width="16.7" height="18.2"/>
		<rect x="74" y="56.8" class="st8" width="16.7" height="18.3"/>
		<g>
			<g>
				<path class="st48" d="M57.5,48.9l-0.2,0.8c-0.1,0.5,0,0.7,0.5,0.8c0.2,0.1,0.8,0.2,0.8-0.1l0.2-1.2L57.5,48.9z"/>
			</g>
			<g>
				<path class="st48" d="M69.5,48.9l0.2,0.8c0.1,0.5,0,0.7-0.5,0.8c-0.2,0.1-0.8,0.2-0.8-0.1l-0.2-1.2L69.5,48.9z"/>
			</g>
			<path class="st48" d="M66.9,43c-0.1-0.5-0.3-1.1-0.6-1.3c-0.8-0.6-1.9-0.7-2.7-0.7c-0.9,0-2,0.1-2.7,0.7
				c-0.2,0.2-0.5,0.8-0.6,1.3c-0.6,3.1-0.5,9-0.5,9c0,0.2,0.2,0.5,0.4,0.5h6.7c0.2,0,0.4-0.2,0.4-0.5C67.3,51.9,67.5,46,66.9,43z"/>
			<g>
				<path class="st49" d="M69.6,48.9l-1.3-6.2c-0.2-1.1-0.8-2.7-1.6-2.8c-0.5-0.1-0.6,0.8-0.5,1.4l1.8,8.5c0.1,0.3,0.7,0.2,1,0.1
					C69.6,49.8,69.8,49.5,69.6,48.9z"/>
				<path class="st49" d="M60.2,39.9c-0.7,0.2-1.4,1.7-1.6,2.8l-1.4,6.2c-0.1,0.6,0,0.9,0.6,1c0.3,0.1,0.9,0.2,1-0.1l1.8-8.5
					C60.8,40.6,60.7,39.8,60.2,39.9z"/>
			</g>
			<path class="st50" d="M67.1,41.2c-0.1-0.5-0.4-1.2-0.6-1.4c-0.8-0.6-2-0.8-3-0.8c-0.9,0-2.2,0.2-3,0.8c-0.3,0.2-0.5,0.8-0.6,1.4
				c-0.7,3.4-0.5,9.7-0.5,9.7c0,0.3,0.2,0.5,0.5,0.5h7.3c0.2,0,0.5-0.2,0.5-0.5C67.6,50.9,67.8,44.5,67.1,41.2z"/>
			<g>
				<g>
					<path class="st49" d="M65,48.6h-2.9c-0.1,0-0.2-0.1-0.2-0.2c0-0.1,0.1-0.2,0.2-0.2H65c0.1,0,0.2,0.1,0.2,0.2
						C65.2,48.6,65.1,48.6,65,48.6z"/>
				</g>
				<path class="st49" d="M66,43.9c-0.2-0.4-0.8-0.1-1.4,0.8c-0.2,0.4-0.4,0.8-0.5,1.2c0.1-0.4,0.1-0.9,0.1-1.3
					c0-1.4-0.3-2.2-0.6-2.2s-0.6,0.8-0.6,2.2c0,0.4,0.1,0.9,0.1,1.3c-0.1-0.4-0.3-0.9-0.5-1.2c-0.6-0.9-1.2-1.2-1.4-0.8
					c-0.2,0.4-0.1,1.3,0.5,2.2c0.6,0.9,1.7,1.3,1.9,1.3s1.4-0.3,1.9-1.2C66.1,45.2,66.3,44.3,66,43.9z"/>
			</g>
			<g>
				<path class="st48" d="M63.5,40.8c0.8,0,1.4-0.6,1.5-1.7C64.5,39,64,39,63.5,39c-0.5,0-1,0.1-1.5,0.2
					C62.1,40.2,62.7,40.8,63.5,40.8z"/>
			</g>
			<g>
				<path class="st49" d="M63.5,41.1c-1,0-1.7-0.8-1.7-1.9c0-0.2,0.1-0.3,0.3-0.3c0.2,0,0.3,0.1,0.3,0.3c0,0.8,0.5,1.3,1.2,1.3
					s1.2-0.5,1.2-1.3c0-0.2,0.1-0.3,0.3-0.3s0.3,0.1,0.3,0.3C65.3,40.3,64.6,41.1,63.5,41.1z"/>
			</g>
		</g>
		<g>
			<rect x="36.4" y="56.4" class="st51" width="6.6" height="4.2"/>
			<g>
				<path class="st52" d="M49.5,55.2l0.3,1.3c0.2,0.8,0,1.1-0.8,1.3c-0.4,0.1-1.2,0.2-1.3-0.1l-0.4-1.9L49.5,55.2z"/>
			</g>
			<g>
				<path class="st52" d="M30.6,55.2l-0.3,1.3c-0.2,0.8,0,1.1,0.8,1.3c0.4,0.1,1.2,0.2,1.3-0.1l0.4-1.9L30.6,55.2z"/>
			</g>
			<g>
				<path class="st38" d="M30.3,55.2l2.1-9.5c0.4-1.7,1.4-4,2.5-4.2c0.8-0.2,0.9,1.2,0.7,2.2l-2.8,13c-0.1,0.5-1.1,0.3-1.6,0.2
					C30.3,56.5,30,56.1,30.3,55.2z"/>
				<path class="st38" d="M45.2,41.3c1.2,0.2,2.2,2.6,2.5,4.2l2.1,9.5c0.2,1,0,1.4-0.9,1.6c-0.5,0.1-1.5,0.3-1.6-0.2l-2.9-13
					C44.3,42.5,44.4,41.2,45.2,41.3z"/>
			</g>
			<path class="st51" d="M34.2,43.3c0.2-0.8,0.5-1.8,1-2.1c1.3-1,3.2-1.2,4.8-1.2s3.5,0.2,4.8,1.2c0.5,0.4,0.8,1.3,1,2.1
				c1,5.2,0.7,15,0.7,15c0,0.4-0.4,0.8-0.8,0.8H34.1c-0.4,0-0.8-0.4-0.8-0.8C33.4,58.2,33.1,48.5,34.2,43.3z"/>
			<g>
				<path class="st38" d="M41.3,58.2h4.6c0,1,0,1.7,0,1.7c0,0.4-0.4,0.7-0.7,0.7h-3.9V58.2z"/>
				<path class="st38" d="M38.5,58.2v2.4h-3.9c-0.4,0-0.7-0.4-0.7-0.7c0,0,0-0.6,0-1.7L38.5,58.2z"/>
			</g>
			<g>
				<path class="st51" d="M39.9,42.7c-1.3,0-2.2-1-2.5-2.5c0.8-0.2,1.7-0.2,2.5-0.2c0.8,0,1.7,0.1,2.5,0.2
					C42.2,41.7,41.2,42.7,39.9,42.7z"/>
			</g>
			<g>
				<path class="st52" d="M40.9,40L40.9,40L40.9,40C41,40,40.9,40,40.9,40z"/>
				<path class="st52" d="M42.2,40.2c-0.2-0.1-0.5-0.1-0.7-0.1C41.7,40.1,41.9,40.1,42.2,40.2z"/>
				<path class="st52" d="M42.4,40.2c0.8,0.2,1.7,0.5,2.3,0.9c0.5,0.4,0.8,1.3,1,2.1c1.1,5.2,0.8,15,0.8,15c0,0.4-0.4,0.8-0.8,0.8
					h-4.8V42.5C41.7,42.2,42.2,41.3,42.4,40.2z"/>
			</g>
			<g>
				<g>
					<g>
						<path class="st38" d="M40.8,42.8c0.1,0,0.2,0,0.3,0c0.6-0.2,2.1-0.8,2.2-2.5c0-0.1-0.1-0.2-0.5-0.2c-0.4-0.1-0.5-0.2-0.6,0
							c-0.2,1.1-0.7,1.4-1.5,1.7c-0.3,0.1-0.3,0.4-0.2,0.6C40.5,42.6,40.5,42.8,40.8,42.8z"/>
					</g>
				</g>
				<g>
					<path class="st52" d="M41.3,42.8c-0.1,0-0.1,0-0.1-0.1l-0.5-1c0-0.1,0-0.1,0.1-0.1s0.1,0,0.2,0.1l0.5,1
						C41.5,42.7,41.5,42.7,41.3,42.8C41.4,42.8,41.3,42.8,41.3,42.8z"/>
				</g>
				<g>
					<path class="st52" d="M42.2,42.3C42.1,42.3,42.1,42.3,42.2,42.3l-0.8-0.9c-0.1-0.1-0.1-0.1,0-0.2c0.1-0.1,0.1-0.1,0.2,0
						l0.8,0.8c0.1,0.1,0.1,0.1,0,0.2C42.2,42.3,42.2,42.3,42.2,42.3z"/>
				</g>
				<g>
					<path class="st52" d="M42.8,41.6L42.8,41.6l-1-0.6c-0.1-0.1-0.1-0.1-0.1-0.2c0.1-0.1,0.1-0.1,0.2-0.1l0.9,0.6
						c0.1,0.1,0.1,0.1,0.1,0.2C42.9,41.6,42.8,41.6,42.8,41.6z"/>
				</g>
				<g>
					<path class="st52" d="M43.2,40.8L43.2,40.8L42,40.5c-0.1,0-0.1-0.1-0.1-0.1c0-0.1,0.1-0.1,0.1-0.1l1.1,0.3
						c0.1,0,0.1,0.1,0.1,0.1C43.3,40.8,43.2,40.8,43.2,40.8z"/>
				</g>
			</g>
			<g>
				<path class="st52" d="M39,40L39,40L39,40C38.9,40,38.9,40,39,40z"/>
				<path class="st52" d="M37.7,40.2c0.2-0.1,0.5-0.1,0.7-0.1C38.2,40.1,38,40.1,37.7,40.2z"/>
				<path class="st52" d="M37.4,40.2c-0.8,0.2-1.7,0.5-2.3,0.9c-0.5,0.4-0.8,1.3-1,2.1c-1.1,5.2-0.8,15-0.8,15
					c0,0.4,0.4,0.8,0.8,0.8h4.8V42.5C38.2,42.2,37.6,41.3,37.4,40.2z"/>
			</g>
			<g>
				<g>
					<g>
						<path class="st38" d="M39.2,42.8c-0.1,0-0.2,0-0.3,0c-0.6-0.2-2.1-0.8-2.2-2.5c0-0.1,0.1-0.2,0.5-0.2c0.4-0.1,0.5-0.2,0.6,0
							c0.2,1.1,0.7,1.4,1.5,1.7c0.3,0.1,0.3,0.4,0.2,0.6C39.3,42.6,39.3,42.8,39.2,42.8z"/>
					</g>
				</g>
				<g>
					<path class="st52" d="M38.5,42.8L38.5,42.8c-0.1-0.1-0.1-0.1-0.1-0.2l0.5-1c0-0.1,0.1-0.1,0.2-0.1c0.1,0,0.1,0.1,0.1,0.1
						l-0.5,1C38.6,42.7,38.6,42.8,38.5,42.8z"/>
				</g>
				<g>
					<path class="st52" d="M37.7,42.3C37.7,42.3,37.6,42.3,37.7,42.3c-0.1-0.1-0.1-0.2-0.1-0.2l0.8-0.8c0.1-0.1,0.1-0.1,0.2,0
						c0.1,0.1,0.1,0.1,0,0.2l-0.8,0.8C37.7,42.3,37.7,42.3,37.7,42.3z"/>
				</g>
				<g>
					<path class="st52" d="M37.1,41.6c-0.1,0-0.1,0-0.1-0.1c-0.1-0.1,0-0.1,0.1-0.2l0.9-0.6c0.1-0.1,0.1,0,0.2,0.1
						c0.1,0.1,0,0.1-0.1,0.2L37.1,41.6C37.1,41.6,37.1,41.6,37.1,41.6z"/>
				</g>
				<g>
					<path class="st52" d="M36.7,40.8c-0.1,0-0.1-0.1-0.1-0.1c0-0.1,0-0.1,0.1-0.1l1.1-0.3c0.1,0,0.1,0,0.1,0.1c0,0.1,0,0.1-0.1,0.1
						L36.7,40.8C36.7,40.8,36.7,40.8,36.7,40.8z"/>
				</g>
			</g>
			<path class="st38" d="M43.3,57.8c-0.4-0.6-0.6-2-0.5-4.2c0.7-0.1,1.1-0.2,2.8-0.4c0.3,2.4,0.4,3.9-0.1,4.6H43.3z"/>
			<path class="st38" d="M36.6,57.8c0.4-0.6,0.6-2,0.5-4.2c-0.7-0.1-1.1-0.2-2.8-0.4c-0.3,2.4-0.4,3.9,0.1,4.6H36.6z"/>
			<g>
				<path class="st51" d="M44.5,45.5c0,0.6-0.5,1.1-1.1,1.1c-0.6,0-1.1-0.5-1.1-1.1s0.5-1.1,1.1-1.1C44,44.5,44.5,44.9,44.5,45.5z"
					/>
				<path class="st38" d="M44.3,45.5c0,0.5-0.4,0.9-0.9,0.9c-0.5,0-0.9-0.4-0.9-0.9c0-0.5,0.4-0.9,0.9-0.9
					C43.9,44.6,44.3,45,44.3,45.5z"/>
				<polygon class="st52" points="43.4,44.7 43.6,45.2 44.2,45.3 43.8,45.6 43.9,46.1 43.4,45.9 42.9,46.1 43,45.6 42.6,45.3 
					43.2,45.2 				"/>
			</g>
		</g>
		<g>
			<g>
				<path class="st38" d="M57.8,69.1l-0.2,0.8c-0.1,0.5,0,0.7,0.5,0.8c0.2,0.1,0.7,0.2,0.8-0.1l0.2-1.2L57.8,69.1z"/>
			</g>
			<g>
				<path class="st38" d="M69.1,69.1l0.2,0.8c0.1,0.5,0,0.7-0.5,0.8c-0.2,0.1-0.7,0.2-0.8-0.1l-0.2-1.2L69.1,69.1z"/>
			</g>
			<path class="st53" d="M66.7,63.4c-0.1-0.5-0.3-1-0.5-1.2c-0.7-0.5-1.8-0.7-2.6-0.7c-0.8,0-1.9,0.1-2.6,0.7
				c-0.2,0.2-0.4,0.8-0.5,1.2C59.9,66.4,60,72,60,72c0,0.2,0.2,0.5,0.4,0.5h6.3c0.2,0,0.4-0.2,0.4-0.5C67.1,72,67.3,66.4,66.7,63.4z
				"/>
			<g>
				<path class="st52" d="M69.3,69L68,63.1c-0.2-1.1-0.8-2.5-1.5-2.7c-0.5-0.1-0.6,0.7-0.4,1.4l1.7,8.1c0.1,0.3,0.6,0.2,0.9,0.1
					C69.3,69.9,69.4,69.7,69.3,69z"/>
				<path class="st52" d="M60.4,60.5c-0.7,0.1-1.3,1.6-1.5,2.7L57.7,69c-0.1,0.6,0,0.8,0.5,1c0.3,0.1,0.9,0.2,0.9-0.1l1.7-8.1
					C61,61.3,60.9,60.4,60.4,60.5z"/>
			</g>
			<path class="st42" d="M66.9,61.7c-0.1-0.5-0.3-1.1-0.6-1.3c-0.8-0.6-1.9-0.8-2.8-0.8c-0.9,0-2.1,0.1-2.8,0.8
				c-0.3,0.2-0.5,0.8-0.6,1.3c-0.6,3.2-0.5,9.3-0.5,9.3c0,0.3,0.2,0.5,0.5,0.5h6.8c0.2,0,0.4-0.2,0.5-0.5
				C67.4,71,67.6,64.9,66.9,61.7z"/>
			<g>
				<path class="st53" d="M63.5,61.4c0.8,0,1.4-0.6,1.5-1.6c-0.5-0.1-1-0.1-1.5-0.1c-0.5,0-0.9,0.1-1.5,0.1
					C62.2,60.7,62.7,61.4,63.5,61.4z"/>
			</g>
			<g>
				<path class="st54" d="M63.5,61.6c-0.9,0-1.7-0.7-1.7-1.8c0-0.2,0.1-0.3,0.3-0.3c0.2,0,0.3,0.1,0.3,0.3c0,0.8,0.4,1.2,1.1,1.2
					c0.6,0,1.1-0.5,1.1-1.2c0-0.2,0.1-0.3,0.3-0.3c0.2,0,0.3,0.1,0.3,0.3C65.2,60.9,64.5,61.6,63.5,61.6z"/>
			</g>
			<g>
				<g>
					<path class="st54" d="M64.1,63v1.4h0.4v0.7H64v0.2h0.2v0.8H63v-0.8h0.3v-0.2h-1.2v-0.6l1.1-1.5H64.1z M63.3,64.1L63,64.4h0.2
						V64.1z"/>
				</g>
				<g>
					<path class="st54" d="M62.8,67v0.4l-0.1,0.1l0.1,0.1V68l-0.3,0.2h-0.9v-0.4h0.1v-0.7h-0.1v-0.4h0.9L62.8,67z M62.3,67.1h-0.2
						v0.1h0.2V67.1z M62.3,67.7h-0.2v0.2h0.2V67.7z"/>
					<path class="st54" d="M64.2,67V68l-0.2,0.2h-0.6L63.1,68v-1l0.2-0.2h0.6L64.2,67z M63.7,67.1h-0.2v0.7h0.2V67.1z"/>
					<path class="st54" d="M65.6,66.8v0.4h-0.1l-0.3,0.5v0.2h0.1v0.4h-0.6v-0.4h0.1v-0.2l-0.3-0.5h-0.1v-0.4H65v0.4h-0.1l0.1,0.2
						l0.1-0.2h-0.1v-0.4L65.6,66.8L65.6,66.8z"/>
				</g>
				<g>
					<path class="st38" d="M62.8,67v0.4l-0.1,0.1l0.1,0.1V68l-0.3,0.2h-0.9v-0.4h0.1v-0.7h-0.1v-0.4h0.9L62.8,67z M62.6,67.1
						l-0.2-0.2h-0.7V67h0.1V68h-0.1v0.1h0.7l0.2-0.2v-0.3l-0.1-0.1l0.1-0.1L62.6,67.1L62.6,67.1z M62.4,67L62.4,67l0.1,0.3l-0.1,0.1
						H62V67L62.4,67L62.4,67z M62.4,67.6L62.4,67.6l0.1,0.3L62.3,68H62v-0.4H62.4z M62.3,67.1h-0.2v0.1h0.2V67.1z M62.3,67.7h-0.2
						v0.2h0.2V67.7z"/>
					<path class="st38" d="M64.2,67V68l-0.2,0.2h-0.6L63.1,68v-1l0.2-0.2h0.6L64.2,67z M64,67.1l-0.2-0.2h-0.4l-0.2,0.2v0.8l0.2,0.2
						h0.5l0.2-0.2L64,67.1L64,67.1z M63.9,67.1v0.8L63.8,68h-0.3l-0.1-0.1v-0.8l0.1-0.1L63.9,67.1L63.9,67.1z M63.7,67.1h-0.2v0.7
						h0.2V67.1z"/>
					<path class="st38" d="M65.6,66.8v0.4h-0.1l-0.3,0.5v0.2h0.1v0.4h-0.6v-0.4h0.1v-0.2l-0.3-0.5h-0.1v-0.4H65v0.4h-0.1l0.1,0.2
						l0.1-0.2h-0.1v-0.4L65.6,66.8L65.6,66.8z M65.5,66.9h-0.4V67h0.1L65,67.5L64.7,67h0.1v-0.1h-0.4V67h0.1l0.4,0.6V68h-0.1v0.1
						h0.4V68H65v-0.4l0.4-0.6h0.1L65.5,66.9L65.5,66.9z"/>
				</g>
				<g>
					<path class="st38" d="M64.1,63v1.4h0.4v0.7H64v0.2h0.2v0.8H63v-0.8h0.3v-0.2h-1.2v-0.6l1.1-1.5H64.1z M63.8,63.3h-0.6l-0.9,1.3
						v0.4h1.2v0.6h-0.2v0.3H64v-0.3h-0.2v-0.6h0.4v-0.2h-0.4V63.3z M63.4,63.5v1.1h-0.9L63.4,63.5L63.4,63.5z M63.3,64.1L63,64.4
						h0.2V64.1z"/>
				</g>
			</g>
		</g>
		<g>
			<g>
				<path class="st55" d="M88,48.8l0.2,0.8c0.1,0.5,0,0.6-0.5,0.8c-0.2,0.1-0.7,0.2-0.8-0.1l-0.2-1.2L88,48.8z"/>
			</g>
			<g>
				<path class="st55" d="M76.7,48.8l-0.2,0.8c-0.1,0.5,0,0.6,0.5,0.8c0.2,0.1,0.7,0.2,0.8-0.1l0.2-1.2L76.7,48.8z"/>
			</g>
			<path class="st55" d="M79.2,43.1c0.1-0.5,0.3-1,0.5-1.2c0.7-0.5,1.8-0.7,2.6-0.7s1.9,0.1,2.6,0.7c0.2,0.2,0.4,0.7,0.5,1.2
				c0.6,2.9,0.4,8.5,0.4,8.5c0,0.2-0.2,0.5-0.4,0.5h-6.2c-0.2,0-0.4-0.2-0.4-0.5C78.7,51.6,78.6,46,79.2,43.1z"/>
			<g>
				<path class="st56" d="M76.5,48.7l1.2-5.9c0.2-1.1,0.8-2.5,1.5-2.7c0.5-0.1,0.5,0.7,0.4,1.4l-1.7,8c-0.1,0.3-0.6,0.2-0.9,0.1
					C76.6,49.5,76.4,49.3,76.5,48.7z"/>
				<path class="st56" d="M85.4,40.2c0.7,0.1,1.3,1.6,1.5,2.7l1.2,5.9c0.1,0.6,0,0.8-0.5,0.9c-0.3,0.1-0.9,0.2-0.9-0.1l-1.7-8
					C84.8,40.9,84.9,40,85.4,40.2z"/>
			</g>
			<path class="st42" d="M78.9,41.4c0.1-0.5,0.3-1.1,0.6-1.3c0.8-0.6,1.9-0.8,2.8-0.8s2.1,0.1,2.8,0.8c0.3,0.2,0.5,0.8,0.6,1.3
				c0.6,3.2,0.5,9.2,0.5,9.2c0,0.3-0.2,0.5-0.5,0.5h-6.8c-0.2,0-0.4-0.2-0.5-0.5C78.4,50.6,78.2,44.6,78.9,41.4z"/>
			<g>
				<path class="st55" d="M82.3,41c-0.8,0-1.4-0.6-1.5-1.6c0.5-0.1,1-0.1,1.5-0.1s0.9,0.1,1.5,0.1C83.6,40.4,83.1,41,82.3,41z"/>
			</g>
			<g>
				<path class="st56" d="M82.3,41.3c0.9,0,1.7-0.7,1.7-1.8c0-0.2-0.1-0.3-0.3-0.3c-0.2,0-0.3,0.1-0.3,0.3c0,0.8-0.4,1.2-1.1,1.2
					c-0.6,0-1.1-0.5-1.1-1.2c0-0.2-0.1-0.3-0.3-0.3c-0.2,0-0.2,0.1-0.2,0.2C80.7,40.6,81.3,41.3,82.3,41.3z"/>
			</g>
			<path class="st57" d="M83.9,44.4L83.9,44.4c0.2-0.1,0.3-0.1,0.4-0.2c0.1-0.1,0.1-0.2,0.1-0.4c0-0.1,0-0.2-0.1-0.2
				c-0.1-0.1-0.1-0.1-0.2-0.2c-0.1-0.1-0.2-0.1-0.2-0.1c-0.1,0-0.2,0-0.4,0H83h-0.6h-0.1L82,44.7l0,0l-0.6-1.4h-0.7l-0.5,2.4h0.7
				l0.3-1.4l0,0l0.6,1.4h0.1h0.6h0.9c0.3,0,0.5-0.1,0.7-0.2c0.2-0.2,0.2-0.4,0.2-0.5C84.3,44.6,84.2,44.5,83.9,44.4z M83.1,45.2
				h-0.4l0.1-0.5h0.4c0.1,0,0.2,0,0.2,0.1c0.1,0.1,0.1,0.1,0.1,0.2C83.6,45,83.4,45.2,83.1,45.2z M83.6,44.1
				c-0.1,0.1-0.1,0.1-0.1,0.1c-0.1,0-0.1,0-0.2,0H83l0.1-0.5h0.3c0.1,0,0.2,0,0.2,0.1c0.1,0.1,0.1,0.1,0.1,0.1
				C83.7,44,83.7,44,83.6,44.1z"/>
			<g>
				<path class="st57" d="M84,46.8h-3.4c-0.1,0-0.2-0.1-0.2-0.2c0-0.1,0.1-0.2,0.2-0.2H84c0.1,0,0.2,0.1,0.2,0.2
					C84.2,46.8,84.1,46.8,84,46.8z"/>
			</g>
		</g>
		<g>
			<rect x="80.5" y="69.9" class="st58" width="4.1" height="2.7"/>
			<g>
				<path class="st59" d="M76.4,69.2L76.2,70c-0.1,0.5,0,0.7,0.5,0.8c0.2,0.1,0.8,0.2,0.8-0.1l0.2-1.2L76.4,69.2z"/>
			</g>
			<g>
				<path class="st59" d="M88.3,69.2l0.2,0.8c0.1,0.5,0,0.7-0.5,0.8c-0.2,0.1-0.8,0.2-0.8-0.1l-0.2-1.2L88.3,69.2z"/>
			</g>
			<g>
				<path class="st60" d="M88.4,69.2L87.1,63c-0.2-1.1-0.8-2.6-1.5-2.8c-0.5-0.1-0.6,0.8-0.5,1.4l1.8,8.4c0.1,0.3,0.7,0.2,1,0.1
					C88.4,70,88.6,69.8,88.4,69.2z"/>
				<path class="st60" d="M79.1,60.2c-0.7,0.2-1.4,1.7-1.5,2.8l-1.3,6.2c-0.1,0.6,0,0.9,0.6,1c0.3,0.1,0.9,0.2,1-0.1l1.8-8.4
					C79.7,61,79.7,60.1,79.1,60.2z"/>
			</g>
			<path class="st58" d="M86,61.5c-0.1-0.5-0.4-1.2-0.6-1.4c-0.8-0.6-2-0.8-2.9-0.8s-2.1,0.2-2.9,0.8c-0.3,0.2-0.5,0.8-0.6,1.4
				c-0.6,3.4-0.5,9.7-0.5,9.7c0,0.3,0.2,0.5,0.5,0.5h7.2c0.2,0,0.5-0.2,0.5-0.5C86.5,71.2,86.7,64.8,86,61.5z"/>
			<g>
				<path class="st60" d="M81.5,71.2h-2.9c0,0.6,0,1.1,0,1.1c0,0.2,0.2,0.5,0.4,0.5h2.4L81.5,71.2L81.5,71.2z"/>
				<path class="st60" d="M83.3,71.2v1.5h2.4c0.2,0,0.4-0.2,0.4-0.5c0,0,0-0.4,0-1.1C86.1,71.2,83.3,71.2,83.3,71.2z"/>
			</g>
			<g>
				<path class="st58" d="M82.4,61.1c0.8,0,1.4-0.6,1.5-1.7c-0.5-0.1-1.1-0.2-1.5-0.2c-0.5,0-1,0.1-1.5,0.2
					C81,60.5,81.6,61.1,82.4,61.1z"/>
			</g>
			<g>
				<path class="st59" d="M81.8,59.3L81.8,59.3L81.8,59.3L81.8,59.3z"/>
				<path class="st59" d="M81,59.4c0.1,0,0.3-0.1,0.4-0.1C81.3,59.4,81.2,59.4,81,59.4z"/>
				<path class="st59" d="M80.9,59.5c-0.5,0.1-1,0.3-1.4,0.6c-0.3,0.2-0.5,0.8-0.6,1.4c-0.6,3.4-0.5,9.7-0.5,9.7
					c0,0.3,0.2,0.5,0.5,0.5h2.9V61C81.3,60.7,81,60.2,80.9,59.5z"/>
			</g>
			<g>
				<g>
					<path class="st60" d="M81.9,61.2c-0.1,0-0.1,0-0.2,0c-0.4-0.1-1.3-0.5-1.4-1.6c0-0.1,0.1-0.1,0.3-0.2c0.2-0.1,0.4-0.1,0.4,0
						c0.1,0.6,0.5,0.9,0.9,1.1c0.2,0.1,0.2,0.2,0.1,0.4C82.1,61,82.1,61.1,81.9,61.2z"/>
				</g>
				<path class="st59" d="M81.4,61.3c-0.1-0.1-0.2-0.2-0.2-0.4l0,0l0.3-0.6c0.1-0.1,0.2-0.2,0.4-0.1l0,0c0.1,0.1,0.2,0.2,0.1,0.4
					l0,0l-0.3,0.6C81.7,61.3,81.5,61.4,81.4,61.3L81.4,61.3C81.5,61.4,81.5,61.4,81.4,61.3L81.4,61.3z"/>
				<path class="st59" d="M80.8,61c-0.1-0.1-0.1-0.3,0-0.4l0,0l0.5-0.5c0.1-0.1,0.3-0.1,0.4,0l0,0c0.1,0.1,0.1,0.3,0,0.4l0,0
					L81.2,61c-0.1,0.1-0.1,0.1-0.2,0.1l0,0C81,61.1,80.9,61,80.8,61L80.8,61z"/>
				<path class="st59" d="M80.4,60.5c-0.1-0.1-0.1-0.3,0.1-0.4l0,0l0.6-0.4c0.1-0.1,0.3-0.1,0.4,0.1l0,0c0.1,0.1,0.1,0.3-0.1,0.4
					l0,0l-0.6,0.4c-0.1,0.1-0.1,0.1-0.2,0.1l0,0C80.5,60.6,80.5,60.5,80.4,60.5L80.4,60.5z"/>
				<path class="st59" d="M80.1,59.9c-0.1-0.2,0.1-0.3,0.2-0.4l0,0l0.7-0.2c0.2-0.1,0.3,0.1,0.4,0.2l0,0c0.1,0.2-0.1,0.3-0.2,0.4
					l0,0l-0.7,0.2h-0.1l0,0C80.3,60.1,80.2,60,80.1,59.9L80.1,59.9z"/>
			</g>
			<g>
				<path class="st59" d="M83,59.3L83,59.3C83,59.3,83.1,59.3,83,59.3C83.1,59.3,83,59.3,83,59.3z"/>
				<path class="st59" d="M83.8,59.4c-0.1,0-0.3-0.1-0.4-0.1C83.5,59.4,83.7,59.4,83.8,59.4z"/>
				<path class="st59" d="M84,59.5c0.5,0.1,1,0.3,1.4,0.6c0.3,0.2,0.5,0.8,0.6,1.4c0.6,3.4,0.5,9.7,0.5,9.7c0,0.3-0.2,0.5-0.5,0.5
					H83V61C83.5,60.7,83.8,60.2,84,59.5z"/>
			</g>
			<g>
				<g>
					<path class="st60" d="M82.9,61.2c0.1,0,0.1,0,0.2,0c0.4-0.1,1.3-0.5,1.4-1.6c0-0.1-0.1-0.1-0.3-0.2c-0.2-0.1-0.4-0.1-0.4,0
						c-0.1,0.6-0.5,0.9-0.9,1.1c-0.2,0.1-0.2,0.2-0.1,0.4C82.8,61,82.8,61.1,82.9,61.2z"/>
				</g>
				<path class="st59" d="M83,61.2l-0.3-0.6c-0.1-0.1,0-0.3,0.2-0.4l0,0c0.1-0.1,0.3,0,0.4,0.2l0,0l0.3,0.6c0.1,0.1,0,0.3-0.2,0.4
					l0,0c-0.1,0-0.1,0-0.1,0l0,0C83.2,61.4,83.1,61.3,83,61.2L83,61.2z"/>
				<path class="st59" d="M83.6,61l-0.5-0.5c-0.1-0.1-0.1-0.3,0-0.4l0,0c0.1-0.1,0.3-0.1,0.4,0l0,0l0.5,0.5c0.1,0.1,0.1,0.3,0,0.4
					l0,0C84,61,83.9,61,83.8,61l0,0C83.7,61.1,83.7,61,83.6,61L83.6,61z"/>
				<path class="st59" d="M84,60.5l-0.6-0.4c-0.1-0.1-0.2-0.2-0.1-0.4l0,0c0.1-0.1,0.3-0.2,0.4-0.1l0,0l0.6,0.4
					c0.1,0.1,0.2,0.2,0.1,0.4l0,0c-0.1,0.1-0.1,0.1-0.2,0.1l0,0C84.1,60.6,84.1,60.6,84,60.5L84,60.5z"/>
				<path class="st59" d="M84.3,60.1l-0.7-0.2c-0.2-0.1-0.2-0.2-0.2-0.4l0,0c0.1-0.2,0.2-0.2,0.4-0.2l0,0l0.7,0.2
					c0.2,0.1,0.2,0.2,0.2,0.4l0,0C84.6,60,84.5,60.1,84.3,60.1L84.3,60.1C84.4,60.1,84.4,60.1,84.3,60.1L84.3,60.1z"/>
			</g>
			<path class="st60" d="M80.4,70.9c0.2-0.4,0.4-1.3,0.4-2.7c-0.4,0-0.7-0.1-1.8-0.3c-0.2,1.5-0.2,2.5,0.1,3H80.4z"/>
			<path class="st60" d="M84.5,70.9c-0.2-0.4-0.4-1.3-0.4-2.7c0.4,0,0.7-0.1,1.8-0.3c0.2,1.5,0.2,2.5-0.1,3H84.5z"/>
			<g>
				<g>
					<path class="st8" d="M80.2,61.8c-0.4,0-0.8,0.3-0.8,0.6c0,0.4,0.4,0.6,0.8,0.6c0.4,0,0.8-0.3,0.8-0.6
						C81,62.1,80.7,61.8,80.2,61.8z M80.4,62.8v-0.8c0.2,0,0.5,0.2,0.5,0.4C80.8,62.7,80.6,62.8,80.4,62.8z"/>
					<path class="st58" d="M80.2,62.1v0.8c-0.2,0-0.5-0.2-0.5-0.4C79.7,62.3,79.9,62.1,80.2,62.1z"/>
				</g>
				<g>
					<path class="st58" d="M80.8,63.6h-1c-0.1,0-0.1-0.1-0.1-0.1c0-0.1,0.1-0.1,0.1-0.1h1C80.8,63.5,80.8,63.6,80.8,63.6
						C80.8,63.6,80.8,63.6,80.8,63.6z"/>
				</g>
			</g>
		</g>
		<rect x="27.1" y="66.4" class="st45" width="25.8" height="9.1"/>
		<g>
			<path class="st8" d="M35.7,69.4c0.8,0,1.3,0.4,1.3,1c0,0.5-0.2,0.8-0.7,0.9c0.6,0.1,0.9,0.5,0.9,1c0,0.6-0.5,1.1-1.4,1.1H34v-3.9
				H35.7z M34.5,71.1h1.2c0.5,0,0.8-0.2,0.8-0.6s-0.3-0.6-0.8-0.6h-1.2V71.1z M34.5,72.9h1.2c0.6,0,1-0.2,1-0.7c0-0.4-0.4-0.7-1-0.7
				h-1.2V72.9z"/>
			<path class="st8" d="M41.3,71.7c0,1-0.6,1.7-1.7,1.7c-1.1,0-1.7-0.6-1.7-1.7v-2.3h0.5v2.3c0,0.8,0.5,1.2,1.2,1.2s1.2-0.5,1.2-1.2
				v-2.3h0.5L41.3,71.7L41.3,71.7z"/>
			<path class="st8" d="M43.8,73.3h-0.5V72l-1.5-2.6h0.5l1.3,2.1l1.2-2.1h0.5L43.8,72V73.3z"/>
		</g>
		<path class="st46" d="M66.6,91.4H49.7c-0.1,0-0.1-0.1-0.1-0.1v-0.7c0-0.1,0.1-0.1,0.1-0.1h16.9c0.1,0,0.1,0.1,0.1,0.1v0.7
			C66.7,91.4,66.6,91.4,66.6,91.4z"/>
	</g>
	<circle class="st40" cx="132.1" cy="104.9" r="1.9"/>
</g>
</svg>
