<?xml version="1.0" encoding="utf-8"?>
<!-- Generator: Adobe Illustrator 24.1.3, SVG Export Plug-In . SVG Version: 6.00 Build 0)  -->
<svg version="1.1" id="Layer_1" xmlns="http://www.w3.org/2000/svg" xmlns:xlink="http://www.w3.org/1999/xlink" x="0px" y="0px"
	 viewBox="0 0 265 212" style="enable-background:new 0 0 265 212;" xml:space="preserve">
<style type="text/css">
	.st0{clip-path:url(#SVGID_2_);}
	.st1{fill:#D8D7D6;}
	.st2{fill:#DBDBDB;}
	.st3{fill:#E8E8E8;}
	.st4{fill:#FFFFFF;}
	.st5{fill:#5D9493;}
	.st6{fill:#B09974;}
	.st7{fill:#DED6C3;}
	.st8{fill:#BCBCBC;}
	.st9{fill:#029DB7;}
	.st10{fill:#20284D;}
	.st11{clip-path:url(#SVGID_4_);}
	.st12{fill:#7A7A79;}
	.st13{fill:#0492A0;}
	.st14{fill:#B2B2AF;}
	.st15{fill:#D1D1D1;}
	.st16{fill:#F2F2F2;}
	.st17{fill:#EDE5D0;}
	.st18{fill:#CCBE9F;}
	.st19{fill:#FFF8E8;}
	.st20{fill:#647371;}
	.st21{fill:#DEDBDA;}
	.st22{fill:#DEDEDE;}
	.st23{clip-path:url(#SVGID_6_);}
	.st24{fill:#E6E5E4;}
	.st25{fill:#D1D0CF;}
	.st26{fill:#F0F0F0;}
	.st27{fill:#818C8B;}
	.st28{fill:#606968;}
	.st29{clip-path:url(#SVGID_8_);}
	.st30{fill:#C0CFCC;}
	.st31{fill:#889E9A;}
	.st32{clip-path:url(#SVGID_10_);}
	.st33{clip-path:url(#SVGID_12_);}
	.st34{fill:#422D04;}
	.st35{clip-path:url(#SVGID_14_);fill:#876014;}
	.st36{fill:#0292AA;}
	.st37{fill:#E2E2E2;}
	.st38{clip-path:url(#SVGID_16_);fill:#F2A18B;}
	.st39{fill:#FDC6AA;}
	.st40{fill:#FFCFB5;}
	.st41{fill:#5C3419;}
	.st42{clip-path:url(#SVGID_18_);fill:#876014;}
	.st43{fill:#353D40;}
	.st44{fill:#515D61;}
	.st45{fill:#EBEBE9;}
	.st46{fill:#7D7D7C;}
	.st47{fill:#CC8623;}
	.st48{fill:#EDBA5A;}
	.st49{fill:#E8A74D;}
	.st50{fill:#B0731E;}
	.st51{fill:#DEA02E;}
	.st52{fill:#D9973A;}
	.st53{fill:#BD7C20;}
	.st54{fill:#E09F44;}
	.st55{fill:#D18B2A;}
	.st56{fill:#FCCA6A;}
	.st57{fill:#F5D8B0;}
	.st58{fill:#FCE4C2;}
	.st59{fill:#DEC095;}
	.st60{fill:#FFEFD9;}
	.st61{fill:#F0A49A;}
	.st62{fill:#E68275;}
	.st63{fill:#181C21;}
	.st64{fill:#876014;}
	.st65{clip-path:url(#SVGID_20_);}
	.st66{fill:#FAB69B;}
	.st67{fill:#858B9E;}
	.st68{fill:#171821;}
	.st69{fill:#3B3D4A;}
	.st70{fill:#CCD3DE;}
	.st71{fill:#636C7A;}
	.st72{fill:#ADB3C4;}
	.st73{fill:#CDD4E8;}
	.st74{fill:#CCD1DE;}
	.st75{fill:#00BDB7;}
	.st76{fill:#E39B00;}
	.st77{fill:#FFC940;}
	.st78{fill:#FAD9AA;}
	.st79{fill:#DEC299;}
	.st80{fill:#FADEB6;}
</style>
<g>
	<g>
		<g>
			<g>
				<defs>
					<polygon id="SVGID_1_" points="144,173.4 224.9,126.7 225.1,103.3 143.9,149.9 					"/>
				</defs>
				<use xlink:href="#SVGID_1_"  style="overflow:visible;fill:#B2B1B1;"/>
				<clipPath id="SVGID_2_">
					<use xlink:href="#SVGID_1_"  style="overflow:visible;"/>
				</clipPath>
				<g class="st0">
					<g>
						<g>
							<polygon class="st1" points="141.9,155.6 230.1,105.2 219.7,99.2 138.8,147.4 							"/>
						</g>
					</g>
				</g>
			</g>
			<g>
				<g>
					<g>
						<g>
							<polygon class="st2" points="144,173.4 39.6,113.2 39.6,84 144,144.3 							"/>
						</g>
					</g>
				</g>
				<g>
					<g>
						<g>
							<polygon class="st3" points="145.8,127.1 91.4,80.6 91.5,80.7 37.1,64.3 37.1,88.3 145.7,151 							"/>
						</g>
					</g>
				</g>
				<g>
					<g>
						<g>
							<g>
								<g>
									<polygon class="st4" points="54,92 49.2,89.2 49.2,74.4 54,77.2 									"/>
								</g>
							</g>
						</g>
						<g>
							<g>
								<g>
									<polygon class="st5" points="53.5,91.1 49.8,88.9 49.8,75.3 53.5,77.4 									"/>
								</g>
							</g>
						</g>
						<g>
							<g>
								<g>
									<polygon class="st4" points="53.8,80.8 49.6,78.4 49.6,77.9 53.8,80.3 									"/>
								</g>
							</g>
						</g>
					</g>
					<g>
						<g>
							<g>
								<g>
									<polygon class="st4" points="62.5,96.9 57.8,94.1 57.8,79.3 62.5,82.1 									"/>
								</g>
							</g>
						</g>
						<g>
							<g>
								<g>
									<polygon class="st5" points="62,96 58.3,93.8 58.3,80.2 62,82.4 									"/>
								</g>
							</g>
						</g>
						<g>
							<g>
								<g>
									<polygon class="st4" points="62.3,85.7 58.1,83.3 58.1,82.8 62.3,85.2 									"/>
								</g>
							</g>
						</g>
					</g>
					<g>
						<g>
							<g>
								<g>
									<polygon class="st4" points="71.2,101.9 66.4,99.1 66.4,84.3 71.2,87 									"/>
								</g>
							</g>
						</g>
						<g>
							<g>
								<g>
									<polygon class="st5" points="70.7,101 66.9,98.8 66.9,85.2 70.7,87.3 									"/>
								</g>
							</g>
						</g>
						<g>
							<g>
								<g>
									<polygon class="st4" points="70.9,90.7 66.7,88.3 66.7,87.8 70.9,90.2 									"/>
								</g>
							</g>
						</g>
					</g>
				</g>
				<g>
					<g>
						<g>
							<g>
								<g>
									<polygon class="st4" points="49.6,113.9 44.8,111.2 44.8,96.4 49.6,99.1 									"/>
								</g>
							</g>
						</g>
						<g>
							<g>
								<g>
									<polygon class="st5" points="49.1,113 45.3,110.9 45.3,97.2 49.1,99.4 									"/>
								</g>
							</g>
						</g>
						<g>
							<g>
								<g>
									<polygon class="st4" points="49.3,102.8 45.2,100.4 45.2,99.9 49.3,102.3 									"/>
								</g>
							</g>
						</g>
					</g>
					<g>
						<g>
							<g>
								<g>
									<polygon class="st4" points="58.1,118.8 53.3,116.1 53.3,101.3 58.1,104 									"/>
								</g>
							</g>
						</g>
						<g>
							<g>
								<g>
									<polygon class="st5" points="57.6,118 53.8,115.8 53.9,102.1 57.6,104.3 									"/>
								</g>
							</g>
						</g>
						<g>
							<g>
								<g>
									<polygon class="st4" points="57.9,107.7 53.7,105.3 53.7,104.8 57.9,107.2 									"/>
								</g>
							</g>
						</g>
					</g>
					<g>
						<g>
							<g>
								<g>
									<polygon class="st4" points="66.8,123.8 62,121.1 62,106.2 66.8,109 									"/>
								</g>
							</g>
						</g>
						<g>
							<g>
								<g>
									<polygon class="st5" points="66.2,122.9 62.5,120.8 62.5,107.1 66.2,109.3 									"/>
								</g>
							</g>
						</g>
						<g>
							<g>
								<g>
									<polygon class="st4" points="66.5,112.7 62.3,110.3 62.3,109.8 66.5,112.2 									"/>
								</g>
							</g>
						</g>
					</g>
				</g>
				<g>
					<g>
						<g>
							<g>
								<polygon class="st4" points="75.9,129.2 71.1,126.5 71.1,111.7 75.9,114.4 								"/>
							</g>
						</g>
					</g>
					<g>
						<g>
							<g>
								<polygon class="st5" points="75.3,128.4 71.6,126.2 71.6,112.6 75.3,114.7 								"/>
							</g>
						</g>
					</g>
					<g>
						<g>
							<g>
								<polygon class="st4" points="75.6,118.1 71.4,115.7 71.4,115.2 75.6,117.6 								"/>
							</g>
						</g>
					</g>
				</g>
				<g>
					<g>
						<g>
							<g>
								<g>
									<polygon class="st4" points="115.7,127.6 111,124.8 111,110 115.7,112.8 									"/>
								</g>
							</g>
						</g>
						<g>
							<g>
								<g>
									<polygon class="st5" points="115.2,126.7 111.5,124.5 111.5,110.9 115.2,113.1 									"/>
								</g>
							</g>
						</g>
						<g>
							<g>
								<g>
									<polygon class="st4" points="115.5,116.4 111.3,114 111.3,113.5 115.5,115.9 									"/>
								</g>
							</g>
						</g>
					</g>
					<g>
						<g>
							<g>
								<g>
									<polygon class="st4" points="124.3,132.5 119.5,129.7 119.5,114.9 124.3,117.7 									"/>
								</g>
							</g>
						</g>
						<g>
							<g>
								<g>
									<polygon class="st5" points="123.7,131.6 120,129.4 120,115.8 123.7,118 									"/>
								</g>
							</g>
						</g>
						<g>
							<g>
								<g>
									<polygon class="st4" points="124,121.4 119.8,119 119.8,118.5 124,120.9 									"/>
								</g>
							</g>
						</g>
					</g>
					<g>
						<g>
							<g>
								<g>
									<polygon class="st4" points="132.9,137.5 128.1,134.7 128.1,119.9 132.9,122.7 									"/>
								</g>
							</g>
						</g>
						<g>
							<g>
								<g>
									<polygon class="st5" points="132.4,136.6 128.6,134.4 128.6,120.8 132.4,123 									"/>
								</g>
							</g>
						</g>
						<g>
							<g>
								<g>
									<polygon class="st4" points="132.6,126.3 128.5,123.9 128.5,123.4 132.6,125.8 									"/>
								</g>
							</g>
						</g>
					</g>
				</g>
				<g>
					<g>
						<g>
							<g>
								<polygon class="st4" points="100.7,109.8 81.7,98.8 81.7,92.1 100.7,103.1 								"/>
							</g>
						</g>
					</g>
					<g>
						<g>
							<g>
								<polygon class="st5" points="99.9,108.7 82.4,98.6 82.4,93.2 99.9,103.3 								"/>
							</g>
						</g>
					</g>
				</g>
				<g>
					<g>
						<g>
							<g>
								<g>
									<polygon class="st4" points="112.2,150.1 107.4,147.3 107.4,132.5 112.2,135.2 									"/>
								</g>
							</g>
						</g>
						<g>
							<g>
								<g>
									<polygon class="st5" points="111.7,149.2 107.9,147 107.9,133.4 111.7,135.5 									"/>
								</g>
							</g>
						</g>
						<g>
							<g>
								<g>
									<polygon class="st4" points="111.9,138.9 107.8,136.5 107.8,136 111.9,138.4 									"/>
								</g>
							</g>
						</g>
					</g>
					<g>
						<g>
							<g>
								<g>
									<polygon class="st4" points="120.7,155 115.9,152.2 115.9,137.4 120.7,140.2 									"/>
								</g>
							</g>
						</g>
						<g>
							<g>
								<g>
									<polygon class="st5" points="120.2,154.1 116.4,151.9 116.4,138.3 120.2,140.5 									"/>
								</g>
							</g>
						</g>
						<g>
							<g>
								<g>
									<polygon class="st4" points="120.4,143.8 116.3,141.4 116.3,140.9 120.4,143.3 									"/>
								</g>
							</g>
						</g>
					</g>
					<g>
						<g>
							<g>
								<g>
									<polygon class="st4" points="129.3,160 124.6,157.2 124.6,142.4 129.3,145.1 									"/>
								</g>
							</g>
						</g>
						<g>
							<g>
								<g>
									<polygon class="st5" points="128.8,159.1 125.1,156.9 125.1,143.3 128.8,145.4 									"/>
								</g>
							</g>
						</g>
						<g>
							<g>
								<g>
									<polygon class="st4" points="129.1,148.8 124.9,146.4 124.9,145.9 129.1,148.3 									"/>
								</g>
							</g>
						</g>
					</g>
				</g>
				<g>
					<g>
						<g>
							<g>
								<polygon class="st4" points="138.4,165.4 133.7,162.6 133.7,147.8 138.4,150.6 								"/>
							</g>
						</g>
					</g>
					<g>
						<g>
							<g>
								<polygon class="st5" points="137.9,164.5 134.2,162.3 134.2,148.7 137.9,150.9 								"/>
							</g>
						</g>
					</g>
					<g>
						<g>
							<g>
								<polygon class="st4" points="138.2,154.2 134,151.8 134,151.3 138.2,153.7 								"/>
							</g>
						</g>
					</g>
				</g>
				<g>
					<g>
						<g>
							<polygon class="st6" points="100.6,126.6 82.1,115.9 82.1,137.9 100.6,148.5 							"/>
						</g>
					</g>
				</g>
			</g>
			<g>
				<g>
					<g>
						<g>
							<polygon class="st7" points="226.7,80.4 172.3,33.9 172.3,33.9 117.9,17.6 117.9,41.6 226.5,104.3 							"/>
						</g>
					</g>
				</g>
				<g>
					<g>
						<g>
							<g>
								<g>
									<polygon class="st4" points="134.9,45.2 130.1,42.5 130.1,27.7 134.9,30.4 									"/>
								</g>
							</g>
						</g>
						<g>
							<g>
								<g>
									<polygon class="st5" points="134.4,44.3 130.6,42.2 130.6,28.5 134.4,30.7 									"/>
								</g>
							</g>
						</g>
						<g>
							<g>
								<g>
									<polygon class="st4" points="134.6,34.1 130.4,31.7 130.4,31.2 134.6,33.6 									"/>
								</g>
							</g>
						</g>
					</g>
					<g>
						<g>
							<g>
								<g>
									<polygon class="st4" points="143.4,50.1 138.6,47.4 138.6,32.6 143.4,35.3 									"/>
								</g>
							</g>
						</g>
						<g>
							<g>
								<g>
									<polygon class="st5" points="142.9,49.3 139.1,47.1 139.1,33.5 142.9,35.6 									"/>
								</g>
							</g>
						</g>
						<g>
							<g>
								<g>
									<polygon class="st4" points="143.1,39 138.9,36.6 138.9,36.1 143.1,38.5 									"/>
								</g>
							</g>
						</g>
					</g>
					<g>
						<g>
							<g>
								<g>
									<polygon class="st4" points="152,55.1 147.2,52.4 147.2,37.6 152,40.3 									"/>
								</g>
							</g>
						</g>
						<g>
							<g>
								<g>
									<polygon class="st5" points="151.5,54.2 147.7,52.1 147.7,38.4 151.5,40.6 									"/>
								</g>
							</g>
						</g>
						<g>
							<g>
								<g>
									<polygon class="st4" points="151.7,44 147.6,41.6 147.6,41.1 151.7,43.5 									"/>
								</g>
							</g>
						</g>
					</g>
				</g>
				<g>
					<g>
						<g>
							<g>
								<g>
									<polygon class="st4" points="130.4,67.2 125.7,64.4 125.7,49.6 130.4,52.4 									"/>
								</g>
							</g>
						</g>
						<g>
							<g>
								<g>
									<polygon class="st5" points="129.9,66.3 126.2,64.1 126.2,50.5 129.9,52.7 									"/>
								</g>
							</g>
						</g>
						<g>
							<g>
								<g>
									<polygon class="st4" points="130.2,56 126,53.6 126,53.2 130.2,55.6 									"/>
								</g>
							</g>
						</g>
					</g>
					<g>
						<g>
							<g>
								<g>
									<polygon class="st4" points="139,72.1 134.2,69.3 134.2,54.5 139,57.3 									"/>
								</g>
							</g>
						</g>
						<g>
							<g>
								<g>
									<polygon class="st5" points="138.4,71.2 134.7,69.1 134.7,55.4 138.4,57.6 									"/>
								</g>
							</g>
						</g>
						<g>
							<g>
								<g>
									<polygon class="st4" points="138.7,61 134.5,58.6 134.5,58.1 138.7,60.5 									"/>
								</g>
							</g>
						</g>
					</g>
					<g>
						<g>
							<g>
								<g>
									<polygon class="st4" points="147.6,77.1 142.8,74.3 142.8,59.5 147.6,62.3 									"/>
								</g>
							</g>
						</g>
						<g>
							<g>
								<g>
									<polygon class="st5" points="147.1,76.2 143.3,74 143.3,60.4 147.1,62.6 									"/>
								</g>
							</g>
						</g>
						<g>
							<g>
								<g>
									<polygon class="st4" points="147.3,65.9 143.1,63.5 143.1,63.1 147.3,65.5 									"/>
								</g>
							</g>
						</g>
					</g>
				</g>
				<g>
					<g>
						<g>
							<g>
								<polygon class="st4" points="156.7,82.5 151.9,79.8 151.9,64.9 156.7,67.7 								"/>
							</g>
						</g>
					</g>
					<g>
						<g>
							<g>
								<polygon class="st5" points="156.2,81.6 152.4,79.5 152.4,65.8 156.2,68 								"/>
							</g>
						</g>
					</g>
					<g>
						<g>
							<g>
								<polygon class="st4" points="156.4,71.4 152.3,69 152.3,68.5 156.4,70.9 								"/>
							</g>
						</g>
					</g>
				</g>
				<g>
					<g>
						<g>
							<g>
								<g>
									<polygon class="st4" points="196.6,80.9 191.8,78.1 191.8,63.3 196.6,66 									"/>
								</g>
							</g>
						</g>
						<g>
							<g>
								<g>
									<polygon class="st5" points="196.1,80 192.3,77.8 192.3,64.2 196.1,66.3 									"/>
								</g>
							</g>
						</g>
						<g>
							<g>
								<g>
									<polygon class="st4" points="196.3,69.7 192.1,67.3 192.1,66.8 196.3,69.2 									"/>
								</g>
							</g>
						</g>
					</g>
					<g>
						<g>
							<g>
								<g>
									<polygon class="st4" points="205.1,85.8 200.3,83 200.3,68.2 205.1,71 									"/>
								</g>
							</g>
						</g>
						<g>
							<g>
								<g>
									<polygon class="st5" points="204.6,84.9 200.8,82.7 200.8,69.1 204.6,71.3 									"/>
								</g>
							</g>
						</g>
						<g>
							<g>
								<g>
									<polygon class="st4" points="204.8,74.6 200.7,72.2 200.7,71.7 204.8,74.1 									"/>
								</g>
							</g>
						</g>
					</g>
					<g>
						<g>
							<g>
								<g>
									<polygon class="st4" points="213.7,90.8 208.9,88 208.9,73.2 213.7,75.9 									"/>
								</g>
							</g>
						</g>
						<g>
							<g>
								<g>
									<polygon class="st5" points="213.2,89.9 209.4,87.7 209.4,74.1 213.2,76.2 									"/>
								</g>
							</g>
						</g>
						<g>
							<g>
								<g>
									<polygon class="st4" points="213.4,79.6 209.3,77.2 209.3,76.7 213.4,79.1 									"/>
								</g>
							</g>
						</g>
					</g>
				</g>
				<g>
					<g>
						<g>
							<g>
								<polygon class="st4" points="181.5,63.1 162.5,52.1 162.5,45.3 181.5,56.3 								"/>
							</g>
						</g>
					</g>
					<g>
						<g>
							<g>
								<polygon class="st5" points="180.7,61.9 163.3,51.9 163.3,46.5 180.7,56.6 								"/>
							</g>
						</g>
					</g>
				</g>
				<g>
					<g>
						<g>
							<g>
								<g>
									<polygon class="st4" points="193,103.3 188.2,100.6 188.2,85.8 193,88.5 									"/>
								</g>
							</g>
						</g>
						<g>
							<g>
								<g>
									<polygon class="st5" points="192.5,102.4 188.7,100.3 188.7,86.6 192.5,88.8 									"/>
								</g>
							</g>
						</g>
						<g>
							<g>
								<g>
									<polygon class="st4" points="192.8,92.2 188.6,89.8 188.6,89.3 192.8,91.7 									"/>
								</g>
							</g>
						</g>
					</g>
					<g>
						<g>
							<g>
								<g>
									<polygon class="st4" points="201.5,108.2 196.8,105.5 196.8,90.7 201.5,93.4 									"/>
								</g>
							</g>
						</g>
						<g>
							<g>
								<g>
									<polygon class="st5" points="201,107.4 197.3,105.2 197.3,91.6 201,93.7 									"/>
								</g>
							</g>
						</g>
						<g>
							<g>
								<g>
									<polygon class="st4" points="201.3,97.1 197.1,94.7 197.1,94.2 201.3,96.6 									"/>
								</g>
							</g>
						</g>
					</g>
					<g>
						<g>
							<g>
								<g>
									<polygon class="st4" points="210.2,113.2 205.4,110.5 205.4,95.6 210.2,98.4 									"/>
								</g>
							</g>
						</g>
						<g>
							<g>
								<g>
									<polygon class="st5" points="209.7,112.3 205.9,110.2 205.9,96.5 209.7,98.7 									"/>
								</g>
							</g>
						</g>
						<g>
							<g>
								<g>
									<polygon class="st4" points="209.9,102.1 205.7,99.7 205.7,99.2 209.9,101.6 									"/>
								</g>
							</g>
						</g>
					</g>
				</g>
				<g>
					<g>
						<g>
							<g>
								<polygon class="st4" points="219,107.5 214.8,105.1 214.8,104.6 219,107 								"/>
							</g>
						</g>
					</g>
				</g>
				<g>
					<g>
						<g>
							<polygon class="st6" points="181.4,79.8 163,69.2 163,91.2 181.4,101.8 							"/>
						</g>
					</g>
				</g>
			</g>
			<g>
				<g>
					<g>
						<polygon class="st8" points="145.8,127.1 226.7,80.4 226.5,104.3 145.7,151 						"/>
					</g>
				</g>
			</g>
			<g>
				<g>
					<g>
						<polygon class="st9" points="91.4,80.6 150,130.6 230.9,83.8 172.3,33.9 						"/>
					</g>
				</g>
			</g>
			<g>
				<g>
					<g>
						<polygon class="st10" points="114,16.3 172.3,33.9 91.4,80.6 33.1,63.1 						"/>
					</g>
				</g>
			</g>
			<g>
				<defs>
					<polygon id="SVGID_3_" points="100.6,126.6 82.1,115.9 82.1,137.9 100.6,148.5 					"/>
				</defs>
				<use xlink:href="#SVGID_3_"  style="overflow:visible;fill:#BCBCBC;"/>
				<clipPath id="SVGID_4_">
					<use xlink:href="#SVGID_3_"  style="overflow:visible;"/>
				</clipPath>
				<g class="st11">
					<g>
						<g>
							<polygon class="st12" points="102.4,125.5 84,114.9 84,136.8 102.4,147.5 							"/>
						</g>
					</g>
				</g>
			</g>
		</g>
		<g>
			<g>
				<g>
					<polygon class="st13" points="128.4,110.3 146.7,110.3 151.6,107.6 114.5,84 					"/>
				</g>
			</g>
		</g>
		<g>
			<g>
				<g>
					<polygon class="st14" points="132.7,107.7 97.1,77 62,66.9 62,36.9 132.7,77.7 					"/>
				</g>
			</g>
		</g>
		<g>
			<g>
				<g>
					<polygon class="st14" points="128.4,110.3 132.7,107.7 127,98.7 					"/>
				</g>
			</g>
		</g>
		<g>
			<g>
				<g>
					<polygon class="st15" points="128.4,110.3 92.8,79.6 57.7,69.5 57.7,39.5 128.4,80.3 					"/>
				</g>
			</g>
		</g>
		<g>
			<g>
				<g>
					<polygon class="st16" points="128.4,80.3 132.7,77.7 62,36.9 57.7,39.5 					"/>
				</g>
			</g>
		</g>
		<g>
			<g>
				<g>
					<g>
						<polygon class="st13" points="156.6,95.1 170.1,95.1 180.8,89.2 160.7,77.4 						"/>
					</g>
				</g>
			</g>
			<g>
				<g>
					<g>
						<g>
							<g>
								<polygon class="st17" points="145.6,86 145.6,79.7 156.6,86.1 156.6,95.1 								"/>
							</g>
						</g>
					</g>
					<g>
						<g>
							<g>
								<polygon class="st18" points="156.6,86.1 166.8,80.1 166.8,89.1 156.6,95.1 								"/>
							</g>
						</g>
					</g>
					<g>
						<g>
							<g>
								<polygon class="st19" points="145.6,79.7 155.8,73.7 166.8,80.1 156.6,86.1 								"/>
							</g>
						</g>
					</g>
				</g>
				<g>
					<g>
						<g>
							<g>
								<g>
									
										<rect x="153.7" y="60" transform="matrix(0.9642 -0.2653 0.2653 0.9642 -11.1664 43.0572)" class="st20" width="0.3" height="5.6"/>
								</g>
							</g>
						</g>
					</g>
					<g>
						<g>
							<g>
								<g>
									
										<rect x="155.5" y="63.1" transform="matrix(0.295 -0.9555 0.9555 0.295 51.2739 195.9795)" class="st20" width="5.9" height="0.3"/>
								</g>
							</g>
						</g>
					</g>
					<g>
						<g>
							<g>
								<g>
									<g>
										<g>
											<rect x="154.1" y="63" class="st21" width="4.1" height="17.8"/>
										</g>
									</g>
								</g>
							</g>
						</g>
						<g>
							<g>
								<g>
									<g>
										<g>
											<ellipse class="st22" cx="156.1" cy="80.8" rx="2" ry="1.2"/>
										</g>
									</g>
								</g>
							</g>
						</g>
						<g>
							<defs>
								<path id="SVGID_5_" d="M158.1,80.7V63h-4.1v17.7c0,0.3,0.2,0.6,0.6,0.8c0.8,0.5,2.1,0.5,2.9,0
									C158,81.4,158.2,81.1,158.1,80.7z"/>
							</defs>
							<clipPath id="SVGID_6_">
								<use xlink:href="#SVGID_5_"  style="overflow:visible;"/>
							</clipPath>
							<g class="st23">
								<g>
									<g>
										<g>
											<g>
												<rect x="154.5" y="63.5" class="st24" width="0.5" height="19.3"/>
											</g>
										</g>
									</g>
								</g>
							</g>
							<g class="st23">
								<g>
									<g>
										<g>
											<g>
												<rect x="156.9" y="62.5" class="st25" width="1.8" height="20.4"/>
											</g>
										</g>
									</g>
								</g>
							</g>
						</g>
						<g>
							<g>
								<g>
									<g>
										<g>
											<path class="st26" d="M157.5,62.3c0.8,0.5,0.8,1.2,0,1.7c-0.8,0.5-2.1,0.5-2.9,0c-0.8-0.5-0.8-1.2,0-1.7
												C155.5,61.8,156.8,61.8,157.5,62.3z"/>
										</g>
									</g>
								</g>
							</g>
						</g>
					</g>
					<g>
						<g>
							<g>
								<g>
									<g>
										<path class="st27" d="M157.3,62.4c0.6,0.4,0.6,1,0,1.3c-0.6,0.4-1.7,0.4-2.3,0c-0.6-0.4-0.6-1,0-1.3
											C155.6,62.1,156.6,62.1,157.3,62.4z"/>
									</g>
								</g>
							</g>
						</g>
					</g>
					<g>
						<g>
							<g>
								<g>
									<path class="st28" d="M156,65.8c-0.1,0-0.1-0.1-0.1-0.1v-4c0-0.1,0.1-0.1,0.1-0.1s0.1,0.1,0.1,0.1v4
										C156.1,65.8,156.1,65.8,156,65.8z"/>
								</g>
							</g>
						</g>
					</g>
					<g>
						<defs>
							<path id="SVGID_7_" d="M159.1,59c-0.1-0.1-0.2-0.2-0.4-0.3l-2.3-1.8c0,0,0,0,0,0c-0.1-0.1-0.4-0.1-0.5,0c0,0,0,0,0,0
								c0,0-2.4,1.8-2.4,1.8c-1.2,0.8-1.1,2,0.2,2.8c1.4,0.8,3.6,0.8,5,0C159.8,60.8,159.9,59.8,159.1,59z"/>
						</defs>
						<use xlink:href="#SVGID_7_"  style="overflow:visible;fill:#A4B3B1;"/>
						<clipPath id="SVGID_8_">
							<use xlink:href="#SVGID_7_"  style="overflow:visible;"/>
						</clipPath>
						<g class="st29">
							<g>
								<g>
									<g>
										<polygon class="st30" points="156.1,56.9 152.3,60.9 153.3,61.9 										"/>
									</g>
								</g>
							</g>
						</g>
						<g class="st29">
							<g>
								<g>
									<g>
										<path class="st31" d="M159.3,61.8l-3.3-4.8c0,0,0.4-0.3,1,0c0.6,0.3,3.2,2.7,3.2,2.7S159.7,61.5,159.3,61.8z"/>
									</g>
								</g>
							</g>
						</g>
					</g>
				</g>
			</g>
		</g>
		<g>
			<g>
				<g>
					<g>
						<polygon class="st13" points="186.9,77.4 200.5,77.4 211,71.7 191,59.7 						"/>
					</g>
				</g>
			</g>
			<g>
				<g>
					<g>
						<g>
							<g>
								<polygon class="st17" points="175.9,68.3 175.9,62 186.9,68.4 186.9,77.4 								"/>
							</g>
						</g>
					</g>
					<g>
						<g>
							<g>
								<polygon class="st18" points="186.9,68.4 197.1,62.4 197.1,71.4 186.9,77.4 								"/>
							</g>
						</g>
					</g>
					<g>
						<g>
							<g>
								<polygon class="st19" points="175.9,62 186.1,56 197.1,62.4 186.9,68.4 								"/>
							</g>
						</g>
					</g>
				</g>
				<g>
					<g>
						<g>
							<g>
								<g>
									
										<rect x="184" y="42.4" transform="matrix(0.9642 -0.2653 0.2653 0.9642 -5.386 50.4696)" class="st20" width="0.3" height="5.6"/>
								</g>
							</g>
						</g>
					</g>
					<g>
						<g>
							<g>
								<g>
									
										<rect x="185.8" y="45.4" transform="matrix(0.2947 -0.9556 0.9556 0.2947 89.6075 212.5136)" class="st20" width="5.9" height="0.3"/>
								</g>
							</g>
						</g>
					</g>
					<g>
						<g>
							<g>
								<g>
									<g>
										<g>
											<rect x="184.4" y="45.4" class="st21" width="4.1" height="17.8"/>
										</g>
									</g>
								</g>
							</g>
						</g>
						<g>
							<g>
								<g>
									<g>
										<g>
											<path class="st22" d="M187.9,62.3c0.8,0.5,0.8,1.2,0,1.7c-0.8,0.5-2.1,0.5-2.9,0c-0.8-0.5-0.8-1.2,0-1.7
												C185.8,61.8,187.1,61.8,187.9,62.3z"/>
										</g>
									</g>
								</g>
							</g>
						</g>
						<g>
							<defs>
								<path id="SVGID_9_" d="M188.5,63.1V45.4h-4.1v17.7c0,0.3,0.2,0.6,0.6,0.8c0.8,0.5,2.1,0.5,2.9,0
									C188.3,63.7,188.5,63.4,188.5,63.1z"/>
							</defs>
							<clipPath id="SVGID_10_">
								<use xlink:href="#SVGID_9_"  style="overflow:visible;"/>
							</clipPath>
							<g class="st32">
								<g>
									<g>
										<g>
											<g>
												<rect x="184.8" y="45.8" class="st24" width="0.5" height="19.3"/>
											</g>
										</g>
									</g>
								</g>
							</g>
							<g class="st32">
								<g>
									<g>
										<g>
											<g>
												<rect x="187.3" y="44.8" class="st25" width="1.8" height="20.4"/>
											</g>
										</g>
									</g>
								</g>
							</g>
						</g>
						<g>
							<g>
								<g>
									<g>
										<g>
											<path class="st26" d="M187.9,44.6c0.8,0.5,0.8,1.2,0,1.7c-0.8,0.5-2.1,0.5-2.9,0c-0.8-0.5-0.8-1.2,0-1.7
												C185.8,44.1,187.1,44.1,187.9,44.6z"/>
										</g>
									</g>
								</g>
							</g>
						</g>
					</g>
					<g>
						<g>
							<g>
								<g>
									<g>
										<ellipse class="st27" cx="186.4" cy="45.4" rx="1.6" ry="0.9"/>
									</g>
								</g>
							</g>
						</g>
					</g>
					<g>
						<g>
							<g>
								<g>
									<path class="st28" d="M186.3,48.1c-0.1,0-0.1-0.1-0.1-0.1v-4c0-0.1,0.1-0.1,0.1-0.1c0.1,0,0.1,0.1,0.1,0.1v4
										C186.5,48.1,186.4,48.1,186.3,48.1z"/>
								</g>
							</g>
						</g>
					</g>
					<g>
						<defs>
							<path id="SVGID_11_" d="M189.4,41.3c-0.1-0.1-0.2-0.2-0.4-0.3l-2.3-1.8c0,0,0,0,0,0c-0.1-0.1-0.4-0.1-0.5,0c0,0,0,0,0,0
								c0,0-2.4,1.8-2.4,1.8c-1.2,0.8-1.1,2,0.2,2.8c1.4,0.8,3.6,0.8,5,0C190.1,43.1,190.3,42.1,189.4,41.3z"/>
						</defs>
						<use xlink:href="#SVGID_11_"  style="overflow:visible;fill:#A4B3B1;"/>
						<clipPath id="SVGID_12_">
							<use xlink:href="#SVGID_11_"  style="overflow:visible;"/>
						</clipPath>
						<g class="st33">
							<g>
								<g>
									<g>
										<polygon class="st30" points="186.4,39.2 182.6,43.2 183.6,44.2 										"/>
									</g>
								</g>
							</g>
						</g>
						<g class="st33">
							<g>
								<g>
									<g>
										<path class="st31" d="M189.7,44.1l-3.3-4.8c0,0,0.4-0.3,1,0c0.6,0.3,3.2,2.7,3.2,2.7S190,43.9,189.7,44.1z"/>
									</g>
								</g>
							</g>
						</g>
					</g>
				</g>
			</g>
		</g>
		<g>
			<g>
				<g>
					<g>
						<polygon class="st4" points="168.2,123.3 153.9,131.6 153.9,136.7 168.2,128.4 						"/>
					</g>
				</g>
			</g>
			<g>
				<g>
					<g>
						<polygon class="st5" points="167.6,124.2 154.5,131.8 154.5,135.8 167.6,128.2 						"/>
					</g>
				</g>
			</g>
		</g>
		<g>
			<g>
				<g>
					<g>
						<polygon class="st4" points="195.6,107.3 181.2,115.6 181.2,120.7 195.6,112.4 						"/>
					</g>
				</g>
			</g>
			<g>
				<g>
					<g>
						<polygon class="st5" points="195,108.2 181.8,115.8 181.8,119.8 195,112.3 						"/>
					</g>
				</g>
			</g>
		</g>
		<g>
			<g>
				<g>
					<g>
						<polygon class="st4" points="221.4,92.8 207.1,101 207.1,106.1 221.4,97.9 						"/>
					</g>
				</g>
			</g>
			<g>
				<g>
					<g>
						<polygon class="st5" points="220.8,93.6 207.7,101.2 207.7,105.3 220.8,97.7 						"/>
					</g>
				</g>
			</g>
		</g>
	</g>
	<g>
		<g>
			<path class="st10" d="M79.7,64.9c-0.2,0.7-0.6,1.1-1.4,1.2c-0.7,0.1-1.4,0-2.2-0.3c0,0,0,0-0.1,0c-0.1-0.1-0.2-0.4-0.4-1
				c-0.2-0.6-0.2-1-0.2-1.1c0,0,0,0,0.1,0c0.4,0.1,0.8,0.2,1.1,0.3c0.4,0,0.7-0.1,0.8-0.4c0.1-0.2,0-0.5-0.2-0.9
				c-0.3-0.7-0.5-1.1-0.5-1.1c-0.2-0.5-0.2-1-0.1-1.3c0.2-0.6,0.6-0.9,1.3-1c0.6,0,1.3,0.1,2,0.4c0,0,0.1,0,0.1,0
				c0.1,0,0.1,0.1,0.1,0.2c0.1,0.5,0.2,1.1,0.3,1.7c0,0,0,0,0,0.1c0,0.1-0.1,0.1-0.1,0c0,0,0,0,0,0c0,0-0.1-0.1-0.1-0.1
				c-0.1,0-0.1-0.1-0.2-0.1c-0.3-0.1-0.5-0.2-0.7-0.2c-0.2,0-0.4,0.1-0.5,0.3c-0.1,0.2,0,0.5,0.2,1c0.3,0.8,0.5,1.2,0.5,1.2
				C79.7,64,79.8,64.5,79.7,64.9z"/>
			<path class="st10" d="M86.4,67.2l-0.9,3.3c0,0.1-0.1,0.1-0.2,0.1c-0.1-0.1-0.4-0.2-0.8-0.4c-0.3-0.1-0.6-0.3-0.8-0.5
				c-0.1-0.1-0.2-0.2-0.1-0.3c0.1-0.3,0.2-0.7,0.3-1.3c0.2-0.6,0.3-1,0.3-1.2c0.1-0.4-0.1-0.7-0.5-0.9c-0.2-0.1-0.4-0.1-0.6-0.1
				c-0.2,0-0.4,0.1-0.4,0.2l-0.3,1.2c0,0.2-0.1,0.4-0.2,0.7c-0.1,0.3-0.1,0.6-0.2,0.7c0,0.1-0.1,0.2-0.2,0.1c-0.1-0.1-0.4-0.2-1-0.5
				c-0.2-0.1-0.4-0.2-0.6-0.4c-0.1-0.1-0.2-0.2-0.2-0.3c0.1-0.3,0.2-0.6,0.3-1.2c0.1-0.5,0.2-0.9,0.3-1.2c0.3-1.1,0.5-1.9,0.6-2.7
				c0.1-0.2,0.1-0.5,0.2-0.7c0.1-0.2,0.1-0.5,0.1-0.8c0,0,0-0.1,0-0.1c0,0,0.1-0.1,0.1-0.1c0.2,0.1,0.3,0.1,0.5,0.2
				c0.3,0.2,0.5,0.2,0.5,0.3l1,0.5c0.1,0,0.1,0.1,0.1,0.2c0,0.1-0.1,0.2-0.1,0.4c-0.1,0.2-0.1,0.3-0.1,0.4c-0.2,0.7-0.4,1.3-0.5,1.7
				c0,0.1,0,0.1,0,0.1c0,0,0.1,0,0.3,0c0.2,0,0.5,0,0.7,0c0.3,0,0.6,0.1,0.9,0.3c0.5,0.3,0.8,0.6,1.1,1
				C86.4,66.3,86.5,66.7,86.4,67.2z"/>
			<path class="st10" d="M88.9,70.1c-0.1,0.2-0.1,0.6-0.3,1.1c-0.1,0.5-0.2,0.8-0.3,1.1c0,0.1-0.1,0.1-0.2,0
				c-0.3-0.1-0.6-0.3-0.8-0.4c-0.3-0.1-0.6-0.3-0.8-0.5c-0.1-0.1-0.1-0.1-0.1-0.1c0-0.1,0-0.1,0-0.2c0.1-0.2,0.2-0.6,0.3-1
				c0.1-0.4,0.2-0.8,0.3-1c0.2-0.7,0.4-1.5,0.5-2.3c0,0,0-0.1,0-0.1c0-0.1,0.1-0.1,0.2,0s0.3,0.2,0.5,0.3c0.2,0.1,0.4,0.2,0.5,0.3
				s0.3,0.1,0.5,0.2c0.2,0.1,0.4,0.2,0.5,0.2c0.1,0,0.1,0.1,0.1,0.2c0,0,0,0,0,0.1C89.4,68.6,89.1,69.3,88.9,70.1z M90,66.6
				c-0.1,0.6-0.6,0.6-1.3,0.2c-0.3-0.1-0.5-0.4-0.7-0.6c-0.2-0.3-0.2-0.6-0.2-0.8c0.1-0.3,0.2-0.4,0.5-0.4c0.2,0,0.5,0,0.8,0.2
				c0.3,0.1,0.5,0.4,0.7,0.6C90,66.1,90.1,66.4,90,66.6L90,66.6z"/>
			<path class="st10" d="M96.1,74c-0.2,0.7-0.6,1.1-1.1,1.3c-0.6,0.2-1.3,0.1-2.1-0.3c-0.3-0.2-0.6-0.4-0.9-0.7
				c-0.3-0.3-0.4-0.4-0.4-0.4c0,0-0.1,0-0.1,0.1c0,0.2-0.1,0.4-0.2,0.8c-0.1,0.3-0.1,0.6-0.2,0.8c0,0.1-0.1,0.1-0.2,0.1c0,0,0,0,0,0
				l-1.1-0.6c-0.2-0.1-0.3-0.2-0.5-0.3c-0.1-0.1-0.1-0.2-0.1-0.2c0,0,0,0,0,0l1-3.7c0.2-0.6,0.3-1.3,0.3-2c0,0,0-0.1,0-0.1
				c0,0,0-0.1,0.1-0.1c0.3,0.1,0.6,0.2,0.9,0.3c0.3,0.1,0.6,0.2,0.9,0.4c0.1,0.1,0.2,0.2,0.2,0.4s0,0.3,0,0.3c0,0,0.1,0,0.5,0
				c0.4,0,0.7,0.1,1,0.3c0.8,0.4,1.4,1,1.7,1.8C96.2,72.6,96.2,73.3,96.1,74z M94,72.8c0.1-0.2,0-0.5-0.1-0.8
				c-0.1-0.3-0.4-0.6-0.6-0.7c-0.3-0.2-0.6-0.2-0.8-0.1c-0.2,0.1-0.3,0.3-0.4,0.6c-0.1,0.3-0.1,0.5,0.1,0.8c0.1,0.3,0.3,0.5,0.6,0.7
				C93.5,73.6,93.9,73.5,94,72.8L94,72.8z"/>
			<path class="st10" d="M98.8,75.6c-0.1,0.2-0.1,0.6-0.3,1.1c-0.1,0.5-0.2,0.8-0.3,1.1c0,0.1-0.1,0.1-0.2,0
				c-0.3-0.1-0.6-0.3-0.8-0.4c-0.3-0.1-0.6-0.3-0.8-0.5c-0.1-0.1-0.1-0.1-0.1-0.1c0-0.1,0-0.1,0-0.2c0.1-0.2,0.2-0.6,0.3-1
				c0.1-0.4,0.2-0.8,0.3-1c0.2-0.7,0.4-1.5,0.5-2.2c0-0.1,0-0.1,0-0.1c0-0.1,0.1-0.1,0.2,0s0.3,0.2,0.5,0.3c0.2,0.1,0.4,0.2,0.5,0.3
				c0.1,0.1,0.3,0.1,0.5,0.2c0.2,0.1,0.4,0.2,0.5,0.2c0.1,0,0.1,0.1,0.1,0.2c0,0,0,0,0,0.1C99.2,74.2,99,74.9,98.8,75.6z M99.9,72.1
				c-0.1,0.6-0.6,0.6-1.3,0.2c-0.3-0.1-0.5-0.4-0.7-0.6c-0.2-0.3-0.2-0.5-0.2-0.8c0.1-0.3,0.2-0.4,0.5-0.4c0.2,0,0.5,0,0.8,0.2
				c0.3,0.1,0.5,0.4,0.7,0.6C99.9,71.6,99.9,71.9,99.9,72.1L99.9,72.1z"/>
			<path class="st10" d="M103.3,79.1c0,0.1-0.1,0.3-0.2,0.4c-0.1,0.1-0.1,0.3-0.2,0.4c0,0.1,0,0.1-0.1,0.2c-0.1,0-0.1,0-0.2,0
				c-0.5,0-1.1-0.2-1.7-0.5c-1.1-0.6-1.5-1.2-1.3-2c0.1-0.2,0.1-0.5,0.3-0.9c0.1-0.4,0.2-0.7,0.3-0.9c0-0.1,0-0.3-0.2-0.4l-0.1,0
				c0,0-0.1,0-0.1,0c-0.1-0.1-0.2-0.2-0.2-0.2c0-0.1,0-0.1,0.1-0.2c0-0.1,0.1-0.2,0.1-0.2c0-0.1,0-0.2,0.1-0.3c0-0.1,0-0.2,0.1-0.3
				c0-0.1,0.1,0,0.4,0.1c0.1,0.1,0.2,0.1,0.2,0c0.1-0.2,0.1-0.4,0.2-0.6c0.1-0.4,0.1-0.6,0.1-0.6c0.1-0.4,0.2-0.5,0.3-0.5
				c0.1,0.1,0.3,0.2,0.4,0.3c0.1,0.1,0.3,0.2,0.4,0.3c0.2,0.1,0.5,0.3,0.8,0.6c0.1,0.1,0.1,0.1,0.1,0.2c0,0.1-0.1,0.3-0.2,0.6
				c-0.1,0.2-0.2,0.4-0.2,0.6c0,0.2,0,0.3,0.1,0.3c0.1,0.1,0.3,0.2,0.6,0.3s0.5,0.2,0.6,0.3c0.1,0,0.1,0.1,0.1,0.1
				c0,0.1-0.1,0.2-0.1,0.3c-0.1,0.1-0.1,0.2-0.1,0.3c0,0.1,0,0.2-0.1,0.3c0,0.2-0.1,0.3-0.1,0.3c0,0.1-0.1,0.1-0.2,0
				c-0.1,0-0.2-0.1-0.4-0.2c-0.2-0.1-0.3-0.2-0.4-0.2l-0.4-0.2c-0.1,0-0.1,0-0.1,0.2l-0.1,0.3c0,0.2-0.1,0.3-0.1,0.3
				c-0.1,0.3-0.1,0.5,0,0.6c0.1,0.2,0.2,0.4,0.5,0.5c0.1,0.1,0.3,0.1,0.4,0.2c0.1,0,0.2,0.1,0.4,0.1C103.3,79,103.3,79,103.3,79.1z"
				/>
			<path class="st10" d="M109.4,81.4c-0.2,0.7-0.6,1.2-1.2,1.3c-0.6,0.2-1.4,0-2.2-0.4c-0.8-0.5-1.4-1-1.8-1.8
				c-0.4-0.7-0.5-1.5-0.3-2.2c0.2-0.7,0.6-1.2,1.2-1.4c0.6-0.2,1.4,0,2.2,0.4c0.8,0.5,1.4,1.1,1.8,1.8
				C109.5,80,109.6,80.7,109.4,81.4z M107.6,80.4c0.1-0.2,0-0.5-0.1-0.8c-0.1-0.3-0.4-0.6-0.6-0.7c-0.3-0.2-0.6-0.2-0.8-0.1
				c-0.2,0.1-0.4,0.3-0.4,0.5c-0.1,0.2,0,0.5,0.1,0.8c0.1,0.3,0.4,0.6,0.6,0.7c0.3,0.2,0.6,0.2,0.8,0.1
				C107.4,80.8,107.5,80.7,107.6,80.4z"/>
			<path class="st10" d="M110,78C110,78,110,78,110,78c0,0-0.1,0-0.1-0.1c0,0-0.1,0-0.1,0l0,0c0,0,0,0,0,0l0-0.1c0,0,0-0.1-0.1-0.2
				c0,0,0,0,0,0l-0.1,0c0,0,0,0,0,0c0,0,0,0.1,0,0.1c0,0,0,0.1,0,0.1c0,0,0,0,0,0l0,0l-0.1-0.1c0,0-0.1,0-0.1,0c0,0,0,0,0,0
				c0,0,0-0.1,0-0.2c0-0.1,0-0.1,0-0.2c0-0.1,0-0.2,0-0.3l0,0c0,0,0,0,0,0c0,0,0.1,0,0.2,0.1l0.1,0.1c0.1,0,0.1,0.1,0.2,0.2
				c0.1,0.1,0.1,0.1,0.1,0.2c0,0,0,0.1,0,0.1c0,0,0,0-0.1,0c0,0,0,0,0,0l0.1,0.2C110,77.9,110,77.9,110,78z M109.8,77.4
				c0,0,0-0.1,0-0.1c0,0-0.1-0.1-0.1-0.1c0,0,0,0-0.1,0c0,0,0,0.1,0,0.1c0,0,0,0,0,0c0,0,0,0,0,0c0,0,0,0,0,0c0,0,0,0,0.1,0
				C109.8,77.5,109.8,77.5,109.8,77.4L109.8,77.4z"/>
			<path class="st10" d="M109.7,78.2c-0.4-0.2-0.7-0.7-0.7-1.1c0-0.4,0.4-0.5,0.7-0.3s0.7,0.7,0.7,1.1l0,0
				C110.4,78.2,110.1,78.4,109.7,78.2z M109.8,76.9c-0.3-0.2-0.6-0.1-0.6,0.2c0,0.3,0.2,0.7,0.5,0.9c0.3,0.2,0.6,0.1,0.6-0.2
				c0,0,0,0,0,0C110.3,77.5,110.1,77.1,109.8,76.9z"/>
		</g>
	</g>
</g>
<g>
	<g>
		<g>
			<path class="st34" d="M68.2,170c0,0,0.2,0.5,0.9,1.1c0.7,0.6,0.9,0.8,1,1.4c0.1,0.6,0.1,0.7-0.3,0.9c-0.4,0.2-0.9,0.3-1.4,0.1
				c-0.5-0.2-1.2-0.6-1.5-1.1c-0.4-0.5-0.6-0.8-0.6-0.8l0,0.2c0,0-0.6-0.6-0.7-0.7c-0.1-0.2-0.1-1-0.1-1L68.2,170z"/>
			<path class="st34" d="M70.8,167.8c0,0,0.5,0.4,1.2,0.9c0.7,0.5,1,0.7,1,1.2c0,0.5,0,0.9-0.4,1c-0.4,0.1-0.8,0-1.2-0.2
				c-0.4-0.2-1.4-0.9-1.9-1.6c0,0,0,0.2,0,0.2c0,0-1-0.8-1.2-1c-0.2-0.3-0.2-1.3-0.2-1.3S70.7,167.6,70.8,167.8z"/>
			<g>
				<defs>
					<path id="SVGID_13_" d="M70.7,167.8c0,0,0.5,0.4,1.2,0.9c0.7,0.5,1,0.7,1,1.2c0,0.5,0,0.9-0.4,1c-0.4,0.1-0.8,0-1.2-0.2
						c-0.4-0.2-1.4-0.9-1.9-1.6c0,0,0,0.2,0,0.2c0,0-1-0.8-1.2-1s-0.2-1.3-0.2-1.3S70.6,167.6,70.7,167.8z"/>
				</defs>
				<clipPath id="SVGID_14_">
					<use xlink:href="#SVGID_13_"  style="overflow:visible;"/>
				</clipPath>
				<path class="st35" d="M73,169.4c0,0,0.2,0.8-0.4,1.1c-0.6,0.3-0.9,0.1-1.3-0.1c-0.4-0.2-0.6-0.4-1.2-0.8c-0.6-0.5-2.1-2-2.1-2
					s-0.2,1.1-0.2,1.1s2.9,2.4,3,2.5c0.1,0,2.4,0.4,2.4,0.4c0-0.1,0.2-0.9,0.1-1.1C73.3,170.2,73,169.4,73,169.4z"/>
			</g>
			<path class="st36" d="M72,152.9c0,0.1,0.2,3.6,0.2,5.2c0,1.7-0.3,3.7-0.5,5.3c-0.2,1.6-0.8,2.6-0.7,4.4c0,0-0.7,0.5-1.6,0.4
				c-0.9-0.1-1.8-1-1.8-1l0-5.2l0.3-8.8L72,152.9z"/>
			<path class="st10" d="M70.4,154.3c0,0-0.7,0.6-0.8,1.4c-0.2,0.8-0.4,2.9-0.5,4c0,1.1-0.5,2.2-0.7,3.6c-0.2,1.4,0.1,6.4,0.1,6.4
				s-0.3,0.7-1.3,0.9c-1,0.2-1.7-0.2-2.1-0.7c0,0-0.4-3.6-0.2-5.2c0.2-1.6,0.4-2,0.3-2.9c0-0.8-0.2-5.4-0.2-6.6c0-1.2-0.1-1.7,0-2.1
				C65.1,153,70.4,154.3,70.4,154.3z"/>
			<path class="st37" d="M71.8,142.2c0,0,0.7,0.1,1,0.9c0.3,0.8,0.8,4.4,1.1,5.2c0.3,0.8,2.3,3.5,2.3,3.5s-0.5,0.7-1.4,1
				c0,0-2.1-2.7-2.6-3.6c-0.5-0.9-1.4-4.5-1.4-4.5L71.8,142.2z"/>
			<path class="st37" d="M67.4,143c0,0-1,0.4-1.5,0.6s-0.9,0.7-1,1.5c-0.1,0.8,0.6,2.9,0.6,4.2c0,1.2-0.5,4.4-0.5,4.4s1,1.8,3,1.7
				c2-0.1,3.1-0.8,4-2.2c0,0-0.3-1.7,0-3.3c0.3-1.6,0.6-2.7,0.5-3.6c0-0.9-0.1-1.5-0.2-2.1c0-0.6,0-1.2-0.4-1.6
				c-0.4-0.4-0.8-0.5-1.4-0.6C70.1,141.7,67.4,143,67.4,143z"/>
			<g>
				<defs>
					<path id="SVGID_15_" d="M68.1,141.8c0,0,0.1,0.3-0.2,0.7c-0.2,0.4-0.6,0.5-0.6,0.5s0.6,1.3,1.4,1.6c0.9,0.3,1.4,0.1,1.6-0.6
						c0.2-0.7-0.7-1.9-0.7-1.9S68.1,141.8,68.1,141.8z"/>
				</defs>
				<use xlink:href="#SVGID_15_"  style="overflow:visible;fill:#FAB69B;"/>
				<clipPath id="SVGID_16_">
					<use xlink:href="#SVGID_15_"  style="overflow:visible;"/>
				</clipPath>
				<path class="st38" d="M68.7,142.5c0,0,0.1,0.7,0.3,1c0.2,0.3,0.7,1,1.2,1.3c0.6,0.3,0.7-0.8,0.6-0.9
					C70.7,143.8,68.7,142.5,68.7,142.5z"/>
			</g>
			<path class="st10" d="M71.5,149.1c0,0,0.5-2.3,0.5-4.3c0-2.1-1-2.9-1-2.9l-0.4,0.2c0,0,0.7,1.1,0.8,2.5c0.1,2.5-0.5,5-0.5,5
				L71.5,149.1z"/>
			<path class="st39" d="M72,141.8c0,0,0-0.9-0.1-1.3c-0.1-0.4-0.7-1.6-1.5-1.9c-0.8-0.3-1.6,0-1.9,0.6c-0.2,0.6-0.4,1.4-0.4,1.8
				c0,0.4,0.4,1,0.5,1.4c0.1,0.4,0.2,0.9,0.5,1.1c0.2,0.2,1.1,0.8,1.4,0.9c0.4,0,0.5-0.2,0.6-0.3c0.1-0.2,0.1-0.4,0.2-0.5
				c0.1-0.1,0.2-0.1,0.3-0.3c0-0.2-0.1-0.3,0-0.4c0-0.1,0.2-0.5,0.3-0.7C71.9,142,72,141.8,72,141.8z"/>
			<path class="st40" d="M68.6,141.8c0,0-0.1-0.4-0.4-0.3c-0.4,0.1-0.3,0.5-0.1,0.8c0.2,0.3,0.4,0.3,0.5,0.3c0.1,0,0.1,0,0.1-0.3
				C68.7,142.1,68.6,142.1,68.6,141.8z"/>
			<path class="st10" d="M72,153.1c0,0-0.6-1.6-0.5-4c-0.1,0-1.7,1-3.4,1c0,0,0,1.9-1,2.9c-1,1.1-2,0.3-2,0.3s0,0.5,0,0.7
				c0,0.3,0.4,1.2,2.3,1.4C69.3,155.7,71.3,155,72,153.1z"/>
			<path class="st41" d="M72,140.4c0,0,0.1,0.5-0.3,0.8c-0.4,0.3-0.7,0.3-1,0.2c-0.3-0.1-0.4-0.3-0.5-0.2c-0.1,0-0.3,0.2-0.3,0.3
				c0,0.2,0.1,0.2,0.1,0.4c0,0.1-0.3,0.2-0.4,0.2c-0.2,0-0.1,0.1-0.2,0.2c-0.1,0.1-0.3,0.1-0.4,0c-0.1-0.1-0.1-0.3-0.2-0.5
				c-0.1-0.2-0.2-0.2-0.4-0.2c-0.2,0-0.3,0.4-0.3,0.4s-0.1,0.3-0.1-0.5c-0.1-0.7,0.1-1.8,0.2-2.1c0.1-0.3,0.4-0.8,1-0.9
				c0.6-0.1,1.3,0,2,0.4C71.8,139.2,72.1,140,72,140.4z"/>
			<g>
				<defs>
					<path id="SVGID_17_" d="M68.2,170c0,0,0.2,0.5,0.9,1.1c0.7,0.6,0.9,0.8,1,1.4c0.1,0.6,0.1,0.7-0.3,0.9
						c-0.4,0.2-0.9,0.3-1.4,0.1c-0.5-0.2-1.2-0.6-1.5-1.1c-0.4-0.5-0.6-0.8-0.6-0.8l0,0.2c0,0-0.6-0.6-0.7-0.7c-0.1-0.2-0.1-1-0.1-1
						L68.2,170z"/>
				</defs>
				<clipPath id="SVGID_18_">
					<use xlink:href="#SVGID_17_"  style="overflow:visible;"/>
				</clipPath>
				<path class="st42" d="M70.1,172.3c0,0,0.1,0.8-0.5,0.9c-0.6,0.1-1.2,0.1-1.6-0.2c-0.4-0.3-0.8-0.5-1.2-1
					c-0.4-0.6-1.5-1.7-1.5-1.7l0.1,0.9c0,0,1.3,2.2,1.4,2.3c0,0.1,2.8,1.2,2.8,1.2c0,0,1.3-0.6,1.3-0.9c0-0.3,0-0.7-0.1-0.7
					C70.7,173,70.1,172.3,70.1,172.3z"/>
			</g>
			<path class="st10" d="M68.1,150.1c0,0,0.2-2.1-0.3-4c-0.5-1.9-1.7-2.6-1.7-2.6l0.7-0.3c0,0,1.4,1,1.8,2.9c0.4,2,0.2,4,0.2,4
				L68.1,150.1z"/>
		</g>
		<g>
			<path class="st39" d="M72.1,156.4c0.1,0,0.6,0,0.7-0.1c0.2-0.1,0.3,0.1,0.4,0.2s0,0.7-0.1,0.8c-0.1,0.1-1.1,0.2-1.6,0.1
				c-0.2-0.1-0.5-0.2-0.7-0.3l0.6-0.7C71.6,156.5,72,156.4,72.1,156.4z"/>
			<path class="st39" d="M76.9,153.6c0,0.3,0.5,1.2,0.1,1.3c-0.5,0.1-1.3-0.4-1.2-0.6c0.1-0.3,0.2-0.5,0.3-0.6c0-0.1,0-0.1-0.1-0.2
				l0.5-0.9C76.6,152.8,76.8,153.4,76.9,153.6z"/>
			<g>
				<polygon class="st43" points="73.6,152.5 69.1,155.1 75,158.5 79.5,155.9 				"/>
				<g>
					<polygon class="st44" points="73.6,152.3 69.1,154.9 75,158.3 79.5,155.7 					"/>
					<polygon class="st45" points="73.6,152.6 69.7,154.9 75,158 78.9,155.7 					"/>
					<path class="st46" d="M76.2,156.3l-1.6,0.9c0,0,0,0.1,0,0.1l0,0c0,0,0.1,0,0.1,0l1.6-0.9c0,0,0-0.1,0-0.1l0,0
						C76.3,156.2,76.2,156.2,76.2,156.3z"/>
					<path class="st46" d="M74.9,156.7l-0.6,0.4c0,0,0,0.1,0,0.1l0,0c0,0,0.1,0,0.1,0l0.6-0.4c0,0,0-0.1,0-0.1l0,0
						C75,156.6,75,156.6,74.9,156.7z"/>
					<path class="st46" d="M75.5,156.3l-0.3,0.2c0,0,0,0.1,0,0.1l0,0c0,0,0.1,0,0.1,0l0.3-0.2c0,0,0-0.1,0-0.1l0,0
						C75.6,156.3,75.5,156.3,75.5,156.3z"/>
					<path class="st46" d="M73.6,156.4l-0.1,0.1c0,0,0,0.1,0,0.1l0,0c0,0,0.1,0,0.1,0l0.1-0.1c0,0,0-0.1,0-0.1l0,0
						C73.7,156.4,73.6,156.4,73.6,156.4z"/>
					<path class="st46" d="M74.7,155.8l-0.9,0.5c0,0,0,0.1,0,0.1l0,0c0,0,0.1,0,0.1,0l0.9-0.5c0,0,0-0.1,0-0.1l0,0
						C74.8,155.7,74.8,155.7,74.7,155.8z"/>
					<path class="st46" d="M75.2,155.5l-0.3,0.2c0,0,0,0.1,0,0.1l0,0c0,0,0.1,0,0.1,0l0.3-0.2c0,0,0-0.1,0-0.1l0,0
						C75.3,155.4,75.3,155.4,75.2,155.5z"/>
					<path class="st46" d="M76.5,155.7l-0.8,0.4c0,0,0,0.1,0,0.1l0,0c0,0,0.1,0,0.1,0l0.8-0.4c0,0,0-0.1,0-0.1l0,0
						C76.6,155.7,76.6,155.7,76.5,155.7z"/>
				</g>
			</g>
			<path class="st39" d="M69.6,154.7c0,0,0.6,0.9,0.8,1c0.2,0.1,1.2-0.1,1.3-0.1c0.1,0,0.4,0.1,0.4,0.1s0.2,0.2-0.1,0.3
				c-0.2,0.1-0.7,0.1-0.8,0.2c-0.1,0.1,0,0.3,0.1,0.3c0,0,0,0,0.1,0l-0.6,0.7c-0.2-0.1-0.5-0.2-0.6-0.3c-0.2-0.1-1.5-1.4-1.5-1.4
				L69.6,154.7z"/>
			<path class="st39" d="M75.2,153c0-0.2-0.3-0.9-0.3-0.9l0.5-0.7c0,0,0.7,0.9,0.8,1c0,0,0.1,0.1,0.2,0.2l-0.5,0.9
				c-0.1-0.1-0.1-0.1-0.2-0.1c-0.1,0-0.3,0.5-0.6,0.6c-0.3,0-0.4-0.2-0.4-0.2S75.2,153.3,75.2,153z"/>
		</g>
		<path class="st16" d="M65.2,144.3c0,0-0.5,0.6-0.4,2.2c0,1.6,1.1,4.7,1.2,5.3c0.2,0.6,2.9,3.8,2.9,3.8l1.3-0.7
			c0,0-2.3-3.4-2.6-4.4c-0.4-1-0.3-4.2-0.8-5.4C66.4,144.1,65.4,144,65.2,144.3z"/>
		<path class="st37" d="M74.1,150.8c0.3-0.2,0.6-0.4,0.9-0.7c0.6,0.9,1.2,1.7,1.2,1.7s-0.5,0.7-1.4,1c0,0-0.6-0.7-1.2-1.6
			C73.7,151,73.9,150.9,74.1,150.8z"/>
	</g>
	<g>
		<g>
			<g>
				<g>
					<polygon class="st47" points="84,164.6 84,165.4 85.8,165 					"/>
					<polygon class="st47" points="84,165.4 103.6,176.6 105,175.8 85.4,164.5 					"/>
					<polygon class="st48" points="84,164.6 103.6,175.9 105,175.1 85.4,163.8 					"/>
					<polygon class="st49" points="105,175.1 105,175.8 103.6,176.6 103.6,175.9 					"/>
				</g>
				<g>
					<polygon class="st50" points="83.9,163.1 85.5,164 86.9,163.2 85.4,162.3 					"/>
					<polygon class="st49" points="86.9,163.2 86.9,164.6 85.5,165.5 85.5,164 					"/>
					<polygon class="st47" points="83.9,163.1 83.9,164.6 85.5,165.5 85.5,164 					"/>
				</g>
				<g>
					<polygon class="st50" points="102,173.5 103.6,174.4 105,173.6 103.5,172.7 					"/>
					<polygon class="st49" points="105,173.6 105,175 103.6,175.9 103.6,174.4 					"/>
					<polygon class="st47" points="102,173.5 102,175 103.6,175.9 103.6,174.4 					"/>
				</g>
				<g>
					<polygon class="st50" points="92.8,167.4 94.3,168.3 95.8,167.5 94.2,166.5 					"/>
					<polygon class="st49" points="95.8,167.5 95.8,168.9 94.3,169.8 94.3,168.3 					"/>
					<polygon class="st47" points="92.8,167.4 92.8,168.9 94.3,169.8 94.3,168.3 					"/>
				</g>
				<g>
					<g>
						<polygon class="st47" points="75.7,169.3 75.7,170.1 77.5,169.7 						"/>
						<polygon class="st47" points="75.7,170.1 95.3,181.3 96.7,180.5 77.1,169.2 						"/>
						<polygon class="st51" points="75.7,169.3 95.3,180.6 96.7,179.8 77.1,168.5 						"/>
						<polygon class="st49" points="96.7,179.8 96.7,180.5 95.3,181.3 95.3,180.6 						"/>
					</g>
					<g>
						<polygon class="st47" points="64.6,175.7 64.6,176.5 66.4,176.1 						"/>
						<polygon class="st47" points="64.6,176.5 84.2,187.7 85.6,186.9 66.1,175.6 						"/>
						<polygon class="st48" points="64.6,175.7 84.2,187 85.6,186.2 66.1,174.9 						"/>
						<polygon class="st49" points="85.6,186.2 85.6,186.9 84.2,187.7 84.2,187 						"/>
					</g>
					<g>
						<polygon class="st47" points="72.9,171 72.9,171.7 74.7,171.3 						"/>
						<polygon class="st47" points="72.9,171.7 92.5,183 93.9,182.1 74.3,170.9 						"/>
						<polygon class="st51" points="72.9,171 92.5,182.2 93.9,181.4 74.3,170.1 						"/>
						<polygon class="st49" points="93.9,181.4 93.9,182.1 92.5,183 92.5,182.2 						"/>
					</g>
					<g>
						<polygon class="st50" points="82.7,184.6 84.2,185.5 85.6,184.7 84.1,183.7 						"/>
						<polygon class="st49" points="85.6,184.7 85.6,186.1 84.2,187 84.2,185.5 						"/>
						<polygon class="st47" points="82.7,184.6 82.7,186 84.2,187 84.2,185.5 						"/>
					</g>
					<g>
						<polygon class="st50" points="73.4,179.3 75,180.2 76.4,179.3 74.9,178.4 						"/>
						<polygon class="st49" points="76.4,179.3 76.4,180.8 75,181.7 75,180.2 						"/>
						<polygon class="st47" points="73.4,179.3 73.4,180.7 75,181.7 75,180.2 						"/>
					</g>
					<g>
						<polygon class="st50" points="90.9,179.8 92.5,180.7 93.9,179.8 92.4,178.9 						"/>
						<polygon class="st49" points="93.9,179.8 93.9,181.3 92.5,182.1 92.5,180.7 						"/>
						<polygon class="st47" points="90.9,179.8 90.9,181.3 92.5,182.1 92.5,180.7 						"/>
					</g>
					<g>
						<polygon class="st50" points="93.7,178.2 95.3,179.1 96.7,178.3 95.2,177.4 						"/>
						<polygon class="st49" points="96.7,178.3 96.7,179.7 95.3,180.6 95.3,179.1 						"/>
						<polygon class="st47" points="93.7,178.2 93.7,179.7 95.3,180.6 95.3,179.1 						"/>
					</g>
					<g>
						<polygon class="st50" points="81.7,174.4 83.2,175.3 84.7,174.5 83.1,173.6 						"/>
						<polygon class="st52" points="84.7,174.5 84.7,176 83.2,176.8 83.2,175.3 						"/>
						<polygon class="st53" points="81.7,174.4 81.7,175.9 83.2,176.8 83.2,175.3 						"/>
					</g>
					<g>
						<polygon class="st50" points="84.5,172.8 86,173.7 87.4,172.9 85.9,171.9 						"/>
						<polygon class="st52" points="87.4,172.9 87.4,174.3 86,175.2 86,173.7 						"/>
						<polygon class="st53" points="84.5,172.8 84.5,174.2 86,175.2 86,173.7 						"/>
					</g>
					<g>
						<polygon class="st50" points="64.6,174.2 66.1,175.1 67.6,174.3 66.1,173.4 						"/>
						<polygon class="st49" points="67.6,174.3 67.6,175.7 66.1,176.6 66.1,175.1 						"/>
						<polygon class="st47" points="64.6,174.2 64.6,175.7 66.1,176.6 66.1,175.1 						"/>
					</g>
					<g>
						<polygon class="st50" points="72.8,169.4 74.4,170.3 75.8,169.5 74.3,168.6 						"/>
						<polygon class="st54" points="75.8,169.5 75.8,171 74.4,171.8 74.4,170.3 						"/>
						<polygon class="st47" points="72.8,169.4 72.8,170.9 74.4,171.8 74.4,170.3 						"/>
					</g>
					<g>
						<polygon class="st50" points="75.6,167.8 77.2,168.7 78.6,167.8 77.1,166.9 						"/>
						<polygon class="st54" points="78.6,167.8 78.6,169.3 77.2,170.2 77.2,168.7 						"/>
						<polygon class="st47" points="75.6,167.8 75.6,169.2 77.2,170.2 77.2,168.7 						"/>
					</g>
				</g>
				<g>
					<polygon class="st49" points="105,172.8 105,173.5 103.2,173.1 					"/>
					<polygon class="st49" points="105,173.5 84.2,185.5 82.8,184.6 103.6,172.7 					"/>
					<polygon class="st48" points="105,172.8 84.2,184.7 82.8,183.9 103.6,171.9 					"/>
					<polygon class="st47" points="82.8,183.9 82.8,184.6 84.2,185.5 84.2,184.7 					"/>
				</g>
				<g>
					<polygon class="st49" points="95.8,167.4 95.8,168.1 94,167.8 					"/>
					<polygon class="st54" points="95.8,168.1 75,180.1 73.5,179.3 94.3,167.3 					"/>
					<polygon class="st48" points="95.8,167.4 75,179.4 73.5,178.5 94.3,166.6 					"/>
					<polygon class="st47" points="73.5,178.5 73.5,179.3 75,180.1 75,179.4 					"/>
				</g>
				<g>
					<polygon class="st49" points="86.9,162.3 86.9,163.1 85.2,162.7 					"/>
					<polygon class="st54" points="86.9,163.1 66.1,175.1 64.7,174.2 85.5,162.2 					"/>
					<polygon class="st48" points="86.9,162.3 66.1,174.3 64.7,173.5 85.5,161.5 					"/>
					<polygon class="st47" points="64.7,173.5 64.7,174.2 66.1,175.1 66.1,174.3 					"/>
				</g>
				<g>
					<polygon class="st47" points="84,161.5 84,162.2 85.7,161.9 					"/>
					<polygon class="st55" points="84,162.2 103.6,173.5 105,172.7 85.4,161.4 					"/>
					<polygon class="st56" points="84,161.5 103.6,172.8 105,172 85.4,160.7 					"/>
					<polygon class="st49" points="105,171.9 105,172.7 103.6,173.5 103.6,172.8 					"/>
				</g>
				<g>
					<polygon class="st47" points="81.2,163.1 81.2,163.8 83,163.5 					"/>
					<polygon class="st55" points="81.2,163.8 100.8,175.1 102.2,174.3 82.7,163 					"/>
					<polygon class="st56" points="81.2,163.1 100.8,174.4 102.2,173.5 82.7,162.3 					"/>
					<polygon class="st49" points="102.2,173.6 102.2,174.3 100.8,175.1 100.8,174.4 					"/>
				</g>
				<g>
					<polygon class="st47" points="78.4,164.7 78.4,165.4 80.2,165.1 					"/>
					<polygon class="st55" points="78.4,165.4 98,176.7 99.5,175.9 79.9,164.6 					"/>
					<polygon class="st56" points="78.4,164.7 98,176 99.5,175.1 79.9,163.8 					"/>
					<polygon class="st49" points="99.5,175.1 99.5,175.9 98,176.7 98,176 					"/>
				</g>
				<g>
					<polygon class="st47" points="75.7,166.3 75.7,167 77.5,166.7 					"/>
					<polygon class="st55" points="75.7,167 95.3,178.3 96.7,177.5 77.1,166.2 					"/>
					<polygon class="st56" points="75.7,166.3 95.3,177.6 96.7,176.7 77.1,165.4 					"/>
					<polygon class="st49" points="96.7,176.7 96.7,177.5 95.3,178.3 95.3,177.6 					"/>
				</g>
				<g>
					<polygon class="st47" points="72.9,167.9 72.9,168.6 74.7,168.2 					"/>
					<polygon class="st55" points="72.9,168.6 92.5,179.9 93.9,179.1 74.4,167.8 					"/>
					<polygon class="st56" points="72.9,167.9 92.5,179.2 93.9,178.3 74.4,167 					"/>
					<polygon class="st49" points="93.9,178.3 93.9,179.1 92.5,179.9 92.5,179.1 					"/>
				</g>
				<g>
					<polygon class="st47" points="70.1,169.5 70.1,170.2 71.9,169.8 					"/>
					<polygon class="st55" points="70.1,170.2 89.7,181.5 91.2,180.6 71.6,169.4 					"/>
					<polygon class="st56" points="70.1,169.5 89.7,180.7 91.2,179.9 71.6,168.6 					"/>
					<polygon class="st49" points="91.2,179.9 91.2,180.7 89.7,181.5 89.7,180.8 					"/>
				</g>
				<g>
					<polygon class="st47" points="67.4,171.1 67.4,171.8 69.2,171.4 					"/>
					<polygon class="st55" points="67.4,171.8 87,183.1 88.4,182.2 68.8,171 					"/>
					<polygon class="st56" points="67.4,171.1 87,182.3 88.4,181.5 68.8,170.2 					"/>
					<polygon class="st49" points="88.4,181.5 88.4,182.3 87,183.1 87,182.3 					"/>
				</g>
				<g>
					<polygon class="st47" points="64.6,172.6 64.6,173.4 66.4,173 					"/>
					<polygon class="st55" points="64.6,173.4 84.2,184.7 85.6,183.8 66.1,172.5 					"/>
					<polygon class="st56" points="64.6,172.6 84.2,183.9 85.6,183.1 66.1,171.8 					"/>
					<polygon class="st49" points="85.6,183.1 85.6,183.8 84.2,184.7 84.2,183.9 					"/>
				</g>
			</g>
		</g>
		<g>
			<g>
				<g>
					<g>
						<g>
							<polygon class="st57" points="85.6,169.9 92.1,166.1 92.1,159.3 85.6,163 							"/>
						</g>
					</g>
				</g>
				<g>
					<g>
						<g>
							<polygon class="st58" points="79.2,166.2 85.7,162.4 85.7,155.6 79.2,159.3 							"/>
						</g>
					</g>
				</g>
				<g>
					<g>
						<g>
							<polygon class="st59" points="85.6,169.9 79.2,166.1 79.2,159.3 85.6,163 							"/>
						</g>
					</g>
				</g>
				<g>
					<g>
						<g>
							<polygon class="st60" points="92.1,159.3 85.7,155.6 79.2,159.3 85.6,163 							"/>
						</g>
					</g>
				</g>
			</g>
			<g>
				<polygon class="st4" points="90,162.4 91.3,161.6 91.3,160.5 90,161.3 				"/>
				<polygon class="st61" points="90,164 91.4,163.2 91.4,162.1 90,162.9 				"/>
				<polygon class="st62" points="84.7,163.2 83.4,162.5 83.4,162.1 84.7,162.8 				"/>
				<polygon class="st62" points="84.7,163.8 84,163.5 84,163.1 84.7,163.4 				"/>
				<polygon class="st63" points="91.2,161.7 91.3,161.6 91.3,160.6 91.2,160.6 				"/>
				<polygon class="st63" points="91,161.8 91.1,161.7 91.1,160.6 91,160.7 				"/>
				<polygon class="st63" points="90.9,161.9 90.9,161.8 90.9,160.8 90.9,160.8 				"/>
				<polygon class="st63" points="90.8,161.9 90.8,161.9 90.8,160.8 90.8,160.8 				"/>
				<polygon class="st63" points="90.6,162 90.7,162 90.7,160.9 90.6,160.9 				"/>
				<polygon class="st63" points="90.4,162.1 90.6,162 90.6,161 90.4,161.1 				"/>
				<polygon class="st63" points="90.2,162.2 90.3,162.2 90.3,161.1 90.2,161.2 				"/>
			</g>
		</g>
		<g>
			<g>
				<g>
					<g>
						<g>
							<polygon class="st57" points="94,175.2 100.5,171.4 100.5,164.6 94,168.3 							"/>
						</g>
					</g>
				</g>
				<g>
					<g>
						<g>
							<polygon class="st58" points="87.6,171.5 94,167.7 94,160.9 87.6,164.6 							"/>
						</g>
					</g>
				</g>
				<g>
					<g>
						<g>
							<polygon class="st59" points="94,175.2 87.5,171.4 87.5,164.6 94,168.3 							"/>
						</g>
					</g>
				</g>
				<g>
					<g>
						<g>
							<polygon class="st60" points="100.5,164.6 94,160.9 87.6,164.6 94,168.3 							"/>
						</g>
					</g>
				</g>
			</g>
			<g>
				<polygon class="st4" points="98.4,167.7 99.7,166.9 99.7,165.8 98.4,166.6 				"/>
				<polygon class="st61" points="98.4,169.3 99.7,168.5 99.7,167.4 98.4,168.2 				"/>
				<polygon class="st62" points="93.1,168.5 91.7,167.8 91.7,167.4 93.1,168.1 				"/>
				<polygon class="st62" points="93,169.1 92.3,168.8 92.3,168.4 93,168.7 				"/>
				<polygon class="st63" points="99.6,167 99.6,166.9 99.6,165.9 99.6,165.9 				"/>
				<polygon class="st63" points="99.4,167.1 99.5,167 99.5,165.9 99.4,166 				"/>
				<polygon class="st63" points="99.2,167.2 99.3,167.1 99.3,166.1 99.2,166.1 				"/>
				<polygon class="st63" points="99.1,167.2 99.2,167.2 99.2,166.1 99.1,166.1 				"/>
				<polygon class="st63" points="99,167.3 99.1,167.3 99.1,166.2 99,166.2 				"/>
				<polygon class="st63" points="98.8,167.4 98.9,167.3 98.9,166.3 98.8,166.4 				"/>
				<polygon class="st63" points="98.6,167.5 98.7,167.5 98.7,166.4 98.6,166.5 				"/>
			</g>
		</g>
		<g>
			<g>
				<g>
					<g>
						<g>
							<polygon class="st57" points="77.6,174 84,170.2 84,159.3 77.6,163 							"/>
						</g>
					</g>
				</g>
				<g>
					<g>
						<g>
							<polygon class="st58" points="71.1,170.3 77.6,162.4 77.6,155.6 71.1,159.3 							"/>
						</g>
					</g>
				</g>
				<g>
					<g>
						<g>
							<polygon class="st59" points="77.6,174 71.1,170.2 71.1,159.3 77.6,163 							"/>
						</g>
					</g>
				</g>
				<g>
					<g>
						<g>
							<polygon class="st60" points="84,159.3 77.6,155.6 71.1,159.3 77.6,163 							"/>
						</g>
					</g>
				</g>
			</g>
			<g>
				<polygon class="st4" points="81.9,162.4 83.3,161.6 83.3,160.5 81.9,161.2 				"/>
				<polygon class="st61" points="82,164 83.3,163.2 83.3,162.1 82,162.8 				"/>
				<polygon class="st62" points="76.6,163.2 75.3,162.5 75.3,162 76.6,162.8 				"/>
				<polygon class="st62" points="76.6,163.8 75.9,163.5 75.9,163 76.6,163.4 				"/>
				<polygon class="st63" points="83.1,161.7 83.2,161.6 83.2,160.6 83.1,160.6 				"/>
				<polygon class="st63" points="82.9,161.8 83.1,161.7 83.1,160.6 82.9,160.7 				"/>
				<polygon class="st63" points="82.8,161.8 82.9,161.8 82.9,160.7 82.8,160.8 				"/>
				<polygon class="st63" points="82.7,161.9 82.8,161.9 82.8,160.8 82.7,160.8 				"/>
				<polygon class="st63" points="82.6,162 82.6,161.9 82.6,160.9 82.6,160.9 				"/>
				<polygon class="st63" points="82.3,162.1 82.5,162 82.5,161 82.3,161 				"/>
				<polygon class="st63" points="82.2,162.2 82.2,162.2 82.2,161.1 82.2,161.2 				"/>
			</g>
		</g>
		<g>
			<g>
				<g>
					<g>
						<g>
							<polygon class="st57" points="84,180.9 89.6,177.7 89.6,171.8 84,175 							"/>
						</g>
					</g>
				</g>
				<g>
					<g>
						<g>
							<polygon class="st58" points="78.5,177.7 84,174.5 84,168.6 78.5,171.8 							"/>
						</g>
					</g>
				</g>
				<g>
					<g>
						<g>
							<polygon class="st59" points="84,180.9 78.5,177.7 78.5,171.8 84,175 							"/>
						</g>
					</g>
				</g>
				<g>
					<g>
						<g>
							<polygon class="st60" points="89.6,171.8 84,168.6 78.5,171.8 84,175 							"/>
						</g>
					</g>
				</g>
			</g>
			<g>
				<polygon class="st4" points="87.8,174.5 88.9,173.8 88.9,172.8 87.8,173.5 				"/>
				<polygon class="st61" points="87.8,175.9 88.9,175.2 88.9,174.2 87.8,174.9 				"/>
				<polygon class="st62" points="83.2,175.2 82.1,174.5 82.1,174.2 83.2,174.8 				"/>
				<polygon class="st62" points="83.2,175.7 82.6,175.4 82.6,175 83.2,175.4 				"/>
				<polygon class="st63" points="88.8,173.8 88.9,173.8 88.9,172.9 88.8,172.9 				"/>
				<polygon class="st63" points="88.6,173.9 88.7,173.9 88.7,173 88.6,173 				"/>
				<polygon class="st63" points="88.5,174 88.6,174 88.6,173 88.5,173.1 				"/>
				<polygon class="st63" points="88.4,174 88.5,174 88.5,173.1 88.4,173.1 				"/>
				<polygon class="st63" points="88.3,174.1 88.4,174.1 88.4,173.2 88.3,173.2 				"/>
				<polygon class="st63" points="88.1,174.2 88.2,174.2 88.2,173.2 88.1,173.3 				"/>
				<polygon class="st63" points="88,174.3 88,174.3 88,173.4 88,173.4 				"/>
			</g>
		</g>
	</g>
</g>
<g>
	<g>
		<path class="st37" d="M194.7,138.1c0,0-0.7,0.2-1,1c-0.3,0.9-0.9,4.8-1.2,5.6c-0.3,0.9-2.5,3.8-2.5,3.8s0.5,0.8,1.6,1.1
			c0,0,2.3-2.9,2.8-3.9c0.5-1,1.5-4.9,1.5-4.9L194.7,138.1z"/>
		<g>
			<g>
				<g>
					<path class="st34" d="M200.7,164.2l0.2,0.4c0,0-1,1.2-1.1,1.3s-0.3,0-0.3,0l-1.3,1.4l-1.3-1.7l0.6-1.7l1.3-0.6L200.7,164.2z"/>
				</g>
			</g>
			<g>
				<g>
					<path class="st34" d="M197.5,170.3v0.7l-1.1,0.9l-0.2-0.1c0,0-0.3,0.5-1,0.9c-0.7,0.4-1.7,0.3-2.2,0.3c-0.5-0.1-0.8-0.3-1-0.4
						c-0.2-0.2,0-0.5,0-0.7s0.1-0.4,0.2-0.5c0.1-0.1,0.6-0.4,1-0.6c0.4-0.2,1.5-1.2,1.5-1.2s1.5,0.3,1.5,0.3
						C196.1,169.8,197.5,170.3,197.5,170.3z"/>
				</g>
			</g>
			<g>
				<g>
					<path class="st64" d="M191.9,172.2c0.2,0.2,0.5,0.3,1,0.4c0.5,0.1,1.5,0.1,2.2-0.3c0.7-0.4,1-0.9,1-0.9l0.2-0.1l1.2-0.9v0.5
						l-1.1,0.9l-0.2-0.1c0,0-0.3,0.5-1,0.9c-0.7,0.4-1.7,0.3-2.2,0.3c-0.5-0.1-0.8-0.3-1-0.4C191.9,172.4,191.9,172.3,191.9,172.2
						C191.9,172.2,191.9,172.2,191.9,172.2z"/>
				</g>
			</g>
			<g>
				<defs>
					<path id="SVGID_19_" d="M200.7,164.2l0.2,0.4c0,0-1,1.2-1.1,1.3s-0.3,0-0.3,0l-1.3,1.4l-1.3-1.7l0.6-1.7l1.3-0.6L200.7,164.2z"
						/>
				</defs>
				<clipPath id="SVGID_20_">
					<use xlink:href="#SVGID_19_"  style="overflow:visible;"/>
				</clipPath>
				<g class="st65">
					<g>
						<path class="st64" d="M200.7,164.1l-2.5,2.8l0.7,0.8c0,0,2.1-2,2.1-2.1c0-0.1,0.1-0.9,0.1-0.9L200.7,164.1z"/>
					</g>
				</g>
			</g>
			<g>
				<g>
					<path class="st36" d="M194.2,150.2c0,0,0.1,3.9,0.4,5.5c0.3,1.5,1.6,3.6,1.7,3.7c0.1,0.1,1.4,5.8,1.4,5.8s1.8,0.3,2.5-0.1
						c0.6-0.4,0.9-0.8,0.9-0.8s-0.6-3.2-1-4.3c-0.3-1.1-1-3.5-1-3.5l-0.2-4.8c0,0-1.4-1.9-1.9-2
						C196.5,149.5,194.2,150.2,194.2,150.2z"/>
				</g>
			</g>
			<g>
				<g>
					<path class="st10" d="M201.5,150.7c0,0-0.2,1.7-0.4,3.1c-0.3,1.3-0.9,3.8-1.1,5.5c-0.2,1.7-1.7,9.1-1.9,9.7
						c-0.2,0.6-0.3,1.3-0.3,1.3s-0.9,0.6-2,0.2c-1.1-0.3-1.6-1-1.6-1c0,0,1.4-5.8,1.5-6.7c0.1-0.9-0.1-3.3-0.1-4.4s1-7.5,1-7.5
						L201.5,150.7z"/>
				</g>
			</g>
			<g>
				<g>
					<path class="st37" d="M198.8,138.7c0,0,2,1,2.4,1.5c0.4,0.5,0.1,2.8-0.4,4.3c-0.5,1.5,0.3,4.1,0.5,4.8c0.2,0.7,0.2,1.5,0.2,1.5
						s-0.9,1.3-2.8,1.6c-1.9,0.3-3.2-0.3-3.7-0.6c-0.5-0.3-0.9-1.3-0.9-1.3s0.1-2.1-0.1-3.4c-0.2-1.4-0.4-2.8-0.6-3.6
						c-0.2-0.7-0.6-3.8,0.8-5.3c0.1-0.1,0.8-0.6,1.5-0.5C196.7,137.7,198.8,138.7,198.8,138.7z"/>
				</g>
			</g>
			<g>
				<g>
					<path class="st66" d="M198.6,137.3c0,0-0.1,0.5,0.1,1s0.6,0.8,0.6,0.8s-0.6,1-1.6,1.4c-1,0.4-1.6,0-1.7-0.1
						c-0.1-0.1-0.1-1.4-0.1-1.4L198.6,137.3z"/>
				</g>
			</g>
			<g>
				<g>
					<path class="st10" d="M194.3,145.7c0,0-0.5-1.3-0.5-3.6s0.7-3.8,1.3-4.1l0.5,0.3c0,0-1.1,0.7-1.1,3.4c0,2.7,0.5,4.5,0.5,4.5
						L194.3,145.7z"/>
				</g>
			</g>
			<g>
				<g>
					<path class="st39" d="M198.9,136.7c0,0-0.6,0.9-0.9,1.5c-0.4,0.6-0.7,0.9-1,1.1s-1,0.5-1.4,0.5c-0.3,0-0.5-0.2-0.6-0.3
						c-0.1-0.1-0.1-0.8-0.1-0.9c-0.1-0.1-0.2-0.2-0.2-0.4c0-0.2,0-0.8,0-1c0-0.2,0-0.6,0-0.8c0-0.2,0.3-1.1,0.5-1.4
						c0.2-0.4,1.1-1.2,1.9-1.3c0.8,0,1.2,0.2,1.5,0.4c0.3,0.2,0.6,0.9,0.6,1.3C199.1,135.7,198.9,136.7,198.9,136.7z"/>
				</g>
			</g>
			<g>
				<g>
					<path class="st40" d="M198,137.3c0,0,0.2-0.4,0.6-0.4c0.3,0,0.4,0,0.3,0.5c-0.1,0.4-0.3,0.7-0.5,0.8c-0.3,0.1-0.4,0.1-0.5,0
						c0-0.1,0-0.2,0.1-0.3C197.9,137.7,197.8,137.4,198,137.3z"/>
				</g>
			</g>
			<g>
				<g>
					<path class="st10" d="M201.5,151.4c0,0,0.2-0.7,0-1.5c0,0-2.8,0.1-3.5-3.2c0,0-2,0-3.7-1c0,0,0.5,2-0.2,3.1l0,1.9
						c0,0,0.4,1.9,3.6,2C201,152.6,201.5,151.4,201.5,151.4z"/>
				</g>
			</g>
			<g>
				<g>
					<path class="st41" d="M198.1,137.2c0,0-0.3,0.3-0.5,0.3c-0.2,0.1-0.1-0.2-0.3-0.4c-0.2-0.2-0.3-0.1-0.4-0.3
						c-0.1-0.1,0.1-0.5,0.1-0.7c0-0.2-0.6-0.4-1.1-0.4c-0.5,0-1.1-0.2-1.3-0.5c-0.2-0.3-0.2-0.5-0.2-0.5s0.4-0.6,1-0.9
						c0.5-0.3,1.4-0.6,2.2-0.5s1.2,0.5,1.5,1c0.3,0.5,0.2,1.4,0.1,2.1c-0.2,0.7-0.5,1.3-0.5,1.3S198.9,136.9,198.1,137.2z"/>
				</g>
			</g>
			<g>
				<g>
					<path class="st10" d="M198,146.7c0,0-0.3-2-0.1-3.7c0.2-1.7,1.7-3.3,2.7-3.4l-0.5-0.3c0,0-1,0.2-2,1.7c-1.3,1.9-0.6,6-0.6,6
						L198,146.7z"/>
				</g>
			</g>
		</g>
		<path class="st16" d="M201.2,140.1c0,0,0.5,0.7,0.5,2.5c0,1.8-1.2,5.3-1.4,6c-0.2,0.6-3.3,4.3-3.3,4.3l-1.5-0.8
			c0,0,2.5-3.8,2.9-4.9c0.4-1.1,0.4-4.8,0.9-6C199.8,139.8,200.9,139.8,201.2,140.1z"/>
		<g>
			<g>
				<g>
					<path class="st67" d="M193.7,174.3v1.3c0,0.2-0.2,0.5-0.3,0.6c-0.2,0.1-0.3,0.1-0.4-0.1l-0.5-1.1L193.7,174.3z"/>
					<polygon class="st68" points="193.3,177.2 192.8,176.9 192.9,175.9 193.9,174.8 194.5,175.2 194.4,175.5 					"/>
					<path class="st68" d="M193.4,174.9c0.5-0.3,0.8-0.1,0.8,0.5c0,0.5-0.4,1.2-0.8,1.5c-0.5,0.3-0.8,0.1-0.8-0.5
						S192.9,175.2,193.4,174.9z"/>
					<g>
						<path class="st69" d="M193,176.7c0,0.5,0.4,0.8,0.8,0.5c0.5-0.3,0.8-0.9,0.8-1.5c0-0.5-0.4-0.8-0.8-0.5
							C193.4,175.5,193,176.1,193,176.7z"/>
						<path class="st70" d="M193.4,176.5c0,0.3,0.2,0.5,0.5,0.3c0.3-0.2,0.5-0.6,0.5-0.9c0-0.3-0.2-0.5-0.5-0.3
							C193.6,175.8,193.4,176.2,193.4,176.5z"/>
						<path class="st71" d="M193.5,176.4c0,0.3,0.2,0.4,0.4,0.2c0.2-0.1,0.4-0.4,0.4-0.7c0-0.3-0.2-0.4-0.4-0.2
							C193.6,175.8,193.5,176.2,193.5,176.4z"/>
					</g>
					<g>
						<path class="st72" d="M194.2,174.6v1.3c0,0.2-0.2,0.5-0.3,0.6c-0.2,0.1-0.3,0.1-0.4-0.1l-0.5-1.1L194.2,174.6z"/>
						<path class="st73" d="M193.7,176.3c0,0.1,0.1,0.1,0.1,0.1c0.1,0,0.1-0.1,0.1-0.2c0-0.1-0.1-0.1-0.1-0.1
							C193.8,176.1,193.7,176.2,193.7,176.3z"/>
					</g>
					<polygon class="st74" points="194.2,174.6 193.7,174.3 192.4,175 193,175.4 					"/>
				</g>
				<g>
					<path class="st67" d="M181.9,180.8v1.3c0,0.2-0.2,0.5-0.3,0.6c-0.2,0.1-0.3,0.1-0.4-0.1l-0.5-1.1L181.9,180.8z"/>
					<polygon class="st68" points="181.5,183.7 181,183.4 181.1,182.3 182.1,181.3 182.7,181.7 182.6,182 					"/>
					<path class="st68" d="M181.5,181.4c0.5-0.3,0.8-0.1,0.8,0.5c0,0.5-0.4,1.2-0.8,1.5c-0.5,0.3-0.8,0.1-0.8-0.5
						C180.7,182.3,181.1,181.7,181.5,181.4z"/>
					<g>
						<path class="st69" d="M181.2,183.2c0,0.5,0.4,0.8,0.8,0.5c0.5-0.3,0.8-0.9,0.8-1.5c0-0.5-0.4-0.8-0.8-0.5
							C181.6,182,181.2,182.6,181.2,183.2z"/>
						<path class="st70" d="M181.5,183c0,0.3,0.2,0.5,0.5,0.3c0.3-0.2,0.5-0.6,0.5-0.9c0-0.3-0.2-0.5-0.5-0.3
							C181.8,182.2,181.5,182.6,181.5,183z"/>
						<path class="st71" d="M181.7,182.9c0,0.3,0.2,0.4,0.4,0.2c0.2-0.1,0.4-0.4,0.4-0.7c0-0.3-0.2-0.4-0.4-0.2
							C181.8,182.3,181.7,182.6,181.7,182.9z"/>
					</g>
					<g>
						<path class="st72" d="M182.4,181.1v1.3c0,0.2-0.2,0.5-0.3,0.6c-0.2,0.1-0.3,0.1-0.4-0.1l-0.5-1.1L182.4,181.1z"/>
						<path class="st73" d="M181.9,182.7c0,0.1,0.1,0.1,0.1,0.1c0.1,0,0.1-0.1,0.1-0.2c0-0.1-0.1-0.1-0.1-0.1
							C182,182.6,181.9,182.7,181.9,182.7z"/>
					</g>
					<polygon class="st74" points="182.4,181.1 181.9,180.8 180.6,181.5 181.2,181.9 					"/>
				</g>
				<g>
					<path class="st67" d="M184,169.9l0,1.3c0,0.2-0.2,0.5-0.3,0.6c-0.2,0.1-0.3,0.1-0.4-0.1l-0.5-1.1L184,169.9z"/>
					<polygon class="st68" points="183.6,172.8 183.1,172.5 183.2,171.4 184.2,170.4 184.8,170.8 184.7,171.1 					"/>
					<path class="st68" d="M183.7,170.5c0.5-0.3,0.8-0.1,0.8,0.5c0,0.5-0.4,1.2-0.8,1.5s-0.8,0.1-0.8-0.5
						C182.9,171.4,183.2,170.8,183.7,170.5z"/>
					<g>
						<path class="st69" d="M183.4,172.3c0,0.5,0.4,0.8,0.8,0.5c0.5-0.3,0.8-0.9,0.8-1.5c0-0.5-0.4-0.8-0.8-0.5
							C183.7,171.1,183.4,171.7,183.4,172.3z"/>
						<path class="st70" d="M183.7,172.1c0,0.3,0.2,0.5,0.5,0.3c0.3-0.2,0.5-0.6,0.5-0.9c0-0.3-0.2-0.5-0.5-0.3
							C183.9,171.3,183.7,171.7,183.7,172.1z"/>
						<path class="st71" d="M183.8,172c0,0.3,0.2,0.4,0.4,0.2c0.2-0.1,0.4-0.4,0.4-0.7c0-0.3-0.2-0.4-0.4-0.2
							C184,171.4,183.8,171.7,183.8,172z"/>
					</g>
					<g>
						<path class="st72" d="M184.6,170.2v1.3c0,0.2-0.2,0.5-0.3,0.6c-0.2,0.1-0.3,0.1-0.4-0.1l-0.5-1.1L184.6,170.2z"/>
						<path class="st73" d="M184.1,171.8c0,0.1,0.1,0.1,0.1,0.1c0.1,0,0.1-0.1,0.1-0.2c0-0.1-0.1-0.1-0.1-0.1
							C184.1,171.7,184.1,171.8,184.1,171.8z"/>
					</g>
					<polygon class="st74" points="184.6,170.2 184,169.9 182.8,170.6 183.3,171 					"/>
				</g>
				<g>
					<path class="st67" d="M173.3,176.1v1.3c0,0.2-0.2,0.5-0.3,0.6c-0.2,0.1-0.3,0.1-0.4-0.1l-0.5-1.1L173.3,176.1z"/>
					<polygon class="st68" points="172.9,179 172.4,178.7 172.5,177.6 173.5,176.6 174.2,177 174,177.3 					"/>
					<path class="st68" d="M173,176.7c0.5-0.3,0.8-0.1,0.8,0.5s-0.4,1.2-0.8,1.5c-0.5,0.3-0.8,0.1-0.8-0.5
						C172.2,177.6,172.6,177,173,176.7z"/>
					<g>
						<path class="st69" d="M172.7,178.4c0,0.5,0.4,0.8,0.8,0.5c0.5-0.3,0.8-0.9,0.8-1.5c0-0.5-0.4-0.8-0.8-0.5
							C173.1,177.3,172.7,177.9,172.7,178.4z"/>
						<path class="st70" d="M173,178.3c0,0.3,0.2,0.5,0.5,0.3c0.3-0.2,0.5-0.6,0.5-0.9c0-0.3-0.2-0.5-0.5-0.3
							C173.2,177.5,173,177.9,173,178.3z"/>
						<path class="st71" d="M173.1,178.2c0,0.3,0.2,0.4,0.4,0.2c0.2-0.1,0.4-0.4,0.4-0.7c0-0.3-0.2-0.4-0.4-0.2
							C173.3,177.6,173.1,177.9,173.1,178.2z"/>
					</g>
					<g>
						<path class="st72" d="M173.9,176.4v1.3c0,0.2-0.2,0.5-0.3,0.6c-0.2,0.1-0.3,0.1-0.4-0.1l-0.5-1.1L173.9,176.4z"/>
						<ellipse transform="matrix(0.5 -0.866 0.866 0.5 -67.3551 239.2704)" class="st73" cx="173.5" cy="178" rx="0.2" ry="0.1"/>
					</g>
					<polygon class="st74" points="173.9,176.4 173.3,176.1 172.1,176.8 172.6,177.2 					"/>
				</g>
				<g>
					<path class="st36" d="M196.6,153.3l-6.9-4c-0.3-0.2-0.7-0.2-1.1-0.1s-0.6,0.3-0.8,0.7l-2.2,4.4c-0.3,0.6-0.5,1.3-0.5,2.1
						l0,12.7c0,0.2,0.2,0.3,0.3,0.3c0.2,0,0.3-0.2,0.3-0.3l0-7.1l8.1,4.6l0,7.6c0,0.2,0.2,0.3,0.3,0.3c0.2,0,0.3-0.2,0.3-0.3l0-12.1
						c0-1,0.2-2,0.7-2.9l2-3.9C197.5,154.5,197.3,153.7,196.6,153.3z M196.5,154.9l-2,3.9c-0.5,1-0.8,2.1-0.8,3.2l0,3.7l-8.1-4.6
						l0-4.8c0-0.6,0.1-1.2,0.4-1.7l2.2-4.4c0.1-0.2,0.2-0.3,0.4-0.3c0.2-0.1,0.4,0,0.5,0.1l6.9,4
						C196.6,154.1,196.7,154.5,196.5,154.9z"/>
					<path class="st10" d="M194.1,174c-0.1,0-0.1-0.1-0.1-0.1l0-7.8l-8.5-4.8l0,7.5c0,0.1-0.1,0.1-0.1,0.1c-0.1,0-0.1-0.1-0.1-0.1
						l0-12.7c0-0.7,0.2-1.4,0.5-2l2.2-4.4c0.1-0.3,0.4-0.5,0.7-0.6c0.1,0,0.2,0,0.3,0c0.2,0,0.4,0.1,0.6,0.2l6.9,4
						c0.6,0.3,0.8,1,0.5,1.6l-2,3.9c-0.5,0.9-0.7,1.9-0.7,3l0,12.1C194.2,173.9,194.1,174,194.1,174z M188.9,149.4
						c-0.1,0-0.2,0-0.3,0c-0.2,0.1-0.4,0.2-0.5,0.4l-2.2,4.4c-0.3,0.6-0.4,1.2-0.4,1.8l0,4.9l8.5,4.8l0-4c0-1.1,0.3-2.1,0.7-3.1
						l2-3.9c0.2-0.5,0.1-1-0.4-1.3l-6.9-4C189.2,149.5,189,149.4,188.9,149.4z"/>
				</g>
				<g>
					<path class="st36" d="M194.5,173.3c0-0.3-0.2-0.6-0.6-0.8l-7.2-4.1c-0.7-0.4-1.9-0.4-2.6,0l-11.7,6.7c-0.4,0.2-0.6,0.5-0.6,0.8
						c0,0,0,0,0,0c0,0,0,0,0,0c0,0,0,0,0,0c0,0,0,0,0,0c0,0,0,0,0,0c0,0,0,0,0,0c0,0,0,0,0,0c0,0,0,0,0,0c0,0,0,0,0,0c0,0,0,0,0,0
						c0,0,0,0,0,0c0,0,0,0,0,0c0,0,0,0,0,0c0,0,0,0,0,0c0,0,0,0,0,0c0,0,0,0,0,0c0,0,0,0,0,0c0,0,0,0,0,0c0,0,0,0,0,0c0,0,0,0,0,0
						c0,0,0,0,0,0c0,0,0,0,0,0c0,0,0,0,0,0c0,0,0,0,0,0c0,0,0,0,0,0c0,0,0,0,0,0c0,0,0,0,0,0c0,0,0,0,0,0c0,0,0,0,0,0c0,0,0,0,0,0
						c0,0,0,0,0,0c0,0,0,0,0,0c0,0,0,0,0,0c0,0,0,0,0,0c0,0,0,0,0,0c0,0,0,0,0,0c0,0,0,0,0,0c0,0,0,0,0,0c0,0,0,0,0,0c0,0,0,0,0,0
						c0,0,0,0,0,0c0,0,0,0,0,0s0,0,0,0c0,0,0,0,0,0c0,0,0,0,0,0s0,0,0,0s0,0,0,0c0,0,0,0,0,0c0,0,0,0,0,0s0,0,0,0c0,0,0,0,0,0
						c0,0,0,0,0,0s0,0,0,0s0,0,0,0c0,0,0,0,0,0c0,0,0,0,0,0c0,0,0,0,0,0s0,0,0,0c0,0,0,0,0,0c0,0,0,0,0,0c0,0,0,0,0,0c0,0,0,0,0,0
						c0,0,0,0,0,0c0,0,0,0,0,0c0,0,0,0,0,0c0,0,0,0,0,0c0,0,0,0,0,0c0,0,0,0,0,0c0,0,0,0,0,0c0,0,0,0,0,0c0,0,0,0,0,0c0,0,0,0,0,0
						c0,0,0,0,0,0c0,0,0,0,0,0c0,0,0,0,0,0c0,0,0,0,0,0c0,0,0,0,0,0c0,0,0,0,0,0c0,0,0,0,0,0c0,0,0,0,0,0c0,0,0,0,0,0c0,0,0,0,0,0
						c0,0,0,0,0,0c0,0,0,0,0,0c0,0,0,0,0,0c0,0,0,0,0,0c0,0,0,0,0,0c0,0,0,0,0,0c0,0,0,0,0,0c0,0,0,0,0,0c0,0,0,0,0,0c0,0,0,0,0,0
						c0,0,0,0,0,0c0,0,0,0,0,0c0,0,0,0,0,0c0,0,0,0,0,0c0,0,0,0,0,0c0,0,0,0,0,0c0,0,0,0,0,0c0,0,0,0,0,0c0,0.3,0.2,0.6,0.6,0.8
						l7.2,4.1c0.7,0.4,1.9,0.4,2.6,0l11.7-6.7c0.4-0.2,0.6-0.5,0.6-0.8c0,0,0,0,0,0c0,0,0,0,0,0c0,0,0,0,0,0c0,0,0,0,0,0
						c0,0,0,0,0,0c0,0,0,0,0,0c0,0,0,0,0,0c0,0,0,0,0,0c0,0,0,0,0,0c0,0,0,0,0,0c0,0,0,0,0,0c0,0,0,0,0,0c0,0,0,0,0,0c0,0,0,0,0,0
						c0,0,0,0,0,0c0,0,0,0,0,0c0,0,0,0,0,0c0,0,0,0,0,0c0,0,0,0,0,0c0,0,0,0,0,0c0,0,0,0,0,0c0,0,0,0,0,0c0,0,0,0,0,0c0,0,0,0,0,0
						c0,0,0,0,0,0c0,0,0,0,0,0c0,0,0,0,0,0c0,0,0,0,0,0c0,0,0,0,0,0c0,0,0,0,0,0c0,0,0,0,0,0c0,0,0,0,0,0c0,0,0,0,0,0c0,0,0,0,0,0
						c0,0,0,0,0,0c0,0,0,0,0,0c0,0,0,0,0,0c0,0,0,0,0,0c0,0,0,0,0,0c0,0,0,0,0,0c0,0,0,0,0,0c0,0,0,0,0,0c0,0,0,0,0,0c0,0,0,0,0,0
						c0,0,0,0,0,0c0,0,0,0,0,0c0,0,0,0,0,0c0,0,0,0,0,0c0,0,0,0,0,0c0,0,0,0,0,0c0,0,0,0,0,0c0,0,0,0,0,0c0,0,0,0,0,0c0,0,0,0,0,0
						c0,0,0,0,0,0c0,0,0,0,0,0c0,0,0,0,0,0c0,0,0,0,0,0c0,0,0,0,0,0c0,0,0,0,0,0c0,0,0,0,0,0c0,0,0,0,0,0c0,0,0,0,0,0s0,0,0,0
						s0,0,0,0c0,0,0,0,0,0c0,0,0,0,0,0s0,0,0,0c0,0,0,0,0,0c0,0,0,0,0,0c0,0,0,0,0,0s0,0,0,0c0,0,0,0,0,0c0,0,0,0,0,0s0,0,0,0
						c0,0,0,0,0,0c0,0,0,0,0,0c0,0,0,0,0,0c0,0,0,0,0,0c0,0,0,0,0,0c0,0,0,0,0,0c0,0,0,0,0,0C194.5,173.4,194.5,173.4,194.5,173.3
						C194.5,173.4,194.5,173.4,194.5,173.3C194.5,173.4,194.5,173.4,194.5,173.3C194.5,173.4,194.5,173.4,194.5,173.3
						C194.5,173.4,194.5,173.4,194.5,173.3C194.5,173.4,194.5,173.4,194.5,173.3C194.5,173.4,194.5,173.4,194.5,173.3
						C194.5,173.4,194.5,173.4,194.5,173.3C194.5,173.4,194.5,173.4,194.5,173.3C194.5,173.4,194.5,173.4,194.5,173.3
						C194.5,173.4,194.5,173.4,194.5,173.3C194.5,173.4,194.5,173.4,194.5,173.3C194.5,173.4,194.5,173.4,194.5,173.3
						C194.5,173.4,194.5,173.4,194.5,173.3C194.5,173.4,194.5,173.4,194.5,173.3C194.5,173.4,194.5,173.3,194.5,173.3
						C194.5,173.3,194.5,173.3,194.5,173.3C194.5,173.3,194.5,173.3,194.5,173.3z"/>
					<path class="st75" d="M179.7,180.8l-7.1-4.1c-0.7-0.4-0.7-1.1,0-1.5l11.7-6.7c0.7-0.4,1.9-0.4,2.6,0l7.1,4.1
						c0.7,0.4,0.7,1.1,0,1.5l-11.7,6.7C181.6,181.2,180.4,181.2,179.7,180.8z"/>
				</g>
				<g>
					<path class="st76" d="M194.5,172.8c0-0.3-0.2-0.6-0.6-0.8l-7.2-4.1c-0.7-0.4-1.9-0.4-2.6,0l-11.7,6.7c-0.4,0.2-0.6,0.5-0.6,0.8
						c0,0,0,0,0,0c0,0,0,0,0,0s0,0,0,0s0,0,0,0c0,0,0,0,0,0c0,0,0,0,0,0s0,0,0,0c0,0,0,0,0,0c0,0,0,0,0,0c0,0,0,0,0,0s0,0,0,0
						c0,0,0,0,0,0c0,0,0,0,0,0c0,0,0,0,0,0c0,0,0,0,0,0c0,0,0,0,0,0c0,0,0,0,0,0c0,0,0,0,0,0c0,0,0,0,0,0c0,0,0,0,0,0c0,0,0,0,0,0
						c0,0,0,0,0,0c0,0,0,0,0,0c0,0,0,0,0,0c0,0,0,0,0,0c0,0,0,0,0,0c0,0,0,0,0,0c0,0,0,0,0,0c0,0,0,0,0,0c0,0,0,0,0,0c0,0,0,0,0,0
						c0,0,0,0,0,0c0,0,0,0,0,0c0,0,0,0,0,0c0,0,0,0,0,0c0,0,0,0,0,0c0,0,0,0,0,0c0,0,0,0,0,0c0,0,0,0,0,0c0,0,0,0,0,0c0,0,0,0,0,0
						c0,0,0,0,0,0c0,0,0,0,0,0c0,0,0,0,0,0c0,0,0,0,0,0c0,0,0,0,0,0c0,0,0,0,0,0c0,0,0,0,0,0c0,0,0,0,0,0c0,0,0,0,0,0c0,0,0,0,0,0
						c0,0,0,0,0,0c0,0,0,0,0,0c0,0,0,0,0,0c0,0,0,0,0,0c0,0,0,0,0,0c0,0,0,0,0,0c0,0,0,0,0,0c0,0,0,0,0,0c0,0,0,0,0,0c0,0,0,0,0,0
						c0,0,0,0,0,0c0,0,0,0,0,0c0,0,0,0,0,0c0,0,0,0,0,0c0,0,0,0,0,0c0,0,0,0,0,0c0,0,0,0,0,0c0,0,0,0,0,0c0,0,0,0,0,0c0,0,0,0,0,0
						s0,0,0,0c0,0,0,0,0,0c0,0,0,0,0,0s0,0,0,0s0,0,0,0c0,0,0,0,0,0c0,0,0,0,0,0s0,0,0,0c0,0,0,0,0,0c0,0,0,0,0,0c0,0,0,0,0,0
						s0,0,0,0c0,0,0,0,0,0c0,0,0,0,0,0c0,0,0,0,0,0c0,0,0,0,0,0c0,0,0,0,0,0c0,0,0,0,0,0c0,0,0,0,0,0c0,0,0,0,0,0c0,0,0,0,0,0
						c0,0,0,0,0,0c0,0,0,0,0,0c0,0,0,0,0,0c0,0,0,0,0,0c0,0,0,0,0,0c0,0,0,0,0,0c0,0,0,0,0,0c0,0,0,0,0,0c0,0.3,0.2,0.6,0.6,0.8
						l7.2,4.1c0.7,0.4,1.9,0.4,2.6,0l11.7-6.7c0.4-0.2,0.6-0.5,0.6-0.8c0,0,0,0,0,0c0,0,0,0,0,0c0,0,0,0,0,0c0,0,0,0,0,0
						c0,0,0,0,0,0c0,0,0,0,0,0c0,0,0,0,0,0c0,0,0,0,0,0c0,0,0,0,0,0c0,0,0,0,0,0c0,0,0,0,0,0c0,0,0,0,0,0c0,0,0,0,0,0c0,0,0,0,0,0
						c0,0,0,0,0,0c0,0,0,0,0,0c0,0,0,0,0,0c0,0,0,0,0,0c0,0,0,0,0,0c0,0,0,0,0,0c0,0,0,0,0,0c0,0,0,0,0,0c0,0,0,0,0,0c0,0,0,0,0,0
						c0,0,0,0,0,0c0,0,0,0,0,0c0,0,0,0,0,0c0,0,0,0,0,0c0,0,0,0,0,0c0,0,0,0,0,0c0,0,0,0,0,0c0,0,0,0,0,0c0,0,0,0,0,0c0,0,0,0,0,0
						s0,0,0,0s0,0,0,0c0,0,0,0,0,0c0,0,0,0,0,0s0,0,0,0c0,0,0,0,0,0c0,0,0,0,0,0c0,0,0,0,0,0s0,0,0,0c0,0,0,0,0,0c0,0,0,0,0,0
						s0,0,0,0s0,0,0,0c0,0,0,0,0,0c0,0,0,0,0,0c0,0,0,0,0,0c0,0,0,0,0,0c0,0,0,0,0,0c0,0,0,0,0,0c0,0,0,0,0,0c0,0,0,0,0,0
						c0,0,0,0,0,0c0,0,0,0,0,0c0,0,0,0,0,0c0,0,0,0,0,0c0,0,0,0,0,0c0,0,0,0,0,0c0,0,0,0,0,0c0,0,0,0,0,0c0,0,0,0,0,0c0,0,0,0,0,0
						c0,0,0,0,0,0c0,0,0,0,0,0c0,0,0,0,0,0c0,0,0,0,0,0c0,0,0,0,0,0c0,0,0,0,0,0c0,0,0,0,0,0c0,0,0,0,0,0c0,0,0,0,0,0c0,0,0,0,0,0
						c0,0,0,0,0,0c0,0,0,0,0,0c0,0,0,0,0,0c0,0,0,0,0,0c0,0,0,0,0,0c0,0,0,0,0,0c0,0,0,0,0,0C194.5,172.9,194.5,172.9,194.5,172.8
						C194.5,172.9,194.5,172.8,194.5,172.8C194.5,172.8,194.5,172.8,194.5,172.8C194.5,172.8,194.5,172.8,194.5,172.8
						C194.5,172.8,194.5,172.8,194.5,172.8C194.5,172.8,194.5,172.8,194.5,172.8C194.5,172.8,194.5,172.8,194.5,172.8
						C194.5,172.8,194.5,172.8,194.5,172.8C194.5,172.8,194.5,172.8,194.5,172.8C194.5,172.8,194.5,172.8,194.5,172.8
						C194.5,172.8,194.5,172.8,194.5,172.8C194.5,172.8,194.5,172.8,194.5,172.8C194.5,172.8,194.5,172.8,194.5,172.8
						C194.5,172.8,194.5,172.8,194.5,172.8C194.5,172.8,194.5,172.8,194.5,172.8C194.5,172.8,194.5,172.8,194.5,172.8
						C194.5,172.8,194.5,172.8,194.5,172.8C194.5,172.8,194.5,172.8,194.5,172.8z"/>
					<path class="st77" d="M179.7,180.2l-7.1-4.1c-0.7-0.4-0.7-1.1,0-1.5l11.7-6.7c0.7-0.4,1.9-0.4,2.6,0l7.1,4.1
						c0.7,0.4,0.7,1.1,0,1.5l-11.7,6.7C181.6,180.7,180.4,180.7,179.7,180.2z"/>
				</g>
				<g>
					<path class="st36" d="M196.6,153.3l-1.5-0.9c-0.2,0.2-0.4,0.3-0.6,0.4l1.8,1c0.4,0.2,0.5,0.7,0.3,1l-2,3.9
						c-0.5,1-0.8,2.1-0.8,3.2l0,3.7l-1.5-0.9c0,0,0,0,0,0c-0.1,0.2-0.1,0.4-0.2,0.7l1.7,1l0,7.6c0,0.2,0.2,0.3,0.3,0.3
						c0.2,0,0.3-0.2,0.3-0.3l0-12.1c0-1,0.2-2,0.7-2.9l2-3.9C197.5,154.5,197.3,153.7,196.6,153.3z"/>
					<path class="st10" d="M196.4,153.3l-1.4-0.8c-0.1,0.1-0.1,0.1-0.2,0.2l1.5,0.9c0.5,0.3,0.6,0.8,0.4,1.3l-2,3.9
						c-0.5,0.9-0.7,2-0.7,3.1l0,4l-1.7-0.9c0,0.1,0,0.2-0.1,0.3l1.7,1l0,7.8c0,0.1,0.1,0.1,0.1,0.1s0.1-0.1,0.1-0.1l0-12.1
						c0-1,0.2-2,0.7-3l2-3.9C197.1,154.4,196.9,153.7,196.4,153.3z"/>
				</g>
			</g>
			<g>
				<g>
					<g>
						<g>
							<polygon class="st78" points="179.3,177.8 174.7,175.1 174.7,170.3 179.3,172.9 							"/>
						</g>
					</g>
				</g>
				<g>
					<g>
						<g>
							<polygon class="st58" points="183.9,175.2 179.3,172.5 179.3,167.6 183.9,170.3 							"/>
						</g>
					</g>
				</g>
				<g>
					<g>
						<g>
							<polygon class="st79" points="179.3,177.8 183.9,175.1 183.9,170.3 179.3,172.9 							"/>
						</g>
					</g>
				</g>
				<g>
					<g>
						<g>
							<polygon class="st60" points="174.7,170.3 179.3,167.6 183.9,170.3 179.3,172.9 							"/>
						</g>
					</g>
				</g>
			</g>
			<g>
				<g>
					<g>
						<g>
							<polygon class="st80" points="179.2,172.1 175.2,169.8 175.2,165.6 179.2,167.9 							"/>
						</g>
					</g>
				</g>
				<g>
					<g>
						<g>
							<polygon class="st58" points="183.1,169.9 179.2,167.6 179.2,163.3 183.1,165.6 							"/>
						</g>
					</g>
				</g>
				<g>
					<g>
						<g>
							<polygon class="st79" points="179.2,172.1 183.2,169.8 183.2,165.6 179.2,167.9 							"/>
						</g>
					</g>
				</g>
				<g>
					<g>
						<g>
							<polygon class="st60" points="175.2,165.6 179.2,163.3 183.1,165.6 179.2,167.9 							"/>
						</g>
					</g>
				</g>
			</g>
		</g>
	</g>
	<path class="st39" d="M196,151.8c0,0-0.3,0.3-0.4,0.4c-0.1,0.1-0.4,0-0.7,0c-0.3,0-0.5,0.5-0.5,0.7c-0.1,0.2,0.3,0.7,0.6,0.9
		c0.4,0.2,1,0.3,1.2,0.3c0.2,0,0.1-0.2,0.1-0.5c0-0.3,0.4-0.3,0.5-0.3s0.4-0.9,0.4-0.9L196,151.8z"/>
	<path class="st16" d="M196.3,150.8c-0.5,0.7-0.8,1.3-0.8,1.3l1.5,0.8c0,0,0.5-0.6,1.1-1.3C197.4,151.4,196.8,151.1,196.3,150.8z"/>
	<path class="st16" d="M199.1,142.4c0.9,0,1.8,0.3,2.6,0.8c0-0.2,0-0.4,0-0.6c0-1.8-0.5-2.5-0.5-2.5c-0.3-0.3-1.4-0.3-1.9,1
		C199.2,141.4,199.1,141.9,199.1,142.4C199,142.4,199,142.4,199.1,142.4z"/>
	<path class="st39" d="M191.2,149.2c0,0-0.1,0.3-0.1,0.5c0,0.2,0.2,0.4,0.3,0.6c0.1,0.1,0.1,0.3,0.1,0.4c0,0.1-0.1,0.5-0.1,0.5
		c0,0-0.2-0.2-0.3-0.3c-0.1-0.1,0-0.3-0.1-0.3c0,0-0.1,0.2-0.1,0.2c0,0.1-0.1,0.3-0.1,0.3c-0.1,0-0.8-0.1-1.1-0.4
		c-0.4-0.3-0.6-0.7-0.5-1c0-0.3,0.3-0.7,0.4-0.8c0.1-0.1,0.4-0.1,0.5-0.1c0.1,0,0.6-0.4,0.6-0.4L191.2,149.2z"/>
	<path class="st37" d="M192.2,147.4c-0.3-0.2-0.6-0.5-0.9-0.7c-0.6,0.9-1.3,1.8-1.3,1.8s0.5,0.8,1.6,1.1c0,0,0.6-0.8,1.3-1.7
		C192.7,147.7,192.4,147.6,192.2,147.4z"/>
</g>
</svg>
