<?xml version="1.0" encoding="utf-8"?>
<!-- Generator: Adobe Illustrator 24.1.3, SVG Export Plug-In . SVG Version: 6.00 Build 0)  -->
<svg version="1.1" id="Layer_1" xmlns="http://www.w3.org/2000/svg" xmlns:xlink="http://www.w3.org/1999/xlink" x="0px" y="0px"
	 viewBox="0 0 138.1 36.7" style="enable-background:new 0 0 138.1 36.7;" xml:space="preserve">
<style type="text/css">
	.st0{fill:#606060;}
</style>
<g>
	<g>
		<path class="st0" d="M134.8,32.6c-1-1.2-2-2.2-2.9-3.1l1.4-1.4c1,1,1.9,2,3,3.2L134.8,32.6z M3.7,29.5l-1.4-1.4
			c2.9-2.9,5.9-5.6,9.1-8l1.2,1.6C9.5,24.1,6.5,26.7,3.7,29.5z M123,21.7c-3.1-2.4-6.4-4.6-9.8-6.6l1-1.7c3.5,2,6.9,4.3,10.1,6.7
			L123,21.7z M22.4,15.1l-1-1.7c3.5-2,7.1-3.8,10.9-5.4l0.8,1.8C29.4,11.3,25.9,13.1,22.4,15.1z M102.5,9.8
			C98.8,8.3,95.1,7.1,91.3,6l0.5-1.9c3.9,1,7.8,2.4,11.5,3.9L102.5,9.8z M44.3,6l-0.5-1.9c3.9-1,7.9-1.8,11.9-2.4l0.3,2
			C52,4.2,48.1,5,44.3,6z M79.6,3.7c-3.9-0.5-7.9-0.8-11.8-0.8v-2c4,0,8.1,0.3,12.1,0.8L79.6,3.7z"/>
	</g>
	<path class="st0" d="M135.6,32.8h-10c-0.6,0-1-0.4-1-1s0.4-1,1-1h9v-9c0-0.6,0.4-1,1-1s1,0.4,1,1v10
		C136.6,32.4,136.1,32.8,135.6,32.8z"/>
</g>
</svg>
