<?xml version="1.0" encoding="utf-8"?>
<!-- Generator: Adobe Illustrator 22.1.0, SVG Export Plug-In . SVG Version: 6.00 Build 0)  -->
<svg version="1.1" id="Design" xmlns="http://www.w3.org/2000/svg" xmlns:xlink="http://www.w3.org/1999/xlink" x="0px" y="0px"
	 viewBox="0 0 21.8 21.3" style="enable-background:new 0 0 21.8 21.3;" xml:space="preserve">
<style type="text/css">
	.st0{fill:#808080;}
</style>
<title>Language icon</title>
<path class="st0" d="M10.8,21.1C5,21.1,0.3,16.4,0.3,10.6S5,0.1,10.8,0.1c5.8,0,10.5,4.7,10.5,10.5S16.6,21.1,10.8,21.1z M10.8,1.1
	c-5.2,0-9.5,4.3-9.5,9.5c0,5.2,4.3,9.5,9.5,9.5s9.5-4.3,9.5-9.5C20.3,5.4,16.1,1.1,10.8,1.1z"/>
<path class="st0" d="M10.8,21.1c-3.5,0-6.2-4.6-6.2-10.5c0-5.9,2.7-10.5,6.2-10.5S17,4.7,17,10.6C17,16.5,14.3,21.1,10.8,21.1z
	 M10.8,1.1c-2.9,0-5.2,4.3-5.2,9.5c0,5.2,2.3,9.5,5.2,9.5s5.2-4.3,5.2-9.5C16,5.4,13.7,1.1,10.8,1.1z"/>
<rect x="10.3" y="0.6" class="st0" width="1" height="20"/>
<rect x="0.3" y="10.1" class="st0" width="21" height="1"/>
</svg>
