<?xml version="1.0" encoding="utf-8"?>
<!-- Generator: Adobe Illustrator 22.0.1, SVG Export Plug-In . SVG Version: 6.00 Build 0)  -->
<svg version="1.1" id="Layer_1" xmlns="http://www.w3.org/2000/svg" xmlns:xlink="http://www.w3.org/1999/xlink" x="0px" y="0px"
	 viewBox="0 0 101.6 100.3" style="enable-background:new 0 0 101.6 100.3;" xml:space="preserve">
<style type="text/css">
	.st0{fill:#EABD8D;}
	.st1{fill:#A5714E;}
	.st2{fill:#C9905C;}
	.st3{opacity:0.36;fill:#FFFFFF;enable-background:new    ;}
</style>
<g>
	<g>
		<polygon class="st0" points="43,14.4 0.4,37.1 32.6,57.9 77.4,31.6 		"/>
		<polygon class="st1" points="0.4,37.1 0.4,77.4 32.6,96.8 32.6,57.9 		"/>
		<polygon class="st2" points="77.4,31.6 32.6,57.9 32.6,96.8 77.4,69.9 		"/>
	</g>
	<polygon class="st3" points="12.7,45.1 12.7,60.6 18.9,64.7 19.4,49.3 62.7,24.4 56.3,21.2 	"/>
</g>
<g>
	<g>
		<polygon class="st0" points="39.8,0.6 18.4,11.9 34.6,22.3 57,9 		"/>
		<polygon class="st1" points="18.4,11.9 18.4,32 34.6,41.7 34.6,22.3 		"/>
		<polygon class="st2" points="57,9 34.6,22.3 34.6,41.7 57,28.2 		"/>
	</g>
	<polygon class="st3" points="24.7,15.9 24.7,23.6 27.8,25.7 28,17.9 49.7,5.5 46.5,3.9 	"/>
</g>
<g>
	<g>
		<polygon class="st0" points="84.1,58.6 62.7,69.9 78.9,80.3 101.3,67.1 		"/>
		<polygon class="st1" points="62.7,69.9 62.7,90 78.9,99.7 78.9,80.3 		"/>
		<polygon class="st2" points="101.3,67.1 78.9,80.3 78.9,99.7 101.3,86.3 		"/>
	</g>
	<polygon class="st3" points="69,73.8 69,81.7 72.1,83.6 72.3,75.9 94,63.5 90.7,61.9 	"/>
</g>
</svg>
