<?xml version="1.0" encoding="UTF-8" standalone="no"?>
<!-- Generator: Adobe Illustrator 23.0.1, SVG Export Plug-In . SVG Version: 6.00 Build 0)  -->

<svg
   xmlns:dc="http://purl.org/dc/elements/1.1/"
   xmlns:cc="http://creativecommons.org/ns#"
   xmlns:rdf="http://www.w3.org/1999/02/22-rdf-syntax-ns#"
   xmlns:svg="http://www.w3.org/2000/svg"
   xmlns="http://www.w3.org/2000/svg"
   xmlns:sodipodi="http://sodipodi.sourceforge.net/DTD/sodipodi-0.dtd"
   xmlns:inkscape="http://www.inkscape.org/namespaces/inkscape"
   version="1.1"
   id="Layer_1"
   x="0px"
   y="0px"
   viewBox="0 0 39.999999 39.999999"
   xml:space="preserve"
   sodipodi:docname="MyPortrait.svg"
   inkscape:version="0.92.3 (2405546, 2018-03-11)"
   width="40"
   height="40"><metadata
   id="metadata23"><rdf:RDF><cc:Work
       rdf:about=""><dc:format>image/svg+xml</dc:format><dc:type
         rdf:resource="http://purl.org/dc/dcmitype/StillImage" /><dc:title>Service 2</dc:title></cc:Work></rdf:RDF></metadata><defs
   id="defs21" /><sodipodi:namedview
   pagecolor="#ffffff"
   bordercolor="#666666"
   borderopacity="1"
   objecttolerance="10"
   gridtolerance="10"
   guidetolerance="10"
   inkscape:pageopacity="0"
   inkscape:pageshadow="2"
   inkscape:window-width="2560"
   inkscape:window-height="1356"
   id="namedview19"
   showgrid="false"
   inkscape:zoom="7.8145693"
   inkscape:cx="14.591925"
   inkscape:cy="14.975823"
   inkscape:window-x="-8"
   inkscape:window-y="-8"
   inkscape:window-maximized="1"
   inkscape:current-layer="Layer_1" />
<style
   type="text/css"
   id="style2">
	.st0{fill:#00A9CE;}
</style>
<title
   id="title4">Service 2</title>
<circle
   style="opacity:1;fill:#f8f8f8;fill-opacity:1;stroke:none;stroke-width:0.79971451;stroke-linecap:butt;stroke-miterlimit:4;stroke-dasharray:none;stroke-opacity:1"
   id="path830"
   cx="20"
   cy="20"
   r="20" />
<g
   id="g838"
   transform="translate(5.0299476,4.85)"><g
     id="g10">
	<g
   id="g8">
		<path
   id="path6"
   d="m 15.1,13.5 c -3.2,0 -5.8,-2.6 -5.8,-5.8 0,-3.2 2.6,-5.8 5.8,-5.8 3.2,0 5.8,2.6 5.8,5.8 0,3.2 -2.6,5.8 -5.8,5.8 z m 0,-10.6 c -2.6,0 -4.8,2.2 -4.8,4.8 0,2.6 2.2,4.8 4.8,4.8 2.6,0 4.8,-2.2 4.8,-4.8 0,-2.6 -2.2,-4.8 -4.8,-4.8 z"
   class="st0"
   inkscape:connector-curvature="0"
   style="fill:#00a9ce" />
	</g>
</g><g
     id="g16">
	<g
   id="g14">
		<path
   id="path12"
   d="M 19.5,28.4 H 10.6 C 8.9,28.4 7.4,27.5 6.5,26.1 5.6,24.7 5.6,22.9 6.3,21.4 l 2.4,-4.7 c 0.6,-1.1 1.7,-1.8 2.8,-1.8 h 7 c 1.1,0 2.2,0.7 2.8,1.8 l 2.3,4.7 c 0.8,1.5 0.7,3.3 -0.2,4.7 -0.7,1.4 -2.2,2.3 -3.9,2.3 z M 11.6,15.9 c -0.8,0 -1.5,0.5 -2,1.2 l -2.4,4.7 c -0.6,1.2 -0.6,2.6 0.1,3.8 0.7,1.1 1.9,1.8 3.2,1.8 h 8.9 c 1.3,0 2.5,-0.7 3.2,-1.8 0.7,-1.1 0.7,-2.5 0.1,-3.8 l -2.3,-4.7 c -0.4,-0.7 -1.2,-1.2 -2,-1.2 z"
   class="st0"
   inkscape:connector-curvature="0"
   style="fill:#00a9ce" />
	</g>
</g></g>
</svg>