<?xml version="1.0" encoding="utf-8"?>
<!-- Generator: Adobe Illustrator 22.1.0, SVG Export Plug-In . SVG Version: 6.00 Build 0)  -->
<svg version="1.1" id="Layer_1" xmlns="http://www.w3.org/2000/svg" xmlns:xlink="http://www.w3.org/1999/xlink" x="0px" y="0px"
	 viewBox="0 0 145 145" style="enable-background:new 0 0 145 145;" xml:space="preserve">
<style type="text/css">
	.st0{fill:#FFFFFF;}
	.st1{fill:#EABD8D;}
	.st2{fill:#CCCCCC;}
	.st3{fill:#C9905C;}
	.st4{fill:#91633E;}
	.st5{fill:#FEFEFE;}
	.st6{fill:#909090;}
	.st7{fill:#F15B4C;}
	.st8{fill:#F4F4F4;}
	.st9{fill:#A8A8A8;}
	.st10{fill:#4A2808;}
</style>
<path class="st0" d="M72.5,27.3c-25,0-45.2,20.2-45.2,45.2s20.2,45.2,45.2,45.2s45.2-20.2,45.2-45.2S97.5,27.3,72.5,27.3z"/>
<title>3</title>
<polygon class="st1" points="71.5,74.5 41.5,57.2 71.5,39.9 101.5,57.2 "/>
<polygon class="st2" points="83.2,105.5 53.2,88.2 83.2,70.9 113.1,88.2 "/>
<rect x="71.4" y="96.1" class="st2" width="11.7" height="9.4"/>
<polygon class="st3" points="41.5,57.1 71.4,74.4 71.4,105.6 41.5,88.3 "/>
<polygon class="st4" points="71.4,74.5 101.4,57.2 101.4,88.4 71.4,105.7 "/>
<polygon class="st0" points="51.5,92.2 44.7,78.5 53.4,70.4 60.1,84 "/>
<g id="_4QW2Tg.tif">
	<path d="M54.4,81.2C54.4,81.3,54.4,81.3,54.4,81.2c0.2-0.1,0.4-0.1,0.6-0.1c0.2-0.1,0.4-0.2,0.5-0.4c0.1-0.1,0.2-0.2,0.3-0.3
		c0.1-0.1,0.3-0.1,0.5-0.1c0.2,0.1,0.4,0.3,0.4,0.6c0,0.2,0.1,0.4,0.2,0.6c0.1,0.1,0.1,0.3,0.1,0.5c0,0.1,0,0.3,0,0.4
		c0,0.3-0.3,0.5-0.5,0.3c-0.1-0.1-0.2-0.2-0.3-0.3c-0.1-0.2-0.3-0.2-0.5-0.2l-1.5,0.5c0,0-0.1,0-0.1,0.1s0,0.1,0.1,0.1l1.2,1.3
		c0.1,0.1,0.2,0.1,0.3,0.1c0.4-0.1,0.9,0.1,1,0.5c0.2,0.3,0.1,0.6-0.1,0.8c-0.1,0.1-0.2,0.1-0.3,0.1c0,0-0.1,0-0.1,0.1
		s-0.1,0.2-0.1,0.3c-0.1,0.4-0.5,0.6-0.7,0.3c-0.2-0.2-0.3-0.5-0.3-0.8c0-0.3-0.1-0.5-0.3-0.7l-1.2-1.3c0,0-0.1,0-0.1,0
		c-0.2,0.1-0.5,0.2-0.8,0.3c-0.2,0-0.4-0.1-0.5-0.2c-0.3-0.2-0.5-0.5-0.7-0.7c0,0,0,0-0.1,0l-1.3,0.4c-0.2,0.1-0.3,0.3-0.4,0.5
		c0,0.3-0.3,0.6-0.6,0.5c-0.3-0.1-0.5-0.4-0.5-0.7v-0.4c0,0,0-0.1,0-0.1c-0.1-0.1-0.2-0.2-0.3-0.3c-0.2-0.3-0.2-0.6,0-0.9
		c0.3-0.2,0.6-0.2,0.8,0.1l0.2,0.2c0.1,0.1,0.2,0.1,0.3,0.1l1.2-0.4c0,0,0.1,0,0-0.1c0-0.1,0-0.2-0.1-0.3c-0.4-0.4-0.8-0.9-1.2-1.3
		c-0.1-0.2-0.3-0.3-0.5-0.2c-0.1,0-0.2,0.1-0.3,0.1c-0.3,0-0.5-0.3-0.4-0.7c0-0.1,0-0.3,0-0.4c0-0.2,0.1-0.4,0.3-0.5
		c0,0,0.1-0.1,0.1-0.1c0-0.1,0-0.1,0-0.2c0.1-0.4,0.3-0.5,0.6-0.3c0.2,0.1,0.3,0.4,0.4,0.6l0.1,0.2c0.1,0.3,0.2,0.5,0.4,0.7
		c0.1,0.1,0.2,0.2,0.3,0.4c-0.2-0.4-0.2-0.8-0.1-1.2v-0.1c0-0.2,0-0.4,0-0.6c-0.1-0.4-0.2-0.7-0.2-1.1c0-0.3,0-0.6,0.2-0.8
		c0.1-0.1,0.2-0.2,0.3-0.3c0.2-0.2,0.4-0.4,0.7-0.6c0.3-0.3,0.8-0.5,1.3-0.4c0.8,0.1,1.5,0.7,1.8,1.4l0.8,1.5v0.1
		c0.2,0.4,0.3,0.9,0.1,1.3c-0.1,0.3-0.3,0.6-0.5,0.8c0,0.1,0,0.1,0,0.2c0,0.2,0,0.4,0,0.6C54.7,80.7,54.6,81,54.4,81.2z"/>
	<path class="st5" d="M55,78.4c0-0.2-0.1-0.4-0.1-0.6c0,0,0,0,0-0.1c0,0-0.1-0.2-0.1-0.2s-0.1,0.1-0.2,0.1s0,0,0,0.1
		c0,0,0,0.1,0,0.1c0.2,0.3,0.2,0.7,0.1,1c0,0.1,0,0.1-0.1,0.2c-0.1,0.3-0.1,0.6-0.1,0.9c0,0.1,0,0.3,0,0.4c0,0.2-0.1,0.5-0.3,0.6
		c-0.2,0.1-0.4,0.2-0.6,0.3l-0.2,0.1c-0.2,0.1-0.3,0.3-0.2,0.4v0.1c0,0.2-0.1,0.3-0.2,0.4c-0.5,0.2-0.9,0-1.2-0.6
		c-0.1-0.1-0.1-0.2-0.1-0.3v-0.2c0-0.2,0-0.4-0.1-0.5c-0.2-0.3-0.4-0.5-0.6-0.8c-0.3-0.3-0.4-0.7-0.3-1.2c0-0.1,0-0.2,0.1-0.3
		c0.1-0.3,0.1-0.6,0.1-0.8c0-0.2,0-0.4,0-0.6c0-0.2,0.1-0.4,0.2-0.5l0.1-0.1c0.1-0.1,0.1-0.1,0-0.3s-0.1-0.1-0.2-0.1
		c-0.3,0.3-0.5,0.7-0.5,1.1c0,0,0,0.1,0,0.2c-0.1-0.2-0.1-0.5-0.1-0.7c0-0.2,0-0.3,0.1-0.4l0.3-0.3c0.3-0.2,0.5-0.4,0.8-0.7
		c0.3-0.3,0.7-0.4,1-0.3c0.4,0,0.7,0.2,1,0.5c0.3,0.2,0.5,0.5,0.6,0.9l0.7,1.2c0,0.1,0.1,0.2,0.1,0.2C55.1,78,55.1,78.3,55,78.4
		c0,0.2-0.1,0.3-0.1,0.4c0,0,0,0,0-0.1S55,78.5,55,78.4z"/>
	<path class="st5" d="M51.1,80.7c0.1,0.1,0.2,0.2,0.2,0.3c0,0,0,0.1,0,0.2v0.2c0,0.2,0,0.4,0.1,0.6c0.5,0.7,1.1,1,1.7,0.6
		c0.2-0.1,0.2-0.3,0.2-0.4c0-0.3,0.1-0.4,0.3-0.4v0.1c0,0.2,0,0.4,0,0.6c0,0.2-0.1,0.3-0.2,0.5c-0.1,0.2-0.3,0.3-0.5,0.4
		c-0.2,0.1-0.4,0.1-0.6,0.2c-0.1,0-0.2,0-0.2-0.1c-0.4-0.3-0.7-0.6-0.9-1c-0.1-0.1-0.1-0.3-0.2-0.4c0-0.2,0-0.3,0-0.5
		C51.1,81.2,51.1,80.9,51.1,80.7z"/>
	<path class="st5" d="M53.5,83.3L53.5,83.3c0.1-0.1,0.1-0.2,0.2-0.2s0.1,0.1,0.1,0.1l1.2,1.3c0.1,0.1,0.3,0.2,0.4,0.2
		c0.1,0,0.2,0,0.3,0c0.2,0,0.4,0.1,0.5,0.3c0.1,0.2,0.1,0.3,0,0.3h-0.1c0,0,0-0.1,0-0.1c0-0.1,0-0.2-0.1-0.2c-0.1,0-0.1,0-0.2,0.1
		c-0.1,0.3-0.2,0.6-0.2,1c0,0.2-0.2,0.3-0.3,0.2c-0.1-0.1-0.2-0.3-0.2-0.5c0-0.4-0.1-0.7-0.4-1l-1.2-1.3L53.5,83.3z"/>
	<path class="st5" d="M48.4,82.6c-0.1-0.1-0.1-0.1-0.2-0.2c-0.1-0.1-0.1-0.2,0-0.3l0,0c0.1-0.1,0.3-0.1,0.5,0
		c0.1,0.1,0.2,0.2,0.3,0.3c0.1,0.1,0.3,0.2,0.5,0.1l1.3-0.4c0,0,0.1,0,0.1,0.1c0,0,0,0.1,0,0.1c0.1,0.2,0.1,0.2,0,0.2l-1.1,0.3
		c-0.3,0.1-0.6,0.4-0.6,0.8c0,0.2-0.2,0.3-0.4,0.2c-0.1-0.1-0.2-0.2-0.2-0.3l-0.1-1c0-0.2-0.1-0.2-0.1-0.3S48.3,82.3,48.4,82.6
		L48.4,82.6z"/>
	<path class="st5" d="M56.5,81.8c0,0.1,0,0.2,0,0.4c0,0.1-0.1,0.2-0.2,0.1c-0.1-0.1-0.2-0.1-0.2-0.2c-0.2-0.3-0.5-0.4-0.8-0.3
		c-0.5,0.2-0.9,0.3-1.3,0.5h-0.1c0-0.2,0-0.3,0-0.5s0,0,0.1-0.1c0.4-0.1,0.7-0.2,1.1-0.3c0.3-0.1,0.5-0.3,0.6-0.5l0.1-0.2
		c0.1-0.1,0.2-0.2,0.4-0.2c0.1,0,0.2,0.1,0.2,0.2c0,0.1,0,0.3,0,0.4v0.3c0,0.1,0,0.2,0.1,0.3S56.5,82,56.5,81.8z"/>
	<path class="st5" d="M50.8,81.1l-1.2-1.3c-0.3-0.3-0.5-0.4-0.8-0.3c-0.1,0-0.2,0-0.2,0.1c-0.1,0-0.2-0.1-0.2-0.2c0-0.1,0-0.2,0-0.4
		c0,0,0,0.1,0,0.1c0,0.1,0.1,0.1,0.1,0.1s0.1,0,0.1-0.1c0-0.2,0-0.3,0-0.5c0-0.1,0-0.2,0-0.3c0-0.2,0.1-0.2,0.2-0.1
		c0.2,0.1,0.3,0.3,0.3,0.4c0.1,0.2,0.2,0.5,0.3,0.7c0.1,0.1,0.1,0.2,0.2,0.3c0.3,0.3,0.6,0.7,0.9,1c0.1,0.1,0.1,0.1,0.1,0.2
		C50.8,80.8,50.8,81,50.8,81.1z"/>
	<path class="st6" d="M55,78.4c0,0.1,0,0.1,0,0.2v0.1l0,0V78.4z"/>
	<path d="M51.5,78.4l0.4,0.1c0.1,0,0.2,0.1,0.2,0.2c0,0.1,0,0.2,0,0.3c-0.1,0.2-0.3,0.5-0.5,0.6c-0.2,0.1-0.4,0-0.6-0.3
		c-0.1-0.2-0.2-0.5-0.2-0.8c0-0.2,0.1-0.3,0.2-0.3L51.5,78.4z"/>
	<path d="M53.7,79.2l0.4,0.1c0.1,0.1,0.2,0.2,0.2,0.4c0,0.3-0.2,0.5-0.4,0.7c-0.2,0.1-0.5,0-0.6-0.2c0,0,0,0,0,0
		C53.1,80,53,79.7,53,79.4c0-0.2,0-0.3,0.1-0.3c0.1,0,0.1,0,0.2,0L53.7,79.2z"/>
	<path d="M52.7,81.7c-0.1,0-0.1-0.1-0.1-0.1c-0.1-0.1-0.2-0.1-0.2-0.1c-0.1,0.1-0.2,0.1-0.3,0c-0.1-0.1-0.1-0.2-0.1-0.3
		c0-0.1,0-0.1,0.1-0.2c0.1-0.1,0.1-0.2,0.2-0.4c0-0.1,0.1-0.2,0.2-0.3c0.1-0.1,0.3-0.1,0.4,0.2c0.1,0.2,0.1,0.4,0.1,0.5
		c0,0.1,0,0.2,0.1,0.3c0,0.1,0,0.2,0,0.3C52.9,81.7,52.8,81.7,52.7,81.7z"/>
</g>
<path class="st7" d="M72.5,30.3c23.3,0,42.2,18.9,42.2,42.2s-18.9,42.2-42.2,42.2S30.3,95.8,30.3,72.5l0,0
	C30.3,49.2,49.2,30.3,72.5,30.3 M72.5,24.5c-26.5,0-48,21.5-48,48s21.5,48,48,48s48-21.5,48-48S99,24.5,72.5,24.5z"/>
<polygon class="st8" points="59.8,67.7 54.2,64.5 84.1,47.2 89.7,50.4 "/>
<polygon class="st9" points="54.2,64.5 59.8,67.7 59.8,74.1 54.2,70.9 "/>
<polygon class="st9" points="54.2,89.3 59.8,92.5 59.8,98.9 54.2,95.7 "/>
<rect x="25.6" y="69.6" transform="matrix(0.7071 -0.7071 0.7071 0.7071 -30.0491 72.4916)" class="st7" width="93.8" height="5.8"/>
<path class="st10" d="M85.8,93c-0.4,0.3-0.6,0.8-0.6,1.2l1.2-0.7C86.5,93,86.2,92.8,85.8,93z"/>
<path class="st10" d="M85.8,93.6C85.8,93.6,85.8,93.6,85.8,93.6v-3.6c0,0,0-0.1,0-0.1c0,0,0,0,0,0.1v3.5
	C85.9,93.5,85.9,93.5,85.8,93.6z"/>
<path class="st10" d="M85.1,89.2c0,0.9,0.3,1.4,0.7,1.2c0.5-0.6,0.8-1.3,0.7-2.1v-2.1l-1.5,0.9L85.1,89.2z"/>
<path class="st10" d="M88.2,94l-4.8,2.7V86.1l4.8-2.9V94z M83.6,96.3l4.5-2.6V83.6l-4.5,2.8V96.3z"/>
<path class="st10" d="M91.4,84.4c-1,0.8-1.6,2-1.6,3.2l3.1-1.9C93,84.5,92.3,83.9,91.4,84.4z"/>
<path class="st10" d="M91,91.5c-0.3,0.2-0.5-0.2-0.5-0.8c0-0.1,0-0.1,0-0.1s0,0,0,0.1c0,0.5,0.2,0.8,0.4,0.7
	c0.3-0.3,0.4-0.7,0.4-1.1v-6.3c0,0,0-0.1,0-0.1c0,0,0,0,0,0.1v6.3C91.4,90.6,91.3,91.1,91,91.5z"/>
<path class="st10" d="M92.2,83.4v-0.6L92,83.3v0.1c0,0.2,0,0.3,0,0.4S92.1,83.7,92.2,83.4L92.2,83.4z"/>
<path class="st10" d="M92.8,83.1v-0.6l-0.2,0.4V83c-0.1,0.1-0.1,0.3,0,0.4C92.6,83.4,92.7,83.4,92.8,83.1
	C92.8,83.2,92.8,83.1,92.8,83.1z"/>
<path class="st10" d="M92.6,82v-0.6l-0.2,0.4v0.1c-0.1,0.1-0.1,0.3,0,0.4C92.5,82.3,92.6,82.3,92.6,82C92.6,82,92.6,82,92.6,82z"/>
<path class="st10" d="M93.2,81.7V81L93,81.5v0.1c-0.1,0.1-0.1,0.3,0,0.4C93,82,93.1,81.9,93.2,81.7C93.2,81.7,93.2,81.7,93.2,81.7z"
	/>
<path class="st10" d="M93.4,82.8v-0.7l-0.2,0.4v0.1c-0.1,0.1-0.1,0.3,0,0.4C93.2,83,93.3,83,93.4,82.8L93.4,82.8z"/>
<path class="st10" d="M93.8,90.8L89,93.6V82.7l4.8-3V90.8z M89.2,93.2l4.5-2.6V80.1l-4.5,2.8V93.2z"/>
<polygon class="st10" points="96.9,81.6 96.3,82 96.6,80.2 96.6,80.2 "/>
<polygon class="st10" points="96.7,85.8 96.5,85.9 96.5,81.4 96.7,81.3 "/>
<polygon class="st10" points="97.8,81.1 97.2,81.4 97.5,79.6 97.5,79.6 "/>
<polygon class="st10" points="97.6,85.2 97.4,85.4 97.4,80.9 97.6,80.7 "/>
<polygon class="st10" points="96.1,87.3 96.1,86.7 98,85.6 98,86.2 "/>
<path class="st10" d="M99.4,87.6l-4.8,2.7V79.2l4.8-3V87.6z M94.8,89.9l4.5-2.6V76.7l-4.5,2.8V89.9z"/>
</svg>
