<svg id="Layer_1" data-name="Layer 1" xmlns="http://www.w3.org/2000/svg" width="145" height="145" viewBox="0 0 145 145"><defs><style>.cls-1{fill:#eabd8d;}.cls-2{fill:#c9905c;}.cls-3{fill:#532100;opacity:0.2;isolation:isolate;}.cls-4{fill:#935a49;}.cls-5{fill:#f4ca9e;}.cls-6{fill:#fbf69f;}.cls-7{fill:#fbf376;}.cls-8{fill:#fcd836;}.cls-9{fill:#fbc02a;}.cls-10{fill:#faa823;}.cls-11{fill:#fbe068;}.cls-12{fill:#ffcd9c;}.cls-13{fill:#c4925c;}.cls-14{fill:#a5714e;}</style></defs><title>8</title><polygon class="cls-1" points="105.48 63.13 119.15 64.48 86.31 45.51 72.7 44.21 105.48 63.13"/><polygon class="cls-2" points="39.26 63.58 72.8 82.9 72.7 44.16 39.26 63.58"/><polygon class="cls-3" points="72.7 44.71 60.29 83.45 72.7 82.45 72.7 44.71"/><polygon class="cls-4" points="105.48 63.13 72.7 44.16 72.7 82.45 72.1 82.5 105.48 63.13"/><path class="cls-5" d="M72.1,82.75s-.1,0-.1,0L39.21,63.78a.24.24,0,0,1-.1-.3s0,0,.1-.1L72.55,44a.25.25,0,1,1,.3.4h0l-33,19.17L72.2,82.3a.24.24,0,0,1,.1.3.27.27,0,0,1-.2.15Z"/><path class="cls-2" d="M72.1,82.75a.24.24,0,0,1-.25-.25.26.26,0,0,1,.1-.2L104.88,63,72.8,44.51a.23.23,0,0,1,0-.35.24.24,0,0,1,.3-.1l32.49,18.67a.24.24,0,0,1,.1.3s0,0-.1.1L72.25,82.65C72.15,82.75,72.1,82.75,72.1,82.75Z"/><polygon class="cls-1" points="39.66 63.13 25.8 64.48 58.59 45.51 72.2 44.21 39.66 63.13"/><polygon class="cls-6" points="72.78 48.59 65.86 38.99 65.82 39.06 50.31 41.33 72.71 48.66 72.78 48.59"/><polygon class="cls-7" points="72.89 48.44 72.89 24.81 65.86 38.99 72.78 48.59 72.89 48.44"/><polygon class="cls-8" points="61.47 52.46 61.47 52.5 72.56 48.85 72.71 48.66 50.31 41.33 50.08 41.33 61.47 52.46"/><polygon class="cls-7" points="61.47 52.5 58.9 67.53 72.56 48.85 61.47 52.5"/><polygon class="cls-8" points="72.89 60.72 72.89 48.77 72.56 48.85 58.9 67.53 58.79 68.13 72.89 60.72"/><polygon class="cls-9" points="72.89 24.81 72.89 48.44 79.85 38.91 72.89 24.81"/><polygon class="cls-8" points="72.93 48.74 95.63 41.33 79.93 39.06 79.85 38.91 72.89 48.44 72.89 48.74 72.93 48.74"/><polygon class="cls-10" points="84.28 52.46 95.67 41.33 95.63 41.33 72.93 48.74 84.28 52.46"/><polygon class="cls-11" points="72.89 48.77 72.89 60.72 86.77 68.05 72.89 48.74 72.89 48.77"/><polygon class="cls-9" points="84.28 52.46 72.93 48.74 72.89 48.74 86.77 68.05 86.96 68.13 84.28 52.46"/><path class="cls-12" d="M119,64.73h0l-13.46-1.35a.25.25,0,0,1,0-.5h.05L119,64.23c.15,0,.2.15.2.25a.22.22,0,0,1-.2.2h0Z"/><path class="cls-12" d="M26.1,64.58h0l13.41-1.35a.25.25,0,0,0,0-.5h0l-13.41,1.4c-.15,0-.2.15-.2.25a.23.23,0,0,0,.25.2Z"/><path class="cls-13" d="M84,98.22s-.15,0-.15-.1l-.2-.2a.21.21,0,0,1,.3-.3l.1.1,32-18.62a.22.22,0,1,1,.2.4L84.06,98.17A.17.17,0,0,1,84,98.22Z"/><path class="cls-14" d="M83.76,98c-.05,0-.15,0-.15-.1L70.65,83a.21.21,0,0,1,.3-.3h0L83.86,97.57a.23.23,0,0,1,0,.3c0,.1,0,.1-.1.1Z"/><path class="cls-13" d="M58.64,98.12s-.1,0-.1-.05L26.9,79.85a.22.22,0,0,1,.2-.4L58.54,97.57,70.65,82.7A.22.22,0,0,1,71,83h0L58.79,98Q58.72,98.12,58.64,98.12Z"/><polygon class="cls-2" points="71.7 82.5 105.14 63.08 105.03 100.77 71.6 120.19 71.7 82.5"/><polygon class="cls-14" points="71.7 82.5 71.6 120.19 38.81 101.27 38.91 63.58 71.7 82.5"/><polygon class="cls-1" points="85.36 98.22 118.75 78.8 105.03 62.98 71.6 82.4 85.36 98.22"/><polygon class="cls-1" points="59.04 98.12 71.75 82.55 38.96 63.58 26.25 79.2 59.04 98.12"/></svg>