<?xml version="1.0" encoding="utf-8"?>
<!-- Generator: Adobe Illustrator 24.1.3, SVG Export Plug-In . SVG Version: 6.00 Build 0)  -->
<svg version="1.1" id="Layer_1" xmlns="http://www.w3.org/2000/svg" xmlns:xlink="http://www.w3.org/1999/xlink" x="0px" y="0px"
	 viewBox="0 0 182 65" style="enable-background:new 0 0 182 65;" xml:space="preserve">
<style type="text/css">
	.st0{fill:#00A9CE;}
	.st1{fill:#333333;}
	.st2{fill:#008CBC;}
	.st3{opacity:0.3;fill:#FFFFFF;enable-background:new    ;}
	.st4{fill:#8BD1E8;}
</style>
<g>
	<g>
		<path class="st0" d="M67.1,21.1c-0.5,2.7-2,5-4.6,7c-2.3,1.7-5,2.8-7.9,3.3c-0.1,0-0.2,0-0.3,0c-0.3,0-0.8-1-1.5-2.8s-1.1-3-1-3.4
			c0-0.1,0.1-0.2,0.4-0.3c1.4-0.3,2.7-0.6,4-1.1c1.5-0.7,2.4-1.7,2.6-3.1c0.2-0.9-0.1-1.8-0.8-2.9c-1.3-1.8-1.9-2.8-2-3
			c-0.7-1.4-0.9-3-0.6-4.6c0.4-2.4,1.9-4.5,4.5-6.1c2.2-1.4,4.7-2.3,7.2-2.6c0.1,0,0.3,0,0.4,0c0.2,0,0.3,0.2,0.4,0.5
			c0.4,1.8,0.9,3.5,1.5,5.3c0,0.1,0,0.1,0,0.2c0,0.2-0.2,0.4-0.4,0.4c0,0,0,0,0,0c-0.2,0-0.4,0-0.5-0.1c-0.2,0-0.4-0.1-0.6-0.1
			c-0.9,0-1.8,0.2-2.6,0.7c-0.9,0.4-1.5,1.2-1.7,2.1c-0.1,0.8,0.2,1.8,0.9,3c1.3,2.1,2,3.2,2.1,3.4C67.2,18,67.4,19.6,67.1,21.1z"/>
		<path class="st0" d="M91.2,15.8l-2.5,13.8c0,0.4-0.3,0.7-0.7,0.8c-0.4,0.1-1.4,0.1-2.9,0.1c-1,0-2,0-3-0.2
			c-0.4-0.1-0.6-0.4-0.5-0.9c0.2-1.1,0.5-2.9,1-5.2c0.4-2.3,0.8-4,1-5.2c0.3-1.6-0.4-2.3-2-2.3c-0.7,0.1-1.4,0.3-2,0.6
			c-0.9,0.5-1.3,1-1.4,1.5l-0.9,4.9c-0.1,0.6-0.3,1.6-0.5,2.9c-0.2,1.3-0.4,2.3-0.5,2.9c0,0.4-0.3,0.8-0.8,0.8
			c-0.4,0.1-1.6,0.1-3.5,0.1c-0.8,0-1.6,0-2.3-0.2c-0.5-0.1-0.7-0.3-0.6-0.7c0.2-1.1,0.5-2.6,0.9-4.7s0.7-3.7,0.9-4.8
			c0.8-4.4,1.4-8,1.8-10.8c0.1-1,0.3-2,0.4-3c0.1-1,0.2-2,0.2-3c0-0.1,0-0.3,0-0.4c0-0.2,0.2-0.4,0.4-0.4c0.6-0.1,1.2-0.2,1.9-0.2
			c1.1,0,1.7-0.1,1.9-0.1L81,1.7c0.2,0,0.3,0.1,0.2,0.4c-0.1,0.4-0.2,1-0.4,1.7c-0.2,0.9-0.3,1.4-0.4,1.7c-0.6,3-1.1,5.4-1.4,7.1
			c0,0.3,0,0.4,0.1,0.4c0,0,0.4-0.2,1.1-0.7c0.8-0.5,1.6-0.9,2.5-1.3c1-0.4,2.1-0.7,3.2-0.7c1.7,0,3.1,0.4,4,1.3
			C91.1,12.8,91.5,14.1,91.2,15.8z"/>
		<path class="st0" d="M100.9,21.1c-0.2,1-0.4,2.4-0.7,4.3c-0.3,1.9-0.5,3.4-0.7,4.3c-0.1,0.3-0.3,0.5-0.6,0.5
			c-1,0.1-2.1,0.1-3.1,0.1c-1,0-2,0-3.1-0.1c-0.3-0.1-0.4-0.1-0.5-0.3c0-0.2,0-0.4,0.1-0.6c0.2-0.9,0.4-2.3,0.8-4.1s0.6-3.2,0.8-4.2
			c0.6-3,1-6,1.2-9c0-0.1,0-0.3,0-0.4c0-0.3,0.2-0.4,0.6-0.4c0.4,0,0.9,0,1.7,0.1c0.8,0.1,1.3,0.1,1.7,0.1c0.4,0,1,0,1.8-0.1
			c0.8-0.1,1.4-0.1,1.8-0.1c0.3,0,0.5,0.1,0.4,0.4c0,0.1,0,0.2-0.1,0.4C102.1,15,101.4,18,100.9,21.1z M104.1,6.2
			c-0.4,2.3-1.9,3.5-4.5,3.5c-1,0.1-1.9-0.3-2.6-0.9c-0.7-0.6-0.9-1.5-0.7-2.6c0.2-1,0.8-2,1.7-2.6c0.8-0.6,1.9-0.9,2.9-0.9
			c0.9,0,1.9,0.3,2.5,0.9C104,4.3,104.3,5.3,104.1,6.2L104.1,6.2z"/>
		<path class="st0" d="M126.9,20.6c-0.4,2.7-1.8,5.2-3.8,7.1c-2,1.9-4.6,3-7.3,2.9c-1.1,0-2.2-0.3-3.2-0.8c-1.1-0.5-1.6-0.8-1.5-0.8
			c-0.2,0-0.3,0.2-0.4,0.6c-0.1,0.7-0.3,1.7-0.4,3.1c-0.2,1.4-0.3,2.4-0.5,3.1c0,0.4-0.4,0.7-0.8,0.6c0,0,0,0,0,0l-4.1,0
			c-0.6,0-1.2,0-1.8-0.1c-0.3,0-0.5-0.3-0.5-0.6c0,0,0-0.1,0-0.1l2.8-15.4c0.5-2.6,0.7-5.2,0.7-7.9c0-0.1,0-0.2,0-0.4
			c0-0.2,0.1-0.3,0.3-0.4c1-0.3,2-0.5,3.1-0.6c1-0.2,2.1-0.3,3.2-0.4c0.5,0,0.8,0.3,0.7,1c-0.1,0.7,0,1,0.1,1
			c-0.1,0,0.5-0.4,1.9-1.1c1.4-0.7,2.6-1.1,3.7-1.1c2.9,0,5,1,6.4,2.9C127,15.3,127.4,17.7,126.9,20.6z M119.5,20.6
			c0.2-1,0-2-0.5-2.8c-0.5-0.8-1.5-1.3-2.4-1.2c-1.1,0-2.1,0.5-2.8,1.3c-0.7,0.8-1.2,1.8-1.3,2.8c-0.2,1.1-0.1,2.1,0.4,2.8
			c0.5,0.8,1.3,1.2,2.4,1.2C117.6,24.6,119,23.3,119.5,20.6L119.5,20.6z"/>
		<path class="st0" d="M136.8,21.1c-0.2,1-0.4,2.4-0.7,4.3c-0.3,1.9-0.5,3.4-0.7,4.3c-0.1,0.3-0.3,0.5-0.6,0.5
			c-1,0.1-2.1,0.1-3.1,0.1c-1,0-2,0-3.1-0.1c-0.3-0.1-0.4-0.1-0.5-0.3c0-0.2,0-0.4,0.1-0.6c0.2-0.9,0.4-2.3,0.8-4.1
			c0.4-1.8,0.6-3.2,0.8-4.2c0.6-3,1-6,1.2-9c0-0.2,0-0.4,0-0.4c0-0.3,0.2-0.4,0.6-0.4c0.4,0,0.9,0,1.7,0.1c0.8,0.1,1.3,0.1,1.7,0.1
			s1,0,1.8-0.1c0.8-0.1,1.4-0.1,1.8-0.1c0.3,0,0.5,0.1,0.4,0.4c0,0.1,0,0.2-0.1,0.4C138,15,137.3,18,136.8,21.1z M140,6.2
			c-0.4,2.3-1.9,3.5-4.5,3.5c-1,0.1-1.9-0.3-2.6-0.9c-0.7-0.6-0.9-1.5-0.7-2.6c0.2-1,0.8-2,1.7-2.6c0.8-0.6,1.9-0.9,2.9-0.9
			c0.9,0,1.9,0.3,2.5,0.9C139.9,4.3,140.2,5.3,140,6.2L140,6.2z"/>
		<path class="st0" d="M153.5,24.4c-0.1,0.6-0.3,1.2-0.5,1.8c-0.2,0.6-0.3,1.2-0.5,1.8c0,0.3-0.1,0.5-0.2,0.7
			c-0.2,0.2-0.5,0.3-0.7,0.4c-1.9,0.9-3.9,1.4-6,1.4c-3.9,0-5.5-1.5-5-4.4c0.2-0.9,0.4-2.2,0.8-4s0.7-3.1,0.8-3.9
			c0.1-0.6-0.2-0.9-0.9-0.9h-0.3c-0.1,0-0.2,0-0.3,0c-0.5,0-0.7-0.2-0.7-0.5c0-0.2,0.1-0.5,0.2-1c0.1-0.4,0.2-0.8,0.2-1
			c0-0.3,0.1-0.7,0.2-1.3s0.1-1,0.2-1.3c0-0.3,0.5-0.4,1.4-0.4c0.5,0,0.8-0.1,0.9-0.4c0.2-0.8,0.4-1.6,0.5-2.4
			c0.2-1.7,0.4-2.5,0.4-2.5c0.3-1.5,0.6-2.3,0.9-2.3c0.5,0,1,0.1,1.5,0.2c0.5,0.1,1,0.2,1.5,0.3c0.7,0.1,1.7,0.2,3,0.4
			c0.3,0,0.5,0.1,0.4,0.4c-0.1,0.5-0.3,1.3-0.6,2.4c-0.3,1.1-0.5,1.9-0.6,2.4c-0.1,0.7,0,1,0.4,1c0.5,0,1.2,0,2.1-0.1
			c0.9,0,1.7-0.1,2.2-0.1c0.3,0,0.4,0.1,0.4,0.3c-0.1,0.3-0.2,0.8-0.4,1.4c-0.2,0.6-0.3,1.1-0.4,1.4c-0.1,0.3-0.1,0.8-0.2,1.4
			c-0.1,0.6-0.2,1.1-0.2,1.4c0,0.3-0.3,0.4-0.7,0.4c-0.3,0-0.7,0-1.3,0c-0.6,0-1.1,0-1.3,0h-1.5c-0.2,0-0.4,0.3-0.5,0.9l-0.2,1.4
			c-0.1,0.6-0.2,1.1-0.2,1.4c-0.2,1.1-0.2,1.9,0,2.3c0.3,0.6,0.9,0.9,2,0.9c0.5,0,1-0.1,1.5-0.2c0.4-0.1,0.9-0.2,1.4-0.2
			C153.4,24,153.5,24.1,153.5,24.4z"/>
		<path class="st0" d="M175.5,20.4c-0.4,2.9-1.9,5.5-4.1,7.4c-2.2,1.9-5,2.9-7.8,2.8c-2.9,0-5.2-0.9-6.7-2.8
			c-1.6-1.9-2.1-4.3-1.6-7.2c0.5-3.1,1.9-5.6,4-7.5s4.8-2.9,7.9-2.9c3,0,5.3,0.9,6.8,2.8C175.5,14.9,176,17.4,175.5,20.4z M169,20.4
			c0.2-1,0-2-0.5-2.8c-0.5-0.8-1.4-1.3-2.3-1.2c-1.1,0-2.1,0.5-2.8,1.2c-0.8,0.7-1.3,1.7-1.4,2.8c-0.2,1,0,1.9,0.5,2.8
			c0.5,0.8,1.4,1.3,2.4,1.2c1.1,0,2.1-0.5,2.8-1.2C168.3,22.4,168.8,21.5,169,20.4z"/>
		<path class="st0" d="M177,6.6C177,6.6,177,6.6,177,6.6c-0.2,0-0.3,0-0.4,0c-0.1,0-0.2,0-0.3,0h0c0,0,0,0,0,0l-0.1-0.2
			c0-0.1-0.1-0.3-0.2-0.5c0-0.1-0.1-0.1-0.2-0.1h-0.2c0,0,0,0,0,0.1s0,0.2,0,0.4c0,0.1,0,0.3,0,0.4c0,0,0,0,0,0h0h-0.3
			c-0.1,0-0.2,0-0.3,0c0,0-0.1,0-0.1-0.1c0-0.1,0-0.3,0-0.6c0-0.3,0-0.5,0-0.6c0-0.5,0-0.9,0-1.2v0c0,0,0,0,0.1,0c0,0,0.2,0,0.5,0
			h0.5c0.2,0,0.5,0.1,0.7,0.2c0.2,0.1,0.3,0.4,0.3,0.6c0,0.1,0,0.3-0.1,0.4c-0.1,0.1-0.2,0.2-0.3,0.3c0,0,0,0,0,0.1l0.2,0.5
			C176.9,6.2,177,6.4,177,6.6z M176.3,4.9c0-0.1,0-0.2-0.1-0.3c-0.1-0.1-0.2-0.1-0.4-0.1c-0.1,0-0.2,0-0.2,0.1c0,0.1,0,0.2,0,0.4
			c0,0,0,0.1,0,0.1c0,0.1,0,0.1,0,0.1s0,0,0.1,0c0.1,0,0.2,0,0.2,0C176.1,5.2,176.3,5.1,176.3,4.9L176.3,4.9z"/>
		<path class="st0" d="M176,7.9c-1.4,0-2.6-1.2-2.6-2.6s1.2-2.6,2.6-2.6s2.6,1.2,2.6,2.6v0C178.6,6.7,177.4,7.9,176,7.9z M176,3.3
			c-1.1,0-2.1,0.9-2.1,2.1c0,1.1,0.9,2.1,2.1,2.1s2.1-0.9,2.1-2.1c0,0,0,0,0,0C178.1,4.2,177.1,3.3,176,3.3z"/>
	</g>
	<g>
		<path class="st1" d="M82.3,46.3c0,0.2-0.1,0.3-0.1,0.3c0,0.1,0,0.6,0,1.5c0,0.9,0,1.4,0,1.6c0,2.1-0.5,4-1.5,5.7
			c-1.2,2-2.7,3-4.4,3c-1.2,0-2.2-0.5-3.2-1.6c-1.1-1.2-1.7-3.2-1.7-6c0-0.6,0-1.6,0.1-2.9c0.1-1.3,0.1-2.3,0.1-2.9
			c0-0.1,0-0.4,0-0.8c0-0.4,0-0.6,0-0.7c0-0.4,0.2-0.6,0.6-0.6c0.6,0,0.9,0.6,0.9,1.9c0,0.3-0.1,1.3-0.2,2.9
			c-0.1,1.6-0.2,2.8-0.2,3.6c0,1.7,0.3,3.1,0.9,4.1c0.7,1.1,1.5,1.7,2.6,1.7c1.2,0,2.3-0.8,3.3-2.5c0.9-1.6,1.3-3.3,1.3-5.3
			c0-2.3-0.2-4.6-0.7-6.8L80,41.3c0-0.2,0.1-0.3,0.3-0.5c0.1-0.1,0.3-0.2,0.5-0.2c0.4,0,0.7,0.2,0.7,0.6c0,0.1,0.1,0.3,0.2,0.5
			c0.5,2,0.8,3.4,0.8,4.2C82.3,46.1,82.3,46.2,82.3,46.3z"/>
		<path class="st1" d="M92,54.8c-0.1,0.8-0.2,1.8-0.3,3.1c0,0.2-0.1,0.4-0.3,0.4c-0.3,0-0.5-0.1-0.7-0.3c-0.2-0.2-0.3-0.5-0.3-0.7
			c0-0.3,0.1-0.8,0.2-1.5l0.4-3.9c-2.2,1.6-3.7,3.2-4.5,4.8c-0.1,0.3-0.3,0.6-0.4,0.9c-0.2,0.3-0.3,0.5-0.4,0.5
			c-0.5,0-0.8-0.3-0.9-0.8c-0.3-0.8-0.4-1.9-0.4-3.2c0-1.4,0.2-3.3,0.7-5.7c0-0.2,0.1-0.4,0.3-0.4c0.3,0,0.5,0.1,0.7,0.4
			c0.2,0.3,0.3,0.5,0.3,0.8c0,0.2-0.1,0.5-0.2,0.8c-0.4,1.6-0.5,3.3-0.5,5.2c1.8-2.4,3.7-4.1,5.5-5.2c0.3,0,0.5,0.1,0.7,0.3
			c0.2,0.2,0.3,0.5,0.3,0.7C92.2,52,92.1,53.3,92,54.8z"/>
		<path class="st1" d="M96.6,51.8c-0.5,2.2-0.8,3.8-0.8,5c0.3,0.3,0.5,0.7,0.5,1.1c0,0.3-0.2,0.5-0.4,0.5c-0.4,0-0.7-0.3-1-0.9
			c-0.2-0.5-0.3-1-0.3-1.8c0-0.6,0.3-2.5,0.9-5.6c0-0.3-0.1-0.5-0.1-0.5c0-0.2,0.1-0.4,0.3-0.5c0.8,0,1.3,0.5,1.3,1.2
			C96.9,50.7,96.7,51.2,96.6,51.8z M97.5,42.9c-0.9-0.2-1.3-0.6-1.3-1.4c0-0.1,0-0.3,0-0.4c0-0.5,0.4-0.8,1-1.1
			c0.8,0.1,1.1,0.6,1.1,1.6C98.2,42.4,98,42.9,97.5,42.9z"/>
		<path class="st1" d="M108.2,50.2c-0.1,0.1-0.4,0.5-0.9,1.1c-2.1,2.3-3.6,4.4-4.5,6.2c-0.3,0.7-0.6,1-0.9,1c-0.4,0-0.8-0.4-1-1.1
			c-0.4-1.3-0.8-3.1-1.1-5.2c-0.2-1.4-0.3-2.2-0.3-2.4c0-0.2,0.1-0.4,0.2-0.5c0.1-0.1,0.3-0.2,0.5-0.2c0.3,0,0.5,0.2,0.7,0.6
			c0.1,0.5,0.2,1.1,0.3,1.9c0.2,1.4,0.4,2.9,0.7,4.6c1.1-1.8,2.9-4.2,5.4-7c0-0.6,0.3-0.9,0.7-0.9c0.5,0,0.8,0.3,0.8,0.8
			C108.7,49.3,108.5,49.7,108.2,50.2z"/>
		<path class="st1" d="M116.1,58.5c-1.8,0-3.1-0.8-3.9-2.6c-0.2,0-0.4,0.1-0.6,0.1c-0.8,0-1.4-0.1-1.9-0.4c-0.6-0.3-0.9-0.7-0.9-1
			c0-0.5,0.2-0.8,0.7-0.8c0.1,0,0.3,0.1,0.7,0.4c0.4,0.3,0.8,0.4,1.2,0.4c0.1,0,0.3,0,0.4,0c-0.1-0.4-0.1-0.7-0.1-1.1
			c0-1.1,0.3-2.2,0.8-3.2c0.6-1.2,1.4-1.8,2.3-1.8c0.6,0,1.1,0.3,1.7,0.9c0.4,0.5,0.6,1,0.6,1.6c0,0.9-0.4,1.8-1.1,2.7
			c-0.7,0.8-1.5,1.4-2.6,1.9c0.5,1,1.2,1.4,2.2,1.4c0.2,0,0.5,0,1-0.1c0.4,0,0.7-0.1,0.8-0.1c0.2,0,0.3,0.1,0.5,0.3
			c0.1,0.2,0.2,0.3,0.2,0.5C118.2,58.2,117.5,58.5,116.1,58.5z M115.6,50.4c-0.3-0.2-0.5-0.3-0.8-0.3c-0.5,0-0.9,0.4-1.2,1.1
			c-0.3,0.7-0.5,1.4-0.5,2.2c0,0.3,0,0.6,0.1,0.9c0.7-0.3,1.4-0.8,1.9-1.3c0.5-0.5,0.8-1.1,0.8-1.7C116,50.8,115.8,50.6,115.6,50.4z
			"/>
		<path class="st1" d="M126.7,50.4c-0.4,0.2-0.7,0.3-0.9,0.3c0,0-0.2,0-0.5-0.1c-2,0.9-3.2,2.8-3.5,5.8c-0.2,1.5-0.5,2.3-0.8,2.3
			c-0.3,0-0.5-0.2-0.6-0.4c-0.2-0.3-0.3-0.5-0.3-0.8c0-0.2,0.1-0.6,0.3-1.2c0.1-0.7,0.2-1.3,0.2-1.9c0-0.7-0.1-1.3-0.2-2
			c-0.3-0.3-0.4-0.6-0.5-0.9c-0.1-0.6-0.2-1.1-0.2-1.5c0-0.1,0-0.3,0.2-0.5c0.1-0.2,0.2-0.3,0.3-0.3c0.5,0,0.9,0.4,1,1.3
			c0.2,0.9,0.3,1.5,0.4,2c0.6-1,1.3-1.9,2.2-2.6c0.9-0.7,1.8-1,2.7-1c0.2,0,0.5,0.1,0.7,0.3c0.2,0.2,0.3,0.5,0.3,0.7
			C127.5,49.9,127.2,50.2,126.7,50.4z"/>
		<path class="st1" d="M133.2,49.9c-0.1,0-0.3,0-0.6,0c-0.3,0-0.5,0-0.6,0c-0.8,0-1.1,0.3-1.1,1c0,0.2,0.1,0.7,0.4,1.4
			c0.2,0.6,0.4,1.1,0.6,1.7c0.5,1.4,0.7,2.4,0.7,3c0,0.8-0.3,1.3-1,1.7c-0.6,0.3-1.3,0.5-2.1,0.5c-1.4,0-2.1-0.3-2.1-0.8
			c0-0.6,0.2-0.9,0.6-0.9c0.1,0,0.3,0,0.7,0.1c0.4,0.1,0.7,0.1,0.9,0.1c1.1,0,1.7-0.3,1.7-1.1c0-0.3-0.3-1.4-1-3.3
			c-0.2-0.4-0.3-0.8-0.5-1.3c-0.2-0.4-0.2-0.8-0.2-1.3c0-1,0.5-1.7,1.6-2.1c0.1-0.4,0.6-0.6,1.2-0.6c0.3,0,0.6,0.1,1,0.2
			c0.2,0.1,0.4,0.3,0.5,0.7c0,0.1,0.1,0.3,0.1,0.5C133.8,49.7,133.6,49.9,133.2,49.9z"/>
		<path class="st1" d="M137.7,51.8c-0.5,2.2-0.8,3.8-0.8,5c0.3,0.3,0.5,0.7,0.5,1.1c0,0.3-0.2,0.5-0.4,0.5c-0.4,0-0.7-0.3-1-0.9
			c-0.2-0.5-0.3-1-0.3-1.8c0-0.6,0.3-2.5,0.9-5.6c0-0.3-0.1-0.5-0.1-0.5c0-0.2,0.1-0.4,0.3-0.5c0.9,0,1.3,0.5,1.3,1.2
			C138,50.7,137.9,51.2,137.7,51.8z M138.6,42.9c-0.9-0.2-1.3-0.6-1.3-1.4c0-0.1,0-0.3,0-0.4c0-0.5,0.4-0.8,1-1.1
			c0.8,0.1,1.1,0.6,1.1,1.6C139.4,42.4,139.1,42.9,138.6,42.9z"/>
		<path class="st1" d="M147.6,50.6h-0.3c-0.2,0-0.4-0.1-0.5-0.3c-0.2,0-0.7,0-1.4,0c-0.8,0-1.2,0-1.4,0c-0.5,2.3-0.8,3.5-0.8,3.7
			c-0.3,1.4-0.4,2.6-0.4,3.7c0.2,0.2,0.3,0.4,0.3,0.7c0,0.2-0.1,0.3-0.3,0.5c-0.2,0.1-0.3,0.2-0.5,0.2c-0.6,0-0.9-0.6-0.9-1.7
			c0-0.7,0.1-1.8,0.4-3.3l0.7-3.7c-0.7,0-1.1-0.3-1.1-0.8c0-0.5,0.5-0.7,1.4-0.7c0.3-1.4,0.8-3.4,1.6-6c0.1-0.4,0.3-0.6,0.6-0.6
			c0.5,0,0.8,0.3,0.8,0.8c0,0.1,0,0.3-0.1,0.5c-0.1,0.3-0.3,0.9-0.5,1.7c-0.4,1.4-0.7,2.6-0.9,3.6c0.1,0,0.4,0,0.9,0
			c0.6,0,0.9,0,1.1,0c1.1,0,1.7,0.3,1.7,1C148.1,50,147.9,50.2,147.6,50.6z"/>
		<path class="st1" d="M154.1,61.2c-1.4,1.2-3.2,1.8-5.4,1.8c-1.3,0-1.9-0.3-1.9-1c0-0.4,0.2-0.7,0.6-0.7c0.6,0.1,1,0.1,1.2,0.1
			c3.6,0,5.7-1.7,6.3-5c0.1-0.8,0.2-1.9,0.2-3.3c-0.4,0.9-0.9,1.6-1.5,2.3c-0.8,0.8-1.5,1.2-2.2,1.2c-0.6,0-1.1-0.2-1.5-0.7
			c-0.4-0.4-0.6-1-0.6-1.7c0-0.5,0-1.3,0.2-2.3c0.1-1.1,0.2-1.8,0.2-2.3c0-0.2,0-0.4-0.1-0.7c-0.1-0.3-0.1-0.5-0.1-0.5
			c0-0.4,0.2-0.6,0.7-0.6c0.3,0,0.5,0.2,0.7,0.6c0.1,0.4,0.2,0.8,0.2,1.4s-0.1,1.3-0.2,2.4c-0.1,1.1-0.2,1.8-0.2,2.3
			c0,0.2,0.1,0.4,0.2,0.5c0.1,0.1,0.3,0.2,0.5,0.2c0.6,0,1.1-0.4,1.8-1.2c0.6-0.8,1.2-1.7,1.7-3c0.2-0.6,0.5-0.9,0.9-0.9
			c0.5,0,0.8,0.7,0.8,2V54C156.6,57.4,155.7,59.8,154.1,61.2z"/>
	</g>
</g>
<g>
	<polygon class="st0" points="22.7,36.4 36.4,28.7 36.1,44 22.4,51.7 	"/>
	<polygon class="st2" points="22.7,36.4 22.4,51.7 9.1,43.8 9.4,28.4 	"/>
	<polyline class="st3" points="14.3,31.3 14.3,31.3 14.3,31.3 14,46.7 16.3,48.1 16.6,32.7 	"/>
	<polyline class="st3" points="29.1,32.7 28.9,48 31.3,46.7 31.5,31.4 31.5,31.4 31.5,31.4 	"/>
	<rect x="3.9" y="25.1" class="st0" width="1" height="11.3"/>
	<circle class="st0" cx="4.4" cy="30.9" r="0.9"/>
	<polygon class="st0" points="5.9,40.6 2.8,40.6 3.9,33.9 4.9,33.9 	"/>
	<polygon class="st4" points="1.6,25.4 23.4,13.2 44.4,25.7 22.6,38 	"/>
</g>
</svg>
