<?xml version="1.0" encoding="utf-8"?>
<!-- Generator: Adobe Illustrator 24.1.3, SVG Export Plug-In . SVG Version: 6.00 Build 0)  -->
<svg version="1.1" id="Layer_1" xmlns="http://www.w3.org/2000/svg" xmlns:xlink="http://www.w3.org/1999/xlink" x="0px" y="0px"
	 viewBox="0 0 1102.2 173.2" style="enable-background:new 0 0 1102.2 173.2;" xml:space="preserve">
<style type="text/css">
	.st0{fill:#D7D8DB;}
	.st1{fill:#3F3B39;}
	.st2{fill:#F6F6F6;}
	.st3{fill:#888888;}
	.st4{fill:#ACD7F2;}
	.st5{fill:#FFFFFF;}
	.st6{fill:#EDEEEE;}
	.st7{fill:#DCDCDC;}
	.st8{fill:#2EA7E0;}
	.st9{fill:#00AAD0;}
	.st10{fill:#929090;}
	.st11{fill:#78CDE7;stroke:#156081;stroke-width:0.5;stroke-linecap:round;stroke-linejoin:round;stroke-miterlimit:10;}
	.st12{fill:#A7003D;}
	.st13{fill:#D60051;}
	.st14{fill:#BF2345;}
	.st15{fill:#252221;}
	.st16{fill:#595757;}
	.st17{fill:#9E9EA0;}
	.st18{fill:#C8C8C9;}
	.st19{fill:#F29600;}
	.st20{fill:#F7B52D;}
	.st21{fill:#EA5515;}
	.st22{fill:#045993;}
	.st23{fill:#066EB7;}
	.st24{fill:#0462A4;}
	.st25{fill:#CED8D8;}
	.st26{fill:#ABCDDD;}
	.st27{fill:#E6E3DE;}
	.st28{fill:#1A1D22;}
	.st29{fill:#BA6336;}
	.st30{fill:#93432C;}
	.st31{fill:#E2A472;}
	.st32{fill:#3D7795;}
	.st33{fill:#CA895C;}
	.st34{fill:#A25E36;}
	.st35{fill:#88472D;}
	.st36{fill:#683325;}
	.st37{fill:#8A4A28;}
	.st38{fill:#7C8884;}
	.st39{fill:#934C36;}
	.st40{fill:#E5AB60;}
	.st41{fill:#BB753D;}
	.st42{fill:#CAD1D9;}
	.st43{opacity:0.6;fill:#DBA98E;enable-background:new    ;}
	.st44{fill:#708895;}
	.st45{fill:#20284D;}
	.st46{enable-background:new    ;}
	.st47{fill:#7F7F7E;}
	.st48{fill:#758190;}
	.st49{fill:#F2B136;}
	.st50{fill:#E3912F;}
	.st51{fill:#363D48;}
	.st52{fill:#4F566B;}
	.st53{fill:#78CDE7;}
	.st54{fill:#FCCF8E;}
	.st55{fill:#D8874F;}
	.st56{fill:#843B2F;}
	.st57{fill:#9A3933;}
	.st58{fill:#0497AF;}
	.st59{fill:#98B3C5;}
	.st60{fill:#CCCCCC;}
	.st61{fill:#5B5567;}
	.st62{fill:#A6A6A6;}
	.st63{opacity:0.65;fill:#C8C7CE;enable-background:new    ;}
	.st64{fill:#B9C3CE;}
	.st65{fill:#E6E7E8;}
	.st66{fill:#BEC7DD;}
	.st67{fill:#C3CAD1;}
	.st68{fill:#D8E2E5;}
	.st69{fill:#C2CCDB;}
	.st70{fill:#B1BFC3;}
	.st71{fill:#F1F2F2;}
	.st72{fill-rule:evenodd;clip-rule:evenodd;fill:#ABABAB;}
	.st73{fill-rule:evenodd;clip-rule:evenodd;fill:#780000;}
	.st74{fill-rule:evenodd;clip-rule:evenodd;fill:#D19161;}
	.st75{fill-rule:evenodd;clip-rule:evenodd;fill:#2B2B2B;}
	.st76{fill-rule:evenodd;clip-rule:evenodd;fill:#787878;}
	.st77{fill-rule:evenodd;clip-rule:evenodd;fill:#618CC7;}
	.st78{fill-rule:evenodd;clip-rule:evenodd;fill:#406BA3;}
	.st79{fill-rule:evenodd;clip-rule:evenodd;fill:#4D4D4D;}
	.st80{fill-rule:evenodd;clip-rule:evenodd;fill:#CCCCCC;}
	.st81{fill-rule:evenodd;clip-rule:evenodd;fill:#990000;}
	.st82{fill-rule:evenodd;clip-rule:evenodd;fill:#F5B382;}
	.st83{fill-rule:evenodd;clip-rule:evenodd;fill:#999999;}
	.st84{fill-rule:evenodd;clip-rule:evenodd;fill:#A6BDDE;}
	.st85{fill-rule:evenodd;clip-rule:evenodd;fill:#FFFFFF;}
	.st86{fill-rule:evenodd;clip-rule:evenodd;fill:#57331A;}
	.st87{fill-rule:evenodd;clip-rule:evenodd;fill:#E3A370;}
	.st88{fill-rule:evenodd;clip-rule:evenodd;}
	.st89{fill:#990000;}
	.st90{fill-rule:evenodd;clip-rule:evenodd;fill:#F7C7A1;}
	.st91{fill:#E6CC80;}
	.st92{fill:#C2AB5C;}
	.st93{opacity:0.5;fill:#FFFFFF;enable-background:new    ;}
	.st94{fill-rule:evenodd;clip-rule:evenodd;fill:#9CB5D6;}
	.st95{fill:#373A47;}
	.st96{fill:#9D0E0D;}
	.st97{fill:#E2342B;}
	.st98{fill:#E7E4E5;}
	.st99{fill:#FFD8B5;}
	.st100{opacity:0.49;fill:#FFFFFF;}
	.st101{opacity:0.58;fill:#FFFFFF;}
	.st102{fill:url(#SVGID_1_);}
	.st103{fill:#333745;}
	.st104{fill:#242530;}
	.st105{fill:url(#SVGID_2_);}
</style>
<g>
	<path class="st0" d="M1027.7,161.9l-4.8-4.8H894.3c-14.2,0-25.7-11.5-25.7-25.7V131c0-19.6-15.9-35.5-35.5-35.5H79.8
		c-14.2,0-25.7-11.5-25.7-25.7v-0.4c0-19.6-15.9-35.5-35.5-35.5h-5.2c-2.6,0-4.9,1.9-5.1,4.5c-0.3,2.9,2,5.3,4.9,5.3h5.5
		c14.2,0,25.7,11.5,25.7,25.7v0.4c0,19.6,15.9,35.5,35.5,35.5h753.2c14.2,0,25.7,11.5,25.7,25.7v0.4c0,19.6,15.9,35.5,35.5,35.5
		h128.4L1027.7,161.9z"/>
</g>
<g>
	<path class="st1" d="M140.5,95.9h-30.1c-0.4,0-0.6-0.2-0.6-0.6V37.9c0-0.4,0.2-0.6,0.6-0.6h30.1c0.4,0,0.6,0.2,0.6,0.6v57.5
		C141.1,95.7,140.8,95.9,140.5,95.9z"/>
	<rect x="111.5" y="44.3" class="st2" width="27.9" height="43.7"/>
	<g>
		<path class="st3" d="M128.3,41.6h-5.8c-0.2,0-0.4-0.2-0.4-0.4c0-0.2,0.2-0.4,0.4-0.4h5.8c0.2,0,0.4,0.2,0.4,0.4
			C128.8,41.4,128.5,41.6,128.3,41.6z"/>
		<path class="st3" d="M121.2,41.2c0-0.3-0.2-0.5-0.5-0.5s-0.5,0.2-0.5,0.5s0.2,0.5,0.5,0.5C121,41.7,121.2,41.5,121.2,41.2z"/>
	</g>
	<g>
		<path class="st4" d="M113.3,55.7v14.4c0,0.5,0.4,0.8,0.8,0.8h22.5c0.5,0,0.8-0.4,0.8-0.8V55.7H113.3z"/>
		<g>
			<path class="st2" d="M120.5,61c0.8-0.5,4.7-2.2,4.8-2.2c0.6-0.5,2.1-1.2,2.4-1.4c0.3-0.1,0.4,0.4,0.5,0.5
				c0.1,0.2,1.6,1.3,0.4,2.1c-1.2,0.8-8.8,2.8-9.1,2.3C119.2,61.6,120,61.3,120.5,61z"/>
			<g>
				<path class="st1" d="M127.7,58.4c-0.1-0.2-0.2-0.6-0.3-0.9c-0.6,0.2-1.6,0.8-2.1,1.2c0,0-0.1,0.1-0.3,0.1
					c0.2,0.4,0.4,0.7,0.5,0.8C125.8,59.8,127.7,58.8,127.7,58.4z"/>
			</g>
			<path class="st5" d="M116.1,66.4c-0.5,0-0.6-0.9-0.5-1.2c-0.2-2.9,2.3-3.5,3.9-3.2c0.3-0.1,5.9-2.8,7-3.2
				c1.4-0.5,2.5,1.8,3.7,1.9c1.3,0.1,3-0.7,3.1-1.2c0.2-0.6,0.6-1.5,1.2-0.6c0.6,0.9,1.1,5.1,0.6,6.3c0.1,0.2,0.1,1.2-0.1,1.2
				c-3.1,0-9.7,0-12.9,0C120.4,66.4,116.7,66.4,116.1,66.4z"/>
			<g>
				<path class="st1" d="M132.2,61.2c0.4,0,1.1-0.1,1.5-0.3c0.4,0.4,0.8,0.5,1.4,0.5c-0.2-1.1-0.4-2.1-0.6-2.5c-0.6-0.9-1,0-1.2,0.6
					c-0.1,0.4-1.2,0.9-2.2,1.1C131.2,61.2,131.4,61.2,132.2,61.2z"/>
				<path class="st6" d="M127.9,59.1c-0.5-0.4-0.9-0.6-1.5-0.4c-1.1,0.4-6.7,3.1-7,3.2c-0.1,0.1-0.2,0.6-0.2,1.2
					C120,62.9,125.7,60.1,127.9,59.1z"/>
				<path class="st5" d="M119.2,65.2h15.9c0.3-0.7,0.2-2.3,0.1-3.8c-0.6,0-1.1-0.1-1.4-0.5c-0.4,0.2-1.1,0.3-1.5,0.3
					c-0.8,0-0.9,0-1.1-0.6c-0.3,0.1-0.6,0.1-0.9,0.1c-0.7,0-1.5-0.9-2.2-1.5c-2.2,1-7.9,3.7-8.7,4C119.2,63.7,119.1,64.4,119.2,65.2
					z"/>
				<path class="st2" d="M119.3,63.1C119.2,63.1,119.2,63.1,119.3,63.1C119.2,63.1,119.2,63.1,119.3,63.1c0.1-0.6,0.2-1.1,0.2-1.2
					c-1.6-0.3-4.1,0.3-3.9,3.2h3.6C119.1,64.4,119.2,63.7,119.3,63.1z"/>
				<path class="st7" d="M135.1,65.2h-15.9h-3.6c-0.1,0.3,0,1.2,0.5,1.2c0.4,0,1.8,0,3.3,0c1,0,2.1,0,2.8,0c3.2,0,9.7,0,12.9,0
					C135.2,66.4,135.2,65.4,135.1,65.2z"/>
			</g>
			<path class="st5" d="M120.1,62.4c-0.1-0.1-0.2-0.2-0.1-0.2l0,0l0.4-1.2c0-0.1,0.1-0.1,0.1-0.1l0,0c0.1,0,0.1,0,0.2,0l0,0l0.8,0.5
				l0.4-1.1c0.1-0.1,0.2-0.2,0.3-0.1l0,0l1.1,0.4l0.5-1.1c0.1-0.1,0.2-0.2,0.3-0.1l0,0l0.9,0.4l0.3-0.9c0-0.1,0.1-0.1,0.1-0.1l0,0
				c0.1,0,0.1-0.1,0.2,0l0,0l1.3,0.4c0.1,0.1,0.2,0.2,0.1,0.2l0,0c-0.1,0.1-0.2,0.2-0.2,0.1l0,0l-1.1-0.4l-0.3,0.9
				c0,0.1-0.1,0.1-0.1,0.1l0,0c-0.1,0-0.1,0-0.2,0l0,0l-0.9-0.4l-0.5,1.1c-0.1,0.1-0.2,0.2-0.2,0.1l0,0l-1-0.4l-0.5,1.1
				c0,0.1-0.1,0.1-0.1,0.1l0,0c-0.1,0-0.1,0-0.2,0l0,0l-0.8-0.4l-0.3,0.9l0,0C120.3,62.4,120.3,62.4,120.1,62.4L120.1,62.4
				C120.1,62.4,120.1,62.4,120.1,62.4L120.1,62.4z"/>
			<g>
				<path class="st1" d="M122.4,61.7l1.3,3.5h1.2l-1.5-3.9C123.1,61.4,122.7,61.6,122.4,61.7z"/>
				<path class="st1" d="M124.4,60.7l1.7,4.4h1.2l-1.8-4.9C125.1,60.4,124.7,60.6,124.4,60.7z"/>
			</g>
		</g>
		<path class="st8" d="M136.7,54.4h-22.5c-0.5,0-0.8,0.4-0.8,0.8v0.8h24.2v-0.8C137.5,54.7,137.1,54.4,136.7,54.4z"/>
	</g>
	<rect x="117.3" y="78.1" class="st9" width="15.5" height="6.7"/>
	<g>
		<path class="st5" d="M122.1,79.9c0.6,0,0.9,0.3,0.9,0.7c0,0.4-0.2,0.6-0.5,0.6c0.4,0.1,0.6,0.4,0.6,0.7c0,0.5-0.4,0.8-1.1,0.8
			h-1.2v-2.9L122.1,79.9L122.1,79.9z M121.2,81.2h0.9c0.4,0,0.6-0.2,0.6-0.5s-0.2-0.5-0.6-0.5h-0.9V81.2z M121.2,82.5h0.9
			c0.5,0,0.8-0.2,0.8-0.5c0-0.3-0.3-0.5-0.8-0.5h-0.9V82.5z"/>
		<path class="st5" d="M126.2,81.6c0,0.8-0.5,1.2-1.2,1.2s-1.2-0.5-1.2-1.2v-1.7h0.4v1.7c0,0.6,0.4,0.9,0.9,0.9
			c0.5,0,0.9-0.4,0.9-0.9v-1.7h0.4V81.6z"/>
		<path class="st5" d="M128,82.8h-0.4v-1l-1.1-1.9h0.4l0.9,1.5l0.9-1.5h0.4l-1.1,1.9L128,82.8L128,82.8z"/>
	</g>
	<g>
		<path class="st10" d="M94.9,78H8.4c-0.6,0-1.1-0.5-1.1-1.1V14.4c0-0.6,0.5-1.1,1.1-1.1h86.5c0.6,0,1.1,0.5,1.1,1.1v62.4
			C96,77.4,95.6,78,94.9,78z"/>
		<path class="st6" d="M0.1,75.8h103.2v5.5c0,0.2-0.2,0.5-0.5,0.5H0.5c-0.2,0-0.5-0.2-0.5-0.5L0.1,75.8L0.1,75.8z"/>
		<g>
			<path class="st10" d="M0.1,80.1c0,0.9,0.8,1.7,1.8,1.7h99.6c1,0,1.8-0.7,1.8-1.7v-0.4H0.1V80.1z"/>
		</g>
		<rect x="11.7" y="17.7" class="st11" width="80" height="53.3"/>
		<rect x="20.7" y="23.8" class="st5" width="25.6" height="27.4"/>
		<rect x="48.6" y="23.8" class="st5" width="16.7" height="18.2"/>
		<rect x="48.6" y="44.1" class="st5" width="16.7" height="18.3"/>
		<rect x="67.5" y="23.8" class="st5" width="16.7" height="18.2"/>
		<rect x="67.5" y="44.1" class="st5" width="16.7" height="18.3"/>
		<g>
			<g>
				<path class="st12" d="M51,36.2l-0.2,0.8c-0.1,0.5,0,0.7,0.5,0.8c0.2,0.1,0.8,0.2,0.8-0.1l0.2-1.2L51,36.2z"/>
			</g>
			<g>
				<path class="st12" d="M63,36.2l0.2,0.8c0.1,0.5,0,0.7-0.5,0.8c-0.2,0.1-0.8,0.2-0.8-0.1l-0.2-1.2L63,36.2z"/>
			</g>
			<path class="st12" d="M60.4,30.3c-0.1-0.5-0.3-1.1-0.6-1.3c-0.8-0.6-1.9-0.7-2.7-0.7c-0.9,0-2,0.1-2.7,0.7
				c-0.2,0.2-0.5,0.8-0.6,1.3c-0.6,3.1-0.5,9-0.5,9c0,0.2,0.2,0.5,0.4,0.5h6.7c0.2,0,0.4-0.2,0.4-0.5C60.8,39.2,61,33.3,60.4,30.3z"
				/>
			<g>
				<path class="st13" d="M63.1,36.2L61.8,30c-0.2-1.1-0.8-2.7-1.6-2.8c-0.5-0.1-0.6,0.8-0.5,1.4l1.8,8.5c0.1,0.3,0.7,0.2,1,0.1
					C63.1,37.1,63.3,36.8,63.1,36.2z"/>
				<path class="st13" d="M53.7,27.2c-0.7,0.2-1.4,1.7-1.6,2.8l-1.4,6.2c-0.1,0.6,0,0.9,0.6,1c0.3,0.1,0.9,0.2,1-0.1l1.8-8.5
					C54.3,27.9,54.2,27.1,53.7,27.2z"/>
			</g>
			<path class="st14" d="M60.6,28.4c-0.1-0.5-0.4-1.2-0.6-1.4c-0.8-0.6-2-0.8-3-0.8c-0.9,0-2.2,0.2-3,0.8c-0.3,0.2-0.5,0.8-0.6,1.4
				c-0.7,3.4-0.5,9.7-0.5,9.7c0,0.3,0.2,0.5,0.5,0.5h7.3c0.2,0,0.5-0.2,0.5-0.5C61.1,38.2,61.3,31.8,60.6,28.4z"/>
			<g>
				<g>
					<path class="st13" d="M58.5,35.9h-2.9c-0.1,0-0.2-0.1-0.2-0.2s0.1-0.2,0.2-0.2h2.9c0.1,0,0.2,0.1,0.2,0.2
						C58.7,35.9,58.6,35.9,58.5,35.9z"/>
				</g>
				<path class="st13" d="M59.5,31.2c-0.2-0.4-0.8-0.1-1.4,0.8c-0.2,0.4-0.4,0.8-0.5,1.2c0.1-0.4,0.1-0.9,0.1-1.3
					c0-1.4-0.3-2.2-0.6-2.2s-0.6,0.8-0.6,2.2c0,0.4,0.1,0.9,0.1,1.3c-0.1-0.4-0.3-0.9-0.5-1.2c-0.6-0.9-1.2-1.2-1.4-0.8
					c-0.2,0.4-0.1,1.3,0.5,2.2s1.7,1.3,1.9,1.3s1.4-0.3,1.9-1.2C59.6,32.5,59.8,31.6,59.5,31.2z"/>
			</g>
			<g>
				<path class="st12" d="M57,28.1c0.8,0,1.4-0.6,1.5-1.7c-0.5-0.1-1.1-0.2-1.5-0.2c-0.5,0-1,0.1-1.5,0.2
					C55.6,27.4,56.2,28.1,57,28.1z"/>
			</g>
			<g>
				<path class="st13" d="M57,28.4c-1,0-1.7-0.8-1.7-1.9c0-0.2,0.1-0.3,0.3-0.3c0.2,0,0.3,0.1,0.3,0.3c0,0.8,0.5,1.3,1.2,1.3
					s1.2-0.5,1.2-1.3c0-0.2,0.1-0.3,0.3-0.3c0.2,0,0.3,0.1,0.3,0.3C58.8,27.6,58.1,28.4,57,28.4z"/>
			</g>
		</g>
		<g>
			<rect x="29.9" y="43.7" class="st15" width="6.6" height="4.2"/>
			<g>
				<path class="st16" d="M43,42.5l0.3,1.3c0.2,0.8,0,1.1-0.8,1.3c-0.4,0.1-1.2,0.2-1.3-0.1l-0.4-1.9L43,42.5z"/>
			</g>
			<g>
				<path class="st16" d="M24.1,42.5l-0.3,1.3c-0.2,0.8,0,1.1,0.8,1.3c0.4,0.1,1.2,0.2,1.3-0.1l0.4-1.9L24.1,42.5z"/>
			</g>
			<g>
				<path class="st1" d="M23.8,42.5l2.1-9.5c0.4-1.7,1.4-4,2.5-4.2c0.8-0.2,0.9,1.2,0.7,2.2l-2.8,13c-0.1,0.5-1.1,0.3-1.6,0.2
					C23.8,43.8,23.5,43.4,23.8,42.5z"/>
				<path class="st1" d="M38.7,28.6c1.2,0.2,2.2,2.6,2.5,4.2l2.1,9.5c0.2,1,0,1.4-0.9,1.6c-0.5,0.1-1.5,0.3-1.6-0.2l-2.9-13
					C37.8,29.8,37.9,28.5,38.7,28.6z"/>
			</g>
			<path class="st15" d="M27.7,30.6c0.2-0.8,0.5-1.8,1-2.1c1.3-1,3.2-1.2,4.8-1.2c1.5,0,3.5,0.2,4.8,1.2c0.5,0.4,0.8,1.3,1,2.1
				c1,5.2,0.7,15,0.7,15c0,0.4-0.4,0.8-0.8,0.8H27.6c-0.4,0-0.8-0.4-0.8-0.8C26.9,45.5,26.6,35.8,27.7,30.6z"/>
			<g>
				<path class="st1" d="M34.8,45.5h4.6c0,1,0,1.7,0,1.7c0,0.4-0.4,0.7-0.7,0.7h-3.9V45.5z"/>
				<path class="st1" d="M32,45.5v2.4h-3.9c-0.4,0-0.7-0.4-0.7-0.7c0,0,0-0.6,0-1.7H32z"/>
			</g>
			<g>
				<path class="st15" d="M33.4,30c-1.3,0-2.2-1-2.5-2.5c0.8-0.2,1.7-0.2,2.5-0.2s1.7,0.1,2.5,0.2C35.7,29,34.7,30,33.4,30z"/>
			</g>
			<g>
				<path class="st16" d="M34.4,27.3L34.4,27.3L34.4,27.3C34.5,27.3,34.4,27.3,34.4,27.3z"/>
				<path class="st16" d="M35.7,27.4c-0.2-0.1-0.5-0.1-0.7-0.1C35.2,27.4,35.4,27.4,35.7,27.4z"/>
				<path class="st16" d="M35.9,27.5c0.8,0.2,1.7,0.5,2.3,0.9c0.5,0.4,0.8,1.3,1,2.1c1.1,5.2,0.8,15,0.8,15c0,0.4-0.4,0.8-0.8,0.8
					h-4.8V29.8C35.2,29.4,35.7,28.6,35.9,27.5z"/>
			</g>
			<g>
				<g>
					<g>
						<path class="st1" d="M34.2,30.1c0.1,0,0.2,0,0.3,0c0.6-0.2,2.1-0.8,2.2-2.5c0-0.1-0.1-0.2-0.5-0.2c-0.4-0.1-0.5-0.2-0.6,0
							c-0.2,1.1-0.7,1.4-1.5,1.7c-0.3,0.1-0.3,0.4-0.2,0.6C34,29.9,34,30.1,34.2,30.1z"/>
					</g>
				</g>
				<g>
					<path class="st16" d="M34.8,30.1c-0.1,0-0.1,0-0.1-0.1l-0.5-1c0-0.1,0-0.1,0.1-0.1c0.1,0,0.1,0,0.2,0.1l0.5,1
						C35,30,35,30,34.8,30.1C34.9,30.1,34.8,30.1,34.8,30.1z"/>
				</g>
				<g>
					<path class="st16" d="M35.7,29.6C35.6,29.6,35.6,29.6,35.7,29.6l-0.8-0.9c-0.1-0.1-0.1-0.1,0-0.2c0.1-0.1,0.1-0.1,0.2,0
						l0.8,0.8c0.1,0.1,0.1,0.1,0,0.2C35.7,29.6,35.7,29.6,35.7,29.6z"/>
				</g>
				<g>
					<path class="st16" d="M36.3,28.9L36.3,28.9l-1-0.6c-0.1-0.1-0.1-0.1-0.1-0.2c0.1-0.1,0.1-0.1,0.2-0.1l0.9,0.6
						c0.1,0.1,0.1,0.1,0.1,0.2C36.4,28.9,36.3,28.9,36.3,28.9z"/>
				</g>
				<g>
					<path class="st16" d="M36.7,28.1L36.7,28.1l-1.1-0.3c-0.1,0-0.1-0.1-0.1-0.1c0-0.1,0.1-0.1,0.1-0.1l1.1,0.3
						c0.1,0,0.1,0.1,0.1,0.1C36.8,28.1,36.7,28.1,36.7,28.1z"/>
				</g>
			</g>
			<g>
				<path class="st16" d="M32.5,27.3L32.5,27.3L32.5,27.3C32.4,27.3,32.4,27.3,32.5,27.3z"/>
				<path class="st16" d="M31.2,27.4c0.2-0.1,0.5-0.1,0.7-0.1C31.7,27.4,31.5,27.4,31.2,27.4z"/>
				<path class="st16" d="M30.9,27.5c-0.8,0.2-1.7,0.5-2.3,0.9c-0.5,0.4-0.8,1.3-1,2.1c-1.1,5.2-0.8,15-0.8,15
					c0,0.4,0.4,0.8,0.8,0.8h4.8V29.8C31.7,29.4,31.1,28.6,30.9,27.5z"/>
			</g>
			<g>
				<g>
					<g>
						<path class="st1" d="M32.7,30.1c-0.1,0-0.2,0-0.3,0c-0.6-0.2-2.1-0.8-2.2-2.5c0-0.1,0.1-0.2,0.5-0.2c0.4-0.1,0.5-0.2,0.6,0
							c0.2,1.1,0.7,1.4,1.5,1.7c0.3,0.1,0.3,0.4,0.2,0.6C32.8,29.9,32.8,30.1,32.7,30.1z"/>
					</g>
				</g>
				<g>
					<path class="st16" d="M32,30.1L32,30.1c-0.1-0.1-0.1-0.1-0.1-0.2l0.5-1c0-0.1,0.1-0.1,0.2-0.1s0.1,0.1,0.1,0.1l-0.5,1
						C32.1,30,32.1,30.1,32,30.1z"/>
				</g>
				<g>
					<path class="st16" d="M31.2,29.6C31.2,29.6,31.1,29.6,31.2,29.6c-0.1-0.1-0.1-0.2-0.1-0.2l0.8-0.8c0.1-0.1,0.1-0.1,0.2,0
						c0.1,0.1,0.1,0.1,0,0.2l-0.8,0.8C31.2,29.6,31.2,29.6,31.2,29.6z"/>
				</g>
				<g>
					<path class="st16" d="M30.6,28.9c-0.1,0-0.1,0-0.1-0.1c-0.1-0.1,0-0.1,0.1-0.2l0.9-0.6c0.1-0.1,0.1,0,0.2,0.1
						c0.1,0.1,0,0.1-0.1,0.2L30.6,28.9C30.6,28.9,30.6,28.9,30.6,28.9z"/>
				</g>
				<g>
					<path class="st16" d="M30.2,28.1c-0.1,0-0.1-0.1-0.1-0.1c0-0.1,0-0.1,0.1-0.1l1.1-0.3c0.1,0,0.1,0,0.1,0.1s0,0.1-0.1,0.1
						L30.2,28.1C30.2,28.1,30.2,28.1,30.2,28.1z"/>
				</g>
			</g>
			<path class="st1" d="M36.8,45.1c-0.4-0.6-0.6-2-0.5-4.2c0.7-0.1,1.1-0.2,2.8-0.4c0.3,2.4,0.4,3.9-0.1,4.6H36.8z"/>
			<path class="st1" d="M30.1,45.1c0.4-0.6,0.6-2,0.5-4.2c-0.7-0.1-1.1-0.2-2.8-0.4c-0.3,2.4-0.4,3.9,0.1,4.6H30.1z"/>
			<g>
				<path class="st15" d="M38,32.8c0,0.6-0.5,1.1-1.1,1.1c-0.6,0-1.1-0.5-1.1-1.1s0.5-1.1,1.1-1.1C37.5,31.7,38,32.2,38,32.8z"/>
				<path class="st1" d="M37.8,32.8c0,0.5-0.4,0.9-0.9,0.9c-0.5,0-0.9-0.4-0.9-0.9c0-0.5,0.4-0.9,0.9-0.9S37.8,32.3,37.8,32.8z"/>
				<polygon class="st16" points="36.9,32 37.1,32.5 37.7,32.6 37.3,32.9 37.4,33.4 36.9,33.2 36.4,33.4 36.5,32.9 36.1,32.6 
					36.7,32.5 				"/>
			</g>
		</g>
		<g>
			<g>
				<path class="st1" d="M51.3,56.4l-0.2,0.8c-0.1,0.5,0,0.7,0.5,0.8c0.2,0.1,0.7,0.2,0.8-0.1l0.2-1.2L51.3,56.4z"/>
			</g>
			<g>
				<path class="st1" d="M62.6,56.4l0.2,0.8c0.1,0.5,0,0.7-0.5,0.8c-0.2,0.1-0.7,0.2-0.8-0.1l-0.2-1.2L62.6,56.4z"/>
			</g>
			<path class="st17" d="M60.2,50.7c-0.1-0.5-0.3-1-0.5-1.2c-0.7-0.5-1.8-0.7-2.6-0.7c-0.8,0-1.9,0.1-2.6,0.7
				c-0.2,0.2-0.4,0.8-0.5,1.2c-0.6,2.9-0.4,8.5-0.4,8.5c0,0.2,0.2,0.5,0.4,0.5h6.3c0.2,0,0.4-0.2,0.4-0.5
				C60.6,59.3,60.8,53.7,60.2,50.7z"/>
			<g>
				<path class="st16" d="M62.8,56.3l-1.2-5.9c-0.2-1.1-0.8-2.5-1.5-2.7c-0.5-0.1-0.6,0.7-0.4,1.4l1.7,8.1c0.1,0.3,0.6,0.2,0.9,0.1
					C62.8,57.2,62.9,57,62.8,56.3z"/>
				<path class="st16" d="M53.9,47.8c-0.7,0.1-1.3,1.6-1.5,2.7l-1.2,5.9c-0.1,0.6,0,0.8,0.5,1c0.3,0.1,0.9,0.2,0.9-0.1l1.7-8.1
					C54.5,48.5,54.3,47.7,53.9,47.8z"/>
			</g>
			<path class="st6" d="M60.4,49c-0.1-0.5-0.3-1.1-0.6-1.3c-0.8-0.6-1.9-0.8-2.8-0.8s-2.1,0.1-2.8,0.8c-0.3,0.2-0.5,0.8-0.6,1.3
				c-0.6,3.2-0.5,9.3-0.5,9.3c0,0.3,0.2,0.5,0.5,0.5h6.8c0.2,0,0.4-0.2,0.5-0.5C60.9,58.3,61.1,52.2,60.4,49z"/>
			<g>
				<path class="st17" d="M57,48.7c0.8,0,1.4-0.6,1.5-1.6C58,47,57.5,47,57,47c-0.5,0-0.9,0.1-1.5,0.1C55.7,48,56.2,48.7,57,48.7z"
					/>
			</g>
			<g>
				<path class="st18" d="M57,48.9c-0.9,0-1.7-0.7-1.7-1.8c0-0.2,0.1-0.3,0.3-0.3c0.2,0,0.3,0.1,0.3,0.3c0,0.8,0.4,1.2,1.1,1.2
					c0.6,0,1.1-0.5,1.1-1.2c0-0.2,0.1-0.3,0.3-0.3c0.2,0,0.3,0.1,0.3,0.3C58.7,48.2,58,48.9,57,48.9z"/>
			</g>
			<g>
				<g>
					<path class="st18" d="M57.6,50.3v1.4h0.4v0.7h-0.4v0.2h0.2v0.8h-1.3v-0.8h0.3v-0.2h-1.2v-0.6l1.1-1.5H57.6z M56.8,51.4
						l-0.2,0.3h0.2V51.4z"/>
				</g>
				<g>
					<path class="st18" d="M56.3,54.3v0.4l-0.1,0.1l0.1,0.1v0.4L56,55.5h-0.9v-0.4h0.1v-0.7h-0.1V54h0.9L56.3,54.3z M55.8,54.4h-0.2
						v0.1h0.2V54.4z M55.8,55h-0.2v0.2h0.2V55z"/>
					<path class="st18" d="M57.7,54.3v0.9l-0.2,0.2h-0.6l-0.2-0.2v-1l0.2-0.2h0.6L57.7,54.3z M57.2,54.4H57v0.7h0.2V54.4z"/>
					<path class="st18" d="M59.1,54.1v0.4H59L58.7,55v0.2h0.1v0.4h-0.6v-0.4h0.1V55L58,54.4h-0.1V54h0.6v0.4h-0.1l0.1,0.2l0.1-0.2
						h-0.1V54L59.1,54.1L59.1,54.1z"/>
				</g>
				<g>
					<path class="st1" d="M56.3,54.3v0.4l-0.1,0.1l0.1,0.1v0.4L56,55.5h-0.9v-0.4h0.1v-0.7h-0.1V54h0.9L56.3,54.3z M56.1,54.4
						l-0.2-0.2h-0.7v0.1h0.1v0.9h-0.1v0.1h0.7l0.2-0.2v-0.3l-0.1-0.1l0.1-0.1L56.1,54.4L56.1,54.4z M55.9,54.3L55.9,54.3l0.1,0.3
						l-0.1,0.1h-0.4v-0.4L55.9,54.3L55.9,54.3z M55.9,54.9L55.9,54.9l0.1,0.3l-0.1,0.1h-0.4v-0.4H55.9z M55.8,54.4h-0.2v0.1h0.2
						V54.4z M55.8,55h-0.2v0.2h0.2V55z"/>
					<path class="st1" d="M57.7,54.3v0.9l-0.2,0.2h-0.6l-0.2-0.2v-1l0.2-0.2h0.6L57.7,54.3z M57.5,54.4l-0.2-0.2h-0.4l-0.2,0.2v0.8
						l0.2,0.2h0.5l0.2-0.2L57.5,54.4L57.5,54.4z M57.4,54.4v0.8l-0.1,0.1H57l-0.1-0.1v-0.8l0.1-0.1L57.4,54.4L57.4,54.4z M57.2,54.4
						H57v0.7h0.2V54.4z"/>
					<path class="st1" d="M59.1,54.1v0.4H59L58.7,55v0.2h0.1v0.4h-0.6v-0.4h0.1V55L58,54.4h-0.1V54h0.6v0.4h-0.1l0.1,0.2l0.1-0.2
						h-0.1V54L59.1,54.1L59.1,54.1z M59,54.2h-0.4v0.1h0.1l-0.2,0.5l-0.2-0.5h0.1v-0.1h-0.4v0.1H58l0.4,0.6v0.4h-0.1v0.1h0.4v-0.1
						h-0.1V55l0.4-0.6h0.1L59,54.2L59,54.2z"/>
				</g>
				<g>
					<path class="st1" d="M57.6,50.3v1.4h0.4v0.7h-0.4v0.2h0.2v0.8h-1.3v-0.8h0.3v-0.2h-1.2v-0.6l1.1-1.5H57.6z M57.3,50.6h-0.6
						l-0.9,1.3v0.4h1.2v0.6h-0.2v0.3h0.8v-0.3h-0.2v-0.6h0.4V52h-0.4V50.6z M56.9,50.8v1.1h-0.9L56.9,50.8L56.9,50.8z M56.8,51.4
						l-0.2,0.3h0.2V51.4z"/>
				</g>
			</g>
		</g>
		<g>
			<g>
				<path class="st19" d="M81.5,36.1l0.2,0.8c0.1,0.5,0,0.6-0.5,0.8c-0.2,0.1-0.7,0.2-0.8-0.1l-0.2-1.2L81.5,36.1z"/>
			</g>
			<g>
				<path class="st19" d="M70.2,36.1L70,36.9c-0.1,0.5,0,0.6,0.5,0.8c0.2,0.1,0.7,0.2,0.8-0.1l0.2-1.2L70.2,36.1z"/>
			</g>
			<path class="st19" d="M72.7,30.4c0.1-0.5,0.3-1,0.5-1.2c0.7-0.5,1.8-0.7,2.6-0.7c0.8,0,1.9,0.1,2.6,0.7c0.2,0.2,0.4,0.7,0.5,1.2
				c0.6,2.9,0.4,8.5,0.4,8.5c0,0.2-0.2,0.5-0.4,0.5h-6.2c-0.2,0-0.4-0.2-0.4-0.5C72.2,38.9,72.1,33.3,72.7,30.4z"/>
			<g>
				<path class="st20" d="M70,36l1.2-5.9c0.2-1.1,0.8-2.5,1.5-2.7c0.5-0.1,0.5,0.7,0.4,1.4l-1.7,8c-0.1,0.3-0.6,0.2-0.9,0.1
					C70.1,36.8,69.9,36.6,70,36z"/>
				<path class="st20" d="M78.9,27.4c0.7,0.1,1.3,1.6,1.5,2.7l1.2,5.9c0.1,0.6,0,0.8-0.5,0.9c-0.3,0.1-0.9,0.2-0.9-0.1l-1.7-8
					C78.3,28.2,78.4,27.3,78.9,27.4z"/>
			</g>
			<path class="st6" d="M72.4,28.7c0.1-0.5,0.3-1.1,0.6-1.3c0.8-0.6,1.9-0.8,2.8-0.8c0.9,0,2.1,0.1,2.8,0.8c0.3,0.2,0.5,0.8,0.6,1.3
				c0.6,3.2,0.5,9.2,0.5,9.2c0,0.3-0.2,0.5-0.5,0.5h-6.8c-0.2,0-0.4-0.2-0.5-0.5C71.9,37.9,71.7,31.9,72.4,28.7z"/>
			<g>
				<path class="st19" d="M75.8,28.3c-0.8,0-1.4-0.6-1.5-1.6c0.5-0.1,1-0.1,1.5-0.1c0.5,0,0.9,0.1,1.5,0.1
					C77.1,27.7,76.6,28.3,75.8,28.3z"/>
			</g>
			<g>
				<path class="st20" d="M75.8,28.6c0.9,0,1.7-0.7,1.7-1.8c0-0.2-0.1-0.3-0.3-0.3s-0.3,0.1-0.3,0.3c0,0.8-0.4,1.2-1.1,1.2
					c-0.6,0-1.1-0.5-1.1-1.2c0-0.2-0.1-0.3-0.3-0.3c-0.2,0-0.2,0.1-0.2,0.2C74.2,27.9,74.8,28.6,75.8,28.6z"/>
			</g>
			<path class="st21" d="M77.4,31.7L77.4,31.7c0.2-0.1,0.3-0.1,0.4-0.2c0.1-0.1,0.1-0.2,0.1-0.4s0-0.2-0.1-0.2
				c-0.1-0.1-0.1-0.1-0.2-0.2c-0.1-0.1-0.2-0.1-0.2-0.1c-0.1,0-0.2,0-0.4,0h-0.5h-0.6h-0.1L75.5,32l0,0l-0.6-1.4h-0.7L73.7,33h0.7
				l0.3-1.4l0,0l0.6,1.4h0.1H76h0.9c0.3,0,0.5-0.1,0.7-0.2c0.2-0.2,0.2-0.4,0.2-0.5C77.8,31.9,77.7,31.8,77.4,31.7z M76.6,32.5h-0.4
				l0.1-0.5h0.4c0.1,0,0.2,0,0.2,0.1c0.1,0.1,0.1,0.1,0.1,0.2C77.1,32.3,76.9,32.5,76.6,32.5z M77.1,31.4C77,31.5,77,31.5,77,31.5
				c-0.1,0-0.1,0-0.2,0h-0.2l0.1-0.5h0.3c0.1,0,0.2,0,0.2,0.1c0.1,0.1,0.1,0.1,0.1,0.1C77.2,31.3,77.2,31.3,77.1,31.4z"/>
			<g>
				<path class="st21" d="M77.5,34.1h-3.4c-0.1,0-0.2-0.1-0.2-0.2c0-0.1,0.1-0.2,0.2-0.2h3.4c0.1,0,0.2,0.1,0.2,0.2
					C77.7,34,77.6,34.1,77.5,34.1z"/>
			</g>
		</g>
		<g>
			<rect x="74" y="57.2" class="st22" width="4.1" height="2.7"/>
			<g>
				<path class="st23" d="M69.9,56.5l-0.2,0.8c-0.1,0.5,0,0.7,0.5,0.8c0.2,0.1,0.8,0.2,0.8-0.1l0.2-1.2L69.9,56.5z"/>
			</g>
			<g>
				<path class="st23" d="M81.8,56.5l0.2,0.8c0.1,0.5,0,0.7-0.5,0.8c-0.2,0.1-0.8,0.2-0.8-0.1l-0.2-1.2L81.8,56.5z"/>
			</g>
			<g>
				<path class="st24" d="M81.9,56.4l-1.3-6.2c-0.2-1.1-0.8-2.6-1.5-2.8c-0.5-0.1-0.6,0.8-0.5,1.4l1.8,8.4c0.1,0.3,0.7,0.2,1,0.1
					C81.9,57.3,82.1,57.1,81.9,56.4z"/>
				<path class="st24" d="M72.6,47.5c-0.7,0.2-1.4,1.7-1.5,2.8l-1.3,6.2c-0.1,0.6,0,0.9,0.6,1c0.3,0.1,0.9,0.2,1-0.1l1.8-8.4
					C73.2,48.3,73.2,47.4,72.6,47.5z"/>
			</g>
			<path class="st22" d="M79.5,48.8c-0.1-0.5-0.4-1.2-0.6-1.4c-0.8-0.6-2-0.8-2.9-0.8s-2.1,0.2-2.9,0.8c-0.3,0.2-0.5,0.8-0.6,1.4
				c-0.6,3.4-0.5,9.7-0.5,9.7c0,0.3,0.2,0.5,0.5,0.5h7.2c0.2,0,0.5-0.2,0.5-0.5C80,58.5,80.2,52.1,79.5,48.8z"/>
			<g>
				<path class="st24" d="M75,58.5h-2.9c0,0.6,0,1.1,0,1.1c0,0.2,0.2,0.5,0.4,0.5H75L75,58.5L75,58.5z"/>
				<path class="st24" d="M76.8,58.5V60h2.4c0.2,0,0.4-0.2,0.4-0.5c0,0,0-0.4,0-1.1C79.6,58.5,76.8,58.5,76.8,58.5z"/>
			</g>
			<g>
				<path class="st22" d="M75.9,48.4c0.8,0,1.4-0.6,1.5-1.7c-0.5-0.1-1.1-0.2-1.5-0.2c-0.5,0-1,0.1-1.5,0.2
					C74.5,47.8,75.1,48.4,75.9,48.4z"/>
			</g>
			<g>
				<path class="st23" d="M75.3,46.6L75.3,46.6L75.3,46.6L75.3,46.6z"/>
				<path class="st23" d="M74.5,46.7c0.1,0,0.3-0.1,0.4-0.1C74.8,46.7,74.7,46.7,74.5,46.7z"/>
				<path class="st23" d="M74.4,46.8c-0.5,0.1-1,0.3-1.4,0.6c-0.3,0.2-0.5,0.8-0.6,1.4c-0.6,3.4-0.5,9.7-0.5,9.7
					c0,0.3,0.2,0.5,0.5,0.5h2.9V48.3C74.8,48,74.5,47.5,74.4,46.8z"/>
			</g>
			<g>
				<g>
					<path class="st24" d="M75.4,48.5c-0.1,0-0.1,0-0.2,0c-0.4-0.1-1.3-0.5-1.4-1.6c0-0.1,0.1-0.1,0.3-0.2c0.2-0.1,0.4-0.1,0.4,0
						c0.1,0.6,0.5,0.9,0.9,1.1c0.2,0.1,0.2,0.2,0.1,0.4C75.6,48.3,75.6,48.4,75.4,48.5z"/>
				</g>
				<path class="st23" d="M74.9,48.6c-0.1-0.1-0.2-0.2-0.2-0.4l0,0l0.3-0.6c0.1-0.1,0.2-0.2,0.4-0.1l0,0c0.1,0.1,0.2,0.2,0.1,0.4
					l0,0l-0.3,0.6C75.2,48.6,75,48.7,74.9,48.6L74.9,48.6C75,48.7,75,48.7,74.9,48.6L74.9,48.6z"/>
				<path class="st23" d="M74.3,48.3c-0.1-0.1-0.1-0.3,0-0.4l0,0l0.5-0.5c0.1-0.1,0.3-0.1,0.4,0l0,0c0.1,0.1,0.1,0.3,0,0.4l0,0
					l-0.5,0.5c-0.1,0.1-0.1,0.1-0.2,0.1l0,0C74.5,48.4,74.4,48.3,74.3,48.3L74.3,48.3z"/>
				<path class="st23" d="M73.9,47.8c-0.1-0.1-0.1-0.3,0.1-0.4l0,0l0.6-0.4c0.1-0.1,0.3-0.1,0.4,0.1l0,0c0.1,0.1,0.1,0.3-0.1,0.4
					l0,0l-0.6,0.4c-0.1,0.1-0.1,0.1-0.2,0.1l0,0C74,47.9,74,47.8,73.9,47.8L73.9,47.8z"/>
				<path class="st23" d="M73.6,47.2c-0.1-0.2,0.1-0.3,0.2-0.4l0,0l0.7-0.2c0.2-0.1,0.3,0.1,0.4,0.2l0,0c0.1,0.2-0.1,0.3-0.2,0.4
					l0,0L74,47.4h-0.1l0,0C73.8,47.4,73.7,47.3,73.6,47.2L73.6,47.2z"/>
			</g>
			<g>
				<path class="st23" d="M76.5,46.6L76.5,46.6C76.5,46.6,76.6,46.6,76.5,46.6C76.6,46.6,76.5,46.6,76.5,46.6z"/>
				<path class="st23" d="M77.3,46.7c-0.1,0-0.3-0.1-0.4-0.1C77,46.7,77.2,46.7,77.3,46.7z"/>
				<path class="st23" d="M77.5,46.8c0.5,0.1,1,0.3,1.4,0.6c0.3,0.2,0.5,0.8,0.6,1.4c0.6,3.4,0.5,9.7,0.5,9.7c0,0.3-0.2,0.5-0.5,0.5
					h-2.9V48.3C77,48,77.3,47.5,77.5,46.8z"/>
			</g>
			<g>
				<g>
					<path class="st24" d="M76.4,48.5c0.1,0,0.1,0,0.2,0c0.4-0.1,1.3-0.5,1.4-1.6c0-0.1-0.1-0.1-0.3-0.2s-0.4-0.1-0.4,0
						c-0.1,0.6-0.5,0.9-0.9,1.1c-0.2,0.1-0.2,0.2-0.1,0.4C76.3,48.3,76.3,48.4,76.4,48.5z"/>
				</g>
				<path class="st23" d="M76.5,48.5l-0.3-0.6c-0.1-0.1,0-0.3,0.2-0.4l0,0c0.1-0.1,0.3,0,0.4,0.2l0,0l0.3,0.6c0.1,0.1,0,0.3-0.2,0.4
					l0,0c-0.1,0-0.1,0-0.1,0l0,0C76.7,48.7,76.6,48.6,76.5,48.5L76.5,48.5z"/>
				<path class="st23" d="M77.1,48.3l-0.5-0.5c-0.1-0.1-0.1-0.3,0-0.4l0,0c0.1-0.1,0.3-0.1,0.4,0l0,0l0.5,0.5c0.1,0.1,0.1,0.3,0,0.4
					l0,0c-0.1,0.1-0.1,0.1-0.2,0.1l0,0C77.2,48.4,77.2,48.3,77.1,48.3L77.1,48.3z"/>
				<path class="st23" d="M77.5,47.8l-0.6-0.4c-0.1-0.1-0.2-0.2-0.1-0.4l0,0c0.1-0.1,0.3-0.2,0.4-0.1l0,0l0.6,0.4
					c0.1,0.1,0.2,0.2,0.1,0.4l0,0c-0.1,0.1-0.1,0.1-0.2,0.1l0,0C77.6,47.9,77.6,47.9,77.5,47.8L77.5,47.8z"/>
				<path class="st23" d="M77.8,47.4l-0.7-0.2c-0.2-0.1-0.2-0.2-0.2-0.4l0,0c0.1-0.2,0.2-0.2,0.4-0.2l0,0l0.7,0.2
					c0.2,0.1,0.2,0.2,0.2,0.4l0,0C78.1,47.3,78,47.4,77.8,47.4L77.8,47.4C77.9,47.4,77.9,47.4,77.8,47.4L77.8,47.4z"/>
			</g>
			<path class="st24" d="M73.9,58.2c0.2-0.4,0.4-1.3,0.4-2.7c-0.4,0-0.7-0.1-1.8-0.3c-0.2,1.5-0.2,2.5,0.1,3H73.9z"/>
			<path class="st24" d="M78,58.2c-0.2-0.4-0.4-1.3-0.4-2.7c0.4,0,0.7-0.1,1.8-0.3c0.2,1.5,0.2,2.5-0.1,3H78z"/>
			<g>
				<g>
					<path class="st5" d="M73.7,49.1c-0.4,0-0.8,0.3-0.8,0.6c0,0.4,0.4,0.6,0.8,0.6c0.4,0,0.8-0.3,0.8-0.6
						C74.5,49.4,74.2,49.1,73.7,49.1z M73.9,50.1v-0.8c0.2,0,0.5,0.2,0.5,0.4C74.3,50,74.1,50.1,73.9,50.1z"/>
					<path class="st22" d="M73.7,49.4v0.8c-0.2,0-0.5-0.2-0.5-0.4C73.2,49.6,73.4,49.4,73.7,49.4z"/>
				</g>
				<g>
					<path class="st22" d="M74.3,50.9h-1c-0.1,0-0.1-0.1-0.1-0.1c0-0.1,0.1-0.1,0.1-0.1h1C74.3,50.8,74.3,50.8,74.3,50.9
						C74.3,50.8,74.3,50.9,74.3,50.9z"/>
				</g>
			</g>
		</g>
		<rect x="20.6" y="53.7" class="st9" width="25.8" height="9.1"/>
		<g>
			<path class="st5" d="M29.2,56.7c0.8,0,1.3,0.4,1.3,1c0,0.5-0.2,0.8-0.7,0.9c0.6,0.1,0.9,0.5,0.9,1c0,0.6-0.5,1.1-1.4,1.1h-1.7
				v-3.9H29.2z M28,58.4h1.2c0.5,0,0.8-0.2,0.8-0.6s-0.3-0.6-0.8-0.6H28V58.4z M28,60.2h1.2c0.6,0,1-0.2,1-0.7c0-0.4-0.4-0.7-1-0.7
				H28V60.2z"/>
			<path class="st5" d="M34.8,59c0,1-0.6,1.7-1.7,1.7c-1.1,0-1.7-0.6-1.7-1.7v-2.3h0.5V59c0,0.8,0.5,1.2,1.2,1.2s1.2-0.5,1.2-1.2
				v-2.3h0.5L34.8,59L34.8,59z"/>
			<path class="st5" d="M37.3,60.6h-0.5v-1.4l-1.5-2.6h0.5l1.3,2.1l1.2-2.1h0.5l-1.5,2.6V60.6z"/>
		</g>
		<path class="st10" d="M60.1,78.7H43.2c-0.1,0-0.1-0.1-0.1-0.1v-0.7c0-0.1,0.1-0.1,0.1-0.1h16.9c0.1,0,0.1,0.1,0.1,0.1v0.7
			C60.2,78.7,60.1,78.7,60.1,78.7z"/>
	</g>
	<circle class="st3" cx="125.6" cy="92.2" r="1.9"/>
</g>
<g>
	<g>
		<rect x="233.2" y="14.4" class="st25" width="44.4" height="39.8"/>
		<polygon class="st26" points="217.4,26.8 267.8,14.4 267.8,54.2 217.4,54.2 		"/>
		<polygon class="st26" points="192.9,26.8 233.2,14.4 233.2,54.2 192.9,54.2 		"/>
		<rect x="267.8" y="14.4" class="st27" width="44.4" height="39.8"/>
		<g>
			<rect x="195.6" y="29.9" class="st25" width="8.3" height="18.9"/>
			<rect x="196.2" y="30.6" class="st28" width="7" height="17.4"/>
			<rect x="195.9" y="33.6" class="st25" width="7.7" height="0.7"/>
			<rect x="195.9" y="37.2" class="st25" width="7.7" height="0.7"/>
			<rect x="195.9" y="40.9" class="st25" width="7.7" height="0.7"/>
			<rect x="195.9" y="44.5" class="st25" width="7.7" height="0.7"/>
			<rect x="199.3" y="30.2" class="st25" width="0.7" height="18.3"/>
		</g>
		<g>
			<rect x="209.1" y="29.9" class="st25" width="8.3" height="18.9"/>
			<rect x="209.8" y="30.6" class="st28" width="7" height="17.4"/>
			<rect x="209.5" y="33.6" class="st25" width="7.7" height="0.7"/>
			<rect x="209.5" y="37.2" class="st25" width="7.7" height="0.7"/>
			<rect x="209.5" y="40.9" class="st25" width="7.7" height="0.7"/>
			<rect x="209.5" y="44.5" class="st25" width="7.7" height="0.7"/>
			<rect x="212.9" y="30.2" class="st25" width="0.7" height="18.3"/>
		</g>
		<g>
			<rect x="222.7" y="29.9" class="st25" width="8.3" height="18.9"/>
			<rect x="223.4" y="30.6" class="st28" width="7" height="17.4"/>
			<rect x="223.1" y="33.6" class="st25" width="7.7" height="0.7"/>
			<rect x="223.1" y="37.2" class="st25" width="7.7" height="0.7"/>
			<rect x="223.1" y="40.9" class="st25" width="7.7" height="0.7"/>
			<rect x="223.1" y="44.5" class="st25" width="7.7" height="0.7"/>
			<rect x="226.5" y="30.2" class="st25" width="0.7" height="18.3"/>
		</g>
		<g>
			<rect x="236.3" y="29.9" class="st25" width="8.3" height="18.9"/>
			<rect x="237" y="30.6" class="st28" width="7" height="17.4"/>
			<rect x="236.6" y="33.6" class="st25" width="7.7" height="0.7"/>
			<rect x="236.6" y="37.2" class="st25" width="7.7" height="0.7"/>
			<rect x="236.6" y="40.9" class="st25" width="7.7" height="0.7"/>
			<rect x="236.6" y="44.5" class="st25" width="7.7" height="0.7"/>
			<rect x="240.1" y="30.2" class="st25" width="0.7" height="18.3"/>
		</g>
		<g>
			<rect x="249.9" y="29.9" class="st25" width="8.3" height="18.9"/>
			<rect x="250.6" y="30.6" class="st28" width="7" height="17.4"/>
			<rect x="250.2" y="33.6" class="st25" width="7.7" height="0.7"/>
			<rect x="250.2" y="37.2" class="st25" width="7.7" height="0.7"/>
			<rect x="250.2" y="40.9" class="st25" width="7.7" height="0.7"/>
			<rect x="250.2" y="44.5" class="st25" width="7.7" height="0.7"/>
			<rect x="253.7" y="30.2" class="st25" width="0.7" height="18.3"/>
		</g>
		<rect x="233.2" y="12.1" class="st29" width="34.7" height="2.3"/>
		<polygon class="st30" points="267.8,12.1 233.2,20.6 233.2,22.9 267.8,14.4 		"/>
		<polygon class="st30" points="233.3,12.1 192.9,24.5 192.9,26.8 233.3,14.4 		"/>
		<rect x="267.9" y="12.1" class="st31" width="44.3" height="2.3"/>
		<g>
			<rect x="271.1" y="29.8" class="st5" width="7" height="4.6"/>
			<rect x="271.7" y="30.4" class="st32" width="5.7" height="3.3"/>
		</g>
		<g>
			<rect x="281.3" y="29.8" class="st5" width="7" height="4.6"/>
			<rect x="282" y="30.4" class="st32" width="5.7" height="3.3"/>
		</g>
		<g>
			<rect x="291.6" y="29.8" class="st5" width="7" height="4.6"/>
			<rect x="292.3" y="30.4" class="st32" width="5.7" height="3.3"/>
		</g>
		<g>
			<rect x="301.9" y="29.8" class="st5" width="7" height="4.6"/>
			<rect x="302.5" y="30.4" class="st32" width="5.7" height="3.3"/>
		</g>
		<g>
			<rect x="271.1" y="35.2" class="st33" width="17.2" height="18.9"/>
			<rect x="271.8" y="36.3" class="st28" width="15.9" height="17.8"/>
			<rect x="271.8" y="36" class="st5" width="15.9" height="2.6"/>
		</g>
		<g>
			<rect x="291.6" y="35.2" class="st33" width="17.2" height="18.9"/>
			<rect x="292.3" y="36.3" class="st28" width="15.9" height="17.8"/>
			<rect x="292.3" y="36" class="st5" width="15.9" height="2.6"/>
		</g>
		<rect x="187.3" y="48.4" class="st26" width="5.7" height="5.7"/>
		<rect x="187.3" y="34.1" class="st26" width="5.7" height="15"/>
		<g>
			<polygon class="st34" points="274.6,44.5 274.6,46.8 272.7,46.8 272.7,54.1 286.2,54.1 286.2,44.5 			"/>
			<polygon class="st35" points="274.6,44.5 274.6,46.8 271.9,46.8 271.9,54.1 280.3,54.1 280.3,44.5 			"/>
			<g>
				<g>
					<rect x="274.5" y="44.5" class="st36" width="0.3" height="9.7"/>
				</g>
				<g>
					<rect x="277.5" y="44.5" class="st36" width="0.3" height="9.7"/>
				</g>
			</g>
			<g>
				<g>
					<rect x="282.1" y="44.5" class="st37" width="0.3" height="9.7"/>
				</g>
				<g>
					<rect x="284.2" y="44.5" class="st37" width="0.3" height="9.7"/>
				</g>
			</g>
			<g>
				<g>
					<rect x="280.3" y="46.7" class="st37" width="5.8" height="0.3"/>
				</g>
				<g>
					<rect x="280.3" y="49.2" class="st37" width="5.8" height="0.3"/>
				</g>
				<g>
					<rect x="280.3" y="51.8" class="st37" width="5.8" height="0.3"/>
				</g>
			</g>
			<g>
				<g>
					<g>
						<rect x="271.9" y="46.7" class="st36" width="8.5" height="0.3"/>
					</g>
				</g>
				<g>
					<g>
						<rect x="271.9" y="49.2" class="st36" width="8.5" height="0.3"/>
					</g>
				</g>
				<g>
					<g>
						<rect x="271.9" y="51.8" class="st36" width="8.5" height="0.3"/>
					</g>
				</g>
			</g>
			<g>
				<g>
					<rect x="279" y="45.8" class="st38" width="0.7" height="0.5"/>
					<rect x="278.1" y="48.4" class="st38" width="0.7" height="0.5"/>
					<rect x="279.2" y="49.9" class="st38" width="0.7" height="0.5"/>
					<rect x="278.4" y="52.3" class="st38" width="0.7" height="0.5"/>
				</g>
				<g>
					<rect x="273.2" y="52.2" class="st38" width="0.7" height="0.5"/>
					<rect x="272.5" y="50.8" class="st38" width="0.7" height="0.5"/>
					<rect x="272.4" y="48.2" class="st38" width="0.7" height="0.5"/>
				</g>
				<g>
					<rect x="276.2" y="53.2" class="st38" width="0.7" height="0.5"/>
					<rect x="276" y="50.3" class="st38" width="0.7" height="0.5"/>
					<rect x="275.1" y="47.4" class="st38" width="0.7" height="0.5"/>
					<rect x="276" y="44.9" class="st38" width="0.7" height="0.5"/>
				</g>
			</g>
			<g>
				<rect x="281.2" y="44.5" class="st37" width="0.5" height="0.5"/>
				<rect x="281.2" y="47" class="st37" width="0.5" height="0.5"/>
				<rect x="281.2" y="49.5" class="st37" width="0.5" height="0.5"/>
				<rect x="281.2" y="52.1" class="st37" width="0.5" height="0.5"/>
			</g>
			<g>
				<rect x="283.1" y="44.5" class="st37" width="0.5" height="0.5"/>
				<rect x="283.1" y="47" class="st37" width="0.5" height="0.5"/>
				<rect x="283.1" y="49.5" class="st37" width="0.5" height="0.5"/>
				<rect x="283.1" y="52.1" class="st37" width="0.5" height="0.5"/>
			</g>
			<g>
				<rect x="285" y="44.5" class="st37" width="0.5" height="0.5"/>
				<rect x="285" y="47" class="st37" width="0.5" height="0.5"/>
				<rect x="285" y="49.5" class="st37" width="0.5" height="0.5"/>
				<rect x="285" y="52.1" class="st37" width="0.5" height="0.5"/>
			</g>
		</g>
		<g>
			<polygon class="st34" points="295.1,44.5 295.1,46.9 293.2,46.9 293.2,54.2 304.9,54.2 304.9,44.5 			"/>
			<rect x="292.4" y="44.5" class="st35" width="5.8" height="9.7"/>
			<g>
				<g>
					<rect x="295" y="44.5" class="st36" width="0.3" height="9.7"/>
				</g>
				<g>
					<rect x="298" y="44.5" class="st36" width="0.3" height="9.7"/>
				</g>
			</g>
			<g>
				<g>
					<rect x="300.8" y="44.5" class="st37" width="0.3" height="9.7"/>
				</g>
				<g>
					<rect x="302.9" y="44.5" class="st37" width="0.3" height="9.7"/>
				</g>
			</g>
			<g>
				<g>
					<rect x="299" y="46.8" class="st37" width="5.8" height="0.3"/>
				</g>
				<g>
					<rect x="299" y="49.3" class="st37" width="5.8" height="0.3"/>
				</g>
				<g>
					<rect x="299" y="51.8" class="st37" width="5.8" height="0.3"/>
				</g>
			</g>
			<g>
				<g>
					<g>
						<rect x="292.4" y="46.8" class="st36" width="6.7" height="0.3"/>
					</g>
				</g>
				<g>
					<g>
						<rect x="292.4" y="49.3" class="st36" width="6.7" height="0.3"/>
					</g>
				</g>
				<g>
					<g>
						<rect x="292.4" y="51.8" class="st36" width="6.7" height="0.3"/>
					</g>
				</g>
			</g>
			<g>
				<g>
					<rect x="299.5" y="45.9" class="st38" width="0.7" height="0.5"/>
					<rect x="298.6" y="48.5" class="st38" width="0.7" height="0.5"/>
					<rect x="299.8" y="50" class="st38" width="0.7" height="0.5"/>
					<rect x="298.9" y="52.3" class="st38" width="0.7" height="0.5"/>
				</g>
				<g>
					<rect x="293.7" y="52.3" class="st38" width="0.7" height="0.5"/>
					<rect x="293" y="50.9" class="st38" width="0.7" height="0.5"/>
					<rect x="292.9" y="48.3" class="st38" width="0.7" height="0.5"/>
				</g>
				<g>
					<rect x="296.7" y="53.3" class="st38" width="0.7" height="0.5"/>
					<rect x="296.5" y="50.3" class="st38" width="0.7" height="0.5"/>
					<rect x="295.6" y="47.4" class="st38" width="0.7" height="0.5"/>
					<rect x="296.5" y="45" class="st38" width="0.7" height="0.5"/>
				</g>
			</g>
			<g>
				<rect x="299.9" y="44.5" class="st37" width="0.5" height="0.5"/>
				<rect x="299.9" y="47.1" class="st37" width="0.5" height="0.5"/>
				<rect x="299.9" y="49.6" class="st37" width="0.5" height="0.5"/>
				<rect x="299.9" y="52.1" class="st37" width="0.5" height="0.5"/>
			</g>
			<g>
				<rect x="301.8" y="44.5" class="st37" width="0.5" height="0.5"/>
				<rect x="301.8" y="47.1" class="st37" width="0.5" height="0.5"/>
				<rect x="301.8" y="49.6" class="st37" width="0.5" height="0.5"/>
				<rect x="301.8" y="52.1" class="st37" width="0.5" height="0.5"/>
			</g>
			<g>
				<rect x="303.7" y="44.5" class="st37" width="0.5" height="0.5"/>
				<rect x="303.7" y="47.1" class="st37" width="0.5" height="0.5"/>
				<rect x="303.7" y="49.6" class="st37" width="0.5" height="0.5"/>
				<rect x="303.7" y="52.1" class="st37" width="0.5" height="0.5"/>
			</g>
		</g>
		<path class="st39" d="M298.4,54.5h-5.8c-0.1,0-0.2,0.1-0.2,0.2c0,0.1,0.1,0.2,0.2,0.2h5.8c0.1,0,0.2-0.1,0.2-0.2
			C298.6,54.6,298.5,54.5,298.4,54.5z"/>
		<g>
			<g>
				<rect x="293.4" y="51.9" class="st40" width="4.8" height="2.8"/>
				<rect x="293.4" y="51.9" class="st41" width="1.8" height="2.8"/>
				<g>
					<path class="st5" d="M296.2,53.5l-0.5,0.1c-0.1,0-0.2,0.1-0.1,0.2l0.1,0.5c0,0.1,0.1,0.2,0.2,0.1l0.5-0.1
						c0.1,0,0.2-0.1,0.1-0.2l-0.1-0.5C296.4,53.5,296.3,53.5,296.2,53.5z"/>
					<path class="st42" d="M296.2,53.9l-0.4,0.1c0,0-0.1,0-0.1-0.1l0,0c0,0,0-0.1,0.1-0.1l0.4-0.1c0,0,0.1,0,0.1,0.1l0,0
						C296.3,53.8,296.3,53.9,296.2,53.9z"/>
					<path class="st42" d="M296.2,54.3l-0.2,0c0,0-0.1,0-0.1-0.1l0,0c0,0,0-0.1,0.1-0.1l0.2,0c0,0,0.1,0,0.1,0.1l0,0
						C296.3,54.2,296.3,54.3,296.2,54.3z"/>
				</g>
				<rect x="296.4" y="51.9" class="st41" width="0.8" height="0.9"/>
				<polygon class="st43" points="295.2,52.5 295.2,51.9 298.2,51.9 296.6,52.5 				"/>
			</g>
			<g>
				<rect x="294.7" y="49.4" class="st40" width="3.9" height="2.6"/>
				<rect x="294.7" y="49.4" class="st41" width="1.3" height="2.6"/>
				<g>
					<path class="st42" d="M295.9,50.2l-0.5-0.2c-0.1,0-0.2,0-0.2,0.1l-0.2,0.4c0,0.1,0,0.2,0.1,0.2l0.5,0.2c0.1,0,0.2,0,0.2-0.1
						l0.2-0.4C296,50.3,296,50.2,295.9,50.2z"/>
					<path class="st44" d="M295.7,50.5l-0.4-0.1c0,0-0.1-0.1,0-0.1l0,0c0,0,0.1-0.1,0.1,0l0.4,0.1c0,0,0.1,0.1,0,0.1l0,0
						C295.8,50.5,295.8,50.5,295.7,50.5z"/>
					<path class="st44" d="M295.5,50.8l-0.2-0.1c0,0-0.1-0.1,0-0.1l0,0c0,0,0.1-0.1,0.1,0l0.2,0.1c0,0,0.1,0.1,0,0.1l0,0
						C295.6,50.8,295.5,50.8,295.5,50.8z"/>
				</g>
				<rect x="297" y="49.4" class="st41" width="0.8" height="0.8"/>
			</g>
		</g>
		<g>
			<path class="st45" d="M281.1,19.7c-0.1,0.5-0.4,1-1,1.4c-0.5,0.4-1,0.6-1.6,0.7h-0.1c-0.1,0-0.2-0.2-0.3-0.6s-0.2-0.6-0.2-0.7
				c0-0.1,0.1-0.1,0.1-0.1c0.3-0.1,0.5-0.1,0.8-0.2c0.3-0.2,0.5-0.4,0.5-0.7c0.1-0.2,0-0.4-0.2-0.6c-0.3-0.4-0.4-0.6-0.4-0.6
				c-0.2-0.3-0.2-0.7-0.1-0.9c0.1-0.5,0.4-0.9,0.9-1.2c0.4-0.3,1-0.5,1.5-0.5c0.1,0,0.1,0,0.1,0c0.1,0,0.1,0.1,0.1,0.1
				c0.1,0.4,0.2,0.7,0.3,1.1v0.1c0,0.1-0.1,0.1-0.1,0.1l0,0c-0.1,0-0.1,0-0.1,0s-0.1,0-0.1,0c-0.2,0-0.4,0.1-0.5,0.2
				c-0.2,0.1-0.3,0.2-0.3,0.4c-0.1,0.2,0.1,0.4,0.2,0.6c0.3,0.4,0.4,0.7,0.4,0.7C281.2,19.1,281.2,19.4,281.1,19.7z"/>
			<path class="st45" d="M286.1,18.6l-0.5,2.8c0,0.1-0.1,0.2-0.2,0.2s-0.3,0-0.6,0c-0.2,0-0.4,0-0.7-0.1c-0.1,0-0.1-0.1-0.1-0.2
				c0.1-0.2,0.1-0.6,0.2-1.1s0.2-0.8,0.2-1.1c0.1-0.3-0.1-0.5-0.4-0.5c-0.2,0-0.3,0.1-0.4,0.1c-0.2,0.1-0.3,0.2-0.3,0.3l-0.2,1
				c0,0.1-0.1,0.3-0.1,0.6c-0.1,0.3-0.1,0.5-0.1,0.6c0,0.1-0.1,0.2-0.2,0.2s-0.3,0-0.7,0c-0.2,0-0.3,0-0.5-0.1
				c-0.1,0-0.2-0.1-0.1-0.2c0.1-0.2,0.1-0.5,0.2-1c0.1-0.4,0.2-0.8,0.2-1c0.2-0.9,0.3-1.6,0.4-2.2c0.1-0.2,0.1-0.4,0.1-0.6
				c0-0.2,0.1-0.4,0.1-0.6v-0.1c0-0.1,0.1-0.1,0.1-0.1c0.1-0.1,0.3-0.1,0.4-0.1c0.2,0,0.3,0,0.4,0l0.8-0.1c0.1,0,0.1,0.1,0.1,0.1
				c0,0.1-0.1,0.2-0.1,0.4c-0.1,0.2-0.1,0.3-0.1,0.4c-0.1,0.6-0.2,1.1-0.3,1.5c0,0.1,0,0.1,0,0.1s0.1-0.1,0.2-0.2
				c0.2-0.1,0.3-0.2,0.5-0.3c0.2-0.1,0.4-0.2,0.7-0.2c0.3,0,0.7,0.1,0.8,0.3C286.1,18,286.2,18.3,286.1,18.6z"/>
			<path class="st45" d="M288.1,19.7c-0.1,0.2-0.1,0.5-0.2,0.9c-0.1,0.4-0.1,0.7-0.2,0.9c0,0.1-0.1,0.1-0.1,0.1
				c-0.2,0-0.4,0.1-0.7,0c-0.2,0-0.4,0-0.7,0c-0.1,0-0.1-0.1-0.1-0.1c0-0.1,0-0.1,0-0.1c0.1-0.2,0.1-0.5,0.2-0.9s0.1-0.7,0.2-0.9
				c0.1-0.6,0.2-1.2,0.2-1.8c0-0.1,0-0.1,0-0.1s0.1-0.1,0.1-0.1s0.2,0,0.3,0c0.2,0,0.3,0,0.3,0c0.1,0,0.2,0,0.4,0s0.3,0,0.4,0
				c0.1,0,0.1,0.1,0.1,0.1v0.1C288.4,18.4,288.3,19.1,288.1,19.7z M288.8,16.6c-0.1,0.5-0.4,0.7-0.9,0.7c-0.2,0-0.4-0.1-0.5-0.2
				c-0.2-0.1-0.2-0.3-0.2-0.5c0.1-0.2,0.2-0.4,0.3-0.5c0.2-0.1,0.4-0.2,0.6-0.2s0.4,0.1,0.5,0.2C288.8,16.3,288.8,16.4,288.8,16.6
				L288.8,16.6z"/>
			<path class="st45" d="M293.5,19.6c-0.1,0.5-0.4,1.1-0.8,1.5c-0.4,0.4-0.9,0.6-1.5,0.6c-0.2,0-0.4-0.1-0.7-0.2
				c-0.2-0.1-0.3-0.2-0.3-0.2c-0.1,0-0.1,0.1-0.1,0.1c0,0.2-0.1,0.3-0.1,0.7c-0.1,0.3-0.1,0.5-0.1,0.7c0,0.1-0.1,0.2-0.2,0.1l0,0
				H289c-0.1,0-0.2,0-0.4,0c-0.1,0-0.1-0.1-0.1-0.1l0,0l0.5-3.2c0.1-0.5,0.2-1.1,0.2-1.6v-0.1c0-0.1,0.1-0.1,0.1-0.1
				c0.2-0.1,0.4-0.1,0.7-0.1c0.2-0.1,0.4-0.1,0.7-0.1c0.1,0,0.2,0.1,0.2,0.2c0,0.2,0,0.2,0,0.2c-0.1,0,0.1-0.1,0.4-0.2
				c0.3-0.2,0.5-0.2,0.8-0.2c0.6,0,1,0.2,1.3,0.6C293.5,18.5,293.6,19,293.5,19.6z M292,19.6c0.1-0.2,0-0.4-0.1-0.6
				s-0.3-0.3-0.5-0.3c-0.2,0-0.4,0.1-0.6,0.3c-0.2,0.2-0.2,0.4-0.3,0.6c-0.1,0.2,0,0.4,0.1,0.6c0.1,0.2,0.3,0.3,0.5,0.3
				C291.6,20.4,291.9,20.2,292,19.6L292,19.6z"/>
			<path class="st45" d="M295.6,19.7c-0.1,0.2-0.1,0.5-0.2,0.9c-0.1,0.4-0.1,0.7-0.2,0.9c0,0.1-0.1,0.1-0.1,0.1
				c-0.2,0-0.4,0.1-0.7,0c-0.2,0-0.4,0-0.7,0c-0.1,0-0.1-0.1-0.1-0.1c0-0.1,0-0.1,0-0.1c0.1-0.2,0.1-0.5,0.2-0.9s0.1-0.7,0.2-0.9
				c0.1-0.6,0.2-1.2,0.2-1.8c0-0.1,0-0.1,0-0.1s0.1-0.1,0.1-0.1s0.2,0,0.3,0c0.2,0,0.3,0,0.3,0s0.2,0,0.4,0s0.3,0,0.4,0
				c0.1,0,0.1,0.1,0.1,0.1v0.1C295.8,18.4,295.7,19.1,295.6,19.7z M296.2,16.6c-0.1,0.5-0.4,0.7-0.9,0.7c-0.2,0-0.4-0.1-0.5-0.2
				c-0.2-0.1-0.2-0.3-0.2-0.5s0.2-0.4,0.3-0.5c0.2-0.1,0.4-0.2,0.6-0.2s0.4,0.1,0.5,0.2C296.2,16.3,296.2,16.4,296.2,16.6
				L296.2,16.6z"/>
			<path class="st45" d="M299,20.4c0,0.1-0.1,0.3-0.1,0.4c-0.1,0.1-0.1,0.3-0.1,0.4c0,0.1,0,0.1-0.1,0.2s-0.1,0.1-0.2,0.1
				c-0.4,0.2-0.8,0.3-1.2,0.3c-0.8,0-1.1-0.3-1-0.9c0.1-0.2,0.1-0.4,0.2-0.8s0.1-0.7,0.2-0.8c0-0.1-0.1-0.2-0.2-0.2h-0.1h-0.1
				c-0.1,0-0.2-0.1-0.2-0.1s0-0.1,0.1-0.2c0-0.1,0.1-0.2,0.1-0.2s0-0.2,0.1-0.3c0-0.1,0-0.2,0.1-0.3c0-0.1,0.1-0.1,0.3-0.1
				c0.1,0,0.2-0.1,0.2-0.1c0.1-0.2,0.1-0.3,0.1-0.5c0.1-0.4,0.1-0.5,0.1-0.5c0.1-0.3,0.1-0.5,0.2-0.5c0.1,0,0.2,0,0.3,0.1
				c0.1,0,0.2,0.1,0.3,0.1c0.2,0,0.3,0.1,0.6,0.1c0.1,0,0.1,0.1,0.1,0.1c0,0.1-0.1,0.3-0.1,0.5s-0.1,0.4-0.1,0.5
				c0,0.1,0,0.2,0.1,0.2s0.2,0,0.4,0c0.2,0,0.3,0,0.4,0c0.1,0,0.1,0,0.1,0.1c0,0.1-0.1,0.2-0.1,0.3c-0.1,0.1-0.1,0.2-0.1,0.3
				c0,0.1-0.1,0.2-0.1,0.3s-0.1,0.2-0.1,0.3c0,0.1-0.1,0.1-0.1,0.1s-0.2,0-0.3,0s-0.2,0-0.3,0h-0.3c-0.1,0-0.1,0.1-0.1,0.2l-0.1,0.3
				c0,0.1-0.1,0.2-0.1,0.3c-0.1,0.2-0.1,0.4,0,0.5c0.1,0.1,0.2,0.2,0.4,0.2c0.1,0,0.2,0,0.3-0.1c0.1,0,0.2-0.1,0.3-0.1
				C299,20.3,299,20.3,299,20.4z"/>
			<path class="st45" d="M303.6,19.6c-0.1,0.6-0.4,1.1-0.9,1.5c-0.4,0.4-1,0.6-1.6,0.6c-0.6,0-1.1-0.2-1.4-0.6
				c-0.3-0.4-0.4-0.9-0.3-1.5c0.1-0.7,0.4-1.1,0.8-1.6c0.4-0.4,1-0.6,1.6-0.6c0.6,0,1.1,0.2,1.4,0.6
				C303.6,18.4,303.7,18.9,303.6,19.6z M302.2,19.6c0.1-0.2,0-0.4-0.1-0.6c-0.1-0.2-0.3-0.3-0.5-0.3s-0.4,0.1-0.6,0.3
				s-0.3,0.4-0.3,0.5c-0.1,0.2,0,0.4,0.1,0.6c0.1,0.2,0.3,0.3,0.5,0.3c0.2,0,0.4-0.1,0.6-0.3S302.1,19.8,302.2,19.6z"/>
			<path class="st45" d="M303.8,16.7L303.8,16.7C303.8,16.7,303.8,16.7,303.8,16.7h-0.1l0,0l0,0v-0.1c0,0,0-0.1-0.1-0.1
				c0,0,0,0-0.1,0h-0.1l0,0v0.1c0,0.1,0,0.1,0,0.1l0,0l0,0h-0.1h-0.1l0,0c0,0,0-0.1,0-0.1s0-0.1,0-0.1c0-0.1,0-0.2,0-0.3l0,0l0,0
				c0,0,0.1,0,0.1,0h0.1c0.1,0,0.1,0,0.2,0.1c0.1,0.1,0.1,0.1,0.1,0.1c0,0.1,0,0.1,0,0.1l-0.1,0.1l0,0l0.1,0.1
				C303.8,16.6,303.8,16.6,303.8,16.7z M303.7,16.4C303.7,16.4,303.7,16.3,303.7,16.4l-0.1-0.1h-0.1v0.1l0,0l0,0l0,0h0.1
				C303.7,16.4,303.7,16.4,303.7,16.4L303.7,16.4z"/>
			<path class="st45" d="M303.6,17c-0.3,0-0.5-0.2-0.5-0.5c0-0.3,0.2-0.5,0.5-0.5c0.3,0,0.5,0.2,0.5,0.5l0,0
				C304.1,16.8,303.9,17,303.6,17z M303.6,16c-0.2,0-0.4,0.2-0.4,0.4c0,0.2,0.2,0.4,0.4,0.4c0.2,0,0.4-0.2,0.4-0.4l0,0
				C304,16.2,303.9,16,303.6,16z"/>
		</g>
		<g class="st46">
			<path class="st47" d="M281.8,24.2l-1,3h-0.2l-0.9-2.7l-0.9,2.7h-0.2l-1-3h0.2l0.9,2.7l0.9-2.7h0.2l0.9,2.7l0.9-2.7H281.8z"/>
			<path class="st47" d="M284.1,26.3h-1.7l-0.4,0.8h-0.2l1.4-3h0.2l1.4,3h-0.2L284.1,26.3z M284.1,26.2l-0.8-1.7l-0.8,1.7H284.1z"/>
			<path class="st47" d="M287.4,27.2l-0.7-1c-0.1,0-0.2,0-0.3,0h-0.9v1h-0.2v-3h1.1c0.4,0,0.7,0.1,0.9,0.3c0.2,0.2,0.3,0.4,0.3,0.7
				c0,0.2-0.1,0.4-0.2,0.6c-0.1,0.2-0.3,0.3-0.5,0.3l0.7,1H287.4z M286.4,26c0.3,0,0.6-0.1,0.7-0.2c0.2-0.1,0.3-0.3,0.3-0.6
				c0-0.3-0.1-0.5-0.3-0.6c-0.2-0.1-0.4-0.2-0.7-0.2h-0.9V26H286.4z"/>
			<path class="st47" d="M290.4,27v0.2h-2.1v-3h2v0.2h-1.8v1.2h1.6v0.2h-1.6V27H290.4z"/>
			<path class="st47" d="M293.7,24.2v3h-0.2v-1.4h-2v1.4h-0.2v-3h0.2v1.4h2v-1.4H293.7z"/>
			<path class="st47" d="M295.2,27c-0.2-0.1-0.4-0.3-0.6-0.5c-0.1-0.2-0.2-0.5-0.2-0.8s0.1-0.5,0.2-0.8c0.1-0.2,0.3-0.4,0.6-0.5
				c0.2-0.1,0.5-0.2,0.8-0.2c0.3,0,0.6,0.1,0.8,0.2c0.2,0.1,0.4,0.3,0.6,0.5c0.1,0.2,0.2,0.5,0.2,0.8s-0.1,0.5-0.2,0.8
				c-0.1,0.2-0.3,0.4-0.6,0.5c-0.2,0.1-0.5,0.2-0.8,0.2C295.7,27.2,295.4,27.1,295.2,27z M296.6,26.8c0.2-0.1,0.4-0.3,0.5-0.5
				c0.1-0.2,0.2-0.4,0.2-0.7c0-0.2-0.1-0.5-0.2-0.7s-0.3-0.4-0.5-0.5c-0.2-0.1-0.4-0.2-0.7-0.2c-0.3,0-0.5,0.1-0.7,0.2
				c-0.2,0.1-0.4,0.3-0.5,0.5s-0.2,0.4-0.2,0.7c0,0.2,0.1,0.5,0.2,0.7c0.1,0.2,0.3,0.4,0.5,0.5c0.2,0.1,0.4,0.2,0.7,0.2
				C296.2,27,296.4,26.9,296.6,26.8z"/>
			<path class="st47" d="M298.5,26.9c-0.2-0.2-0.3-0.5-0.3-1v-1.7h0.2v1.7c0,0.4,0.1,0.6,0.3,0.8c0.2,0.2,0.4,0.3,0.7,0.3
				c0.3,0,0.6-0.1,0.7-0.3c0.2-0.2,0.3-0.5,0.3-0.8v-1.7h0.2v1.7c0,0.4-0.1,0.7-0.3,1c-0.2,0.2-0.5,0.3-0.9,0.3
				S298.8,27.1,298.5,26.9z"/>
			<path class="st47" d="M301.8,27.1c-0.2-0.1-0.4-0.2-0.5-0.3l0.1-0.2c0.1,0.1,0.2,0.2,0.4,0.3c0.2,0.1,0.4,0.1,0.6,0.1
				c0.3,0,0.5-0.1,0.6-0.2c0.1-0.1,0.2-0.2,0.2-0.4c0-0.1,0-0.2-0.1-0.3s-0.2-0.1-0.3-0.2s-0.3-0.1-0.5-0.1
				c-0.2-0.1-0.4-0.1-0.5-0.2c-0.1-0.1-0.2-0.1-0.3-0.2s-0.1-0.2-0.1-0.4c0-0.1,0-0.3,0.1-0.4c0.1-0.1,0.2-0.2,0.4-0.3
				c0.2-0.1,0.4-0.1,0.6-0.1c0.2,0,0.3,0,0.5,0.1s0.3,0.1,0.4,0.2l-0.1,0.2c-0.1-0.1-0.3-0.1-0.4-0.2c-0.1,0-0.3-0.1-0.4-0.1
				c-0.3,0-0.5,0.1-0.6,0.2s-0.2,0.3-0.2,0.4c0,0.1,0,0.2,0.1,0.3s0.2,0.1,0.3,0.2c0.1,0,0.3,0.1,0.5,0.1c0.2,0.1,0.4,0.1,0.5,0.2
				s0.2,0.1,0.3,0.2s0.1,0.2,0.1,0.4c0,0.1,0,0.3-0.1,0.4c-0.1,0.1-0.2,0.2-0.4,0.3c-0.2,0.1-0.4,0.1-0.6,0.1
				C302.2,27.2,302,27.2,301.8,27.1z"/>
			<path class="st47" d="M306.3,27v0.2h-2.1v-3h2v0.2h-1.8v1.2h1.6v0.2h-1.6V27H306.3z"/>
		</g>
	</g>
	<g>
		<g>
			<path class="st28" d="M250.5,93.4c0.8,0,1.9,0,2.6,0c2.3,0,4.1,2.6,4.1,5.8c0,3.2-1.8,5.8-4.1,5.8c-0.8,0-1.9,0-2.6,0
				c-2.3,0-4.1-2.6-4.1-5.8C246.4,95.9,248.3,93.4,250.5,93.4z"/>
			<path class="st28" d="M266.8,93.4c0.8,0,1.9,0,2.6,0c2.3,0,4.1,2.6,4.1,5.8c0,3.2-1.8,5.8-4.1,5.8c-0.8,0-1.9,0-2.6,0
				c-2.3,0-4.1-2.6-4.1-5.8C262.7,95.9,264.5,93.4,266.8,93.4z"/>
			<g>
				<path class="st48" d="M247.5,89.1L247.5,89.1c-0.9-0.1-1.5-0.7-1.5-1.6l0.7-11.8c0.5-8.1,1.8-16.2,3.8-24c0.2-0.5,0.5-1,1.1-1.1
					c4.9-1.2,10.3-1.2,15.9,0c0.7,0.2,1.2,0.7,1.2,1.5v26.6c0,0.8-0.6,1.5-1.5,1.5c-0.8,0-1.5-0.6-1.5-1.5V53.3
					c-4.5-0.8-8.7-0.8-12.6,0c-1.8,7.4-3,15-3.6,22.6l-0.7,11.8C249,88.4,248.3,89.1,247.5,89.1z"/>
			</g>
			<path class="st49" d="M283.6,78.7h-37.7c-0.7,0-1.4,0.6-1.4,1.4v16.5h39.1V78.7z"/>
			<path class="st50" d="M286.9,78.7h-23.1v17.8h25.5V81C289.3,79.7,288.2,78.7,286.9,78.7z"/>
			<g>
				<path class="st28" d="M268.5,80h9.7V66.3c0-1-0.8-1.9-1.9-1.9h-2.8c-1.5,0-2.9,1.2-3.1,2.7L268.5,80z"/>
				<rect x="263.7" y="74.3" class="st28" width="17.9" height="5.6"/>
			</g>
			<path class="st51" d="M285.6,78.7h-38.9c-1.2,0-2.1,0.9-2.1,2.1v9.1h18.9l0.6-1.6c1.4-3.6,4.7-5.9,8.6-5.9h16.5l0,0
				C289.3,80.2,287.6,78.7,285.6,78.7z"/>
			<rect x="244.5" y="96.4" class="st51" width="39.1" height="3.2"/>
			<rect x="244.6" y="96.5" class="st52" width="19.2" height="3.2"/>
			<path class="st28" d="M269.7,93.4c0.8,0,1.9,0,2.6,0c2.3,0,4.1,2.6,4.1,5.8c0,3.2-1.8,5.8-4.1,5.8c-0.8,0-1.9,0-2.6,0
				c-2.3,0-4.1-2.6-4.1-5.8C265.6,95.9,267.4,93.4,269.7,93.4z"/>
			<path class="st28" d="M287.2,93.4c0.8,0,1.9,0,2.6,0c2.3,0,4.1,2.6,4.1,5.8c0,3.2-1.8,5.8-4.1,5.8c-0.8,0-1.9,0-2.6,0
				c-2.3,0-4.1-2.6-4.1-5.8C283.1,95.9,284.9,93.4,287.2,93.4z"/>
			<g>
				<path class="st51" d="M262.2,89.1L262.2,89.1c-0.9-0.1-1.5-0.7-1.5-1.6l0.7-11.8c0.5-8.1,1.8-16.2,3.8-24c0.2-0.5,0.5-1,1.1-1.1
					c5.1-1.2,10.5-1.2,15.9,0c0.7,0.2,1.2,0.7,1.2,1.5v26.6c0,0.8-0.6,1.5-1.5,1.5c-0.8,0-1.5-0.6-1.5-1.5V53.3
					c-4.3-0.8-8.6-0.8-12.6,0c-1.8,7.4-3,14.9-3.6,22.6l-0.7,11.8C263.7,88.4,263,89.1,262.2,89.1z"/>
			</g>
			<path class="st51" d="M270.7,88.9h-0.3c-2.6,0-4.6,2-4.8,4.5l-0.5,6.2h10.4v-5.9C275.5,91.1,273.3,88.9,270.7,88.9z"/>
			<path class="st51" d="M288.2,88.9h-0.3c-2.6,0-4.6,2-4.8,4.5l-0.5,6.2H293v-5.9C293,91.1,290.9,88.9,288.2,88.9z"/>
			<path class="st28" d="M274,94.2v5.5h-5.8l0.4-5.6c0.1-1.5,1.3-2.6,2.7-2.6l0,0C272.7,91.4,274,92.6,274,94.2z"/>
			<path class="st28" d="M291.5,94.2v5.5h-5.8l0.4-5.6c0.1-1.5,1.3-2.6,2.7-2.6l0,0C290.3,91.4,291.5,92.6,291.5,94.2z"/>
			<g>
				<path class="st48" d="M274.2,69.5c-2.1-0.3-4.2-0.3-6.3,0c-1.5,0.2-2.6,1.3-2.8,2.7l-0.5,3h12.7l-0.5-3
					C276.8,70.8,275.7,69.7,274.2,69.5z"/>
				<path class="st53" d="M267.9,69.5c0.2,0,0.5-0.1,0.6-0.1l-0.1,3.5h3.9l1.3-3.5c0.2,0,0.4,0,0.5,0.1c0.1,0,0.3,0,0.4,0.1
					l-1.1,5.6h-7l1.1-5.6C267.7,69.6,267.8,69.5,267.9,69.5z"/>
				<path class="st54" d="M271,71.5L271,71.5c-0.6,0-1.1-0.5-1.1-1.1v-2.6h2.3v2.6C272.2,71,271.7,71.5,271,71.5z"/>
				<path class="st55" d="M271,69.9L271,69.9c-0.6,0-1.1-0.5-1.1-1.1v-2.6h2.3v2.6C272.2,69.4,271.7,69.9,271,69.9z"/>
				<path class="st54" d="M270.7,68.9L270.7,68.9c-2,0-3.6-1.6-3.6-3.6v-2.7c0-2,1.6-3.6,3.6-3.6l0,0c2,0,3.6,1.6,3.6,3.6v2.7
					C274.2,67.2,272.6,68.9,270.7,68.9z"/>
				<path class="st54" d="M267.6,63.8c0.3,0,0.6,0.4,0.6,0.9c0.1,0.5-0.2,1-0.5,1.1c-0.3,0-0.6-0.4-0.6-0.9
					C267,64.3,267.3,63.8,267.6,63.8z"/>
				<path class="st55" d="M274.3,60.3l0.1,3.9c0,0.3-0.2,0.5-0.4,0.5l0,0c-0.7-1.1-0.8-2.2-0.3-3.4c-1.8,0.6-3.8,0.6-6,0l-0.3,3.4
					l0,0c-0.2,0-0.4-0.2-0.4-0.4v-4l1.3-1l2-0.9V59l1.8-0.6l0.7,0.4L274.3,60.3z"/>
				<path class="st54" d="M274.6,63.8c0.3,0,0.5,0.5,0.5,1.1c-0.1,0.5-0.4,1-0.6,0.9c-0.3,0-0.5-0.5-0.5-1.1
					C274,64.1,274.3,63.8,274.6,63.8z"/>
				<g>
					<path class="st56" d="M271.7,65.1c-0.1-0.2-0.1-0.4-0.1-0.5c0-0.5,0.2-0.8,0.5-0.8c0.3,0,0.5,0.4,0.5,0.8c0,0.2,0,0.4-0.1,0.5
						H271.7z"/>
					<g>
						<path class="st55" d="M271.5,63.4c-0.1,0-0.2,0-0.2-0.1c-0.1-0.1-0.1-0.3,0-0.4c0.3-0.2,1-0.4,1.4,0c0.1,0.1,0.1,0.3,0,0.4
							s-0.3,0.1-0.4,0S271.8,63.2,271.5,63.4C271.6,63.4,271.6,63.4,271.5,63.4z"/>
					</g>
				</g>
				<g>
					<path class="st56" d="M268.1,65.1c-0.1-0.2-0.1-0.4-0.1-0.5c0-0.5,0.2-0.8,0.5-0.8c0.3,0,0.5,0.4,0.5,0.8c0,0.2,0,0.4-0.1,0.5
						H268.1z"/>
					<g>
						<path class="st55" d="M268.9,63.4c-0.1,0-0.1,0-0.2-0.1c-0.2-0.1-0.6-0.2-0.7-0.1c-0.1,0.1-0.3,0.1-0.4,0
							c-0.1-0.1-0.1-0.3,0-0.4c0.4-0.4,1.1-0.2,1.4,0c0.1,0.1,0.1,0.2,0,0.4C269,63.3,269,63.4,268.9,63.4z"/>
					</g>
				</g>
				<path class="st57" d="M270.8,67.4h-1c-0.5,0-0.8-0.4-0.8-0.8v-0.5h2.7v0.5C271.6,67,271.2,67.4,270.8,67.4z"/>
				<path class="st5" d="M269.1,66.4c0-0.1,0-0.2,0-0.3h2.3c0,0.1,0,0.2,0,0.3c0,0.2-0.2,0.4-0.4,0.4h-1.4
					C269.3,66.7,269.1,66.6,269.1,66.4z"/>
				<g>
					<path class="st48" d="M270.7,79.1c-1.2,0-2.6-0.2-3.8-0.5c-0.5-0.1-0.9-0.6-0.7-1.2c0.1-0.5,0.6-0.9,1.2-0.7
						c4.3,1,7.4,0.1,8.3-1.3c0.5-0.7,0.4-1.7-0.5-2.8c-0.4-0.5-0.2-1.1,0.3-1.5c0.5-0.4,1.1-0.2,1.5,0.3c1.7,2.5,1.1,4.3,0.5,5.2
						C276.1,78.1,273.7,79.1,270.7,79.1z"/>
				</g>
				<g>
					<path class="st53" d="M273.2,58.4l-1.3-0.5c-0.8-0.4-1.8-0.4-2.6,0l-1.3,0.5c-0.7,0.4-1.2,1-1.2,1.8v2.5c2.2-1,3.9-0.8,6.2,0
						c0.3,0.1,1.1,0,1.5,0v-2.5C274.4,59.4,274,58.7,273.2,58.4z"/>
					<g>
						<path class="st58" d="M273.1,62.9c-0.1,0-0.1,0-0.2,0c-2.6-1.1-4.8-1.1-6.6,0c-0.2,0.1-0.5,0.1-0.5-0.1s-0.1-0.5,0.1-0.5
							c2-1.2,4.5-1.2,7.3,0c0.2,0.1,0.3,0.3,0.2,0.5C273.4,62.8,273.3,62.9,273.1,62.9z"/>
					</g>
					<ellipse class="st27" cx="269.9" cy="59.7" rx="1.6" ry="0.9"/>
				</g>
				<path class="st54" d="M267.9,77.1c0,0.8-0.6,1.5-1.5,1.5c-0.8,0-1.5-0.6-1.5-1.5s0.6-1.5,1.5-1.5S267.9,76.3,267.9,77.1z"/>
			</g>
			<g>
				<path class="st51" d="M276.4,99.1c0,3.2-1.8,5.8-4.1,5.8s-4.1-2.6-4.1-5.8c0-3.2,1.8-5.8,4.1-5.8
					C274.6,93.4,276.4,95.9,276.4,99.1z"/>
				<path class="st59" d="M274.8,99.1c0,1.9-1.1,3.4-2.4,3.4c-1.3,0-2.4-1.5-2.4-3.4c0-1.9,1.1-3.4,2.4-3.4
					C273.7,95.7,274.8,97.3,274.8,99.1z"/>
				<path class="st51" d="M273.5,99.1c0,1.2-0.7,2.2-1.5,2.2c-0.8,0-1.5-1-1.5-2.2c0-1.2,0.7-2.2,1.5-2.2
					C272.9,96.9,273.5,97.9,273.5,99.1z"/>
			</g>
			<g>
				<path class="st51" d="M293.9,99.1c0,3.2-1.8,5.8-4.1,5.8s-4.1-2.6-4.1-5.8c0-3.2,1.8-5.8,4.1-5.8
					C292.1,93.4,293.9,95.9,293.9,99.1z"/>
				<path class="st59" d="M292.2,99.1c0,1.9-1.1,3.4-2.4,3.4s-2.4-1.5-2.4-3.4c0-1.9,1.1-3.4,2.4-3.4
					C291.2,95.7,292.2,97.3,292.2,99.1z"/>
				<path class="st51" d="M291,99.1c0,1.2-0.7,2.2-1.5,2.2c-0.8,0-1.5-1-1.5-2.2c0-1.2,0.7-2.2,1.5-2.2
					C290.3,96.9,291,97.9,291,99.1z"/>
			</g>
			<path class="st28" d="M251.2,85.7h6.9c1.7,0,3.2-1.5,3.2-3.2v-3.8H248v3.8C248,84.3,249.5,85.7,251.2,85.7z"/>
			<g>
				<polygon class="st51" points="261.8,99.6 243.3,99.6 243.3,41.9 247,41.9 247,95.9 258.1,95.9 258.1,41.9 261.8,41.9 				"/>
			</g>
			<g>
				<g>
					<rect x="231.3" y="79.1" class="st51" width="17.2" height="3.3"/>
				</g>
				<g>
					<rect x="245.5" y="79.1" class="st28" width="14.8" height="3.3"/>
				</g>
				<g>
					<rect x="258.1" y="41.9" class="st28" width="3.7" height="57.7"/>
				</g>
			</g>
			<g>
				<polygon class="st40" points="258.5,63.4 231.4,63.5 231.5,79.2 258.6,79.1 				"/>
				<polygon class="st41" points="241.4,63.5 231.4,63.5 231.5,79.2 241.5,79.1 				"/>
				<g>
					<path class="st5" d="M247.1,72.3l-3,0.7c-0.6,0.2-1,0.8-0.9,1.4l0.6,2.6c0.2,0.6,0.8,1,1.4,0.9l3-0.7c0.6-0.2,1-0.8,0.9-1.4
						l-0.6-2.6C248.3,72.6,247.6,72.1,247.1,72.3z"/>
					<path class="st42" d="M247.3,74.5l-2.4,0.5c-0.4,0.1-0.6-0.1-0.7-0.5l0,0c-0.1-0.4,0.1-0.6,0.5-0.7l2.4-0.5
						c0.4-0.1,0.6,0.1,0.7,0.5l0,0C247.8,74.1,247.6,74.5,247.3,74.5z"/>
					<path class="st42" d="M247.1,76.6l-1.1,0.3c-0.4,0.1-0.6-0.1-0.7-0.5l0,0c-0.1-0.4,0.1-0.6,0.5-0.7l1.1-0.3
						c0.4-0.1,0.6,0.1,0.7,0.5l0,0C247.6,76.2,247.4,76.5,247.1,76.6z"/>
				</g>
				<polygon class="st41" points="252.9,68.2 248.1,68.3 248.1,63.4 252.8,63.4 				"/>
				<polygon class="st43" points="258.7,63.6 249.7,67 241.4,67 241.4,63.6 				"/>
			</g>
			<g>
				<polygon class="st40" points="258.4,50.8 236.5,50.9 236.6,63.7 258.5,63.5 				"/>
				<polygon class="st41" points="244.6,50.8 236.5,50.9 236.6,63.7 244.6,63.6 				"/>
				<g>
					<path class="st42" d="M242.3,52.1l-2.5,0.5c-0.5,0.1-0.8,0.6-0.7,1.1l0.5,2.1c0.1,0.5,0.6,0.8,1.2,0.7l2.5-0.5
						c0.5-0.1,0.8-0.6,0.7-1.1l-0.5-2.1C243.3,52.3,242.8,51.9,242.3,52.1z"/>
					<path class="st48" d="M242.4,53.8l-1.9,0.5c-0.3,0.1-0.5-0.1-0.6-0.4l0,0c-0.1-0.3,0.1-0.5,0.4-0.6l1.9-0.5
						c0.3-0.1,0.5,0.1,0.6,0.4l0,0C242.9,53.6,242.7,53.8,242.4,53.8z"/>
					<path class="st48" d="M242.3,55.6l-0.9,0.2c-0.3,0.1-0.5-0.1-0.6-0.4l0,0c-0.1-0.3,0.1-0.5,0.4-0.6l0.9-0.2
						c0.3-0.1,0.5,0.1,0.6,0.4l0,0C242.8,55.2,242.6,55.5,242.3,55.6z"/>
				</g>
				<polygon class="st41" points="253.9,54.7 250,54.7 250,50.8 253.8,50.8 				"/>
			</g>
		</g>
	</g>
	<g>
		<g>
			<g>
				<g>
					<path class="st51" d="M217.4,74.5c-0.3,0-0.6,0-0.9-0.1c-2.4-0.5-4.3-2.7-6.1-7.1c-0.3-0.6,0-1.3,0.6-1.5s1.3,0,1.5,0.6
						c1.5,3.5,2.9,5.4,4.5,5.6c1,0.2,2.3-0.4,3.7-1.7c0.5-0.5,1.2-0.5,1.6,0c0.5,0.5,0.5,1.2,0,1.6
						C220.6,73.7,218.9,74.5,217.4,74.5z"/>
				</g>
				<path class="st51" d="M201.9,80.1h9.5c0.5-5.3,0.5-9.3,0-11.6l-10.1-0.4C202.1,73,202.3,76.1,201.9,80.1z"/>
				<path class="st53" d="M211.4,68.5l-8.1,1.4l1.1,5.1l-2.3-0.6c0.1,1.9,0,3.6-0.2,5.7h9.5C211.8,74.8,211.8,70.9,211.4,68.5z"/>
				<path class="st51" d="M201.7,63.4c2.4-0.5,4.8-0.8,7.3-0.7c1.6,0,3.1,1.2,3.6,2.8l0.8,3.4L202.1,70l-0.8-2.1
					c-1,0-1.2,1.5-1.1,3.3l-1.3-4.4C198.9,65.2,200.1,63.8,201.7,63.4z"/>
				<path class="st53" d="M209,62.7c-0.3,0-0.5,0-0.7,0c0.5,1.2,0.7,2.6,0.9,4l-4.6,0.5c-0.9-2-1.7-3.4-2.4-3.8
					c-0.2,0-0.4,0.1-0.5,0.1s-0.3,0.1-0.5,0.1c0.6,1,1.4,3.6,2,6.4l8.1-0.8l-2-6.4C209.3,62.7,209.1,62.7,209,62.7z"/>
				<path class="st54" d="M205.7,64.8L205.7,64.8c0.7-0.1,1.3-0.7,1.2-1.5l-0.4-3l-2.6,0.3l0.4,3C204.4,64.3,205,64.8,205.7,64.8z"
					/>
				<path class="st55" d="M205.5,63.6L205.5,63.6c0.7-0.1,1.3-0.7,1.2-1.5l-0.4-3l-2.6,0.3l0.4,3C204.2,63.1,204.8,63.7,205.5,63.6z
					"/>
				<path class="st54" d="M205.7,62.2L205.7,62.2c2.3-0.3,3.9-2.3,3.7-4.6l-0.4-3.2c-0.3-2.3-2.3-3.9-4.6-3.7l0,0
					c-2.3,0.3-3.9,2.3-3.7,4.6l0.4,3.2C201.5,60.7,203.5,62.4,205.7,62.2z"/>
				<path class="st54" d="M209.2,55.7c-0.4,0-0.6,0.5-0.6,1.2c0,0.6,0.3,1.2,0.6,1.2c0.4,0,0.6-0.5,0.6-1.2S209.6,55.7,209.2,55.7z"
					/>
				<path class="st55" d="M200.4,52.7l0.4,4.5c0,0.3,0.3,0.5,0.5,0.5l0,0c0.7-1.4,0.7-2.6-0.1-3.9c2.2,0.5,4.5,0.3,6.9-0.7l0.7,3.8
					l0,0c0.3,0,0.5-0.3,0.5-0.5l-0.5-4.6l-1.5-1l-2.5-0.8l0.1,0.7l-2.2-0.5l-0.7,0.5L200.4,52.7z"/>
				<path class="st54" d="M200.7,56.9c-0.5,0.1-0.7,0.6-0.6,1.3c0.2,0.6,0.7,1.1,1.2,1c0.5-0.1,0.7-0.6,0.6-1.3
					C201.7,57.3,201.2,56.8,200.7,56.9z"/>
				<g>
					<path class="st56" d="M204.1,58c0.1-0.2,0.1-0.4,0.1-0.6c-0.1-0.5-0.4-0.9-0.6-0.9s-0.5,0.5-0.4,1c0,0.3,0.1,0.5,0.2,0.6
						L204.1,58z"/>
					<g>
						<path class="st55" d="M202.9,56.1c-0.1,0-0.1,0-0.2-0.1c-0.1-0.1-0.2-0.3-0.1-0.4c0.4-0.5,1.2-0.4,1.5-0.2
							c0.1,0.1,0.2,0.3,0.1,0.4s-0.3,0.2-0.4,0.1c-0.2-0.1-0.7-0.1-0.8,0C203.1,56,203,56.1,202.9,56.1z"/>
					</g>
				</g>
				<g>
					<path class="st56" d="M208,57.6c0.1-0.2,0.1-0.4,0.1-0.6c-0.1-0.5-0.4-0.9-0.6-0.9s-0.5,0.5-0.4,1c0,0.3,0.1,0.5,0.2,0.6
						L208,57.6z"/>
					<g>
						<path class="st55" d="M206.8,55.6c-0.1,0-0.2,0-0.2-0.1c-0.1-0.1-0.1-0.3,0-0.4c0.3-0.3,1.1-0.5,1.5-0.2
							c0.1,0.1,0.1,0.3,0,0.4c-0.1,0.1-0.3,0.1-0.4,0c-0.1-0.1-0.6,0-0.8,0.2C206.9,55.6,206.9,55.6,206.8,55.6z"/>
					</g>
				</g>
				<g>
					<path class="st51" d="M205.3,74c-2.7,0-5-0.8-6.2-2.3c-0.7-0.9-1.8-2.9-0.1-6c0.4-0.5,1-0.7,1.6-0.5c0.5,0.4,0.7,1,0.5,1.6
						c-0.8,1.4-0.8,2.6-0.2,3.4c1.2,1.5,4.9,2.1,9.7,0.5c0.6-0.2,1.3,0.1,1.5,0.7c0.2,0.6-0.1,1.3-0.7,1.5
						C209.2,73.8,207.1,74,205.3,74z"/>
				</g>
				<g>
					<path class="st53" d="M201.5,50.4l1.5-0.8c0.9-0.5,2-0.6,3.1-0.4l1.5,0.5c0.8,0.3,1.5,1,1.5,1.9l0.3,2.8
						c-2.6-0.9-4.6-0.5-7.1,0.7c-0.4,0.2-1.3,0.2-1.6,0.2l-0.3-2.7C200.3,51.7,200.7,50.8,201.5,50.4z"/>
					<g>
						<path class="st58" d="M202.2,55.7c-0.2,0-0.3-0.1-0.4-0.3c-0.1-0.2,0-0.5,0.2-0.6c3.2-1.7,6-2,8.4-0.8
							c0.2,0.1,0.4,0.4,0.2,0.6c-0.1,0.2-0.4,0.4-0.6,0.2c-2.2-1-4.7-0.7-7.6,0.8C202.3,55.6,202.3,55.7,202.2,55.7z"/>
					</g>
					<path class="st27" d="M203.5,51.7c0.1,0.6,0.9,1,2,0.9c1-0.1,1.8-0.7,1.7-1.3c-0.1-0.6-0.9-1-2-0.9
						C204.3,50.5,203.5,51.2,203.5,51.7z"/>
				</g>
				<path class="st54" d="M209.8,71.4c0.1,1,0.9,1.6,1.8,1.5c0.9-0.1,1.5-1,1.5-1.9c-0.1-1-0.9-1.6-1.8-1.5
					C210.4,69.6,209.7,70.4,209.8,71.4z"/>
				<path class="st54" d="M220.4,70.9c0.1,1,0.9,1.6,1.8,1.5c0.9-0.1,1.5-1,1.5-1.9c-0.1-1-0.9-1.6-1.8-1.5
					C220.9,69,220.3,69.9,220.4,70.9z"/>
				<g>
					<path class="st53" d="M208.3,104.5L208.3,104.5c-1-0.1-1.6-0.8-1.5-1.7l1.5-23.8c0.1-0.9,0.8-1.5,1.7-1.5
						c0.9,0.1,1.5,0.8,1.5,1.7l-1.5,23.8C209.8,103.8,209.1,104.5,208.3,104.5z"/>
				</g>
				<g>
					<path class="st53" d="M199.7,104.2c-0.1,0-0.2,0-0.3,0c-0.9-0.2-1.5-1-1.3-1.8l3.9-23.9c0.2-0.9,0.9-1.5,1.8-1.3
						c0.9,0.2,1.5,1,1.3,1.8l-3.9,23.9C201.2,103.7,200.4,104.2,199.7,104.2z"/>
				</g>
				<path class="st51" d="M198.6,104.7h2.3c0.6,0,1.2-0.5,1.2-1.2v-1.3c0-0.8-0.7-1.5-1.5-1.5h-0.9c-0.8,0-1.5,0.5-1.8,1.4l-0.4,1.3
					C197.4,104,197.9,104.7,198.6,104.7z"/>
				<path class="st51" d="M207.7,104.7h5.6c0.5,0,0.8-0.4,0.8-0.7l0,0c0-0.5-0.2-1.1-0.7-1.4l-3.3-1.9h-3.2l-0.4,2.7
					C206.6,104.1,207,104.7,207.7,104.7z"/>
				<g>
					<polygon class="st40" points="209.5,61.2 224.6,60.4 225.2,70.3 210,71.2 					"/>
					<polygon class="st41" points="218.3,60.7 224.6,60.4 225.2,70.3 218.8,70.7 					"/>
					<g>
						<path class="st42" d="M220.2,61.6l1.9,0.4c0.4,0.1,0.6,0.5,0.6,0.8l-0.3,1.6c-0.1,0.4-0.5,0.6-0.8,0.6l-1.9-0.4
							c-0.4-0.1-0.6-0.5-0.6-0.8l0.3-1.6C219.4,61.8,219.8,61.5,220.2,61.6z"/>
						<path class="st48" d="M220.1,62.9l1.5,0.3c0.2,0,0.5-0.1,0.5-0.4l0,0c0-0.2-0.1-0.5-0.4-0.5l-1.5-0.3c-0.2,0-0.5,0.1-0.5,0.4
							l0,0C219.8,62.8,219.9,62.9,220.1,62.9z"/>
						<path class="st48" d="M220.3,64.3l0.7,0.1c0.2,0,0.5-0.1,0.5-0.4l0,0c0-0.2-0.1-0.5-0.4-0.5l-0.7-0.1c-0.2,0-0.5,0.1-0.5,0.4
							l0,0C219.9,64,220.1,64.3,220.3,64.3z"/>
					</g>
					<polygon class="st41" points="212.7,64.1 215.4,63.9 215.2,60.8 212.7,61 					"/>
				</g>
				<path class="st57" d="M206.9,59.2c-0.5,0.7-1.5,0.6-2,0.1c-0.2-0.2-0.3,0-0.1,0.2c0.5,0.8,1.5,0.8,2.3-0.1
					C207.2,59.1,207.1,58.9,206.9,59.2z"/>
			</g>
		</g>
	</g>
</g>
<g>
	<path class="st58" d="M803.1,93.2c0,1.1-0.8,2-2,2c-0.8,0-1.5-0.5-1.8-1.3H799c-0.2,0.7-1,1.3-1.8,1.3c-1.1,0-2-0.8-2-2
		c0-1.1,0.8-2,2-2c0.7,0,1.1,0.3,1.5,0.7v-4.3h1.3v0.2l1.6,2.1l-0.5,0.3l-1.3-1.6v3.3c0.3-0.3,0.8-0.5,1.3-0.5
		C802.1,91.4,803.1,92.3,803.1,93.2z"/>
	<g>
		<rect x="796.4" y="87.8" class="st60" width="1.3" height="5.1"/>
		<rect x="794.9" y="92.7" class="st60" width="4.1" height="1.1"/>
		<path class="st61" d="M794.9,91.4c-1.1,0-2,0.8-2,2s0.8,2,2,2s2-0.8,2-2S796,91.4,794.9,91.4z"/>
		<path class="st61" d="M799,91.4c-1.1,0-2,0.8-2,2s0.8,2,2,2s2-0.8,2-2S800.1,91.4,799,91.4z"/>
		
			<rect x="798" y="87.7" transform="matrix(0.7858 -0.6185 0.6185 0.7858 115.9403 512.8516)" class="st60" width="0.5" height="2.8"/>
		<path class="st62" d="M794.9,92.4c-0.5,0-1,0.5-1,1s0.5,1,1,1s1-0.5,1-1S795.4,92.4,794.9,92.4z"/>
		<path class="st62" d="M799,92.4c-0.5,0-1,0.5-1,1s0.5,1,1,1s1-0.5,1-1S799.5,92.4,799,92.4z"/>
	</g>
	<g>
		<path class="st5" d="M735.1,75.2H817c0,0,9-2,22.6-2c5.7,0,8.9,0,10.7,1.1c0.3,0,0.5,0.2,0.7,0.3c1,0.7,1.8,1.3,2.1,1.6
			c0.2,0,0.3,0.2,0.3,0.2s6.9,2.8,6.9,4.9c0,2-10.5,6.4-20.7,6.4c-10.3,0-56.6,0-56.6,0s-10.3,0.5-20.5-1.8
			c-10.2-2.3-27.6-6.6-27.6-6.6s-1.5-0.3-1.5-2.5C733.5,75.2,735.1,74.9,735.1,75.2z"/>
		<path class="st45" d="M733.5,76.5c18.1-3.3,35.3,5.4,45.3,8.4c10.7,3.1,24.9,3,42.2-2.5c13.3-4.3,27.9-4.1,38.9-1.6
			c0.2,0.2,0.3,0.5,0.3,0.7c-11.2-2.5-26.4-1.3-39.4,3.4c-3.6,1.3-7.1,2.3-10.3,3.1c-14.1,0-27.6,0-27.6,0s-0.7,0-1.6,0
			c-0.8-0.3-1.6-0.5-2.5-0.8c-9.8-3.3-27.4-13.6-45.3-10.2C733.5,76.8,733.5,76.7,733.5,76.5z"/>
		<path class="st63" d="M733.3,77.3c0.3,1.6,1.5,1.8,1.5,1.8s17.4,4.3,27.6,6.6c10.2,2.3,20.5,1.8,20.5,1.8s46.3,0,56.6,0
			c10.3,0,20.8-4.4,20.8-6.4c0-0.2,0-0.2,0-0.3c-3.8,2.1-11.8,4.6-19.7,4.6h-24.6l1.3-1.3c0,0-2.5,1-8,1.1v0.3h-1.1
			c-4.3,0.8-8.2,1.1-12,1.3v-0.2L798,86l0.3-0.2v-0.7l1-0.2c-1.3,0-2.3-0.2-3.3-0.2v0.3l-0.3,1.8c-5.1,0-9.8-0.3-14-1.3
			c-1,0-11.3,0.5-21.3-1.8c-2.3-0.5-4.8-1-7.4-1.6l4.1-4.1c0,0-3.4,1-7.1,1c-3.6,0-11.2-1-11.2-1l-0.3-0.2l-0.7,0.7
			C736.1,78.3,734.6,78,733.3,77.3z"/>
		<path class="st5" d="M738.4,57.8c3.1,3.3,15.9,17.1,20.2,17.1h-22.5l-1-3.8l-1.1-4.4l-0.2-0.7l-1.3-5.4l-0.8-2.8H738.4z"/>
		<path class="st64" d="M757.1,77.5L746,73.5h-13.3V74l6.2,4.1c0,0,7.5,1,11.2,1c3.6,0,7.1-1,7.1-1V77.5z"/>
		<path class="st64" d="M817.2,83.7L779,78.8h-8.2v0.3l17.4,5.6h4.9c0,0,8.9,0.8,15.1,0.8s9-1.1,9-1.1V83.7z"/>
		<g>
			<path class="st65" d="M805.1,83.7c1.5,0,3,0.2,4.3,0.5l-1,5.9c-1,0.2-2.1,0.3-3.3,0.3c-1.8,0-3.6-0.3-4.9-0.7v-5.4
				C801.6,84,803.2,83.7,805.1,83.7z"/>
			<path class="st66" d="M809.3,84l-1,5.9c-0.2,0.2-0.5,0.2-0.7,0.2l1-6.1C809,84.2,809.2,84.2,809.3,84z M800.1,84.2v5.4
				c0.2,0,0.5,0.2,0.7,0.2v-5.6C800.6,84.2,800.3,84.4,800.1,84.2z"/>
			<polygon class="st67" points="798.2,85.4 798.2,87 798.2,88.8 800.1,89.3 800.1,87 800.1,84.9 			"/>
			<polygon class="st68" points="796.2,86.8 796.2,87 796.2,87.3 798.2,88.1 798.2,87 798.2,86 			"/>
		</g>
		<g>
			<path class="st65" d="M792.1,81.6c1.5,0,3,0.2,4.3,0.5l-1,5.9c-1,0.2-2.1,0.3-3.3,0.3c-1.8,0-3.6-0.3-4.9-0.7v-5.4
				C788.6,81.9,790.3,81.6,792.1,81.6z"/>
			<path class="st66" d="M796.5,81.9l-1,5.9c-0.2,0.2-0.5,0.2-0.7,0.2l1-6.1C796,81.9,796.2,82.1,796.5,81.9z M787.2,82.1v5.4
				c0.2,0,0.5,0.2,0.7,0.2v-5.6C787.7,82.1,787.3,82.2,787.2,82.1z"/>
			<polygon class="st67" points="785.4,83.1 785.4,84.9 785.4,86.7 787.2,87 787.2,84.9 787.2,82.7 			"/>
			<polygon class="st68" points="783.2,84.7 783.2,84.9 783.2,85.2 785.4,86 785.4,84.9 785.4,83.9 			"/>
		</g>
		<path class="st69" d="M785.4,83.7v-0.7l2-0.3v-0.5c0.2,0,0.5-0.2,0.7-0.2l0,0c1.1-0.3,2.6-0.5,4.3-0.5c1.3,0,2.5,0.2,3.6,0.3l0,0
			c0.2,0,0.5,0.2,0.7,0.2l-0.5,3.1c-1.6-0.5-3.8-0.8-6.1-0.8c-2.5,0-4.6,0.3-6.4,1l-0.3-0.2v-0.5L785.4,83.7z"/>
		<path class="st70" d="M839.4,75.2c0-0.2,0.2-0.3,0.3-0.3l0,0c0.2,0,0.3,0.2,0.3,0.3v0.7c0,0.2-0.2,0.3-0.3,0.3l0,0
			c-0.2,0-0.3-0.2-0.3-0.3V75.2z"/>
		<path class="st70" d="M837.9,75.2c0-0.2,0.2-0.3,0.3-0.3l0,0c0.2,0,0.3,0.2,0.3,0.3v0.7c0,0.2-0.2,0.3-0.3,0.3l0,0
			c-0.2,0-0.3-0.2-0.3-0.3V75.2z"/>
		<path class="st70" d="M836.6,75.2c0-0.2,0.2-0.3,0.3-0.3l0,0c0.2,0,0.3,0.2,0.3,0.3v0.7c0,0.2-0.2,0.3-0.3,0.3l0,0
			c-0.2,0-0.3-0.2-0.3-0.3V75.2z"/>
		<path class="st70" d="M835.3,75.2c0-0.2,0.2-0.3,0.3-0.3l0,0c0.2,0,0.3,0.2,0.3,0.3v0.7c0,0.2-0.2,0.3-0.3,0.3l0,0
			c-0.2,0-0.3-0.2-0.3-0.3V75.2z"/>
		<path class="st70" d="M833.9,75.2c0-0.2,0.2-0.3,0.3-0.3l0,0c0.2,0,0.3,0.2,0.3,0.3v0.7c0,0.2-0.2,0.3-0.3,0.3l0,0
			c-0.2,0-0.3-0.2-0.3-0.3V75.2z"/>
		<polygon class="st5" points="817.2,83.6 779,78.3 777.6,78.3 770.8,77.8 770.8,78.6 779,78.6 817.2,84.4 		"/>
		<path class="st71" d="M843.1,75.2c0-0.2,0.2-0.3,0.3-0.3h0.8c0.2,0,0.3,0.2,0.3,0.3v1.6c0,0.2-0.2,0.3-0.3,0.3h-0.8
			c-0.2,0-0.3-0.2-0.3-0.3V75.2z"/>
		<polygon class="st71" points="757.1,77.5 746,73.5 732.7,73.5 732.7,74 746,73.9 757.1,78.1 		"/>
		<polygon class="st70" points="848.4,74.7 848.5,74.5 849.7,74.5 849.7,76.2 848.1,76.2 		"/>
		<path class="st70" d="M851.2,74.5c1,0.7,1.8,1.3,2.1,1.6H850v-1.6H851.2z"/>
		<path class="st69" d="M798,86.2l0.3-0.2v-0.7l2-0.3v-0.5c0.2,0,0.5-0.2,0.7-0.2l0,0c1.1-0.3,2.6-0.5,4.3-0.5
			c1.3,0,2.5,0.2,3.6,0.3l0,0c0.2,0,0.5,0.2,0.7,0.2l-0.3,2c-1.5-0.5-3.3-0.7-5.1-0.7c-2.1,0-3.9,0.2-5.6,0.7
			c-0.8,0.3-1.6,0.7-2.3,1v-0.5L798,86.2z"/>
	</g>
	<g>
		<rect x="835.1" y="87.8" class="st60" width="1.3" height="5.1"/>
		<rect x="833.6" y="92.7" class="st60" width="4.1" height="1.1"/>
		<path class="st61" d="M833.6,91.4c-1.1,0-2,0.8-2,2s0.8,2,2,2s2-0.8,2-2S834.8,91.4,833.6,91.4z"/>
		<path class="st61" d="M837.9,91.4c-1.1,0-2,0.8-2,2s0.8,2,2,2s2-0.8,2-2S838.9,91.4,837.9,91.4z"/>
		
			<rect x="836.8" y="87.6" transform="matrix(0.7863 -0.6179 0.6179 0.7863 123.9055 536.2105)" class="st60" width="0.5" height="2.8"/>
		<path class="st62" d="M833.6,92.4c-0.5,0-1,0.5-1,1s0.5,1,1,1s1-0.5,1-1S834.3,92.4,833.6,92.4z"/>
		<path class="st62" d="M837.7,92.4c-0.5,0-1,0.5-1,1s0.5,1,1,1s1-0.5,1-1S838.4,92.4,837.7,92.4z"/>
	</g>
</g>
<g>
	<path class="st72" d="M945.1,154.8c0.3,0.6,0.3,1.6-0.4,2.1c-0.6,0.5-5.5,1.8-7.3,1.5c-1.8-0.2-4.9-1.9-6.1-1.8
		c-1.1,0.1-3.9,0-4.7-0.9c-0.3-0.4,0-1.4,0.6-2.6c0.6,0.9,1.5,1.9,2.2,1.9c1.9-0.1,6.2,0.6,7.7,1.3
		C939.5,157.4,943.3,156.2,945.1,154.8L945.1,154.8z"/>
	<path class="st73" d="M934.5,149.7c0,0.1,0,0.1,0.1,0.2c0.5,1,4.4,3.2,5.4,3.2c0.9,0,4.3,1.1,4.8,1.3c0.5,0.2,0.3,0.2,0.4,0.4
		c-1.9,1.5-5.7,2.6-7.9,1.5c-1.6-0.7-5.8-1.4-7.7-1.3c-0.8,0-1.6-1-2.2-1.9c0.1-0.3,0.2-0.5,0.4-0.8c0.3-0.6,0.7-1.3,1-1.9
		C932,153.7,932.2,150.7,934.5,149.7L934.5,149.7z"/>
	<path class="st74" d="M932.7,138.7c1.1-0.8,3.4,1.1,4,1.3c-0.5,2.2-2.3,8.6-2.2,9.5c0.1,0.8,0,0.2,0,0.2c-2.3,1-2.5,4-5.8,0.8
		c0.1-0.2,0.3-0.5,0.4-0.7c0.4-0.7,0.8-1.2,1-1.5C930.8,147.3,932.4,139,932.7,138.7L932.7,138.7z"/>
	<path class="st75" d="M923.7,119.7c2.2,3.6,6.3,8.3,7.6,12.4c1.3,4-0.5,12.7-0.4,13c1.4-0.3,4.9,0.3,6.3,0.6
		c0.6-2,1.8-11.8,1.8-13.5c0-1.7-0.9-8.8-2-14c-0.8,0.5-2,1.2-3,1.2c-0.5-3.3-0.5-5.1-2.3-9.1c0.5,4.5,0.6,8.6,0.6,9.4
		C929.3,120.1,926.3,120,923.7,119.7L923.7,119.7z"/>
	<polygon class="st76" points="929.5,139.8 938.9,140.3 938.6,147 929.2,146.6 929.5,139.8 	"/>
	<path class="st77" d="M937.7,117.7c-0.5-11.1-4.9-25.9-9-31.4c-4.1-5.5-7.9-9.7-11.6-7.1c-3.7,2.6-4.7,5.6-5.2,7.9
		c-0.5,2.3,0,8.1,1.1,10.2c1.1,2.1,5.4,7.8,5.6,10.1c0.1,2.4-0.7,5.6-0.6,11.1c2.4,1,8.6,1.9,14.1,1.3c0-0.8-0.1-4.9-0.6-9.4
		c1.8,4.1,1.8,5.8,2.3,9.1C935.3,119.4,937.3,118.1,937.7,117.7L937.7,117.7z"/>
	<path class="st78" d="M937.6,115.7c-0.7-9.3-3.9-20.6-7.3-26.9c-3.9,7.7-12.5,0.9-17.8-3.9c-0.3,0.8-0.5,1.5-0.6,2.2
		c-0.5,2.3,0,8.1,1.1,10.2c0.1,0.1,0.2,0.3,0.3,0.5c0,0,0.1-0.1,0.1-0.1c-0.1-0.2-0.2-0.2,0.3-0.2c0.8,1.6,10.7,10.2,18.1,15.1
		c-0.1-0.7-0.1-1.4-0.2-2.1c0.4,1,0.8,1.9,1,2.7C934.6,114.3,936.3,115.3,937.6,115.7L937.6,115.7z"/>
	<path class="st79" d="M919.8,119c0.8,4.2,2.3,10.5,1.8,12.9c-0.6,2.8-5.7,13.1-5.7,13.5c1.4,0.2,5.7,1.8,6.9,2.6
		c1.3-1.6,6.3-10.5,6.6-11.9c0.3-1.4,3.6-12.4,3.6-21.9c-0.3-1.1-0.7-2.3-1.4-3.8c0.5,4.5,0.6,8.6,0.6,9.4
		C927.7,120.3,922.7,119.8,919.8,119L919.8,119z"/>
	<path class="st80" d="M929.7,158c0.3,0.6,0,1.6-0.6,2c-0.8,0.5-6.3,1.9-8,1.5c-1.7-0.4-4.7-2.5-5.8-2.5c-1.1,0-3.9-0.5-4.5-1.5
		c-0.2-0.4,0.2-1.4,0.9-2.5c0.5,0.9,1.2,2.1,2,2.1c1.9,0.2,6,1.4,7.5,2.3C923.1,160.7,927.6,159.2,929.7,158L929.7,158z"/>
	<path class="st81" d="M919.2,152.5c0,0.1,0,0.1,0.1,0.2c0.3,0.9,1.9,2.2,3.2,3.1c0.9,0.6,1.7,1,2,0.9c0.8-0.1,4,0.5,4.8,0.9
		c0.2,0.1,0.3,0.2,0.4,0.4c-2,1.2-6.5,2.7-8.6,1.4c-1.4-0.9-5.6-2.1-7.5-2.3c-0.8-0.1-1.5-1.2-2-2.1c0.1-0.2,0.3-0.5,0.5-0.7
		c0.4-0.6,0.8-1.2,1.3-1.7C916.2,156.1,916.8,153.1,919.2,152.5L919.2,152.5z"/>
	<path class="st82" d="M918.8,141.3c1.2-0.6,3.2,1.5,3.8,1.8c-0.8,2.1-3.4,8.2-3.4,9.1c0,0.8,0,0.2,0,0.2c-2.4,0.7-3,3.7-5.9,0
		c0.2-0.2,0.4-0.4,0.5-0.7c0.5-0.6,0.9-1.1,1.2-1.4C915.8,149.6,918.4,141.5,918.8,141.3L918.8,141.3z"/>
	<polygon class="st83" points="917.4,138.6 926.9,142.9 923.8,149.7 914.3,145.4 917.4,138.6 	"/>
	<path class="st84" d="M926.9,85.5c-2.1-4.3-5.4-8.8-8.8-8.1c-3.7,0.7-5,5.7-1.4,11.7c0.4-1.6,0.7-2.8,1.2-3.1
		c0.5-0.3,4.1,0.4,6.3,2.2c-0.3-3,0.1-4.7,0.4-4.9C924.9,83.1,926.2,84.8,926.9,85.5L926.9,85.5z"/>
	<path class="st82" d="M917.2,74.9L917.2,74.9c1.5,0,2.6,0.8,3.2,2.2l1.4,3.3l2.7,8.2l-9.2-6.3l-0.3-4.2
		C915,76.6,915.8,75.2,917.2,74.9L917.2,74.9z"/>
	<polygon class="st85" points="922.8,83.3 924.5,88.6 918.8,84.7 922.8,83.3 	"/>
	<path class="st86" d="M896.5,47.5c-0.2,0.1-0.3,0.2-0.5,0.4c-2.1,1.7-3.7,4.4-4,6.7c0.4-0.9,2.4-3.1,4.8-2.2
		c-6.9,0.5-6.7,9.4-3.8,11.7c-1-2.1-1.4-4.9,1.1-6.4l0.2-0.1c-5,5,5.2,11.8,6.6,13.8c1.4,2,2.1,7.5,3.8,8.7c1.1,0.8,5.9,1.7,9.9,1.3
		c1.6-0.1,3-0.5,4.2-1.1c-0.9-2.4-1.9-4.8-2.8-6.8C913.7,68.5,904.6,54.7,896.5,47.5L896.5,47.5z"/>
	<path class="st86" d="M925.1,67.1c-0.5-2.2-5.1-6.2-6.6-8.9c-1.6-2.7-2.2-7.1-4-8.9c-1.8-1.8-3.9-1.7-4.2,0.4
		c-1.1-6.6-8-6.1-10.8-4c2.9-0.7,4.6,0.5,5.4,2.5c-2.7-2.9-5.8-2.5-8.3-0.7c8.1,7.2,17.3,21,19.6,25.9c0.9,1.9,1.9,4.3,2.8,6.8
		c0.3-0.1,0.5-0.3,0.8-0.5C923.4,76.9,925.6,69.3,925.1,67.1L925.1,67.1z"/>
	<path class="st82" d="M902.7,53.9c3-1.6,9.4-3.3,11-1.2c1.8,2.5,7.7,10.9,7.8,13.1c0.1,2.1-5.5,2.8-7.4,4
		C911.4,65.4,907.2,59.2,902.7,53.9L902.7,53.9z"/>
	<path class="st87" d="M914,69.8c-1,0.6-2.2,2.4-3.5,4c-1.1,1.3-2.2,2.5-3.2,2.6c-2.2,0.2-9.3-9.9-10-11.3c-0.6-1.2,1.4-6.5,3.2-9.2
		c0.4-0.5,0.7-1,1-1.2c0.3-0.2,0.7-0.5,1.1-0.7C907.2,59.2,911.4,65.4,914,69.8C914,69.7,914,69.7,914,69.8L914,69.8z"/>
	<path class="st82" d="M918.8,55.9c-0.4,0.2-0.8,0.5-1.1,0.8c0.2,0.5,0.5,1,0.7,1.5c0.6,0.9,1.5,2,2.5,3.2c1.3-0.5,1.8-2.1,1.3-3.6
		C921.6,56.3,920.1,55.4,918.8,55.9L918.8,55.9z"/>
	<path class="st87" d="M897.7,70.2c-0.9,1-0.7,2.8,0.5,3.8c1.2,1.1,2.9,1.1,3.9,0.1c0,0,0,0,0.1-0.1c-0.4-1.1-0.7-2.1-1.2-2.7
		c-0.3-0.4-1-1.1-1.8-1.9C898.6,69.5,898.1,69.8,897.7,70.2L897.7,70.2z"/>
	<path class="st87" d="M914.7,70.7c-0.1,0.1-0.2,0.1-0.3,0.2c-0.1,0.1,0.3-0.3-0.3,0.2c-0.6,0.5-3.2,3.3-3,4.3c0.1,1,2.2,3,3.4,2.7
		c1.2-0.4,1.8-1.5,2.5-2.4c0.1-0.1,0.1-0.1,0.2-0.2C916.5,73.9,915.7,72.2,914.7,70.7L914.7,70.7z"/>
	<path class="st82" d="M919.2,69c-1-0.1-3.1,0.9-4.5,1.7c0.9,1.5,1.7,3.2,2.4,4.9c0.2-0.2,0.4-0.4,0.5-0.6c1-0.8,2.6-0.4,3.3-1.8
		C921.7,71.9,920.2,69.1,919.2,69L919.2,69z"/>
	<path class="st85" d="M919.2,69.2c-1,1.8-5.1,4.8-7.8,6.1C915.5,75.6,917.9,74.9,919.2,69.2L919.2,69.2z"/>
	<path class="st88" d="M911.7,59.5c-0.4,0.4-0.2,1.2,0.4,1.8c0.6,0.6,1.4,0.8,1.8,0.4c0.4-0.4,0.2-1.2-0.4-1.8
		C912.9,59.3,912.1,59.1,911.7,59.5L911.7,59.5z"/>
	<path class="st88" d="M904.2,64.6c-0.5,0.2-0.8,1-0.5,1.8c0.2,0.8,0.9,1.4,1.4,1.2c0.5-0.2,0.8-1,0.5-1.8
		C905.3,65,904.7,64.5,904.2,64.6L904.2,64.6z"/>
	<path class="st89" d="M914.6,54.8l-4.3,2.9c-0.7,0.5-1.2,1.2-1.4,2c-0.2,0.8-0.1,1.6,0.3,2.2c0.1,0.2,0.2,0.3,0.3,0.4l-1.5,1
		c-0.1-0.1-0.2-0.3-0.3-0.5c-0.4-0.7-1.2-1-2-1.1c-0.8-0.1-1.6,0.1-2.3,0.6l-4.3,2.9c-0.7,0.5-1.2,1.2-1.4,2
		c-0.2,0.8-0.1,1.6,0.3,2.2c1.8,2.7,4.3,3.6,6.4,3.2c0.8-0.1,1.6-0.4,2.3-0.9c0.7-0.5,1.2-1.1,1.7-1.8c1-1.7,1.1-3.9-0.2-6.3
		l1.6-1.1c1.8,2.1,3.9,2.7,5.8,2.5c0.8-0.1,1.6-0.4,2.3-0.9c0.7-0.5,1.2-1.1,1.7-1.8c1.1-1.9,1.1-4.4-0.7-7.1c-0.4-0.7-1.2-1-2-1.1
		C916.2,54.1,915.4,54.3,914.6,54.8L914.6,54.8z M899.7,66l4.3-2.9c0.6-0.4,1.2-0.5,1.8-0.5c0.6,0.1,1,0.3,1.4,0.8
		c1.6,2.4,1.6,4.6,0.7,6.2c-0.4,0.6-0.8,1.1-1.4,1.5c-0.6,0.4-1.2,0.7-1.9,0.8c-1.8,0.3-3.9-0.5-5.6-2.9c-0.3-0.4-0.4-1-0.2-1.5
		C898.8,66.9,899.2,66.4,899.7,66L899.7,66z M910.8,58.4l4.3-2.9c0.6-0.4,1.2-0.5,1.8-0.5c0.6,0.1,1,0.3,1.4,0.8
		c1.6,2.4,1.6,4.6,0.7,6.2c-0.4,0.6-0.8,1.1-1.4,1.5c-0.6,0.4-1.2,0.7-1.9,0.8c-1.8,0.3-3.9-0.5-5.6-2.9c-0.3-0.4-0.4-1-0.2-1.5
		C909.9,59.3,910.3,58.8,910.8,58.4L910.8,58.4z"/>
	<polygon class="st90" points="913.8,69.4 915.8,68.2 912.8,65.5 909.8,62.9 913.8,69.4 	"/>
	<polygon class="st82" points="909.8,62.9 909.8,63 910.8,66.7 911.8,70.6 913.8,69.4 913.8,69.4 909.8,62.9 	"/>
	<path class="st88" d="M901.1,59.7l-0.9,0.9c-0.2,0.3-0.2,0.7,0,0.9l0,0c0.3,0.2,0.7,0.2,0.9,0l0.9-0.9c0.2-0.3,0.2-0.7,0-0.9v0
		C901.7,59.4,901.3,59.4,901.1,59.7L901.1,59.7z"/>
	<path class="st88" d="M909.3,54.1l-1.2,0.5c-0.3,0.1-0.5,0.5-0.3,0.8v0c0.1,0.3,0.5,0.5,0.8,0.3l1.2-0.5c0.3-0.1,0.5-0.5,0.3-0.8v0
		C910,54.1,909.6,54,909.3,54.1L909.3,54.1z"/>
	<g>
		<polygon class="st91" points="929.3,69.1 967.1,66.6 967.1,112.4 929.3,112.4 		"/>
		<polygon class="st92" points="979,72 967.1,66.6 967.1,112.4 979,112.4 		"/>
		<polygon class="st93" points="951.8,67.7 951.8,112.4 945.5,112.4 945.5,68.1 		"/>
		<polygon class="st93" points="979,96.3 967.1,93.7 929.3,95 929.3,85.7 967.1,84.5 967.8,84.5 979,88 979,91.7 		"/>
		<polygon class="st93" points="975.3,70.3 975.3,112.4 971.8,112.4 971.8,68.7 		"/>
		<g>
			<path class="st45" d="M939.6,90.3c-0.1,0.5-0.4,1-0.9,1.3c-0.4,0.3-1,0.5-1.5,0.6c0,0,0,0-0.1,0c-0.1,0-0.2-0.2-0.3-0.5
				c-0.1-0.4-0.2-0.6-0.2-0.7c0,0,0,0,0.1-0.1c0.3,0,0.5-0.1,0.8-0.2c0.3-0.1,0.5-0.3,0.5-0.6c0-0.2,0-0.4-0.2-0.6
				c-0.2-0.3-0.4-0.5-0.4-0.6c-0.1-0.3-0.2-0.6-0.1-0.9c0.1-0.5,0.4-0.9,0.9-1.2c0.4-0.3,0.9-0.4,1.4-0.5c0,0,0.1,0,0.1,0
				c0,0,0.1,0,0.1,0.1c0.1,0.3,0.2,0.7,0.3,1c0,0,0,0,0,0c0,0,0,0.1-0.1,0.1c0,0,0,0,0,0c0,0-0.1,0-0.1,0c0,0-0.1,0-0.1,0
				c-0.2,0-0.3,0-0.5,0.1c-0.2,0.1-0.3,0.2-0.3,0.4c0,0.2,0,0.3,0.2,0.6c0.3,0.4,0.4,0.6,0.4,0.6C939.6,89.7,939.6,90,939.6,90.3z"
				/>
			<path class="st45" d="M944.2,89.3l-0.5,2.6c0,0.1-0.1,0.1-0.1,0.1c-0.1,0-0.3,0-0.6,0c-0.2,0-0.4,0-0.6,0c-0.1,0-0.1-0.1-0.1-0.2
				c0-0.2,0.1-0.5,0.2-1c0.1-0.4,0.1-0.8,0.2-1c0.1-0.3-0.1-0.4-0.4-0.4c-0.1,0-0.3,0.1-0.4,0.1c-0.2,0.1-0.3,0.2-0.3,0.3l-0.2,0.9
				c0,0.1-0.1,0.3-0.1,0.6c0,0.2-0.1,0.4-0.1,0.6c0,0.1-0.1,0.1-0.1,0.2c-0.1,0-0.3,0-0.7,0c-0.1,0-0.3,0-0.4,0
				c-0.1,0-0.1-0.1-0.1-0.1c0-0.2,0.1-0.5,0.2-0.9c0.1-0.4,0.1-0.7,0.2-0.9c0.1-0.8,0.3-1.5,0.3-2.1c0-0.2,0.1-0.4,0.1-0.6
				c0-0.2,0-0.4,0-0.6c0,0,0,0,0-0.1c0,0,0-0.1,0.1-0.1c0.1,0,0.2,0,0.4,0c0.2,0,0.3,0,0.4,0l0.7-0.1c0,0,0.1,0,0,0.1
				c0,0.1,0,0.2-0.1,0.3c0,0.2-0.1,0.3-0.1,0.3c-0.1,0.6-0.2,1-0.3,1.4c0,0.1,0,0.1,0,0.1c0,0,0.1,0,0.2-0.1
				c0.1-0.1,0.3-0.2,0.5-0.2c0.2-0.1,0.4-0.1,0.6-0.1c0.3,0,0.6,0.1,0.8,0.3C944.2,88.7,944.3,89,944.2,89.3z"/>
			<path class="st45" d="M946.1,90.3c0,0.2-0.1,0.5-0.1,0.8c-0.1,0.4-0.1,0.6-0.1,0.8c0,0.1-0.1,0.1-0.1,0.1c-0.2,0-0.4,0-0.6,0
				c-0.2,0-0.4,0-0.6,0c-0.1,0-0.1,0-0.1,0c0,0,0-0.1,0-0.1c0-0.2,0.1-0.4,0.2-0.8c0.1-0.4,0.1-0.6,0.2-0.8c0.1-0.6,0.2-1.1,0.2-1.7
				c0,0,0-0.1,0-0.1c0-0.1,0-0.1,0.1-0.1c0.1,0,0.2,0,0.3,0c0.1,0,0.3,0,0.3,0c0.1,0,0.2,0,0.3,0c0.1,0,0.3,0,0.3,0
				c0.1,0,0.1,0,0.1,0.1c0,0,0,0,0,0.1C946.3,89.1,946.2,89.7,946.1,90.3z M946.7,87.5c-0.1,0.4-0.4,0.7-0.9,0.7
				c-0.2,0-0.4,0-0.5-0.2c-0.1-0.1-0.2-0.3-0.1-0.5c0-0.2,0.2-0.4,0.3-0.5c0.2-0.1,0.4-0.2,0.6-0.2c0.2,0,0.4,0.1,0.5,0.2
				C946.6,87.1,946.7,87.3,946.7,87.5L946.7,87.5z"/>
			<path class="st45" d="M951,90.2c-0.1,0.5-0.3,1-0.7,1.4c-0.4,0.4-0.9,0.6-1.4,0.6c-0.2,0-0.4-0.1-0.6-0.1
				c-0.2-0.1-0.3-0.1-0.3-0.1c0,0-0.1,0-0.1,0.1c0,0.1-0.1,0.3-0.1,0.6c0,0.3-0.1,0.5-0.1,0.6c0,0.1-0.1,0.1-0.1,0.1c0,0,0,0,0,0
				l-0.8,0c-0.1,0-0.2,0-0.3,0c-0.1,0-0.1-0.1-0.1-0.1c0,0,0,0,0,0l0.5-2.9c0.1-0.5,0.1-1,0.1-1.5c0,0,0,0,0-0.1c0,0,0-0.1,0.1-0.1
				c0.2-0.1,0.4-0.1,0.6-0.1c0.2,0,0.4-0.1,0.6-0.1c0.1,0,0.1,0.1,0.1,0.2c0,0.1,0,0.2,0,0.2c0,0,0.1-0.1,0.4-0.2
				c0.3-0.1,0.5-0.2,0.7-0.2c0.6,0,1,0.2,1.2,0.5C951,89.2,951.1,89.6,951,90.2z M949.6,90.2c0-0.2,0-0.4-0.1-0.5
				c-0.1-0.2-0.3-0.2-0.5-0.2c-0.2,0-0.4,0.1-0.5,0.2c-0.1,0.2-0.2,0.3-0.3,0.5c0,0.2,0,0.4,0.1,0.5c0.1,0.2,0.2,0.2,0.5,0.2
				C949.2,91,949.5,90.7,949.6,90.2L949.6,90.2z"/>
			<path class="st45" d="M952.9,90.3c0,0.2-0.1,0.5-0.1,0.8c-0.1,0.4-0.1,0.6-0.1,0.8c0,0.1-0.1,0.1-0.1,0.1c-0.2,0-0.4,0-0.6,0
				c-0.2,0-0.4,0-0.6,0c-0.1,0-0.1,0-0.1,0c0,0,0-0.1,0-0.1c0-0.2,0.1-0.4,0.2-0.8c0.1-0.4,0.1-0.6,0.2-0.8c0.1-0.6,0.2-1.1,0.2-1.7
				c0,0,0-0.1,0-0.1c0-0.1,0-0.1,0.1-0.1c0.1,0,0.2,0,0.3,0c0.1,0,0.3,0,0.3,0c0.1,0,0.2,0,0.3,0c0.1,0,0.3,0,0.3,0
				c0.1,0,0.1,0,0.1,0.1c0,0,0,0,0,0.1C953.2,89.1,953,89.7,952.9,90.3z M953.5,87.5c-0.1,0.4-0.4,0.7-0.9,0.7c-0.2,0-0.4,0-0.5-0.2
				c-0.1-0.1-0.2-0.3-0.1-0.5c0-0.2,0.2-0.4,0.3-0.5c0.2-0.1,0.4-0.2,0.6-0.2c0.2,0,0.4,0.1,0.5,0.2
				C953.5,87.1,953.6,87.3,953.5,87.5L953.5,87.5z"/>
			<path class="st45" d="M956.1,90.9c0,0.1-0.1,0.2-0.1,0.3c0,0.1-0.1,0.2-0.1,0.3c0,0,0,0.1,0,0.1c0,0-0.1,0.1-0.1,0.1
				c-0.4,0.2-0.7,0.3-1.1,0.3c-0.7,0-1.1-0.3-1-0.8c0-0.2,0.1-0.4,0.2-0.8c0.1-0.3,0.1-0.6,0.2-0.8c0-0.1,0-0.2-0.2-0.2h0
				c0,0,0,0-0.1,0c-0.1,0-0.1,0-0.1-0.1c0,0,0-0.1,0-0.2c0-0.1,0-0.1,0-0.2c0-0.1,0-0.1,0-0.2s0-0.2,0-0.2c0-0.1,0.1-0.1,0.3-0.1
				c0.1,0,0.1,0,0.2-0.1c0-0.2,0.1-0.3,0.1-0.5c0-0.3,0.1-0.5,0.1-0.5c0.1-0.3,0.1-0.4,0.2-0.4c0.1,0,0.2,0,0.3,0
				c0.1,0,0.2,0,0.3,0.1c0.1,0,0.3,0,0.6,0.1c0.1,0,0.1,0,0.1,0.1c0,0.1-0.1,0.3-0.1,0.5c-0.1,0.2-0.1,0.4-0.1,0.5
				c0,0.1,0,0.2,0.1,0.2c0.1,0,0.2,0,0.4,0c0.2,0,0.3,0,0.4,0c0.1,0,0.1,0,0.1,0.1c0,0.1,0,0.1-0.1,0.3s-0.1,0.2-0.1,0.3
				c0,0.1,0,0.2,0,0.3s0,0.2,0,0.3c0,0.1-0.1,0.1-0.1,0.1c-0.1,0-0.1,0-0.3,0c-0.1,0-0.2,0-0.3,0h-0.3c0,0-0.1,0.1-0.1,0.2l0,0.3
				c0,0.1,0,0.2,0,0.3c0,0.2,0,0.4,0,0.4c0,0.1,0.2,0.2,0.4,0.2c0.1,0,0.2,0,0.3,0C955.9,90.9,956,90.9,956.1,90.9
				C956.1,90.8,956.1,90.9,956.1,90.9z"/>
			<path class="st45" d="M960.3,90.2c-0.1,0.5-0.4,1-0.8,1.4c-0.4,0.4-0.9,0.6-1.5,0.5c-0.6,0-1-0.2-1.3-0.5
				c-0.3-0.4-0.4-0.8-0.3-1.4c0.1-0.6,0.4-1.1,0.8-1.4c0.4-0.4,0.9-0.6,1.5-0.6c0.6,0,1,0.2,1.3,0.5
				C960.3,89.1,960.4,89.6,960.3,90.2z M959.1,90.2c0-0.2,0-0.4-0.1-0.5c-0.1-0.2-0.3-0.2-0.4-0.2c-0.2,0-0.4,0.1-0.5,0.2
				c-0.1,0.1-0.2,0.3-0.3,0.5c0,0.2,0,0.4,0.1,0.5c0.1,0.2,0.3,0.2,0.5,0.2c0.2,0,0.4-0.1,0.5-0.2C958.9,90.6,959,90.4,959.1,90.2z"
				/>
			<path class="st45" d="M960.6,87.5C960.6,87.5,960.6,87.5,960.6,87.5C960.6,87.5,960.6,87.5,960.6,87.5c-0.1,0-0.1,0-0.1,0h0
				c0,0,0,0,0,0l0,0c0,0,0-0.1,0-0.1c0,0,0,0,0,0h0c0,0,0,0,0,0c0,0,0,0,0,0.1s0,0.1,0,0.1c0,0,0,0,0,0h0h-0.1c0,0,0,0-0.1,0
				c0,0,0,0,0,0c0,0,0-0.1,0-0.1c0-0.1,0-0.1,0-0.1c0-0.1,0-0.2,0-0.2v0c0,0,0,0,0,0c0,0,0,0,0.1,0h0.1c0,0,0.1,0,0.1,0
				c0,0,0.1,0.1,0.1,0.1c0,0,0,0.1,0,0.1c0,0,0,0-0.1,0.1c0,0,0,0,0,0L960.6,87.5C960.6,87.5,960.6,87.5,960.6,87.5z M960.5,87.2
				C960.5,87.2,960.5,87.2,960.5,87.2C960.4,87.1,960.4,87.1,960.5,87.2c-0.1-0.1-0.1-0.1-0.1-0.1c0,0,0,0,0,0.1c0,0,0,0,0,0
				c0,0,0,0,0,0c0,0,0,0,0,0C960.4,87.3,960.4,87.3,960.5,87.2C960.4,87.3,960.5,87.2,960.5,87.2L960.5,87.2z"/>
			<path class="st45" d="M960.4,87.8c-0.3,0-0.5-0.2-0.5-0.5c0-0.3,0.2-0.5,0.5-0.5c0.3,0,0.5,0.2,0.5,0.5l0,0
				C960.9,87.6,960.7,87.8,960.4,87.8z M960.4,86.9c-0.2,0-0.4,0.2-0.4,0.4c0,0.2,0.2,0.4,0.4,0.4c0.2,0,0.4-0.2,0.4-0.4
				c0,0,0,0,0,0C960.8,87.1,960.6,86.9,960.4,86.9z"/>
		</g>
	</g>
	<path class="st82" d="M943.6,114.8l-1.5-4.1c-0.1,0-0.1,0-0.2,0.1l0.8,3.4c0.3,1.1-1.4,1.5-1.7,0.4l-0.8-3.3c-0.1,0-0.2,0-0.2,0
		l0.3,2.4c0.1,0.9-1.3,1-1.4,0.1l-0.3-2.6c0,0-0.1-0.1-0.1-0.1c-0.4-1-0.9-2.7-0.9-4.2c0-0.7,0.2-1.5,1-1.8c1.4-0.5,2.4-1,3.8-1
		l3.9-0.1c0.6,0,1.1,0.5,1.2,1.1l0,0c0,0.6-0.5,1.1-1.1,1.2l-2.4,0.1c0.5,0.9,0.9,1.8,1.1,2.5c0,0,0,0,0,0c0.1,0.1,0.1,0.1,0.1,0.2
		l1.8,3.1c0.6,1-1,1.8-1.5,0.8l-1.7-2.9c0,0-0.1,0-0.1,0.1l1.5,4.2C945.6,115.2,944,115.8,943.6,114.8L943.6,114.8z"/>
	<polygon class="st82" points="940.1,107.6 941.5,104.6 934.2,101.2 932.8,104.1 940.1,107.6 	"/>
	<path class="st77" d="M929.4,105.3c-5.5-1.7-12-4.5-16-7.5c-0.1-0.2-0.2-0.4-0.3-0.6c-1.1-2.1-1.6-7.8-1.1-10.2
		c0.1-0.7,0.3-1.4,0.6-2.2c7.1,6.5,12.4,10.7,19.5,14.1L929.4,105.3L929.4,105.3z"/>
	<polygon class="st94" points="932.4,98.3 937.4,100.5 934.1,108.2 929.1,106 932.4,98.3 	"/>
</g>
<g>
	<g>
		<g>
			<g>
				<g>
					<g>
						<rect x="1022.7" y="133.9" class="st91" width="48.3" height="36.2"/>
						<rect x="1021.5" y="127.4" class="st91" width="50.6" height="8.4"/>
						<rect x="1024.7" y="137.6" class="st95" width="12.5" height="3.2"/>
						<rect x="1024.7" y="142.3" class="st95" width="12.5" height="1.2"/>
						<rect x="1055.4" y="160.9" class="st5" width="14.5" height="7.7"/>
						<g>
							<rect x="1056.4" y="161.5" class="st95" width="1.5" height="6.4"/>
							
								<rect x="1058.9" y="161.5" transform="matrix(1 -1.961185e-03 1.961185e-03 1 -0.3211 2.0782)" class="st95" width="1.3" height="6.4"/>
							
								<rect x="1058.9" y="163.7" transform="matrix(1.277482e-03 -1 1 1.277482e-03 896.0325 1226.6783)" class="st95" width="6.4" height="2"/>
							
								<rect x="1061.2" y="164.4" transform="matrix(3.264588e-03 -1 1 3.264588e-03 896.1516 1228.5798)" class="st95" width="6.4" height="0.8"/>
							
								<rect x="1065.5" y="161.5" transform="matrix(1 -1.545342e-03 1.545342e-03 1 -0.2533 1.6481)" class="st95" width="1.7" height="6.4"/>
							<rect x="1068.2" y="161.5" class="st95" width="0.6" height="6.4"/>
						</g>
						<g>
							<polygon class="st95" points="1029.3,161.7 1028.4,160 1027.4,158.3 1026.4,160 1025.4,161.7 1026.4,161.7 1026.4,166.6 
								1028.3,166.6 1028.3,161.7 							"/>
							<rect x="1025.3" y="167" class="st95" width="4.2" height="0.8"/>
						</g>
						<polygon class="st96" points="1043.1,135.8 1043.1,143.9 1047.1,140.1 1050.9,143.9 1050.9,135.8 						"/>
						<rect x="1043.1" y="127.4" class="st97" width="7.9" height="8.4"/>
					</g>
				</g>
			</g>
		</g>
		<rect x="1022.6" y="135.8" class="st98" width="48.3" height="1.3"/>
	</g>
	<g>
		<g>
			<g>
				<g>
					<g>
						<g>
							<path class="st99" d="M1031.1,163.5c-0.3,1-1.3,1.6-2.3,1.3l-6.2-1.2l3.7,3.6l4.7,1.8l5.5,1c0,0,1,0.6,0.7,1.3
								c-0.2,0.5-1.6,0.6-2.7,0.7c-1.1,0.1-2,0.3-2,0.3s-3-0.1-4.2-0.2c-1.2-0.1-9-2.5-9-2.5l-22.4-18.1l6.9-6.9l9.1,9.1l1.6,1.6
								l6.7,3.4l8.4,2.6C1030.8,161.5,1031.4,162.5,1031.1,163.5z"/>
							<path class="st100" d="M1027.9,164L1027.9,164L1027.9,164C1027.9,164,1027.9,164,1027.9,164c0.1,0,0.1,0,0.1,0l0.9,0.3
								c0.7,0.2,1.5-0.2,1.7-0.9c0.2-0.7-0.2-1.5-0.9-1.7l-0.9-0.2c0,0,0,0-0.1,0c0,0-0.1,0-0.1,0l0,0l0,0c-0.2,0-0.4,0.1-0.5,0.3
								l-0.5,1.7C1027.5,163.6,1027.6,163.9,1027.9,164z"/>
							<path class="st101" d="M1028.6,161.4C1028.6,161.4,1028.6,161.4,1028.6,161.4c-0.3,0-0.4,0.1-0.5,0.3l-0.5,1.7
								c-0.1,0.2,0,0.5,0.3,0.6l0,0l0,0c0,0,0,0,0,0c0.3-0.1,0.5-0.2,0.7-0.4C1029.2,163,1029.2,162,1028.6,161.4z"/>
						</g>
					</g>
					<g>
						
							<linearGradient id="SVGID_1_" gradientUnits="userSpaceOnUse" x1="-411.6115" y1="865.7956" x2="-399.2272" y2="865.7956" gradientTransform="matrix(-0.709 0.7052 -0.7052 -0.709 1331.3799 1055.0099)">
							<stop  offset="0" style="stop-color:#FFFFFF"/>
							<stop  offset="1" style="stop-color:#F5F6F7"/>
						</linearGradient>
						<polygon class="st102" points="1011.2,149.4 1002.4,158.2 1005.3,161.1 1014.1,152.3 						"/>
						
							<rect x="995.8" y="141.5" transform="matrix(0.709 -0.7052 0.7052 0.709 186.7296 750.6558)" class="st103" width="14.1" height="15.2"/>
						<path class="st104" d="M1012.4,152.1c-0.2-0.2-0.5-0.2-0.7,0c-0.2,0.2-0.2,0.5,0,0.7c0.2,0.2,0.5,0.2,0.7,0
							C1012.6,152.6,1012.6,152.3,1012.4,152.1z"/>
					</g>
				</g>
			</g>
			<g>
				<path class="st101" d="M1036.6,170.5c0,0-2.4,0-2,1.4c0,0,0.9-0.1,1.2-0.1c0.9-0.1,1.1-0.3,1.1-0.3S1037,171.1,1036.6,170.5z"/>
				<path class="st101" d="M1035.2,171.4c-0.1-0.1-0.2-0.3-0.4-0.4c-0.3,0.2-0.4,0.5-0.3,0.9l0.8-0.1
					C1035.3,171.7,1035.3,171.5,1035.2,171.4z"/>
			</g>
		</g>
		<g>
			<g>
				<g>
					<g>
						<g>
							<path class="st99" d="M1063.7,163.5c0.3,1,1.3,1.6,2.3,1.3l6.2-1.2l-3.7,3.6l-4.7,1.8l-5.5,1c0,0-1,0.6-0.7,1.3
								c0.2,0.5,1.6,0.6,2.7,0.7c1.1,0.1,2,0.3,2,0.3s3-0.1,4.2-0.2c1.2-0.1,9-2.5,9-2.5l22.4-18.1l-6.9-6.9l-9.1,9.1l-1.6,1.6
								l-6.7,3.4l-8.4,2.6C1064,161.5,1063.4,162.5,1063.7,163.5z"/>
							<path class="st100" d="M1066.9,164L1066.9,164L1066.9,164C1066.9,164,1066.9,164,1066.9,164c-0.1,0-0.1,0-0.1,0l-0.9,0.3
								c-0.7,0.2-1.5-0.2-1.7-0.9c-0.2-0.7,0.2-1.5,0.9-1.7l0.9-0.2c0,0,0,0,0.1,0c0,0,0.1,0,0.1,0l0,0l0,0c0.2,0,0.4,0.1,0.5,0.3
								l0.5,1.7C1067.3,163.6,1067.1,163.9,1066.9,164z"/>
							<path class="st101" d="M1066.1,161.4C1066.2,161.4,1066.2,161.4,1066.1,161.4c0.3,0,0.4,0.1,0.5,0.3l0.5,1.7
								c0.1,0.2,0,0.5-0.3,0.6l0,0v0c0,0,0,0,0,0c-0.3-0.1-0.5-0.2-0.7-0.4C1065.5,163,1065.5,162,1066.1,161.4z"/>
						</g>
					</g>
					<g>
						
							<linearGradient id="SVGID_2_" gradientUnits="userSpaceOnUse" x1="-39.358" y1="1236.056" x2="-26.9726" y2="1236.056" gradientTransform="matrix(0.709 0.7052 0.7052 -0.709 238.3377 1055.0099)">
							<stop  offset="0" style="stop-color:#FFFFFF"/>
							<stop  offset="1" style="stop-color:#F5F6F7"/>
						</linearGradient>
						<polygon class="st105" points="1083.5,149.4 1092.3,158.2 1089.4,161.1 1080.7,152.3 						"/>
						
							<rect x="1084.3" y="142" transform="matrix(0.7051 -0.7091 0.7091 0.7051 216.2911 818.2211)" class="st103" width="15.2" height="14.1"/>
						<path class="st104" d="M1082.3,152c0.2-0.2,0.5-0.2,0.7,0c0.2,0.2,0.2,0.5,0,0.7c-0.2,0.2-0.5,0.2-0.7,0
							C1082.1,152.6,1082.1,152.3,1082.3,152z"/>
					</g>
				</g>
			</g>
			<g>
				<path class="st101" d="M1058.2,170.5c0,0,2.4,0,2,1.4c0,0-0.9-0.1-1.2-0.1c-0.9-0.1-1.1-0.3-1.1-0.3S1057.8,171.1,1058.2,170.5z
					"/>
				<path class="st101" d="M1059.5,171.4c0.1-0.1,0.2-0.3,0.4-0.4c0.3,0.2,0.4,0.5,0.3,0.9l-0.8-0.1
					C1059.4,171.7,1059.5,171.5,1059.5,171.4z"/>
			</g>
		</g>
	</g>
</g>
</svg>
