<?xml version="1.0" encoding="utf-8"?>
<!-- Generator: Adobe Illustrator 27.3.1, SVG Export Plug-In . SVG Version: 6.00 Build 0)  -->
<svg version="1.1" id="Layer_1" xmlns="http://www.w3.org/2000/svg" xmlns:xlink="http://www.w3.org/1999/xlink" x="0px" y="0px"
	 viewBox="0 0 374 234" style="enable-background:new 0 0 374 234;" xml:space="preserve">
<style type="text/css">
	.st0{fill:#ACACAC;}
	.st1{fill:#00A2C6;}
	.st2{fill:#FFFFFF;stroke:#00A2C6;stroke-miterlimit:10;}
	.st3{fill:#BCDE55;}
	.st4{fill:#FFFFFF;}
	.st5{opacity:0.2;enable-background:new    ;}
</style>
<rect x="0.3" y="-1.2" class="st0" width="375.7" height="235.7"/>
<path class="st1" d="M358.1,60.6c-0.1,0-0.3,0.6-0.4,0.6c-0.2-0.1-0.8,0-0.8-0.2c0-0.3,0.4-0.3,0.4-0.3c0.2-0.4-0.1-0.5-0.2-0.7
	s-0.3-0.4-0.3-0.8c-0.2-0.4-0.1-0.4-0.2-0.5c-0.1-0.4-0.5-0.7-0.7-0.8c0,0-0.3,0-0.5,0c0.1,0.4-0.1,0.8-0.7-0.2
	c-0.4-0.7,0.6-0.6-0.1-1.9c-0.3-0.6,0.9,0.1,0.3-1c-0.2-0.4-0.6-0.2-1-0.2s-0.5-0.2-0.7-0.4s-0.5-0.1-0.5-0.6s0.5-0.4,0.5-0.7
	c0-0.4,0-9.6,0-10.2c0-0.6-0.3-0.3-0.5-0.5s-2.1-2.2-2.1-2.2c-0.1-0.1-0.3,0-0.7,0c-0.4,0,0.1,0.2-0.5,0.6c-0.3,0.2-0.4-0.3-0.7-0.3
	c-0.3,0,0,0.3-0.3,0.3c-0.4,0,0.5,0.4-1.1,0.4c-0.5,0,0.1,0.5-0.7,0.4c-0.3,0-0.7-0.5-0.8-0.9c-0.1-0.4,0.3,0,0.2-0.8
	c0-0.5-0.1-0.4-0.3-0.4c-0.4,0.1-0.3-0.4-0.8-0.4c-0.2,0-0.2-0.1-0.4,0.2c-0.2,0.3-4.3,6.2-4.6,6.4c-0.2,0.3-0.2,0.6-0.4,2
	c-0.1,0.4,0,0.5-0.5,0.8c-0.4,0.2-0.5,0.5-0.9,1.5c-0.3,0.7,0.2,0.3,0.2,0.9c0,0.3-0.6,0.1-0.3,0.5c0.3,0.4-0.4,0.2,0.2,0.8
	c0.2,0.2,0.1,0.5-0.1,0.5s0,0.4-0.4,0.4c-0.2,0-0.3,0.1-0.3,0.5s-0.1,0.7-0.5,0.7c-0.3,0-0.9,0.7-1.3,1.2c-0.5,0.6,0.7,0.9,0.4,1.4
	c-0.3,0.4-0.6-0.7-0.9-0.4c-0.2,0.1-0.2,0.3-0.1,0.7s-0.1,0.4-0.3,0.5c-0.3,0.4,0-0.6-0.7-0.6c-0.4,0,0,0.3-0.5,0.3
	c-0.3,0,0.1,0.6-0.5,0.5s-0.3-0.5-0.8-0.5c-0.3,0-0.3,0-0.3,0.2c0,0.3-0.7,0-0.6,0.3c0,0.3,0.3,0,0.3,0.5s-0.6,0.4-0.6,1.2
	c0,0-16.5-0.1-17.2,0c0-0.5-0.7,0.1-1.2,0.1s-1-0.5-1.3-0.1s-0.8-0.1-1.2,0.4c-0.3,0.4-1.5,0.9-2,1.3c-0.5,0.4-1.7,1.8-2.2,2.2
	c-0.4,0.4,0.6,0.5-0.8,1.5c-0.8,0.6-0.7,0.6-1,0.6s-0.4,0.4-1,0.6c0,0.1,0.1,0.2,0.1,0.3c0.3,0.3,0.8-0.1,0.8,0.4
	c0,0.4-0.1,0.5-0.5,0.5c0.1,0.6,0.4,1.6,0.2,2.1c-0.2,0.4-1.3,0.6-1.7,0.8c-0.3,0.1-1.2,0.4-1.2,0.8c0,0.7-1.5,0.1-1.3,0.7h-2
	c-0.3,0-1-0.2-0.8,0.2c-0.4,0-0.9,0.1-1.2-0.1c-0.3-0.2-0.4-0.6-0.8-0.6c-0.5-0.1-0.5-0.3-1-0.3h-2.1c-0.5,0-2.9-0.3-2.9,0.3
	c0,0.5-1.1,0.4-1.8,0.5c-0.1,0-0.2,0-0.3,0.1c0,1,0.2,1.3,0.5,1.6c0.3,0.3,0.5-0.1,0.7,0.5s-0.6,0.3-0.6,0.5s0.4,0.6,0.4,0.6
	c0.2,0.2,0.3,1.2,0.4,1.3c-0.3,0-0.5,0.2-0.8,0.3c0,0.6-0.3,0.5-0.8,0.5c0,0.3,0.1,0.6,0,0.9c-0.1,0.2-0.6,0.2-0.8,0.3
	c-0.6,0.3-0.8,1-1.4,1.2c-0.4,0.1-0.8,0.2-1.1,0.4c-0.4,0.2-0.5,0.6-0.8,0.7s-0.6-0.1-0.6,0.3c-0.2,0.4-0.6,0.1-0.9,0
	c0,1.3-2.4,1-3.1,1.6c-0.3,0.2-0.1,0.4-0.4,0.4c-0.2,0-0.3,0.6-0.3,0.8c-0.2,0-0.4,0-0.7,0c-0.1,0-0.2,0-0.3,0.1
	c-0.2,0.3-0.5,0.6-0.8,0.7c-0.4,0.1-0.6,0.1-0.8,0.4c-0.1,0.2-0.4,0.2-0.5,0.2c-1,0.2-1.1,1.6-2.3,1.6c0,0.7-1.4,0.2-1.8,0.2
	c-0.3-0.1-0.8-0.1-1,0.1c-0.5,0.5-0.6,0.4-1.4,0.4h-1.1c-0.5,0-0.4,0-0.5-0.4c-0.2-0.3-0.5-0.5-0.9-0.6c0,0.2-0.4,0.6-0.6,0.4
	c-0.1-0.1-0.1-0.2-0.1-0.3c-0.1-0.2-0.4-0.2-0.6-0.3c-0.5-0.2-0.9-0.5-1.4-0.6c-0.4-0.1-0.6,0-0.6-0.4c0-0.3,0.1-0.8,0.2-1.1
	c0.1-0.2,0.8-1.6,1.3-1.8c0.1,0,0.2,0,0.2,0c0.1-0.4,0-0.8,0-1.1c0-0.3,0.4-0.1,0.4-0.9c0-0.3,0.5-0.4,0.9-0.5
	c0.1,0,0.2-0.1,0.3-0.2c0,0-0.1,0-0.1-0.1c-0.4-0.4,0.2-1.6,0.3-2.1c0.3,0,0.7-0.1,1,0.1c0.2,0.1,0.3,0.3,0.4,0.4c0,0,0,0,0,0.1
	c0.2,0,0.3-0.3,0.3-0.7c0-0.4,0.1-1.6,0.3-2c0.1-0.2,0.3-0.9,0.6-1.6c-0.1,0-0.2,0-0.2,0l0,0c-0.3-0.2-0.6-1.1-0.7-1.3
	c-0.1-0.9-0.1-1.7-0.3-2.6c-0.2-0.7,0.2-2.1-0.5-2.5c-0.5-0.3-0.9-0.8-1.5-0.9c-0.4-0.1-1.4,0.5-1.9,0.6c-0.4,0.2-0.6,0.8-1,0.9
	c-0.6,0-0.4,1-0.9,1.3c-0.3,0.2-1,0.2-1.4,0.2c-1,0.1-0.9-1-0.9-1.5c0.6,0.1,0.1-0.4,0.3-0.6c0.2-0.2,0.7,0.1,1-0.1s0.3-0.6,0.8-0.6
	c0-0.3-0.1-0.4,0.2-0.5c0.2-0.1,0.2-0.3,0.2-0.4c0.1-0.2,0.6-0.2,0.6-0.6c0.1-0.5,0.6-0.5,0.5-1c0-0.6,0.1-1.3,0.1-1.9
	c0-0.3,0.3-1.1,0.1-1.3c-0.3-0.3-0.8-0.2-0.8-0.7s0.6-0.4,0.8-0.8c0.2-0.7-1.1-1.9-1.7-2.1c-0.5-0.1-1-0.3-1.4-0.6
	c-0.3-0.2,0-0.3-0.5-0.4c-0.3,0-0.6-0.1-0.8-0.1c-0.5-0.2-0.7-0.7-1.2-0.9c-0.3-0.1-0.6-0.2-0.9-0.3V54c-1,0-2.1,0.4-3.1,0
	c0,0.3-0.4,1-0.7,1.2c-0.2,0.1-0.4,0.1-0.6,0.2c0.1,0.4,0.1,0.8,0.2,1.2c0.1,0.4-0.1,0.5-0.5,0.5c-0.5,0.1-1,0.7-1.5,1
	c0.5,0.3,0.2,1.1,0.1,1.4c-0.1,0.4-0.2,0.2-0.4,0.5c-0.1,0.2,0,0.5-0.5,0.5c0,0-0.1-1.1-0.3-1c0.2-0.2,0.3,0,0.3-0.4
	c0-0.1-0.3-1-0.6-0.5c-0.1,0.2-0.2,0.3-0.3,0.5c0,0-0.1,0.1-0.2,0.1c-0.4,0-0.3,0.3-0.3,0.7c-0.2-0.1-0.3,0-0.3,0.2h-0.8
	c0,0.1,0,0.2-0.2,0.3c-0.1,0.1-0.2,0.1-0.4,0.1c-0.4,0.1-0.3,0.4-0.4,0.7c-0.1,0.3-0.1,1-0.6,1c-0.4,0.2-0.1,0.5,0,0.8
	c-0.7,0,0.2,1.1-0.5,0.9c0,0.2,0.1,0.6,0,0.8c0,0.2-0.3,0.2-0.4,0.4c-0.1,0.2-0.1,0.5-0.2,0.7c-0.2,0.4-0.4,0.1-0.4,0.6
	c0,0.4,0.4,2.5,0,2.6s0.2,1.4-0.4,1.4c-0.3,0.8,0.3,1.5,0.5,2.2c0.2,0.6,0.1,1.3,0.8,1.6c0,0.3-0.2,0.6,0.2,0.8
	c0.3,0.1,0.3,0.2,0.3,0.5c0,0.8,0.1,1.6,0.1,2.4c0,0.2,0,0.4,0,0.6c-0.1,0.3-0.3,0.2-0.3,0.5s0.1,0.6,0,0.9s-0.3,0.2-0.3,0.6
	c0,0.2-0.1,0.4-0.3,0.5c-0.4,0.2,0.1,0.7-0.4,0.9c-0.3,0.1-0.3,0.2-0.3,0.5c0.2,0.5-0.2,1-0.5,1.2c-0.2,0.2-0.2,0.4-0.3,0.7
	c-0.2,0.5-0.1,0.9-0.6,1c-0.2,0-0.3,0.4-0.4,0.6c-0.2,0.2-0.5,0.2-0.8,0.2s-0.5,0-0.8,0.1c-0.4,0.1-0.2,0.4-0.5,0.6
	s-0.6-0.3-0.9-0.3c-0.4-0.1-0.8-0.1-1.2,0.1c0-0.2,0-0.2-0.2-0.3c-0.2-0.1-0.2-0.5-0.2-0.7s0-0.7-0.2-0.8c-0.3-0.2-0.1-0.3-0.1-0.6
	c0-0.2-0.1-0.3-0.3-0.3c-0.2-0.5-0.3-1.6-0.5-2c-0.4,0-0.4-0.6-0.4-0.9c0-0.9,0-1.6,0.2-2.5c0.1-0.3,0.3-0.7,0.3-1
	c0-0.5-0.7-0.6-0.7-0.9c0-0.1,0.2-0.6,0.2-0.8c-0.1-0.1-0.2,0-0.3,0l0.2-0.9c-0.7,0.2-0.4-1.5-0.3-1.8c0.2-0.8,0.7-1.5,1-2.2
	c0.6-1.4,0.2-1.2-0.1-1.5c-0.2-0.2-0.1-0.4,0-0.5s0.1-0.2,0.3-0.6s0.2-0.6,0.4-1s0.4,0,0.6-0.4c0.2-0.3,0.1-0.6-0.1-0.8
	c-0.2-0.1-0.2-0.4-0.1-0.5c0.1-0.1,0.3-0.7,0.3-1.1s0.3-0.8,0.5-1.1s0.4-0.9,0.6-1.3c0.1-0.4,0.4-0.4,0.7-0.7
	c0.2-0.3,0.1-0.5,0.2-0.6c0-0.2,0.5-0.6,0.6-0.8s0.2-0.8,0.2-0.9c0-0.1,0.4,0,0.4-0.1c0.1-0.1-0.2-0.6-0.5-0.7
	c-0.3,0-0.4,0.3-0.5,0.6s-0.3,0.5-0.5,0.4c-0.1-0.1-0.3,0.2-0.4,0.5c0,0.4-0.1,0.4-0.3,0.7c-0.2,0.2-0.4,0.5-0.3,0.7
	c0,0.1,0.1,0.5,0,0.7s-0.3-0.2-0.4-0.3c-0.1-0.1-0.2,0-0.3,0.2c-0.2,0.2-0.4,0-0.6,0.1c0,0.3-0.3,0.4-0.5,0.5
	c-0.5,0.3-0.1,0.9-0.6,1.1c-0.6,0.2-0.4,0.8-1.1,0.8c-0.1-0.4,0.1-1.9,0.5-2c-0.1,0,0.3-0.8,0.3-0.7c-0.4-0.1-0.3-0.5-0.1-0.7
	c0.3-0.2,1.2,0.3,1.5-0.9c0.1-0.6,0.7-1.2,1.3-2c0-0.5,0.5-0.4,0.5-0.8c0.2,0,0.2-0.3,0.2-0.5c0-0.4,0-0.5,0.3-0.8
	c0.4-0.3,0.6-0.2,0.8-0.6c0.1-0.3,0-1,0.2-0.8c0.2,0.1,0.2,0.3,0.2,0.8c0,0.4,0,0.5,0.3,0.5s0.6-0.5,0.6-0.5c0-0.8,0.4-1,1.3-1.1
	c0,0.1,0.1,0.5,0,0.6c-0.3,0.3-0.5-0.1-0.5,0.5c0,0.1,0,0.3,0.2,0.3c0.5,0.1,0.5,0,0.7-0.4c0.3-0.3,1.1-0.3,1.2-0.7
	c0.2-0.8,0.8-1.1,1.7-1.1c0.8,0,1.8,0.4,2.5-0.1c0.6-0.4,0.3-1,1.3-0.9c0.9,0.1,1.7,0.5,2.5,0.7c0.3,0.1,0.1,0.5,0.3,0.7
	c0.3,0.2,0.8,0.2,1.1,0.2c0-0.6-0.1-1.1,0.8-1.1c0.4,0,0.7,0.2,1.1,0.3c0.5,0.1,1,0.1,1.5,0.1s1.7-0.1,2-0.1
	c0.6,0.1,0.4-0.5,0.4-0.7c0-0.1-0.4-0.3-0.6-0.3s0.6,0.9-0.1,0.5c-0.2-0.1-0.1-0.2-0.4-0.3c0.1-0.1,0.2-0.3,0.3-0.4c0,0,0,0-0.1,0
	c-0.5-0.1-0.5,0.5-0.7-0.1c-0.2-0.4,0.4-0.1,0.2-0.8c-0.1-0.5-0.6-1.4-1-1.7c-0.3-0.4-0.5-0.3-0.5,0s-0.3-0.1-0.3,0.3
	c0,0.4-0.4,0.3-0.6,0c-0.2-0.3-0.2-0.3-0.5-0.4c-0.3,0-0.4,0.2-0.4,0.2l-0.4-0.4V49c0,0,0,0-0.1,0c-0.3,0.2-0.8,0.2-1.2,0.2
	c-0.9-0.1-1.1-0.3-0.8-1c-0.5,0-0.3-0.6,0-0.7c0.1-0.1,0-0.3,0-0.4c-0.2,0-0.4,0-0.6,0c-0.6,0-2.2,0-2.5,0.6s-4-0.4-4.1,0.3
	c0,0.1-0.4,0-0.5,0c-0.2,0,0,0.4-0.2,0.6c-0.3,0.2-1.1,0.1-1.3,0.4c-0.4,0.6-2.2,0-2.8-0.1c-0.2,0-0.8-0.1-0.8,0.3
	c-0.8-0.2-0.9-0.5-1.4-1c-0.3-0.3-0.4,0-0.5-0.5c-0.1-0.2-0.1-0.4-0.2-0.6c-0.1,0-0.2,0-0.3-0.1c-0.3-0.3-0.7-0.3-0.9-0.6
	c-0.4-0.6-0.9-0.3-1.6-0.5c-0.8-0.2-0.5,0.1-0.6,0.2c-0.1,0-0.2-0.2-0.3-0.4s-0.1,0-0.5,0.2c-0.4,0.1-0.4,0.4-0.6,0.4
	c-0.1,0-0.3,0.2-0.3,0.4c0,0.1-0.1,0.5-0.4,0.2c-0.3-0.3-0.1-0.5,0-0.7c0.1-0.1,0.1-0.5,0.3-0.5c0.1,0,0.3-0.5,0.4-0.7
	c0.1-0.2,0.3-0.5,0.5-0.5s0.2-0.3,0.2-0.5c0-0.1-0.1-0.3,0.1-0.2c0.2,0,0.4-0.1,0.6-0.2c0.1-0.1,0.3-0.5,0.5-0.6
	c0.2,0,0.3-0.2,0.5-0.4s-0.1-0.3-0.1-0.4c0-0.1,0.3,0,0.4,0c0.1,0.1,0.3,0.1,0.6,0.2c0.2,0,0.6-0.3,0.6-0.5s-0.4-0.5-0.8-0.6
	c-0.4-0.1-0.4,0.2-0.4,0.2c-0.1,0-0.2-0.2-0.4-0.2s-0.4,0.2-0.8,0.1c-0.4,0-0.6-0.1-0.9,0.3c-0.3,0.3-0.4,0.4-0.6,0.4
	c-0.2,0-0.7,0.4-0.9,0.8c-0.2,0.4-0.5,0.5-0.8,0.4s-0.4,0.2-0.5,0.5c-0.2,0.2-0.3,0.3-0.5,0.3s-0.5,0.5-0.6,0.8
	c-0.2,0.3-0.4,0.5-0.8,0.5c-0.4,0-0.5,0.1-0.8,0.3s-0.7,0.5-1.1,0.8c-0.4,0.3-1.2,0.2-1.7,0.2c-0.6,0-0.9,0.2-1.3,0.4
	c-0.3,0.2-0.6,0.5-1,0.9s-0.8,0.3-1.2,0.3s-0.5,0-0.7,0.3c-0.2,0.2-0.6,0.1-1.2-0.1c-0.7-0.2-0.7-0.4-0.9-0.7s-0.5,0.4-0.8,0.6
	c-0.2,0.1-0.3,0.3-0.5,0.2s0-0.3,0-0.5c0.1-0.1,0.4-0.3,0.4-0.5c0-0.3-0.2-0.1-0.1-0.4c0-0.3,0.3-0.1,0.4-0.3
	c0.1-0.2,0.4-0.4,0.4-0.7s-0.3-0.3-0.4-0.5c-0.2-0.2-0.2-0.1-0.3,0.1c-0.1,0.2-0.3-0.1-0.4-0.4c0-0.3-0.1-0.2-0.3,0s0,0.6-0.2,0.8
	s-0.5,0.3-0.8,0.4c-0.3,0.1-0.3-0.1-0.3-0.1c-0.4,0.1-0.3,0.3-0.7,0.4c-0.2,0.1-0.5,0.1-0.7,0.2c0,0.2-0.1,0.3-0.3,0.3
	s-0.7-0.1-0.8,0.1c-0.1,0.3-0.8,0.1-1,0.4c0,0.3-0.1,0.3-0.4,0.1c-0.3-0.1-0.8,0-1-0.2c-0.2-0.1-0.5-0.2-0.3-0.6
	c0.2-0.4,0.4-0.4,0.6-0.6c0.2-0.1,2.3-1.5,2.7-2c0.4-0.4,0.8-0.6,1-0.9c0.4-0.5,0.6-0.6,1-1c0.1-0.2,0.8-0.8,1.2-1.2
	s1.7-1.2,2.4-1.6c0.7-0.4,1.5-0.5,2.2-0.7c0.6-0.2,1.2-0.5,1.8-0.7c0.5-0.1,0.9-0.4,1-0.8c0-0.5,0.6,0,0.9-0.1
	c0.1,0,0.1-0.1,0.2-0.1c-0.2-0.3-0.3-0.6-0.4-0.7c-0.2-0.3-0.7-0.2-1-0.2c-0.4,0-0.7-0.1-0.8,0.3c-0.1,0.4-0.7-0.2-1-0.6
	c-0.3-0.4-0.3-0.4-0.5-0.4c-0.3,0.1-0.1-0.3-0.5-0.3c-0.3,0-0.1,0.3-0.4,0.3c-0.4,0-0.6,0.6-0.9,0.1c-0.2-0.4-0.6,0.3-0.9-0.1
	c-0.3-0.3-0.7,0.5-1.1-0.1c-0.2-0.3-0.5-0.8-0.7-1c0,0-0.3,0-0.8,0c0.2,0.7-0.6,0.1-0.5,0.4c0.1,0.3-0.5,0.1-0.4,0.5
	c0.1,0.3-0.8,0.1-0.6,0.5c0.3,0.3-1-0.1-0.8,0.3c0.3,0.6-0.5,0.4-0.9-0.1s-0.6,0-1-0.7c-0.6-0.9-0.9-0.1-1.2-0.7
	c-0.2-0.4-0.4,0.4-0.9-0.9c-0.2-0.6-0.3,0.1-0.5-0.3c-0.3-0.4-0.1,0.2-0.7,0.2c-0.5,0-0.4,0.3-0.4,0.9c0,0.6-0.6-0.1-0.8-0.5
	s0.2-0.6-0.4-1.3c-0.4-0.5-0.5,0.1-0.7,0.4c-0.2,0.3-1.2-0.6-0.4-0.6c0.8,0.1,0.2-0.9-0.3-0.7c-0.5,0.2-0.5-0.4-1.1-0.3
	c-0.4,0.1-0.3-0.7-1-0.4c-0.7,0.3-0.9,0.2-1.1-0.2c-0.2-0.4-0.3,0.3-0.9,0.3c-0.3,0-0.7,0-0.5,0.4c0.2,0.4-1-0.1-0.9,0.5
	c0,0.4-0.8,0.4-1-0.3c-0.3-0.6-0.7-1-1.1-0.9c-0.4,0.1-0.9,0.4-1.2,0s-0.5,0.3-0.6-0.2c-0.2-0.5-0.7-0.2-1.1,0.1
	c-0.3,0.2-0.7-0.1-1.1-0.5l0,0c-0.6-0.2-0.7-0.8-1.4-0.7c-0.5,0.1-1.1,0.6-1.6,0c-0.1-0.1-0.1-0.2-0.1-0.3H29.4
	c-0.1,0-0.2,0-0.2,0.1l0,0c0,0.1,0,0.1,0.1,0.3c0.2,0.5,0.4,0.5,0.5,0.7s0.4,0.3,0.3,0.6c-0.1,0.2-0.3,0.3-0.1,0.5
	c0.7,1.2,0.2-1,0.8-0.6c0.1,0.1,0.3,0.3,0.4,0.5s-0.1,0.4-0.1,0.6c0.1,0.3,0.5,0.6,0.4,0.8c-0.1,0.1-0.1,0.2-0.3,0.3
	c-0.2,0.1-1-0.1-0.6-0.4c0.5-0.3-0.2-0.2-0.4-0.2c0-0.1,0-0.2-0.1-0.3c-0.3,0,0.1,1,0.1,1.2c0,0.7-0.4,1.2-0.8,1.8
	c0.9,0.2,0.6,0.6,1,1.1c0.5,0.4,1,0.4,1,1.1c0.7,0,0.5-0.8,0-1c-0.8-0.3-0.9-0.6-1.1-1.3c-0.1-0.5,0-0.5,0.5-0.4
	c0.2,0,0.3-0.1,0.3-0.2c0.1-0.3-0.1-0.1-0.3-0.3c-0.2-0.1-0.3-0.8-0.1-0.7c0.4,0.2,0.6,0.7,1,0.9c0.5,0.2-0.6,0.4-0.8,0.5
	c-0.4,0.5,0.1,0.9,0.7,1.1c-0.2-0.2-0.3-0.4-0.5-0.7c0.3-0.1,0.5-0.2,0.8-0.2c0,0.8,1,2,0.3,2.6c-0.8,0.7-0.6,2-0.5,2.7
	c0.1,0.5,0.5,1.6-0.1,1.8c-0.4,0.2-0.6,0.2-1.1,0.3c-0.3,0.8-1.3,2.4-1.7,1.4c-0.5-1-0.1-1.6,0.8-1.7c-0.1-0.4,0-0.5-0.1-0.9
	c0.4,0,0.3-0.2,0.3-0.4c0.2-0.2,0.5-0.3,0.7-0.5c0.4-0.3,0.3-0.7,0.3-1.1c0.8,0,0-1.5-0.3-1.8c-0.5,0.8-0.6,1.5-1.3,2.2
	c-0.3,0.3-1.5,1.8-2,1.8c-0.1-0.7,1-2,1.4-2.6c0.1-0.2,0.2-0.7,0.6-0.7s0.3-0.1,0.5-0.4c0.2-0.3,0.2-0.6,0.2-0.9
	c-0.2,0-0.3-0.1-0.4-0.3c-0.2-0.3-0.2-0.7-0.1-1.1c-0.2,0-0.6,0.1-0.6,0.3c-0.1,0.2,0.2,0.5,0.1,0.7c-0.2,0.2-0.8-0.9-0.8-0.4
	c-0.1,1-0.6-0.5-0.7-0.6c-0.4-0.1-0.5,0.1-0.7,0.3c-0.3,0.2-0.7,0-1.1,0.1c-0.6,0-1-0.2-1.6-0.4c-0.6,0-1.3-0.1-1.9-0.1
	c-0.7,0-0.8-0.6-1-0.6c-0.8,0-1.2-0.1-1.8-0.6c-0.5-0.4-1.2-0.7-1.6-0.5c0,0.5,0.4,0.7,0.2,1.1c-0.2,0.6-0.2,1.2-0.1,1.9
	c0.1,0.6,0.4,1,0.9,1.5c0.4,0.4,0.8,0.6,1,1.1c0.2,0.6-0.1,1.8,0.1,2.4c0.1,0.5,0.5,0.5,0.7,0.9c0.5,1-0.8,2.8,0.9,3.3
	c0-0.3-0.2-1.9,0-2.1c0.2-0.2,1.2,0.4,1.4,0.4c-0.5,0.3-0.5,2.2-1.2,2.4c-0.4,0.1-0.3,0.2-0.4,0.7c-0.1,0.3-0.1,0.7-0.2,1
	c0.9,0,0.8-0.1,0.8-0.9c0.3,0.1,1.2,0.1,1,0.6c-0.1,0.4-0.7,0.8-0.7,1.1c0,0.1,0,1-0.2,0.9c-0.3-0.1-0.4-1.1-0.6-1.1
	s-0.1,0.6-0.1,0.7c0,0.5-0.2,0.8,0.4,0.9c0.4,0.1,3-0.1,2.9,0.6c-0.1,0.7-1.9,0.6-2.7,0.2c0,0.3,0.2,0.4,0.3,0.7
	c0.1,0.3,0.2,0.6,0.2,0.9c0,0.4-0.4,0.2-0.4,0.6c0,0.6,0.2,1,0.2,1.7c0,0.3,0,0.8-0.1,1.2c-0.1,0.2,0,0.9-0.1,1
	c-0.2,0.5-0.1,1.1-0.1,1.6c0,0.3,0,0.6-0.1,0.8c-0.2,0.4-0.1,1-0.1,1.4c-0.2,1.2-0.2,2.5-0.3,3.7c-0.1,0.8-0.2,2-0.2,2.8
	c0,0.9-0.3,2.3-0.5,3.3c-0.2,0.7-0.5,1.3-0.9,2c-0.3,0.5-0.3,0.7-0.3,1.5s-0.5,1.9-0.3,1.4c-0.2,0.6-0.9,1-0.6,1.5s1.1,0.9,1.1,1.7
	c0,0.8-0.7,0.5-0.5,1.3c0.2,1.2,0.3,1.9,0.5,2.4c0.2,0.6,1.1,1.1,1.2,1.7c0,0.4-0.6,1.1-0.4,1.4c0.5,0.8,1,0.9,1,1.8
	c-0.1,1.2-0.3,2.4-0.3,3.6c0,0.6-0.2,1.3-0.6,1.7c-0.3,0.4-1.1,1.7-1,2.3c0.1,0.5,0.4,0.3,0.3,0.8s-0.1,0.6,0.3,1
	c0.1,0,0.1,0,0.2,0.1c0.5,0.2,0.6,0.3,0.9,0.7c0.2,0.4,0.5,0.3,0.7,0.7c0.1,0.3,0.2,0.5,0.4,0.7c0.2,0.2,0.2,0.2,0.4,0.4
	c0.2,0.3,0.4,0.9,0.5,1.4c0,0.2,0,0.5,0,0.7c0,0.6-0.4,0.7-0.3,1.6s0.7,1.3,0.8,1.9c0.1,0.6-0.3,0.9,0.2,1.4
	c0.4,0.5,0.9,0.9,1.4,1.3c0.4,0.4,0.5,1.1,1.1,1.3c0.5,0.1,0.7,0.3,0.9,0.8c0.1,0.5,0.2,0.6,0.7,0.8c0.3,0.2,0.1,0.5,0.2,0.8
	c0.2,0.7-0.6,1.1-0.3,1.5c0.1,0.2,0.8-0.6,1.1-0.5c0.5,0.1,1,0.6,1.2,1.1c0.2,0.4,0.8,0.1,0.9,0.3c-0.2-0.5,0.1-2.4,0.6-2.3
	c0.4,0.1,0.5,0.4,0.5,0.8c0,0.3-0.6,0.7-0.5,1c0.1,0.4,0.5,0.5,0.6,1c0,0.4,0.6,0.3,0.7,0.7c0.2,0.7,0,1.5-0.8,0.8
	c-0.6-0.5-0.4-1.2-0.7-1.6c-0.2-0.3-0.6,0.1-0.6,0.5c0,0.3-0.1,1.2-0.1,1.5c0,0.4,0.3,0.4,0.5,0.7c0.2,0.4,0,0.9,0.1,1.3
	c0,0.6,0.3,1,0.8,1.3c0.7,0.5,0.6,0.8,1.3,1.1c0.2-0.2,0.5,0,0.6-0.1c0.1,0,0.2-0.3,0.3-0.3c0.2,0.1,0.4,0.3,0.6,0.6
	c0.3,0.6,0.2,2.7-0.4,1.9c-0.2-0.2-0.2,0.3-0.5,0.5c0.7,0.7,0,1.7,0.9,2.4c0.3,0.3,1,0.5,1.2,0.9c0.2,0.3,0.1,0.5,0.3,0.7
	c0.1,0.1,0.3,0.1,0.5,0.2c0.2,0.2,0.1,0.5,0.3,0.9c0.1,0.3,0.5,0.6,0.7,0.7c0.2,0.2,0.1,0.5,0.3,0.7c0.5,0.6,0.5-0.5,1.3,1.1
	c0.3,0.6,0.8,0.1,1.1,0.7c0,0.1,0,0.4-0.1,1.2c0.3,0,0.4,0.4,0.6,0.5c0.3,0.1,0.6-0.3,0.9,0.1c0.2,0.3-0.3,1-0.2,1.3
	c0,0.2,0,0.2,0.2,0.4s0.1,0.3,0,0.5c-0.1,0.1-0.1,0.3-0.1,0.4c0,0.1,0.2,0.1,0.3,0.3s-0.1,0.3-0.2,0.4c-0.1,0.1-0.2,0.4-0.1,0.5
	c0.1,0.2,0.2,0.2,0.5,0.2s0.5,0.4,0.6,0.6c0.1,0.2,0.2,0.2,0.5,0.1c0.3-0.1,0.6-0.1,1.1-0.1c0.5-0.1,1,0,1.4,0.2s0.6,0.3,0.8,0.1
	c0.2-0.1,0.5,0,0.6,0.2s0.3,0,0.4-0.2c0.1-0.2,0.6,0,0.9,0.2c0.3,0.2,0.9,0.6,1,0.7c0.2,0.1,0.4,0.3,0.5,0.5s0.2,0.5,0.5,0.7
	s0.5,0.2,0.8,0.3s0.7,0.3,0.9,0.4c0.2,0.1,0.5,0.2,0.5,0.2c1.3-0.8,1.9,0.1,2.3,1c0.1,0.3-0.3,0.4-0.2,0.6c0.2,0.3,0.8,0.6,1.1,0.3
	c0.6-0.5,0.7-0.2,1.4,0.4c0.5,0.4,0.9,0.5,1.4,1s1.2,1.1,1.7,1.5s0.8,1.1,1,1.6c0.6,1.3-0.1,1.5,0.3,2.8c0,0.1,0.4,0,0.5,0.1
	c0.2,0.1,0.1,0.4,0.2,0.5v0.1c0.9-0.7,1-0.2,1.9-0.4c0.7-0.1,12.1-1.2,12.5-1.2c0.4-0.1,0.2,0.2-0.1,0.4c-0.3,0.2-0.4,0.3-0.5,0.8
	s-0.2,0.7,0.2,0.7c0.4,0,0.5,0,0.8,0.2c0.3,0.1,19,7.6,19.7,7.8c0.7,0.3,0.9,0.3,1.4,0.3h15.3c0.7,0,0.8,0,1-2.9
	c0-0.4,0.2-0.4,0.5-0.4s8.7,0,9.2,0c0.6,0,0.5,0.6,0.8,0.2c0.2-0.2,0.6,0.3,0.7,0.6c0.3,1,0.2,1.4,1.1,1.9c1,0.6,0.3-0.4,0.8,0
	c0.4,0.3,0.3,0,0.7,0.4c0.9,0.7,0.7,1.2,1.4,1.5c0.8,0.4,1,1.7,2.5,2.3c1.2,0.5,0.7,0.6,1.3,0.8c0.5,0.2-0.1,0.3,0.5,0.6
	c0.7,0.3,0,0.7,0.8,1.8c1.3,1.8-0.2,1.3,0.6,2.9c0.7,1.3,0.8,1.8,1.5,2.1c1.2,0.5,1.3,1.7,2.9,1.8c1,0.1-0.2,0.7,1.4,0.7
	c0.4,0,0.2,0.3,2,1.5c0.2,0.2,0.6-0.1,0.6-0.3c0.2-0.4,0.5,0,0.6-0.6c0.2-0.8,0.9-0.2,0.8-0.6c-0.1-0.4-0.4-0.3,0-0.8
	s1.1-2.2,1.4-2.7c0.2-0.4,0.4-0.5,0.8-0.4c0.7,0.2,0.2-0.5,0.9-0.2c0.8,0.3,0.2-0.8,0.8-0.8c0.5,0,0.7,0.8,1.9,0.6
	c1.5-0.2,1.2,0.1,2.1,0.1c0.6,0,0.3-0.3,0.6-0.3s0.1,0.6,0.4,0.2c0.1-0.2,0.1,0,0.3,0c0.4,0,0,1,0.6,0.9c0.5-0.1-0.3,0.6,0.3,0.5
	c0.6-0.2,0.3,0,0.3,0.3c-0.1,0.3,0.4,0.4,0.7,0.5c0.3,0,0.5,0.1,0.5,0.5s0,0.4,0.2,0.4c0.6,0.2,0.3,0.5,0.7,0.7
	c0.6,0.2,0.1,0.6,0.7,1c0.6,0.4,0,1.1,0.6,1.8c0.8,1,0.1,2,0.9,2.6c0.4,0.3-0.1,0.4,0.4,0.7s-0.5,0.2,0,0.9s1,1.9,1.2,1.2
	s0.3-0.2,0.5,0.3c0.4,1,0.7,0.6,0.7,1s0.3,0.1,0.4,0.8s0.2,0.2,0.4,0.6c0.4,0.8,1.1,1.2,1,0.8c-0.2-0.6,0.4,0.1,0.6,0.3
	c0.5,0.4-0.1,0.3,0.3,0.9c0.4,0.5-0.8,0.7-0.2,1.3c0.8,0.7-0.4,1.3,0.5,2.1c1.8,1.8,0.8,2.8,1.6,3.3c0.6,0.5-0.5,0.8,0.6,0.8
	c1.2,0,0.7,0.4,1.1,0.2c0.6-0.2,0.9,1,1.3,0.8c0.6-0.4,0.8,0.4,1.2,0.2c0.4-0.3,0.7,1.2,1.6,0.9c0.7-0.2,0.6,0.6,1,0.1
	c0.2-0.2,0.7,0,1.1-0.1c0.6-0.2,0.5,0.4,0.9,0.2c0.5-0.3,0.9,1.1,1.3,0.9c0.4-0.1,0.1,0.4,0.6,0.3c0.5-0.1,0-0.5,0.5-0.5
	s0-0.3,0.8-0.4c0.1,0,0.2,0,0.3,0c0-0.2,0-0.6,0-0.7c-0.1-0.4-0.1-0.3-0.1-0.5s-0.1-0.4,0-0.6c-0.1-0.4-0.1-0.7-0.4-1.5
	c-0.4-1.1-0.9-2.5-0.8-3.9c0-0.9,0.3-2.3,0.5-2.9c0.3-0.6,1.1-2.1,1.4-2.5c0.3-0.4,0.6-0.9,1-1.3c0.3-0.3,1.1-1,1.8-1.4
	c0.3-0.2,0.3-0.1,0.8-0.4c0.1-0.1,0.3-0.5,0.7-0.7c0.6-0.4,1.5-0.8,2.2-1.2s1.5-0.8,1.8-0.9c0.3-0.1,0.4-1,0.6-1.1
	c0.3-0.2,0.5-0.2,0.9-0.4s0.6-0.7,1.1-1.1c0.4-0.3,0.8-0.8,1.2-1c0.2-0.1,0.7-0.5,0.9-0.7c0.6-0.4,0.2-0.4,0.6-0.9
	c0,0,0.4-0.3,0.6-0.5h-0.1c0.2-0.2,0.2-0.1,0.1,0c0.2-0.1,0.5-0.1,0.7-0.3c0.4-0.2,0.9-0.3,1.3-0.5c0.5-0.2,1-0.4,1.6-0.6
	c0.3-0.1,0.7,0.2,1,0.1c0.3-0.1,0.4-0.6,0.7-0.7c0.2,0,0.4-0.1,0.7-0.1c-0.1-0.1,1.2,0.2,1.4,0.1c2.2-0.9,2.3,1.1,4.4,1.3
	c1.8,0.2,1.6,0.6,2.7-0.2c0.8,0.1,0.5-0.4,0.2-0.6c-0.2-0.1,0-0.5,0.3-0.5s0.7-0.5,1.1-0.4c0.9,0.1-0.4,0.5,0.6,0.5
	c2.2,0,0.7,0.4,0.9,0.7c0.7-0.3,0.3,0.8,0.7,0.7c0.3-0.1,0.3,0.1,0.7,0.2c0.9,0.2-0.1,0.5,0.3,0.6c0.3,0.1,1.5,0.2,0.1,0.5
	c-0.3,0.1,0,0.5,0.6,0.8c1.1,0.5,1.4,0.3,2.4,0.3c-0.2-0.6,0.5,0.3,1-0.5c0.3-0.6,0.2-0.4,0.8-0.3c0-0.3,0.4,0.4,0.8,0.4
	c-0.1,0.2,0,0.3,0.3,0.3c-0.1,0.4,0,0.7,0.6,0.9c0.4,0.1,0.6-0.3,1-0.5c0.5-0.4,0.6-0.5,0.8-0.7c0.3-0.2,0.5-0.3,0.8-0.3
	c0.3,0.1,0.6,0,1,0.3s1.2,0.7,1.2,1.3s0.1,0.7-0.1,1c-0.2,0.3-0.3,0.6-0.1,0.5s0.4-0.4,0.6-0.6c0.2-0.2,0.4-0.5,0.8-0.3
	c0.4,0.2,0.4,0,0.6-0.3c0.2-0.2,0.6-0.6,0.8-0.7c0.1-0.1,0.1-0.4-0.1-0.6c-0.1-0.2-0.5-0.8-0.8-1s-0.5-0.6-0.9-0.6s-0.9-0.2-1.3-0.3
	c-0.4-0.1,0.4-0.5-0.1-0.6c-0.4-0.2-0.7-0.6-0.3-0.6c0.5,0,0.8-0.1,0.9-0.1c0.2,0,0,0-0.1-0.2s0-0.5,0.2-0.4s0.7-0.3,0.9-1
	c0.3-0.7,0.4-0.8,0.3-1.3c-0.1-0.5,0.1-0.7-0.4-0.3c-0.4,0.3-0.4,0.5-0.7,0.5s-0.1-0.2-0.5-0.1c-0.4,0.1-0.4,0.2-0.5,0.4
	s-0.3,0.1-0.4,0.4c0,0.2,0.1,0.5-0.2,0.6c-0.4,0.1-0.4,0.1-0.7-0.2s-0.4-0.4-0.1-0.7c0.4-0.3,0-0.5,0.7-0.7s1.3-0.1,1.5-0.4
	c0.2-0.2,0.3-0.4,0.5-0.7c0.3-0.3,0.3-0.4,0.7-0.6c0.2-0.1,0.1-0.1,0.5-0.2c0.3-0.1,0.3,0.1,0.8,0c0.2,0,0.7-0.1,0.9-0.1
	s0.3,0.4,0.4,0.4c0.6,0.1,1.4,0.4,1.8,0.1c0.3-0.2,0.5-0.4,0.5-0.4c0.6-0.8,0.3,0.4,0.5,0.7c0.1,0.3,0.5,0,0.6-0.2
	c0.3-0.6,0.5-0.3,0.8-0.6c0.3-0.4,0-1.4,0.4-1.8c0.2-0.2,0.2-0.3,0.4,0.2c0.1,0.3,0.6,0.6,0.4,1c-0.1,0.2,0,1.2-0.1,1.4
	c-0.2,0.2-1.2,0.4-1.2,0.4c0.1,0.2,1-0.1,1.1-0.1c0.8,0,2-0.4,2.4-0.5s0.5-0.1,0.9-0.1c0.2,0,0.3-0.6,0.5-0.7c0.5-0.4,0-0.9,0.3-1
	c0.1,0,0.4,0.5,0.4,0.7c0,0.1,0.2,0,0.3-0.2s0.6-0.2,0.6,0.2c0,0.3-1.6,0.8-1.5,0.8c0.2,0.2,2.1-0.3,2.2-0.3
	c0.7-0.1,1.2-0.4,1.8-0.6c0.5-0.1,1.4-0.4,1.7,0.2c-0.4,0-0.8,0-1.3,0.1c-1.2,0.2-0.6,0.3,0.3,0.4c0.3,0,0.6,0,0.9,0
	c0.4,0.3,0.8,0.5,1.3,0.7c0.4,0.2,0.8,0.4,1.1,0.6c0.3,0.2,0.5,0.3,0.6,0.5c0.1,0.1,0.4,0.1,0.4,0.3c0.2,0.1,0.3,0.3,0.5,0.4
	c0.3,0.2,0.6,0.2,0.8,0.4c0.3,0.5,0.2,0.5,0.6,0.9c0.1,0.1-0.2,0.8-0.1,0.9c0.2,0.2,0.4-0.1,0.6-0.1c0.4,0.1,0.9,0.7,1.4,0.7
	c0.4,0,1-0.5,1.3-0.7c0.1-0.1,1.5-0.8,1.3-0.9c-0.2-0.1-1.2,0.7-1.2,0.7c-0.5,0.3-1,0.8-1.6,0.8c-0.1,0-0.4-0.5-0.5-0.5
	c0.3,0,0.5-0.1,0.9-0.1s1.3-0.6,1.5-0.9c0.1-0.2,0.4,0.1,0.5-0.1c0.1-0.2,0.5-0.3,0.8-0.5s0.5,0.3,0.8,0.3c0.4,0,0.2-0.6,0.1-0.9
	c-0.1-0.1,0-0.2,0.1-0.3c0.2-0.3,0.5-0.2,1-0.2c0.5,0,0.4-0.3,0.9-0.1c0.2,0.1,0.6,0.6,0.8,0.6c0.8,0.1,1.3,0.5,1.7,1.3
	c0.2,0.4-0.2,0.4,0.7,0.9c0.3,0.2,0.3,0,0.5,0.4c0.1,0.2-0.1,0.8,0,1c0.3,0.3,0.8,0.2,1,0.5c0.3,0.6,0.3,0.8,0.6,0.9
	c0.3,0.1,0.3,0.6,0.3,0.6c0.3,0,0,0.6,0.3,0.4c0.3-0.1,1-0.5,1.3-0.1c0.1,0.2,0.2,0.7,0.5,0.7c0.4,0.1-0.2,0.7,0.4,0.5
	c0,0.3-0.3,0.5-0.3,0.8c0,0.2,0.3,0.9,0.3,1.2c0,0.1-0.4,0.4-0.5,0.4s0.2,0,0.4,0.2c0.1,0.1,0.1,0.3,0,0.3c-0.1,0.1-0.4,0.1-0.4,0.3
	c-0.1,0.5,0.4-0.1,0.3,0.7c0,0.1-0.3-0.1-0.3,0c0,0.4-0.1,0.5-0.1,0.9c-0.1,0,0.2,0.4,0.1,0.5c0,0.3-0.3,0.5-0.4,0.7
	c-0.1,0.7-0.4,1.5-0.3,2.2c0,0.3,0.4,0.5,0.6,0.6c0,0.2-0.1,0.5,0,0.7c0.1,0.1,0.1-0.1,0.2-0.3s0.3,0,0.4-0.2
	c0.1-0.1,0.1-0.6,0.1-0.7c-0.1-0.3-0.5-0.6-0.5-0.8l0.3-0.4c0.3-0.1,0.6,0.2,0.7,0.5c0,0.2-0.1,0.5-0.1,0.6c0.1,0.1,0.3,0.1,0.4,0.2
	c0.1-0.1-0.1-0.5,0-0.6s0.4,0.2,0.5,0.1c0,0.4-0.1,0.7-0.4,1c-0.5,0.5-0.6,0.6-0.8,1.3c0,0.1-0.3,0.1-0.3,0.2
	c-0.1,0.3-0.1,0.4,0.3,0.5c0.3,0.1,0.2,0.3,0.3,0.5c0,0.1-0.1,0.3-0.1,0.4c0.1,0.1,0.4,0.4,0.4,0.5c0.1,0.4,0.1,0.6,0.3,1
	c0.3,0.6,0.6,1.7,1.2,2c0.1,0,0-0.3,0-0.3c0.2,0,0.5,0.2,0.5-0.1c0-0.4-0.2-0.5,0.2-0.6c0.2-0.1,0.4-0.3,0.6-0.3
	c0,0.2-0.3,0.2-0.3,0.4c0,0.3,0.2,0,0.3,0.3c0.1,0.2-0.1,0.3-0.2,0.5c-0.1,0.1-0.1,0.3,0,0.8c-0.3-0.2-0.5-0.6-0.6-0.4
	c-0.1,0.1,0.2,0.3,0.3,0.6c0.2,0.3,0.1,0.8,0.2,1c0.2,0.1,0.2-0.5,0.3-0.4c0.2,0.1,0.5,0.6,0.7,0.7c0.5,0.2,0.5,0.9,0.5,1.4
	c0.1,0.6,0.2,2.2,0.9,2.4c0.6,0.2,1.3,0.4,1.8,0.8c0.3,0.2,0.5,0.6,0.6,0.9c0.2,0.6,0.1,0,0.4,0.3c0.2,0.3-0.1,0.7,0.1,1
	c0.2,0.4,0.3,0,0.2,0.6c-0.1,0.5,0,0.7,0,0.8c0.4,0,0.5,0.2,0.7,0.2c0.6,0.1,0.4-0.1,0.8-0.1c0.5-0.5,0.8,0,1.1,0
	c0-0.4,0.4-0.2,0.7-0.2c0-0.3,0.4-0.2,0.6-0.1c0.6,0.1,0.3-0.3,0.7-0.5c0,0.7-0.7,1.5-1,1.8c-0.4,0.4-1.3,0.7-1.6,1.3
	c0.3,0,0.3-0.1,0.7-0.4c0.4-0.3,0.8-0.5,1-0.7c0.5-0.3,0.6-0.8,1-1.3s0.1-0.6,0.5-0.9c0.1-0.1,0.4-0.9,0.3-0.9s-0.2,1-0.5,0.5
	c-0.1-0.3-0.2-0.6-0.2-1c0-0.3,0.3-0.8,0.4-1.1c0.1-0.1,0.3-0.5,0.4-0.5c0.1,0.1,0,0.6,0.2,0.6c0.1,0,0-0.2,0.1-0.3
	c0.1-0.2,0.2-0.5,0.3-0.8c-0.2,0-0.1-0.6-0.1-1c0-1,0.3-2.5,0.3-2.7c0.2-0.9,0.3-1.8,0.1-2.7c-0.1-0.3-0.1-1.2-0.3-1.4
	c-0.1-0.2-0.2-0.5-0.3-0.7c-0.1-0.2-0.1-0.4-0.1-0.5c-0.1-0.1,0-0.2-0.2-0.4c-0.1-0.2-0.2-0.5-0.3-0.7c-0.1-0.2-0.3-0.9-0.4-1.6
	c-0.1-0.4-0.3-0.5-0.3-0.9c-0.2-0.3-0.2-0.6-0.4-0.8c-0.1-0.1-0.5-0.7-0.5-0.6c0-0.1-0.2-0.7-0.3-1.1c0-0.2,0-0.5-0.1-0.6
	c-0.2,0-0.1,0.6-0.1,0.6c-0.8-0.4-0.9-1.7,0-1.9c0,0.2,0,0.5,0,0.8c0,0.1-0.1,0.3,0.1,0.3c0,0-0.1-0.8,0.1-1.1
	c0.1-0.3,0.4-0.4,0.4-0.4c-0.4-0.7-0.5-1.1-1.2-2c0,0.2-0.3,0.6-0.3,0.9c0,0.2,0.3,0.2,0.3,0.4c0.1,0.2-0.1,0.4-0.1,0.6
	c0,0.2,0.1,0.5-0.1,0.6c-0.1-0.6-0.6-1.8-0.6-2.5c0-0.4,0.5-1.2,0.3-1.5s-0.2-0.5-0.5-0.9s-0.2-0.6-0.5-1c-0.6-1-1.3-3.4-1.6-4.1
	c-0.3-0.7-0.2-0.8-0.3-1.2c-0.1,0-0.1-0.3-0.2-0.4c-0.1-0.2,0-0.1-0.2-0.7c-0.2-0.6-0.1-0.7-0.1-0.8c-0.1-0.4-0.1-0.2-0.1-0.6
	c0-0.4,0-0.9-0.1-1.4c-0.1-0.2-0.2-0.3-0.2-0.6c0.1-0.7,0.1-0.5-0.1-1.4c-0.1-0.4,0-0.3,0.1-0.7s0.1-0.5,0.2-0.9s0-0.2,0.1-0.6
	c0-0.6,0.2-0.4,0.4-0.8c0.2-0.3,0.2-0.1,0.3-0.5c0.1-0.4-0.4-1,0.2-1.3c0.7-0.3,0.2-1.3,0.5-1.9c0.2-0.3,0.5-0.3,0.6-0.7
	c0.1-0.3,0.1-0.6,0.5-0.6c-0.1-0.2,0.1-0.2,0.4-0.3s0.3-0.5,0.3-0.8s0.2-0.2,0.7-0.6c0.3-0.3,0.9-0.6,1-1c0.1-0.2,0.3,0,0.5-0.1
	c0.4-0.3,0.3-0.3,0.4-0.6c0.1-0.2,0.3-0.2,0.4-0.4c0.3-0.5,0.3-0.8,0.9-0.8c0.7,0,0.9-0.5,1.6-0.7c0.6-0.2,0.3-0.4,0.5-0.7
	c0.1-0.1,0.3-0.2,0.4-0.2c0.8-0.3,1-0.6,1.4-1.2c0.3-0.4,0.6,0.1,0.9-0.2s0.4-0.6,0.7-0.8c0.6-0.3,0.4-0.6,0.4-1.3
	c0,0,0-0.2,0.1-0.5s0-0.3,0.1-0.4c0.2-0.2,0.7-0.9,0.6-0.7s0.2-0.4,0.6-0.7c0.3-0.3,0.4-0.3,0.5-0.5s0.3-0.5,0.5-0.5
	c0-0.2,0.5-0.2,0.7-0.3c0.3-0.3,0.5-0.2,0.9-0.3c0.7-0.1,0.9-0.4,1.7-0.3c0.7,0.1,0.7,0.3,1.3,0.4c0.3,0,0.1-0.4,0.4-1.1
	c0.3-0.6,0.3-0.7,0.5-1.1c0.1-0.2-0.1,0,0.2-0.5c0.3-0.4,0.1-0.3,0.5-0.5c0.1-0.1,0.4-0.3,0.5-0.4c0.1-0.2,0.4-0.3,0.5-0.5
	c0.3-0.3,0.3-0.2,0.7-0.4c0.4-0.2,0.4-0.3,0.8-0.5c0.3-0.2,0.4-0.1,0.7-0.3c0.7-0.5,1.4-0.5,2.3-0.5c0.2,0,0.7,0,1,0.2
	s0.3,0.6,0.4,0.6c0.2,0-0.2-0.2,0.6-1.2c0.4-0.5,1.5-1.4,1.8-1.8c0.3-0.2,0.2,0,0.6-0.3c0.3-0.2,0.5-0.4,0.8-0.5
	c0.6-0.3,1.1-0.5,1.7-0.7c0.1,0,0.3,0.1,0.4,0s0.1-0.4,0-0.4c-0.1-0.1-0.5,0.2-0.7,0.2c-0.8,0.4-1.5,0.7-2.3,1.1
	c-0.3,0.1-0.7,0.5-0.8,0.6c-0.1,0.1-0.2,0.3-0.4,0.3c-0.3,0-0.6-0.5-0.8-0.4c-0.1,0,0.1,0.2,0.1,0.3c-0.1,0.1-0.4,0.1-0.4,0.1
	c0-0.1,0-0.6-0.1-0.6c-0.4-0.1-0.6,0.2-0.9,0.4c-0.1,0-0.5,0.4-0.9,0.5c-0.6,0.1-1.3-0.1-1.3-0.8c0.3,0,0.5,0.5,0.9,0.5
	c0.3,0,0.9-0.5,1-0.6c0.5-0.3,0.6-0.5,0.8-1.1c0.1-0.3,0.3-0.5,0.2-0.6c-0.1-0.2-0.7-0.3-1.1-0.4c-0.1,0-1.4-0.5-1.3-0.6
	c0.1-0.2,1.2,0.5,1.7,0.4c0.3,0-0.3-1.1-0.1-1.1c-0.1,0,0.7,1.2,0.9,1.2c0.1,0,0.4-0.5,0.5-0.4s-0.2,0.6-0.2,0.6
	c0.2,0.1,1.1-0.1,1.3-0.1c0.7,0.1,0.9,0.1,1.2-0.5c0.2-0.3,0.2-1,0.4-1.2c0.2-0.1,0.4,0.1,0.6,0c0.6-0.3,0.4-0.3,0.5-0.8
	c0-0.5,0.2-1.1-0.2-1.5c-0.3-0.3-0.8-0.4-0.8,0.1c0,0.4,0,1-0.5,1.1c0.2,0,0-1.2,0-1.3c-0.1-0.6-0.3,0.1-0.5-0.3
	c-0.1-0.2-0.2-0.2-0.5,0c-0.4,0.2-0.6,0.7-1.1,0.3c-0.1-0.1-1.2,0.2-1.7,0.2c-0.2,0-0.1-0.3-0.1-0.3c0.2,0,0.7,0.1,1.1,0
	c0.5-0.1,0.9-0.4,1.1-0.6c0.3-0.2,0.7-0.3,1-0.4c0.1,0,0.3,0.1,0.4,0s0-0.4,0.1-0.4c0.2-0.1,0.5-0.1,0.7-0.1c0.4,0,0.7,1.2,0.8,1.1
	c0.1-0.1-0.2-1.3-0.6-2.1c-0.3-0.5-0.6-0.7-0.8-1.2c0-0.1,0.3-0.2,0.2-0.3c-0.1-0.2,0.1-0.6,0.1-0.8c-0.1-0.5,0-0.7,0.1-0.7
	c0.2,0,0.3,0.6,0.4,1.1c0.2,0.7,0.3,1.4,0.3,1.7c0.1,0.5,0.7,1.9,0.8,2.3c0.2,0.5,0.5,0.9,0.5,1.1c0.3,0.6,0.6,1.3,0.7,2.1
	c0.1,0.6-0.2,0.9-0.2,1.3c0,0.7,0.2,0.9,0.3-0.3c0.1-0.9,0.1-1.2-0.1-2c-0.2-0.7-0.6-1.4-1-2.1c-0.3-0.6-0.7-1.5-0.8-2.2
	c-0.1-0.6-0.2-0.7-0.3-1.5c-0.1-0.8-0.6-1.5-0.7-2.3c0-0.2-0.1-0.5-0.3-0.5c-0.5-0.2-1.3,0.3-1.3-0.3c-0.5,0.1-0.7,0.4-1.2,0.5
	c-0.2-0.2-0.5-0.9-0.7-1.1c-0.5-0.5-1.2-0.8-1.3-1.4c0.7,0,1.2,0.4,1.5,0.8c0.5,0.6,0.2,1.9,1.4,0.7c-0.1-0.5,0.1-0.9-0.6-0.9
	c0-0.4-0.6-0.4-0.6-0.5c0-0.3,0.7-0.1,0.7-0.3c-0.1-0.2-0.4-0.7-0.5-0.9c0.1,0,0.2-0.1,0.3-0.1c0.2,0,0.6,0.6,0.8,0.7
	c0.1,0.1,0.1-0.6,0.2-0.6c0-0.2-0.1-0.6-0.3-0.8c-0.1-0.1-0.2,0.1-0.3,0c-0.2-0.3,0-0.3-0.1-0.5c-0.2-0.5-0.7-0.2-0.9-0.4
	c-0.3-0.3-0.3-0.6-0.6-0.9c0.3,0,0.4,0.6,0.6,0.6c0.1,0,0.1-0.3,0.2-0.4c0.1,0,0,0.3,0.1,0.4s0.4,0,0.4,0.1c0.1,0.1,0.5,0.2,0.6,0.1
	s-0.3,0-0.3-0.2s0.3-0.6,0.3-0.8c0-0.7,0.4-0.6,0.3-0.9c0-0.4-0.2-0.5-0.9-0.7c-0.6-0.1-0.9-1-1.5-1.3c-0.5-0.3-1.1-0.1-1.6-0.5
	c-0.3-0.2-1.5-1.9-0.7-1.9c-0.2,0.5,0.5,1.1,0.8,1.3c0.4,0.4,0.8,0.5,1.3,0.4c0.4,0,0.4,0.2,0.8,0.3c0,0.5,0,0.3,0.3,0.5
	c0.1,0.1,0.2-0.3,0.4-0.1c0.2,0.2,0.5,0.6,0.6,0.7c0-0.6,0-0.7-0.2-1.2s0-1-0.2-1.5c-0.7-0.4-0.7-1.3-0.6-2c0-0.2-0.4-0.8-0.1-0.8
	c0.4-0.1,0.4-0.7,0.4-1.1c-0.1-0.6,0.4,0,0.5-0.2s-0.1-0.8-0.1-1.1c0-0.3-0.5-0.3-0.6-0.5c0.4,0,0.7-0.6,1-0.9
	c0.1-0.2,0.3-0.3,0.4-0.4c0,0.1,0.1,0.3,0.2,0.3c0.2,0,0-0.5,0.1-0.5h0.5c0-0.3,0.2-0.3,0.4-0.6c0.1-0.2-0.1-0.5-0.1-0.7
	c0.6,0,0.5,0.2,0.5,0.7c0.1,0.2,0,0.4-0.3,0.3c0,0.4-0.2,0.2-0.5,0.2c-0.1,0.2-0.1,0.5-0.3,0.7c-0.1,0.1-0.1,0.1-0.2,0.2
	c-0.3,0-0.3,0.2-0.2,0.5c0.1,0.5,0.1,0.9,0.2,1.4c-0.2,0.1-0.3,0-0.3-0.2c-0.5,0.2-0.5,0.8-0.5,1.2c0.4,0,0.7-0.4,1-0.5
	c0,0.4,0.2,0.7-0.4,0.7s-0.5,1-0.5,1.4c0.2-0.1,0.3-0.4,0.6-0.5c0,0.8,0.7,0.6,1.1,1c0.6,0.6-1-0.3-1.2-0.3c0.1,0.3-0.3,0.4-0.2,0.7
	c0.2,0.1,0.9,0.4-0.2,0.4c-0.3,0,0.1,0.4,0.3,0.8c0.2,0.5,0.4,1,0.6,1.2c0.1,0,0.1-0.2,0.3-0.3c0.4-0.2,0.7,0,1,0.1
	c0.7,0.3,0.2,0.3,0,0.6c0.3,0,0.8-0.2,0.8,0.3c-0.2-0.1-0.1,0.1-0.1,0.3c0.1,0.1,0.5-0.1,0.4,0.4c0,0.1-0.2,0.1-0.3,0.2
	c-0.4,0.2-0.3,0.8,0.1,0.8c0.1-0.1,0.3-0.4,0.5-0.3s0,0.2,0.1,0.3c0.2,0.2-0.4,0.9-0.5,1.1c-0.9,1.3-1.2,2.6-1.2,4.2
	c0.2-0.1,0.3,0,0.3,0.3c0.2-0.2,0-0.4,0.3-0.5s0.2-0.2,0.2-0.3c0-0.2,0-0.1,0.1-0.6c0.1-0.4,0.5-0.7,0.6-1.1
	c0.3-0.9,0.5-0.6,0.8-0.6c0-0.6,0.6-1.5,1-2c0.2-0.3,0.4-0.2,0.5-0.3c0.3-0.4,0.6-0.9,0.9-1.2c0.2-0.2,0.2-0.4,0.2-0.7l0.3-0.7
	c0-0.2,0.1-0.3,0.2-0.5c0,0,0.1-0.1,0.1,0c-0.1-0.8,0.2-0.3,0.2-1c0-0.5,0-0.7,0-1c0,0,0,0,0-0.3c0,0.1,0,0.2,0,0.3
	c0-0.1,0-1.3-0.1-1.4c-0.2-0.2,0,0.1-0.4-0.1c-0.1-0.1-0.7-0.6-0.7-1c0-0.3-0.3,0-0.3-0.4c0-0.2,0-0.4-0.2-0.5
	c-0.4-0.3-0.4-0.3-0.4-0.8c0-0.3-0.2-0.5-0.3-0.7c-0.2-0.4-0.3-0.8-0.6-1.2c-0.1-0.1-0.2-1.1,0-1.1c0.3,0.3,0.3,0.7,0.6,1
	c0.2,0.1,0,0.1,0.1,0.3c0.1,0.3,0.5,0.3,0.7,0.4s0.3,0.3,0.4,0.4c0,0.1,0.1,0.1,0.1,0.2c0.1,0.2,0.8,0.1,1.2,0.2
	c0.5,0.1,0.7,0.5,0.8,0.7c0,0.6-0.5,1-0.6,1.5c0.8,0,1.1-0.5,1.3-1.1c0.1-0.1,0.1-0.2,0.2-0.3c0.2-0.3,0.3-0.6,0.5-0.9
	c0.1-0.1,0.4-0.3,0.5-0.4c0.5-0.4,0.7-0.4,1.1-0.9c0.3-0.4,0.7-1.3,1-1.6c0.8-0.8,0.4-1.6,0.8-2.9c0-0.3,0.2-1.2,0.2-1
	s0.1-0.4,0.1-0.6s0.1-0.3,0.1-0.8c0-0.4-0.2-0.3-0.1-0.6c-0.1,0,0,0.3-0.2,0.3c-0.4,0-1.1-0.2-1.4-0.3c0-0.4,0.6-0.4,0.8-0.6
	c0.2-0.1,0.3-0.2,0.4-0.3c0.1-0.1-0.1-0.4-0.1-0.6c0.3,0.1,0.3,0.6,0.5,0.6c0-0.2,0.7,0.2,1,0c0.2-0.2,1.1-0.2,1.4-0.2
	c0.4,0,1.8-0.4,2.1-0.4c0.3-0.1-0.6,0-0.8,0c-0.3,0-0.5,0.1-0.7,0.1s0.1-0.1,0.5-0.2s1.4-0.4,1.9-0.5c0.4-0.1,0.8,0.1,1.3-0.1
	c0.5-0.1,2.3-0.6,2.7-0.9c0.4-0.2,1.1-0.7,1.7-0.8c0.6-0.2,1.1-0.4,1.3-0.6c0.2-0.2,0.2-0.3-0.1-0.3c-0.4,0-0.4,0.2-0.6,0.4
	c-0.2,0.2-0.6,0.2-0.7,0c-0.1-0.1,0-0.2-0.4-0.1s-0.1,0.2-0.5,0.2c-0.3,0-0.5-0.1-0.6,0.1s-0.3,0.4-0.4,0.5
	c-0.1,0.2-0.2,0.3-0.4,0.1c-0.1-0.2-0.4-0.2-0.1-0.4c0.3-0.2,0.4,0,0.5-0.1s0.3-0.4,0.4-0.4c0.2,0,0.1,0.2,0.3,0.1
	c0.2-0.1,0.3-0.3,0.2-0.4c-0.1-0.2-0.2-0.6-0.4-0.4c-0.2,0.2-1,0.8-1.2,0.8c-0.2,0.1-0.4,0.2-1.1,0.4c-0.7,0.1-1.6,0.1-1.8,0.1
	c-0.2,0-0.4-0.2-0.5-0.1s-0.2,0.2-0.2,0.3c-0.1,0.1-0.6,0.1-0.9,0c-0.3,0-0.5-0.2-0.5-0.2s-0.1,0.1-0.2,0.1s0.1,0-0.5,0.1
	c-0.5,0.1-0.5,0.5-1,0.5c-0.4,0.1-0.6,0.5-0.7,0.3c-0.1-0.3-0.1-0.6,0.2-0.7c0.3-0.2,0.9-0.7,1.2-0.8c0.3-0.1,1.1-0.5,1.3-0.6
	c0.2-0.1,0.9-0.3,1.1-0.3s0.4-0.1,0.8-0.4c0.3-0.3,0.4-0.4,0.6-0.5s0.1,0.1,0.4,0.1c0.4,0,1.1,0,1.5,0s2.1-0.3,2.3-0.3
	c0.2,0,0.3,0,0.8-0.1s0.5-0.1,0.7-0.1c0.3,0,0.6,0.3,0.7,0.1c0.1-0.2,0.8-0.2,1.1-0.2c1-0.2,1.1-0.5,1.2-1.4c0-0.3,0.2-0.9,0.2-1
	c0-0.2-0.1-0.4,0-0.5c0-0.1,0.2,0.3,0.4,0.4c0.1,0,0.1,0.3,0.3,0.3c0.1,0,0.1-0.2,0.2-0.3c0.1-0.1,0.4,0,0.3,0.1
	c-0.2,0.6-0.7,0.4-0.8,1.1c-0.1,0.8-0.1,0.7,0,0.6c0.2-0.1,0.4-0.3,0.5-0.3c0.3,0,0.2,0.5,0.3,0.5c0.1,0,0.3-0.5,0.4-0.5
	c0.4,0.2,0.7,0.1,1-0.1s0.1-0.7,0.4-0.7c0.2,0,0.4,0.1,0.4-0.2c0-0.4,0.8-0.6,1-0.8c0,0.6,0.1,1.2-0.4,1.5c-0.3,0.2-1.2,0.5-1.2,0.9
	c0.4,0,0.7-0.3,1-0.5s0.6-0.3,0.8-0.5c0.3-0.3,0.7,0.2,0.9-0.3c0.2-0.3,0.6-0.4,0.9-0.4c0.5-0.2,0.8-0.2,1.1-0.2
	c0,0,0.1-0.2,0.5-0.1s0.1,0.6,0.1,1c0.2,0,0.1-0.2,0.2-0.5c0.1-0.5,0.3-0.8,0.3-1c0-0.4-0.1-1.4-0.4-1.7c-0.2-0.3-0.6-1.4-0.8-1.4
	c-0.2,0-0.7,0-0.7,0.2c0.1,0.2,0.2,0.8,0.3,0.8c0.1,0,0.4,0,0.2,0c-0.2-0.1,0-0.8,0.1-0.7c0.1,0.1,0.4,0.7,0.4,1.1s0,0.7,0.1,0.6
	s0.3,0,0.3,0.2s0,0.1,0,0.4c-0.2,0.7-0.5,0.3-0.8,0.4s-0.8,0.1-1.1,0.1c-0.3,0-0.4,0-0.8-0.2c-0.5-0.2-0.3-0.4-0.3-0.8
	c0-0.7-0.1-0.5-0.7-0.5c0-0.1-0.1-0.3-0.1-0.3c0.1-0.1,0.5,0,0.5-0.2s-0.2,0.1-0.2-0.2c-0.1-0.4-0.1-1.1-0.3-1.3
	c-0.2-0.2-0.2-0.4-0.3-0.7c-0.1-0.4-0.3-0.1-0.6-0.3c-0.1,0-0.4-0.5-0.4-0.4c0.1,0.5-0.3,0.5-0.5,0.4c-0.8-0.5,0.3-0.7,0.2-0.7
	l-0.3-0.6c0.3,0.3,0.7-0.5,1.3-0.7c0.6-0.3,0.5-0.2,1-0.5c0.4-0.3,0.3-0.8-0.3-0.5c-0.4,0.2-0.7-0.6-0.7-0.8c-0.1-0.5,0-0.5-0.1-0.9
	c-0.1-0.7,0.6-0.9,0.9-1.5c0.2-0.4,0.2-1.5,0.7-1.8s1.7-1,0.9-1.1c0-0.3-0.2-0.3,0.1-0.4c-0.1-0.1,0.9-0.2,1-0.3
	c0.2-0.1-0.2-0.7-0.2-0.9c0.2-0.5-0.1-0.9,0.7-1c0.6-0.1,0.3-0.6,0.7-0.3c0.3,0.3,0.2,0,0,0.3s-0.2,0.5,0.1,0.3
	c0.3-0.2,0.4-0.2,0.6,0s0.2,0.4,0.6,0.1s0.4-0.1,0.4-0.3c0-0.2,0-0.2-0.1-0.4c-0.1-0.2-0.1-0.7,0.1-0.7c0.2,0.1,0.2,0.5,0.3,0.5
	c0.1,0.1,0,0.1,0.2,0.1s0.1,0.2,0.3,0.1c0.2-0.1,0.2-0.8,0.3-0.5c0.1,0.4,0,0.4,0.2,0.2c0.2-0.3,0.3-0.5,0.4-0.7s0.3-0.5,0.5-0.2
	s0.2,0.5,0.4,0.5c0.2,0.1,0.1,0.1,0.5-0.2c0.4-0.3,0.7-0.6,0.8-0.8c0.1-0.2-0.1-0.1-0.1-0.5s0-0.4,0.2-0.7c0.3-0.3,0.4-0.6,0.5-0.9
	s-0.2-0.2-0.2-0.5s-0.1-0.2,0.5-0.4c0.5-0.1,0.7-0.9,0.8-0.5c0,0.4,0,0.4-0.1,0.7c-0.1,0.3-0.2,0.5-0.1,0.3c0.2-0.2,0.2,0,0.1,0.2
	s-0.3,0.5,0,0.4c0.4-0.2,0.6-0.1,0.7,0c0.1,0.2,0,0.2-0.1,0.4c-0.1,0.2-0.2,0.6,0,0.7s-0.1,0.2,0.3-0.1c0.4-0.3,0.5-0.3,0.3-0.4
	s-0.6-0.6-0.4-0.5s0.3,0.4,0.5,0.4s0.2-0.2,0.1-0.4c-0.1-0.1-0.4-0.1-0.3-0.5c0-0.4,0.1-0.5,0.3-0.5c0.2,0,0.3-0.2,0.3-0.3
	c0-0.2,0.3-0.4,0.3-0.1c0,0.3,0,0.5,0.1,0.6c0.1,0,0.2,0.1,0.1,0.3c-0.2,0.2-0.3,0.4-0.2,0.6c0.1,0.2,0.2,0.3,0.5,0.4
	c0.3,0,0.4-0.2,0.7-0.4c0.3-0.2,0.3-0.1,0.2-0.4c0-0.3-0.1-0.4-0.2-0.6c-0.2-0.2-0.7-0.4-0.1-0.5c0.5-0.1,0.6-0.2,0.7,0
	c0.1,0.2-0.1,0.4,0.1,0.6s0.3,0.5,0.5,0.3c0.1-0.2,0.1-0.4,0.6-0.4c0.4,0,0.6-0.1,0.5-0.4c0-0.3,0.3-0.7,0.4-0.6
	c0.1,0.1,0.1-0.1,0.4,0s0.3,0.3,0.6,0.2c0.2-0.1,0.5-0.3,0.5-0.6s0-0.1,0-0.3c0-0.1,0,0.2,0.2-0.1c0.2-0.4,0.5,0.2,0.5,0.3
	c0.3-0.1,0.3-0.3,0.4-0.7c0.1-0.1,0.1,0.3,0.3,0.3c0.1,0.1,0.1,0,0.4,0c0.2,0,0.1-0.1,0.3-0.1c0.1,0.1,0.1-0.1,0.3-0.2
	c0.2-0.1,0.1-0.1,0.4-0.4s0.3-0.2,0.5-0.4s0.4-0.4,0.6-0.8C358.3,60.6,358.4,60.6,358.1,60.6z M276.1,188.9c0.8,0,1,0.2,1.2,1
	c0.1,0.4,0.3,1.3,0,1.7c-1,1.2-1.8-0.6-2.2-1.3C275.9,190,276.3,189.7,276.1,188.9z M87,85.7c0.3-0.1,0.8-0.5,1-0.5
	c0.4,0,0.3,0.6,0.3,0.8c0,0.5,0.2,0.9,0.5,1.3c0.2,0.3,0.9,0.4,1,0.7c0.1,0.3,0,0.7,0.1,1c0.2,0,0.5,0.1,0.5-0.1
	c0.1-0.5,0-1.1,0-1.6c0.6,0,1.1,0.2,1.7,0.2c0,0.5-0.8,0.6-1,1.1c-0.1,0.3,0.4,0.2,0.6,0.3c0.4,0.2,0.3,0.8,0.4,1.1
	c0.1,0.2,0.3,0.3,0.3,0.5c0.1,0.4,0,0.3,0.4,0.4c1.1,0-0.2,0.6-0.6,0.7c0-0.3-0.7-1-0.9-1c0,0.7,0.4,1.2,0.2,1.9
	c0,0.2-0.9,1-1.1,0.9c-0.2-0.2-0.1-0.8-0.1-1s-0.4-1.1-0.4-0.5c-0.1,0.6-0.8,0.2-1-0.2c-0.3-0.8-0.3-0.9-1.1-0.9
	c0-0.4,0.3-0.9,0.3-1.4c0-0.6-0.8-0.6-1.3-0.7c0.4-0.4,0.1-1.4,0-1.9C86.8,86.4,86.7,85.9,87,85.7z M179,192.5
	c0.1,0.2,0.1,0.3,0.1,0.4c0,0.1,0.1,0.4,0.3,0.6c0.2,0.3,0.4,0.9,0.5,1.1c0.1,0.3,0.2,1,0.2,1.2s0,0.1,0,0.1s-0.1,0.1-0.1,0
	c0,0-0.1-0.1-0.3-0.2c-0.2-0.1-0.2,0-0.3-0.1s0-0.2,0-0.5c0-0.2,0-0.5,0-0.7s-0.3-0.9-0.4-1c-0.1-0.2-0.2-0.5-0.3-0.5
	s-0.1-0.2-0.1-0.2c0-0.1,0-0.1-0.1-0.2c-0.1-0.1,0-0.1-0.1-0.2c-0.1-0.1,0-0.2-0.1-0.3c0-0.1-0.1-0.3-0.1-0.5c0-0.3,0-0.2,0-0.3
	s0-0.1-0.1-0.2c-0.1-0.1,0,0,0.2,0.1c0.1,0.1,0.2,0.2,0.3,0.5C178.7,191.9,178.8,192.3,179,192.5z M186.7,179.3
	c-0.3,0.1-0.6,0.3-0.9,0.4c-0.2,0.1-0.4,0.2-0.5,0.3s-0.3,0.3-0.6,0.5c-0.2,0.2-0.1,0.1-0.2,0c-0.1-0.1-0.2,0.1-0.3,0.2
	c-0.1,0.1,0,0.2-0.2,0.3s-0.5,0.2-0.6,0.2s-0.1,0.1-0.2,0.2c0,0-0.1,0-0.1,0.1s-0.2,0.2-0.3,0.2c-0.1,0.1-0.1,0-0.1,0.1
	c0,0-0.2,0.1-0.3,0.1s-0.2,0-0.3,0.1s0,0.1,0,0.3s-0.1,0.1-0.2,0c-0.1-0.1-0.2,0-0.2,0.1c-0.1,0.1-0.1,0-0.2,0.1
	c-0.1,0.1,0,0.1-0.1,0.2c-0.1,0.2-0.2,0.3-0.2,0.4c0,0.1-0.1,0.3-0.2,0.3c-0.1,0-0.1,0.1,0,0.1s-0.1,0.1-0.2,0.1
	c-0.1,0.1,0,0.1-0.1,0c0,0-0.1-0.1-0.2-0.1c0,0-0.1,0.1-0.2,0.3c-0.1,0.2,0,0.2-0.1,0.3c0,0.1,0.1,0,0.1,0.1s0,0.1-0.1,0.3
	c0,0.1-0.2,0.2-0.3,0.3s-0.2,0.4-0.2,0.5s-0.1,0-0.2,0.1c0,0.1,0,0.2,0,0.3s-0.1,0.2-0.2,0.4c-0.1,0.2-0.2,0.4-0.2,0.5
	s-0.1,0.2-0.1,0.3s-0.1,0.2-0.1,0.2c0,0.1-0.1,0.2-0.1,0.3s0,0.1,0,0.1c-0.1,0,0,0.1-0.1,0.3s0,0.6,0,0.6c0,0.1,0,0.2,0,0.3
	s0,0.3,0,0.6s0,0.1,0,0.3s-0.1,0.1-0.1,0s0-0.4,0-0.5s-0.1-0.3-0.1-0.5c0-0.1,0-0.3,0-0.4c0-0.1,0-0.2,0.1-0.3c0-0.1,0-0.2,0-0.2
	s-0.2,0.1-0.5,0.2c-0.2,0.1-0.2,0-0.3,0s-0.2,0-0.4,0c-0.1,0-0.1-0.1-0.1-0.2c-0.1-0.2,0-0.1-0.1-0.2c-0.1-0.1-0.1-0.2-0.1-0.3
	s0-0.1,0-0.1s0,0.2,0.1,0.2c0,0.1,0.1,0,0.1,0s0-0.1,0-0.2c0-0.1,0.1,0,0.1,0.1s0,0.3,0.1,0.4c0.1,0,0.1,0.1,0.2,0
	c0.1-0.1,0.2-0.2,0.4-0.3c0.1-0.1,0-0.1,0.1-0.2c0.1-0.1,0.1,0,0.1,0.1s-0.1,0.1-0.2,0.2c-0.1,0.1-0.1,0.1-0.2,0.2
	c-0.1,0.1,0.2,0.1,0.3,0s0.4-0.1,0.4-0.2c0.1-0.1,0.2-0.5,0.2-0.7c0-0.1,0.2-0.8,0.3-1s0.4-0.7,0.4-0.8s-0.1-0.1-0.3-0.2
	c-0.2-0.1-0.4-0.3-0.5-0.4c-0.1-0.1-0.1-0.2,0-0.3c0.1-0.2,0-0.1-0.2-0.1c-0.1,0-0.2,0-0.3,0.1c-0.2,0-0.1,0,0-0.1s0.3-0.1,0.5-0.1
	s0.1,0.2,0.3,0.1c0.1-0.1,0.1-0.2,0.4-0.2c0.2,0,0.1,0.1,0.2,0.2c0,0.1,0.2,0.2,0.3,0.1c0.1,0,0.2-0.3,0.2-0.4
	c0.1-0.2,0.2-0.3,0.3-0.4c0.1-0.1,0.2-0.1,0.2-0.1s0-0.1,0-0.3s0.2-0.2,0.2-0.3s0-0.2,0-0.3s0-0.2,0-0.3c-0.1-0.1-0.1,0-0.2,0.1
	c0,0.1,0,0.1-0.3,0.3c-0.3,0.1-0.3,0-0.4,0c-0.1,0-0.1-0.1,0-0.2c0.1-0.1,0.5-0.4,0.6-0.4c0.1-0.1,0.2,0,0.3,0.1
	c0.1,0.2,0.2,0.1,0.3,0.2c0.1,0,0.3,0,0.4,0c0.1,0,0.3-0.2,0.4-0.3c0.1-0.1,0.3-0.3,0.3-0.4c0-0.1,0.1-0.1,0.2-0.2
	c0-0.1-0.1-0.2-0.1-0.3s0.1-0.2,0.1-0.3s-0.2-0.2-0.4-0.4s0.1,0,0.2,0.1c0.1,0.1,0.2,0,0.4,0s0.1,0.2,0.1,0.3s0,0.2,0.1,0.3
	s0.2,0,0.3,0.1c0.1,0,0.3-0.2,0.3-0.3c0.1-0.1,0.2-0.1,0.3-0.2c0.1-0.1,0.2-0.1,0.3-0.2c0.2-0.1,0.3-0.2,0.4-0.3c0.1,0,0-0.1,0-0.2
	c0-0.1-0.2-0.2-0.4-0.3s-0.3-0.3-0.4-0.3c-0.1-0.1-0.2-0.2-0.3-0.2s-0.1-0.1-0.1-0.3s-0.1-0.1-0.2-0.3c-0.1-0.2,0.1-0.2,0.2-0.2
	c0.2,0,0.1,0.2,0.1,0.2c0,0.1,0,0.2,0.2,0.3c0.2,0,0.2,0.1,0.2,0.2c0,0.1-0.1,0.1,0.1,0.1c0.1,0,0.1,0,0.1,0.1s0.2,0,0.4,0
	c0.2-0.1,0.3-0.2,0.6-0.3c0.2-0.1,0.2,0,0.2-0.1c0,0,0.1-0.2,0.1-0.1c0,0.1,0.1,0,0.2-0.1c0.1-0.1,0.2-0.1,0.2-0.1
	c0.1,0-0.1,0.1-0.1,0.2c-0.1,0.1-0.1,0.2-0.1,0.2c0.1,0,0.1,0,0,0.1s0,0.2,0,0.2c0,0.1,0.3,0.1,0.5-0.1c0.3-0.2,0.7-0.2,0.8-0.2
	C187.1,179.2,187,179.3,186.7,179.3z M194.9,172.7c-0.2,0.3-0.6,0.2-0.8,0.6c-0.2,0.4-0.1,0.3-0.4,0.4c-0.3,0.1-0.1-0.1-0.1-0.2
	c-0.1-0.1-0.1-0.2,0.1-0.3c0.1-0.1,0-0.2-0.3-0.5s0.1-0.2,0.1-0.4s-0.2-0.1-0.5-0.1s-0.1-0.1,0-0.5s0.4-0.3,0.4-0.3s0,0,0.3-0.1
	c0.1,0,0.1-0.3,0.6-0.8c0.4-0.4,0.5,0.2,0.4,0.7c-0.1,0.4-0.1,0.4-0.2,0.6c-0.1,0.2-0.1,0.1-0.3,0.2c-0.2,0.1,0,0.2,0.1,0.3
	c0.1,0,0.5-0.2,0.8-0.3s0.3,0,0.4,0.2C195.4,172.5,195.1,172.4,194.9,172.7z M200.5,170.5c-0.1,0-0.5,0.2-0.8,0.3
	c-0.3,0.2-0.2,0-0.4-0.3s-0.2-0.3-0.2-0.5c-0.1-0.2,0.1-0.3,0.3-0.5s0.1-0.4,0.5-0.7c0.3-0.3,0.3-0.3,0.2,0.6c0,0.8,0,0.6,0.4,0.8
	C200.9,170.5,200.7,170.5,200.5,170.5z M222.8,167.7c0,0.2-0.1,0.3-0.2,0.5c-0.3,0.4-0.9,0.4-1.3,0.3c-0.4,0-0.5-0.2-0.9-0.3
	s-0.1-0.4-0.3-0.6c-0.7-0.5-1-0.1-1-1.2c0-0.3,0.5-0.1,0.7-0.1c0.3,0.1,0.1,0.5,0.1,0.8c0.7,0,0.3-0.3,0.5-0.7
	c0.2-0.3,0.9-0.5,1.1-0.2c0.3,0.6,1.4,0.5,1.9,0.6c0,0.3,0.2,0.6,0.2,0.9C223.4,167.7,223.1,167.7,222.8,167.7z"/>
<path class="st2" d="M243.9,0c-0.5,0-0.8,1,0.1,0.8C244.6,0.8,244.4,0,243.9,0z"/>
<g>
	<path class="st3" d="M43.8,101.6c-0.8,0-1.6,0.1-2.3,0.2c-0.8,0.2-1.6,0.5-2.4,0.8c-3.6,1.8-6.2,5.5-6.1,9.8c0,3.2,1.9,6.3,1.9,6.3
		l8.8,15.6l8.9-15.6c0,0,1.9-2.9,1.9-6.2C54.6,106.5,49.7,101.6,43.8,101.6z M43.8,116.5c-2.4,0-4.3-1.9-4.3-4.3
		c0-2.4,1.9-4.3,4.3-4.3c2.4,0,4.3,1.9,4.3,4.3C48.1,114.6,46.2,116.5,43.8,116.5z"/>
	<circle class="st4" cx="43.8" cy="112.2" r="4.3"/>
</g>
<g>
	<path class="st3" d="M32,27.8c-0.8,0-1.6,0.1-2.3,0.2c-0.8,0.2-1.6,0.5-2.4,0.8c-3.6,1.8-6.2,5.5-6.1,9.8c0,3.2,1.9,6.3,1.9,6.3
		L32,60.5l8.9-15.6c0,0,1.9-2.9,1.9-6.2C42.8,32.6,38,27.8,32,27.8z M32,42.7c-2.4,0-4.3-1.9-4.3-4.3c0-2.4,1.9-4.3,4.3-4.3
		c2.4,0,4.3,1.9,4.3,4.3C36.4,40.7,34.4,42.7,32,42.7z"/>
	<circle class="st4" cx="32" cy="38.3" r="4.3"/>
</g>
<g>
	<path class="st4" d="M85.8,107.5c-1-1.1-1.6-2.6-1.6-4.6V95h2v7.8c0,3,1.3,4.5,3.9,4.5c1.3,0,2.2-0.4,2.9-1.1s1-1.9,1-3.4V95H96
		v7.9c0,2-0.5,3.5-1.6,4.6c-1,1.1-2.5,1.6-4.3,1.6C88.2,109.1,86.8,108.6,85.8,107.5z"/>
	<path class="st4" d="M101.1,108.6c-1-0.3-1.7-0.7-2.3-1.3l0.7-1.6c0.5,0.5,1.2,0.9,2,1.2s1.7,0.4,2.6,0.4c1.2,0,2-0.2,2.6-0.6
		c0.6-0.4,0.9-0.9,0.9-1.6c0-0.5-0.2-0.9-0.5-1.2s-0.7-0.5-1.2-0.7s-1.1-0.3-1.9-0.5c-1-0.3-1.9-0.5-2.5-0.8
		c-0.6-0.3-1.2-0.6-1.7-1.2c-0.5-0.5-0.7-1.2-0.7-2.1c0-0.7,0.2-1.4,0.6-2s1-1.1,1.8-1.4c0.8-0.4,1.8-0.5,3-0.5
		c0.8,0,1.6,0.1,2.4,0.3c0.8,0.2,1.5,0.5,2,0.9l-0.7,1.6c-0.6-0.4-1.2-0.7-1.9-0.8c-0.7-0.2-1.3-0.3-1.9-0.3c-1.1,0-2,0.2-2.5,0.6
		c-0.6,0.4-0.8,0.9-0.8,1.6c0,0.5,0.2,0.9,0.5,1.2c0.3,0.3,0.7,0.5,1.2,0.7c0.5,0.2,1.1,0.3,1.9,0.5c1,0.3,1.9,0.5,2.5,0.8
		c0.6,0.3,1.2,0.6,1.6,1.2s0.7,1.2,0.7,2.1c0,0.7-0.2,1.4-0.6,2c-0.4,0.6-1,1.1-1.8,1.4c-0.8,0.4-1.8,0.5-3,0.5
		C103.1,109.1,102.1,109,101.1,108.6z"/>
	<path class="st4" d="M133.8,99.5c0.8,0.8,1.2,1.9,1.2,3.4v6.1h-1.9v-5.8c0-1-0.2-1.8-0.7-2.3c-0.5-0.5-1.1-0.8-2-0.8
		c-1,0-1.7,0.3-2.3,0.9c-0.6,0.6-0.9,1.5-0.9,2.6v5.4h-1.9v-5.8c0-1-0.2-1.8-0.7-2.3s-1.1-0.8-2-0.8c-1,0-1.7,0.3-2.3,0.9
		c-0.6,0.6-0.9,1.5-0.9,2.6v5.4h-1.9V98.4h1.8v1.6c0.4-0.5,0.9-1,1.5-1.2s1.3-0.4,2.1-0.4c0.8,0,1.6,0.2,2.2,0.5
		c0.6,0.3,1.1,0.8,1.5,1.5c0.4-0.6,1-1.1,1.7-1.4c0.7-0.3,1.5-0.5,2.4-0.5C132,98.3,133,98.7,133.8,99.5z"/>
	<path class="st4" d="M145.7,99.4c0.8,0.7,1.2,1.8,1.2,3.2v6.4H145v-1.4c-0.3,0.5-0.8,0.9-1.4,1.1c-0.6,0.3-1.3,0.4-2.1,0.4
		c-1.2,0-2.1-0.3-2.8-0.9c-0.7-0.6-1.1-1.3-1.1-2.2c0-0.9,0.3-1.7,1-2.2c0.7-0.6,1.8-0.8,3.2-0.8h3v-0.4c0-0.8-0.2-1.5-0.7-1.9
		c-0.5-0.4-1.2-0.7-2.1-0.7c-0.6,0-1.2,0.1-1.8,0.3s-1.1,0.5-1.5,0.8l-0.8-1.4c0.5-0.4,1.2-0.8,1.9-1s1.6-0.3,2.4-0.3
		C143.8,98.3,144.9,98.7,145.7,99.4z M143.8,107.1c0.5-0.3,0.9-0.8,1.2-1.4v-1.5H142c-1.6,0-2.4,0.5-2.4,1.6c0,0.5,0.2,0.9,0.6,1.3
		c0.4,0.3,1,0.5,1.7,0.5C142.6,107.6,143.3,107.4,143.8,107.1z"/>
	<path class="st4" d="M150.4,96c-0.2-0.2-0.4-0.5-0.4-0.9s0.1-0.6,0.4-0.9c0.2-0.2,0.6-0.4,0.9-0.4c0.4,0,0.7,0.1,0.9,0.3
		c0.2,0.2,0.4,0.5,0.4,0.9c0,0.4-0.1,0.7-0.4,0.9c-0.2,0.2-0.6,0.4-0.9,0.4C151,96.4,150.7,96.3,150.4,96z M150.4,98.4h1.9V109h-1.9
		V98.4z"/>
	<path class="st4" d="M155.9,94.2h1.9V109h-1.9V94.2z"/>
	<path class="st4" d="M161.5,96c-0.2-0.2-0.4-0.5-0.4-0.9s0.1-0.6,0.4-0.9c0.2-0.2,0.6-0.4,0.9-0.4c0.4,0,0.7,0.1,0.9,0.3
		c0.2,0.2,0.4,0.5,0.4,0.9c0,0.4-0.1,0.7-0.4,0.9c-0.2,0.2-0.6,0.4-0.9,0.4C162.1,96.4,161.8,96.3,161.5,96z M161.5,98.4h1.9V109
		h-1.9V98.4z"/>
	<path class="st4" d="M175.9,99.5c0.8,0.8,1.2,1.9,1.2,3.4v6.1h-1.9v-5.8c0-1-0.2-1.8-0.7-2.3c-0.5-0.5-1.2-0.8-2.1-0.8
		c-1,0-1.8,0.3-2.4,0.9c-0.6,0.6-0.9,1.5-0.9,2.6v5.4H167V98.4h1.8v1.6c0.4-0.5,0.9-1,1.6-1.3c0.7-0.3,1.4-0.4,2.2-0.4
		C174,98.3,175.1,98.7,175.9,99.5z"/>
	<path class="st4" d="M190.7,98.4v9.1c0,1.8-0.5,3.2-1.4,4.1c-0.9,0.9-2.3,1.3-4.1,1.3c-1,0-1.9-0.1-2.8-0.4
		c-0.9-0.3-1.6-0.7-2.2-1.2l0.9-1.5c0.5,0.4,1.1,0.8,1.8,1c0.7,0.2,1.5,0.4,2.2,0.4c1.2,0,2.1-0.3,2.7-0.9c0.6-0.6,0.9-1.5,0.9-2.7
		v-0.8c-0.5,0.5-1,1-1.7,1.2c-0.7,0.3-1.4,0.4-2.1,0.4c-1,0-1.9-0.2-2.7-0.6c-0.8-0.4-1.5-1-1.9-1.8c-0.5-0.8-0.7-1.7-0.7-2.7
		s0.2-1.9,0.7-2.7c0.5-0.8,1.1-1.4,1.9-1.8c0.8-0.4,1.7-0.6,2.7-0.6c0.8,0,1.5,0.1,2.2,0.4c0.7,0.3,1.2,0.7,1.7,1.3v-1.6H190.7z
		 M187.1,106.4c0.5-0.3,1-0.7,1.3-1.2c0.3-0.5,0.5-1.1,0.5-1.8c0-1-0.3-1.8-1-2.5c-0.7-0.6-1.5-0.9-2.6-0.9c-1.1,0-1.9,0.3-2.6,0.9
		c-0.7,0.6-1,1.5-1,2.5c0,0.7,0.2,1.3,0.5,1.8c0.3,0.5,0.7,0.9,1.3,1.2c0.6,0.3,1.2,0.4,1.9,0.4
		C185.9,106.9,186.5,106.7,187.1,106.4z"/>
	<path class="st4" d="M206.9,99.4c0.8,0.7,1.2,1.8,1.2,3.2v6.4h-1.8v-1.4c-0.3,0.5-0.8,0.9-1.4,1.1c-0.6,0.3-1.3,0.4-2.1,0.4
		c-1.2,0-2.1-0.3-2.8-0.9c-0.7-0.6-1.1-1.3-1.1-2.2c0-0.9,0.3-1.7,1-2.2c0.7-0.6,1.8-0.8,3.2-0.8h3v-0.4c0-0.8-0.2-1.5-0.7-1.9
		c-0.5-0.4-1.2-0.7-2.1-0.7c-0.6,0-1.2,0.1-1.8,0.3s-1.1,0.5-1.5,0.8l-0.8-1.4c0.5-0.4,1.2-0.8,1.9-1c0.8-0.2,1.6-0.3,2.4-0.3
		C205,98.3,206.1,98.7,206.9,99.4z M205,107.1c0.5-0.3,0.9-0.8,1.2-1.4v-1.5h-2.9c-1.6,0-2.4,0.5-2.4,1.6c0,0.5,0.2,0.9,0.6,1.3
		c0.4,0.3,1,0.5,1.7,0.5C203.8,107.6,204.5,107.4,205,107.1z"/>
	<path class="st4" d="M221.6,94.2V109h-1.8v-1.7c-0.4,0.6-1,1-1.6,1.3c-0.7,0.3-1.4,0.5-2.1,0.5c-1,0-1.9-0.2-2.7-0.7
		s-1.4-1.1-1.9-1.9s-0.7-1.8-0.7-2.8c0-1.1,0.2-2,0.7-2.8c0.5-0.8,1.1-1.4,1.9-1.9s1.7-0.7,2.7-0.7c0.8,0,1.5,0.1,2.1,0.4
		c0.6,0.3,1.2,0.7,1.6,1.3v-5.8H221.6z M218,106.9c0.5-0.3,1-0.7,1.3-1.3c0.3-0.6,0.5-1.2,0.5-1.9c0-0.7-0.2-1.4-0.5-1.9
		c-0.3-0.6-0.7-1-1.3-1.3c-0.5-0.3-1.1-0.5-1.8-0.5c-0.7,0-1.3,0.2-1.8,0.5c-0.5,0.3-1,0.7-1.3,1.3s-0.5,1.2-0.5,1.9
		c0,0.7,0.2,1.4,0.5,1.9s0.7,1,1.3,1.3s1.1,0.5,1.8,0.5C216.8,107.4,217.4,107.3,218,106.9z"/>
	<path class="st4" d="M235.2,94.2V109h-1.8v-1.7c-0.4,0.6-1,1-1.6,1.3c-0.7,0.3-1.4,0.5-2.1,0.5c-1,0-1.9-0.2-2.7-0.7
		s-1.4-1.1-1.9-1.9s-0.7-1.8-0.7-2.8c0-1.1,0.2-2,0.7-2.8c0.5-0.8,1.1-1.4,1.9-1.9s1.7-0.7,2.7-0.7c0.8,0,1.5,0.1,2.1,0.4
		c0.6,0.3,1.2,0.7,1.6,1.3v-5.8H235.2z M231.6,106.9c0.5-0.3,1-0.7,1.3-1.3c0.3-0.6,0.5-1.2,0.5-1.9c0-0.7-0.2-1.4-0.5-1.9
		c-0.3-0.6-0.7-1-1.3-1.3c-0.5-0.3-1.1-0.5-1.8-0.5c-0.7,0-1.3,0.2-1.8,0.5c-0.5,0.3-1,0.7-1.3,1.3s-0.5,1.2-0.5,1.9
		c0,0.7,0.2,1.4,0.5,1.9s0.7,1,1.3,1.3s1.1,0.5,1.8,0.5C230.4,107.4,231,107.3,231.6,106.9z"/>
	<path class="st4" d="M242.1,98.8c0.6-0.3,1.4-0.5,2.4-0.5v1.8c-0.1,0-0.3,0-0.4,0c-1,0-1.8,0.3-2.4,0.9c-0.6,0.6-0.9,1.5-0.9,2.6
		v5.3h-1.9V98.4h1.8v1.8C241,99.6,241.4,99.1,242.1,98.8z"/>
	<path class="st4" d="M256.2,104.3h-8.6c0.1,0.9,0.5,1.7,1.2,2.2s1.6,0.8,2.6,0.8c1.3,0,2.3-0.4,3-1.3l1.1,1.2
		c-0.5,0.6-1.1,1-1.8,1.3c-0.7,0.3-1.5,0.4-2.4,0.4c-1.1,0-2.1-0.2-3-0.7c-0.9-0.5-1.5-1.1-2-1.9s-0.7-1.8-0.7-2.8
		c0-1,0.2-1.9,0.7-2.8s1.1-1.5,1.9-1.9c0.8-0.5,1.7-0.7,2.7-0.7c1,0,1.9,0.2,2.7,0.7s1.4,1.1,1.8,1.9s0.7,1.8,0.7,2.8
		C256.2,103.9,256.2,104.1,256.2,104.3z M248.7,100.8c-0.6,0.6-1,1.3-1.1,2.2h6.8c-0.1-0.9-0.5-1.6-1.1-2.2
		c-0.6-0.6-1.4-0.8-2.3-0.8C250.1,99.9,249.3,100.2,248.7,100.8z"/>
	<path class="st4" d="M259.4,108.7c-0.8-0.2-1.4-0.5-1.9-0.9l0.8-1.5c0.5,0.3,1,0.6,1.7,0.8c0.7,0.2,1.3,0.3,2,0.3
		c1.7,0,2.5-0.5,2.5-1.4c0-0.3-0.1-0.6-0.3-0.8c-0.2-0.2-0.5-0.3-0.8-0.4c-0.3-0.1-0.8-0.2-1.4-0.3c-0.8-0.1-1.5-0.3-2.1-0.5
		s-1-0.5-1.4-0.9c-0.4-0.4-0.6-1-0.6-1.7c0-1,0.4-1.7,1.2-2.3c0.8-0.6,1.9-0.9,3.2-0.9c0.7,0,1.4,0.1,2.1,0.3
		c0.7,0.2,1.3,0.4,1.7,0.7l-0.8,1.5c-0.9-0.6-1.9-0.8-3-0.8c-0.8,0-1.4,0.1-1.8,0.4c-0.4,0.3-0.6,0.6-0.6,1.1c0,0.3,0.1,0.6,0.4,0.8
		c0.2,0.2,0.5,0.3,0.9,0.4c0.4,0.1,0.8,0.2,1.5,0.3c0.8,0.1,1.5,0.3,2.1,0.5c0.5,0.2,1,0.4,1.3,0.8c0.4,0.4,0.6,1,0.6,1.7
		c0,1-0.4,1.7-1.2,2.3c-0.8,0.6-1.9,0.8-3.3,0.8C261,109.1,260.2,109,259.4,108.7z"/>
	<path class="st4" d="M269.4,108.7c-0.8-0.2-1.4-0.5-1.9-0.9l0.8-1.5c0.5,0.3,1,0.6,1.7,0.8c0.7,0.2,1.3,0.3,2,0.3
		c1.7,0,2.5-0.5,2.5-1.4c0-0.3-0.1-0.6-0.3-0.8c-0.2-0.2-0.5-0.3-0.8-0.4c-0.3-0.1-0.8-0.2-1.4-0.3c-0.8-0.1-1.5-0.3-2.1-0.5
		s-1-0.5-1.4-0.9c-0.4-0.4-0.6-1-0.6-1.7c0-1,0.4-1.7,1.2-2.3c0.8-0.6,1.9-0.9,3.2-0.9c0.7,0,1.4,0.1,2.1,0.3
		c0.7,0.2,1.3,0.4,1.7,0.7l-0.8,1.5c-0.9-0.6-1.9-0.8-3-0.8c-0.8,0-1.4,0.1-1.8,0.4c-0.4,0.3-0.6,0.6-0.6,1.1c0,0.3,0.1,0.6,0.4,0.8
		c0.2,0.2,0.5,0.3,0.9,0.4c0.4,0.1,0.8,0.2,1.5,0.3c0.8,0.1,1.5,0.3,2.1,0.5c0.5,0.2,1,0.4,1.3,0.8c0.4,0.4,0.6,1,0.6,1.7
		c0,1-0.4,1.7-1.2,2.3c-0.8,0.6-1.9,0.8-3.3,0.8C271,109.1,270.2,109,269.4,108.7z"/>
</g>
<rect y="-1.2" class="st5" width="376" height="235.2"/>
</svg>
