<svg id="Layer_1" data-name="Layer 1" xmlns="http://www.w3.org/2000/svg" width="292.59" height="195.18" viewBox="0 0 292.59 195.18"><defs><style>.cls-1{fill:#cacbcd;}.cls-2{fill:#f0f0f1;}.cls-3{opacity:0.5;}.cls-4{fill:#939598;}.cls-5{fill:#e9eaea;}</style></defs><title>English_Outline</title><polygon class="cls-1" points="66.32 32.83 66.32 114.7 128.64 173.37 129.32 85.05 66.32 32.83"/><polygon class="cls-2" points="267.57 59.14 181.95 13.37 66.32 32.71 129.14 85.17 267.57 59.14"/><g class="cls-3"><polygon class="cls-4" points="211.6 29.23 90.02 52.47 103.91 64.08 229.75 38.93 211.6 29.23"/></g><g class="cls-3"><polygon class="cls-4" points="89.86 52.33 89.89 72.85 104.28 86.4 104.28 64.28 89.86 52.33"/></g><g class="cls-3"><polygon class="cls-4" points="88.91 118.77 88.91 136.16 102.72 149.16 103.33 132.72 88.91 118.77"/></g><polygon class="cls-5" points="267.49 58.86 129.32 85.05 128.63 173.37 266.49 140.74 267.49 58.86"/><g class="cls-3"><polygon class="cls-4" points="121.54 92.55 119.84 88.12 118.15 83.66 116.53 85.28 114.9 86.92 116.63 88.39 116.73 97.12 119.89 99.72 119.8 91.08 121.54 92.55"/><polygon class="cls-4" points="121.89 103.47 114.79 97.68 114.77 96.16 121.87 101.98 121.89 103.47"/></g><g class="cls-3"><polygon class="cls-4" points="143.82 95.91 142.01 93.25 140.2 90.56 138.46 93.99 136.72 97.42 138.57 97.03 138.68 105.78 142.06 105.02 141.97 96.31 143.82 95.91"/><polygon class="cls-4" points="144.2 106.7 136.6 108.43 136.58 106.91 144.18 105.19 144.2 106.7"/></g><g class="cls-3"><path class="cls-4" d="M260.34,124.05l0-4.73-7.4,1.63,0,4.52a3,3,0,0,0,3,3l.06,5.68-2.15.45v1.52l5.77-1.19,0-1.49-2.15.42-.06-5.62A4.61,4.61,0,0,0,260.34,124.05Z"/><path class="cls-4" d="M245.21,122.09c-3.08.69-5.57,4.09-5.58,7.61l11.22-2C250.82,123.93,248.3,121.4,245.21,122.09Z"/><path class="cls-4" d="M244.41,137.15l-.71.08c-.82.09-1.51-.36-1.51-1v-.63a.67.67,0,0,1,.61-.63.5.5,0,0,1,.6.47v.64a.46.46,0,0,0,.3,0l.7-.09a.31.31,0,0,0,.3-.3V127.9a.71.71,0,0,1,.6-.66.47.47,0,0,1,.6.44l0,7.91A1.68,1.68,0,0,1,244.41,137.15Z"/></g><rect class="cls-4" x="64.63" y="119.09" width="1" height="20.97" transform="translate(-72.8 84.8) rotate(-45.33)"/><rect class="cls-4" x="100.92" y="150.4" width="1" height="27.35" transform="matrix(0.69, -0.73, 0.73, 0.69, -87.57, 125.47)"/><rect class="cls-4" x="53.7" y="86.54" width="1" height="24.27" transform="translate(-0.27 0.15) rotate(-0.16)"/><polygon class="cls-4" points="56.88 110.02 54.24 114.62 51.58 110.03 56.88 110.02"/><rect class="cls-4" x="53.4" y="36.6" width="1" height="26.27" transform="translate(-0.13 0.14) rotate(-0.15)"/><polygon class="cls-4" points="51.22 37.38 53.86 32.79 56.52 37.37 51.22 37.38"/><polygon class="cls-4" points="55.45 123.5 54.81 119.55 60.54 122.11 55.45 123.5"/><polygon class="cls-4" points="113.47 172.39 114.11 176.34 108.38 173.78 113.47 172.39"/><rect class="cls-4" x="221.75" y="153.82" width="47.72" height="1" transform="translate(-30.43 65.22) rotate(-14.25)"/><rect class="cls-4" x="137.42" y="173.21" width="55.16" height="1" transform="translate(-35.17 42.06) rotate(-13.14)"/><polygon class="cls-4" points="270 150.7 272.56 147.63 266.32 146.93 270 150.7"/><polygon class="cls-4" points="136.88 178.03 134.32 181.11 140.55 181.81 136.88 178.03"/><path class="cls-4" d="M198.31,164h.61v7.84h4.84v.55h-5.45Z"/><path class="cls-4" d="M210.32,169.41h-5.38a2.68,2.68,0,0,0,4.65,1.62l.35.39a3,3,0,0,1-2.37,1,3.07,3.07,0,0,1-3.22-3.18,3,3,0,1,1,6,0S210.32,169.35,210.32,169.41Zm-5.37-.47h4.8a2.4,2.4,0,0,0-4.8,0Z"/><path class="cls-4" d="M217.8,168.74v3.65h-.6v-3.61a1.9,1.9,0,0,0-2-2.16,2.24,2.24,0,0,0-2.38,2.44v3.33h-.59v-6.26h.57v1.36a2.59,2.59,0,0,1,2.48-1.41A2.38,2.38,0,0,1,217.8,168.74Z"/><path class="cls-4" d="M225.92,166.13v5.59c0,2.1-1,3.05-3,3.05a4.13,4.13,0,0,1-2.87-1l.32-.45a3.76,3.76,0,0,0,2.53.91,2.13,2.13,0,0,0,2.45-2.44v-1a2.89,2.89,0,0,1-2.6,1.43,3,3,0,1,1,0-6.09,2.86,2.86,0,0,1,2.62,1.47v-1.42Zm-.59,3a2.56,2.56,0,1,0-2.56,2.51A2.43,2.43,0,0,0,225.33,169.12Z"/><path class="cls-4" d="M231.57,172a1.88,1.88,0,0,1-1.28.44,1.55,1.55,0,0,1-1.7-1.7v-4.09h-1.15v-.52h1.15v-1.36h.6v1.36h2v.52h-2v4c0,.8.39,1.25,1.16,1.25a1.43,1.43,0,0,0,1-.35Z"/><path class="cls-4" d="M238.84,168.74v3.65h-.6v-3.61a1.89,1.89,0,0,0-2-2.16,2.24,2.24,0,0,0-2.38,2.44v3.33h-.6v-8.9h.6v3.95a2.6,2.6,0,0,1,2.46-1.36A2.38,2.38,0,0,1,238.84,168.74Z"/><path class="cls-4" d="M62.27,144.31l-2.84,8.39h-.65l-2.6-7.53-2.62,7.53h-.65l-2.85-8.39h.65l2.55,7.55,2.63-7.55h.59l2.61,7.57,2.58-7.57Z"/><path class="cls-4" d="M63.58,144.44a.5.5,0,0,1,.5-.49.48.48,0,0,1,.49.48.5.5,0,0,1-1,0Zm.2,2h.6v6.26h-.6Z"/><path class="cls-4" d="M72.47,143.8v8.9h-.59v-1.47a2.76,2.76,0,0,1-2.56,1.52,3.18,3.18,0,0,1,0-6.36,2.82,2.82,0,0,1,2.55,1.5V143.8Zm-.6,5.77a2.52,2.52,0,1,0-2.52,2.64A2.49,2.49,0,0,0,71.87,149.57Z"/><path class="cls-4" d="M78,152.31a1.9,1.9,0,0,1-1.28.44,1.56,1.56,0,0,1-1.71-1.7V147H73.89v-.52H75v-1.36h.6v1.36h2V147h-2v4c0,.8.4,1.25,1.17,1.25a1.43,1.43,0,0,0,1-.35Z"/><path class="cls-4" d="M85.3,149v3.66h-.6v-3.61a1.9,1.9,0,0,0-2-2.16,2.24,2.24,0,0,0-2.37,2.44v3.33h-.6v-8.9h.6v3.95a2.59,2.59,0,0,1,2.46-1.36A2.38,2.38,0,0,1,85.3,149Z"/><path class="cls-4" d="M28.34,70.66v8.4h-.61v-4H22.11v4H21.5v-8.4h.61v3.86h5.62V70.66Z"/><path class="cls-4" d="M36.37,76.07H31a2.68,2.68,0,0,0,4.66,1.62l.34.39a3,3,0,0,1-2.36,1,3.07,3.07,0,0,1-3.23-3.17,3,3,0,0,1,3-3.18,3,3,0,0,1,3,3.15S36.37,76,36.37,76.07ZM31,75.6h4.8a2.4,2.4,0,0,0-4.8,0Z"/><path class="cls-4" d="M38.05,70.79a.5.5,0,0,1,.49-.49.49.49,0,1,1-.49.49Zm.19,2h.6v6.26h-.6Z"/><path class="cls-4" d="M47,72.8v5.59c0,2.09-1,3-3,3a4.18,4.18,0,0,1-2.87-1l.32-.46a3.71,3.71,0,0,0,2.53.91,2.13,2.13,0,0,0,2.45-2.43V77.4a2.88,2.88,0,0,1-2.6,1.43,3,3,0,1,1,0-6.08,2.87,2.87,0,0,1,2.62,1.46V72.8Zm-.59,3a2.56,2.56,0,1,0-2.56,2.51A2.43,2.43,0,0,0,46.42,75.78Z"/><path class="cls-4" d="M55.16,75.4v3.66h-.6V75.45a1.9,1.9,0,0,0-2-2.16,2.23,2.23,0,0,0-2.37,2.43v3.34h-.6v-8.9h.6V74.1a2.58,2.58,0,0,1,2.46-1.35A2.38,2.38,0,0,1,55.16,75.4Z"/><path class="cls-4" d="M60.74,78.66a1.9,1.9,0,0,1-1.28.44,1.55,1.55,0,0,1-1.71-1.7V73.31H56.6V72.8h1.15V71.43h.6V72.8h2v.51h-2v4c0,.81.4,1.25,1.17,1.25a1.43,1.43,0,0,0,1-.35Z"/></svg>