<svg id="Layer_1" data-name="Layer 1" xmlns="http://www.w3.org/2000/svg" width="145" height="145" viewBox="0 0 145 145"><defs><style>.cls-1{fill:#bcbec0;}.cls-2{fill:none;}.cls-3{fill:#20284D;}.cls-4{fill:#4d72b8;}.cls-5{opacity:0.2;}.cls-6{fill:#fff;}.cls-7{fill:#c58c5c;}.cls-8{fill:#a27150;}.cls-9{fill:#e5e6e6;}.cls-10{fill:#bcbdbf;}.cls-11{fill:#69331b;}</style></defs><title>11</title><path class="cls-1" d="M62.7,116.48a11.42,11.42,0,0,1-11.41-11.4,1.75,1.75,0,0,1,3.49,0,7.92,7.92,0,0,0,15.83,0V29.39a1.75,1.75,0,1,1,3.49,0v75.69A11.41,11.41,0,0,1,62.7,116.48Z"/><path class="cls-2" d="M90.27,71.1l.35.18Z"/><path class="cls-2" d="M67.7,71.45a1.29,1.29,0,0,0-.47-.23,1.86,1.86,0,0,1,.47.23Z"/><path class="cls-2" d="M52.86,71.45l-.29.18a8.28,8.28,0,0,0-1.74,1.51A8.2,8.2,0,0,1,52.86,71.45Z"/><path class="cls-2" d="M92.89,73.08a8.58,8.58,0,0,0-1.74-1.51l-.29-.18A12.06,12.06,0,0,1,92.89,73.08Z"/><path class="cls-3" d="M52.86,71.45a2.78,2.78,0,0,1,.53-.29A1.27,1.27,0,0,0,52.86,71.45Z"/><path class="cls-3" d="M62.41,33.4A49.41,49.41,0,0,0,49,38.12l-.41.23a10.53,10.53,0,0,0-1.11.64c-12.68,7.21-21,19.66-21,33.8A8.24,8.24,0,0,0,26.51,74v.06c0,.58-.06,1.16-.06,1.8a.53.53,0,0,0,.17.41.57.57,0,0,0,.82,0,.29.29,0,0,0,.12-.23C30.23,68.6,39.72,68,45.71,71.74a9,9,0,0,1,3.2,3.73.74.74,0,0,0,1,.35c.06-.06.12-.06.24-.12a10.57,10.57,0,0,1,1.57-2.44,8.33,8.33,0,0,1,1.74-1.52l.29-.17a2.32,2.32,0,0,1,.53-.29h.11a12.15,12.15,0,0,1,2.68-1.11A58.1,58.1,0,0,1,56,58.71C56,48.41,58.51,39.34,62.41,33.4Z"/><path class="cls-3" d="M96,38.17A50.31,50.31,0,0,0,82.54,33.4c3.89,5.88,6.4,15,6.4,25.25a58.11,58.11,0,0,1-1.11,11.46,16.55,16.55,0,0,1,2.74,1.11l.34.17.24.12.29.18a8.28,8.28,0,0,1,1.74,1.51,7.68,7.68,0,0,1,1.63,2.44.89.89,0,0,0,1.17,0,.32.32,0,0,0,.11-.23,9.07,9.07,0,0,1,3.2-3.72c5.76-3.61,15.48-3.15,18.1,4.24a.59.59,0,0,0,.75.35.52.52,0,0,0,.24-.11c.05-.76.11-1.46.11-2.22,0-.4.06-.81.06-1.22C118.49,58.07,109.53,45.21,96,38.17Z"/><path class="cls-4" d="M82.89,33.52a52.48,52.48,0,0,0-20.89,0c-3.9,5.88-6.4,15-6.4,25.25a58.87,58.87,0,0,0,1.1,11.46,14.66,14.66,0,0,1,11.12,1.22c.17.06.29.18.46.24h0A9.22,9.22,0,0,1,72,76a.51.51,0,0,0,.64.29.74.74,0,0,0,.29-.29,9.76,9.76,0,0,1,4.42-4.77h.06a14,14,0,0,1,6.69-1.63,14.46,14.46,0,0,1,4.13.58,58.87,58.87,0,0,0,1.1-11.46C89.29,48.53,86.78,39.45,82.89,33.52Z"/><g class="cls-5"><path class="cls-6" d="M56.06,51.85c.88-7.33,3-13.79,6-18.33a49.72,49.72,0,0,0-13.44,4.71l-.35.18a9,9,0,0,0-1.11.64c-.64.35-1.28.75-1.92,1.16C45.3,44.11,49.43,48.24,56.06,51.85Z"/><path class="cls-6" d="M96.38,38.29a50.31,50.31,0,0,0-13.49-4.77c3.89,5.88,6.4,15,6.4,25.25,0,.7,0,1.34-.06,2,11.11.93,20.65-.3,26.18-3.15A42.52,42.52,0,0,0,96.38,38.29Z"/><path class="cls-6" d="M80.44,59.7c3,.52,5.94.87,8.79,1.11,0-.7.06-1.34.06-2,0-10.24-2.51-19.32-6.4-25.25a52.48,52.48,0,0,0-20.89,0c-3,4.54-5.06,10.94-5.94,18.33C62.29,55.22,70.9,58.07,80.44,59.7Z"/></g><rect class="cls-7" x="80.85" y="92.17" width="33.34" height="25.19"/><rect class="cls-8" x="80.85" y="92.17" width="12.39" height="25.19"/><rect class="cls-9" x="94.81" y="94.26" width="14.14" height="3.9"/><rect class="cls-10" x="95.57" y="95.02" width="5.47" height="0.52"/><rect class="cls-10" x="95.57" y="95.95" width="4.19" height="0.52"/><rect class="cls-10" x="95.57" y="96.88" width="5.88" height="0.52"/><rect class="cls-10" x="104.35" y="94.9" width="0.35" height="2.68"/><rect class="cls-10" x="107.73" y="94.9" width="0.35" height="2.68"/><rect class="cls-10" x="104.94" y="94.9" width="0.23" height="2.04"/><rect class="cls-10" x="105.4" y="94.9" width="0.23" height="2.04"/><rect class="cls-10" x="105.87" y="94.9" width="0.23" height="2.04"/><rect class="cls-10" x="106.33" y="94.9" width="0.23" height="2.04"/><rect class="cls-10" x="106.8" y="94.9" width="0.23" height="2.04"/><rect class="cls-10" x="107.26" y="94.9" width="0.23" height="2.04"/><polygon class="cls-11" points="95.51 112.35 95.1 112.94 95.22 112.94 95.22 114.97 95.74 114.97 95.74 112.94 95.92 112.94 95.51 112.35"/><polygon class="cls-11" points="96.62 112.35 96.21 112.94 96.33 112.94 96.33 114.97 96.85 114.97 96.85 112.94 97.02 112.94 96.62 112.35"/><rect class="cls-11" x="94.87" y="115.2" width="2.27" height="0.35"/><path class="cls-11" d="M99.7,113.81v-1.46H98.24v1.46a.55.55,0,0,0,.24.52.4.4,0,0,0,.35.18v.64h-.47v.35H99.7v-.35h-.47v-.59A.85.85,0,0,0,99.7,113.81Zm-1.28,0v-1.28h1v1.28a.52.52,0,0,1-.53.52.44.44,0,0,1-.35-.17A.37.37,0,0,1,98.42,113.81Z"/><path class="cls-11" d="M101,114.56v.64h.46v.35h-1.34v-.35h.47v-.64l-.35-.17a.72.72,0,0,1-.23-.52v-1.46h1.45v1.46C101.62,114.16,101.39,114.45,101,114.56Z"/><path class="cls-11" d="M103.66,112.41a1.3,1.3,0,0,0-1.34,1.28h0a.43.43,0,0,1,.29-.11c.11,0,.29,0,.29.11H103a.43.43,0,0,1,.29-.11c.11,0,.17,0,.23,0v1.57h0a.12.12,0,1,1-.23,0h-.18a.3.3,0,1,0,.59,0v-1.62c0-.06.17-.06.23-.06s.29.06.29.11h.06a.48.48,0,0,1,.29-.11c.11,0,.29.06.29.11h0C105,113,104.35,112.41,103.66,112.41Z"/></svg>
