<svg id="Layer_1" data-name="Layer 1" xmlns="http://www.w3.org/2000/svg" width="145" height="145" viewBox="0 0 145 145"><defs><style>.cls-1{fill:#c9905c;}.cls-2{fill:#4a2808;}.cls-3{fill:#eabd8d;}.cls-4{fill:#fff;opacity:0.36;isolation:isolate;}.cls-5{fill:#20284D;}.cls-6,.cls-7{fill:none;}.cls-6{stroke:#fff;stroke-linecap:round;stroke-linejoin:round;}.cls-7{stroke:#4a2808;stroke-miterlimit:10;}</style></defs><title>5</title><rect class="cls-1" x="27.98" y="50.07" width="72.61" height="48.32"/><rect class="cls-2" x="32.2" y="56.87" width="14.32" height="1.23"/><rect class="cls-2" x="32.2" y="65.05" width="22.75" height="1.23"/><polyline class="cls-3" points="27.98 50.2 47.92 30 80.65 30 100.59 50.2"/><rect class="cls-4" x="59.43" y="50.07" width="9.72" height="23.01"/><polygon class="cls-4" points="61.57 30 67 30 69.14 50.2 59.43 50.2 61.57 30"/><path class="cls-2" d="M57.83,89c-.9,0-1.62.47-1.62,1h3.23C59.44,89.47,58.72,89,57.83,89Z"/><path class="cls-2" d="M57.83,89.65a.13.13,0,0,1-.13-.13V85.36a.13.13,0,0,1,.13-.12.13.13,0,0,1,.12.12v4.16A.13.13,0,0,1,57.83,89.65Z"/><path class="cls-2" d="M55.9,84a1.93,1.93,0,1,0,3.85,0V81.55H55.9Z"/><path class="cls-2" d="M64.15,91.8H51.5V79.15H64.15Zm-12.28-.37H63.78V79.52H51.87Z"/><path class="cls-2" d="M72.62,82.87c-2.27,0-4.12,1.2-4.12,2.68h8.23C76.73,84.07,74.89,82.87,72.62,82.87Z"/><path class="cls-2" d="M71.47,90.76a1.27,1.27,0,0,1-1.27-1.27.12.12,0,0,1,.13-.12.12.12,0,0,1,.12.12,1,1,0,0,0,2,0V82.23a.13.13,0,0,1,.13-.13.12.12,0,0,1,.12.13v7.26A1.27,1.27,0,0,1,71.47,90.76Z"/><path class="cls-2" d="M74.64,82.31l0-.72-.64.34L74,82a.37.37,0,0,0,.11.49.36.36,0,0,0,.5-.11Z"/><path class="cls-2" d="M76.16,82.31l0-.72-.63.34-.06.07a.36.36,0,0,0,.12.49.35.35,0,0,0,.49-.11Z"/><path class="cls-2" d="M75.77,81l0-.72-.64.35-.05.06a.36.36,0,0,0,.61.39A.44.44,0,0,0,75.77,81Z"/><path class="cls-2" d="M77.29,81l0-.72-.64.35,0,.06a.36.36,0,0,0,.61.39A.44.44,0,0,0,77.29,81Z"/><path class="cls-2" d="M77.68,82.31l0-.72-.63.34L77,82a.36.36,0,0,0,.12.49.35.35,0,0,0,.49-.11Z"/><path class="cls-2" d="M78.94,91.8H66.29V79.15H78.94Zm-12.28-.37H78.57V79.52H66.66Z"/><polygon class="cls-2" points="86.99 83.45 85.41 83.45 86.2 81.63 86.2 81.63 86.99 83.45"/><rect class="cls-2" x="85.85" y="82.91" width="0.7" height="5.07"/><polygon class="cls-2" points="89.4 83.45 87.83 83.45 88.61 81.63 88.61 81.63 89.4 83.45"/><rect class="cls-2" x="88.27" y="82.91" width="0.7" height="5.07"/><rect class="cls-2" x="87.06" y="86.44" width="0.7" height="5.07" transform="translate(176.38 1.57) rotate(90)"/><path class="cls-2" d="M93.73,91.8H81.08V79.15H93.73Zm-12.28-.37H93.36V79.52H81.45Z"/><circle class="cls-5" cx="97.52" cy="95.5" r="19.5"/><line class="cls-6" x1="97.52" y1="86.05" x2="97.52" y2="95.5"/><line class="cls-6" x1="104.61" y1="95.5" x2="97.52" y2="95.5"/><line class="cls-7" x1="114.07" y1="95.5" x2="111.7" y2="95.5"/><line class="cls-7" x1="83.34" y1="95.5" x2="80.97" y2="95.5"/><line class="cls-7" x1="97.52" y1="112.05" x2="97.52" y2="109.68"/><line class="cls-7" x1="97.52" y1="81.32" x2="97.52" y2="78.95"/></svg>
