<svg id="Layer_1" data-name="Layer 1" xmlns="http://www.w3.org/2000/svg" width="145" height="145" viewBox="0 0 145 145"><defs><style>.cls-1{fill:#eabd8d;}.cls-2{fill:#c9905c;}.cls-3{fill:#532100;opacity:0.2;isolation:isolate;}.cls-4{fill:#935a49;}.cls-5{fill:#ffcd9c;}.cls-6{fill:#f4ca9e;}.cls-7{fill:#e8e8e8;}.cls-8{fill:#878787;}.cls-9{fill:#20284D;}.cls-10{fill:#c4925c;}.cls-11{fill:#a5714e;}</style></defs><title>6</title><polygon class="cls-1" points="101.17 66.41 113.01 67.58 84.5 51.12 72.65 49.95 101.17 66.41"/><polygon class="cls-2" points="43.57 66.8 72.74 83.6 72.65 49.95 43.57 66.8"/><polygon class="cls-3" points="72.65 50.38 61.85 84.08 72.65 83.21 72.65 50.38"/><polygon class="cls-4" points="101.17 66.41 72.65 49.95 72.65 83.21 72.09 83.3 101.17 66.41"/><path class="cls-5" d="M112.88,67.8h0l-11.71-1.18a.2.2,0,0,1-.22-.22.2.2,0,0,1,.22-.21h0l11.72,1.17c.13,0,.17.13.17.22a.18.18,0,0,1-.17.17l-.05,0Z"/><path class="cls-6" d="M72.09,83.47s-.09,0-.09,0L43.48,67a.21.21,0,0,1-.09-.26s0,0,.09-.09l29-16.8a.21.21,0,0,1,.26.34h0L44,66.8,72.22,83.08a.2.2,0,0,1,.08.26.23.23,0,0,1-.21.13Z"/><path class="cls-2" d="M72.09,83.47a.21.21,0,0,1-.22-.22.21.21,0,0,1,.09-.17L100.6,66.27,72.65,50.21a.21.21,0,0,1,0-.31.2.2,0,0,1,.26-.08l28.26,16.24a.2.2,0,0,1,.08.26s0,0-.08.08l-29,17C72.17,83.47,72.13,83.47,72.09,83.47Z"/><polygon class="cls-1" points="43.79 66.32 31.94 67.45 60.46 50.99 72.3 49.82 43.79 66.32"/><path class="cls-5" d="M32.07,67.67h0l11.72-1.18a.2.2,0,0,0,.21-.22.19.19,0,0,0-.21-.21h0L32.07,67.28c-.13,0-.17.13-.17.21a.19.19,0,0,0,.17.18Z"/><rect class="cls-7" x="51.06" y="28.96" width="40.32" height="56.12"/><rect class="cls-8" x="61.51" y="34.49" width="22.99" height="1.61"/><rect class="cls-8" x="61.51" y="37.97" width="26.25" height="2.22"/><rect class="cls-8" x="54.63" y="57.65" width="8.88" height="2.35"/><rect class="cls-8" x="54.63" y="66.1" width="33.52" height="1.18"/><rect class="cls-8" x="54.63" y="68.41" width="33.52" height="1.18"/><rect class="cls-8" x="54.63" y="70.85" width="33.52" height="1.18"/><rect class="cls-8" x="54.63" y="46.72" width="19.29" height="1.18"/><rect class="cls-8" x="54.63" y="49.03" width="21.99" height="1.18"/><rect class="cls-8" x="54.63" y="51.47" width="29.08" height="1.18"/><rect class="cls-8" x="65.73" y="57.65" width="11.1" height="2.35"/><rect class="cls-8" x="79.27" y="57.65" width="8.84" height="2.35"/><circle class="cls-9" cx="56.85" cy="37.19" r="2.22"/><path class="cls-10" d="M82.45,96.93s-.13-.05-.13-.09l-.18-.18a.21.21,0,0,1,0-.26.22.22,0,0,1,.27,0l.08.09,27.87-16.2a.18.18,0,0,1,.26.09.18.18,0,0,1-.09.26l-28,16.24S82.49,96.93,82.45,96.93Z"/><path class="cls-11" d="M82.27,96.71s-.13,0-.13-.09l-11.27-13a.2.2,0,0,1,0-.27.21.21,0,0,1,.26,0h0l11.23,13a.18.18,0,0,1,0,.26c0,.09,0,.09-.09.09Z"/><path class="cls-10" d="M60.37,96.84s-.08,0-.08,0L32.81,81a.21.21,0,0,1-.08-.26A.2.2,0,0,1,33,80.6L60.33,96.36,70.87,83.43a.19.19,0,1,1,.3.22h0L60.55,96.71A.19.19,0,0,1,60.37,96.84Z"/><polygon class="cls-2" points="71.78 83.25 100.87 66.36 100.78 99.15 71.69 116.04 71.78 83.25"/><polygon class="cls-11" points="71.78 83.25 71.69 116.04 43.18 99.58 43.26 66.8 71.78 83.25"/><polygon class="cls-1" points="83.67 96.97 112.71 80.08 100.78 66.32 71.69 83.21 83.67 96.97"/><polygon class="cls-1" points="60.77 96.84 71.83 83.3 43.31 66.8 32.25 80.38 60.77 96.84"/></svg>
