<svg id="Layer_1" data-name="Layer 1" xmlns="http://www.w3.org/2000/svg" width="145" height="145" viewBox="0 0 145 145"><defs><style>.cls-1,.cls-4{fill:#20284D;}.cls-2,.cls-3{fill:#fff;}.cls-3{stroke:#20284D;}.cls-3,.cls-4{stroke-linecap:round;stroke-linejoin:round;}.cls-4{stroke:#fff;}.cls-5{fill:#eb3824;}.cls-5,.cls-6{isolation:isolate;}.cls-6{fill:#f0c514;}</style></defs><title>9</title><rect class="cls-1" x="25" y="40.08" width="69.42" height="45.56" rx="3" ry="3" transform="translate(-8.85 9.8) rotate(-8.73)"/><rect class="cls-2" x="26.33" y="50.37" width="64.56" height="8.77" transform="translate(-7.63 9.53) rotate(-8.73)"/><rect class="cls-3" x="53.21" y="63.95" width="69.42" height="45.56" rx="3" ry="3"/><rect class="cls-4" x="58.63" y="72.79" width="17.36" height="13.02" rx="1" ry="1"/><line class="cls-3" x1="58.63" y1="92.86" x2="67.31" y2="92.86"/><line class="cls-3" x1="58.63" y1="100.83" x2="78.16" y2="100.83"/><line class="cls-3" x1="96.6" y1="72.62" x2="116.12" y2="72.62"/><line class="cls-3" x1="74.54" y1="92.86" x2="83.22" y2="92.86"/><line class="cls-3" x1="90.45" y1="92.86" x2="99.13" y2="92.86"/><line class="cls-3" x1="106.36" y1="92.86" x2="115.04" y2="92.86"/><circle class="cls-5" cx="111.98" cy="100.76" r="3.5"/><circle class="cls-6" cx="107.13" cy="100.76" r="3.5"/></svg>
