<?xml version="1.0" encoding="utf-8"?>
<!-- Generator: Adobe Illustrator 23.0.4, SVG Export Plug-In . SVG Version: 6.00 Build 0)  -->
<svg version="1.1" id="Layer_1" xmlns="http://www.w3.org/2000/svg" xmlns:xlink="http://www.w3.org/1999/xlink" x="0px" y="0px"
	 viewBox="0 0 200 200" style="enable-background:new 0 0 200 200;" xml:space="preserve">
<style type="text/css">
	.st0{fill:#00A9CD;stroke:#FFFFFF;stroke-miterlimit:10;}
	.st1{fill:url(#SVGID_1_);}
	.st2{fill:url(#SVGID_2_);}
	.st3{fill:none;stroke:#FFFFFF;stroke-width:2.5;stroke-miterlimit:10;}
	.st4{fill:#00A9CD;stroke:#FFFFFF;stroke-width:2.5;stroke-miterlimit:10;}
	.st5{fill:#00A9CD;}
	.st6{fill:#FFFFFF;}
</style>
<polygon class="st0" points="148,173.6 100,162.8 52,173.6 52,77.6 148,77.6 "/>
<title>packages</title>
<linearGradient id="SVGID_1_" gradientUnits="userSpaceOnUse" x1="39.9354" y1="92.222" x2="160.0672" y2="92.222">
	<stop  offset="0" style="stop-color:#69BACA"/>
	<stop  offset="0.4927" style="stop-color:#60A2C8"/>
	<stop  offset="1" style="stop-color:#598DC7"/>
</linearGradient>
<circle class="st1" cx="100" cy="92.2" r="60.1"/>
<linearGradient id="SVGID_2_" gradientUnits="userSpaceOnUse" x1="-2289.6221" y1="-8492.0645" x2="-2169.4902" y2="-8492.0645" gradientTransform="matrix(0 1 -1 0 -8392.0635 2321.7783)">
	<stop  offset="0" style="stop-color:#69BACA"/>
	<stop  offset="0.4927" style="stop-color:#60A2C8"/>
	<stop  offset="1" style="stop-color:#598DC7"/>
</linearGradient>
<circle class="st2" cx="100" cy="92.2" r="60.1"/>
<circle class="st3" cx="100" cy="92.2" r="51.3"/>
<polygon class="st4" points="100,20.1 105.7,31.6 118.4,33.4 109.2,42.4 111.4,55 100,49.1 88.6,55 90.8,42.4 81.6,33.4 94.3,31.6 
	"/>
<polygon class="st4" points="141.1,44.7 142.6,52.4 149.8,55.6 142.9,59.3 142.1,67.1 136.4,61.8 128.7,63.4 132.1,56.3 128.1,49.5 
	135.9,50.5 "/>
<polygon class="st4" points="57.2,44.7 55.7,52.4 48.5,55.6 55.4,59.3 56.2,67.1 61.9,61.8 69.6,63.4 66.2,56.3 70.2,49.5 
	62.4,50.5 "/>
<g>
	<g>
		<g>
			<polygon class="st5" points="100,64.8 106.6,79.8 122.8,78 113.2,91.2 122.8,104.4 106.6,102.6 100,117.6 93.4,102.6 77.2,104.4 
				86.8,91.2 77.2,78 93.4,79.8 			"/>
			<g>
				<path class="st6" d="M99,65.4c2.2,5,4.4,10,6.6,15c0.1,0.3,0.6,0.6,1,0.6c5.4-0.6,10.8-1.2,16.3-1.8c-0.3-0.6-0.6-1.1-1-1.7
					c-3.2,4.4-6.4,8.8-9.7,13.2c-0.2,0.3-0.2,0.8,0,1.1c3.2,4.4,6.4,8.8,9.7,13.2c0.3-0.6,0.6-1.1,1-1.7c-5.4-0.6-10.8-1.2-16.3-1.8
					c-0.3,0-0.8,0.2-1,0.6c-2.2,5-4.4,10-6.6,15c0.6,0,1.3,0,1.9,0c-2.2-5-4.4-10-6.6-15c-0.1-0.3-0.6-0.6-1-0.6
					c-5.4,0.6-10.8,1.2-16.3,1.8c0.3,0.6,0.6,1.1,1,1.7c3.2-4.4,6.4-8.8,9.7-13.2c0.2-0.3,0.2-0.8,0-1.1c-3.2-4.4-6.4-8.8-9.7-13.2
					c-0.3,0.6-0.6,1.1-1,1.7c5.4,0.6,10.8,1.2,16.3,1.8c0.3,0,0.8-0.2,1-0.6c2.2-5,4.4-10,6.6-15c0.6-1.3-1.4-2.5-1.9-1.1
					c-1,2.3-2.1,4.7-3.1,7c-0.7,1.7-1.5,3.4-2.2,5.1c-0.2,0.5-1.7,3-0.8,2.5c0.9-0.5-1.6-0.5-2.2-0.5c-1.8-0.2-3.6-0.4-5.4-0.6
					c-2.7-0.3-5.4-0.6-8.1-0.9c-0.8-0.1-1.5,1-1,1.7c1.5,2.1,3,4.1,4.5,6.2c1.1,1.5,2.2,3,3.3,4.5c0.4,0.5,1.8,3,1.8,2
					c0-1-1.2,1.2-1.6,1.7c-1.1,1.5-2.1,2.9-3.2,4.4c-1.6,2.2-3.2,4.4-4.8,6.6c-0.5,0.7,0.2,1.8,1,1.7c2.5-0.3,5.1-0.6,7.6-0.8
					c1.8-0.2,3.7-0.4,5.5-0.6c0.6-0.1,3.5-0.1,2.6-0.6c-0.9-0.5,0.4,1.7,0.6,2.2c0.7,1.7,1.5,3.3,2.2,5c1.1,2.5,2.2,5,3.3,7.5
					c0.3,0.7,1.6,0.7,1.9,0c1-2.3,2.1-4.7,3.1-7c0.7-1.7,1.5-3.4,2.2-5.1c0.2-0.5,1.7-3,0.8-2.5c-0.9,0.5,1.6,0.5,2.2,0.5
					c1.8,0.2,3.6,0.4,5.4,0.6c2.7,0.3,5.4,0.6,8.1,0.9c0.8,0.1,1.5-1,1-1.7c-1.5-2.1-3-4.1-4.5-6.2c-1.1-1.5-2.2-3-3.3-4.5
					c-0.4-0.5-1.8-3-1.8-2c0,1,1.2-1.2,1.6-1.7c1.1-1.5,2.1-2.9,3.2-4.4c1.6-2.2,3.2-4.4,4.8-6.6c0.5-0.7-0.2-1.8-1-1.7
					c-2.5,0.3-5.1,0.6-7.6,0.8c-1.8,0.2-3.7,0.4-5.5,0.6c-0.6,0.1-3.5,0.1-2.6,0.6c0.9,0.5-0.4-1.7-0.6-2.2c-0.7-1.7-1.5-3.3-2.2-5
					c-1.1-2.5-2.2-5-3.3-7.5C100.4,62.9,98.4,64.1,99,65.4z"/>
			</g>
		</g>
	</g>
</g>
</svg>
