<?xml version="1.0" encoding="UTF-8" standalone="no"?>
<svg
   xmlns:dc="http://purl.org/dc/elements/1.1/"
   xmlns:cc="http://creativecommons.org/ns#"
   xmlns:rdf="http://www.w3.org/1999/02/22-rdf-syntax-ns#"
   xmlns:svg="http://www.w3.org/2000/svg"
   xmlns="http://www.w3.org/2000/svg"
   viewBox="0 0 755.90668 233.65334"
   height="233.65334"
   width="755.90668"
   xml:space="preserve"
   id="svg2"
   version="1.1"><metadata
     id="metadata8"><rdf:RDF><cc:Work
         rdf:about=""><dc:format>image/svg+xml</dc:format><dc:type
           rdf:resource="http://purl.org/dc/dcmitype/StillImage" /></cc:Work></rdf:RDF></metadata><defs
     id="defs6" /><g
     transform="matrix(1.3333333,0,0,-1.3333333,0,233.65333)"
     id="g10"><g
       transform="scale(0.1)"
       id="g12"><path
         id="path14"
         style="fill:#fbc707;fill-opacity:1;fill-rule:nonzero;stroke:none"
         d="M 5669.27,1752.36 V 501.25 H 0 v 1251.11 h 5669.27 v 0" /><path
         id="path16"
         style="fill:#d91433;fill-opacity:1;fill-rule:nonzero;stroke:none"
         d="M 996.996,1527.69 815.867,1281.61 c 0,0 939.003,0 987.173,0 49.89,0 49.24,-18.96 24.85,-52 -24.76,-33.54 -66.22,-91.87 -91.44,-125.94 -12.81,-17.28 -35.95,-48.79 40.75,-48.79 81.11,0 403.69,0 403.69,0 0,0 65.07,88.55 119.61,162.58 74.21,100.68 6.43,310.23 -258.83,310.23 -237.44,0 -1044.674,0 -1044.674,0 v 0" /><path
         id="path18"
         style="fill:#d91433;fill-opacity:1;fill-rule:nonzero;stroke:none"
         d="m 742.582,725.988 363.808,494.322 c 0,0 403.31,0 451.47,0 49.9,0 49.24,-18.95 24.85,-52 -24.76,-33.54 -66.9,-91.25 -92.12,-125.32 -12.81,-17.29 -35.96,-48.838 40.74,-48.838 81.11,0 604.82,0 604.82,0 -50.3,-68.906 -213.45,-268.164 -506.42,-268.164 -237.44,0 -887.148,0 -887.148,0 v 0" /><path
         id="path20"
         style="fill:#d91433;fill-opacity:1;fill-rule:nonzero;stroke:none"
         d="M 2826.13,994.215 2628.84,725.988 h -520.42 c 0,0 197.18,268.164 197.36,268.164 l 520.35,0.063 v 0" /><path
         id="path22"
         style="fill:#d91433;fill-opacity:1;fill-rule:nonzero;stroke:none"
         d="M 3623.39,1054.88 H 2350.48 l 348.09,472.81 h 520.27 l -199.52,-271.11 h 232.23 l 199.6,271.11 h 520.21 l -347.97,-472.81 v 0" /><path
         id="path24"
         style="fill:#d91433;fill-opacity:1;fill-rule:nonzero;stroke:none"
         d="M 3578.71,994.152 3381.33,725.988 H 2861.1 c 0,0 197.18,268.164 197.36,268.164 h 520.25 v 0" /><path
         id="path26"
         style="fill:#d91433;fill-opacity:1;fill-rule:nonzero;stroke:none"
         d="M 0,888.414 H 766.68 L 724.801,831.441 H 0 v 56.973 0" /><path
         id="path28"
         style="fill:#d91433;fill-opacity:1;fill-rule:nonzero;stroke:none"
         d="M 0,994.152 H 844.57 L 802.613,937.258 H 0 v 56.894 0" /><path
         id="path30"
         style="fill:#d91433;fill-opacity:1;fill-rule:nonzero;stroke:none"
         d="m 0,782.613 h 688.828 l -41.68,-56.625 H 0 v 56.625 0" /><path
         id="path32"
         style="fill:#d91433;fill-opacity:1;fill-rule:nonzero;stroke:none"
         d="m 5669.29,831.441 h -763.72 l 41.9,56.957 h 721.82 v -56.957 0" /><path
         id="path34"
         style="fill:#d91433;fill-opacity:1;fill-rule:nonzero;stroke:none"
         d="m 5669.29,725.988 -841.37,-0.078 41.68,56.703 h 799.69 v -56.625 0" /><path
         id="path36"
         style="fill:#d91433;fill-opacity:1;fill-rule:nonzero;stroke:none"
         d="m 5025.26,994.152 h 644.03 v -56.918 l -685.89,-0.05 41.86,56.968 v 0" /><path
         id="path38"
         style="fill:#d91433;fill-opacity:1;fill-rule:nonzero;stroke:none"
         d="m 4691.88,1527.69 -348.03,-472.81 h -551.28 c 0,0 348.11,472.81 348.29,472.81 h 551.02 v 0" /><path
         id="path40"
         style="fill:#d91433;fill-opacity:1;fill-rule:nonzero;stroke:none"
         d="m 3747.95,994.152 c 0,0 -38.03,-51.972 -56.5,-76.953 -65.36,-88.316 -7.58,-191.211 205.68,-191.211 246.28,0 835.52,0 835.52,0 l 197.36,268.164 H 3747.95 v 0" /><path
         id="path42"
         style="fill:#fbc707;fill-opacity:1;fill-rule:nonzero;stroke:none"
         d="m 0,297.852 h 5669.29 v -28.34 H 0 v 28.34 0" /><path
         id="path44"
         style="fill:#fbc707;fill-opacity:1;fill-rule:nonzero;stroke:none"
         d="m 0,165.602 h 5669.29 v -28.34 H 0 v 28.34 0" /><path
         id="path46"
         style="fill:#fbc707;fill-opacity:1;fill-rule:nonzero;stroke:none"
         d="M 0,33.3789 H 5669.29 V 5.03906 H 0 v 28.33984 0" /><path
         id="path48"
         style="fill:#d91433;fill-opacity:1;fill-rule:nonzero;stroke:none"
         d="m 1903.71,5.03906 h 170.62 l 27.23,36.91014 h -126.97 l 71.2,96.4808 h 115.63 l 27.24,36.922 h -115.63 l 63.14,85.558 h 126.98 l 27.24,36.918 H 2119.78 L 1903.71,5.03906 v 0" /><path
         id="path50"
         style="fill:#d91433;fill-opacity:1;fill-rule:nonzero;stroke:none"
         d="m 2113.1,5.03906 h 52.36 L 2343.93,129.199 2342.18,5.03906 h 54.98 l 0.41,153.10194 205.62,139.687 h -49.74 l -163.68,-112.418 1.79,112.418 H 2339.2 L 2337.61,157.301 2113.1,5.03906 v 0" /><path
         id="path52"
         style="fill:#d91433;fill-opacity:1;fill-rule:evenodd;stroke:none"
         d="m 2436.78,5.03906 h 43.64 L 2566.78,122.07 h 42.76 c 54.98,0 124.81,23.059 172.78,88.078 49.22,66.704 12.78,87.68 -49.62,87.68 h -79.85 L 2436.78,5.03906 Z M 2669.24,260.91 h 37.09 c 27.06,0 57.3,-13.41 30.06,-50.332 -28.48,-38.59 -72.12,-51.598 -99.17,-51.598 h -43.2 l 75.22,101.93 v 0" /><path
         id="path54"
         style="fill:#d91433;fill-opacity:1;fill-rule:evenodd;stroke:none"
         d="m 2920.52,260.91 h 41.88 c 40.15,0 48.71,-16.769 29.21,-43.199 -20.74,-28.102 -58.17,-45.723 -99.63,-45.723 h -37.09 l 65.63,88.922 z M 2688.05,5.03906 h 43.64 L 2827.65,135.07 h 26.18 c 23.12,0 37.53,0 30.01,-28.511 L 2855.62,5.03906 h 49.74 L 2933.81,121.66 c 3.72,18.02 1.82,24.309 -8,29.352 l 0.62,0.84 c 39.68,5.878 85.74,31.039 112.06,66.699 51.69,70.039 0.47,79.277 -59.75,79.277 h -74.62 L 2688.05,5.03906 v 0" /><path
         id="path56"
         style="fill:#d91433;fill-opacity:1;fill-rule:nonzero;stroke:none"
         d="m 2950.55,5.03906 h 170.61 l 27.24,36.91014 h -126.97 l 71.19,96.4808 h 115.63 l 27.24,36.922 h -115.63 l 63.15,85.558 h 126.97 l 27.25,36.918 H 3166.62 L 2950.55,5.03906 v 0" /><path
         id="path58"
         style="fill:#d91433;fill-opacity:1;fill-rule:nonzero;stroke:none"
         d="m 3547.39,292.379 c -15.68,7.133 -37.2,10.492 -57.27,10.492 -54.98,0 -118.18,-27.699 -156.57,-79.711 -67.16,-91.012 77.06,-72.988 28.75,-138.4217 -25.38,-34.3867 -70.19,-47.8281 -95.05,-47.8281 -22.26,0 -42.25,8.3984 -52.76,14.2812 L 3181.35,12.1602 C 3196.77,5.87891 3213.39,0 3234.77,0 c 61.08,0 129.53,24.7617 175.65,87.2617 71.2,96.4683 -69.31,83.4763 -27.82,139.6683 22.6,30.629 57.59,39.019 82.02,39.019 22.69,0 32.12,-3.789 48.18,-12.16 l 34.59,38.59 v 0" /><path
         id="path60"
         style="fill:#d91433;fill-opacity:1;fill-rule:nonzero;stroke:none"
         d="m 3765.58,292.379 c -15.7,7.133 -37.21,10.492 -57.29,10.492 -54.98,0 -118.17,-27.699 -156.55,-79.711 -67.18,-91.012 77.04,-72.988 28.75,-138.4217 -25.38,-34.3867 -70.2,-47.8281 -95.07,-47.8281 -22.26,0 -42.25,8.3984 -52.74,14.2812 L 3399.52,12.1602 C 3414.95,5.87891 3431.56,0 3452.94,0 c 61.09,0 129.53,24.7617 175.65,87.2617 71.2,96.4683 -69.29,83.4763 -27.82,139.6683 22.6,30.629 57.59,39.019 82.02,39.019 22.7,0 32.13,-3.789 48.19,-12.16 l 34.6,38.59 v 0" /></g></g></svg>