<?xml version="1.0" encoding="UTF-8" standalone="no"?>
<svg
   xmlns:dc="http://purl.org/dc/elements/1.1/"
   xmlns:cc="http://creativecommons.org/ns#"
   xmlns:rdf="http://www.w3.org/1999/02/22-rdf-syntax-ns#"
   xmlns:svg="http://www.w3.org/2000/svg"
   xmlns="http://www.w3.org/2000/svg"
   xmlns:sodipodi="http://sodipodi.sourceforge.net/DTD/sodipodi-0.dtd"
   xmlns:inkscape="http://www.inkscape.org/namespaces/inkscape"
   id="Layer_1"
   data-name="Layer 1"
   viewBox="0 0 374 153.89"
   version="1.1"
   sodipodi:docname="Preferred Carrier.svg"
   inkscape:version="0.92.3 (2405546, 2018-03-11)"
   width="374"
   height="153.89">
  <metadata
     id="metadata29">
    <rdf:RDF>
      <cc:Work
         rdf:about="">
        <dc:format>image/svg+xml</dc:format>
        <dc:type
           rdf:resource="http://purl.org/dc/dcmitype/StillImage" />
        <dc:title>logo</dc:title>
      </cc:Work>
    </rdf:RDF>
  </metadata>
  <sodipodi:namedview
     pagecolor="#ffffff"
     bordercolor="#666666"
     borderopacity="1"
     objecttolerance="10"
     gridtolerance="10"
     guidetolerance="10"
     inkscape:pageopacity="0"
     inkscape:pageshadow="2"
     inkscape:window-width="2560"
     inkscape:window-height="1356"
     id="namedview27"
     showgrid="false"
     inkscape:zoom="0.79722222"
     inkscape:cx="180"
     inkscape:cy="49.945"
     inkscape:window-x="-8"
     inkscape:window-y="-8"
     inkscape:window-maximized="1"
     inkscape:current-layer="Layer_1" />
  <defs
     id="defs4">
    <style
       id="style2">.cls-1{fill:#00a9ce;}</style>
  </defs>
  <title
     id="title6">logo</title>
  <path
     class="cls-1"
     d="m 51.49,65.940121 q -2,11.529958 -13.2,19.75995 a 50.07,50.07 0 0 1 -22.36,9.29998 6.64,6.64 0 0 1 -0.75,0.06 q -1.3,-0.06 -4.38,-8.059992 Q 7.72,79.000077 8,77.290079 8.11,76.67008 9,76.50008 a 69.21,69.21 0 0 0 11.46,-3.179987 q 6.43,-2.999997 7.45,-8.749972 0.65,-3.690004 -2.41,-8.230004 -5.34,-7.71999 -5.76,-8.56999 A 20.84,20.84 0 0 1 18.15,34.700147 Q 20,24.310157 30.79,17.440154 a 51.14,51.14 0 0 1 20.56,-7.379993 c 0.42,0 0.75,-0.06 1,-0.06 q 0.85,0 1.12,1.360001 a 140.75,140.75 0 0 0 4.23,14.999985 1.21,1.21 0 0 1 0.07,0.57 1.07,1.07 0 0 1 -1.19,1 10.75,10.75 0 0 1 -1.5,-0.17 11,11 0 0 0 -1.62,-0.17 15.24,15.24 0 0 0 -7.49,1.87 8.36,8.36 0 0 0 -4.75,6 q -0.61,3.45999 2.59,8.51999 5.58,9.01999 5.84,9.51999 a 20.39,20.39 0 0 1 1.84,12.439994 z"
     id="path8"
     inkscape:connector-curvature="0"
     style="fill:#00a9ce" />
  <path
     class="cls-1"
     d="m 119.84,50.890127 -7,39.179929 a 2.33,2.33 0 0 1 -2,2.219998 q -1.86,0.23 -8.33,0.23 a 53.82,53.82 0 0 1 -8.61,-0.45 q -1.81,-0.339999 -1.44,-2.439997 0.86,-4.879985 2.76,-14.709965 1.9,-9.829971 2.78,-14.719975 1.17,-6.64999 -5.59,-6.64999 a 12.66,12.66 0 0 0 -5.66,1.82 q -3.7,1.99999 -4.08,4.14999 L 80.2,73.520093 q -0.48,2.729987 -1.33,8.209982 -0.85,5.479984 -1.35,8.269981 a 2.47,2.47 0 0 1 -2.17,2.329998 q -1.8,0.23 -9.92,0.23 a 33.32,33.32 0 0 1 -6.62,-0.45 q -2,-0.449999 -1.69,-1.999998 0.79,-4.479985 2.44,-13.489976 1.65,-9.009981 2.44,-13.519963 3.27,-18.56998 5,-30.71997 0.58,-4.26 1.22,-8.51999 a 57.26,57.26 0 0 0 0.47,-8.460004 5.26,5.26 0 0 1 0,-1.08 1.4,1.4 0 0 1 1.05,-1.14 24,24 0 0 1 5.26,-0.620001 q 4.57,-0.17 5.33,-0.28 l 10.53,-1.19999 q 0.91,0 0.7,1.18999 -0.32,1.820001 -1.1,4.940002 -0.87,3.630001 -1.1,4.940002 -2.6,12.849991 -3.91,20.279981 -0.2,1.14 0.37,1.13 0.11,0 3.25,-2 a 48.31,48.31 0 0 1 7,-3.69 23.86,23.86 0 0 1 9,-1.99999 q 7.27,0 11.48,3.79999 4.54,4.12 3.29,11.21999 z"
     id="path10"
     inkscape:connector-curvature="0"
     style="fill:#00a9ce" />
  <path
     class="cls-1"
     d="m 147.45,66.0001 q -0.73,4.149996 -2,12.349978 -1.27,8.199982 -2,12.299978 a 1.74,1.74 0 0 1 -1.67,1.419998 67.59,67.59 0 0 1 -8.75,0.34 65.11,65.11 0 0 1 -8.69,-0.34 q -1.21,-0.229999 -1.4,-0.739999 a 6.48,6.48 0 0 1 0.19,-1.699998 q 0.69,-3.919986 2.25,-11.779978 1.56,-7.859982 2.25,-11.849979 a 211.73,211.73 0 0 0 3.28,-25.669963 11.77,11.77 0 0 1 0.1,-1.19 q 0.2,-1.13 1.73,-1.14 1.53,-0.01 4.8,0.34 3.21,0.34 4.85,0.34 1.64,0 5,-0.28 3.34,-0.28 5,-0.28 1.36,0 1.16,1.14 c 0,0.15 -0.13,0.51 -0.3,1.08 a 248.68,248.68 0 0 0 -5.8,25.659963 z m 8.92,-42.189943 q -1.74,9.87999 -12.87,9.87999 a 10.51,10.51 0 0 1 -7.45,-2.5 q -2.93,-2.73 -2.11,-7.37999 a 11,11 0 0 1 4.8,-7.270003 14,14 0 0 1 8.26,-2.620001 9.93,9.93 0 0 1 7.2,2.670001 7.57,7.57 0 0 1 2.16,7.210003 z"
     id="path12"
     inkscape:connector-curvature="0"
     style="fill:#00a9ce" />
  <path
     class="cls-1"
     d="m 221.27,64.740121 a 35.16,35.16 0 0 1 -10.71,20.159951 29.45,29.45 0 0 1 -20.83,8.289981 21.15,21.15 0 0 1 -9,-2.159998 q -4.62,-2.159997 -4.16,-2.159997 -0.74,0 -1,1.699998 -0.51,2.899997 -1.25,8.719981 -0.74,5.819983 -1.32,8.709973 a 2,2 0 0 1 -2.19,1.82 l -11.59,0.06 a 26.16,26.16 0 0 1 -5,-0.28 1.62,1.62 0 0 1 -1.33,-2.1 l 7.82,-43.729893 a 106.14,106.14 0 0 0 1.95,-22.31998 5,5 0 0 1 0.06,-1 1.38,1.38 0 0 1 0.88,-1.14 54.05,54.05 0 0 1 8.78,-1.82 67.18,67.18 0 0 1 9,-1 q 2.22,0 2,2.92 -0.22,2.92 0.25,2.93 -0.57,0 5.4,-3.1 5.97,-3.1 10.4,-3.1 12.32,0 18.27,8.12 5.78,7.92999 3.57,20.479984 z m -21,-0.11 a 10.77,10.77 0 0 0 -1.38,-8.000004 7.69,7.69 0 0 0 -6.89,-3.52999 10.49,10.49 0 0 0 -7.9,3.57999 15.5,15.5 0 0 0 -3.79,8.000004 q -0.85,4.829976 1.09,7.999973 2.06,3.459986 6.77,3.459986 10.02,-0.04 12.05,-11.509959 z"
     id="path14"
     inkscape:connector-curvature="0"
     style="fill:#00a9ce" />
  <path
     class="cls-1"
     d="m 249.44,66.0001 q -0.73,4.149996 -2,12.349978 -1.27,8.199982 -2,12.299978 a 1.74,1.74 0 0 1 -1.67,1.419998 67.55,67.55 0 0 1 -8.75,0.34 65.12,65.12 0 0 1 -8.69,-0.34 q -1.21,-0.229999 -1.4,-0.739999 a 6.46,6.46 0 0 1 0.19,-1.699998 q 0.69,-3.919986 2.25,-11.779978 1.56,-7.859982 2.25,-11.849979 a 211.53,211.53 0 0 0 3.28,-25.669963 q 0,-0.91 0.1,-1.19 0.2,-1.13 1.73,-1.14 1.53,-0.01 4.8,0.34 3.2,0.34 4.85,0.34 1.65,0 5,-0.28 3.34,-0.28 5,-0.28 1.36,0 1.16,1.14 c 0,0.15 -0.13,0.51 -0.3,1.08 a 249,249 0 0 0 -5.8,25.659963 z m 8.92,-42.189943 q -1.74,9.87999 -12.87,9.87999 a 10.51,10.51 0 0 1 -7.45,-2.5 q -2.93,-2.73 -2.11,-7.37999 a 11,11 0 0 1 4.8,-7.270003 14,14 0 0 1 8.27,-2.620001 9.93,9.93 0 0 1 7.2,2.670001 7.57,7.57 0 0 1 2.16,7.210003 z"
     id="path16"
     inkscape:connector-curvature="0"
     style="fill:#00a9ce" />
  <path
     class="cls-1"
     d="m 296.73,75.420091 a 50.64,50.64 0 0 1 -1.34,5.169985 51,51 0 0 0 -1.32,5.079995 4.56,4.56 0 0 1 -0.7,2.069988 8.76,8.76 0 0 1 -2.11,1.259998 37.3,37.3 0 0 1 -17,3.999996 q -16.41,0 -14.2,-12.549977 0.66,-3.749996 2.27,-11.269979 1.61,-7.51998 2.32,-11.17998 0.44,-2.49999 -2.46,-2.49999 h -0.74 c -0.35,0 -0.6,0.06 -0.75,0.06 q -2.16,0 -1.89,-1.53 0.16,-0.91 0.63,-2.78 0.47,-1.87 0.63,-2.78 0.21,-1.19 0.5,-3.62999 0.29,-2.44 0.5,-3.63 0.2,-1.14 3.86,-1.25 2.06,-0.06 2.42,-1.14 a 45,45 0 0 0 1.43,-6.81999 q 1.06,-7.31999 1,-6.99999 1.22,-6.600002 2.42,-6.590002 a 18.74,18.74 0 0 1 4.25,0.68 37,37 0 0 0 4.34,0.85 q 2.83,0.4 8.56,1.080001 1.4,0.11 1.25,1 -0.4,2.270001 -1.58,6.869991 -1.18,4.6 -1.59,6.93 -0.49,2.77999 1.16,2.77999 2,0 6,-0.17 4,-0.17 6.11,-0.17 1.25,0 1.1,0.85 -0.23,1.31 -1,3.92 -0.77,2.61 -1,3.91999 -0.24,1.36 -0.65,4 -0.41,2.64 -0.64,4 -0.21,1.18999 -1.86,1.18999 -1.14,0 -3.79,-0.08 -2.65,-0.08 -3.79,-0.09 h -4.17 q -0.85,0 -1.29,2.49999 l -0.71,4 q -0.42,2.730004 -0.65,3.999983 -0.84,4.769995 -0.08,6.589993 1.1,2.439998 5.59,2.439998 a 19.85,19.85 0 0 0 4.18,-0.649999 19.87,19.87 0 0 1 3.84,-0.65 q 1.17,-0.03 0.95,1.219999 z"
     id="path18"
     inkscape:connector-curvature="0"
     style="fill:#00a9ce" />
  <path
     class="cls-1"
     d="m 359.32,64.120121 a 34.81,34.81 0 0 1 -11.63,20.99995 32.91,32.91 0 0 1 -22.23,8.059982 q -12.5,0 -19.16,-7.949982 -6.66,-7.949992 -4.46,-20.42995 2.32,-13.169994 11.49,-21.379984 9.17,-8.20999 22.35,-8.20999 12.83,0 19.37,7.99999 6.54,7.99999 4.27,20.909984 z m -18.63,0 a 10.79,10.79 0 0 0 -1.39,-7.920004 7.29,7.29 0 0 0 -6.61,-3.43999 11,11 0 0 0 -8,3.51999 14.35,14.35 0 0 0 -4.11,7.840004 10.6,10.6 0 0 0 1.34,7.879973 7.53,7.53 0 0 0 6.76,3.519997 11,11 0 0 0 7.95,-3.519997 14.59,14.59 0 0 0 4.06,-7.879973 z"
     id="path20"
     inkscape:connector-curvature="0"
     style="fill:#00a9ce" />
  <path
     class="cls-1"
     d="m 363.62,24.760157 c 0,0 0,0 -0.1,0.05 a 8.73,8.73 0 0 1 -1,0 8.56,8.56 0 0 1 -0.91,0 h -0.13 a 0.23,0.23 0 0 1 -0.07,-0.1 l -0.23,-0.59 q -0.2,-0.51 -0.62,-1.510001 a 0.45,0.45 0 0 0 -0.43,-0.22 h -0.53 c -0.05,0 -0.08,0.09 -0.08,0.26 0,0.17 0,0.580001 0.06,1.000001 0.06,0.42 0.06,0.81 0.06,1 0,0.06 0,0.09 0,0.1 h -0.14 -0.94 a 6.71,6.71 0 0 1 -0.88,0 c -0.1,0 -0.15,-0.07 -0.15,-0.16 q 0,-0.56 0.05,-1.700001 0.05,-1.14 0.05,-1.71 0,-2.170001 -0.1,-3.380002 v -0.01 c 0,-0.06 0.05,-0.1 0.16,-0.12 0.11,-0.02 0.63,0 1.56,-0.06 h 1.51 a 3.19,3.19 0 0 1 1.9,0.530001 2,2 0 0 1 0.84,1.72 2.76,2.76 0 0 1 -0.22,1.190001 2.43,2.43 0 0 1 -0.79,0.87 c -0.08,0.05 -0.12,0.11 -0.12,0.15 l 0.62,1.290001 a 9.5,9.5 0 0 1 0.63,1.4 z m -2.15,-4.590002 a 0.92,0.92 0 0 0 -0.41,-0.87 2,2 0 0 0 -1,-0.18 q -0.49,0 -0.52,0.15 a 8.72,8.72 0 0 0 0,1 q 0,0.12 0,0.35 c 0,0.15 0,0.27 0,0.34 0,0.07 0.05,0 0.16,0.05 a 4.47,4.47 0 0 0 0.66,0 q 1.11,0.05 1.11,-0.85 z"
     id="path22"
     inkscape:connector-curvature="0"
     style="fill:#00a9ce" />
  <path
     class="cls-1"
     d="m 360.69,28.540147 a 7.31,7.31 0 1 1 7.31,-7.309991 7.32,7.32 0 0 1 -7.31,7.309991 z m 0,-13.159994 a 5.85,5.85 0 1 0 5.84,5.850003 5.85,5.85 0 0 0 -5.84,-5.850003 z"
     id="path24"
     inkscape:connector-curvature="0"
     style="fill:#00a9ce" />
  <g
     aria-label="PREFERRED CARRIER"
     transform="translate(2.271777,0.50876667)"
     style="font-style:normal;font-weight:normal;font-size:40px;line-height:1.25;font-family:sans-serif;letter-spacing:0px;word-spacing:0px;fill:#000000;fill-opacity:1;stroke:none"
     id="flowRoot836">
    <path
       d="m 18.530599,146.45898 v -26.72395 h 7.109375 q 3.973958,0 5.195312,0.38281 1.950521,0.61979 3.208333,2.64323 1.276042,2.02344 1.276042,5.21354 0,2.89844 -1.09375,4.86719 -1.09375,1.95052 -2.734375,2.7526 -1.640625,0.78386 -5.651042,0.78386 h -2.898437 v 10.08072 z m 4.411458,-22.20312 v 7.58333 h 2.442708 q 2.460938,0 3.335938,-0.34635 0.893229,-0.34636 1.458333,-1.23958 0.565104,-0.91146 0.565104,-2.22396 0,-1.33073 -0.583333,-2.24219 -0.583333,-0.91146 -1.440104,-1.22135 -0.856771,-0.3099 -3.627604,-0.3099 z"
       style="font-style:normal;font-variant:normal;font-weight:normal;font-stretch:normal;font-size:37.33333206px;font-family:'Arial Narrow';-inkscape-font-specification:'Arial Narrow'"
       id="path844"
       inkscape:connector-curvature="0" />
    <path
       d="m 38.965494,146.45898 v -26.72395 h 9.315104 q 3.572916,0 5.104166,0.72916 1.53125,0.71094 2.515625,2.4974 0.984375,1.76823 0.984375,4.2474 0,3.13541 -1.51302,5.04947 -1.494792,1.91407 -4.265625,2.40625 1.421875,1.02084 2.351562,2.24219 0.929688,1.20313 2.533854,4.33854 l 2.661458,5.21354 h -5.268229 l -3.208333,-5.8151 q -1.731771,-3.15365 -2.351562,-3.9375 -0.619792,-0.80208 -1.3125,-1.09375 -0.692708,-0.3099 -2.223958,-0.3099 h -0.911459 v 11.15625 z m 4.411458,-15.42187 h 3.28125 q 3.007813,0 3.828125,-0.25521 0.820312,-0.27344 1.330729,-1.07552 0.510417,-0.80208 0.510417,-2.13281 0,-1.27604 -0.510417,-2.04167 -0.510417,-0.78385 -1.385416,-1.07552 -0.619792,-0.20052 -3.591146,-0.20052 h -3.463542 z"
       style="font-style:normal;font-variant:normal;font-weight:normal;font-stretch:normal;font-size:37.33333206px;font-family:'Arial Narrow';-inkscape-font-specification:'Arial Narrow'"
       id="path846"
       inkscape:connector-curvature="0" />
    <path
       d="m 61.059242,146.45898 v -26.72395 h 16.260416 v 4.52083 H 65.4707 v 5.92448 h 11.010417 v 4.5026 H 65.4707 v 7.27344 h 12.25 v 4.5026 z"
       style="font-style:normal;font-variant:normal;font-weight:normal;font-stretch:normal;font-size:37.33333206px;font-family:'Arial Narrow';-inkscape-font-specification:'Arial Narrow'"
       id="path848"
       inkscape:connector-curvature="0" />
    <path
       d="m 81.494139,146.45898 v -26.72395 h 15.020833 v 4.52083 H 85.905597 v 6.32552 h 9.169271 v 4.52083 h -9.169271 v 11.35677 z"
       style="font-style:normal;font-variant:normal;font-weight:normal;font-stretch:normal;font-size:37.33333206px;font-family:'Arial Narrow';-inkscape-font-specification:'Arial Narrow'"
       id="path850"
       inkscape:connector-curvature="0" />
    <path
       d="m 100.21549,146.45898 v -26.72395 h 16.26042 v 4.52083 h -11.84896 v 5.92448 h 11.01042 v 4.5026 h -11.01042 v 7.27344 h 12.25 v 4.5026 z"
       style="font-style:normal;font-variant:normal;font-weight:normal;font-stretch:normal;font-size:37.33333206px;font-family:'Arial Narrow';-inkscape-font-specification:'Arial Narrow'"
       id="path852"
       inkscape:connector-curvature="0" />
    <path
       d="m 120.63216,146.45898 v -26.72395 h 9.3151 q 3.57292,0 5.10417,0.72916 1.53125,0.71094 2.51562,2.4974 0.98438,1.76823 0.98438,4.2474 0,3.13541 -1.51302,5.04947 -1.4948,1.91407 -4.26563,2.40625 1.42188,1.02084 2.35156,2.24219 0.92969,1.20313 2.53386,4.33854 l 2.66146,5.21354 h -5.26823 l -3.20834,-5.8151 q -1.73177,-3.15365 -2.35156,-3.9375 -0.61979,-0.80208 -1.3125,-1.09375 -0.69271,-0.3099 -2.22396,-0.3099 h -0.91146 v 11.15625 z m 4.41145,-15.42187 h 3.28125 q 3.00782,0 3.82813,-0.25521 0.82031,-0.27344 1.33073,-1.07552 0.51042,-0.80208 0.51042,-2.13281 0,-1.27604 -0.51042,-2.04167 -0.51042,-0.78385 -1.38542,-1.07552 -0.61979,-0.20052 -3.59114,-0.20052 h -3.46355 z"
       style="font-style:normal;font-variant:normal;font-weight:normal;font-stretch:normal;font-size:37.33333206px;font-family:'Arial Narrow';-inkscape-font-specification:'Arial Narrow'"
       id="path854"
       inkscape:connector-curvature="0" />
    <path
       d="m 142.72591,146.45898 v -26.72395 h 9.3151 q 3.57292,0 5.10417,0.72916 1.53125,0.71094 2.51562,2.4974 0.98438,1.76823 0.98438,4.2474 0,3.13541 -1.51302,5.04947 -1.4948,1.91407 -4.26563,2.40625 1.42188,1.02084 2.35156,2.24219 0.92969,1.20313 2.53386,4.33854 l 2.66146,5.21354 h -5.26823 l -3.20834,-5.8151 q -1.73177,-3.15365 -2.35156,-3.9375 -0.61979,-0.80208 -1.3125,-1.09375 -0.69271,-0.3099 -2.22396,-0.3099 h -0.91146 v 11.15625 z m 4.41145,-15.42187 h 3.28125 q 3.00782,0 3.82813,-0.25521 0.82031,-0.27344 1.33073,-1.07552 0.51042,-0.80208 0.51042,-2.13281 0,-1.27604 -0.51042,-2.04167 -0.51042,-0.78385 -1.38542,-1.07552 -0.61979,-0.20052 -3.59114,-0.20052 h -3.46355 z"
       style="font-style:normal;font-variant:normal;font-weight:normal;font-stretch:normal;font-size:37.33333206px;font-family:'Arial Narrow';-inkscape-font-specification:'Arial Narrow'"
       id="path856"
       inkscape:connector-curvature="0" />
    <path
       d="m 164.81966,146.45898 v -26.72395 h 16.26041 v 4.52083 h -11.84896 v 5.92448 h 11.01042 v 4.5026 h -11.01042 v 7.27344 h 12.25 v 4.5026 z"
       style="font-style:normal;font-variant:normal;font-weight:normal;font-stretch:normal;font-size:37.33333206px;font-family:'Arial Narrow';-inkscape-font-specification:'Arial Narrow'"
       id="path858"
       inkscape:connector-curvature="0" />
    <path
       d="m 185.19987,119.73503 h 8.07552 q 3.0625,0 4.61198,0.69271 1.56771,0.67447 2.88021,2.29687 1.3125,1.6224 2.05989,4.21094 0.7474,2.58854 0.7474,6.43489 0,3.46354 -0.78386,6.03386 -0.78385,2.55208 -1.98697,4.04687 -1.20313,1.49479 -2.91667,2.26042 -1.69531,0.74739 -4.375,0.74739 h -8.3125 z m 4.41146,4.52083 v 17.70052 h 3.31771 q 2.13281,0 3.08073,-0.40104 0.96614,-0.40104 1.5677,-1.20313 0.6198,-0.82031 1.02084,-2.57031 0.40104,-1.75 0.40104,-4.61198 0,-2.97135 -0.41927,-4.68489 -0.40104,-1.71354 -1.27604,-2.69792 -0.85677,-0.98437 -2.09636,-1.29427 -0.92969,-0.23698 -3.59114,-0.23698 z"
       style="font-style:normal;font-variant:normal;font-weight:normal;font-stretch:normal;font-size:37.33333206px;font-family:'Arial Narrow';-inkscape-font-specification:'Arial Narrow'"
       id="path860"
       inkscape:connector-curvature="0" />
    <path
       d="m 229.87956,136.63346 4.28385,1.65886 q -1.0026,4.48437 -3.33594,6.5625 -2.33333,2.05989 -5.74218,2.05989 -4.28386,0 -6.94532,-3.29948 -3.0625,-3.80989 -3.0625,-10.28125 0,-6.83593 3.08073,-10.70052 2.67969,-3.35416 7.20052,-3.35416 3.6823,0 6.16146,2.51562 1.76823,1.78646 2.58854,5.30469 l -4.375,1.27604 q -0.41927,-2.16927 -1.67708,-3.31771 -1.23958,-1.16666 -2.9349,-1.16666 -2.42447,0 -3.95572,2.11458 -1.53125,2.11458 -1.53125,6.98177 0,5.04948 1.49479,7.18229 1.49479,2.13281 3.88281,2.13281 1.75,0 3.02604,-1.34895 1.27604,-1.36719 1.84115,-4.32032 z"
       style="font-style:normal;font-variant:normal;font-weight:normal;font-stretch:normal;font-size:37.33333206px;font-family:'Arial Narrow';-inkscape-font-specification:'Arial Narrow'"
       id="path862"
       inkscape:connector-curvature="0" />
    <path
       d="m 257.69726,146.45898 h -4.81249 l -1.91407,-6.07031 h -8.75 l -1.80468,6.07031 h -4.70313 l 8.53125,-26.72395 h 4.6849 z m -8.14843,-10.57291 -3.00781,-9.91667 -2.97136,9.91667 z"
       style="font-style:normal;font-variant:normal;font-weight:normal;font-stretch:normal;font-size:37.33333206px;font-family:'Arial Narrow';-inkscape-font-specification:'Arial Narrow'"
       id="path864"
       inkscape:connector-curvature="0" />
    <path
       d="m 260.04883,146.45898 v -26.72395 h 9.3151 q 3.57292,0 5.10417,0.72916 1.53125,0.71094 2.51562,2.4974 0.98438,1.76823 0.98438,4.2474 0,3.13541 -1.51302,5.04947 -1.49479,1.91407 -4.26563,2.40625 1.42188,1.02084 2.35157,2.24219 0.92968,1.20313 2.53385,4.33854 l 2.66146,5.21354 h -5.26823 l -3.20833,-5.8151 q -1.73178,-3.15365 -2.35157,-3.9375 -0.61979,-0.80208 -1.3125,-1.09375 -0.69271,-0.3099 -2.22396,-0.3099 h -0.91145 v 11.15625 z m 4.41146,-15.42187 h 3.28125 q 3.00781,0 3.82812,-0.25521 0.82031,-0.27344 1.33073,-1.07552 0.51042,-0.80208 0.51042,-2.13281 0,-1.27604 -0.51042,-2.04167 -0.51042,-0.78385 -1.38542,-1.07552 -0.61979,-0.20052 -3.59114,-0.20052 h -3.46354 z"
       style="font-style:normal;font-variant:normal;font-weight:normal;font-stretch:normal;font-size:37.33333206px;font-family:'Arial Narrow';-inkscape-font-specification:'Arial Narrow'"
       id="path866"
       inkscape:connector-curvature="0" />
    <path
       d="m 282.14258,146.45898 v -26.72395 h 9.3151 q 3.57292,0 5.10417,0.72916 1.53125,0.71094 2.51562,2.4974 0.98438,1.76823 0.98438,4.2474 0,3.13541 -1.51302,5.04947 -1.49479,1.91407 -4.26563,2.40625 1.42188,1.02084 2.35157,2.24219 0.92968,1.20313 2.53385,4.33854 l 2.66146,5.21354 h -5.26823 l -3.20833,-5.8151 q -1.73178,-3.15365 -2.35157,-3.9375 -0.61979,-0.80208 -1.3125,-1.09375 -0.69271,-0.3099 -2.22396,-0.3099 h -0.91145 v 11.15625 z m 4.41146,-15.42187 h 3.28125 q 3.00781,0 3.82812,-0.25521 0.82031,-0.27344 1.33073,-1.07552 0.51042,-0.80208 0.51042,-2.13281 0,-1.27604 -0.51042,-2.04167 -0.51042,-0.78385 -1.38542,-1.07552 -0.61979,-0.20052 -3.59114,-0.20052 h -3.46354 z"
       style="font-style:normal;font-variant:normal;font-weight:normal;font-stretch:normal;font-size:37.33333206px;font-family:'Arial Narrow';-inkscape-font-specification:'Arial Narrow'"
       id="path868"
       inkscape:connector-curvature="0" />
    <path
       d="m 304.09049,146.45898 v -26.72395 h 4.41146 v 26.72395 z"
       style="font-style:normal;font-variant:normal;font-weight:normal;font-stretch:normal;font-size:37.33333206px;font-family:'Arial Narrow';-inkscape-font-specification:'Arial Narrow'"
       id="path870"
       inkscape:connector-curvature="0" />
    <path
       d="m 312.76758,146.45898 v -26.72395 h 16.26041 v 4.52083 h -11.84895 v 5.92448 h 11.01041 v 4.5026 h -11.01041 v 7.27344 h 12.25 v 4.5026 z"
       style="font-style:normal;font-variant:normal;font-weight:normal;font-stretch:normal;font-size:37.33333206px;font-family:'Arial Narrow';-inkscape-font-specification:'Arial Narrow'"
       id="path872"
       inkscape:connector-curvature="0" />
    <path
       d="m 333.18423,146.45898 v -26.72395 h 9.31511 q 3.57291,0 5.10416,0.72916 1.53125,0.71094 2.51563,2.4974 0.98437,1.76823 0.98437,4.2474 0,3.13541 -1.51302,5.04947 -1.49479,1.91407 -4.26562,2.40625 1.42187,1.02084 2.35156,2.24219 0.92969,1.20313 2.53386,4.33854 l 2.66145,5.21354 h -5.26823 l -3.20833,-5.8151 q -1.73177,-3.15365 -2.35156,-3.9375 -0.61979,-0.80208 -1.3125,-1.09375 -0.69271,-0.3099 -2.22396,-0.3099 h -0.91146 v 11.15625 z m 4.41146,-15.42187 h 3.28125 q 3.00782,0 3.82813,-0.25521 0.82031,-0.27344 1.33073,-1.07552 0.51041,-0.80208 0.51041,-2.13281 0,-1.27604 -0.51041,-2.04167 -0.51042,-0.78385 -1.38542,-1.07552 -0.61979,-0.20052 -3.59115,-0.20052 h -3.46354 z"
       style="font-style:normal;font-variant:normal;font-weight:normal;font-stretch:normal;font-size:37.33333206px;font-family:'Arial Narrow';-inkscape-font-specification:'Arial Narrow'"
       id="path874"
       inkscape:connector-curvature="0" />
  </g>
</svg>
