<?xml version="1.0" encoding="utf-8"?>
<!-- Generator: Adobe Illustrator 27.6.1, SVG Export Plug-In . SVG Version: 6.00 Build 0)  -->
<svg version="1.1"
	 id="Layer_1" xmlns:rdf="http://www.w3.org/1999/02/22-rdf-syntax-ns#" xmlns:svg="http://www.w3.org/2000/svg" xmlns:inkscape="http://www.inkscape.org/namespaces/inkscape" xmlns:cc="http://creativecommons.org/ns#" xmlns:sodipodi="http://sodipodi.sourceforge.net/DTD/sodipodi-0.dtd" xmlns:dc="http://purl.org/dc/elements/1.1/"
	 xmlns="http://www.w3.org/2000/svg" xmlns:xlink="http://www.w3.org/1999/xlink" x="0px" y="0px" viewBox="0 0 511 182.9"
	 style="enable-background:new 0 0 511 182.9;" xml:space="preserve">
<style type="text/css">
	.st0{fill:#00A9CE;}
</style>
<sodipodi:namedview  bordercolor="#666666" borderopacity="1" gridtolerance="10" guidetolerance="10" id="namedview27" inkscape:current-layer="Layer_1" inkscape:cx="481.44096" inkscape:cy="26.74672" inkscape:pageopacity="0" inkscape:pageshadow="2" inkscape:window-height="1356" inkscape:window-maximized="1" inkscape:window-width="2560" inkscape:window-x="-8" inkscape:window-y="-8" inkscape:zoom="1.1265451" objecttolerance="10" pagecolor="#ffffff" showgrid="false">
	</sodipodi:namedview>
<g>
	<path id="path8_00000121264641080461193510000009442124356930634913_" inkscape:connector-curvature="0" class="st0" d="M173.7,78
		c-1.3,7.7-5.7,14.3-13.2,19.8c-6.6,4.9-14.3,8.1-22.4,9.3c-0.2,0-0.5,0.1-0.8,0.1c-0.9,0-2.3-2.7-4.4-8.1c-2.1-5.3-3-8.6-2.8-9.7
		c0.1-0.4,0.4-0.7,1-0.8c3.9-0.7,7.7-1.8,11.5-3.2c4.3-2,6.8-4.9,7.4-8.7c0.4-2.5-0.4-5.2-2.4-8.2c-3.6-5.1-5.5-8-5.8-8.6
		c-1.9-4.1-2.5-8.7-1.6-13.1c1.4-6.9,5.6-12.7,12.8-17.3c6.2-3.9,13.3-6.4,20.6-7.4c0.4,0,0.8-0.1,1-0.1c0.6,0,0.9,0.5,1.1,1.4
		c1.1,5.1,2.5,10.1,4.2,15c0.1,0.2,0.1,0.4,0.1,0.6c0,0.6-0.5,1-1.1,1c0,0,0,0-0.1,0c-0.5,0-1-0.1-1.5-0.2c-0.5-0.1-1.1-0.2-1.6-0.2
		c-2.6,0-5.2,0.6-7.5,1.9c-2.5,1.1-4.2,3.4-4.8,6c-0.4,2.3,0.5,5.1,2.6,8.5c3.7,6,5.7,9.2,5.8,9.5C173.8,69.4,174.4,73.8,173.7,78
		L173.7,78z"/>
	<path id="path10_00000066478436451106071190000013441808395091665281_" inkscape:connector-curvature="0" class="st0" d="M242.1,63
		l-7,39.2c0,1.1-0.9,2.1-2,2.2c-1.2,0.2-4,0.2-8.3,0.2c-2.9,0.1-5.8-0.1-8.6-0.4c-1.2-0.2-1.7-1-1.4-2.4c0.6-3.3,1.5-8.2,2.8-14.7
		s2.2-11.5,2.8-14.7c0.8-4.4-1.1-6.6-5.6-6.6c-2,0.1-3.9,0.8-5.7,1.8c-2.5,1.3-3.8,2.7-4.1,4.1l-2.5,14c-0.3,1.8-0.8,4.6-1.3,8.2
		c-0.6,3.7-1,6.4-1.4,8.3c-0.1,1.2-1,2.2-2.2,2.3c-1.2,0.2-4.5,0.2-9.9,0.2c-2.2,0.1-4.4-0.1-6.6-0.4c-1.3-0.3-1.9-1-1.7-2
		c0.5-3,1.3-7.5,2.4-13.5s1.9-10.5,2.4-13.5c2.2-12.4,3.8-22.6,5-30.7c0.4-2.8,0.8-5.7,1.2-8.5s0.5-5.6,0.5-8.5c0-0.4,0-0.7,0-1.1
		c0.1-0.6,0.5-1,1.1-1.1c1.7-0.4,3.5-0.6,5.3-0.6c3-0.1,4.8-0.2,5.3-0.3l10.5-1.2c0.6,0,0.8,0.4,0.7,1.2c-0.2,1.2-0.6,2.9-1.1,4.9
		c-0.6,2.4-0.9,4.1-1.1,4.9c-1.7,8.6-3,15.3-3.9,20.3c-0.1,0.8,0,1.1,0.4,1.1c0.1,0,1.2-0.7,3.2-2c2.2-1.4,4.6-2.7,7-3.7
		c2.8-1.2,5.9-1.9,9-2c4.8,0,8.7,1.3,11.5,3.8C241.8,54.5,242.9,58.3,242.1,63L242.1,63z"/>
	<path id="path12_00000014628348222950377640000005178722641168689563_" inkscape:connector-curvature="0" class="st0" d="
		M269.7,78.1c-0.5,2.8-1.2,6.9-2,12.3s-1.5,9.6-2,12.3c-0.2,0.8-0.8,1.4-1.7,1.4c-2.9,0.3-5.8,0.4-8.8,0.3c-2.9,0.1-5.8,0-8.7-0.3
		c-0.8-0.2-1.3-0.4-1.4-0.7c0-0.6,0.1-1.1,0.2-1.7c0.5-2.6,1.2-6.5,2.3-11.8c1-5.2,1.8-9.2,2.2-11.8c1.6-8.5,2.7-17.1,3.3-25.7
		c0-0.4,0-0.8,0.1-1.2c0.1-0.8,0.7-1.1,1.7-1.1s2.6,0.1,4.8,0.3c2.1,0.2,3.8,0.3,4.9,0.3s2.8-0.1,5-0.3s3.9-0.3,5-0.3
		c0.9,0,1.3,0.4,1.2,1.1c0,0.2-0.1,0.5-0.3,1.1C273.1,60.9,271.2,69.5,269.7,78.1L269.7,78.1z M278.6,35.9
		c-1.2,6.6-5.4,9.9-12.9,9.9c-2.7,0.2-5.4-0.7-7.5-2.5c-2-1.8-2.7-4.3-2.1-7.4c0.5-3,2.3-5.6,4.8-7.3c2.4-1.7,5.3-2.6,8.3-2.6
		c2.7-0.1,5.3,0.9,7.2,2.7C278.4,30.5,279.2,33.3,278.6,35.9L278.6,35.9z"/>
	<path id="path14_00000088111100529922048220000009880345564381148820_" inkscape:connector-curvature="0" class="st0" d="
		M343.5,76.8c-1.2,7.7-5,14.8-10.7,20.2c-5.6,5.4-13.1,8.4-20.8,8.3c-3.1,0-6.2-0.8-9-2.2c-3.1-1.4-4.5-2.2-4.2-2.2
		c-0.5,0-0.8,0.6-1,1.7c-0.3,1.9-0.8,4.8-1.2,8.7s-0.9,6.8-1.3,8.7c-0.1,1.1-1.1,1.9-2.2,1.8l0,0l-11.6,0.1c-1.7,0.1-3.3,0-5-0.3
		c-0.9-0.1-1.5-0.9-1.4-1.8c0-0.1,0-0.2,0.1-0.3l7.8-43.7c1.4-7.4,2.1-14.8,2-22.3c0-0.3,0-0.7,0.1-1c0.1-0.5,0.4-1,0.9-1.1
		c2.9-0.8,5.8-1.5,8.8-1.8c3-0.5,6-0.9,9-1c1.5,0,2.1,1,2,2.9s-0.1,2.9,0.2,2.9c-0.4,0,1.4-1,5.4-3.1s7.4-3.1,10.4-3.1
		c8.2,0,14.3,2.7,18.3,8.1C343.8,61.6,345,68.5,343.5,76.8L343.5,76.8z M322.5,76.7c0.6-2.7,0.1-5.6-1.4-8c-1.5-2.3-4.1-3.7-6.9-3.5
		c-3,0-5.9,1.3-7.9,3.6c-2,2.2-3.3,5-3.8,8c-0.6,3.2-0.2,5.9,1.1,8c1.4,2.3,3.6,3.5,6.8,3.5C317.1,88.2,321.1,84.4,322.5,76.7
		L322.5,76.7z"/>
	<path id="path16_00000082344064751158888590000005138527960317776319_" inkscape:connector-curvature="0" class="st0" d="
		M371.7,78.1c-0.5,2.8-1.2,6.9-2,12.3s-1.5,9.6-2,12.3c-0.2,0.8-0.8,1.4-1.7,1.4c-2.9,0.3-5.8,0.4-8.8,0.3c-2.9,0.1-5.8,0-8.7-0.3
		c-0.8-0.2-1.3-0.4-1.4-0.7c0-0.6,0.1-1.1,0.2-1.7c0.5-2.6,1.2-6.5,2.2-11.8c1-5.2,1.8-9.2,2.2-11.8c1.6-8.5,2.7-17.1,3.3-25.7
		c0-0.6,0-1,0.1-1.2c0.1-0.8,0.7-1.1,1.7-1.1s2.6,0.1,4.8,0.3c2.1,0.2,3.8,0.3,4.9,0.3s2.8-0.1,5-0.3s3.9-0.3,5-0.3
		c0.9,0,1.3,0.4,1.2,1.1c0,0.2-0.1,0.5-0.3,1.1C375.1,60.9,373.2,69.5,371.7,78.1L371.7,78.1z M380.6,35.9
		c-1.2,6.6-5.4,9.9-12.9,9.9c-2.7,0.2-5.4-0.7-7.5-2.5c-2-1.8-2.7-4.3-2.1-7.4c0.5-3,2.3-5.6,4.8-7.3c2.4-1.7,5.3-2.6,8.3-2.6
		c2.7-0.1,5.3,0.9,7.2,2.7C380.4,30.5,381.2,33.3,380.6,35.9L380.6,35.9z"/>
	<path id="path18_00000075141095001530342760000001308539644358955426_" inkscape:connector-curvature="0" class="st0" d="M419,87.5
		c-0.4,1.7-0.8,3.5-1.3,5.2s-1,3.4-1.3,5.1c-0.1,0.7-0.3,1.4-0.7,2.1c-0.6,0.5-1.4,0.9-2.1,1.3c-5.3,2.7-11.1,4-17,4
		c-10.9,0-15.7-4.2-14.2-12.5c0.4-2.5,1.2-6.3,2.3-11.3c1.1-5,1.8-8.7,2.3-11.2c0.3-1.7-0.5-2.5-2.5-2.5h-0.7
		c-0.4,0-0.6,0.1-0.8,0.1c-1.4,0-2.1-0.5-1.9-1.5c0.1-0.6,0.3-1.5,0.6-2.8c0.3-1.3,0.5-2.2,0.6-2.8c0.1-0.8,0.3-2,0.5-3.6
		s0.4-2.8,0.5-3.6s1.4-1.2,3.9-1.2c1.4,0,2.2-0.4,2.4-1.1c0.7-2.2,1.1-4.5,1.4-6.8c0.7-4.9,1-7.2,1-7c0.8-4.4,1.6-6.6,2.4-6.6
		c1.4,0.1,2.9,0.3,4.2,0.7c1.4,0.4,2.9,0.7,4.3,0.9c1.9,0.3,4.7,0.6,8.6,1.1c0.9,0.1,1.3,0.4,1.2,1c-0.3,1.5-0.8,3.8-1.6,6.9
		s-1.3,5.4-1.6,6.9c-0.3,1.9,0.1,2.8,1.2,2.8c1.3,0,3.3-0.1,6-0.2c2.7-0.1,4.7-0.2,6.1-0.2c0.8,0,1.2,0.3,1.1,0.8
		c-0.2,0.9-0.5,2.2-1,3.9s-0.8,3-1,3.9s-0.4,2.2-0.6,4c-0.3,1.8-0.5,3.1-0.6,4c-0.1,0.8-0.8,1.2-1.9,1.2c-0.8,0-2,0-3.8-0.1
		s-3-0.1-3.8-0.1H407c-0.6,0-1,0.8-1.3,2.5l-0.7,4c-0.3,1.8-0.5,3.2-0.6,4c-0.6,3.2-0.6,5.4-0.1,6.6c0.7,1.6,2.6,2.4,5.6,2.4
		c1.4-0.1,2.8-0.3,4.2-0.7c1.3-0.3,2.5-0.6,3.8-0.7C418.8,86.3,419.1,86.7,419,87.5L419,87.5z"/>
	<path id="path20_00000132056747248923429530000018198007608183058053_" inkscape:connector-curvature="0" class="st0" d="
		M481.6,76.2c-1.3,8.2-5.4,15.6-11.6,21c-6.2,5.3-14.1,8.2-22.2,8.1c-8.3,0-14.7-2.6-19.2-7.9s-5.9-12.1-4.5-20.4
		c1.5-8.8,5.4-15.9,11.5-21.4s13.6-8.2,22.4-8.2c8.6,0,15,2.7,19.4,8S483.1,67.6,481.6,76.2L481.6,76.2z M462.9,76.2
		c0.6-2.7,0.1-5.6-1.4-7.9c-1.4-2.3-3.9-3.6-6.6-3.4c-3,0-5.9,1.3-8,3.5c-2.2,2.1-3.6,4.9-4.1,7.8c-0.6,2.7-0.1,5.5,1.3,7.9
		c1.4,2.3,4,3.7,6.8,3.5c3,0,5.9-1.3,8-3.5C461,82,462.4,79.2,462.9,76.2L462.9,76.2z"/>
	<path id="path22_00000020383334390529721540000001979225193457244077_" inkscape:connector-curvature="0" class="st0" d="
		M485.9,36.9c0,0,0,0-0.1,0c-0.3,0-0.7,0-1,0s-0.6,0-0.9,0h-0.1l-0.1-0.1l-0.2-0.6c-0.1-0.3-0.3-0.8-0.6-1.5
		c-0.1-0.2-0.3-0.2-0.4-0.2h-0.7c0,0-0.1,0.1-0.1,0.3c0,0.2,0,0.6,0.1,1c0.1,0.4,0.1,0.8,0.1,1c0,0.1,0,0.1,0,0.1h-0.1h-1
		c-0.3,0-0.6,0-0.9,0c-0.1,0-0.1-0.1-0.1-0.2c0-0.4,0-0.9,0-1.7s0.1-1.3,0-1.7c0-1.4,0-2.6-0.1-3.4l0,0c0-0.1,0-0.1,0.2-0.1
		c0.1,0,0.6,0,1.6-0.1h1.5c0.7,0,1.3,0.2,1.9,0.5c0.6,0.4,0.9,1,0.8,1.7c0,0.4-0.1,0.8-0.2,1.2c-0.2,0.4-0.5,0.6-0.8,0.9
		c-0.1,0-0.1,0.1-0.1,0.1l0.6,1.3C485.5,35.9,485.7,36.4,485.9,36.9L485.9,36.9z M483.7,32.3c0-0.3-0.1-0.7-0.4-0.9
		c-0.3-0.1-0.7-0.2-1-0.2s-0.5,0-0.5,0.1c0,0.3,0,0.7,0,1c0,0.1,0,0.2,0,0.4c0,0.1,0,0.3,0,0.3s0,0,0.2,0s0.4,0,0.7,0
		C483.3,33.1,483.7,32.9,483.7,32.3L483.7,32.3z"/>
	<path id="path24_00000067200982112506743860000016599305732216384652_" inkscape:connector-curvature="0" class="st0" d="
		M482.9,40.6c-4,0-7.3-3.3-7.3-7.3s3.3-7.3,7.3-7.3s7.3,3.3,7.3,7.3l0,0C490.2,37.4,487,40.6,482.9,40.6z M482.9,27.5
		c-3.2,0-5.9,2.6-5.9,5.8s2.6,5.9,5.8,5.9c3.2,0,5.9-2.6,5.9-5.8l0,0C488.8,30.1,486.1,27.5,482.9,27.5z"/>
</g>
<g>
	<g>
		<path class="st0" d="M81.8,84.7c-0.4-0.7-0.8-1.3-1.3-2c-0.8-1.1-9-14.2-9.6-13.5c-5.5,7.2-11.5,14.6-14.5,23.2
			c-3.1,9.1,0.4,19.4,11.5,19.7c2,0.1,3.9-0.7,5.8-0.7c1.2,0,2.3,0.3,3.5,0.3c2.1,0,4.2-1.1,5.7-2.6C89.7,102.3,86.1,92,81.8,84.7z
			 M63,89.3c-0.1-0.2-0.1-0.4-0.1-0.6c-0.1-0.8,0.2-1.7,0.5-2.5c0.5-1.8,1.2-3.6,2-5.3c0.6-1.2,1.3-2.3,2-3.3
			c0.2-0.4,0.6-0.9,0.9-1.3c0.5-0.3,1.1-0.6,1.7-0.7H70v0.1c-0.1,0.5-0.1,1.1-0.3,1.5c-0.3,0.5-0.6,0.9-0.9,1.4
			c-0.6,1-1.3,2-1.8,3.1c-1.4,2.9-2.1,5.8-2.7,9c0,0.2-0.1,0.4-0.2,0.6L64,91.3c-0.1,0-0.1-0.1-0.1-0.1C63.5,90.7,63.2,90,63,89.3z
			 M71,88.3c-0.1,0.4-0.2,0.8-0.3,1.2c-0.1,0.2-0.2,0.5-0.5,0.5c-0.2,0-0.3-0.2-0.5-0.4c-0.2-0.2-0.2-0.4-0.4-0.6
			c-0.2-0.4-0.1-1.1,0-1.6c0-0.6,0-1.3,0.1-1.9c0.1-1.7,0-3.5,0.6-5.1c0.1-0.3,0.2-0.6,0.5-0.8c0-0.1,0.1-0.1,0.2-0.1
			c0.2,0,0.2,0.2,0.2,0.2c0.6,2,0.3,4.1,0.2,6.2C71.1,86.7,71.1,87.6,71,88.3z M76.5,89.5c-0.7-2.2-1.3-4.4-2.2-6.6
			c-0.4-1.1-0.9-2.1-1.5-3.1s-1.3-1.8-1.9-2.8c-0.2-0.3-0.2-0.6-0.2-0.9v-0.1c0,0,0.1-0.1,0.2-0.1c1.4-0.2,2.1,0.9,2.8,1.9
			c0.7,1.1,1.3,2.2,1.8,3.4c0.8,1.7,1.3,3.5,2,5.3c0.2,0.8,0.7,1.7,0.8,2.5c0.1,0.8,0,1.7-0.2,2.4c-0.1,0.2-0.2,0.5-0.4,0.6
			c-0.2,0-0.3-0.1-0.4-0.2c-0.1-0.1-0.2-0.2-0.2-0.4C76.9,90.7,76.6,90.1,76.5,89.5z"/>
		<path class="st0" d="M71,21.7c-1.3,0.1-2.5,0.1-3.8,0.2c-2.7,0.1-5.3,0.2-7.8,1.2c-10.2,3.9-8,15.8-3.3,23.2
			c0.5,0.7,0.9,1.3,1.4,2c2.1,2.7,4.7,5,6.7,7.7c1.5,2,4.1,9,7.7,7.1c1.1-0.6,1.7-1.7,2.4-2.7c2.8-4.6,5.6-9.2,8.3-13.8
			c2.3-3.9,4.6-7.8,5-12.3c0.7-8.3-6.2-13-13.6-12.7C73,21.6,72,21.6,71,21.7z M67,52.7c0.1,0.2,0.2,0.3,0.2,0.5
			c0,0.1,0,0.2-0.2,0.3c-0.1,0.1-0.2,0.1-0.2,0.1c-0.5,0-1,0-1.4-0.2c-0.3-0.2-0.6-0.6-0.9-0.9c-0.8-0.6-1.4-1.3-2.1-2.1
			c-0.9-1.1-1.9-2.4-2.7-3.6c-0.8-1.2-1.5-2.4-0.9-3.9c0-0.1,0.1-0.1,0.1-0.2c0.2-0.1,0.3,0.1,0.4,0.2c1.5,2,2.8,4.1,4.2,6.1
			c0.6,0.7,1.2,1.3,1.9,2C66,51.4,66.4,52,67,52.7C67,52.7,67,52.7,67,52.7z M68.8,59.1c0-0.2-0.1-0.4-0.1-0.6
			c-0.1-0.9-0.1-1.7-0.2-2.6c-0.1-1.7-0.2-3.5-0.4-5.3c-0.1-1.4-0.2-2.8-0.3-4.2c-0.1-1.4-0.4-2.7,0.2-3.9c0.1-0.1,0.1-0.2,0.2-0.3
			c0.1,0,0.2,0,0.3,0.1c0.1,0.1,0.2,0.2,0.2,0.2c0.3,0.6,0.6,1,0.6,1.7c0.1,0.7,0.1,1.4,0.2,2.1c0.1,1.4,0.2,2.9,0.3,4.3
			c0.2,1.7,0.2,3.5,0.4,5.3c0.1,0.9,0.2,1.8,0.2,2.7c0,0.6-0.2,1.3-0.5,2c0,0.2,0,0.2-0.1,0.3c-0.1,0.1-0.2,0.2-0.3,0.1
			c-0.2-0.1-0.2-0.2-0.2-0.3C69.1,60.1,68.9,59.6,68.8,59.1z M73.7,52.5c-0.4,0.5-0.9,0.9-1.4,1.3C72,54,71.7,54,71.4,54
			c0-0.3,0.2-0.6,0.2-0.9c0.8-1.9,1.9-3.5,2.7-5.4c0.5-1.2,0.9-2.4,1-3.7s0.2-2.5,0.4-3.8c0-0.1,0-0.2,0.1-0.2
			c0.1-0.2,0.3-0.2,0.6-0.1c0.2,0.1,0.3,0.2,0.4,0.4c0.8,1.3,0.6,2.6,0.4,4.1c-0.2,1.5-0.7,3-1.3,4.4C75.2,50,74.7,51.4,73.7,52.5z"
			/>
		<path class="st0" d="M65.1,68.2c-5.1-3.3-8.8-8.3-14-11.6c-2.8-1.8-6-3.5-9.4-3.9c-2.4-0.3-4.9,0-7.2,0.5c-8.5,2-12,8.2-11.6,16.8
			c0.2,5,1.7,10,5.3,13.4c6.1,5.8,17.8,3.4,23.5-1.7c1-0.9,2-1.9,2.9-3C55.7,77.6,65.9,68.7,65.1,68.2z M59.6,69.9
			c-0.2,0.6-0.6,1.1-1,1.4c-0.6,0.4-1.3,0.9-1.8,1.3c-1.3,0.9-2.8,1.7-4.2,2.4c-1.2,0.6-2.3,1-3.5,1.5c-1,0.4-2.4,1-3.5,0.9
			c-0.2,0-0.6-0.1-0.8-0.2c-0.2-0.1-0.5-0.2-0.6-0.5c0-0.1-0.1-0.2,0-0.2c0-0.1,0.1-0.1,0.2-0.1c0.4-0.2,0.8-0.4,1.3-0.6h0.1
			c1.1-0.6,2.4-0.8,3.5-1.3c1.2-0.5,2.4-1,3.5-1.6c0.7-0.4,1.4-0.8,2.1-1.2c0.9-0.6,1.8-1.3,2.8-1.8c0.4-0.2,0.8-0.5,1.2-0.8
			c0.2-0.2,0.5-0.5,0.8-0.7h0.1c0.1,0,0.1,0.1,0.1,0.1C59.6,69.1,59.6,69.5,59.6,69.9z M59.7,68.4c-2.9,0.3-5.8,0.4-8.7,0.6
			c-1.7,0.2-3.3,0.3-5,0.5c-1.1,0.1-2.2,0.3-3.2,0.2c-0.4-0.1-1.2-0.2-1.3-0.7c-0.2-0.6,0.8-0.9,1.2-0.9c1.4-0.2,2.8-0.2,4.2-0.3
			c1.4-0.2,2.8-0.3,4.2-0.5c2-0.2,4.2-0.2,6.2-0.4c-1.3-1.1-2.7-2-4.2-2.7c-1.7-0.9-3.6-1.5-5.5-1.6c-0.4,0-0.9-0.1-1.3-0.2
			c0,0,0.5-0.6,0.6-0.6c0.2-0.2,0.6-0.4,0.9-0.5c0.6-0.2,1.2-0.2,1.8-0.2c1.5,0.3,2.9,0.9,4.2,1.5c0.9,0.5,1.8,0.9,2.7,1.5
			c0.4,0.3,0.9,0.6,1.3,0.9c0.2,0.2,0.4,0.4,0.6,0.5c0.2,0.1,0.3,0,0.6,0.2c0.2,0.1,0.2,0.2,0.3,0.4c0.3,0.4,0.6,0.5,0.9,0.6
			c0.2,0.1,0.4,0.3,0.4,0.6C60.7,67.9,60.3,68.4,59.7,68.4z"/>
		<path class="st0" d="M99,51.4c-2.8,0.8-5.5,2-8,3.6c-2.4,1.4-4.7,3.1-7,4.7c-6.6,4.7-9.8,8.3-2.4,14.3c7.2,5.7,29,14.9,34.8,2.8
			c1.1-2.4,1.2-5.1,1.2-7.8c0-2.2,0-4.3,0-6.5c0-2.3-0.1-4.8-1.6-6.6c-0.9-1.1-2.3-1.8-3.6-2.4C107.6,51.4,104.1,50.1,99,51.4z
			 M83,64.8c0.3-0.4,0.9-0.7,1.3-1.1c0.9-0.8,2-1.5,3-2.2c2-1.3,4.8-2.8,7.3-2.6c0.5,0.1,0.9,0.3,1,0.7c0,0.1,0,0.1,0,0.2
			s-0.1,0.1-0.1,0.1c-0.9,0.7-2,0.7-3.1,1.1c-1.3,0.4-2.4,1-3.5,1.7c-0.9,0.6-1.8,1.2-2.7,1.8c-0.5,0.3-0.9,0.7-1.3,1
			c-0.4,0.3-0.6,0.6-1.1,0.6c-0.4,0-0.8,0-1.2,0C82.5,65.6,82.7,65.2,83,64.8z M92.6,76.1c-1.1-0.1-2.2-0.6-3.1-0.9
			c-1.6-0.6-3-1.3-4.5-2.1c-1.2-0.6-2.3-1.3-3.4-2c-0.9-0.6-2.2-1-2.4-2.1c-0.1-0.2,0-0.5,0.2-0.6c0.2-0.2,0.6-0.1,0.8,0
			c1.1,0.4,2.1,1.1,3.1,1.7c1,0.6,2,1.3,3.1,1.9c1.2,0.6,2.4,1.3,3.6,1.7c0.6,0.2,1.3,0.5,2,0.7c0.6,0.2,1.1,0.5,1.7,0.8
			c0.2,0.1,0.4,0.2,0.6,0.2h0.1v0.1c0,0.2,0,0.2,0,0.4C94.3,76,94.1,76,94,76.1C93.5,76.1,93.1,76.1,92.6,76.1z M96.8,68
			c-0.9,0.2-1.9,0.1-2.7,0.1c-1.4,0.1-2.8,0.2-4.2,0.2c-1.4,0.1-2.8,0.2-4.2,0.1c-1,0-2.1-0.2-3.1-0.2c-0.5,0-0.9,0-1.3-0.2
			c-0.4-0.2-0.9-0.5-1.3-0.8L80,67.2c0-0.1,0.1-0.2,0.2-0.2c0.3-0.2,0.7-0.2,1-0.4c0.3-0.2,0.4-0.2,0.8-0.2c0.4,0.1,0.8,0.1,1.1,0.1
			c0.8,0.1,1.6,0.1,2.4,0.1c1.6,0,3.1-0.1,4.7-0.2c1.4-0.1,2.8-0.2,4.2-0.2c0.7,0,1.4-0.1,2.1-0.1c0.6,0,1.3,0.2,1.9,0.4
			c0,0.4-0.2,0.7-0.6,0.9C97.6,67.9,97.2,68,96.8,68z"/>
	</g>
	<path class="st0" d="M96,37.5c-0.9-0.7-2.2-0.4-2.8,0.6c-1.5,2.3-3.1,4.6-4.8,6.7c-0.9,1-1.7,2-2.6,3.1c-0.5,0.6-0.9,1.1-1.3,1.7
		c-0.5,0.6-0.8,1.2-1.2,1.7c-0.2,0.3,0.2,0.6,0.5,0.4c0.6-0.5,1.2-0.9,1.7-1.3c0.5-0.5,1-0.9,1.5-1.5c1-0.9,2-2,3-3
		c2-2,4.2-3.8,6.4-5.5C97.2,39.6,96.8,38.2,96,37.5z"/>
	<path class="st0" d="M98.8,92.3c-2.3-1.8-4.5-3.6-6.7-5.4c-2.2-1.8-4.3-3.7-6.8-5.2c-0.3-0.2-0.7,0.2-0.6,0.6
		c1.4,2.4,3.4,4.6,5.3,6.7c2,2.1,3.9,4.2,5.9,6.2c0.7,0.8,2.1,0.8,2.8,0C99.5,94.4,99.7,93,98.8,92.3z"/>
	<path class="st0" d="M56.4,83.5c-0.3,0.4-0.8,0.7-1.2,1.1c-0.5,0.5-0.9,0.9-1.4,1.4c-0.9,0.9-1.7,1.9-2.6,2.8l-2.5,2.8
		c-0.9,0.9-2.1,2-2.7,3.1c-0.9,1.7,1.1,3.1,2.5,2c0.9-0.8,1.7-2.1,2.4-3.1s1.4-2,2.1-3.1c0.7-1,1.4-2,2.1-3.1c0.3-0.6,0.7-1,1-1.6
		c0.2-0.2,0.3-0.6,0.5-0.8c0.2-0.3,0.3-0.7,0.5-0.9C57.4,83.7,56.8,83.1,56.4,83.5z"/>
	<path class="st0" d="M54.4,51.9c-0.7-0.9-1.4-2-2.1-3c-0.7-1-1.6-2-2.4-3c-0.8-0.9-1.6-1.9-2.4-2.8c-0.4-0.5-0.9-0.9-1.3-1.4
		c-0.6-0.7-1.1-1.3-2-1.6c-1.3-0.3-2.9,0.9-2.4,2.4c0.2,0.7,0.6,1.1,1.2,1.5c0.2,0.2,0.5,0.3,0.7,0.5c0.1,0.1,0.2,0.2,0.3,0.2
		c0,0,0.1,0.1,0.2,0.1c0.2,0.2,0.5,0.4,0.7,0.6c1,0.8,2,1.6,2.9,2.4c0.9,0.8,1.9,1.7,2.8,2.4c1,0.7,2,1.5,2.9,2.3
		C54.1,52.8,54.8,52.4,54.4,51.9z"/>
</g>
<g>
	<g>
		<path d="M219.7,160.8h-5l-2-7.2h-9.1l-1.9,7.2h-4.9l8.8-31.9h4.8L219.7,160.8z M211.3,148.1l-3.1-11.9l-3.1,11.9H211.3z"/>
		<path d="M224,150.4l4.5-0.6c0.3,2.1,0.8,3.6,1.6,4.6s1.9,1.4,3.3,1.4c1.5,0,2.6-0.4,3.3-1.3c0.7-0.9,1.1-1.9,1.1-3.1
			c0-0.7-0.2-1.4-0.5-2c-0.3-0.5-0.9-1-1.6-1.3c-0.5-0.3-1.8-0.7-3.7-1.4c-2.5-0.8-4.2-1.9-5.2-3.2c-1.4-1.8-2.1-3.9-2.1-6.4
			c0-1.7,0.3-3.1,1-4.5c0.7-1.4,1.6-2.5,2.8-3.2c1.2-0.7,2.7-1.1,4.5-1.1c2.8,0,5,0.9,6.4,2.7c1.4,1.8,2.2,4.1,2.3,7l-4.6,0.3
			c-0.2-1.7-0.6-2.8-1.3-3.5c-0.6-0.7-1.6-1-2.9-1s-2.4,0.4-3.1,1.1c-0.5,0.5-0.7,1.1-0.7,2c0,0.7,0.2,1.4,0.7,2
			c0.6,0.7,2,1.4,4.2,2.2c2.2,0.7,3.9,1.5,4.9,2.3c1.1,0.8,1.9,1.9,2.5,3.2s0.9,3.1,0.9,5.1c0,1.9-0.4,3.5-1.1,5.2
			c-0.7,1.5-1.7,2.8-3.1,3.6c-1.3,0.8-3,1.1-4.9,1.1c-2.9,0-5.1-0.9-6.6-2.8C225.2,156.7,224.3,154,224,150.4z"/>
		<path d="M249.2,160.8v-31.9h4.6v31.9H249.2z"/>
		<path d="M281.7,160.8h-5l-2-7.2h-9.1l-1.9,7.2h-4.9l8.8-31.9h4.8L281.7,160.8z M273.2,148.1l-3.1-11.9l-3.1,11.9H273.2z"/>
		<path d="M293.7,128.8h8.4c1.9,0,3.3,0.2,4.3,0.6c1.3,0.5,2.5,1.5,3.4,2.9c1,1.4,1.7,3.1,2.2,5.2c0.5,2.1,0.7,4.5,0.7,7.5
			c0,2.6-0.2,4.9-0.7,6.8c-0.6,2.4-1.4,4.2-2.4,5.7c-0.8,1.1-1.9,2-3.2,2.6c-1,0.4-2.4,0.7-4.1,0.7h-8.6L293.7,128.8L293.7,128.8z
			 M298.3,134.3v21.2h3.4c1.3,0,2.2-0.1,2.8-0.3c0.7-0.3,1.4-0.7,1.9-1.3c0.5-0.6,0.9-1.7,1.2-3.1c0.3-1.4,0.5-3.4,0.5-5.9
			s-0.2-4.3-0.5-5.7s-0.7-2.4-1.3-3.1c-0.6-0.7-1.3-1.2-2.1-1.5c-0.6-0.2-1.9-0.3-3.8-0.3h-2.1V134.3z"/>
		<path d="M319.5,160.8v-31.9h4.6v31.9H319.5z"/>
		<path d="M331.5,160.8v-31.9h9.6c2.4,0,4.2,0.3,5.3,0.8c1.1,0.6,2,1.5,2.6,3.1c0.7,1.4,1,3.1,1,5.1c0,2.4-0.5,4.3-1.5,6
			c-1,1.5-2.5,2.6-4.5,3c1,0.8,1.8,1.8,2.5,2.7c0.6,0.9,1.5,2.7,2.6,5.2l2.8,6.2h-5.5l-3.3-6.9c-1.2-2.5-2-4-2.4-4.6
			c-0.4-0.6-0.9-1.1-1.4-1.3s-1.3-0.3-2.3-0.3h-0.9V161h-4.6V160.8z M336.1,142.4h3.4c2.2,0,3.6-0.1,4.1-0.4c0.5-0.3,1-0.7,1.3-1.3
			c0.3-0.6,0.5-1.4,0.5-2.4c0-1-0.2-2-0.6-2.6c-0.4-0.6-1-1-1.7-1.2c-0.4-0.1-1.5-0.1-3.3-0.1h-3.6v8.1H336.1z"/>
		<path d="M357.4,160.8v-31.9h16.8v5.4H362v7.1h11.4v5.4H362v8.7h12.7v5.4L357.4,160.8L357.4,160.8z"/>
		<path d="M396.2,149.1l4.4,2c-0.7,3.5-1.8,6.1-3.4,7.7c-1.6,1.7-3.6,2.6-6,2.6c-3,0-5.5-1.4-7.4-4.3s-2.9-6.8-2.9-11.9
			c0-5.3,1-9.4,2.9-12.4c2-2.9,4.5-4.4,7.7-4.4c2.8,0,5,1.1,6.8,3.5c1,1.3,1.8,3.3,2.3,5.9l-4.5,1.5c-0.3-1.7-0.8-3-1.7-3.9
			c-0.9-0.9-1.9-1.4-3.1-1.4c-1.7,0-3,0.8-4.1,2.6c-1,1.7-1.6,4.4-1.6,8.3c0,4,0.5,6.9,1.5,8.7c1,1.8,2.4,2.6,4,2.6
			c1.2,0,2.3-0.5,3.1-1.7C395.1,153.1,395.8,151.4,396.2,149.1z"/>
		<path d="M412.6,160.8v-26.5h-6.7v-5.4h18v5.4h-6.7v26.5H412.6z"/>
	</g>
</g>
</svg>
