<svg id="Layer_1" data-name="Layer 1" xmlns="http://www.w3.org/2000/svg" width="61" height="61" viewBox="0 0 61 61"><defs><style>.cls-1{fill:#a88158;}.cls-2{fill:#303030;}.cls-3{fill:#d9ad85;}.cls-4{fill:#f3d4bc;}.cls-5{fill:#e1c5a9;}.cls-6{fill:none;stroke:#00a8cd;stroke-miterlimit:10;}</style></defs><title>Size</title><polygon class="cls-1" points="52.2 0.87 20.63 0.87 12.33 14.16 12.33 49.04 60.5 49.04 60.5 14.16 52.2 0.87"/><path class="cls-2" d="M43.06,43.23H29.77a.83.83,0,0,0,0,1.66H43.06a.83.83,0,1,0,0-1.66Z"/><path class="cls-2" d="M29.77,36.58a.84.84,0,0,0,.59-.24l1.07-1.08v5.47a.83.83,0,1,0,1.66,0V35.26l1.08,1.08a.83.83,0,0,0,1.17,0,.83.83,0,0,0,0-1.18l-2.49-2.49a1,1,0,0,0-.27-.18.88.88,0,0,0-.64,0,1,1,0,0,0-.27.18l-2.49,2.49a.83.83,0,0,0,.59,1.42Z"/><path class="cls-2" d="M38.08,36.58a.82.82,0,0,0,.58-.24l1.08-1.08v5.47a.83.83,0,1,0,1.66,0V35.26l1.07,1.08a.84.84,0,0,0,.59.24.86.86,0,0,0,.59-.24.85.85,0,0,0,0-1.18l-2.5-2.49a.75.75,0,0,0-.27-.18.86.86,0,0,0-.63,0,1,1,0,0,0-.27.18l-2.49,2.49a.83.83,0,0,0,.59,1.42Z"/><polygon class="cls-3" points="20.63 0.87 12.33 14.16 60.5 14.16 52.2 0.87 20.63 0.87"/><polygon class="cls-4" points="34.21 0.87 40 0.87 41.37 14.16 31.45 14.16 34.21 0.87"/><rect class="cls-5" x="31.45" y="14.15" width="9.92" height="11.15"/><line class="cls-6" x1="4.51" y1="13.61" x2="4.51" y2="49.62"/><line class="cls-6" x1="0.5" y1="13.36" x2="8.52" y2="13.36"/><line class="cls-6" x1="0.5" y1="49.34" x2="8.52" y2="49.34"/><line class="cls-6" x1="60.35" y1="56.12" x2="12.01" y2="56.12"/><line class="cls-6" x1="11.75" y1="52.11" x2="11.75" y2="60.13"/><line class="cls-6" x1="60.43" y1="52.11" x2="60.43" y2="60.13"/></svg>