<svg id="Layer_1" data-name="Layer 1" xmlns="http://www.w3.org/2000/svg" width="61" height="61" viewBox="0 0 61 61"><defs><style>.cls-1{fill:#2cb9d0;}.cls-2,.cls-3,.cls-4,.cls-5,.cls-6,.cls-7{fill:none;stroke:#a9a9a9;stroke-linecap:round;stroke-linejoin:round;stroke-width:2px;}.cls-3{stroke-dasharray:2.2 7.69;}.cls-4{stroke-dasharray:1.29 4.52;}.cls-5{stroke-dasharray:1.13 3.97;}.cls-6{stroke-dasharray:1.35 4.71;}.cls-7{stroke-dasharray:2.29 8.02;}.cls-8{fill:#fff;}.cls-9{fill:#00a8cd;}</style></defs><title>Tracking</title><path class="cls-1" d="M22.2,11.78c0,6-10.85,18.08-10.85,18.08S.5,17.77.5,11.78a10.85,10.85,0,0,1,21.7,0Z"/><line class="cls-2" x1="10.93" y1="34.97" x2="11.93" y2="34.97"/><line class="cls-3" x1="19.61" y1="34.97" x2="25.66" y2="34.97"/><polyline class="cls-2" points="29.5 34.97 30.5 34.97 30.5 35.97"/><line class="cls-4" x1="30.5" y1="40.49" x2="30.5" y2="44.05"/><polyline class="cls-2" points="30.5 46.31 30.5 47.31 29.5 47.31"/><line class="cls-5" x1="25.53" y1="47.31" x2="22.42" y2="47.31"/><polyline class="cls-2" points="20.44 47.31 19.44 47.31 19.44 48.31"/><line class="cls-6" x1="19.44" y1="53.02" x2="19.44" y2="56.72"/><polyline class="cls-2" points="19.44 59.07 19.44 60.07 20.44 60.07"/><line class="cls-7" x1="28.45" y1="60.07" x2="45.07" y2="60.07"/><line class="cls-2" x1="49.07" y1="60.07" x2="50.07" y2="60.07"/><circle class="cls-8" cx="11.35" cy="11.56" r="4.68"/><path class="cls-9" d="M60.5,36.46c0,6-10.85,18.08-10.85,18.08S38.8,42.45,38.8,36.46a10.85,10.85,0,0,1,21.7,0Z"/><circle class="cls-8" cx="49.65" cy="36.24" r="4.68"/></svg>