<?xml version="1.0" encoding="UTF-8" standalone="no"?>
<!-- Generator: Adobe Illustrator 23.1.0, SVG Export Plug-In . SVG Version: 6.00 Build 0)  -->

<svg
   xmlns:dc="http://purl.org/dc/elements/1.1/"
   xmlns:cc="http://creativecommons.org/ns#"
   xmlns:rdf="http://www.w3.org/1999/02/22-rdf-syntax-ns#"
   xmlns:svg="http://www.w3.org/2000/svg"
   xmlns="http://www.w3.org/2000/svg"
   xmlns:sodipodi="http://sodipodi.sourceforge.net/DTD/sodipodi-0.dtd"
   xmlns:inkscape="http://www.inkscape.org/namespaces/inkscape"
   version="1.1"
   id="Layer_1"
   x="0px"
   y="0px"
   width="51.24x"
   height="60.76px"
   viewBox="0 0 51.24 60.76"
   style="enable-background:new 0 0 50.24 60.76;"
   xml:space="default"
   sodipodi:docname="UPS_logo2.html"
   inkscape:version="0.92.4 (5da689c313, 2019-01-14)">
  <metadata
     id="metadata15">
    <rdf:RDF>
      <cc:Work
         rdf:about="">
        <dc:format>image/svg+xml</dc:format>
        <dc:type
           rdf:resource="http://purl.org/dc/dcmitype/StillImage" />
      </cc:Work>
    </rdf:RDF>
  </metadata>
  <defs
     id="defs13" />
  <sodipodi:namedview
     pagecolor="#ffffff"
     bordercolor="#666666"
     borderopacity="1"
     objecttolerance="10"
     gridtolerance="10"
     guidetolerance="10"
     inkscape:pageopacity="0"
     inkscape:pageshadow="2"
     inkscape:window-width="1493"
     inkscape:window-height="791"
     id="namedview11"
     showgrid="false"
     inkscape:zoom="2.7095293"
     inkscape:cx="-26.176059"
     inkscape:cy="43.549999"
     inkscape:window-x="3312"
     inkscape:window-y="297"
     inkscape:window-maximized="0"
     inkscape:current-layer="Layer_1" />
  <style
     type="text/css"
     id="style2">
	.st0{fill:#150400;}
	.st1{fill:#F7BE00;}
</style>
  <g
     id="g8"
     transform="matrix(0.7,0,0,0.7,0.30703399,0.47169502)">
    <path
       class="st0"
       d="M 36.7,86.8 C 33,85.2 15.7,77.5 10.1,72.9 3.6,67.6 0.1,59.9 0.1,50.8 V 8.3 C 10.5,2.7 22.5,0 36.7,0 50.9,0 62.9,2.7 73.3,8.3 v 42.4 c 0,9.1 -3.4,16.8 -10,22.1 -5.6,4.7 -22.9,12.4 -26.6,14 z"
       id="path4"
       inkscape:connector-curvature="0"
       style="fill:#150400" />
    <path
       class="st1"
       d="M 68.9,10 C 64.5,9.6 60,9.3 55.3,9.3 38.2,9.3 19.8,13 4.6,26.9 v 23.8 c 0,7.8 2.9,14.2 8.3,18.7 4.8,3.9 19.6,10.6 23.8,12.5 4.1,-1.8 18.9,-8.4 23.8,-12.5 5.5,-4.5 8.3,-10.8 8.3,-18.7 V 10 M 7.8,48.3 V 28.9 H 14 v 19.6 c 0,1.7 0.4,4.3 3.2,4.3 1.2,0 2.2,-0.3 2.9,-0.8 V 28.9 h 6.1 v 26.7 c -2.4,1.6 -5.5,2.5 -9.3,2.5 -6.1,0 -9.1,-3.3 -9.1,-9.8 M 35.5,70.6 H 29.3 V 30.5 c 2.2,-1.4 4.9,-2.2 8.3,-2.2 7.4,0 11.4,5.6 11.4,14.5 0,9 -3.9,15.1 -10.8,15.1 -1.3,0 -2.2,-0.2 -2.8,-0.3 z m 0,-18 c 0.4,0.2 1.2,0.4 2,0.4 3.5,0 5.2,-3.3 5.2,-10 0,-6.9 -1.5,-9.7 -5.1,-9.7 -0.8,0 -1.7,0.2 -2.2,0.4 z M 50.4,36.3 c 0,-5 4.2,-7.9 8.3,-8 3.4,-0.1 5.7,1.2 6.8,2 v 5.4 c -1.3,-1.3 -3.4,-2.5 -5.5,-2.5 -1.7,0 -3.6,0.8 -3.6,2.9 -0.1,2.2 1.8,3.1 4,4.5 5.1,3 6.1,5.7 6,9.3 -0.1,3.9 -2.8,8.2 -8.9,8.2 -2.4,0 -4.8,-0.8 -6.8,-1.9 v -5.7 c 1.6,1.4 3.9,2.5 5.9,2.5 2.3,0 3.7,-1.3 3.7,-3.4 0,-1.9 -1.1,-3 -3.8,-4.6 -5.1,-3 -6,-5.4 -6.1,-8.7 M 10.9,71.9 C 4.7,66.8 1.4,59.5 1.4,50.7 V 9.1 C 11.2,3.9 23.1,1.2 36.8,1.2 50.5,1.2 62.4,3.8 72.2,9.1 V 50.8 C 72.2,59.6 68.9,66.9 62.7,72 57,76.7 38.9,84.6 36.8,85.5 34.7,84.5 16.6,76.6 10.9,71.9 Z m 48.4,8.8 v 3.6 H 60 v -1.5 h 0.1 c 0,0.1 1,1.5 1,1.5 h 0.8 c 0,0 -1,-1.4 -1.1,-1.6 0.5,-0.1 0.8,-0.5 0.8,-1 0,-0.5 -0.3,-1.1 -1.2,-1.1 z m 1,0.5 c 0.6,0 0.6,0.3 0.6,0.5 0,0.3 -0.1,0.6 -0.8,0.6 H 60 v -1.1 z m 2.5,1.3 c 0,1.3 -1.1,2.4 -2.4,2.4 -1.3,0 -2.4,-1.1 -2.4,-2.4 0,-1.3 1.1,-2.5 2.4,-2.5 1.3,0 2.4,1.1 2.4,2.5 m -2.4,-3 c -1.6,0 -3,1.3 -3,3 0,1.6 1.3,3 3,3 1.6,0 3,-1.3 3,-3 -0.1,-1.7 -1.4,-3 -3,-3"
       id="path6"
       inkscape:connector-curvature="0"
       style="fill:#f7be00" />
  </g>
</svg>
