<svg id="Layer_1" data-name="Layer 1" xmlns="http://www.w3.org/2000/svg" width="1172.64" height="723.35" viewBox="0 0 1172.64 723.35"><defs><style>.cls-1{fill:#ebefca;}.cls-2{fill:#f8fed1;}.cls-3{fill:#85885e;}.cls-4{fill:#777953;}.cls-5{fill:#9c9e6d;}.cls-6{fill:#81845a;}.cls-7{fill:#b36222;}.cls-8{fill:#cc7a2d;}.cls-9{fill:#db8230;}.cls-10{fill:#e8eec3;}.cls-11{fill:#a65c1f;}.cls-12{fill:#94551b;}.cls-13{fill:#864d18;}.cls-14{fill:#d9802f;}.cls-15{fill:#ec8b34;}.cls-16{fill:#d5bb66;}.cls-17{fill:#b69b44;}.cls-18{fill:#e6d494;}.cls-19{fill:#d2c080;}.cls-20{fill:#9e883e;}.cls-21{fill:#968038;}.cls-22{fill:#91a690;}.cls-23{fill:#00a9ce;}.cls-24{isolation:isolate;}.cls-25{fill:none;}</style></defs><title>French</title><path class="cls-1" d="M45.23,368.88c-19.8-5-23.5-9-31-5.9s4.5,39.4,4.5,39.4l-15.8,28.8s-6.9,10,0,10.6-9.6-2.2,1.3.9,71.2,10.6,77.1,3.1l6.9-75.1C88.33,370.68,65,373.88,45.23,368.88Z"/><path class="cls-2" d="M384.53,350.78s-9.4,10.6-49.7,11.3-127.4-18.2-157.7-20.7-87.1,1.9-90.7,10.3S69.13,439,69.13,439s.7-10.6,28.8-14.4,77.8,0,114.5,10,117.4,21,154.8,8.4Z"/><path class="cls-3" d="M986.93,299.58c-3-2.6-9.5-.2-14.4,5.5s-6.5,12.4-3.5,15c.3.3,2.6,2.4,2.6,2.4s7.4-2.8,11.8-7.9,6.2-12.6,6.2-12.6S987.33,299.88,986.93,299.58Z"/><path class="cls-4" d="M989.53,302c-3-2.6-9.5-.2-14.4,5.5s-6.5,12.4-3.5,15,9.5.2,14.4-5.5S992.53,304.58,989.53,302Z"/><path class="cls-5" d="M985,307c-1.3-1.1-4.3.3-6.8,3.1s-3.5,6-2.2,7.1,4.3-.3,6.8-3.2C985.33,311.38,986.33,308.18,985,307Z"/><path class="cls-3" d="M1058,351.18c-3-2.6-9.5-.2-14.4,5.5s-6.5,12.4-3.5,15c.3.3,2.6,2.4,2.6,2.4s7.4-2.8,11.8-7.9,6.2-12.6,6.2-12.6S1058.43,351.58,1058,351.18Z"/><path class="cls-4" d="M1060.73,353.58c-3-2.6-9.5-.2-14.4,5.5s-6.5,12.4-3.5,15,9.5.2,14.4-5.5S1063.73,356.28,1060.73,353.58Z"/><path class="cls-5" d="M1056.23,358.68c-1.3-1.1-4.3.3-6.8,3.2s-3.5,6-2.2,7.1,4.3-.3,6.8-3.2S1057.43,359.78,1056.23,358.68Z"/><rect class="cls-6" x="926.08" y="354.51" width="24.2" height="1.5" transform="matrix(0.66, -0.75, 0.75, 0.66, 51.63, 824.76)"/><path class="cls-3" d="M938.53,357.88c-1.9-1.7-6-.1-9.2,3.5s-4.2,7.9-2.3,9.6c.2.2,1.7,1.5,1.7,1.5a21.83,21.83,0,0,0,7.5-5,21.12,21.12,0,0,0,3.9-8S938.83,358.08,938.53,357.88Z"/><path class="cls-4" d="M940.23,359.48c-1.9-1.7-6-.1-9.2,3.5s-4.2,7.9-2.3,9.6,6,.1,9.2-3.5S942.13,361.08,940.23,359.48Z"/><path class="cls-5" d="M937.33,362.68c-.8-.7-2.7.2-4.3,2s-2.2,3.8-1.4,4.6,2.7-.2,4.3-2S938.13,363.38,937.33,362.68Z"/><path class="cls-6" d="M933.93,365.48c-.1.7.2,1.1,1.1,1l16-18.2-1.1-1Z"/><path class="cls-7" d="M968.43,277.18c-11-1.3-18.9-1.6-25.3,1.2a5.63,5.63,0,0,0-.8,9.6l54.9,39.3A192.26,192.26,0,0,1,1025,313l-43-30.3A34.57,34.57,0,0,0,968.43,277.18Z"/><path class="cls-8" d="M969.23,275.78c-10.9-1.3-19.3-.6-25.7,2.2-3.8,1.7-3.6,6-.2,8.5l51.5,36.8c11.5-3.3,22.8-5.7,34.3-9.2l-46.2-32.8A35.63,35.63,0,0,0,969.23,275.78Z"/><path class="cls-7" d="M969.43,275.58a62.8,62.8,0,0,0-15.6-.1c23.4,12.9,43.4,27.1,59.8,42.8,5.4-1.4,14.9.3,20.2-1.3l-50.7-35.9C979.73,278.58,973.63,276,969.43,275.58Z"/><path class="cls-7" d="M928.53,323.58c-6.2-.8-11.5-1.7-16.8.6-.5.2-1.4,2.4-1.5,2.8-.2.6.3,1.4,1,1.9l14.6,12.3,23.1-2.8-13.6-11.6A16.44,16.44,0,0,0,928.53,323.58Z"/><path class="cls-9" d="M929.33,321.48a31.58,31.58,0,0,0-17.1,2.5,1.64,1.64,0,0,0-1,1c-.2.6.2,1.2.9,1.8l14.6,12.3,23.1-2.8-13.6-11.6C934.53,323.38,931.53,321.68,929.33,321.48Z"/><path class="cls-2" d="M1084.53,285.18c-8.7,1.5-13.6,15-11,30s11.8,26,20.5,24.5,13.6-15,11-30S1093.23,283.68,1084.53,285.18Z"/><path class="cls-10" d="M1090.63,312.38c2-2.5,3.5-10.8,4.5-23.3-3.3-3.1-7-4.6-10.6-4a8.2,8.2,0,0,0-3.2,1.2c2.1,13.9,4.4,23.2,6.7,26-2,2.5-3.5,10.8-4.5,23.3,3.3,3.1,7,4.6,10.6,4a8.2,8.2,0,0,0,3.2-1.2C1095.23,324.48,1092.93,315.18,1090.63,312.38Z"/><path class="cls-7" d="M1081.93,301c-6.9-.9-21.6,2.4-37.1,6.6-5.7,1.5-3,4.8-12.3,7.6-10.3,3.1-11.9-.8-13.5-.3-12,3.5-58.1,21.4-64.9,21.8-3.6.2,1.4-17.6-4.2-24.7-4.8-6.1-13.7-7.8-21.5,3.9-6.8,10.1-6,31.5-5.6,33.1,1.6,5.5,7.1,5.7,20.6,6.4,10.6.6,52.1,1.8,87-7.7,23.3-6.4,60.5-12.3,63.6-22.6C1097.63,312.68,1090.83,302.18,1081.93,301Z"/><path class="cls-11" d="M1081.93,301a19.29,19.29,0,0,0-2.5-.1c-37.3,44.7-100.5,63.6-156.9,43.9a22.35,22.35,0,0,0,.3,4.2c1.6,5.5,7.1,5.7,20.6,6.4,10.6.6,52.1,1.8,87-7.7,23.3-6.4,60.5-12.3,63.6-22.6C1097.63,312.68,1090.83,302.18,1081.93,301Z"/><path class="cls-12" d="M1049.63,309.08c-3.3-.9-10.1,3.8-16,5.8-6.7,2.2-14.1,0-14.1,0s3.9,9.9,13,10.1c10.7.3,17.8-2.4,23.7-6.4S1052.93,310,1049.63,309.08Z"/><path class="cls-13" d="M1047.73,318.68a27.63,27.63,0,0,1-5.4,1.6c-.9,0-2.4-2-3-2.6-1.6-1.9-2-1.6-4.1-2.5-.9-.4,3.5-.9,4.6-3.4,1.6-4-1.2-6-1.9-6.4s-4.7-1.4-6.8,1.1c-.9,1.2-.9,4.1-1.1,4.7-.5,1.3-2.7-.6-4.5,1.8-1.2,1.5-2,6.2-1,7.1,3.6,3.4,9.1,4.5,11.3,3.5a3.65,3.65,0,0,1,2.4-.8c.6,0,3.3.3,4.1.3s6.7-2,7-3.5S1048.63,318.38,1047.73,318.68Z"/><path class="cls-9" d="M928.33,315.78c-6.8,10.1-6,31.5-5.6,33.1a7.19,7.19,0,0,0,2.3,3.5l-.3-.9c-.5-1.6-1.2-23,5.6-33.1,7.3-10.7,15.3-10.2,20.3-5.3a10.54,10.54,0,0,0-.7-1.1C945.13,305.78,936.33,304.18,928.33,315.78Z"/><path class="cls-14" d="M1015.53,316c-16.6,5.4-56.1,20.4-61.3,20.7,5,.3,6.5,5.2,6.5,5.2s52.9,3.5,65.3-14.8C1025.93,327.08,1017.33,322.88,1015.53,316Z"/><path class="cls-7" d="M969.63,353.28l-16.5-12-22.3,1.1-.1,1.9,12.8,11.3a16.37,16.37,0,0,0,6.9,3.3,31.58,31.58,0,0,0,17.1-2.5,3.78,3.78,0,0,0,1.2-.9C969.63,354.88,969.93,353.48,969.63,353.28Z"/><path class="cls-9" d="M968.63,352,954,339.68l-23.1,2.8,13.6,11.6a16.37,16.37,0,0,0,6.9,3.3,31.58,31.58,0,0,0,17.1-2.5,2.54,2.54,0,0,0,1.3-.9C969.93,353.28,969.33,352.58,968.63,352Z"/><path class="cls-7" d="M1138.43,391.68l-79.2-54.6-34.1,7.8-.4,1.7,72.6,52.3c3.4,2.4,9.4,5.3,13.6,5.8a43,43,0,0,0,25.8-4.4C1140.53,398.38,1141.93,394.08,1138.43,391.68Z"/><path class="cls-8" d="M1137.73,390.48l-77.1-54.5-35.4,9,73.2,52.4c3.4,2.4,9.4,5.3,13.6,5.8a43,43,0,0,0,25.8-4.4C1141.43,396.78,1141.13,392.88,1137.73,390.48Z"/><path class="cls-7" d="M1138,390.28l-77.3-54.6-16.5,4.3c43.4,20.7,85,60.7,86.7,61.6a23.47,23.47,0,0,0,6.9-2.9C1141.43,396.78,1141.43,392.68,1138,390.28Z"/><path class="cls-7" d="M959.13,291.68a84.07,84.07,0,0,0,22.4-1.5l1.7,1.7a78.05,78.05,0,0,1-22.8,1.6Z"/><path class="cls-7" d="M1089.93,384.78c8.7-.2,16.1-1.4,22.1-3.5l1.8,1.6a63.39,63.39,0,0,1-22.6,3.7Z"/><path class="cls-6" d="M1090,384.58c-.9,2.1,1.7,2.6,2.3,2.1,11.8-7.8,19.8-15.7,26.9-26l-2.5-1.7C1109.93,368.88,1101.43,377,1090,384.58Z"/><path class="cls-6" d="M1120.83,381.18c-.4,2.1,1.9,2,2.9,1,11.4-7.3,18.3-13.3,29.2-23.8l-2.1-2.2C1140.13,366.68,1131.93,374.08,1120.83,381.18Z"/><path class="cls-6" d="M962,251.38l-3-.5a124.47,124.47,0,0,0-.6,42.1c1.1.9,3.1.6,3-.5A123.79,123.79,0,0,1,962,251.38Z"/><path class="cls-6" d="M995,247.58l-2.9-.8a148.48,148.48,0,0,0-5.8,42.1c.6.8,2.8,1.2,3,0A146.45,146.45,0,0,1,995,247.58Z"/><path class="cls-7" d="M1169.73,366.28l-183.5-129c-3.4-2.4-8.4-5.5-12.6-6-14.1-1.8-24.3,0-32.4,3.7-3.8,1.8-3.8,5.7-.4,8.2l183.1,131c3.4,2.4,9.5,5.1,13.7,5.5a62.59,62.59,0,0,0,32-5.7C1173.53,372.08,1174,367.48,1169.73,366.28Z"/><path class="cls-9" d="M1170.23,365.88l-182.9-129.1c-3.4-2.4-9.5-5.1-13.7-5.6-14.1-1.8-24.3,0-32.4,3.7-.9.5-1.9.9-2.2,1.7-.3,1.3,1,2.7,2.5,3.7l183.1,131c3.4,2.4,9.5,5.1,13.7,5.5a62.59,62.59,0,0,0,32-5.7c1-.5,2-.9,2.2-1.7C1172.93,368.18,1171.63,367,1170.23,365.88Z"/><path class="cls-15" d="M963.73,232.08l3.1,24.5,3.9,2.8-3.5-27.2C966,232.08,964.83,232.08,963.73,232.08Z"/><path class="cls-15" d="M973.43,232.78l-2.8-.3,3.8,29.6,7.9,5.6L978,234A19.62,19.62,0,0,0,973.43,232.78Z"/><path class="cls-2" d="M923.33,342.18l-93.7,110.1,1.3,6.7,93.3-115.6C924.23,342.78,924.23,342.18,923.33,342.18Z"/><polygon class="cls-16" points="403.43 393.78 394.43 522.48 848.13 472.28 874.83 354.98 403.43 393.78"/><polygon class="cls-17" points="403.43 393.78 394.43 522.48 363.63 467.88 357.63 341.88 403.43 393.78"/><polygon class="cls-18" points="357.63 341.88 831.73 324.78 874.83 354.98 403.43 393.78 357.63 341.88"/><polygon class="cls-19" points="416.63 357.48 426.93 370.08 826.13 345.58 818.13 335.98 416.63 357.48"/><polygon class="cls-17" points="379.13 366.68 377.33 364.98 850.33 337.88 852.23 339.18 379.13 366.68"/><polygon class="cls-20" points="429.73 402.98 441.73 451.58 427.13 504.28 807.83 465.98 833.63 415.38 815.33 372.68 429.73 402.98"/><polygon class="cls-21" points="371.83 384.38 367.83 433.88 383.83 447.88 391.53 402.58 371.83 384.38"/><polygon class="cls-17" points="371.53 430.38 371.53 426.08 382.93 435.88 382.03 439.18 371.53 430.38"/><polygon class="cls-17" points="373.03 425.48 375.83 402.98 373.53 402.08 378.03 396.58 379.73 404.88 377.73 403.68 376.33 427.88 373.03 425.48"/><polygon class="cls-17" points="379.73 431.88 382.53 409.38 380.23 408.48 384.83 402.98 386.43 411.18 384.43 410.08 383.03 434.28 379.73 431.88"/><polygon class="cls-2" points="380.53 340.78 387.33 340.78 425.83 391.98 417.33 392.68 380.53 340.78"/><polygon class="cls-2" points="815.33 325.38 820.53 325.18 854.83 356.68 847.73 357.18 815.33 325.38"/><polygon class="cls-2" points="417.33 392.68 425.83 391.98 417.23 519.88 412.33 520.48 417.33 392.68"/><polygon class="cls-2" points="847.73 357.18 854.83 356.68 838.93 473.28 833.63 473.88 847.73 357.18"/><polygon class="cls-2" points="363.03 347.98 822.13 330.58 823.33 332.58 365.93 351.38 363.03 347.98"/><polygon class="cls-2" points="394.43 383.58 841.33 350.08 843.33 352.58 396.93 386.38 394.43 383.58"/><polygon class="cls-2" points="365.93 351.38 367.93 475.48 365.63 471.48 363.03 347.98 365.93 351.38"/><polygon class="cls-2" points="385.03 505.88 387.63 510.48 396.93 386.38 394.43 383.58 385.03 505.88"/><path class="cls-2" d="M923.33,342.18l-94-5,5.2,4.9,89.7,1.3C924.23,342.78,924.23,342.18,923.33,342.18Z"/><path class="cls-2" d="M502.43,105.48c-14.3-.3-22.6,3.9-29.7,15.5.8-13.7-5.1-32.5-19.6-35.2-16.2-3.1-25.4,11.7-31.4,24.1,4.2-15.3,1.6-38-23.9-38-25,0-26.1,24.8-21,39.9-31.1-36.3-56.7-3.2-53.6,10.9-12-6.8-31.3,3.6-26.3,16.3,45.8.1,211.3.1,237.5,0C534.83,127.18,520.43,105.88,502.43,105.48Z"/><path class="cls-2" d="M908.13,97.88c1.8-8-12.7-26.7-30.3-6.2,2.9-8.6,2.3-22.6-11.9-22.6-14.5,0-15.9,12.8-13.5,21.5-3.4-7-8.6-15.4-17.8-13.6-8.2,1.5-11.5,12.2-11.1,19.9-4.1-6.6-8.7-9-16.8-8.8-10.2.2-18.3,12.3-18.2,19h134.4C925.83,99.88,914.83,94,908.13,97.88Z"/><path class="cls-2" d="M280.73,609.58c3.1-13.7-9.9-31.7-25.4-31.3-16.4.4-21.9,12.7-23.9,24.2-2.1-14.7-4.9-40.9-23.9-42.3-26.6-2-27.6,19.3-29.6,36.8-2.2-12.6-10.7-18.8-21.5-16.8-10.2,1.8-13.8,11.1-13.8,22.3-2-11.2-12.2-23.5-28.9-20.2-17.8,3.5-21.1,26.4-21.1,26.4s-26.7-9.8-22.1,13.7c45.8.1,193.3,0,237.5,0C308.23,606.48,288.23,599.18,280.73,609.58Z"/><path class="cls-22" d="M586,208.68c-5.5-10.1-16.7-15-27.9-19.8,11.5,6.8,20.9,14.8,26,25.5,8.9-6,20.4-7.2,33.4-5.7C607.23,205.78,596.73,204.78,586,208.68Z"/><path class="cls-22" d="M675.23,131.78c-18.2-10.4-37.4-12.1-57.1-10.5,24.2,1.5,44.6,7.6,58.8,21.4,12.7-17.7,32.4-29.2,55.5-37.7C710.33,110,688.53,115.28,675.23,131.78Z"/><path class="cls-22" d="M1017,622c25.2,5.6,45.8,15.4,58.4,32.3,16.4-16.6,39-25.4,64.8-30.5-24.1,1.6-48,3.6-64.8,18.8C1058,628.58,1038,623.48,1017,622Z"/><path class="cls-22" d="M1035,551.38c-8.2-11.6-19.6-18.3-32.2-23,14.4,7.9,25.3,17.5,30.1,30.2,13-7.3,28.4-8.7,45.1-7.2C1063,548.08,1048,545.08,1035,551.38Z"/><path class="cls-2" d="M365.63,531.88s91.2-13.2,204-26.5,204.5-21.7,204.5-21.7-91.2,13.2-204,26.5S365.63,531.88,365.63,531.88Z"/><path class="cls-2" d="M338.43,316.88s81.8-4.6,182.9-7.3,183-2.5,183-2.5-81.8,4.6-182.9,7.3S338.43,316.88,338.43,316.88Z"/><path class="cls-2" d="M469.73,537.18s-43.2,8.6-97,16.3S275,565,275,565s43.2-8.6,97-16.3S469.73,537.18,469.73,537.18Z"/><path class="cls-2" d="M1109.63,396.78s-54.3,11.2-121.9,22-122.6,17.3-122.6,17.3,54.3-11.2,121.9-22S1109.63,396.78,1109.63,396.78Z"/><path class="cls-2" d="M945.83,271.18s-44.1,4.5-98.6,7.2-98.9,2.4-98.9,2.4,44.1-4.5,98.6-7.2S945.83,271.18,945.83,271.18Z"/><path class="cls-23" d="M115.53,387.48a11.76,11.76,0,0,1-5.4,7.4,18.4,18.4,0,0,1-8.8,3.2H101c-.3,0-.9-1.1-1.6-3.2a11.6,11.6,0,0,1-.9-3.8c0-.2.2-.3.4-.3a36.32,36.32,0,0,0,4.5-1,4.53,4.53,0,0,0,3-3.2,4.62,4.62,0,0,0-.8-3.2c-1.3-2-2-3.2-2.1-3.4a8.11,8.11,0,0,1-.4-5.1c.6-2.7,2.3-4.8,5.2-6.5a19.18,19.18,0,0,1,8.1-2.5h.4c.2,0,.3.2.4.5a37.72,37.72,0,0,0,1.4,5.8v.2a.43.43,0,0,1-.4.4h0a1.27,1.27,0,0,1-.6-.1,1.27,1.27,0,0,0-.6-.1,7.17,7.17,0,0,0-2.9.6,3,3,0,0,0-1.9,2.2,4.61,4.61,0,0,0,.9,3.3c1.3,2.4,2,3.6,2.1,3.8A12.2,12.2,0,0,1,115.53,387.48Z"/><path class="cls-23" d="M142.13,382.78l-3.3,15a.86.86,0,0,1-.8.8h-3.2a18.41,18.41,0,0,1-3.3-.3c-.5-.1-.6-.4-.5-1,.3-1.2.7-3.1,1.3-5.6s1-4.4,1.3-5.6c.4-1.7-.3-2.6-2-2.6a4.28,4.28,0,0,0-2.2.6c-1,.5-1.5,1-1.6,1.5l-1.2,5.4c-.1.7-.4,1.7-.7,3.2s-.5,2.4-.7,3.2c0,.5-.4.8-.9.9s-1.7,0-3.8-.1a11.53,11.53,0,0,1-2.6-.3c-.5-.1-.7-.4-.6-.8.3-1.2.6-2.9,1.2-5.2s.9-4,1.2-5.2c1-4.7,1.9-8.7,2.4-11.8l.6-3.3a18.41,18.41,0,0,0,.3-3.3v-.4a.43.43,0,0,1,.4-.4,15,15,0,0,1,2-.2h2.1l4.1-.3c.2,0,.3.2.2.5-.1.5-.3,1.1-.5,1.9a18.65,18.65,0,0,0-.5,1.9q-1.2,5-1.8,7.8c-.1.3,0,.4.1.4a9.21,9.21,0,0,0,1.3-.7,23.94,23.94,0,0,1,2.8-1.3,10.3,10.3,0,0,1,3.5-.6,6.28,6.28,0,0,1,4.4,1.7A4.22,4.22,0,0,1,142.13,382.78Z"/><path class="cls-23" d="M152.53,389.08c-.2,1.1-.6,2.6-1,4.7s-.7,3.7-1,4.7a.75.75,0,0,1-.7.5,19.3,19.3,0,0,1-3.4,0,20.41,20.41,0,0,1-3.4-.3c-.3-.1-.5-.2-.5-.3a2,2,0,0,1,.1-.7c.2-1,.6-2.5,1.1-4.5s.8-3.5,1.1-4.5a80.27,80.27,0,0,0,1.7-9.8.6.6,0,0,1,.1-.4c.1-.3.3-.4.7-.4s1,.1,1.8.2a17.63,17.63,0,0,0,1.9.2h1.9a11.75,11.75,0,0,1,1.9,0c.4,0,.5.2.4.5a1,1,0,0,0-.1.4A91.53,91.53,0,0,0,152.53,389.08Zm4.1-16.2q-.9,3.75-5.1,3.6a4.11,4.11,0,0,1-2.8-1.1,3.16,3.16,0,0,1-.7-2.9,4.26,4.26,0,0,1,2-2.7,6.2,6.2,0,0,1,3.2-.9,3.86,3.86,0,0,1,2.7,1.1,3.1,3.1,0,0,1,.7,2.9Z"/><path class="cls-23" d="M181,389.78a14,14,0,0,1-4.4,7.6,11.65,11.65,0,0,1-8.2,2.9,7.91,7.91,0,0,1-3.4-1,6.52,6.52,0,0,1-1.6-.9c-.2,0-.3.2-.4.6a29.26,29.26,0,0,0-.6,3.3q-.45,2.25-.6,3.3a.88.88,0,0,1-.9.7h0l-4.5-.2a12.25,12.25,0,0,1-1.9-.2c-.3-.1-.6-.4-.5-.7v-.1l3.7-16.7a41.34,41.34,0,0,0,1.1-8.6v-.4a.43.43,0,0,1,.4-.4,20.21,20.21,0,0,1,3.4-.6,20,20,0,0,1,3.5-.2c.6,0,.8.4.7,1.2s-.1,1.1,0,1.1a10.7,10.7,0,0,1,2.1-1.1,8.74,8.74,0,0,1,4.1-1c3.2.1,5.5,1.3,6.9,3.4S181.73,386.58,181,389.78Zm-8.1-.4a4.13,4.13,0,0,0-.4-3.1,3,3,0,0,0-2.6-1.5,4.3,4.3,0,0,0-3.1,1.2,5.87,5.87,0,0,0-1.6,3,4,4,0,0,0,.3,3.1,2.63,2.63,0,0,0,2.5,1.4c2.6.2,4.2-1.2,4.9-4.1Z"/><path class="cls-23" d="M191.83,390.68c-.2,1.1-.6,2.6-1,4.7s-.7,3.7-1,4.7a.75.75,0,0,1-.7.5,19.3,19.3,0,0,1-3.4,0,20.41,20.41,0,0,1-3.4-.3c-.3-.1-.5-.2-.5-.3a2,2,0,0,1,.1-.7c.2-1,.6-2.5,1.1-4.5s.8-3.5,1.1-4.5a80.27,80.27,0,0,0,1.7-9.8c0-.2,0-.4.1-.4.1-.3.3-.4.7-.4s1,.1,1.8.2a17.63,17.63,0,0,0,1.9.2h1.9a11.75,11.75,0,0,1,1.9,0c.4,0,.5.2.4.5a1,1,0,0,0-.1.4A98.48,98.48,0,0,0,191.83,390.68Zm4.1-16.1q-.9,3.75-5.1,3.6a4.11,4.11,0,0,1-2.8-1.1,3.16,3.16,0,0,1-.7-2.9,4.26,4.26,0,0,1,2-2.7,6.2,6.2,0,0,1,3.2-.9,3.86,3.86,0,0,1,2.7,1.1,3.1,3.1,0,0,1,.7,2.9Z"/><path class="cls-23" d="M209.93,395.08c-.2.7-.4,1.3-.6,2s-.4,1.3-.6,1.9a1.14,1.14,0,0,1-.3.8,5.58,5.58,0,0,1-.8.5,15.26,15.26,0,0,1-6.6,1.3c-4.2-.2-6-1.9-5.3-5.1.2-1,.6-2.4,1.1-4.3s.9-3.3,1.1-4.3c.1-.6-.2-1-.9-1h-.6c-.5,0-.8-.2-.7-.6.1-.2.1-.6.3-1.1a8.11,8.11,0,0,1,.3-1.1,4.64,4.64,0,0,0,.2-1.4,11.48,11.48,0,0,0,.2-1.4c.1-.3.6-.4,1.5-.4.5,0,.8-.1.9-.4a19.73,19.73,0,0,0,.7-2.6c.4-1.9.5-2.8.5-2.7.4-1.7.7-2.5,1-2.5a9,9,0,0,1,1.6.3,8.47,8.47,0,0,0,1.7.4q1.05.15,3.3.6c.4,0,.5.2.5.4-.1.6-.4,1.5-.7,2.6s-.6,2.1-.7,2.7,0,1.1.4,1.1H212c.3,0,.5.1.4.3s-.2.8-.4,1.5a8.53,8.53,0,0,0-.4,1.5,13,13,0,0,0-.3,1.5,9.59,9.59,0,0,1-.3,1.5c-.1.3-.3.4-.7.4a9.89,9.89,0,0,1-1.5-.1,9.89,9.89,0,0,0-1.5-.1l-1.6-.1c-.2,0-.4.3-.5,1l-.3,1.5a9.59,9.59,0,0,1-.3,1.5,4.29,4.29,0,0,0-.1,2.5,2.16,2.16,0,0,0,2.1,1,8.75,8.75,0,0,0,1.6-.2,7.72,7.72,0,0,1,1.5-.2A.83.83,0,0,1,209.93,395.08Z"/><path class="cls-23" d="M234.23,391.68a13.39,13.39,0,0,1-4.8,7.9,12.56,12.56,0,0,1-8.7,2.7,9.28,9.28,0,0,1-7.3-3.4,9.38,9.38,0,0,1-1.4-8,13.77,13.77,0,0,1,4.8-8.1,12.44,12.44,0,0,1,8.8-2.8,9,9,0,0,1,7.3,3.4A10.19,10.19,0,0,1,234.23,391.68Zm-7.2-.3a4.25,4.25,0,0,0-.4-3.1,2.85,2.85,0,0,0-2.5-1.4,4.3,4.3,0,0,0-3.1,1.2,5.07,5.07,0,0,0-1.7,3,4.25,4.25,0,0,0,.4,3.1,3,3,0,0,0,2.5,1.5,4.3,4.3,0,0,0,3.1-1.2A5.64,5.64,0,0,0,227,391.38Z"/><path class="cls-23" d="M236.53,376.58h-.8l-.1-.2a3.93,3.93,0,0,0-.2-.6.35.35,0,0,0-.2-.1H235v.9h-.7v-.1a2.25,2.25,0,0,1,.1-.7c.1-.3,0-.5.1-.7v-1.3h1.3a1.45,1.45,0,0,1,.7.2.91.91,0,0,1,.3.7c0,.2,0,.3-.1.4s-.2.3-.3.3h0l.2.5A1,1,0,0,0,236.53,376.58Zm-.7-1.8c0-.1,0-.3-.2-.3a.6.6,0,0,0-.4-.1H235v.6h.4c.2.2.4.1.4-.2Z"/><path class="cls-23" d="M235.33,378.08a2.8,2.8,0,1,1,2.9-2.7h0A2.8,2.8,0,0,1,235.33,378.08Zm.2-5.1a2.25,2.25,0,1,0,2.2,2.3h0A2.24,2.24,0,0,0,235.53,373Z"/><g class="cls-24"><path class="cls-23" d="M258,389.42l-.42,14-3.24-.1.34-11.4-2.79-.08.07-2.6Z"/><path class="cls-23" d="M271.31,399.33l-8.14-.25a2.88,2.88,0,0,0,3,2.26,3.69,3.69,0,0,0,2.73-1l1.61,1.84a5.62,5.62,0,0,1-4.5,1.61c-3.71-.11-6.06-2.52-6-5.72a5.49,5.49,0,0,1,5.91-5.37,5.33,5.33,0,0,1,5.43,5.75C271.39,398.73,271.34,399.07,271.31,399.33Zm-8.12-2.07,5.3.16a2.69,2.69,0,0,0-5.3-.16Z"/><path class="cls-23" d="M280.32,393.17l-.08,2.88c-.27,0-.46-.05-.7-.06-1.72-.05-2.89.85-3,2.91l-.16,5.08-3.11-.09.32-10.76,3,.09-.05,1.42A4.34,4.34,0,0,1,280.32,393.17Z"/><path class="cls-23" d="M287,398.91c.1-3.24,2.66-5.46,6.16-5.35a4.94,4.94,0,0,1,4.74,2.88l-2.46,1.23a2.68,2.68,0,0,0-2.37-1.56,3,3,0,0,0-.18,6,2.64,2.64,0,0,0,2.46-1.4l2.38,1.39a5,5,0,0,1-4.9,2.57C289.28,404.53,286.85,402.15,287,398.91Z"/><path class="cls-23" d="M310.5,398.84l-.18,6.16-3.12-.1.17-5.67c.05-1.74-.72-2.57-2.1-2.61s-2.61.84-2.67,2.82l-.16,5.32-3.12-.09.45-14.84,3.12.09-.16,5.2a4.76,4.76,0,0,1,3.46-1.17C308.73,394,310.6,395.56,310.5,398.84Z"/><path class="cls-23" d="M312.62,399.68c.09-3.24,2.66-5.46,6.08-5.36s5.83,2.48,5.73,5.72-2.64,5.46-6.06,5.36S312.52,402.92,312.62,399.68Zm8.66.26a2.76,2.76,0,1,0-2.83,2.9A2.72,2.72,0,0,0,321.28,399.94Z"/><path class="cls-23" d="M326.67,394.72l3.12.09-.32,10.76-3.12-.09Zm-.28-3.25a1.78,1.78,0,0,1,2-1.68,1.75,1.75,0,0,1,1.89,1.74,1.95,1.95,0,0,1-3.88-.06Z"/><path class="cls-23" d="M339.21,405.86l-2.27-3.37-2.53,3.23-3.4-.1,4.3-5.3-3.84-5.46,3.5.11,2.18,3.21,2.44-3.07,3.32.1-4.16,5.14,4,5.62Z"/></g><path class="cls-16" d="M791.33,455.08c-.2,5.7-10.1,8-9.8,1.3a6,6,0,0,1,5.1-5.5,4,4,0,0,1,4.7,4.2C791.23,455.68,791.33,454.38,791.33,455.08Zm-3.7-8.1v-47.2l10,11.5,11.9-35.6-6.4,49.4-9.1-7.6Z"/><g class="cls-24"><path class="cls-16" d="M474.13,453.78l.4,4.6-19,1.8-2.4-24.6,18.6-1.8.4,4.6-12.9,1.3.5,5.3,11.4-1.1.4,4.4-11.4,1.1.6,5.7Z"/><path class="cls-16" d="M490.43,456.78l-4.7-5.4-3.7,6.2-6,.6,6.3-10.2-7.9-8.7,6.1-.6,4.5,5.1,3.6-5.9,5.8-.6-6.1,9.9,8.2,8.9Z"/><path class="cls-16" d="M519,444.48c.6,5.9-3.2,10.1-8.5,10.6a7.35,7.35,0,0,1-5.9-1.7l.9,8.8-5.5.5-2.5-25.7,5.2-.5.2,2.2a7.21,7.21,0,0,1,5.7-3C513.93,435.18,518.43,438.48,519,444.48Zm-5.6.5c-.3-3.3-2.6-5-5.3-4.8s-4.6,2.4-4.3,5.7,2.6,5,5.3,4.8S513.73,448.28,513.43,445Z"/><path class="cls-16" d="M541.23,443.88l-14.3,1.4c.8,2.3,2.9,3.5,5.8,3.3a6.43,6.43,0,0,0,4.6-2.3l3.2,2.9c-1.6,2.2-4.1,3.5-7.5,3.8-6.5.6-11.2-3.1-11.7-8.7s3.4-10.1,9.1-10.7c5.5-.5,10.2,2.8,10.8,8.8A7.5,7.5,0,0,0,541.23,443.88Zm-14.7-1.8,9.3-.9a4.52,4.52,0,0,0-5-3.5A4.42,4.42,0,0,0,526.53,442.08Zm4.6-10.8-4.3.4,4.2-5.5,5.9-.6Z"/><path class="cls-16" d="M562.43,423.48l2.5,26-5.2.5-.2-2.2a7,7,0,0,1-5.6,3c-5.3.5-9.8-2.9-10.4-8.8s3.2-10.1,8.5-10.6a7.46,7.46,0,0,1,5.9,1.7l-.9-9.2Zm-3.8,17.1c-.3-3.3-2.6-5-5.3-4.8a4.76,4.76,0,0,0-4.3,5.7c.4,3.3,2.6,5,5.4,4.8C557,446,558.93,443.88,558.63,440.58Z"/><path class="cls-16" d="M566.93,424.48a3.16,3.16,0,0,1,3.1-3.4c2-.2,3.5.9,3.7,2.6a3.2,3.2,0,0,1-3.1,3.5A3.05,3.05,0,0,1,566.93,424.48Zm1.2,5.6,5.5-.5,1.8,18.9-5.5.5Z"/><path class="cls-16" d="M592.63,445.88a7.48,7.48,0,0,1-4.3,1.6c-4.5.4-7.3-1.6-7.7-6.1l-.7-7.8-2.9.3-.4-4.2,2.9-.3-.4-4.6,5.5-.5.4,4.6,4.7-.4.4,4.2-4.7.4.7,7.7a2.28,2.28,0,0,0,2.6,2.3,3.67,3.67,0,0,0,2.1-.9Z"/><path class="cls-16" d="M592.73,422a3.16,3.16,0,0,1,3.1-3.4c2-.2,3.5.9,3.7,2.6a3.44,3.44,0,0,1-6.8.8Zm1.3,5.6,5.5-.5,1.8,18.9-5.5.5Z"/><path class="cls-16" d="M604.13,436.18c-.6-5.7,3.4-10.1,9.5-10.7s10.8,3,11.3,8.7-3.4,10.1-9.4,10.7S604.63,441.88,604.13,436.18Zm15.2-1.5c-.3-3.3-2.6-5-5.3-4.8a4.76,4.76,0,0,0-4.3,5.7c.3,3.3,2.6,5,5.4,4.8C617.73,440.08,619.63,438,619.33,434.68Z"/><path class="cls-16" d="M647.63,430.58l1.1,10.8-5.5.5-1-10c-.3-3-1.8-4.3-4.3-4.1s-4.4,2-4,5.5l.9,9.3-5.5.5-1.8-18.9,5.2-.5.2,2.2a7.9,7.9,0,0,1,6-3.1C643.43,422.48,647.13,424.78,647.63,430.58Z"/><path class="cls-16" d="M673.43,419.58l.5,5.1h-1.2c-3,.3-4.9,2.1-4.5,5.8l.9,8.9-5.5.5-1.8-18.9,5.2-.5.3,2.5C668.43,421.08,670.53,419.88,673.43,419.58Z"/><path class="cls-16" d="M694.13,426.08l1,10.8-5.1.5-.2-2.4c-.9,1.8-2.7,2.9-5.5,3.2-4.4.4-7.3-1.8-7.6-5s1.8-5.9,7.6-6.4l4.4-.4c-.2-2.4-1.8-3.6-4.7-3.3a9.52,9.52,0,0,0-5.3,2.3l-2.3-3.6a14.37,14.37,0,0,1,7.9-3.1C690,418,693.63,420.28,694.13,426.08Zm-5,5.3-.2-1.9-3.8.4c-2.6.3-3.3,1.3-3.2,2.5.1,1.4,1.4,2.2,3.3,2A4.2,4.2,0,0,0,689.13,431.38Z"/><path class="cls-16" d="M719.83,424.88c.6,5.9-3.2,10.1-8.5,10.6a7.35,7.35,0,0,1-5.9-1.7l.9,8.8-5.5.5-2.5-25.7,5.2-.5.2,2.2a7.21,7.21,0,0,1,5.7-3C714.73,415.58,719.23,419,719.83,424.88Zm-5.6.6c-.3-3.3-2.6-5-5.3-4.8s-4.6,2.4-4.3,5.7,2.6,5,5.3,4.8S714.53,428.68,714.23,425.48Z"/><path class="cls-16" d="M721.33,409.48a3.16,3.16,0,0,1,3.1-3.4c2-.2,3.5.9,3.7,2.6a3.2,3.2,0,0,1-3.1,3.5A3.12,3.12,0,0,1,721.33,409.48Zm1.2,5.6,5.5-.5,1.8,18.9-5.5.5Z"/><path class="cls-16" d="M751.63,405.08l2.5,26-5.2.5-.2-2.2a7,7,0,0,1-5.6,3c-5.3.5-9.8-2.9-10.4-8.8s3.2-10.1,8.5-10.6a7.46,7.46,0,0,1,5.9,1.7l-.9-9.2Zm-3.8,17.1c-.3-3.3-2.6-5-5.3-4.8a4.76,4.76,0,0,0-4.3,5.7c.3,3.3,2.6,5,5.4,4.8C746.23,427.58,748.23,425.48,747.83,422.18Z"/><path class="cls-16" d="M776.83,420.88l-14.3,1.4c.8,2.3,2.9,3.5,5.8,3.3a6.43,6.43,0,0,0,4.6-2.3l3.2,2.9c-1.6,2.2-4.1,3.5-7.5,3.8-6.5.6-11.2-3.1-11.7-8.7s3.4-10.1,9.1-10.7c5.5-.5,10.2,2.8,10.8,8.8Zm-14.6-1.8,9.3-.9a4.73,4.73,0,0,0-9.3.9Z"/></g><rect class="cls-25" width="1172.64" height="723.35"/></svg>