<?xml version="1.0" encoding="UTF-8" standalone="no"?>
<!-- Created with Inkscape (http://www.inkscape.org/) -->

<svg
   xmlns:dc="http://purl.org/dc/elements/1.1/"
   xmlns:cc="http://creativecommons.org/ns#"
   xmlns:rdf="http://www.w3.org/1999/02/22-rdf-syntax-ns#"
   xmlns:svg="http://www.w3.org/2000/svg"
   xmlns="http://www.w3.org/2000/svg"
   xmlns:sodipodi="http://sodipodi.sourceforge.net/DTD/sodipodi-0.dtd"
   xmlns:inkscape="http://www.inkscape.org/namespaces/inkscape"
   width="374mm"
   height="55mm"
   viewBox="0 0 374 55"
   version="1.1"
   id="svg826"
   inkscape:version="0.92.3 (2405546, 2018-03-11)"
   sodipodi:docname="paymethods.svg">
  <defs
     id="defs820" />
  <sodipodi:namedview
     id="base"
     pagecolor="#ffffff"
     bordercolor="#666666"
     borderopacity="1.0"
     inkscape:pageopacity="0.0"
     inkscape:pageshadow="2"
     inkscape:zoom="0.38428215"
     inkscape:cx="427.14619"
     inkscape:cy="213.21265"
     inkscape:document-units="mm"
     inkscape:current-layer="layer1"
     showgrid="false"
     inkscape:window-width="1280"
     inkscape:window-height="1356"
     inkscape:window-x="-8"
     inkscape:window-y="-8"
     inkscape:window-maximized="0" />
  <metadata
     id="metadata823">
    <rdf:RDF>
      <cc:Work
         rdf:about="">
        <dc:format>image/svg+xml</dc:format>
        <dc:type
           rdf:resource="http://purl.org/dc/dcmitype/StillImage" />
        <dc:title></dc:title>
      </cc:Work>
    </rdf:RDF>
  </metadata>
  <g
     inkscape:label="Layer 1"
     inkscape:groupmode="layer"
     id="layer1"
     transform="translate(0,-242)">
    <g
       id="g1629"
       transform="matrix(0.57650147,0,0,0.57650147,197.15193,243.82585)">
      <g
         inkscape:label="Layer 1"
         transform="translate(-55.5,-1909.8622)"
         id="layer1-5">
	<g
   transform="matrix(0.07767602,0,0,0.07767602,57.729436,1838.1182)"
   id="g4555">
		<path
   d="M 55.5,1002.3 H 1053 v 538.5 l -49.4,77.1 49.4,68.7 v 313.2 H 55.5 v -507.6 l 30.9,-35.5 -30.9,-33.9 z"
   class="st000"
   sodipodi:nodetypes="ccccccccccc"
   inkscape:connector-curvature="0"
   id="path3078"
   style="fill:#016fd0" />

		<path
   d="M 249.1,1697.4 V 1540.8 H 415 l 17.8,23.2 18.4,-23.2 H 1053 v 145.8 c 0,0 -15.7,10.6 -33.9,10.8 H 685.8 l -20.1,-24.7 v 24.7 H 600 v -42.1 c 0,0 -9,5.9 -28.4,5.9 h -22.4 v 36.3 h -99.5 l -17.8,-23.7 -18,23.7 H 249.1 Z"
   class="st100"
   sodipodi:nodetypes="cccccccccccccccccccc"
   inkscape:connector-curvature="0"
   id="path3082"
   style="fill:#ffffff" />

		
			<path
   d="m 55.5,1422.8 37.4,-87.2 h 64.7 l 21.2,48.8 v -48.8 h 80.4 l 12.6,35.3 12.2,-35.3 h 360.9 v 17.7 c 0,0 19,-17.7 50.1,-17.7 l 117.1,0.4 20.9,48.2 v -48.6 h 67.3 l 18.5,27.7 v -27.7 h 67.9 v 156.6 h -67.9 l -17.7,-27.8 v 27.8 h -98.8 l -9.9,-24.7 h -26.6 l -9.8,24.7 h -67 c -26.8,0 -44,-17.4 -44,-17.4 v 17.4 H 543.8 l -20.1,-24.7 v 24.7 H 148 l -9.9,-24.7 h -26.5 l -9.9,24.7 H 55.5 Z"
   class="st100"
   sodipodi:nodetypes="cccccccccccccccccccccccccccccccccccccc"
   inkscape:connector-curvature="0"
   id="path3080"
   style="fill:#ffffff" />

		<path
   d="m 106.1,1354.9 -50.4,117.3 h 32.8 l 9.3,-23.5 h 54.1 l 9.3,23.5 h 33.6 l -50.4,-117.3 z m 18.7,27.3 16.5,41 h -33 z"
   class="st000"
   inkscape:connector-curvature="0"
   id="path3046"
   style="fill:#016fd0" />

		<path
   d="m 198.2,1472.2 v -117.3 l 46.7,0.2 27.1,75.6 26.5,-75.8 h 46.3 v 117.3 h -29.3 v -86.4 l -31.1,86.4 h -25.7 l -31.2,-86.4 v 86.4 z"
   class="st000"
   sodipodi:nodetypes="cccccccccccccc"
   inkscape:connector-curvature="0"
   id="path3048"
   style="fill:#016fd0" />

		<path
   d="m 364.9,1472.2 v -117.3 h 95.7 v 26.2 h -66 v 20.1 H 459 v 24.7 h -64.5 v 20.8 h 66 v 25.5 z"
   class="st000"
   sodipodi:nodetypes="ccccccccccccc"
   inkscape:connector-curvature="0"
   id="path3050"
   style="fill:#016fd0" />

		<path
   d="m 477.5,1354.9 v 117.3 h 29.3 v -41.7 h 12.3 l 35.2,41.7 h 35.8 L 551.5,1429 c 15.8,-1.3 32.2,-14.9 32.2,-36 0,-24.7 -19.4,-38 -41,-38 z m 29.3,26.3 h 33.5 c 8,0 13.9,6.3 13.9,12.3 0,7.8 -7.6,12.3 -13.5,12.3 h -33.9 z"
   class="st000"
   inkscape:connector-curvature="0"
   id="path3052"
   style="fill:#016fd0" />

		<path
   d="m 625.6,1472.2 h -29.9 v -117.3 h 29.9 z"
   class="st000"
   sodipodi:nodetypes="ccccc"
   inkscape:connector-curvature="0"
   id="path3054"
   style="fill:#016fd0" />

		<path
   d="m 696.6,1472.2 h -6.5 c -31.3,0 -50.2,-24.6 -50.2,-58.1 0,-34.3 18.8,-59.1 58.2,-59.1 h 32.4 v 27.8 H 697 c -16,0 -27.4,12.5 -27.4,31.6 0,22.7 13,32.2 31.6,32.2 h 7.7 z"
   class="st000"
   sodipodi:nodetypes="ccccccccccc"
   inkscape:connector-curvature="0"
   id="path3056"
   style="fill:#016fd0" />

		<path
   d="M 760.4,1354.9 710,1472.2 h 32.8 l 9.3,-23.5 h 54.1 l 9.3,23.5 H 849 l -50.4,-117.3 z m 18.6,27.3 16.5,41 h -33 z"
   class="st000"
   inkscape:connector-curvature="0"
   id="path3058"
   style="fill:#016fd0" />

		<path
   d="m 852.4,1472.2 v -117.3 h 37.3 l 47.6,73.7 v -73.7 h 29.3 v 117.3 h -36.1 l -48.8,-75.6 v 75.6 z"
   class="st000"
   sodipodi:nodetypes="ccccccccccc"
   inkscape:connector-curvature="0"
   id="path3060"
   style="fill:#016fd0" />

		<path
   d="m 269.2,1677.4 v -117.3 h 95.7 v 26.2 h -66 v 20.1 h 64.5 v 24.7 h -64.5 v 20.8 h 66 v 25.5 z"
   class="st000"
   sodipodi:nodetypes="ccccccccccccc"
   inkscape:connector-curvature="0"
   id="path3062"
   style="fill:#016fd0" />

		<path
   d="m 737.9,1677.4 v -117.3 h 95.7 v 26.2 h -66 v 20.1 h 64.2 v 24.7 h -64.2 v 20.8 h 66 v 25.5 z"
   class="st000"
   sodipodi:nodetypes="ccccccccccccc"
   inkscape:connector-curvature="0"
   id="path3064"
   style="fill:#016fd0" />

		<path
   d="m 368.6,1677.4 46.6,-57.9 -47.7,-59.4 h 36.9 l 28.4,36.7 28.5,-36.7 h 35.5 l -47.1,58.6 46.7,58.6 h -36.9 l -27.6,-36.1 -26.9,36.1 z"
   class="st000"
   sodipodi:nodetypes="ccccccccccccc"
   inkscape:connector-curvature="0"
   id="path3066"
   style="fill:#016fd0" />

		<path
   d="m 499.9,1560.1 v 117.3 H 530 v -37 h 30.9 c 26.1,0 45.9,-13.9 45.9,-40.8 0,-22.3 -15.5,-39.4 -42.1,-39.4 h -64.8 z m 30.1,26.6 h 32.5 c 8.4,0 14.5,5.2 14.5,13.5 0,7.8 -6,13.5 -14.6,13.5 H 530 Z"
   class="st000"
   inkscape:connector-curvature="0"
   id="path3068"
   style="fill:#016fd0" />

		<path
   d="m 619.4,1560.1 v 117.3 h 29.3 v -41.7 H 661 l 35.2,41.7 H 732 l -38.6,-43.2 c 15.8,-1.3 32.2,-14.9 32.2,-36 0,-24.7 -19.4,-38 -41,-38 z m 29.4,26.3 h 33.5 c 8,0 13.9,6.3 13.9,12.3 0,7.8 -7.6,12.3 -13.5,12.3 h -33.9 z"
   class="st000"
   inkscape:connector-curvature="0"
   id="path3072"
   style="fill:#016fd0" />

		<path
   d="m 847.2,1677.4 v -25.5 h 58.7 c 8.7,0 12.4,-4.7 12.4,-9.8 0,-4.9 -3.7,-9.9 -12.4,-9.9 h -26.5 c -23,0 -35.9,-14 -35.9,-35.1 0,-18.8 11.8,-36.9 46,-36.9 h 57.1 l -12.3,26.4 h -49.4 c -9.4,0 -12.3,5 -12.3,9.7 0,4.9 3.6,10.2 10.8,10.2 h 27.8 c 25.7,0 36.8,14.6 36.8,33.7 0,20.5 -12.4,37.3 -38.2,37.3 h -62.6 z"
   class="st000"
   sodipodi:nodetypes="ccccccccccccccccc"
   inkscape:connector-curvature="0"
   id="path3074"
   style="fill:#016fd0" />

		<path
   d="m 954.8,1677.4 v -25.5 h 58.7 c 8.7,0 12.4,-4.7 12.4,-9.8 0,-4.9 -3.7,-9.9 -12.4,-9.9 H 987 c -23,0 -35.9,-14 -35.9,-35.1 0,-18.8 11.8,-36.9 46,-36.9 h 57.1 l -12.3,26.4 h -49.4 c -9.4,0 -12.3,5 -12.3,9.7 0,4.9 3.6,10.2 10.8,10.2 h 27.8 c 25.7,0 36.8,14.6 36.8,33.7 0,20.5 -12.4,37.3 -38.2,37.3 h -62.6 z"
   class="st000"
   sodipodi:nodetypes="ccccccccccccccccc"
   inkscape:connector-curvature="0"
   id="path3076"
   style="fill:#016fd0" />

	</g>

</g>
      <rect
         height="90"
         width="90"
         class="st200"
         y="0"
         x="0"
         id="rect4-3"
         style="fill:none" />
    </g>
    <g
       id="g1669"
       transform="matrix(0.69890381,0,0,0.69890381,11.051695,238.32814)">
      <g
         transform="matrix(6.4073642,0,0,6.4073642,-137.22511,-171.78512)"
         id="g4158_2_">
	<polygon
   points="27.4,35.9 26.3,35.9 27.1,31.6 28.2,31.6 "
   class="st0"
   id="polygon9_2_"
   style="fill:#00579f" />

	<path
   d="m 31.4,31.6 c -0.2,-0.1 -0.6,-0.1 -1,-0.1 -1.1,0 -1.8,0.6 -1.8,1.5 0,0.6 0.6,1 1,1.2 0.5,0.2 0.6,0.4 0.6,0.5 0,0.2 -0.4,0.4 -0.6,0.4 -0.5,0 -0.7,-0.1 -1.1,-0.2 l -0.1,-0.1 -0.1,1 c 0.2,0.1 0.7,0.2 1.2,0.2 1.2,0 1.9,-0.6 1.9,-1.5 0,-0.5 -0.2,-0.8 -1,-1.2 -0.4,-0.2 -0.6,-0.4 -0.6,-0.5 0,-0.1 0.2,-0.4 0.6,-0.4 0.4,0 0.6,0.1 0.8,0.1 h 0.1 z"
   class="st0"
   inkscape:connector-curvature="0"
   id="path11_2_"
   style="fill:#00579f" />

	<path
   d="m 32.9,34.3 c 0.1,-0.2 0.5,-1.2 0.5,-1.2 0,0 0.1,-0.2 0.1,-0.4 l 0.1,0.4 c 0,0 0.2,1 0.2,1.2 -0.1,0 -0.7,0 -0.9,0 z m 1.4,-2.7 h -0.8 c -0.2,0 -0.5,0.1 -0.6,0.4 l -1.6,3.9 h 1.2 c 0,0 0.2,-0.5 0.2,-0.6 0.1,0 1.2,0 1.5,0 0,0.1 0.1,0.6 0.1,0.6 h 0.8 z"
   class="st0"
   inkscape:connector-curvature="0"
   id="path13_2_"
   style="fill:#00579f" />

	<path
   d="m 25.5,31.6 -1.1,2.9 -0.1,-0.6 c -0.2,-0.7 -0.8,-1.5 -1.6,-1.8 l 1,3.8 h 1.2 l 1.7,-4.2 h -1.1 z"
   class="st0"
   inkscape:connector-curvature="0"
   id="path15_2_"
   style="fill:#00579f" />

	<path
   d="m 23.4,31.6 h -1.8 v 0.1 c 1.3,0.4 2.3,1.2 2.7,2.2 L 23.9,32 c -0.1,-0.4 -0.2,-0.4 -0.5,-0.4 z"
   class="st1"
   inkscape:connector-curvature="0"
   id="path17_2_"
   style="fill:#faa61a" />

</g>
      <rect
         height="90"
         width="90"
         class="st2"
         y="-1"
         x="-0.89999998"
         id="rect4-7"
         style="fill:none" />
    </g>
    <rect
       style="fill:none;stroke-width:0.26458332"
       y="126.19907"
       x="-47.775627"
       id="rect4-73"
       class="st0"
       width="23.8125"
       height="23.8125" />
    <g
       id="XMLID_1_"
       transform="matrix(1.2458448,0,0,1.2458448,-571.34308,-422.23606)">
	<g
   id="XMLID_12_">
		<g
   id="XMLID_13_">
			<g
   id="XMLID_14_">
				<g
   id="XMLID_15_">
					<path
   style="fill:#253b80"
   inkscape:connector-curvature="0"
   id="XMLID_38_"
   class="st1"
   d="m 702.2,554.4 c -0.2,1.4 -1.2,1.4 -2.3,1.4 h -0.6 l 0.4,-2.5 c 0,-0.2 0.2,-0.3 0.3,-0.3 h 0.3 c 0.7,0 1.3,0 1.7,0.4 0.2,0.2 0.3,0.5 0.2,1 z m -0.4,-3.6 H 698 c -0.3,0 -0.5,0.2 -0.5,0.4 l -1.5,9.7 c 0,0.2 0.1,0.4 0.3,0.4 h 1.8 c 0.3,0 0.5,-0.2 0.5,-0.4 l 0.4,-2.6 c 0,-0.3 0.3,-0.4 0.5,-0.4 h 1.2 c 2.5,0 3.9,-1.2 4.3,-3.6 0.2,-1.1 0,-1.9 -0.5,-2.5 -0.5,-0.6 -1.4,-1 -2.7,-1 z" />

					<path
   style="fill:#253b80"
   inkscape:connector-curvature="0"
   id="XMLID_35_"
   class="st1"
   d="m 710.6,557.9 c -0.2,1 -1,1.7 -2.1,1.7 -0.5,0 -1,-0.2 -1.2,-0.5 -0.3,-0.3 -0.4,-0.8 -0.3,-1.3 0.2,-1 1,-1.8 2,-1.8 0.5,0 0.9,0.2 1.2,0.5 0.4,0.4 0.5,0.9 0.4,1.4 z m 2.5,-3.5 h -1.8 c -0.2,0 -0.3,0.1 -0.3,0.3 l -0.1,0.5 -0.1,-0.2 c -0.4,-0.6 -1.3,-0.8 -2.1,-0.8 -2,0 -3.7,1.5 -4.1,3.7 -0.2,1.1 0.1,2.1 0.7,2.8 0.6,0.7 1.3,0.9 2.3,0.9 1.6,0 2.5,-1 2.5,-1 L 710,561 c 0,0.2 0.1,0.4 0.3,0.4 h 1.6 c 0.3,0 0.5,-0.2 0.5,-0.4 l 1,-6.2 c 0.1,-0.3 -0.1,-0.4 -0.3,-0.4 z" />

					<path
   style="fill:#253b80"
   inkscape:connector-curvature="0"
   id="XMLID_34_"
   class="st1"
   d="M 722.8,554.4 H 721 c -0.2,0 -0.3,0.1 -0.4,0.2 l -2.5,3.7 -1.1,-3.6 c -0.1,-0.2 -0.3,-0.4 -0.5,-0.4 h -1.8 c -0.2,0 -0.4,0.2 -0.3,0.4 l 2,5.9 -1.9,2.7 c -0.1,0.2 0,0.5 0.3,0.5 h 1.8 c 0.2,0 0.3,-0.1 0.4,-0.2 l 6.1,-8.8 c 0.1,-0.2 0,-0.4 -0.3,-0.4 z" />

					<path
   style="fill:#179bd7"
   inkscape:connector-curvature="0"
   id="XMLID_31_"
   class="st2"
   d="m 729.3,554.4 c -0.2,1.4 -1.2,1.4 -2.3,1.4 h -0.6 l 0.4,-2.5 c 0,-0.2 0.2,-0.3 0.3,-0.3 h 0.3 c 0.7,0 1.3,0 1.7,0.4 0.2,0.2 0.3,0.5 0.2,1 z m -0.4,-3.6 h -3.8 c -0.3,0 -0.5,0.2 -0.5,0.4 L 723,561 c 0,0.2 0.1,0.4 0.3,0.4 h 2 c 0.2,0 0.3,-0.1 0.4,-0.3 l 0.4,-2.8 c 0,-0.3 0.3,-0.4 0.5,-0.4 h 1.2 c 2.5,0 3.9,-1.2 4.3,-3.6 0.2,-1.1 0,-1.9 -0.5,-2.5 -0.5,-0.6 -1.4,-1 -2.7,-1 z" />

					<path
   style="fill:#179bd7"
   inkscape:connector-curvature="0"
   id="XMLID_28_"
   class="st2"
   d="m 737.7,557.9 c -0.2,1 -1,1.7 -2.1,1.7 -0.5,0 -1,-0.2 -1.2,-0.5 -0.3,-0.3 -0.4,-0.8 -0.3,-1.3 0.2,-1 1,-1.8 2,-1.8 0.5,0 0.9,0.2 1.2,0.5 0.4,0.4 0.5,0.9 0.4,1.4 z m 2.5,-3.5 h -1.8 c -0.2,0 -0.3,0.1 -0.3,0.3 l -0.1,0.5 -0.1,-0.2 c -0.4,-0.6 -1.3,-0.8 -2.1,-0.8 -2,0 -3.7,1.5 -4.1,3.7 -0.2,1.1 0.1,2.1 0.7,2.8 0.6,0.7 1.3,0.9 2.3,0.9 1.6,0 2.5,-1 2.5,-1 l -0.1,0.5 c 0,0.2 0.1,0.4 0.3,0.4 h 1.6 c 0.3,0 0.5,-0.2 0.5,-0.4 l 1,-6.2 c 0.1,-0.4 -0.1,-0.5 -0.3,-0.5 z" />

					<path
   style="fill:#179bd7"
   inkscape:connector-curvature="0"
   id="XMLID_27_"
   class="st2"
   d="m 742.4,551.1 -1.6,9.9 c 0,0.2 0.1,0.4 0.3,0.4 h 1.6 c 0.3,0 0.5,-0.2 0.5,-0.4 l 1.5,-9.7 c 0,-0.2 -0.1,-0.4 -0.3,-0.4 h -1.8 c -0.1,-0.1 -0.2,0.1 -0.2,0.2 z" />

					<path
   style="fill:#253b80"
   inkscape:connector-curvature="0"
   id="XMLID_26_"
   class="st1"
   d="m 680.1,563.3 0.3,-1.8 h -0.6 -3.1 l 2.1,-13.6 c 0,0 0,-0.1 0.1,-0.1 h 0.1 5.2 c 1.7,0 2.9,0.4 3.5,1.1 0.3,0.3 0.5,0.7 0.6,1.1 0.1,0.4 0.1,0.9 0,1.5 v 0 0.4 l 0.3,0.2 c 0.2,0.1 0.4,0.3 0.6,0.5 0.2,0.3 0.4,0.6 0.5,1.1 0.1,0.4 0,1 -0.1,1.6 -0.1,0.7 -0.3,1.3 -0.6,1.8 -0.3,0.4 -0.6,0.8 -1,1.1 -0.4,0.3 -0.8,0.5 -1.4,0.6 -0.5,0.1 -1.1,0.2 -1.7,0.2 h -0.4 c -0.3,0 -0.6,0.1 -0.8,0.3 -0.2,0.2 -0.4,0.5 -0.4,0.7 v 0.2 l -0.5,3.3 v 0.1 0.1 c 0,0 0,0 -0.1,0 h -2.6 z" />

					<path
   style="fill:#179bd7"
   inkscape:connector-curvature="0"
   id="XMLID_25_"
   class="st2"
   d="m 688.9,551.4 c 0,0.1 0,0.2 -0.1,0.3 -0.7,3.5 -3,4.7 -6,4.7 h -1.5 c -0.4,0 -0.7,0.3 -0.7,0.6 l -0.8,5 -0.2,1.4 c 0,0.2 0.1,0.5 0.4,0.5 h 2.7 c 0.3,0 0.6,-0.2 0.6,-0.6 v -0.1 l 0.5,-3.2 v -0.2 c 0.1,-0.3 0.3,-0.6 0.6,-0.6 h 0.4 c 2.6,0 4.7,-1.1 5.3,-4.2 0.3,-1.3 0.1,-2.4 -0.5,-3.1 -0.2,-0.2 -0.4,-0.4 -0.7,-0.5 z" />

					<path
   style="fill:#222d65"
   inkscape:connector-curvature="0"
   id="XMLID_24_"
   class="st3"
   d="m 688.2,551.1 c -0.1,0 -0.2,-0.1 -0.3,-0.1 -0.1,0 -0.2,0 -0.3,-0.1 -0.4,-0.1 -0.9,-0.1 -1.3,-0.1 h -4.1 c -0.1,0 -0.2,0 -0.3,0.1 -0.2,0.1 -0.3,0.3 -0.4,0.5 l -0.9,5.5 v 0.2 c 0.1,-0.4 0.4,-0.6 0.7,-0.6 h 1.5 c 3,0 5.4,-1.2 6,-4.7 0,-0.1 0,-0.2 0.1,-0.3 -0.2,-0.1 -0.4,-0.2 -0.6,-0.2 0,-0.2 -0.1,-0.2 -0.1,-0.2 z" />

					<path
   style="fill:#253b80"
   inkscape:connector-curvature="0"
   id="XMLID_21_"
   class="st1"
   d="m 681.4,551.4 c 0,-0.2 0.2,-0.4 0.4,-0.5 0.1,0 0.2,-0.1 0.3,-0.1 h 4.1 c 0.5,0 0.9,0 1.3,0.1 0.1,0 0.2,0 0.3,0.1 0.1,0 0.2,0.1 0.3,0.1 0.1,0 0.1,0 0.2,0 0.2,0.1 0.4,0.1 0.6,0.2 0.2,-1.3 0,-2.2 -0.7,-3 -0.8,-0.9 -2.2,-1.3 -4,-1.3 H 679 c -0.4,0 -0.7,0.3 -0.7,0.6 l -2.2,13.8 c 0,0.3 0.2,0.5 0.4,0.5 h 3.2 l 0.8,-5.1 z" />

				</g>

			</g>

		</g>

	</g>

</g>
    <g
       id="g5784"
       transform="matrix(2.2367311,0,0,2.2367311,-57.989101,-333.53751)">
      <g
         transform="matrix(0.26458333,0,0,0.26458333,73.144795,256.25481)"
         id="g1545">
        <g
           id="g824"
           transform="matrix(1.4386998,0,0,1.4386998,-18.823032,-4.1698199)">
	<rect
   style="fill:#ff5f00"
   id="rect4"
   x="36.5"
   y="19.5"
   class="st0"
   width="16"
   height="28.799999" />

	<path
   style="fill:#eb001b"
   id="_Path__1_"
   inkscape:connector-curvature="0"
   class="st1"
   d="m 37.6,33.9 c 0,-5.6 2.5,-10.9 7,-14.4 -7.9,-6.2 -19.4,-4.9 -25.6,3 -6.2,7.9 -4.9,19.4 3,25.6 6.6,5.2 16,5.2 22.6,0 -4.3,-3.3 -7,-8.7 -7,-14.2 z" />

	<path
   style="fill:#f79e1b"
   id="path7"
   inkscape:connector-curvature="0"
   class="st2"
   d="M 74.2,33.9 C 74.2,44 66,52.1 56,52.1 c -4,0 -8.1,-1.3 -11.4,-4 7.9,-6.2 9.4,-17.7 3,-25.6 -0.9,-1.2 -2,-2.1 -3,-3 7.9,-6.2 19.4,-4.9 25.6,3 2.6,3.3 4,7.3 4,11.4 z" />

</g>
        <rect
           style="fill:none"
           id="rect4_1_"
           x="0.40000001"
           y="0.1"
           class="st3"
           width="90"
           height="90" />
      </g>
      <path
         style="stroke-width:0.41869801"
         id="path73"
         d="m 78.269285,278.87906 v -1.04675 c 0.04188,-0.33496 -0.251218,-0.62805 -0.586177,-0.66991 -0.04188,0 -0.04188,0 -0.08374,0 -0.251218,0 -0.460567,0.0837 -0.586177,0.29307 -0.125601,-0.20934 -0.334957,-0.29307 -0.544306,-0.29307 -0.209351,0 -0.376829,0.0837 -0.502439,0.25122 v -0.20936 h -0.376828 v 1.6748 h 0.376828 v -0.92115 c -0.04188,-0.20934 0.125602,-0.41869 0.33496,-0.46056 0.04187,0 0.04187,0 0.08374,0 0.251218,0 0.376828,0.16749 0.376828,0.46056 v 0.92115 h 0.376829 v -0.92115 c -0.04188,-0.20934 0.125601,-0.41869 0.334958,-0.46056 0.04188,0 0.04188,0 0.08374,0 0.251218,0 0.376828,0.16749 0.376828,0.46056 v 0.92115 z m 5.443075,-1.6748 h -0.586178 v -0.50244 h -0.376828 v 0.50244 h -0.334958 v 0.33496 h 0.334958 v 0.75366 c 0,0.37684 0.16748,0.62806 0.586177,0.62806 0.167479,0 0.334959,-0.0419 0.460568,-0.12566 l -0.125601,-0.29309 c -0.08374,0.0419 -0.209349,0.0837 -0.334959,0.0837 -0.167479,0 -0.251219,-0.12565 -0.251219,-0.29308 v -0.7536 h 0.586178 z m 3.098366,-0.0418 c -0.167481,0 -0.33496,0.0837 -0.460569,0.25121 v -0.20936 h -0.376828 v 1.6748 h 0.376828 v -0.92114 c 0,-0.29308 0.125602,-0.41869 0.334959,-0.41869 0.08374,0 0.167479,0 0.209348,0.0419 l 0.125602,-0.33496 c -0.04188,-0.0837 -0.125602,-0.0837 -0.209348,-0.0837 z m -4.689419,0.16739 c -0.209348,-0.12564 -0.460568,-0.16747 -0.669917,-0.16747 -0.418698,0 -0.711788,0.20934 -0.711788,0.54429 0,0.29309 0.209351,0.46058 0.586179,0.50244 l 0.167478,0.0419 c 0.209349,0.0419 0.29309,0.0837 0.29309,0.16749 0,0.12566 -0.125601,0.20935 -0.376829,0.20935 -0.209349,0 -0.376828,-0.0419 -0.544308,-0.16749 l -0.167479,0.29308 c 0.209349,0.1675 0.460569,0.20936 0.711787,0.20936 0.502439,0 0.753657,-0.20936 0.753657,-0.5443 0,-0.33496 -0.209349,-0.46057 -0.586178,-0.50244 l -0.167479,-0.0419 c -0.16748,-0.0419 -0.29309,-0.0419 -0.29309,-0.1675 0,-0.12565 0.125603,-0.20934 0.33496,-0.20934 0.167479,0 0.376828,0.0419 0.544307,0.12564 z m 9.713794,-0.16747 c -0.167479,0 -0.334958,0.0837 -0.460568,0.25122 v -0.20937 h -0.376828 v 1.67481 h 0.376828 v -0.92116 c 0,-0.29307 0.125603,-0.41869 0.334958,-0.41869 0.08374,0 0.16748,0 0.20935,0.0419 l 0.125617,-0.33496 c -0.04188,-0.0837 -0.125617,-0.0837 -0.209349,-0.0837 z m -4.647547,0.87926 c 0,0.46056 0.334957,0.8374 0.795526,0.87927 0.04188,0 0.04188,0 0.08374,0 0.209349,0 0.4187,-0.0419 0.586178,-0.20936 l -0.167478,-0.29308 c -0.125603,0.0837 -0.29309,0.16747 -0.4187,0.16747 -0.293088,-0.0419 -0.502437,-0.29308 -0.502437,-0.58618 0.04187,-0.25121 0.209349,-0.46057 0.502437,-0.50243 0.16748,0 0.29309,0.0419 0.4187,0.16748 l 0.167476,-0.29309 c -0.167479,-0.12565 -0.376828,-0.20934 -0.586176,-0.20934 -0.460568,-0.0419 -0.879265,0.33495 -0.879265,0.7955 0,0.0419 0,0.0419 0,0.0837 z m 3.391454,0 v -0.83741 h -0.376829 v 0.20937 c -0.125601,-0.16749 -0.334958,-0.25122 -0.544308,-0.25122 -0.502437,0 -0.879266,0.37681 -0.879266,0.87926 0,0.50243 0.376829,0.87927 0.879266,0.87927 0.20935,0 0.4187,-0.0837 0.544308,-0.25121 v 0.20934 h 0.376829 z m -1.339835,0 c 0,-0.29309 0.25122,-0.50245 0.544308,-0.46057 0.29309,0 0.502438,0.25122 0.460569,0.54431 0,0.25122 -0.25122,0.46056 -0.502439,0.46056 -0.293087,0 -0.502438,-0.25122 -0.502438,-0.5443 0,0.0419 0,0 0,0 z m -4.396329,-0.87926 c -0.502438,0 -0.879266,0.41869 -0.879266,0.87926 0,0.46056 0.418697,0.87927 0.879266,0.87927 v 0 c 0.251219,0 0.502437,-0.0837 0.711787,-0.20936 l -0.16748,-0.25122 c -0.125602,0.12565 -0.293088,0.16749 -0.502437,0.16749 -0.251219,0.0419 -0.460567,-0.16749 -0.502439,-0.41871 h 1.256095 c 0,-0.0419 0,-0.0837 0,-0.12565 0,-0.58618 -0.334958,-0.92113 -0.795526,-0.92113 z m 0,0.33495 c 0.20935,0 0.418698,0.16748 0.418698,0.4187 v 0 h -0.879267 c 0,-0.25122 0.20935,-0.4187 0.460569,-0.4187 z m 9.085748,0.54431 v -1.50732 h -0.334959 v 0.87928 c -0.125617,-0.16749 -0.334958,-0.25122 -0.544307,-0.25122 -0.502439,0 -0.879267,0.37681 -0.879267,0.87926 0,0.50243 0.376828,0.87927 0.879267,0.87927 0.209349,0 0.418697,-0.0837 0.544307,-0.25121 v 0.20934 h 0.334959 z m 0.628047,0.58618 c 0.04188,0 0.04188,0 0.08374,0 0,0 0.04188,0 0.04188,0.0419 l 0.04188,0.0419 c 0,0.0419 0,0.0837 0,0.12565 l -0.04188,0.0419 -0.04188,0.0419 c 0,0 -0.04188,0 -0.08374,0 -0.08374,0 -0.125618,-0.0419 -0.167479,-0.0837 0,-0.0419 0,-0.0837 0,-0.12565 l 0.04188,-0.0419 0.04188,-0.0419 c 0.04188,0 0.04188,0 0.08374,0 z m 0,0.29309 h 0.04188 c 0,0 0.04188,0 0.04188,-0.0419 0.04188,-0.0419 0.04188,-0.12565 0,-0.16749 l -0.04188,-0.0419 h -0.04188 -0.04188 c 0,0 -0.04188,0 -0.04188,0.0419 -0.04187,0.0419 -0.04187,0.12565 0,0.16749 l 0.04188,0.0419 c 0,0 0,0 0.04188,0 z m 0,-0.20936 h 0.04188 v 0.0419 0.0419 h -0.04188 l 0.04188,0.0419 h -0.04188 l -0.04188,-0.0419 v 0 0.0419 h -0.04188 v -0.16748 z m -0.04188,0.0419 v 0.0419 h 0.04188 c 0,0 0,0 0.04188,0 v 0 0 c -0.04188,-0.0419 -0.04188,-0.0419 -0.08374,-0.0419 z m -1.926012,-0.71177 c 0,-0.29309 0.251218,-0.50245 0.544309,-0.46057 0.293087,0 0.502438,0.25122 0.460566,0.54431 0,0.25122 -0.251218,0.46056 -0.502437,0.46056 -0.25122,0 -0.502438,-0.20934 -0.502438,-0.5443 0,0.0419 0,0 0,0 z m -12.267852,0 v -0.83741 h -0.376828 v 0.20937 c -0.125601,-0.16755 -0.334956,-0.25128 -0.544304,-0.25128 -0.502438,0 -0.879266,0.37681 -0.879266,0.87926 0,0.50243 0.376828,0.87927 0.879266,0.87927 0.209348,0 0.418698,-0.0837 0.544306,-0.25122 v 0.20934 h 0.376829 z m -1.339834,0 c 0,-0.29309 0.251218,-0.50245 0.544308,-0.46057 0.293088,0.0419 0.502437,0.25122 0.460567,0.54431 0,0.25122 -0.251219,0.46056 -0.502438,0.46056 -0.293088,0 -0.502437,-0.20934 -0.502437,-0.5443 0,0.0419 0,0 0,0 z"
         class="st7"
         inkscape:connector-curvature="0" />
    </g>
  </g>
  <style
     id="style1526"
     type="text/css">
	.st0{fill:#FF5F00;}
	.st1{fill:#EB001B;}
	.st2{fill:#F79E1B;}
	.st3{fill:none;}
</style>
  <style
     id="style1577"
     type="text/css">
	.st000{fill:#016FD0;}
	.st100{fill:#FFFFFF;}
	.st200{fill:none;}
</style>
  <style
     id="style1646"
     type="text/css">
	.st0{fill:#00579F;}
	.st1{fill:#FAA61A;}
	.st2{fill:none;}
</style>
  <style
     id="style1707"
     type="text/css">
	.st0{fill:none;}
	.st1{fill:#253B80;}
	.st2{fill:#179BD7;}
	.st3{fill:#222D65;}
</style>
  <style
     id="style1809"
     type="text/css">
	.st0{fill:none;}
	.st1{fill:#253B80;}
	.st2{fill:#179BD7;}
	.st3{fill:#222D65;}
</style>
  <style
     id="style1974"
     type="text/css">
	.st0{fill:none;}
	.st1{fill:#253B80;}
	.st2{fill:#179BD7;}
	.st3{fill:#222D65;}
</style>
</svg>
