<?xml version="1.0" encoding="utf-8"?>
<!-- Generator: Adobe Illustrator 27.3.1, SVG Export Plug-In . SVG Version: 6.00 Build 0)  -->
<svg version="1.1"
	 id="Layer_1" xmlns:dc="http://purl.org/dc/elements/1.1/" xmlns:svg="http://www.w3.org/2000/svg" xmlns:cc="http://creativecommons.org/ns#" xmlns:rdf="http://www.w3.org/1999/02/22-rdf-syntax-ns#" xmlns:inkscape="http://www.inkscape.org/namespaces/inkscape" xmlns:sodipodi="http://sodipodi.sourceforge.net/DTD/sodipodi-0.dtd"
	 xmlns="http://www.w3.org/2000/svg" xmlns:xlink="http://www.w3.org/1999/xlink" x="0px" y="0px" viewBox="0 0 374 134.5"
	 style="enable-background:new 0 0 374 134.5;" xml:space="preserve">
<style type="text/css">
	.st0{fill:#F9C507;}
	.st1{fill:#D71433;}
	.st2{fill-rule:evenodd;clip-rule:evenodd;fill:#D71433;}
	.st3{fill:#01A7CC;}
	.st4{fill:#8ACFE6;}
	.st5{fill:#008ABA;}
	.st6{fill:#FFFFFF;}
	.st7{fill:#16599D;}
	.st8{fill:#EB3237;}
	.st9{fill:#16599D;stroke:#E50001;stroke-width:8.799582e-03;stroke-miterlimit:1.8237;}
	.st10{fill:#FBDB04;}
	.st11{fill:#231F20;}
	.st12{fill:#D9372A;}
	.st13{fill:#1466AA;}
	.st14{fill:#E63329;}
	.st15{fill:#150400;}
	.st16{fill:#F5BC02;}
	.st17{fill:#00A9CE;}
</style>
<defs>
	
		<inkscape:path-effect  apply_no_weight="true" apply_with_weight="true" effect="bspline" helper_size="0" id="path-effect836" is_visible="true" only_selected="false" steps="2" weight="33.333333">
		</inkscape:path-effect>
	
		<inkscape:path-effect  apply_no_weight="true" apply_with_weight="true" effect="bspline" helper_size="0" id="path-effect880" is_visible="true" only_selected="false" steps="2" weight="33.333333">
		</inkscape:path-effect>
	
		<inkscape:path-effect  apply_no_weight="true" apply_with_weight="true" effect="bspline" helper_size="0" id="path-effect876" is_visible="true" only_selected="false" steps="2" weight="33.333333">
		</inkscape:path-effect>
</defs>
<sodipodi:namedview  bordercolor="#666666" borderopacity="1" gridtolerance="10" guidetolerance="10" id="namedview80" inkscape:current-layer="Layer_1" inkscape:cx="343.13728" inkscape:cy="143.79434" inkscape:pageopacity="0" inkscape:pageshadow="2" inkscape:window-height="1356" inkscape:window-maximized="1" inkscape:window-width="2560" inkscape:window-x="-8" inkscape:window-y="-8" inkscape:zoom="2" objecttolerance="10" pagecolor="#ffffff" showgrid="false">
	</sodipodi:namedview>
<g id="g10_00000044866473693652282310000004898913473840799130_" transform="matrix(0.11641669,0,0,-0.11641669,43.195134,29.472395)">
	<g id="g12_00000126303976326756588980000015041218006717024153_" transform="scale(0.1)">
		<path id="path14_00000032649794492649437100000004512253563818730884_" inkscape:connector-curvature="0" class="st0" d="
			M4035.3,1309.3V58.2H-1634v1251.1L4035.3,1309.3L4035.3,1309.3"/>
		<path id="path16_00000023969066965905623950000004926236647978876842_" inkscape:connector-curvature="0" class="st1" d="
			M-636.9,1084.6L-818,838.5c0,0,939,0,987.2,0c49.9,0,49.2-19,24.8-52c-24.8-33.5-66.2-91.9-91.4-125.9
			c-12.8-17.3-35.9-48.8,40.7-48.8c81.1,0,403.7,0,403.7,0s65.1,88.5,119.6,162.6c74.2,100.7,6.4,310.2-258.8,310.2
			C170.3,1084.6-636.9,1084.6-636.9,1084.6L-636.9,1084.6"/>
		<path id="path18_00000183222246250497804350000001570969388430091939_" inkscape:connector-curvature="0" class="st1" d="
			M-891.3,282.9l363.8,494.3c0,0,403.3,0,451.5,0c49.9,0,49.2-18.9,24.8-52c-24.8-33.5-66.9-91.2-92.1-125.3
			c-12.8-17.3-36-48.8,40.7-48.8c81.1,0,604.8,0,604.8,0C451.9,482.2,288.8,282.9-4.2,282.9C-241.6,282.9-891.3,282.9-891.3,282.9
			L-891.3,282.9"/>
		<path id="path20_00000103244064184463676120000002617701683074583442_" inkscape:connector-curvature="0" class="st1" d="
			M1192.2,551.1L994.9,282.9H474.5c0,0,197.2,268.2,197.4,268.2H1192.2L1192.2,551.1"/>
		<path id="path22_00000075130797899985542030000015431733606471115679_" inkscape:connector-curvature="0" class="st1" d="
			M1989.5,611.8H716.6l348.1,472.8H1585l-199.5-271.1h232.2l199.6,271.1h520.2L1989.5,611.8L1989.5,611.8"/>
		<path id="path24_00000114781611486783227970000008786830240524815744_" inkscape:connector-curvature="0" class="st1" d="
			M1944.8,551.1l-197.4-268.2h-520.2c0,0,197.2,268.2,197.4,268.2H1944.8L1944.8,551.1"/>
		<path id="path26_00000152231365428282141510000003809635804566642311_" inkscape:connector-curvature="0" class="st1" d="
			M-1633.9,445.3h766.7l-41.9-57h-724.8V445.3L-1633.9,445.3"/>
		<path id="path28_00000143605009015746543120000010852176636838388901_" inkscape:connector-curvature="0" class="st1" d="
			M-1633.9,551.1h844.6l-42-56.9h-802.6V551.1L-1633.9,551.1"/>
		<path id="path30_00000050632008708184932170000015924211080231859639_" inkscape:connector-curvature="0" class="st1" d="
			M-1633.9,339.5h688.8l-41.7-56.6h-647.1V339.5L-1633.9,339.5"/>
		<path id="path32_00000101088586311936111330000017214084207139368120_" inkscape:connector-curvature="0" class="st1" d="
			M4035.4,388.4h-763.7l41.9,57h721.8V388.4L4035.4,388.4"/>
		<path id="path34_00000020373990052726904900000008927449927509543060_" inkscape:connector-curvature="0" class="st1" d="
			M4035.4,282.9l-841.4-0.1l41.7,56.7h799.7V282.9L4035.4,282.9"/>
		<path id="path36_00000058587234710520732320000008434771828511394485_" inkscape:connector-curvature="0" class="st1" d="
			M3391.3,551.1h644v-56.9h-685.9L3391.3,551.1L3391.3,551.1"/>
		<path id="path38_00000183963974095578071210000010350204288259305105_" inkscape:connector-curvature="0" class="st1" d="
			M3058,1084.6l-348-472.8h-551.3c0,0,348.1,472.8,348.3,472.8H3058L3058,1084.6"/>
		<path id="path40_00000176045168920719166190000000369324512717401487_" inkscape:connector-curvature="0" class="st1" d="
			M2114,551.1c0,0-38-52-56.5-77c-65.4-88.3-7.6-191.2,205.7-191.2c246.3,0,835.5,0,835.5,0l197.4,268.2H2114L2114,551.1"/>
		<path id="path42_00000011738770058551980510000010327274628077746847_" inkscape:connector-curvature="0" class="st0" d="
			M-1633.9-145.2h5669.3v-28.3h-5669.3L-1633.9-145.2L-1633.9-145.2"/>
		<path id="path44_00000175309466405030898080000001902633901004291982_" inkscape:connector-curvature="0" class="st0" d="
			M-1633.9-277.5h5669.3v-28.3h-5669.3L-1633.9-277.5L-1633.9-277.5"/>
		<path id="path46_00000180336675384712754040000015015819654390625677_" inkscape:connector-curvature="0" class="st0" d="
			M-1633.9-409.7h5669.3V-438h-5669.3L-1633.9-409.7L-1633.9-409.7"/>
		<path id="path48_00000150817888156741010110000011258073029123391384_" inkscape:connector-curvature="0" class="st1" d="
			M269.8-438h170.6l27.2,36.9h-127l71.2,96.5h115.6l27.2,36.9H439.1l63.1,85.6h127l27.2,36.9H485.9L269.8-438L269.8-438"/>
		<path id="path50_00000108291126742053402850000012428900579295631006_" inkscape:connector-curvature="0" class="st1" d="
			M479.2-438h52.4L710-313.9L708.3-438h55l0.4,153.1l205.6,139.7h-49.7L755.9-257.7l1.8,112.4h-52.4l-1.6-140.5L479.2-438L479.2-438
			"/>
		<path id="path52_00000160871917776202042950000000349347225841475738_" inkscape:connector-curvature="0" class="st2" d="
			M802.9-438h43.6l86.4,117h42.8c55,0,124.8,23.1,172.8,88.1c49.2,66.7,12.8,87.7-49.6,87.7h-79.8L802.9-438z M1035.3-182.2h37.1
			c27.1,0,57.3-13.4,30.1-50.3c-28.5-38.6-72.1-51.6-99.2-51.6h-43.2L1035.3-182.2L1035.3-182.2"/>
		<path id="path54_00000158012519332855448750000016844752845946584198_" inkscape:connector-curvature="0" class="st2" d="
			M1286.6-182.2h41.9c40.1,0,48.7-16.8,29.2-43.2c-20.7-28.1-58.2-45.7-99.6-45.7H1221L1286.6-182.2z M1054.1-438h43.6l96,130h26.2
			c23.1,0,37.5,0,30-28.5L1221.7-438h49.7l28.4,116.6c3.7,18,1.8,24.3-8,29.4l0.6,0.8c39.7,5.9,85.7,31,112.1,66.7
			c51.7,70,0.5,79.3-59.7,79.3h-74.6L1054.1-438L1054.1-438"/>
		<path id="path56_00000142892906265242350990000003371966177295037331_" inkscape:connector-curvature="0" class="st1" d="
			M1316.6-438h170.6l27.2,36.9h-127l71.2,96.5h115.6l27.2,36.9h-115.6l63.1,85.6h127l27.2,36.9h-170.6L1316.6-438L1316.6-438"/>
		<path id="path58_00000017496173634984935650000009259612865213019021_" inkscape:connector-curvature="0" class="st1" d="
			M1913.5-150.7c-15.7,7.1-37.2,10.5-57.3,10.5c-55,0-118.2-27.7-156.6-79.7c-67.2-91,77.1-73,28.7-138.4
			c-25.4-34.4-70.2-47.8-95-47.8c-22.3,0-42.2,8.4-52.8,14.3l-33.1-39c15.4-6.3,32-12.2,53.4-12.2c61.1,0,129.5,24.8,175.6,87.3
			c71.2,96.5-69.3,83.5-27.8,139.7c22.6,30.6,57.6,39,82,39c22.7,0,32.1-3.8,48.2-12.2L1913.5-150.7L1913.5-150.7"/>
		<path id="path60_00000079446577787859771790000009155403961770051513_" inkscape:connector-curvature="0" class="st1" d="
			M2131.7-150.7c-15.7,7.1-37.2,10.5-57.3,10.5c-55,0-118.2-27.7-156.5-79.7c-67.2-91,77-73,28.8-138.4
			c-25.4-34.4-70.2-47.8-95.1-47.8c-22.3,0-42.2,8.4-52.7,14.3l-33.2-39c15.4-6.3,32-12.2,53.4-12.2c61.1,0,129.5,24.8,175.6,87.3
			c71.2,96.5-69.3,83.5-27.8,139.7c22.6,30.6,57.6,39,82,39c22.7,0,32.1-3.8,48.2-12.2L2131.7-150.7L2131.7-150.7"/>
	</g>
</g>
<g id="g44_00000002364908329692686690000010939622045499285949_" transform="translate(-2.59497,0.12384216)">
	<path id="path8_00000087388131493674705150000004896756565055607203_" inkscape:connector-curvature="0" class="st3" d="
		M34.5,113.4c-0.2,1.3-1,2.5-2.3,3.4c-1.1,0.8-2.5,1.4-3.9,1.6h-0.1c-0.2,0-0.4-0.5-0.7-1.4c-0.4-0.9-0.6-1.5-0.5-1.7
		c0-0.1,0.1-0.1,0.2-0.1c0.6-0.1,1.3-0.3,1.9-0.6c0.7-0.4,1.2-0.8,1.3-1.5c0.1-0.5-0.1-0.9-0.5-1.4c-0.6-0.9-0.9-1.4-1-1.5
		c-0.4-0.7-0.5-1.5-0.3-2.2c0.2-1.2,0.9-2.2,2.2-2.9c1.1-0.6,2.3-1.1,3.5-1.3c0.1,0,0.1,0,0.2,0c0.1,0,0.2,0.1,0.2,0.3
		c0.2,0.8,0.5,1.7,0.7,2.6v0.1c0,0.1-0.1,0.2-0.2,0.2l0,0c-0.1,0-0.2,0-0.3,0s-0.2,0-0.3,0c-0.5,0-0.9,0.1-1.3,0.3
		c-0.5,0.2-0.7,0.6-0.8,1s0.1,0.9,0.5,1.5c0.6,1,1,1.6,1,1.7C34.6,111.9,34.6,112.7,34.5,113.4L34.5,113.4z"/>
	<path id="path10_00000056424000979187508410000014536410908215329161_" inkscape:connector-curvature="0" class="st3" d="
		M46.2,110.8l-1.2,6.7c0,0.2-0.2,0.4-0.4,0.4s-0.7,0-1.5,0c-0.5,0-1,0-1.5-0.1c-0.2,0-0.3-0.2-0.3-0.5c0.1-0.6,0.3-1.4,0.5-2.6
		s0.4-1.9,0.5-2.6s-0.2-1.1-0.9-1.1c-0.4,0-0.6,0.1-1,0.3c-0.5,0.2-0.6,0.5-0.7,0.7l-0.5,2.4c-0.1,0.3-0.1,0.8-0.2,1.4
		c-0.1,0.6-0.2,1.1-0.3,1.4c0,0.2-0.2,0.4-0.4,0.4s-0.7,0-1.7,0c-0.4,0-0.7,0-1.1-0.1c-0.2-0.1-0.4-0.2-0.3-0.4
		c0.1-0.6,0.3-1.3,0.5-2.3s0.4-1.8,0.5-2.3c0.4-2.1,0.6-3.9,0.8-5.2c0.1-0.5,0.1-1,0.2-1.5c0.1-0.5,0.1-1,0.1-1.5c0-0.1,0-0.1,0-0.2
		s0.1-0.2,0.2-0.2c0.3-0.1,0.6-0.1,0.9-0.1c0.6,0,0.8,0,0.9-0.1l1.8-0.2c0.1,0,0.2,0.1,0.1,0.2c0,0.2-0.1,0.5-0.2,0.8
		c-0.1,0.5-0.2,0.7-0.2,0.8c-0.3,1.5-0.6,2.7-0.6,3.5c0,0.1,0,0.2,0.1,0.2c0,0,0.2-0.1,0.6-0.4c0.4-0.3,0.8-0.5,1.2-0.6
		c0.5-0.2,1-0.4,1.6-0.4c0.8,0,1.5,0.2,1.9,0.6C46.2,109.4,46.4,110,46.2,110.8L46.2,110.8z"/>
	<path id="path12_00000000931876631071586520000017919788147043925133_" inkscape:connector-curvature="0" class="st3" d="M51,113.4
		c-0.1,0.5-0.2,1.2-0.4,2.1s-0.3,1.7-0.4,2.1c0,0.2-0.2,0.3-0.3,0.3c-0.5,0.1-1,0.1-1.5,0.1s-1,0-1.5-0.1c-0.2,0-0.2-0.1-0.3-0.1
		c0-0.1,0-0.2,0-0.3c0.1-0.5,0.2-1.1,0.4-2s0.3-1.6,0.4-2c0.3-1.5,0.5-2.9,0.6-4.4c0-0.1,0-0.1,0-0.2s0.1-0.2,0.3-0.2s0.5,0,0.8,0.1
		c0.4,0,0.6,0.1,0.8,0.1s0.5,0,0.8-0.1c0.4,0,0.6-0.1,0.8-0.1s0.2,0.1,0.2,0.2c0,0,0,0.1-0.1,0.2C51.5,110.5,51.3,111.9,51,113.4z
		 M52.5,106.1c-0.2,1.1-0.9,1.7-2.2,1.7c-0.5,0-0.9-0.1-1.3-0.5c-0.4-0.3-0.5-0.7-0.4-1.3c0.1-0.6,0.4-0.9,0.8-1.3
		c0.5-0.3,0.9-0.5,1.4-0.5s0.9,0.2,1.2,0.5C52.5,105.2,52.6,105.7,52.5,106.1z"/>
	<path id="path14_00000143613096625587211150000010134403402815367575_" inkscape:connector-curvature="0" class="st3" d="
		M63.6,113.2c-0.2,1.3-0.8,2.6-1.8,3.5c-0.9,0.9-2.2,1.5-3.6,1.5c-0.6,0-1.1-0.1-1.6-0.4c-0.6-0.3-0.7-0.4-0.7-0.4
		c-0.1,0-0.2,0.1-0.2,0.3c-0.1,0.4-0.1,0.8-0.2,1.5c-0.1,0.6-0.2,1.2-0.2,1.5c0,0.2-0.2,0.4-0.4,0.3l0,0h-2c-0.3,0-0.6,0-0.8-0.1
		c-0.2,0-0.3-0.2-0.3-0.3c0,0,0,0,0-0.1l1.4-7.5c0.3-1.3,0.4-2.6,0.4-3.9c0-0.1,0-0.1,0-0.2s0.1-0.2,0.2-0.2c0.5-0.2,1-0.3,1.5-0.3
		c0.6-0.1,1-0.2,1.6-0.2c0.3,0,0.4,0.2,0.4,0.5c0,0.4,0,0.5,0,0.5c-0.1,0,0.3-0.2,0.9-0.6c0.6-0.4,1.3-0.6,1.7-0.6
		c1.4,0,2.5,0.5,3.1,1.4C63.7,110.6,63.9,111.7,63.6,113.2L63.6,113.2z M60.1,113.2c0.1-0.5,0-1-0.3-1.4s-0.7-0.6-1.2-0.6
		c-0.6,0-1,0.2-1.4,0.6s-0.6,0.8-0.6,1.4c-0.1,0.6,0,1,0.2,1.4c0.3,0.4,0.6,0.6,1.2,0.6C59.2,115.1,59.8,114.5,60.1,113.2z"/>
	<path id="path16_00000035500876661217581380000017369696447237122971_" inkscape:connector-curvature="0" class="st3" d="
		M68.5,113.4c-0.1,0.5-0.2,1.2-0.4,2.1s-0.3,1.7-0.4,2.1c0,0.2-0.2,0.3-0.3,0.3c-0.5,0.1-1,0.1-1.5,0.1s-1,0-1.5-0.1
		c-0.2,0-0.2-0.1-0.3-0.1c0-0.1,0-0.2,0-0.3c0.1-0.5,0.2-1.1,0.4-2s0.3-1.6,0.4-2c0.3-1.5,0.5-2.9,0.6-4.4c0-0.1,0-0.2,0-0.2
		c0-0.1,0.1-0.2,0.3-0.2s0.5,0,0.8,0.1c0.4,0,0.6,0.1,0.8,0.1s0.5,0,0.8-0.1c0.4,0,0.6-0.1,0.8-0.1s0.2,0.1,0.2,0.2
		c0,0,0,0.1-0.1,0.2C69.1,110.5,68.8,111.9,68.5,113.4z M70.1,106.1c-0.2,1.1-0.9,1.7-2.2,1.7c-0.5,0-0.9-0.1-1.3-0.5
		c-0.4-0.3-0.5-0.7-0.4-1.3c0.1-0.6,0.4-0.9,0.8-1.3c0.5-0.3,0.9-0.5,1.4-0.5s0.9,0.2,1.2,0.5C70,105.2,70.2,105.7,70.1,106.1z"/>
	<path id="path18_00000095302297895036391260000008825620815826663610_" inkscape:connector-curvature="0" class="st3" d="M76.6,115
		c-0.1,0.3-0.2,0.6-0.3,0.9s-0.2,0.6-0.2,0.9c0,0.1-0.1,0.3-0.1,0.4c-0.1,0.1-0.3,0.2-0.4,0.2c-0.9,0.5-1.9,0.7-2.9,0.6
		c-1.8,0-2.7-0.7-2.5-2.1c0.1-0.5,0.2-1.1,0.4-1.9s0.3-1.5,0.4-1.9c0.1-0.3-0.1-0.5-0.5-0.5h-0.1c-0.1,0-0.1,0-0.1,0
		c-0.3,0-0.4-0.1-0.4-0.3c0-0.1,0.1-0.3,0.1-0.5c0.1-0.2,0.1-0.4,0.1-0.5s0.1-0.4,0.1-0.6s0.1-0.5,0.1-0.6s0.3-0.2,0.6-0.2
		s0.4-0.1,0.5-0.2c0.1-0.4,0.2-0.7,0.3-1.2c0.1-0.8,0.2-1.2,0.2-1.2c0.2-0.7,0.3-1.1,0.5-1.1c0.3,0,0.5,0.1,0.7,0.1
		c0.3,0.1,0.5,0.1,0.7,0.2c0.4,0,0.8,0.1,1.5,0.2c0.2,0,0.3,0.1,0.2,0.2c0,0.3-0.1,0.6-0.3,1.2c-0.1,0.6-0.2,0.9-0.3,1.2
		c-0.1,0.3,0,0.5,0.2,0.5s0.6,0,1,0s0.8,0,1,0s0.2,0.1,0.2,0.2c0,0.2-0.1,0.4-0.2,0.6c-0.1,0.3-0.2,0.6-0.2,0.6
		c0,0.2-0.1,0.4-0.1,0.6c-0.1,0.3-0.1,0.6-0.1,0.6s-0.1,0.2-0.3,0.2c-0.1,0-0.4,0-0.6,0c-0.2,0-0.6,0-0.6,0h-0.6
		c-0.1,0-0.2,0.2-0.2,0.5l-0.1,0.6c-0.1,0.3-0.1,0.6-0.1,0.6c-0.1,0.6-0.1,0.9,0,1.1c0.1,0.3,0.5,0.5,0.9,0.5c0.3,0,0.5-0.1,0.7-0.1
		c0.2-0.1,0.5-0.1,0.6-0.1C76.6,114.8,76.7,114.9,76.6,115L76.6,115z"/>
	<path id="path20_00000156555847402581200540000017622684274675647389_" inkscape:connector-curvature="0" class="st3" d="
		M87.3,113.1c-0.2,1.4-0.9,2.7-2,3.6s-2.4,1.4-3.9,1.4s-2.6-0.5-3.3-1.4s-1-2.1-0.7-3.5c0.3-1.5,0.9-2.8,2-3.7
		c1-0.9,2.3-1.4,3.9-1.4c1.5,0,2.6,0.5,3.3,1.4C87.4,110.4,87.6,111.6,87.3,113.1z M84.2,113.1c0.1-0.5,0-0.9-0.3-1.4
		c-0.3-0.4-0.6-0.6-1.1-0.6c-0.6,0-1,0.2-1.4,0.6s-0.6,0.8-0.7,1.4c-0.1,0.5,0,0.9,0.3,1.4c0.3,0.4,0.7,0.6,1.2,0.6
		c0.6,0,1-0.2,1.4-0.6C83.8,114,84.1,113.6,84.2,113.1z"/>
	<path id="path22_00000178902913920359402650000006810404050387323325_" inkscape:connector-curvature="0" class="st3" d="
		M88.1,106.3L88.1,106.3c-0.1,0-0.1,0-0.2,0c-0.1,0-0.1,0-0.2,0l0,0l0,0v-0.1c0-0.1-0.1-0.2-0.1-0.3c0,0,0,0-0.1,0h-0.1l0,0
		c0,0,0,0.1,0,0.2s0,0.2,0,0.2l0,0l0,0h-0.2c-0.1,0-0.1,0-0.2,0l0,0c0-0.1,0-0.2,0-0.3c0-0.1,0-0.2,0-0.3c0-0.3,0-0.5,0-0.6l0,0l0,0
		c0,0,0.1,0,0.3,0h0.3c0.1,0,0.3,0,0.4,0.1c0.1,0.1,0.2,0.2,0.2,0.3c0,0.1,0,0.2,0,0.2c0,0.1-0.1,0.1-0.1,0.2l0,0l0.1,0.2
		C88.1,106.1,88.1,106.2,88.1,106.3L88.1,106.3z M87.7,105.5c0-0.1,0-0.1-0.1-0.2c-0.1,0-0.1,0-0.2,0c-0.1,0-0.1,0-0.1,0
		c0,0.1,0,0.1,0,0.2c0,0,0,0,0,0.1v0.1l0,0h0.1C87.7,105.7,87.7,105.6,87.7,105.5z"/>
	<path id="path24_00000162343797732250513780000000560351071400970671_" inkscape:connector-curvature="0" class="st3" d="M87.6,107
		c-0.7,0-1.3-0.6-1.3-1.3c0-0.7,0.6-1.3,1.3-1.3s1.3,0.6,1.3,1.3l0,0C88.9,106.4,88.3,107,87.6,107z M87.6,104.7c-0.6,0-1,0.5-1,1
		s0.5,1,1,1c0.6,0,1-0.5,1-1l0,0C88.6,105.1,88.2,104.7,87.6,104.7z"/>
	<g id="flowRoot836_00000086665445390650925800000011344861038002005904_" transform="translate(2.271777,0.50876667)">
		<path id="path844_00000150084989302968823160000012420193502458208446_" inkscape:connector-curvature="0" d="M26.9,126.8v-4.6
			h1.2c0.5,0,0.7,0,0.9,0.1s0.4,0.2,0.6,0.5c0.2,0.3,0.2,0.6,0.2,0.9s-0.1,0.6-0.2,0.8c-0.1,0.2-0.3,0.4-0.5,0.5s-0.6,0.1-1,0.1
			h-0.5v1.7H26.9z M27.7,123v1.3h0.5c0.3,0,0.5,0,0.6-0.1c0.1,0,0.2-0.1,0.3-0.2s0.1-0.3,0.1-0.4c0-0.2,0-0.3-0.1-0.4
			s-0.2-0.2-0.3-0.2s-0.3-0.1-0.6-0.1C28,123,27.7,123,27.7,123z"/>
		<path id="path846_00000116958032043185791040000014673812009622769059_" inkscape:connector-curvature="0" d="M30.4,126.8v-4.6H32
			c0.4,0,0.7,0,0.9,0.1s0.3,0.2,0.5,0.5c0.1,0.2,0.2,0.5,0.2,0.7c0,0.4-0.1,0.6-0.3,0.8c-0.2,0.2-0.5,0.4-0.7,0.5
			c0.2,0.1,0.3,0.3,0.4,0.4c0.1,0.2,0.3,0.4,0.5,0.7l0.5,0.9h-0.9l-0.6-1c-0.2-0.4-0.4-0.6-0.4-0.6c-0.1-0.1-0.2-0.2-0.2-0.2
			c-0.1,0-0.2-0.1-0.4-0.1h-0.2v1.9L30.4,126.8z M31.2,124.2h0.6c0.4,0,0.6,0,0.6,0c0.1,0,0.2-0.1,0.2-0.2c0.1-0.1,0.1-0.2,0.1-0.4
			c0-0.2,0-0.3-0.1-0.4s-0.2-0.2-0.3-0.2s-0.3,0-0.6,0h-0.5V124.2z"/>
		<path id="path848_00000088122107019060322410000008291343223649432241_" inkscape:connector-curvature="0" d="M34.3,126.8v-4.6
			h2.8v0.7h-2v1H37v0.7h-1.9v1.3h2.1v0.7L34.3,126.8z"/>
		<path id="path850_00000034779228239346534480000012047812743785356448_" inkscape:connector-curvature="0" d="M37.8,126.8v-4.6
			h2.6v0.7h-1.8v1.1h1.6v0.7h-1.6v1.9L37.8,126.8z"/>
		<path id="path852_00000058553012064663914040000011052193134566310016_" inkscape:connector-curvature="0" d="M41,126.8v-4.6h2.8
			v0.7h-2v1h1.9v0.7h-1.9v1.3h2.1v0.7L41,126.8z"/>
		<path id="path854_00000062172886335451116380000000787679769196977564_" inkscape:connector-curvature="0" d="M44.5,126.8v-4.6
			h1.6c0.4,0,0.7,0,0.9,0.1s0.3,0.2,0.5,0.5c0.1,0.2,0.2,0.5,0.2,0.7c0,0.4-0.1,0.6-0.3,0.8c-0.2,0.2-0.5,0.4-0.7,0.5
			c0.2,0.1,0.3,0.3,0.4,0.4c0.1,0.2,0.3,0.4,0.5,0.7l0.5,0.9h-0.9l-0.6-1c-0.2-0.4-0.4-0.6-0.4-0.6c-0.1-0.1-0.2-0.2-0.2-0.2
			c-0.1,0-0.2-0.1-0.4-0.1h-0.2v1.9L44.5,126.8z M45.3,124.2h0.6c0.4,0,0.6,0,0.6,0c0.1,0,0.2-0.1,0.2-0.2c0.1-0.1,0.1-0.2,0.1-0.4
			c0-0.2,0-0.3-0.1-0.4s-0.2-0.2-0.3-0.2s-0.3,0-0.6,0h-0.6L45.3,124.2z"/>
		<path id="path856_00000157276584540094197000000013997828956745968062_" inkscape:connector-curvature="0" d="M48.3,126.8v-4.6
			h1.6c0.4,0,0.7,0,0.9,0.1s0.3,0.2,0.5,0.5c0.1,0.2,0.2,0.5,0.2,0.7c0,0.4-0.1,0.6-0.3,0.8c-0.2,0.2-0.5,0.4-0.7,0.5
			c0.2,0.1,0.3,0.3,0.4,0.4c0.1,0.2,0.3,0.4,0.5,0.7l0.5,0.9H51l-0.6-1c-0.2-0.4-0.4-0.6-0.4-0.6c-0.1-0.1-0.2-0.2-0.2-0.2
			c-0.1,0-0.2-0.1-0.4-0.1h-0.2v1.9L48.3,126.8z M49.1,124.2h0.6c0.4,0,0.6,0,0.6,0c0.1,0,0.2-0.1,0.2-0.2c0.1-0.1,0.1-0.2,0.1-0.4
			c0-0.2,0-0.3-0.1-0.4s-0.2-0.2-0.3-0.2s-0.3,0-0.6,0H49L49.1,124.2z"/>
		<path id="path858_00000103949149207874555030000013228340789724897431_" inkscape:connector-curvature="0" d="M52.1,126.8v-4.6
			h2.8v0.7h-2v1h1.9v0.7h-1.9v1.3H55v0.7L52.1,126.8z"/>
		<path id="path860_00000009570249204031080990000000847783204137013379_" inkscape:connector-curvature="0" d="M55.6,122.3H57
			c0.4,0,0.6,0,0.8,0.1s0.4,0.2,0.5,0.4c0.1,0.2,0.3,0.5,0.4,0.7c0.1,0.2,0.1,0.6,0.1,1.1c0,0.4,0,0.7-0.1,1s-0.2,0.6-0.4,0.7
			c-0.2,0.2-0.3,0.3-0.5,0.4s-0.5,0.1-0.7,0.1h-1.5V122.3z M56.3,123v3h0.6c0.3,0,0.5,0,0.6-0.1s0.2-0.1,0.3-0.2s0.1-0.3,0.2-0.5
			c0.1-0.2,0.1-0.5,0.1-0.8c0-0.4,0-0.6-0.1-0.8c-0.1-0.2-0.1-0.4-0.2-0.5c-0.1-0.1-0.2-0.2-0.4-0.2c-0.1,0-0.3,0-0.6,0L56.3,123
			L56.3,123z"/>
		<path id="path862_00000057849175130482070270000013898650597518813626_" inkscape:connector-curvature="0" d="M63.3,125.1l0.7,0.3
			c-0.1,0.6-0.3,0.9-0.6,1.1c-0.3,0.3-0.6,0.4-1,0.4s-0.9-0.2-1.2-0.6c-0.4-0.5-0.6-1-0.6-1.7c0-0.8,0.2-1.4,0.6-1.8
			c0.3-0.4,0.7-0.6,1.2-0.6s0.7,0.2,1.1,0.5c0.2,0.2,0.4,0.6,0.5,0.9l-0.7,0.2c-0.1-0.3-0.2-0.5-0.3-0.6c-0.2-0.1-0.3-0.2-0.5-0.2
			c-0.3,0-0.5,0.1-0.6,0.4s-0.3,0.6-0.3,1.2s0.1,1,0.3,1.2c0.2,0.3,0.4,0.4,0.6,0.4c0.2,0,0.4-0.1,0.6-0.3
			C63.1,125.7,63.2,125.5,63.3,125.1z"/>
		<path id="path864_00000137828883200139399790000001800947313910376120_" inkscape:connector-curvature="0" d="M68.1,126.8h-0.8
			l-0.4-1h-1.5l-0.3,1h-0.8l1.5-4.6h0.8L68.1,126.8z M66.7,125l-0.6-1.7l-0.6,1.7H66.7z"/>
		<path id="path866_00000053532978750479550330000014895566753006179724_" inkscape:connector-curvature="0" d="M68.4,126.8v-4.6H70
			c0.4,0,0.7,0,0.9,0.1s0.3,0.2,0.5,0.5c0.1,0.2,0.2,0.5,0.2,0.7c0,0.4-0.1,0.6-0.3,0.8c-0.2,0.2-0.5,0.4-0.7,0.5
			c0.2,0.1,0.3,0.3,0.4,0.4c0.1,0.2,0.3,0.4,0.5,0.7l0.5,0.9h-0.9l-0.6-1c-0.2-0.4-0.4-0.6-0.4-0.6c-0.1-0.1-0.2-0.2-0.2-0.2
			c-0.1,0-0.2-0.1-0.4-0.1h-0.2v1.9L68.4,126.8z M69.2,124.2h0.6c0.4,0,0.6,0,0.6,0c0.1,0,0.2-0.1,0.2-0.2c0.1-0.1,0.1-0.2,0.1-0.4
			c0-0.2,0-0.3-0.1-0.4s-0.2-0.2-0.3-0.2s-0.3,0-0.6,0h-0.6L69.2,124.2z"/>
		<path id="path868_00000049185963143204783240000014030831730541763747_" inkscape:connector-curvature="0" d="M72.3,126.8v-4.6
			h1.6c0.4,0,0.7,0,0.9,0.1s0.3,0.2,0.5,0.5c0.1,0.2,0.2,0.5,0.2,0.7c0,0.4-0.1,0.6-0.3,0.8c-0.2,0.2-0.5,0.4-0.7,0.5
			c0.2,0.1,0.3,0.3,0.4,0.4c0.1,0.2,0.3,0.4,0.5,0.7l0.5,0.9H75l-0.6-1c-0.2-0.4-0.4-0.6-0.4-0.6c-0.1-0.1-0.2-0.2-0.2-0.2
			c-0.1,0-0.2-0.1-0.4-0.1h-0.2v1.9L72.3,126.8z M73,124.2h0.6c0.4,0,0.6,0,0.6,0c0.1,0,0.2-0.1,0.2-0.2c0.1-0.1,0.1-0.2,0.1-0.4
			c0-0.2,0-0.3-0.1-0.4s-0.2-0.2-0.3-0.2s-0.3,0-0.6,0h-0.6L73,124.2z"/>
		<path id="path870_00000047759299437244148450000000206489868043057581_" inkscape:connector-curvature="0" d="M76,126.8v-4.6h0.7
			v4.6H76z"/>
		<path id="path872_00000093153494634180927200000018335557487409807521_" inkscape:connector-curvature="0" d="M77.5,126.8v-4.6
			h2.8v0.7h-2v1h1.9v0.7h-1.9v1.3h2.1v0.7L77.5,126.8z"/>
		<path id="path874_00000123409369702346858290000001055691292441386132_" inkscape:connector-curvature="0" d="M81,126.8v-4.6h1.6
			c0.4,0,0.7,0,0.9,0.1s0.3,0.2,0.5,0.5c0.1,0.2,0.2,0.5,0.2,0.7c0,0.4-0.1,0.6-0.3,0.8c-0.2,0.2-0.5,0.4-0.7,0.5
			c0.2,0.1,0.3,0.3,0.4,0.4c0.1,0.2,0.3,0.4,0.5,0.7l0.5,0.9h-0.9l-0.6-1c-0.2-0.4-0.4-0.6-0.4-0.6c-0.1-0.1-0.2-0.2-0.2-0.2
			c-0.1,0-0.2-0.1-0.4-0.1h-0.3v1.9L81,126.8z M81.7,124.2h0.6c0.4,0,0.6,0,0.6,0c0.1,0,0.2-0.1,0.2-0.2c0.1-0.1,0.1-0.2,0.1-0.4
			c0-0.2,0-0.3-0.1-0.4s-0.2-0.2-0.3-0.2s-0.3,0-0.6,0h-0.5V124.2z"/>
	</g>
</g>
<g id="g75_00000011714536243800198600000004084245796763477404_" transform="translate(3.3355676)">
	<path id="path8_00000027579340311352004980000008944648104504454318_" inkscape:connector-curvature="0" class="st3" d="
		M161.9,112.1c-0.2,1.3-1,2.4-2.2,3.3c-1.1,0.8-2.4,1.4-3.8,1.6h-0.1c-0.2,0-0.4-0.5-0.7-1.4c-0.3-0.9-0.6-1.5-0.5-1.7
		c0-0.1,0.1-0.1,0.2-0.1c0.6-0.1,1.3-0.3,1.9-0.6c0.7-0.4,1.1-0.8,1.3-1.5c0.1-0.5-0.1-0.9-0.4-1.4c-0.6-0.8-0.9-1.4-1-1.5
		c-0.4-0.7-0.5-1.5-0.3-2.2c0.2-1.2,0.9-2.1,2.1-2.9c1.1-0.6,2.2-1.1,3.5-1.3c0.1,0,0.1,0,0.2,0s0.2,0.1,0.2,0.3
		c0.2,0.8,0.5,1.7,0.7,2.6v0.1c0,0.1-0.1,0.2-0.2,0.2l0,0c-0.1,0-0.2,0-0.3,0c-0.1,0-0.2,0-0.3,0c-0.5,0-0.9,0.1-1.3,0.3
		c-0.5,0.2-0.7,0.6-0.8,1c-0.1,0.4,0.1,0.8,0.5,1.5c0.6,1,0.9,1.6,1,1.7C161.9,110.6,162,111.3,161.9,112.1L161.9,112.1z"/>
	<path id="path10_00000032633862522425239450000008704877636175529659_" inkscape:connector-curvature="0" class="st3" d="
		M173.4,109.5l-1.2,6.6c0,0.2-0.2,0.4-0.4,0.4c-0.2,0-0.6,0-1.4,0c-0.5,0-1,0-1.5-0.1c-0.2,0-0.3-0.2-0.3-0.4
		c0.1-0.6,0.3-1.4,0.5-2.5s0.4-1.9,0.5-2.5c0.1-0.7-0.2-1.1-0.9-1.1c-0.4,0-0.6,0.1-0.9,0.3c-0.5,0.2-0.6,0.5-0.7,0.7l-0.5,2.4
		c-0.1,0.3-0.1,0.7-0.2,1.4c-0.1,0.6-0.2,1.1-0.2,1.4c0,0.2-0.2,0.4-0.4,0.4c-0.2,0-0.7,0-1.7,0c-0.4,0-0.7,0-1.1-0.1
		c-0.2-0.1-0.3-0.2-0.3-0.4c0.1-0.6,0.2-1.3,0.4-2.3c0.2-1,0.4-1.7,0.4-2.3c0.4-2.1,0.6-3.9,0.8-5.2c0.1-0.5,0.1-0.9,0.2-1.5
		c0.1-0.5,0.1-0.9,0.1-1.5c0-0.1,0-0.1,0-0.2s0.1-0.2,0.2-0.2c0.3-0.1,0.6-0.1,0.9-0.1c0.6,0,0.8,0,0.9-0.1l1.7-0.2
		c0.1,0,0.2,0.1,0.1,0.2c0,0.2-0.1,0.5-0.2,0.8c-0.1,0.4-0.2,0.6-0.2,0.8c-0.3,1.5-0.6,2.6-0.6,3.4c0,0.1,0,0.2,0.1,0.2
		c0,0,0.2-0.1,0.6-0.4s0.7-0.5,1.2-0.6c0.5-0.2,1-0.4,1.6-0.4c0.8,0,1.5,0.2,1.9,0.6C173.4,108,173.5,108.7,173.4,109.5L173.4,109.5
		z"/>
	<path id="path12_00000057117375598955270410000000843555894940236967_" inkscape:connector-curvature="0" class="st3" d="
		M178.1,112.1c-0.1,0.5-0.2,1.2-0.4,2.1c-0.2,0.9-0.3,1.7-0.4,2.1c0,0.1-0.2,0.3-0.3,0.3c-0.5,0.1-1,0.1-1.5,0.1s-1,0-1.5-0.1
		c-0.1,0-0.2-0.1-0.3-0.1c0-0.1,0-0.2,0-0.3c0.1-0.5,0.2-1.1,0.4-2c0.2-0.9,0.3-1.6,0.4-2c0.3-1.5,0.5-2.8,0.6-4.3
		c0-0.1,0-0.1,0-0.2s0.1-0.2,0.3-0.2c0.2,0,0.5,0,0.8,0.1c0.4,0,0.6,0.1,0.8,0.1c0.2,0,0.5,0,0.8-0.1c0.4,0,0.6-0.1,0.8-0.1
		c0.2,0,0.2,0.1,0.2,0.2c0,0,0,0.1-0.1,0.2C178.7,109.1,178.4,110.6,178.1,112.1L178.1,112.1z M179.6,104.9
		c-0.2,1.1-0.9,1.7-2.2,1.7c-0.5,0-0.9-0.1-1.3-0.5c-0.4-0.3-0.5-0.7-0.4-1.3c0.1-0.5,0.4-0.9,0.8-1.2c0.4-0.3,0.9-0.5,1.4-0.5
		s0.9,0.2,1.2,0.5C179.6,104,179.7,104.4,179.6,104.9z"/>
	<path id="path14_00000067228360181778330670000017096500663358505874_" inkscape:connector-curvature="0" class="st3" d="
		M190.6,111.8c-0.2,1.3-0.8,2.5-1.8,3.4c-0.9,0.9-2.2,1.4-3.5,1.4c-0.6,0-1-0.1-1.6-0.4s-0.7-0.4-0.7-0.4c-0.1,0-0.2,0.1-0.2,0.3
		c-0.1,0.4-0.1,0.8-0.2,1.5c-0.1,0.6-0.2,1.1-0.2,1.5c0,0.2-0.2,0.4-0.4,0.3l0,0h-1.9c-0.3,0-0.6,0-0.8-0.1c-0.2,0-0.3-0.2-0.3-0.3
		c0,0,0,0,0-0.1l1.3-7.4c0.3-1.3,0.4-2.5,0.4-3.8c0-0.1,0-0.1,0-0.2s0.1-0.2,0.2-0.2c0.5-0.2,1-0.3,1.5-0.3c0.5-0.1,1-0.2,1.6-0.2
		c0.3,0,0.4,0.2,0.4,0.5c0,0.4,0,0.5,0,0.5c-0.1,0,0.3-0.2,0.9-0.6s1.3-0.6,1.7-0.6c1.4,0,2.4,0.5,3.1,1.4
		C190.6,109.2,190.9,110.4,190.6,111.8L190.6,111.8z M187,111.8c0.1-0.5,0-0.9-0.3-1.4c-0.3-0.4-0.7-0.6-1.2-0.6
		c-0.6,0-1,0.2-1.4,0.6s-0.6,0.8-0.6,1.4c-0.1,0.6,0,1,0.2,1.4c0.3,0.4,0.6,0.6,1.1,0.6C186.1,113.7,186.8,113.1,187,111.8
		L187,111.8z"/>
	<path id="path16_00000106841882197712165270000005318335051540062615_" inkscape:connector-curvature="0" class="st3" d="
		M195.4,112.1c-0.1,0.5-0.2,1.2-0.4,2.1c-0.2,0.9-0.3,1.7-0.4,2.1c0,0.1-0.2,0.3-0.3,0.3c-0.5,0.1-1,0.1-1.5,0.1s-1,0-1.5-0.1
		c-0.1,0-0.2-0.1-0.3-0.1c0-0.1,0-0.2,0-0.3c0.1-0.5,0.2-1.1,0.4-2c0.2-0.9,0.3-1.6,0.4-2c0.3-1.5,0.5-2.8,0.6-4.3
		c0-0.1,0-0.2,0-0.2c0-0.1,0.1-0.2,0.3-0.2c0.2,0,0.5,0,0.8,0.1c0.4,0,0.6,0.1,0.8,0.1c0.2,0,0.5,0,0.8-0.1c0.4,0,0.6-0.1,0.8-0.1
		c0.2,0,0.2,0.1,0.2,0.2c0,0,0,0.1-0.1,0.2C195.9,109.1,195.6,110.6,195.4,112.1L195.4,112.1z M196.9,104.9
		c-0.2,1.1-0.9,1.7-2.2,1.7c-0.5,0-0.9-0.1-1.3-0.5c-0.4-0.3-0.5-0.7-0.4-1.3c0.1-0.5,0.4-0.9,0.8-1.2c0.4-0.3,0.9-0.5,1.4-0.5
		s0.9,0.2,1.2,0.5C196.9,104,196.9,104.4,196.9,104.9z"/>
	<path id="path18_00000000187348233410281250000014344891813458021005_" inkscape:connector-curvature="0" class="st3" d="
		M203.4,113.6c-0.1,0.3-0.1,0.6-0.2,0.9s-0.2,0.6-0.2,0.8c0,0.1-0.1,0.3-0.1,0.4c-0.1,0.1-0.2,0.2-0.4,0.2c-0.9,0.5-1.8,0.6-2.8,0.6
		c-1.8,0-2.7-0.7-2.4-2.1c0.1-0.5,0.2-1.1,0.4-1.9c0.2-0.8,0.3-1.5,0.4-1.9c0.1-0.3-0.1-0.5-0.5-0.5h-0.1c-0.1,0-0.1,0-0.1,0
		c-0.3,0-0.4-0.1-0.3-0.3c0-0.1,0.1-0.3,0.1-0.5c0.1-0.2,0.1-0.4,0.1-0.5s0.1-0.4,0.1-0.6s0.1-0.5,0.1-0.6s0.3-0.2,0.6-0.2
		c0.3,0,0.4-0.1,0.4-0.2c0.1-0.4,0.2-0.7,0.3-1.2c0.1-0.8,0.2-1.2,0.2-1.2c0.1-0.7,0.3-1.1,0.4-1.1c0.3,0,0.5,0.1,0.7,0.1
		c0.3,0.1,0.5,0.1,0.7,0.2c0.3,0,0.8,0.1,1.5,0.2c0.2,0,0.2,0.1,0.2,0.2c0,0.3-0.1,0.6-0.3,1.2c-0.1,0.6-0.2,0.9-0.3,1.2
		c-0.1,0.3,0,0.5,0.2,0.5s0.6,0,1,0c0.5,0,0.8,0,1,0s0.2,0.1,0.2,0.2c0,0.2-0.1,0.4-0.2,0.6c-0.1,0.3-0.2,0.6-0.2,0.6
		c0,0.2-0.1,0.4-0.1,0.6c-0.1,0.3-0.1,0.6-0.1,0.6s-0.1,0.2-0.3,0.2c-0.1,0-0.4,0-0.6,0s-0.6,0-0.6,0h-0.8c-0.1,0-0.2,0.2-0.2,0.5
		l-0.1,0.6c-0.1,0.3-0.1,0.6-0.1,0.6c-0.1,0.6-0.1,0.9,0,1.1c0.1,0.3,0.5,0.4,0.9,0.4c0.3,0,0.5-0.1,0.7-0.1
		c0.2-0.1,0.5-0.1,0.6-0.1C203.4,113.4,203.4,113.4,203.4,113.6L203.4,113.6z"/>
	<path id="path20_00000112599758054369328530000010460673713046477202_" inkscape:connector-curvature="0" class="st3" d="
		M213.9,111.7c-0.2,1.4-0.9,2.7-1.9,3.6s-2.4,1.4-3.8,1.4s-2.5-0.5-3.2-1.4s-1-2-0.7-3.5s0.9-2.7,1.9-3.6s2.3-1.4,3.8-1.4
		s2.6,0.5,3.3,1.4C214,109.1,214.2,110.2,213.9,111.7L213.9,111.7z M210.8,111.7c0.1-0.5,0-0.9-0.3-1.4c-0.3-0.4-0.6-0.6-1.1-0.6
		c-0.6,0-1,0.2-1.4,0.6s-0.6,0.8-0.7,1.3s0,0.9,0.2,1.4c0.3,0.4,0.6,0.6,1.1,0.6c0.6,0,1-0.2,1.4-0.6
		C210.4,112.7,210.7,112.2,210.8,111.7z"/>
	<path id="path22_00000036935183814822961810000013457843572862102971_" inkscape:connector-curvature="0" class="st3" d="
		M214.7,105.1L214.7,105.1c-0.1,0-0.1,0-0.2,0s-0.1,0-0.2,0l0,0l0,0V105c0-0.1-0.1-0.2-0.1-0.3c0,0,0,0-0.1,0H214l0,0
		c0,0,0,0.1,0,0.2s0,0.1,0,0.2l0,0l0,0h-0.2c-0.1,0-0.1,0-0.2,0l0,0c0-0.1,0-0.2,0-0.3c0-0.1,0-0.2,0-0.3c0-0.3,0-0.5,0-0.6l0,0l0,0
		c0,0,0.1,0,0.3,0h0.3c0.1,0,0.2,0,0.4,0.1c0.1,0.1,0.2,0.2,0.2,0.3c0,0.1,0,0.2,0,0.2c0,0.1-0.1,0.1-0.1,0.2l0,0l0.1,0.2
		C214.6,104.9,214.7,105,214.7,105.1L214.7,105.1z M214.3,104.3c0-0.1,0-0.1-0.1-0.2c-0.1,0-0.1,0-0.2,0s-0.1,0-0.1,0
		c0,0.1,0,0.1,0,0.2c0,0,0,0,0,0.1c0,0,0,0,0,0.1l0,0h0.1C214.3,104.4,214.3,104.4,214.3,104.3L214.3,104.3z"/>
	<path id="path24_00000078038340095327288390000017739941267448911766_" inkscape:connector-curvature="0" class="st3" d="
		M214.2,105.7c-0.6,0-1.2-0.6-1.2-1.2s0.6-1.2,1.2-1.2s1.2,0.6,1.2,1.2l0,0C215.4,105.2,214.8,105.7,214.2,105.7z M214.2,103.4
		c-0.6,0-1,0.5-1,1s0.5,1,1,1s1-0.5,1-1l0,0C215.2,103.9,214.7,103.4,214.2,103.4z"/>
	
		<g id="flowRoot836_00000026136249551907959720000012937313474856508333_" transform="matrix(1.034526,0,0,1.1776898,11.148307,9.5310324)">
		<path id="path4830_00000142146233046536734390000000403189740795279028_" inkscape:connector-curvature="0" d="M142.7,98.8v-4.5
			h1.2c0.5,0,0.7,0,0.9,0.1c0.2,0.1,0.4,0.2,0.6,0.5c0.2,0.2,0.2,0.6,0.2,0.9s-0.1,0.6-0.2,0.8c-0.1,0.2-0.3,0.4-0.5,0.5
			s-0.5,0.1-0.9,0.1h-0.5v1.7L142.7,98.8z M143.5,95v1.3h0.5c0.3,0,0.5,0,0.6-0.1c0.1,0,0.2-0.1,0.3-0.2c0.1-0.1,0.1-0.2,0.1-0.4
			c0-0.2,0-0.3-0.1-0.4s-0.2-0.2-0.3-0.2s-0.3-0.1-0.6-0.1C143.8,95,143.5,95,143.5,95z"/>
		<path id="path4832_00000026139590364854479630000002304444065812379269_" inkscape:connector-curvature="0" d="M146.2,98.8v-4.5
			h1.6c0.4,0,0.7,0,0.8,0.1c0.2,0.1,0.3,0.2,0.5,0.5c0.1,0.2,0.2,0.5,0.2,0.7c0,0.4-0.1,0.6-0.3,0.8c-0.2,0.2-0.4,0.4-0.7,0.4
			c0.2,0.1,0.3,0.3,0.4,0.4s0.3,0.4,0.5,0.7l0.5,0.9h-0.9l-0.6-1c-0.2-0.4-0.4-0.6-0.4-0.6c-0.1-0.1-0.2-0.2-0.2-0.2
			c-0.1,0-0.2-0.1-0.4-0.1H147v1.9L146.2,98.8z M146.9,96.2h0.6c0.4,0,0.6,0,0.6,0c0.1,0,0.2-0.1,0.2-0.2c0.1-0.1,0.1-0.2,0.1-0.4
			c0-0.2,0-0.3-0.1-0.4S148.2,95,148,95c-0.1,0-0.3,0-0.6,0h-0.5L146.9,96.2z"/>
		<path id="path4834_00000158731188244986005910000010696759207161414296_" inkscape:connector-curvature="0" d="M149.9,98.8v-4.5
			h0.7v4.5H149.9z"/>
		<path id="path4836_00000108993315378604362730000001363414017076342707_" inkscape:connector-curvature="0" d="M151.3,96.6
			c0-0.6,0.1-1,0.3-1.3c0.2-0.4,0.4-0.6,0.6-0.7s0.6-0.3,0.9-0.3c0.6,0,0.9,0.2,1.3,0.6s0.5,1,0.5,1.7s-0.2,1.4-0.6,1.7
			c-0.3,0.4-0.7,0.6-1.3,0.6c-0.6,0-0.9-0.2-1.3-0.6C151.4,98,151.3,97.3,151.3,96.6z M152,96.6c0,0.6,0.1,0.9,0.3,1.2
			c0.2,0.3,0.5,0.4,0.7,0.4c0.3,0,0.6-0.1,0.7-0.4c0.2-0.3,0.3-0.6,0.3-1.2s-0.1-0.9-0.3-1.2c-0.2-0.3-0.5-0.4-0.7-0.4
			c-0.3,0-0.6,0.1-0.7,0.4C152.1,95.7,152,96,152,96.6z"/>
		<path id="path4838_00000176725420553591583060000006989794758178405292_" inkscape:connector-curvature="0" d="M155.4,98.8v-4.5
			h1.6c0.4,0,0.7,0,0.8,0.1c0.2,0.1,0.3,0.2,0.5,0.5c0.1,0.2,0.2,0.5,0.2,0.7c0,0.4-0.1,0.6-0.3,0.8c-0.2,0.2-0.4,0.4-0.7,0.4
			c0.2,0.1,0.3,0.3,0.4,0.4s0.3,0.4,0.5,0.7l0.5,0.9H158l-0.6-1c-0.2-0.4-0.4-0.6-0.4-0.6c-0.1-0.1-0.2-0.2-0.2-0.2
			c-0.1,0-0.2-0.1-0.4-0.1h-0.2v1.9L155.4,98.8z M156.1,96.2h0.6c0.4,0,0.6,0,0.6,0c0.1,0,0.2-0.1,0.2-0.2c0.1-0.1,0.1-0.2,0.1-0.4
			c0-0.2,0-0.3-0.1-0.4s-0.1-0.2-0.3-0.2c-0.1,0-0.3,0-0.6,0h-0.5L156.1,96.2z"/>
		<path id="path4840_00000018223542664905615440000016014065601127575438_" inkscape:connector-curvature="0" d="M159.1,98.8v-4.5
			h0.7v4.5H159.1z"/>
		<path id="path4842_00000179616708632735327640000008026221262753446024_" inkscape:connector-curvature="0" d="M161.4,98.8V95
			h-1.1v-0.7h2.9V95h-1.1v3.8H161.4z"/>
		<path id="path4844_00000030449013514454315150000018380253803489650618_" inkscape:connector-curvature="0" d="M164.7,98.8v-1.9
			l-1.4-2.7h0.9l0.9,1.7l0.8-1.7h0.8l-1.4,2.7v1.9H164.7z"/>
		<path id="path4846_00000065044196584201328440000000517994622315569833_" inkscape:connector-curvature="0" d="M168.6,98.8v-4.5
			h1.2c0.5,0,0.7,0,0.9,0.1c0.2,0.1,0.4,0.2,0.6,0.5c0.2,0.2,0.2,0.6,0.2,0.9s-0.1,0.6-0.2,0.8c-0.1,0.2-0.3,0.4-0.5,0.5
			s-0.5,0.1-0.9,0.1h-0.5v1.7L168.6,98.8z M169.3,95v1.3h0.5c0.3,0,0.5,0,0.6-0.1c0.1,0,0.2-0.1,0.3-0.2c0.1-0.1,0.1-0.2,0.1-0.4
			c0-0.2,0-0.3-0.1-0.4s-0.2-0.2-0.3-0.2c-0.1,0-0.3-0.1-0.6-0.1C169.7,95,169.3,95,169.3,95z"/>
		<path id="path4848_00000005240492241742536160000008538441099699038341_" inkscape:connector-curvature="0" d="M175,98.8h-0.8
			l-0.4-1h-1.5l-0.3,1h-0.7l1.5-4.5h0.8L175,98.8z M173.6,97.1l-0.6-1.7l-0.5,1.7H173.6z"/>
		<path id="path4850_00000038410305754124832900000006791646747306794902_" inkscape:connector-curvature="0" d="M175.4,98.8v-4.5
			h1.6c0.4,0,0.7,0,0.8,0.1c0.2,0.1,0.3,0.2,0.5,0.5c0.1,0.2,0.2,0.5,0.2,0.7c0,0.4-0.1,0.6-0.3,0.8c-0.2,0.2-0.4,0.4-0.7,0.4
			c0.2,0.1,0.3,0.3,0.4,0.4s0.3,0.4,0.5,0.7l0.5,0.9H178l-0.6-1c-0.2-0.4-0.4-0.6-0.4-0.6c-0.1-0.1-0.2-0.2-0.2-0.2
			c-0.1,0-0.2-0.1-0.4-0.1h-0.2v1.9L175.4,98.8z M176.1,96.2h0.6c0.4,0,0.6,0,0.6,0c0.1,0,0.2-0.1,0.2-0.2c0.1-0.1,0.1-0.2,0.1-0.4
			c0-0.2,0-0.3-0.1-0.4s-0.1-0.2-0.3-0.2c-0.1,0-0.3,0-0.6,0H176L176.1,96.2z"/>
		<path id="path4852_00000036972996036887382390000009688038721949453734_" inkscape:connector-curvature="0" d="M181.5,97.1
			l0.7,0.3c-0.1,0.6-0.3,0.9-0.6,1.1c-0.3,0.3-0.6,0.4-1,0.4c-0.5,0-0.9-0.2-1.2-0.6c-0.4-0.5-0.6-1-0.6-1.7s0.2-1.4,0.6-1.8
			c0.3-0.4,0.7-0.6,1.2-0.6s0.7,0.2,1,0.5c0.2,0.2,0.4,0.5,0.5,0.9l-0.7,0.2c-0.1-0.3-0.2-0.5-0.3-0.6c-0.2-0.1-0.3-0.2-0.5-0.2
			c-0.3,0-0.5,0.1-0.6,0.4s-0.3,0.6-0.3,1.2s0.1,1,0.3,1.2c0.2,0.3,0.4,0.4,0.6,0.4s0.4-0.1,0.6-0.2
			C181.4,97.8,181.4,97.5,181.5,97.1z"/>
		<path id="path4854_00000076585523372414981080000004188293606134957235_" inkscape:connector-curvature="0" d="M182.9,98.8v-4.5
			h2.8V95h-2v1h1.8v0.7h-1.8v1.2h2.1v0.7L182.9,98.8z"/>
		<path id="path4856_00000173852007074079873240000013328231994382787476_" inkscape:connector-curvature="0" d="M186.3,98.8v-4.5
			h0.7v3.8h1.8v0.7H186.3z"/>
	</g>
	<g id="g1101_00000165231322233154451600000017322676454079466629_" transform="translate(-6.2717779,1.456451)">
		<path id="path995_00000106115368203958351440000014132364997042964402_" inkscape:connector-curvature="0" class="st3" d="
			M157.4,110.2l-8.8,5.4L149,126l8.8-5.4L157.4,110.2z"/>
		<path id="path995-9-6_00000118389623115688599170000006828195017984550801_" inkscape:connector-curvature="0" class="st4" d="
			M148.3,105.2l-8.8,5.4l9.1,4.9l8.8-5.4L148.3,105.2z"/>
		<path id="path995-9-2_00000039098817551268567490000011030713287374546071_" inkscape:connector-curvature="0" class="st5" d="
			M139.5,110.8l0.4,10.4l9.1,4.9l-0.4-10.4L139.5,110.8z"/>
	</g>
	<path id="path1103_00000019666501706758694650000012707711491820780161_" inkscape:connector-curvature="0" class="st6" d="
		M147.5,113.7l-2.1,1.2l-6.4-3.8l-3.4,2.4l6.8,3.6l-2.2,1.7l6.3-0.3L147.5,113.7z"/>
</g>
<g id="layer1_00000129173963750877396530000007574617306502046641_" transform="matrix(0.18236848,0,0,0.18236848,244.24304,-25.460924)" inkscape:label="Layer 1">
	<g id="flowRoot868_00000048493532989937018310000007567902086276267666_" transform="matrix(0.26458333,0,0,0.26458333,0,97)">
	</g>
	<g id="g1219_00000029731285471196415090000010380504887159758263_" transform="translate(-11.112501,79.375004)">
		<g id="g858_00000011736720248028196050000008112620681403715493_" transform="translate(6.0223388e-7,4.2578125e-6)">
			
				<path id="path838_00000011033369196311262100000008685925320712643251_" inkscape:connector-curvature="0" sodipodi:nodetypes="cccsscccsssc" class="st7" d="
				M43.7,144.6c30,6.2,58.5,13.1,88.6,18.8c0,0-0.3,0.2,20.2,4.8c1.9,0.5,4.1,0.9,5.3,2.4c1.5,1.9,1.9,4.9,1.5,7.2
				c-1.2,7-3.7,9.4-6.4,13.6c-1.6,3.7-121.5,45.8-115.7,46.6c39.6-0.2,79.8,0.1,119.6,0l0,0c0,0,13.6-63.7,19.6-92.6
				c0.2-0.7-1.1-1.3-1.9-1.3C128.8,144.8,43.7,144.6,43.7,144.6z"/>
			
				<path id="path849_00000023250983641853998090000015901530366296822660_" inkscape:connector-curvature="0" sodipodi:nodetypes="ccsccsccsccscscscsc" class="st7" d="
				M24.3,238.5l15-70.9c0,0,0.4-0.8,0.7-1.1s1.1-0.5,1.1-0.5l74.7,0.1c0,0,22.4,0.6,21,5.3l-0.3,1l-55.4-0.1c0,0-1.1-0.2-1.3,0.3
				C79.5,173,80,174,80,174l7.6,23.7c0,0,0.5,1.8,1.2,1.6c2.2-0.6,4.1-1.6,4.1-1.6s19.3-8.9,37.1-12.6c9.3-1.9,14.4-1,14.4-1
				s1.1-0.1,0.9,1.3c-0.1,0.5-1.2,0.9-1.2,0.9s-44.7,14.8-47.4,16.1C72.4,214.1,24.3,238.5,24.3,238.5z"/>
			
				<path id="path853_00000154426550198749759160000014333819634302173374_" inkscape:connector-curvature="0" sodipodi:nodetypes="sscscscssccsssssssss" class="st7" d="
				M123.4,177.7c0,0.6,0.5,1.4,1.1,1.4l6.5-0.1c0,0,8.6-1.3,13-1.6c1.7-0.1,5.1,0,5.1,0s0.9,0.3,1.1,0.7c0.4,0.6,0.3,2.2,0.3,2.2
				s-1.3,4.4-2.5,6.3c-0.2,0.3,0.2,0.7,0.4,0.9c0.3,0.3,1.2,0.1,1.2,0.1l3-5.1c0,0,1.2-2.6,1.5-4c0.1-0.9,0.2-1.8,0-2.6
				c-0.2-0.6-0.5-1.2-1-1.6c-0.8-0.7-1.9-0.9-2.9-1.1c-4-0.8-7.7-0.7-12.3-0.3c-0.8,0.1-1.2,1.3-1.8,1.8c-0.7,0.5-1.3,1-2.1,1.1
				c-3.1,0.5-6,0.8-9.3,1.1C123.9,176.7,123.4,177.2,123.4,177.7z"/>
		</g>
		<path id="path888_00000152961443439501290160000000280112099734461101_" inkscape:connector-curvature="0" class="st8" d="
			M192.2,189.8v2.5h396.9v-2.5H192.2z"/>
		<g id="g1170_00000000184169310267685490000014717392425763808424_">
			
				<path id="path892_00000150078777212772762850000010801853997905326976_" inkscape:connector-curvature="0" sodipodi:nodetypes="ccccscsccccccscsccc" class="st7" d="
				M201.3,144.2h8.7l-3.9,20.6c-0.2,0.7-0.3,1.4-0.3,2c-0.1,0.6-0.1,1.1-0.1,1.5c0,1.5,0.4,2.6,1.2,3.4c0.8,0.7,2,1.1,3.5,1.1
				c2.1,0,3.7-0.6,4.8-1.8s2-3.3,2.5-6.1l3.9-20.6l10.9,0.2l-3.9,21.2c-1,5.1-3.2,8.6-5.9,10.9c-2.7,2.3-8.7,3.6-13.8,3.6
				c-4,0-7.8-0.9-9.8-2.6c-2.1-1.8-2.7-3.5-2.7-6.9c0-0.6,0.6-2.7,0.7-3.4c0.1-0.7,0.2-1.5,0.4-2.4L201.3,144.2z"/>
			
				<path id="path894_00000145762275157243028470000002519353921901331100_" inkscape:connector-curvature="0" sodipodi:nodetypes="ccccccccccccc" class="st7" d="
				M238.8,144.2l11.8,0.4l8.5,25.3l1.7-25.7h10.3l-6.9,35l-5.8,0.5l-5.6-1.1l-7.7-23.8l-4.1,24.4l-4.3,0.3l-4.3-0.9L238.8,144.2z"/>
			<path id="path896_00000108295003652611488520000000423865009076985278_" inkscape:connector-curvature="0" class="st7" d="
				M277.4,144.2h8.7l-6.6,34.4h-8.7L277.4,144.2z"/>
			<path id="path898_00000044149475975696288960000008853828659540343939_" inkscape:connector-curvature="0" class="st7" d="
				M290.6,144.2h31l-1.3,6.7h-11.2l-5.3,27.7h-8.7l5.3-27.7h-11.2L290.6,144.2z"/>
			
				<path id="path900_00000044172070688543093380000011102545436350629786_" inkscape:connector-curvature="0" sodipodi:nodetypes="ccccccccccccc" class="st7" d="
				M326,144.2l24.7,0.6l-0.7,5.4l-16.6,0.8l-2.2,7.4l15,0.4l-1.5,5.4l-14.8,0.8l-1.7,8.8L345,174l-1,5.4h-25L326,144.2z"/>
			
				<path id="path902_00000088108213249629832910000005703527893671379131_" inkscape:connector-curvature="0" sodipodi:nodetypes="ccscscsccscccscccsscc" class="st7" d="
				M365,150.9l-4,21h3.1c4,0,7.2-1.2,9.6-3.5c2.4-2.3,3.5-5.5,3.5-9.4c0-2.7-0.8-4.7-2.3-6.1c-1.5-1.4-3.8-2.1-6.8-2.1H365V150.9z
				 M356.7,144.3l10-0.1c4.4,0,7.4-0.3,9.6,0.2s4.6,0.8,6.1,2.1c1.5,1.2,3,2.8,3.8,4.5c0.7,1.8,0.6,5.4,0.6,7.6
				c0,3.1-0.9,5.7-2.1,8.4c-1.2,2.8-2.2,4.6-4.5,6.5c-2,1.7-4.7,4.2-7.3,4.9c-2.6,0.7-3,1.2-8.5,1.2c0,0-9.6,0-13.3-0.2
				c-1.6-0.1-1.5-0.6-1.5-0.6L356.7,144.3z"/>
			
				<path id="path905_00000024694417926731036390000001582315184611103910_" inkscape:connector-curvature="0" sodipodi:nodetypes="ccscccccsccccccccscccc" class="st7" d="
				M425,144.5l-0.8,4.8c-0.4,0.2-0.6,0.6-1.9,0.7c-2.9,0.1-4.6,0.1-7.6,0.1c-2,0-3.2,0.3-4.3,1c-1.1,0.7-1,1.7-1,3
				c0.9,2.4,1.6,2.5,1.6,2.5c3,1.9,7.1,2.7,9.2,5.1c1.3,1.5,1.9,3.4,1.9,5.8c0,3.9-1.3,7-3.8,9.3c-2.6,2.3-5.5,3.1-9.8,3.1
				c-3.2-0.6-10.6,0.1-12.8-0.8l1.1-5.2c4-1.4,11.4,0,13-0.2c2.1-0.8,3.2-1.1,3.2-4.6c-1.7-2.9-4.6-3.7-6.1-4.5
				c-2.4-0.7-4.2-1.8-5.4-3.2c-1.2-1.5-1.8-3.4-1.8-5.7c0-3.7,1.2-6.7,3.7-8.9c2.5-2.2,5.8-3.4,10-3.4
				C417.1,143.7,421.8,143.6,425,144.5z"/>
			
				<path id="path907_00000178185476887565488080000017566029968832097955_" inkscape:connector-curvature="0" sodipodi:nodetypes="csscccscccc" class="st7" d="
				M429.4,144c0,0,21,0.4,28.6,0c1.1-0.1,0.6,2.4,0.3,3.5c-0.3,1.1-1.8,2.7-1.8,2.7l-9.8,0.2l-5.1,29.2c0,0-5.4,1-7.8,0
				c-0.6-0.2-1.4-1.2-1.4-1.2l6-28.2h-10.3L429.4,144z"/>
			
				<path id="path911_00000162318064521465265500000007443395450800522669_" inkscape:connector-curvature="0" sodipodi:nodetypes="sssccccccss" class="st7" d="
				M485.2,144.4c9.2,0,17.9,0.1,28,0c1,0,0.4,1.9,0.2,2.9s-1.3,2.9-1.3,2.9l-10.1,0.2l-5.9,29.3l-8.2-0.4l6-29.3l-10.9,0.2
				c0,0,0.4-2.8,0.7-3.7C483.9,145.6,484.3,144.4,485.2,144.4z"/>
			
				<path id="path913_00000031203067281037583960000012128526556657579909_" inkscape:connector-curvature="0" sodipodi:nodetypes="sssccccccccccsss" class="st7" d="
				M518.9,144.5c15.9-0.1,5-0.1,25.1-0.1c0.9,0-0.2,3.4-0.4,4.3c-0.3,1.1-1.4,1.5-1.4,1.5h-16.3L524,159h14.7l-0.3,3.3l-2.4,2.1
				h-13.2l-2.1,9.2l17.2,0.1l-1.3,5.8c0,0-17.5-0.4-23,0c0,0-2.3,0.1-2.2-0.1C517.3,152.1,517.9,144.5,518.9,144.5L518.9,144.5z"/>
			
				<path id="path905-0_00000079484068873850260250000002099486501153460635_" inkscape:connector-curvature="0" sodipodi:nodetypes="ccscccccsccccccccscccc" class="st7" d="
				M571.2,144.6l-0.8,4.8c-0.4,0.2-0.6,0.6-1.9,0.7c-2.9,0.1-4.6,0.1-7.6,0.1c-2,0-3.2,0.3-4.3,1c-1.1,0.7-1,1.7-1,3
				c0.9,2.4,1.6,2.5,1.6,2.5c3,1.9,7.1,2.7,9.2,5.1c1.3,1.5,1.9,3.4,1.9,5.8c0,3.9-1.3,7-3.8,9.3c-2.6,2.3-5.5,3.1-9.8,3.1
				c-3.2-0.6-10.6,0.1-12.8-0.8l1.1-5.2c4-1.4,11.4,0,13-0.2c2.1-0.8,3.2-1.1,3.2-4.6c-1.7-2.9-4.6-3.7-6.1-4.5
				c-2.4-0.7-4.2-1.8-5.4-3.2c-1.2-1.5-1.8-3.4-1.8-5.7c0-3.7,1.2-6.7,3.7-8.9c2.5-2.2,5.8-3.4,10-3.4
				C563.3,143.8,568,143.6,571.2,144.6L571.2,144.6z"/>
			
				<path id="path909-1-0_00000133524000877573073160000009193299329136094376_" inkscape:connector-curvature="0" sodipodi:nodetypes="cccccsscsssccc" class="st7" d="
				M453.6,179.8l-7.2-0.2l20.2-35.5h9.1c0,0,5.1,23.1,5.4,35.1c-0.3,0.1-0.6,0.3-2.9,0.5c-4.2,0.3-11.4,0.1-15.9,0.4
				c-1.5,0.1-2.7-0.3-3.4-0.5c-1.7-0.7,3-4.9,2.9-5.6c-0.1-0.5,10.5,0.5,10.5-0.1c-0.3-3.4-0.9-7.6-1.3-11.3
				c-0.9-8.1-0.9-8.5-1.5-10.2C463.1,163.1,460.3,169.4,453.6,179.8z"/>
		</g>
		<g id="g1185_00000099661942244257967630000005424979961752924817_">
			
				<path id="path1106_00000010999176798722708890000010302238200845415344_" inkscape:connector-curvature="0" sodipodi:nodetypes="scscscscccsscscccssssccs" class="st7" d="
				M245.1,212.2c-1.3-2.8-1.9-2.2-3-3.6c-2.5-0.9-2.9-1-5-1c-2.8,0-8.2,3.2-10.1,6c-1.9,2.7-3.2,7.1-3.2,11.2c0,2.6,0.9,3.9,2,5.4
				c1.1,1.5,4.4,2.3,6.4,2.3c1.6,0,3.5,0,4.7-0.7c1.2-0.8,5.1-3.7,6-5.2c0.8-1.4,2.4-6.7,2.8-8.5
				C246.2,216.4,245.8,213.9,245.1,212.2z M237.4,202c4.1,0,8.4,0.2,10.9,2.8c2.5,2.5,5.3,4.7,5.3,8.8c0,2.8,0.6,6.8-2.5,13.5
				c-0.8,2.5-3.1,4.7-5.5,6.8c-4.1,3-4.6,2.6-7.1,3.8c-2.5,1.2-5.6,0.8-8.8,0.8c-4.1,0-7.4-1.3-10-3.8c-2.5-2.5-3.8-5.9-3.8-10
				c0-2.8,0.4-5.5,1.1-7.9c0.8-2.5,1.9-4.7,3.4-6.7c1.8-2.4,4.4-4.8,6.9-6C229.9,203,234.2,202,237.4,202z"/>
			
				<path id="path1114_00000112607708404568484920000005168767371869108142_" inkscape:connector-curvature="0" sodipodi:nodetypes="ccccsccccccscccc" class="st7" d="
				M351.6,202.5l5.3,0.1c0.5,0,1.3,0.1,1.1,1.1l-5.8,26.8c0,0-0.2,0.7,0.1,1.1c0.2,0.3,0.7,0.2,0.7,0.2l13.4,0.1
				c1.4,0.1,1.1,0.3,1,1.2l-0.7,3.7c-0.6,0.9-0.6,1-2,1l-20.7-0.1c0,0-0.7,0.1-0.9-0.2c-0.3-0.4,0.1-1.6,0.1-1.6l6.9-32.4
				C350.2,202.3,350.3,202.5,351.6,202.5L351.6,202.5z"/>
			
				<path id="path1122_00000084516389699015852290000003857920677715811478_" inkscape:connector-curvature="0" sodipodi:nodetypes="sscccsss" class="st7" d="
				M476.5,203.6c-0.2-2.2,7-1.1,7.2-0.1c2.5,14.6,4.1,26.7,4.1,26.7l15.1-27.6h7.5c0,0-12.6,23.8-20.1,35.1
				c-0.8,1.2-8.6,1.2-8.9-0.5C478.4,219.1,478.2,219.6,476.5,203.6z"/>
			
				<path id="path905-03_00000036937628828227123630000010289313552085771921_" inkscape:connector-curvature="0" sodipodi:nodetypes="ccscccccsccccccccscccc" class="st7" d="
				M282.9,203l-0.8,4.8c-0.4,0.2-0.6,0.6-1.9,0.7c-2.9,0.1-4.6,0.1-7.6,0.1c-2,0-3.2,0.3-4.3,1c-1.1,0.7-1,1.7-1,3
				c0.9,2.4,1.6,2.5,1.6,2.5c3,1.9,7.1,2.7,9.2,5.1c1.3,1.5,1.9,3.4,1.9,5.8c0,3.9-1.3,7-3.8,9.3c-2.6,2.3-5.5,3.1-9.8,3.1
				c-3.2-0.6-10.6,0.1-12.8-0.8l1.1-5.2c4-1.4,11.4,0,13-0.2c2.1-0.8,3.2-1.1,3.2-4.6c-1.7-2.9-4.6-3.7-6.1-4.5
				c-2.4-0.7-4.2-1.8-5.4-3.2c-1.2-1.4-1.8-3.4-1.8-5.7c0-3.7,1.2-6.7,3.7-8.9s5.8-3.4,10-3.4C275,202.2,279.7,202,282.9,203z"/>
			
				<path id="path907-6_00000183948544939202413860000011765270586685686421_" inkscape:connector-curvature="0" sodipodi:nodetypes="csscccscccc" class="st7" d="
				M287.3,202.5c0,0,21,0.4,28.6,0c1.1-0.1,0.6,2.4,0.3,3.5c-0.3,1.1-1.8,2.7-1.8,2.7l-9.8,0.2l-5.1,29.2c0,0-5.4,1-7.8,0
				c-0.6-0.2-1.4-1.2-1.4-1.2l6-28.2H286L287.3,202.5z"/>
			
				<path id="path1126_00000156571490187001910630000007508246045270461056_" inkscape:connector-curvature="0" sodipodi:nodetypes="ccsccccccccsccccc" class="st7" d="
				M536.3,238.1c-4.2,0-7.6-2-10.1-4.5c-2.5-2.5-3.1-6.2-3.1-10.3c0-2.7,1.3-5.8,2.1-8.2c0.8-2.4,2.6-4.1,4.1-6.1
				c1.8-2.4,4-4.2,6.6-5.5c2.6-1.3,5.3-1.9,8.3-1.9c3.3,0.2,9,0.4,10.8,1.2l-0.9,5.5c-1.1,0.1-4.8-0.8-10.4-0.6
				c-3.9,0.5-5.8,2.7-9.2,6c-2.2,2.7-3.5,5.7-3.5,9.8c0,2.6,1.2,5.1,2.6,6.6c1.4,1.5,4.8,2.6,7.2,2.6c5.9-0.9,4.3-0.8,9.2-1.2
				c0,0-0.5,3.7-1.7,5.4C547.9,238.7,538.8,238.1,536.3,238.1L536.3,238.1z"/>
			
				<path id="path905-03-8_00000067927029573713671490000010920074102404637369_" inkscape:connector-curvature="0" sodipodi:nodetypes="ccscccccsccccccccscccc" class="st7" d="
				M409.5,202.3l-0.8,4.8c-0.4,0.2-0.6,0.6-1.9,0.7c-2.9,0.1-4.6,0.1-7.6,0.1c-2,0-3.2,0.3-4.3,1c-1.1,0.7-1,1.7-1,3
				c0.9,2.4,1.6,2.5,1.6,2.5c3,1.9,7.1,2.7,9.2,5.1c1.3,1.5,1.9,3.4,1.9,5.8c0,3.9-1.3,7-3.8,9.3c-2.6,2.3-5.5,3.1-9.8,3.1
				c-3.2-0.6-10.6,0.1-12.8-0.8l1.1-5.2c4-1.4,11.4,0,13-0.2c2.1-0.8,3.2-1.1,3.2-4.6c-1.7-2.9-4.6-3.7-6.1-4.5
				c-2.4-0.7-4.2-1.8-5.4-3.2c-1.2-1.4-1.8-3.4-1.8-5.7c0-3.7,1.2-6.7,3.7-8.9c2.5-2.2,5.8-3.4,10-3.4
				C401.6,201.5,406.3,201.3,409.5,202.3z"/>
			
				<path id="path913-2_00000000208180293407971010000016337121437277655704_" inkscape:connector-curvature="0" sodipodi:nodetypes="sssccccccccccsss" class="st7" d="
				M415.9,202.9c15.9-0.1,5-0.1,25.1-0.1c0.9,0-0.2,3.4-0.4,4.3c-0.3,1.1-1.4,1.5-1.4,1.5h-16.3l-1.8,8.8h14.7l-0.3,3.3l-2.4,2.1
				h-13.2l-2.1,9.2l17.2,0.1l-1.3,5.8c0,0-17.5-0.4-23,0c0,0-2.3,0.1-2.2-0.1C414.4,210.5,415,202.9,415.9,202.9L415.9,202.9z"/>
			<path id="path896-8_00000155135357104376148120000015496738631141574840_" inkscape:connector-curvature="0" class="st7" d="
				M513.8,202.6h8.7l-6.6,34.4h-8.7L513.8,202.6z"/>
			
				<path id="path913-1_00000000933090553536422450000014805069802808018560_" inkscape:connector-curvature="0" sodipodi:nodetypes="sssccccccccccsss" class="st7" d="
				M561.2,202.7c15.9-0.1,5-0.1,25.1-0.1c0.9,0-0.2,3.4-0.4,4.3c-0.3,1.1-1.4,1.5-1.4,1.5h-16.3l-1.8,8.8h14.7l-0.3,3.3l-2.4,2.1
				h-13.2l-2.1,9.2l17.2,0.1l-1.3,5.8c0,0-17.5-0.4-23,0c0,0-2.3,0.1-2.2-0.1C559.7,210.3,560.3,202.7,561.2,202.7L561.2,202.7z"/>
			
				<path id="path909-1_00000147931100349372614860000016539771214992802972_" inkscape:connector-curvature="0" sodipodi:nodetypes="cccccsscsssccc" class="st7" d="
				M310.5,237.7l-7.2-0.2l20.2-35.5h9.1c0,0,5.1,23.1,5.4,35.1c-0.3,0.1-0.6,0.3-2.9,0.5c-4.2,0.3-11.4,0.1-15.9,0.4
				c-1.5,0.1-2.7-0.3-3.4-0.5c-1.7-0.7,3-4.9,2.9-5.6c-0.1-0.5,10.5,0.5,10.5-0.1c-0.3-3.4-0.9-7.6-1.3-11.3
				c-0.9-8.1-0.9-8.5-1.5-10.2C320,221.1,317.2,227.4,310.5,237.7z"/>
			
				<path id="path1145_00000169548558482182220460000011834006452363086980_" inkscape:connector-curvature="0" sodipodi:nodetypes="ccccsssssccssccccccccc" class="st7" d="
				M182.8,236.8c0.2-0.4,6.5-32.6,6.5-32.6l0.5-1.1l1.1-0.6c0,0,10.5,0,17.7,0.3c1.5,0.1,3,1.1,3.9,2.3c1.5,2.2,1.9,5.2,1.6,7.9
				c-0.3,2.4-1.4,4.8-3,6.5c-2.3,2.4-6.5,4.6-8.7,4.8c-1.7,0.1-5.2,0-5.2,0c-1.7-0.8-2.4-2.4-1.4-5.1c1.9,0.1,2.3,0.4,4.8-0.1
				c2.9-0.6,4.6-1.5,6-5.8c0.3-0.9,0-2.8,0-2.8l-0.8-1.2c0,0-1.6-0.9-2.4-0.9c-2.5,0-4.9-0.5-7.2,0.2l-5.8,27.7l-0.6,0.9l-1.6,0.6
				l-4.8-0.5L182.8,236.8z"/>
			
				<path id="path1147_00000034772029760798859230000011266828877097127869_" inkscape:connector-curvature="0" sodipodi:nodetypes="cccccccssssscsccsccsccccscccc" class="st9" d="
				M441,237.8l-1.1-0.5l-0.1-1.4l6.9-32.2l0.4-0.6l1.1-0.7l16.8,0.2c0,0,2.8,0.5,4,1.2c0.9,0.5,1.8,1.2,2.3,2.1
				c1,1.7,1.3,3.9,1.1,5.9c-0.2,2.4-1.2,4.9-2.6,6.9c-0.8,1.1-1.9,1.8-3,2.5c-1.2,0.7-3,0.6-4,1.5c-0.2,0.4-0.3,1.1,0.1,2
				c1.3,3.5,5.7,12.7,4.8,13l-7,0.2c0,0-1.1-0.6-1.4-0.9c-0.6-0.6-0.9-2.1-0.9-2.1l-4.9-15.9c0,0,0-0.5,0.2-0.5c3-0.1,4.7,0,4.7,0
				c2.7-0.5,4.8-1.7,5.7-4.2c1.1-2.7,0.7-4.3-0.4-4.9c-3.1-1.4-6.1-1-8.6-1c0,0-1.7,0.9-1.9,1.7c-2.6,12.6-5.7,26.8-5.7,26.8
				l-0.4,0.6l-1,0.5L441,237.8z"/>
		</g>
	</g>
</g>
<g id="g1316_00000073710961375476022040000010778615035440489892_" transform="matrix(0.05735587,0,0,0.05735587,48.236285,62.013081)">
	
		<g id="g10-0_00000005955248482122489160000012610098564264964017_" transform="matrix(1.3333333,0,0,-1.3333333,-72.785465,327.10266)">
		<g id="g12-6_00000032632338164085335290000018070889754406830779_" transform="scale(0.1)">
			<path id="path14-8_00000033356092637904437200000005743604849358330795_" inkscape:connector-curvature="0" class="st10" d="
				M-2406.5,1132.7c26.8,222.3,129,417.5,242.7,547h-559.8c-19.9,0-28.7-16.2-17.8-32.8L-2406.5,1132.7z M1141.7,1648.5
				C-55.5,88.2-474.7-126-1028.8-119.4c-538.1,6.6-929.4,388-936.1,909.5c-6.6,540.8,387.3,942,927.4,942
				c223,0,402-68.4,539.4-177.8l-225.5-347.5c-73.7,59.1-196,103.4-317.8,103.4c-279-0.7-492.9-209.3-492.9-505.6
				c0-295.6,220.6-493.6,505.6-493.6c271.7,0,432.5,176.7,619.2,463l589.9,905.5h946C1146.4,1679.7,1153,1664.4,1141.7,1648.5"/>
			<path id="path16-9_00000070832595791028144990000012611927247123265971_" inkscape:connector-curvature="0" class="st11" d="
				M1126.3,1679.7h-946l-589.9-905.5c-186.7-286.3-347.5-463-619.2-463c-285,0-505.6,198-505.6,493.6
				c0,296.3,213.9,504.9,492.9,505.6c121.8,0,244.1-44.3,317.8-103.4l225.5,347.5c-137.3,109.3-316.4,177.8-539.4,177.8
				c-540.1,0-934.1-401.3-927.4-942c6.6-521.5,397.9-902.9,936.1-909.5C-474.7-126-55.5,88.2,1141.7,1648.5
				C1153,1664.4,1146.4,1679.7,1126.3,1679.7z M1142.3,1812.5c88.4,0,146.8-59.1,146.8-136.2c0-40.5-11.3-68.4-48.5-116.9
				C44.1,4.2-405.7-258.9-1028.8-252.3c-611.2,6.6-1062.3,447.1-1068.9,1041.7C-2104.4,1401.3-1652,1865-1039.5,1865
				c308.1,0,554.3-119.4,716.5-290.6l-374.6-565.6c-77.2,88.6-187.4,168.6-338.6,168.6c-211.3,0-365.4-149.5-365.4-373.4
				c0-221.9,162.8-360.1,372.7-360.1c197.3,0,326.9,122.2,517.5,415.2l620.5,953.3h1033.2V1812.5z M-2723.6,1679.6
				c-19.9,0-28.7-16.2-17.8-32.8l334.9-514.1c26.8,222.3,129,417.5,242.7,547L-2723.6,1679.6z M-2325,781.4l-526.2,788.6
				c-27.2,40.5-35.2,65.8-35.2,106.3c0,77.1,58.5,136.2,146.8,136.2h879.6C-2135,1595.9-2340.9,1215.9-2325,781.4"/>
		</g>
	</g>
	<g id="flowRoot819_00000120519258363677023090000002968595829035930270_" transform="translate(-72.785465,-67.777319)">
		<path id="path827_00000130644184919401167900000011990064692834610332_" inkscape:connector-curvature="0" d="M222.8,195.5h72.5
			c21.6,0,38.1,4.8,49.6,14.4c11.6,9.5,17.4,23.1,17.4,40.8c0,17.8-5.8,31.5-17.4,41.1c-11.5,9.5-28,14.3-49.6,14.3h-28.8v58.8
			h-43.7V195.5z M266.5,227.2v47.3h24.2c8.5,0,15-2,19.6-6.1c4.6-4.2,6.9-10,6.9-17.6c0-7.6-2.3-13.4-6.9-17.5
			c-4.6-4.1-11.2-6.1-19.6-6.1C290.7,227.2,266.5,227.2,266.5,227.2z"/>
		<path id="path829_00000147898285672890976920000011173239605807755670_" inkscape:connector-curvature="0" d="M451.6,263.8
			c-9,0-15.9,3.3-20.6,9.8c-4.7,6.4-7,15.7-7,27.9s2.3,21.5,7,28c4.8,6.4,11.6,9.6,20.6,9.6c8.8,0,15.6-3.2,20.3-9.6
			c4.7-6.5,7-15.8,7-28s-2.3-21.5-7-27.9C467.2,267.1,460.4,263.8,451.6,263.8z M451.6,234.8c21.9,0,38.9,5.9,51.2,17.7
			c12.3,11.8,18.5,28.1,18.5,49c0,20.9-6.2,37.2-18.5,49c-12.3,11.8-29.3,17.7-51.2,17.7s-39.1-5.9-51.5-17.7
			c-12.3-11.8-18.5-28.1-18.5-49c0-20.9,6.2-37.2,18.5-49C412.5,240.7,429.7,234.8,451.6,234.8z"/>
		<path id="path831_00000029753212024352020790000008098431917270598548_" inkscape:connector-curvature="0" d="M650.1,241.8v30.9
			c-8.7-3.6-17.1-6.4-25.2-8.2c-8.1-1.8-15.7-2.7-22.9-2.7c-7.7,0-13.5,1-17.2,2.9s-5.6,4.8-5.6,8.8c0,3.3,1.4,5.7,4.2,7.5
			c2.9,1.7,8,3,15.3,3.9l7.1,1c20.8,2.6,34.8,7,42,13c7.2,6,10.8,15.5,10.8,28.5c0,13.5-5,23.7-15,30.5c-10,6.8-24.9,10.2-44.7,10.2
			c-8.4,0-17.1-0.7-26.1-2c-8.9-1.3-18.1-3.3-27.6-5.9v-30.9c8.1,3.9,16.4,6.9,24.8,8.8c8.5,2,17.2,2.9,26,2.9
			c7.9,0,13.9-1.1,17.9-3.3s6-5.4,6-9.8c0-3.6-1.4-6.3-4.2-8.1c-2.7-1.8-8.2-3.2-16.4-4.2l-7.1-0.9c-18.1-2.3-30.7-6.5-38-12.6
			c-7.3-6.1-10.9-15.4-10.9-27.9c0-13.5,4.6-23.4,13.8-29.9s23.4-9.8,42.4-9.8c7.5,0,15.4,0.6,23.6,1.7
			C631.5,237.6,640.4,239.4,650.1,241.8z"/>
		<path id="path833_00000152244237148832908520000016115140333859668383_" inkscape:connector-curvature="0" d="M733.6,201.8v36.1
			h41.9v29h-41.9v53.9c0,5.9,1.2,9.9,3.5,12c2.3,2,7,3.1,14,3.1H772v29h-34.8c-16,0-27.4-3.3-34.1-10c-6.7-6.7-10-18.1-10-34.1
			v-53.9h-20.2v-29H693v-36.1L733.6,201.8z"/>
	</g>
</g>
<g id="g1531_00000001664617463783670910000017483062249198979490_" transform="matrix(0.0948282,0,0,0.0948282,197.84284,84.46698)">
	
		<g id="flowRoot815_00000142177256588072051090000014424392842183508913_" transform="matrix(1.1402191,0,-0.28990749,0.90911419,-510.79284,-346.95677)">
		<path id="path857_00000145762883118064266510000012025613368364333980_" inkscape:connector-curvature="0" class="st12" d="
			M157.4,261.7c0,0.8-0.8,1.1-2.2,1.1c-1.2,0-2.9-0.1-5.3-0.3c-2.2-0.2-4-0.3-5.2-0.3c-1.2,0-3,0.1-5.3,0.3
			c-2.4,0.2-4.2,0.3-5.3,0.3c-1.8,0-4-4.7-6.8-14.2c-2.7-9.5-5.4-14.3-8.3-14.4c-2.3-0.1-8.3-0.2-18.1-0.2H86.1
			c-10.3,0-16.2,0.1-17.6,0.2c-2.3,0.2-4.7,5-7.2,14.4c-2.5,9.4-4.4,14.2-5.8,14.2H34.4c-1.2,0-1.9-0.4-1.9-1.3c0-0.6,0.4-2,1.3-4.2
			l23-62.8c1.9-5.1,7.8-19.7,17.6-43.8c1.8-4,4.1-10,7.1-18.1c0.8-2.4,1.6-3.6,2.4-3.6c1.2,0,2.9,0.2,5.3,0.5
			c2.3,0.3,4.1,0.5,5.3,0.5c1.1,0,2.8-0.2,5.1-0.5c2.3-0.4,4-0.6,5.1-0.6c0.6,0,1.3,1.2,2.3,3.5c1.5,3.5,8.9,22.3,22.2,56.5
			C148,237.1,157.4,261.3,157.4,261.7z M113.7,210c0-1.8-2.8-9.9-8.4-24.4c-5.4-14-9.3-23.2-11.5-27.6c-12.9,33-19.4,50.3-19.4,51.8
			c0,2.1,2.4,3.4,7.1,3.8c0.2,0.1,3.3,0.1,9.2,0.1h9.7C109.2,213.7,113.7,212.5,113.7,210z"/>
		<path id="path859_00000127018294882568794950000013452857041148000185_" inkscape:connector-curvature="0" class="st12" d="
			M192.3,150.7c0,7.7-4.3,11.5-12.8,11.5c-8.7,0-13-3.8-13-11.5c0-3.4,1.3-6.3,4-8.5c2.5-2.1,5.5-3.2,9-3.2c3.5,0,6.5,1.1,9,3.3
			C191.1,144.5,192.3,147.3,192.3,150.7z M191.7,176.2c0,4.8-0.3,12.1-0.9,21.8c-0.6,9.7-0.8,17-0.8,21.8c0,4.6,0.1,11.4,0.3,20.5
			c0.2,9.1,0.3,15.8,0.3,20.3c0,1.3-0.6,2-1.7,2h-18.3c-1.3,0-2-1.3-2-3.8c0-4.3,0.1-10.8,0.3-19.4c0.3-8.7,0.4-15.2,0.4-19.6
			c0-4.9-0.4-12.2-1.1-21.9c-0.7-9.8-1-17.1-1-21.9c0-1.1,0.7-1.6,2-1.6c1.1,0,2.8,0.2,5.2,0.5s4.2,0.5,5.3,0.5
			c1.2,0,2.9-0.2,5.3-0.5c2.4-0.3,4.2-0.5,5.3-0.5C191.1,174.4,191.7,175,191.7,176.2z"/>
		<path id="path861_00000122716105502208898080000008589030203317434809_" inkscape:connector-curvature="0" class="st12" d="
			M264,174.8c0,6.9-0.5,13.1-1.4,18.8c-0.2,1.4-0.8,2.2-1.9,2.2c-1.3,0-3.3-0.1-6-0.4c-2.6-0.3-4.6-0.5-6-0.5
			c-7.9,0-12.9,2.2-15.1,6.7c-1.3,2.7-2,8.3-2,16.8v10.3c0,3.5,0.1,8.8,0.4,15.9c0.3,7.1,0.5,12.4,0.5,15.9c0,1.7-0.7,2.5-2.2,2.5
			c-1.9,0-4.9,0-8.8-0.1s-6.9-0.1-8.8-0.1c-1.4,0-2.2-0.8-2.2-2.3c0-5.1,0.1-12.7,0.2-22.9c0.2-10.2,0.3-17.8,0.3-23
			c0-15.4-1.4-27.8-4.3-37.2c-0.1-0.5-0.2-0.9-0.2-1.1c0-0.8,0.4-1.3,1.2-1.6c2.3-0.2,5.6-0.6,9.8-1.1c6.8-1.2,9.9-1.9,9.4-1.9
			c1,0,1.7,1.8,2,5.5s0.9,5.5,1.7,5.5c0.1,0,0.3-0.1,0.5-0.2c2.6-1.6,5.1-3.3,7.7-4.9c2.8-1.7,5.7-2.9,8.6-3.8
			c2.4-0.8,5.6-1.1,9.4-1.1C261.5,172.9,264,173.5,264,174.8z"/>
		<path id="path863_00000031166956380896780830000015117302068510498973_" inkscape:connector-curvature="0" class="st12" d="
			M417,259.4c0,2.4-0.7,3.7-2.2,3.7c-0.9,0-2.4-0.1-4.3-0.3c-1.9-0.2-3.3-0.3-4.3-0.3c-1.1,0-2.7,0.1-4.8,0.2
			c-2.1,0.1-3.7,0.2-4.8,0.2c-1.3,0-2-1.5-2-4.4c0-2.9,0.1-7.2,0.3-12.8c0.2-5.8,0.4-10.1,0.4-12.9c0-15.8-0.1-24.6-0.2-26.4
			c-0.5-6.4-1.8-10.9-3.9-13.3c-2.4-2.6-6.8-3.9-13-3.9c-3.9,0-8.4,1.9-13.3,5.6c-5.1,3.9-7.8,7.8-8,11.6
			c-0.2,4.9-0.4,13.8-0.4,26.7c0,3.1,0.1,7.7,0.4,13.8c0.2,6.1,0.4,10.7,0.4,13.8c0,1.7-0.6,2.5-1.7,2.5s-2.8-0.1-5-0.3
			c-2.1-0.2-3.8-0.3-4.9-0.3c-1,0-2.5,0.1-4.4,0.2s-3.4,0.2-4.4,0.2c-1.2,0-1.9-0.9-1.9-2.7c0-3,0.1-7.5,0.3-13.5
			c0.2-6.1,0.3-10.6,0.3-13.6v-22.6c0-7.1-0.8-12.1-2.5-15.1c-2.4-4.3-6.9-6.4-13.6-6.4c-3.9,0-8.6,1.7-14.1,5c-6,3.6-9,7.3-9,11
			l0,27.4c0,3.1,0,7.8,0.1,14s0.1,10.8,0.1,13.9c0,1.8-0.7,2.7-2.2,2.7H277c-1.2,0-1.9-0.8-1.9-2.5c0-5.1,0-12.7,0.1-22.8
			c0.1-10.2,0.1-17.8,0.1-22.9c0-11.4-1.2-22.8-3.7-34.2c-0.2-0.8-0.3-1.5-0.3-2c0-0.8,0.3-1.3,0.8-1.4c2.3-0.2,5.7-0.7,10.1-1.4
			c2.1-0.6,5.2-1.3,9.3-2.1l0.8-0.1c0.8,0,1.4,2.2,2.1,6.7c0.7,4.4,1.3,6.6,1.8,6.6c0,0,1.6-1.4,4.7-4.1c3.7-3.2,7.4-5.7,11.1-7.6
			c5.3-2.8,10.6-4.1,15.9-4.1c14.4,0,23.5,5.9,27.5,17.6c3.9-5,8.7-9.1,14.4-12.4c6.1-3.5,12.2-5.3,18.2-5.3
			c11.6,0,19.6,3.4,24,10.1c3.2,5,4.8,12.9,4.8,23.7c0,2.1-0.1,5.3-0.2,9.6c-0.1,4.3-0.2,7.5-0.2,9.6c0,3.9,0.1,9.9,0.3,17.8
			C416.9,249.6,417,255.5,417,259.4L417,259.4z"/>
		<path id="path865_00000108273863108482152470000006720928228581011384_" inkscape:connector-curvature="0" class="st12" d="
			M526.8,178c0,0.2-0.1,0.8-0.3,1.7c-2.4,14.3-3.7,26.7-3.7,37c0,0.6,0.8,14.7,2.3,42.1l0.1,1.3c0.1,1.8-0.8,2.7-2.5,2.7
			s-4.3,0.2-7.8,0.6c-3.4,0.4-6,0.7-7.7,0.7c-1.2,0-2.1-2.2-2.7-6.6c-0.6-4.4-1.2-6.6-1.8-6.6c-0.4,0-2.1,1.2-5.1,3.7
			c-3.7,3-7.1,5.3-10.3,6.8c-4.9,2.5-9.9,3.8-14.8,3.8c-12.1,0-22.3-4.8-30.7-14.5c-7.9-9.3-11.8-20-11.8-32.3
			c0-13.9,4-25.3,11.9-34.4c8.3-9.4,19.2-14.2,32.8-14.2c9.6,0,17.9,3.3,25,9.9c1.1,1.2,2.7,3.1,5,5.4c0.2,0.2,0.4,0.3,0.6,0.3
			c0.4,0,0.9-2,1.6-5.9c0.7-3.9,1.6-5.9,2.6-5.9c1.7,0,4.8,0.5,9.5,1.4C524.3,176.2,526.8,177.2,526.8,178z M502.9,217.2
			c0-7.7-2.3-14.3-6.8-19.8c-4.8-5.9-11-8.9-18.5-8.9s-13.8,2.9-18.8,8.8c-4.8,5.6-7.2,12.3-7.2,19.9c0,7.6,2.4,14.1,7.2,19.7
			c5,5.8,11.3,8.7,18.8,8.7c7.3,0,13.4-3,18.4-8.9C500.6,231.2,502.9,224.7,502.9,217.2z"/>
		<path id="path867_00000014600842783327849520000004176967949259885756_" inkscape:connector-curvature="0" class="st12" d="
			M566.6,150.7c0,7.7-4.3,11.5-12.8,11.5c-8.7,0-13-3.8-13-11.5c0-3.4,1.3-6.3,4-8.5c2.5-2.1,5.5-3.2,9-3.2s6.5,1.1,9,3.3
			C565.3,144.5,566.6,147.3,566.6,150.7z M565.9,176.2c0,4.8-0.3,12.1-0.9,21.8c-0.6,9.7-0.8,17-0.8,21.8c0,4.6,0.1,11.4,0.3,20.5
			c0.2,9.1,0.3,15.8,0.3,20.3c0,1.3-0.6,2-1.7,2h-18.3c-1.3,0-2-1.3-2-3.8c0-4.3,0.1-10.8,0.3-19.4c0.2-8.7,0.4-15.2,0.4-19.6
			c0-4.9-0.4-12.2-1.1-21.9c-0.7-9.8-1-17.1-1-21.9c0-1.1,0.7-1.6,2-1.6c1.1,0,2.8,0.2,5.2,0.5s4.2,0.5,5.3,0.5s2.9-0.2,5.2-0.5
			c2.4-0.3,4.2-0.5,5.3-0.5C565.4,174.4,565.9,175,565.9,176.2z"/>
		<path id="path869_00000057116585587711945430000015360890035484777092_" inkscape:connector-curvature="0" class="st12" d="
			M608.3,132.8l-0.1,1.2c-1.4,23.3-2.1,43.2-2.1,59.9c0,7.4,0.1,18.6,0.4,33.5c0.2,14.8,0.4,25.9,0.4,33.3c0,1.4-0.5,2.2-1.5,2.2
			h-17.9c-1.1,0-1.7-0.7-1.7-2.2c0-7.4,0.1-18.5,0.2-33.3c0.1-14.9,0.2-26,0.2-33.5c0-6.8-0.3-16.9-1-30.4
			c-0.6-13.6-0.9-23.7-0.9-30.4c0-1.3,0.7-1.9,2-1.9c1.1,0,2.8,0.1,5.1,0.3c2.3,0.2,3.9,0.3,5.1,0.3c1.2,0,2.9-0.1,5.2-0.3
			s4-0.3,5.2-0.3S608.4,131.8,608.3,132.8z"/>
	</g>
	
		<g id="flowRoot831_00000106859097868648849880000015030733551201661825_" transform="matrix(1.3663738,0,0,1.5783568,-391.90354,-526.84065)">
		
			<g id="flowRoot26_00000040535916197886103030000007734971183150659216_" transform="matrix(0.69496759,0,0,0.72784201,-20.226459,118.6332)">
			<path id="path4546_00000183966075913856509510000005272581025721539724_" inkscape:connector-curvature="0" class="st13" d="
				M160,224.6h44.3l-1.5,8H168l-4,20.7h33.4l-1.5,8h-33.4l-4.9,25.4h35.6l-1.5,8h-45.1L160,224.6z"/>
			<path id="path4548_00000096761250542888457140000009423143547505536665_" inkscape:connector-curvature="0" class="st13" d="
				M256,244.1l-1.7,8.5c-2.1-1.5-4.3-2.6-6.6-3.4c-2.3-0.8-4.7-1.1-7.2-1.1c-2.8,0-5.4,0.5-7.9,1.5c-2.5,1-4.5,2.3-6.2,4.1
				c-2.7,2.7-4.8,5.9-6.2,9.6c-1.4,3.7-2.2,7.4-2.2,11.3c0,4.7,1.2,8.2,3.5,10.5c2.4,2.3,6,3.5,10.8,3.5c2.4,0,4.9-0.4,7.5-1.1
				c2.7-0.7,5.5-1.8,8.4-3.2l-1.6,8.5c-2.5,1-5.1,1.8-7.7,2.3c-2.6,0.5-5.3,0.8-8.1,0.8c-7,0-12.3-1.7-16.1-5.2
				c-3.8-3.5-5.6-8.5-5.6-15c0-5.4,1-10.4,2.9-15c2-4.6,4.9-8.7,8.7-12.4c2.6-2.5,5.7-4.4,9.2-5.7s7.4-1.9,11.6-1.9
				c2.4,0,4.9,0.3,7.3,0.8C251.1,242.2,253.5,243,256,244.1z"/>
			<path id="path4550_00000106841430075384091100000014012259618901099434_" inkscape:connector-curvature="0" class="st13" d="
				M281.8,295.9c-6.2,0-11-1.9-14.6-5.7c-3.6-3.8-5.3-9-5.3-15.6c0-3.8,0.6-7.7,1.8-11.6c1.2-4,2.9-7.3,4.8-10
				c3.1-4.2,6.5-7.3,10.4-9.3c3.8-2,8.1-3,12.9-3c6,0,10.8,1.9,14.4,5.6c3.7,3.7,5.5,8.6,5.5,14.6c0,4.2-0.6,8.3-1.8,12.4
				c-1.2,4.1-2.8,7.5-4.8,10.3c-3.1,4.2-6.5,7.3-10.3,9.3C291,294.9,286.7,295.9,281.8,295.9z M270.8,274.4c0,4.8,1,8.3,3,10.7
				c2,2.3,5,3.5,9,3.5c5.8,0,10.6-2.5,14.3-7.5c3.8-5.1,5.7-11.5,5.7-19.2c0-4.5-1-8-3-10.3c-2-2.3-5-3.5-9-3.5
				c-3.2,0-6.1,0.8-8.7,2.3c-2.5,1.5-4.8,3.8-6.8,6.9c-1.5,2.3-2.6,5-3.4,7.9C271.2,268.2,270.8,271.3,270.8,274.4z"/>
			<path id="path4552_00000021080442880701794860000008563499683563898531_" inkscape:connector-curvature="0" class="st13" d="
				M369.6,262.9l-6.1,31.7h-8.7l6.1-31.4c0.3-1.5,0.5-2.8,0.7-3.9s0.2-2,0.2-2.7c0-2.6-0.8-4.7-2.5-6.1s-4-2.2-6.9-2.2
				c-4.6,0-8.6,1.5-12,4.6c-3.3,3.1-5.5,7.2-6.6,12.5l-5.8,29.1h-8.6l10.2-52.5h8.6l-1.7,8.3c2.4-3,5.3-5.4,8.7-7s6.9-2.5,10.6-2.5
				c4.6,0,8.2,1.2,10.7,3.8c2.6,2.5,3.8,6,3.8,10.5c0,1.1-0.1,2.3-0.2,3.6C370.1,260,369.9,261.4,369.6,262.9z"/>
			<path id="path4554_00000181086499693002250130000017630573538754766998_" inkscape:connector-curvature="0" class="st13" d="
				M401.4,295.9c-6.2,0-11-1.9-14.6-5.7c-3.6-3.8-5.3-9-5.3-15.6c0-3.8,0.6-7.7,1.8-11.6c1.2-4,2.9-7.3,4.8-10
				c3.1-4.2,6.5-7.3,10.4-9.3c3.8-2,8.1-3,12.9-3c6,0,10.8,1.9,14.4,5.6c3.7,3.7,5.5,8.6,5.5,14.6c0,4.2-0.6,8.3-1.8,12.4
				c-1.2,4.1-2.8,7.5-4.8,10.3c-3.1,4.2-6.5,7.3-10.3,9.3C410.6,294.9,406.3,295.9,401.4,295.9z M390.4,274.4c0,4.8,1,8.3,3,10.7
				c2,2.3,5,3.5,9,3.5c5.8,0,10.6-2.5,14.3-7.5c3.8-5.1,5.7-11.5,5.7-19.2c0-4.5-1-8-3-10.3c-2-2.3-5-3.5-9-3.5
				c-3.2,0-6.1,0.8-8.7,2.3c-2.5,1.5-4.8,3.8-6.8,6.9c-1.5,2.3-2.6,5-3.4,7.9C390.8,268.2,390.4,271.3,390.4,274.4z"/>
			<path id="path4556_00000049220376401353193250000001227447089667764923_" inkscape:connector-curvature="0" class="st13" d="
				M522,262.9l-6.1,31.7h-8.6l6-31.4c0.2-1.3,0.4-2.5,0.6-3.5s0.2-1.8,0.2-2.5c0-2.8-0.8-5-2.3-6.6s-3.8-2.3-6.6-2.3
				c-4.2,0-7.9,1.6-11.2,4.7c-3.3,3.1-5.4,7.2-6.4,12.2l-5.8,29.3h-8.6l6.1-31.4c0.2-1.2,0.4-2.2,0.6-3.2c0.1-1,0.2-1.9,0.2-2.7
				c0-2.8-0.8-5-2.3-6.6c-1.6-1.6-3.7-2.4-6.5-2.4c-4.2,0-8,1.6-11.3,4.7s-5.4,7.2-6.4,12.2l-5.8,29.3h-8.6l10.3-52.5h8.6l-1.6,8.2
				c2.3-3.1,5.1-5.4,8.2-7c3.2-1.6,6.5-2.4,10.1-2.4c3.8,0,6.9,1,9.4,3c2.5,2,4,4.8,4.5,8.3c2.6-3.7,5.7-6.5,9.1-8.4
				c3.5-1.9,7.1-2.9,11-2.9c4.5,0,8,1.3,10.4,3.9c2.5,2.6,3.7,6.3,3.7,11c0,1-0.1,2.2-0.2,3.4C522.4,260.4,522.2,261.6,522,262.9z"
				/>
			<path id="path4558_00000103240940142768805160000015204047707863259304_" inkscape:connector-curvature="0" class="st13" d="
				M553.1,299.5c-4,6.7-7.3,10.9-9.8,12.6s-5.7,2.5-9.6,2.5h-6.8l1.5-7.2h5c2.4,0,4.5-0.7,6.1-2s3.6-3.9,5.7-7.7l2.7-5l-11.6-50.6
				h9.1l8.7,40.2l24.1-40.2h9L553.1,299.5z"/>
		</g>
	</g>
</g>
<g id="layer1-4_00000164503022129582647980000017979463299997131146_" transform="matrix(0.40171015,0,0,0.40171015,39.263651,1.5219758)" inkscape:label="Layer 1">
	
		<g id="flowRoot1401_00000097477228320737907940000012451677538980241291_" transform="matrix(0.26458333,0,0,0.26458333,-6.5011907,219.20274)">
		<path id="path820_00000005962321731498884720000002310386833427377079_" inkscape:connector-curvature="0" class="st14" d="
			M2211.4-243.1h25.5v102h-25.5v-10.8c-5,4.8-10,8.2-15.1,10.3c-5,2.1-10.4,3.1-16.3,3.1c-13.2,0-24.6-5.1-34.2-15.3
			c-9.6-10.2-14.4-23-14.4-38.2c0-15.8,4.7-28.7,14-38.7s20.6-15.1,33.9-15.1c6.1,0,11.9,1.2,17.3,3.5c5.4,2.3,10.3,5.8,14.9,10.4
			L2211.4-243.1z M2184.5-222.1c-7.9,0-14.5,2.8-19.8,8.4s-7.9,12.7-7.9,21.5s2.7,16.1,8,21.8c5.4,5.7,12,8.5,19.8,8.5
			c8.1,0,14.8-2.8,20.1-8.3c5.3-5.6,8-13,8-22c0-8.9-2.7-16.1-8-21.6C2199.3-219.3,2192.6-222.1,2184.5-222.1z"/>
		<path id="path822_00000029739676809448022450000013249784204164889522_" inkscape:connector-curvature="0" class="st14" d="
			M2256.7-243.1h22v12.8c2.4-5.1,5.5-8.9,9.5-11.5c4-2.6,8.3-3.9,12.9-3.9c3.3,0,6.8,0.9,10.4,2.6l-8,22c-3-1.5-5.5-2.2-7.4-2.2
			c-3.9,0-7.3,2.4-10,7.3s-4,14.4-4,28.7l0.1,5v41.3h-25.4L2256.7-243.1z"/>
		<path id="path824_00000002376540855783113320000003878543555547712949_" inkscape:connector-curvature="0" class="st14" d="
			M2399.6-243.1h25.5v102h-25.5v-10.8c-5,4.8-10,8.2-15.1,10.3c-5,2.1-10.4,3.1-16.3,3.1c-13.2,0-24.6-5.1-34.2-15.3
			s-14.4-23-14.4-38.2c0-15.8,4.7-28.7,14-38.7c9.3-10,20.6-15.1,33.9-15.1c6.1,0,11.9,1.2,17.3,3.5c5.4,2.3,10.3,5.8,14.9,10.4
			v-11.2H2399.6z M2372.7-222.1c-7.9,0-14.5,2.8-19.8,8.4c-5.3,5.6-7.9,12.7-7.9,21.5s2.7,16.1,8,21.8c5.4,5.7,12,8.5,19.8,8.5
			c8.1,0,14.8-2.8,20.1-8.3c5.3-5.6,8-13,8-22c0-8.9-2.7-16.1-8-21.6S2380.8-222.1,2372.7-222.1z"/>
		<path id="path826_00000129923706771825644360000003352728423233885867_" inkscape:connector-curvature="0" class="st14" d="
			M2450.8-243.1h25.7v11.7c4.4-4.8,9.2-8.4,14.5-10.8c5.4-2.4,11.2-3.6,17.5-3.6c6.4,0,12.1,1.6,17.3,4.7c5.1,3.1,9.3,7.7,12.4,13.7
			c4.1-6,9-10.6,14.9-13.7c5.9-3.1,12.4-4.7,19.4-4.7c7.2,0,13.6,1.7,19.1,5.1c5.5,3.4,9.4,7.8,11.8,13.2c2.4,5.4,3.7,14.3,3.7,26.5
			v59.8h-25.8V-193c0-11.6-1.4-19.4-4.3-23.4c-2.9-4.1-7.2-6.2-12.9-6.2c-4.4,0-8.3,1.2-11.8,3.8c-3.4,2.5-6,6-7.7,10.4
			c-1.7,4.4-2.5,11.4-2.5,21.2v46h-25.8v-49.4c0-9.1-0.7-15.7-2.1-19.8c-1.3-4.1-3.3-7.2-6-9.2c-2.7-2-5.9-3-9.8-3
			c-4.3,0-8.1,1.3-11.6,3.8c-3.4,2.5-6,6-7.8,10.6c-1.7,4.6-2.5,11.8-2.5,21.6v45.4h-25.7C2450.8-141.2,2450.8-243.1,2450.8-243.1z"
			/>
		<path id="path828_00000150801939136825758000000009443948263729579184_" inkscape:connector-curvature="0" class="st14" d="
			M2733.6-184.7h-82.2c1.2,7.2,4.3,13,9.5,17.3c5.2,4.3,11.8,6.4,19.8,6.4c9.6,0,17.8-3.3,24.7-10l21.6,10.1
			c-5.4,7.6-11.8,13.3-19.3,17c-7.5,3.6-16.4,5.4-26.7,5.4c-16,0-29-5-39.1-15.1c-10.1-10.1-15.1-22.8-15.1-38
			c0-15.6,5-28.5,15-38.7c10.1-10.3,22.7-15.5,37.8-15.5c16.1,0,29.1,5.2,39.2,15.5s15.1,23.8,15.1,40.7L2733.6-184.7z
			 M2707.9-204.8c-1.7-5.7-5-10.3-10-13.9c-4.9-3.6-10.7-5.3-17.3-5.3c-7.1,0-13.4,2-18.8,6c-3.4,2.5-6.5,6.9-9.4,13.2H2707.9z"/>
		<path id="path830_00000158016799515968810890000000738173156071513253_" inkscape:connector-curvature="0" class="st14" d="
			M2745.2-243.1h29.7l20,27.8l20.2-27.8h29.5l-34.9,48.3l39.2,53.7h-29.7l-24.3-33.5l-24,33.5h-29.3l38.6-53.7L2745.2-243.1z"/>
	</g>
	
		<g id="flowRoot1409_00000056421106386065475410000010819824182535820698_" transform="matrix(0.28153828,0,0,0.32462174,-5.6671639,222.18132)">
		<path id="path833-9_00000042709473537768821060000000607448924738955666_" inkscape:connector-curvature="0" d="M2035.2-104.9
			v39.3h-3.6v-4.9c-1.5,1.9-3.2,3.3-5.2,4.2c-1.9,0.9-4,1.4-6.2,1.4c-4,0-7.4-1.4-10.3-4.3c-2.8-2.9-4.2-6.5-4.2-10.6
			s1.4-7.6,4.3-10.5s6.3-4.3,10.3-4.3c2.3,0,4.4,0.5,6.3,1.5c1.9,1,3.6,2.5,5,4.5v-16.1L2035.2-104.9z M2020.6-91.2
			c-2,0-3.9,0.5-5.6,1.5c-1.7,1-3.1,2.4-4.1,4.2c-1,1.8-1.5,3.7-1.5,5.7s0.5,3.9,1.5,5.7s2.4,3.2,4.1,4.3c1.7,1,3.6,1.5,5.6,1.5
			s3.9-0.5,5.7-1.5c1.8-1,3.2-2.4,4.1-4.1c1-1.7,1.5-3.7,1.5-5.8c0-3.3-1.1-6-3.3-8.2C2026.4-90.1,2023.8-91.2,2020.6-91.2z"/>
		<path id="path835_00000062901815430595465540000012766377415569103745_" inkscape:connector-curvature="0" d="M2067.3-75l3.1,1.6
			c-1,2-2.2,3.6-3.5,4.8s-2.8,2.1-4.5,2.8c-1.6,0.6-3.5,0.9-5.6,0.9c-4.6,0-8.2-1.5-10.8-4.5c-2.6-3-3.9-6.5-3.9-10.3
			c0-3.6,1.1-6.8,3.3-9.6c2.8-3.6,6.5-5.4,11.2-5.4c4.8,0,8.7,1.8,11.6,5.5c2,2.6,3.1,5.8,3.1,9.7h-25.4c0.1,3.3,1.1,6,3.2,8.1
			c2,2.1,4.5,3.2,7.5,3.2c1.4,0,2.8-0.3,4.2-0.8c1.4-0.5,2.5-1.2,3.5-2C2065.2-71.8,2066.2-73.2,2067.3-75z M2067.3-82.6
			c-0.5-1.9-1.2-3.5-2.1-4.7s-2.1-2.1-3.7-2.8c-1.5-0.7-3.1-1.1-4.8-1.1c-2.8,0-5.2,0.9-7.2,2.7c-1.5,1.3-2.6,3.3-3.3,5.9
			L2067.3-82.6z"/>
		<path id="path837_00000101821122107857004220000006557508294376797602_" inkscape:connector-curvature="0" d="M2077.6-104.9h3.6
			v39.3h-3.6V-104.9z"/>
		<path id="path839_00000168092403701324785100000014821664094278448542_" inkscape:connector-curvature="0" d="M2090.2-105.6
			c0.8,0,1.5,0.3,2.1,0.9c0.6,0.6,0.9,1.3,0.9,2.1c0,0.8-0.3,1.5-0.9,2.1c-0.6,0.6-1.3,0.9-2.1,0.9s-1.5-0.3-2.1-0.9
			c-0.6-0.6-0.9-1.3-0.9-2.1c0-0.8,0.3-1.5,0.9-2.1C2088.7-105.3,2089.4-105.6,2090.2-105.6z M2088.3-93.9h3.7v28.3h-3.7V-93.9z"/>
		<path id="path841_00000066496048749012500570000004229758157378276480_" inkscape:connector-curvature="0" d="M2096.9-93.9h3.9
			l9.5,20.6l9.4-20.6h3.9l-13,28.3h-0.7L2096.9-93.9z"/>
		<path id="path843_00000091017709978405598370000010889307978664284602_" inkscape:connector-curvature="0" d="M2153.1-75l3.1,1.6
			c-1,2-2.2,3.6-3.5,4.8c-1.3,1.2-2.8,2.1-4.5,2.8c-1.6,0.6-3.5,0.9-5.6,0.9c-4.6,0-8.2-1.5-10.8-4.5c-2.6-3-3.9-6.5-3.9-10.3
			c0-3.6,1.1-6.8,3.3-9.6c2.8-3.6,6.5-5.4,11.2-5.4c4.8,0,8.7,1.8,11.6,5.5c2,2.6,3.1,5.8,3.1,9.7h-25.5c0.1,3.3,1.1,6,3.2,8.1
			c2,2.1,4.5,3.2,7.5,3.2c1.4,0,2.8-0.3,4.2-0.8c1.4-0.5,2.5-1.2,3.5-2C2150.9-71.8,2152-73.2,2153.1-75z M2153.1-82.6
			c-0.5-1.9-1.2-3.5-2.1-4.7c-0.9-1.2-2.1-2.1-3.7-2.8c-1.5-0.7-3.1-1.1-4.8-1.1c-2.8,0-5.2,0.9-7.2,2.7c-1.5,1.3-2.6,3.3-3.3,5.9
			L2153.1-82.6z"/>
		<path id="path845_00000162335987031737261500000002467115088186862991_" inkscape:connector-curvature="0" d="M2162.5-93.9h3.7
			v4.1c1.1-1.6,2.3-2.8,3.5-3.6c1.2-0.8,2.5-1.2,3.9-1.2c1,0,2.1,0.3,3.2,1l-1.9,3.1c-0.8-0.3-1.4-0.5-1.9-0.5
			c-1.2,0-2.4,0.5-3.5,1.5c-1.1,1-2,2.5-2.6,4.6c-0.5,1.6-0.7,4.9-0.7,9.8v9.6h-3.7V-93.9z"/>
		<path id="path847_00000021806270705774589520000006660848062013643166_" inkscape:connector-curvature="0" d="M2176.9-93.9h3.9
			l9.7,21.8l9.5-21.8h3.9l-17,38.7h-3.9l5.5-12.5L2176.9-93.9z"/>
		<path id="path849-5_00000127752108327116057170000014277946319316226728_" inkscape:connector-curvature="0" d="M2222.9-93.9h3.7
			v13.2c0,3.2,0.2,5.5,0.5,6.7c0.5,1.7,1.5,3.1,3,4.1s3.2,1.5,5.3,1.5c2,0,3.8-0.5,5.2-1.5c1.4-1,2.4-2.3,2.9-3.9
			c0.4-1.1,0.5-3.4,0.5-7V-94h3.7v13.9c0,3.9-0.5,6.8-1.4,8.8c-0.9,2-2.3,3.5-4.1,4.7c-1.8,1.1-4.1,1.7-6.9,1.7
			c-2.8,0-5.1-0.6-6.9-1.7c-1.8-1.1-3.2-2.7-4.1-4.7c-0.9-2-1.4-5-1.4-9.1C2222.9-80.4,2222.9-93.9,2222.9-93.9z"/>
		<path id="path851_00000047042968604717385810000014050615962171189641_" inkscape:connector-curvature="0" d="M2255.8-93.9h3.6
			v5.1c1.5-1.9,3.1-3.4,4.8-4.3c1.8-1,3.7-1.5,5.8-1.5s4,0.5,5.6,1.6c1.6,1.1,2.9,2.5,3.6,4.3c0.8,1.8,1.2,4.7,1.2,8.5v14.6h-3.5
			v-13.5c0-3.3-0.1-5.4-0.4-6.5c-0.4-1.9-1.2-3.3-2.4-4.2c-1.2-1-2.8-1.4-4.7-1.4c-2.2,0-4.2,0.7-5.9,2.2s-2.9,3.3-3.4,5.4
			c-0.3,1.4-0.5,4-0.5,7.7v10.4h-3.6v-28.4H2255.8z"/>
		<path id="path853-6_00000152252947948300369830000009393775133987362707_" inkscape:connector-curvature="0" d="M2287.7-104.9h3.6
			v39.3h-3.6V-104.9z"/>
		<path id="path855_00000094619674696392491640000008925166615419023516_" inkscape:connector-curvature="0" d="M2300.3-105.6
			c0.8,0,1.5,0.3,2.1,0.9c0.6,0.6,0.9,1.3,0.9,2.1c0,0.8-0.3,1.5-0.9,2.1c-0.6,0.6-1.3,0.9-2.1,0.9s-1.5-0.3-2.1-0.9
			c-0.6-0.6-0.9-1.3-0.9-2.1c0-0.8,0.3-1.5,0.9-2.1C2298.8-105.3,2299.5-105.6,2300.3-105.6z M2298.5-93.9h3.7v28.3h-3.7V-93.9z"/>
		<path id="path857-2_00000175289963958664314360000014853104848642248891_" inkscape:connector-curvature="0" d="M2309.7-93.9h3.6
			v4.9c1.3-1.8,2.6-3.1,3.9-4c1.8-1.1,3.8-1.7,5.8-1.7c1.4,0,2.7,0.3,3.9,0.8s2.2,1.3,3,2.2s1.5,2.2,2,3.8c1.2-2.2,2.7-3.9,4.6-5.1
			c1.8-1.2,3.8-1.7,5.9-1.7c2,0,3.7,0.5,5.2,1.5s2.6,2.4,3.4,4.1c0.7,1.8,1.1,4.4,1.1,8v15.5h-3.7v-15.5c0-3-0.2-5.1-0.7-6.2
			c-0.4-1.1-1.2-2.1-2.2-2.8s-2.3-1-3.8-1c-1.8,0-3.4,0.5-4.9,1.6c-1.5,1-2.5,2.4-3.2,4.2c-0.7,1.7-1,4.6-1,8.7v11.1h-3.6V-80
			c0-3.4-0.2-5.7-0.7-7c-0.4-1.2-1.2-2.2-2.2-2.9c-1.1-0.7-2.3-1.1-3.8-1.1c-1.7,0-3.3,0.5-4.7,1.5c-1.5,1-2.5,2.4-3.3,4.1
			c-0.7,1.7-1,4.3-1,7.9v12h-3.6V-93.9z"/>
		<path id="path859-1_00000004531583178603830340000017053449198182125247_" inkscape:connector-curvature="0" d="M2361-105.6
			c0.8,0,1.5,0.3,2.1,0.9c0.6,0.6,0.9,1.3,0.9,2.1c0,0.8-0.3,1.5-0.9,2.1c-0.6,0.6-1.3,0.9-2.1,0.9c-0.8,0-1.5-0.3-2.1-0.9
			s-0.9-1.3-0.9-2.1c0-0.8,0.3-1.5,0.9-2.1S2360.2-105.6,2361-105.6z M2359.2-93.9h3.7v28.3h-3.7V-93.9z"/>
		<path id="path861-1_00000062892560139222110730000007254157075373575348_" inkscape:connector-curvature="0" d="M2373.6-104.5h3.7
			V-94h5.8v3.1h-5.8v25.2h-3.7v-25.2h-5V-94h5V-104.5z"/>
		<path id="path863-5_00000152259160807620714330000009944357289900252583_" inkscape:connector-curvature="0" d="M2412.4-75
			l3.1,1.6c-1,2-2.2,3.6-3.5,4.8s-2.8,2.1-4.5,2.8c-1.6,0.6-3.5,0.9-5.6,0.9c-4.6,0-8.2-1.5-10.8-4.5c-2.6-3-3.9-6.5-3.9-10.3
			c0-3.6,1.1-6.8,3.3-9.6c2.8-3.6,6.5-5.4,11.2-5.4c4.8,0,8.7,1.8,11.6,5.5c2,2.6,3.1,5.8,3.1,9.7h-25.5c0.1,3.3,1.1,6,3.2,8.1
			c2,2.1,4.5,3.2,7.5,3.2c1.4,0,2.8-0.3,4.2-0.8c1.4-0.5,2.5-1.2,3.5-2C2410.3-71.8,2411.3-73.2,2412.4-75z M2412.4-82.6
			c-0.5-1.9-1.2-3.5-2.1-4.7c-0.9-1.2-2.1-2.1-3.7-2.8c-1.5-0.7-3.1-1.1-4.8-1.1c-2.8,0-5.2,0.9-7.2,2.7c-1.5,1.3-2.6,3.3-3.3,5.9
			L2412.4-82.6z"/>
		<path id="path865-2_00000149361381210638592940000016099415573511106487_" inkscape:connector-curvature="0" d="M2451.6-104.9
			v39.3h-3.6v-4.9c-1.5,1.9-3.2,3.3-5.2,4.2c-1.9,0.9-4,1.4-6.2,1.4c-4,0-7.4-1.4-10.3-4.3c-2.8-2.9-4.2-6.5-4.2-10.6
			s1.4-7.6,4.3-10.5c2.9-2.9,6.3-4.3,10.3-4.3c2.3,0,4.4,0.5,6.3,1.5c1.9,1,3.6,2.5,5,4.5v-16.1L2451.6-104.9z M2437-91.2
			c-2,0-3.9,0.5-5.6,1.5c-1.7,1-3.1,2.4-4.1,4.2c-1,1.8-1.5,3.7-1.5,5.7s0.5,3.9,1.5,5.7s2.4,3.2,4.1,4.3c1.7,1,3.6,1.5,5.6,1.5
			s3.9-0.5,5.7-1.5s3.2-2.4,4.1-4.1c1-1.7,1.5-3.7,1.5-5.8c0-3.3-1.1-6-3.3-8.2C2442.8-90.1,2440.1-91.2,2437-91.2z"/>
	</g>
</g>
<g>
	<path class="st15" d="M179.7,45.6c-1.9-0.8-10.6-4.7-13.4-7c-3.3-2.7-5-6.6-5-11.2V6c5.2-2.8,11.3-4.2,18.5-4.2S193,3.2,198.3,6
		v21.4c0,4.6-1.7,8.5-5,11.2C190.3,40.9,181.5,44.8,179.7,45.6z"/>
	<path class="st16" d="M195.9,6.8c-2.2-0.2-4.5-0.4-6.9-0.4c-8.6,0-17.9,1.9-25.6,8.9v12c0,3.9,1.5,7.2,4.2,9.4
		c2.4,2,9.9,5.3,12,6.3c2.1-0.9,9.5-4.2,12-6.3c2.8-2.3,4.2-5.4,4.2-9.4L195.9,6.8 M165.1,26.2v-9.8h3.1v9.9c0,0.9,0.2,2.2,1.6,2.2
		c0.6,0,1.1-0.2,1.5-0.4V16.4h3.1v13.5c-1.2,0.8-2.8,1.3-4.7,1.3C166.6,31.1,165.1,29.4,165.1,26.2 M179.1,37.4H176V17.2
		c1.1-0.7,2.5-1.1,4.2-1.1c3.7,0,5.8,2.8,5.8,7.3s-2,7.6-5.4,7.6c-0.7,0-1.1-0.1-1.4-0.2L179.1,37.4L179.1,37.4z M179.1,28.3
		c0.2,0.1,0.6,0.2,1,0.2c1.8,0,2.6-1.7,2.6-5c0-3.5-0.8-4.9-2.6-4.9c-0.4,0-0.9,0.1-1.1,0.2L179.1,28.3L179.1,28.3z M186.6,20.1
		c0-2.5,2.1-4,4.2-4c1.7-0.1,2.9,0.6,3.4,1v2.7c-0.7-0.7-1.7-1.3-2.8-1.3c-0.9,0-1.8,0.4-1.8,1.5c-0.1,1.1,0.9,1.6,2,2.3
		c2.6,1.5,3.1,2.9,3,4.7c-0.1,2-1.4,4.1-4.5,4.1c-1.2,0-2.4-0.4-3.4-1v-2.9c0.8,0.7,2,1.3,3,1.3c1.2,0,1.9-0.7,1.9-1.7
		s-0.6-1.5-1.9-2.3C187.1,23,186.6,21.8,186.6,20.1 M166.7,38.1c-3.1-2.6-4.8-6.3-4.8-10.7v-21c4.9-2.6,11-4,17.9-4s12.9,1.3,17.9,4
		v21c0,4.4-1.7,8.1-4.8,10.7c-2.9,2.4-12,6.4-13.1,6.8C178.7,44.4,169.5,40.4,166.7,38.1z M191.1,42.5v1.8h0.4v-0.8h0.1
		c0,0.1,0.5,0.8,0.5,0.8h0.4c0,0-0.5-0.7-0.6-0.8c0.3-0.1,0.4-0.3,0.4-0.5s-0.2-0.6-0.6-0.6L191.1,42.5L191.1,42.5z M191.6,42.8
		c0.3,0,0.3,0.2,0.3,0.3c0,0.2-0.1,0.3-0.4,0.3h-0.1v-0.6H191.6z M192.8,43.4c0,0.7-0.6,1.2-1.2,1.2s-1.2-0.6-1.2-1.2
		s0.6-1.3,1.2-1.3S192.8,42.7,192.8,43.4 M191.6,41.9c-0.8,0-1.5,0.7-1.5,1.5s0.7,1.5,1.5,1.5s1.5-0.7,1.5-1.5
		C193.1,42.6,192.4,41.9,191.6,41.9"/>
</g>
<g>
	<g>
		<path id="path8_00000121264641080461193510000009442124356930634913_" inkscape:connector-curvature="0" class="st17" d="
			M288.4,111.9c-0.2,1.3-1,2.4-2.2,3.3c-1.1,0.8-2.4,1.4-3.8,1.6c0,0-0.1,0-0.1,0c-0.2,0-0.4-0.5-0.7-1.4c-0.4-0.9-0.5-1.4-0.5-1.6
			c0-0.1,0.1-0.1,0.2-0.1c0.7-0.1,1.3-0.3,1.9-0.5c0.7-0.3,1.1-0.8,1.2-1.5c0.1-0.4-0.1-0.9-0.4-1.4c-0.6-0.9-0.9-1.3-1-1.4
			c-0.3-0.7-0.4-1.5-0.3-2.2c0.2-1.2,0.9-2.1,2.2-2.9c1-0.7,2.2-1.1,3.5-1.2c0.1,0,0.1,0,0.2,0c0.1,0,0.2,0.1,0.2,0.2
			c0.2,0.9,0.4,1.7,0.7,2.5c0,0,0,0.1,0,0.1c0,0.1-0.1,0.2-0.2,0.2c0,0,0,0,0,0c-0.1,0-0.2,0-0.3,0c-0.1,0-0.2,0-0.3,0
			c-0.4,0-0.9,0.1-1.3,0.3c-0.4,0.2-0.7,0.6-0.8,1c-0.1,0.4,0.1,0.9,0.4,1.4c0.6,1,1,1.5,1,1.6C288.4,110.5,288.5,111.2,288.4,111.9
			L288.4,111.9z"/>
		<path id="path10_00000066478436451106071190000013441808395091665281_" inkscape:connector-curvature="0" class="st17" d="
			M299.9,109.4l-1.2,6.6c0,0.2-0.2,0.4-0.3,0.4c-0.2,0-0.7,0-1.4,0c-0.5,0-1,0-1.4-0.1c-0.2,0-0.3-0.2-0.2-0.4
			c0.1-0.6,0.3-1.4,0.5-2.5s0.4-1.9,0.5-2.5c0.1-0.7-0.2-1.1-0.9-1.1c-0.3,0-0.7,0.1-1,0.3c-0.4,0.2-0.6,0.5-0.7,0.7l-0.4,2.4
			c-0.1,0.3-0.1,0.8-0.2,1.4c-0.1,0.6-0.2,1.1-0.2,1.4c0,0.2-0.2,0.4-0.4,0.4c-0.2,0-0.8,0-1.7,0c-0.4,0-0.7,0-1.1-0.1
			c-0.2-0.1-0.3-0.2-0.3-0.3c0.1-0.5,0.2-1.3,0.4-2.3c0.2-1,0.3-1.8,0.4-2.3c0.4-2.1,0.6-3.8,0.8-5.2c0.1-0.5,0.1-1,0.2-1.4
			c0.1-0.5,0.1-0.9,0.1-1.4c0-0.1,0-0.1,0-0.2c0-0.1,0.1-0.2,0.2-0.2c0.3-0.1,0.6-0.1,0.9-0.1c0.5,0,0.8,0,0.9-0.1l1.8-0.2
			c0.1,0,0.1,0.1,0.1,0.2c0,0.2-0.1,0.5-0.2,0.8c-0.1,0.4-0.2,0.7-0.2,0.8c-0.3,1.4-0.5,2.6-0.7,3.4c0,0.1,0,0.2,0.1,0.2
			c0,0,0.2-0.1,0.5-0.3c0.4-0.2,0.8-0.5,1.2-0.6c0.5-0.2,1-0.3,1.5-0.3c0.8,0,1.5,0.2,1.9,0.6C299.8,108,300,108.6,299.9,109.4
			L299.9,109.4z"/>
		<path id="path12_00000014628348222950377640000005178722641168689563_" inkscape:connector-curvature="0" class="st17" d="
			M304.5,111.9c-0.1,0.5-0.2,1.2-0.3,2.1c-0.1,0.9-0.3,1.6-0.3,2.1c0,0.1-0.1,0.2-0.3,0.2c-0.5,0.1-1,0.1-1.5,0.1
			c-0.5,0-1,0-1.5-0.1c-0.1,0-0.2-0.1-0.2-0.1c0-0.1,0-0.2,0-0.3c0.1-0.4,0.2-1.1,0.4-2c0.2-0.9,0.3-1.5,0.4-2
			c0.3-1.4,0.5-2.9,0.6-4.3c0-0.1,0-0.1,0-0.2c0-0.1,0.1-0.2,0.3-0.2s0.4,0,0.8,0.1c0.4,0,0.6,0.1,0.8,0.1c0.2,0,0.5,0,0.8-0.1
			c0.4,0,0.7-0.1,0.8-0.1c0.2,0,0.2,0.1,0.2,0.2c0,0,0,0.1-0.1,0.2C305.1,109.1,304.8,110.5,304.5,111.9L304.5,111.9z M306,104.9
			c-0.2,1.1-0.9,1.7-2.2,1.7c-0.5,0-0.9-0.1-1.3-0.4c-0.3-0.3-0.5-0.7-0.4-1.2c0.1-0.5,0.4-0.9,0.8-1.2c0.4-0.3,0.9-0.4,1.4-0.4
			c0.5,0,0.9,0.2,1.2,0.5C306,104,306.1,104.4,306,104.9L306,104.9z"/>
		<path id="path14_00000088111100529922048220000009880345564381148820_" inkscape:connector-curvature="0" class="st17" d="
			M316.9,111.7c-0.2,1.3-0.8,2.5-1.8,3.4c-0.9,0.9-2.2,1.4-3.5,1.4c-0.5,0-1-0.1-1.5-0.4c-0.5-0.2-0.8-0.4-0.7-0.4
			c-0.1,0-0.1,0.1-0.2,0.3c-0.1,0.3-0.1,0.8-0.2,1.5c-0.1,0.7-0.2,1.1-0.2,1.5c0,0.2-0.2,0.3-0.4,0.3l0,0l-1.9,0
			c-0.3,0-0.6,0-0.8-0.1c-0.2,0-0.3-0.2-0.2-0.3c0,0,0,0,0-0.1l1.3-7.3c0.2-1.2,0.4-2.5,0.3-3.7c0-0.1,0-0.1,0-0.2
			c0-0.1,0.1-0.2,0.2-0.2c0.5-0.1,1-0.3,1.5-0.3c0.5-0.1,1-0.2,1.5-0.2c0.3,0,0.4,0.2,0.3,0.5c0,0.3,0,0.5,0,0.5
			c-0.1,0,0.2-0.2,0.9-0.5c0.7-0.4,1.2-0.5,1.7-0.5c1.4,0,2.4,0.5,3.1,1.4C317,109.2,317.2,110.3,316.9,111.7L316.9,111.7z
			 M313.4,111.7c0.1-0.5,0-0.9-0.2-1.3c-0.3-0.4-0.7-0.6-1.2-0.6c-0.5,0-1,0.2-1.3,0.6c-0.3,0.4-0.6,0.8-0.6,1.3
			c-0.1,0.5,0,1,0.2,1.3c0.2,0.4,0.6,0.6,1.1,0.6C312.5,113.6,313.1,113,313.4,111.7L313.4,111.7z"/>
		<path id="path16_00000082344064751158888590000005138527960317776319_" inkscape:connector-curvature="0" class="st17" d="
			M321.6,111.9c-0.1,0.5-0.2,1.2-0.3,2.1c-0.1,0.9-0.3,1.6-0.3,2.1c0,0.1-0.1,0.2-0.3,0.2c-0.5,0.1-1,0.1-1.5,0.1
			c-0.5,0-1,0-1.5-0.1c-0.1,0-0.2-0.1-0.2-0.1c0-0.1,0-0.2,0-0.3c0.1-0.4,0.2-1.1,0.4-2c0.2-0.9,0.3-1.5,0.4-2
			c0.3-1.4,0.5-2.9,0.6-4.3c0-0.1,0-0.2,0-0.2c0-0.1,0.1-0.2,0.3-0.2c0.2,0,0.4,0,0.8,0.1c0.4,0,0.6,0.1,0.8,0.1
			c0.2,0,0.5,0,0.8-0.1c0.4,0,0.7-0.1,0.8-0.1c0.2,0,0.2,0.1,0.2,0.2c0,0,0,0.1-0.1,0.2C322.2,109.1,321.9,110.5,321.6,111.9
			L321.6,111.9z M323.1,104.9c-0.2,1.1-0.9,1.7-2.2,1.7c-0.5,0-0.9-0.1-1.3-0.4c-0.3-0.3-0.5-0.7-0.4-1.2c0.1-0.5,0.4-0.9,0.8-1.2
			c0.4-0.3,0.9-0.4,1.4-0.4c0.5,0,0.9,0.2,1.2,0.5C323.1,104,323.2,104.4,323.1,104.9L323.1,104.9z"/>
		<path id="path18_00000075141095001530342760000001308539644358955426_" inkscape:connector-curvature="0" class="st17" d="
			M329.6,113.5c-0.1,0.3-0.1,0.6-0.2,0.9c-0.1,0.3-0.2,0.6-0.2,0.9c0,0.1-0.1,0.2-0.1,0.4c-0.1,0.1-0.2,0.2-0.4,0.2
			c-0.9,0.5-1.9,0.7-2.9,0.7c-1.8,0-2.6-0.7-2.4-2.1c0.1-0.4,0.2-1.1,0.4-1.9c0.2-0.8,0.3-1.5,0.4-1.9c0.1-0.3-0.1-0.4-0.4-0.4h-0.1
			c-0.1,0-0.1,0-0.1,0c-0.2,0-0.4-0.1-0.3-0.3c0-0.1,0.1-0.3,0.1-0.5c0.1-0.2,0.1-0.4,0.1-0.5c0-0.1,0.1-0.3,0.1-0.6
			s0.1-0.5,0.1-0.6c0-0.1,0.2-0.2,0.7-0.2c0.2,0,0.4-0.1,0.4-0.2c0.1-0.4,0.2-0.8,0.2-1.1c0.1-0.8,0.2-1.2,0.2-1.2
			c0.1-0.7,0.3-1.1,0.4-1.1c0.2,0,0.5,0.1,0.7,0.1c0.2,0.1,0.5,0.1,0.7,0.2c0.3,0.1,0.8,0.1,1.4,0.2c0.2,0,0.2,0.1,0.2,0.2
			c-0.1,0.3-0.1,0.6-0.3,1.2c-0.1,0.5-0.2,0.9-0.3,1.2c-0.1,0.3,0,0.5,0.2,0.5c0.2,0,0.6,0,1,0c0.5,0,0.8,0,1,0
			c0.1,0,0.2,0.1,0.2,0.1c0,0.2-0.1,0.4-0.2,0.7c-0.1,0.3-0.1,0.5-0.2,0.7s-0.1,0.4-0.1,0.7c-0.1,0.3-0.1,0.5-0.1,0.7
			c0,0.1-0.1,0.2-0.3,0.2c-0.1,0-0.3,0-0.6,0c-0.3,0-0.5,0-0.6,0h-0.7c-0.1,0-0.2,0.1-0.2,0.4l-0.1,0.7c-0.1,0.3-0.1,0.5-0.1,0.7
			c-0.1,0.5-0.1,0.9,0,1.1c0.1,0.3,0.4,0.4,0.9,0.4c0.2,0,0.5-0.1,0.7-0.1c0.2-0.1,0.4-0.1,0.6-0.1
			C329.6,113.3,329.6,113.4,329.6,113.5L329.6,113.5z"/>
		<path id="path20_00000132056747248923429530000018198007608183058053_" inkscape:connector-curvature="0" class="st17" d="
			M340.1,111.6c-0.2,1.4-0.9,2.6-1.9,3.5c-1,0.9-2.4,1.4-3.7,1.4c-1.4,0-2.5-0.4-3.2-1.3c-0.8-0.9-1-2-0.8-3.4
			c0.3-1.5,0.9-2.7,1.9-3.6s2.3-1.4,3.8-1.4c1.4,0,2.5,0.5,3.3,1.3S340.4,110.2,340.1,111.6L340.1,111.6z M337,111.6
			c0.1-0.5,0-0.9-0.2-1.3c-0.2-0.4-0.7-0.6-1.1-0.6c-0.5,0-1,0.2-1.3,0.6c-0.4,0.4-0.6,0.8-0.7,1.3c-0.1,0.5,0,0.9,0.2,1.3
			c0.2,0.4,0.7,0.6,1.1,0.6c0.5,0,1-0.2,1.3-0.6C336.6,112.6,336.9,112.1,337,111.6L337,111.6z"/>
		<path id="path22_00000020383334390529721540000001979225193457244077_" inkscape:connector-curvature="0" class="st17" d="
			M340.8,105C340.8,105,340.8,105,340.8,105c-0.1,0-0.1,0-0.2,0c-0.1,0-0.1,0-0.2,0h0l0,0l0-0.1c0-0.1-0.1-0.1-0.1-0.3
			c0,0-0.1,0-0.1,0h-0.1c0,0,0,0,0,0.1c0,0,0,0.1,0,0.2c0,0.1,0,0.1,0,0.2c0,0,0,0,0,0h0H340c-0.1,0-0.1,0-0.2,0c0,0,0,0,0,0
			c0-0.1,0-0.2,0-0.3c0-0.1,0-0.2,0-0.3c0-0.2,0-0.4,0-0.6l0,0c0,0,0,0,0,0c0,0,0.1,0,0.3,0h0.3c0.1,0,0.2,0,0.3,0.1
			c0.1,0.1,0.2,0.2,0.1,0.3c0,0.1,0,0.1,0,0.2c0,0.1-0.1,0.1-0.1,0.2c0,0,0,0,0,0l0.1,0.2C340.8,104.9,340.8,104.9,340.8,105
			L340.8,105z M340.5,104.3c0-0.1,0-0.1-0.1-0.2c-0.1,0-0.1,0-0.2,0c-0.1,0-0.1,0-0.1,0c0,0.1,0,0.1,0,0.2c0,0,0,0,0,0.1
			c0,0,0,0.1,0,0.1s0,0,0,0s0.1,0,0.1,0C340.4,104.4,340.5,104.4,340.5,104.3L340.5,104.3z"/>
		<path id="path24_00000067200982112506743860000016599305732216384652_" inkscape:connector-curvature="0" class="st17" d="
			M340.3,105.6c-0.7,0-1.2-0.6-1.2-1.2c0-0.7,0.6-1.2,1.2-1.2s1.2,0.6,1.2,1.2l0,0C341.5,105.1,341,105.6,340.3,105.6z M340.3,103.4
			c-0.5,0-1,0.4-1,1c0,0.5,0.4,1,1,1s1-0.4,1-1l0,0C341.3,103.9,340.9,103.4,340.3,103.4z"/>
	</g>
	<g>
		<g>
			<path class="st17" d="M270.8,119.8c-0.1-0.2-0.2-0.3-0.3-0.4c-0.2-0.2-1.9-3-2-2.9c-1.2,1.5-2.5,3.1-3.1,5
				c-0.7,1.9,0.1,4.1,2.5,4.2c0.4,0,0.8-0.2,1.2-0.2c0.3,0,0.5,0.1,0.7,0.1c0.5,0,0.9-0.2,1.2-0.6
				C272.5,123.5,271.7,121.3,270.8,119.8z M266.8,120.8c0,0,0-0.1,0-0.1c0-0.2,0.1-0.4,0.1-0.5c0.1-0.4,0.3-0.8,0.4-1.1
				c0.1-0.3,0.3-0.5,0.4-0.7c0.1-0.1,0.1-0.2,0.2-0.3c0.1-0.1,0.2-0.1,0.4-0.2h0v0c0,0.1,0,0.2-0.1,0.3c-0.1,0.1-0.1,0.2-0.2,0.3
				c-0.1,0.2-0.3,0.4-0.4,0.7c-0.3,0.6-0.5,1.2-0.6,1.9c0,0,0,0.1-0.1,0.1l0,0c0,0,0,0,0,0C266.9,121.1,266.8,120.9,266.8,120.8z
				 M268.5,120.6c0,0.1,0,0.2-0.1,0.3c0,0.1-0.1,0.1-0.1,0.1s-0.1-0.1-0.1-0.1c0-0.1-0.1-0.1-0.1-0.1c-0.1-0.1,0-0.2,0-0.3
				c0-0.1,0-0.3,0-0.4c0-0.4,0-0.8,0.1-1.1c0-0.1,0.1-0.1,0.1-0.2c0,0,0,0,0,0c0,0,0.1,0,0.1,0.1c0.1,0.4,0.1,0.9,0.1,1.3
				C268.5,120.2,268.5,120.4,268.5,120.6z M269.6,120.8c-0.2-0.5-0.3-0.9-0.5-1.4c-0.1-0.2-0.2-0.5-0.3-0.7
				c-0.1-0.2-0.3-0.4-0.4-0.6c0-0.1-0.1-0.1-0.1-0.2v0c0,0,0,0,0,0c0.3-0.1,0.5,0.2,0.6,0.4c0.2,0.2,0.3,0.5,0.4,0.7
				c0.2,0.4,0.3,0.7,0.4,1.1c0.1,0.2,0.2,0.4,0.2,0.5c0,0.2,0,0.4,0,0.5c0,0.1,0,0.1-0.1,0.1c0,0-0.1,0-0.1,0c0,0,0-0.1,0-0.1
				C269.7,121.1,269.7,120.9,269.6,120.8z"/>
			<path class="st17" d="M268.5,106.3c-0.3,0-0.5,0-0.8,0c-0.6,0-1.1,0.1-1.7,0.3c-2.2,0.8-1.7,3.4-0.7,5c0.1,0.2,0.2,0.3,0.3,0.4
				c0.5,0.6,1,1.1,1.4,1.6c0.3,0.4,0.9,1.9,1.6,1.5c0.2-0.1,0.4-0.4,0.5-0.6c0.6-1,1.2-2,1.8-3c0.5-0.8,1-1.7,1.1-2.6
				c0.2-1.8-1.3-2.8-2.9-2.7C268.9,106.3,268.7,106.3,268.5,106.3z M267.6,112.9c0,0,0.1,0.1,0.1,0.1c0,0,0,0.1,0,0.1c0,0,0,0-0.1,0
				c-0.1,0-0.2,0-0.3-0.1c-0.1-0.1-0.1-0.1-0.2-0.2c-0.2-0.1-0.3-0.3-0.5-0.5c-0.2-0.2-0.4-0.5-0.6-0.8c-0.2-0.3-0.3-0.5-0.2-0.8
				c0,0,0,0,0,0c0,0,0.1,0,0.1,0c0.3,0.4,0.6,0.9,0.9,1.3c0.1,0.2,0.3,0.3,0.4,0.4C267.4,112.7,267.5,112.8,267.6,112.9
				C267.6,112.9,267.6,112.9,267.6,112.9z M268,114.3c0,0,0-0.1,0-0.1c0-0.2,0-0.4,0-0.6c0-0.4-0.1-0.8-0.1-1.1
				c0-0.3-0.1-0.6-0.1-0.9c0-0.3-0.1-0.6,0.1-0.8c0,0,0-0.1,0.1-0.1c0,0,0.1,0,0.1,0c0,0,0,0,0,0.1c0.1,0.1,0.1,0.2,0.1,0.4
				c0,0.2,0,0.3,0,0.5c0,0.3,0.1,0.6,0.1,0.9c0,0.4,0.1,0.8,0.1,1.1c0,0.2,0,0.4,0,0.6c0,0.1-0.1,0.3-0.1,0.4c0,0,0,0.1,0,0.1
				c0,0-0.1,0-0.1,0c0,0,0,0-0.1-0.1C268.1,114.5,268,114.4,268,114.3z M269.1,112.9c-0.1,0.1-0.2,0.2-0.3,0.3c-0.1,0-0.1,0.1-0.2,0
				c0-0.1,0-0.1,0.1-0.2c0.2-0.4,0.4-0.8,0.6-1.2c0.1-0.3,0.2-0.5,0.2-0.8s0-0.5,0.1-0.8c0,0,0,0,0-0.1c0,0,0.1,0,0.1,0
				c0,0,0.1,0.1,0.1,0.1c0.2,0.3,0.1,0.6,0.1,0.9c-0.1,0.3-0.2,0.6-0.3,0.9C269.4,112.4,269.3,112.7,269.1,112.9z"/>
			<path class="st17" d="M267.2,116.2c-1.1-0.7-1.9-1.8-3-2.5c-0.6-0.4-1.3-0.7-2-0.8c-0.5-0.1-1,0-1.5,0.1
				c-1.8,0.4-2.6,1.7-2.5,3.6c0,1.1,0.4,2.1,1.1,2.9c1.3,1.2,3.8,0.7,5-0.4c0.2-0.2,0.4-0.4,0.6-0.6
				C265.2,118.2,267.4,116.4,267.2,116.2z M266,116.6c0,0.1-0.1,0.2-0.2,0.3c-0.1,0.1-0.3,0.2-0.4,0.3c-0.3,0.2-0.6,0.4-0.9,0.5
				c-0.3,0.1-0.5,0.2-0.8,0.3c-0.2,0.1-0.5,0.2-0.7,0.2c-0.1,0-0.1,0-0.2,0c-0.1,0-0.1-0.1-0.1-0.1c0,0,0,0,0-0.1c0,0,0,0,0,0
				c0.1-0.1,0.2-0.1,0.3-0.1h0c0.2-0.1,0.5-0.2,0.8-0.3c0.3-0.1,0.5-0.2,0.7-0.3c0.2-0.1,0.3-0.2,0.5-0.3c0.2-0.1,0.4-0.3,0.6-0.4
				c0.1-0.1,0.2-0.1,0.3-0.2c0.1-0.1,0.1-0.1,0.2-0.2h0c0,0,0,0,0,0C266.1,116.4,266.1,116.5,266,116.6z M266.1,116.3
				c-0.6,0.1-1.2,0.1-1.9,0.1c-0.4,0-0.7,0.1-1.1,0.1c-0.2,0-0.5,0.1-0.7,0c-0.1,0-0.3-0.1-0.3-0.2c-0.1-0.1,0.2-0.2,0.3-0.2
				c0.3-0.1,0.6,0,0.9-0.1c0.3,0,0.6-0.1,0.9-0.1c0.4,0,0.9-0.1,1.3-0.1c-0.3-0.2-0.6-0.4-0.9-0.6c-0.4-0.2-0.8-0.3-1.2-0.3
				c-0.1,0-0.2,0-0.3-0.1c0,0,0.1-0.1,0.1-0.1c0.1-0.1,0.1-0.1,0.2-0.1c0.1-0.1,0.3-0.1,0.4,0c0.3,0.1,0.6,0.2,0.9,0.3
				c0.2,0.1,0.4,0.2,0.6,0.3c0.1,0.1,0.2,0.1,0.3,0.2c0,0,0.1,0.1,0.1,0.1c0,0,0.1,0,0.1,0c0,0,0.1,0.1,0.1,0.1
				c0.1,0.1,0.1,0.1,0.2,0.1c0.1,0,0.1,0.1,0.1,0.1C266.3,116.2,266.2,116.3,266.1,116.3z"/>
			<path class="st17" d="M274.5,112.7c-0.6,0.2-1.2,0.4-1.7,0.8c-0.5,0.3-1,0.7-1.5,1c-1.4,1-2.1,1.8-0.5,3.1
				c1.5,1.2,6.2,3.2,7.4,0.6c0.2-0.5,0.3-1.1,0.3-1.7c0-0.5,0-0.9,0-1.4c0-0.5,0-1-0.3-1.4c-0.2-0.2-0.5-0.4-0.8-0.5
				C276.3,112.7,275.5,112.4,274.5,112.7z M271,115.5c0.1-0.1,0.2-0.2,0.3-0.2c0.2-0.2,0.4-0.3,0.6-0.5c0.4-0.3,1-0.6,1.6-0.6
				c0.1,0,0.2,0.1,0.2,0.2c0,0,0,0,0,0s0,0,0,0c-0.2,0.2-0.4,0.2-0.7,0.2c-0.3,0.1-0.5,0.2-0.8,0.4c-0.2,0.1-0.4,0.3-0.6,0.4
				c-0.1,0.1-0.2,0.2-0.3,0.2c-0.1,0.1-0.1,0.1-0.2,0.1c-0.1,0-0.2,0-0.3,0C270.9,115.7,271,115.6,271,115.5z M273.1,117.9
				c-0.2,0-0.5-0.1-0.7-0.2c-0.3-0.1-0.6-0.3-1-0.5c-0.3-0.1-0.5-0.3-0.7-0.4c-0.2-0.1-0.5-0.2-0.5-0.5c0-0.1,0-0.1,0-0.1
				c0.1,0,0.1,0,0.2,0c0.2,0.1,0.5,0.2,0.7,0.4s0.4,0.3,0.7,0.4c0.3,0.1,0.5,0.3,0.8,0.4c0.1,0.1,0.3,0.1,0.4,0.2
				c0.1,0,0.2,0.1,0.4,0.2c0,0,0.1,0,0.1,0.1h0v0c0,0,0,0.1,0,0.1c0,0-0.1,0-0.1,0.1C273.3,117.9,273.2,117.9,273.1,117.9z
				 M274,116.2c-0.2,0-0.4,0-0.6,0c-0.3,0-0.6,0-0.9,0.1c-0.3,0-0.6,0-0.9,0c-0.2,0-0.5,0-0.7-0.1c-0.1,0-0.2,0-0.3,0
				c-0.1,0-0.2-0.1-0.3-0.2l0,0c0,0,0,0,0,0c0.1,0,0.2-0.1,0.2-0.1c0.1,0,0.1-0.1,0.2,0c0.1,0,0.2,0,0.2,0c0.2,0,0.3,0,0.5,0
				c0.3,0,0.7,0,1,0c0.3,0,0.6,0,0.9-0.1c0.2,0,0.3,0,0.5,0c0.1,0,0.3,0.1,0.4,0.1c0,0.1-0.1,0.2-0.1,0.2
				C274.1,116.2,274.1,116.2,274,116.2z"/>
		</g>
		<path class="st17" d="M273.8,109.7c-0.2-0.2-0.5-0.1-0.6,0.1c-0.3,0.5-0.7,1-1,1.4c-0.2,0.2-0.4,0.4-0.6,0.7
			c-0.1,0.1-0.2,0.2-0.3,0.4s-0.2,0.3-0.3,0.4c-0.1,0.1,0.1,0.1,0.1,0.1c0.1-0.1,0.3-0.2,0.4-0.3s0.2-0.2,0.3-0.3
			c0.2-0.2,0.4-0.4,0.6-0.6c0.4-0.4,0.9-0.8,1.4-1.2C274.1,110.2,274,109.8,273.8,109.7z"/>
		<path class="st17" d="M274.4,121.4c-0.5-0.4-1-0.8-1.4-1.2c-0.5-0.4-0.9-0.8-1.5-1.1c-0.1-0.1-0.2,0.1-0.1,0.1
			c0.3,0.5,0.7,1,1.1,1.4s0.8,0.9,1.3,1.3c0.2,0.2,0.5,0.2,0.6,0C274.6,121.8,274.6,121.5,274.4,121.4z"/>
		<path class="st17" d="M265.4,119.5c-0.1,0.1-0.2,0.2-0.3,0.2c-0.1,0.1-0.2,0.2-0.3,0.3c-0.2,0.2-0.4,0.4-0.6,0.6l-0.5,0.6
			c-0.2,0.2-0.5,0.4-0.6,0.7c-0.2,0.4,0.2,0.7,0.5,0.4c0.2-0.2,0.4-0.5,0.5-0.7c0.2-0.2,0.3-0.4,0.5-0.7c0.2-0.2,0.3-0.4,0.5-0.7
			c0.1-0.1,0.2-0.2,0.2-0.3c0-0.1,0.1-0.1,0.1-0.2c0-0.1,0.1-0.2,0.1-0.2C265.6,119.6,265.4,119.4,265.4,119.5z"/>
		<path class="st17" d="M264.9,112.8c-0.2-0.2-0.3-0.4-0.5-0.6c-0.2-0.2-0.3-0.4-0.5-0.6c-0.2-0.2-0.3-0.4-0.5-0.6
			c-0.1-0.1-0.2-0.2-0.3-0.3c-0.1-0.2-0.2-0.3-0.4-0.3c-0.3-0.1-0.6,0.2-0.5,0.5c0.1,0.2,0.1,0.2,0.3,0.3c0.1,0,0.1,0.1,0.2,0.1
			c0,0,0.1,0,0.1,0.1c0,0,0,0,0,0c0.1,0,0.1,0.1,0.2,0.1c0.2,0.2,0.4,0.3,0.6,0.5c0.2,0.2,0.4,0.4,0.6,0.5c0.2,0.2,0.4,0.3,0.6,0.5
			C264.9,113,265,112.9,264.9,112.8z"/>
	</g>
	<g>
		<g>
			<path d="M298.2,125.7h-0.8l-0.3-1.2h-1.5l-0.3,1.2h-0.8l1.5-5.2h0.8L298.2,125.7z M296.8,123.6l-0.5-1.9l-0.5,1.9H296.8z"/>
			<path d="M298.4,124l0.8-0.1c0.1,0.3,0.1,0.6,0.3,0.8s0.3,0.2,0.6,0.2c0.3,0,0.4-0.1,0.6-0.2s0.2-0.3,0.2-0.5c0-0.1,0-0.2-0.1-0.3
				c-0.1-0.1-0.2-0.2-0.3-0.2c-0.1-0.1-0.3-0.1-0.6-0.2c-0.4-0.1-0.7-0.3-0.9-0.5c-0.2-0.3-0.4-0.6-0.4-1c0-0.3,0.1-0.5,0.2-0.7
				c0.1-0.2,0.3-0.4,0.5-0.5c0.2-0.1,0.5-0.2,0.8-0.2c0.5,0,0.8,0.2,1.1,0.4c0.2,0.3,0.4,0.7,0.4,1.1l-0.8,0.1
				c0-0.3-0.1-0.5-0.2-0.6c-0.1-0.1-0.3-0.2-0.5-0.2s-0.4,0.1-0.5,0.2c-0.1,0.1-0.1,0.2-0.1,0.3c0,0.1,0,0.2,0.1,0.3
				c0.1,0.1,0.3,0.2,0.7,0.4c0.4,0.1,0.7,0.3,0.8,0.4c0.2,0.1,0.3,0.3,0.4,0.5s0.2,0.5,0.2,0.8c0,0.3-0.1,0.6-0.2,0.8
				c-0.1,0.3-0.3,0.5-0.5,0.6c-0.2,0.1-0.5,0.2-0.8,0.2c-0.5,0-0.9-0.2-1.1-0.5C298.6,125,298.5,124.6,298.4,124z"/>
			<path d="M302.2,125.7v-5.2h0.8v5.2H302.2z"/>
			<path d="M307.1,125.7h-0.8l-0.3-1.2h-1.5l-0.3,1.2h-0.8l1.5-5.2h0.8L307.1,125.7z M305.7,123.6l-0.5-1.9l-0.5,1.9H305.7z"/>
			<path d="M308.8,120.5h1.4c0.3,0,0.6,0,0.7,0.1c0.2,0.1,0.4,0.3,0.6,0.5c0.2,0.2,0.3,0.5,0.4,0.8c0.1,0.3,0.1,0.7,0.1,1.2
				c0,0.4,0,0.8-0.1,1.1c-0.1,0.4-0.2,0.7-0.4,0.9c-0.1,0.2-0.3,0.3-0.5,0.4c-0.2,0.1-0.4,0.1-0.7,0.1h-1.4V120.5L308.8,120.5z
				 M309.5,121.4v3.4h0.6c0.2,0,0.4,0,0.5-0.1c0.1-0.1,0.2-0.1,0.3-0.2c0.1-0.1,0.2-0.3,0.2-0.5c0.1-0.2,0.1-0.6,0.1-1
				c0-0.4,0-0.7-0.1-0.9c-0.1-0.2-0.1-0.4-0.2-0.5c-0.1-0.1-0.2-0.2-0.4-0.3c-0.1,0-0.3-0.1-0.6-0.1L309.5,121.4L309.5,121.4z"/>
			<path d="M312.6,125.7v-5.2h0.8v5.2H312.6z"/>
			<path d="M314.1,125.7v-5.2h1.6c0.4,0,0.7,0.1,0.9,0.1c0.2,0.1,0.3,0.3,0.4,0.5c0.1,0.2,0.2,0.5,0.2,0.8c0,0.4-0.1,0.7-0.3,1
				c-0.2,0.3-0.4,0.4-0.8,0.5c0.2,0.1,0.3,0.3,0.4,0.4c0.1,0.2,0.3,0.4,0.4,0.8l0.5,1h-0.9l-0.6-1.1c-0.2-0.4-0.3-0.7-0.4-0.8
				c-0.1-0.1-0.2-0.2-0.2-0.2s-0.2-0.1-0.4-0.1h-0.2v2.2L314.1,125.7L314.1,125.7z M314.9,122.7h0.6c0.4,0,0.6,0,0.7-0.1
				c0.1-0.1,0.2-0.1,0.2-0.2c0.1-0.1,0.1-0.2,0.1-0.4c0-0.2,0-0.3-0.1-0.4c-0.1-0.1-0.2-0.2-0.3-0.2c-0.1,0-0.3,0-0.6,0h-0.6
				L314.9,122.7L314.9,122.7z"/>
			<path d="M318,125.7v-5.2h2.8v0.9h-2v1.2h1.9v0.9h-1.9v1.4h2.1v0.9H318L318,125.7z"/>
			<path d="M324,123.8l0.7,0.3c-0.1,0.6-0.3,1-0.6,1.3c-0.3,0.3-0.6,0.4-1,0.4c-0.5,0-0.9-0.2-1.2-0.7c-0.3-0.5-0.5-1.1-0.5-1.9
				c0-0.9,0.2-1.5,0.5-2c0.3-0.5,0.8-0.7,1.3-0.7c0.5,0,0.8,0.2,1.1,0.6c0.2,0.2,0.3,0.5,0.4,1l-0.8,0.3c-0.1-0.3-0.1-0.5-0.3-0.6
				c-0.2-0.2-0.3-0.2-0.5-0.2c-0.3,0-0.5,0.1-0.7,0.4c-0.2,0.3-0.3,0.7-0.3,1.3c0,0.7,0.1,1.1,0.3,1.4s0.4,0.4,0.7,0.4
				c0.2,0,0.4-0.1,0.5-0.3C323.8,124.4,323.9,124.1,324,123.8z"/>
			<path d="M326.2,125.7v-4.3h-1.1v-0.9h3v0.9H327v4.3H326.2z"/>
		</g>
	</g>
</g>
</svg>
