<?xml version="1.0" encoding="utf-8"?>
<!-- Generator: Adobe Illustrator 25.0.0, SVG Export Plug-In . SVG Version: 6.00 Build 0)  -->
<svg version="1.1"
	 id="Layer_1" inkscape:version="0.92.3 (2405546, 2018-03-11)" sodipodi:docname="TopBanner mobile.svg" xmlns:cc="http://creativecommons.org/ns#" xmlns:dc="http://purl.org/dc/elements/1.1/" xmlns:inkscape="http://www.inkscape.org/namespaces/inkscape" xmlns:rdf="http://www.w3.org/1999/02/22-rdf-syntax-ns#" xmlns:sodipodi="http://sodipodi.sourceforge.net/DTD/sodipodi-0.dtd" xmlns:svg="http://www.w3.org/2000/svg"
	 xmlns="http://www.w3.org/2000/svg" xmlns:xlink="http://www.w3.org/1999/xlink" x="0px" y="0px" viewBox="0 0 4792.4 2335.2"
	 style="enable-background:new 0 0 4792.4 2335.2;" xml:space="preserve">
<style type="text/css">
	.st0{fill:#EBEFCA;}
	.st1{fill:#F8FED1;}
	.st2{fill:#85885E;}
	.st3{fill:#777953;}
	.st4{fill:#9C9E6D;}
	.st5{fill:#81845A;}
	.st6{fill:#B36222;}
	.st7{fill:#CC7A2D;}
	.st8{fill:#DB8230;}
	.st9{fill:#E8EEC3;}
	.st10{fill:#A65C1F;}
	.st11{fill:#94551B;}
	.st12{fill:#864D18;}
	.st13{fill:#D9802F;}
	.st14{fill:#EC8B34;}
	.st15{fill:#D5BB66;}
	.st16{fill:#B69B44;}
	.st17{fill:#E6D494;}
	.st18{fill:#D2C080;}
	.st19{fill:#9E883E;}
	.st20{fill:#968038;}
	.st21{fill:#00A9CE;}
	.st22{opacity:0.21;}
	.st23{fill:#C4C4C4;}
	.st24{fill:#A3A3A3;}
	.st25{fill:none;}
</style>
<sodipodi:namedview  bordercolor="#666666" borderopacity="1" gridtolerance="10" guidetolerance="10" id="namedview359" inkscape:current-layer="Layer_1" inkscape:cx="2262.091" inkscape:cy="1111.9646" inkscape:pageopacity="0" inkscape:pageshadow="2" inkscape:window-height="1356" inkscape:window-maximized="1" inkscape:window-width="2560" inkscape:window-x="-8" inkscape:window-y="-8" inkscape:zoom="0.17138707" objecttolerance="10" pagecolor="#ffffff" showgrid="false">
	</sodipodi:namedview>
<path id="path4" inkscape:connector-curvature="0" class="st0" d="M173.1,1264.7c-75.4-21.1-89.8-38-118.1-24.8s17,166.4,17,166.4
	l-60.3,121.5c0,0-26.4,42.3,0,44.9s-36.6-9.2,4.9,3.8s271.5,44.7,294.1,13l26.4-317C337.2,1272.6,248.5,1285.8,173.1,1264.7z"/>
<path id="path6" inkscape:connector-curvature="0" class="st1" d="M1466.8,1188.3c0,0-35.7,44.9-189.4,47.6
	c-153.7,2.6-485.9-76.6-601.2-87.2s-332.2,8-345.9,43.6c-13.7,35.6-65.9,368.5-65.9,368.5s2.7-44.9,109.8-60.8s296.5,0,436.5,42.3
	s452.9,103,590.2,18.5L1466.8,1188.3z"/>
<g id="g178" transform="translate(-47.766667,-1973.7)">
	<g id="g176">
		<g id="g46">
			<g id="g14">
				<path id="path8" inkscape:connector-curvature="0" class="st2" d="M4056.2,2946c-12.6-11.1-39.9-0.8-60.8,23.1
					c-20.9,23.8-27.6,52.2-14.9,63.3c1.4,1.2,11,10.1,11,10.1s31.1-11.9,49.8-33.2c18.3-20.9,26-53.2,26-53.2
					S4057.8,2947.4,4056.2,2946L4056.2,2946z"/>
				<path id="path10" inkscape:connector-curvature="0" class="st3" d="M4067.2,2956.1c-12.6-11.1-39.9-0.8-60.8,23.1
					c-20.9,23.8-27.6,52.2-14.9,63.3c12.7,11.1,39.9,0.8,60.8-23.1C4073.2,2995.6,4079.9,2967.3,4067.2,2956.1z"/>
				<path id="path12" inkscape:connector-curvature="0" class="st4" d="M4048.3,2977.6c-5.3-4.6-18.1,1.3-28.6,13.2
					c-10.5,12-14.7,25.4-9.4,30.1c5.3,4.6,18.1-1.3,28.6-13.3C4049.4,2995.8,4053.6,2982.3,4048.3,2977.6z"/>
			</g>
			<g id="g22">
				<path id="path16" inkscape:connector-curvature="0" class="st2" d="M4356.4,3164.1c-12.6-11.1-39.9-0.8-60.8,23.1
					c-20.9,23.8-27.6,52.2-14.9,63.3c1.4,1.2,11,10.1,11,10.1s31.1-11.9,49.8-33.2c18.3-20.9,26-53.2,26-53.2
					S4358,3165.5,4356.4,3164.1L4356.4,3164.1z"/>
				<path id="path18" inkscape:connector-curvature="0" class="st3" d="M4367.5,3174.1c-12.6-11.1-39.9-0.8-60.8,23.1
					c-20.9,23.8-27.6,52.2-14.9,63.3s39.9,0.8,60.8-23.1C4373.5,3213.6,4380.2,3185.3,4367.5,3174.1z"/>
				<path id="path20" inkscape:connector-curvature="0" class="st4" d="M4348.6,3195.7c-5.3-4.6-18.1,1.3-28.6,13.3
					s-14.7,25.4-9.4,30.1c5.3,4.6,18.1-1.3,28.6-13.3S4353.9,3200.3,4348.6,3195.7z"/>
			</g>
			<g id="g44">
				<g id="g28">
					<g id="g26">
						
							<rect id="rect24" x="3799.5" y="3177.3" transform="matrix(0.6607 -0.7506 0.7506 0.6607 -1080.9917 3969.4431)" class="st5" width="102.2" height="6.4"/>
					</g>
				</g>
				<g id="g36">
					<path id="path30" inkscape:connector-curvature="0" class="st2" d="M3852.1,3192.2c-8.1-7.1-25.4-0.5-38.8,14.7
						c-13.3,15.2-17.6,33.3-9.5,40.4c0.9,0.8,7,6.4,7,6.4s19.9-7.6,31.7-21.1c11.7-13.3,16.6-33.9,16.6-33.9
						S3853.1,3193.1,3852.1,3192.2L3852.1,3192.2z"/>
					<path id="path32" inkscape:connector-curvature="0" class="st3" d="M3859.1,3198.7c-8.1-7.1-25.4-0.5-38.8,14.7
						c-13.3,15.2-17.6,33.3-9.5,40.4c8.1,7.1,25.4,0.5,38.8-14.7C3862.9,3223.8,3867.2,3205.8,3859.1,3198.7z"/>
					<path id="path34" inkscape:connector-curvature="0" class="st4" d="M3847.1,3212.4c-3.4-3-11.5,0.8-18.2,8.4
						c-6.7,7.6-9.4,16.2-6,19.2s11.5-0.8,18.2-8.4C3847.8,3223.9,3850.5,3215.4,3847.1,3212.4z"/>
				</g>
				<g id="g42">
					<g id="g40">
						<path id="path38" inkscape:connector-curvature="0" class="st5" d="M3832.6,3224.1c-0.4,3,1,4.6,4.8,4.2l67.5-76.8l-4.8-4.2
							L3832.6,3224.1z"/>
					</g>
				</g>
			</g>
		</g>
		<g id="g60">
			<g id="g50">
				<path id="path48" inkscape:connector-curvature="0" class="st6" d="M3978.4,2851.7c-46.2-5.3-79.7-6.7-106.7,5.1
					c-16.1,7.1-17.8,30.4-3.5,40.6l231.7,165.7c37.9-23.3,76.8-43.7,117.3-60.4l-181.3-127.9
					C4021.6,2864.6,3995.9,2853.7,3978.4,2851.7L3978.4,2851.7z"/>
			</g>
			<g id="g54">
				<path id="path52" inkscape:connector-curvature="0" class="st7" d="M3981.7,2845.7c-46.1-5.3-81.5-2.7-108.4,9.1
					c-16.2,7.1-15.2,25.4-0.8,35.7l217.3,155.4c48.6-14.1,96.3-24.2,144.7-38.8l-195-138.2
					C4024.9,2858.7,3999.2,2847.7,3981.7,2845.7z"/>
			</g>
			<g id="g58">
				<path id="path56" inkscape:connector-curvature="0" class="st6" d="M3982.5,2844.8c-25-2.9-46.6-2.8-65.9-0.6
					c98.9,54.5,183.2,114.4,252.4,180.6c22.6-5.8,62.8,1.1,85.1-5.6l-214-151.3C4025.8,2857.7,4000,2846.8,3982.5,2844.8
					L3982.5,2844.8z"/>
			</g>
		</g>
		<g id="g112">
			<g id="g70">
				<g id="g64">
					<path id="path62" inkscape:connector-curvature="0" class="st6" d="M3809.9,3047.4c-26.2-3.5-48.4-7.1-70.7,2.4
						c-2.3,1-5.8,10.1-6.4,11.9c-0.9,2.7,1.1,5.7,4.1,8.2l61.7,51.9l97.5-11.7l-57.2-48.8
						C3831.9,3055.4,3819.1,3048.7,3809.9,3047.4L3809.9,3047.4z"/>
				</g>
				<g id="g68">
					<path id="path66" inkscape:connector-curvature="0" class="st8" d="M3813.3,3038.4c-26.2-3.5-50.1,1-72.3,10.4
						c-2.3,1-3.8,2.6-4.4,4.4c-0.9,2.7,0.8,5.1,3.7,7.6l61.7,51.9l97.5-11.7l-57.2-48.8C3835.3,3046.4,3822.4,3039.6,3813.3,3038.4
						L3813.3,3038.4z"/>
				</g>
			</g>
			<g id="g76">
				<path id="path72" inkscape:connector-curvature="0" class="st1" d="M4468.2,2885.3c-36.7,6.4-57.4,63.1-46.3,126.5
					s49.8,109.7,86.5,103.3c36.6-6.4,57.4-63.1,46.3-126.5C4543.6,2925.1,4504.9,2878.9,4468.2,2885.3z"/>
				<path id="path74" inkscape:connector-curvature="0" class="st9" d="M4493.8,3000.3c8.3-10.4,14.8-45.6,19.1-98.1
					c-13.8-13-29.4-19.6-44.7-16.9c-4.9,0.9-9.5,2.7-13.7,5.2c8.8,58.5,18.7,98,28.3,109.6c-8.3,10.4-14.8,45.6-19.1,98.1
					c13.8,13,29.5,19.6,44.7,16.9c4.9-0.8,9.5-2.6,13.7-5.2C4513.3,3051.4,4503.5,3011.8,4493.8,3000.3z"/>
			</g>
			<g id="g100">
				<g id="g80">
					<path id="path78" inkscape:connector-curvature="0" class="st6" d="M4457.1,2952.2c-29.2-4-91,10.1-156.4,27.8
						c-24.1,6.5-12.8,20.3-52.1,32.1c-43.4,13-50-3.3-56.8-1.3c-50.7,14.8-245.1,90.4-274,92c-15.2,0.8,5.8-74.1-17.7-104.4
						c-20.1-25.9-57.6-32.8-90.9,16.5c-28.8,42.5-25.5,133.1-23.5,139.7c6.7,23,29.8,24.2,87,27.2c44.7,2.4,219.8,7.8,366.9-32.5
						c98.4-26.9,255.3-51.8,268.2-95.5C4523.3,3001.6,4494.4,2957.3,4457.1,2952.2L4457.1,2952.2z"/>
				</g>
				<g id="g84">
					<path id="path82" inkscape:connector-curvature="0" class="st10" d="M4457.1,2952.2c-3.1-0.4-6.7-0.6-10.6-0.6
						c-157.4,188.8-424.1,268.4-662.1,185.2c0.2,9.5,0.7,16.1,1.2,17.7c6.7,23,29.8,24.2,87,27.2c44.7,2.4,219.8,7.8,366.9-32.5
						c98.4-26.9,255.3-51.8,268.2-95.5C4523.3,3001.6,4494.4,2957.3,4457.1,2952.2L4457.1,2952.2z"/>
				</g>
				<g id="g90">
					<path id="path86" inkscape:connector-curvature="0" class="st11" d="M4320.8,2986.2c-14-4-42.5,16.2-67.4,24.4
						c-28.3,9.3-59.4,0.1-59.4,0.1s16.6,41.9,54.7,42.8c45.1,1.1,75-10.3,99.9-27.2S4334.8,2990.1,4320.8,2986.2L4320.8,2986.2z"/>
					<path id="path88" inkscape:connector-curvature="0" class="st12" d="M4312.9,3026.9c-4,1.6-19,6.7-22.9,6.6
						c-3.6-0.1-10.2-8.3-12.6-11.1c-6.8-7.9-8.4-6.9-17.4-10.6c-3.6-1.5,14.9-3.6,19.3-14.4c6.8-16.7-5-25.3-8-27.1
						c-3.5-2-20-5.7-28.5,4.6c-4,4.9-3.9,17.4-4.8,19.8c-1.9,5.4-11.6-2.4-18.9,7.5c-4.9,6.5-8.4,26.1-4.4,29.9
						c15.4,14.5,38.6,19.1,47.5,14.9c3.1-1.5,5.4-3.7,10.2-3.4c2.4,0.2,14.1,1.1,17.5,1.1c3.3-0.1,28.4-8.3,29.7-14.8
						C4320.8,3024.3,4316.7,3025.5,4312.9,3026.9L4312.9,3026.9z"/>
				</g>
				<g id="g94">
					<path id="path92" inkscape:connector-curvature="0" class="st8" d="M3809.2,3014.7c-28.8,42.5-25.5,133.1-23.5,139.7
						c1.9,6.4,5.1,11.1,9.9,14.6c-0.5-1.2-1-2.5-1.4-3.9c-1.9-6.6-5.2-97.2,23.5-139.7c30.6-45.1,64.5-43.1,85.5-22.5
						c-0.9-1.6-1.9-3.2-3.1-4.7C3880,2972.3,3842.6,2965.4,3809.2,3014.7L3809.2,3014.7z"/>
				</g>
				<g id="g98">
					<path id="path96" inkscape:connector-curvature="0" class="st13" d="M4176.7,3015.5c-70.1,22.9-236.9,86-258.8,87.2
						c21.1,1.4,27.3,22.1,27.3,22.1s223,14.6,275.5-62.3C4220.7,3062.4,4184.4,3044.6,4176.7,3015.5z"/>
				</g>
			</g>
			<g id="g110">
				<g id="g104">
					<path id="path102" inkscape:connector-curvature="0" class="st6" d="M3983.4,3172.7l-69.8-50.4l-93.9,4.8l-0.6,8.2l54.1,47.6
						c7,6,19.9,12.7,29,13.9c26.2,3.5,50.1-1,72.3-10.5c2.2-1,3.9-2.4,5.2-3.8C3983.2,3179.3,3984.4,3173.6,3983.4,3172.7z"/>
				</g>
				<g id="g108">
					<path id="path106" inkscape:connector-curvature="0" class="st8" d="M3979,3167.3l-61.7-51.9l-97.5,11.7l57.2,48.8
						c7,6,19.9,12.7,29,13.9c26.2,3.5,50.1-1,72.3-10.5c2.3-1,4.6-1.9,5.3-3.7C3984.5,3172.9,3981.9,3169.8,3979,3167.3z"/>
				</g>
			</g>
		</g>
		<g id="g126">
			<g id="g116">
				<path id="path114" inkscape:connector-curvature="0" class="st6" d="M4695.6,3334.9l-334-230.3l-144,32.9l-1.5,7l306.3,220.8
					c14.3,10.3,39.8,22.4,57.3,24.5c41.6,5.1,77.3-2.1,108.8-18.6C4704.2,3363.1,4710,3345,4695.6,3334.9L4695.6,3334.9z"/>
			</g>
			<g id="g120">
				<path id="path118" inkscape:connector-curvature="0" class="st7" d="M4692.3,3329.8L4367,3099.7l-149.3,37.8l309,221
					c14.3,10.3,39.8,22.4,57.3,24.5c41.6,5.1,77.3-2.1,108.8-18.5C4708.3,3356.3,4706.7,3339.9,4692.3,3329.8z"/>
			</g>
			<g id="g124">
				<path id="path122" inkscape:connector-curvature="0" class="st6" d="M4693.6,3329l-326.3-230.3l-69.7,18
					c183,87.5,358.6,256.2,366,259.7c13.8-3.2,19.9-7.3,29-12.1C4708.3,3356.3,4708,3339.1,4693.6,3329L4693.6,3329z"/>
			</g>
		</g>
		<g id="g160">
			<path id="path128" inkscape:connector-curvature="0" class="st6" d="M3938.8,2912.8c35.2,2,66.1-0.5,94.3-6.2l7.1,7.3
				c-28.2,6.3-59.6,9.3-96.4,6.7L3938.8,2912.8z"/>
			<path id="path130" inkscape:connector-curvature="0" class="st6" d="M4490.7,3305.7c36.5-1,67.8-5.8,93.4-14.7l7.7,6.6
				c-27.7,10.4-59.3,15.7-95.4,15.4L4490.7,3305.7z"/>
			<g id="g144">
				<g id="g136">
					<g id="g134">
						<path id="path132" inkscape:connector-curvature="0" class="st5" d="M4491.1,3304.8c-3.9,8.9,7.1,10.9,9.9,8.7
							c49.6-33,83.7-66.4,113.3-109.5l-10.5-7.2C4575.1,3238.4,4539.3,3272.8,4491.1,3304.8L4491.1,3304.8z"/>
					</g>
				</g>
				<g id="g142">
					<g id="g140">
						<path id="path138" inkscape:connector-curvature="0" class="st5" d="M4621,3290.6c-1.7,8.8,8.1,8.3,12.4,4.4
							c48.2-30.7,77.4-56.1,123.3-100.5l-8.9-9.2C4702.6,3229.1,4668.2,3260.5,4621,3290.6z"/>
					</g>
				</g>
			</g>
			<g id="g158">
				<g id="g150">
					<g id="g148">
						<path id="path146" inkscape:connector-curvature="0" class="st5" d="M3951.3,2743l-12.6-2.2c-11.1,62.1-12,121.9-2.7,177.7
							c4.5,4,13.1,2.4,12.6-2.1C3939.6,2862,3940.5,2803.7,3951.3,2743z"/>
					</g>
				</g>
				<g id="g156">
					<g id="g154">
						<path id="path152" inkscape:connector-curvature="0" class="st5" d="M4090.3,2726.7l-12.3-3.4
							c-16.7,59.6-24.7,117.7-24.5,177.7c2.4,3.2,12,5.1,12.8,0C4066.1,2842.2,4074,2785.2,4090.3,2726.7z"/>
					</g>
				</g>
			</g>
		</g>
		<g id="g174">
			<g id="g164">
				<path id="path162" inkscape:connector-curvature="0" class="st6" d="M4827.5,3227.7l-774.3-544.5c-14.4-10.2-35.5-23-53-25.3
					c-59.7-7.8-102.7-0.2-136.6,15.6c-16,7.5-16,24.2-1.7,34.4l772.7,552.6c14.3,10.3,40,21.5,57.6,23c50.4,4.3,94.7-5.4,135.2-24.2
					C4843.4,3252,4845.5,3232.5,4827.5,3227.7L4827.5,3227.7z"/>
			</g>
			<path id="path166" inkscape:connector-curvature="0" class="st8" d="M4829.6,3226.1l-771.7-544.6c-14.4-10.2-40.1-21.4-57.6-23.6
				c-59.7-7.8-102.7-0.2-136.6,15.6c-4,1.9-8.2,3.8-9.1,7.2c-1.4,5.5,4.2,11.3,10.4,15.8l772.7,552.6c14.4,10.3,40,21.5,57.6,23
				c50.4,4.3,94.7-5.4,135.2-24.2c4.1-1.9,8.4-3.8,9.3-7.2C4841,3235.7,4835.6,3230.4,4829.6,3226.1L4829.6,3226.1z"/>
			<g id="g172">
				<path id="path168" inkscape:connector-curvature="0" class="st14" d="M3958.2,2661.3l13.2,103.4l16.6,11.9l-14.7-114.7
					C3968.2,2661.6,3963.1,2661.3,3958.2,2661.3L3958.2,2661.3z"/>
				<path id="path170" inkscape:connector-curvature="0" class="st14" d="M3999.4,2664.2c-4.1-0.5-8-0.9-12-1.3l15.9,124.7
					l33.3,23.8l-18.2-142.3C4011.4,2666.7,4004.8,2664.9,3999.4,2664.2z"/>
			</g>
		</g>
	</g>
</g>
<g id="g182" transform="translate(-47.766667,-1973.7)">
	<path id="path180" inkscape:connector-curvature="0" class="st1" d="M3787.9,3125.8l-395.4,464.8l5.4,28.3l393.7-487.8
		C3791.9,3128.4,3791.7,3126,3787.9,3125.8z"/>
</g>
<g id="g190" transform="translate(-47.766667,-1973.7)">
	<polygon id="polygon184" class="st15" points="1594.6,3343.8 1556.3,3886.5 3470.5,3674.9 3583.3,3180 	"/>
	<polygon id="polygon186" class="st16" points="1594.6,3343.8 1556.3,3886.5 1426.5,3656.2 1401,3124.6 	"/>
	<polygon id="polygon188" class="st17" points="1401,3124.6 3401.4,3052.7 3583.3,3180 1594.6,3343.8 	"/>
</g>
<g id="g198" transform="translate(-47.766667,-1973.7)">
	<polygon id="polygon192" class="st18" points="1650,3190.6 1693.7,3243.8 3378,3140.2 3343.9,3099.8 	"/>
	<g id="g196">
		<polygon id="polygon194" class="st16" points="1491.7,3229.1 1484.2,3222.3 3479.8,3107.6 3487.8,3113.2 		"/>
	</g>
</g>
<polygon id="polygon200" class="st19" points="3361.7,1461.2 3284.4,1280.7 1657.5,1408.8 1708,1613.8 1646.8,1836.2 3253,1674.4 
	"/>
<g id="g214" transform="translate(-47.766667,-1973.7)">
	<polygon id="polygon206" class="st20" points="1461,3304.1 1444.4,3512.9 1511.8,3571.8 1544.3,3380.7 	"/>
	<polygon id="polygon208" class="st16" points="1459.8,3498.2 1459.8,3479.7 1507.7,3521.3 1504.3,3535.2 	"/>
	<polygon id="polygon210" class="st16" points="1494.3,3390.3 1486.1,3385.3 1480.2,3487.5 1466,3477.5 1477.9,3382.5 
		1468.3,3378.7 1487.4,3355.6 	"/>
	<polygon id="polygon212" class="st16" points="1522.6,3417.2 1514.4,3412.2 1508.5,3514.4 1494.3,3504.4 1506.2,3409.5 
		1496.6,3405.6 1515.8,3382.5 	"/>
</g>
<g id="g232" transform="translate(-47.766667,-1973.7)">
	<polygon id="polygon216" class="st1" points="1497.8,3120.1 1526.5,3120.1 1689.1,3336 1652.9,3339 	"/>
	<polygon id="polygon218" class="st1" points="3332.2,3055.2 3354.3,3054.4 3499.1,3186.9 3469.1,3189.4 	"/>
	<polygon id="polygon220" class="st1" points="1652.9,3339 1689.1,3336 1652.8,3875.8 1631.9,3878.1 	"/>
	<polygon id="polygon222" class="st1" points="3469.1,3189.4 3499.1,3186.9 3431.7,3679.2 3409.5,3681.6 	"/>
	<polygon id="polygon224" class="st1" points="1423.9,3150.6 3360.9,3076.8 3366.2,3085.6 1436.3,3164.7 	"/>
	<polygon id="polygon226" class="st1" points="1556.3,3300.5 3442.1,3159.1 3450.2,3169.9 1566.9,3312.4 	"/>
	<polygon id="polygon228" class="st1" points="1436.3,3164.7 1444.5,3688.2 1435.1,3671.5 1423.9,3150.6 	"/>
	<polygon id="polygon230" class="st1" points="1516.8,3816.5 1527.8,3835.9 1566.9,3312.4 1556.3,3300.5 	"/>
</g>
<g id="g236" transform="translate(-47.766667,-1973.7)">
	<path id="path234" inkscape:connector-curvature="0" class="st1" d="M3787.9,3125.8l-396.7-20.9l21.8,20.7l378.5,5.4
		C3791.9,3128.4,3791.7,3126,3787.9,3125.8z"/>
</g>
<g id="g254" transform="translate(-47.766667,-1973.7)">
	<path id="path238" inkscape:connector-curvature="0" class="st21" d="M1018.9,3382.5l10.9,1.5l-1.3,9.2l-12-1.6l-3.5,13.2l-9.5-1.3
		l3.5-13.2l-12.4-1.7l-3.5,13.2l-9.4-1.3l3.5-13.2l-11-1.5l1.3-9.2l12.1,1.7l3.6-13.4l-11-1.5l1.3-9.2l12.1,1.7l3.5-13.2l9.4,1.3
		l-3.5,13.2l12.4,1.7l3.5-13.2l9.4,1.3l-3.5,13.2l10.9,1.5l-1.2,9.2l-12.1-1.7L1018.9,3382.5z M1009.4,3381.2l3.6-13.4l-12.4-1.7
		l-3.6,13.4L1009.4,3381.2z"/>
	<path id="path240" inkscape:connector-curvature="0" class="st21" d="M1065.9,3352.4l-8.9,58.8l-13.6-2l7.2-47.9l-11.8-1.8
		l1.6-10.9L1065.9,3352.4z"/>
	<path id="path242" inkscape:connector-curvature="0" class="st21" d="M1107,3416c-4.5-3.3-7.7-7.5-9.8-12.6
		c-2.1-5.1-2.7-10.5-1.8-16.3c0.9-5.8,3-10.8,6.5-15.1c3.5-4.2,7.8-7.3,13.1-9.1c5.2-1.9,10.9-2.4,16.9-1.5
		c5.1,0.8,9.6,2.3,13.4,4.8c3.9,2.4,6.9,5.5,9.2,9.3l-9.9,6.8c-3.3-5.2-7.9-8.2-13.8-9.1c-3.6-0.5-7-0.2-10.1,0.9
		c-3.1,1.2-5.7,3.1-7.7,5.7c-2,2.6-3.3,5.8-3.9,9.4c-0.5,3.6-0.2,7,0.9,10.1c1.2,3.1,3.1,5.7,5.7,7.7s5.8,3.3,9.4,3.9
		c5.9,0.9,11.2-0.7,15.8-4.8l7.5,9.4c-3.3,3-7.2,5.1-11.6,6.3s-9.2,1.4-14.3,0.6C1116.7,3421.4,1111.4,3419.3,1107,3416L1107,3416z"
		/>
	<path id="path244" inkscape:connector-curvature="0" class="st21" d="M1201.6,3390.5c3,3.8,4.1,9,3.2,15.7l-3.4,26l-13.1-1.7
		l3.1-23.9c0.5-3.6,0-6.4-1.3-8.4s-3.5-3.2-6.5-3.5c-3.3-0.4-6.1,0.2-8.3,2c-2.2,1.8-3.6,4.7-4.1,8.8l-2.9,22.4l-13.1-1.7l8.2-62.5
		l13.1,1.7l-2.9,21.9c2-1.5,4.2-2.6,6.8-3.2c2.6-0.6,5.4-0.7,8.3-0.3C1194.3,3384.4,1198.6,3386.7,1201.6,3390.5L1201.6,3390.5z"/>
	<path id="path246" inkscape:connector-curvature="0" class="st21" d="M1222.4,3432.1c-3.6-2.4-6.3-5.5-8.1-9.2
		c-1.8-3.8-2.5-7.9-2-12.4s1.9-8.4,4.4-11.8c2.5-3.3,5.7-5.8,9.8-7.4c4-1.6,8.4-2.2,13.2-1.7c4.8,0.5,9,1.9,12.6,4.3
		c3.6,2.4,6.3,5.5,8,9.2c1.8,3.8,2.5,7.9,2,12.4s-1.9,8.4-4.4,11.8c-2.5,3.3-5.7,5.8-9.7,7.4c-4,1.6-8.4,2.2-13.2,1.7
		C1230.2,3435.9,1226,3434.5,1222.4,3432.1L1222.4,3432.1z M1244.8,3422.9c2.4-2.1,3.8-5,4.2-8.9c0.4-3.8-0.4-7-2.3-9.5
		s-4.6-3.9-8-4.3c-3.4-0.3-6.3,0.5-8.7,2.6c-2.4,2.1-3.8,5-4.2,8.8c-0.4,3.8,0.4,7,2.4,9.5s4.6,3.9,8,4.3
		C1239.5,3425.9,1242.4,3425,1244.8,3422.9L1244.8,3422.9z"/>
	<path id="path248" inkscape:connector-curvature="0" class="st21" d="M1272.7,3393.1l13.2,0.9l-3.2,45.6l-13.2-0.9L1272.7,3393.1z
		 M1274,3384.7c-1.4-1.5-2.1-3.3-1.9-5.4c0.1-2.1,1-3.8,2.7-5.1c1.6-1.3,3.7-1.9,6.1-1.7s4.4,1,5.8,2.5s2.1,3.2,1.9,5.2
		c-0.2,2.2-1,4-2.7,5.3c-1.6,1.3-3.7,1.9-6.1,1.7S1275.4,3386.2,1274,3384.7z"/>
	<path id="path250" inkscape:connector-curvature="0" class="st21" d="M1305.3,3438.6c-3.8-2.1-6.7-5-8.8-8.7
		c-2.1-3.6-3-7.7-2.8-12.3c0.2-4.5,1.4-8.5,3.7-12c2.3-3.5,5.4-6.2,9.4-8c4-1.9,8.4-2.7,13.2-2.5c4.8,0.2,9,1.3,12.5,3.5
		c3.5,2.1,6,5.1,7.5,8.9l-10.5,5.2c-2.2-4.3-5.6-6.5-10.1-6.7c-3.5-0.1-6.4,0.9-8.7,3.1c-2.3,2.2-3.6,5.2-3.7,9.1
		c-0.1,3.9,0.9,7,3.1,9.4c2.2,2.3,5,3.6,8.5,3.7c4.5,0.2,8-1.8,10.5-5.9l10.1,6c-1.8,3.6-4.5,6.3-8.2,8.2s-7.9,2.8-12.7,2.6
		C1313.5,3441.9,1309.1,3440.7,1305.3,3438.6z"/>
	<path id="path252" inkscape:connector-curvature="0" class="st21" d="M1392.1,3422.1l-34.6,0.7c0.7,2.8,2.2,5,4.6,6.6
		s5.3,2.4,8.7,2.3c2.4,0,4.5-0.4,6.3-1.2c1.8-0.7,3.5-1.9,5.1-3.5l7.2,7.5c-4.2,5-10.4,7.6-18.7,7.8c-5.2,0.1-9.7-0.8-13.7-2.7
		s-7.1-4.7-9.4-8.2c-2.2-3.5-3.4-7.6-3.5-12.1s0.9-8.5,2.9-12.2c2-3.6,4.9-6.5,8.6-8.6s7.8-3.2,12.4-3.3c4.5-0.1,8.5,0.8,12.2,2.6
		s6.6,4.6,8.7,8.1c2.1,3.6,3.3,7.7,3.4,12.5C1392.3,3418.7,1392.3,3419.9,1392.1,3422.1L1392.1,3422.1z M1360.8,3408
		c-2,1.7-3.2,4.1-3.6,7l22.5-0.5c-0.5-2.9-1.8-5.2-3.9-6.8c-2.1-1.7-4.6-2.5-7.5-2.4C1365.3,3405.4,1362.8,3406.3,1360.8,3408z"/>
</g>
<text id="text256" transform="matrix(1 0 0 1 -47.7666 -1973.7)" style="font-family:'ArialMT'; font-size:12px;"> </text>
<g id="g276" transform="translate(-47.766667,-1973.7)">
	<path id="path258" inkscape:connector-curvature="0" class="st21" d="M455.8,3351.6c-2.2,12.5-9.3,23.2-21.5,32.2
		c-10.7,8-23.2,13.2-36.4,15.1c-0.4,0.1-0.8,0.1-1.2,0.1c-1.4-0.1-3.8-4.4-7.1-13.1c-3.3-8.7-4.9-14-4.6-15.8
		c0.1-0.7,0.7-1.1,1.6-1.3c6.4-1.2,12.6-2.9,18.7-5.2c7-3.3,11-8,12.1-14.2c0.7-4-0.6-8.5-3.9-13.4c-5.8-8.4-8.9-13-9.4-14
		c-3.1-6.6-4-14.1-2.6-21.3c2-11.3,8.9-20.6,20.6-28.1c10.2-6.4,21.6-10.5,33.5-12c0.7,0,1.2-0.1,1.6-0.1c0.9,0,1.5,0.7,1.8,2.2
		c1.8,8.3,4.1,16.4,6.9,24.4c0.1,0.3,0.2,0.6,0.1,0.9c-0.1,1-0.9,1.7-1.8,1.6h-0.1c-0.8,0-1.6-0.1-2.4-0.3c-0.9-0.2-1.8-0.2-2.6-0.3
		c-4.3,0-8.5,1-12.2,3c-4,1.8-6.9,5.5-7.7,9.8c-0.7,3.8,0.7,8.4,4.2,13.9c6.1,9.8,9.2,15,9.5,15.5
		C455.9,3337.6,457,3344.7,455.8,3351.6L455.8,3351.6z"/>
	<path id="path260" inkscape:connector-curvature="0" class="st21" d="M567.1,3327.1l-11.4,63.8c-0.1,1.8-1.4,3.4-3.3,3.6
		c-2,0.2-6.5,0.4-13.6,0.4c-4.7,0.1-9.4-0.1-14-0.7c-2-0.4-2.7-1.7-2.3-4c0.9-5.3,2.4-13.3,4.5-24s3.6-18.7,4.5-24
		c1.3-7.2-1.8-10.8-9.1-10.8c-3.3,0.2-6.4,1.3-9.2,3c-4,2.2-6.2,4.4-6.6,6.8l-4,22.8c-0.5,3-1.2,7.4-2.2,13.4
		c-0.9,5.9-1.7,10.4-2.2,13.5c-0.1,2-1.6,3.6-3.5,3.8c-2,0.2-7.3,0.4-16.2,0.4c-3.6,0.1-7.2-0.1-10.8-0.7c-2.2-0.5-3.1-1.6-2.8-3.3
		c0.9-4.9,2.2-12.2,4-22s3.1-17.1,4-22c3.5-20.2,6.3-36.8,8.1-50c0.6-4.6,1.3-9.2,2-13.9c0.6-4.6,0.9-9.2,0.8-13.8
		c-0.1-0.6-0.1-1.2,0-1.8c0.1-0.9,0.8-1.6,1.7-1.9c2.8-0.7,5.7-1,8.6-1c5-0.2,7.9-0.3,8.7-0.5l17.1-2c1,0,1.4,0.6,1.1,1.9
		c-0.3,2-0.9,4.7-1.8,8c-0.9,3.9-1.5,6.6-1.8,8c-2.8,13.9-4.9,25-6.4,33c-0.2,1.2,0,1.9,0.6,1.8c0.1,0,1.9-1.1,5.3-3.3
		c3.6-2.3,7.4-4.3,11.4-6c4.6-2,9.6-3.1,14.7-3.3c7.9,0,14.1,2.1,18.7,6.2C566.7,3313.3,568.5,3319.3,567.1,3327.1L567.1,3327.1z"/>
	<path id="path262" inkscape:connector-curvature="0" class="st21" d="M612.1,3351.7c-0.8,4.5-1.9,11.2-3.3,20.1
		c-1.4,8.9-2.5,15.6-3.3,20c-0.2,1.3-1.4,2.3-2.7,2.3c-4.7,0.5-9.5,0.7-14.2,0.6c-4.7,0.1-9.5-0.1-14.2-0.6
		c-1.3-0.2-2.1-0.7-2.3-1.2c0-0.9,0.1-1.9,0.3-2.8c0.7-4.3,2-10.6,3.7-19.2c1.7-8.6,2.9-15,3.7-19.3c2.6-13.8,4.4-27.8,5.3-41.8
		c0-0.6,0.1-1.3,0.2-1.9c0.2-1.2,1.2-1.8,2.8-1.9c1.7,0,4.3,0.2,7.8,0.6c3.5,0.4,6.1,0.6,7.9,0.6c1.8,0,4.5-0.2,8.1-0.5
		s6.3-0.5,8.1-0.5c1.5,0,2.1,0.6,1.9,1.9c0,0.2-0.2,0.8-0.5,1.8C617.6,3323.6,614.5,3337.6,612.1,3351.7L612.1,3351.7z M626.6,3283
		c-1.9,10.7-8.9,16.1-21,16.1c-4.4,0.3-8.8-1.2-12.1-4.1c-3.2-3-4.3-7-3.4-12c0.9-4.9,3.7-9.1,7.8-11.8c3.9-2.8,8.6-4.3,13.5-4.3
		c4.3-0.2,8.6,1.4,11.7,4.3C626.2,3274.2,627.6,3278.7,626.6,3283z"/>
	<path id="path264" inkscape:connector-curvature="0" class="st21" d="M732.3,3349.6c-2,12.6-8.1,24.1-17.4,32.8
		c-9.1,8.8-21.3,13.6-33.9,13.5c-5.1-0.1-10.1-1.3-14.7-3.5c-5-2.3-7.3-3.5-6.8-3.5c-0.8,0-1.3,0.9-1.6,2.8c-0.6,3.1-1.2,7.9-2,14.2
		s-1.5,11-2.1,14.2c-0.2,1.8-1.7,3.1-3.5,3l0,0l-18.9,0.1c-2.7,0.1-5.4,0-8.1-0.5c-1.4-0.2-2.5-1.5-2.3-3c0-0.2,0.1-0.3,0.1-0.5
		l12.7-71.2c2.3-12,3.4-24.2,3.2-36.3c0-0.5,0-1.1,0.1-1.6c0.1-0.8,0.6-1.6,1.4-1.9c4.7-1.4,9.5-2.4,14.3-3
		c4.8-0.9,9.7-1.4,14.7-1.6c2.4,0,3.5,1.6,3.3,4.8s-0.1,4.8,0.4,4.8c-0.6,0,2.3-1.7,8.8-5s12.1-5,16.9-5c13.4,0,23.3,4.4,29.7,13.2
		C732.7,3324.9,734.7,3336,732.3,3349.6L732.3,3349.6z M698.1,3349.4c1-4.5,0.2-9.1-2.2-13c-2.4-3.8-6.7-6-11.2-5.7
		c-4.9,0-9.6,2.1-12.9,5.8c-3.3,3.6-5.4,8.2-6.2,13c-0.9,5.2-0.3,9.6,1.8,13c2.2,3.8,5.9,5.6,11,5.6
		C689.3,3368.1,695.8,3361.9,698.1,3349.4L698.1,3349.4z"/>
	<path id="path266" inkscape:connector-curvature="0" class="st21" d="M778.1,3351.7c-0.8,4.5-1.9,11.2-3.3,20.1
		c-1.4,8.9-2.5,15.6-3.3,20c-0.2,1.3-1.4,2.3-2.7,2.3c-4.7,0.5-9.5,0.7-14.2,0.6c-4.7,0.1-9.5-0.1-14.2-0.6
		c-1.3-0.2-2.1-0.7-2.3-1.2c0-0.9,0.1-1.9,0.3-2.8c0.7-4.3,2-10.6,3.7-19.2c1.7-8.6,2.9-15,3.7-19.3c2.6-13.8,4.4-27.8,5.3-41.8
		c0-1,0.1-1.6,0.2-1.9c0.2-1.2,1.2-1.8,2.8-1.9c1.7,0,4.3,0.2,7.8,0.6c3.5,0.4,6.1,0.6,7.9,0.6c1.8,0,4.5-0.2,8.1-0.5
		s6.3-0.5,8.1-0.5c1.5,0,2.1,0.6,1.9,1.9c0,0.2-0.2,0.8-0.5,1.8C783.7,3323.6,780.6,3337.6,778.1,3351.7L778.1,3351.7z M792.7,3283
		c-1.9,10.7-8.9,16.1-21,16.1c-4.4,0.3-8.8-1.2-12.1-4.1c-3.2-3-4.3-7-3.4-12c0.9-4.9,3.7-9.1,7.8-11.8c3.9-2.8,8.6-4.3,13.5-4.3
		c4.3-0.2,8.6,1.4,11.7,4.3C792.3,3274.2,793.7,3278.7,792.7,3283z"/>
	<path id="path268" inkscape:connector-curvature="0" class="st21" d="M855.1,3367c-0.6,2.8-1.3,5.7-2.2,8.4s-1.6,5.5-2.1,8.3
		c-0.1,1.2-0.5,2.4-1.1,3.4c-1,0.8-2.2,1.5-3.4,2.1c-8.6,4.3-18.1,6.6-27.7,6.5c-17.8,0-25.5-6.8-23.1-20.4
		c0.7-4.1,1.9-10.2,3.7-18.4c1.7-8.2,3-14.2,3.8-18.2c0.5-2.7-0.9-4.1-4-4.1h-1.2c-0.6,0-1,0.1-1.2,0.1c-2.3,0-3.4-0.8-3.1-2.5
		c0.2-1,0.5-2.5,1-4.5s0.9-3.5,1-4.5c0.2-1.3,0.5-3.3,0.8-5.9c0.3-2.6,0.6-4.6,0.8-5.9c0.2-1.2,2.3-1.9,6.3-2
		c2.2-0.1,3.5-0.7,3.9-1.9c1.1-3.6,1.8-7.3,2.3-11.1c1.2-7.9,1.7-11.7,1.6-11.4c1.3-7.2,2.6-10.7,3.9-10.7c2.3,0.1,4.7,0.5,6.9,1.1
		c2.3,0.6,4.7,1.1,7.1,1.4c3.1,0.4,7.7,1,13.9,1.8c1.5,0.1,2.2,0.7,2,1.6c-0.4,2.5-1.3,6.2-2.6,11.2s-2.1,8.8-2.6,11.3
		c-0.5,3,0.1,4.5,1.9,4.5c2.2,0,5.4-0.1,9.8-0.3c4.3-0.2,7.7-0.3,9.9-0.3c1.4,0,2,0.5,1.8,1.4c-0.2,1.4-0.8,3.5-1.6,6.4
		s-1.4,5-1.6,6.4c-0.3,1.5-0.6,3.6-1.1,6.5c-0.4,2.9-0.8,5-1,6.5c-0.2,1.3-1.2,1.9-3,1.9c-1.2,0-3.3,0-6.2-0.1s-4.9-0.1-6.2-0.1
		h-6.8c-0.9,0-1.6,1.4-2.1,4.1l-1.2,6.5c-0.5,3-0.8,5.1-1.1,6.5c-0.9,5.2-1,8.8-0.1,10.7c1.2,2.6,4.2,4,9.1,4
		c2.3-0.1,4.6-0.5,6.8-1.1c2-0.6,4.1-0.9,6.3-1.1C854.9,3365,855.4,3365.6,855.1,3367L855.1,3367z"/>
	<path id="path270" inkscape:connector-curvature="0" class="st21" d="M957.1,3348.6c-2.1,13.3-8.8,25.4-18.9,34.2
		c-10,8.7-22.9,13.4-36.2,13.1c-13.6,0-24-4.3-31.2-12.9c-7.2-8.6-9.7-19.7-7.3-33.3c2.5-14.3,8.8-25.9,18.7-34.8
		c10-8.9,22.1-13.4,36.4-13.4c13.9,0,24.4,4.3,31.5,13S959.5,3334.6,957.1,3348.6L957.1,3348.6z M926.7,3348.6
		c0.9-4.4,0.1-9-2.3-12.9c-2.3-3.7-6.4-5.8-10.8-5.6c-4.9,0-9.7,2.1-13,5.7c-3.5,3.4-5.9,7.9-6.7,12.8c-1,4.4-0.2,9,2.2,12.8
		s6.6,6,11,5.7c4.9-0.1,9.6-2.1,12.9-5.7C923.6,3357.9,925.9,3353.5,926.7,3348.6L926.7,3348.6z"/>
	<path id="path272" inkscape:connector-curvature="0" class="st21" d="M964.1,3284.5c0,0,0,0-0.2,0.1c-0.5,0-1.1,0-1.6,0s-1,0-1.5,0
		h-0.2c-0.1,0-0.1-0.1-0.1-0.2l-0.4-1c-0.2-0.6-0.6-1.4-1-2.5c-0.1-0.2-0.4-0.4-0.7-0.4h-0.9c-0.1,0-0.1,0.1-0.1,0.4
		c0,0.3,0,0.9,0.1,1.6c0.1,0.7,0.1,1.3,0.1,1.6c0,0.1,0,0.1,0,0.2h-0.2h-1.5c-0.5,0-1,0-1.4,0c-0.2,0-0.2-0.1-0.2-0.3
		c0-0.6,0-1.5,0.1-2.8s0.1-2.2,0.1-2.8c0-2.4-0.1-4.2-0.2-5.5l0,0c0-0.1,0.1-0.2,0.3-0.2s1,0,2.5-0.1h2.5c1.1,0,2.2,0.3,3.1,0.9
		c0.9,0.6,1.4,1.7,1.4,2.8c0,0.7-0.1,1.3-0.4,1.9c-0.3,0.6-0.7,1.1-1.3,1.4c-0.1,0.1-0.2,0.2-0.2,0.2l1,2.1
		C963.4,3283,963.8,3283.7,964.1,3284.5L964.1,3284.5z M960.6,3277c0.1-0.6-0.2-1.1-0.7-1.4c-0.5-0.2-1.1-0.3-1.6-0.3
		s-0.8,0.1-0.8,0.2c0,0.5,0,1.1,0,1.6c0,0.1,0,0.3,0,0.6c0,0.2,0,0.4,0,0.6c0,0.1,0.1,0,0.3,0.1c0.4,0,0.7,0,1.1,0
		C960,3278.5,960.6,3278,960.6,3277L960.6,3277z"/>
	<path id="path274" inkscape:connector-curvature="0" class="st21" d="M959.3,3290.7c-6.6,0-11.9-5.3-11.9-11.9
		c0-6.6,5.3-11.9,11.9-11.9c6.6,0,11.9,5.3,11.9,11.9l0,0C971.2,3285.3,965.9,3290.7,959.3,3290.7z M959.3,3269.2
		c-5.3,0-9.5,4.2-9.5,9.5s4.2,9.5,9.5,9.5s9.5-4.2,9.5-9.5l0,0C968.8,3273.5,964.6,3269.2,959.3,3269.2z"/>
</g>
<path id="path278" inkscape:connector-curvature="0" class="st1" d="M1964.4,153.5c-60.4-1.3-95.2,16.6-125.5,65.5
	c3.3-57.8-21.5-137-82.5-148.6C1688,57.5,1649.1,119.9,1624,172c17.9-64.7,6.9-160.4-100.9-160.4c-105.6,0-110,104.5-88.7,168.5
	c-131.4-153.3-239.2-13.3-226,46.1c-50.6-28.6-132,15.1-110.8,68.9c193.4,0.4,891.3,0.3,1002.2,0
	C2100.9,245.1,2040.3,155.2,1964.4,153.5L1964.4,153.5z"/>
<path id="path280" inkscape:connector-curvature="0" class="st1" d="M3675.8,121.4c7.5-33.6-53.5-112.8-127.9-26.1
	C3560,59.1,3557.5,0,3497.7,0c-61,0-67.2,54.2-57.1,90.8c-14.2-29.4-36.2-64.8-74.9-57.5c-34.5,6.5-48.6,51.4-46.7,84
	c-17.2-27.7-36.8-37.8-71-37.1c-42.9,0.9-77.2,51.8-76.6,80.1c62.8,0.2,457.5,0.2,566.9,0C3750.5,129.9,3704.4,105.2,3675.8,121.4
	L3675.8,121.4z"/>
<path id="path282" inkscape:connector-curvature="0" class="st1" d="M1029.1,2280.5c13.2-57.8-41.9-133.6-107.3-132
	c-69.3,1.7-92.4,53.4-100.7,102.3c-9-62-20.7-172.4-100.7-178.3c-112.2-8.3-116.5,81.6-124.8,155.2c-9.4-53.3-45-79.2-90.8-71
	c-43.2,7.8-58.3,46.9-58.3,94.1c-8.4-47.1-51.5-99-121.8-85.1c-75.3,14.9-89.2,111.5-89.2,111.5s-112.7-41.3-93.2,57.8
	c193.4,0.4,815.7,0,1002.2,0C1145.1,2267.3,1060.5,2236.4,1029.1,2280.5z"/>
<g id="g290" transform="translate(-47.766667,-1973.7)" class="st22">
	<path id="path284" inkscape:connector-curvature="0" class="st23" d="M3373.9,355.6c-51.3-22.9-103.1-22.4-155.2-12.7
		c64.9-2.4,121.2,8.2,162.8,41.3c29.2-50.7,78.7-86.7,138-115.5C3461.8,288,3404.9,308,3373.9,355.6L3373.9,355.6z"/>
	<path id="path286" inkscape:connector-curvature="0" class="st23" d="M3763.4,780c-28.3-39.3-77.6-54.1-127.4-68.3
		c51.7,22.2,95.3,50.8,122.2,92.9c34.1-29.8,81.6-41,137-41.6C3850.4,756.8,3806.2,758.4,3763.4,780L3763.4,780z"/>
	<path id="path288" inkscape:connector-curvature="0" class="st23" d="M4096.3,411.5c-81.5-34-163-31.2-244.6-14
		c101.9-6.2,190.8,8.3,257.5,58.5c43.9-80.9,120.3-139.4,212.5-186.9C4231.9,301.7,4143.2,335.5,4096.3,411.5z"/>
</g>
<g id="g296" transform="translate(-47.766667,-1973.7)" class="st22">
	<path id="path292" inkscape:connector-curvature="0" class="st23" d="M2364.9,2562.5c-23.2-42.5-70.3-63.3-117.9-83.6
		c48.5,28.5,88.2,62.3,109.7,107.4c37.5-25.3,86.1-30.5,141.1-24.2C2454.1,2550.3,2410.1,2546.4,2364.9,2562.5L2364.9,2562.5z"/>
	<path id="path294" inkscape:connector-curvature="0" class="st23" d="M2741.1,2238.3c-76.6-43.9-157.8-51.2-241-44.3
		c101.9,6.5,188.3,32,248.2,90.1c53.6-74.8,136.7-123.3,234.1-159C2889.3,2146.2,2797.1,2168.7,2741.1,2238.3z"/>
</g>
<g id="g302" transform="translate(-47.766667,-2239.7)">
	<path id="path298" inkscape:connector-curvature="0" class="st24" d="M4183.2,4306.5c106.3,23.7,193.2,65,246.6,136.2
		c69-69.9,164.6-107.3,273.2-128.8c-101.6,6.9-202.7,15.3-273.2,79.3C4356.4,4334.3,4271.9,4312.9,4183.2,4306.5z"/>
	<path id="path300" inkscape:connector-curvature="0" class="st24" d="M4259.2,4008.7c-34.7-49.1-82.7-77.1-135.8-96.9
		c60.9,33.4,106.9,74,127.2,127.3c54.7-30.7,120-36.7,190.4-30.5C4377.2,3994.8,4313.9,3982,4259.2,4008.7L4259.2,4008.7z"/>
</g>
<rect id="rect304" x="-47.8" y="-1973.7" class="st25" width="4962" height="5508"/>
<g id="g330" transform="translate(-47.766667,-1973.7)">
	<g id="g308">
		<path id="path306" inkscape:connector-curvature="0" class="st1" d="M1434.9,3926.2c0,0,384.6-55.5,860.5-111.6
			s862.9-91.5,862.9-91.5s-384.6,55.5-860.5,111.6S1434.9,3926.2,1434.9,3926.2L1434.9,3926.2z"/>
	</g>
	<g id="g312">
		<path id="path310" inkscape:connector-curvature="0" class="st1" d="M1320.2,3019c0,0,345.3-19.4,771.6-30.7
			c426.3-11.4,772.2-10.4,772.2-10.4s-345.3,19.4-771.6,30.7C1666.1,3020,1320.2,3019,1320.2,3019z"/>
	</g>
	<g id="g316">
		<path id="path314" inkscape:connector-curvature="0" class="st1" d="M1874.2,3948.8c0,0-182.4,36.3-409.3,68.7
			s-412.2,48.6-412.2,48.6s182.4-36.3,409.3-68.7S1874.2,3948.8,1874.2,3948.8z"/>
	</g>
	<g id="g320">
		<path id="path318" inkscape:connector-curvature="0" class="st1" d="M1005.4,2951.3c0,0,140.9-10.2,314.8-10.2
			s314.8,10.2,314.8,10.2s-140.9,10.2-314.8,10.2S1005.4,2951.3,1005.4,2951.3L1005.4,2951.3z"/>
	</g>
	<g id="g324">
		<path id="path322" inkscape:connector-curvature="0" class="st1" d="M4574.1,3356.2c0,0-229.3,47.1-514.1,92.9
			c-284.8,45.8-517.4,72.9-517.4,72.9s229.3-47.1,514.1-92.9C4341.5,3383.3,4574.1,3356.2,4574.1,3356.2z"/>
	</g>
	<g id="g328">
		<path id="path326" inkscape:connector-curvature="0" class="st1" d="M3882.9,2826.3c0,0-186,19.1-416.1,30.3
			c-230.1,11.1-417.1,10-417.1,10s186-19.1,416.1-30.3C3695.9,2825.2,3882.9,2826.3,3882.9,2826.3z"/>
	</g>
</g>
</svg>
