<?xml version="1.0" encoding="utf-8"?>
<!-- Generator: Adobe Illustrator 25.2.1, SVG Export Plug-In . SVG Version: 6.00 Build 0)  -->
<svg version="1.1" id="Layer_1" xmlns="http://www.w3.org/2000/svg" xmlns:xlink="http://www.w3.org/1999/xlink" x="0px" y="0px"
	 viewBox="0 0 374 136.7" style="enable-background:new 0 0 374 136.7;" xml:space="preserve">
<style type="text/css">
	.st0{fill:#B8CDCD;}
	.st1{fill:#BA6336;}
	.st2{fill:#93432C;}
	.st3{fill:#86ACC4;}
	.st4{fill:#E6E3DE;}
	.st5{fill:#1A1D22;}
	.st6{fill:#E2A472;}
	.st7{fill:#FFFFFF;}
	.st8{fill:#3D7795;}
	.st9{fill:#CA895C;}
	.st10{fill:#A25E36;}
	.st11{fill:#88472D;}
	.st12{fill:#683325;}
	.st13{fill:#8A4A28;}
	.st14{fill:#7C8884;}
	.st15{fill:#00A9CE;}
	.st16{fill:#7F7F7E;}
	.st17{font-family:'Montserrat-Light';}
	.st18{font-size:9.1679px;}
	.st19{fill-rule:evenodd;clip-rule:evenodd;fill:#ABABAB;}
	.st20{fill-rule:evenodd;clip-rule:evenodd;fill:#780000;}
	.st21{fill-rule:evenodd;clip-rule:evenodd;fill:#D19161;}
	.st22{fill-rule:evenodd;clip-rule:evenodd;fill:#2B2B2B;}
	.st23{fill-rule:evenodd;clip-rule:evenodd;fill:#787878;}
	.st24{fill-rule:evenodd;clip-rule:evenodd;fill:#618CC7;}
	.st25{fill-rule:evenodd;clip-rule:evenodd;fill:#406BA3;}
	.st26{fill-rule:evenodd;clip-rule:evenodd;fill:#4D4D4D;}
	.st27{fill-rule:evenodd;clip-rule:evenodd;fill:#CCCCCC;}
	.st28{fill-rule:evenodd;clip-rule:evenodd;fill:#990000;}
	.st29{fill-rule:evenodd;clip-rule:evenodd;fill:#F5B382;}
	.st30{fill-rule:evenodd;clip-rule:evenodd;fill:#999999;}
	.st31{fill-rule:evenodd;clip-rule:evenodd;fill:#A6BDDE;}
	.st32{fill-rule:evenodd;clip-rule:evenodd;fill:#FFFFFF;}
	.st33{fill-rule:evenodd;clip-rule:evenodd;fill:#57331A;}
	.st34{fill-rule:evenodd;clip-rule:evenodd;fill:#E3A370;}
	.st35{fill-rule:evenodd;clip-rule:evenodd;}
	.st36{fill:#990000;}
	.st37{fill-rule:evenodd;clip-rule:evenodd;fill:#F7C7A1;}
	.st38{fill:#E6CC80;}
	.st39{fill:#C2AB5C;}
	.st40{opacity:0.5;fill:#FFFFFF;enable-background:new    ;}
	.st41{fill-rule:evenodd;clip-rule:evenodd;fill:#9CB5D6;}
</style>
<g id="g866">
	<g id="g856">
		<g id="g854">
			<g id="g852">
				<polygon id="polygon850" points="191.6,69.8 183,78.4 182.3,77.7 190.2,69.8 182.3,62 183,61.2 				"/>
			</g>
		</g>
	</g>
	<g id="g864">
		<g id="g862">
			<g id="g860">
				
					<rect id="rect858" x="168.5" y="69.3" transform="matrix(1 -4.183770e-03 4.183770e-03 1 -0.2905 0.7522)" width="22.4" height="1"/>
			</g>
		</g>
	</g>
</g>
<g>
	
		<rect x="272.5" y="21.4" transform="matrix(-1 -4.496948e-11 4.496948e-11 -1 621.3639 135.0109)" class="st0" width="76.3" height="92.1"/>
	
		<rect x="289.2" y="17.5" transform="matrix(-1 -4.493706e-11 4.493706e-11 -1 638.0266 38.9556)" class="st1" width="59.6" height="3.9"/>
	<polygon class="st2" points="289.2,17.5 348.8,32.2 348.8,36.2 289.2,21.4 	"/>
	<polygon class="st3" points="348.8,36.2 348.8,21.5 373,28.9 373,113.6 348.8,113.6 289.1,113.6 289.1,21.4 	"/>
	
		<rect x="212.9" y="21.4" transform="matrix(-1 -4.485002e-11 4.485002e-11 -1 502.1388 135.0109)" class="st4" width="76.3" height="92.1"/>
	<g>
		
			<rect x="352.5" y="71.8" transform="matrix(-1 -4.513513e-11 4.513513e-11 -1 719.2725 176.075)" class="st0" width="14.2" height="32.5"/>
		
			<rect x="353.6" y="73.1" transform="matrix(-1 -4.472790e-11 4.472790e-11 -1 719.2726 176.075)" class="st5" width="12" height="30"/>
		
			<rect x="353" y="78.3" transform="matrix(-1 -4.567026e-11 4.567026e-11 -1 719.1814 157.8177)" class="st0" width="13.2" height="1.3"/>
		
			<rect x="353" y="84.5" transform="matrix(-1 -4.470747e-11 4.470747e-11 -1 719.1814 170.233)" class="st0" width="13.2" height="1.3"/>
		
			<rect x="353" y="90.7" transform="matrix(-1 -4.443214e-11 4.443214e-11 -1 719.1814 182.6485)" class="st0" width="13.2" height="1.3"/>
		
			<rect x="353" y="96.9" transform="matrix(-1 -4.525770e-11 4.525770e-11 -1 719.1814 195.0638)" class="st0" width="13.2" height="1.3"/>
		
			<rect x="359" y="72.4" transform="matrix(-1 -4.580259e-11 4.580259e-11 -1 719.2725 176.1671)" class="st0" width="1.2" height="31.5"/>
	</g>
	<g>
		
			<rect x="329.1" y="71.8" transform="matrix(-1 -4.449564e-11 4.449564e-11 -1 672.5122 176.075)" class="st0" width="14.2" height="32.5"/>
		
			<rect x="330.2" y="73.1" transform="matrix(-1 -4.503032e-11 4.503032e-11 -1 672.5121 176.075)" class="st5" width="12" height="30"/>
		
			<rect x="329.6" y="78.3" transform="matrix(-1 -4.456980e-11 4.456980e-11 -1 672.421 157.8177)" class="st0" width="13.2" height="1.3"/>
		
			<rect x="329.6" y="84.5" transform="matrix(-1 -4.470747e-11 4.470747e-11 -1 672.421 170.233)" class="st0" width="13.2" height="1.3"/>
		
			<rect x="329.6" y="90.7" transform="matrix(-1 -4.470747e-11 4.470747e-11 -1 672.421 182.6485)" class="st0" width="13.2" height="1.3"/>
		
			<rect x="329.6" y="96.9" transform="matrix(-1 -4.567026e-11 4.567026e-11 -1 672.421 195.0638)" class="st0" width="13.2" height="1.3"/>
		
			<rect x="335.6" y="72.4" transform="matrix(-1 -5.171298e-11 5.171298e-11 -1 672.5122 176.1671)" class="st0" width="1.2" height="31.5"/>
	</g>
	<g>
		
			<rect x="305.8" y="71.8" transform="matrix(-1 -4.411195e-11 4.411195e-11 -1 625.7518 176.075)" class="st0" width="14.2" height="32.5"/>
		
			<rect x="306.9" y="73.1" transform="matrix(-1 -4.487933e-11 4.487933e-11 -1 625.7518 176.075)" class="st5" width="12" height="30"/>
		
			<rect x="306.2" y="78.3" transform="matrix(-1 -4.443214e-11 4.443214e-11 -1 625.6606 157.8177)" class="st0" width="13.2" height="1.3"/>
		
			<rect x="306.2" y="84.5" transform="matrix(-1 -4.456980e-11 4.456980e-11 -1 625.6606 170.233)" class="st0" width="13.2" height="1.3"/>
		
			<rect x="306.2" y="90.7" transform="matrix(-1 -4.456980e-11 4.456980e-11 -1 625.6606 182.6485)" class="st0" width="13.2" height="1.3"/>
		
			<rect x="306.2" y="96.9" transform="matrix(-1 -4.622048e-11 4.622048e-11 -1 625.6606 195.0638)" class="st0" width="13.2" height="1.3"/>
		
			<rect x="312.3" y="72.4" transform="matrix(-1 -5.023549e-11 5.023549e-11 -1 625.7518 176.1671)" class="st0" width="1.2" height="31.5"/>
	</g>
	
		<rect x="213" y="17.5" transform="matrix(-1 -4.498325e-11 4.498325e-11 -1 502.1388 38.9556)" class="st6" width="76.1" height="3.9"/>
	<g>
		
			<rect x="271.6" y="69.8" transform="matrix(-1 -4.451873e-11 4.451873e-11 -1 555.2024 147.4379)" class="st7" width="12.1" height="7.9"/>
		
			<rect x="274.7" y="68.8" transform="matrix(-4.527508e-11 1 -1 -4.527508e-11 351.3201 -203.8822)" class="st8" width="5.7" height="9.9"/>
	</g>
	<g>
		
			<rect x="253.9" y="69.8" transform="matrix(-1 -4.557167e-11 4.557167e-11 -1 519.918 147.4379)" class="st7" width="12.1" height="7.9"/>
		
			<rect x="257.1" y="68.8" transform="matrix(-4.464181e-11 1 -1 -4.464181e-11 333.6777 -186.2399)" class="st8" width="5.7" height="9.9"/>
	</g>
	<g>
		
			<rect x="236.3" y="69.8" transform="matrix(-1 -4.481938e-11 4.481938e-11 -1 484.6335 147.4379)" class="st7" width="12.1" height="7.9"/>
		
			<rect x="239.4" y="68.8" transform="matrix(-4.495889e-11 1 -1 -4.495889e-11 316.0359 -168.598)" class="st8" width="5.7" height="9.9"/>
	</g>
	<g>
		
			<rect x="218.6" y="69.8" transform="matrix(-1 -4.481938e-11 4.481938e-11 -1 449.3491 147.4379)" class="st7" width="12.1" height="7.9"/>
		
			<rect x="221.8" y="68.8" transform="matrix(-4.559216e-11 1 -1 -4.559216e-11 298.3935 -150.9556)" class="st8" width="5.7" height="9.9"/>
	</g>
	<g>
		
			<rect x="253.9" y="81" transform="matrix(-1 -4.517376e-11 4.517376e-11 -1 537.5002 194.5702)" class="st9" width="29.7" height="32.6"/>
		
			<rect x="255.1" y="83" transform="matrix(-1 -4.469548e-11 4.469548e-11 -1 537.5002 196.5271)" class="st5" width="27.3" height="30.6"/>
		
			<rect x="255.1" y="82.4" transform="matrix(-1 -4.469548e-11 4.469548e-11 -1 537.5002 169.3039)" class="st7" width="27.3" height="4.5"/>
	</g>
	<g>
		
			<rect x="218.7" y="81" transform="matrix(-1 -4.511248e-11 4.511248e-11 -1 467.0512 194.5702)" class="st9" width="29.7" height="32.6"/>
		
			<rect x="219.9" y="83" transform="matrix(-1 -4.509605e-11 4.509605e-11 -1 467.0512 196.5271)" class="st5" width="27.3" height="30.6"/>
		
			<rect x="219.9" y="82.4" transform="matrix(-1 -4.516266e-11 4.516266e-11 -1 467.0512 169.3039)" class="st7" width="27.3" height="4.5"/>
	</g>
	<g>
		<polygon class="st2" points="348.6,17.5 373,25 373,28.9 348.8,21.4 348.8,21.5 348.6,21.4 		"/>
		<polygon class="st2" points="373,28.9 373,28.9 348.8,21.5 348.8,21.4 		"/>
	</g>
	<g>
		<polygon class="st10" points="277.7,96.9 277.7,100.9 280.8,100.9 280.8,113.5 257.7,113.5 257.7,96.9 		"/>
		<polygon class="st11" points="277.7,96.9 277.7,100.9 282.3,100.9 282.3,113.5 267.7,113.5 267.7,96.9 		"/>
		<g>
			<g>
				<rect x="277.3" y="96.9" class="st12" width="0.5" height="16.6"/>
			</g>
			<g>
				<rect x="272.1" y="96.9" class="st12" width="0.5" height="16.6"/>
			</g>
		</g>
		<g>
			<g>
				<rect x="264.1" y="96.9" class="st13" width="0.5" height="16.6"/>
			</g>
			<g>
				<rect x="260.5" y="96.9" class="st13" width="0.5" height="16.6"/>
			</g>
		</g>
		<g>
			<g>
				<rect x="257.7" y="100.8" class="st13" width="10" height="0.5"/>
			</g>
			<g>
				<rect x="257.7" y="105.1" class="st13" width="10" height="0.5"/>
			</g>
			<g>
				<rect x="257.7" y="109.5" class="st13" width="10" height="0.5"/>
			</g>
		</g>
		<g>
			<g>
				<g>
					<rect x="267.7" y="100.8" class="st12" width="14.6" height="0.5"/>
				</g>
			</g>
			<g>
				<g>
					<rect x="267.7" y="105.1" class="st12" width="14.6" height="0.5"/>
				</g>
			</g>
			<g>
				<g>
					<rect x="267.7" y="109.5" class="st12" width="14.6" height="0.5"/>
				</g>
			</g>
		</g>
		<g>
			<g>
				
					<rect x="268.7" y="99.2" transform="matrix(-1 -4.227608e-11 4.227608e-11 -1 538.7577 199.4221)" class="st14" width="1.3" height="0.9"/>
				
					<rect x="270.3" y="103.7" transform="matrix(-1 -4.650381e-11 4.650381e-11 -1 541.8288 208.3684)" class="st14" width="1.3" height="0.9"/>
				
					<rect x="268.3" y="106.3" transform="matrix(-1 -3.946011e-11 3.946011e-11 -1 537.8453 213.5759)" class="st14" width="1.3" height="0.9"/>
				
					<rect x="269.8" y="110.4" transform="matrix(-1 -4.650648e-11 4.650648e-11 -1 540.8495 221.6543)" class="st14" width="1.3" height="0.9"/>
			</g>
			<g>
				<rect x="278.7" y="110.2" class="st14" width="1.3" height="0.9"/>
				<rect x="279.9" y="107.8" class="st14" width="1.3" height="0.9"/>
				<rect x="280.2" y="103.3" class="st14" width="1.3" height="0.9"/>
			</g>
			<g>
				<rect x="273.7" y="111.9" class="st14" width="1.3" height="0.9"/>
				<rect x="273.9" y="106.9" class="st14" width="1.3" height="0.9"/>
				<rect x="275.4" y="101.9" class="st14" width="1.3" height="0.9"/>
				<rect x="273.9" y="97.7" class="st14" width="1.3" height="0.9"/>
			</g>
		</g>
		<g>
			
				<rect x="265.4" y="96.9" transform="matrix(-1 -5.080926e-11 5.080926e-11 -1 531.6139 194.5853)" class="st13" width="0.8" height="0.8"/>
			
				<rect x="265.4" y="101.2" transform="matrix(-1 -4.859991e-11 4.859991e-11 -1 531.6139 203.1754)" class="st13" width="0.8" height="0.8"/>
			
				<rect x="265.4" y="105.6" transform="matrix(-1 -3.534563e-11 3.534563e-11 -1 531.6139 212.0327)" class="st13" width="0.8" height="0.8"/>
			
				<rect x="265.4" y="110" transform="matrix(-1 -4.859991e-11 4.859991e-11 -1 531.6139 220.7195)" class="st13" width="0.8" height="0.8"/>
		</g>
		<g>
			
				<rect x="262.1" y="96.9" transform="matrix(-1 -3.534563e-11 3.534563e-11 -1 525.0755 194.5853)" class="st13" width="0.8" height="0.8"/>
			
				<rect x="262.1" y="101.2" transform="matrix(-1 -5.301816e-11 5.301816e-11 -1 525.0755 203.1754)" class="st13" width="0.8" height="0.8"/>
			
				<rect x="262.1" y="105.6" transform="matrix(-1 -5.080926e-11 5.080926e-11 -1 525.0755 212.0327)" class="st13" width="0.8" height="0.8"/>
			
				<rect x="262.1" y="110" transform="matrix(-1 -4.859991e-11 4.859991e-11 -1 525.0755 220.7195)" class="st13" width="0.8" height="0.8"/>
		</g>
		<g>
			
				<rect x="258.9" y="96.9" transform="matrix(-1 -5.080926e-11 5.080926e-11 -1 518.5373 194.5853)" class="st13" width="0.8" height="0.8"/>
			
				<rect x="258.9" y="101.2" transform="matrix(-1 -3.534563e-11 3.534563e-11 -1 518.5373 203.1754)" class="st13" width="0.8" height="0.8"/>
			
				<rect x="258.9" y="105.6" transform="matrix(-1 -4.639101e-11 4.639101e-11 -1 518.5373 212.0327)" class="st13" width="0.8" height="0.8"/>
			
				<rect x="258.9" y="110" transform="matrix(-1 -3.976343e-11 3.976343e-11 -1 518.5373 220.7195)" class="st13" width="0.8" height="0.8"/>
		</g>
	</g>
	<g>
		<polygon class="st10" points="242.4,97 242.4,101.1 245.6,101.1 245.6,113.7 225.5,113.7 225.5,97 		"/>
		<rect x="237" y="97" class="st11" width="10" height="16.6"/>
		<g>
			<g>
				<rect x="242" y="97" class="st12" width="0.5" height="16.6"/>
			</g>
			<g>
				<rect x="236.9" y="97" class="st12" width="0.5" height="16.6"/>
			</g>
		</g>
		<g>
			<g>
				<rect x="231.9" y="97" class="st13" width="0.5" height="16.6"/>
			</g>
			<g>
				<rect x="228.4" y="97" class="st13" width="0.5" height="16.6"/>
			</g>
		</g>
		<g>
			<g>
				<rect x="225.5" y="100.9" class="st13" width="10" height="0.5"/>
			</g>
			<g>
				<rect x="225.5" y="105.3" class="st13" width="10" height="0.5"/>
			</g>
			<g>
				<rect x="225.5" y="109.6" class="st13" width="10" height="0.5"/>
			</g>
		</g>
		<g>
			<g>
				<g>
					<rect x="235.6" y="100.9" class="st12" width="11.5" height="0.5"/>
				</g>
			</g>
			<g>
				<g>
					<rect x="235.6" y="105.3" class="st12" width="11.5" height="0.5"/>
				</g>
			</g>
			<g>
				<g>
					<rect x="235.6" y="109.6" class="st12" width="11.5" height="0.5"/>
				</g>
			</g>
		</g>
		<g>
			<g>
				
					<rect x="233.5" y="99.4" transform="matrix(-1 -4.932200e-11 4.932200e-11 -1 468.2338 199.7021)" class="st14" width="1.3" height="0.9"/>
				
					<rect x="235" y="103.9" transform="matrix(-1 -4.509427e-11 4.509427e-11 -1 471.3049 208.6484)" class="st14" width="1.3" height="0.9"/>
				
					<rect x="233" y="106.5" transform="matrix(-1 -3.946011e-11 3.946011e-11 -1 467.3214 213.8559)" class="st14" width="1.3" height="0.9"/>
				
					<rect x="234.5" y="110.5" transform="matrix(-1 -3.946011e-11 3.946011e-11 -1 470.3257 221.9343)" class="st14" width="1.3" height="0.9"/>
			</g>
			<g>
				<rect x="243.4" y="110.4" class="st14" width="1.3" height="0.9"/>
				<rect x="244.6" y="107.9" class="st14" width="1.3" height="0.9"/>
				<rect x="244.9" y="103.4" class="st14" width="1.3" height="0.9"/>
			</g>
			<g>
				<rect x="238.4" y="112.1" class="st14" width="1.3" height="0.9"/>
				<rect x="238.7" y="107.1" class="st14" width="1.3" height="0.9"/>
				<rect x="240.2" y="102.1" class="st14" width="1.3" height="0.9"/>
				<rect x="238.7" y="97.8" class="st14" width="1.3" height="0.9"/>
			</g>
		</g>
		<g>
			
				<rect x="233.3" y="97" transform="matrix(-1 -3.534563e-11 3.534563e-11 -1 467.3391 194.8653)" class="st13" width="0.8" height="0.8"/>
			
				<rect x="233.3" y="101.3" transform="matrix(-1 -5.080926e-11 5.080926e-11 -1 467.3391 203.4555)" class="st13" width="0.8" height="0.8"/>
			
				<rect x="233.3" y="105.8" transform="matrix(-1 -3.755453e-11 3.755453e-11 -1 467.3391 212.3127)" class="st13" width="0.8" height="0.8"/>
			
				<rect x="233.3" y="110.1" transform="matrix(-1 -5.080926e-11 5.080926e-11 -1 467.3391 220.9995)" class="st13" width="0.8" height="0.8"/>
		</g>
		<g>
			
				<rect x="230" y="97" transform="matrix(-1 -4.639101e-11 4.639101e-11 -1 460.8007 194.8653)" class="st13" width="0.8" height="0.8"/>
			
				<rect x="230" y="101.3" transform="matrix(-1 -3.755453e-11 3.755453e-11 -1 460.8007 203.4555)" class="st13" width="0.8" height="0.8"/>
			
				<rect x="230" y="105.8" transform="matrix(-1 -4.639101e-11 4.639101e-11 -1 460.8007 212.3127)" class="st13" width="0.8" height="0.8"/>
			
				<rect x="230" y="110.1" transform="matrix(-1 -4.859991e-11 4.859991e-11 -1 460.8007 220.9995)" class="st13" width="0.8" height="0.8"/>
		</g>
		<g>
			
				<rect x="226.7" y="97" transform="matrix(-1 -4.859991e-11 4.859991e-11 -1 454.2625 194.8653)" class="st13" width="0.8" height="0.8"/>
			
				<rect x="226.7" y="101.3" transform="matrix(-1 -5.301816e-11 5.301816e-11 -1 454.2625 203.4555)" class="st13" width="0.8" height="0.8"/>
			
				<rect x="226.7" y="105.8" transform="matrix(-1 -4.639101e-11 4.639101e-11 -1 454.2625 212.3127)" class="st13" width="0.8" height="0.8"/>
			
				<rect x="226.7" y="110.1" transform="matrix(-1 -3.976343e-11 3.976343e-11 -1 454.2625 220.9995)" class="st13" width="0.8" height="0.8"/>
		</g>
	</g>
	<g>
		<path class="st15" d="M228.4,36.8c-0.2,1.3-0.9,2.4-2.2,3.3c-1.1,0.8-2.4,1.3-3.7,1.5c0,0-0.1,0-0.1,0c-0.1,0-0.4-0.5-0.7-1.3
			s-0.5-1.4-0.5-1.6c0-0.1,0.1-0.1,0.2-0.1c0.6-0.1,1.3-0.3,1.9-0.5c0.7-0.3,1.1-0.8,1.2-1.4c0.1-0.4-0.1-0.9-0.4-1.4
			c-0.6-0.9-0.9-1.3-1-1.4c-0.3-0.7-0.4-1.4-0.3-2.2c0.2-1.1,0.9-2.1,2.1-2.9c1-0.6,2.2-1.1,3.4-1.2c0.1,0,0.1,0,0.2,0
			c0.1,0,0.2,0.1,0.2,0.2c0.2,0.8,0.4,1.7,0.7,2.5c0,0,0,0.1,0,0.1c0,0.1-0.1,0.2-0.2,0.2c0,0,0,0,0,0c-0.1,0-0.2,0-0.2,0
			c-0.1,0-0.2,0-0.3,0c-0.4,0-0.9,0.1-1.2,0.3c-0.4,0.2-0.7,0.6-0.8,1c-0.1,0.4,0.1,0.9,0.4,1.4c0.6,1,0.9,1.5,1,1.6
			C228.4,35.3,228.5,36.1,228.4,36.8z"/>
		<path class="st15" d="M239.6,34.3l-1.2,6.5c0,0.2-0.1,0.3-0.3,0.4c-0.2,0-0.7,0-1.4,0c-0.5,0-1,0-1.4-0.1c-0.2,0-0.3-0.2-0.2-0.4
			c0.1-0.5,0.2-1.3,0.5-2.4c0.2-1.1,0.4-1.9,0.5-2.4c0.1-0.7-0.2-1.1-0.9-1.1c-0.3,0-0.7,0.1-0.9,0.3c-0.4,0.2-0.6,0.4-0.7,0.7
			l-0.4,2.3c-0.1,0.3-0.1,0.8-0.2,1.4c-0.1,0.6-0.2,1.1-0.2,1.4c0,0.2-0.2,0.4-0.4,0.4c-0.2,0-0.7,0-1.6,0c-0.4,0-0.7,0-1.1-0.1
			c-0.2,0-0.3-0.2-0.3-0.3c0.1-0.5,0.2-1.2,0.4-2.2c0.2-1,0.3-1.7,0.4-2.2c0.4-2,0.6-3.7,0.8-5.1c0.1-0.5,0.1-0.9,0.2-1.4
			c0.1-0.5,0.1-0.9,0.1-1.4c0-0.1,0-0.1,0-0.2c0-0.1,0.1-0.2,0.2-0.2c0.3-0.1,0.6-0.1,0.9-0.1c0.5,0,0.8,0,0.9,0l1.7-0.2
			c0.1,0,0.1,0.1,0.1,0.2c0,0.2-0.1,0.5-0.2,0.8c-0.1,0.4-0.2,0.7-0.2,0.8c-0.3,1.4-0.5,2.5-0.6,3.4c0,0.1,0,0.2,0.1,0.2
			c0,0,0.2-0.1,0.5-0.3c0.4-0.2,0.8-0.4,1.2-0.6c0.5-0.2,1-0.3,1.5-0.3c0.8,0,1.4,0.2,1.9,0.6C239.6,32.9,239.8,33.5,239.6,34.3z"/>
		<path class="st15" d="M244.2,36.8c-0.1,0.5-0.2,1.1-0.3,2c-0.1,0.9-0.3,1.6-0.3,2c0,0.1-0.1,0.2-0.3,0.2c-0.5,0-1,0.1-1.4,0.1
			c-0.5,0-1,0-1.4-0.1c-0.1,0-0.2-0.1-0.2-0.1c0-0.1,0-0.2,0-0.3c0.1-0.4,0.2-1.1,0.4-1.9c0.2-0.9,0.3-1.5,0.4-2
			c0.3-1.4,0.4-2.8,0.5-4.2c0-0.1,0-0.1,0-0.2c0-0.1,0.1-0.2,0.3-0.2s0.4,0,0.8,0.1c0.4,0,0.6,0.1,0.8,0.1c0.2,0,0.5,0,0.8,0
			c0.4,0,0.6,0,0.8,0c0.1,0,0.2,0.1,0.2,0.2c0,0,0,0.1,0,0.2C244.8,33.9,244.5,35.3,244.2,36.8z M245.7,29.8
			c-0.2,1.1-0.9,1.6-2.1,1.6c-0.4,0-0.9-0.1-1.2-0.4c-0.3-0.3-0.4-0.7-0.3-1.2c0.1-0.5,0.4-0.9,0.8-1.2c0.4-0.3,0.9-0.4,1.4-0.4
			c0.4,0,0.9,0.1,1.2,0.4C245.6,28.9,245.8,29.4,245.7,29.8L245.7,29.8z"/>
		<path class="st15" d="M256.4,36.6c-0.2,1.3-0.8,2.4-1.8,3.3c-0.9,0.9-2.2,1.4-3.4,1.4c-0.5,0-1-0.1-1.5-0.4
			c-0.5-0.2-0.7-0.4-0.7-0.4c-0.1,0-0.1,0.1-0.2,0.3c-0.1,0.3-0.1,0.8-0.2,1.4c-0.1,0.6-0.2,1.1-0.2,1.4c0,0.2-0.2,0.3-0.4,0.3
			c0,0,0,0,0,0l-1.9,0c-0.3,0-0.6,0-0.8,0c-0.1,0-0.2-0.2-0.2-0.3c0,0,0,0,0,0l1.3-7.2c0.2-1.2,0.3-2.5,0.3-3.7c0-0.1,0-0.1,0-0.2
			c0-0.1,0.1-0.2,0.1-0.2c0.5-0.1,1-0.2,1.5-0.3c0.5-0.1,1-0.1,1.5-0.2c0.2,0,0.4,0.2,0.3,0.5c0,0.3,0,0.5,0,0.5
			c-0.1,0,0.2-0.2,0.9-0.5c0.7-0.3,1.2-0.5,1.7-0.5c1.4,0,2.4,0.4,3,1.3C256.5,34.1,256.7,35.2,256.4,36.6z M252.9,36.6
			c0.1-0.5,0-0.9-0.2-1.3c-0.2-0.4-0.7-0.6-1.1-0.6c-0.5,0-1,0.2-1.3,0.6c-0.3,0.4-0.6,0.8-0.6,1.3c-0.1,0.5,0,1,0.2,1.3
			c0.2,0.4,0.6,0.6,1.1,0.6C252,38.4,252.7,37.8,252.9,36.6L252.9,36.6z"/>
		<path class="st15" d="M261.1,36.8c-0.1,0.5-0.2,1.1-0.3,2c-0.1,0.9-0.3,1.6-0.3,2c0,0.1-0.1,0.2-0.3,0.2c-0.5,0-1,0.1-1.4,0.1
			c-0.5,0-1,0-1.4-0.1c-0.1,0-0.2-0.1-0.2-0.1c0-0.1,0-0.2,0-0.3c0.1-0.4,0.2-1.1,0.4-1.9c0.2-0.9,0.3-1.5,0.4-2
			c0.3-1.4,0.4-2.8,0.5-4.2c0-0.1,0-0.2,0-0.2c0-0.1,0.1-0.2,0.3-0.2c0.2,0,0.4,0,0.8,0.1c0.4,0,0.6,0.1,0.8,0.1s0.5,0,0.8,0
			c0.4,0,0.6,0,0.8,0c0.1,0,0.2,0.1,0.2,0.2c0,0,0,0.1,0,0.2C261.6,33.9,261.3,35.3,261.1,36.8z M262.5,29.8
			c-0.2,1.1-0.9,1.6-2.1,1.6c-0.4,0-0.9-0.1-1.2-0.4c-0.3-0.3-0.4-0.7-0.3-1.2c0.1-0.5,0.4-0.9,0.8-1.2c0.4-0.3,0.9-0.4,1.4-0.4
			c0.4,0,0.9,0.1,1.2,0.4C262.5,28.9,262.6,29.4,262.5,29.8L262.5,29.8z"/>
		<path class="st15" d="M268.9,38.3c-0.1,0.3-0.1,0.6-0.2,0.9c-0.1,0.3-0.2,0.6-0.2,0.8c0,0.1,0,0.2-0.1,0.3
			c-0.1,0.1-0.2,0.2-0.3,0.2c-0.9,0.4-1.8,0.7-2.8,0.7c-1.8,0-2.6-0.7-2.3-2.1c0.1-0.4,0.2-1,0.4-1.9c0.2-0.8,0.3-1.4,0.4-1.8
			c0-0.3-0.1-0.4-0.4-0.4h-0.1c-0.1,0-0.1,0-0.1,0c-0.2,0-0.3-0.1-0.3-0.3c0-0.1,0.1-0.3,0.1-0.5c0.1-0.2,0.1-0.4,0.1-0.5
			c0-0.1,0.1-0.3,0.1-0.6c0-0.3,0.1-0.5,0.1-0.6c0-0.1,0.2-0.2,0.6-0.2c0.2,0,0.4-0.1,0.4-0.2c0.1-0.4,0.2-0.7,0.2-1.1
			c0.1-0.8,0.2-1.2,0.2-1.2c0.1-0.7,0.3-1.1,0.4-1.1c0.2,0,0.5,0,0.7,0.1c0.2,0.1,0.5,0.1,0.7,0.1c0.3,0,0.8,0.1,1.4,0.2
			c0.2,0,0.2,0.1,0.2,0.2c0,0.3-0.1,0.6-0.3,1.1s-0.2,0.9-0.3,1.1c-0.1,0.3,0,0.5,0.2,0.5c0.2,0,0.6,0,1,0s0.8,0,1,0
			c0.1,0,0.2,0,0.2,0.1c0,0.1-0.1,0.4-0.2,0.6c-0.1,0.3-0.1,0.5-0.2,0.6c0,0.1-0.1,0.4-0.1,0.7c0,0.3-0.1,0.5-0.1,0.7
			c0,0.1-0.1,0.2-0.3,0.2c-0.1,0-0.3,0-0.6,0s-0.5,0-0.6,0h-0.7c-0.1,0-0.2,0.1-0.2,0.4l-0.1,0.7c0,0.3-0.1,0.5-0.1,0.7
			c-0.1,0.5-0.1,0.9,0,1.1c0.1,0.3,0.4,0.4,0.9,0.4c0.2,0,0.5,0,0.7-0.1c0.2-0.1,0.4-0.1,0.6-0.1C268.9,38.1,268.9,38.2,268.9,38.3z
			"/>
		<path class="st15" d="M279.2,36.5c-0.2,1.3-0.9,2.6-1.9,3.5c-1,0.9-2.3,1.4-3.7,1.3c-1.4,0-2.4-0.4-3.2-1.3c-0.7-0.9-1-2-0.7-3.4
			c0.3-1.5,0.9-2.6,1.9-3.5c1-0.9,2.2-1.4,3.7-1.4c1.4,0,2.5,0.4,3.2,1.3S279.5,35,279.2,36.5z M276.1,36.5c0.1-0.4,0-0.9-0.2-1.3
			c-0.2-0.4-0.7-0.6-1.1-0.6c-0.5,0-1,0.2-1.3,0.6c-0.4,0.3-0.6,0.8-0.7,1.3c-0.1,0.4,0,0.9,0.2,1.3c0.2,0.4,0.7,0.6,1.1,0.6
			c0.5,0,1-0.2,1.3-0.6C275.8,37.4,276.1,37,276.1,36.5z"/>
		<path class="st15" d="M279.9,30C279.9,30,279.9,30,279.9,30c-0.1,0-0.1,0-0.2,0c-0.1,0-0.1,0-0.2,0h0c0,0,0,0,0,0l0-0.1
			c0-0.1-0.1-0.1-0.1-0.2c0,0,0,0-0.1,0h-0.1c0,0,0,0,0,0s0,0.1,0,0.2c0,0.1,0,0.1,0,0.2c0,0,0,0,0,0h0h-0.2c0,0-0.1,0-0.1,0
			c0,0,0,0,0,0c0-0.1,0-0.2,0-0.3c0-0.1,0-0.2,0-0.3c0-0.2,0-0.4,0-0.6v0c0,0,0,0,0,0c0,0,0.1,0,0.3,0h0.2c0.1,0,0.2,0,0.3,0.1
			c0.1,0.1,0.1,0.2,0.1,0.3c0,0.1,0,0.1,0,0.2c0,0.1-0.1,0.1-0.1,0.1c0,0,0,0,0,0l0.1,0.2C279.9,29.8,279.9,29.9,279.9,30z
			 M279.6,29.2c0-0.1,0-0.1-0.1-0.1c-0.1,0-0.1,0-0.2,0c-0.1,0-0.1,0-0.1,0c0,0.1,0,0.1,0,0.2c0,0,0,0,0,0.1c0,0,0,0,0,0.1
			c0,0,0,0,0,0c0,0,0.1,0,0.1,0C279.5,29.3,279.6,29.3,279.6,29.2L279.6,29.2z"/>
		<path class="st15" d="M279.5,30.6c-0.7,0-1.2-0.5-1.2-1.2c0-0.7,0.5-1.2,1.2-1.2c0.7,0,1.2,0.5,1.2,1.2l0,0
			C280.7,30,280.1,30.6,279.5,30.6z M279.5,28.4c-0.5,0-1,0.4-1,1c0,0.5,0.4,1,1,1c0.5,0,1-0.4,1-1c0,0,0,0,0,0
			C280.4,28.8,280,28.4,279.5,28.4z"/>
	</g>
	<text transform="matrix(1 0 0 1 220.1992 58.9662)" class="st16 st17 st18">WAREHOUSE</text>
</g>
<g>
	<path class="st19" d="M76.3,123.7c0.4,0.6,0.3,1.7-0.4,2.3c-0.7,0.6-6.2,2-8.2,1.7c-2-0.2-5.5-2.1-6.8-2c-1.3,0.1-4.4,0-5.2-1
		c-0.3-0.4,0-1.6,0.7-2.9c0.7,1,1.6,2.1,2.5,2.1c2.1-0.1,6.9,0.7,8.6,1.5C70,126.5,74.2,125.3,76.3,123.7L76.3,123.7z"/>
	<path class="st20" d="M64.4,118c0,0.1,0.1,0.2,0.1,0.2c0.6,1.2,5,3.6,6,3.6c1.1,0,4.8,1.3,5.3,1.5c0.5,0.2,0.3,0.2,0.4,0.4
		c-2.1,1.6-6.3,2.9-8.8,1.7c-1.7-0.8-6.5-1.6-8.6-1.5c-0.9,0-1.8-1.1-2.5-2.1c0.1-0.3,0.3-0.6,0.4-0.9c0.4-0.7,0.8-1.4,1.2-2.1
		C61.6,122.5,61.9,119.1,64.4,118L64.4,118z"/>
	<path class="st21" d="M62.4,105.7c1.3-0.9,3.8,1.2,4.5,1.4c-0.6,2.5-2.6,9.6-2.5,10.6c0.1,0.9,0,0.2,0.1,0.3
		c-2.6,1.1-2.8,4.5-6.5,0.9c0.2-0.3,0.3-0.5,0.5-0.8c0.5-0.7,0.9-1.4,1.1-1.7C60.3,115.3,62,105.9,62.4,105.7L62.4,105.7z"/>
	<path class="st22" d="M52.3,84.4c2.5,4.1,7.1,9.3,8.5,13.8c1.4,4.5-0.6,14.2-0.4,14.6c1.5-0.3,5.5,0.3,7,0.7c0.7-2.2,2-13.2,2-15.1
		c0-1.9-1-9.9-2.3-15.6c-0.9,0.6-2.3,1.3-3.4,1.4c-0.5-3.7-0.6-5.7-2.5-10.2c0.5,5,0.6,9.6,0.6,10.5C58.6,84.8,55.2,84.7,52.3,84.4
		L52.3,84.4z"/>
	<polygon class="st23" points="58.8,106.9 69.3,107.4 69,114.9 58.5,114.5 58.8,106.9 	"/>
	<path class="st24" d="M68,82.1C67.5,69.7,62.5,53.2,58,47c-4.6-6.2-8.8-10.8-13-7.9c-4.1,2.9-5.3,6.2-5.8,8.8
		c-0.5,2.6,0,9,1.2,11.4c1.2,2.3,6.1,8.7,6.2,11.4c0.2,2.7-0.8,6.3-0.6,12.4c2.6,1.1,9.6,2.1,15.8,1.4c0-0.9-0.1-5.5-0.6-10.5
		c2,4.5,2,6.5,2.5,10.2C65.3,84.1,67.5,82.6,68,82.1L68,82.1z"/>
	<path class="st25" d="M67.9,79.9c-0.8-10.4-4.4-23.1-8.1-30.1c-4.4,8.6-14,1-19.9-4.4c-0.3,0.9-0.5,1.7-0.7,2.4
		c-0.5,2.6,0,9,1.2,11.4c0.1,0.2,0.2,0.3,0.3,0.5c0,0,0.1-0.1,0.1-0.1c-0.1-0.2-0.3-0.2,0.3-0.3c0.9,1.7,11.9,11.4,20.2,16.9
		c-0.1-0.8-0.1-1.6-0.2-2.4c0.5,1.1,0.9,2.1,1.2,3C64.5,78.4,66.4,79.4,67.9,79.9L67.9,79.9z"/>
	<path class="st26" d="M47.9,83.7c0.8,4.7,2.6,11.8,2,14.4c-0.7,3.2-6.4,14.7-6.4,15.1c1.5,0.2,6.4,2,7.7,2.9
		c1.4-1.8,7.1-11.7,7.4-13.3c0.3-1.6,4.1-13.9,4-24.6c-0.3-1.2-0.8-2.6-1.5-4.3c0.5,5,0.6,9.6,0.6,10.5C56.8,85,51.2,84.5,47.9,83.7
		L47.9,83.7z"/>
	<path class="st27" d="M59,127.2c0.3,0.7,0,1.8-0.7,2.2c-0.9,0.5-7,2.2-9,1.7c-1.9-0.5-5.2-2.8-6.5-2.8c-1.3,0-4.4-0.5-5.1-1.6
		c-0.3-0.4,0.2-1.6,1-2.8c0.5,1,1.3,2.3,2.2,2.4c2.1,0.2,6.7,1.6,8.4,2.6C51.7,130.2,56.7,128.5,59,127.2L59,127.2z"/>
	<path class="st28" d="M47.3,121c0,0.1,0,0.2,0.1,0.2c0.4,1,2.1,2.4,3.6,3.4c1,0.6,1.9,1.1,2.3,1c0.9-0.1,4.5,0.6,5.4,1
		c0.2,0.1,0.3,0.3,0.4,0.5c-2.3,1.3-7.3,3-9.6,1.6c-1.6-1-6.2-2.4-8.4-2.6c-0.9-0.1-1.7-1.3-2.2-2.4c0.2-0.3,0.3-0.5,0.5-0.8
		c0.4-0.7,0.9-1.3,1.4-1.9C43.9,125.1,44.6,121.8,47.3,121L47.3,121z"/>
	<path class="st29" d="M46.9,108.6c1.4-0.7,3.6,1.7,4.3,2c-0.9,2.4-3.8,9.2-3.8,10.2s0,0.2,0,0.3c-2.7,0.8-3.4,4.1-6.6,0
		c0.2-0.3,0.4-0.5,0.6-0.7c0.5-0.7,1-1.2,1.3-1.6C43.5,117.8,46.4,108.8,46.9,108.6L46.9,108.6z"/>
	<polygon class="st30" points="45.2,105.5 55.9,110.4 52.4,118 41.8,113.1 45.2,105.5 	"/>
	<path class="st31" d="M55.9,46.1c-2.4-4.8-6.1-9.8-9.9-9.1c-4.2,0.8-5.6,6.4-1.5,13.1c0.4-1.8,0.8-3.1,1.3-3.4
		c0.6-0.3,4.6,0.4,7,2.5c-0.4-3.4,0.1-5.2,0.5-5.4C53.7,43.5,55.2,45.3,55.9,46.1L55.9,46.1z"/>
	<path class="st29" d="M45.1,34.3L45.1,34.3c1.7,0,2.9,0.9,3.6,2.4l1.6,3.7l3,9.2L43,42.5l-0.3-4.7C42.5,36.2,43.4,34.6,45.1,34.3
		L45.1,34.3z"/>
	<polygon class="st32" points="51.3,43.7 53.3,49.6 46.8,45.2 51.3,43.7 	"/>
	<path class="st33" d="M21.8,3.6c-0.2,0.1-0.4,0.3-0.5,0.4c-2.3,1.9-4.1,4.9-4.5,7.5c0.4-1,2.7-3.5,5.4-2.5
		c-7.8,0.5-7.5,10.5-4.2,13.1c-1.1-2.4-1.5-5.5,1.3-7.2l0.3-0.1c-5.6,5.6,5.8,13.3,7.4,15.5c1.6,2.2,2.4,8.4,4.3,9.7
		c1.3,0.9,6.6,1.9,11.1,1.5c1.7-0.2,3.4-0.5,4.7-1.2c-1-2.7-2.1-5.4-3.1-7.6C41.2,27.1,30.9,11.6,21.8,3.6L21.8,3.6z"/>
	<path class="st33" d="M53.9,25.5c-0.5-2.5-5.7-6.9-7.4-9.9c-1.8-3-2.5-8-4.5-10c-2-2-4.4-1.9-4.7,0.4c-1.2-7.4-9-6.8-12.1-4.5
		c3.3-0.7,5.1,0.5,6,2.8c-3.1-3.2-6.5-2.7-9.3-0.7c9.1,8,19.3,23.5,22,29c1,2.2,2.1,4.8,3.1,7.6c0.3-0.2,0.6-0.3,0.9-0.6
		C52,36.5,54.4,28,53.9,25.5L53.9,25.5z"/>
	<path class="st29" d="M28.8,10.8C32.1,9,39.3,7,41.1,9.4c2.1,2.8,8.6,12.2,8.7,14.6c0.1,2.4-6.1,3.2-8.3,4.4
		C38.6,23.6,33.8,16.7,28.8,10.8L28.8,10.8z"/>
	<path class="st34" d="M41.4,28.5c-1.1,0.7-2.5,2.7-3.9,4.4c-1.2,1.5-2.4,2.8-3.6,2.9c-2.4,0.3-10.4-11.1-11.2-12.7
		c-0.7-1.3,1.5-7.2,3.5-10.2c0.4-0.6,0.8-1.1,1.1-1.4c0.3-0.3,0.7-0.5,1.3-0.8C33.8,16.7,38.6,23.6,41.4,28.5
		C41.5,28.5,41.5,28.5,41.4,28.5L41.4,28.5z"/>
	<path class="st29" d="M46.8,13c-0.5,0.2-0.9,0.5-1.2,0.9c0.2,0.6,0.5,1.1,0.8,1.6c0.6,1.1,1.7,2.3,2.8,3.6c1.4-0.6,2.1-2.4,1.4-4.1
		C50,13.4,48.3,12.5,46.8,13L46.8,13z"/>
	<path class="st34" d="M23.2,29c-1,1.2-0.8,3.1,0.6,4.3c1.4,1.2,3.3,1.3,4.3,0.1c0,0,0-0.1,0.1-0.1c-0.4-1.2-0.8-2.3-1.3-3
		c-0.3-0.5-1.1-1.2-2.1-2.1C24.2,28.3,23.6,28.5,23.2,29L23.2,29z"/>
	<path class="st34" d="M42.3,29.6c-0.1,0.1-0.2,0.1-0.4,0.2c-0.1,0.1,0.3-0.3-0.4,0.3c-0.7,0.6-3.5,3.7-3.4,4.8
		c0.2,1.1,2.4,3.4,3.8,3c1.4-0.4,2-1.6,2.8-2.6c0.1-0.1,0.1-0.1,0.2-0.2C44.2,33.1,43.3,31.3,42.3,29.6L42.3,29.6z"/>
	<path class="st29" d="M47.3,27.7c-1.1-0.1-3.5,1.1-5,1.9c1,1.7,1.9,3.5,2.6,5.5c0.2-0.2,0.4-0.5,0.6-0.6c1.1-0.9,2.9-0.4,3.7-2
		C50,30.9,48.4,27.8,47.3,27.7L47.3,27.7z"/>
	<path class="st32" d="M47.3,27.9c-1.2,2.1-5.7,5.4-8.7,6.8C43.1,35.1,45.8,34.3,47.3,27.9L47.3,27.9z"/>
	<path class="st35" d="M38.9,17c-0.4,0.4-0.3,1.3,0.4,2c0.7,0.7,1.6,0.9,2,0.5c0.4-0.4,0.3-1.3-0.4-2C40.2,16.8,39.3,16.6,38.9,17
		L38.9,17z"/>
	<path class="st35" d="M30.5,22.8c-0.6,0.2-0.8,1.1-0.6,2c0.3,0.9,1,1.5,1.6,1.3c0.6-0.2,0.8-1.1,0.6-2C31.7,23.2,31,22.6,30.5,22.8
		L30.5,22.8z"/>
	<path class="st36" d="M42.2,11.7L37.4,15c-0.8,0.6-1.3,1.4-1.6,2.2c-0.2,0.9-0.1,1.8,0.4,2.5c0.1,0.2,0.2,0.3,0.4,0.5l-1.7,1.2
		c-0.1-0.2-0.2-0.3-0.3-0.5c-0.5-0.7-1.3-1.2-2.2-1.3c-0.9-0.1-1.8,0.1-2.6,0.7L25,23.6c-0.8,0.6-1.3,1.4-1.6,2.2
		c-0.2,0.9-0.1,1.8,0.4,2.5c2.1,3,4.8,4,7.2,3.6c0.9-0.1,1.8-0.5,2.6-1c0.8-0.5,1.4-1.2,1.9-2c1.1-1.9,1.2-4.4-0.2-7l1.8-1.2
		c2,2.3,4.4,3.1,6.5,2.7c0.9-0.1,1.8-0.5,2.6-1c0.8-0.5,1.4-1.2,1.9-2c1.2-2.1,1.3-5-0.8-8c-0.5-0.7-1.3-1.2-2.2-1.3
		C43.9,11,43,11.2,42.2,11.7L42.2,11.7z M25.5,24.3l4.8-3.3c0.6-0.4,1.3-0.6,2-0.5c0.6,0.1,1.2,0.4,1.5,0.9c1.8,2.7,1.8,5.2,0.8,7
		c-0.4,0.7-0.9,1.3-1.6,1.7c-0.6,0.4-1.4,0.7-2.2,0.9c-2,0.3-4.4-0.6-6.2-3.2c-0.3-0.5-0.4-1.1-0.3-1.7
		C24.5,25.4,24.9,24.8,25.5,24.3L25.5,24.3z M37.9,15.8l4.8-3.3c0.6-0.4,1.3-0.6,2-0.5c0.6,0.1,1.2,0.4,1.5,0.9
		c1.8,2.7,1.8,5.2,0.8,7c-0.4,0.7-0.9,1.3-1.6,1.7c-0.6,0.4-1.4,0.7-2.2,0.9c-2,0.3-4.4-0.6-6.2-3.2c-0.3-0.5-0.4-1.1-0.3-1.7
		C36.9,16.8,37.3,16.2,37.9,15.8L37.9,15.8z"/>
	<polygon class="st37" points="41.2,28.1 43.4,26.8 40.1,23.8 36.8,20.8 41.2,28.1 	"/>
	<polygon class="st29" points="36.8,20.8 36.8,20.9 37.9,25.1 39,29.5 41.2,28.2 41.2,28.1 36.8,20.8 	"/>
	<path class="st35" d="M27,17.2l-1,1.1c-0.3,0.3-0.3,0.7,0,1l0,0c0.3,0.3,0.7,0.3,1,0l1-1.1c0.3-0.3,0.3-0.7,0-1v0
		C27.7,16.9,27.3,17,27,17.2L27,17.2z"/>
	<path class="st35" d="M36.1,11l-1.3,0.6c-0.4,0.2-0.5,0.6-0.4,0.9v0c0.2,0.4,0.6,0.5,0.9,0.4l1.3-0.6c0.4-0.2,0.5-0.6,0.4-0.9v0
		C36.9,11,36.5,10.9,36.1,11L36.1,11z"/>
	<g>
		<polygon class="st38" points="58.6,27.7 100.9,25 100.9,76.2 58.6,76.2 		"/>
		<polygon class="st39" points="114.2,31 100.9,25 100.9,76.2 114.2,76.2 		"/>
		<polygon class="st40" points="83.7,26.2 83.7,76.2 76.7,76.2 76.7,26.6 		"/>
		<polygon class="st40" points="114.2,58.2 100.9,55.3 58.6,56.7 58.6,46.4 100.9,45 101.6,45 114.2,48.9 114.2,53 		"/>
		<polygon class="st40" points="110,29.1 110,76.2 106.2,76.2 106.2,27.3 		"/>
		<g>
			<path class="st15" d="M70.1,51.5c-0.1,0.6-0.4,1.1-1,1.5c-0.5,0.4-1.1,0.6-1.7,0.7c0,0,0,0-0.1,0c-0.1,0-0.2-0.2-0.3-0.6
				c-0.2-0.4-0.2-0.6-0.2-0.7c0,0,0-0.1,0.1-0.1c0.3-0.1,0.6-0.1,0.9-0.2c0.3-0.2,0.5-0.4,0.6-0.7c0-0.2,0-0.4-0.2-0.6
				c-0.3-0.4-0.4-0.6-0.4-0.6c-0.1-0.3-0.2-0.7-0.1-1c0.1-0.5,0.4-1,1-1.3c0.5-0.3,1-0.5,1.5-0.6c0,0,0.1,0,0.1,0c0,0,0.1,0,0.1,0.1
				c0.1,0.4,0.2,0.8,0.3,1.1c0,0,0,0,0,0c0,0,0,0.1-0.1,0.1c0,0,0,0,0,0c0,0-0.1,0-0.1,0c0,0-0.1,0-0.1,0c-0.2,0-0.4,0-0.6,0.1
				c-0.2,0.1-0.3,0.3-0.4,0.5c0,0.2,0,0.4,0.2,0.6c0.3,0.5,0.4,0.7,0.4,0.7C70.1,50.8,70.2,51.2,70.1,51.5z"/>
			<path class="st15" d="M75.3,50.4l-0.5,2.9c0,0.1-0.1,0.2-0.2,0.2c-0.1,0-0.3,0-0.6,0c-0.2,0-0.4,0-0.6,0c-0.1,0-0.1-0.1-0.1-0.2
				c0-0.2,0.1-0.6,0.2-1.1s0.2-0.9,0.2-1.1c0.1-0.3-0.1-0.5-0.4-0.5c-0.2,0-0.3,0.1-0.4,0.1c-0.2,0.1-0.3,0.2-0.3,0.3l-0.2,1.1
				c0,0.1-0.1,0.3-0.1,0.6c0,0.3-0.1,0.5-0.1,0.6c0,0.1-0.1,0.2-0.2,0.2c-0.1,0-0.3,0-0.7,0c-0.2,0-0.3,0-0.5,0
				c-0.1,0-0.1-0.1-0.1-0.2c0-0.2,0.1-0.6,0.2-1c0.1-0.5,0.1-0.8,0.2-1c0.2-0.9,0.3-1.7,0.4-2.3c0-0.2,0.1-0.4,0.1-0.6
				c0-0.2,0-0.4,0-0.6c0,0,0-0.1,0-0.1c0,0,0-0.1,0.1-0.1c0.1,0,0.3,0,0.4,0c0.2,0,0.4,0,0.4,0l0.8-0.1c0,0,0.1,0,0.1,0.1
				c0,0.1,0,0.2-0.1,0.4c0,0.2-0.1,0.3-0.1,0.4c-0.1,0.6-0.2,1.2-0.3,1.5c0,0.1,0,0.1,0,0.1c0,0,0.1-0.1,0.2-0.2
				c0.2-0.1,0.3-0.2,0.5-0.3c0.2-0.1,0.4-0.1,0.7-0.2c0.4,0,0.7,0.1,0.9,0.3C75.2,49.7,75.3,50,75.3,50.4z"/>
			<path class="st15" d="M77.3,51.5c0,0.2-0.1,0.5-0.2,0.9c-0.1,0.4-0.1,0.7-0.2,0.9c0,0.1-0.1,0.1-0.1,0.1c-0.2,0-0.4,0-0.7,0
				c-0.2,0-0.4,0-0.7,0c-0.1,0-0.1,0-0.1-0.1c0,0,0-0.1,0-0.1c0-0.2,0.1-0.5,0.2-0.9c0.1-0.4,0.1-0.7,0.2-0.9
				c0.1-0.6,0.2-1.3,0.2-1.9c0,0,0-0.1,0-0.1c0-0.1,0.1-0.1,0.1-0.1c0.1,0,0.2,0,0.4,0c0.2,0,0.3,0,0.4,0s0.2,0,0.4,0
				c0.2,0,0.3,0,0.4,0c0.1,0,0.1,0,0.1,0.1c0,0,0,0,0,0.1C77.6,50.2,77.4,50.8,77.3,51.5z M78,48.3c-0.1,0.5-0.4,0.7-1,0.7
				c-0.2,0-0.4-0.1-0.6-0.2c-0.1-0.1-0.2-0.3-0.2-0.6c0-0.2,0.2-0.4,0.4-0.5c0.2-0.1,0.4-0.2,0.6-0.2c0.2,0,0.4,0.1,0.5,0.2
				C78,47.9,78,48.1,78,48.3L78,48.3z"/>
			<path class="st15" d="M82.9,51.4c-0.1,0.6-0.4,1.1-0.8,1.5c-0.4,0.4-1,0.6-1.6,0.6c-0.2,0-0.5-0.1-0.7-0.2
				c-0.2-0.1-0.3-0.2-0.3-0.2c0,0-0.1,0-0.1,0.1c0,0.1-0.1,0.4-0.1,0.7c0,0.3-0.1,0.5-0.1,0.7c0,0.1-0.1,0.1-0.2,0.1c0,0,0,0,0,0
				l-0.9,0c-0.1,0-0.3,0-0.4,0c-0.1,0-0.1-0.1-0.1-0.1c0,0,0,0,0,0l0.6-3.3c0.1-0.6,0.2-1.1,0.1-1.7c0,0,0-0.1,0-0.1
				c0,0,0-0.1,0.1-0.1c0.2-0.1,0.4-0.1,0.7-0.1c0.2,0,0.5-0.1,0.7-0.1c0.1,0,0.2,0.1,0.2,0.2c0,0.1,0,0.2,0,0.2c0,0,0.1-0.1,0.4-0.2
				s0.6-0.2,0.8-0.2c0.6,0,1.1,0.2,1.4,0.6C82.9,50.2,83,50.8,82.9,51.4z M81.3,51.4c0-0.2,0-0.4-0.1-0.6c-0.1-0.2-0.3-0.3-0.5-0.3
				c-0.2,0-0.4,0.1-0.6,0.3c-0.2,0.2-0.3,0.4-0.3,0.6c0,0.2,0,0.4,0.1,0.6c0.1,0.2,0.3,0.3,0.5,0.3C80.9,52.2,81.2,52,81.3,51.4
				L81.3,51.4z"/>
			<path class="st15" d="M85,51.5c0,0.2-0.1,0.5-0.2,0.9c-0.1,0.4-0.1,0.7-0.2,0.9c0,0.1-0.1,0.1-0.1,0.1c-0.2,0-0.4,0-0.7,0
				c-0.2,0-0.4,0-0.7,0c-0.1,0-0.1,0-0.1-0.1c0,0,0-0.1,0-0.1c0-0.2,0.1-0.5,0.2-0.9s0.1-0.7,0.2-0.9c0.1-0.6,0.2-1.3,0.2-1.9
				c0,0,0-0.1,0-0.1c0-0.1,0.1-0.1,0.1-0.1c0.1,0,0.2,0,0.4,0c0.2,0,0.3,0,0.4,0c0.1,0,0.2,0,0.4,0c0.2,0,0.3,0,0.4,0
				c0.1,0,0.1,0,0.1,0.1c0,0,0,0,0,0.1C85.3,50.2,85.1,50.8,85,51.5z M85.7,48.3c-0.1,0.5-0.4,0.7-1,0.7c-0.2,0-0.4-0.1-0.6-0.2
				C84,48.7,84,48.5,84,48.3c0-0.2,0.2-0.4,0.4-0.5c0.2-0.1,0.4-0.2,0.6-0.2c0.2,0,0.4,0.1,0.5,0.2C85.7,47.9,85.7,48.1,85.7,48.3
				L85.7,48.3z"/>
			<path class="st15" d="M88.6,52.2c0,0.1-0.1,0.3-0.1,0.4c0,0.1-0.1,0.3-0.1,0.4c0,0.1,0,0.1-0.1,0.2c0,0-0.1,0.1-0.2,0.1
				c-0.4,0.2-0.8,0.3-1.3,0.3c-0.8,0-1.2-0.3-1.1-0.9c0-0.2,0.1-0.5,0.2-0.8c0.1-0.4,0.1-0.7,0.2-0.8c0-0.1,0-0.2-0.2-0.2h-0.1
				c0,0,0,0-0.1,0c-0.1,0-0.2,0-0.1-0.1c0,0,0-0.1,0-0.2c0-0.1,0-0.2,0-0.2c0-0.1,0-0.2,0-0.3c0-0.1,0-0.2,0-0.3
				c0-0.1,0.1-0.1,0.3-0.1c0.1,0,0.2,0,0.2-0.1c0-0.2,0.1-0.3,0.1-0.5c0.1-0.4,0.1-0.5,0.1-0.5c0.1-0.3,0.1-0.5,0.2-0.5
				c0.1,0,0.2,0,0.3,0.1c0.1,0,0.2,0,0.3,0.1c0.1,0,0.4,0,0.6,0.1c0.1,0,0.1,0,0.1,0.1c0,0.1-0.1,0.3-0.1,0.5
				c-0.1,0.2-0.1,0.4-0.1,0.5c0,0.1,0,0.2,0.1,0.2c0.1,0,0.3,0,0.5,0s0.4,0,0.5,0c0.1,0,0.1,0,0.1,0.1c0,0.1,0,0.2-0.1,0.3
				s-0.1,0.2-0.1,0.3c0,0.1,0,0.2,0,0.3c0,0.1,0,0.2,0,0.3c0,0.1-0.1,0.1-0.1,0.1c-0.1,0-0.2,0-0.3,0c-0.1,0-0.2,0-0.3,0h-0.3
				c0,0-0.1,0.1-0.1,0.2l-0.1,0.3c0,0.1,0,0.2,0,0.3c0,0.2,0,0.4,0,0.5c0.1,0.1,0.2,0.2,0.4,0.2c0.1,0,0.2,0,0.3,0
				C88.3,52.1,88.4,52.1,88.6,52.2C88.6,52.1,88.6,52.1,88.6,52.2z"/>
			<path class="st15" d="M93.3,51.3c-0.1,0.6-0.4,1.2-0.9,1.6c-0.5,0.4-1.1,0.6-1.7,0.6c-0.6,0-1.1-0.2-1.4-0.6
				C89,52.5,88.8,52,89,51.4c0.1-0.7,0.4-1.2,0.9-1.6s1-0.6,1.7-0.6c0.6,0,1.1,0.2,1.5,0.6S93.4,50.7,93.3,51.3z M91.9,51.3
				c0-0.2,0-0.4-0.1-0.6c-0.1-0.2-0.3-0.3-0.5-0.3c-0.2,0-0.4,0.1-0.6,0.3c-0.2,0.2-0.3,0.4-0.3,0.6c0,0.2,0,0.4,0.1,0.6
				c0.1,0.2,0.3,0.3,0.5,0.3c0.2,0,0.4-0.1,0.6-0.3C91.7,51.8,91.8,51.6,91.9,51.3z"/>
			<path class="st15" d="M93.6,48.4C93.6,48.4,93.6,48.4,93.6,48.4C93.6,48.4,93.6,48.4,93.6,48.4c-0.1,0-0.1,0-0.2,0h0c0,0,0,0,0,0
				l0,0c0,0,0-0.1,0-0.1c0,0,0,0,0,0h0c0,0,0,0,0,0c0,0,0,0,0,0.1c0,0,0,0.1,0,0.1c0,0,0,0,0,0h0h-0.1c0,0,0,0-0.1,0c0,0,0,0,0,0
				c0,0,0-0.1,0-0.1s0-0.1,0-0.1c0-0.1,0-0.2,0-0.3v0c0,0,0,0,0,0c0,0,0,0,0.1,0h0.1c0.1,0,0.1,0,0.1,0c0,0,0.1,0.1,0.1,0.1
				c0,0,0,0.1,0,0.1c0,0,0,0-0.1,0.1c0,0,0,0,0,0l0,0.1C93.6,48.3,93.6,48.3,93.6,48.4z M93.4,48C93.4,48,93.4,48,93.4,48
				C93.4,48,93.4,48,93.3,48c0,0,0,0,0,0c0,0,0,0.1,0,0.1c0,0,0,0,0,0c0,0,0,0,0,0s0,0,0,0C93.3,48.1,93.3,48.1,93.4,48
				C93.4,48.1,93.4,48.1,93.4,48L93.4,48z"/>
			<path class="st15" d="M93.4,48.7c-0.3,0-0.6-0.2-0.6-0.6s0.2-0.6,0.6-0.6c0.3,0,0.6,0.2,0.6,0.6l0,0
				C93.9,48.4,93.7,48.7,93.4,48.7z M93.4,47.7c-0.2,0-0.4,0.2-0.4,0.4c0,0.2,0.2,0.4,0.4,0.4s0.4-0.2,0.4-0.4c0,0,0,0,0,0
				C93.8,47.9,93.6,47.7,93.4,47.7z"/>
		</g>
	</g>
	<path class="st29" d="M74.6,78.9l-1.7-4.6c-0.1,0-0.2,0.1-0.2,0.1l0.9,3.8c0.3,1.3-1.6,1.7-1.9,0.4l-0.9-3.7c-0.1,0-0.2,0-0.3,0.1
		l0.3,2.7c0.1,1-1.4,1.2-1.5,0.2l-0.3-2.9c0,0-0.1-0.1-0.1-0.1c-0.5-1.1-1.1-3-1-4.7c0-0.8,0.2-1.7,1.1-2c1.6-0.6,2.7-1.1,4.3-1.2
		l4.4-0.1c0.7,0,1.3,0.5,1.3,1.2l0,0c0,0.7-0.5,1.3-1.2,1.3l-2.7,0.1c0.6,1,1,2,1.2,2.8c0,0,0,0,0,0c0.1,0.1,0.1,0.1,0.2,0.2l2,3.5
		c0.6,1.1-1.1,2.1-1.7,0.9l-1.9-3.3c0,0-0.1,0-0.1,0.1l1.7,4.6C76.8,79.4,75,80.1,74.6,78.9L74.6,78.9z"/>
	<polygon class="st29" points="70.7,70.8 72.3,67.5 64,63.7 62.5,66.9 70.7,70.8 	"/>
	<path class="st24" d="M58.7,68.3c-6.1-1.9-13.4-5-17.9-8.4c-0.1-0.2-0.3-0.5-0.4-0.6c-1.2-2.3-1.8-8.8-1.2-11.4
		c0.2-0.8,0.4-1.6,0.7-2.4c8,7.3,13.9,12,21.9,15.8L58.7,68.3L58.7,68.3z"/>
	<polygon class="st41" points="62.1,60.5 67.7,62.9 64,71.5 58.4,69.1 62.1,60.5 	"/>
</g>
</svg>
