<?xml version="1.0" encoding="utf-8"?>
<!-- Generator: Adobe Illustrator 25.2.1, SVG Export Plug-In . SVG Version: 6.00 Build 0)  -->
<svg version="1.1" id="Layer_1" xmlns="http://www.w3.org/2000/svg" xmlns:xlink="http://www.w3.org/1999/xlink" x="0px" y="0px"
	 viewBox="0 0 237 142.4" style="enable-background:new 0 0 237 142.4;" xml:space="preserve">
<style type="text/css">
	.st0{fill:#1A1D22;}
	.st1{fill:#758190;}
	.st2{fill:#F2B136;}
	.st3{fill:#E3912F;}
	.st4{fill:#363D48;}
	.st5{fill:#4F566B;}
	.st6{fill:#20284D;}
	.st7{fill:#FCCF8E;}
	.st8{fill:#D8874F;}
	.st9{fill:#843B2F;}
	.st10{fill:#9A3933;}
	.st11{fill:#FFFFFF;}
	.st12{fill:#058EA5;}
	.st13{fill:#98B3C5;}
	.st14{fill:#E5AB60;}
	.st15{fill:#BB753D;}
	.st16{fill:#CAD1D9;}
	.st17{opacity:0.6;fill:#DBA98E;enable-background:new    ;}
</style>
<g>
	<g>
		<g>
			<path class="st0" d="M134.3,116c1.8,0,4.3,0,5.9,0c5.1,0,9.2,5.7,9.2,13.1c0,7.2-4.1,13.1-9.2,13.1c-1.8,0-4.3,0-5.9,0
				c-5.1,0-9.2-5.7-9.2-13.1C125,121.7,129.1,116,134.3,116z"/>
			<path class="st0" d="M170.7,116c1.8,0,4.3,0,5.9,0c5.1,0,9.2,5.7,9.2,13.1c0,7.2-4.1,13.1-9.2,13.1c-1.8,0-4.3,0-5.9,0
				c-5.1,0-9.2-5.7-9.2-13.1C161.5,121.7,165.6,116,170.7,116z"/>
			<g>
				<path class="st1" d="M127.5,106.4h-0.2c-1.8-0.2-3.3-1.6-3.3-3.7l1.6-26.4c1.2-18.2,4.1-36.5,8.6-54.1c0.4-1.2,1.2-2.3,2.5-2.5
					c11.1-2.7,23.1-2.7,35.8,0c1.6,0.4,2.7,1.6,2.7,3.3v59.8c0,1.8-1.4,3.5-3.5,3.5c-1.8,0-3.5-1.4-3.5-3.5V25.9
					c-10-1.8-19.5-1.8-28.3,0c-4.1,16.6-6.8,33.8-8,50.8l-1.6,26.4C130.8,104.9,129.1,106.4,127.5,106.4z"/>
			</g>
			<path class="st2" d="M208.6,83h-84.8c-1.6,0-3.1,1.4-3.1,3.1v37.1h87.9V83z"/>
			<path class="st3" d="M216,83h-52V123h57.3V88.1C221.3,85.3,218.8,83,216,83z"/>
			<g>
				<path class="st0" d="M174.6,85.9h21.9V55.2c0-2.3-1.8-4.3-4.3-4.3h-6.3c-3.5,0-6.6,2.7-7,6.1L174.6,85.9z"/>
				<rect x="163.9" y="73.1" class="st0" width="40.1" height="12.7"/>
			</g>
			<path class="st4" d="M213.1,83h-87.5c-2.7,0-4.7,2-4.7,4.7v20.5h42.6l1.4-3.7c3.1-8,10.7-13.3,19.3-13.3h37.1l0,0
				C221.3,86.5,217.6,83,213.1,83z"/>
			<rect x="120.8" y="122.9" class="st4" width="87.9" height="7.2"/>
			<rect x="121" y="123" class="st5" width="43.2" height="7.2"/>
			<path class="st0" d="M177.3,116c1.8,0,4.3,0,5.9,0c5.1,0,9.2,5.7,9.2,13.1c0,7.2-4.1,13.1-9.2,13.1c-1.8,0-4.3,0-5.9,0
				c-5.1,0-9.2-5.7-9.2-13.1C168.1,121.7,172.2,116,177.3,116z"/>
			<path class="st0" d="M216.6,116c1.8,0,4.3,0,5.9,0c5.1,0,9.2,5.7,9.2,13.1c0,7.2-4.1,13.1-9.2,13.1c-1.8,0-4.3,0-5.9,0
				c-5.1,0-9.2-5.7-9.2-13.1C207.4,121.7,211.5,116,216.6,116z"/>
			<g>
				<path class="st4" d="M160.5,106.4h-0.2c-1.8-0.2-3.3-1.6-3.3-3.7l1.6-26.4c1.2-18.2,4.1-36.5,8.6-54.1c0.4-1.2,1.2-2.3,2.5-2.5
					c11.5-2.7,23.6-2.7,35.8,0c1.6,0.4,2.7,1.6,2.7,3.3v59.8c0,1.8-1.4,3.5-3.5,3.5c-1.8,0-3.5-1.4-3.5-3.5V25.9
					c-9.6-1.8-19.3-1.8-28.3,0c-4.1,16.6-6.8,33.6-8,50.8l-1.6,26.4C163.8,104.9,162.3,106.4,160.5,106.4z"/>
			</g>
			<path class="st4" d="M179.5,106h-0.6c-5.7,0-10.4,4.5-10.9,10l-1,13.9h23.3v-13.3C190.4,110.9,185.5,106,179.5,106z"/>
			<path class="st4" d="M218.8,106h-0.6c-5.7,0-10.4,4.5-10.9,10l-1,13.9h23.3v-13.3C229.7,110.9,225,106,218.8,106z"/>
			<path class="st0" d="M186.9,117.8v12.3h-13.1l0.8-12.7c0.2-3.3,2.9-5.7,6.1-5.7l0,0C184,111.7,186.9,114.4,186.9,117.8z"/>
			<path class="st0" d="M226.4,117.8v12.3h-13.1l0.8-12.7c0.2-3.3,2.9-5.7,6.1-5.7l0,0C223.6,111.7,226.4,114.4,226.4,117.8z"/>
			<g>
				<path class="st1" d="M187.5,62.3c-4.7-0.6-9.4-0.6-14.1,0c-3.3,0.4-5.7,2.9-6.3,6.1l-1,6.8h28.5l-1-6.8
					C193.2,65.2,190.8,62.8,187.5,62.3z"/>
				<path class="st6" d="M173.4,62.3c0.4,0,1-0.2,1.4-0.2l-0.2,7.8h8.8l2.9-7.8c0.4,0,0.8,0,1,0.2c0.2,0,0.6,0,0.8,0.2l-2.5,12.7
					h-15.8l2.5-12.7C172.8,62.5,173,62.3,173.4,62.3z"/>
				<path class="st7" d="M180.3,66.8L180.3,66.8c-1.4,0-2.5-1.2-2.5-2.5v-5.9h5.1v5.9C183,65.6,181.8,66.8,180.3,66.8z"/>
				<path class="st8" d="M180.3,63.4L180.3,63.4c-1.4,0-2.5-1.2-2.5-2.5V55h5.1v5.9C183,62.1,181.8,63.4,180.3,63.4z"/>
				<path class="st7" d="M179.5,60.9L179.5,60.9c-4.5,0-8-3.7-8-8v-6.1c0-4.5,3.7-8,8-8l0,0c4.5,0,8,3.7,8,8v6.1
					C187.5,57.2,183.8,60.9,179.5,60.9z"/>
				<path class="st7" d="M172.6,49.4c0.6,0,1.4,0.8,1.4,2c0.2,1.2-0.4,2.3-1,2.5c-0.6,0-1.4-0.8-1.4-2
					C171.3,50.7,171.9,49.4,172.6,49.4z"/>
				<path class="st8" d="M187.7,41.7l0.2,8.8c0,0.6-0.4,1-0.8,1l0,0c-1.6-2.5-1.8-4.9-0.6-7.6c-4.1,1.4-8.6,1.4-13.5,0l-0.6,7.6l0,0
					c-0.4,0-0.8-0.4-0.8-0.8v-9l2.9-2.3l4.5-2v1.4l4.1-1.4l1.6,0.8L187.7,41.7z"/>
				<path class="st7" d="M188.3,49.4c0.6,0,1.2,1.2,1,2.5c-0.2,1.2-0.8,2.3-1.4,2c-0.6,0-1.2-1.2-1-2.5
					C186.9,50.3,187.7,49.4,188.3,49.4z"/>
				<g>
					<path class="st9" d="M181.8,52.5c-0.2-0.4-0.2-0.8-0.2-1.2c0-1,0.4-1.8,1-1.8c0.6,0,1,0.8,1,1.8c0,0.4,0,0.8-0.2,1.2H181.8z"/>
					<g>
						<path class="st8" d="M181.4,48.6c-0.2,0-0.4,0-0.4-0.2c-0.2-0.2-0.2-0.6,0-0.8c0.6-0.4,2.3-0.8,3.1,0c0.2,0.2,0.2,0.6,0,0.8
							c-0.2,0.2-0.6,0.2-0.8,0c-0.2-0.2-1.2-0.2-1.6,0.2C181.6,48.6,181.6,48.6,181.4,48.6z"/>
					</g>
				</g>
				<g>
					<path class="st9" d="M173.8,52.5c-0.2-0.4-0.2-0.8-0.2-1.2c0-1,0.4-1.8,1-1.8c0.6,0,1,0.8,1,1.8c0,0.4,0,0.8-0.2,1.2H173.8z"/>
					<g>
						<path class="st8" d="M175.6,48.6c-0.2,0-0.2,0-0.4-0.2c-0.4-0.2-1.4-0.4-1.6-0.2c-0.2,0.2-0.6,0.2-0.8,0
							c-0.2-0.2-0.2-0.6,0-0.8c0.8-0.8,2.5-0.4,3.1,0c0.2,0.2,0.2,0.4,0,0.8C175.8,48.4,175.8,48.6,175.6,48.6z"/>
					</g>
				</g>
				<path class="st10" d="M179.7,57.6h-2.3c-1,0-1.8-0.8-1.8-1.8v-1h6.1v1C181.6,56.8,180.8,57.6,179.7,57.6z"/>
				<path class="st11" d="M176,55.4c0-0.2,0-0.4,0-0.6h5.1c0,0.2,0,0.4,0,0.6c0,0.4-0.4,0.8-0.8,0.8h-3.1
					C176.5,56,176,55.8,176,55.4z"/>
				<g>
					<path class="st1" d="M179.5,84.1c-2.7,0-5.7-0.4-8.6-1c-1.2-0.2-2-1.4-1.6-2.7c0.2-1.2,1.4-2,2.7-1.6
						c9.6,2.3,16.6,0.2,18.6-2.9c1.2-1.6,0.8-3.9-1-6.3c-0.8-1-0.4-2.5,0.6-3.3c1-0.8,2.5-0.4,3.3,0.6c3.9,5.5,2.5,9.6,1.2,11.7
						C191.8,81.8,186.3,84.1,179.5,84.1z"/>
				</g>
				<g>
					<path class="st6" d="M185.3,37.4l-2.9-1.2c-1.8-0.8-4.1-0.8-5.9,0l-2.9,1.2c-1.6,0.8-2.7,2.3-2.7,4.1V47
						c4.9-2.3,8.8-1.8,13.9,0c0.6,0.2,2.5,0,3.3,0v-5.5C187.9,39.6,186.9,38,185.3,37.4z"/>
					<g>
						<path class="st12" d="M185.1,47.6c-0.2,0-0.2,0-0.4,0c-5.9-2.5-10.9-2.5-14.7,0c-0.4,0.2-1,0.2-1.2-0.2
							c-0.2-0.4-0.2-1,0.2-1.2c4.5-2.7,10-2.7,16.4,0c0.4,0.2,0.6,0.6,0.4,1.2C185.7,47.4,185.5,47.6,185.1,47.6z"/>
					</g>
				</g>
				<path class="st7" d="M173.4,79.5c0,1.8-1.4,3.5-3.3,3.5c-1.8,0-3.3-1.4-3.3-3.5c0-2,1.4-3.5,3.3-3.5S173.4,77.7,173.4,79.5z"/>
			</g>
			<g>
				<path class="st4" d="M192.4,128.9c0,7.2-4.1,13.1-9.2,13.1c-5.1,0-9.2-5.7-9.2-13.1c0-7.2,4.1-13.1,9.2-13.1
					C188.3,116,192.4,121.7,192.4,128.9z"/>
				<path class="st13" d="M188.7,128.9c0,4.3-2.5,7.6-5.3,7.6c-2.9,0-5.3-3.5-5.3-7.6c0-4.3,2.5-7.6,5.3-7.6
					C186.3,121.3,188.7,124.8,188.7,128.9z"/>
				<path class="st4" d="M185.9,128.9c0,2.7-1.6,4.9-3.5,4.9s-3.5-2.3-3.5-4.9c0-2.7,1.6-4.9,3.5-4.9
					C184.4,124,185.9,126.2,185.9,128.9z"/>
			</g>
			<g>
				<path class="st4" d="M231.8,128.9c0,7.2-4.1,13.1-9.2,13.1c-5.1,0-9.2-5.7-9.2-13.1c0-7.2,4.1-13.1,9.2-13.1
					C227.7,116,231.8,121.7,231.8,128.9z"/>
				<path class="st13" d="M227.9,128.9c0,4.3-2.5,7.6-5.3,7.6c-2.9,0-5.3-3.5-5.3-7.6c0-4.3,2.5-7.6,5.3-7.6
					C225.6,121.3,227.9,124.8,227.9,128.9z"/>
				<path class="st4" d="M225.2,128.9c0,2.7-1.6,4.9-3.5,4.9s-3.5-2.3-3.5-4.9c0-2.7,1.6-4.9,3.5-4.9S225.2,126.2,225.2,128.9z"/>
			</g>
			<path class="st0" d="M135.7,98.8h15.6c3.9,0,7.2-3.3,7.2-7.2V83h-29.9v8.6C128.5,95.7,131.8,98.8,135.7,98.8z"/>
			<g>
				<polygon class="st4" points="159.7,130.1 117.9,130.1 117.9,0.3 126.3,0.3 126.3,121.7 151.3,121.7 151.3,0.3 159.7,0.3 				"/>
			</g>
			<g>
				<g>
					<rect x="91" y="83.8" class="st4" width="38.7" height="7.4"/>
				</g>
				<g>
					<rect x="123" y="83.8" class="st0" width="33.2" height="7.4"/>
				</g>
				<g>
					<rect x="151.3" y="0.3" class="st0" width="8.4" height="129.6"/>
				</g>
			</g>
			<g>
				<polygon class="st14" points="152.1,48.6 91.3,48.8 91.5,84.3 152.3,83.8 				"/>
				<polygon class="st15" points="113.8,48.8 91.3,48.8 91.5,84.3 114,84.1 				"/>
				<g>
					<path class="st11" d="M126.5,68.7l-6.8,1.6c-1.4,0.4-2.3,1.8-2,3.1l1.4,5.9c0.4,1.4,1.8,2.3,3.1,2l6.8-1.6
						c1.4-0.4,2.3-1.8,2-3.1l-1.4-5.9C129.1,69.3,127.7,68.3,126.5,68.7z"/>
					<path class="st16" d="M126.9,73.6l-5.3,1.2c-0.8,0.2-1.4-0.2-1.6-1l0,0c-0.2-0.8,0.2-1.4,1-1.6l5.3-1.2c0.8-0.2,1.4,0.2,1.6,1
						l0,0C128.1,72.8,127.7,73.6,126.9,73.6z"/>
					<path class="st16" d="M126.5,78.3l-2.5,0.6c-0.8,0.2-1.4-0.2-1.6-1l0,0c-0.2-0.8,0.2-1.4,1-1.6l2.5-0.6c0.8-0.2,1.4,0.2,1.6,1
						l0,0C127.7,77.5,127.3,78.1,126.5,78.3z"/>
				</g>
				<polygon class="st15" points="139.6,59.5 128.7,59.7 128.7,48.6 139.4,48.6 				"/>
				<polygon class="st17" points="152.5,49 132.4,56.8 113.8,56.8 113.8,49 				"/>
			</g>
			<g>
				<polygon class="st14" points="151.9,20.4 102.7,20.6 102.9,49.2 152.1,48.8 				"/>
				<polygon class="st15" points="121,20.4 102.7,20.6 102.9,49.2 121,49 				"/>
				<g>
					<path class="st16" d="M115.6,23.2l-5.5,1.2c-1.2,0.2-1.8,1.4-1.6,2.5l1,4.7c0.2,1.2,1.4,1.8,2.7,1.6l5.5-1.2
						c1.2-0.2,1.8-1.4,1.6-2.5l-1-4.7C117.9,23.6,116.9,22.8,115.6,23.2z"/>
					<path class="st1" d="M116,27.1l-4.3,1c-0.6,0.2-1.2-0.2-1.4-0.8l0,0c-0.2-0.6,0.2-1.2,0.8-1.4l4.3-1c0.6-0.2,1.2,0.2,1.4,0.8
						l0,0C117.1,26.5,116.7,27.1,116,27.1z"/>
					<path class="st1" d="M115.8,31l-2,0.4c-0.6,0.2-1.2-0.2-1.4-0.8l0,0c-0.2-0.6,0.2-1.2,0.8-1.4l2-0.4c0.6-0.2,1.2,0.2,1.4,0.8
						l0,0C116.9,30.2,116.4,30.8,115.8,31z"/>
				</g>
				<polygon class="st15" points="141.8,29.2 133,29.2 133,20.4 141.6,20.4 				"/>
			</g>
		</g>
	</g>
	<g>
		<g>
			<g>
				<g>
					<path class="st4" d="M54,73.6c-0.6,0-1.4,0-2-0.2c-5.3-1-9.6-6.1-13.7-16c-0.6-1.4,0-2.9,1.4-3.5c1.4-0.6,2.9,0,3.5,1.4
						c3.3,7.8,6.6,12.1,10,12.7c2.3,0.4,5.1-0.8,8.4-3.9c1-1,2.7-1,3.7,0s1,2.7,0,3.7C61.1,71.8,57.4,73.6,54,73.6z"/>
				</g>
				<path class="st4" d="M19.1,86.1h21.3c1-11.9,1-20.9,0-26l-22.7-0.8C19.5,70.1,20,77.1,19.1,86.1z"/>
				<path class="st6" d="M40.4,60.1l-18.2,3.1l2.5,11.5l-5.1-1.4c0.2,4.3,0,8.2-0.4,12.9h21.3C41.5,74.2,41.5,65.4,40.4,60.1z"/>
				<path class="st4" d="M18.7,48.6c5.3-1.2,10.9-1.8,16.4-1.6c3.7,0,7,2.7,8,6.3l1.8,7.6l-25.4,2.7l-1.8-4.7
					c-2.3,0-2.7,3.3-2.5,7.4l-2.9-9.8C12.4,52.7,15,49.4,18.7,48.6z"/>
				<path class="st6" d="M35.1,47c-0.6,0-1.2,0-1.6,0c1,2.7,1.6,5.7,2,9l-10.2,1c-2-4.5-3.9-7.6-5.3-8.6c-0.4,0-0.8,0.2-1.2,0.2
					c-0.4,0-0.6,0.2-1,0.2c1.4,2.3,3.1,8,4.5,14.3l18.2-1.8L35.9,47C35.7,47,35.3,47,35.1,47z"/>
				<path class="st7" d="M27.7,51.7L27.7,51.7c1.6-0.2,2.9-1.6,2.7-3.3l-0.8-6.8l-5.9,0.6l0.8,6.8C24.7,50.7,26.1,51.9,27.7,51.7z"
					/>
				<path class="st8" d="M27.3,49L27.3,49c1.6-0.2,2.9-1.6,2.7-3.3L29.2,39l-5.9,0.6l0.8,6.8C24.3,48,25.7,49.2,27.3,49z"/>
				<path class="st7" d="M27.7,46L27.7,46c5.1-0.6,8.8-5.1,8.4-10.2l-0.8-7.2c-0.6-5.1-5.1-8.8-10.2-8.4l0,0
					c-5.1,0.6-8.8,5.1-8.4,10.2l0.8,7.2C18.1,42.7,22.6,46.4,27.7,46z"/>
				<path class="st7" d="M35.5,31.4c-0.8,0-1.4,1.2-1.4,2.7c0,1.4,0.6,2.7,1.4,2.7c0.8,0,1.4-1.2,1.4-2.7
					C37,32.6,36.3,31.4,35.5,31.4z"/>
				<path class="st8" d="M15.9,24.7l0.8,10c0,0.6,0.6,1,1.2,1l0,0c1.6-3.1,1.6-5.9-0.2-8.8c4.9,1.2,10,0.6,15.6-1.6l1.6,8.6l0,0
					c0.6,0,1-0.6,1-1.2l-1-10.2l-3.5-2.3l-5.5-1.8l0.2,1.6l-4.9-1l-1.6,1L15.9,24.7z"/>
				<path class="st7" d="M16.5,34.1c-1,0.2-1.6,1.4-1.4,2.9c0.4,1.4,1.6,2.5,2.7,2.3c1-0.2,1.6-1.4,1.4-2.9
					C18.7,34.9,17.5,33.9,16.5,34.1z"/>
				<g>
					<path class="st9" d="M24.1,36.5c0.2-0.4,0.2-0.8,0.2-1.4c-0.2-1.2-0.8-2-1.4-2c-0.6,0-1,1-0.8,2.3c0,0.6,0.2,1,0.4,1.4
						L24.1,36.5z"/>
					<g>
						<path class="st8" d="M21.4,32.2c-0.2,0-0.2,0-0.4-0.2c-0.2-0.2-0.4-0.6-0.2-0.8c0.8-1,2.7-0.8,3.5-0.4
							c0.2,0.2,0.4,0.6,0.2,0.8c-0.2,0.2-0.6,0.4-0.8,0.2c-0.4-0.2-1.6-0.2-1.8,0C21.8,32,21.6,32.2,21.4,32.2z"/>
					</g>
				</g>
				<g>
					<path class="st9" d="M32.9,35.5c0.2-0.4,0.2-0.8,0.2-1.4c-0.2-1.2-0.8-2-1.4-2c-0.6,0-1,1-0.8,2.3c0,0.6,0.2,1,0.4,1.4
						L32.9,35.5z"/>
					<g>
						<path class="st8" d="M30.2,31.2c-0.2,0-0.4,0-0.4-0.2c-0.2-0.2-0.2-0.6,0-0.8c0.6-0.6,2.5-1.2,3.5-0.4c0.2,0.2,0.2,0.6,0,0.8
							c-0.2,0.2-0.6,0.2-0.8,0c-0.2-0.2-1.4,0-1.8,0.4C30.4,31.2,30.4,31.2,30.2,31.2z"/>
					</g>
				</g>
				<g>
					<path class="st4" d="M26.7,72.6c-6.1,0-11.3-1.8-13.9-5.1c-1.6-2-4.1-6.6-0.2-13.5c0.8-1.2,2.3-1.6,3.7-1
						c1.2,0.8,1.6,2.3,1,3.7c-1.8,3.1-1.8,5.7-0.4,7.6c2.7,3.3,11.1,4.7,21.9,1c1.4-0.4,2.9,0.2,3.3,1.6c0.4,1.4-0.2,2.9-1.6,3.3
						C35.5,72,30.8,72.6,26.7,72.6z"/>
				</g>
				<g>
					<path class="st6" d="M18.1,19.3l3.3-1.8c2-1.2,4.5-1.4,7-0.8l3.5,1.2c1.8,0.6,3.3,2.3,3.5,4.3l0.6,6.3c-5.9-2-10.2-1-16,1.6
						c-0.8,0.4-2.9,0.4-3.7,0.4l-0.6-6.1C15.4,22.4,16.5,20.4,18.1,19.3z"/>
					<g>
						<path class="st12" d="M19.8,31.4c-0.4,0-0.6-0.2-0.8-0.6c-0.2-0.4,0-1,0.4-1.4c7.2-3.9,13.5-4.5,18.8-1.8
							c0.4,0.2,0.8,0.8,0.4,1.4c-0.2,0.4-0.8,0.8-1.4,0.4c-4.9-2.3-10.7-1.6-17,1.8C20,31.2,20,31.4,19.8,31.4z"/>
					</g>
				</g>
				<path class="st7" d="M37,66.6c0.2,2.3,2,3.7,4.1,3.5c2-0.2,3.5-2.3,3.3-4.3c-0.2-2.3-2-3.7-4.1-3.5C38.2,62.5,36.7,64.4,37,66.6
					z"/>
				<path class="st7" d="M60.7,65.4c0.2,2.3,2,3.7,4.1,3.5c2-0.2,3.5-2.3,3.3-4.3c-0.2-2.3-2-3.7-4.1-3.5
					C61.9,61.3,60.5,63.4,60.7,65.4z"/>
				<g>
					<path class="st6" d="M33.5,141h-0.2c-2-0.2-3.5-1.8-3.3-3.9l3.5-53.5c0.2-2,1.8-3.5,3.9-3.3c2,0.2,3.5,1.8,3.3,3.9l-3.5,53.5
						C37,139.6,35.3,141,33.5,141z"/>
				</g>
				<g>
					<path class="st6" d="M14.2,140.4c-0.2,0-0.4,0-0.6,0c-2-0.4-3.3-2.3-2.9-4.1l8.8-53.7c0.4-2,2-3.3,4.1-2.9
						c2,0.4,3.3,2.3,2.9,4.1l-8.8,53.7C17.5,139.1,15.9,140.4,14.2,140.4z"/>
				</g>
				<path class="st4" d="M11.8,141.6h5.1c1.4,0,2.7-1.2,2.7-2.7v-2.9c0-1.8-1.6-3.5-3.5-3.5h-2c-1.8,0-3.5,1.2-4.1,3.1l-0.8,2.9
					C8.9,140,10.1,141.6,11.8,141.6z"/>
				<path class="st4" d="M32.2,141.6h12.5c1,0,1.8-0.8,1.8-1.6l0,0c0-1.2-0.4-2.5-1.6-3.1l-7.4-4.3h-7.2l-0.8,6.1
					C29.6,140.2,30.6,141.6,32.2,141.6z"/>
				<g>
					<polygon class="st14" points="36.1,43.7 70.1,41.9 71.6,64.2 37.4,66.2 					"/>
					<polygon class="st15" points="56,42.7 70.1,41.9 71.6,64.2 57.2,65 					"/>
					<g>
						<path class="st16" d="M60.3,44.5l4.3,0.8c0.8,0.2,1.4,1,1.4,1.8l-0.6,3.7c-0.2,0.8-1,1.4-1.8,1.4l-4.3-0.8
							c-0.8-0.2-1.4-1-1.4-1.8l0.6-3.7C58.5,44.9,59.3,44.3,60.3,44.5z"/>
						<path class="st1" d="M60.1,47.6l3.5,0.6c0.4,0,1-0.2,1-0.8l0,0c0-0.4-0.2-1-0.8-1l-3.5-0.6c-0.4,0-1,0.2-1,0.8l0,0
							C59.3,47.2,59.7,47.6,60.1,47.6z"/>
						<path class="st1" d="M60.5,50.7l1.6,0.2c0.4,0,1-0.2,1-0.8l0,0c0-0.4-0.2-1-0.8-1l-1.6-0.2c-0.4,0-1,0.2-1,0.8l0,0
							C59.7,50.1,60.1,50.7,60.5,50.7z"/>
					</g>
					<polygon class="st15" points="43.5,50.3 49.4,49.8 49,42.9 43.3,43.3 					"/>
				</g>
				<path class="st10" d="M30.4,39.2c-1.2,1.6-3.3,1.4-4.5,0.2c-0.4-0.4-0.6,0-0.2,0.4c1.2,1.8,3.5,1.8,5.1-0.2
					C31,39,30.8,38.6,30.4,39.2z"/>
			</g>
		</g>
	</g>
</g>
</svg>
