<?xml version="1.0" encoding="utf-8"?>
<!-- Generator: Adobe Illustrator 25.2.1, SVG Export Plug-In . SVG Version: 6.00 Build 0)  -->
<svg version="1.1" id="Layer_1" xmlns="http://www.w3.org/2000/svg" xmlns:xlink="http://www.w3.org/1999/xlink" x="0px" y="0px"
	 viewBox="0 0 29 34.4" style="enable-background:new 0 0 29 34.4;" xml:space="preserve">
<style type="text/css">
	.st0{fill:#A5714E;}
	.st1{fill:#C9905C;}
	.st2{fill:#EABD8D;}
	.st3{fill:#4A2808;}
	.st4{opacity:0.3;fill:#FFFFFF;enable-background:new    ;}
	.st5{fill:#C4925C;}
</style>
<g>
	<g>
		<polygon class="st0" points="14.4,16.8 0,8.5 0,8.6 0,25 14.2,33.3 		"/>
	</g>
	<polygon class="st1" points="14.4,16.8 29,8.4 28.9,24.9 14.2,33.3 	"/>
	<polygon class="st2" points="0,8.5 14.7,0 29,8.4 14.4,16.8 	"/>
	<g>
		<path class="st3" d="M16.7,18.1l3.4-1.9l0,3.9L16.7,22L16.7,18.1z M20,20l0-3.6l-3.1,1.8l0,3.6L20,20L20,20z"/>
		<path class="st3" d="M18.5,20.2c0.2-0.1,0.3-0.1,0.3,0l0,0L18,20.7l0,0c0-0.1,0.1-0.2,0.3-0.3l0.1,0l0,0.1l0.1-0.1L18.5,20.2
			L18.5,20.2z"/>
		<polygon class="st3" points="18.4,19 18.4,19.1 18.4,20.3 18.4,20.4 18.3,20.4 18.4,20.3 18.3,19.2 18.3,19 		"/>
		<path class="st3" d="M18.8,17.4l0,1.1c0,0.2-0.1,0.4-0.3,0.6l-0.1,0l0-0.2L18.3,19l0,0.2l-0.1,0c-0.2,0.1-0.3,0-0.3-0.2l0-1.1
			L18.8,17.4z"/>
	</g>
	<path class="st3" d="M22.2,16l0,0.2c0.4-0.2,0.7-0.1,0.7,0.2l-0.7,0.4l0,1.2c0,0.2-0.1,0.4-0.3,0.4c-0.1,0.1-0.3,0-0.3-0.2l0,0
		l0.1-0.1l0,0c0,0.1,0.1,0.1,0.2,0.1c0.1-0.1,0.1-0.2,0.2-0.3l0-1.2l-0.7,0.4c0-0.4,0.3-0.8,0.7-1.1l0-0.2L22.2,16z"/>
	<path class="st3" d="M20.5,15.9l3.4-1.9l0,3.9l-3.4,1.9L20.5,15.9z M23.8,17.8l0-3.6L20.7,16l0,3.6L23.8,17.8z"/>
	<path class="st3" d="M22.7,15.5c0,0,0,0.1,0,0.1c0,0,0,0.1-0.1,0.1c0,0,0,0,0,0c0,0,0,0,0-0.1C22.7,15.6,22.7,15.5,22.7,15.5z"/>
	<path class="st3" d="M23,15.6c0,0,0,0.1,0,0.1c0,0,0,0.1-0.1,0.1c0,0,0,0,0,0c0,0,0,0,0-0.1C22.9,15.6,23,15.6,23,15.6z"/>
	<path class="st3" d="M22.5,15.5c0,0,0,0.1,0,0.1c0,0,0,0.1-0.1,0.1c0,0,0,0,0,0c0,0,0,0,0-0.1C22.4,15.5,22.4,15.5,22.5,15.5z"/>
	<path class="st3" d="M23,15.2c0,0,0,0.1,0,0.1c0,0,0,0.1-0.1,0.1c0,0,0,0,0,0c0,0,0,0,0-0.1C23,15.2,23,15.2,23,15.2z"/>
	<path class="st3" d="M22.8,15.1c0,0,0,0.1,0,0.1c0,0,0,0.1-0.1,0.1c0,0,0,0,0,0c0,0,0,0,0-0.1C22.7,15.2,22.7,15.2,22.8,15.1z"/>
	<g>
		<polygon class="st3" points="26.8,15.4 26.8,15.6 25.4,16.4 25.4,16.3 		"/>
		<polygon class="st3" points="26.5,13 26.7,13.6 26.5,13.7 26.5,15.4 26.4,15.5 26.4,13.8 26.2,13.8 		"/>
		<path class="st3" d="M24.4,13.7l3.4-1.9l0,3.9l-3.4,1.9L24.4,13.7z M27.7,15.5l0-3.6l-3.1,1.8l0,3.6L27.7,15.5z"/>
		<polygon class="st3" points="25.8,13.4 26,14 25.9,14 25.9,15.8 25.7,15.9 25.7,14.1 25.5,14.2 		"/>
	</g>
	<polygon class="st4" points="19.9,3 5.2,11.5 5.2,11.5 5.2,11.5 5.1,28 7.6,29.5 7.7,13 22.4,4.5 	"/>
	<polygon class="st4" points="23.8,11.4 23.8,11.4 23.8,11.4 9.5,3 7,4.4 21.3,12.8 21.3,29.3 23.8,27.8 	"/>
	<g>
		<path class="st5" d="M14.3,16.7C14.3,16.8,14.3,16.8,14.3,16.7l-0.1,16.4c0,0.1,0,0.1,0.1,0.1c0.1,0,0.1-0.1,0.1-0.1l0.1-16.3
			L29,8.5V8.3L14.3,16.7z"/>
	</g>
</g>
</svg>
