<?xml version="1.0" encoding="utf-8"?>
<!-- Generator: Adobe Illustrator 25.2.1, SVG Export Plug-In . SVG Version: 6.00 Build 0)  -->
<svg version="1.1" id="Layer_1" xmlns="http://www.w3.org/2000/svg" xmlns:xlink="http://www.w3.org/1999/xlink" x="0px" y="0px"
	 viewBox="0 0 59.2 38.2" style="enable-background:new 0 0 59.2 38.2;" xml:space="preserve">
<style type="text/css">
	.st0{fill-rule:evenodd;clip-rule:evenodd;fill:#F3B281;}
	.st1{fill-rule:evenodd;clip-rule:evenodd;fill:#E3A270;}
	.st2{fill-rule:evenodd;clip-rule:evenodd;fill:#EFDAB7;}
	.st3{fill:#333333;}
	.st4{fill:#FFFFFF;}
	.st5{fill:#F3F3F3;}
	.st6{fill:#F3B281;}
	.st7{fill:#475769;}
	.st8{fill:#00A8CD;}
	.st9{fill:#9BA6B4;}
	.st10{fill:#D6D6D6;}
	.st11{fill:#818B94;}
	.st12{fill:#5C6975;}
	.st13{fill:#A79979;}
</style>
<g>
	<path class="st0" d="M55.3,31.7c1.4,0.3,2.3-3.3,0.8-3.5c-0.8-0.4-5.7-3.2-5.8-3.6s0.1-3.3-0.3-3.3c-0.4-0.1-2.6-1.7-3.3-1.4
		c-0.7,0.3-2.6,3-2.6,3.4c0,0.4,1.2,1.2,1.7,1.1c0.4-0.2,1.4-1.8,1.8-2.2c0.4-0.4,0.8-0.1,0.4,0.7c-0.4,0.7-2.1,4-2.5,5.1
		c-0.4,1.1,2.3-0.1,3.2,0.5C49.6,28.9,53.4,30.6,55.3,31.7C55.3,31.7,55.2,31.6,55.3,31.7L55.3,31.7z"/>
	<path class="st1" d="M46,20.4c-0.8-0.5-1.7-0.8-2.3-0.7c-0.9,0.2-1.1,1.2-1,1.7c0.2,0.4,0.6,0.6,0.7,0.6c-0.8,0.3-1.5,3.5-1.3,4.1
		c0.2,0.5,2.1,2,3.2,2.1c0-0.1,0-0.1,0-0.2c0.4-1.1,2.1-4.3,2.5-5.1c0.4-0.7,0-1.1-0.4-0.7s-1.4,2-1.8,2.2c-0.4,0.2-1.7-0.6-1.7-1.1
		C43.9,23,45.2,21.2,46,20.4L46,20.4z"/>
	<polygon class="st2" points="52.6,32.5 54.9,26.2 59.2,27.7 56.8,34.1 	"/>
	<path d="M49.8,29.3L48,30.4c-0.2,0.2-0.6,0.1-0.8-0.2l-8.4-13.7c-0.2-0.2-0.1-0.6,0.2-0.8l1.9-1.1c0.2-0.2,0.6-0.1,0.8,0.2L50,28.5
		C50.2,28.8,50.1,29.1,49.8,29.3z"/>
	<path class="st3" d="M48.6,28.2L48.6,28.2c-0.3,0.2-0.6,0.1-0.8-0.1l-7.4-12c-0.1-0.2-0.1-0.6,0.2-0.7l0.1,0
		c0.2-0.1,0.6-0.1,0.7,0.2l7.4,12C48.9,27.8,48.8,28.1,48.6,28.2z"/>
	<g>
		<circle class="st4" cx="37.1" cy="11" r="8.5"/>
		<path d="M37.1,20c-0.7,0-1.4-0.1-2.1-0.2c-4.9-1.2-7.9-6.1-6.7-10.9C29.4,4,34.3,1,39.2,2.2s7.9,6.1,6.7,10.9
			C44.9,17.3,41.2,20,37.1,20z M37.1,3c-1.5,0-2.9,0.4-4.1,1.2c-1.8,1.1-3.1,2.9-3.6,4.9c-0.5,2.1-0.1,4.2,1,6
			c1.1,1.8,2.9,3.1,4.9,3.6c4.3,1,8.6-1.6,9.6-5.9c0.5-2.1,0.1-4.2-1-6C42.8,5,41,3.8,38.9,3.3C38.3,3.1,37.7,3,37.1,3z"/>
	</g>
	<circle class="st5" cx="37.1" cy="11" r="8.3"/>
	<path class="st4" d="M43.3,13.9c-0.1,0-0.2,0-0.2,0c-0.6-0.1-1-0.7-0.8-1.3c0.3-1.4,0.1-2.8-0.6-4c-0.7-1.2-1.9-2-3.2-2.4
		c-0.6-0.1-1-0.7-0.8-1.3s0.7-1,1.3-0.8c1.9,0.5,3.6,1.7,4.6,3.3c1.1,1.7,1.4,3.7,0.9,5.6C44.2,13.5,43.8,13.9,43.3,13.9z"/>
	<g>
		<path class="st6" d="M48,20.2c-0.6-0.3-1.1-0.5-1.4-0.4c-0.7,0.3-2.6,3-2.6,3.4c0,0.4,1.2,1.2,1.7,1.1c0.4-0.2,1.4-1.8,1.8-2.2
			c0.1-0.1,0.2-0.2,0.3-0.2c0,0,0-0.1,0-0.1C48,21.3,48,20.8,48,20.2z"/>
	</g>
	<g>
		<g id="Layer_1_2_">
			
				<rect x="15.7" y="28.5" transform="matrix(1.745290e-03 -1 1 1.745290e-03 -19.9278 52.6609)" class="st7" width="1.4" height="15.6"/>
			<path class="st8" d="M24.1,22.2c0.1-0.9,0.1-1.8,0.1-2.6l2-7.5c0,0-6.5-4.4-9.8-4.4S6.5,12,6.5,12l2,7.5
				c-0.1,0.9-0.1,1.8,0.1,2.6C8.3,23,8,25.3,8.5,26.6c-0.9,2.5-0.6,9.3-0.6,9.3h16.7c0,0,0.6-6.8-0.4-9.3
				C24.7,25.3,24.4,23.1,24.1,22.2z"/>
			
				<rect x="2.5" y="32.8" transform="matrix(0.1321 -0.9912 0.9912 0.1321 -31.6054 33.2331)" class="st7" width="1.4" height="3.7"/>
			
				<rect x="27.6" y="33.9" transform="matrix(0.9912 -0.1321 0.1321 0.9912 -4.3172 4.1916)" class="st7" width="3.7" height="1.4"/>
			<polygon class="st9" points="15.7,17.8 16.3,18.6 16.9,17.8 16.9,37.1 15.7,37.1 			"/>
			<path class="st8" d="M6.5,12c-1,0.9-3.1,4.8-2.8,7.7c-1.1,0.8-1.4,3.5-1,4.7c-0.7,0.4-1.3,3.6-0.9,4.8c-1,1.4-0.7,4.5-0.7,4.5
				l4.3,0.6c0,0,1.4-2.1,1-4.6c0.5-0.7,1.2-3.6,1-4.5c0.5-0.9,1.1-3.3,0.9-4c0.4-1.2,0.4-1.6,0.4-1.6S9.3,15.4,6.5,12z"/>
			<path class="st10" d="M1.9,29.4C2.6,30,5,30.6,6.2,29.9C5.4,31.3,2.7,31.1,1.9,29.4z"/>
			<path class="st11" d="M12.5,15.5H9.1v4.1c0,0.5,0.4,1,1,1h2.7c0.5,0,1-0.4,1-1v-4.1H12.5z"/>
			<polygon class="st9" points="11.7,15.3 8.9,15.3 8.9,15.8 11.7,15.8 13.9,15.8 13.9,15.3 			"/>
			<polygon class="st10" points="11.7,15.7 8.9,15.7 8.9,15.8 11.7,15.8 13.9,15.8 13.9,15.7 			"/>
			<polygon class="st10" points="9.1,16.7 9.1,17.3 11.4,19.1 13.7,17.3 13.7,16.7 11.5,15.9 			"/>
			<polygon class="st9" points="11.7,15.8 8.9,15.8 8.9,16.6 11.4,18.4 13.9,16.6 13.9,15.8 			"/>
			<path class="st11" d="M20.2,15.5h3.4v4.1c0,0.5-0.4,1-1,1h-2.7c-0.5,0-1-0.4-1-1v-4.1H20.2z"/>
			<polygon class="st9" points="21,15.3 23.7,15.3 23.7,15.8 21,15.8 18.7,15.8 18.7,15.3 			"/>
			<polygon class="st10" points="21,15.7 23.7,15.7 23.7,15.8 21,15.8 18.7,15.8 18.7,15.7 			"/>
			<polygon class="st10" points="23.6,16.7 23.6,17.3 21.2,19.1 18.9,17.3 18.9,16.7 21.1,15.9 			"/>
			<polygon class="st9" points="21,15.8 23.7,15.8 23.7,16.6 21.2,18.4 18.7,16.6 18.7,15.8 			"/>
			<path class="st10" d="M2.8,24.6c0.8,0.6,3.1,1.3,4.4,0.8C6.3,26.6,3.6,26.2,2.8,24.6z"/>
			<path class="st7" d="M10,9.8l6.3,8.7l6.2-8.7c-2-1.1-4.6-2.2-6.2-2.2C14.6,7.6,12.1,8.7,10,9.8z"/>
			<path class="st10" d="M7.1,12.3l8.5,5.6l-4.9-8.4c-1.3,0.7-2.3,1.3-3.1,1.8L7.1,12.3z"/>
			<path class="st10" d="M3.8,19.8c0.6,0.7,2.9,1.8,4.3,1.5C6.9,22.3,4.3,21.6,3.8,19.8z"/>
			<path class="st9" d="M16.3,5.2c-1.4,0.1-2.8,0.3-4.9,1.8C8.3,9.4,8,11.7,8,11.7l8.3,6.8L12.1,10C12.1,10,12.9,6.6,16.3,5.2z"/>
			<path class="st11" d="M7.6,31v3.6h1.5c0.4,0,0.6-0.3,0.6-0.6l0,0V31H7.6z"/>
			<path class="st9" d="M7.3,28.6v2.5h2.4c0.4,0,0.6-0.3,0.6-0.6v-1.8H7.3z"/>
			<path class="st10" d="M8.7,22.4c0.9,0.6,3.6,1,5.5,0.6C12.6,23.6,10.2,23.8,8.7,22.4z"/>
			<path class="st10" d="M8.7,26.6c0.9,0.6,3.5,1.1,5.5,0.8C12.5,28,10,28,8.7,26.6z"/>
			<path class="st8" d="M18.6,0.5c0,0-1.3-0.5-2.3-0.5c-1,0-2.3,0.5-2.3,0.5L8.6,6.9h15.3L18.6,0.5z"/>
			<path class="st8" d="M26.2,12c1,0.9,3.1,4.8,2.8,7.7c1.1,0.8,1.4,3.5,1,4.7c0.7,0.4,1.3,3.6,0.9,4.8c1,1.4,0.7,4.5,0.7,4.5
				l-4.3,0.6c0,0-1.4-2.1-1-4.6c-0.5-0.7-1.2-3.6-1-4.5c-0.5-0.9-1.1-3.3-0.9-4c-0.4-1.2-0.4-1.6-0.4-1.6S23.3,15.4,26.2,12z"/>
			<path class="st10" d="M30.8,29.4c-0.8,0.6-3.1,1.1-4.3,0.5C27.3,31.3,29.9,31.1,30.8,29.4z"/>
			<path class="st10" d="M29.9,24.6c-0.8,0.6-3.1,1.3-4.4,0.8C26.4,26.6,29.1,26.2,29.9,24.6z"/>
			<path class="st10" d="M25.6,12.3l-8.5,5.6l4.9-8.4c1.3,0.7,2.3,1.3,3.1,1.8L25.6,12.3z"/>
			<path class="st10" d="M28.9,19.8c-0.6,0.7-2.9,1.8-4.3,1.5C25.8,22.3,28.3,21.6,28.9,19.8z"/>
			<path class="st9" d="M16.4,5.2c1.4,0.1,2.8,0.3,4.9,1.8c3.1,2.3,3.4,4.7,3.4,4.7l-8.3,6.8l4.2-8.5C20.5,10,19.7,6.6,16.4,5.2z"/>
			<path class="st11" d="M25,31v3.6h-1.5c-0.4,0-0.6-0.3-0.6-0.6V31H25z"/>
			<path class="st9" d="M25.2,28.6v2.5h-2.4c-0.4,0-0.6-0.3-0.6-0.6v-1.8H25.2z"/>
			<path class="st10" d="M24,22.4c-0.9,0.6-3.6,1-5.5,0.6C20,23.8,22.5,23.9,24,22.4z"/>
			<path class="st10" d="M24,26.6c-0.9,0.6-3.5,1.1-5.5,0.8C20.2,28.1,22.5,28,24,26.6z"/>
			<rect x="14.6" y="7.8" class="st12" width="3.3" height="2.7"/>
			<path class="st10" d="M24.4,10.9C24,10,23.2,8.5,21.2,7.1c-2.1-1.5-7.8-1.5-9.9,0C9.4,8.5,8.6,10,8.2,10.9l-0.4,0.3
				c0.7,0.2,1.5,0.1,2.2-0.3c3.9-2.4,8.7-2.4,12.6,0c0.7,0.4,1.5,0.5,2.2,0.3L24.4,10.9z"/>
			<path class="st13" d="M25.6,9.8c-0.7,0.9-2,1-3,0.4c-3.9-2.4-8.7-2.4-12.6,0c-1,0.6-2.3,0.6-3-0.4C6.2,8.9,6.7,7.2,8.1,6.4
				c5-3.1,11.2-3.1,16.2,0C25.7,7.2,26.2,8.9,25.6,9.8z"/>
			<rect x="7.6" y="31.1" class="st10" width="2.1" height="0.5"/>
			<rect x="22.8" y="31.1" class="st10" width="2.1" height="0.5"/>
		</g>
	</g>
</g>
</svg>
