<?xml version="1.0" encoding="utf-8"?>
<!-- Generator: Adobe Illustrator 25.2.1, SVG Export Plug-In . SVG Version: 6.00 Build 0)  -->
<svg version="1.1" id="Layer_1" xmlns="http://www.w3.org/2000/svg" xmlns:xlink="http://www.w3.org/1999/xlink" x="0px" y="0px"
	 viewBox="0 0 145.9 158.2" style="enable-background:new 0 0 145.9 158.2;" xml:space="preserve">
<style type="text/css">
	.st0{fill:#1A1C21;}
	.st1{fill:#4F566B;}
	.st2{fill:#843C30;}
	.st3{fill:#0099B1;}
	.st4{fill:#EBA85D;}
	.st5{fill:#AEAEAF;}
	.st6{fill:#DBDBDA;}
	.st7{fill:#FBC28D;}
	.st8{fill:#FCCF8D;}
	.st9{fill:#D36B28;}
	.st10{fill:#E18F2C;}
	.st11{fill:#E6E6CC;}
	.st12{fill:#00A8CD;}
	.st13{fill:#D7864E;}
	.st14{fill:#993933;}
	.st15{fill:#FFFFFF;}
	.st16{fill:#75808F;}
	.st17{fill:#C9D0D8;}
	.st18{fill:#E8E7E7;}
	.st19{fill:#98B2C4;}
	.st20{fill:#708895;}
</style>
<g>
	<g>
		<g>
			<rect x="105.6" y="116" class="st0" width="5.4" height="30.7"/>
		</g>
		<g>
			<path class="st1" d="M129,155.2c-1.5,0-2.7-1.2-2.7-2.7c0-0.8-1.4-2-4.6-3c-3.4-1.1-8.3-1.7-13.4-1.7c-11,0-17.9,2.8-17.9,4.8
				c0,1.5-1.2,2.7-2.7,2.7c-1.5,0-2.7-1.2-2.7-2.7c0-7.5,12.1-10.2,23.4-10.2c11.3,0,23.4,2.7,23.4,10.2
				C131.7,153.9,130.5,155.2,129,155.2z"/>
		</g>
		<path class="st2" d="M93.3,47.7c7.5,14.3,21.2,13.7,27.9,2c3.8-6.7,3.4-19,2.3-32.2l-27.9-2C91.9,29.1,89.4,41.6,93.3,47.7z"/>
		<g>
			<path class="st3" d="M77.6,75.5c-5,0-10.6-3.2-18.3-10.6c-1.6-1.5-1.7-4.1-0.1-5.7c1.5-1.6,4.1-1.7,5.7-0.1
				c7.6,7.2,11.3,8.5,13,8.4c2.3-0.2,4.7-3.6,7.8-7.9c2.5-3.5,5.7-7.9,9.9-12.1c1.6-1.6,4.2-1.6,5.7,0c1.6,1.6,1.6,4.2,0,5.7
				c-3.8,3.7-6.6,7.6-9,11.1c-4.1,5.7-7.6,10.7-13.6,11.2C78.3,75.5,77.9,75.5,77.6,75.5z"/>
		</g>
		<g>
			<path class="st4" d="M66.3,69.8c-0.9,0-1.8-0.3-2.6-0.9c-1.4-1.2-2.9-2.5-4.5-4c-1.6-1.5-1.7-4.1-0.1-5.7
				c1.6-1.6,4.1-1.7,5.7-0.1c1.5,1.4,2.8,2.6,4.1,3.7c1.7,1.4,2,4,0.5,5.7C68.7,69.3,67.5,69.8,66.3,69.8z"/>
		</g>
		<path class="st5" d="M92.7,116h31.2c3.1,0,5.7-2.5,5.7-5.7l0,0c0-3.1-2.5-5.7-5.7-5.7H92.7c-3.1,0-5.7,2.5-5.7,5.7l0,0
			C87.1,113.4,89.6,116,92.7,116z"/>
		<path class="st5" d="M109.9,90.5H128c6.2,0,11.5-4.6,12.3-10.8l1.8-13.6c0.5-3.8-2.5-7.2-6.4-7.2h-18.1c-6.2,0-11.5,4.6-12.3,10.8
			l-1.8,13.6C103,87.1,106,90.5,109.9,90.5z"/>
		<path class="st6" d="M109.9,90.5h8.6c6.2,0,11.5-4.6,12.3-10.8l1.8-13.6c0.5-3.8-2.5-7.2-6.4-7.2h-8.6c-6.2,0-11.5,4.6-12.3,10.8
			l-1.8,13.6C103,87.1,106,90.5,109.9,90.5z"/>
		<path class="st7" d="M91.3,102.6c0,0-0.2,0-0.7,0c-0.4,0-1.1,0-1.8,0c-0.7,0-1.6,0.1-2.6,0.2c-0.9,0.1-2,0.3-2.8,0.5
			c-0.9,0.3-1.3,0.5-1.5,0.8c-0.1,0.1-0.2,0.4-0.4,0.7c-0.1,0.4-0.2,1-0.3,1.6c-0.1,1.3,0,2.9,0.1,4.6c0.2,1.7,0.4,3.5,0.6,5.3
			c1,7.3,2.1,14.7,2.7,20.3c0.6,5.6,0.9,9.3,0.9,9.3l0,0c0.1,1.8-1.2,3.4-3,3.5c-1.8,0.1-3.3-1.1-3.5-2.9c0,0-0.5-3.6-1.4-9.1
			c-0.9-5.4-2.3-12.6-3.7-20c-0.4-1.8-0.7-3.7-1-5.6c-0.3-1.9-0.5-3.9-0.5-6c0-1.1,0.1-2.2,0.4-3.4c0.3-1.2,0.8-2.5,1.7-3.7
			c0.4-0.6,0.9-1.1,1.4-1.6c0.5-0.5,1-0.9,1.5-1.2c1-0.7,2-1.1,2.9-1.4c1.8-0.7,3.3-0.9,4.6-1.1c1.3-0.2,2.4-0.3,3.3-0.4
			c0.9-0.1,1.5-0.1,1.9-0.1c0.4,0,0.7,0,0.7,0c2.7-0.2,5,1.8,5.2,4.5c0.2,2.7-1.8,5-4.5,5.2C91.5,102.6,91.4,102.6,91.3,102.6z"/>
		<path class="st8" d="M102.7,103.5c0,0-1,0.1-2.6,0.2c-1.6,0.2-3.9,0.4-6.3,0.9c-1.2,0.2-2.3,0.6-3,1c-0.7,0.4-0.8,0.4-1.1,1
			c-0.3,0.7-0.4,2.1-0.3,3.7c0.1,1.6,0.3,3.4,0.7,5.2c0.6,3.6,1.5,7.4,2.3,10.9c0.8,3.6,1.5,6.9,2.1,9.7c1.2,5.7,2,9.5,2,9.5
			c0.4,1.8-0.8,3.5-2.6,3.9c-1.7,0.4-3.4-0.7-3.8-2.3l0-0.1c0,0-1.1-3.7-2.7-9.2c-0.8-2.8-1.8-6-2.9-9.5c-1.1-3.5-2.2-7.2-3.2-11.1
			c-0.5-2-1-4-1.3-6.1c-0.3-2.2-0.5-4.6,0.2-7.4c0.4-1.4,1-2.9,2-4.2c0.5-0.6,1-1.1,1.5-1.7c0.5-0.4,1.1-0.9,1.6-1.2
			c2.2-1.4,4-2,5.7-2.5c3.3-0.9,5.7-1.4,7.5-1.7c1.7-0.3,2.7-0.5,2.7-0.5c3.1-0.5,6.1,1.6,6.6,4.7c0.5,3.1-1.6,6.1-4.7,6.6
			C103,103.4,102.9,103.4,102.7,103.5L102.7,103.5z"/>
		<path class="st9" d="M85.8,155.4h-1.9l-0.5-4.1l-4.2,4.1h-8.5l-0.3-4.2c4.2-0.6,5.1-2.2,7.5-6h7.9L85.8,155.4z"/>
		<path class="st10" d="M96.5,155.4h-1.9l-0.5-4.1l-4.2,4.1h-8.5l-0.3-4.2c4.2-0.6,5.1-2.2,7.5-6h7.9L96.5,155.4z"/>
		<path class="st11" d="M106.5,107.5H89.7c1.7-8.7-1.3-11.2-12.9-11c7.9-5.6,23.1-8.6,43.6-11l0.5,6.4
			C121.5,100.3,114.9,107.5,106.5,107.5z"/>
		<path class="st12" d="M98.5,46.2h24.6c-3.7,14.2-4.6,27.2-2.7,39.3l-23.7,3.7c-0.7-8-1-15-1-21.1c0-2.7-2.7-5.2-2.5-7.4
			C93.5,54,97.1,49.1,98.5,46.2z"/>
		<g>
			<path class="st8" d="M113.2,50.1l1.8-4c-4.3-0.4-8.5-0.4-12.7,0l-1.8,4c-1.2,2.6,0.7,5.6,3.6,5.6h0.4
				C108.2,55.7,111.6,53.5,113.2,50.1z"/>
			<path class="st8" d="M108.5,50.6L108.5,50.6c2.2,0,4-1.8,4-4v-9.2h-7.9v9.2C104.5,48.8,106.3,50.6,108.5,50.6z"/>
			<path class="st13" d="M108.5,45.1L108.5,45.1c2.2,0,4-1.8,4-4V32h-7.9v9.2C104.5,43.3,106.3,45.1,108.5,45.1z"/>
			<path class="st8" d="M107.2,41.4L107.2,41.4c7,0.5,13-4.7,13.5-11.7l0.7-9.6c0.5-7-4.7-13-11.7-13.5l0,0c-7-0.5-13,4.7-13.5,11.7
				l-0.7,9.6C95.1,34.9,100.3,40.9,107.2,41.4z"/>
			<g>
				<path class="st8" d="M94.7,22.6c-1.1,0-1.9,1.7-1.9,3.6c0.1,1.9,1,3.5,2.1,3.4c1.1,0,1.9-1.7,1.9-3.6
					C96.7,24.1,95.8,22.5,94.7,22.6z"/>
				<path class="st8" d="M122.3,24.5c-1.1-0.2-2.3,1.2-2.6,3.1c-0.3,1.9,0.3,3.6,1.3,3.8c1.1,0.2,2.3-1.2,2.6-3.1
					C124,26.4,123.4,24.7,122.3,24.5z"/>
			</g>
			<path class="st13" d="M93.5,16.9l-2,18.3l4.1-4.9L98,17.4c6.9,1,17.6-1,19.7-3.4l2.5,18.6l3.8,6.5l1.5-21.6
				c0.3-4.4-2.7-8.4-7.1-9.2l0,0l-2.8-2.5c-3.7-3.3-9-4-13.4-1.7l0,0C97.4,6.7,94.1,11.5,93.5,16.9z"/>
			<g>
				<path class="st2" d="M103,27.9c0.3-0.5,0.5-1.1,0.6-1.9c0.1-1.6-0.5-2.9-1.3-2.9c-0.9-0.1-1.6,1.2-1.7,2.7
					c-0.1,0.7,0.1,1.4,0.3,1.9L103,27.9z"/>
				<path class="st13" d="M103.6,21.7c0,0,0,0-0.1-0.1c0,0,0,0-0.1-0.1c0,0-0.1-0.1-0.1-0.1c-0.2-0.2-0.6-0.4-1-0.5
					c-0.4-0.1-0.8-0.2-1.1-0.1c-0.3,0-0.4,0.2-0.4,0.2c-0.1,0.1-0.3,0.1-0.5-0.1c-0.1-0.1-0.1-0.3,0-0.4l0,0c0,0,0.2-0.3,0.6-0.5
					c0.4-0.2,1-0.3,1.5-0.3c0.6,0,1.1,0.1,1.5,0.3c0.2,0.1,0.4,0.2,0.5,0.3c0.1,0.1,0.1,0.1,0.1,0.1c0.4,0.2,0.5,0.7,0.3,1.1
					c-0.2,0.4-0.7,0.5-1.1,0.3C103.7,21.8,103.7,21.7,103.6,21.7z"/>
			</g>
			<g>
				<path class="st2" d="M115.6,28.8c0.3-0.5,0.5-1.1,0.6-1.9c0.1-1.6-0.5-2.9-1.3-2.9c-0.9-0.1-1.6,1.2-1.7,2.7
					c-0.1,0.7,0.1,1.4,0.3,1.9L115.6,28.8z"/>
				<path class="st13" d="M112.8,21c0,0,0.1,0,0.2-0.1c0.1-0.1,0.4-0.2,0.6-0.2c0.4-0.1,1-0.2,1.5-0.1c0.6,0.1,1.1,0.2,1.5,0.4
					c0.4,0.2,0.6,0.6,0.6,0.6l0,0c0.1,0.2,0,0.4-0.1,0.6c-0.2,0.1-0.4,0.1-0.5-0.1c0,0-0.1-0.1-0.4-0.2c-0.2-0.1-0.7-0.1-1.1-0.1
					c-0.4,0.1-0.8,0.2-1.1,0.3c-0.1,0-0.1,0.1-0.1,0.1c0,0-0.1,0-0.1,0.1c-0.1,0.1-0.1,0.1-0.1,0.1c-0.4,0.3-0.9,0.2-1.2-0.2
					c-0.3-0.4-0.2-0.9,0.2-1.2C112.7,21,112.7,21,112.8,21z"/>
			</g>
			<path class="st14" d="M107.5,36.3l0.3,0c2.6,0.2,4.8-1.8,5-4.3l0,0l-9.6-0.7l0,0C103,33.9,104.9,36.2,107.5,36.3z"/>
			<path class="st15" d="M111.7,33c0.1-0.3,0.1-0.7,0.2-1l-7.9-0.6c0,0.3,0,0.7,0,1c0.1,0.7,0.6,1.2,1.3,1.3l4.9,0.3
				C110.9,34.1,111.6,33.6,111.7,33z"/>
			<path class="st2" d="M98.8,23.9c0,0,0.1,0.2,0.3,0.3c0.2,0.2,0.5,0.3,0.8,0.3c0.6,0.1,1-0.3,1-0.2l0.4,1.6c0,0-0.3,0-0.6-0.1
				c-0.4-0.1-0.8-0.3-1.1-0.6c-0.3-0.3-0.5-0.6-0.6-0.9C98.8,24.1,98.8,23.9,98.8,23.9z"/>
			<path class="st2" d="M118,25.2c0,0,0,0.2-0.2,0.4c-0.1,0.3-0.4,0.6-0.7,0.8c-0.3,0.2-0.8,0.4-1.1,0.4c-0.4,0-0.6,0-0.6,0l0.6-1.5
				c0,0,0.3,0.4,0.9,0.4c0.3,0,0.6-0.1,0.8-0.2C117.9,25.4,118,25.2,118,25.2z"/>
			<g>
				<path class="st0" d="M101.2,37c0,0-0.1,0-0.1,0c-6-1.7-9.3-5.4-9.4-10.8c0-0.3,0.2-0.6,0.5-0.6c0.3,0,0.6,0.2,0.6,0.5
					c0.1,4.9,3.1,8.3,8.6,9.8c0.3,0.1,0.5,0.4,0.4,0.7C101.7,36.8,101.5,37,101.2,37z"/>
			</g>
			<path class="st16" d="M100.7,36.4c0,0.6,0.6,1.1,1.5,1.2c0.9,0.1,1.6-0.4,1.6-1c0-0.6-0.6-1.1-1.5-1.2
				C101.5,35.4,100.8,35.8,100.7,36.4z"/>
		</g>
		<g>
			<path class="st3" d="M106.6,79.1c-4,0-8.5-0.2-13.6-0.5c-2.2-0.1-3.9-2.1-3.8-4.3c0.1-2.2,2-4,4.3-3.8
				c22.9,1.4,29.2-0.7,30.5-2.6c1.4-2.3-2.9-10.4-5.7-15.7c-1.1-2-0.3-4.4,1.7-5.5c2-1.1,4.4-0.3,5.5,1.7c5.1,9.5,9.4,17.7,5.4,24
				C127.7,77,120.8,79.1,106.6,79.1z"/>
		</g>
		<g>
			<path class="st8" d="M97.9,79C97.8,79,97.8,79,97.9,79c-1.5,0-2.1-0.1-2.8-0.2c-0.4,0-0.9-0.1-2.1-0.2c-2.2-0.1-3.9-2.1-3.8-4.3
				c0.1-2.2,2-4,4.3-3.8c1.4,0.1,2,0.2,2.5,0.2c0.5,0.1,0.8,0.1,2,0.1c2.2,0,4,1.9,4,4.2C101.9,77.2,100.1,79,97.9,79z"/>
		</g>
		<g>
			<rect x="103.9" y="57.5" class="st15" width="9.5" height="6.6"/>
			<path class="st17" d="M106.6,60.6l4.1,0c0.5,0,0.8-0.4,0.8-0.8l0,0c0-0.5-0.4-0.8-0.8-0.8l-4.1,0c-0.5,0-0.8,0.4-0.8,0.8l0,0
				C105.8,60.2,106.2,60.6,106.6,60.6z"/>
			<path class="st17" d="M107.4,63l2.5,0c0.5,0,0.8-0.4,0.8-0.8l0,0c0-0.5-0.4-0.8-0.8-0.8l-2.5,0c-0.5,0-0.8,0.4-0.8,0.8l0,0
				C106.6,62.6,107,63,107.4,63z"/>
		</g>
	</g>
	<g>
		<g>
			<rect x="2" y="78.7" class="st18" width="109.8" height="5.8"/>
			<rect x="2" y="78.7" class="st6" width="66.9" height="5.8"/>
		</g>
		<g>
			<polygon class="st19" points="10.4,33.9 66.8,33.9 69.4,71.4 13,71.4 			"/>
			<polygon class="st20" points="64.2,33.9 10.4,33.9 13,71.4 66.8,71.4 			"/>
			<g>
				<rect x="32.8" y="63.9" class="st1" width="9.9" height="14.9"/>
				<rect x="24" y="75.9" class="st1" width="26.6" height="2.8"/>
				<rect x="53" y="75.9" class="st1" width="36.5" height="2.8"/>
			</g>
		</g>
		<g>
			<rect x="2" y="84.5" class="st6" width="4.1" height="70.9"/>
			<rect x="6.1" y="84.5" class="st18" width="4.1" height="70.9"/>
		</g>
		<g>
			<rect x="38.5" y="84.5" class="st6" width="4.1" height="70.9"/>
			<rect x="42.6" y="84.5" class="st6" width="4.1" height="70.9"/>
		</g>
		<g>
			<rect x="103.4" y="84.5" class="st6" width="4.1" height="70.9"/>
			<rect x="107.6" y="84.5" class="st18" width="4.1" height="70.9"/>
		</g>
		<g>
			<rect x="64.9" y="84.5" class="st6" width="4.1" height="70.9"/>
			<rect x="68.9" y="84.5" class="st18" width="4.1" height="70.9"/>
		</g>
	</g>
</g>
</svg>
