<?xml version="1.0" encoding="utf-8"?>
<!-- Generator: Adobe Illustrator 25.2.1, SVG Export Plug-In . SVG Version: 6.00 Build 0)  -->
<svg version="1.1" id="Layer_1" xmlns="http://www.w3.org/2000/svg" xmlns:xlink="http://www.w3.org/1999/xlink" x="0px" y="0px"
	 viewBox="0 0 210.2 123.6" style="enable-background:new 0 0 210.2 123.6;" xml:space="preserve">
<style type="text/css">
	.st0{fill:#929090;}
	.st1{fill:#EDEEEE;}
	.st2{fill:#F6F6F6;}
	.st3{fill:url(#SVGID_1_);}
	.st4{fill:url(#SVGID_2_);}
	.st5{fill:#D6D6D6;}
	.st6{fill:url(#SVGID_3_);}
	.st7{fill:url(#SVGID_4_);}
	.st8{fill:url(#SVGID_5_);}
	.st9{fill:url(#SVGID_6_);}
	.st10{fill:url(#SVGID_7_);}
	.st11{fill:url(#SVGID_8_);}
	.st12{fill:url(#SVGID_9_);}
	.st13{fill:url(#SVGID_10_);}
	.st14{fill:url(#SVGID_11_);}
	.st15{fill:url(#SVGID_12_);}
	.st16{fill:url(#SVGID_13_);}
	.st17{fill:#FFFFFF;stroke:#929090;stroke-miterlimit:10;}
	.st18{fill:url(#SVGID_14_);}
	.st19{fill:#3F3B39;}
	.st20{fill:#888888;}
	.st21{fill:url(#SVGID_15_);}
	.st22{fill:url(#SVGID_16_);}
	.st23{fill:url(#SVGID_17_);}
	.st24{fill:url(#SVGID_18_);}
	.st25{fill:url(#SVGID_19_);}
	.st26{fill:url(#SVGID_20_);}
	.st27{fill:url(#SVGID_21_);}
	.st28{fill:url(#SVGID_22_);}
	.st29{fill:url(#SVGID_23_);}
	.st30{fill:url(#SVGID_24_);}
	.st31{fill:url(#SVGID_25_);}
	.st32{fill:url(#SVGID_26_);}
	.st33{fill:url(#SVGID_27_);}
</style>
<g>
	<path class="st0" d="M191.5,97.2h-130c-1,0-1.7-0.8-1.7-1.7V1.7c0-1,0.8-1.7,1.7-1.7h130c1,0,1.7,0.8,1.7,1.7v93.7
		C193.2,96.4,192.5,97.2,191.5,97.2z"/>
	<g>
		<path class="st0" d="M49.1,100.4c0,1.3,1.2,2.5,2.7,2.5h149.6c1.5,0,2.7-1.1,2.7-2.5v-0.5H49.1V100.4z"/>
	</g>
	<rect x="49" y="93.9" class="st1" width="155.1" height="5.9"/>
	<rect x="66.6" y="6.7" class="st2" width="120.1" height="80.1"/>
	<path class="st0" d="M139.2,98.4h-25.3c-0.1,0-0.2-0.1-0.2-0.2v-1.1c0-0.1,0.1-0.2,0.2-0.2h25.3c0.1,0,0.2,0.1,0.2,0.2v1.1
		C139.4,98.3,139.3,98.4,139.2,98.4z"/>
	<g>
		<g>
			<linearGradient id="SVGID_1_" gradientUnits="userSpaceOnUse" x1="123.7024" y1="23.2268" x2="130.1694" y2="23.2268">
				<stop  offset="0" style="stop-color:#00A9CE"/>
				<stop  offset="1" style="stop-color:#00A9CE"/>
			</linearGradient>
			<path class="st3" d="M126.9,20c-1.8,0-3.2,1.4-3.2,3.2c0,1.8,1.4,3.2,3.2,3.2c1.8,0,3.2-1.4,3.2-3.2
				C130.2,21.4,128.7,20,126.9,20L126.9,20z"/>
		</g>
		<g>
			<linearGradient id="SVGID_2_" gradientUnits="userSpaceOnUse" x1="122.1554" y1="30.7879" x2="131.7163" y2="30.7879">
				<stop  offset="0" style="stop-color:#00A9CE"/>
				<stop  offset="1" style="stop-color:#00A9CE"/>
			</linearGradient>
			<path class="st4" d="M128.9,27.4H125c-0.6,0-1.1,0.3-1.3,0.8l-1.3,2.5c-0.8,1.6,0.3,3.4,2.1,3.4h4.9c1.8,0,2.9-1.9,2.1-3.4
				l-1.3-2.5C129.9,27.7,129.4,27.4,128.9,27.4L128.9,27.4z"/>
		</g>
	</g>
	<rect x="112.3" y="41.2" class="st5" width="30.5" height="5.7"/>
	<rect x="112.3" y="51.8" class="st5" width="30.5" height="5.7"/>
	<linearGradient id="SVGID_3_" gradientUnits="userSpaceOnUse" x1="112.3289" y1="67.4491" x2="142.8707" y2="67.4491">
		<stop  offset="0" style="stop-color:#00A9CE"/>
		<stop  offset="1" style="stop-color:#00A9CE"/>
	</linearGradient>
	<rect x="112.3" y="64.6" class="st6" width="30.5" height="5.7"/>
	<linearGradient id="SVGID_4_" gradientUnits="userSpaceOnUse" x1="114.6198" y1="43.9634" x2="116.3684" y2="43.9634">
		<stop  offset="0" style="stop-color:#00A9CE"/>
		<stop  offset="1" style="stop-color:#00A9CE"/>
	</linearGradient>
	<circle class="st7" cx="115.5" cy="44" r="0.9"/>
	<linearGradient id="SVGID_5_" gradientUnits="userSpaceOnUse" x1="117.1778" y1="43.9634" x2="118.9264" y2="43.9634">
		<stop  offset="0" style="stop-color:#00A9CE"/>
		<stop  offset="1" style="stop-color:#00A9CE"/>
	</linearGradient>
	<circle class="st8" cx="118.1" cy="44" r="0.9"/>
	<linearGradient id="SVGID_6_" gradientUnits="userSpaceOnUse" x1="119.7358" y1="43.9634" x2="121.4843" y2="43.9634">
		<stop  offset="0" style="stop-color:#00A9CE"/>
		<stop  offset="1" style="stop-color:#00A9CE"/>
	</linearGradient>
	<circle class="st9" cx="120.6" cy="44" r="0.9"/>
	<linearGradient id="SVGID_7_" gradientUnits="userSpaceOnUse" x1="122.2938" y1="43.9634" x2="124.0423" y2="43.9634">
		<stop  offset="0" style="stop-color:#00A9CE"/>
		<stop  offset="1" style="stop-color:#00A9CE"/>
	</linearGradient>
	<circle class="st10" cx="123.2" cy="44" r="0.9"/>
	<linearGradient id="SVGID_8_" gradientUnits="userSpaceOnUse" x1="124.8518" y1="43.9634" x2="126.6003" y2="43.9634">
		<stop  offset="0" style="stop-color:#00A9CE"/>
		<stop  offset="1" style="stop-color:#00A9CE"/>
	</linearGradient>
	<circle class="st11" cx="125.7" cy="44" r="0.9"/>
	<linearGradient id="SVGID_9_" gradientUnits="userSpaceOnUse" x1="127.4097" y1="43.9634" x2="129.1583" y2="43.9634">
		<stop  offset="0" style="stop-color:#00A9CE"/>
		<stop  offset="1" style="stop-color:#00A9CE"/>
	</linearGradient>
	<circle class="st12" cx="128.3" cy="44" r="0.9"/>
	<linearGradient id="SVGID_10_" gradientUnits="userSpaceOnUse" x1="114.6198" y1="54.6127" x2="116.3684" y2="54.6127">
		<stop  offset="0" style="stop-color:#00A9CE"/>
		<stop  offset="1" style="stop-color:#00A9CE"/>
	</linearGradient>
	<circle class="st13" cx="115.5" cy="54.6" r="0.9"/>
	<linearGradient id="SVGID_11_" gradientUnits="userSpaceOnUse" x1="117.1778" y1="54.6127" x2="118.9264" y2="54.6127">
		<stop  offset="0" style="stop-color:#00A9CE"/>
		<stop  offset="1" style="stop-color:#00A9CE"/>
	</linearGradient>
	<circle class="st14" cx="118.1" cy="54.6" r="0.9"/>
	<linearGradient id="SVGID_12_" gradientUnits="userSpaceOnUse" x1="119.7358" y1="54.6127" x2="121.4843" y2="54.6127">
		<stop  offset="0" style="stop-color:#00A9CE"/>
		<stop  offset="1" style="stop-color:#00A9CE"/>
	</linearGradient>
	<circle class="st15" cx="120.6" cy="54.6" r="0.9"/>
	<linearGradient id="SVGID_13_" gradientUnits="userSpaceOnUse" x1="122.2938" y1="54.6127" x2="124.0423" y2="54.6127">
		<stop  offset="0" style="stop-color:#00A9CE"/>
		<stop  offset="1" style="stop-color:#00A9CE"/>
	</linearGradient>
	<circle class="st16" cx="123.2" cy="54.6" r="0.9"/>
	<g>
		<rect y="24" class="st17" width="89.1" height="52.8"/>
		<linearGradient id="SVGID_14_" gradientUnits="userSpaceOnUse" x1="10.0673" y1="33.6578" x2="18.7043" y2="33.6578">
			<stop  offset="0" style="stop-color:#00A9CE"/>
			<stop  offset="1" style="stop-color:#00A9CE"/>
		</linearGradient>
		<circle class="st18" cx="14.4" cy="33.7" r="4.3"/>
		<rect x="22.9" y="31.5" class="st5" width="30.5" height="2.9"/>
		<rect x="29.3" y="45" class="st5" width="30.5" height="2.9"/>
		<rect x="50.2" y="55.8" class="st5" width="30.5" height="2.9"/>
		<rect x="50.2" y="62" class="st5" width="30.5" height="2.9"/>
		<rect x="50.2" y="68.1" class="st5" width="30.5" height="2.9"/>
	</g>
	<g>
		<path class="st19" d="M209.4,124.4h-45.2c-0.5,0-0.9-0.4-0.9-0.9V37.2c0-0.5,0.4-0.9,0.9-0.9h45.2c0.5,0,0.9,0.4,0.9,0.9v86.3
			C210.2,124.1,209.8,124.4,209.4,124.4z"/>
		<rect x="165.8" y="46.9" class="st2" width="41.9" height="65.6"/>
		<g>
			<path class="st20" d="M191.1,42.8h-8.8c-0.4,0-0.6-0.3-0.6-0.6c0-0.4,0.3-0.6,0.6-0.6h8.8c0.4,0,0.6,0.3,0.6,0.6
				C191.7,42.6,191.4,42.8,191.1,42.8z"/>
			<path class="st20" d="M180.4,42.2c0-0.4-0.4-0.8-0.8-0.8c-0.4,0-0.8,0.4-0.8,0.8s0.4,0.8,0.8,0.8C180.1,43,180.4,42.6,180.4,42.2
				z"/>
		</g>
		<circle class="st20" cx="187" cy="118.8" r="2.9"/>
		<g>
			<g>
				<linearGradient id="SVGID_15_" gradientUnits="userSpaceOnUse" x1="183.7236" y1="56.7647" x2="190.1906" y2="56.7647">
					<stop  offset="0" style="stop-color:#00A9CE"/>
					<stop  offset="1" style="stop-color:#00A9CE"/>
				</linearGradient>
				<path class="st21" d="M187,53.5c-1.8,0-3.2,1.4-3.2,3.2c0,1.8,1.4,3.2,3.2,3.2c1.8,0,3.2-1.4,3.2-3.2
					C190.2,55,188.7,53.5,187,53.5L187,53.5z"/>
			</g>
			<g>
				<linearGradient id="SVGID_16_" gradientUnits="userSpaceOnUse" x1="182.1766" y1="64.3258" x2="191.7375" y2="64.3258">
					<stop  offset="0" style="stop-color:#00A9CE"/>
					<stop  offset="1" style="stop-color:#00A9CE"/>
				</linearGradient>
				<path class="st22" d="M188.9,60.9H185c-0.6,0-1.1,0.3-1.3,0.8l-1.3,2.5c-0.8,1.6,0.3,3.4,2.1,3.4h4.9c1.8,0,2.9-1.9,2.1-3.4
					l-1.3-2.5C189.9,61.3,189.4,60.9,188.9,60.9L188.9,60.9z"/>
			</g>
		</g>
		<rect x="172.4" y="74.7" class="st5" width="30.5" height="5.7"/>
		<rect x="172.4" y="85.3" class="st5" width="30.5" height="5.7"/>
		<linearGradient id="SVGID_17_" gradientUnits="userSpaceOnUse" x1="172.3501" y1="100.987" x2="202.8918" y2="100.987">
			<stop  offset="0" style="stop-color:#00A9CE"/>
			<stop  offset="1" style="stop-color:#00A9CE"/>
		</linearGradient>
		<rect x="172.4" y="98.1" class="st23" width="30.5" height="5.7"/>
		<linearGradient id="SVGID_18_" gradientUnits="userSpaceOnUse" x1="174.641" y1="77.5013" x2="176.3896" y2="77.5013">
			<stop  offset="0" style="stop-color:#00A9CE"/>
			<stop  offset="1" style="stop-color:#00A9CE"/>
		</linearGradient>
		<circle class="st24" cx="175.5" cy="77.5" r="0.9"/>
		<linearGradient id="SVGID_19_" gradientUnits="userSpaceOnUse" x1="177.199" y1="77.5013" x2="178.9475" y2="77.5013">
			<stop  offset="0" style="stop-color:#00A9CE"/>
			<stop  offset="1" style="stop-color:#00A9CE"/>
		</linearGradient>
		<circle class="st25" cx="178.1" cy="77.5" r="0.9"/>
		<linearGradient id="SVGID_20_" gradientUnits="userSpaceOnUse" x1="179.757" y1="77.5013" x2="181.5055" y2="77.5013">
			<stop  offset="0" style="stop-color:#00A9CE"/>
			<stop  offset="1" style="stop-color:#00A9CE"/>
		</linearGradient>
		<circle class="st26" cx="180.6" cy="77.5" r="0.9"/>
		<linearGradient id="SVGID_21_" gradientUnits="userSpaceOnUse" x1="182.315" y1="77.5013" x2="184.0635" y2="77.5013">
			<stop  offset="0" style="stop-color:#00A9CE"/>
			<stop  offset="1" style="stop-color:#00A9CE"/>
		</linearGradient>
		<circle class="st27" cx="183.2" cy="77.5" r="0.9"/>
		<linearGradient id="SVGID_22_" gradientUnits="userSpaceOnUse" x1="184.873" y1="77.5013" x2="186.6215" y2="77.5013">
			<stop  offset="0" style="stop-color:#00A9CE"/>
			<stop  offset="1" style="stop-color:#00A9CE"/>
		</linearGradient>
		<circle class="st28" cx="185.7" cy="77.5" r="0.9"/>
		<linearGradient id="SVGID_23_" gradientUnits="userSpaceOnUse" x1="187.4309" y1="77.5013" x2="189.1795" y2="77.5013">
			<stop  offset="0" style="stop-color:#00A9CE"/>
			<stop  offset="1" style="stop-color:#00A9CE"/>
		</linearGradient>
		<circle class="st29" cx="188.3" cy="77.5" r="0.9"/>
		<linearGradient id="SVGID_24_" gradientUnits="userSpaceOnUse" x1="174.641" y1="88.1506" x2="176.3896" y2="88.1506">
			<stop  offset="0" style="stop-color:#00A9CE"/>
			<stop  offset="1" style="stop-color:#00A9CE"/>
		</linearGradient>
		<circle class="st30" cx="175.5" cy="88.2" r="0.9"/>
		<linearGradient id="SVGID_25_" gradientUnits="userSpaceOnUse" x1="177.199" y1="88.1506" x2="178.9475" y2="88.1506">
			<stop  offset="0" style="stop-color:#00A9CE"/>
			<stop  offset="1" style="stop-color:#00A9CE"/>
		</linearGradient>
		<circle class="st31" cx="178.1" cy="88.2" r="0.9"/>
		<linearGradient id="SVGID_26_" gradientUnits="userSpaceOnUse" x1="179.757" y1="88.1506" x2="181.5055" y2="88.1506">
			<stop  offset="0" style="stop-color:#00A9CE"/>
			<stop  offset="1" style="stop-color:#00A9CE"/>
		</linearGradient>
		<circle class="st32" cx="180.6" cy="88.2" r="0.9"/>
		<linearGradient id="SVGID_27_" gradientUnits="userSpaceOnUse" x1="182.315" y1="88.1506" x2="184.0635" y2="88.1506">
			<stop  offset="0" style="stop-color:#00A9CE"/>
			<stop  offset="1" style="stop-color:#00A9CE"/>
		</linearGradient>
		<circle class="st33" cx="183.2" cy="88.2" r="0.9"/>
	</g>
</g>
</svg>
