<?xml version="1.0" encoding="utf-8"?>
<!-- Generator: Adobe Illustrator 25.2.1, SVG Export Plug-In . SVG Version: 6.00 Build 0)  -->
<svg version="1.1" id="Layer_1" xmlns="http://www.w3.org/2000/svg" xmlns:xlink="http://www.w3.org/1999/xlink" x="0px" y="0px"
	 viewBox="0 0 47.8 41.2" style="enable-background:new 0 0 47.8 41.2;" xml:space="preserve">
<style type="text/css">
	.st0{fill:#FFFFFF;}
	.st1{fill:#D2D2D2;}
	.st2{fill:#EBEBEC;}
	.st3{opacity:0.5;fill:#9EB3AB;enable-background:new    ;}
	.st4{fill:#00A7CC;}
	.st5{fill:#E4E4E3;}
	.st6{fill:#D5D4D4;}
	.st7{fill:#C78E5C;}
	.st8{fill:#E8B988;}
	.st9{fill:#945E4B;}
	.st10{fill:#AD7849;}
	.st11{fill:#A5714F;}
	.st12{fill:#BC8B5C;}
	.st13{fill:#787677;}
	.st14{fill:#0090C4;}
	.st15{fill:#DB4B44;}
	.st16{fill:#EFD21C;}
	.st17{fill:#3CB784;}
	.st18{fill:#959598;}
	.st19{fill:#69CBED;}
	.st20{fill:#1EC1EA;}
	.st21{clip-path:url(#SVGID_2_);}
	.st22{fill:#242E3F;}
	.st23{fill:#384967;}
	.st24{fill:#5B80AA;}
	.st25{fill:#8C745D;}
	.st26{fill:#1F272D;}
</style>
<g>
	<g>
		<g>
			
				<rect x="9.3" y="2.4" transform="matrix(0.1316 -0.9913 0.9913 0.1316 3.4856 45.2255)" class="st0" width="36.5" height="36.5"/>
			<path class="st1" d="M43.3,41.2L6.9,36.4L11.8,0l36.4,4.8L43.3,41.2z M7.2,36.2l36,4.8l4.8-36L12,0.2L7.2,36.2z"/>
		</g>
		<rect x="13.7" y="4.9" transform="matrix(0.1316 -0.9913 0.9913 0.1316 4.3334 44.6674)" class="st2" width="28" height="29.9"/>
		<polygon class="st3" points="40.6,35.7 28.5,34.1 41.6,28.4 		"/>
		<polygon class="st4" points="13.4,13.8 14.7,4 44.3,7.9 43.1,17.3 29.9,7.3 		"/>
		<g>
			
				<rect x="1.5" y="2.8" transform="matrix(0.9971 -7.670471e-02 7.670471e-02 0.9971 -1.558 1.5748)" class="st0" width="36.5" height="36.5"/>
			<path class="st1" d="M2.8,40.8l0-0.1L0,4.2l0.1,0l36.5-2.8l0,0.1L39.4,38l-0.1,0L2.8,40.8z M0.2,4.4L3,40.6l36.2-2.8L36.4,1.6
				L0.2,4.4z"/>
		</g>
		
			<rect x="4.7" y="6.3" transform="matrix(0.9971 -7.670471e-02 7.670471e-02 0.9971 -1.4993 1.5681)" class="st5" width="29.9" height="28"/>
		<polygon class="st3" points="35.6,33.1 23.5,34 35.1,25.7 		"/>
		<polygon class="st4" points="4.4,18.2 3.7,7.5 33.5,5.2 34.2,14.6 19.3,7.5 		"/>
	</g>
	<g>
		<polygon class="st6" points="19.6,22.8 15.1,23.9 11,21.3 16.2,16.9 		"/>
		<g>
			<polygon class="st7" points="19,16.6 24.5,12.8 18.9,10.6 13.6,13.7 			"/>
			<polygon class="st8" points="13.6,13.7 11.2,14.1 16.6,10.9 18.9,10.6 			"/>
			<polygon class="st8" points="18.9,10.6 21.4,10.4 26.9,12.5 24.5,12.8 			"/>
			<polygon class="st9" points="18.9,10.6 19.3,16.4 24.5,12.8 			"/>
			<polygon class="st10" points="18.9,10.6 18,16 19,16.6 19.3,16.4 			"/>
		</g>
		<g>
			<polygon class="st11" points="13.6,13.7 14.1,20.1 19.5,22.8 19,16.6 			"/>
			<polygon class="st7" points="24.5,12.8 19,16.6 19.5,22.8 25,19 			"/>
			<polygon class="st12" points="11.4,16.5 11.4,16.6 16.5,20 19,16.6 			"/>
			<polygon class="st8" points="13.6,13.7 11.4,16.5 16.5,19.8 18.9,16.5 			"/>
			<polygon class="st12" points="27.1,15.5 27.1,15.6 21.9,19.7 19,16.6 			"/>
			<polygon class="st8" points="24.5,12.8 27.1,15.5 21.9,19.5 19.1,16.5 			"/>
		</g>
	</g>
	<g>
		<path class="st0" d="M19.7,28.1c-0.1,0-0.2-0.1-0.3-0.1c-0.3-0.3-0.3-0.8-0.2-1.2c0.2-0.8,0.6-1.6,1-2.4c0-0.1,0.1-0.1,0.2-0.2
			c0.1-0.1,0.2-0.1,0.2-0.1c0.3-0.1,0.6-0.2,0.8-0.2c0.1,0,0.1,0,0.2,0c0.1,0,0.1,0.1,0.1,0.1c0.1,0.2,0.2,0.3,0.3,0.5
			c0.1,0.1,0.1,0.2,0.2,0.2c0.1,0.1,0.2,0.1,0.3,0.1c0.3,0,0.5,0.1,0.8,0.1c0,0,0.1,0,0.2,0c0.1,0,0.1-0.1,0.2-0.1
			c0.2-0.1,0.3-0.2,0.4-0.4c0.1-0.1,0.2-0.1,0.2-0.1c0.1,0,0.2,0,0.3,0c0.3,0.1,0.5,0.2,0.7,0.3c0.1,0.1,0.2,0.2,0.3,0.3
			c0.1,0.1,0.1,0.3,0.1,0.4c0.2,0.7,0.3,1.3,0.4,2c0,0.1,0,0.2,0,0.3c0,0.4-0.1,0.9-0.5,1.1c-0.2,0.1-0.4,0.1-0.5,0
			c-0.1,0-0.1-0.2-0.2-0.2c-0.2-0.3-0.4-0.5-0.6-0.7c-0.1-0.1-0.2-0.2-0.4-0.3c-0.1-0.1-0.3-0.1-0.5-0.1c-0.5-0.1-1.1-0.1-1.6-0.2
			c-0.2,0-0.4-0.1-0.7,0s-0.4,0.2-0.6,0.3c-0.2,0.2-0.4,0.3-0.6,0.5c-0.1,0.1-0.2,0.1-0.2,0.1C19.8,28.1,19.7,28.1,19.7,28.1z"/>
		<ellipse class="st13" cx="21.1" cy="25.1" rx="0.4" ry="0.4"/>
		<ellipse class="st13" cx="23.7" cy="26.4" rx="0.4" ry="0.4"/>
		<ellipse class="st0" cx="22.4" cy="25.2" rx="0.1" ry="0.1"/>
		<ellipse class="st0" cx="23.4" cy="25.3" rx="0.1" ry="0.1"/>
		<ellipse class="st14" cx="24.2" cy="25.4" rx="0.2" ry="0.2"/>
		<ellipse class="st15" cx="25.1" cy="25.5" rx="0.2" ry="0.2"/>
		<ellipse class="st16" cx="24.7" cy="25" rx="0.2" ry="0.2"/>
		<ellipse class="st17" cx="24.6" cy="25.9" rx="0.2" ry="0.2"/>
		<path class="st18" d="M22.3,26.2l-0.3,0l0-0.3c0,0,0-0.1-0.1-0.1l-0.2,0c0,0-0.1,0-0.1,0.1l0,0.3l-0.3,0c0,0-0.1,0-0.1,0.1l0,0.2
			c0,0,0,0.1,0.1,0.1l0.3,0l0,0.3c0,0,0,0.1,0.1,0.1l0.2,0c0,0,0.1,0,0.1-0.1l0-0.3l0.3,0c0,0,0.1,0,0.1-0.1L22.3,26.2
			C22.4,26.2,22.4,26.2,22.3,26.2z"/>
	</g>
	<g>
		<g>
			<path class="st0" d="M32.6,26.8l-3.9,0c-0.4,0-0.7-0.3-0.7-0.7l0-7.4c0-0.4,0.3-0.7,0.7-0.7l3.9,0c0.4,0,0.7,0.3,0.7,0.7l0,7.4
				C33.3,26.5,33,26.8,32.6,26.8z"/>
			
				<rect x="26.9" y="19.9" transform="matrix(2.085959e-03 -1 1 2.085959e-03 8.3668 52.8402)" class="st19" width="7.5" height="4.6"/>
			<polygon class="st20" points="32.9,19.3 28.3,26 32.9,26 			"/>
		</g>
		<circle class="st13" cx="30.7" cy="18.2" r="0.1"/>
		<circle class="st13" cx="30.7" cy="26.3" r="0.1"/>
	</g>
	<g>
		<defs>
			<polygon id="SVGID_1_" points="21.7,34.2 5.4,35.4 2.4,23.2 18.6,19.5 			"/>
		</defs>
		<clipPath id="SVGID_2_">
			<use xlink:href="#SVGID_1_"  style="overflow:visible;"/>
		</clipPath>
		<g class="st21">
			<polygon class="st22" points="9.9,23.1 11,22.4 12.7,22.6 18,38.4 15.1,39.4 13.9,35.9 14.5,39.5 11.3,39.9 			"/>
			<path class="st23" d="M6.9,28.1c0.1-0.9,0.2-1.8,0.3-2.7c0,0-0.4-0.6,2.2-1.7l0.9-0.4l1.5,6.9l0.9,11l-2.7,0.1
				c0,0-0.2-0.1-0.2-0.4S9.4,32,9.4,32l-0.9-3.4l0.1,3.4l2.6,2.2c0,0-0.6,0.2-0.6,0.2l0,0c0,0.3-0.4,0.4-0.6,0.2l-3.1-2.1
				c-0.1-0.1-0.2-0.3-0.2-0.5C6.7,30.9,6.7,29.5,6.9,28.1z"/>
			<path class="st23" d="M17.1,25.9c-0.5-0.8-0.9-1.6-1.4-2.4c0,0,0.1-0.7-2.7-0.6l-1,0l1.5,6.9l3.7,10.4l2.5-1c0,0,0.1-0.1,0.1-0.4
				c-0.1-0.3-3.2-8.2-3.2-8.2L15.9,27l1.3,3.2l-0.8,3c0,0,0,0.1,0,0.1l0,0c0.1,0.3,0.6,0.2,0.6-0.1l1.9-3.2c0.1-0.2,0.1-0.3,0-0.5
				C18.5,28.4,17.8,27.1,17.1,25.9z"/>
			<path class="st24" d="M14.2,22.5c-0.5-0.4-1.1-0.7-1.7-0.9c-0.5-0.2-1-0.2-1.6-0.1c-0.3,0.1-0.6,0.2-0.9,0.3
				c-0.4,0.2-0.8,0.6-1.1,1c-0.3,0.3-0.5,0.7-0.7,1.1c0,0.1,0,0.2,0.1,0.2l1.9,0l0.4,0.6L9.2,25c-0.1,0-0.1,0.1-0.1,0.1l2.7,4.7
				l-1.2-6.2c-0.1-0.3,0.2-0.5,0.5-0.6l0,0c0.3,0,0.6,0.1,0.7,0.4l1.5,6.1l0.5-5.4c0-0.1-0.1-0.1-0.1-0.1l-1.5,0.2l0.1-0.7l1.8-0.8
				C14.2,22.6,14.2,22.5,14.2,22.5z"/>
			<ellipse class="st25" cx="9.6" cy="27.9" rx="0.3" ry="0.3"/>
			<ellipse class="st25" cx="10.4" cy="29.9" rx="0.3" ry="0.3"/>
			<ellipse class="st25" cx="10.9" cy="32.1" rx="0.3" ry="0.3"/>
			<ellipse class="st25" cx="10.8" cy="34.4" rx="0.3" ry="0.3"/>
			<polygon class="st26" points="10.4,25.1 9.7,25.4 9.7,25.3 10.3,25 			"/>
			<ellipse class="st25" cx="14.6" cy="26.8" rx="0.3" ry="0.3"/>
			<ellipse class="st25" cx="14.7" cy="29" rx="0.3" ry="0.3"/>
			<ellipse class="st25" cx="15.2" cy="31.2" rx="0.3" ry="0.3"/>
			<ellipse class="st25" cx="16.3" cy="33.2" rx="0.3" ry="0.3"/>
			<polygon class="st26" points="12.7,24.6 13.4,24.6 13.4,24.5 12.7,24.5 			"/>
		</g>
	</g>
</g>
</svg>
