<?xml version="1.0" encoding="utf-8"?>
<!-- Generator: Adobe Illustrator 25.2.1, SVG Export Plug-In . SVG Version: 6.00 Build 0)  -->
<svg version="1.1" id="Layer_1" xmlns="http://www.w3.org/2000/svg" xmlns:xlink="http://www.w3.org/1999/xlink" x="0px" y="0px"
	 viewBox="0 0 199.3 114.5" style="enable-background:new 0 0 199.3 114.5;" xml:space="preserve">
<style type="text/css">
	.st0{fill:#C88F5C;}
	.st1{fill:#E9BA8A;}
	.st2{fill:#945D4A;}
	.st3{fill:#AE784A;}
	.st4{fill:#00A8CD;}
	.st5{fill:#A5714F;}
	.st6{fill:#BE8C5D;}
	.st7{fill:#242E3F;}
	.st8{fill:#374866;}
	.st9{fill:#5A81AA;}
	.st10{fill:#8D745D;}
	.st11{fill:#1F272D;}
	.st12{fill:#FFFFFF;}
	.st13{fill:#68CCEF;}
	.st14{fill:#1CC2EB;}
	.st15{fill:#777677;}
	.st16{fill:#0290C4;}
	.st17{fill:#DB4B43;}
	.st18{fill:#F0D31A;}
	.st19{fill:#3BB885;}
	.st20{fill:#979799;}
</style>
<g>
	<g>
		<polygon class="st0" points="21.2,61.5 37.2,52.3 22,45.1 7,52.3 		"/>
		<polygon class="st1" points="7,52.3 0,53.1 15.7,45.4 22,45.1 		"/>
		<polygon class="st1" points="22,45.1 29.3,45.1 43.7,52 37.2,52.3 		"/>
		<polygon class="st2" points="22,45.1 22,61 37.2,52.3 		"/>
		<polygon class="st3" points="22,45.1 18.6,59.8 21.2,61.5 22,61 		"/>
	</g>
	<g>
		<path class="st4" d="M17.8,65.3C14.1,19.6,30.9,8.6,38.2,5.8c9.1-3.3,19.4,0.1,25.2,8.4l-3.1,2.1c-4.9-6.9-13.4-9.8-21-7.1
			C25.7,14.2,19,35,21.3,65L17.8,65.3z"/>
		<g>
			<polygon class="st4" points="57.4,16.4 64.7,21 65,12.3 			"/>
		</g>
	</g>
	<g>
		<polygon class="st5" points="7,52.3 7,70.1 21.2,78.7 21.2,61.5 		"/>
		<polygon class="st0" points="37.2,52.3 21.2,61.5 21.2,78.7 37.2,69.5 		"/>
		<polygon class="st6" points="0,59.8 0,60 13.5,70.5 21.2,61.5 		"/>
		<polygon class="st1" points="7,52.3 0,59.8 13.5,69.9 21,61.4 		"/>
		<polygon class="st6" points="43.7,60.1 43.7,60.3 28.5,70.9 21.2,61.5 		"/>
		<polygon class="st1" points="37.2,52.3 43.7,60.1 28.6,70.3 21.5,61.4 		"/>
	</g>
	<g>
		<polygon class="st0" points="176.8,61.5 192.8,52.2 177.6,45.1 162.4,52.3 		"/>
		<polygon class="st1" points="162.4,52.3 155.6,53.1 171.3,45.4 177.6,45.1 		"/>
		<polygon class="st1" points="177.6,45.1 184.8,44.8 199.3,51.7 192.8,52.2 		"/>
		<polygon class="st2" points="177.6,45.1 177.7,61 192.8,52.2 		"/>
		<polygon class="st3" points="177.6,45.1 174.1,59.8 176.8,61.5 177.7,61 		"/>
	</g>
	<g>
		<g>
			<g>
				<polygon class="st0" points="97.9,72.6 137.1,50.5 100.3,32.5 63.1,50 				"/>
				<polygon class="st1" points="63.1,50 46.5,51.4 84.8,33 100.3,32.5 				"/>
				<polygon class="st1" points="100.3,32.5 117.7,32.6 153,49.6 137.1,50.5 				"/>
				<polygon class="st2" points="100.3,32.5 99.9,71.3 137.1,50.5 				"/>
				<polygon class="st3" points="100.3,32.5 91.4,68.4 97.9,72.6 99.9,71.3 				"/>
			</g>
			<g>
				<polygon class="st7" points="92,11.7 97.7,9.4 105,11.8 112.9,88.8 98.8,90.2 97.3,73.4 96.1,90 81.5,88.6 				"/>
				<path class="st8" d="M73.3,31c1.4-4,2.8-8,4.4-12c0,0-1-3,11.8-5.4l4.6-1L93.8,45l-7.1,50.6l-12.2-2.3c0,0-0.8-0.5-0.7-2
					C74,89.8,80.5,51,80.5,51L79.8,35l-3.1,15.6l9.4,12.7c0,0.1-3.1,0.2-3.1,0.5V64c-0.1,1.4-2.3,1.6-2.8,0.3L68.6,52
					c-0.5-0.7-0.6-1.5-0.3-2.3C69.5,43.5,71.2,37.2,73.3,31z"/>
				<path class="st8" d="M121.7,31.3c-1.3-4.1-2.6-8.1-4.1-12.2c0,0,1.1-3-11.7-5.5l-4.6-1l-0.2,32.5l6.3,50.6l12.2-2.2
					c0,0,0.8-0.5,0.7-1.8c-0.1-1.5-6.1-40.4-6.1-40.4l1-16.1l2.8,15.7l-6.4,12.7c0,0.1-0.1,0.3,0,0.5v0.2c0.1,1.4,2.3,1.6,2.8,0.3
					l11.9-12.3c0.5-0.7,0.6-1.5,0.5-2.3C125.3,43.9,123.7,37.6,121.7,31.3z"/>
				<path class="st9" d="M111.9,13.1c-1.8-2.3-4-4.4-6.7-6c-2.1-1.3-4.5-2.2-7.1-2.3c-1.5,0-3,0.1-4.4,0.6c-2.2,0.7-4.1,2-5.9,3.3
					c-1.6,1.3-3.1,2.6-4.2,4.1c-0.2,0.3-0.1,0.7,0.3,0.8l8.8,1.8l1.3,3l-7,0.7c-0.3,0-0.6,0.3-0.5,0.6l7.5,23.7l0.8-29
					c0-1.3,1.3-2.2,2.6-2.2h0.2c1.5,0.1,2.6,1,2.6,2.3l0.5,29l7.8-23.6c0.1-0.2-0.1-0.6-0.5-0.6l-6.9-0.8l1.4-3.1l8.9-1.7
					C111.9,13.8,112.1,13.3,111.9,13.1z"/>
				<ellipse class="st10" cx="85.9" cy="32.7" rx="1.5" ry="1.5"/>
				<ellipse class="st10" cx="87.4" cy="42.8" rx="1.5" ry="1.5"/>
				<ellipse class="st10" cx="87.3" cy="53.1" rx="1.5" ry="1.5"/>
				<ellipse class="st10" cx="84.4" cy="63.2" rx="1.5" ry="1.5"/>
				<polygon class="st11" points="92,21 88.8,21.6 88.7,21.2 91.9,20.6 				"/>
				<ellipse class="st10" cx="109.3" cy="32.9" rx="1.5" ry="1.5"/>
				<ellipse class="st10" cx="107.8" cy="43.1" rx="1.5" ry="1.5"/>
				<ellipse class="st10" cx="107.7" cy="53.2" rx="1.5" ry="1.5"/>
				<ellipse class="st10" cx="110.5" cy="63.3" rx="1.5" ry="1.5"/>
				<polygon class="st11" points="103.3,21.1 106.3,21.7 106.6,21.3 103.4,20.8 				"/>
			</g>
			<g>
				<path class="st12" d="M98.5,86l-18.1,2.4c-1.8,0.2-3.6-1.1-3.8-3l-4.5-34.1c-0.2-1.8,1.1-3.6,3-3.8l18.1-2.4
					c1.8-0.2,3.6,1.1,3.8,3l4.5,34.1C101.8,84.1,100.4,85.8,98.5,86z"/>
				
					<rect x="76.1" y="48.4" transform="matrix(0.9916 -0.1297 0.1297 0.9916 -7.8212 11.8128)" class="st13" width="21.5" height="35.1"/>
				<polygon class="st14" points="95.6,50.9 78.4,84.8 99.7,82.1 				"/>
			</g>
			<g>
				<path class="st12" d="M119,73.4c-0.3,0.3-0.7,0.7-1.3,1c-2.1,0.8-4.4-0.2-6.2-1.6c-3.8-2.6-6.7-6.4-9.5-10.1
					c-0.2-0.3-0.6-0.7-0.7-1.3c-0.1-0.5-0.1-1-0.1-1.5c0.1-1.5,0.3-3.1,0.8-4.5c0.1-0.3,0.2-0.7,0.6-1c0.2-0.2,0.6-0.2,0.8-0.3
					c1-0.2,2-0.3,3-0.6c0.5-0.1,1.1-0.2,1.5-0.5c0.5-0.3,0.8-0.8,1.1-1.4c0.7-1.3,1.4-2.4,2.1-3.7c0.1-0.2,0.2-0.5,0.3-0.8
					c0-0.3-0.1-0.7-0.1-1.1c-0.3-1-0.6-2-1-2.8c-0.1-0.5-0.2-1-0.2-1.5c0.1-0.5,0.5-1,0.8-1.4c1-1,2-2.1,3.2-2.8
					c0.6-0.3,1.3-0.6,2-0.7c0.7-0.1,1.5,0.1,2.2,0.2c3.7,0.5,7.3,1.3,10.8,2.5c0.5,0.2,1,0.3,1.5,0.6c2,1,4,2.3,4.2,4.5
					c0.1,1-0.1,2.1-1.1,2.6c-0.3,0.2-1,0.3-1.4,0.3c-1.6,0.2-3.2,0.7-4.6,1.3c-0.7,0.2-1.6,0.6-2.2,1.1c-0.7,0.6-1.3,1.5-1.7,2.3
					c-1.5,2.5-3.1,5.2-4.5,7.7c-0.6,1-1.3,2.1-1.4,3.3c-0.1,1.3,0.1,2.4,0.5,3.6c0.3,1.4,0.6,2.5,1,3.9c0.1,0.5,0.2,1,0.1,1.4
					C119.2,73,119.1,73.2,119,73.4z"/>
				<ellipse class="st15" cx="106.9" cy="59.5" rx="2.1" ry="2.1"/>
				<ellipse class="st15" cx="119.1" cy="50" rx="2.1" ry="2.1"/>
				<ellipse class="st12" cx="110.4" cy="53.6" rx="0.7" ry="0.7"/>
				<ellipse class="st12" cx="113.1" cy="49" rx="0.7" ry="0.7"/>
				<ellipse class="st16" cx="115.2" cy="45.3" rx="1.1" ry="1.1"/>
				<ellipse class="st17" cx="117.7" cy="40.8" rx="1.1" ry="1.1"/>
				<ellipse class="st18" cx="114.3" cy="41.6" rx="1.1" ry="1.1"/>
				<ellipse class="st19" cx="118.7" cy="44.3" rx="1.1" ry="1.1"/>
				<path class="st20" d="M114.8,56.1l-0.7,1.4l-1.4-0.7c-0.1-0.1-0.3,0-0.5,0.1l-0.5,1c-0.1,0.1,0,0.3,0.1,0.5l1.4,0.7l-0.7,1.4
					c-0.1,0.1,0,0.3,0.1,0.5l1,0.5c0.1,0.1,0.3,0,0.5-0.1l0.7-1.4l1.4,0.7c0.1,0.1,0.3,0,0.5-0.1l0.5-1c0.1-0.1,0-0.3-0.1-0.5
					l-1.4-0.7l0.7-1.4c0.1-0.1,0-0.3-0.1-0.5l-1-0.5C115.2,55.9,115,55.9,114.8,56.1z"/>
			</g>
			<g>
				<polygon class="st5" points="63.1,50 62.9,93.3 97.6,114.5 97.9,72.6 				"/>
				<polygon class="st0" points="137.1,50.5 97.9,72.6 97.6,114.5 136.9,92.5 				"/>
				<polygon class="st6" points="46.2,67.9 46.2,68.6 78.9,94.3 97.9,72.6 				"/>
				<polygon class="st1" points="63.1,50 46.2,67.9 78.8,92.9 97.3,72 				"/>
				<polygon class="st6" points="152.8,69.6 152.8,70.3 115.3,95.6 97.9,72.6 				"/>
				<polygon class="st1" points="137.1,50.5 152.8,69.6 115.5,94.2 98.5,72.3 				"/>
			</g>
		</g>
		<circle class="st15" cx="84.1" cy="47.6" r="0.3"/>
	</g>
	<g>
		<path class="st4" d="M179.8,65.3l-3.7-0.2c2.3-29.8-4.4-50.7-18-55.8c-7.6-2.6-16.1,0.2-21,7.1l-3.1-2.1
			c5.9-8.1,16.2-11.6,25.2-8.4C166.7,8.6,183.4,19.6,179.8,65.3z"/>
		<g>
			<polygon class="st4" points="132.6,12.3 132.8,21 140.3,16.4 			"/>
		</g>
	</g>
	<g>
		<polygon class="st5" points="162.4,52.3 162.6,70.1 176.9,78.6 176.8,61.5 		"/>
		<polygon class="st0" points="192.8,52.2 176.8,61.5 176.9,78.6 193,69.3 		"/>
		<polygon class="st6" points="155.6,59.9 155.6,60.1 169.3,70.5 176.8,61.5 		"/>
		<polygon class="st1" points="162.4,52.3 155.6,59.9 169.1,69.9 176.6,61.3 		"/>
		<polygon class="st6" points="199.3,59.9 199.3,60.1 184,70.8 176.8,61.5 		"/>
		<polygon class="st1" points="192.8,52.2 199.3,59.9 184.1,70.1 177.1,61.3 		"/>
	</g>
</g>
</svg>
