<?xml version="1.0" encoding="utf-8"?>
<!-- Generator: Adobe Illustrator 25.2.1, SVG Export Plug-In . SVG Version: 6.00 Build 0)  -->
<svg version="1.1" id="Layer_1" xmlns="http://www.w3.org/2000/svg" xmlns:xlink="http://www.w3.org/1999/xlink" x="0px" y="0px"
	 viewBox="0 0 48.7 38.2" style="enable-background:new 0 0 48.7 38.2;" xml:space="preserve">
<style type="text/css">
	.st0{fill:#FFFFFF;}
	.st1{fill:#D2D2D2;}
	.st2{fill:#ECECED;}
	.st3{opacity:0.5;fill:#9FB4AB;enable-background:new    ;}
	.st4{fill:#00A8CD;}
	.st5{fill:#C3C6D7;}
	.st6{fill:#C88F5C;}
	.st7{fill:#E9BB8B;}
	.st8{fill:#A4714E;}
	.st9{fill:#482A12;}
	.st10{fill:#804E33;}
	.st11{opacity:0.3;fill:#FFFFFF;enable-background:new    ;}
	.st12{fill:#C3915B;}
	.st13{fill:#D5D5D5;}
</style>
<g>
	<g>
		
			<rect id="Rectangle_66_4_" x="13.2" y="3.9" transform="matrix(0.2307 -0.973 0.973 0.2307 3.0719 43.7831)" class="st0" width="32.1" height="32.1"/>
		<path id="Path_114_4_" class="st1" d="M41.2,39.4L9.8,31.9l7.5-31.4l31.4,7.4L41.2,39.4z M10,31.8l31,7.4l7.4-31l-31-7.4L10,31.8z
			"/>
		
			<rect id="Rectangle_67_4_" x="17.1" y="6.1" transform="matrix(0.2307 -0.973 0.973 0.2307 3.878 43.4178)" class="st2" width="24.6" height="26.3"/>
		<path id="Path_115_4_" class="st3" d="M39.4,34.3l-10.5-2.5l11.9-3.8L39.4,34.3z"/>
		<path id="Path_116_4_" class="st4" d="M17.4,12.7l2-8.5L45,10.3l-1.9,8L32.5,8.5L17.4,12.7z"/>
	</g>
	
		<rect id="Rectangle_66_3_" x="8.2" y="3.9" transform="matrix(0.1316 -0.9913 0.9913 0.1316 1.2637 41.3405)" class="st0" width="32.1" height="32.1"/>
	<path id="Path_114_3_" class="st1" d="M38.1,38.1l-32-4.2l4.3-32l32,4.2L38.1,38.1z M6.3,33.7l31.6,4.2l4.2-31.6L10.5,2L6.3,33.7z"
		/>
	
		<rect id="Rectangle_67_3_" x="12" y="6.1" transform="matrix(0.1316 -0.9913 0.9913 0.1316 2.0519 40.8277)" class="st2" width="24.6" height="26.3"/>
	<path id="Path_115_3_" class="st3" d="M35.7,33.2l-10.7-1.4l11.5-5L35.7,33.2z"/>
	<path id="Path_116_3_" class="st4" d="M11.8,14l1.1-8.6L39,8.8L37.9,17L26.3,8.2L11.8,14z"/>
	<path id="Path_117_2_" class="st5" d="M23.5,27.3l-5.1-0.6l-5.9-4.9l5.3-2.3L23.5,27.3z"/>
	<path id="Path_118_2_" class="st6" d="M24.6,19.3l7.8-3.2l-1.1,8.1l-7.8,3.2L24.6,19.3z"/>
	<path id="Path_119_2_" class="st7" d="M18.1,14.3l7.8-3.2l6.5,5l-7.8,3.2L18.1,14.3z"/>
	<path id="Path_120_2_" class="st8" d="M24.6,19.3l-1.1,8.1l-6.5-5l1.1-8.1L24.6,19.3z"/>
	<path id="Path_121_2_" class="st9" d="M25.7,20.1l1.8-0.8l-0.3,1.9l-1.8,0.7L25.7,20.1z M27.2,21.2l0.2-1.8l-1.7,0.7l-0.2,1.7
		L27.2,21.2z"/>
	<path id="Path_122_2_" class="st9" d="M26.4,21.2c0.1,0,0.2,0,0.2,0l0,0l-0.5,0.2l0,0c0,0,0.1-0.1,0.2-0.2L26.4,21.2l-0.1,0.1h0
		L26.4,21.2L26.4,21.2z"/>
	<path id="Path_123_2_" class="st9" d="M26.5,20.6L26.5,20.6l-0.1,0.6v0l0,0v-0.1l0.1-0.5L26.5,20.6L26.5,20.6z"/>
	<path id="Path_124_2_" class="st9" d="M26.7,19.9l-0.1,0.6c0,0.1-0.1,0.2-0.2,0.3h0v-0.1h0v0.1h0c-0.1,0-0.2,0-0.2-0.1l0.1-0.6
		L26.7,19.9z"/>
	<path id="Path_125_2_" class="st9" d="M28.5,19.4L28.5,19.4c0.2,0,0.3,0.1,0.3,0.2l-0.4,0.2l-0.1,0.6c0,0.1-0.1,0.2-0.2,0.2
		c-0.1,0-0.1,0-0.1-0.1l0,0l0.1,0l0,0c0,0,0,0,0,0.1h0c0,0,0.1-0.1,0.1-0.1l0.1-0.6L28.1,20c0.1-0.2,0.2-0.4,0.4-0.5L28.5,19.4
		L28.5,19.4z"/>
	<path id="Path_126_2_" class="st9" d="M27.7,19.3l1.8-0.8l-0.3,1.9l-1.8,0.8L27.7,19.3z M29.2,20.4l0.2-1.8l-1.7,0.7l-0.2,1.8
		L29.2,20.4z"/>
	<path id="Path_127_2_" class="st9" d="M28.8,19.2L28.8,19.2c0,0.1,0,0.1,0,0.1c0,0,0,0,0,0l0,0L28.8,19.2
		C28.8,19.3,28.8,19.2,28.8,19.2z"/>
	<path id="Path_128_2_" class="st9" d="M28.9,19.2L28.9,19.2c0,0.1,0,0.1,0,0.1c0,0,0,0,0,0l0,0L28.9,19.2
		C28.9,19.3,28.9,19.3,28.9,19.2z"/>
	<path id="Path_129_2_" class="st9" d="M28.7,19.1L28.7,19.1c0,0.1,0,0.1,0,0.1c0,0,0,0,0,0l0,0L28.7,19.1
		C28.6,19.2,28.6,19.2,28.7,19.1z"/>
	<path id="Path_130_2_" class="st9" d="M29,19L29,19c0,0.1,0,0.1,0,0.1c0,0,0,0,0,0l0,0L29,19C28.9,19.1,28.9,19.1,29,19z"/>
	<path id="Path_131_2_" class="st9" d="M28.8,19L28.8,19c0,0.1,0,0.1,0,0.1c0,0,0,0,0,0l0,0L28.8,19L28.8,19z"/>
	<path id="Path_132_2_" class="st9" d="M30.8,19.4v0.1L30,19.8v-0.1L30.8,19.4z"/>
	<path id="Path_133_2_" class="st9" d="M30.8,18.2l0.1,0.3l-0.1,0l-0.1,0.9h-0.1l0.1-0.8l-0.1,0L30.8,18.2z"/>
	<path id="Path_134_2_" class="st9" d="M29.7,18.4l1.8-0.8l-0.3,1.9l-1.8,0.8L29.7,18.4z M31.2,19.5l0.2-1.8l-1.7,0.7l-0.2,1.8
		L31.2,19.5z"/>
	<path id="Path_135_2_" class="st9" d="M30.4,18.4l0.1,0.3l-0.1,0l-0.1,0.8l-0.1,0l0.1-0.8l-0.1,0L30.4,18.4z"/>
	<path id="Path_136_2_" class="st10" d="M24.6,19.4L24.6,19.4l-6.5-5v-0.1c0,0,0,0,0.1,0l0,0l6.5,5C24.7,19.3,24.7,19.3,24.6,19.4
		L24.6,19.4L24.6,19.4z"/>
	<path id="Path_137_2_" class="st11" d="M28.2,12.9l-7.7,3.2l0,0l-1.1,8.1l1.1,0.9l1.1-8.1l7.7-3.2L28.2,12.9z"/>
	<path id="Path_138_2_" class="st12" d="M23.5,27.3C23.5,27.3,23.5,27.3,23.5,27.3l1-8.1c0,0,0,0,0,0c0,0,0,0,0,0l7.7-3.2
		c0,0,0,0,0.1,0c0,0,0,0,0,0.1l0,0l-7.7,3.2L23.5,27.3C23.6,27.3,23.6,27.3,23.5,27.3z"/>
	<path id="Path_139_2_" class="st11" d="M29.6,17.2L29.6,17.2l-6.5-5l-1.3,0.6l6.5,5l-1.1,8.1l1.3-0.6L29.6,17.2z"/>
	
		<rect id="Rectangle_68_2_" x="1.4" y="4.2" transform="matrix(0.9968 -7.974659e-02 7.974659e-02 0.9968 -1.5626 1.4567)" class="st0" width="32.2" height="32.2"/>
	<path id="Path_140_2_" class="st1" d="M2.5,37.7L0,5.5h0.1L32.2,3v0.1l2.5,32.1h-0.1L2.5,37.7z M0.2,5.6l2.5,31.8L34.5,35L32,3.2
		L0.2,5.6z"/>
	
		<rect id="Rectangle_69_2_" x="4.2" y="7.3" transform="matrix(0.9971 -7.671903e-02 7.671903e-02 0.9971 -1.4549 1.3855)" class="st2" width="26.3" height="24.6"/>
	<path id="Path_141_2_" class="st3" d="M31.3,30.9l-10.7,0.8l10.2-7.3L31.3,30.9z"/>
	<path id="Path_142_2_" class="st4" d="M3.9,17.8L3.3,8.4l26.2-2l0.6,8.2L16.9,8.4L3.9,17.8z"/>
	<path id="Path_143_2_" class="st13" d="M18.2,27.7L13,28.1l-6.7-3.5l4.7-3.3L18.2,27.7z"/>
	<path id="Path_144_2_" class="st6" d="M17.6,19.6l6.9-4.8l0.6,8.2l-6.9,4.7L17.6,19.6z"/>
	<path id="Path_145_2_" class="st7" d="M10.2,16.1l6.9-4.7l7.4,3.5l-6.9,4.8L10.2,16.1z"/>
	<path id="Path_146_2_" class="st8" d="M17.6,19.6l0.6,8.1l-7.4-3.5l-0.6-8.2L17.6,19.6z"/>
	<path id="Path_147_2_" class="st9" d="M18.8,20.2l1.6-1.1l0.2,1.9L19,22.1L18.8,20.2z M20.5,21l-0.2-1.8l-1.5,1L19,22L20.5,21z"/>
	<path id="Path_148_2_" class="st9" d="M19.7,21.1c0.1-0.1,0.2-0.1,0.2,0l0,0l-0.4,0.3l0,0c0,0,0.1-0.1,0.2-0.2L19.7,21.1l-0.1,0.1
		L19.7,21.1L19.7,21.1L19.7,21.1z"/>
	<path id="Path_149_2_" class="st9" d="M19.7,20.5L19.7,20.5l0,0.6l0,0l-0.1,0v-0.1l0-0.5L19.7,20.5L19.7,20.5z"/>
	<path id="Path_150_2_" class="st9" d="M19.8,19.7l0,0.6c0,0.1-0.1,0.2-0.2,0.3h0v-0.1l0,0v0.1h0c-0.1,0.1-0.2,0-0.2-0.1l0-0.6
		L19.8,19.7z"/>
	<path id="Path_151_2_" class="st9" d="M21.4,18.9L21.4,18.9c0.2,0,0.3,0,0.4,0.2l-0.3,0.2l0,0.6c0,0.1,0,0.2-0.1,0.2
		c-0.1,0-0.1,0-0.1-0.1l0,0l0,0l0,0c0,0,0,0.1,0.1,0c0,0,0.1-0.1,0.1-0.2l0-0.6l-0.3,0.2C21.1,19.3,21.2,19.1,21.4,18.9L21.4,18.9
		L21.4,18.9z"/>
	<path id="Path_152_2_" class="st9" d="M20.6,18.9l1.6-1.1l0.2,1.9l-1.6,1.1L20.6,18.9z M22.3,19.7l-0.1-1.8l-1.5,1l0.2,1.8
		L22.3,19.7z"/>
	<path id="Path_153_2_" class="st9" d="M21.6,18.6L21.6,18.6c0,0.1,0,0.1,0,0.1c0,0,0,0,0,0l0,0L21.6,18.6
		C21.6,18.7,21.6,18.7,21.6,18.6z"/>
	<path id="Path_154_2_" class="st9" d="M21.8,18.6L21.8,18.6c0,0.1,0,0.1,0,0.1c0,0,0,0,0,0l0,0L21.8,18.6
		C21.8,18.7,21.8,18.7,21.8,18.6z"/>
	<path id="Path_155_2_" class="st9" d="M21.5,18.6L21.5,18.6c0,0.1,0,0.1,0,0.1c0,0,0,0,0,0l0,0L21.5,18.6
		C21.5,18.7,21.5,18.7,21.5,18.6z"/>
	<path id="Path_156_2_" class="st9" d="M21.8,18.5L21.8,18.5c0,0.1,0,0.1,0,0.1c0,0,0,0,0,0l0,0L21.8,18.5
		C21.8,18.5,21.8,18.5,21.8,18.5z"/>
	<path id="Path_157_2_" class="st9" d="M21.6,18.5L21.6,18.5c0,0.1,0,0.1,0,0.1c0,0,0,0,0,0l0,0L21.6,18.5
		C21.6,18.5,21.6,18.5,21.6,18.5z"/>
	<path id="Path_158_2_" class="st9" d="M23.6,18.5L23.6,18.5L23,19v-0.1L23.6,18.5z"/>
	<path id="Path_159_2_" class="st9" d="M23.4,17.3l0.2,0.3l-0.1,0l0.1,0.9l-0.1,0l-0.1-0.9l-0.1,0.1L23.4,17.3z"/>
	<path id="Path_160_2_" class="st9" d="M22.4,17.7l1.6-1.1l0.2,1.9l-1.6,1.1L22.4,17.7z M24.1,18.5l-0.1-1.8l-1.5,1l0.2,1.8
		L24.1,18.5z"/>
	<path id="Path_161_2_" class="st9" d="M23.1,17.5l0.1,0.3l0,0l0,0.9l-0.1,0L23,17.9l0,0L23.1,17.5z"/>
	<path id="Path_162_2_" class="st11" d="M19.8,12.6l-6.9,4.7l0,0l0.6,8.2l1.3,0.6L14.1,18l6.9-4.8L19.8,12.6z"/>
	<path id="Path_163_2_" class="st12" d="M18.2,27.7C18.2,27.7,18.2,27.7,18.2,27.7C18.2,27.7,18.2,27.7,18.2,27.7l-0.7-8.1
		c0,0,0,0,0,0c0,0,0,0,0,0l6.9-4.8c0,0,0.1,0,0.1,0v0l-6.9,4.8L18.2,27.7C18.2,27.7,18.2,27.7,18.2,27.7
		C18.2,27.7,18.2,27.7,18.2,27.7z"/>
	<path id="Path_164_2_" class="st11" d="M22,16.6L22,16.6L14.6,13l-1.2,0.8l7.4,3.6l0.6,8.1l1.2-0.8L22,16.6z"/>
</g>
</svg>
