<?xml version="1.0" encoding="utf-8"?>
<!-- Generator: Adobe Illustrator 25.2.1, SVG Export Plug-In . SVG Version: 6.00 Build 0)  -->
<svg version="1.1" id="Layer_1" xmlns="http://www.w3.org/2000/svg" xmlns:xlink="http://www.w3.org/1999/xlink" x="0px" y="0px"
	 viewBox="0 0 44.7 45.5" style="enable-background:new 0 0 44.7 45.5;" xml:space="preserve">
<style type="text/css">
	.st0{fill:#FFFFFF;}
	.st1{fill:#D2D2D2;}
	.st2{fill:#EBEBEC;}
	.st3{fill:#D5D4D4;}
	.st4{fill:#C78E5C;}
	.st5{fill:#E8B988;}
	.st6{fill:#945E4B;}
	.st7{fill:#AD7849;}
	.st8{clip-path:url(#SVGID_2_);}
	.st9{fill:#242E3F;}
	.st10{fill:#384967;}
	.st11{fill:#5B80AA;}
	.st12{fill:#8C745D;}
	.st13{fill:#1F272D;}
	.st14{fill:#A5714F;}
	.st15{fill:#BC8B5C;}
</style>
<g>
	<g>
		<rect x="1" y="1.5" transform="matrix(1 -7.929980e-03 7.929980e-03 1 -0.1802 0.1778)" class="st0" width="42.6" height="42.6"/>
		<path class="st1" d="M1.1,44.4l0-0.1L0.7,1.6l0.1,0l42.7-0.3l0,0.1l0.3,42.7l-0.1,0L1.1,44.4z M1,1.8l0.3,42.3l42.3-0.3L43.3,1.5
			L1,1.8z"/>
	</g>
	
		<rect x="4.9" y="5.6" transform="matrix(1 -7.929980e-03 7.929980e-03 1 -0.1731 0.1777)" class="st2" width="34.9" height="32.6"/>
	<polygon class="st3" points="22.5,34.5 13.9,35.9 6.7,30.3 17.1,23 	"/>
	<g>
		<polygon class="st4" points="22.4,22.9 33.3,16.7 23.1,11.7 12.8,16.6 		"/>
		<polygon class="st5" points="12.8,16.6 8.2,17 18.8,11.9 23.1,11.7 		"/>
		<polygon class="st5" points="23.1,11.7 27.9,11.8 37.7,16.5 33.3,16.7 		"/>
		<polygon class="st6" points="23.1,11.7 23,22.5 33.3,16.7 		"/>
		<polygon class="st7" points="23.1,11.7 20.6,21.7 22.4,22.9 23,22.5 		"/>
	</g>
	<g>
		<defs>
			<rect id="SVGID_1_" x="12" y="7.9" width="21.3" height="17.6"/>
		</defs>
		<clipPath id="SVGID_2_">
			<use xlink:href="#SVGID_1_"  style="overflow:visible;"/>
		</clipPath>
		<g class="st8">
			<polygon class="st9" points="21.3,10 22.9,9.3 24.9,10 27.1,31.3 23.2,31.7 22.8,27.1 22.5,31.7 18.4,31.3 			"/>
			<path class="st10" d="M16.1,15.3c0.4-1.1,0.8-2.2,1.2-3.3c0,0-0.3-0.8,3.3-1.5l1.3-0.3l-0.1,9l-2,14l-3.4-0.6
				c0,0-0.2-0.1-0.2-0.5c0-0.4,1.8-11.2,1.8-11.2L18,16.4l-0.9,4.3l2.6,3.5c0,0-0.9,0.1-0.9,0.1v0.1c0,0.4-0.6,0.4-0.8,0.1l-3.2-3.4
				c-0.1-0.2-0.2-0.4-0.1-0.6C15.1,18.8,15.6,17,16.1,15.3z"/>
			<path class="st10" d="M29.6,15.4c-0.3-1.1-0.7-2.3-1.1-3.4c0,0,0.3-0.8-3.2-1.5l-1.3-0.3l-0.1,9l1.7,14l3.4-0.6
				c0,0,0.2-0.1,0.2-0.5c0-0.4-1.7-11.2-1.7-11.2l0.3-4.5l0.8,4.4l-1.8,3.5c0,0,0,0.1,0,0.1v0.1c0,0.4,0.6,0.4,0.8,0.1l3.3-3.4
				c0.1-0.2,0.2-0.4,0.1-0.6C30.5,18.9,30.1,17.2,29.6,15.4z"/>
			<path class="st11" d="M26.8,10.4c-0.5-0.6-1.1-1.2-1.8-1.7c-0.6-0.3-1.2-0.6-2-0.6c-0.4,0-0.8,0-1.2,0.2
				c-0.6,0.2-1.1,0.5-1.6,0.9c-0.4,0.3-0.9,0.7-1.2,1.1c-0.1,0.1,0,0.2,0.1,0.2l2.4,0.5l0.3,0.8L20,12c-0.1,0-0.2,0.1-0.1,0.2
				l2.1,6.6l0.2-8c0-0.3,0.3-0.6,0.7-0.6h0.1c0.4,0,0.7,0.3,0.7,0.6l0.1,8l2.2-6.6c0-0.1,0-0.2-0.1-0.2l-1.9-0.2l0.4-0.9l2.5-0.5
				C26.8,10.6,26.9,10.4,26.8,10.4z"/>
			<ellipse class="st12" cx="19.6" cy="15.8" rx="0.4" ry="0.4"/>
			<ellipse class="st12" cx="20.1" cy="18.6" rx="0.4" ry="0.4"/>
			<ellipse class="st12" cx="20" cy="21.5" rx="0.4" ry="0.4"/>
			<ellipse class="st12" cx="19.2" cy="24.3" rx="0.4" ry="0.4"/>
			<polygon class="st13" points="21.3,12.6 20.4,12.7 20.4,12.6 21.3,12.5 			"/>
			<ellipse class="st12" cx="26.1" cy="15.9" rx="0.4" ry="0.4"/>
			<ellipse class="st12" cx="25.7" cy="18.7" rx="0.4" ry="0.4"/>
			<ellipse class="st12" cx="25.7" cy="21.5" rx="0.4" ry="0.4"/>
			<ellipse class="st12" cx="26.4" cy="24.3" rx="0.4" ry="0.4"/>
			<polygon class="st13" points="24.4,12.6 25.3,12.7 25.4,12.7 24.5,12.5 			"/>
		</g>
	</g>
	<g>
		<polygon class="st14" points="12.8,16.6 12.7,28.6 22.4,34.5 22.4,22.9 		"/>
		<polygon class="st4" points="33.3,16.7 22.4,22.9 22.4,34.5 33.2,28.4 		"/>
		<polygon class="st15" points="8.1,21.6 8.1,21.7 17.2,28.9 22.4,22.9 		"/>
		<polygon class="st5" points="12.8,16.6 8.1,21.6 17.1,28.5 22.3,22.7 		"/>
		<polygon class="st15" points="37.7,22 37.7,22.2 27.3,29.2 22.4,22.9 		"/>
		<polygon class="st5" points="33.3,16.7 37.7,22 27.3,28.8 22.6,22.8 		"/>
	</g>
</g>
</svg>
