<?xml version="1.0" encoding="utf-8"?>
<!-- Generator: Adobe Illustrator 23.0.1, SVG Export Plug-In . SVG Version: 6.00 Build 0)  -->
<svg version="1.1"
	 id="svg4611" inkscape:version="0.92.3 (2405546, 2018-03-11)" sodipodi:docname="nocheck.svg" xmlns:cc="http://creativecommons.org/ns#" xmlns:dc="http://purl.org/dc/elements/1.1/" xmlns:inkscape="http://www.inkscape.org/namespaces/inkscape" xmlns:rdf="http://www.w3.org/1999/02/22-rdf-syntax-ns#" xmlns:sodipodi="http://sodipodi.sourceforge.net/DTD/sodipodi-0.dtd" xmlns:svg="http://www.w3.org/2000/svg"
	 xmlns="http://www.w3.org/2000/svg" xmlns:xlink="http://www.w3.org/1999/xlink" x="0px" y="0px" viewBox="0 0 23.9 23.9"
	 style="enable-background:new 0 0 23.9 23.9;" xml:space="preserve">
<style type="text/css">
	.st0{fill:#231F20;}
</style>
<sodipodi:namedview  bordercolor="#666666" borderopacity="1.0" id="base" inkscape:current-layer="layer1" inkscape:cx="21.315472" inkscape:cy="-0.9429616" inkscape:document-units="mm" inkscape:pageopacity="0.0" inkscape:pageshadow="2" inkscape:window-height="1356" inkscape:window-maximized="1" inkscape:window-width="2560" inkscape:window-x="-8" inkscape:window-y="-8" inkscape:zoom="11.2" pagecolor="#ffffff" showgrid="true">
	<inkscape:grid  id="grid5174" originx="-108.23395" originy="-84.177784" type="xygrid"></inkscape:grid>
</sodipodi:namedview>
<g>
	<g>
		<path class="st0" d="M11.9,23c-6.1,0-11-4.9-11-11s4.9-11,11-11c6.1,0,11,4.9,11,11S18,23,11.9,23z M11.9,2c-5.5,0-10,4.5-10,10
			c0,5.5,4.5,10,10,10s10-4.5,10-10C21.9,6.5,17.4,2,11.9,2z"/>
	</g>
	<g>
		<g>
			<path class="st0" d="M13,17.5c0,0.5-0.4,0.9-0.9,0.9c-0.5,0-0.9-0.4-0.9-0.9c0-0.5,0.4-0.9,0.9-0.9C12.6,16.6,13,17,13,17.5z
				 M12.6,14.5h-0.9L11.5,9v-3h1.4v3L12.6,14.5z"/>
		</g>
	</g>
</g>
</svg>
