<svg id="Layer_1" data-name="Layer 1" xmlns="http://www.w3.org/2000/svg" width="300" height="174.31" viewBox="0 0 300 174.31"><defs><style>.cls-1{fill:#fff;}.cls-2{fill:#fdecb3;}.cls-3,.cls-4,.cls-5{fill:#ffc709;}.cls-4,.cls-5{stroke:#fff;stroke-miterlimit:10;}.cls-5{stroke-width:0.7px;}.cls-6{fill:#c19300;}.cls-7{fill:#ffc400;}.cls-8{fill:#f1f1f1;}</style></defs><title>Small Banner</title><path class="cls-1" d="M264.92,46.65c-.24,0,0,.28-.26.4s-.26.32-.12.4,0,.35,0,.53.18,0,.34-.14.33.08.36-.08-.42-.31-.4-.51.32.06.56-.06a1.1,1.1,0,0,1,1,.24c.3.27.39.16.45-.16s.52-.46,1-.46.51-.22.37-.32.76-.69.74-.85-.48.36-.62.18-.39.1-.69.16-1.25-.72-1.49-1.09-.65-.06-.44.2,0,.35,0,.71-.25.36-.21.6S265.16,46.61,264.92,46.65Z"/><path class="cls-1" d="M264.92,46.65c-.24,0,0,.28-.26.4s-.26.32-.12.4,0,.35,0,.53.18,0,.34-.14.33.08.36-.08-.42-.31-.4-.51.32.06.56-.06a1.1,1.1,0,0,1,1,.24c.3.27.39.16.45-.16s.52-.46,1-.46.51-.22.37-.32.76-.69.74-.85-.48.36-.62.18-.39.1-.69.16-1.25-.72-1.49-1.09-.65-.06-.44.2,0,.35,0,.71-.25.36-.21.6S265.16,46.61,264.92,46.65Z"/><path class="cls-1" d="M261.33,52.69c0-.18-.36-.07-.83.11s-.74-.21-1,.06-.71.72-1.05.78-.15.48,0,.41.62,0,.74-.19a3.81,3.81,0,0,1,1.72-.42c.6,0,.24.28.28.61s.54.26.81,0,.46-.29.24-.47,0-.34.2-.1a.56.56,0,0,0,.87-.06c.2-.32.26.06.5,0s.38-.62.4-.4.41.16.65-.1,0-.73.18-1a1.22,1.22,0,0,0,.16-1.05c-.16-.3.36-.5.63-.75s-.31-1.45-.33-1.81-.66.14-.86.24-.35.73-.12.91-.37.52-.35.91-.36.38-.42.66-.28.22-.62.49-.53,0-.45-.23-.52.11-.5.55-.57.48-.43.68S261.31,52.88,261.33,52.69Z"/><path class="cls-1" d="M261.33,52.69c0-.18-.36-.07-.83.11s-.74-.21-1,.06-.71.72-1.05.78-.15.48,0,.41.62,0,.74-.19a3.81,3.81,0,0,1,1.72-.42c.6,0,.24.28.28.61s.54.26.81,0,.46-.29.24-.47,0-.34.2-.1a.56.56,0,0,0,.87-.06c.2-.32.26.06.5,0s.38-.62.4-.4.41.16.65-.1,0-.73.18-1a1.22,1.22,0,0,0,.16-1.05c-.16-.3.36-.5.63-.75s-.31-1.45-.33-1.81-.66.14-.86.24-.35.73-.12.91-.37.52-.35.91-.36.38-.42.66-.28.22-.62.49-.53,0-.45-.23-.52.11-.5.55-.57.48-.43.68S261.31,52.88,261.33,52.69Z"/><path class="cls-1" d="M257.72,54.41c-.3.22-.4.26-.28.48s.3,0,.38-.2.29.32.1.69,0,.87.27.82.46-.76.76-1.15-.14-.24-.14-.44-.44-.16-.46-.34S258,54.19,257.72,54.41Z"/><path class="cls-1" d="M257.72,54.41c-.3.22-.4.26-.28.48s.3,0,.38-.2.29.32.1.69,0,.87.27.82.46-.76.76-1.15-.14-.24-.14-.44-.44-.16-.46-.34S258,54.19,257.72,54.41Z"/><path class="cls-1" d="M259.84,54.73a.42.42,0,0,1,.58-.22c.21.1.47-.3.47-.61s-.61-.3-.69-.08-.32.13-.64.19-.34.83-.1.9S259.78,55,259.84,54.73Z"/><path class="cls-1" d="M259.84,54.73a.42.42,0,0,1,.58-.22c.21.1.47-.3.47-.61s-.61-.3-.69-.08-.32.13-.64.19-.34.83-.1.9S259.78,55,259.84,54.73Z"/><path class="cls-1" d="M244.17,65.22c0-.25.42-.63.37-.81s-.59-.06-.85-.06-.93.38-.67.93S244.15,65.46,244.17,65.22Z"/><path class="cls-1" d="M244.17,65.22c0-.25.42-.63.37-.81s-.59-.06-.85-.06-.93.38-.67.93S244.15,65.46,244.17,65.22Z"/><path class="cls-1" d="M251.25,62.78c.2-.15,1-1.88.85-2.12s-1,.14-1.21,1S251.18,62.82,251.25,62.78Z"/><path class="cls-1" d="M251.25,62.78c.2-.15,1-1.88.85-2.12s-1,.14-1.21,1S251.18,62.82,251.25,62.78Z"/><path class="cls-1" d="M252.1,70.07c-.31.06-.2,1,0,.93s.34,0,.36-.2.24.36.06.54-.18.69.1.75.81-.91.73-1.09-.33.12-.26-.12S252.4,70,252.1,70.07Z"/><path class="cls-1" d="M252.1,70.07c-.31.06-.2,1,0,.93s.34,0,.36-.2.24.36.06.54-.18.69.1.75.81-.91.73-1.09-.33.12-.26-.12S252.4,70,252.1,70.07Z"/><path class="cls-1" d="M254.52,71.81c.18.3-.35.06-.39.36s-.42.06-.4.3-.4,0-.6-.14-.49.39-.79.47-.46.72-.26.7.36-.34.6-.32.16-.24.51-.18.1,1.09.56,1.17.48.36.71.36,0-.65,0-.87.48,0,.72-.3-.16-1-.16-1.51S254.33,71.51,254.52,71.81Z"/><path class="cls-1" d="M254.52,71.81c.18.3-.35.06-.39.36s-.42.06-.4.3-.4,0-.6-.14-.49.39-.79.47-.46.72-.26.7.36-.34.6-.32.16-.24.51-.18.1,1.09.56,1.17.48.36.71.36,0-.65,0-.87.48,0,.72-.3-.16-1-.16-1.51S254.33,71.51,254.52,71.81Z"/><path class="cls-1" d="M251,69.05c.06.28.2.86.64.72S251,68.84,251,69.05Z"/><path class="cls-1" d="M251,69.05c.06.28.2.86.64.72S251,68.84,251,69.05Z"/><path class="cls-1" d="M253.85,71.47c-.16-.21-.56.17-.5.32S254,71.67,253.85,71.47Z"/><path class="cls-1" d="M253.85,71.47c-.16-.21-.56.17-.5.32S254,71.67,253.85,71.47Z"/><path class="cls-1" d="M250.62,67c-.06.18,0,.93.19.93s.28.2.18.52.3.36.68.22.25.27.63.21.91.42.83.6,0,.77.2.6.46,0,.28.31.28.52.34.84.26.06.22-.18,0-.22.31-.4,0-.49-.18-.83-.77-.22-.77-.54-.44-.43-.47-.61-.6-.36-.94-.16-.1-.36-.35-.62.19-.65.47-1-.08-.87,0-1.11,0-.32-.12-.24-.73-.24-1-.08,0,1.49-.14,1.59S250.67,66.85,250.62,67Z"/><path class="cls-1" d="M250.62,67c-.06.18,0,.93.19.93s.28.2.18.52.3.36.68.22.25.27.63.21.91.42.83.6,0,.77.2.6.46,0,.28.31.28.52.34.84.26.06.22-.18,0-.22.31-.4,0-.49-.18-.83-.77-.22-.77-.54-.44-.43-.47-.61-.6-.36-.94-.16-.1-.36-.35-.62.19-.65.47-1-.08-.87,0-1.11,0-.32-.12-.24-.73-.24-1-.08,0,1.49-.14,1.59S250.67,66.85,250.62,67Z"/><path class="cls-1" d="M249.76,71.38c-.28.37-1,1-.87,1.13s.87-.88,1.23-1.15a.48.48,0,0,0,.18-.72C250.18,70.4,250,71,249.76,71.38Z"/><path class="cls-1" d="M249.76,71.38c-.28.37-1,1-.87,1.13s.87-.88,1.23-1.15a.48.48,0,0,0,.18-.72C250.18,70.4,250,71,249.76,71.38Z"/><path class="cls-1" d="M272.94,80.94c.41.38.19.71.43.65s.1-.49-.22-.69S272.54,80.56,272.94,80.94Z"/><path class="cls-1" d="M272.94,80.94c.41.38.19.71.43.65s.1-.49-.22-.69S272.54,80.56,272.94,80.94Z"/><path class="cls-1" d="M269.5,83c.36,0,.42-.18.14-.45s-1.31-.36-1.35-.74-1.88-1.29-2.68-1.47l-.51-.15a20.23,20.23,0,0,0-2.34-.82c-.3,0-.34.54-.6.54s-.63.55-1.11.71-.51-1.39-.73-1.69-1.43-.55-1.55-.21-.54.16-.58.45.1.18.36.18.26.2.38.46.85.08,1.09.06.28.32-.06.2-.34.17-.58.1-.57,0-.41.11.43.28.43.6.46.26.46,0,.24.08.7.2.15.3.61.32a5,5,0,0,1,1.91.67c.41.3.13.5.39.79s.34.6,0,.6-.75.36-.65.55,1.29-.09,1.58-.09.37.33.72.57a1.32,1.32,0,0,0,.73.24c.88,0,.66-.46.82-.46s.23-.28.41-.51,1,0,1.43.33,1,1.43,1.49,1.33,1,.28,1.43.26,0-.36-.1-.42-.5-.31-.48-.47-.41-.14-.69-.32-.18-.77-.48-.91S269.13,83,269.5,83Z"/><path class="cls-1" d="M269.5,83c.36,0,.42-.18.14-.45s-1.31-.36-1.35-.74-1.88-1.29-2.68-1.47l-.51-.15a20.23,20.23,0,0,0-2.34-.82c-.3,0-.34.54-.6.54s-.63.55-1.11.71-.51-1.39-.73-1.69-1.43-.55-1.55-.21-.54.16-.58.45.1.18.36.18.26.2.38.46.85.08,1.09.06.28.32-.06.2-.34.17-.58.1-.57,0-.41.11.43.28.43.6.46.26.46,0,.24.08.7.2.15.3.61.32a5,5,0,0,1,1.91.67c.41.3.13.5.39.79s.34.6,0,.6-.75.36-.65.55,1.29-.09,1.58-.09.37.33.72.57a1.32,1.32,0,0,0,.73.24c.88,0,.66-.46.82-.46s.23-.28.41-.51,1,0,1.43.33,1,1.43,1.49,1.33,1,.28,1.43.26,0-.36-.1-.42-.5-.31-.48-.47-.41-.14-.69-.32-.18-.77-.48-.91S269.13,83,269.5,83Z"/><path class="cls-1" d="M272.46,81.67c0,.18-.32.28-.83.48s-1.42-.23-1.45.06.57.51,1.11.51A2.15,2.15,0,0,0,272.7,82c0-.16.34-.44.2-.61S272.46,81.49,272.46,81.67Z"/><path class="cls-1" d="M272.46,81.67c0,.18-.32.28-.83.48s-1.42-.23-1.45.06.57.51,1.11.51A2.15,2.15,0,0,0,272.7,82c0-.16.34-.44.2-.61S272.46,81.49,272.46,81.67Z"/><path class="cls-1" d="M279.23,85.52c0,.08.43.44.62.31S279.18,85.39,279.23,85.52Z"/><path class="cls-1" d="M279.23,85.52c0,.08.43.44.62.31S279.18,85.39,279.23,85.52Z"/><path class="cls-1" d="M275.85,83c0,.07.47.54.57.47S275.87,82.86,275.85,83Z"/><path class="cls-1" d="M275.85,83c0,.07.47.54.57.47S275.87,82.86,275.85,83Z"/><path class="cls-1" d="M278.11,84.21c.17-.11-.93-.71-.95-.52S278,84.31,278.11,84.21Z"/><path class="cls-1" d="M278.11,84.21c.17-.11-.93-.71-.95-.52S278,84.31,278.11,84.21Z"/><path class="cls-1" d="M278,84.86a.59.59,0,0,0,.7.38C278.87,85.13,277.93,84.54,278,84.86Z"/><path class="cls-1" d="M278,84.86a.59.59,0,0,0,.7.38C278.87,85.13,277.93,84.54,278,84.86Z"/><path class="cls-1" d="M278.7,84.18c-.15.33.46.9.55.92S278.82,83.92,278.7,84.18Z"/><path class="cls-1" d="M278.7,84.18c-.15.33.46.9.55.92S278.82,83.92,278.7,84.18Z"/><path class="cls-1" d="M274.56,82.15c0,.18.6,1.14.84,1C275.85,82.86,274.6,82,274.56,82.15Z"/><path class="cls-1" d="M274.56,82.15c0,.18.6,1.14.84,1C275.85,82.86,274.6,82,274.56,82.15Z"/><path class="cls-1" d="M257.63,86.49c.15.12.9,0,.87-.21S257.4,86.31,257.63,86.49Z"/><path class="cls-1" d="M257.63,86.49c.15.12.9,0,.87-.21S257.4,86.31,257.63,86.49Z"/><path class="cls-1" d="M208.79,4.15c.49,0,.34-.3.67-.26s.74,0,.58-.19-1.33-.12-1.21,0-1,.11-.93.17S208.31,4.15,208.79,4.15Z"/><path class="cls-1" d="M208.79,4.15c.49,0,.34-.3.67-.26s.74,0,.58-.19-1.33-.12-1.21,0-1,.11-.93.17S208.31,4.15,208.79,4.15Z"/><path class="cls-1" d="M213.81,4.75c.77-.08.75-.5.34-.58s-.46.24-.66.22-1,.13-.81.3S213.43,4.79,213.81,4.75Z"/><path class="cls-1" d="M213.81,4.75c.77-.08.75-.5.34-.58s-.46.24-.66.22-1,.13-.81.3S213.43,4.79,213.81,4.75Z"/><path class="cls-1" d="M212.34,4.85c.14-.18-.26-.18-.3-.36s-1.17-.22-1.11,0-.78.42-.53.62C210.89,5.48,212.2,5,212.34,4.85Z"/><path class="cls-1" d="M212.34,4.85c.14-.18-.26-.18-.3-.36s-1.17-.22-1.11,0-.78.42-.53.62C210.89,5.48,212.2,5,212.34,4.85Z"/><path class="cls-1" d="M208.89,5.24c.06.16-.1.18-.5.18s-.62.23-.41.4a1.79,1.79,0,0,0,1.5-.12c.18-.24.64,0,.72-.28S208.83,5.08,208.89,5.24Z"/><path class="cls-1" d="M208.89,5.24c.06.16-.1.18-.5.18s-.62.23-.41.4a1.79,1.79,0,0,0,1.5-.12c.18-.24.64,0,.72-.28S208.83,5.08,208.89,5.24Z"/><path class="cls-1" d="M209.13,4.53c.06-.42-.64-.08-1.17-.3s-.83-.21-.48.1c.16.14-.9.25-.73.42C207.14,5.14,209.07,5,209.13,4.53Z"/><path class="cls-1" d="M209.13,4.53c.06-.42-.64-.08-1.17-.3s-.83-.21-.48.1c.16.14-.9.25-.73.42C207.14,5.14,209.07,5,209.13,4.53Z"/><path class="cls-1" d="M203.45,4.83c.28.2-.79.14-.93.35s-.76.12-.64.36S203,5.8,203,5.6s.53,0,.55-.2.24-.39.81-.43.56-.24,0-.48S203.17,4.63,203.45,4.83Z"/><path class="cls-1" d="M203.45,4.83c.28.2-.79.14-.93.35s-.76.12-.64.36S203,5.8,203,5.6s.53,0,.55-.2.24-.39.81-.43.56-.24,0-.48S203.17,4.63,203.45,4.83Z"/><path class="cls-1" d="M206.29,5.5c0-.32-1,0-.85.1S206.29,5.82,206.29,5.5Z"/><path class="cls-1" d="M206.29,5.5c0-.32-1,0-.85.1S206.29,5.82,206.29,5.5Z"/><path class="cls-1" d="M201.55,5c.47-.42,1.07,0,1.15-.22s-.86-.26-1.21-.08-1.14,0-1.05.26A.77.77,0,0,0,201.55,5Z"/><path class="cls-1" d="M201.55,5c.47-.42,1.07,0,1.15-.22s-.86-.26-1.21-.08-1.14,0-1.05.26A.77.77,0,0,0,201.55,5Z"/><path class="cls-1" d="M266.09,39.63c.16.36-.22,2.3-.06,2.62s-.26,1.75-.12,1.92.08-.39.44-.45.36.41.59.51.08-.65-.12-.61-.37-.48-.47-.8.2-.71.2-1.11.51-.39.81-.08.34.1.22-.12-.5-1.84-.72-2.42.32-1.15-.09-1.46-.24-.92-.44-.8,0,.66-.32.7,0,.35-.14.75A2.26,2.26,0,0,0,266.09,39.63Z"/><path class="cls-1" d="M266.09,39.63c.16.36-.22,2.3-.06,2.62s-.26,1.75-.12,1.92.08-.39.44-.45.36.41.59.51.08-.65-.12-.61-.37-.48-.47-.8.2-.71.2-1.11.51-.39.81-.08.34.1.22-.12-.5-1.84-.72-2.42.32-1.15-.09-1.46-.24-.92-.44-.8,0,.66-.32.7,0,.35-.14.75A2.26,2.26,0,0,0,266.09,39.63Z"/><path class="cls-1" d="M232.08,4.23c.08-.3-1.26-.17-.91.12C231.29,4.45,232,4.53,232.08,4.23Z"/><path class="cls-1" d="M232.08,4.23c.08-.3-1.26-.17-.91.12C231.29,4.45,232,4.53,232.08,4.23Z"/><path class="cls-1" d="M233.67,6.22c0,.23-.65.45-.46.61s.3.1.5.14.3.54.67.46,1.35.41,1.93.41.65-.49.46-.51,0-.3.31-.76-1-.81-1-.45-.38-.08-.51-.3S233.67,6,233.67,6.22Z"/><path class="cls-1" d="M233.67,6.22c0,.23-.65.45-.46.61s.3.1.5.14.3.54.67.46,1.35.41,1.93.41.65-.49.46-.51,0-.3.31-.76-1-.81-1-.45-.38-.08-.51-.3S233.67,6,233.67,6.22Z"/><path class="cls-1" d="M232.6,5.66c.38.16.24.26-.16.26s-.75.14-.48.24.18.31.6.41.85-.25.81-.49,1.47-.46,1.87-.56S235,5,235.42,5s.27-.24-.28-.32-.32-.54-.5-.7-.28.2-1,.34-1.05.32-.77.46,0,.49-.3.47S232.22,5.5,232.6,5.66Z"/><path class="cls-1" d="M232.6,5.66c.38.16.24.26-.16.26s-.75.14-.48.24.18.31.6.41.85-.25.81-.49,1.47-.46,1.87-.56S235,5,235.42,5s.27-.24-.28-.32-.32-.54-.5-.7-.28.2-1,.34-1.05.32-.77.46,0,.49-.3.47S232.22,5.5,232.6,5.66Z"/><path class="cls-1" d="M236.8,9.07c.28.16,1.18-.2,1.79-.18s2.3-.47,2.36-.79-.63-.3-.89-.59-.85,0-1,.21-.3,0,.08-.37-.38-.68-.4-.44-.73,0-.73.26-.26.32-.24.55-.48-.12-.5.38S236.5,8.9,236.8,9.07Z"/><path class="cls-1" d="M236.8,9.07c.28.16,1.18-.2,1.79-.18s2.3-.47,2.36-.79-.63-.3-.89-.59-.85,0-1,.21-.3,0,.08-.37-.38-.68-.4-.44-.73,0-.73.26-.26.32-.24.55-.48-.12-.5.38S236.5,8.9,236.8,9.07Z"/><path class="cls-1" d="M253,84.19c.37,0,.77-.12.23-.2s-.91.32-1.46.12-1.35,0-1.27.18.57.18,1.11.2A8.45,8.45,0,0,0,253,84.19Z"/><path class="cls-1" d="M253,84.19c.37,0,.77-.12.23-.2s-.91.32-1.46.12-1.35,0-1.27.18.57.18,1.11.2A8.45,8.45,0,0,0,253,84.19Z"/><path class="cls-1" d="M253.17,85.42c.26.14.63-.23.85-.49a.47.47,0,0,0,.09-.12l.07-.06.07,0c.39-.24,1.38-.53,1.44-.66s-.61,0-1,0-.38.21-.59.37l-.06,0a.63.63,0,0,1-.22.09h-.09l-.16,0-.07,0C253.1,84.81,252.9,85.27,253.17,85.42Z"/><path class="cls-1" d="M253.17,85.42c.26.14.63-.23.85-.49a.47.47,0,0,0,.09-.12l.07-.06.07,0c.39-.24,1.38-.53,1.44-.66s-.61,0-1,0-.38.21-.59.37l-.06,0a.63.63,0,0,1-.22.09h-.09l-.16,0-.07,0C253.1,84.81,252.9,85.27,253.17,85.42Z"/><path class="cls-1" d="M256.29,77.37c0-.14-.14-.7-.46-.26s.1,1.54.36,1.49-.18-.58.26-.54.24-.22.24-.51S256.29,77.51,256.29,77.37Z"/><path class="cls-1" d="M256.29,77.37c0-.14-.14-.7-.46-.26s.1,1.54.36,1.49-.18-.58.26-.54.24-.22.24-.51S256.29,77.51,256.29,77.37Z"/><path class="cls-1" d="M250.38,78.76c-.18.1-.18.73-.54,1.31s.12.67.42.69.26.46.2.73-.18.88.09.78.52-.52.34-.66-.16-1-.08-1.25.62-.06.44.28.34.3.34.68.31.19.63.08.26-.28,0-.52.16-.58-.14-.79-.51-.5-.22-.56,1.12-.54,1-.75-1.29,0-1.39.41-.94,0-.84-.67,1.77-.72,2.25-.5,1-.37,1.19-.71-.38.06-.72.28-1.25,0-1.72-.18-.44.28-.82.35S250.56,78.66,250.38,78.76Z"/><path class="cls-1" d="M250.38,78.76c-.18.1-.18.73-.54,1.31s.12.67.42.69.26.46.2.73-.18.88.09.78.52-.52.34-.66-.16-1-.08-1.25.62-.06.44.28.34.3.34.68.31.19.63.08.26-.28,0-.52.16-.58-.14-.79-.51-.5-.22-.56,1.12-.54,1-.75-1.29,0-1.39.41-.94,0-.84-.67,1.77-.72,2.25-.5,1-.37,1.19-.71-.38.06-.72.28-1.25,0-1.72-.18-.44.28-.82.35S250.56,78.66,250.38,78.76Z"/><path class="cls-1" d="M256.19,80.54c.08.24.5.14.93.14s.64.3.86.3.06-.52-.46-.68S256.1,80.27,256.19,80.54Z"/><path class="cls-1" d="M256.19,80.54c.08.24.5.14.93.14s.64.3.86.3.06-.52-.46-.68S256.1,80.27,256.19,80.54Z"/><path class="cls-1" d="M254.8,80.58c.08.32.66.5.83.22S254.71,80.2,254.8,80.58Z"/><path class="cls-1" d="M254.8,80.58c.08.32.66.5.83.22S254.71,80.2,254.8,80.58Z"/><path class="cls-1" d="M248.93,84c-.08.18-.42.22-.62.08s-.45.19-.33.36a.88.88,0,0,0,1,.16c.51-.24.85,0,1-.28S249,83.76,248.93,84Z"/><path class="cls-1" d="M248.93,84c-.08.18-.42.22-.62.08s-.45.19-.33.36a.88.88,0,0,0,1,.16c.51-.24.85,0,1-.28S249,83.76,248.93,84Z"/><path class="cls-1" d="M241.05,81.28a4.13,4.13,0,0,1,.1-.7c0-.14.1-.2.28-.16s.16-.39,0-.43-.22-.54-.56-.54-.28.28-.08.3.32.18.26.32-.14-.14-.42-.12-.11-.34-.43-.36-.26-.6-.6-.6-.37-.29-.14-.49-.35-.38-.35-.62-.36-.1-.36-.31-.16-.1-.34-.34-.26,0-.43-.2-.38-.28-.52-.22-.46-.26-.58-.59-1-.68-1.15-1-.45-.49-1-.47-.76-.53-.89-.26.59,1.11.93,1.31.52.93.93,1,.44,1.31.74,1.37.95,1,1.05,1.57.77.79,1,1.17,1.11.91,1.23,1.07.24.52.34.34.53,0,.73,0S241.07,81.57,241.05,81.28Z"/><path class="cls-1" d="M241.05,81.28a4.13,4.13,0,0,1,.1-.7c0-.14.1-.2.28-.16s.16-.39,0-.43-.22-.54-.56-.54-.28.28-.08.3.32.18.26.32-.14-.14-.42-.12-.11-.34-.43-.36-.26-.6-.6-.6-.37-.29-.14-.49-.35-.38-.35-.62-.36-.1-.36-.31-.16-.1-.34-.34-.26,0-.43-.2-.38-.28-.52-.22-.46-.26-.58-.59-1-.68-1.15-1-.45-.49-1-.47-.76-.53-.89-.26.59,1.11.93,1.31.52.93.93,1,.44,1.31.74,1.37.95,1,1.05,1.57.77.79,1,1.17,1.11.91,1.23,1.07.24.52.34.34.53,0,.73,0S241.07,81.57,241.05,81.28Z"/><path class="cls-1" d="M246.77,84.17c.15-.2.41.32.81,0s-.66-.18-.68-.43-.81,0-1.19-.18.42-.3.68-.46-.16-.22-.8,0-1.4-.45-1.42-.16-1.17-.12-1.45-.33-1.37-.46-1.59-.08-.41,0-.32.41.32.1.5.1.1.34.36.38,1.13.28,1.21.1.89,0,1.29.32a2.69,2.69,0,0,0,1.7.29C246.23,84.07,246.63,84.37,246.77,84.17Z"/><path class="cls-1" d="M246.77,84.17c.15-.2.41.32.81,0s-.66-.18-.68-.43-.81,0-1.19-.18.42-.3.68-.46-.16-.22-.8,0-1.4-.45-1.42-.16-1.17-.12-1.45-.33-1.37-.46-1.59-.08-.41,0-.32.41.32.1.5.1.1.34.36.38,1.13.28,1.21.1.89,0,1.29.32a2.69,2.69,0,0,0,1.7.29C246.23,84.07,246.63,84.37,246.77,84.17Z"/><path class="cls-1" d="M250.55,85.24c.14.12.64.38.64,0s-1.38-.55-1.25-.35S250.4,85.11,250.55,85.24Z"/><path class="cls-1" d="M250.55,85.24c.14.12.64.38.64,0s-1.38-.55-1.25-.35S250.4,85.11,250.55,85.24Z"/><path class="cls-1" d="M243,77.86c.31.28.23.72.37.94s.58.27.58.69.38,1.09.65.91.46.08.54.26.71-.14.91-.1.83.16.87.4.6,0,1-.16.17-1.29.53-1.51a1,1,0,0,0,.4-1.05c0-.4.89-.42,1-.59s-.2-.42-.46-.54-.05-.38-.23-.54S248.69,76,249,76s-.18-.38,0-.5l.1,0c.24-.12.58-.28.43-.42s.54,0,.62-.26-.28-.44-.46-.4-.61,0-.61-.16-.38-.53-.62-.53-.53.49-.55.69-.4.18-.36.46c0,.11-.06.16-.15.19s-.33,0-.33.15v.18c-.26-.14-.48-.25-.48-.26h0c-.16,0-.52.57-.6,1s-.45.26-1,.3-.32.61-.44.87-.71-.19-1-.25h-.08C243.19,76.93,242.75,77.62,243,77.86Z"/><path class="cls-1" d="M243,77.86c.31.28.23.72.37.94s.58.27.58.69.38,1.09.65.91.46.08.54.26.71-.14.91-.1.83.16.87.4.6,0,1-.16.17-1.29.53-1.51a1,1,0,0,0,.4-1.05c0-.4.89-.42,1-.59s-.2-.42-.46-.54-.05-.38-.23-.54S248.69,76,249,76s-.18-.38,0-.5l.1,0c.24-.12.58-.28.43-.42s.54,0,.62-.26-.28-.44-.46-.4-.61,0-.61-.16-.38-.53-.62-.53-.53.49-.55.69-.4.18-.36.46c0,.11-.06.16-.15.19s-.33,0-.33.15v.18c-.26-.14-.48-.25-.48-.26h0c-.16,0-.52.57-.6,1s-.45.26-1,.3-.32.61-.44.87-.71-.19-1-.25h-.08C243.19,76.93,242.75,77.62,243,77.86Z"/><polygon class="cls-1" points="202.82 86.48 202.58 86.69 202.48 87.17 202.08 87.47 201.73 87.47 201.74 87.78 201.73 88.49 201.21 88.56 200.26 89.05 199.4 89.21 199.24 89.46 199.11 90.11 199.01 90.47 199.19 91.34 199.34 92.16 199.03 92.73 198.67 93.51 199.22 95.66 199.97 96.03 200.42 95.96 201.13 95.7 202.86 90.17 202.99 89.41 202.99 88.84 203.36 89.15 203.57 88.91 203.53 88.54 203.32 87.75 203.26 87.37 203.06 86.81 202.82 86.48"/><polygon class="cls-1" points="224.25 71.61 223.97 73.16 224.31 74.17 225.36 73.2 224.25 71.61"/><polygon class="cls-1" points="245.86 96.55 246.56 98.09 246.97 98.83 247.13 99.37 247.13 99.74 247.74 100.93 247.63 101.41 247.57 102.15 247.36 102.37 247.19 102.4 247.1 102.66 247.37 102.85 247.87 103.29 249.2 103.43 249.7 103.07 250.15 102.96 250.37 102.68 250.91 102.54 252.71 102.55 253.05 102.44 253.29 102.23 253.39 102.05 254.05 101.68 254.62 101.36 255.88 101.27 256.82 100.9 257.6 100.78 258.26 100.72 259.09 101.13 259.89 101.23 260.29 101.43 260.41 102.03 260.94 102.43 261.07 102.73 261.28 103.36 261.66 102.99 261.89 102.78 262.34 102.47 262.53 102.01 262.73 101.84 262.92 101.87 262.45 103.26 262.21 103.36 262.73 103.5 262.92 102.96 263.22 103.11 263.22 103.61 263.13 103.86 263.63 103.83 264 104.13 264.19 104.56 264.19 105.31 264.57 105.65 265.05 105.94 266.09 106.16 266.64 106.44 267.2 106.33 267.55 105.65 267.77 105.81 267.91 106.25 268.09 106.12 268.54 106.53 268.77 106.69 268.79 106.24 269.43 106.09 269.88 105.76 271.14 105.59 271.37 104.21 271.75 103.53 272.03 102.68 272.4 101.62 272.97 101.41 272.97 100.84 273.38 100.28 273.38 99.03 273.71 98.52 273.65 98.12 273.49 97.62 273.49 96.23 273.29 96.35 272.9 95.99 272.6 95.43 272.31 95.31 271.98 94.99 271.75 94.78 271.71 94.09 271.46 94.05 271.07 94.08 270.88 93.38 270.48 92.95 270.42 92.61 268.85 91.69 268.68 91.22 268.53 90.69 268.46 90.19 268.11 89.68 268.01 88.85 267.88 88.58 267.56 88.31 267.03 88.32 266.81 88.02 266.79 87.17 266.5 86.55 266.17 85.72 265.84 85.89 265.73 86.22 265.56 86.76 265.65 87.4 265.47 87.52 265.43 89.4 265.2 89.77 264.63 90.57 264.03 90.5 263.65 90.03 263.19 89.94 262.31 89.31 261.83 89.17 261.38 88.65 261.58 88.14 261.5 87.75 261.94 87.43 262.16 86.97 262.23 86.74 262.01 86.64 261.75 86.91 261.5 86.55 260.98 86.76 259.65 86.35 259.02 85.96 259.27 86.41 258.98 86.7 258.5 86.76 258.23 86.73 258.04 86.93 257.28 88.05 257.44 88.88 256.96 88.7 256.64 88.53 256.52 88.73 256.19 88.38 255.92 88.26 255.34 87.84 254.95 88.06 254.74 88.38 254.21 88.4 254.09 88.7 253.77 88.92 253.63 89.59 253.13 89.55 253.47 90.23 253.03 90.41 252.76 89.89 252.44 89.95 251.97 90.5 252.2 90.97 251.5 91.64 250.99 92.26 250 92.27 249.35 92.48 248.95 92.77 248.35 92.7 247.89 92.96 246.85 93.56 246.68 93.93 246.6 93.51 246.25 94 246.29 94.78 246.02 95.31 246.56 96.77 246.35 96.91 245.86 96.55"/><path class="cls-1" d="M298.63,24.25l-.47-.4-.56-.25-.38,0-.31-.16-.39-.1-.5.09.33.44-.12.31-.51-.38,0-.51L295.5,23l-.86-.57-1.3-.57-.16-.14-.92-.38-.39-.29-.94-.43-.9-.2-.46-.25h-.95l-.85-.2-.43.25-1.57-.37-.23.44.5.77-.22.37h-.69l-.51-.41-.52-.31v-.39l.64.26.11-.39-.79-.21-.8.64-1.71-.19-2.05.12-.14.63-.31-.78-.76-.2v-.26l.11-.18-.24-.47L277,18.67h-1.77l-1,.16H273v-.31l-.46-.25h-.39l-.27.1v-.21l-.37-.21-.48-.07-.07-.22.55,0v-.22l-.41-.2L269.89,17h-.63l-.4.67-.25.15-.4,0-.07-.17.53-.34-.45-.13-.32-.1.19-.2.76.08.12-.06-.88-.25-1-.17-1.06-.05-.67-.2-.15,0v.3l-.25.21h-.6L264,17l.13.3.42-.08-.18.36.16.16,0,.31-.4.09-.31-.17-.83.13.38.26-.45,0-.33-.28-1-.18-.37.13-.67.11-.61-.23-.36-.32-.56.85-.43.53-.85-.37-.59-.68-.34-.45-.29-.25.16-.11.27.24.34-.07.09-.22-.43-.32.18-.19-.14-.48-.33-.3-.27-.26-.52-.1-.39.11-.25.21v-.23l-.77-.21-.61-.46-.32.34-.13,0-.24.21.08.43-.14.38-.33-.1-.32.07-.38,0-.87-.1-.46-.15-.56.06-.4-.19.28-.32-1.87-.32-1.72.23-.09.36-.17,0v-.81l-.22-.06-.08.18-.39.1-.37-.15-.62-.3h-.4l-.32.17-.13.26.41.11-.83.24-.15.12-.89.24-.79.14-.46.28.06-.37.36-.38.39-.07.22-.27.9-.14.19-.22.75-.38.09-.22.58-.22.65-.15.23-.33,1-.45.14-.28-.3-.24,0-.09.37,0,.07-.19-.31-.08-.05-.42-.36,0-.16-.62-.51.07-1.08-.28-.06.08-.36-.12-.24.06-.6,0-.3,0-.14.2-.59.12-.36,0,.59-.64-.57,0-.55,0-.15-.07-.66,0-.15,0,.43-.11.39-.17.33-.1L241,9.73l-.29,0-.85-.21-.78.17-.37.11-.4.4-.19.13-.35.31,0,.23.11.06,0,.23-.06.11h-.92l-.44.16.38.27v.1l-.58-.17-.32,0-.14.13-.21.12-.24,0-.34,0-.16-.07.25-.23-.08-.13-.47.1-.18.16-.37-.12-.55.24-.31,0-.24.06.42.28-1.06.13-.17.11-1,.08-.26.22-.27.08-.45.14-.29.24-.32-.07-.2,0-.12.07.12.11-.05.12H229l-.15.16.17.05v.19l-.09,0-.27-.06h-.22l.13.18.24,0,.24.08.06.15-.51,0,.33.2,0,.07.24.22L229,15l-.06.12-.13-.06-.43-.1-.41.24-.22,0H227l-1.17.13-.91.13-.18.36.2.39-.09.32.62.41L226,17l.26.23,0,.34-.22.15-.65-.23-.55-.36-.78-.23-.68-.06-.19-.2h-.37l-.34.27.42.07,0,.17.44.17.08.16-.72-.11-.33-.09-.4.24.45.55.78.25.16.17.25.17-.22.11-.94-.44h-.75l-.26-.07v-.37l-.2-.22.28-.45.1-.43-.23-.43H221l.06.32-.2.6-.77.35-.12.21-.22.19.73.92,0,.26-.39.85,0,.32v.52h.56l.79-.19.64.24.74.37.18.54-.31.32v.22l.75.41-.77-.06-.31-.44.1-.67-.7-.54-1.05.29.14,1.06-.61.61v.23l-1,.57-.24.42-.62-.18-.69.1-.41-.19-.28,0-.29-.09.12-.34.17,0,.29.23.37-.17.31.26.19-.16h.34l-.07-.24.35-.15.08-.31.13-.05.08-.21.44-.24.15-.18-.05-.26.11-.36.19-.13-.6-.6-.12-.69.11-.38-.1-.48.24-.58,0-.27L219,18.1,218.9,18l.43-.4.14-.32.08-.77-.79-.29H218l-.73,0-.88,1.63-.86.48-.18.31.16.29h.25l-.08.54,0,.32-.2.2,0,.27.88.35.28.56.36.15-.06.43-.37.25-.82-.66-.49-.21-.91-.38-.61-.25-.75-.31L211,20l-.26-.28-.63-.32-.39,0,0,.36.34.17.21.15.55.11.12.44.31.42,0,.24-.38.07-.28.07v.3l-.22,0-.34-.16.19-.29L209.7,21l-.92.51-.7,0-.57.08L207,22h-.57l-.44-.14,0-.11.51,0-.12-.25.22-.37-.92.27-.13.39h-.09l-.22-.19-1.38.34-.29.22-.5.24-.11.13-.68.17-.13.63-.38.22h-.9l-.3-.39-.25-.17,0-.36.26-.13.44-.16.5.07-.34-.5L201,21.6l-.28-.13h-.52l-.4,0-.55-.13,0,.07.42.31,0,.63-.31.72.39,0,.1.1,0,.31,0,.31-.14.23-.11.22-.24-.07h-.09l-.11-.2-.46-.11-.43,0-.35.33-.62.2-.35.29-.28.26v.21l.31.41.14.38-.43.12-.39-.17-.24-.12-.46,0-.25-.12-.53-.34-.41.38.2.39.3.2.46.09,0,.36-.35.14-.26-.11-.44-.11-.06-.14-.18-.14-.38-.08-.31-.1,0-.38-.12-.27-.14-.49.19-.19-.27-.63-.51-.23-.18-.15-.38-.23-.29-.33-.24-.22.85.39.72.18.69.23,1.07.25,1.09.14,1-.27.9-.63V23l-.15-.47-.35-.22-.4-.31-.33-.07-.31-.26-.29,0-1.6-.9-.79-.2-.23.06-.26-.2-.49.12-.37-.08-.43,0-.15-.17.58-.18-.76-.27-.24.33-.84-.26L190,20l-.17-.24-.36-.29.46.12.38-.23.42-.11-.42-.41-.63-.11-.3-.2-.56.58-.07-.44.2-.11,0-.21-.49-.11-.25.21,0,.22-.42.47,0-.68-1,1-.14-.23.37-.4.34-.33.11-.13-.19-.13-.38.3-.48-.06-.12.26,0,.11-.09.08-.27-.16-.46.5.08.22-.15.17-.18-.26,0-.3.26-.27.15-.23-.19,0-.21.21h-.4l-.15.06,0,.13.32.41h-.81l.39.34-.33,0-.19,0-.17-.2-.29.05.24.24-.06.39L183.5,20l-.09-.26-.3.1-.14-.46-.6.16.08.42-.3,0-.13.28-.32-.18-.3.15-.35.46.43,0,.09.24.06.18h-.12l-.22-.1-.13.14-.4-.2-.27.2.16-.56-.53.42-.31.23-.36.46-.59.27-.25.26,1.47-.63.17.06.24-.12.18-.13.24.1-.06.36,0,.11h-.22l-.18-.18-.22.22-.33.2-.14.41-.25.21-.19.37-.55.64v.18l-.07.26h-.46l0,.49-.13.25.07.35-.43.06-.07.08-.4.07.38.42-.1.17-.11-.08-.76.37-.13.24-.27.14-.2.44-.37-.29-.19.08.14.39-.27.06-.25.16-.54.26.36.18h-.58l-.37.24-.33.16.06.24-.42,0-.18.31.26.34-.08.25.08.11-.24.25.09.22,0,.41.35.11.48-.18.12.21-.35.28-.27-.07-.23.2-.05.41H174l-.17.27-.28.21.54.5,1,.28,1.27-.94.48-.1.17-.49.27.37.17.56.29.5.24.7.35.62.14.51.19.31v.58l.75-.09,0-.33.21-.22.36-.1.42.06.18-.32.24.1.45-.85L181,34v-.48l.23-1.24.72-.34.16-.37.4-.56-.64-.71-.49-.13-.08-.77.25-.67.18-.52.33-.31.19-.44.93-.47,1-.79-.15-.4.34-.81.44-.35.46-.06h.62l.77.46-.1.53h-.21l-.36.65-.49.34-.62.4-.15.28-.47.23-.41.6.12.23.07.47.18.52-.24,1,.64.25.41.22.75.16,1.19-.28,1.22-.22.67-.63-.07.48.43.44.6.13-.53.11-.78.47-.54.05-.65-.12-1.52.26-.42.39.15.43.17.2.44.07-.18.48,0,.62-.66,0-.43-.59-.66.3-.27.55-.17.25.09.43.07,1-.22.37-.11.2-.38-.31-.34.3-.37.2-.32-.43-1.49.43-1.06.36-.2.15-.46-.3.06-.4-.6.17-1,.48-.08-.3-.49-.1-.57-.79.84.06-.24-.42-.32,0,.2-.43.43-.23-.32-.32,0-.47.07-.59h-.26l-.22.49H176l0,.31-.39-.2-.36.73.28,1.13.22.62,0,.19.2.4-.33.46-.47-.26-.51.08-.19.21-.69,0-.24.13,0,.35-.32,0-.14-.07-.18.23-.26.38-.09.34-.5.47-.72.27-.24.07-.17.64-.12.21-.72.17-.31.45h-.43l-.43-.29-.33,0-.06.3.15.28-.06.45-.6,0-.13,0-.28-.22h-.24l-.66.08-.19.31.08.42.91.3.36.09.44.23.28.59.44.26v.72l-.12,1-.29.78-3.74-.15-.55-.2-.41.33-.48.16.29.6v.6l.06.51-.56,1.67.37.34.15.43-.06.72.52.14.55-.11.36,0,.83.78L166,52l.39,0,.28-.15.51-.1.9,0,.3-.22.74-.52,0-.33.51-.53-.09-.43.1-.56.46-.46.25-.42,1.46-.7v-.56l.1-.46.46-.22.86.12.66.21.66-.45.61-.24.69-.42.84.56.58,1,.79.65,1,.56.76.52.46.37.21.73-.17.51.11.35.39-.69.34-.28-.31-.53.13-.31.29-.07.7.29,0-.17-.9-.73-.76-.65h-.2l-.62-.31-.44-.77-1-1V44.8l.73-.44.24.49.53.22.6,1,.55.29.22.23,1.55.72.24.39-.2,1,.55.72.29.23.15.54h.43l.62.23-.73.06.14.57.07.31.48.23.44.24-.12-.69.47,0-.31-.27,0-.17.39.09.3-.11.05-.32-.27-.24-.29,0-.28,0,.22-.36-.55-.76v-.22l.19-.06.42.22.29-.06v-.4l.29-.15.25.17.51-.25.86.41.64-.39.49,0,.15-.33-.24-.14-.4-1,.68-.73.34-.92.36-.4.9-1.2.76-.11.07.44,1.11.17-.91.5.69.31,0,.53,2.12-.55-.69-.18-.55-.55.85-.55L196.1,43l-.85.49.27.39-1,.84,3,2.08.26.7-1.07.65-4.28-.78-1.75.65-1.49.08-.35.52-1.57.63.28.19.08,1.35,1.13.73.67.53,1.19-.51.92.54L193,51.6H194l-.23,1.71L192.54,56l-2.3-.24-1,.4-4.7-1.48-1.52.78.16.61-.52.5-2.41-.87-.22-.55-2.38-.54-1.08-.76.34-.37.33-.36c0-.27,0-.53-.05-.8l0-.69-.72-.32-.8.2-.75-.06-4.2.41-2.39,1.23-2.58-.6L165,53.84l-1,.5L163,55.57v1l-.81,1.12-1.49.91-1.28,1.88L158,63.29l.53,1.87-.49,2.47.2,1.51L160.6,72l.64,1.11,3.19,2,2-.44,1.84.26,3.08-1.15,1.49.12,1,1.28,1.71-.25.81.49-.59,3.38,2.15,2.85.86,2.24.31,2.15-1.42,4.17,1.75,3.73.45,3.33,2.05,3.94-.17.22-.14.28.23.46.14.4.28.18.36.29.29.08.38-.25.24-.16.5.07.24-.13.78-.28.89.19.26-.11.43-.09v-.21l.75,0,.85-.52,1.22-1.25L190.4,99l.48-.54.47-.54.19-1.4-.38-.15.79-.57.94-.39.34-.32,0-.72.05-.51-.19-.88-.28-.6L192.7,92l.25-.06.5-.68L194,91l.33-.5.6-.47.9-.12.65-.68.52-.89-.16-.8-.12-2.34-.39-.3-.07-.33-.18-.33,0-.44-.08-.33.13-.67-.37-.42.9-2.65.5-.22.22-.17L199.6,77l.81-.44,1.34-1.26.78-1.11.3-.75,1-1.74.27-1.23v-.54l-.23-.12-.38.31-1.32.25-.73.07-.36.18-.68.07-.74.3-.42-.09L199,70.5l-.27-.18-.49-.15.1-.18.43-.15.07-.24-1.41-1.52-.61-.28-.28-.26-.29-.28-.34-.7-.14-.54-.7-.8-.34-.56-.08-.87-.23-1-.3-.35-.58-.65,0-.53-1-1.89-.32-.7-.2-.42-.71-1,.13-.57.36.53.34.73.44.51h.24l.19-1,.12.79.79.87c.06.06.53.71.53.71l.06.48.4.73.63.26.12.47.35.4.24,1.46.69.49.57,1,.62.83.05.44.38.55-.2.63.44.73.09,1,1-.05.65-.41.49,0,.5-.26.43-.3.49.09.68-.56,1.68-.47.13-.52.56-.24,1.2-.31H207l-.09-.3.32-.28h.65l.16-.34.29-.29.43-.22v-.33L209,64l.37-.18.19-.21.29-.43.35-.67-.4-.3-.3-.48-.91-.28-.5-.54-.29-1.18L206.66,61l-.74.26-.61,0-.41.21-.32-.23-.09-.43.1-.65-.18-.23-.51.68-.36-.74.05-.15-.2-.42-.66-.64-.27-.62-.33-.86.63-.49.2.11.48,0,.92,1.63.63.2.36.27a6.61,6.61,0,0,1,.76.42,4.32,4.32,0,0,0,.8.18l.73-.42.65.12.24.89,2.71.42.36-.08,1.22.15.18-.23.42.08.29.08.49,0,.32,0,.33-.13.21.29.31.37.14.46.31.16.4.17.63.58.28,0,.41-.16.05.23-.25.22-.7.1.72.83.74.35.56-.32.15-.38-.06-.2.27-.15.14.54.22.36-.19.43.37,2.51.71,1.69.51,1.49.32.42.25.37.26.62v.43l.65,1.07.32,0,.31-.38.64-.63v-.41l.41-.21.08-.88.24-.53.07-.52-.11-.52.1-.71.25-.57.54-.51,1.53-1.09.74-.8.66-.46.57-.62,0-.55.52-.21H230l.45-.12.55-.27.06-.34h.35l.36.93.43.72.6.42.43,1,.16.95-.22.59.66.3.31-.18.47-.48.12-.37.53.76.14.8.22.93.38.51,0,.74.09.66-.19,1.94.32.23.78,1,.16.86.34.9.53.85.85.56,1,.47-.55-1.18.09-1.1-.17-.36-.36-.35-.06-.13-.27-.2-.32-.35-.52-.21-.4-.37-.07-.4-.19-.44-.16-.38-.46-.35.58-2.27,0-.37h.53l.25.54.48,0L239,70v.6l.43.07,0,.36.54,0,.36.33-.19.6.22.33.74-.53.16-.26.18-.37.64-.09.55-.32.58-.54.13-1.17-.22-1-.6-.91-.65-.49-.59-.71-.3-.48,0-.7.48-.59.09-.46.48-.06.29-.29.41-.11,0-.15.24,0,.35.24.35-.25.09.15-.06.26.15.6.14.05.06-.53.73-.34.79-.31.75-.52.38,0,.75-.14.92-.17.2-.45.56-.18,0-.34.68-.29.31-.46.32-.12-.07-.44.17-.09-.1-.33.65-.39.15-.47.43-.25.14-.55.08-.44.33-.24L252,57l-.4-.14-.24-.14.72-.36,0-.16-.51-.26-.47-.39.22-.15.42.26H252l-.75-.71.05-.35-.43-.83-.61-.42v-.53l.47-.2.18-.27.2,0,.22-.39,1.14-.28,0-.13-.43-.31-.36,0-.31-.25-.36.42-.78.19-.21-.31,0-.39-.84-.12-.14-.43.26-.4h.32l.46-.11,0-.47.65-.07.65-.57.36-.27.33.23,0,.44-.42.49.12.17-.25.53.51-.19.67-.54.92-.2.59.18.25.47-.47.47.12.41.35.17,0-.18.48.08.16.09.27.21.16.26-.26.19-.18.08.24.71-.33.52.15.2,0,.39.29,0,.66-.16.51-.49.29-.14.43.07.07-.26-.16-.5-.06-.69-1.39-1.7.14-.4.3,0,1.06-.7.24-.82.76-.74.73-.43.79.44,1.57-1,.74-.85,1.26-1.51.83-1.18.49-.87.19-1.44.27-.86.27-.35v-.33l-.16-.59.2-.12-.25-.34-.41-.34-.18-.27-.94-.11V37l-.27.1-.34.35-.2-.11,0-.24-.07-.43-.42.48-.08-.69-.78,0-.27-.16.1-.28.41-.22.12-.23.75-.4.5-.37.13-.28,1-.87.59-.44.22-.39.66-.44v-.25l.91-.43,1.7,0,.49.15.07-.12.57.11.65-.09.34,0,.29-.33.52-.12.63.3.4-.18.21.2.26.23-.51.18,0,.19.48-.15.63,0,.29-.09h.48l.2-.12.51,0-.48-.45.21-.56,1-.66.5-.3.08-.31.28-.31h.68l.69-.19.21.27.49-.19-.31.77.48.1-.3.31.6-.17.63-.66a4.5,4.5,0,0,0,.88-.38c0-.06-.05-.67-.05-.67l.63-.25.73,0,0,.37-.51,0-.21.4-.11.58.18.15-.38.15-.06.3-.57.18-.47.23-.56.61L278,32.47l-.58.51-.41.18-.12.24-.64,0v.54l-.24.29-.53,1.07v.83l.16,1.64.27.67.06,1,.18.49.51-.41.41-.44.23-.31.06-.54.46-.31.51-.1-.06-.58.17-.33.48-.29.25,0,.57-.1.11-.19-.23-.49.19-.59.29-.24.34,0,.19-.06-.2-.42-.23-.23.24-.57.16-.29-.61,0-.15-.09.07-.61.36-.33.21-.28.23-.46.16-.44.36-.06.36.07.26.12.56-.74.26.08v.6l.64-.36.32-.22.61,0,.93.16.34.4.1-.38,1.76-1,.53-.47,1.08-.31,1.17-.56,0-.21.23.15.32.12.86.1.28-.32-.18-.5-.34-.49,0-.21-.43-.45-.41-.25,0-.21-.44,0-.32-.19.18-.32.49.13.37.33.77-.05.91-.46.19-.35.09-.16-.41-.47.25-.11.25-.22.2-.1.33,0-.26.4.18.29.22.23.55,0,.36-.1.67.27.14.42.38.34.68.25.2.16.24-.12.34.19.37-.08-.3-.38.33.08.07-.33,0-.31-.14-.36.08-.23.9.31L298.2,25l.53.16.07-.32.48-.14Zm-93,24.94,0,.42.5.4v1.58l-1.83.38-.24-.45-.65-.36-.61-.2-.22-.6.12-.41.34-.65.07-.8-1.39-2-.05-.59-.41-.85.81-.82,1.06-.49.68-.46h.75l1,.2.08,1-.67.18-.85.3-.1.39-.34.22.53.44.22.53.48.28.32.34.23.83.4-.59.52.63.33.4-.69.14h-.62ZM211,45.36l-.47.46H210l-.13-1.27-.28,1-.36-.29.32-.88.32-.3h.58l.53.48Z"/><polygon class="cls-1" points="191.39 53.04 191.79 53.27 192.45 52.99 192.45 52.6 192.8 52.42 191.84 52.72 191.39 53.04"/><polygon class="cls-1" points="185.42 52.76 186 52.94 186.42 53.02 187.34 52.74 186.92 52.71 186.06 52.71 185.75 52.54 185.42 52.76"/><polygon class="cls-1" points="180.22 50.61 179.94 51.12 179.94 51.6 179.76 51.71 179.43 51.46 178.28 50.84 178.61 50.61 178.85 50.57 179.25 50.64 179.68 50.57 180.22 50.61"/><polygon class="cls-1" points="176.16 46.61 176.24 47.08 176.2 47.58 176.02 47.88 175.84 47.8 175.63 47.34 175.63 47.15 175.74 46.97 176.16 46.61"/><polygon class="cls-1" points="175.28 48.4 175.62 48.36 175.78 48.28 176.1 48.19 176.34 48.3 176.4 48.53 176.36 48.99 176.35 49.41 176.29 49.64 175.94 49.84 175.82 49.93 175.63 49.96 175.53 49.74 175.54 49.08 175.28 48.4"/><polygon class="cls-1" points="171.39 49.51 171.57 49.27 171.99 49.18 171.96 49.51 171.69 49.62 171.39 49.51"/><polygon class="cls-1" points="166.02 40.56 166.23 40.1 166.52 39.8 166.89 39.49 167.41 39.49 167.64 39.39 167.8 39.19 167.44 39.25 167.07 39.19 166.7 39.07 166.57 38.98 166.37 39.06 166.06 38.88 166.2 38.74 166.79 38.43 166.86 38.28 166.69 38.15 166.45 38.02 166.55 37.84 166.65 37.69 166.7 37.46 166.87 37.48 167.02 37.55 167.56 37.45 167.58 37.04 167.66 36.74 167.54 36.62 167.27 36.46 167.33 36.16 167.37 35.89 167.24 35.89 166.91 36.1 166.6 36.15 166.17 36.05 166.23 35.89 166.43 35.45 166.38 35.16 166.36 34.89 166.28 35.02 166.17 35.31 165.97 35.43 165.81 35.4 165.75 35.17 165.69 35.01 165.2 35.19 165.37 35.03 165.77 34.76 165.6 34.62 165.43 34.54 165.4 34.4 165.72 33.98 165.66 33.9 165.37 33.81 165.12 33.6 165.16 33.49 165.37 33.45 165.58 33.64 165.73 33.63 165.75 33.45 165.76 33.35 166.05 32.99 166.28 32.45 166.47 32.41 167 32.47 167.21 32.4 167.51 32.13 167.53 32.3 167.41 32.53 167.19 32.88 166.9 33.1 166.82 33.29 167.03 33.34 167.25 33.28 167.66 33.25 168.18 33.28 168.39 33.38 168.23 33.95 167.97 34.48 167.51 34.9 167.62 35.01 168.03 34.99 168.24 35.12 168.56 35.29 168.69 35.46 168.82 35.95 169.04 36.24 169.27 36.34 169.54 36.69 169.54 36.98 169.88 37.48 169.89 37.86 170.03 37.99 170.14 37.99 170.22 37.9 170.67 37.93 170.94 38.25 170.81 38.53 170.37 38.91 170.2 39.19 170.32 39.31 170.64 39.33 170.42 39.58 169.95 39.79 169.27 39.8 168.9 39.98 168.42 39.74 168.23 39.94 167.76 39.89 167.35 39.98 167.33 40.07 167.03 40.38 166.78 40.2 166.52 40.28 166.02 40.56"/><polygon class="cls-1" points="164.88 33.19 164.96 32.88 165.33 32.58 165.33 32.8 165.11 33.09 164.88 33.19"/><polygon class="cls-1" points="168.73 30.98 168.7 30.67 168.96 30.26 169.03 30.47 168.91 30.81 168.73 30.98"/><polygon class="cls-1" points="165.25 35.67 165.87 36.34 165.81 36.52 165.56 36.67 165.28 36.84 165.39 37.3 165.46 38.14 165.29 38.53 164.95 38.57 164.68 38.57 164.23 38.8 163.65 39.13 163 39.13 162.59 38.77 162.6 38.64 162.98 38.42 163.08 38.1 163.34 37.88 163.32 37.72 162.85 37.31 162.93 37.14 162.84 36.63 163.29 36.72 163.49 36.73 163.57 36.62 164.08 36.45 164.12 36.33 163.8 36.01 163.91 35.84 164.23 35.81 164.57 35.88 165.25 35.67"/><polygon class="cls-1" points="177.9 34.98 177.58 35.06 177.39 35.31 177.49 35.6 177.71 35.8 177.52 35.98 177.7 36.28 177.9 36.23 178.17 35.85 178.36 34.98 178.13 35.15 177.9 34.98"/><polygon class="cls-1" points="181.95 34.02 182.12 33.31 182.41 33.13 182.37 33.58 182.18 33.84 181.95 34.02"/><polygon class="cls-1" points="184.55 32.93 184.67 32.41 184.82 32.33 185.25 32.46 184.88 32.63 184.55 32.93"/><polygon class="cls-1" points="202.96 21.3 203.45 21.11 203.85 20.86 203.7 20.6 203.25 20.42 202.66 20.53 202.45 20.85 202.58 21.12 202.96 21.3"/><polygon class="cls-1" points="208.87 18.93 207.94 18.1 207.46 17.21 207.46 16.76 207.89 16.47 207.98 15.97 208.25 15.84 208.69 15.18 209.02 15.05 209.02 14.64 209.46 14.56 209.64 14.26 209.64 14.01 210.01 13.91 210.28 13.79 211.09 13.49 211.54 13.1 213.53 12.33 214.98 11.93 216.59 11.3 216.85 10.91 216.74 10.72 216.28 10.59 215.21 10.83 214.64 11.12 214.34 11.26 213.53 11.38 212.91 11.59 212.45 11.6 211.99 11.45 211.3 11.73 210.92 11.8 210.46 11.98 209.94 12.06 209.44 12.37 208.91 12.7 208.78 12.9 208.33 12.9 208.04 13.03 208.25 13.48 207.78 13.8 207.75 13.97 207.58 14.25 207.31 14.48 206.8 14.65 206.69 14.83 207.05 15.1 206.8 15.24 206.74 15.42 206.13 15.72 206.04 15.97 205.51 16.1 205.87 16.53 205.47 16.93 204.77 17.18 204.62 17.37 204.87 17.75 205.3 17.78 205.42 18.28 205.68 18.38 205.72 17.86 206.09 18.07 206.28 18.31 206.23 18.44 206.68 18.86 207.72 19 208.87 18.93"/><polygon class="cls-1" points="217.7 15.96 217.58 15.69 217.86 15.42 218.75 15.72 217.7 15.96"/><polygon class="cls-1" points="223.59 16.26 223.96 15.92 224.11 16.04 224.12 16.26 223.59 16.26"/><polygon class="cls-1" points="245.1 14.43 245.5 14.11 245.71 13.98 246.33 14.23 246.16 14.43 245.71 14.56 245.41 14.56 245.1 14.43"/><polygon class="cls-1" points="265 15.48 265.62 15 266.13 14.95 266.94 15.38 267.02 15.8 266.51 15.8 265.55 15.7 265 15.48"/><polygon class="cls-1" points="268.91 13.2 268.91 12.97 269.17 12.67 269.62 12.93 270.15 12.97 270.49 12.93 270.95 13.22 271.33 13.05 271.97 13.22 272.2 13.44 271.97 13.63 271.11 13.77 270.34 13.74 269.79 13.58 268.91 13.2"/><polygon class="cls-1" points="264.65 14.56 265.2 14.36 265.4 14.47 265.36 14.77 264.99 14.77 264.65 14.56"/><polygon class="cls-1" points="263.15 13.46 262.62 12.96 262.89 12.34 263.6 11.71 263.95 11.63 265.03 12.33 265.26 12.25 265.4 11.96 265.74 11.88 266.23 12.01 267.02 12.25 267.7 12.29 268.03 12.55 268.03 12.79 267.88 12.88 267.76 13.22 267.65 13.46 267.02 13.43 266.63 13.22 266.47 13 266.5 12.67 266.21 12.55 266.15 12.72 266.35 13.46 266.06 13.46 265 13.62 264.65 13.64 264.36 13.5 263.93 13.64 263.35 13.66 263.15 13.46"/><polygon class="cls-1" points="291.41 18.84 291.5 18.48 292.31 18.13 293.06 18.08 293.96 18.46 293.81 18.66 293.12 18.84 292.38 18.82 292.04 18.67 291.7 18.84 291.41 18.84"/><polygon class="cls-1" points="297.9 27.68 298.75 27.41 299.8 27.68 300 27.84 299.73 28.03 299.36 28.03 298.94 27.87 298.6 27.86 297.9 27.68"/><path class="cls-1" d="M267.58,108.05s.15.52.21.7a3.47,3.47,0,0,1,.1.66l.91,1.06.38-.27.15-.35.39.08.2-.74,0-1-1.15.24Z"/><polygon class="cls-1" points="282.71 112.48 282.89 111.74 284.29 110.57 285.63 109.69 286.19 108.73 286.54 108.14 287.2 108.42 287.75 108.25 287.84 108.81 287.59 109.26 286.86 110.34 285.87 111.17 285.52 111.88 285.07 112.66 284.19 113.05 282.71 112.48"/><polygon class="cls-1" points="287.19 103.33 288.17 106.1 287.61 106.72 288.52 107.54 288.32 108.63 288.94 108.72 289.7 107.66 289.91 106.95 290.36 106.8 290.88 105.78 290.21 105.81 289.55 105.75 288.84 104.8 287.19 103.33"/><polygon class="cls-1" points="124.64 120.27 123.33 119.58 122.84 119.17 122.65 118.86 122.51 118.85 122.42 118.69 122.71 118.49 122.33 118.19 121.74 118.19 121.8 117.83 122 117.83 122.45 117.91 122.16 117.43 122.02 116.32 122.51 115.86 122.8 115.72 122.98 115.11 123.41 114.61 124.22 113.95 124.34 113.28 123.49 113.01 123.11 112.44 123.19 111.92 123.82 111.53 124.31 111.42 124.47 111.06 124.66 110.4 124.79 109.97 125.15 109.82 125.11 109.67 125.14 109.4 125.52 109.63 125.84 109.4 125.79 109.1 125.61 109.03 125.32 109.22 124.94 109.04 124.83 108.52 124.75 108.03 124.81 107.89 125.28 107.98 125.84 108.05 126.37 108.09 126.68 107.78 126.6 107.35 126.74 107.13 126.87 106.97 126.71 106.65 126.95 106.38 127.28 106.38 128.21 106.36 129.27 106.12 129.85 105.83 130.18 105.33 130.63 104.74 130.63 104.45 130.34 104.29 130.11 104.07 130.22 103.7 130.21 103.45 129.84 103.29 129.32 103.07 129.36 102.82 129.6 102.78 129.87 102.91 130.28 102.96 130.91 103.19 131.28 103.14 131.76 103.17 132.31 103 132.85 102.36 133.4 101.84 133.68 101.2 133.83 100.7 134.16 100.2 134.25 99.75 134.65 99.6 134.65 99.91 134.17 100.66 134.79 100.18 135.18 99.5 135.55 98.8 136.03 98.44 136.22 98.01 136.21 97.32 136.17 96.63 136.45 95.94 136.84 95.74 137.31 95.29 138.2 94.9 138.82 94.56 139.11 94.28 140.24 94.29 140.85 94.1 140.85 93.78 141.45 93.63 141.45 93.15 141.8 92.7 142.02 92.27 142.02 91.94 142.33 91.71 142.42 91.03 142.57 90.67 142.78 90.51 142.78 89.95 142.93 89.34 142.86 88.03 142.93 87.48 143.09 87.18 142.97 87.06 143.09 86.87 143.51 87 143.72 86.73 144.24 85.66 144.7 85.45 145.23 84.91 145.66 84.1 145.75 83.13 145.57 82.32 145.31 81.73 144.76 81.72 144.22 81.57 143.78 81.29 143.3 80.85 142.6 80.32 141.56 80.18 141.07 80.26 140.1 79.96 139.96 79.91 139.06 80.35 139.2 79.7 138.47 79.11 137.6 78.73 136.87 78.61 136.63 78.84 136.54 79.24 136.32 79.17 136.12 79.37 135.87 79.61 135.77 79.38 136.29 78.77 136.36 78.6 135.67 78.22 134.98 78.23 134.73 78.64 134.54 78.76 134.4 78.53 134.45 78.22 134.85 78.17 135.41 77.36 135.23 76.93 134.58 76.33 134.35 75.32 133.62 74.5 132.91 74.33 132.2 74.08 131.17 74.16 130.86 73.94 130.54 74.06 129.84 73.52 129.54 73.36 129.37 72.89 128.81 72.53 128.24 72.3 127.57 72.28 127.75 71.72 126.74 71.34 126.64 71.03 126.83 70.96 126.56 70.76 124.94 71.26 123.8 70.87 123.28 71.03 122.79 70.85 122.67 70.38 122.44 70.22 122.08 70.19 121.66 69.83 121.46 70.27 121.02 70.43 120.54 70.8 120.83 71.67 120.33 71.85 120.04 71.55 120.34 70.66 120.25 70.19 120.42 70.05 120.74 69.83 120.59 69.63 120.04 69.88 119.55 70.09 119.22 70.34 118.61 70.54 118.61 70.76 118.16 70.51 117.65 71.08 117.65 71.45 117.26 71.85 116.73 72.52 116.58 72.55 116.28 72.2 116.01 71.86 115.51 71.66 115.43 72.03 115.77 72.19 115.63 72.5 115.62 72.73 116.03 73.21 116.39 73.51 116.38 73.96 116.38 74.33 116.33 74.69 116.5 75.39 116.62 75.56 116.05 76.36 115.66 76.49 115.44 76.87 115.31 77.16 115.23 77.39 114.69 77.56 114.61 77.99 114.31 78.4 114.31 78.65 113.93 78.99 114.08 79.36 113.93 79.69 114.47 80.09 114.66 80.11 114.69 80.31 114.36 80.53 113.93 80.83 113.74 81.14 113.99 82.08 113.78 82.26 114.65 82.92 115.38 83.88 116.27 86.04 117.2 87.4 117.13 87.85 117.41 88.34 118.92 89.24 120.36 90.03 120.62 90.44 121.31 91.05 121.39 92.26 121.36 93.42 121.08 94.44 121.35 94.77 121.1 95.11 121.08 96 120.8 97.3 120.63 97.8 120.6 98.21 120.31 98.6 120.57 99.42 120.32 99.92 120.35 100.54 120.31 101.66 120.2 101.86 120.16 102.28 119.96 102.79 119.72 103.67 119.24 104.85 118.92 105.06 118.98 105.47 119.03 105.74 119.01 106.15 119.25 106.69 119.03 107.21 118.89 107.6 118.8 108 118.8 108.4 118.92 108.6 118.74 108.81 118.47 109.41 118.47 109.99 118.77 110 118.92 109.55 118.92 108.9 119.08 108.78 119.41 108.39 119.51 108.78 119.67 108.86 119.56 109.08 119.5 109.66 119.31 110.01 119.34 110.34 119.21 110.64 119.24 110.97 119.41 111.17 119.22 111.26 119.26 111.67 119.23 111.78 118.91 111.86 118.9 112.05 118.99 112.25 118.88 112.37 118.64 112.24 118.53 112.14 118.76 111.77 118.83 111.68 118.82 111.4 118.69 111.23 118.54 111.17 118.41 111.25 118.52 111.43 118.68 111.61 118.65 111.8 118.53 111.81 118.35 111.83 118.33 111.96 118.17 112.07 117.94 112.18 117.91 112.29 117.97 112.51 117.71 112.68 117.58 112.84 117.57 113.01 117.68 113.03 117.72 112.81 117.88 112.75 117.99 112.84 118.09 113.03 118.27 112.99 118.49 112.96 118.57 113.13 118.56 113.28 118.42 113.36 118.3 113.52 118.27 113.77 118.31 113.85 118.5 113.83 118.73 113.79 118.91 113.83 119.08 113.96 118.99 114.11 118.79 113.99 118.59 113.92 118.47 114 118.33 114.1 118.06 114.03 117.89 114.05 117.66 114.2 117.61 114.4 117.68 114.45 117.86 114.71 118 114.68 118.13 114.49 118.27 114.32 118.48 114.32 118.55 114.55 118.44 114.67 118.14 114.81 118.07 114.93 117.87 115.14 117.71 115.32 117.73 115.45 117.84 115.5 118.01 115.45 118 115.67 118.17 115.7 118.29 115.59 118.23 115.37 118.31 115.13 118.51 115.03 118.59 115.13 118.72 115.33 118.52 115.55 118.39 116.13 118.22 116.31 118.17 116.46 117.99 116.57 118.05 116.66 117.96 116.87 117.97 116.97 118.07 116.96 118.22 116.83 118.42 116.81 118.5 116.93 118.68 116.88 118.85 116.83 118.91 116.96 118.82 117.11 118.5 117.43 118.72 117.39 118.89 117.35 119.02 117.59 119.1 117.5 119.15 117.23 119.34 117.26 119.57 117.38 119.56 117.64 119.39 117.75 119.15 117.8 118.83 117.8 118.72 117.94 118.72 118.08 118.88 118.28 119.05 118.17 119.27 118.03 119.5 117.91 119.93 117.91 120.25 117.98 120.31 118.09 120.25 118.18 119.97 118.19 119.82 118.3 119.55 118.36 119.47 118.31 119.31 118.29 119.15 118.4 119.09 118.55 118.98 118.75 119.26 118.78 119.32 118.6 119.59 118.5 119.89 118.5 120.13 118.39 120.44 118.28 120.5 118.41 120.47 118.61 120.19 118.75 119.86 118.66 119.69 118.78 119.63 119.03 119.58 119.11 119.23 119.03 118.91 118.94 118.77 119.02 118.82 119.17 119.05 119.45 119.27 119.48 119.46 119.44 119.69 119.62 119.93 119.77 120.07 119.62 119.89 119.48 119.81 119.27 120.01 119.17 120.34 119.25 120.62 119.1 120.69 118.8 120.65 118.58 120.76 118.36 121.16 118.13 121.47 118.09 121.49 118.2 121.37 118.38 120.99 118.63 121.04 118.81 121.18 118.94 121.44 118.86 121.65 118.81 121.72 118.91 121.71 119.03 121.51 119.1 121.34 119.21 121.42 119.46 121.45 119.63 121.29 119.71 121.19 119.52 121.08 119.14 120.92 119.17 120.89 119.28 120.95 119.56 120.98 119.71 120.84 119.65 120.62 119.44 120.44 119.41 120.37 119.51 120.47 119.76 120.34 119.79 120.15 119.84 120.09 119.97 120.12 120.09 120.39 120.1 120.5 120 120.67 120.11 120.77 120.27 120.86 120.59 120.93 120.68 121.04 120.38 121.04 120.15 121.21 120.07 121.28 120.22 121.43 120.64 121.66 120.78 121.88 120.78 121.81 120.63 121.89 120.46 122.06 120.55 122.49 120.98 122.68 121.06 122.74 120.94 122.62 120.77 122.41 120.53 122.52 120.42 122.83 120.57 123.24 120.66 123.37 120.54 123.4 120.42 123.7 120.55 123.94 120.37 124.28 120.37 124.64 120.27"/><path class="cls-1" d="M116,71.86l-.81-.29h-.4l-.56.36-.5.17-.8-.36-.82-1-.12-.31.22-.93.07-.94.11-.93-.72-.39-.39-.18-.81.07-.64.23-.7,0-.34,0-.13-.22.21-.34.06-.77.12-.37.26-.31.2-.7,0-.6.3-.34.12-.51-.53,0-.39,0-.88.12-.55.29-.13.46v.27l-.19.2v.31L107,65l-.19.23-.52-.07-1.6.34-.48-.26-.43-.14-.32-.84s-.43-.44-.54-.57a3,3,0,0,1-.29-.57s-.1-1.19-.1-1.27v-.91l.28-.73-.12-.26-.38-.55.48-.44V58.5l.36-.22.23-.35.5,0,.36-.27.15-.39h.43l.3-.27.35,0,.14-.07.34.26.27,0,.14-.13.12-.16.33.37.26.16.55,0,.07-.21.6.42.14,0-.29-.31-.13-.38,0-.17.43-.12H109l.19-.2.11.08,0,.19.27,0,.42-.11.22,0,.4.14.19.21.1.17.1.11.23,0,.31-.26.25-.09.23.15.61.69.09.18-.09.49.16.26,0,.34.21.29.09.53.22.14.28.37,0,.15.3.2.19,0,.09-.28.16-.33.08-.33-.21-.93-.17-.37-.08-.17,0-.31-.3-.55-.15-.55,0-.4.1-.4.29-.52.41-.5.29-.15.25-.09.12-.24.37-.37.27,0,.22-.05.15-.29.4-.26.44-.15-.15-.36,0-.24h.14l.21.1.26-.07.28-.26v-.12l-.25,0-.17-.14.1-.07.07-.19-.13-.2-.28-.1-.08-.07.16-.25v-.2l-.12-.14-.31-.23,0-.14.29-.1.08-.18v-.46l.08-.33.17,0v.12l-.11.25v.27l0,.14.19.33,0,.33v.36l.22-.28.25-.63V50L117.8,50a.93.93,0,0,1-.1-.22.26.26,0,0,1,.06-.12l.19.18.15,0,.29-.26.29-.46v-.45l.38-.06.41-.05.42-.13.17-.09-.11-.11-.6.09H119l.2-.16.67-.17.35,0,.15-.3.2.15.22,0,.3-.18v-.29l-.26-.15-.07-.07.16-.19v-.29l.16-.33.13-.14.22-.1.12-.09.1-.11.19,0,.18-.17.17-.25.14-.11.21.06.32.11.23-.09.51-.38.72-.3.27-.08.47-.41.13-.15.08.09v.15l-.11.11,0,.14.72.11-.13.1-.52,0H125l-.44.42-.36.44,0,.17.34.26h.31l.41-.25.23-.26.14-.18.2-.12.43-.05,1.4-.45v-.14l0-.13.13-.11.68-.17.18-.16v-.15h-.14l-.29,0,.07-.44-.11-.1-.24.19-.12.18,0,.12-.29.27,0,.24-.26.05-.37,0-.56-.09-.21-.09-.12-.17-.47-.26-.19-.17-.06-.2-.17-.36.11-.22.09-.27-.1-.07H125l-.22.11-.15.08-.1-.07v-.12l.18-.16.43-.17.23-.16.1-.25-.19-.41-.3-.1h-.41l-1,.25-1,.38-.3.18-.59.56-.47.46-.25.14-.06,0,.53-.51.19-.24,0-.24h.08l.34-.24.45-.51.4-.25h.45l.09-.27.43-.44.49-.13,2-.09h1.91l.49-.21.32-.22.31-.32.23-.21.23-.07h.4l.35,0,.29-.18.31-.3.22-.24-.2-.1-.29-.16.17,0,.16-.09.16-.51-.27-.23-.27-.24-.22.09-.19.12-.13,0-.1-.07.12-.37-.13-.13-.23,0h-.32l-.44.33-.19.12-.37.08-.2.17h-.12l0-.21.15-.18.22,0,.18-.26h.31l.23,0,.44-.16a.52.52,0,0,0,.25-.07.32.32,0,0,0,.08-.19l-.16-.15-.35,0h-.25l-.4-.32-.23,0-.2-.14-.17.07h-.16l-.17-.18-.2-.37-.35-.32-.33-.21-.51-.24,0-.12.19,0,.2.07.22-.07.2-.27-.08-.22-.2-.08-.09-.12v-.31l-.21-.2-.19-.17,0-.14-.14-.15-.09-.17,0-.11-.08-.12-.09-.13,0-.15,0-.1-.21-.28-.18-.24,0-.14,0-.12-.12-.2-.19-.3-.11-.13-.11.13-.1.31-.13.19-.17.2.06.11.07.13-.22.17-.06.11,0,.26-.18,0-.1.22-.07,0-.16-.12-.16,0-.07.07-.06.2-.2.15-.33.13h-.17l-.12-.16-.19-.13h-.1l-.18-.29-.27,0-.2-.07,0-.32-.26-.25.09-.2-.14-.64,0-.28.19-.3-.1-.11h-.16l-.21.11-.21-.17H121l-.27,0-.3-.15-.1-.25-.19-.14-.2-.25-.2-.1-.12-.23-.17,0-.25-.14-.16-.09h-.27l-.48.21-.54-.13-.16.06-.56-.24-.35-.06h-.42l0,.09-.16.16-.11.15,0,.19.08.17a2,2,0,0,0,.24.16s.12.13.12.13l0,.16-.16.09,0,.16L116,30l.19.26.15.35.15.27v.35l-.1.07-.19,0-.09.28-.23.35-.15.27,0,.22.31.15.65.42.15.35L117,34l0,.45-.11.53-.34.32-.37.26-.29.26-.35.2-.34,0-.23,0,.08.34.27.31.06.14,0,.31,0,.29.09.34.07.27.19.3-.1.21-.27.32.18.13,0,.22-.27-.16-.2-.08-.12.28-.06.23-.07,0-.31-.16-.19-.09-.16-.38-.34-.26-.2-.17-.08-.25-.31-.27-.11-.21v-.93L113,36.6l.07-.29,0-.29-.25-.21-.34,0-.93,0-.4,0-.28-.17-.32-.19-.53-.2-.56-.27-.23-.3-.56-.31-.22-.12-.34-.06h-.25l-.84-.36-.41.1-.6.2,0-.13.12-.26-.29-.74-.26-.58-.18-.08H105l-.42-.16-.13-.38.09-.8.18-.53.29-.64.09-.27.47-.24.06-.13,0-.24.06-.09.24-.09.09-.16,0-.18.2,0-.11-.17.08-.07.56-.05.37-.12.16-.33-.14-.14-.48-.07-.32-.07-.15-.23-.83-.23-.14-.1.27-.05.55.1.62.18.46.15.31,0,.35-.05,0-.4v-.15l.18,0,.35.12.39.08.21-.06.47-.51.2-.26.19-.18.11-.17-.2-.14-.44,0h-.44l-.48-.21-.38-.29-.12-.18.12-.08h.28l.39.21.69.39.25,0,.25-.13.76-.68,0-.1-.25-.12-.16-.09.06-.15.3-.07h.26L111,24l.13.16h.24s.35-.08.42-.08a.49.49,0,0,0,.14-.06l-.14-.23-.43-.27,0-.1.12-.09.14.08.19.17.23.15.1.17.1.09.44-.16.41-.24.21-.23.22-.09.23-.27,0-.28-.16-.2-.26-.22-.08-.37-.07-.05-.2-.24.08-.06h.26l.38-.06.19-.25-.23-.19,0-.09.18-.16-.06-.12-.29-.07-.31-.08-.19-.21-.06-.17-.51-.06-.44-.12h-.62L111,20l-.11.32.18.33.22,0,.1.18-.11.14-.08.07,0,.23h-.28l-.12.13-.11.54-.16.24-.2.09-.06-.15-.08-.27-.07,0-.16.11,0,.22.11.2.2,0,.06.39,0,.12-.26.07-.18.14,0,.08h-.06l-.14-.23-.12-.16L109,22.4l-.08-.28.11-.23.18-.07.07-.12-.08-.34-.07-.17-.26-.17-.26-.25a2.4,2.4,0,0,0-.31-.11l-.19.08L108,21l-.07.16-.16.12a1.13,1.13,0,0,0-.07.15c0,.05-.16.34-.16.34l-.11-.16-.06-.55-.06-.1-.08-.2.17-.09.23-.13,0-.11s-.14-.2-.21-.13-.35-.08-.35-.08l-.2-.1-.22.08-.17.08-.13,0-.05-.26.06-.23,0-.1,0-.06.16,0,.19-.09v-.13l-.17-.1-.19-.11-.13-.06V19l-.53-.22,0-.11.08-.49-.14-.17-.49-.37-.36-.08-.11-.13.06-.16.17,0,.15-.13.39-.49v-.08l-.17-.08-.09-.13.21-.07h.3l.49.13h.2l.34-.35.58-.84.19-.34-.12-.12-.27,0h-.65l-.46-.13-.39-.1h-.33l-.64.08-.45.15v.12l.16.18,0,.16-.23-.08-.14,0,0,.25,0,.35v.56l.25.39.19.45-.09.46-.14.15-.27.12.15.18.06.22-.09.12-.22-.08-.24-.1-.16.18-.07.3,0,.21.28.19-.09.2-.17.35.1.27.45.25.52.13.45.16.29.15-.26.22,0,.22-.23.39,0,.1.11-.14.25-.33h.15l.11.3,0,.22,0,.14-.25.12-.12.08a1.37,1.37,0,0,1-.17.21,1.46,1.46,0,0,1-.24.14h-.37l-.09.11.14.44.09.29-.14.11-.3,0-.38-.24,0-.32.19-.41V22l-.26,0-.44-.09-.18-.14,0-.15.52.07.22-.07.07-.19.41,0,.33,0,.18-.16,0-.28-.3-.23-.46.08-.18-.13.11-.11h.45V20.4l-.2-.09h-.22l-.2,0-.28,0-.19-.11L102.7,20l-.23-.06-.21.12-.12.29-.12.28-.24.11-.26,0-.12.12.14.13.29.13.39,0,.29.07.12.16-.07.16-.15.14-.08.07-.23-.07-.17.08L102,22v.12l-.08.18-.07.15-.46-.08-1,.07-.63.11-.43,0L99,22.31l-.34-.23-.48,0L98,22l-.22-.19-.24-.05-.18-.08-.09-.27v-.28l-.44,0-.63.13-.26.12-.42.1-.39.26,0,.19.19.1.23,0,.13-.05.15-.14H96l.23,0,.4-.18.26-.1,0,.07-.13.22-.53.24-.56.15-.15.15.1.39.28.47a.9.9,0,0,1,.07.22l-.16.07a.08.08,0,0,0-.11.05.91.91,0,0,1-.06.16l-.36-.08,0-.18.16-.16L95.38,23l-.24-.21-.25-.05v-.18h-.34l-.49-.28-.24.07-.42.11-1.05.13H91.27l-.71-.18.07-.25.28-.18.42-.1.1,0-.15-.28L91,21.28l-.4-.18L90,21l-.12.13L89.19,21l-.67-.18-.37-.15-.47-.06-.61-.17-.61-.36L85.9,20l-.68.13-.12.14-.17.19-.62.09-.12-.07.15-.37L84.27,20l-.08-.36-.08,0-.18.14-.25.43-.25.31-.24.08-.29-.17-.47-.85-.27-.34-.3-.16-.2,0,0,.08.13.22.08.21-.14,0-.17.05,0,.09-.15.3-.23.16-.11,0L81,20l-.26,0-.27.18-.23.23-.24.15h-.16l-.09-.1-.4.09-.49.28-.17.21,0,.15-.28.14-.26,0v-.1l.7-.51.78-.45.32-.08.62-.25.25-.22-.08-.08h-.3l-.45,0-.48.21-.45.21-.46.12-.2.09,0,.22-.23,0h-.14l-.16.11-.13-.07.06-.16-.31-.12-.06,0-.1.16-.36.08-.52.2,0,.24.21.12.15.12-.09.15-.31-.08-.51-.19-.45,0-.57-.19-.67-.4L74,20.34l-.7-.08-.77-.06-.83-.31-.56-.12-.66.09h-.64l-.63-.2h-.57l-.39,0-1.16-.42h-.95l-.69.14-.22-.11-.11-.08-.26,0-.06-.32-.3-.1-.59.07-.41.05-.17-.09v-.3l-.23.06-.16.15-.33.16-.2-.07V18.6l.27-.15,0-.08-.42-.16h-.2l-.34.21-.53.38-.8.06-.59.1,0,.1.15.18v.18l-.15.05-.26-.24-.16.19-.23.09-.53.05h-.17l-.26.13-.39.37-.15.16,0,.28-.11.28-.28.29-.7.21-.71,0-.25,0,0,.24-.07.25.1.13.56.22.45.13s.48.55.48.55l.31.54.15.08.52-.05h.48l.13,0,.08.43.15.1.53.06.06.13-.16.11h-.31l-.34.11-.42.25-.25-.15h-.62l-.24,0,0-.12.07-.43-.24-.06-.56.18-.36.23,0,.17-.11.08-.2-.07-.2,0-.48.23-.52.33.15.18.59.19.3,0-.08.13-.1.18.19.1.09.22.42.23.7,0,.57-.08.37.13.21,0,.28-.28.47-.31h.35l.14.08.1.17-.25.17-.07.07.19.32.08.34-.23.35-.35.09-.27,0-.15,0-.17.29-.19.27h-.35l-.19-.12L57,27.7l-.29.06-.09.25v.43l-.2.06-.27.09L56,28.7l-.13.32-.17.14-.29,0,.18.29.26.29.15,0,.21.08.08.2-.13.25-.06.15.08.05.33.09.32.49.2.22.22.08.26-.11.32-.09.16,0,.13-.29.16.16.18.31,0,.14-.05.2-.08.2,0,.32v.16l.31.1.37-.09.13-.16.26-.14.37.1.31.24.27.23.08-.16.06-.29.17-.14.1.2.18.08.52-.12.21-.07,0,.1-.23.28-.15.42v.61l-.26.2-.41.48-.13.08-.31.1-.42.3-.53.54-.82-.05-.19.08-.17.28-.3.32-.09.15v.06l.42-.12.4-.32.07-.18.17.17.24.07.32-.25.16-.09.34,0,.23-.09.38-.15.31-.08.09-.33.49-.38.5-.23.33-.1.11-.32.5-.2.34-.32.24-.13.38-.1,0-.34.11-.12.23-.09.18-.3L64.06,32l-.36-.11.07-.15.23-.21.26-.12h.24l.23-.26,0-.14.1-.21.31-.21.27-.43.23-.1.26-.2.29-.19.18.08s.06.12.16.11a.93.93,0,0,1,.25,0v.23l-.24,0-.29-.09a1.15,1.15,0,0,0-.2.05l-.33.3-.07.31-.17.29-.07.29.19.1.08.13-.44.28.25.12.26,0,.37-.16.72-.51L67.5,31l.45.09-.06-.24.08-.1-.19-.17-.18-.29.05-.19.24-.1.12-.19.34.18h.25l.27.28h.18l.25,0,.07.14-.38.08-.13.12,0,.14.37-.18.24,0,.23.16.07.07.21-.19.14-.08v.21l.28.17.81.11.93,0,.24,0,.29.27.31.14h.35l.34-.28.14,0,.11.16-.24.26,0,.1.21.1.78.31.28.3.54.39.31.15.09-.13,0-.29.09,0,.29.16.14,0,.19.14.14.11.08-.14-.07-.25-.12-.39V31.9l.23.13.08.21.08.21v.6s-.06.17-.11.18a.94.94,0,0,1-.26,0l-.14-.12,0-.13-.14,0-.28.15v.17l.25.37.29.18.14.28.07.19.16.17.16.22a.63.63,0,0,0,.1-.17s-.09-.43-.09-.43-.14-.36-.15-.4,0-.3.09-.25l.19.11,0,.31,0,.12.19,0,.28-.28-.06-.37v-.19l.24,0,.13.36,0,.23-.15.2-.13.21-.34.1,0,.38.12.33.19-.32.15.13.29-.21.08.07.27.35.3.1,0-.11-.12-.14-.34-.14,0-.19.13-.16.24,0,.29.48,0,.29-.21.18-.19.13-.22-.13-.23-.19-.14,0,.08.3.09.17,0,.25-.06.19.09.23.14.06a.35.35,0,0,0,0-.12,1.08,1.08,0,0,1,0-.17l.08,0,.27.12,0,.06L79,36v-.2l.12-.08.23.2.06.07.08-.11.17-.13.1.2,0,.29v.07l.21-.07.08.12.14.22.15.13,0,.12-.25.07.08.19.08.32.1.23.35-.07.29-.14.13.11-.08.33,0,.17.13.13.19-.07.18,0,.38.39.23.22-.19.08-.12.06v.26l.19.13a1.71,1.71,0,0,1,.06.26.34.34,0,0,0,.07.15l.33.17h.33l.38.11.19.29.36.1.25-.11.12.39.06.18h.47l.26.11.26.07.22.06.06.34.2.34.11.21v.27l0,.48-.13.4-.28,0,.07-.26.08-.25-.17-.18-.12-.16.07-.46-.32-.1-.11-.08-.69-.27-.23-.33-.48-.58-.28-.07-.53-.06-.45-.26-.3-.07-.23.08.16.23.13.26.24,0,.29.23.18.14.28.19.38.13.15.36.35.15.12.17.18.21.2.7.24.38.09.28,0,.15.33.27-.12,0-.21,0,0,.6,0,.38,0,.79-.05.59-.22.72.11.34.17.42,0,.35-.1.56,0,.35.1.23.11.62.1.27.3.27.21.32.32.27.08.36.22.17.13.15L86,52l.24.35.59.55.09.32,0,.16.44.1.56.36.32.06.21,0,.45.39.26.62.22.44s.64,1.1.65,1.14.14.49.14.49l.39.4.46.28.29.39,0,.52-.55,0,.23.3.33.24.29.1.3,0,.44.41.28.43s.06.22,0,.32a.59.59,0,0,0-.09.2l.43.35.55.37.46.54.09.21.2,0,.13-.24-.13-.33,0-.22-.1-.17-.47-.07-.17-.6-.25-.3-.19-.67L92.83,59l-.47-.61L92.09,58l-.22-.21.08-.36-.3-.12-.4-.17L91,56.86l-.08-.69-.15-.62.15-.1.25.26.26-.06.22.21.09.08h.36l0,.28.06.33.33.69-.09.33.06.27h.14l.11-.09.22.09.27.3.23.18.34.22.1.3.23.15.16.07.2.23.21.05.05.31-.06.31.6.4.2.2.32.36L97,62.27l.4.7.07.22-.06.37,0,.23-.22.14.31.71.23.14.32.09.67.57.31.15.54.11,1.3.65.6.13,1.22.64.65.18.73-.25.56-.1.83.34.75.66.87.67h.69l.42.21.9.24.22-.09h.2l.06.26,0,.17.51.5.41.39.23.27,0,.27-.09.21.27.38.36,0,.12-.06.13.17.31.12.21.19L112,72l.16.3.4.06.66.21.36.31.36.2.24.1.29-.23-.2-.38.07-.12.29-.21.11-.2.5-.13.15.09Z"/><polygon class="cls-1" points="127.17 70.94 127.19 71.26 127.71 71.2 127.67 70.8 127.17 70.94"/><polygon class="cls-1" points="123.49 65.52 123.8 65.24 124.47 65.34 124.61 65.52 124.33 65.69 123.7 65.69 123.49 65.52"/><polygon class="cls-1" points="115.72 65.46 116.17 65.69 116.8 65.81 117.11 65.7 116.77 65.46 116.31 65.37 115.72 65.46"/><polygon class="cls-1" points="118.41 65.4 118.83 65.24 119.74 65.16 119.29 64.53 119.29 64.22 119.74 64.22 120.37 64.41 120.99 64.42 121.8 64.61 122.45 64.98 122.55 65.19 122.18 65.47 121.66 65.4 121.13 65.46 120.28 65.76 119.83 65.58 119.29 65.61 118.94 65.69 118.41 65.4"/><polygon class="cls-1" points="111.54 62.89 112.46 62.17 113.35 61.98 114.26 62.12 115.72 62.7 116.88 63.27 117.5 63.41 118.14 63.71 118.53 64.13 117.69 64.25 116.85 64.25 116.32 64.19 116.24 63.95 115.99 63.64 115.51 63.46 115.04 63.04 114.11 62.85 113.56 62.75 113.36 62.52 112.89 62.27 112.31 62.65 111.88 62.9 111.63 62.94 111.54 62.89"/><polygon class="cls-1" points="115.9 60.46 115.79 60.77 115.9 61.04 116.02 61.23 116.3 61.5 116.3 61.11 116.11 60.98 116.04 60.46 115.9 60.46"/><polygon class="cls-1" points="83.3 17.1 84.06 16.04 84.02 15.86 84.34 15.33 84.53 15.05 84.51 14.83 84.19 14.54 83.91 14.16 84.49 14.16 85.59 13.93 86.35 13.87 86.7 14.07 87.1 14.22 87.5 14.29 87.86 14.25 87.96 14.48 88.56 14.26 89.18 14.38 89.96 14.82 90.42 15.16 90.23 15.4 88.95 15.97 88.2 16.22 87.96 16.36 87.8 16.8 87.44 16.96 87.1 17.22 87.02 17.55 86.86 17.95 86.35 18.07 86.03 18.15 85.84 18.23 85.48 18.23 85.23 18.55 84.91 18.23 84.53 17.49 84.03 17.42 83.55 17.33 83.3 17.1"/><polygon class="cls-1" points="88.32 16.71 89.32 16.07 91 15.46 91.41 15.79 91.52 16.09 91.44 16.26 90.99 16.45 91.15 16.71 91.67 16.59 91.74 16.26 91.89 16.01 92.36 15.95 92.93 16.09 93.22 16.47 93.22 16.78 93.6 16.57 94.16 16.78 94.22 16.59 94.16 16.26 93.7 16.01 93.96 15.95 94.59 16.19 94.97 16.5 95.2 17.13 95.49 17.68 95.95 17.49 95.45 16.19 95.46 15.65 95.66 15.54 95.95 15.66 96.18 15.65 97.12 16.01 96.91 15.76 96.27 15.29 96.65 15.03 97.17 14.92 97.81 15.12 97.92 15.39 97.67 15.78 97.38 16.21 97.43 16.94 97.78 17.49 97.92 17.68 97.83 18.15 98.06 18.46 98.87 18.87 99.67 19.27 100.23 19.62 100.36 19.91 100.26 20.07 100.08 20.07 99.39 19.94 98.91 20.22 98.72 20.4 98.88 20.57 99.22 20.57 99.36 20.36 99.77 20.57 99.86 20.79 99.69 21.03 98.93 21.23 98.1 21.23 97.81 21.16 97.54 21 96.67 20.7 96.45 20.41 96.06 20.8 95.69 21.05 95.15 21.09 94.57 21.23 93.56 21.52 92.62 21.52 91.75 21.28 91.61 20.88 91.57 20.63 90.7 20.68 90.04 20.55 89.27 20.17 89.11 19.91 89.41 19.66 90.82 19.52 92.06 19.54 92.86 19.34 92.36 19.01 91.13 18.96 90.53 19.01 89.61 19.04 88.69 18.8 88.53 18.58 88.76 18.36 89.55 18.23 90.31 17.89 90.06 17.83 89.35 17.97 88.71 18.1 88.44 17.77 88.07 17.65 87.96 17.43 88.35 16.96 88.32 16.71"/><polygon class="cls-1" points="100.38 16.28 99.51 15.86 99.23 16.07 99.39 16.49 100.02 16.86 100.62 17.19 101.62 18.15 101.9 18.08 102.26 17.75 102.47 17.68 103.01 17.55 103.32 17 103.53 16.01 103.53 15.84 103.2 15.68 103.11 15.92 103.18 16.19 103.07 16.44 102.83 16 102.17 15.86 102.18 15.68 102.63 15.45 103.05 15.13 103.04 14.92 102.69 14.73 102.56 14.5 102.2 14.39 101.92 14.45 101.69 14.71 101.87 14.85 101.62 14.97 101.29 14.83 100.93 14.74 100.36 14.85 100.08 15.09 100.11 15.38 100.52 15.47 100.93 15.5 101.07 15.61 100.87 15.98 100.65 16.21 100.38 16.28"/><polygon class="cls-1" points="85.63 12.05 85.39 11.66 85.76 11.28 86.45 11.16 86.82 10.9 87.05 10.68 88.16 9.95 88.5 9.9 89.09 10.06 89.41 9.99 89.45 9.78 89.67 9.63 89.83 9.72 90.38 10.02 89.91 10.16 89.95 10.39 89.99 10.68 89.95 10.9 89.41 11.17 89.09 11.49 88.77 11.32 88.71 10.74 88.41 10.68 88.23 11.09 88.06 11.63 87.96 11.76 87.71 11.66 87.47 11.76 87.14 12.17 86.89 12.02 86.66 11.63 86.43 11.91 86.11 11.96 85.88 11.86 85.63 12.05"/><polygon class="cls-1" points="87.89 12.5 88.19 12.13 88.95 11.81 88.8 12.13 88.42 12.41 87.89 12.5"/><polygon class="cls-1" points="90.77 9.15 91.23 9.06 91.61 9.15 91.67 9.33 91.55 9.47 91.22 9.47 90.77 9.15"/><polygon class="cls-1" points="91.89 8.54 92.04 8.29 92.89 8.1 93.47 7.92 94.16 7.92 94.42 8.04 94.67 8.36 94.39 8.66 93.92 8.66 93.52 8.51 93.13 8.54 92.7 8.6 92.5 8.46 92.2 8.61 91.89 8.54"/><polygon class="cls-1" points="92.19 9.21 92.6 9.05 93.76 8.9 94.16 8.9 94.39 9.05 94.19 9.18 93.82 9.3 93.91 9.45 93.66 9.88 92.94 10.05 92.41 9.95 92.14 9.78 92.04 9.45 92.19 9.21"/><polygon class="cls-1" points="96.94 9.39 97.17 9.27 97.69 9.62 97.99 10.06 97.97 10.21 97.66 10.27 97.17 9.93 96.94 9.39"/><polygon class="cls-1" points="97.84 12.78 98 12.61 98.31 12.7 98.5 12.92 98.48 13.11 98.17 13.22 97.84 13.05 97.84 12.78"/><polygon class="cls-1" points="90.83 11.08 90.38 11.38 89.87 11.59 89.81 11.76 90.05 11.94 90.59 12.02 90.43 12.16 89.81 12.13 89.39 12.45 89.62 12.53 90.1 12.45 90.43 12.45 89.98 12.61 89.39 12.74 89.11 12.93 89.41 13.03 89.98 13.17 90.43 13.3 90.76 13.14 91.41 12.61 91.46 12.87 91.46 13.05 91.82 13.08 92.55 12.97 92.89 12.96 93.13 13.14 92.65 13.3 91.48 13.54 91.23 13.84 91.53 14.07 92.2 14.16 93.35 13.84 93.98 13.52 94.39 13.14 94.91 13.39 95.38 13.23 95.92 13.22 96.67 13.23 97.05 12.92 97.15 12.22 96.91 11.84 96.61 11.81 96.35 12.02 96.15 12.11 95.84 12.02 95.36 11.48 95.19 11.08 94.88 10.75 94.39 10.97 93.96 11.4 94.16 11.51 94.42 11.59 94.46 11.76 94.22 11.96 94.39 12.13 94.67 12.34 94.67 12.61 94.16 12.54 93.59 12.45 93.16 12.2 92.75 11.81 92.04 11.51 91.56 11.48 91.22 11.59 91.09 11.19 90.83 11.08"/><path class="cls-1" d="M97.55,7.7l-.25-.76.51-.08.87,0,.59.31.12.23.33-.17.36.22.37.27.29,0,.51.25v.41l.37.37s.15,0-.09.18-.6,0-.6,0l-.67-.16L100,8.66l-.77-.24-.54,0-.77.12-.35-.3L98,8.19l.66-.1-.14-.32-.35-.16Z"/><polygon class="cls-1" points="100.99 5.91 101.62 6.37 101.9 6.24 101.67 5.92 101.44 5.84 100.99 5.91"/><polygon class="cls-1" points="103.23 13.29 103.73 12.74 104.6 12.51 105.25 12.9 105.55 13.36 105.28 13.77 104.51 13.7 103.23 13.29"/><polygon class="cls-1" points="107.01 9.88 107.54 9.53 107.89 9.6 108.08 9.84 107.83 10.06 107.54 10.27 107.01 9.88"/><polygon class="cls-1" points="103.62 9.72 103.92 9.48 104.77 9.33 105.62 9.36 105.35 9.59 104.6 9.88 104.14 9.88 103.62 9.72"/><polygon class="cls-1" points="102.29 7.76 102.29 8.11 102.64 8.82 102.88 9.08 103.17 9.21 104.6 8.9 104.36 8.66 104.46 8.29 104.12 8.17 103.71 8.21 103.2 8.01 102.66 7.76 102.29 7.76"/><polygon class="cls-1" points="112.15 28.65 112.15 28.26 112.46 28.06 113.08 27.84 113.3 27.9 113.12 28.28 112.82 28.56 112.43 28.72 112.15 28.65"/><polygon class="cls-1" points="114.9 28.56 114.6 28.72 114.6 29.07 114.81 29.32 115.06 29.07 115.17 28.72 114.9 28.56"/><path class="cls-1" d="M98.7,10.93l-.43-.15-.33.15.06.39.5.63.77.43h.81l.64-.2.18.17-.17.57,0,.28.45.16,1.29-.22.25-.42-.06-.7a2.69,2.69,0,0,0-.16-.66,4.15,4.15,0,0,0-.62-.37l-.23.11-.68-.23-.61-.19v.23l.46.6.09.19-.55-.21-.33-.2-.39-.18.14.48.08.43h-.27l-.39-.43Z"/><path class="cls-1" d="M103.25,10.59l1-.19.42,0,.65.24L106,11h1.33l.92.54-.42.08-.14.43.35.12.53,0,.28.32h1.61l.63-.12.64-.13c.08,0,2.29.11,2.29.11l.91.3-.17.7-.43.38-.71.06H113l-.68-.26-.29.26L111,14l-1.59-.09-.68-.34-.48.21-.42.22-.37-.19-.62-.26-.41-.15-.14-.44,0-.81-.9-.69-.32.07-1.25-.36-.58-.35Z"/><polygon class="cls-1" points="111.14 24.65 110.45 25.27 110.35 25.66 110.24 25.9 110.27 26.2 110.24 26.52 109.7 27.11 109.92 27.22 110.55 27.08 110.91 27.63 111.37 27.51 112.06 26.99 112.49 26.77 112.94 26.96 113.65 27.19 114.33 26.99 114.02 26.7 113.39 26.23 113.15 25.93 112.4 25.58 111.46 25.15 111.14 24.65"/><polygon class="cls-1" points="116.44 22.82 116.44 22.21 116.81 21.84 117.48 21.75 118.09 22.28 117.83 22.88 117.27 23.08 116.78 23.08 116.44 22.82"/><polygon class="cls-1" points="114.05 15.01 114.53 14.85 115.17 15.07 115.63 15.07 116.44 15.34 117.14 15.92 116.05 16.08 115.51 16.19 115.17 16.32 114.6 16.32 114.48 15.86 114.33 15.5 114.05 15.27 114.05 15.01"/><path class="cls-1" d="M111.24,15l-2,.21-.7.46-.72,1,.09,1.36.41.14,1,.13.33.2-.32.11-.81-.09-.38.17.3.36.6.29.43,0,.51-.05.18.2.27.16,1.09.05,1.52.27.44-.09.25-.21,1.07.3.47-.09-.09-.42-.06-.32.71.21.32.29.36.33.51.34.52.36-.66.57h.37l.69-.3.32.3.31.37H119l.64.66.15.53-.15.65.53.09.59-.18.37,0,.66.2v.54l-.56.28h-.41l-.17-.32-.59-.32h-1l-.43.64.25.51-.49.39-.71,0-.9-.16-.41.26-.41.25,0,.59.42.16,1.09-.1.56.06.11-.18,1-.06.31.28.47.42.23.13.17.75.52.15h.65l.46.36.84.52.75.35H124l.12-.35-1-1.1-.68-.42.18-.12.85.3.7.38.62,0,.52-.31.11-.34-.42-.23-.09-.48-.15-.35-.5-.32-.53-.09-.54-.35-.12-.4.07-.19.08-.45.1-.3.27-.08.42.29.46.19.42.48.8.66.32-.42.69-.4.18-.39.7-.48v-.26l-.23-.17-.55-.06-.45,0-.09-.26s.13,0,0-.23a3.14,3.14,0,0,0-.68-.53l-.53-.11-.5,0-.44-.38-.49-.11-.5-.27-.19-.45.27-.16.67-.05-.5-.26-.28-.13.16-.2.25-.32-.18-.21-.41-.27-.28.36-.21,0,.21-.32.12-.18-.36-.3-.87,0-.36-.06,0-.33-.52,0-.36.15h-.39l-.15-.27.61,0,.26-.28V18l-.4-.21-.48.08-.15.16-.18.16-.21-.2-.28-.31-.12-.29-.77-.21-.15-.51-.55-.23-.83-.11-.7.28,0,.3-.09.17-.3-.1,0-.22h-.57l-.36.29-.19.06-.12-.35.16-.8-.25-.38-.24-.43-.39-.32-.58.11-.36.21-.79.33-.48.1-.39.47.31.49.11.18V17l-.26.22.14.2.34.06.16.2,0,.33s-.32,0-.38-.06l-.55-.25-.34-.46,0-.55-.12-.4.2-.55.5-.42Z"/><path class="cls-1" d="M125.39,40.75a4.89,4.89,0,0,1,1.88.64l-.13.36Z"/><polygon class="cls-1" points="131.39 39.24 130.4 39.9 130.01 40.52 129.91 41.09 129.91 41.47 129.62 41.42 129.25 41.47 129.24 41.83 129.24 42.01 128.98 42.36 129.03 42.66 129.39 42.66 129.88 42.63 130.31 42.66 130.69 42.63 131.17 42.41 131.39 42.52 131.68 42.63 131.51 43.12 131.92 42.99 132.1 42.88 132.49 42.88 132.6 43.24 133.01 43.33 133.37 43.16 133.37 42.88 133.07 42.55 132.91 42.68 132.9 42.38 133.03 42.19 133.12 42.02 132.74 42.03 132.59 42.01 132.59 41.75 132.78 41.37 132.61 41.14 132.24 41.22 132.04 41.36 131.84 41.28 131.63 41.1 131.39 40.86 131.33 40.7 131.17 40.57 130.81 40.72 130.59 40.7 130.87 40.24 131.03 39.9 131.17 39.66 131.35 39.47 131.39 39.24"/><polygon class="cls-1" points="104.98 3.85 105.34 4.08 104.62 4.16 104.39 4.21 104.59 4.43 104.86 4.64 104.51 4.73 104.01 4.76 103.73 4.86 103.73 5.32 104.14 5.52 104.39 5.59 104.39 5.84 103.77 5.85 103.53 5.85 103.3 5.85 103.53 6.21 103.74 6.37 103.88 6.66 104.19 6.94 104.79 6.99 105.34 6.92 105.82 6.86 106.19 7 105.98 7.22 105.38 7.37 104.98 7.58 105.55 7.93 105.95 8.3 106.72 8.71 107.55 8.75 107.83 8.6 108.33 8.48 108.52 8.72 108.85 8.48 109.04 8.04 109.22 7.97 109.39 7.97 109.56 7.7 109.91 7.39 110.55 7.23 111.06 7 110.84 6.72 110.39 6.7 109.89 6.74 109.67 6.5 109.73 6.24 109.46 5.84 109.43 5.61 109.37 5.36 109.08 5.31 108.94 5.49 108.84 5.66 108.46 5.55 108.31 5.19 107.54 4.76 106.42 4.21 105.96 3.85 105.55 3.66 105.14 3.61 104.98 3.85"/><path class="cls-1" d="M106.43,3.26l.44-.26.5-.12.46,0,.3.1.26-.1.28-.33.41-.11.3,0,.35.22.19,0,.3-.13,0-.25,0-.15.51-.08.12-.16.21-.16.35,0,.62.24.35.15.3-.07.16-.29.56-.14.62.16V1.3h.91l-.18-.2.18-.11.67.05.74.21.37-.26.34,0L118.4.89l.5.24.32.11,0-.2.42-.34h.51l.46.23,1-.19.75.16,1,0L124,1l-.6.5.33-.07,1-.28.54.06.79.22V1.8l.78.18h.85l-.45.39-1.21.56-.83.22h-1.11l-.84.34h.64L125,3.44l.26.17-.38.29-.73.2L123,4.58l-1,.56-.9.48-.27.08-.25.37-.33.23h-.49l-.53-.12-.31,0-.08.44-.47.2h-1.79l-.23.34.5,0h.81l.6.18.09.22-.35.72-.48.46-.53.21-.49,0-.78.12.16.49-.9.29-.45,0-.72-.09-.45.09,0,.23.65.11h.73l.51.24.34,0,.48,0,.08.43-.23.16a.47.47,0,0,0-.61,0,3.82,3.82,0,0,1-.89.49l-.5-.14-.68-.32h-1.54l-.65.3-.76-.23-1.22-.06-.84-.08-.16-.38.59-.28,1.15-.24-.12-.26-.61-.29.07-.31h1.21l.39.48.3.27h.45l.16-.19-.31-.34L110.88,9l.47-.52-.32.09-.89.21-.49.07-.25-.31.48-.54.8-.21.91.09.65.19.7.21.06-.16-.82-.39-.51-.43-.37-.72-.91-.09-.32-.28V5.53l.56-.11,1.08.08.81.35.4.29.85.23-.61-.53-.34-.56.65,0L114.67,5l.65-.4V4.12L115.1,4l0,.23-.78.46-.79.19-.61,0-.52-.17-.2.26-.56.15-.77-.06-.61-.24.12-.59-.33.26-.72.22-1-.28-.2-.18L107.64,4l.44-.43-.54,0,0-.27.15-.27-.54.18-.35.13Z"/><path class="cls-1" d="M132.38,2l-1.71.29-.66,0-.62.16.09.28.19.22-.28.07-.55-.24-.65,0-.69.32.22.32.07.44-.09.27H127l-.65-.2-1.31.48-1.77,1.19.34.17h.66l.67.09.13.26-.23.53-.46.46-.56.14h-.81l-.67.13-.42.31L120.83,8l-1,.33-.16.37.18.26.38.13.74.12.44.33.86.15.65-.12.79-.11.35.23.06.24-.69.11-.51-.05-.63.06-.49.13-.66,0-.52.17.21.18.67.09.5.09-.13.5.8.45.66.23.41,0,0-.34.33,0,.37.14.14,0,.33-.13.44-.06.32,0,.32-.16,2.38.63.47.2.57.31.09.46.2.24.71.4.46.42.15.41.05.46.38.4.07.47.34.27v.31l-.36.51.07.3-.06.52.33.27.5-.12.53-.33.16.45.59.47.58.24.45.43v.14h-.42l-.76-.35-1.15.08.35.27,1,.51.7.09.31.31,0,.37-.12.28,0,.67-.69,0-.64.19-.14.5-.51.8.15.34.52.24-.1.23-.43.38.25.44.57.47.25.31v.93l.3.15.16.52.25.26.2.3.36.41.45,1,.43.39.34.5.64.28h.23l.43.21.37,0,.44.31,1.19.46.5-.52.17-.45v-.57l.28-.25-.16-.87-.23-.1.22-.19.59-.09.28-.43.28-.52.12-.22-.19-.45.36-.14v-.42l-.3-.17,0-.24.49.17.16-.06,0-.22.16-.31.63-.12.32-.16.1-.4.14-.23.17,0v.59l.43-.15.8-.1,1-.47.6-.66.4-.6.52-.31V22l.44-.06.49.16.15-.18.56-.08.38-.15.32,0,1.87-.37.41-.19.5-.34,1.05-.51.95-.62-.85.22-.81-.2-.77-.23-.63.27,0-.15L152,19l.24-.22-.06-.61.3,0,.61.47.67.49.55.07.5-.21-.05-.53.05-.36-.58-.52-.91-.63-.27-.28.39-.19.61.31.28,0,.31-.34.06-.4-.61-.21-.51.1-.7.25-.49-.19.13-.33.57-.26-.06-.38,1.06.38.45.06.63-.09.6-.34-.5-.4-.49-.3.33-.17h1.37l.28-.46-.58,0-.61-.12-.3-.32,0-.27.4-.15h.62l.37-.3,0-.52-.32-.44-1-.06-.38-.3-.23-.2-.5-.35h.5l.43,0,.45-.22.44,0,.77.11.42,0,.14-.21-.26-.42-.3-.1-.34.07h-.69l-.1-.31.18-.2h.74l-.31-.29L155.45,9l-.45.3-.46.2-.17-.24.56-.39.13-.9.26-.24.91-.44.05-.53.39-.3.73-.1.16-.22-.34-.29-.28,0s-.84.51-1,.44-.07-.33-.07-.33l.58-.27.81-.06,1.18-.22V5.19L158,5.07l-.84,0h-.52l.38-.19L158,4.8l.82-.24.55-.11.53-.3.66-.17.87-.54-.5-.29-1.06-.28-.78-.09L158,3l-.29.23-.2.52-.45-.12-.54-.11-.47.17-.17-.38-.21,0-.69.59-.93.46-.86.58.28-.52.66-.7c.05,0,.41-.84.41-.84l-.25-.28-.4-.06-.55.16-.14.41-1.15.36-1.2.3.18-.21,1-.5.22-.17-.48-.13h-1.39l-1.26.1L148,3.2l-.77.08.1-.26s.83-.27.93-.29,2.39-.31,2.39-.31h1.09l.84-.06L153.4,2l1.07-.13.43-.17-.35-.33L153.2,1.2l-.5-.28-.82-.48-.29-.09h-1.21L150,.2l-.6-.19h-2.92L145,0l-.79.19h-.49l-.4.13.13.32-.19.25-.37-.13L142.61.5l-.52,0-.65.23L140.22.49l-.41.17-2.05.16.69.63-.52.15h-.58l-.11.21.33.19,1.17.67.51.43-.3.12-.55-.3-.85-.4-.65-.16-.48-.31-.87-.3-.81,0,0,.21.63.39.23.35-.29.17-.66-.13-.53-.31-.58-.35L133.24,2l0,.35,0,.55-.13.4-.47.3,0-.24,0-.8Z"/><polygon class="cls-1" points="132 20.18 132.3 19.43 132.77 19.47 133.24 19.64 133.43 19.83 133.73 20.09 133.97 20.34 133.56 20.68 132.94 20.74 132.33 20.4 132 20.18"/><polygon class="cls-1" points="153.49 24.5 153.15 24.95 153.32 25.12 153.8 25.11 154.3 25.01 154.63 25.11 154.5 25.45 154.46 25.65 153.37 25.85 153.97 25.85 154.36 25.87 154.6 26.12 154.8 26.36 154.8 26.59 154.22 26.89 154.41 26.97 155.09 26.86 155.6 26.97 156.54 27.4 157.16 27.32 157.51 27.08 158 26.9 158.36 26.8 158.83 26.54 159.51 26.36 159.82 26.01 160.34 25.51 159.99 24.94 159.69 24.83 159.5 24.19 159.03 24.22 158.38 23.91 158.29 24.53 157.9 24.35 157.75 24.58 157.62 24.36 157.23 24.42 156.88 24.3 156.42 24.61 156.15 24.47 155.84 24.68 155.75 24.99 155.3 25.2 155.06 24.95 155.12 24.65 154.7 24.2 154.08 23.97 153.89 23.91 154.19 24.35 153.93 24.33 153.49 24.5"/><polygon class="cls-1" points="78.88 36.9 78.27 37.28 78.58 37.87 78.88 38.2 79.44 38.49 79.44 38.25 79.18 37.7 79.12 37.44 78.88 36.9"/><polygon class="cls-1" points="63.41 33.7 63.91 33.52 64.52 32.83 65.05 32.63 65.18 32.96 64.7 33.19 64.96 33.6 64.67 33.87 64.06 34.23 63.7 34.23 63.41 33.7"/><polygon class="cls-1" points="54.81 31.06 55.23 31.37 55.76 31.34 55.9 30.88 55.4 31.12 55.42 30.85 54.81 31.06"/><polygon class="cls-1" points="54.81 37.54 54.91 37.16 55.17 37.03 55.23 37.28 55.02 37.44 54.81 37.54"/><polygon class="cls-1" points="56.47 36.64 56.6 36.4 56.96 36.23 57.38 36.18 57.5 36.4 57.3 36.41 57.02 36.46 56.47 36.64"/><polygon class="cls-1" points="176.93 7.65 177.11 8.11 177.53 8.38 177.83 8.59 177.38 8 176.93 7.65"/><path class="cls-1" d="M177.26,7.09l-.18-.44.18-.24.28-.14.26-.1.49,0,.57-.09.28,0,.18.1-.06.07-.35.12-.3.07.23.14.25.11.1.18.13.09.07-.12V6.59l.15-.2.12-.18.11-.08.24.15.14.37.23.36.5.41s-.1-.48-.12-.52l-.3-.5-.11-.15.2-.17.17-.33.28.34.16-.08.37,0,.25.17V6.3l-.16.28,0,.21.23-.14.23-.13.21.25.08.27.3,0,.42.14.09.15.18-.06.11,0,.22,0,0,.07.44.23.08.45.24.05.25.16.05.13-.1.15.73.11.06.11L185.3,9l.14.07h.31L186,9l.3.07,0,.09-.26.17-.23.12-.21.22-.34.25-.24.09-.17,0,0-.18V9.56l-.12-.07-.22.13-.65.11-.1-.12L184,9.4l.21-.32,0-.24L184,8.79V8.67l-.24-.15-.22-.29.18-.16.18,0V7.88h-.19l-.34.11-.46.07-.36.32-.08.21,0,.15-.11.11-.21.15v.25l0,.16-.14.11-.37.22-.38.55-.13.34-.06.29-.19.09h-.21l-.21-.23-.36-.18.4-.16,0-.18h-.22l-.34.08-.13-.07-.43-.26-.25-.29.14-.13.31.06h.19l.11-.17.42-.13h.35l.41-.1,0-.13h-.64l-.74.08-.46,0-.27-.07,0-.15.17-.14.46-.09.36,0,.22-.2s.26-.11.34-.13l.24-.08.14-.26-.06-.23L180.6,8s0,0-.26.09a.47.47,0,0,1-.36.07l0-.1.11-.28,0-.18h-.22l-.07.21-.09.13-.22,0-.12.25-.16.24-.36.09-.36,0-.33-.19-.36-.27-.23-.27,0-.21.24-.28.27-.24L178,7l-.22,0-.23.14-.17,0Z"/><polygon class="cls-1" points="183.14 6.62 184.12 6.86 184.44 6.88 184.68 6.88 184.84 6.75 185.09 6.95 185.56 7.11 185.72 7.11 186.07 6.98 186.33 6.91 186.93 6.77 187.16 6.62 187.27 6.45 187.53 6.29 187.91 6.09 188.09 5.95 188.15 5.76 187.99 5.62 187.69 5.57 187.18 5.57 186.8 5.52 186.47 5.39 186 5.32 185.79 5.41 185.64 5.65 185.41 5.59 185.33 5.25 185.17 5.13 185.02 5.16 184.81 5.31 184.9 5.75 184.77 5.87 184.54 5.74 184.4 5.62 184.35 5.52 184.05 5.53 183.83 5.55 183.71 5.35 183.52 5.21 183.14 5.07 183.05 5.07 183.09 5.24 183.09 5.37 182.96 5.39 182.69 5.26 182.6 5.23 182.6 5.42 182.61 5.61 182.51 5.58 182.22 5.29 182.1 5.25 181.95 5.33 181.89 5.46 181.73 5.54 181.87 5.62 182.07 5.75 182.2 5.88 182.05 5.99 182.08 6.06 182.26 6.14 182.51 6.21 183.07 6.25 183.62 6.17 184.25 6.12 184.56 6.14 184.57 6.25 184.24 6.29 183.61 6.43 183.33 6.5 183.14 6.62"/><path class="cls-2" d="M261.36,94.13c-.68-.58-1.37-1.14-2.05-1.7l.39-.48c.69.56,1.37,1.12,2.06,1.7Zm-4.14-3.36-2.11-1.62.38-.49,2.12,1.62ZM59,89.24l-.33-.53s.81-.49,2.34-1.35l.3.54C59.77,88.75,59,89.24,59,89.24Zm194-1.67c-.72-.53-1.44-1-2.16-1.55l.36-.51,2.17,1.55ZM63.62,86.62l-.3-.55,2.37-1.26.29.56C65.12,85.82,64.33,86.23,63.62,86.62Zm185-2.11-2.21-1.46.33-.53L249,84ZM68.35,84.15l-.28-.55c.76-.39,1.56-.78,2.4-1.19l.27.56Zm4.8-2.34-.27-.56,2.42-1.13.26.56Zm171-.19c-.76-.47-1.51-.94-2.27-1.39l.32-.53c.76.45,1.52.92,2.28,1.39ZM78,79.58,77.74,79c.79-.36,1.61-.72,2.45-1.08l.24.57Zm161.59-.7-2.32-1.3.3-.54c.78.42,1.56.86,2.33,1.3ZM82.89,77.47l-.24-.58,2.47-1,.23.58Zm152-1.15c-.79-.41-1.58-.82-2.37-1.21l.28-.56,2.38,1.22ZM87.83,75.46l-.23-.58c.81-.32,1.64-.65,2.49-1l.22.58Zm142.33-1.52c-.8-.39-1.61-.76-2.41-1.13l.26-.57,2.42,1.13ZM92.81,73.55,92.59,73l2.51-.91.21.58Zm5-1.79-.21-.59,2.53-.86.2.59Zm127.49,0-2.46-1,.24-.57c.82.34,1.64.68,2.46,1ZM102.88,70.07l-.19-.59,2.55-.8.19.59Zm117.51-.36c-.83-.33-1.66-.64-2.49-.95l.22-.58c.83.31,1.67.62,2.5.95ZM108,68.5l-.18-.6c.85-.25,1.7-.5,2.57-.74l.17.6Zm107.42-.63L212.87,67l.2-.59,2.53.85ZM113.1,67l-.16-.6,2.58-.68.16.6Zm97.23-.81c-.85-.27-1.7-.52-2.55-.76l.17-.6,2.57.76Zm-92.07-.52-.15-.61,2.6-.62.14.6C120,65.29,119.12,65.49,118.26,65.71Zm87-.94c-.86-.23-1.71-.45-2.57-.66l.14-.6c.87.21,1.73.43,2.59.66Zm-81.76-.28-.13-.61,2.61-.56.13.61Zm76.59-1c-.86-.2-1.73-.39-2.6-.56l.13-.61,2.61.56Zm-71.37-.1-.12-.61,2.63-.49.11.61Zm5.24-.95-.1-.62,2.64-.43.09.62Zm60.92,0c-.87-.17-1.75-.32-2.62-.47l.11-.61c.87.14,1.75.3,2.63.47Zm-55.65-.79-.09-.62c.88-.13,1.76-.25,2.65-.36l.08.62Q140.49,61.44,139.18,61.63Zm50.4-.11c-.88-.13-1.75-.26-2.63-.37l.08-.62c.88.12,1.77.24,2.65.38Zm-45.12-.58-.07-.61c.88-.11,1.77-.2,2.66-.29l.06.62Zm39.85-.13-2.65-.28.06-.62c.89.09,1.77.18,2.66.29Zm-34.55-.4,0-.62c.88-.08,1.77-.15,2.66-.21l0,.62C151.53,60.26,150.64,60.33,149.76,60.41ZM179,60.29c-.89-.08-1.77-.14-2.65-.2l0-.62c.88.06,1.77.12,2.66.2ZM155.07,60l0-.62,2.67-.13,0,.62Zm18.63-.09L171,59.82l0-.62,2.67.11Zm-13.31-.14v-.62l2.66-.05v.62Zm8,0-2.66,0V59.1l2.68,0Z"/><path class="cls-2" d="M52.87,90.38l-.34-.52s.78-.51,2.29-1.42l.32.53C53.65,89.87,52.88,90.38,52.87,90.38Zm4.57-2.77-.31-.54c.7-.41,1.47-.85,2.33-1.33l.3.55C58.91,86.76,58.14,87.2,57.44,87.61ZM62.09,85l-.3-.54,2.36-1.27.29.55Zm4.72-2.5-.29-.55c.76-.4,1.56-.8,2.38-1.22l.28.56Zm4.76-2.4-.28-.56,2.41-1.17.27.56C73.14,79.32,72.34,79.7,71.57,80.09Zm4.81-2.31-.27-.56,2.43-1.13.26.57Zm4.85-2.22L81,75l2.45-1.07.25.57Zm4.89-2.13-.25-.57c.81-.34,1.63-.69,2.47-1l.24.57Zm4.92-2-.23-.57,2.48-1,.23.58Zm5-2-.22-.58,2.5-1,.22.59Zm5-1.86-.21-.59,2.51-.9.21.58Zm5-1.78-.2-.59,2.53-.86.2.59Zm5.06-1.69-.19-.6,2.54-.81.19.59Zm5.09-1.61-.19-.59,2.56-.77.18.6ZM121.28,61l-.17-.6,2.57-.72.16.6Zm5.14-1.42-.17-.6,2.59-.68.15.61Zm5.16-1.33-.15-.6L134,57l.15.61ZM136.76,57l-.14-.6,2.61-.59.13.61ZM142,55.86l-.13-.6c.87-.19,1.74-.37,2.62-.54l.12.61Zm5.23-1-.12-.61,2.63-.49.11.61Zm5.24-1-.1-.61,2.63-.44.1.61Zm87.5-.38-2.63-.44.1-.61,2.64.43ZM157.7,53l-.09-.61,2.64-.39.09.62Zm77-.37L232,52.27l.09-.62,2.64.38ZM163,52.27l-.08-.61,2.65-.34.07.62Zm66.42-.35-2.64-.32.07-.62,2.65.32Zm-61.13-.29L168.2,51l2.66-.29.06.62Zm55.84-.32-2.65-.26.06-.62,2.66.26Zm-50.54-.23-.06-.62,2.66-.23.06.62Zm45.24-.27-2.66-.2,0-.62,2.67.2Zm-39.93-.17,0-.62,2.66-.18,0,.63Zm34.61-.21c-.89-.06-1.77-.11-2.66-.15l0-.62,2.67.15Zm-29.29-.12,0-.62,2.67-.13,0,.63C186,50.22,185.09,50.27,184.2,50.31Zm24-.15-2.66-.1,0-.62,2.67.1Zm-18.64-.07,0-.63,2.67-.07V50ZM202.84,50l-2.66,0v-.62l2.67,0Zm-8,0v-.62l2.67,0V50Z"/><path class="cls-2" d="M52,90.32l-.47-.4s.61-.73,1.84-2l.44.44C52.61,89.6,52,90.31,52,90.32Zm3.72-3.79-.42-.45c.59-.55,1.25-1.15,2-1.79l.41.47C57,85.39,56.32,86,55.73,86.53Zm4-3.49-.39-.48c.65-.54,1.35-1.09,2.09-1.67l.38.49C61.09,82,60.39,82.51,59.74,83Zm4.2-3.27-.37-.5c.69-.51,1.42-1,2.17-1.57l.36.51Q65,79,63.94,79.77Zm4.35-3.07-.35-.52,2.23-1.47.34.52Zm4.47-2.89-.33-.53c.74-.46,1.5-.92,2.29-1.39l.31.54C74.25,72.89,73.5,73.35,72.76,73.81Zm4.57-2.72-.3-.54c.75-.44,1.53-.87,2.33-1.31l.3.55C78.86,70.22,78.09,70.66,77.33,71.09ZM82,68.53,81.71,68l2.38-1.23.28.56C83.56,67.72,82.77,68.12,82,68.53Zm4.75-2.41-.27-.56,2.41-1.15.27.57Zm4.83-2.25-.26-.57,2.45-1.08.24.58C93.19,63.15,92.38,63.51,91.58,63.87Zm4.89-2.11-.24-.58,2.47-1,.23.58Zm4.94-2-.22-.58,2.5-.94.21.58Zm5-1.84-.21-.59,2.53-.87.2.59Zm5-1.71-.19-.59,2.54-.82.19.6Zm5.09-1.59-.18-.6,2.56-.75.17.6Zm5.12-1.47-.17-.6,2.58-.69.16.6Zm5.15-1.35-.15-.6,2.6-.64.14.61ZM132,50.58l-.13-.6,2.6-.58.13.61Zm5.21-1.12-.13-.61,2.62-.53.12.61Zm5.23-1-.11-.61,2.62-.47.11.61Zm5.25-.92-.11-.61,2.64-.42.1.61Zm5.26-.82-.09-.62,2.64-.37.09.62Zm5.28-.72-.08-.62,2.65-.33.08.62C160,45.74,159.1,45.85,158.22,46Zm5.29-.64-.07-.61,2.66-.29.06.62Zm5.3-.54-.05-.62,2.65-.23.06.62Zm5.31-.45-.05-.62,2.67-.2,0,.62Zm5.32-.37,0-.62,2.67-.16,0,.62Z"/><path class="cls-2" d="M45.24,95l-.58-.2s.32-.92.92-2.54l.59.22C45.56,94.12,45.24,95,45.24,95Zm1.89-5-.58-.23,1-2.49.58.23Zm2-5-.58-.24q.49-1.18,1-2.46l.57.25Zm2.12-4.9-.57-.25c.35-.8.72-1.61,1.1-2.44l.57.26C52,78.56,51.61,79.37,51.26,80.16Zm2.23-4.85L52.93,75c.37-.79.76-1.59,1.16-2.41l.56.28C54.25,73.72,53.86,74.52,53.49,75.31Zm2.34-4.79-.55-.28c.4-.79.8-1.59,1.22-2.39l.55.29Zm2.47-4.73-.54-.3q.63-1.17,1.29-2.34l.54.3C59.15,64.23,58.73,65,58.3,65.79Zm2.61-4.65-.53-.31c.44-.77.9-1.54,1.37-2.3l.53.32C61.81,59.61,61.36,60.38,60.91,61.14Zm2.78-4.55-.53-.34c.48-.75,1-1.5,1.46-2.24l.52.34C64.65,55.09,64.16,55.84,63.69,56.59Zm3-4.44-.51-.35c.52-.74,1-1.46,1.57-2.18l.5.37Q67.41,51.06,66.64,52.15Zm3.18-4.27-.49-.39c.56-.7,1.12-1.4,1.69-2.07l.48.4C70.93,46.49,70.37,47.18,69.82,47.88Zm3.43-4.06-.46-.42c.62-.67,1.25-1.33,1.86-1.94l.44.45C74.48,42.51,73.87,43.15,73.25,43.82ZM77,40.08l-.42-.47c.68-.61,1.37-1.19,2-1.73l.39.48C78.36,38.9,77.68,39.47,77,40.08Zm4.15-3.29-.35-.51a26.68,26.68,0,0,1,2.28-1.42l.31.54C82.65,35.82,81.9,36.29,81.16,36.79Zm4.59-2.56-.24-.57.13-.06.25.57Z"/><path class="cls-2" d="M46.07,94.41l-.57-.26s.42-.91,1.24-2.41l.55.29C46.48,93.52,46.07,94.4,46.07,94.41Zm2.52-4.7-.53-.31c.41-.71.87-1.48,1.38-2.3l.53.33C49.46,88.24,49,89,48.59,89.71Zm2.82-4.53-.52-.34c.47-.71,1-1.45,1.51-2.22l.51.36C52.38,83.74,51.88,84.48,51.41,85.18Zm3.06-4.36L54,80.45c.52-.7,1.06-1.41,1.63-2.13l.49.38C55.52,79.42,55,80.12,54.47,80.82Zm3.28-4.19-.48-.4c.56-.68,1.14-1.36,1.73-2l.47.41C58.88,75.28,58.3,76,57.75,76.63Zm3.51-4-.46-.42c.6-.65,1.22-1.29,1.85-1.94l.44.44Q62.15,71.66,61.26,72.62ZM65,68.83l-.43-.45c.64-.61,1.3-1.21,2-1.81l.41.46Zm4-3.54-.39-.48c.67-.56,1.37-1.13,2.08-1.68l.38.49C70.32,64.17,69.63,64.73,69,65.29ZM73.15,62l-.37-.51c.72-.52,1.46-1,2.21-1.52l.34.51C74.59,61,73.86,61.51,73.15,62Zm4.42-3-.33-.53c.77-.46,1.55-.92,2.32-1.35l.3.55C79.1,58.17,78.33,58.62,77.57,59.08ZM82.2,56.5l-.28-.56c.81-.4,1.62-.79,2.42-1.15l.26.57C83.8,55.71,83,56.1,82.2,56.5ZM87,54.32l-.23-.58c.82-.33,1.66-.65,2.51-.94l.2.58C88.69,53.68,87.85,54,87,54.32Zm5-1.75-.18-.6c.84-.25,1.71-.49,2.58-.71l.15.61C93.74,52.09,92.88,52.32,92.05,52.57Zm5.14-1.28-.12-.61c.87-.18,1.76-.33,2.63-.46l.1.61C98.93,51,98.06,51.12,97.19,51.29Zm5.24-.8-.07-.62c.88-.09,1.78-.16,2.67-.22l0,.62C104.19,50.33,103.3,50.4,102.43,50.49Z"/><path class="cls-2" d="M43.3,101.06l-.59-.21a25.35,25.35,0,0,1,1.08-2.49l.56.27A23.6,23.6,0,0,0,43.3,101.06Zm2.27-4.79L45,96c.42-.77.87-1.55,1.35-2.33l.53.33C46.43,94.74,46,95.51,45.57,96.27Zm2.75-4.55-.52-.34c.47-.71,1-1.44,1.53-2.21l.5.37C49.29,90.29,48.79,91,48.32,91.72Zm3.09-4.32L50.92,87c.52-.68,1.08-1.38,1.67-2.1l.48.4C52.49,86,51.93,86.72,51.41,87.4Zm3.37-4.11-.47-.41c.57-.65,1.17-1.32,1.79-2l.46.42C55.94,82,55.35,82.64,54.78,83.29Zm3.61-3.9L58,79q.91-.93,1.89-1.89l.44.45C59.63,78.14,59,78.77,58.39,79.39Zm3.82-3.7-.42-.46c.64-.59,1.31-1.19,2-1.79l.41.47C63.51,74.51,62.85,75.1,62.21,75.69Zm4-3.5-.4-.48c.67-.56,1.37-1.12,2.08-1.68l.38.48C67.58,71.07,66.89,71.63,66.22,72.19Zm4.17-3.3-.38-.5c.7-.53,1.42-1,2.16-1.58l.36.5C71.8,67.84,71.09,68.36,70.39,68.89Zm4.32-3.1-.36-.52c.73-.5,1.47-1,2.23-1.49l.34.52C76.16,64.8,75.43,65.29,74.71,65.79Zm4.45-2.92-.33-.53c.74-.46,1.5-.93,2.28-1.39l.31.53C80.65,61.94,79.9,62.41,79.16,62.87Zm4.56-2.73-.31-.54,2.34-1.31.29.55C85.26,59.27,84.48,59.7,83.72,60.14Zm4.67-2.56L88.1,57c.78-.41,1.58-.81,2.38-1.21l.28.55Zm4.76-2.38-.27-.56c.8-.38,1.6-.76,2.42-1.13l.26.57C94.74,54.45,93.94,54.83,93.15,55.2ZM98,53l-.25-.57,2.46-1.05.24.57Zm4.91-2.05-.23-.58,2.49-1,.22.59C104.54,50.29,103.71,50.61,102.9,50.94Zm5-1.91-.21-.58,2.52-.9.2.59C109.53,48.43,108.7,48.73,107.87,49Zm5-1.75-.2-.59,2.54-.82.19.59C114.58,46.73,113.73,47,112.9,47.28ZM118,45.67l-.18-.59c.84-.26,1.69-.51,2.56-.76l.17.6C119.67,45.16,118.82,45.42,118,45.67Zm5.11-1.47-.16-.61,2.58-.69.15.61C124.8,43.73,123.94,44,123.09,44.2Zm5.16-1.35-.16-.6c.86-.22,1.73-.43,2.6-.63l.14.6Zm5.18-1.22-.14-.61,2.61-.57.13.61Zm5.21-1.1-.12-.61c.86-.18,1.74-.35,2.62-.51l.11.61C140.38,40.18,139.5,40.35,138.64,40.53Zm5.23-1-.11-.62,2.64-.45.1.61Zm5.26-.88L149,38l2.64-.4.09.62Zm5.27-.78-.09-.62,2.65-.35.08.62Zm5.28-.67-.07-.62,2.65-.31.07.62Zm5.3-.59-.06-.62,1.65-.16.06.62Z"/><path class="cls-2" d="M57.1,92.3l-.29-.55s.89-.46,2.43-1.16l.26.57C58,91.85,57.1,92.3,57.1,92.3Zm4.84-2.2-.24-.58,2.48-1,.23.58C63.52,89.44,62.69,89.78,61.94,90.1Zm5-1.95-.22-.59,2.53-.9.2.59C68.53,87.55,67.7,87.85,66.9,88.15Zm58.38-1.3c-.46-.23-.92-.46-1.39-.67l.27-.57,1.4.68Zm-53.34-.43-.19-.6c.82-.26,1.68-.52,2.56-.78l.17.59C73.61,85.89,72.76,86.15,71.94,86.42Zm49.52-1.27c-.82-.32-1.66-.63-2.49-.9l.19-.59c.85.28,1.7.58,2.52.91ZM77,84.91l-.16-.6c.85-.23,1.71-.45,2.6-.66l.14.6C78.75,84.46,77.89,84.69,77,84.91Zm5.18-1.26L82.08,83c.87-.19,1.74-.37,2.63-.53l.11.61C83.94,83.28,83.07,83.46,82.22,83.65Zm34.21-.16c-.85-.23-1.72-.44-2.58-.63l.13-.61c.88.19,1.75.41,2.61.64Zm-29-.84-.1-.61c.88-.15,1.76-.28,2.65-.4l.08.62C89.19,82.38,88.31,82.51,87.44,82.65Zm23.81-.29c-.86-.14-1.74-.27-2.63-.38l.08-.62c.89.11,1.78.24,2.65.39ZM92.72,82l-.07-.62c.89-.09,1.78-.17,2.67-.23l0,.62C94.48,81.78,93.59,81.86,92.72,82ZM106,81.72c-.88-.07-1.77-.12-2.65-.15l0-.62c.89,0,1.79.08,2.68.15Zm-8-.15L98,81c.89,0,1.78,0,2.67,0v.62C99.79,81.52,98.9,81.54,98,81.57Z"/><path class="cls-2" d="M57.1,90.69l-.29-.55s.86-.45,2.42-1.18l.26.57C57.94,90.25,57.1,90.69,57.1,90.69Zm4.82-2.26-.25-.57c.74-.33,1.56-.68,2.46-1.06l.24.57Zm4.92-2.07-.23-.57c.78-.32,1.62-.65,2.49-1l.22.58C68.45,85.72,67.62,86.05,66.84,86.36Zm5-1.91-.22-.58q1.22-.45,2.52-.9l.21.58Zm5-1.76-.2-.59,2.54-.84.19.59Zm5.07-1.63-.18-.6,2.56-.76.17.59ZM87,79.56l-.17-.6,2.58-.7.16.6Zm97.16-.24-2.55-.77.18-.59c.85.25,1.7.5,2.55.77Zm-92-1.12L92,77.6c.85-.22,1.72-.43,2.6-.63l.14.6Zm86.9-.37c-.86-.23-1.71-.46-2.57-.67l.15-.61,2.59.68ZM97.38,77l-.14-.61,2.61-.56.13.61Zm76.56-.45c-.87-.21-1.74-.4-2.6-.59l.13-.61,2.61.59Zm-71.35-.64-.12-.61,2.63-.49.11.61Zm66.15-.49c-.88-.17-1.75-.34-2.62-.49l.11-.61c.87.15,1.75.32,2.63.49ZM107.84,75l-.11-.62,2.64-.42.1.62C109.58,74.66,108.71,74.8,107.84,75Zm55.66-.49-2.63-.4.09-.62,2.64.41Zm-50.4-.32-.08-.61,2.65-.35.08.62Zm45.13-.44-2.64-.31.07-.62,2.65.31Zm-39.84-.21-.07-.62L121,72.6l.06.62Zm34.55-.37-2.65-.22.05-.62,2.66.22ZM123.69,73l0-.62c.89-.07,1.78-.14,2.67-.19l0,.62Zm23.94-.27L145,72.58l0-.62c.89,0,1.78.08,2.67.14ZM129,72.65l0-.63,2.67-.11,0,.62C130.78,72.56,129.89,72.6,129,72.65Zm13.31-.16-2.67,0v-.62c.89,0,1.78,0,2.67.05Zm-8,0v-.62q1.34,0,2.67,0v.62C136.1,72.43,135.22,72.44,134.33,72.46Z"/><path class="cls-3" d="M182.72,27.65a5.17,5.17,0,0,0-4.44,7.87l4,8.13.38.75.37-.75,4-8a5.18,5.18,0,0,0-4.36-8Zm0,8.58a3.48,3.48,0,1,1,3.47-3.48A3.47,3.47,0,0,1,182.7,36.23Z"/><path class="cls-3" d="M106.9,34.72a5.17,5.17,0,0,0-4.44,7.87l4,8.12.38.76.37-.76,4-8.05a5.12,5.12,0,0,0,.8-2.76A5.18,5.18,0,0,0,106.9,34.72Zm0,8.57a3.48,3.48,0,1,1,3.47-3.47A3.47,3.47,0,0,1,106.88,43.29Z"/><path class="cls-3" d="M166.79,25a3.63,3.63,0,0,0-3.11,5.5l2.83,5.68.26.53.26-.53,2.81-5.63A3.62,3.62,0,0,0,166.79,25Zm0,6a2.43,2.43,0,1,1,2.42-2.43A2.43,2.43,0,0,1,166.78,31Z"/><path class="cls-3" d="M83.08,22.71A3.62,3.62,0,0,0,80,28.21l2.83,5.68.26.53.26-.53,2.8-5.63a3.55,3.55,0,0,0,.56-1.93A3.61,3.61,0,0,0,83.08,22.71Zm0,6a2.43,2.43,0,1,1,2.43-2.43A2.43,2.43,0,0,1,83.06,28.7Z"/><path class="cls-3" d="M263,80.65a5.21,5.21,0,0,0-5.2,5.12,5.14,5.14,0,0,0,.76,2.75l4,8.13.38.75.37-.75,4-8.05a5.13,5.13,0,0,0,.8-2.77A5.18,5.18,0,0,0,263,80.65Zm0,8.58a3.48,3.48,0,1,1,3.48-3.48A3.47,3.47,0,0,1,263,89.23Z"/><path class="cls-3" d="M125.07,70.57a5.17,5.17,0,0,0-4.44,7.87l4,8.13.38.75.37-.75,4-8.06a5.12,5.12,0,0,0,.8-2.76A5.18,5.18,0,0,0,125.07,70.57Zm0,8.57a3.47,3.47,0,1,1,3.47-3.47A3.47,3.47,0,0,1,125.05,79.14Z"/><path class="cls-3" d="M240,37.24a5.21,5.21,0,0,0-5.2,5.12,5.14,5.14,0,0,0,.76,2.75l4,8.13L240,54l.37-.75,4-8.05a5.13,5.13,0,0,0,.8-2.77A5.18,5.18,0,0,0,240,37.24Zm0,8.58a3.48,3.48,0,1,1,3.47-3.47A3.47,3.47,0,0,1,240,45.82Z"/><circle class="cls-4" cx="239.99" cy="42.35" r="3.48"/><circle class="cls-4" cx="182.7" cy="32.75" r="3.48"/><circle class="cls-5" cx="166.78" cy="28.69" r="2.36"/><circle class="cls-5" cx="83.06" cy="26.32" r="2.36"/><circle class="cls-4" cx="106.88" cy="39.68" r="3.48"/><circle class="cls-4" cx="262.97" cy="85.75" r="3.48"/><path class="cls-3" d="M185.63,63.57a5.17,5.17,0,0,0-4.44,7.87l4,8.13.38.75.37-.75,4-8.06a5.12,5.12,0,0,0,.8-2.76A5.18,5.18,0,0,0,185.63,63.57Zm0,8.57a3.47,3.47,0,1,1,3.48-3.47A3.47,3.47,0,0,1,185.61,72.14Z"/><circle class="cls-4" cx="185.61" cy="68.67" r="3.48"/><circle class="cls-4" cx="125.05" cy="75.71" r="3.48"/><path class="cls-1" d="M48.38,60.7l-3.94-3C43,56.44,39.77,57,38.81,57.1l-4,.45a.87.87,0,0,0,.24-.57.85.85,0,0,0-.84-.84H31.8l-2-1.1a.72.72,0,0,0-.07-1.43H27.2l-5.59-3.08H20.54a.34.34,0,0,0-.22.61l9,7.06-12.41,1.4-4.8-3.86L11,56l1.3,4.33-2.74,0-.64.59,3.77.72.07.21,18.9.11L27.9,67.06v.42a.39.39,0,0,0,.63.31l1.53-1.12h1.5a.6.6,0,0,0,.1-1.19l.6-.44h1.56a.72.72,0,0,0,.3-1.38l2.4-1.76L46,62h2A.72.72,0,0,0,48.38,60.7Z"/><rect class="cls-6" y="89.36" width="84.95" height="84.95"/><rect class="cls-7" x="19.67" y="89.36" width="84.95" height="84.95"/><rect class="cls-8" x="70.41" y="101.43" width="26.16" height="12.68"/><polygon class="cls-6" points="41.46 154.55 36.98 163.5 39.52 163.5 39.52 170.08 43.4 170.08 43.4 163.5 45.93 163.5 41.46 154.55"/><path class="cls-6" d="M27.61,154.55v6.64a4.55,4.55,0,0,0,3.56,4.43V168c-2,.23-3.56,1.13-3.56,2.22h9.08c0-1.09-1.52-2-3.56-2.22v-2.34a4.54,4.54,0,0,0,3.56-4.43h0v-6.64Z"/><rect class="cls-6" x="52.31" y="89.36" width="13.43" height="24.76"/></svg>