<?xml version="1.0" encoding="utf-8"?>
<!-- Generator: Adobe Illustrator 22.1.0, SVG Export Plug-In . SVG Version: 6.00 Build 0)  -->
<svg version="1.1" id="Layer_1" xmlns="http://www.w3.org/2000/svg" xmlns:xlink="http://www.w3.org/1999/xlink" x="0px" y="0px"
	 viewBox="0 0 140 100" style="enable-background:new 0 0 140 100;" xml:space="preserve">
<style type="text/css">
	.st0{fill:#A88158;}
	.st1{fill:#303030;}
	.st2{fill:#D9AD85;}
	.st3{fill:#F3D4BC;}
	.st4{fill:#E1C5A9;}
	.st5{fill:#00A8CD;}
	.st6{fill:#A9A9A9;}
	.st7{fill:#E0E0E0;}
</style>
<title>Service 10</title>
<g>
	<polygon class="st0" points="87.5,0.1 49.6,0.1 39.6,16 39.6,57.9 97.5,57.9 97.5,16 	"/>
	<g>
		<path class="st1" d="M76.5,50.9h-16c-0.6,0-1,0.4-1,1c0,0.6,0.4,1,1,1h16c0.6,0,1-0.4,1-1C77.5,51.4,77.1,50.9,76.5,50.9z"/>
		<path class="st1" d="M60.6,43c0.3,0,0.5-0.1,0.7-0.3l1.3-1.3v6.6c0,0.6,0.4,1,1,1s1-0.4,1-1v-6.6l1.3,1.3c0.2,0.2,0.4,0.3,0.7,0.3
			c0.3,0,0.5-0.1,0.7-0.3c0.4-0.4,0.4-1,0-1.4l-3-3c-0.1-0.1-0.2-0.2-0.3-0.2c-0.2-0.1-0.5-0.1-0.8,0c-0.1,0.1-0.2,0.1-0.3,0.2l-3,3
			c-0.4,0.4-0.4,1,0,1.4C60.1,42.9,60.3,43,60.6,43z"/>
		<path class="st1" d="M70.5,43c0.3,0,0.5-0.1,0.7-0.3l1.3-1.3v6.6c0,0.6,0.4,1,1,1c0.6,0,1-0.4,1-1v-6.6l1.3,1.3
			c0.2,0.2,0.4,0.3,0.7,0.3s0.5-0.1,0.7-0.3c0.4-0.4,0.4-1,0-1.4l-3-3c-0.1-0.1-0.2-0.2-0.3-0.2c-0.2-0.1-0.5-0.1-0.8,0
			c-0.1,0.1-0.2,0.1-0.3,0.2l-3,3c-0.4,0.4-0.4,1,0,1.4C70,42.9,70.3,43,70.5,43z"/>
	</g>
	<polygon class="st2" points="49.6,0.1 39.6,16 97.5,16 87.5,0.1 	"/>
	<polygon class="st3" points="65.9,0.1 72.8,0.1 74.5,16 62.6,16 	"/>
	<rect x="62.6" y="16" class="st4" width="11.9" height="13.4"/>
</g>
<rect x="54.9" y="85.6" class="st5" width="27.2" height="5.4"/>
<rect x="62.4" y="60.5" class="st6" width="12.3" height="6.5"/>
<path class="st5" d="M75.1,63.4H61.9c-3.5,0-6.6-2.2-7.7-5.5l0,0h28.7v0C81.7,61.2,78.6,63.4,75.1,63.4z"/>
<g>
	<circle class="st7" cx="68.5" cy="77.4" r="12.1"/>
	<g>
		<circle class="st6" cx="68.5" cy="68.6" r="1.2"/>
		<circle class="st6" cx="68.5" cy="86.3" r="1.2"/>
	</g>
	<g>
		<circle class="st6" cx="77.3" cy="77.4" r="1.2"/>
		<circle class="st6" cx="59.7" cy="77.4" r="1.2"/>
	</g>
</g>
<polygon class="st5" points="64.2,71.9 68.8,78.2 70.6,76.4 "/>
</svg>
