<?xml version="1.0" encoding="utf-8"?>
<!-- Generator: Adobe Illustrator 22.1.0, SVG Export Plug-In . SVG Version: 6.00 Build 0)  -->
<svg version="1.1" id="Layer_1" xmlns="http://www.w3.org/2000/svg" xmlns:xlink="http://www.w3.org/1999/xlink" x="0px" y="0px"
	 viewBox="0 0 140 100" style="enable-background:new 0 0 140 100;" xml:space="preserve">
<style type="text/css">
	.st0{fill:#FFD25A;}
	.st1{fill:#A5724F;}
	.st2{fill:#EABD8D;}
	.st3{opacity:0.2;fill:#FFFFFF;enable-background:new    ;}
</style>
<title>Service 6</title>
<path class="st0" d="M46.3,55.3C39.6,62.1,34.6,72,35.9,78.2c6.2,1.3,16.5-3.3,23.3-10s8.1-13.8,6.8-20
	C59.7,46.8,53.1,48.5,46.3,55.3z M58.5,63.3c-3.8,3.8-8.7,5.7-12.2,4.9c-0.8-3.5,1-8.3,4.9-12.2s8.7-5.6,12.2-4.9
	C64.2,54.7,62.4,59.5,58.5,63.3L58.5,63.3z"/>
<path class="st0" d="M32.8,81.6l-4.5,4.3V86c4,0.1,8.4-0.9,13.4-4.7C38.5,82.7,35.2,82.9,32.8,81.6z"/>
<path class="st0" d="M32.8,81.6l-4.5,4.3h-0.1c-0.2-3.8,0.6-7.9,4.5-12.7C31.4,76.3,31.4,79.4,32.8,81.6z"/>
<path class="st0" d="M25.8,88.7l-1.9,1.8l0,0c2.1,0,4.1-0.7,5.6-2C28.3,89.1,27,89.2,25.8,88.7z"/>
<path class="st0" d="M25.8,88.7l-1.9,1.8l0,0c-0.1-2,0.6-3.9,1.9-5.3C25.2,86.3,25.2,87.6,25.8,88.7z"/>
<polygon class="st1" points="116.2,29 95.5,55.8 59.9,18.1 87.2,0 "/>
<polygon class="st2" points="69.7,75.1 95.5,55.8 59.9,18.1 40.1,45.5 "/>
<polygon class="st3" points="52,57.2 75.2,34.2 81.6,41.1 57.2,62.6 "/>
<polygon class="st3" points="104.9,17.7 81.6,41.1 75.2,34.2 99.7,12.6 "/>
<polygon class="st3" points="105.8,42.5 73.1,9.4 79.1,5.4 109.7,37.5 "/>
</svg>
