<?xml version="1.0" encoding="utf-8"?>
<!-- Generator: Adobe Illustrator 22.1.0, SVG Export Plug-In . SVG Version: 6.00 Build 0)  -->
<svg version="1.1" id="Layer_1" xmlns="http://www.w3.org/2000/svg" xmlns:xlink="http://www.w3.org/1999/xlink" x="0px" y="0px"
	 viewBox="0 0 140 100" style="enable-background:new 0 0 140 100;" xml:space="preserve">
<style type="text/css">
	.st0{fill:#BCBEC0;}
	.st1{fill:none;}
	.st2{fill:#00A9CE;}
	.st3{fill:#4D72B8;}
	.st4{opacity:0.2;}
	.st5{fill:#FFFFFF;}
	.st6{fill:#C58C5C;}
	.st7{fill:#A27150;}
	.st8{fill:#E5E6E6;}
	.st9{fill:#BCBDBF;}
	.st10{fill:#69331B;}
</style>
<title>Service 8</title>
<path class="st0" d="M60.2,88.8c-6.3,0-11.4-5.1-11.4-11.4c-0.1-1,0.6-1.8,1.6-1.9c1-0.1,1.8,0.6,1.9,1.6c0,0.1,0,0.2,0,0.3
	c0.2,4.4,3.8,7.8,8.2,7.6c4.2-0.1,7.5-3.5,7.6-7.6V1.8c-0.1-1,0.6-1.8,1.6-1.9s1.8,0.6,1.9,1.6c0,0.1,0,0.2,0,0.3v75.7
	C71.6,83.7,66.5,88.8,60.2,88.8z"/>
<path class="st1" d="M87.8,43.5l0.3,0.2L87.8,43.5z"/>
<path class="st1" d="M65.2,43.8c-0.1-0.1-0.3-0.2-0.5-0.2C64.9,43.6,65.1,43.7,65.2,43.8z"/>
<path class="st1" d="M50.4,43.8L50.1,44c-0.6,0.4-1.2,0.9-1.7,1.5C48.9,44.8,49.6,44.3,50.4,43.8z"/>
<path class="st1" d="M90.4,45.4c-0.5-0.6-1.1-1.1-1.7-1.5l-0.3-0.2C89.1,44.2,89.8,44.8,90.4,45.4z"/>
<path class="st2" d="M50.4,43.8c0.2-0.1,0.3-0.2,0.5-0.3C50.7,43.6,50.5,43.7,50.4,43.8z"/>
<path class="st2" d="M59.9,5.8c-4.7,0.9-9.2,2.5-13.4,4.7l-0.4,0.2c-0.4,0.2-0.8,0.4-1.1,0.6C32.3,18.6,24,31,24,45.2
	c0,0.4,0,0.8,0,1.2v0.1c0,0.6-0.1,1.2-0.1,1.8c0,0.2,0.1,0.3,0.2,0.4c0.2,0.2,0.6,0.2,0.8,0c0,0,0,0,0,0c0.1-0.1,0.1-0.1,0.1-0.2
	c2.7-7.4,12.2-8.1,18.2-4.3c1.4,0.9,2.5,2.2,3.2,3.7c0.2,0.4,0.6,0.5,0.9,0.4c0,0,0,0,0.1,0c0.1,0,0.2-0.1,0.2-0.1
	c0.4-0.9,0.9-1.7,1.6-2.5c0.5-0.6,1.1-1.1,1.8-1.5l0.3-0.2c0.2-0.1,0.3-0.2,0.5-0.3h0.1c0.8-0.5,1.7-0.9,2.7-1.1
	c-0.7-3.8-1.1-7.6-1.1-11.5C53.5,20.8,56,11.7,59.9,5.8z"/>
<path class="st2" d="M93.5,10.5C89.3,8.3,84.7,6.7,80,5.8c3.9,5.9,6.4,15,6.4,25.2c0,3.8-0.4,7.7-1.1,11.5c0.9,0.3,1.9,0.7,2.7,1.1
	l0.3,0.2l0.2,0.1l0.3,0.2c0.6,0.4,1.2,0.9,1.7,1.5c0.7,0.7,1.3,1.5,1.7,2.4c0.3,0.3,0.8,0.3,1.2,0c0.1-0.1,0.1-0.1,0.1-0.2
	c0.7-1.5,1.8-2.8,3.2-3.8c5.8-3.6,15.5-3.1,18.1,4.2c0.1,0.3,0.4,0.5,0.8,0.3c0.1,0,0.2-0.1,0.2-0.1c0.1-0.8,0.1-1.5,0.1-2.2
	c0-0.4,0.1-0.8,0.1-1.2C116,30.4,107,17.6,93.5,10.5z"/>
<path class="st3" d="M80.4,5.9c-6.9-1.4-14-1.4-20.9,0c-3.9,5.9-6.4,15-6.4,25.2c0,3.8,0.4,7.7,1.1,11.5c3.7-1.1,7.7-0.6,11.1,1.2
	c0.2,0.1,0.3,0.2,0.5,0.2l0,0c1.7,1,3,2.5,3.7,4.3c0.1,0.3,0.4,0.4,0.6,0.3c0.1-0.1,0.2-0.2,0.3-0.3c0.9-2.1,2.4-3.7,4.4-4.8h0.1
	c2.1-1.1,4.4-1.6,6.7-1.6c1.4,0,2.8,0.2,4.1,0.6c0.7-3.8,1.1-7.6,1.1-11.5C86.8,20.9,84.3,11.8,80.4,5.9z"/>
<g class="st4">
	<path class="st5" d="M53.6,24.2c0.9-7.3,3-13.8,6-18.3c-4.7,0.9-9.2,2.5-13.4,4.7l-0.3,0.2c-0.4,0.2-0.8,0.4-1.1,0.6
		c-0.6,0.4-1.3,0.8-1.9,1.2C42.8,16.5,46.9,20.6,53.6,24.2z"/>
	<path class="st5" d="M93.9,10.6c-4.2-2.2-8.8-3.8-13.5-4.8c3.9,5.9,6.4,15,6.4,25.2c0,0.7,0,1.3-0.1,2c11.1,0.9,20.7-0.3,26.2-3.1
		C108.9,21.6,102.2,14.8,93.9,10.6z"/>
	<path class="st5" d="M77.9,32.1c3,0.5,5.9,0.9,8.8,1.1c0-0.7,0.1-1.3,0.1-2c0-10.2-2.5-19.3-6.4-25.2c-6.9-1.4-14-1.4-20.9,0
		c-3,4.5-5.1,10.9-5.9,18.3C59.8,27.6,68.4,30.4,77.9,32.1z"/>
</g>
<rect x="78.3" y="64.5" class="st6" width="33.3" height="25.2"/>
<rect x="78.3" y="64.5" class="st7" width="12.4" height="25.2"/>
<rect x="92.3" y="66.6" class="st8" width="14.1" height="3.9"/>
<rect x="93.1" y="67.4" class="st9" width="5.5" height="0.5"/>
<rect x="93.1" y="68.3" class="st9" width="4.2" height="0.5"/>
<rect x="93.1" y="69.2" class="st9" width="5.9" height="0.5"/>
<rect x="101.8" y="67.3" class="st9" width="0.3" height="2.7"/>
<rect x="105.2" y="67.3" class="st9" width="0.3" height="2.7"/>
<rect x="102.4" y="67.3" class="st9" width="0.2" height="2"/>
<rect x="102.9" y="67.3" class="st9" width="0.2" height="2"/>
<rect x="103.4" y="67.3" class="st9" width="0.2" height="2"/>
<rect x="103.8" y="67.3" class="st9" width="0.2" height="2"/>
<rect x="104.3" y="67.3" class="st9" width="0.2" height="2"/>
<rect x="104.8" y="67.3" class="st9" width="0.2" height="2"/>
<polygon class="st10" points="93,84.7 92.6,85.3 92.7,85.3 92.7,87.3 93.2,87.3 93.2,85.3 93.4,85.3 "/>
<polygon class="st10" points="94.1,84.7 93.7,85.3 93.8,85.3 93.8,87.3 94.3,87.3 94.3,85.3 94.5,85.3 "/>
<rect x="92.4" y="87.6" class="st10" width="2.3" height="0.3"/>
<path class="st10" d="M97.2,86.2v-1.5h-1.5v1.5c0,0.2,0.1,0.4,0.2,0.5c0.1,0.1,0.2,0.2,0.3,0.2v0.6h-0.5v0.3h1.3v-0.3h-0.5v-0.6
	C97,86.8,97.2,86.5,97.2,86.2z M95.9,86.2v-1.3h1v1.3c0,0.3-0.2,0.5-0.5,0.5c0,0,0,0,0,0c-0.1,0-0.3-0.1-0.3-0.2
	C95.9,86.4,95.9,86.3,95.9,86.2z"/>
<path class="st10" d="M98.5,86.9v0.6H99v0.3h-1.3v-0.3h0.5v-0.6l-0.3-0.2c-0.1-0.1-0.2-0.3-0.2-0.5v-1.5H99v1.4
	C99.1,86.5,98.9,86.8,98.5,86.9z"/>
<path class="st10" d="M101.2,84.8c-0.7,0-1.3,0.5-1.3,1.3c0,0,0,0,0,0l0,0c0.1-0.1,0.2-0.1,0.3-0.1c0.1,0,0.3,0.1,0.3,0.1h0.1
	c0.1-0.1,0.2-0.1,0.3-0.1c0.1,0,0.2,0,0.2,0.1v1.6l0,0c0,0.1,0,0.1-0.1,0.1s-0.1,0-0.1-0.1c0,0,0,0,0-0.1h-0.2
	c0,0.1,0.1,0.3,0.2,0.3c0,0,0,0,0,0c0.2,0,0.3-0.1,0.3-0.3c0,0,0,0,0,0v-1.6c0-0.1,0.2-0.1,0.2-0.1s0.3,0.1,0.3,0.1h0.1
	c0.1-0.1,0.2-0.1,0.3-0.1c0.1,0,0.3,0.1,0.3,0.1l0,0C102.5,85.3,101.8,84.8,101.2,84.8z"/>
</svg>
