<?xml version="1.0" encoding="utf-8"?>
<!-- Generator: Adobe Illustrator 22.1.0, SVG Export Plug-In . SVG Version: 6.00 Build 0)  -->
<svg version="1.1" id="Layer_1" xmlns="http://www.w3.org/2000/svg" xmlns:xlink="http://www.w3.org/1999/xlink" x="0px" y="0px"
	 viewBox="0 0 140 100" style="enable-background:new 0 0 140 100;" xml:space="preserve">
<style type="text/css">
	.st0{fill:#C9905C;}
	.st1{fill:#EABC8C;}
	.st2{fill:#945C49;}
	.st3{fill:#AF784A;}
	.st4{fill:#20284D;}
	.st5{fill:#A5714F;}
	.st6{fill:#BF8D5E;}
	.st7{fill:#242E3F;}
	.st8{fill:#364765;}
	.st9{fill:#5A82AB;}
	.st10{fill:#8E745D;}
	.st11{fill:#1F272D;}
	.st12{fill:#FFFFFF;}
	.st13{fill:#67CDF1;}
	.st14{fill:#19C2ED;}
	.st15{fill:#767676;}
	.st16{fill:#0391C5;}
	.st17{fill:#DB4B42;}
	.st18{fill:#F1D418;}
	.st19{fill:#3AB986;}
	.st20{fill:#98989A;}
</style>
<title>Service 3</title>
<polygon class="st0" points="18.9,38.2 29.3,32.2 19.4,27.4 9.6,32.2 "/>
<polygon class="st1" points="9.6,32.2 5.1,32.7 15.3,27.6 19.4,27.4 "/>
<polygon class="st1" points="19.4,27.4 24.1,27.4 33.5,31.9 29.3,32.2 "/>
<polygon class="st2" points="19.4,27.4 19.4,37.8 29.3,32.2 "/>
<polygon class="st3" points="19.4,27.4 17.1,37 18.9,38.2 19.4,37.8 "/>
<path class="st4" d="M16.6,40.6C14.3,10.8,25.2,3.6,30,1.8C36.1-0.3,42.8,2,46.4,7.3l-2,1.3c-3-4.4-8.6-6.3-13.7-4.6
	C21.8,7.2,17.5,20.8,19,40.4L16.6,40.6z"/>
<polygon class="st4" points="42.4,8.7 47.2,11.7 47.5,6 "/>
<polygon class="st5" points="9.6,32.2 9.6,43.8 18.9,49.3 18.9,38.2 "/>
<polygon class="st0" points="29.3,32.2 18.9,38.2 18.9,49.3 29.3,43.3 "/>
<polygon class="st6" points="5.1,37 5.1,37.2 13.9,44 18.9,38.2 "/>
<polygon class="st1" points="9.6,32.2 5.1,37 13.9,43.6 18.7,38 "/>
<polygon class="st6" points="33.5,37.2 33.5,37.4 23.6,44.2 18.9,38.2 "/>
<polygon class="st1" points="29.3,32.2 33.5,37.2 23.7,43.9 19,38 "/>
<polygon class="st0" points="120.3,38.2 130.8,32 120.8,27.4 111,32.2 "/>
<polygon class="st1" points="111,32.2 106.4,32.7 116.7,27.6 120.8,27.4 "/>
<polygon class="st1" points="120.8,27.4 125.5,27.3 134.9,31.8 130.8,32 "/>
<polygon class="st2" points="120.8,27.4 120.9,37.8 130.8,32 "/>
<polygon class="st3" points="120.8,27.4 118.6,37 120.3,38.2 120.9,37.8 "/>
<polygon class="st0" points="68.8,45.4 94.4,31 70.4,19.2 46.2,30.7 "/>
<polygon class="st1" points="46.2,30.7 35.3,31.6 60.3,19.6 70.4,19.2 "/>
<polygon class="st1" points="70.4,19.2 81.8,19.3 104.8,30.4 94.4,31 "/>
<polygon class="st2" points="70.4,19.2 70.2,44.5 94.4,31 "/>
<polygon class="st3" points="70.4,19.2 64.7,42.6 68.8,45.4 70.2,44.5 "/>
<polygon class="st7" points="65,5.7 68.8,4.2 73.5,5.7 78.7,55.9 69.4,56.8 68.5,45.9 67.7,56.7 58.1,55.8 "/>
<path class="st8" d="M52.8,18.2c0.9-2.6,1.8-5.3,2.8-7.8c0,0-0.7-1.9,7.7-3.5l3-0.7l-0.2,21.2l-4.7,33l-7.9-1.5c0,0-0.5-0.3-0.5-1.3
	s4.4-26.3,4.4-26.3l-0.4-10.5l-2,10.2l6.1,8.3c0,0.1-2,0.2-2,0.3v0.2c-0.2,0.5-0.7,0.8-1.3,0.6c-0.2-0.1-0.4-0.2-0.5-0.4l-7.7-8
	c-0.3-0.4-0.4-1-0.2-1.5C50.4,26.4,51.5,22.3,52.8,18.2z"/>
<path class="st8" d="M84.4,18.5c-0.8-2.7-1.7-5.3-2.7-7.9c0,0,0.7-1.9-7.6-3.6l-3-0.7l-0.2,21.2l4.1,33l8-1.4
	c0.4-0.3,0.6-0.7,0.4-1.2c-0.1-1-4-26.3-4-26.3L80.1,21l1.8,10.3l-4.2,8.3c0,0.1-0.1,0.2,0,0.3v0.2c0.2,0.5,0.7,0.8,1.3,0.6
	c0.2-0.1,0.4-0.2,0.5-0.4l7.8-8c0.3-0.4,0.4-1,0.3-1.5C86.7,26.7,85.7,22.5,84.4,18.5z"/>
<path class="st9" d="M78,6.6c-1.2-1.5-2.7-2.9-4.4-3.9c-1.4-0.9-3-1.4-4.7-1.5c-1,0-1.9,0.1-2.8,0.4c-1.4,0.5-2.7,1.2-3.8,2.2
	c-1,0.8-1.9,1.7-2.8,2.7c-0.2,0.2-0.1,0.4,0.2,0.6l5.7,1.2l0.8,1.9l-4.6,0.4c-0.2,0-0.4,0.2-0.3,0.4l4.9,15.5l0.5-18.9
	C67,6.6,67.8,6,68.6,6.1h0.2c1,0.1,1.7,0.7,1.7,1.5l0.3,18.9l5-15.5c0.1-0.1-0.1-0.4-0.3-0.4l-4.5-0.5l0.9-2L77.8,7
	C78,7,78.1,6.7,78,6.6z"/>
<circle class="st10" cx="61" cy="19.4" r="1"/>
<circle class="st10" cx="62" cy="26" r="1"/>
<circle class="st10" cx="62" cy="32.7" r="1"/>
<circle class="st10" cx="60.1" cy="39.2" r="1"/>
<polygon class="st11" points="65,11.7 62.9,12.1 62.8,11.9 65,11.5 "/>
<circle class="st10" cx="76.3" cy="19.5" r="1"/>
<circle class="st10" cx="75.3" cy="26.2" r="1"/>
<circle class="st10" cx="75.3" cy="32.8" r="1"/>
<circle class="st10" cx="77.1" cy="39.3" r="1"/>
<polygon class="st11" points="72.3,11.8 74.4,12.2 74.5,11.9 72.4,11.6 "/>
<path class="st12" d="M69.3,54.1l-11.8,1.6c-1.2,0.1-2.3-0.7-2.5-1.9l-2.9-22.2c-0.1-1.2,0.7-2.3,1.9-2.5l11.8-1.6
	c1.2-0.1,2.3,0.7,2.5,1.9l2.9,22.2C71.3,52.8,70.5,53.9,69.3,54.1z"/>
<rect x="54.6" y="29.6" transform="matrix(0.9916 -0.1297 0.1297 0.9916 -4.8006 8.3336)" class="st13" width="14" height="22.9"/>
<polygon class="st14" points="67.3,31.3 56.2,53.3 70,51.6 "/>
<path class="st12" d="M82.6,45.9c-0.2,0.3-0.5,0.5-0.8,0.7c-1.3,0.5-2.8-0.1-4-1c-2.4-1.9-4.5-4.1-6.2-6.6c-0.2-0.2-0.4-0.4-0.4-0.8
	c-0.1-0.3-0.1-0.7-0.1-1c0.1-1,0.3-2,0.5-2.9c0.1-0.3,0.2-0.5,0.4-0.7c0.2-0.2,0.4-0.2,0.5-0.2c0.7-0.2,1.3-0.2,1.9-0.4
	c0.3-0.1,0.7-0.2,1-0.3c0.3-0.3,0.5-0.6,0.7-0.9c0.4-0.9,0.9-1.6,1.3-2.4c0.1-0.2,0.2-0.4,0.2-0.5c0-0.2-0.1-0.4-0.1-0.7
	c-0.2-0.6-0.4-1.2-0.7-1.8c-0.1-0.3-0.1-0.7-0.2-1c0.1-0.3,0.3-0.6,0.6-0.9c0.6-0.7,1.3-1.3,2.1-1.8c0.4-0.2,0.8-0.4,1.3-0.5
	c0.5,0,1,0,1.4,0.1c2.4,0.3,4.7,0.8,7,1.6c0.3,0.1,0.7,0.2,1,0.4c1.3,0.7,2.6,1.5,2.8,2.9c0.1,0.7-0.2,1.4-0.7,1.7
	c-0.3,0.1-0.6,0.2-0.9,0.2c-1,0.1-2,0.4-3,0.8c-0.5,0.2-1,0.4-1.4,0.7c-0.5,0.4-0.8,0.9-1.1,1.5c-1,1.6-2,3.4-2.9,5
	c-0.4,0.6-0.7,1.4-0.8,2.2c0,0.8,0.1,1.6,0.3,2.3c0.2,0.9,0.4,1.6,0.7,2.5c0.1,0.3,0.1,0.6,0.1,0.9C82.9,45.4,82.7,45.6,82.6,45.9z"
	/>
<circle class="st15" cx="74.7" cy="36.9" r="1.3"/>
<circle class="st15" cx="82.7" cy="30.7" r="1.3"/>
<circle class="st12" cx="77" cy="33" r="0.4"/>
<circle class="st12" cx="78.8" cy="30" r="0.4"/>
<circle class="st16" cx="80.1" cy="27.6" r="0.7"/>
<circle class="st17" cx="81.8" cy="24.7" r="0.7"/>
<circle class="st18" cx="79.5" cy="25.2" r="0.7"/>
<circle class="st19" cx="82.5" cy="26.9" r="0.7"/>
<path class="st20" d="M79.9,34.6l-0.4,0.9l-0.9-0.4c-0.1-0.1-0.2,0-0.3,0.1l-0.3,0.7c-0.1,0.1,0,0.2,0.1,0.3l0.9,0.4l-0.4,0.9
	c-0.1,0.1,0,0.2,0.1,0.3l0.7,0.3c0.1,0.1,0.2,0,0.3-0.1l0.4-0.9l0.9,0.4c0.1,0.1,0.2,0,0.3-0.1l0.3-0.7c0.1-0.1,0-0.2-0.1-0.3
	L80.5,36l0.4-0.9c0.1-0.1,0-0.2-0.1-0.3l-0.7-0.3C80.1,34.5,80,34.5,79.9,34.6z"/>
<polygon class="st5" points="46.2,30.7 46,58.9 68.7,72.7 68.8,45.4 "/>
<polygon class="st0" points="94.4,31 68.8,45.4 68.7,72.7 94.3,58.3 "/>
<polygon class="st6" points="35.2,42.3 35.2,42.8 56.5,59.5 68.8,45.4 "/>
<polygon class="st1" points="46.2,30.7 35.2,42.3 56.5,58.6 68.5,45 "/>
<polygon class="st6" points="104.7,43.5 104.7,43.9 80.2,60.3 68.8,45.4 "/>
<polygon class="st1" points="94.4,31 104.7,43.5 80.4,59.5 69.3,45.1 "/>
<circle class="st15" cx="59.9" cy="29.1" r="0.2"/>
<path class="st4" d="M122.3,40.6l-2.4-0.2c1.5-19.4-2.8-33.1-11.7-36.3c-5.1-1.7-10.7,0.2-13.7,4.7l-2-1.3C96.1,2.2,102.8,0,108.9,2
	C113.7,3.7,124.6,10.8,122.3,40.6z"/>
<polygon class="st4" points="91.5,6 91.6,11.7 96.5,8.7 "/>
<polygon class="st5" points="111,32.2 111,43.8 120.4,49.2 120.3,38.2 "/>
<polygon class="st0" points="130.8,32 120.3,38.2 120.4,49.2 130.8,43.2 "/>
<polygon class="st6" points="106.4,37.1 106.4,37.2 115.4,44 120.3,38.2 "/>
<polygon class="st1" points="111,32.2 106.4,37.1 115.3,43.6 120.1,38 "/>
<polygon class="st6" points="134.9,37.1 134.9,37.2 125,44.2 120.3,38.2 "/>
<polygon class="st1" points="130.8,32 134.9,37.1 125.1,43.8 120.5,38 "/>
</svg>
