<?xml version="1.0" encoding="utf-8"?>
<!-- Generator: Adobe Illustrator 22.1.0, SVG Export Plug-In . SVG Version: 6.00 Build 0)  -->
<svg version="1.1" id="Layer_1" xmlns="http://www.w3.org/2000/svg" xmlns:xlink="http://www.w3.org/1999/xlink" x="0px" y="0px"
	 viewBox="0 0 140 100" style="enable-background:new 0 0 140 100;" xml:space="preserve">
<style type="text/css">
	.st0{fill:#FFFFFF;}
	.st1{fill:#D3D3D3;}
	.st2{fill:#EDEDEF;}
	.st3{opacity:0.5;fill:#A0B5AC;enable-background:new    ;}
	.st4{fill:#20284D;}
	.st5{fill:#C4C7D8;}
	.st6{fill:#C9905C;}
	.st7{fill:#EABD8D;}
	.st8{fill:#A5714E;}
	.st9{fill:#4A2808;}
	.st10{fill:#7F4D32;}
	.st11{opacity:0.3;fill:#FFFFFF;enable-background:new    ;}
	.st12{fill:#C4925C;}
	.st13{fill:#D6D6D6;}
</style>
<title>Service 7</title>
<rect x="35.6" y="5.5" transform="matrix(0.1316 -0.9913 0.9913 0.1316 20.2998 118.9641)" class="st0" width="84.8" height="84.8"/>
<path class="st1" d="M114.7,95.8L30.1,84.6L41.4,0L126,11.2L114.7,95.8z M30.7,84.2l83.6,11.1l11.1-83.6L41.8,0.6L30.7,84.2z"/>
<rect x="45.8" y="11.4" transform="matrix(0.1316 -0.9913 0.9913 0.1316 22.2561 117.6743)" class="st2" width="65.1" height="69.5"/>
<polygon class="st3" points="108.5,82.9 80.3,79.2 110.7,65.9 "/>
<polygon class="st4" points="45.1,32.1 48.1,9.3 117,18.5 114.1,40.1 83.6,17 "/>
<polygon class="st5" points="76.1,67.4 62.6,65.7 47.1,52.8 61.2,46.8 "/>
<polygon class="st6" points="79,46.2 99.5,37.7 96.6,59.1 76.1,67.6 "/>
<polygon class="st7" points="61.8,33 82.3,24.5 99.5,37.7 79,46.2 "/>
<polygon class="st8" points="79,46.2 76.1,67.6 58.9,54.4 61.8,33 "/>
<path class="st9" d="M81.9,48.3l4.7-2l-0.7,5l-4.7,1.9L81.9,48.3z M85.8,51.3l0.6-4.7L82,48.4L81.4,53L85.8,51.3z"/>
<path class="st9" d="M83.8,51.3c0.2-0.1,0.4-0.1,0.4,0l0,0l-1.2,0.5l0,0c0-0.1,0.2-0.3,0.5-0.4h0.1v0.2h0.1v-0.2L83.8,51.3z"/>
<polygon class="st9" points="84,49.7 83.9,49.9 83.7,51.4 83.7,51.5 83.6,51.6 83.6,51.4 83.8,50 83.8,49.7 "/>
<path class="st9" d="M84.7,47.8l-0.2,1.5c-0.1,0.3-0.2,0.5-0.5,0.7h-0.1v-0.3h-0.1v0.3h-0.1c-0.2,0.1-0.4,0-0.4-0.3l0.2-1.5
	L84.7,47.8z"/>
<path class="st9" d="M89.4,46.5v0.2c0.5-0.2,0.9,0,0.9,0.4l-1,0.4l-0.2,1.5c0,0.2-0.2,0.4-0.4,0.5c-0.2,0.1-0.3,0-0.3-0.2v0l0.2-0.1
	l0,0c0,0.1,0,0.1,0.1,0.2c0,0,0.1,0,0.1,0c0.1-0.1,0.2-0.2,0.2-0.3l0.2-1.5l-1,0.4c0.2-0.5,0.6-1,1.1-1.2v-0.2L89.4,46.5z"/>
<path class="st9" d="M87.2,46.1l4.7-2l-0.7,5l-4.7,2L87.2,46.1z M91.1,49.1l0.6-4.7l-4.4,1.8l-0.6,4.7L91.1,49.1z"/>
<path class="st9" d="M90.1,46c0,0.1,0,0.1,0,0.2c0,0,0,0.1-0.1,0.1l0,0c0,0,0,0,0-0.1C90.1,46.1,90.1,46,90.1,46z"/>
<path class="st9" d="M90.4,46c0,0.1,0,0.1,0,0.2c0,0,0,0.1-0.1,0.1l0,0c0,0,0,0,0-0.1C90.4,46.1,90.4,46.1,90.4,46z"/>
<path class="st9" d="M89.8,45.8c0,0.1,0,0.1,0,0.2c0,0,0,0.1-0.1,0.1l0,0c0,0,0,0,0-0.1C89.7,45.9,89.7,45.9,89.8,45.8z"/>
<path class="st9" d="M90.6,45.5c0,0.1,0,0.1,0,0.2c0,0,0,0.1-0.1,0.1l0,0c0,0,0,0,0-0.1C90.5,45.6,90.5,45.6,90.6,45.5z"/>
<path class="st9" d="M90.2,45.5c0,0.1,0,0.1,0,0.2c0,0,0,0.1-0.1,0.1l0,0c0,0,0,0,0-0.1C90.2,45.5,90.2,45.5,90.2,45.5z"/>
<polygon class="st9" points="95.4,46.5 95.4,46.8 93.4,47.6 93.4,47.3 "/>
<polygon class="st9" points="95.3,43.4 95.6,44.1 95.3,44.2 95,46.5 94.8,46.5 95.1,44.3 94.9,44.4 "/>
<path class="st9" d="M92.6,43.8l4.7-2l-0.7,5l-4.7,2L92.6,43.8z M96.5,46.8l0.6-4.7L92.7,44l-0.6,4.7L96.5,46.8z"/>
<polygon class="st9" points="94.4,43.8 94.6,44.5 94.4,44.6 94.1,46.8 93.9,46.9 94.2,44.7 94,44.8 "/>
<path class="st10" d="M79,46.4C79,46.4,79,46.4,79,46.4L61.8,33.2c0-0.1,0-0.1,0-0.2c0-0.1,0.1-0.1,0.2,0c0,0,0,0,0,0l17.1,13.1
	c0.1,0,0.1,0.1,0,0.2c0,0,0,0,0,0C79.1,46.3,79,46.4,79,46.4z"/>
<polygon class="st11" points="88.5,29.3 68.1,37.8 68.1,37.8 68.1,37.8 65.2,59.2 68.2,61.5 71.1,40.1 91.5,31.6 "/>
<path class="st12" d="M76.2,67.5c-0.1,0-0.1-0.1-0.1-0.2l2.8-21.2c0,0,0-0.1,0.1-0.1l20.4-8.5c0.1,0,0.1,0,0.2,0.1
	c0,0.1,0,0.1-0.1,0.2l0,0l-20.4,8.5l-2.8,21.1C76.3,67.5,76.3,67.5,76.2,67.5C76.2,67.5,76.2,67.5,76.2,67.5z"/>
<polygon class="st11" points="92.2,40.8 92.2,40.8 92.2,40.8 75,27.5 71.5,29 88.7,42.2 85.9,63.6 89.4,62.1 "/>
<rect x="17.6" y="6.3" transform="matrix(0.9968 -7.974522e-02 7.974522e-02 0.9968 -3.7068 4.9555)" class="st0" width="85.1" height="85.1"/>
<path class="st1" d="M20.6,94.8L14,9.7h0.2l84.9-6.5v0.2l6.5,84.8h-0.2L20.6,94.8z M14.6,10.1l6.5,84.1l84.1-6.5L98.7,3.7L14.6,10.1
	z"/>
<rect x="25" y="14.6" transform="matrix(0.9971 -7.671903e-02 7.671903e-02 0.9971 -3.4416 4.7208)" class="st2" width="69.5" height="65"/>
<polygon class="st3" points="96.8,76.9 68.6,79.1 95.5,59.8 "/>
<polygon class="st4" points="24.4,42.3 22.6,17.4 91.9,12.1 93.5,33.9 58.8,17.5 "/>
<polygon class="st13" points="62,68.4 48.4,69.5 30.6,60.2 43.1,51.4 "/>
<polygon class="st6" points="60.5,47.1 78.7,34.5 80.3,56.1 62,68.6 "/>
<polygon class="st7" points="40.9,37.7 59.1,25.2 78.7,34.5 60.5,47.1 "/>
<polygon class="st8" points="60.5,47.1 62,68.6 42.5,59.3 40.9,37.7 "/>
<path class="st9" d="M63.7,48.5l4.2-2.9l0.4,5l-4.2,2.9L63.7,48.5z M68.1,50.6l-0.4-4.7l-3.9,2.7l0.4,4.7
	C64.2,53.3,68.1,50.6,68.1,50.6z"/>
<path class="st9" d="M66.2,51.1c0.2-0.2,0.4-0.2,0.4-0.1l0,0l-1.1,0.7l0,0c0-0.1,0.2-0.3,0.4-0.5H66v0.2l0.1-0.1L66.2,51.1
	L66.2,51.1z"/>
<polygon class="st9" points="66,49.5 66,49.7 66.1,51.2 66.2,51.3 66,51.4 66,51.2 65.9,49.8 65.9,49.5 "/>
<path class="st9" d="M66.3,47.4l0.1,1.5c0,0.3-0.1,0.6-0.4,0.8l-0.1,0v-0.3l-0.1,0.1v0.3l-0.1,0c-0.2,0.2-0.4,0.1-0.4-0.2l-0.1-1.5
	L66.3,47.4z"/>
<path class="st9" d="M70.7,45.2v0.2c0.5-0.3,0.9-0.2,1,0.2l-0.9,0.6l0.1,1.5c0,0.2-0.1,0.5-0.3,0.6c-0.2,0.1-0.3,0-0.3-0.2v0
	l0.1-0.1l0,0c0,0.1,0.1,0.2,0.2,0.1c0.1-0.1,0.2-0.2,0.2-0.4l-0.1-1.5l-0.9,0.6c0.1-0.6,0.4-1.1,0.8-1.4v-0.2L70.7,45.2z"/>
<path class="st9" d="M68.4,45.2l4.2-2.9l0.4,5l-4.2,2.9L68.4,45.2z M72.9,47.3l-0.4-4.7l-3.9,2.7L69,50L72.9,47.3z"/>
<path class="st9" d="M71.2,44.5c0,0.1,0,0.1,0,0.2c0,0,0,0.1-0.1,0.1l0,0c0,0,0,0,0-0.1C71.2,44.6,71.2,44.6,71.2,44.5z"/>
<path class="st9" d="M71.6,44.5c0,0.1,0,0.1,0,0.2c0,0,0,0.1-0.1,0.1l0,0c0,0,0,0,0-0.1C71.5,44.7,71.6,44.6,71.6,44.5z"/>
<path class="st9" d="M70.9,44.5c0,0.1,0,0.1,0,0.2c0,0,0,0.1-0.1,0.1l0,0c0,0,0,0,0-0.1C70.8,44.6,70.9,44.5,70.9,44.5z"/>
<path class="st9" d="M71.6,44c0,0.1,0,0.1,0,0.2c0,0,0,0.1-0.1,0.1l0,0c0,0,0,0,0-0.1C71.5,44.1,71.6,44.1,71.6,44z"/>
<path class="st9" d="M71.2,44c0,0.1,0,0.1,0,0.2c0,0,0,0.1-0.1,0.1l0,0c0,0,0,0,0-0.1C71.2,44.1,71.2,44.1,71.2,44z"/>
<polygon class="st9" points="76.5,44 76.6,44.2 74.8,45.5 74.8,45.2 "/>
<polygon class="st9" points="75.8,40.9 76.2,41.6 76,41.7 76.2,44 76,44.1 75.8,41.8 75.6,42 "/>
<path class="st9" d="M73.2,42l4.2-2.9l0.4,5L73.7,47L73.2,42z M77.7,44.1l-0.4-4.7L73.4,42l0.4,4.7L77.7,44.1z"/>
<polygon class="st9" points="75,41.5 75.3,42.2 75.2,42.3 75.3,44.6 75.1,44.7 74.9,42.4 74.8,42.5 "/>
<polygon class="st11" points="66.3,28.6 48,41.1 48,41.1 48,41.1 49.6,62.7 53,64.3 51.4,42.8 69.7,30.2 "/>
<path class="st12" d="M62.1,68.5c-0.1,0-0.1-0.1-0.1-0.1l-1.7-21.3c0,0,0-0.1,0.1-0.1l18.2-12.6c0.1,0,0.2,0,0.2,0.1
	c0,0,0,0.1,0,0.1L60.6,47.2l1.6,21.2C62.2,68.4,62.2,68.5,62.1,68.5z"/>
<polygon class="st11" points="72.2,39 72.2,39 72.2,39 52.7,29.6 49.5,31.8 69.1,41.2 70.8,62.6 73.9,60.5 "/>
</svg>
