<?xml version="1.0" encoding="utf-8"?>
<!-- Generator: Adobe Illustrator 22.1.0, SVG Export Plug-In . SVG Version: 6.00 Build 0)  -->
<svg version="1.1" id="Layer_1" xmlns="http://www.w3.org/2000/svg" xmlns:xlink="http://www.w3.org/1999/xlink" x="0px" y="0px"
	 viewBox="0 0 140 100" style="enable-background:new 0 0 140 100;" xml:space="preserve">
<style type="text/css">
	.st0{fill:url(#SVGID_1_);}
	.st1{fill:url(#SVGID_2_);}
	.st2{fill:#FDA972;}
	.st3{fill:#FFD9B5;}
	.st4{fill:url(#SVGID_3_);}
	.st5{fill:#353535;}
	.st6{fill:url(#SVGID_4_);}
	.st7{fill:url(#SVGID_5_);}
	.st8{fill:#F3CDAA;}
	.st9{fill:#FFF6ED;}
	.st10{fill:url(#SVGID_6_);}
	.st11{fill:#E1E1E1;}
	.st12{fill:url(#SVGID_7_);}
	.st13{fill:url(#SVGID_8_);}
	.st14{fill:#9E6C42;}
	.st15{fill:#E3E3E3;}
	.st16{fill:#C3C2C2;}
	.st17{fill:#CC0000;}
	.st18{fill:#990000;}
	.st19{fill:#FFCC00;}
	.st20{fill:#E4B600;}
	.st21{fill:#BD9700;}
	.st22{fill:#876C00;}
	.st23{fill:#969696;}
	.st24{fill:#737373;}
	.st25{fill:#EA0000;}
	.st26{fill:#FF1010;}
	.st27{fill:#A30000;}
	.st28{fill:#5D5D5D;}
	.st29{fill:#858585;}
</style>
<title>Service 9</title>
<linearGradient id="SVGID_1_" gradientUnits="userSpaceOnUse" x1="1053.1066" y1="-5031.9644" x2="1081.1066" y2="-5031.9644" gradientTransform="matrix(1.26 0 0 -0.28 -1226.0601 -1373.4099)">
	<stop  offset="0" style="stop-color:#FFA061"/>
	<stop  offset="0.46" style="stop-color:#FF6600"/>
	<stop  offset="0.89" style="stop-color:#DC5800"/>
	<stop  offset="1" style="stop-color:#FF6600"/>
</linearGradient>
<rect x="99.1" y="30.5" class="st0" width="35" height="10"/>
<linearGradient id="SVGID_2_" gradientUnits="userSpaceOnUse" x1="3762.9353" y1="-2362.03" x2="3779.0251" y2="-2345.9399" gradientTransform="matrix(1.09 0.63 1.09 -0.63 -1428.7101 -3817.28)">
	<stop  offset="0" style="stop-color:#FFA061"/>
	<stop  offset="0.46" style="stop-color:#FF6600"/>
	<stop  offset="0.89" style="stop-color:#DC5800"/>
	<stop  offset="1" style="stop-color:#FF6600"/>
</linearGradient>
<path class="st1" d="M129,48.6c-3.8,2.1-8.1,3.1-12.4,2.9c-4.3,0.1-8.6-0.9-12.4-2.9c-3.4-2-5.1-4.4-5.1-7.2c0-2.8,1.7-5.1,5.1-7.1
	c3.8-2.1,8.1-3.1,12.4-3c4.3-0.1,8.6,0.9,12.4,3c3.4,2,5.1,4.4,5.1,7.1S132.4,46.6,129,48.6z"/>
<path class="st2" d="M129,37.4c-3.8,2.1-8.1,3.1-12.4,2.9c-4.3,0.1-8.6-0.9-12.4-2.9c-3.4-2-5.1-4.4-5.1-7.1s1.7-5.1,5.1-7.1
	c3.8-2.1,8.1-3.1,12.4-3c4.3-0.1,8.6,0.9,12.4,3c3.4,2,5.1,4.4,5.1,7.1S132.4,35.4,129,37.4z"/>
<path class="st3" d="M124.3,34.9c-4.9,2.5-10.7,2.5-15.6,0c-2.2-1.2-3.2-2.7-3.2-4.5s1.1-3.2,3.2-4.4c4.9-2.5,10.7-2.5,15.6,0
	c2.2,1.2,3.2,2.7,3.2,4.5C127.5,32.3,126.6,33.7,124.3,34.9z"/>
<linearGradient id="SVGID_3_" gradientUnits="userSpaceOnUse" x1="3292.4324" y1="-4931.9355" x2="3308.5225" y2="-4915.8457" gradientTransform="matrix(0.61 0.35 0.61 -0.35 1103.27 -2848)">
	<stop  offset="0" style="stop-color:#91633E"/>
	<stop  offset="0.26" style="stop-color:#B68156"/>
	<stop  offset="0.79" style="stop-color:#DFAF80"/>
</linearGradient>
<path class="st4" d="M123.4,34.4c-4.3,2.2-9.5,2.2-13.8,0c-1.9-1.1-2.9-2.4-2.9-4s1-2.9,2.9-3.9c4.3-2.2,9.5-2.2,13.8,0
	c1.9,1.1,2.9,2.4,2.9,3.9S125.3,33.2,123.4,34.4z"/>
<path class="st5" d="M105,41.8c-0.1-0.2-0.2-0.4-0.4-0.5c-0.1-0.2-0.3-0.3-0.5-0.4c0,0.8,0,1.7,0.1,2.5c0.2,0.1,0.3,0.2,0.5,0.2
	s0.3,0.1,0.4,0s0.2-0.1,0.3-0.2c0.1-0.1,0.1-0.3,0.1-0.4c0-0.2-0.1-0.3-0.1-0.5C105.3,42.3,105.1,42.1,105,41.8z M104,38.8l1.2,0.9
	c0.4,0.3,0.7,0.7,1,1.2c0.3,0.4,0.5,0.9,0.7,1.4c0.2,0.5,0.3,1,0.3,1.5c0.1,0.7-0.3,1.3-0.9,1.5c0.6,1.1,1.2,2.2,1.9,3.2
	c-0.7-0.3-1.4-0.6-2.1-1c-0.5-0.8-0.9-1.6-1.3-2.4l-0.5-0.3c0,0.5,0,1.1,0.1,1.6c-0.6-0.4-1.1-0.8-1.7-1.2c-0.2-1.7-0.2-4.2-0.2-7.6
	C103,38.1,103.5,38.5,104,38.8z M111.2,41.4c0.6,0.1,1.2,0.2,1.7,0.3c0.7,3,1.7,6,2.8,8.9c-0.6-0.1-1.2-0.1-1.8-0.2l-0.4-0.9
	c-0.9-0.1-1.7-0.3-2.5-0.6c-0.1,0.3-0.2,0.5-0.3,0.8c-0.7-0.2-1.3-0.4-1.9-0.7C109.8,46.6,110.6,44,111.2,41.4z M112.1,45.4
	c-0.2,0.6-0.4,1.2-0.6,1.7c0.4,0.1,0.9,0.2,1.3,0.2C112.5,46.7,112.3,46.1,112.1,45.4z M122.6,45.4c0,1.4,0,2.8,0.1,4.2
	c-0.6,0.2-1.2,0.4-1.8,0.5v-0.2c-0.2,0.1-0.4,0.2-0.6,0.2c-0.2,0.1-0.4,0.1-0.6,0.2c-0.5,0.1-0.9,0-1.4-0.1
	c-0.5-0.1-0.9-0.4-1.2-0.8c-0.4-0.4-0.7-0.9-0.9-1.4c-0.2-0.5-0.3-1-0.3-1.5c0-0.6,0-1.2,0.2-1.8c0.2-0.6,0.5-1.2,0.8-1.8
	c0.3-0.4,0.7-0.8,1.2-1c0.4-0.2,0.9-0.3,1.4-0.4c0.5,0,1,0,1.5,0.1c0.5,0.1,0.9,0.4,1.3,0.7c-0.4,0.7-0.9,1.3-1.3,2
	c-0.2-0.2-0.4-0.4-0.7-0.5c-0.3-0.1-0.5-0.1-0.8-0.1c-0.3,0-0.6,0.1-0.8,0.3c-0.3,0.2-0.5,0.4-0.7,0.7c-0.2,0.3-0.3,0.6-0.4,1
	c-0.1,0.3-0.1,0.5-0.1,0.8c0,0.3,0.1,0.5,0.2,0.8c0.1,0.3,0.3,0.5,0.5,0.7c0.2,0.2,0.4,0.3,0.6,0.4c0.2,0.1,0.5,0.1,0.7,0.1
	c0.2,0,0.5-0.1,0.7-0.2c0.3-0.1,0.5-0.3,0.7-0.5v-0.4l-1.5,0.3c0-0.6-0.1-1.2-0.1-1.8C120.4,45.9,121.5,45.8,122.6,45.4L122.6,45.4z
	 M131.7,43.2v1.7c-1.3,1.1-2.8,2-4.3,2.8v-8.1l1.8-0.9v6.4C130,44.5,130.9,43.9,131.7,43.2z M123.9,40.8c0.6-0.2,1.3-0.4,1.9-0.6
	c0,3.2,0,5.9,0.1,8.2c-0.6,0.3-1.2,0.5-1.8,0.7C124,46.9,123.9,44.2,123.9,40.8z M133.9,37.9l0.1-0.1v1.8l-0.1,0.1v1.4L134,41v1.8
	c-0.5,0.5-1,1-1.5,1.4c0-2.4,0-5.1,0.1-8.2c0.5-0.5,1-1.1,1.4-1.7v2.1l-0.1,0.1C134,37,134,37.5,133.9,37.9z M99.2,39.5v-1.7
	c0.5,0.7,1.1,1.3,1.7,1.9v1.6C100.2,40.8,99.7,40.2,99.2,39.5L99.2,39.5z M99.2,36.3v-2.1c0.6,0.9,1.4,1.8,2.2,2.6v2
	C100.5,38.1,99.8,37.3,99.2,36.3L99.2,36.3z"/>
<linearGradient id="SVGID_4_" gradientUnits="userSpaceOnUse" x1="1084.0265" y1="-4934.8213" x2="1112.0265" y2="-4934.8213" gradientTransform="matrix(1.26 0 0 -0.28 -1311.96 -1313.3099)">
	<stop  offset="0" style="stop-color:#F9EBDE"/>
	<stop  offset="0.46" style="stop-color:#A9917B"/>
	<stop  offset="0.89" style="stop-color:#A9917B"/>
	<stop  offset="1" style="stop-color:#FDDDBF"/>
</linearGradient>
<rect x="52" y="63.4" class="st6" width="35" height="10"/>
<linearGradient id="SVGID_5_" gradientUnits="userSpaceOnUse" x1="3759.2053" y1="-2322.5801" x2="3775.2952" y2="-2306.5002" gradientTransform="matrix(1.09 0.63 1.09 -0.63 -1514.6001 -3757.1799)">
	<stop  offset="0" style="stop-color:#F9EBDE"/>
	<stop  offset="0.46" style="stop-color:#A9917B"/>
	<stop  offset="0.89" style="stop-color:#A9917B"/>
	<stop  offset="1" style="stop-color:#FDDDBF"/>
</linearGradient>
<path class="st7" d="M81.8,81.5c-3.8,2.1-8.1,3.1-12.4,2.9c-4.3,0.2-8.6-0.8-12.3-2.9c-3.4-2-5.2-4.3-5.2-7.2s1.7-5.2,5.1-7.1
	c3.8-2.1,8.1-3.1,12.4-3c4.3-0.1,8.6,0.9,12.4,3c3.4,2,5.1,4.4,5.1,7.1S85.2,79.5,81.8,81.5z"/>
<path class="st8" d="M81.8,70.3c-3.8,2.1-8.1,3.1-12.4,2.9c-4.3,0.1-8.6-0.9-12.4-2.9c-3.4-2-5.2-4.4-5.2-7.2s1.7-5.2,5.1-7.1
	c3.8-2.1,8.1-3.1,12.4-3c4.3-0.1,8.6,0.9,12.4,3c3.4,2,5.1,4.3,5.1,7.1S85.2,68.3,81.8,70.3z"/>
<path class="st9" d="M77.2,67.8c-2.4,1.3-5.1,1.9-7.8,1.8c-2.7,0.1-5.4-0.5-7.8-1.8c-2.2-1.2-3.2-2.7-3.2-4.5s1.1-3.2,3.2-4.5
	c2.4-1.3,5.1-1.9,7.8-1.9c2.7-0.1,5.4,0.6,7.8,1.9c2.2,1.2,3.2,2.7,3.2,4.5C80.4,65.1,79.4,66.6,77.2,67.8z"/>
<linearGradient id="SVGID_6_" gradientUnits="userSpaceOnUse" x1="3285.4524" y1="-4860.9453" x2="3301.5422" y2="-4844.855" gradientTransform="matrix(0.61 0.35 0.61 -0.35 1017.37 -2787.9001)">
	<stop  offset="0" style="stop-color:#91633E"/>
	<stop  offset="0.26" style="stop-color:#B68156"/>
	<stop  offset="0.79" style="stop-color:#DFAF80"/>
</linearGradient>
<path class="st10" d="M76.3,67.3c-2.1,1.1-4.5,1.7-6.9,1.6c-2.4,0.1-4.8-0.5-6.9-1.6c-1.9-1.1-2.9-2.4-2.9-4s1-2.9,2.9-3.9
	c2.1-1.1,4.5-1.7,6.9-1.7c2.4-0.1,4.8,0.5,6.9,1.7c1.9,1.1,2.9,2.4,2.9,3.9S78.2,66.2,76.3,67.3z"/>
<path class="st11" d="M42.2,8.4l0.2,0.2l0,0L42.2,8.4z"/>
<linearGradient id="SVGID_7_" gradientUnits="userSpaceOnUse" x1="-7044.3989" y1="-3309.0288" x2="-6957.0288" y2="-3309.0288" gradientTransform="matrix(0.35 0 0 -0.35 2482.25 -1137.8201)">
	<stop  offset="0" style="stop-color:#F9EBDE"/>
	<stop  offset="0.46" style="stop-color:#A9917B"/>
	<stop  offset="0.89" style="stop-color:#A9917B"/>
	<stop  offset="1" style="stop-color:#FDDDBF"/>
</linearGradient>
<path class="st12" d="M28.8,23.9l-2,1.9v5.1c-0.2,0-0.5-0.1-0.7-0.2c-1.2-0.4-2.3-0.8-3.4-1.3c-1-0.4-1.9-1-2.7-1.7
	c-0.7-0.6-1.4-1.2-1.9-2c-0.5-0.7-0.9-1.4-1.2-2.2V9.7c0.3,0.7,0.7,1.4,1.1,2.1c0.5,0.8,1.2,1.4,1.9,2c0.8,0.7,1.7,1.2,2.7,1.7
	c1.1,0.5,2.2,0.9,3.4,1.3c0.6,0.2,1.1,0.3,1.7,0.4l1.3,6.2L28.8,23.9z M47.3,15.9v7c-1.1,0.4-2.2,0.6-3.4,0.6
	c-1.1,0-2.1-0.2-3.1-0.6c-0.6-0.2-1.1-0.5-1.6-0.8c-0.4-0.3-0.7-0.6-1-1L38,20.5c-0.3-1.2-0.6-2.3-0.9-3.5c0.2,0,0.4-0.1,0.6-0.1
	c1.2-0.3,2.3-0.8,3.5-1.2c0.9-0.4,1.8-0.8,2.7-1.3L47.3,15.9z"/>
<path class="st8" d="M70.3,15.7L70,16L45.2,4.4c0.3,0.4,0.6,0.8,0.9,1.2C46.6,6.3,47,7,47.4,7.7c0.3,0.9,0.3,1.8,0,2.7l-2.6-1.2
	c0-0.9-0.2-1.8-0.6-2.6c-0.3-0.7-0.8-1.3-1.3-1.8l-0.5-0.5l-1.8-1.2C40.4,3,40.3,3,40.1,2.9c-0.9-0.4-1.9-0.7-2.9-0.9
	c-1-0.3-2.1-0.4-3.1-0.5c-1.1-0.1-2.2-0.1-3.3-0.1c-1.1,0.1-2.2,0.2-3.2,0.5c-1,0.2-2,0.5-2.9,0.9c-0.8,0.4-1.6,0.8-2.4,1.3
	c-0.6,0.4-1.2,1-1.7,1.5l-0.2,0.2L20.3,6l-0.6,1.3l-0.1,0.5c-0.2,0.6-0.2,1.2,0,1.8v0.2c0.2,0.6,0.5,1.1,0.8,1.6
	c0.2,0.3,0.4,0.6,0.7,0.9c0.2,0.3,0.5,0.5,0.8,0.7c0.7,0.5,1.5,1,2.3,1.3c1,0.5,2.1,0.9,3.2,1.2l0.4,1.6c-0.6-0.1-1.2-0.2-1.8-0.4
	c-1.2-0.3-2.3-0.8-3.4-1.3c-1-0.4-1.9-1-2.7-1.7c-0.7-0.6-1.4-1.2-1.9-2c-0.4-0.7-0.8-1.4-1.2-2.1c0-0.7,0.1-1.5,0.3-2.2
	c0.2-0.8,0.5-1.5,1-2.2c0.6-0.8,1.2-1.4,2-2C21,2.7,22,2.2,23,1.7c1.1-0.5,2.3-0.9,3.5-1.1c1.3-0.3,2.6-0.5,3.9-0.6
	c1.3-0.1,2.7,0,4,0.1c1.3,0.1,2.6,0.3,3.8,0.6c1.2,0.3,2.3,0.7,3.4,1.2c0.9,0.4,1.8,0.9,2.6,1.5L70.3,15.7z M72.2,26.1v10.5L71.7,37
	V24.8l0.5-0.3V26.1z M36.8,15.6c1-0.3,1.9-0.7,2.9-1.1c0.8-0.3,1.6-0.7,2.3-1.1l2,0.9c-0.9,0.5-1.8,0.9-2.7,1.3
	c-1.1,0.5-2.3,0.9-3.5,1.2c-0.2,0.1-0.4,0.1-0.6,0.1L36.8,15.6z"/>
<linearGradient id="SVGID_8_" gradientUnits="userSpaceOnUse" x1="-6969.2485" y1="-3285.4573" x2="-7031.5186" y2="-3285.4573" gradientTransform="matrix(0.35 0 0 -0.35 2482.25 -1137.8201)">
	<stop  offset="0" style="stop-color:#91633E"/>
	<stop  offset="0.26" style="stop-color:#B68156"/>
	<stop  offset="0.79" style="stop-color:#DFAF80"/>
</linearGradient>
<path class="st13" d="M21,8.5c0.1,0.5,0.2,1.1,0.4,1.6c0.2,0.6,0.6,1.1,1,1.5c0.5,0.5,1.1,1,1.7,1.3c1,0.5,2,1,3,1.4l0.2,1.1
	c-1.1-0.3-2.1-0.8-3.2-1.2c-0.8-0.4-1.6-0.8-2.3-1.3c-0.3-0.2-0.6-0.4-0.8-0.7L21,8.5z M41.8,13.4c-0.7,0.4-1.5,0.8-2.3,1.1
	c-0.9,0.4-1.9,0.7-2.9,1.1l-0.2-1c0.3-0.1,0.6-0.2,1-0.3c0.8-0.3,1.6-0.6,2.4-1c0.3-0.2,0.6-0.3,0.9-0.5L41.8,13.4z"/>
<path class="st14" d="M21.1,8L21,8.5v3.8c-0.3-0.3-0.5-0.6-0.7-0.9c-0.3-0.5-0.6-1-0.8-1.6V9.6c-0.2-0.6-0.2-1.2,0-1.8L21.1,8z
	 M40.4,3.2l-1.3,0.5c-0.3-0.2-0.7-0.3-1-0.4c-0.9-0.3-1.8-0.5-2.7-0.7c-1-0.2-1.9-0.3-2.9-0.3c-1,0-1.9,0-2.9,0.2
	c-0.9,0.1-1.8,0.3-2.7,0.6c-0.8,0.2-1.6,0.6-2.3,1c-0.8,0.5-1.5,1-2.3,1.6l-1.8-0.1l0,0c0.5-0.5,1-0.9,1.6-1.3
	c0.7-0.6,1.5-1,2.4-1.3c0.9-0.4,1.9-0.7,2.9-0.9c1.1-0.2,2.1-0.4,3.2-0.5c1.1-0.1,2.2-0.1,3.3,0c1.1,0.1,2.2,0.2,3.2,0.5
	c1,0.2,2,0.5,2.9,0.9C40.2,3,40.3,3.1,40.4,3.2L40.4,3.2z M44.7,9.2l-1.4-0.6C43.3,7.8,43,7,42.5,6.3c-0.2-0.3-0.4-0.6-0.7-0.8
	l0.9-0.7c0.5,0.5,0.9,1.1,1.3,1.8C44.5,7.4,44.8,8.3,44.7,9.2z M61.8,15.3c-0.3-0.2-0.6-0.4-1-0.4c-0.4-0.1-0.9,0.1-1.2,0.4h-1.8
	l-10.5-4.9c0.3-0.9,0.3-1.8,0-2.7C47,7,46.6,6.3,46.1,5.6l-0.9-1.2L70.1,16l-1,1.2c-1.8-0.7-3.7-1.3-5.6-1.8
	c-0.4-0.1-0.8-0.2-1.2-0.2L61.8,15.3z M47.2,23v-7c2.1,1,4.3,2,6.5,3c0.4,0.2,0.7,0.5,0.9,0.9l0.1,0.2c-0.3,0.6-0.8,1.1-1.4,1.3
	L47.2,23z"/>
<path class="st15" d="M78.2,6.6l-6.4,8.2l-2.2,2.7l-0.6-0.2l1-1.2l0.3-0.3l7.3-9.3L78.2,6.6z M21,8.5L21.1,8l1.2-2.3
	c0.7-0.6,1.5-1.1,2.3-1.6c0.7-0.4,1.5-0.8,2.3-1c0.9-0.3,1.8-0.5,2.7-0.6c1-0.1,1.9-0.2,2.9-0.2c1,0,1.9,0.1,2.9,0.3l2.7,0.6
	c0.3,0.1,0.7,0.3,1,0.4L42,5.5l0.7,0.7c0.4,0.7,0.7,1.5,0.8,2.3c-2.5-1.2-5-2.3-7.5-3.4c-0.6-0.2-1.1-0.4-1.7-0.5l-0.2-0.2v0.2
	c0.3,0.2,0.3,0.6,0.1,0.9c0,0,0,0,0,0c-0.1,0-0.1,0.1-0.2,0.1c-0.2,0.2-0.4,0.3-0.7,0.3c-0.3,0.1-0.6,0.2-0.9,0.2
	c-0.6,0.1-1.3-0.3-1.5-0.9c-0.1-0.1-0.1-0.3,0-0.4C31,4.7,31,4.6,31.1,4.5H31c-1.6,0.1-3.2,0.8-4.3,2c-0.4,0.4-0.7,0.8-0.9,1.3v0.8
	l1.2,5.9c-1-0.4-2-0.9-3-1.4l-1.5-1.5c-0.4-0.4-0.8-0.9-1-1.5C21.3,9.6,21.2,9.1,21,8.5z M31.8,24.8l5.4,3.4l0.2,0.1l2.9,1.8
	l2.7,1.7l-0.6,0.8l-13.8-8.7l0.3-0.5l0.1-0.2L31.8,24.8z M59.5,15.3c0.3-0.3,0.8-0.5,1.2-0.4c0.4,0,0.7,0.1,1,0.4l0.1,0.1
	c0.1,0.1,0.2,0.2,0.2,0.4c-0.1,0.4-0.4,0.7-0.8,0.7c-0.7,0.2-1.4,0-1.9-0.5c-0.1-0.1-0.2-0.2-0.2-0.4C59.3,15.6,59.4,15.5,59.5,15.3
	z M30.5,5.6c0.1,0,0.2,0.1,0.3,0.1c0.4,0.1,0.8,0.4,1,0.8l0.1,1.1l-1.4-0.9V5.6z M33.3,4.6l-0.4-0.1h-0.4l-0.4,0.1h-0.3l-0.2,0.1
	l-0.1,0.1L31.4,5v0.2l0.1,0.2l0.1,0.1l0.3,0.1h1l0.2-0.1l0.2-0.1l0.1-0.2L33.5,5V4.9L33.3,4.6C33.4,4.7,33.3,4.6,33.3,4.6z
	 M66.6,21.6c-0.1,0.4-0.4,0.7-0.8,0.7c-0.7,0.2-1.4,0-1.9-0.5c-0.1-0.1-0.2-0.2-0.2-0.3c0.1-0.3,0.3-0.5,0.5-0.6
	c0.3-0.2,0.7-0.2,1-0.2c0.5,0,0.9,0.2,1.2,0.5C66.4,21.4,66.6,21.5,66.6,21.6z M60.6,15.3L60.6,15.3v0.5h0.2v-0.4h0.1l0.5,0.1
	L61,15.2v-0.3h-0.2v0.2L60.6,15.3L60.6,15.3l-0.5,0v0.1C60.1,15.4,60.6,15.3,60.6,15.3z M40.8,12.8c-0.3,0.2-0.6,0.4-0.9,0.5
	c-0.8,0.4-1.6,0.7-2.4,1c-0.3,0.1-0.6,0.2-1,0.3l-0.5-2l0.1-0.1c0.1-0.1,0.3-0.2,0.4-0.3c0.2-0.2,0.5-0.3,0.8-0.3
	c0.3-0.1,0.7,0,1,0.1C39.1,12.2,39.9,12.5,40.8,12.8z M51.6,26.6L51.6,26.6V27h0.2v-0.4h0.1l0.5,0.1L52,26.4v-0.3h-0.2v0.2l-0.1,0.1
	l-0.6,0.1v0.1L51.6,26.6z M53.3,27l-0.1,0.2c-0.1,0.3-0.4,0.5-0.7,0.6c-0.5,0.1-1,0.1-1.4-0.1c-0.2-0.1-0.4-0.2-0.5-0.4
	c-0.1-0.1-0.2-0.2-0.2-0.4c0.3-0.6,0.9-0.9,1.5-0.8c0.4,0,0.8,0.2,1.1,0.5C53,26.7,53.2,26.9,53.3,27z M65,21.2v0.5h0.2v-0.5h0.1
	l0.5,0.1l-0.6-0.2v-0.3h-0.1V21h-0.2l-0.5,0.1v0.1L65,21.2z"/>
<path class="st16" d="M22.4,5.7L21.1,8l-1.7-0.3l0.1-0.5l0.6-1.3l0.1-0.2l0.3-0.1L22.4,5.7z M42.8,4.8l-0.9,0.7l-2.8-1.8l1.3-0.5
	l1.8,1.2C42.5,4.5,42.7,4.7,42.8,4.8z M74,19.2l-2.1-4.4l6.4-8.2v14L76,23.4l-0.4-0.9l0.1-0.1c0.1-0.2,0.2-0.3,0.3-0.5
	c0.1-0.4,0.1-0.7,0.1-1.1v-0.1c0-0.2-0.1-0.3-0.1-0.5c-0.1-0.2-0.2-0.3-0.4-0.4L74,19.2z M34,4.6l0.5,0.5c-0.2,0.2-0.4,0.4-0.5,0.7
	l-0.2,0.5c-0.5-0.2-1-0.2-1.5,0l-0.5,0.2c-0.2-0.4-0.6-0.7-1-0.8c-0.1-0.1-0.2-0.1-0.3-0.1l0.4-1l0,0L31,4.5l0,0
	c0,0.1-0.1,0.2-0.1,0.3c-0.1,0.1-0.1,0.3,0,0.4c0.2,0.6,0.9,0.9,1.5,0.8c0.3,0,0.6-0.1,0.9-0.2c0.1,0.1,0.4,0,0.6-0.2
	c0.3-0.1,0.4-0.5,0.2-0.7c0,0,0-0.1,0-0.1C34.1,4.7,34.1,4.6,34,4.6z M71.6,37.1v0.5c-0.1,0.3-0.2,0.6-0.4,0.9
	c-0.5,0.7-1.1,1.2-1.8,1.6c-1,0.5-2,0.9-3,1.2c-0.6,0.1-1.1,0.2-1.7,0.2c-0.6,0-1.2,0-1.8-0.1c-0.2,0-0.5-0.1-0.7-0.1V29.7
	c1.7-0.2,3.1-0.3,4.2-0.4c0.6,0,1.1-0.2,1.6-0.4c0.9-0.4,1.7-0.9,2.4-1.5c0.4-0.3,0.8-0.7,1.1-1.1L71.6,37.1z M28.6,23.9l13.8,8.7
	v13.5l0,0l-3,0.5l-5.2-3.3c1.2-0.4,2.3-0.9,3.4-1.4c0.4-0.2,0.8-0.6,1-1c0.3-0.6,0.3-1.3,0.1-2c-0.2-1-0.6-1.9-1.1-2.7
	c-0.2-0.4-0.5-0.8-0.8-1.1l-0.4-0.5l-0.1-0.1l-0.1-0.1l-1-0.8l-0.1-0.1l0,0c-3.6-2.9-5.8-3.6-6.6-2.2l-1.8,2v-7.4L28.6,23.9z
	 M60.5,15.4L60.5,15.4l-0.6,0.1v-0.1l0.5-0.1h0.1l0.1-0.1V15h0.2v0.3l0.6,0.2h-0.6v0.4h-0.2v-0.3L60.5,15.4z M51.6,26.6L51.6,26.6
	L51,26.7v-0.1l0.6-0.1l0.1-0.1v-0.2H52v0.3l0.6,0.2l-0.5-0.1H52v0.5h-0.2v-0.2L51.6,26.6z M65,21.7v-0.5h-0.1l-0.5,0.1v-0.1l0.5-0.1
	H65l0.1-0.1v-0.2h0.2v0.3l0.6,0.2l-0.5-0.1h-0.1v0.5L65,21.7z"/>
<path class="st17" d="M43.3,8.5l1.4,0.6l2.6,1.2l10.5,4.9h1.8c-0.1,0.1-0.2,0.3-0.3,0.4v0.6c0.1,0.3,0.4,0.5,0.9,0.6
	c0.5,0.1,1,0.1,1.4-0.1c0.4-0.2,0.6-0.4,0.6-0.5v-0.5c0-0.2-0.1-0.3-0.2-0.4L62,15.2h0.5c0.4,0,0.8,0.1,1.2,0.2
	c1.9,0.5,3.7,1.1,5.6,1.8l0.6,0.2c1.4,0.5,2.9,1.1,4.3,1.7l1.5,0.6c0.2,0.1,0.3,0.2,0.4,0.4c-0.1,0.2-0.1,0.4-0.1,0.6
	c0,0.2,0,0.4-0.1,0.6c0,0.2-0.1,0.4-0.3,0.5l-0.3,0.3l-0.2,0.2c-0.4,0.3-0.9,0.6-1.4,0.8l-2.2,1.2c-0.2,0.4-0.5,0.7-0.9,1
	c-0.8,0.6-1.6,1.1-2.5,1.5c-0.5,0.2-1,0.4-1.6,0.4c-1.1,0.1-2.2,0.1-3.3,0.1l-0.9,0.3L43,31.9v-0.1l-2.7-1.7l10.2-2.3
	c0.2,0.2,0.5,0.3,0.8,0.4c0.5,0.1,1,0.1,1.4-0.1c0.4-0.2,0.6-0.4,0.6-0.5v-0.4l9.8-2.2c3,0.5,4.9,0,5.8-1.7l0.1-0.1
	c-0.1-0.5-0.2-0.9-0.3-1.4c-0.1-0.3-0.3-0.5-0.6-0.7c-0.6-0.3-1.2-0.5-1.9-0.6c-0.6-0.1-1.3-0.1-1.9,0c-0.6,0.1-1.1,0.3-1.6,0.6
	c-0.4,0.2-0.7,0.5-1,0.9c-0.1,0.1-0.1,0.3-0.2,0.4l-24,5.5L34,9.5c-0.6,0.3-1.3,0.4-2,0.4c-0.6-0.1-1.1-0.2-1.6-0.5
	c-0.5-0.2-0.9-0.5-1.3-0.9l0.1,0.6l3,15.8l-2.7-1.7L25.9,7.8V7.7c0.2-0.5,0.5-0.9,0.9-1.3c1.1-1.2,2.7-1.9,4.3-2L31,4.5l0,0l-0.5,1
	v1.1l1.5,1l2-0.3l0.7-1.1V5.1l-0.6-0.5c0.6,0.1,1.2,0.3,1.7,0.6C38.3,6.2,40.8,7.3,43.3,8.5z M43,46.5V46l10.8-3l0.1-0.1l0.4-0.1
	l-0.5,0.7L43,46.5z M37,17c0.3,1.2,0.5,2.3,0.9,3.5c0.1,0.2,0.1,0.4,0.3,0.6c0.3,0.4,0.6,0.7,1,1c0.5,0.3,1,0.6,1.6,0.8
	c1,0.4,2,0.6,3.1,0.6c1.2,0,2.3-0.2,3.4-0.6l6.1-1.7c0.7-0.1,1.2-0.6,1.4-1.3l-0.1-0.2l0.1-0.2c-0.2-0.4-0.6-0.8-1-1
	c-2.2-1-4.3-2-6.5-3l-6.6-3.1c-0.8-0.3-1.5-0.6-2.3-0.9c-0.3-0.1-0.7-0.1-1-0.1c-0.3,0.1-0.5,0.2-0.8,0.3c-0.2,0.1-0.4,0.2-0.5,0.4
	l0.1,0.3L36,12.6l0.5,2l0.2,1L37,17z"/>
<polygon class="st18" points="53.8,42.8 53.8,42.9 43,46 43,39.4 48.8,40 48.8,43.5 "/>
<path class="st19" d="M26.6,33.2l1.8-2c0.8-1.3,3-0.6,6.6,2.2c0.4,0.9,0.7,1.9,0.8,2.9v0.5c-0.1,0.4-0.1,0.7-0.2,1.1
	c-0.3,1-0.8,1.5-1.5,1.5c-0.2,0-0.4-0.2-0.5-0.6c-0.1-0.5-0.2-0.9-0.4-1.4c-0.3-1.2-1.4-2-2.6-2c-0.3,0-0.7,0-1,0.2
	c-0.1,0.1-0.2,0.3-0.2,0.5c0,0.1,0,0.7,0.1,1.9s0.1,1.8,0.1,1.8c0,0.6-0.1,1.2-0.3,1.8c-0.1,0.6-0.4,1.2-0.8,1.6
	c-0.1,0-0.3-0.2-0.3-0.3v-0.3c0.1-0.8,0.1-1.7,0-2.5c0-1.3-1.1-2.3-2.4-2.3c0,0,0,0,0,0c-0.7,0-1.2,1-1.5,3.1l-0.4,2.5
	c-0.1,0.7-0.3,1.3-0.6,1.9h-0.8c-0.3-0.3-0.4-0.7-0.5-1.1c-0.1-0.5-0.2-1-0.4-1.5c-0.3-1.2-0.9-1.8-1.9-1.8c-0.7,0-1.2,0.5-1.4,1.1
	c-0.2,0.4-0.2,0.9-0.2,1.3c0,0.3,0,0.6,0.1,0.9c0.1,0.7,0.1,1.3,0,2c-0.2,1.9-0.9,2.8-2,2.8c-0.3,0-0.5-0.2-0.8-0.7
	c-0.3-0.5-0.6-1-0.8-1.6c-0.7-1.5-1.5-2.3-2.3-2.3s-1.2,0.2-1.3,0.7c-0.1,0.3-0.1,0.6-0.1,0.9v0.1c-0.5-0.4-1-0.8-1.6-1
	C9.1,45.1,8.8,45,8.5,45H7.8C7,45.6,6.6,46.8,7,47.7c-0.3-0.3-0.6-0.5-0.9-0.7L6,46.9c0-0.3-0.1-0.7-0.1-1c0-0.6,0.2-1.2,0.6-1.6
	c0.8-0.8,1.7-1.5,2.7-2.1c0.9-0.5,1.7-0.9,2.6-1.4l2.6-1.2l2.6-1.4l2.4-1.3l2.6-1.3l2.4-1.3C25.2,33.9,25.9,33.6,26.6,33.2
	L26.6,33.2z"/>
<path class="st20" d="M35.2,33.4L35.2,33.4L35.2,33.4l1.2,1l0.1,0.1l0.1,0.1l0.4,0.5c0.3,0.4,0.5,0.7,0.8,1.1
	c0.5,0.8,0.9,1.7,1.1,2.7c0.2,0.7,0.1,1.4-0.1,2c-0.2,0.4-0.6,0.8-1,1c-1.1,0.5-2.2,1-3.4,1.4l-3.7,0.9c-0.8,1.7-2.5,2.6-5,2.7
	c-0.9,1.8-2.5,2.7-5,2.7c-1,1.8-2.9,2.9-5,2.7l0,0c-0.4,0.5-0.9,0.9-1.4,1.3c-0.4,0.3-1,0.5-1.5,0.5c-0.8-0.1-1.5-0.3-2.2-0.7
	c-0.7-0.5-1.4-1.1-2-1.7l-0.3-0.3c-0.7-0.8-1.2-1.7-1.6-2.7c-0.2-0.5-0.4-1-0.5-1.6l0.1,0.1c0.3,0.2,0.6,0.4,0.9,0.7l0,0l0.1,0.2
	l0.7,1.8c0.4,0.6,0.9,1.1,1.4,1.6c0.9,1,2.2,1.6,3.5,1.6c0.1-0.2,0.2-0.5,0.3-0.7c0.2-0.3,0.4-0.6,0.5-1v-0.3
	c-0.1-0.5-0.2-1-0.4-1.5c-0.1-0.2-0.1-0.3-0.2-0.5c-0.3-0.7-0.7-1.4-1.2-2c-0.1-0.2-0.3-0.4-0.5-0.6c-0.1-0.2-0.3-0.3-0.4-0.4l0,0
	V46c0-0.3,0-0.6,0.1-0.9c0.2-0.5,0.6-0.7,1.3-0.7s1.5,0.8,2.3,2.3c0.5,0.9,0.7,1.4,0.8,1.6c0.3,0.5,0.6,0.7,0.8,0.7
	c1.1,0,1.8-0.9,2-2.8c0.1-0.7,0.1-1.3,0-2c-0.1-0.3-0.1-0.6-0.1-0.9c0-0.4,0.1-0.9,0.2-1.3c0.2-0.6,0.8-1,1.4-1
	c0.9,0,1.5,0.6,1.9,1.8c0.1,0.5,0.2,1,0.3,1.5c0.1,0.4,0.2,0.8,0.5,1.1h0.8c0.3-0.6,0.5-1.2,0.6-1.9l0.4-2.5
	c0.3-2.1,0.9-3.1,1.5-3.1c1.3,0,2.1,0.8,2.4,2.3c0.1,0.8,0.1,1.7,0,2.5V43c0,0.1,0.1,0.3,0.2,0.3c0,0,0,0,0.1,0
	c0.3-0.2,0.5-0.7,0.8-1.6c0.2-0.6,0.2-1.3,0.2-1.9c0-0.1,0-0.7-0.1-1.8s-0.1-1.8-0.1-1.9c0-0.2,0.1-0.4,0.2-0.5
	c0.3-0.1,0.7-0.2,1-0.2c1.2,0,2.3,0.8,2.6,2c0.1,0.3,0.2,0.8,0.4,1.4c0.1,0.4,0.3,0.6,0.5,0.6c0.7,0,1.2-0.5,1.5-1.5
	c0.1-0.4,0.2-0.7,0.2-1.1v-0.5C35.7,35.3,35.6,34.3,35.2,33.4z"/>
<path class="st21" d="M9.4,45v0.3c0.1,0.6,0.3,1.3,0.5,1.9c0.3,0.7,0.7,1.4,1.2,2.1c0.7,0.9,1.6,1.6,2.6,2.1c-0.1,0.4-0.3,0.7-0.5,1
	c-0.1,0.2-0.3,0.3-0.5,0.5c-1.3,0-2.6-0.6-3.5-1.6c-0.5-0.5-1-1-1.4-1.6l-0.7-1.8l-0.1-0.3l0,0c-0.4-1-0.1-2.1,0.8-2.7h0.7
	C8.9,44.9,9.1,45,9.4,45z"/>
<path class="st22" d="M13.8,51.4c-1-0.4-1.9-1.1-2.6-2c-0.5-0.6-0.9-1.3-1.2-2.1c-0.3-0.6-0.5-1.2-0.6-1.9v-0.3
	c0.6,0.2,1.2,0.5,1.7,0.9l0,0c0.2,0.1,0.3,0.3,0.4,0.4c0.2,0.2,0.4,0.4,0.6,0.6c0.5,0.6,0.9,1.3,1.2,2.1c0.1,0.2,0.1,0.3,0.2,0.5
	c0.2,0.5,0.3,1,0.4,1.5L13.8,51.4z"/>
<path class="st23" d="M43,46v0.5l-0.6-0.3h0.1V32.6l0.5-0.8V46z M71.9,14.8l2.1,4.4c-1.4-0.6-2.8-1.2-4.3-1.7L71.9,14.8z M34,7.3
	l-2,0.3V6.5l0.5-0.2c0.5-0.2,1-0.2,1.5,0V7.3z M33.4,4.5L33.4,4.5L33.4,4.5l0.2,0.3V5l-0.1,0.2l-0.1,0.2l-0.2,0.1L33,5.6h-0.5
	L32,5.5l-0.2-0.1l-0.1-0.1l-0.1-0.2V5l0.1-0.2l0.1-0.1l0.1-0.1l0.2-0.1l0.4-0.1H33L33.4,4.5z M48.8,32.7l13.5-3v-1.5l0.9-0.3
	c1.1,0,2.2,0,3.3-0.1c0.6,0,1.1-0.2,1.6-0.4c0.9-0.4,1.7-0.9,2.5-1.5c0.4-0.3,0.7-0.6,0.9-1l0.2-0.1v1.5c-0.3,0.4-0.7,0.8-1.1,1.1
	c-0.8,0.6-1.6,1.1-2.5,1.5c-0.5,0.2-1,0.4-1.6,0.4c-1.1,0.1-2.5,0.2-4.2,0.4v11.4c0.2,0.1,0.5,0.1,0.7,0.1c0.6,0.1,1.2,0.1,1.8,0.1
	c0.6,0,1.1-0.1,1.7-0.2c1.1-0.2,2.1-0.6,3-1.2c0.7-0.4,1.3-0.9,1.8-1.6c0.2-0.3,0.3-0.6,0.4-0.9v-0.5l0.5-0.4V26.1l1.6-0.9v8.7
	l1.5,0.6c0.8,0.4,1.2,1.4,0.8,2.3C76,36.9,76,37,75.9,37.1s-0.3,0.3-0.4,0.4l-0.6,0.3c-2.2,1.2-4.4,2.3-6.7,3.4
	c-1,0.5-2.2,0.8-3.3,0.8c-1.1,0-2.2-0.1-3.3-0.3l-7.2,0.9L54,42.8l-5.1,0.7L48.8,32.7L48.8,32.7z"/>
<path class="st24" d="M50.2,26.9c0,0.2,0.1,0.3,0.2,0.4c0.2,0.1,0.3,0.3,0.5,0.4c0.4,0.2,0.9,0.2,1.4,0.1c0.3-0.1,0.6-0.3,0.7-0.6
	l0.1-0.2v0.5c0,0.1-0.2,0.3-0.6,0.5c-0.4,0.2-0.9,0.2-1.4,0.1c-0.3,0-0.5-0.2-0.8-0.4c-0.1-0.1-0.1-0.2-0.2-0.3L50.2,26.9z
	 M59.2,15.7c0,0.2,0.1,0.3,0.2,0.4c0.5,0.5,1.2,0.7,1.9,0.5c0.4-0.1,0.7-0.3,0.8-0.7v0.5c0,0.2-0.2,0.3-0.6,0.5
	c-0.4,0.2-0.9,0.2-1.4,0.1c-0.6-0.1-0.9-0.3-0.9-0.6V15.7z M33.8,6.2L34,5.7c0.1-0.3,0.3-0.5,0.5-0.7v1.1L34,7.3L33.8,6.2z
	 M63.6,21.6c0.1,0.1,0.1,0.2,0.2,0.4c0.5,0.5,1.2,0.7,1.9,0.5c0.4-0.1,0.7-0.3,0.8-0.7v0.5c0,0.2-0.2,0.3-0.6,0.5
	c-0.4,0.2-0.9,0.2-1.4,0.1c-0.6-0.1-0.9-0.4-0.9-0.6L63.6,21.6z"/>
<path class="st25" d="M37.2,28.2l-5.4-3.4L28.9,9c0.4,0.3,0.8,0.6,1.2,0.8c0.5,0.2,1.1,0.4,1.6,0.5c0.7,0.1,1.4-0.1,2-0.4l3.4,17.9
	L37.2,28.2z M50.2,26.9v0.6c0,0.1,0.1,0.2,0.2,0.3l-10.2,2.3l-2.9-1.8l23.9-5.4c0-0.1,0-0.2,0.1-0.2L63,25l-9.8,2.2v-0.1
	c0-0.2-0.1-0.3-0.2-0.4c-0.3-0.3-0.7-0.5-1.2-0.5C51.2,26,50.5,26.4,50.2,26.9z"/>
<path class="st26" d="M29.1,23.1L29,23.3l-1.3-6.2l-0.4-1.6l-0.2-1.1L26,8.5V7.8L29.1,23.1z M37.2,27.8L33.8,9.9
	c-0.6,0.3-1.3,0.4-2,0.4c-0.6-0.1-1.1-0.2-1.6-0.5C29.7,9.6,29.3,9.3,29,9l-0.1-0.6c0.4,0.4,0.8,0.7,1.3,0.9
	c0.5,0.2,1.1,0.4,1.6,0.5c0.7,0.1,1.4-0.1,2-0.4L37.2,27.8L37.2,27.8z M63,25l-1.6-2.4l-0.1-0.1v-0.2c0-0.2,0.1-0.3,0.2-0.4
	c0.2-0.4,0.6-0.7,1-0.9c0.5-0.3,1-0.5,1.6-0.6c1.3-0.2,2.6,0,3.8,0.6c0.3,0.2,0.5,0.4,0.6,0.7c0.2,0.4,0.3,0.9,0.3,1.4l-0.1,0.1
	C68,24.9,66,25.5,63,25z M63.7,21.6v0.6c0.1,0.3,0.4,0.5,0.9,0.6c0.5,0.1,1,0,1.4-0.2c0.4-0.2,0.6-0.4,0.6-0.5v-0.5
	c-0.1-0.1-0.1-0.3-0.2-0.4c-0.3-0.3-0.7-0.5-1.2-0.5c-0.3,0-0.7,0-1,0.2C63.9,21.1,63.7,21.3,63.7,21.6L63.7,21.6z M54.8,19.8
	c-0.2-0.4-0.5-0.7-0.9-0.9c-2.2-1-4.3-2-6.5-3l-3.5-1.6l-2-0.9l-1.2-0.6c-0.8-0.3-1.5-0.6-2.3-0.9c-0.3-0.1-0.7-0.1-1-0.1
	c-0.3,0.1-0.5,0.2-0.8,0.3c-0.2,0.1-0.3,0.2-0.4,0.3l-0.1-0.3c0.1-0.2,0.3-0.3,0.5-0.4c0.2-0.2,0.5-0.3,0.8-0.3c0.3-0.1,0.7,0,1,0.1
	c0.8,0.2,1.6,0.5,2.3,0.9l6.6,3.1c2.1,1,4.3,2,6.5,3c0.4,0.2,0.8,0.6,1,1L54.8,19.8z"/>
<path class="st27" d="M37.2,28.2l-0.1-0.4h0.1l24.1-5.4v0.2l0.1,0.1c0,0.1,0,0.1-0.1,0.2l-23.9,5.4L37.2,28.2z M62.2,28.2l-13.5,3
	L43,32.4v-0.5l19.3-4.2l0.9-0.3c1.1,0,2.2,0,3.3-0.1c0.6,0,1.1-0.2,1.6-0.4c0.9-0.4,1.7-0.9,2.5-1.5c0.4-0.3,0.7-0.6,0.9-1l2.2-1.2
	c0.5-0.3,1-0.6,1.4-0.8l0.2-0.2l0.3-0.3c0.1-0.2,0.2-0.3,0.3-0.5C76,21.3,76,21,76,20.8l0,0c0,0.4,0,0.7-0.1,1.1
	c0,0.2-0.1,0.4-0.3,0.5l-0.1,0.1c-0.1,0.1-0.3,0.2-0.4,0.3c-0.4,0.3-0.9,0.6-1.4,0.8l-1.6,0.8l-0.5,0.3l-0.2,0.1
	c-0.2,0.4-0.5,0.7-0.9,1c-0.8,0.6-1.6,1.1-2.5,1.5c-0.5,0.2-1,0.4-1.6,0.4c-1.1,0.1-2.2,0.1-3.3,0.1L62.2,28.2z"/>
<path class="st28" d="M73.8,25.2l-1.6,0.9v-1.5l1.6-0.8V25.2z M48.8,31.2l13.5-3v1.5l-13.5,3V31.2z"/>
<path class="st29" d="M73.8,25.2v-1.5c0.5-0.3,1-0.6,1.4-0.8c0.1-0.1,0.3-0.2,0.4-0.3l0.4,0.9l-2.3,2.9L73.8,25.2L73.8,25.2z"/>
</svg>
