<?xml version="1.0" encoding="utf-8"?>
<!-- Generator: Adobe Illustrator 22.1.0, SVG Export Plug-In . SVG Version: 6.00 Build 0)  -->
<svg version="1.1" id="Layer_1" xmlns="http://www.w3.org/2000/svg" xmlns:xlink="http://www.w3.org/1999/xlink" x="0px" y="0px"
	 viewBox="0 0 140 100" style="enable-background:new 0 0 140 100;" xml:space="preserve">
<style type="text/css">
	.st0{fill:#EABD8D;}
	.st1{fill:#C9905C;}
	.st2{opacity:0.2;fill:#532100;enable-background:new    ;}
	.st3{fill:#935A49;}
	.st4{fill:#F4CA9E;}
	.st5{fill:#FBF69F;}
	.st6{fill:#FBF376;}
	.st7{fill:#FCD836;}
	.st8{fill:#FBC02A;}
	.st9{fill:#FAA823;}
	.st10{fill:#FBE068;}
	.st11{fill:#FFCD9C;}
	.st12{fill:#C4925C;}
	.st13{fill:#A5714E;}
</style>
<title>Service 4</title>
<polygon class="st0" points="103,35.4 116.7,36.7 83.8,17.8 70.2,16.5 "/>
<polygon class="st1" points="36.8,35.8 70.3,55.1 70.2,16.4 "/>
<polygon class="st2" points="70.2,17 57.8,55.7 70.2,54.7 "/>
<polygon class="st3" points="103,35.4 70.2,16.4 70.2,54.7 69.6,54.7 "/>
<path class="st4" d="M69.6,55L69.6,55L36.7,36c-0.1-0.1-0.1-0.2-0.1-0.3c0,0,0,0,0.1-0.1l33.3-19.4c0.1-0.1,0.3-0.1,0.3,0
	c0.1,0.1,0.1,0.3,0,0.4l0,0l-33,19.2l32.3,18.8c0.1,0.1,0.1,0.2,0.1,0.3C69.8,55,69.7,55,69.6,55L69.6,55z"/>
<path class="st1" d="M69.6,55c-0.1,0-0.2-0.1-0.2-0.2c0,0,0,0,0,0c0-0.1,0-0.2,0.1-0.2l32.9-19.3L70.3,16.8c-0.1-0.1-0.1-0.2,0-0.3
	c0,0,0,0,0,0c0.1-0.1,0.2-0.1,0.3-0.1L103,35c0.1,0.1,0.1,0.2,0.1,0.3c0,0,0,0-0.1,0.1L69.8,54.9C69.7,55,69.6,55,69.6,55z"/>
<polygon class="st0" points="37.2,35.4 23.3,36.7 56.1,17.8 69.7,16.5 "/>
<polygon class="st5" points="70.3,28.2 62,16.8 62,16.9 43.6,19.6 70.2,28.3 "/>
<polygon class="st6" points="70.4,28.1 70.4,0 62,16.8 70.3,28.2 "/>
<polygon class="st7" points="56.8,32.8 56.8,32.9 70,28.6 70.2,28.3 43.6,19.6 43.3,19.6 "/>
<polygon class="st6" points="56.8,32.9 53.8,50.7 70,28.6 "/>
<polygon class="st7" points="70.4,42.6 70.4,28.5 70,28.6 53.8,50.7 53.6,51.4 "/>
<polygon class="st8" points="70.4,0 70.4,28.1 78.7,16.7 "/>
<polygon class="st7" points="70.4,28.4 97.4,19.6 78.7,16.9 78.7,16.7 70.4,28.1 70.4,28.4 "/>
<polygon class="st9" points="83.9,32.8 97.4,19.6 97.4,19.6 70.4,28.4 "/>
<polygon class="st10" points="70.4,28.5 70.4,42.6 86.9,51.4 70.4,28.4 "/>
<polygon class="st8" points="83.9,32.8 70.4,28.4 70.4,28.4 86.9,51.4 87.1,51.4 "/>
<path class="st11" d="M116.4,37L116.4,37L103,35.6c-0.1,0-0.2-0.1-0.2-0.2s0.1-0.2,0.2-0.2l0,0l13.5,1.3c0.2,0,0.2,0.2,0.2,0.2
	C116.7,36.8,116.6,36.9,116.4,37L116.4,37L116.4,37z"/>
<path class="st11" d="M23.6,36.8L23.6,36.8L37,35.5c0.1,0,0.2-0.1,0.2-0.2S37.1,35,37,35l0,0l-13.4,1.4c-0.1,0-0.2,0.2-0.2,0.2
	C23.4,36.8,23.5,36.8,23.6,36.8L23.6,36.8z"/>
<path class="st12" d="M81.5,70.5c0,0-0.2,0-0.2-0.1l-0.2-0.2c-0.1-0.1-0.1-0.2,0-0.3s0.2-0.1,0.3,0l0.1,0.1l32-18.6
	c0.1-0.1,0.2,0,0.3,0.1c0.1,0.1,0,0.2-0.1,0.3L81.5,70.5C81.5,70.4,81.5,70.5,81.5,70.5z"/>
<path class="st13" d="M81.3,70.2c-0.1,0-0.2,0-0.2-0.1l-13-14.9c-0.1-0.1-0.1-0.2,0-0.3c0.1-0.1,0.2-0.1,0.3,0l0,0l0,0l12.9,14.9
	C81.4,69.9,81.4,70,81.3,70.2C81.4,70.2,81.4,70.2,81.3,70.2z"/>
<path class="st12" d="M56.1,70.4L56.1,70.4L24.4,52.1c-0.1-0.1-0.2-0.2-0.1-0.3c0.1-0.1,0.2-0.2,0.3-0.1L56,69.8l12.2-14.9
	c0.1-0.1,0.2-0.1,0.3,0c0.1,0.1,0.1,0.2,0,0.2l0,0l-12.2,15C56.2,70.3,56.2,70.4,56.1,70.4z"/>
<polygon class="st1" points="69.2,54.7 102.6,35.3 102.5,73 69.1,92.4 "/>
<polygon class="st13" points="69.2,54.7 69.1,92.4 36.3,73.5 36.4,35.8 "/>
<polygon class="st0" points="82.9,70.5 116.2,51 102.5,35.2 69.1,54.6 "/>
<polygon class="st0" points="56.5,70.4 69.2,54.8 36.5,35.8 23.8,51.4 "/>
</svg>
