<?xml version="1.0" encoding="utf-8"?>
<!-- Generator: Adobe Illustrator 22.1.0, SVG Export Plug-In . SVG Version: 6.00 Build 0)  -->
<svg version="1.1" id="Layer_1" xmlns="http://www.w3.org/2000/svg" xmlns:xlink="http://www.w3.org/1999/xlink" x="0px" y="0px"
	 viewBox="0 0 140 100" style="enable-background:new 0 0 140 100;" xml:space="preserve">
<style type="text/css">
	.st0{fill:#EABD8D;}
	.st1{fill:#C9905C;}
	.st2{opacity:0.2;fill:#532100;enable-background:new    ;}
	.st3{fill:#935A49;}
	.st4{fill:#FFCD9C;}
	.st5{fill:#F4CA9E;}
	.st6{fill:#E8E8E8;}
	.st7{fill:#878787;}
	.st8{fill:#00A9CE;}
	.st9{fill:#C4925C;}
	.st10{fill:#A5714E;}
</style>
<title>Service 5</title>
<polygon class="st0" points="98.7,37.4 110.5,38.6 82,22.2 70.2,21 "/>
<polygon class="st1" points="41.1,37.8 70.2,54.6 70.2,21 "/>
<polygon class="st2" points="70.2,21.4 59.3,55.1 70.2,54.2 "/>
<polygon class="st3" points="98.7,37.4 70.2,21 70.2,54.2 69.6,54.3 "/>
<path class="st4" d="M110.4,38.8L110.4,38.8l-11.7-1.2c-0.1,0-0.2-0.1-0.2-0.2c0,0,0,0,0,0c0-0.1,0.1-0.2,0.2-0.2c0,0,0,0,0,0l0,0
	l11.7,1.2c0.1,0,0.2,0.1,0.2,0.2C110.6,38.7,110.5,38.8,110.4,38.8L110.4,38.8L110.4,38.8z"/>
<path class="st5" d="M69.6,54.5L69.6,54.5L41,38c-0.1-0.1-0.1-0.2-0.1-0.3c0,0,0,0,0.1-0.1l29-16.8c0.1-0.1,0.2-0.1,0.3,0
	c0.1,0.1,0.1,0.2,0,0.3l0,0L41.5,37.8l28.2,16.3c0.1,0.1,0.1,0.2,0.1,0.3C69.8,54.5,69.7,54.5,69.6,54.5z"/>
<path class="st1" d="M69.6,54.5c-0.1,0-0.2-0.1-0.2-0.2c0,0,0,0,0,0c0-0.1,0-0.1,0.1-0.2l28.6-16.8L70.2,21.2
	c-0.1-0.1-0.1-0.2,0-0.3c0,0,0,0,0,0c0.1-0.1,0.2-0.1,0.3-0.1l28.2,16.2c0.1,0.1,0.1,0.2,0.1,0.3c0,0,0,0-0.1,0.1L69.6,54.5
	C69.7,54.5,69.6,54.5,69.6,54.5z"/>
<polygon class="st0" points="41.3,37.4 29.4,38.5 58,22 69.8,20.9 "/>
<path class="st4" d="M29.6,38.7L29.6,38.7l11.7-1.2c0.1,0,0.2-0.1,0.2-0.2c0,0,0,0,0,0c0-0.1-0.1-0.2-0.2-0.2c0,0,0,0,0,0l0,0
	l-11.7,1.2c-0.1,0-0.2,0.1-0.2,0.2C29.4,38.6,29.5,38.7,29.6,38.7z"/>
<rect x="48.6" class="st6" width="40.3" height="56.1"/>
<rect x="59" y="5.5" class="st7" width="23" height="1.6"/>
<rect x="59" y="9" class="st7" width="26.2" height="2.2"/>
<rect x="52.1" y="28.7" class="st7" width="8.9" height="2.4"/>
<rect x="52.1" y="37.1" class="st7" width="33.5" height="1.2"/>
<rect x="52.1" y="39.5" class="st7" width="33.5" height="1.2"/>
<rect x="52.1" y="41.9" class="st7" width="33.5" height="1.2"/>
<rect x="52.1" y="17.8" class="st7" width="19.3" height="1.2"/>
<rect x="52.1" y="20.1" class="st7" width="22" height="1.2"/>
<rect x="52.1" y="22.5" class="st7" width="29.1" height="1.2"/>
<rect x="63.2" y="28.7" class="st7" width="11.1" height="2.4"/>
<rect x="76.8" y="28.7" class="st7" width="8.8" height="2.4"/>
<circle class="st8" cx="54.3" cy="8.2" r="2.2"/>
<path class="st9" d="M80,68c0,0-0.1,0-0.1-0.1l-0.2-0.2c-0.1-0.1-0.1-0.2,0-0.3c0.1-0.1,0.2-0.1,0.3,0c0,0,0,0,0,0l0.1,0.1
	l27.9-16.2c0.1-0.1,0.2,0,0.2,0.1c0,0,0,0,0,0c0.1,0.1,0,0.2-0.1,0.2c0,0,0,0,0,0L80,68C80,67.9,80,68,80,68z"/>
<path class="st10" d="M79.8,67.8c0,0-0.1,0-0.1-0.1l-11.3-13c-0.1-0.1-0.1-0.2,0-0.3c0.1-0.1,0.2-0.1,0.3,0l0,0l11.2,13
	C79.9,67.5,79.9,67.6,79.8,67.8C79.9,67.7,79.9,67.7,79.8,67.8C79.9,67.8,79.9,67.8,79.8,67.8z"/>
<path class="st9" d="M57.9,67.9L57.9,67.9L30.3,52c-0.1-0.1-0.1-0.2-0.1-0.3c0.1-0.1,0.2-0.1,0.3-0.1l27.3,15.8l10.5-12.9
	c0.1-0.1,0.2-0.1,0.3,0c0.1,0.1,0.1,0.2,0,0.3l0,0L58,67.8C58,67.8,58,67.9,57.9,67.9z"/>
<polygon class="st1" points="69.3,54.3 98.4,37.4 98.3,70.2 69.2,87.1 "/>
<polygon class="st10" points="69.3,54.3 69.2,87.1 40.7,70.6 40.8,37.8 "/>
<polygon class="st0" points="81.2,68 110.2,51.1 98.3,37.4 69.2,54.2 "/>
<polygon class="st0" points="58.3,67.9 69.3,54.3 40.8,37.8 29.8,51.4 "/>
</svg>
