<?xml version="1.0" encoding="utf-8"?>
<!-- Generator: Adobe Illustrator 22.1.0, SVG Export Plug-In . SVG Version: 6.00 Build 0)  -->
<svg version="1.1" id="Layer_1" xmlns="http://www.w3.org/2000/svg" xmlns:xlink="http://www.w3.org/1999/xlink" x="0px" y="0px"
	 viewBox="0 0 140 100" style="enable-background:new 0 0 140 100;" xml:space="preserve">
<style type="text/css">
	.st0{fill:#A5714E;}
	.st1{fill:#C9905C;}
	.st2{fill:#EABD8D;}
	.st3{fill:#4A2808;}
	.st4{opacity:0.3;fill:#FFFFFF;enable-background:new    ;}
	.st5{fill:#C4925C;}
</style>
<title>Service 1</title>
<polygon class="st0" points="69.6,38.9 36.4,19.5 36.4,19.8 36.4,57.9 69.4,77.1 "/>
<polygon class="st1" points="69.6,38.9 103.6,19.3 103.3,57.5 69.4,77.1 "/>
<polygon class="st2" points="36.4,19.6 70.4,0 103.6,19.3 69.6,38.9 "/>
<path class="st3" d="M75.1,41.8l7.8-4.5v9l-7.8,4.5L75.1,41.8z M82.6,46.2v-8.3L75.3,42v8.3L82.6,46.2L82.6,46.2z"/>
<path class="st3" d="M79.2,46.8c0.4-0.2,0.8-0.3,0.8-0.1v0.1l-2,1.1v-0.1c0-0.2,0.3-0.5,0.8-0.8l0.1-0.1v0.3l0.2-0.1v-0.3L79.2,46.8
	z"/>
<polygon class="st3" points="79.1,43.8 79.1,44.3 79,46.8 79.1,47.1 78.8,47.2 78.8,47 78.8,44.4 78.8,43.9 "/>
<path class="st3" d="M79.9,40.3v2.6c0,0.5-0.3,1-0.8,1.3L79,44.3v-0.5l-0.2,0.1v0.5l-0.2,0.1c-0.4,0.2-0.8,0-0.7-0.4v-2.7L79.9,40.3
	z"/>
<path class="st3" d="M87.9,37v0.3c0.9-0.5,1.6-0.2,1.7,0.5l-1.7,1v2.7c0,0.4-0.3,0.8-0.6,1c-0.3,0.2-0.6,0-0.6-0.3v-0.1l0.2-0.1v0.1
	c0,0.2,0.2,0.3,0.4,0.2c0.2-0.1,0.3-0.4,0.3-0.6V39L86,40c0.2-1,0.8-1.9,1.7-2.4v-0.3L87.9,37z"/>
<path class="st3" d="M83.9,36.7l7.8-4.5v9l-7.8,4.5L83.9,36.7z M91.5,41.1v-8.3l-7.3,4.2v8.3L91.5,41.1z"/>
<path class="st3" d="M89,35.8c0,0.1,0,0.2,0,0.3c0,0.1-0.1,0.1-0.1,0.2h-0.1c-0.1,0-0.1-0.1,0-0.2C88.9,36,88.9,35.9,89,35.8z"/>
<path class="st3" d="M89.6,36c0,0.1,0,0.2,0,0.3c0,0.1-0.1,0.1-0.1,0.2c0,0,0,0-0.1,0s-0.1-0.1,0-0.2C89.5,36.2,89.6,36.1,89.6,36z"
	/>
<path class="st3" d="M88.4,35.8c0,0.1,0,0.2,0,0.3c0,0.1-0.1,0.1-0.1,0.2c0,0,0,0-0.1,0c0,0-0.1-0.1,0-0.2
	C88.2,35.9,88.3,35.8,88.4,35.8z"/>
<path class="st3" d="M89.7,35c0,0.1,0,0.2,0,0.3c0,0.1-0.1,0.1-0.1,0.2c0,0,0,0-0.1,0s-0.1-0.1,0-0.2C89.5,35.2,89.6,35.1,89.7,35z"
	/>
<path class="st3" d="M89.1,35c0,0.1,0,0.2,0,0.3c0,0.1-0.1,0.1-0.1,0.2h-0.1c0,0-0.1-0.1,0-0.2C88.9,35.2,89,35.1,89.1,35z"/>
<polygon class="st3" points="98.4,35.7 98.4,36.1 95.2,38 95.2,37.6 "/>
<polygon class="st3" points="97.6,30.2 98.1,31.4 97.8,31.6 97.8,35.6 97.4,35.8 97.4,31.8 97,32 "/>
<path class="st3" d="M92.9,31.6l7.8-4.5v9l-7.8,4.5V31.6z M100.4,35.9v-8.3l-7.3,4.2v8.3L100.4,35.9z"/>
<polygon class="st3" points="96.1,31.1 96.6,32.3 96.2,32.5 96.2,36.5 95.8,36.7 95.8,32.7 95.5,32.9 "/>
<polygon class="st4" points="82.5,7 48.5,26.6 48.5,26.6 48.5,26.6 48.3,64.8 54,68.2 54.3,30 88.3,10.4 "/>
<polygon class="st4" points="91.5,26.3 91.4,26.4 91.5,26.3 58.4,6.9 52.5,10.3 85.6,29.7 85.6,67.7 91.4,64.4 "/>
<path class="st5" d="M69.5,38.7c-0.1,0-0.1,0.1-0.1,0.2l-0.1,37.8c0,0.1,0.1,0.2,0.2,0.2c0,0,0,0,0,0c0.1,0,0.2-0.1,0.2-0.2L69.9,39
	l33.6-19.4v-0.5L69.5,38.7z"/>
</svg>
