<?xml version="1.0" encoding="utf-8"?>
<!-- Generator: Adobe Illustrator 23.0.4, SVG Export Plug-In . SVG Version: 6.00 Build 0)  -->
<svg version="1.1"
	 id="Layer_1" xmlns:cc="http://creativecommons.org/ns#" xmlns:dc="http://purl.org/dc/elements/1.1/" xmlns:inkscape="http://www.inkscape.org/namespaces/inkscape" xmlns:rdf="http://www.w3.org/1999/02/22-rdf-syntax-ns#" xmlns:sodipodi="http://sodipodi.sourceforge.net/DTD/sodipodi-0.dtd" xmlns:svg="http://www.w3.org/2000/svg"
	 xmlns="http://www.w3.org/2000/svg" xmlns:xlink="http://www.w3.org/1999/xlink" x="0px" y="0px" viewBox="0 0 87 53.8"
	 style="enable-background:new 0 0 87 53.8;" xml:space="preserve">
<style type="text/css">
	.st0{fill:#B8CDCD;}
	.st1{fill:#BA6336;}
	.st2{fill:#93432C;}
	.st3{fill:#86ACC4;}
	.st4{fill:#E6E3DE;}
	.st5{fill:#1A1D22;}
	.st6{fill:#E2A472;}
	.st7{fill:#FFFFFF;}
	.st8{fill:#3D7795;}
	.st9{fill:#CA895C;}
	.st10{fill:#A25E36;}
	.st11{fill:#88472D;}
	.st12{fill:#683325;}
	.st13{fill:#8A4A28;}
	.st14{fill:#7C8884;}
	.st15{fill:#20284D;}
	.st16{fill:#7F7F7E;}
</style>
<g>
	<rect x="17" y="5.8" class="st0" width="36.5" height="44.1"/>
	<rect x="17" y="3.9" class="st1" width="28.5" height="1.9"/>
	<polygon class="st2" points="45.5,3.9 17,10.9 17,12.8 45.5,5.8 	"/>
	<polygon class="st3" points="17,12.8 17,5.8 5.4,9.4 5.4,49.8 17,49.8 45.5,49.8 45.5,5.8 	"/>
	<rect x="45.5" y="5.8" class="st4" width="36.5" height="44.1"/>
	<g>
		<rect x="8.4" y="29.9" class="st0" width="6.8" height="15.5"/>
		<rect x="8.9" y="30.5" class="st5" width="5.8" height="14.3"/>
		<rect x="8.7" y="33" class="st0" width="6.3" height="0.6"/>
		<rect x="8.7" y="35.9" class="st0" width="6.3" height="0.6"/>
		<rect x="8.7" y="38.9" class="st0" width="6.3" height="0.6"/>
		<rect x="8.7" y="41.9" class="st0" width="6.3" height="0.6"/>
		<rect x="11.5" y="30.1" class="st0" width="0.6" height="15"/>
	</g>
	<g>
		<rect x="19.6" y="29.9" class="st0" width="6.8" height="15.5"/>
		<rect x="20.1" y="30.5" class="st5" width="5.8" height="14.3"/>
		<rect x="19.9" y="33" class="st0" width="6.3" height="0.6"/>
		<rect x="19.9" y="35.9" class="st0" width="6.3" height="0.6"/>
		<rect x="19.9" y="38.9" class="st0" width="6.3" height="0.6"/>
		<rect x="19.9" y="41.9" class="st0" width="6.3" height="0.6"/>
		<rect x="22.7" y="30.1" class="st0" width="0.6" height="15"/>
	</g>
	<g>
		<rect x="30.8" y="29.9" class="st0" width="6.8" height="15.5"/>
		<rect x="31.3" y="30.5" class="st5" width="5.8" height="14.3"/>
		<rect x="31" y="33" class="st0" width="6.3" height="0.6"/>
		<rect x="31" y="35.9" class="st0" width="6.3" height="0.6"/>
		<rect x="31" y="38.9" class="st0" width="6.3" height="0.6"/>
		<rect x="31" y="41.9" class="st0" width="6.3" height="0.6"/>
		<rect x="33.9" y="30.1" class="st0" width="0.6" height="15"/>
	</g>
	<rect x="45.5" y="3.9" class="st6" width="36.4" height="1.9"/>
	<g>
		<rect x="48.2" y="28.9" class="st7" width="5.8" height="3.8"/>

			<rect x="49.7" y="28.4" transform="matrix(-1.836970e-16 1 -1 -1.836970e-16 81.84 -20.2859)" class="st8" width="2.7" height="4.7"/>
	</g>
	<g>
		<rect x="56.6" y="28.9" class="st7" width="5.8" height="3.8"/>

			<rect x="58.1" y="28.4" transform="matrix(-1.836970e-16 1 -1 -1.836970e-16 90.279 -28.725)" class="st8" width="2.7" height="4.7"/>
	</g>
	<g>
		<rect x="65" y="28.9" class="st7" width="5.8" height="3.8"/>

			<rect x="66.6" y="28.4" transform="matrix(-1.836970e-16 1 -1 -1.836970e-16 98.7178 -37.1638)" class="st8" width="2.7" height="4.7"/>
	</g>
	<g>
		<rect x="73.5" y="28.9" class="st7" width="5.8" height="3.8"/>

			<rect x="75" y="28.4" transform="matrix(-1.836970e-16 1 -1 -1.836970e-16 107.1569 -45.6029)" class="st8" width="2.7" height="4.7"/>
	</g>
	<g>
		<rect x="48.2" y="34.3" class="st9" width="14.2" height="15.6"/>
		<rect x="48.8" y="35.2" class="st5" width="13" height="14.6"/>
		<rect x="48.8" y="34.9" class="st7" width="13" height="2.1"/>
	</g>
	<g>
		<rect x="65" y="34.3" class="st9" width="14.2" height="15.6"/>
		<rect x="65.6" y="35.2" class="st5" width="13" height="14.6"/>
		<rect x="65.6" y="34.9" class="st7" width="13" height="2.1"/>
	</g>
	<g>
		<polygon class="st2" points="17.1,3.9 5.4,7.5 5.4,9.3 17,5.8 17,5.8 17.1,5.8 		"/>
		<polygon class="st2" points="5.4,9.3 5.4,9.4 17,5.8 17,5.8 		"/>
	</g>
	<g>
		<polygon class="st10" points="51,41.9 51,43.8 49.5,43.8 49.5,49.8 60.6,49.8 60.6,41.9 		"/>
		<polygon class="st11" points="51,41.9 51,43.8 48.8,43.8 48.8,49.8 55.8,49.8 55.8,41.9 		"/>
		<g>
			<g>
				<rect x="51" y="41.9" class="st12" width="0.3" height="8"/>
			</g>
			<g>
				<rect x="53.4" y="41.9" class="st12" width="0.3" height="8"/>
			</g>
		</g>
		<g>
			<g>
				<rect x="57.3" y="41.9" class="st13" width="0.3" height="8"/>
			</g>
			<g>
				<rect x="59" y="41.9" class="st13" width="0.3" height="8"/>
			</g>
		</g>
		<g>
			<g>
				<rect x="55.8" y="43.7" class="st13" width="4.8" height="0.3"/>
			</g>
			<g>
				<rect x="55.8" y="45.8" class="st13" width="4.8" height="0.3"/>
			</g>
			<g>
				<rect x="55.8" y="47.9" class="st13" width="4.8" height="0.3"/>
			</g>
		</g>
		<g>
			<g>
				<g>
					<rect x="48.8" y="43.7" class="st12" width="7" height="0.3"/>
				</g>
			</g>
			<g>
				<g>
					<rect x="48.8" y="45.8" class="st12" width="7" height="0.3"/>
				</g>
			</g>
			<g>
				<g>
					<rect x="48.8" y="47.9" class="st12" width="7" height="0.3"/>
				</g>
			</g>
		</g>
		<g>
			<g>
				<rect x="54.7" y="43" class="st14" width="0.6" height="0.4"/>
				<rect x="54" y="45.1" class="st14" width="0.6" height="0.4"/>
				<rect x="54.9" y="46.4" class="st14" width="0.6" height="0.4"/>
				<rect x="54.2" y="48.3" class="st14" width="0.6" height="0.4"/>
			</g>
			<g>

					<rect x="49.9" y="48.2" transform="matrix(-1 -1.224647e-16 1.224647e-16 -1 100.4966 96.9269)" class="st14" width="0.6" height="0.4"/>

					<rect x="49.3" y="47.1" transform="matrix(-1 -1.224647e-16 1.224647e-16 -1 99.315 94.5637)" class="st14" width="0.6" height="0.4"/>

					<rect x="49.2" y="44.9" transform="matrix(-1 -1.224647e-16 1.224647e-16 -1 99.0595 90.2844)" class="st14" width="0.6" height="0.4"/>
			</g>
			<g>

					<rect x="52.3" y="49" transform="matrix(-1 -1.224647e-16 1.224647e-16 -1 105.2869 98.5397)" class="st14" width="0.6" height="0.4"/>

					<rect x="52.2" y="46.7" transform="matrix(-1 -1.224647e-16 1.224647e-16 -1 105.0056 93.7653)" class="st14" width="0.6" height="0.4"/>

					<rect x="51.5" y="44.3" transform="matrix(-1 -1.224647e-16 1.224647e-16 -1 103.5685 88.975)" class="st14" width="0.6" height="0.4"/>

					<rect x="52.2" y="42.2" transform="matrix(-1 -1.224647e-16 1.224647e-16 -1 105.0056 84.9351)" class="st14" width="0.6" height="0.4"/>
			</g>
		</g>
		<g>
			<rect x="56.5" y="41.9" class="st13" width="0.4" height="0.4"/>
			<rect x="56.5" y="43.9" class="st13" width="0.4" height="0.4"/>
			<rect x="56.5" y="46" class="st13" width="0.4" height="0.4"/>
			<rect x="56.5" y="48.1" class="st13" width="0.4" height="0.4"/>
		</g>
		<g>
			<rect x="58.1" y="41.9" class="st13" width="0.4" height="0.4"/>
			<rect x="58.1" y="43.9" class="st13" width="0.4" height="0.4"/>
			<rect x="58.1" y="46" class="st13" width="0.4" height="0.4"/>
			<rect x="58.1" y="48.1" class="st13" width="0.4" height="0.4"/>
		</g>
		<g>
			<rect x="59.6" y="41.9" class="st13" width="0.4" height="0.4"/>
			<rect x="59.6" y="43.9" class="st13" width="0.4" height="0.4"/>
			<rect x="59.6" y="46" class="st13" width="0.4" height="0.4"/>
			<rect x="59.6" y="48.1" class="st13" width="0.4" height="0.4"/>
		</g>
	</g>
	<g>
		<polygon class="st10" points="67.9,41.9 67.9,43.9 66.4,43.9 66.4,49.9 76,49.9 76,41.9 		"/>
		<rect x="65.7" y="41.9" class="st11" width="4.8" height="8"/>
		<g>
			<g>
				<rect x="67.8" y="41.9" class="st12" width="0.3" height="8"/>
			</g>
			<g>
				<rect x="70.3" y="41.9" class="st12" width="0.3" height="8"/>
			</g>
		</g>
		<g>
			<g>
				<rect x="72.6" y="41.9" class="st13" width="0.3" height="8"/>
			</g>
			<g>
				<rect x="74.3" y="41.9" class="st13" width="0.3" height="8"/>
			</g>
		</g>
		<g>
			<g>
				<rect x="71.2" y="43.8" class="st13" width="4.8" height="0.3"/>
			</g>
			<g>
				<rect x="71.2" y="45.9" class="st13" width="4.8" height="0.3"/>
			</g>
			<g>
				<rect x="71.2" y="48" class="st13" width="4.8" height="0.3"/>
			</g>
		</g>
		<g>
			<g>
				<g>
					<rect x="65.7" y="43.8" class="st12" width="5.5" height="0.3"/>
				</g>
			</g>
			<g>
				<g>
					<rect x="65.7" y="45.9" class="st12" width="5.5" height="0.3"/>
				</g>
			</g>
			<g>
				<g>
					<rect x="65.7" y="48" class="st12" width="5.5" height="0.3"/>
				</g>
			</g>
		</g>
		<g>
			<g>
				<rect x="71.6" y="43.1" class="st14" width="0.6" height="0.4"/>
				<rect x="70.8" y="45.2" class="st14" width="0.6" height="0.4"/>
				<rect x="71.8" y="46.4" class="st14" width="0.6" height="0.4"/>
				<rect x="71.1" y="48.4" class="st14" width="0.6" height="0.4"/>
			</g>
			<g>

					<rect x="66.8" y="48.3" transform="matrix(-1 -1.224647e-16 1.224647e-16 -1 134.2309 97.0609)" class="st14" width="0.6" height="0.4"/>

					<rect x="66.2" y="47.1" transform="matrix(-1 -1.224647e-16 1.224647e-16 -1 133.0493 94.6976)" class="st14" width="0.6" height="0.4"/>

					<rect x="66.1" y="45" transform="matrix(-1 -1.224647e-16 1.224647e-16 -1 132.7939 90.4183)" class="st14" width="0.6" height="0.4"/>
			</g>
			<g>

					<rect x="69.2" y="49.1" transform="matrix(-1 -1.224647e-16 1.224647e-16 -1 139.0212 98.6736)" class="st14" width="0.6" height="0.4"/>

					<rect x="69.1" y="46.7" transform="matrix(-1 -1.224647e-16 1.224647e-16 -1 138.7399 93.8992)" class="st14" width="0.6" height="0.4"/>

					<rect x="68.3" y="44.3" transform="matrix(-1 -1.224647e-16 1.224647e-16 -1 137.3028 89.1089)" class="st14" width="0.6" height="0.4"/>

					<rect x="69.1" y="42.3" transform="matrix(-1 -1.224647e-16 1.224647e-16 -1 138.7399 85.0691)" class="st14" width="0.6" height="0.4"/>
			</g>
		</g>
		<g>
			<rect x="71.9" y="41.9" class="st13" width="0.4" height="0.4"/>
			<rect x="71.9" y="44" class="st13" width="0.4" height="0.4"/>
			<rect x="71.9" y="46.1" class="st13" width="0.4" height="0.4"/>
			<rect x="71.9" y="48.2" class="st13" width="0.4" height="0.4"/>
		</g>
		<g>
			<rect x="73.4" y="41.9" class="st13" width="0.4" height="0.4"/>
			<rect x="73.4" y="44" class="st13" width="0.4" height="0.4"/>
			<rect x="73.4" y="46.1" class="st13" width="0.4" height="0.4"/>
			<rect x="73.4" y="48.2" class="st13" width="0.4" height="0.4"/>
		</g>
		<g>
			<rect x="75" y="41.9" class="st13" width="0.4" height="0.4"/>
			<rect x="75" y="44" class="st13" width="0.4" height="0.4"/>
			<rect x="75" y="46.1" class="st13" width="0.4" height="0.4"/>
			<rect x="75" y="48.2" class="st13" width="0.4" height="0.4"/>
		</g>
	</g>
	<g>
		<path class="st15" d="M53.3,13.1c-0.1,0.6-0.5,1.1-1,1.6c-0.5,0.4-1.1,0.6-1.8,0.7c0,0,0,0-0.1,0c-0.1,0-0.2-0.2-0.3-0.6
			c-0.2-0.4-0.2-0.7-0.2-0.8c0,0,0-0.1,0.1-0.1c0.3-0.1,0.6-0.1,0.9-0.3c0.3-0.2,0.5-0.4,0.6-0.7c0-0.2,0-0.4-0.2-0.7
			c-0.3-0.4-0.4-0.6-0.5-0.7c-0.2-0.3-0.2-0.7-0.1-1c0.1-0.5,0.4-1,1-1.4c0.5-0.3,1-0.5,1.6-0.6c0,0,0.1,0,0.1,0c0,0,0.1,0,0.1,0.1
			c0.1,0.4,0.2,0.8,0.3,1.2c0,0,0,0,0,0c0,0,0,0.1-0.1,0.1c0,0,0,0,0,0c0,0-0.1,0-0.1,0c0,0-0.1,0-0.1,0c-0.2,0-0.4,0-0.6,0.1
			c-0.2,0.1-0.3,0.3-0.4,0.5c0,0.2,0,0.4,0.2,0.7c0.3,0.5,0.4,0.7,0.5,0.8C53.3,12.4,53.3,12.8,53.3,13.1z"/>
		<path class="st15" d="M58.7,11.9L58.1,15c0,0.1-0.1,0.2-0.2,0.2c-0.1,0-0.3,0-0.7,0c-0.2,0-0.5,0-0.7,0c-0.1,0-0.1-0.1-0.1-0.2
			c0-0.3,0.1-0.6,0.2-1.2c0.1-0.5,0.2-0.9,0.2-1.2c0.1-0.4-0.1-0.5-0.4-0.5c-0.2,0-0.3,0.1-0.4,0.1c-0.2,0.1-0.3,0.2-0.3,0.3
			l-0.2,1.1c0,0.1-0.1,0.4-0.1,0.6c0,0.3-0.1,0.5-0.1,0.7c0,0.1-0.1,0.2-0.2,0.2c-0.1,0-0.4,0-0.8,0c-0.2,0-0.4,0-0.5,0
			c-0.1,0-0.1-0.1-0.1-0.2c0-0.2,0.1-0.6,0.2-1.1c0.1-0.5,0.2-0.8,0.2-1.1c0.2-1,0.3-1.8,0.4-2.4c0-0.2,0.1-0.4,0.1-0.7
			c0-0.2,0-0.4,0-0.7c0,0,0-0.1,0-0.1c0,0,0-0.1,0.1-0.1c0.1,0,0.3,0,0.4,0c0.2,0,0.4,0,0.4,0l0.8-0.1c0,0,0.1,0,0.1,0.1
			c0,0.1,0,0.2-0.1,0.4c0,0.2-0.1,0.3-0.1,0.4c-0.1,0.7-0.2,1.2-0.3,1.6c0,0.1,0,0.1,0,0.1c0,0,0.1-0.1,0.3-0.2
			c0.2-0.1,0.4-0.2,0.6-0.3c0.2-0.1,0.5-0.2,0.7-0.2c0.4,0,0.7,0.1,0.9,0.3C58.6,11.2,58.7,11.5,58.7,11.9z"/>
		<path class="st15" d="M60.9,13.1c0,0.2-0.1,0.5-0.2,1c-0.1,0.4-0.1,0.8-0.2,1c0,0.1-0.1,0.1-0.1,0.1c-0.2,0-0.5,0-0.7,0
			c-0.2,0-0.5,0-0.7,0c-0.1,0-0.1,0-0.1-0.1c0,0,0-0.1,0-0.1c0-0.2,0.1-0.5,0.2-0.9s0.1-0.7,0.2-0.9c0.1-0.7,0.2-1.3,0.3-2
			c0,0,0-0.1,0-0.1c0-0.1,0.1-0.1,0.1-0.1c0.1,0,0.2,0,0.4,0c0.2,0,0.3,0,0.4,0c0.1,0,0.2,0,0.4,0c0.2,0,0.3,0,0.4,0
			c0.1,0,0.1,0,0.1,0.1c0,0,0,0,0,0.1C61.1,11.7,61,12.4,60.9,13.1z M61.6,9.8c-0.1,0.5-0.4,0.8-1,0.8c-0.2,0-0.4-0.1-0.6-0.2
			c-0.2-0.1-0.2-0.3-0.2-0.6c0-0.2,0.2-0.4,0.4-0.6C60.4,9.1,60.6,9,60.8,9c0.2,0,0.4,0.1,0.6,0.2C61.5,9.3,61.6,9.6,61.6,9.8
			L61.6,9.8z"/>
		<path class="st15" d="M66.7,13c-0.1,0.6-0.4,1.2-0.8,1.6c-0.4,0.4-1,0.7-1.6,0.7c-0.2,0-0.5-0.1-0.7-0.2c-0.2-0.1-0.4-0.2-0.3-0.2
			c0,0-0.1,0-0.1,0.1c0,0.2-0.1,0.4-0.1,0.7c0,0.3-0.1,0.5-0.1,0.7c0,0.1-0.1,0.2-0.2,0.1c0,0,0,0,0,0l-0.9,0c-0.1,0-0.3,0-0.4,0
			c-0.1,0-0.1-0.1-0.1-0.1c0,0,0,0,0,0l0.6-3.5c0.1-0.6,0.2-1.2,0.2-1.8c0,0,0-0.1,0-0.1c0,0,0-0.1,0.1-0.1c0.2-0.1,0.5-0.1,0.7-0.1
			c0.2,0,0.5-0.1,0.7-0.1c0.1,0,0.2,0.1,0.2,0.2c0,0.2,0,0.2,0,0.2c0,0,0.1-0.1,0.4-0.2c0.3-0.2,0.6-0.2,0.8-0.2
			c0.6,0,1.1,0.2,1.4,0.6C66.7,11.8,66.8,12.3,66.7,13z M65,13c0-0.2,0-0.4-0.1-0.6c-0.1-0.2-0.3-0.3-0.5-0.3
			c-0.2,0-0.5,0.1-0.6,0.3c-0.2,0.2-0.3,0.4-0.3,0.6c0,0.3,0,0.5,0.1,0.6c0.1,0.2,0.3,0.3,0.5,0.3C64.6,13.9,64.9,13.6,65,13L65,13z
			"/>
		<path class="st15" d="M68.9,13.1c0,0.2-0.1,0.5-0.2,1c-0.1,0.4-0.1,0.8-0.2,1c0,0.1-0.1,0.1-0.1,0.1c-0.2,0-0.5,0-0.7,0
			c-0.2,0-0.5,0-0.7,0c-0.1,0-0.1,0-0.1-0.1c0,0,0-0.1,0-0.1c0-0.2,0.1-0.5,0.2-0.9s0.1-0.7,0.2-0.9c0.1-0.7,0.2-1.3,0.3-2
			c0,0,0-0.1,0-0.1c0-0.1,0.1-0.1,0.1-0.1c0.1,0,0.2,0,0.4,0c0.2,0,0.3,0,0.4,0s0.2,0,0.4,0c0.2,0,0.3,0,0.4,0c0.1,0,0.1,0,0.1,0.1
			c0,0,0,0,0,0.1C69.2,11.7,69,12.4,68.9,13.1z M69.6,9.8c-0.1,0.5-0.4,0.8-1,0.8c-0.2,0-0.4-0.1-0.6-0.2c-0.2-0.1-0.2-0.3-0.2-0.6
			c0-0.2,0.2-0.4,0.4-0.6C68.4,9.1,68.6,9,68.9,9c0.2,0,0.4,0.1,0.6,0.2C69.6,9.3,69.7,9.6,69.6,9.8L69.6,9.8z"/>
		<path class="st15" d="M72.7,13.9c0,0.1-0.1,0.3-0.1,0.4c0,0.1-0.1,0.3-0.1,0.4c0,0.1,0,0.1-0.1,0.2c-0.1,0-0.1,0.1-0.2,0.1
			c-0.4,0.2-0.9,0.3-1.3,0.3c-0.9,0-1.2-0.3-1.1-1c0-0.2,0.1-0.5,0.2-0.9c0.1-0.4,0.1-0.7,0.2-0.9c0-0.1,0-0.2-0.2-0.2h-0.1
			c0,0,0,0-0.1,0c-0.1,0-0.2,0-0.1-0.1c0,0,0-0.1,0-0.2c0-0.1,0-0.2,0-0.2c0-0.1,0-0.2,0-0.3s0-0.2,0-0.3c0-0.1,0.1-0.1,0.3-0.1
			c0.1,0,0.2,0,0.2-0.1c0.1-0.2,0.1-0.4,0.1-0.5c0.1-0.4,0.1-0.6,0.1-0.6c0.1-0.3,0.1-0.5,0.2-0.5c0.1,0,0.2,0,0.3,0.1
			c0.1,0,0.2,0.1,0.3,0.1c0.1,0,0.4,0,0.7,0.1c0.1,0,0.1,0,0.1,0.1c0,0.1-0.1,0.3-0.1,0.5c-0.1,0.2-0.1,0.4-0.1,0.5
			c0,0.1,0,0.2,0.1,0.2c0.1,0,0.3,0,0.5,0c0.2,0,0.4,0,0.5,0c0.1,0,0.1,0,0.1,0.1c0,0.1,0,0.2-0.1,0.3c0,0.1-0.1,0.2-0.1,0.3
			c0,0.1,0,0.2-0.1,0.3c0,0.1,0,0.2-0.1,0.3c0,0.1-0.1,0.1-0.1,0.1c-0.1,0-0.2,0-0.3,0c-0.1,0-0.2,0-0.3,0h-0.3c0,0-0.1,0.1-0.1,0.2
			l-0.1,0.3c0,0.1,0,0.2-0.1,0.3c0,0.3,0,0.4,0,0.5c0.1,0.1,0.2,0.2,0.4,0.2c0.1,0,0.2,0,0.3-0.1C72.4,13.8,72.5,13.8,72.7,13.9
			C72.6,13.8,72.7,13.8,72.7,13.9z"/>
		<path class="st15" d="M77.6,13c-0.1,0.6-0.4,1.2-0.9,1.7c-0.5,0.4-1.1,0.6-1.8,0.6c-0.7,0-1.2-0.2-1.5-0.6c-0.4-0.4-0.5-1-0.4-1.6
			c0.1-0.7,0.4-1.3,0.9-1.7s1.1-0.6,1.8-0.6c0.7,0,1.2,0.2,1.5,0.6C77.6,11.7,77.7,12.3,77.6,13z M76.1,13c0-0.2,0-0.4-0.1-0.6
			c-0.1-0.2-0.3-0.3-0.5-0.3c-0.2,0-0.5,0.1-0.6,0.3c-0.2,0.2-0.3,0.4-0.3,0.6c0,0.2,0,0.4,0.1,0.6c0.1,0.2,0.3,0.3,0.5,0.3
			c0.2,0,0.5-0.1,0.6-0.3C76,13.4,76.1,13.2,76.1,13z"/>
		<path class="st15" d="M77.9,9.8C77.9,9.8,77.9,9.8,77.9,9.8C77.9,9.9,77.9,9.9,77.9,9.8c-0.1,0-0.1,0-0.2,0h0c0,0,0,0,0,0l0,0
			c0,0,0-0.1,0-0.1c0,0,0,0,0,0h0c0,0,0,0,0,0c0,0,0,0,0,0.1c0,0,0,0.1,0,0.1c0,0,0,0,0,0h0h-0.1c0,0,0,0-0.1,0c0,0,0,0,0,0
			c0,0,0-0.1,0-0.1c0-0.1,0-0.1,0-0.1c0-0.1,0-0.2,0-0.3v0c0,0,0,0,0,0c0,0,0,0,0.1,0h0.1c0.1,0,0.1,0,0.2,0c0,0,0.1,0.1,0.1,0.1
			c0,0,0,0.1,0,0.1c0,0,0,0.1-0.1,0.1c0,0,0,0,0,0l0,0.1C77.9,9.8,77.9,9.8,77.9,9.8z M77.8,9.5C77.8,9.5,77.8,9.4,77.8,9.5
			c-0.1-0.1-0.1-0.1-0.1-0.1c0,0,0,0,0,0c0,0,0,0.1,0,0.1c0,0,0,0,0,0c0,0,0,0,0,0c0,0,0,0,0,0C77.6,9.6,77.7,9.6,77.8,9.5
			C77.7,9.6,77.8,9.5,77.8,9.5L77.8,9.5z"/>
		<path class="st15" d="M77.7,10.1c-0.3,0-0.6-0.3-0.6-0.6S77.4,9,77.7,9c0.3,0,0.6,0.3,0.6,0.6l0,0C78.3,9.9,78,10.1,77.7,10.1z
			 M77.7,9.1c-0.3,0-0.5,0.2-0.5,0.5c0,0.3,0.2,0.5,0.5,0.5s0.5-0.2,0.5-0.5c0,0,0,0,0,0C78.2,9.3,78,9.1,77.7,9.1z"/>
	</g>
	<g>
		<path class="st16" d="M52.4,23.7l-0.8-2.6l-0.8,2.6h-0.4l-1-3.1h0.4l0.8,2.7l0.8-2.7l0.3,0l0.8,2.7l0.8-2.7h0.4l-1,3.1H52.4z"/>
		<path class="st16" d="M54.4,22.9L54,23.7h-0.4l1.4-3.1h0.4l1.4,3.1h-0.4L56,22.9H54.4z M55.2,21.1l-0.7,1.6h1.4L55.2,21.1z"/>
		<path class="st16" d="M58.6,22.7c-0.1,0-0.1,0-0.2,0h-0.8v1h-0.4v-3.1h1.2c0.8,0,1.2,0.4,1.2,1c0,0.5-0.2,0.8-0.7,1l0.7,1h-0.4
			L58.6,22.7z M58.4,22.4c0.6,0,0.9-0.2,0.9-0.7c0-0.5-0.3-0.7-0.9-0.7h-0.8v1.4H58.4z"/>
		<path class="st16" d="M60.8,21v1h1.5v0.3h-1.5v1.1h1.8v0.3h-2.1v-3.1h2.1V21H60.8z"/>
		<path class="st16" d="M65.5,23.7v-1.3h-1.8v1.3h-0.4v-3.1h0.4V22h1.8v-1.4h0.3v3.1H65.5z"/>
		<path class="st16" d="M69.7,22.2c0,0.9-0.7,1.6-1.6,1.6c-0.9,0-1.6-0.7-1.6-1.6c0-0.9,0.7-1.5,1.6-1.5
			C69,20.6,69.7,21.3,69.7,22.2z M66.8,22.2c0,0.7,0.6,1.2,1.3,1.2c0.7,0,1.2-0.5,1.2-1.2c0-0.7-0.6-1.2-1.2-1.2
			C67.4,21,66.8,21.5,66.8,22.2z"/>
		<path class="st16" d="M72.8,22.5c0,0.8-0.5,1.3-1.3,1.3c-0.8,0-1.3-0.5-1.3-1.3v-1.8h0.3v1.8c0,0.6,0.4,0.9,0.9,0.9
			c0.6,0,0.9-0.3,0.9-0.9v-1.8h0.3V22.5z"/>
		<path class="st16" d="M75.6,20.9l-0.1,0.3c-0.3-0.2-0.6-0.3-0.8-0.3c-0.4,0-0.7,0.1-0.7,0.4c0,0.8,1.7,0.4,1.7,1.5
			c0,0.5-0.5,0.8-1.1,0.8c-0.4,0-0.9-0.2-1.2-0.5l0.2-0.3c0.3,0.3,0.7,0.4,1,0.4c0.4,0,0.7-0.2,0.7-0.5c0-0.8-1.7-0.4-1.7-1.5
			c0-0.5,0.4-0.8,1.1-0.8C74.9,20.6,75.3,20.8,75.6,20.9z"/>
		<path class="st16" d="M76.7,21v1h1.5v0.3h-1.5v1.1h1.8v0.3h-2.1v-3.1h2.1V21H76.7z"/>
	</g>
</g>
</svg>
