<?xml version="1.0" encoding="utf-8"?>
<!-- Generator: Adobe Illustrator 25.2.1, SVG Export Plug-In . SVG Version: 6.00 Build 0)  -->
<svg version="1.1" id="Layer_1" xmlns="http://www.w3.org/2000/svg" xmlns:xlink="http://www.w3.org/1999/xlink" x="0px" y="0px"
	 viewBox="0 0 469 364" style="enable-background:new 0 0 469 364;" xml:space="preserve">
<style type="text/css">
	.st0{fill:#CCCCCC;}
	.st1{fill:#F2F2F2;}
	.st2{fill:#1A1C21;}
	.st3{fill:#4F566B;}
	.st4{fill:#843C30;}
	.st5{fill:#0099B1;}
	.st6{fill:#EBA85D;}
	.st7{fill:#AEAEAF;}
	.st8{fill:#DBDBDA;}
	.st9{fill:#FBC28D;}
	.st10{fill:#FCCF8D;}
	.st11{fill:#D36B28;}
	.st12{fill:#E18F2C;}
	.st13{fill:#E6E6CC;}
	.st14{fill:#00A8CD;}
	.st15{fill:#D7864E;}
	.st16{fill:#993933;}
	.st17{fill:#FFFFFF;}
	.st18{fill:#75808F;}
	.st19{fill:#C9D0D8;}
	.st20{fill:#E8E7E7;}
	.st21{fill:#98B2C4;}
	.st22{fill:#708895;}
	.st23{fill:#00A3C8;}
</style>
<rect x="0.4" y="-0.1" class="st0" width="468.6" height="364.3"/>
<rect x="212.3" y="77" transform="matrix(0.7071 -0.7071 0.7071 0.7071 -1.5225 195.0482)" class="st1" width="44.8" height="44.8"/>
<rect y="0.1" class="st1" width="469" height="100"/>
<rect x="295.6" y="308.9" class="st2" width="7.6" height="43.1"/>
<path class="st3" d="M328.3,363.8c-2.1,0-3.8-1.7-3.8-3.8c0-1.1-2-2.8-6.4-4.2c-6.1-1.7-12.4-2.5-18.8-2.4c-15.4,0-25.2,4-25.2,6.7
	c0,2.1-1.7,3.8-3.8,3.8c-2.1,0-3.8-1.7-3.8-3.8c0-10.5,16.9-14.3,32.8-14.3s32.8,3.8,32.8,14.3C332.1,362.1,330.4,363.8,328.3,363.8
	z"/>
<path class="st4" d="M278.3,213.2c10.6,20.1,29.7,19.2,39.1,2.8c5.3-9.4,4.8-26.6,3.2-45.2l-39.1-2.7
	C276.3,187.1,272.9,204.6,278.3,213.2z"/>
<path class="st5" d="M256.2,252.2c-7,0-14.8-4.6-25.7-14.9c-2.3-2.1-2.5-5.7-0.4-8c2.1-2.3,5.7-2.5,8-0.4c0.1,0.1,0.2,0.2,0.2,0.2
	c10.6,10.1,15.8,12,18.3,11.7c3.2-0.3,6.6-5,10.9-11c4.1-6.1,8.8-11.8,13.9-17c2.3-2.2,5.9-2.1,8.1,0.2c2.1,2.2,2.1,5.8-0.1,7.9
	c-4.7,4.8-8.9,10-12.7,15.5c-5.8,8-10.7,14.9-19.1,15.8C257.3,252.1,256.8,252.2,256.2,252.2z"/>
<path class="st6" d="M240.5,244.2c-1.3,0-2.6-0.5-3.6-1.3c-2-1.6-4.1-3.5-6.3-5.6c-2.3-2.1-2.5-5.7-0.4-8c2.1-2.3,5.7-2.5,8-0.4
	c0.1,0.1,0.2,0.2,0.2,0.2c2,1.9,4,3.7,5.7,5.1c2.4,2,2.8,5.6,0.8,8C243.8,243.5,242.2,244.2,240.5,244.2L240.5,244.2z"/>
<path class="st7" d="M277.5,308.9h43.8c4.4,0,7.9-3.6,7.9-7.9l0,0c0-4.4-3.5-7.9-7.9-7.9c0,0,0,0,0,0h-43.8c-4.4,0-7.9,3.6-7.9,7.9
	l0,0C269.5,305.3,273.1,308.9,277.5,308.9C277.5,308.9,277.5,308.9,277.5,308.9z"/>
<path class="st7" d="M301.6,273.1h25.4c8.7,0,16.1-6.5,17.2-15.1l2.5-19.1c0.6-4.9-2.9-9.4-7.8-10c-0.4,0-0.7-0.1-1.1-0.1h-25.3
	c-8.7,0-16.1,6.5-17.2,15.1l-2.5,19.1c-0.6,4.9,2.9,9.4,7.8,10.1C300.8,273.1,301.2,273.1,301.6,273.1z"/>
<path class="st8" d="M301.6,273.1h12.1c8.7,0,16.1-6.5,17.2-15.1l2.5-19.1c0.6-4.9-2.9-9.4-7.8-10.1c-0.4,0-0.7-0.1-1.1-0.1h-12.1
	c-8.7,0-16.1,6.5-17.2,15.1l-2.5,19.1c-0.6,4.9,2.9,9.4,7.8,10.1C300.8,273.1,301.2,273.1,301.6,273.1z"/>
<path class="st9" d="M275.5,290.2h-0.9c-0.6,0-1.6,0-2.5,0.1s-2.2,0.1-3.6,0.2c-1.4,0.1-2.7,0.4-4,0.7c-0.8,0.2-1.5,0.5-2.1,1.1
	c-0.2,0.3-0.4,0.6-0.5,1c-0.2,0.7-0.3,1.5-0.4,2.3c-0.1,2.2-0.1,4.3,0.2,6.5c0.2,2.4,0.5,4.9,0.9,7.5c1.4,10.2,3,20.6,3.8,28.5
	s1.3,13.1,1.3,13.1l0,0c0.3,2.5-1.6,4.8-4.1,5.1s-4.8-1.6-5.1-4.1l0,0c0,0-0.7-5.1-1.9-12.7s-3.2-17.7-5.2-28
	c-0.5-2.6-1-5.2-1.4-7.9c-0.4-2.8-0.7-5.6-0.6-8.5c0-1.6,0.2-3.3,0.6-4.8c0.4-1.9,1.2-3.6,2.3-5.2c0.6-0.8,1.2-1.6,1.9-2.2
	c0.7-0.6,1.4-1.2,2.1-1.7c1.3-0.8,2.6-1.5,4.1-2c2.1-0.7,4.2-1.3,6.4-1.6c1.8-0.3,3.3-0.4,4.6-0.5s2.1-0.1,2.7-0.2l0.9-0.1
	c3.8-0.3,7,2.5,7.3,6.3c0.3,3.8-2.5,7-6.3,7.3L275.5,290.2z"/>
<path class="st10" d="M291.5,291.4l-3.7,0.3c-2.9,0.3-5.9,0.7-8.8,1.2c-1.5,0.3-2.9,0.7-4.2,1.3c-1,0.6-1.1,0.6-1.5,1.4
	c-0.5,1.7-0.6,3.4-0.4,5.2c0.2,2.5,0.5,4.9,0.9,7.3c0.9,5.1,2.1,10.4,3.2,15.4l3,13.6l2.8,13.4c0.5,2.5-1.1,4.9-3.6,5.5
	c-2.3,0.5-4.7-0.9-5.4-3.2v-0.1l-3.8-13c-1.2-3.9-2.6-8.4-4-13.3s-3.1-10.1-4.5-15.6c-0.8-2.8-1.4-5.7-1.9-8.6
	c-0.6-3.5-0.5-7,0.3-10.4c0.6-2.1,1.5-4.1,2.8-5.8c0.7-0.8,1.4-1.6,2.2-2.3c0.7-0.6,1.5-1.2,2.3-1.7c2.5-1.5,5.2-2.7,8-3.5
	c3.5-1,7-1.8,10.5-2.4l3.7-0.6c4.4-0.8,8.5,2.2,9.3,6.6s-2.2,8.5-6.6,9.3l0,0L291.5,291.4L291.5,291.4z"/>
<path class="st11" d="M267.8,364.1h-2.6l-0.7-5.7l-5.9,5.7h-12l-0.5-5.8c5.9-0.8,7.1-3.1,10.5-8.4h11.1L267.8,364.1z"/>
<path class="st12" d="M282.8,364.1h-2.6l-0.7-5.7l-5.9,5.7h-12l-0.5-5.8c5.9-0.8,7.1-3.1,10.5-8.4h11.1L282.8,364.1z"/>
<path class="st13" d="M296.7,297h-23.5c2.4-12.1-1.8-15.7-18-15.4c11.1-7.9,32.4-12.1,61.1-15.4l0.7,9c0.9,11.2-7.5,20.9-18.7,21.8
	C297.8,297,297.3,297,296.7,297z"/>
<path class="st14" d="M285.6,211.1h34.5c-5.2,19.9-6.4,38.2-3.8,55.1l-33.3,5.2c-0.9-11.1-1.4-21.1-1.4-29.6c0-3.8-3.7-7.2-3.6-10.4
	C278.5,222,283.6,215.1,285.6,211.1z"/>
<path class="st10" d="M306.2,216.5l2.6-5.6c-5.9-0.5-11.9-0.5-17.9,0l-2.5,5.6c-1.3,2.8,0,6.1,2.8,7.4c0.7,0.3,1.5,0.5,2.3,0.5h0.5
	C299.3,224.4,304,221.3,306.2,216.5z"/>
<path class="st10" d="M299.6,217.2L299.6,217.2c3.1,0,5.6-2.5,5.6-5.6v-12.9h-11.1v12.9C294.1,214.8,296.6,217.2,299.6,217.2z"/>
<path class="st15" d="M299.6,209.6L299.6,209.6c3.1,0,5.6-2.5,5.6-5.6v0v-12.9h-11.1V204C294.1,207.1,296.6,209.6,299.6,209.6z"/>
<path class="st10" d="M297.9,204.4L297.9,204.4c9.7,0.7,18.2-6.6,18.9-16.4c0,0,0,0,0,0l1-13.5c0.7-9.7-6.7-18.2-16.4-18.9l0,0
	c-9.8-0.7-18.2,6.7-18.9,16.4c0,0,0,0,0,0l-1,13.5C280.8,195.2,288.1,203.7,297.9,204.4z"/>
<path class="st10" d="M280.2,178c-1.6,0.1-2.7,2.3-2.6,5s1.5,4.9,3,4.8s2.7-2.3,2.6-5S281.8,177.9,280.2,178z"/>
<path class="st10" d="M319,180.7c-1.5-0.3-3.2,1.7-3.7,4.4s0.4,5.1,1.9,5.4s3.2-1.7,3.6-4.4S320.5,181,319,180.7z"/>
<path class="st15" d="M278.6,170.1l-2.8,25.6l5.7-6.9l3.3-18c9.7,1.4,24.8-1.5,27.6-4.8l3.5,26l5.3,9.1l2.1-30.2
	c0.5-6.2-3.8-11.8-9.9-13l0,0l-3.9-3.4c-5.2-4.6-12.6-5.6-18.8-2.4l0,0C284.1,155.6,279.5,162.4,278.6,170.1z"/>
<path class="st4" d="M291.9,185.4c0.5-0.8,0.7-1.7,0.8-2.6c0.2-2.2-0.7-4-1.9-4.1s-2.3,1.6-2.5,3.8c-0.1,0.9,0,1.9,0.4,2.7
	L291.9,185.4z"/>
<path class="st15" d="M292.8,176.7l-0.2-0.2l-0.1-0.1c-0.1-0.1-0.1-0.1-0.2-0.1c-0.4-0.3-0.9-0.5-1.4-0.7c-0.5-0.2-1-0.2-1.6-0.2
	c-0.2,0-0.4,0.1-0.6,0.2c-0.2,0.2-0.5,0.1-0.6-0.1c-0.1-0.2-0.1-0.4,0-0.5l0,0c0.2-0.3,0.5-0.5,0.9-0.6c0.7-0.3,1.4-0.4,2.1-0.4
	c0.7,0,1.4,0.2,2.1,0.4c0.3,0.1,0.5,0.2,0.8,0.4l0.2,0.1c0.6,0.3,0.7,1.1,0.4,1.6c-0.3,0.6-1.1,0.7-1.6,0.4l0,0
	C292.9,176.8,292.8,176.8,292.8,176.7z"/>
<path class="st4" d="M309.6,186.7c0.5-0.8,0.7-1.7,0.8-2.6c0.1-2.2-0.7-4-1.9-4.1s-2.3,1.6-2.5,3.8c-0.1,0.9,0.1,1.9,0.4,2.7
	L309.6,186.7z"/>
<path class="st15" d="M305.6,175.7l0.2-0.1c0.3-0.1,0.5-0.2,0.8-0.3c0.7-0.2,1.4-0.2,2.2-0.1c0.7,0,1.5,0.3,2.1,0.6
	c0.3,0.2,0.6,0.5,0.8,0.8l0,0c0.2,0.3,0.1,0.6-0.2,0.8c0,0,0,0,0,0c-0.2,0.1-0.5,0.1-0.7-0.1c-0.2-0.1-0.3-0.2-0.5-0.3
	c-0.5-0.1-1-0.2-1.5-0.1c-0.5,0.1-1,0.2-1.5,0.4c-0.1,0-0.1,0.1-0.2,0.1l-0.1,0.1l-0.2,0.1c-0.5,0.4-1.2,0.3-1.6-0.2
	s-0.3-1.2,0.2-1.6L305.6,175.7z"/>
<path class="st16" d="M298.2,197.2h0.4c3.6,0.3,6.7-2.4,7-6c0,0,0,0,0,0l0,0l-13.4-0.9l0,0C291.9,193.9,294.6,197,298.2,197.2z"/>
<path class="st17" d="M304.1,192.5c0.1-0.5,0.2-0.9,0.2-1.4l-11.1-0.8c0,0.5,0,0.9,0,1.4c0.1,1,0.9,1.7,1.9,1.8l6.9,0.5
	C303,194.1,303.9,193.5,304.1,192.5z"/>
<path class="st4" d="M286,179.8c0.1,0.2,0.3,0.3,0.4,0.4c0.3,0.2,0.7,0.4,1.1,0.5c0.5,0.1,1,0,1.3-0.3l0.5,2.2c-0.3,0-0.6,0-0.9-0.1
	c-0.6-0.1-1.1-0.4-1.5-0.8c-0.4-0.3-0.7-0.8-0.9-1.3C286.1,180.2,286.1,180,286,179.8z"/>
<path class="st4" d="M312.9,181.7c0,0.2-0.1,0.4-0.2,0.6c-0.2,0.5-0.6,0.8-1,1.1c-0.5,0.3-1,0.5-1.6,0.6c-0.3,0-0.6,0-0.9,0l0.8-2.1
	c0.3,0.4,0.8,0.5,1.3,0.5c0.4,0,0.8-0.1,1.2-0.3C312.7,182,312.8,181.8,312.9,181.7z"/>
<path class="st2" d="M289.4,198.2c-0.1,0-0.1,0-0.2,0c-8.4-2.4-13-7.6-13.1-15.2c0-0.4,0.3-0.8,0.7-0.8c0,0,0,0,0,0
	c0.4,0,0.8,0.3,0.8,0.7c0,0,0,0,0,0c0.1,6.8,4.3,11.6,12,13.7c0.4,0.1,0.7,0.5,0.5,1c0,0,0,0,0,0C290,198,289.8,198.2,289.4,198.2z"
	/>
<path class="st18" d="M288.7,197.3c-0.1,0.8,0.9,1.6,2.1,1.6s2.2-0.5,2.3-1.3s-0.9-1.6-2.1-1.6S288.8,196.5,288.7,197.3z"/>
<path class="st5" d="M296.9,257.2c-5.5,0-11.9-0.2-19.1-0.7c-3.1-0.1-5.7-2.7-5.6-5.8c0.1-3.1,2.7-5.7,5.8-5.6c0.2,0,0.3,0,0.5,0
	c32.1,1.9,41-0.9,42.8-3.7c2-3.2-4-14.5-8.1-22.1c-1.5-2.8-0.5-6.2,2.2-7.7c2.8-1.5,6.2-0.5,7.7,2.2c0,0,0.1,0.1,0.1,0.1
	c7.1,13.3,13.2,24.8,7.6,33.6C326.6,254.3,316.8,257.2,296.9,257.2z"/>
<path class="st10" d="M284.7,257.1h-0.1c-1.3,0-2.5-0.1-3.8-0.2c-0.6-0.1-1.3-0.1-3-0.2c-3.1-0.1-5.7-2.7-5.6-5.8
	c0.1-3.1,2.7-5.7,5.8-5.6c0.2,0,0.3,0,0.5,0c2,0.1,2.9,0.2,3.6,0.3c0.9,0.1,1.8,0.2,2.8,0.2c3.1,0,5.7,2.6,5.6,5.8
	C290.4,254.6,287.8,257.1,284.7,257.1L284.7,257.1z"/>
<rect x="293.2" y="227" class="st17" width="13.3" height="9.3"/>
<path class="st19" d="M297,231.3h5.8c0.6,0,1.1-0.5,1.1-1.1c0,0,0,0,0,0l0,0c0-0.6-0.5-1.1-1.1-1.1l0,0H297c-0.6,0-1.1,0.5-1.1,1.1
	l0,0C295.8,230.8,296.3,231.3,297,231.3z"/>
<path class="st19" d="M298.1,234.6h3.5c0.6,0,1.1-0.5,1.1-1.1v0l0,0c0-0.6-0.5-1.1-1.1-1.1h-3.5c-0.6,0-1.1,0.5-1.1,1.1v0l0,0
	C297,234.1,297.5,234.6,298.1,234.6C298.1,234.6,298.1,234.6,298.1,234.6z"/>
<rect x="150.3" y="256.6" class="st20" width="153.9" height="8.1"/>
<rect x="150.3" y="256.6" class="st8" width="93.8" height="8.1"/>
<polygon class="st21" points="162.1,193.8 241.2,193.8 244.8,246.5 165.7,246.5 "/>
<polygon class="st22" points="237.6,193.8 162.1,193.8 165.7,246.5 241.2,246.5 "/>
<rect x="193.4" y="235.8" class="st3" width="13.9" height="20.8"/>
<rect x="181.1" y="252.7" class="st3" width="37.3" height="3.9"/>
<rect x="221.8" y="252.7" class="st3" width="51.2" height="3.9"/>
<rect x="150.3" y="264.8" class="st8" width="5.8" height="99.4"/>
<rect x="156.1" y="264.8" class="st20" width="5.8" height="99.4"/>
<rect x="201.4" y="264.8" class="st8" width="5.8" height="99.4"/>
<rect x="207.2" y="264.8" class="st8" width="5.8" height="99.4"/>
<rect x="292.5" y="264.8" class="st8" width="5.8" height="99.4"/>
<rect x="298.3" y="264.8" class="st20" width="5.8" height="99.4"/>
<rect x="238.4" y="264.8" class="st8" width="5.8" height="99.4"/>
<rect x="244.1" y="264.8" class="st20" width="5.8" height="99.4"/>
<path class="st23" d="M103.9,165.6c0,1.5-1.1,3.3-2.7,5l-4.7,5h8.4v1.7H94.2v-1.4l5.8-6.3c1.1-1,1.9-2.3,2.1-3.7
	c0-1.5-1.2-2.4-3.1-2.4c-1.6,0.1-3.1,0.8-4.2,1.9l-0.8-1.4c1.4-1.3,3.3-2.1,5.2-2.1C102.1,161.8,103.9,163.3,103.9,165.6z"/>
<path class="st23" d="M114,171.5v-4.1h1.7v4.1h2.3v1.7h-2.3v4H114v-4h-7.4v-1.5l5.5-9.9h1.7l-5.4,9.7H114z"/>
<path class="st23" d="M118.4,179.9l6.9-20.7h1.6l-6.9,20.7H118.4z"/>
<path class="st23" d="M130.7,177.3h-1.9l6.3-13.7H128v2.2h-1.6v-3.9h10.7v1.5L130.7,177.3z"/>
<path class="st23" d="M114.6,212.3c-24.6,0-44.5-19.9-44.5-44.5c0-24.6,19.9-44.5,44.5-44.5c13.3,0,25.8,5.9,34.3,16.1
	c0.4,0.4,0.3,1.1-0.1,1.4c-0.2,0.2-0.4,0.2-0.7,0.2h-0.3c-0.6,0-1-0.4-1-1l0,0c-15.3-17.8-42.2-19.7-59.9-4.4s-19.7,42.2-4.4,59.9
	s42.2,19.7,59.9,4.4c9.4-8.1,14.7-19.8,14.7-32.2v-0.5c0-0.6,0.4-1,1-1l0,0c0.6,0,1,0.4,1,1v0.2c0,0.1,0,0.2,0,0.4
	C159.1,192.4,139.2,212.3,114.6,212.3z"/>
<path class="st23" d="M148.7,142.1L148.7,142.1l-10.4-0.2c-0.6,0-1-0.4-1-1s0.4-1,1-1l9.4,0.2l0.2-9.4c0-0.6,0.4-1,1-1
	c0.6,0,1,0.4,1,1l-0.2,10.4c0,0.3-0.1,0.5-0.3,0.7C149.2,142,149,142.1,148.7,142.1z"/>
</svg>
