<svg id="Layer_1" data-name="Layer 1" xmlns="http://www.w3.org/2000/svg" xmlns:xlink="http://www.w3.org/1999/xlink" width="469" height="364" viewBox="0 0 469 364"><defs><style>.cls-1{fill:none;}.cls-2{clip-path:url(#clip-path);}.cls-3{clip-path:url(#clip-path-2);}.cls-4{fill:#ccc;}.cls-5{fill:#f2f2f2;}.cls-6{fill:#c78e5c;}.cls-7,.cls-8{fill:#fff;}.cls-7{opacity:0.3;isolation:isolate;}.cls-9{fill:#c9905c;}.cls-10{fill:#eabd8d;}.cls-11{fill:#a5714e;}.cls-12{fill:#c4925c;}.cls-13{fill:#44ba92;}.cls-14{fill:#0299b2;}.cls-15{fill:#00a9ce;}.cls-16{fill:#f1b180;}.cls-17{fill:#e3a170;}.cls-18{fill:#e2edf7;}.cls-19{fill:#57341c;}.cls-20{fill:#971d20;}.cls-21{fill:#f5c5a0;}.cls-22{fill:#a3714f;}.cls-23{fill:#e8bb89;}</style><clipPath id="clip-path"><rect class="cls-1" x="-616" y="-2177" width="1201" height="500"/></clipPath><clipPath id="clip-path-2"><rect class="cls-1" x="747" y="-2096.32" width="375" height="413.32"/></clipPath></defs><title>Vector 2</title><rect class="cls-4" x="0.4" y="-0.2" width="468.6" height="364.28"/><rect class="cls-5" x="212.28" y="76.89" width="44.81" height="44.81" transform="translate(138.95 -136.86) rotate(45)"/><rect class="cls-5" width="469" height="100"/><path class="cls-6" d="M236.37,326.29l44.1-18.88c.12,0,.12,0,.24.11v.12l-.12,56.89-44.34,18.89Z"/><polygon class="cls-7" points="264.82 313.86 257.29 316.97 257.41 374.21 265.06 370.99 264.82 313.86"/><path class="cls-8" d="M242.71,349.59a5.72,5.72,0,0,1-1.44,3,8.43,8.43,0,0,1-2.51,2.15h-.12c-.12,0-.24-.24-.47-.71a3.53,3.53,0,0,1-.36-1.08.12.12,0,0,1,.12-.12,9.68,9.68,0,0,0,1.31-1,3,3,0,0,0,.84-1.43,1.09,1.09,0,0,0-.36-.84l-.72-.71a2,2,0,0,1-.24-1.44,5.5,5.5,0,0,1,1.32-2.63,7.9,7.9,0,0,1,2.27-1.79h.12c.12,0,.12,0,.12.12a5.82,5.82,0,0,0,.6,1.55v.12c0,.12,0,.12-.12.12h-.36a3.65,3.65,0,0,0-.84.6,1.48,1.48,0,0,0-.48,1,1.89,1.89,0,0,0,.36.95c.48.6.72.84.72.84A3.19,3.19,0,0,1,242.71,349.59Z"/><path class="cls-8" d="M250.36,344.57l-.6,5c0,.12-.12.24-.24.36a2.63,2.63,0,0,1-1,.36c-.36.12-.59.24-.95.36-.12,0-.24,0-.12-.24s.12-1.08.24-1.91a16.58,16.58,0,0,0,.24-1.91c.12-.6-.12-.72-.72-.48a1.2,1.2,0,0,0-.6.48c-.24.23-.48.47-.48.71l-.24,1.8c0,.23-.12.59-.12,1.07s-.12.84-.12,1.08-.11.36-.23.36a5.78,5.78,0,0,1-1.08.47,1.71,1.71,0,0,1-.72.24c-.12,0-.24,0-.24-.12a13.67,13.67,0,0,1,.24-1.67c.12-.72.12-1.32.24-1.67.24-1.56.36-2.87.48-3.95,0-.36.12-.71.12-1.07v-1.2c0-.12,0-.12.12-.24s.36-.24.6-.36a5.64,5.64,0,0,0,.59-.23l1.2-.6c.12,0,.12,0,.12.12a1.25,1.25,0,0,1-.12.59,2.44,2.44,0,0,1-.12.6c-.12,1.08-.24,2-.36,2.63v.12l.36-.36a4.74,4.74,0,0,1,.84-.71l1.07-.72a1.76,1.76,0,0,1,1.32-.12A1.21,1.21,0,0,1,250.36,344.57Z"/><path class="cls-8" d="M253.58,345.17c0,.36-.12.84-.12,1.56a8.46,8.46,0,0,0-.12,1.55.26.26,0,0,1-.24.24,7.59,7.59,0,0,0-.95.48,8.42,8.42,0,0,0-1,.35h-.12v-.23a12.6,12.6,0,0,1,.24-1.56,14.47,14.47,0,0,1,.24-1.55,29.24,29.24,0,0,0,.24-3.23v-.12c0-.12.12-.12.24-.24a2,2,0,0,0,.6-.24c.24-.12.47-.12.59-.24a1.94,1.94,0,0,0,.6-.23,2,2,0,0,1,.6-.24c.12,0,.12,0,.12.12v.12A9.37,9.37,0,0,0,253.58,345.17Zm.84-5.5a2.22,2.22,0,0,1-1.43,1.8,1,1,0,0,1-.84,0c-.24-.12-.36-.36-.24-.84a1.79,1.79,0,0,1,.48-1.08,1.92,1.92,0,0,1,1-.71,1,1,0,0,1,.84,0,.68.68,0,0,1,.24.83Z"/><path class="cls-8" d="M262,341.59a7.49,7.49,0,0,1-1.08,3,4.09,4.09,0,0,1-2.39,1.92,1.66,1.66,0,0,1-1.07.12c-.36,0-.48,0-.48-.12a.42.42,0,0,0-.12.24c0,.23-.12.59-.12,1.07s-.12.84-.12,1.08-.12.24-.24.35h0l-1.31.6c-.24.12-.36.12-.6.24s-.12,0-.12-.12h0l.72-5.62a21.87,21.87,0,0,0,.12-2.74v-.12c0-.12,0-.12.12-.12a4,4,0,0,1,.95-.6c.36-.24.72-.36,1.08-.6.12-.12.24,0,.24.24v.36a2.1,2.1,0,0,1,.59-.6,3,3,0,0,1,1.2-.83c1-.36,1.67-.36,2.15.11C262,339.67,262.19,340.51,262,341.59Zm-2.39,1a1.27,1.27,0,0,0-.24-1,.71.71,0,0,0-.84-.12,1.42,1.42,0,0,0-.83.83,2,2,0,0,0-.36,1.2,2.27,2.27,0,0,0,.12.95c.12.24.48.24.83.12a2.41,2.41,0,0,0,1.32-2Z"/><path class="cls-8" d="M265.18,340.39c0,.36-.12.84-.12,1.55a8.61,8.61,0,0,0-.12,1.56.26.26,0,0,1-.24.24,7.13,7.13,0,0,0-1,.48,6.25,6.25,0,0,0-.95.35h-.12v-.24a248.58,248.58,0,0,1,.47-3.1,29.24,29.24,0,0,0,.24-3.23v-.12c0-.12.12-.12.24-.24a2,2,0,0,0,.6-.24c.24-.12.48-.12.6-.24a2.09,2.09,0,0,0,.59-.23,2,2,0,0,1,.6-.24c.12,0,.12,0,.12.12v.12A9.79,9.79,0,0,0,265.18,340.39Zm.83-5.5a2.22,2.22,0,0,1-1.43,1.8,1,1,0,0,1-.84,0c-.24-.12-.36-.36-.24-.84a1.79,1.79,0,0,1,.48-1.08,1.9,1.9,0,0,1,1-.71,1,1,0,0,1,.83,0,.67.67,0,0,1,.24.83Z"/><path class="cls-8" d="M270.67,339.32c0,.23-.12.47-.12.71s-.12.48-.12.72,0,.24-.12.24l-.23.24a6.82,6.82,0,0,1-1.92,1.31c-1.19.48-1.79.24-1.67-.83a8.86,8.86,0,0,1,.24-1.44,11.38,11.38,0,0,1,.24-1.43c0-.24-.12-.24-.24-.24h-.24c-.12.12-.24,0-.24-.12v-1.67c0-.12.12-.24.48-.36.12-.12.24-.12.24-.24a2.34,2.34,0,0,0,.12-.84c0-.6.12-.95.12-.84.12-.59.12-.83.24-.95a.7.7,0,0,1,.47-.12.72.72,0,0,0,.48-.12,3.71,3.71,0,0,0,1-.24c.12,0,.12,0,.12.12s-.12.48-.12,1a2.9,2.9,0,0,0-.12.95c0,.24,0,.36.12.24s.36-.12.72-.36a4.22,4.22,0,0,0,.71-.36h.12a.91.91,0,0,1-.12.48c0,.24-.12.36-.12.48v1a.26.26,0,0,1-.24.24c-.12,0-.24.12-.47.12a1,1,0,0,1-.48.11l-.48.24c-.12,0-.12.12-.12.36l-.12.48v1.31a.54.54,0,0,0,.6,0c.12-.11.36-.11.48-.23a1.13,1.13,0,0,0,.83.12Z"/><path class="cls-8" d="M277.72,335a7.62,7.62,0,0,1-1.19,3.11,5.73,5.73,0,0,1-2.51,2,2.15,2.15,0,0,1-2.27-.12,2.6,2.6,0,0,1-.6-2.27,7.08,7.08,0,0,1,1.2-3.11,5.75,5.75,0,0,1,2.51-2,2.15,2.15,0,0,1,2.27.12C277.72,333.1,277.84,333.94,277.72,335Zm-2.15.84c0-.36,0-.72-.24-.84s-.47-.24-.71-.12a1.45,1.45,0,0,0-.84.84,3.59,3.59,0,0,0-.48,1.2c0,.35,0,.71.24.83s.48.24.84.12a1.43,1.43,0,0,0,.83-.84A2,2,0,0,0,275.57,335.85Z"/><path class="cls-8" d="M278.08,330.11h-.24V330a.12.12,0,0,0-.12-.12h-.12v.24h-.23v-.83h0a.12.12,0,0,0,.12-.12l.11-.12h.24a.12.12,0,0,1,.12.12v.12a.12.12,0,0,1-.12.12h0l.12.12C278,330,278.08,330,278.08,330.11Zm-.24-.48c0-.11-.12-.11,0,0l-.12-.11h0v.11h.12Z"/><path class="cls-8" d="M277.72,330.71c-.47.24-.83,0-.83-.6a1.19,1.19,0,0,1,.83-1.19c.48-.24.84,0,.84.6h0A1.62,1.62,0,0,1,277.72,330.71Zm0-1.67a1.06,1.06,0,0,0-.59.95.52.52,0,0,0,.71.48,1.07,1.07,0,0,0,.6-1h0C278.32,329.16,278.08,328.92,277.72,329Z"/><polygon class="cls-9" points="116.6 270.19 145.43 237.15 158.97 277.68 130.14 310.72 116.6 270.19"/><polygon class="cls-10" points="74.42 261.68 103.36 228.74 145.43 237.15 116.6 270.19 74.42 261.68"/><polygon class="cls-11" points="116.6 270.19 130.14 310.72 87.97 302.2 74.42 261.68 116.6 270.19"/><polygon class="cls-7" points="118.65 231.71 89.82 264.75 89.82 264.75 89.82 264.75 103.36 305.28 110.64 306.82 97.2 266.19 126.04 233.25 118.65 231.71"/><path class="cls-12" d="M130.14,310.52c-.1.1-.31,0-.31-.21l-13.54-40a.37.37,0,0,1,.1-.3l28.94-33a.3.3,0,0,1,.41,0,.32.32,0,0,1,0,.41L116.9,270.19l13.45,39.92A.41.41,0,0,1,130.14,310.52Z"/><polygon class="cls-7" points="135.17 248.95 135.17 248.95 135.17 248.95 93.1 240.44 88.17 245.98 130.24 254.59 143.89 294.92 148.92 289.28 135.17 248.95"/><path class="cls-8" d="M132,295a3.81,3.81,0,0,1-.11,2.36,9.41,9.41,0,0,1-1.23,2.57v.1c-.1.1-.3,0-.61-.1s-.62-.21-.62-.31v-.1c.21-.41.52-.82.72-1.23a2,2,0,0,0,.21-1.24.49.49,0,0,0-.52-.3h-.72a.94.94,0,0,1-.61-.62,3.32,3.32,0,0,1,.2-2.15,16.6,16.6,0,0,1,1.13-2.36.11.11,0,0,1,.11-.11c0-.1.1-.1.1,0a4.29,4.29,0,0,0,.92.52h0v.2h0l-.1.1-.1.11a1.92,1.92,0,0,0-.41.82,1.19,1.19,0,0,0-.11.82.49.49,0,0,0,.52.31h.82A1.62,1.62,0,0,1,132,295Z"/><path class="cls-8" d="M136.19,287.84l1.13,3.08v.31c-.1.1-.3.41-.61.82a5.12,5.12,0,0,1-.62.72c-.1.1-.2.1-.2,0s-.21-.62-.41-1.13-.31-.93-.41-1.13-.31-.31-.72.1l-.31.62c-.1.3-.21.51-.1.61l.41,1.13c.1.1.1.31.2.62a3.33,3.33,0,0,1,.21.61.39.39,0,0,1-.1.31c-.11.1-.31.41-.72.92a2.85,2.85,0,0,1-.52.62c-.1.1-.2.1-.2,0s-.21-.62-.41-1-.31-.82-.41-1c-.41-.93-.72-1.75-.93-2.36l-.3-.62a2.71,2.71,0,0,0-.31-.51v-.31c.1-.21.2-.31.31-.51a2.6,2.6,0,0,1,.41-.52l.72-1c0-.1.1-.1.1,0s.1.2.1.41a.79.79,0,0,1,.1.41,9.22,9.22,0,0,0,.62,1.64c0,.1,0,.1.1,0a.6.6,0,0,0,.1-.41,8.6,8.6,0,0,1,.31-.82,4,4,0,0,1,.51-.92,2.32,2.32,0,0,1,.93-.83C135.78,287.33,136.09,287.43,136.19,287.84Z"/><path class="cls-8" d="M138.76,286.2c.1.2.2.51.41.92s.31.72.41.93,0,.2-.1.2c-.21.31-.41.51-.62.82s-.41.51-.61.82l-.11.1a.1.1,0,0,0-.1-.1,5.33,5.33,0,0,1-.31-.92,4.69,4.69,0,0,0-.3-.92,10.08,10.08,0,0,0-.83-1.85v-.1c0-.11,0-.11.11-.21a1.49,1.49,0,0,0,.31-.41c.2-.21.3-.31.3-.41a2,2,0,0,0,.31-.51c.1-.21.31-.41.31-.52s.1-.1.1,0v.11C138.25,284.86,138.55,285.58,138.76,286.2Zm-1.13-3.39a1.77,1.77,0,0,1-.51,1.75,1.4,1.4,0,0,1-.62.51.26.26,0,0,1-.41-.21,1.41,1.41,0,0,1,0-.92,4.23,4.23,0,0,1,.51-.92,3.11,3.11,0,0,1,.62-.52c.21,0,.31.11.41.31Z"/><path class="cls-8" d="M143.89,279.32a4,4,0,0,1,.1,2.26,7.32,7.32,0,0,1-1.13,2.46,4.41,4.41,0,0,1-.71.72c-.31.21-.41.31-.41.21v.2c.1.1.1.41.3.62a1.75,1.75,0,0,0,.31.61.38.38,0,0,1-.1.31h0l-.82,1a.86.86,0,0,1-.41.41c-.11.1-.11.1-.21,0h0l-1.23-3.39a5.33,5.33,0,0,0-.82-1.54V283c.2-.31.31-.62.51-.93l.62-.92a.2.2,0,0,1,.31,0,.32.32,0,0,1,.1.21,3.4,3.4,0,0,0,.2-.72,3.53,3.53,0,0,1,.62-1.13,3.25,3.25,0,0,1,1.64-1.23A1.44,1.44,0,0,1,143.89,279.32Zm-1.44,1.95a.82.82,0,0,0-.41-.41c-.2,0-.41.21-.61.41a1.82,1.82,0,0,0-.41.93,2.08,2.08,0,0,0,.1.82c.1.2.2.41.41.41a.74.74,0,0,0,.62-.41,1.79,1.79,0,0,0,.3-1.75Z"/><path class="cls-8" d="M145.94,276.76c.1.2.21.51.41.92s.31.72.41.93,0,.2-.1.2c-.2.31-.41.51-.62.82s-.41.51-.61.82l-.1.1a.1.1,0,0,0-.11-.1,4.69,4.69,0,0,1-.3-.92,5.33,5.33,0,0,0-.31-.92,7.74,7.74,0,0,0-.82-1.85v-.1c0-.11,0-.11.1-.21a1.32,1.32,0,0,0,.31-.41c.2-.21.31-.31.31-.41s.2-.31.3-.51.31-.41.31-.52.1-.1.1,0v.11C145.43,275.42,145.74,276.14,145.94,276.76Zm-1.13-3.39a1.77,1.77,0,0,1-.51,1.75,1.35,1.35,0,0,1-.62.51c-.2.1-.41,0-.41-.31a1.41,1.41,0,0,1,0-.92,4.35,4.35,0,0,1,.52-.93,2.75,2.75,0,0,1,.61-.51.78.78,0,0,1,.41.41Z"/><path class="cls-8" d="M149.64,273.06c0,.11.1.31.1.41s.1.31.1.42v.2c0,.1-.1.21-.1.31a18.12,18.12,0,0,1-1,1.85c-.82,1-1.23,1.23-1.54.51a4.83,4.83,0,0,1-.3-.93,5.66,5.66,0,0,0-.31-.92c0-.1-.1-.1-.31.1l-.1.11v.1c-.11.1-.21.2-.21.1a.31.31,0,0,0-.1-.2.35.35,0,0,0-.1-.21c0-.1-.11-.1-.11-.31a.37.37,0,0,1-.1-.3c0-.11,0-.21.21-.41a.4.4,0,0,0,.1-.31.77.77,0,0,0-.21-.52,1.21,1.21,0,0,0-.2-.51c-.1-.31-.21-.51-.1-.61l.3-.31.31-.31c.1-.2.41-.41.62-.72l.1-.1a3.61,3.61,0,0,0,.21.62,4.36,4.36,0,0,0,.2.61c.1.1.1.21.21.1a6.57,6.57,0,0,0,.41-.61,2.46,2.46,0,0,0,.41-.62c.1-.1.1-.1.1,0s.1.21.1.31a1.1,1.1,0,0,0,.1.31c0,.1.11.2.11.31a.37.37,0,0,1,.1.3c0,.11,0,.11-.1.21s-.11.2-.31.31-.21.3-.31.3l-.31.41v.31l.11.31a.39.39,0,0,1,.1.31c.1.2.2.41.31.41s.3-.1.51-.41c.1-.1.21-.31.31-.41a.82.82,0,0,0,.2-.41C149.64,273,149.64,273,149.64,273.06Z"/><path class="cls-8" d="M153.64,266.5a4.44,4.44,0,0,1,.1,2.36,6.1,6.1,0,0,1-1.23,2.56c-.62.82-1.13,1.23-1.64,1.23s-.93-.2-1.13-.82a4.4,4.4,0,0,1-.1-2.36,6.45,6.45,0,0,1,1.23-2.56,2.91,2.91,0,0,1,1.74-1.34C153,265.57,153.33,265.88,153.64,266.5Zm-1.34,1.74a.78.78,0,0,0-.41-.41.73.73,0,0,0-.61.41,1.82,1.82,0,0,0-.41.93,1.05,1.05,0,0,0,0,.82.82.82,0,0,0,.41.41.75.75,0,0,0,.61-.41,1.82,1.82,0,0,0,.41-.93A1.05,1.05,0,0,0,152.3,268.24Z"/><path class="cls-8" d="M152.3,263.73h0a331721441277.49,331721441277.49,0,0,0-.2.2H152v.21h0l-.11.1a.1.1,0,0,1-.1.1h0a.1.1,0,0,0-.1-.1l-.1-.1a.31.31,0,0,1-.11-.21h0a.1.1,0,0,1,.11-.1l.1-.1c0-.11.1-.11.2-.11H152v.21h0l.3-.1Zm-.41-.11h0c-.1,0-.1,0-.1.11v.2h0v-.1c.21-.1.21-.21.1-.21Z"/><path class="cls-8" d="M152.2,264.24c-.31.41-.61.51-.82.21s-.1-.72.21-1.13.61-.52.82-.21h0C152.61,263.32,152.51,263.83,152.2,264.24Zm-.51-.82a1.1,1.1,0,0,0-.21.92c.11.21.41.11.62-.2a1.11,1.11,0,0,0,.2-.93h0C152.2,263,151.89,263.11,151.69,263.42Z"/><polygon class="cls-9" points="351.31 270.29 390.4 253.47 385.27 294.61 346.28 311.44 351.31 270.29"/><polygon class="cls-10" points="317.96 245.26 357.05 228.53 390.4 253.47 351.31 270.29 317.96 245.26"/><polygon class="cls-11" points="351.31 270.29 346.28 311.44 312.93 286.4 317.96 245.26 351.31 270.29"/><polygon class="cls-7" points="369.16 237.56 330.17 254.39 330.17 254.39 330.07 254.39 325.04 295.54 330.89 299.95 335.92 258.8 375.01 241.97 369.16 237.56"/><path class="cls-12" d="M346.38,311.23c-.1,0-.2-.1-.2-.3l4.92-40.74a.22.22,0,0,1,.21-.2l39-16.73a.2.2,0,0,1,.31.1.2.2,0,0,1-.11.31l-39,16.73-4.92,40.53C346.69,311.13,346.49,311.34,346.38,311.23Z"/><polygon class="cls-7" points="376.45 259.52 376.45 259.52 376.45 259.52 343.2 234.48 336.53 237.36 369.78 262.39 364.95 303.44 371.63 300.56 376.45 259.52"/><path class="cls-8" d="M353.77,300.67a4.89,4.89,0,0,1-1.23,2.56,7.32,7.32,0,0,1-2.16,1.85h-.1c-.1,0-.2-.21-.41-.62a3.22,3.22,0,0,1-.31-.92.1.1,0,0,1,.11-.1,8.93,8.93,0,0,0,1.13-.82,2.61,2.61,0,0,0,.71-1.24.93.93,0,0,0-.3-.71l-.62-.62a1.67,1.67,0,0,1-.2-1.23,4.71,4.71,0,0,1,1.12-2.26,7,7,0,0,1,1.95-1.54h.11c.1,0,.1,0,.1.11a5.26,5.26,0,0,0,.51,1.33v.1c0,.1,0,.1-.1.1h-.31a3.5,3.5,0,0,0-.72.52,1.27,1.27,0,0,0-.41.82,1.62,1.62,0,0,0,.31.82c.41.51.62.72.62.72A1.28,1.28,0,0,1,353.77,300.67Z"/><path class="cls-8" d="M360.44,296.36l-.51,4.31c0,.1-.11.2-.21.3a2,2,0,0,1-.82.31c-.31.1-.51.21-.82.31-.1,0-.2,0-.1-.21s.1-.92.2-1.64a12.8,12.8,0,0,0,.21-1.64c.1-.51-.1-.62-.62-.51a1,1,0,0,0-.51.41c-.21.2-.41.41-.41.61l-.21,1.54c0,.21-.1.52-.1.93s-.1.71-.1.92-.1.31-.21.31a4.61,4.61,0,0,1-.92.41,1.5,1.5,0,0,1-.62.2c-.1,0-.2,0-.2-.1a12.16,12.16,0,0,1,.2-1.44c.11-.61.11-1.12.21-1.54.2-1.33.31-2.46.41-3.38,0-.31.1-.62.1-.92v-1c0-.1,0-.1.11-.21s.3-.2.51-.3a5,5,0,0,0,.51-.21l1-.51c.1,0,.1,0,.1.1a1.12,1.12,0,0,1-.1.51,2.11,2.11,0,0,1-.11.52c-.1.92-.2,1.74-.3,2.25v.11l.3-.31a5.12,5.12,0,0,1,.72-.62l.93-.61a1.45,1.45,0,0,1,1.13-.1A2.44,2.44,0,0,1,360.44,296.36Z"/><path class="cls-8" d="M363.21,296.87c0,.31-.1.72-.1,1.33a7.62,7.62,0,0,0-.1,1.34.22.22,0,0,1-.21.2,5.67,5.67,0,0,0-.82.41,8.6,8.6,0,0,0-.82.31h-.1v-.2a11.16,11.16,0,0,1,.2-1.34,10.39,10.39,0,0,1,.21-1.33,26,26,0,0,0,.2-2.77v-.11c0-.1.1-.1.21-.2a1.64,1.64,0,0,0,.51-.21c.21-.1.41-.1.51-.2s.31-.1.52-.21a1.72,1.72,0,0,1,.51-.2c.1,0,.1,0,.1.1v.1A6.56,6.56,0,0,0,363.21,296.87Zm.72-4.72a1.89,1.89,0,0,1-1.23,1.54.89.89,0,0,1-.72,0c-.21-.1-.31-.31-.21-.72a1.53,1.53,0,0,1,.41-.92,1.61,1.61,0,0,1,.83-.62.87.87,0,0,1,.71,0,1.14,1.14,0,0,1,.21.72Z"/><path class="cls-8" d="M370.39,293.69a6.46,6.46,0,0,1-.92,2.56,3.57,3.57,0,0,1-2.05,1.65,1.5,1.5,0,0,1-.93.1c-.3,0-.41,0-.41-.1a.35.35,0,0,0-.1.2c0,.21-.1.51-.1.92s-.1.72-.1.93-.11.2-.21.31h0l-1.13.51c-.2.1-.31.1-.51.2s-.1,0-.1-.1h0l.61-4.82a19.44,19.44,0,0,0,.1-2.36v-.1c0-.11,0-.11.11-.11a3.67,3.67,0,0,1,.82-.51c.31-.2.61-.31.92-.51.1-.11.21,0,.21.2V293a1.79,1.79,0,0,1,.51-.51,2.65,2.65,0,0,1,1-.72c.82-.31,1.43-.31,1.84.1S370.5,292.77,370.39,293.69Zm-2.05.92a1.13,1.13,0,0,0-.2-.82.62.62,0,0,0-.72-.1,1.22,1.22,0,0,0-.72.72,1.67,1.67,0,0,0-.31,1,2,2,0,0,0,.1.82c.11.21.41.21.72.11a2.32,2.32,0,0,0,1.13-1.75Z"/><path class="cls-8" d="M373.16,292.77c0,.3-.1.71-.1,1.33a7.52,7.52,0,0,0-.1,1.33.22.22,0,0,1-.21.21,6.94,6.94,0,0,0-.82.41,5.7,5.7,0,0,0-.82.31H371v-.21a10.78,10.78,0,0,1,.2-1.33c.11-.62.11-1,.21-1.34a25.61,25.61,0,0,0,.2-2.77v-.1c0-.1.11-.1.21-.2a1.82,1.82,0,0,0,.51-.21c.21-.1.41-.1.52-.21a1.83,1.83,0,0,0,.51-.2,1.82,1.82,0,0,1,.51-.21c.1,0,.1,0,.1.11v.1A8.32,8.32,0,0,0,373.16,292.77Zm.72-4.72a1.87,1.87,0,0,1-1.23,1.53.82.82,0,0,1-.72,0c-.2-.1-.31-.3-.2-.71a2,2,0,0,1,1.23-1.54.82.82,0,0,1,.72,0,.6.6,0,0,1,.2.72Z"/><path class="cls-8" d="M377.88,291.84c0,.21-.1.41-.1.62s-.1.41-.1.61,0,.21-.1.21l-.21.2a5.8,5.8,0,0,1-1.64,1.13c-1,.41-1.54.21-1.44-.72a7.14,7.14,0,0,1,.21-1.23,10.42,10.42,0,0,1,.2-1.23c0-.2-.1-.2-.2-.2h-.21c-.1.1-.2,0-.2-.11v-1.43c0-.11.1-.21.41-.31.1-.1.2-.1.2-.21a1.83,1.83,0,0,0,.11-.71c0-.52.1-.83.1-.72.1-.52.1-.72.2-.82a.6.6,0,0,1,.41-.11.61.61,0,0,0,.41-.1,3.12,3.12,0,0,0,.82-.2c.11,0,.11,0,.11.1a7.89,7.89,0,0,0-.11.82,2.63,2.63,0,0,0-.1.82c0,.21,0,.31.1.21s.31-.11.62-.31a3.56,3.56,0,0,0,.62-.31h.1a.79.79,0,0,1-.1.41c0,.21-.11.31-.11.41v.82a.22.22,0,0,1-.2.21c-.1,0-.21.1-.41.1s-.31.1-.41.1l-.41.21c-.11,0-.11.1-.11.31l-.1.41v1.12a.43.43,0,0,0,.51,0c.11-.1.31-.1.42-.2a1.75,1.75,0,0,0,.71.1C377.78,291.74,377.88,291.74,377.88,291.84Z"/><path class="cls-8" d="M383.94,288.15a6.81,6.81,0,0,1-1,2.67,4.92,4.92,0,0,1-2.15,1.74,1.85,1.85,0,0,1-1.95-.1,2.26,2.26,0,0,1-.52-1.95,6.17,6.17,0,0,1,1-2.67,4.9,4.9,0,0,1,2.15-1.74,1.85,1.85,0,0,1,1.95.1C383.94,286.51,384,287.22,383.94,288.15Zm-1.85.72a1.12,1.12,0,0,0-.2-.82c-.11-.21-.42-.21-.62-.11a1.82,1.82,0,0,0-.82.72,3,3,0,0,0-.41,1c0,.3,0,.61.2.72s.41.2.72.1a1.22,1.22,0,0,0,.72-.72A1.12,1.12,0,0,0,382.09,288.87Z"/><path class="cls-8" d="M384.25,283.84H384v-.1s0-.11-.1-.11h-.11v.21h-.2v-.72h0a.1.1,0,0,0,.1-.1l.1-.11H384c.1,0,.1.11.1.11v.1a.1.1,0,0,1-.1.1h0l.1.11C384.14,283.74,384.14,283.84,384.25,283.84Zm-.31-.41h0l-.11-.1h0v.1h.11Z"/><path class="cls-8" d="M383.94,284.35c-.41.21-.72,0-.72-.51a1.12,1.12,0,0,1,.72-1c.41-.2.72,0,.72.52h0A1.11,1.11,0,0,1,383.94,284.35Zm0-1.33a.91.91,0,0,0-.52.82.45.45,0,0,0,.62.41.9.9,0,0,0,.51-.82h0C384.45,283,384.25,282.91,383.94,283Z"/><path class="cls-13" d="M226.21,242c-2.63,0-4.54-.12-5.13-.48-2.16-1.31-13.15-16.37-18.77-28.32-3.46-.36-10.75,2.87-10.87,7.05,10.75,14.22,17.33,25.34,20.19,32.27s-1.19,35.73,9.56,59.16c4.31,4.78,9.45,4.18,12.31,4.42L233,303.22c-7.29-20.2-8.73-43.74-6.82-61.19Z"/><path class="cls-14" d="M226.21,242c-2.63,0-4.54-.12-5.13-.48-2.16-1.31-13.15-16.37-18.77-28.32-3.46-.36-10.75,2.87-10.87,7.05,10.75,14.22,17.33,25.34,20.19,32.27s-1.19,35.73,9.56,59.16c4.31,4.78,9.45,4.18,12.31,4.42L233,303.22c-7.29-20.2-8.73-43.74-6.82-61.19Z"/><path class="cls-15" d="M264.46,295.81c-.72-3.46-11.47-25.45-10.52-29.16s27.37-34.54,37.05-47.56c-.24-3.35-4.66-10.52-8.37-11.84-6.57,14.58-27.6,26.54-32.74,30.48-2.15,1.67-7.29,2.87-12.67,3.58-3.71.48-7.29.72-11,.84-1.91,17.57-.47,41,6.82,61.19v-.6l6.21,8.73,2.51,3.58c6.69-3,23.07-10.75,22.71-19.24Z"/><path class="cls-16" d="M195.14,221c2.39,1.91,7.77-4.07,5-6-1-1.67-7.65-11.71-7.53-12.67s3.47-6.21,2.75-6.69-3.35-5.74-4.9-6-8,3-8.37,3.82,1.08,3.59,2.16,3.7,4.42-1.91,5.73-2.27,1.56.72.12,1.68-8.13,5.49-9.8,7.17,4.42,2.15,5.62,4.18,6.93,9,9.44,13Z"/><path class="cls-17" d="M188.81,190a8.93,8.93,0,0,0-3.59-3.7,2.77,2.77,0,0,0-3.46,2.15,2.26,2.26,0,0,0,.71,1.91c-1.91-.24-6.45,5.26-6.57,6.58s1.91,6,3.94,7.29a.91.91,0,0,1,.24-.48c1.79-1.68,8.37-6.1,9.8-7.17s1.08-2-.12-1.68-4.66,2.39-5.73,2.27-2.51-2.86-2.16-3.7c.36-.6,4.43-2.63,6.94-3.47Z"/><path class="cls-16" d="M287.4,218.49c-2.62,1.55-7-5.26-3.94-6.69,1.2-1.44,9.44-10.4,9.44-11.36s-2.51-6.69-1.55-7.05,4.18-5.14,5.74-5.14,7.41,4.3,7.64,5.14-1.67,3.35-2.74,3.35-4.07-2.63-5.26-3.23-1.68.36-.48,1.67,7.17,6.7,8.6,8.61-4.66,1.43-6.21,3.34-8.25,7.77-11.47,11.36Z"/><path class="cls-17" d="M297.68,188.49c1.32-1.55,2.87-2.87,4.19-3.11a3,3,0,0,1,3.1,2.75,2.19,2.19,0,0,1-1.07,1.79c1.91.12,5.5,6.22,5.5,7.53s-2.87,5.62-5,6.58a.62.62,0,0,0-.24-.48,118.39,118.39,0,0,0-8.61-8.61c-1.31-1.31-.72-2.27.48-1.67s4.3,3.11,5.26,3.23,3-2.39,2.75-3.35c-.36-.72-4.07-3.46-6.34-4.66Z"/><path class="cls-18" d="M230.4,238.81c-6.58,5.25-12,13.38-14,19.71,4.31-2.86,12.55-4.78,12.67-4.78a11.24,11.24,0,0,1,3.47.12C236,254.46,234.58,235.46,230.4,238.81Z"/><path class="cls-18" d="M240.91,238.45c5.74,6.09,9.92,15.06,11,21.63-3.82-3.47-11.71-6.57-11.83-6.57a8,8,0,0,0-3.35-.36C233,253.15,237.33,234.5,240.91,238.45Z"/><polygon class="cls-18" points="275.93 212.03 282.98 204.98 296.37 218.61 289.2 225.54 275.93 212.03"/><polygon class="cls-18" points="193.23 226.73 188.09 218.13 202.79 209.28 207.93 217.77 193.23 226.73"/><path class="cls-16" d="M237.81,235.22h0a5.64,5.64,0,0,1,2.51,6.09l2.39,2.75-6.34,17.09-8-17.21,3.46-6.21c1.2-2.27,3.59-3.59,6-2.51Z"/><path class="cls-8" d="M240.08,250.76,236.25,261l-4.9-10.63,4.66.6a6.92,6.92,0,0,0,4.07-.24Z"/><path class="cls-19" d="M233.74,177a2.29,2.29,0,0,0-1,.12,20.11,20.11,0,0,0-11.95,5.73c1.43-1,6.33-2.15,8.84,1.32-10.28-5.74-18.29,7.17-16.25,13.14.59-3.94,2.63-8.12,7.53-8.12h.47c-11.71,2.51-3.58,21.63-3.46,25.81s-3.95,12.55-2.63,15.78c.84,2.15,6.69,7.89,12.91,11.11a18.74,18.74,0,0,0,6.93,2.27c.95-4.3,1.79-8.6,2.27-12.19,1.31-9.2,1.19-37.29-3.71-55Z"/><path class="cls-19" d="M255.49,231.4c1.32-3.59-1.43-13.39-1.19-18.77s3.47-12.19,2.51-16.37-3.94-6.1-6.33-3.47c4.54-10.4-5.74-16-11.6-15.65,4.78,1.79,6.1,4.9,5.38,8.48-1.19-6.57-6-8.84-11.23-8.6,4.9,17.68,5,45.77,3.82,55-.48,3.59-1.31,7.89-2.27,12.19h1.55c7.89-.47,18.05-9.2,19.36-12.78Z"/><path class="cls-16" d="M235.89,191.84c5.74.47,16.5,4.06,16.74,8.48.36,5.26.71,22.59-1.08,25.7s-10.4-1.08-14.22-1.32A200.87,200.87,0,0,0,235.89,191.84Z"/><path class="cls-17" d="M237.93,224.82c-2,0-5.38,1.44-8.61,2.39-2.75,1-5.38,1.56-6.93.72-3.35-1.67-3.94-22.71-3.71-25.34.24-2.15,7.89-7.89,13-10a18,18,0,0,1,2.63-.83,7.2,7.2,0,0,1,2.27,0,218.14,218.14,0,0,1,1.56,33Z"/><path class="cls-16" d="M256.93,209.64a3.73,3.73,0,0,0-2.27.24c-.12,1-.24,1.8-.36,2.75a32.67,32.67,0,0,0,.6,6.81c2.27.48,4.54-1.31,5.14-3.94a4.86,4.86,0,0,0-3.11-5.86Z"/><path class="cls-17" d="M214.5,210.36c-2.27.6-3.58,3.23-2.87,5.86s3.11,4.3,5.38,3.7h.12A21.91,21.91,0,0,0,218,215a23.34,23.34,0,0,0-.84-4.3,3.42,3.42,0,0,0-2.63-.36Z"/><path class="cls-17" d="M238.17,226.85h-.6c-.24,0,.72-.12-.72,0s-7.53,1.8-8.25,3.35.24,6.33,2.28,6.93,3.94-.48,5.73-1.07l.36-.12a57.1,57.1,0,0,0,1.2-9.09Z"/><path class="cls-16" d="M246.05,228.65c-1.31-1.08-5.37-1.56-8-1.8a46,46,0,0,1-1.2,9.09,5.1,5.1,0,0,1,1.32-.24c2-.24,4.06,1.79,6.33.6s3-6.58,1.55-7.65Z"/><path class="cls-8" d="M245.81,228.89c-3.22,1.67-11.71,2.15-16.61,1.43,5.5,4.18,9.56,5.5,16.61-1.43Z"/><path class="cls-20" d="M252.75,204.15l-8.85.24a6.25,6.25,0,0,0-3.82,1.43,4.7,4.7,0,0,0-1.56,3.47v1l-3.1.12v-1a4.36,4.36,0,0,0-1.68-3.34,6.4,6.4,0,0,0-3.82-1.32l-8.84.24a6.28,6.28,0,0,0-3.83,1.44,4.67,4.67,0,0,0-1.55,3.46c.12,5.5,2.75,9.09,6.09,10.52a9.21,9.21,0,0,0,8.13-.24c2.87-1.43,5.14-4.54,5.5-9.08l3.22-.12c.6,4.54,3,7.53,6,8.84a9.21,9.21,0,0,0,8.13-.24c3.22-1.67,5.73-5.26,5.61-10.75a4.35,4.35,0,0,0-1.67-3.35,6.77,6.77,0,0,0-3.94-1.31Zm-31.56,2.15,8.85-.24a5.31,5.31,0,0,1,3,.95,3.15,3.15,0,0,1,1.19,2.39c.12,4.9-2,8.13-4.78,9.45a7.88,7.88,0,0,1-6.93.12c-2.87-1.32-5.14-4.31-5.26-9.33a3,3,0,0,1,1.08-2.39,4.62,4.62,0,0,1,2.86-.95Zm22.83-.48,8.85-.24a5.19,5.19,0,0,1,3,1,3.1,3.1,0,0,1,1.2,2.39c.12,4.9-2,8.12-4.78,9.44a7.88,7.88,0,0,1-6.93.12c-2.87-1.32-5.14-4.42-5.26-9.32a3,3,0,0,1,1.07-2.39,4.61,4.61,0,0,1,2.87-1Z"/><polygon class="cls-21" points="237.93 224.22 241.87 224.34 240.2 217.77 238.41 211.2 237.93 224.22"/><polygon class="cls-16" points="238.41 211.2 238.28 211.32 236.25 217.65 234.1 224.1 237.93 224.22 237.93 224.22 238.41 211.2"/><path d="M229,198.53l-2.15.48a1.09,1.09,0,0,0-.83,1.31h0a1.09,1.09,0,0,0,1.31.84l2.15-.48a1.1,1.1,0,0,0,.84-1.31h0A1.11,1.11,0,0,0,229,198.53Z"/><path d="M245.69,198.29l-2.15-.36a1.1,1.1,0,0,0-1.31.84h0a1.1,1.1,0,0,0,.84,1.31l2.15.36a1.1,1.1,0,0,0,1.31-.84h0a1,1,0,0,0-.84-1.31Z"/><path d="M224.18,214a7.18,7.18,0,0,1,7.41-1.2C231.71,212.75,226.21,208.09,224.18,214Z"/><path d="M250.36,214a7.18,7.18,0,0,0-7.41-1.2S248.32,208.09,250.36,214Z"/><path class="cls-6" d="M193.11,308l43.5-17.09,43.86,16.5v.11h0l-44.1,18.89-43.26-18.29s-.12,0,0-.12Z"/><path class="cls-22" d="M236.61,290.79l43.86,16.5v.12h0l-44.1,18.88Z"/><polygon class="cls-23" points="193.11 308.12 236.61 290.79 219.64 275.38 176.5 292.7 193.11 308.12"/><polygon class="cls-23" points="279.76 307.17 236.61 290.79 253.58 274.9 296.37 291.75 279.76 307.17"/><path class="cls-6" d="M279.88,307.29H280l16.38-15.18v-.24h-.24l-16.37,15.18Z"/><path class="cls-6" d="M279.88,307.41c-.12,0-.24-.12-.24-.36v-.12l.12-.12,16.37-15.18a.34.34,0,0,1,.48.48l-16.38,15.18A.43.43,0,0,1,279.88,307.41Z"/><path class="cls-22" d="M236.37,326.29l-.12,57.13-43.5-18.29.12-56.89a.26.26,0,0,1,.24-.24h.12Z"/><polygon class="cls-7" points="208.88 314.81 208.88 314.34 208.88 315.17 208.76 371.94 216.29 375.05 216.41 317.92 208.88 314.81"/><path class="cls-23" d="M211.87,325l-42.42-17.68s-.12-.12,0-.12a.12.12,0,0,1,.12-.12l23.9.83,42.66,17.81s.12.12,0,.12H236Z"/><path class="cls-6" d="M236.13,326.41v-.36L211.63,325a.12.12,0,0,0,0,.24h0l24.62,1.08h-.12Z"/><path class="cls-6" d="M236,326.53h0l-24.26-1a.36.36,0,0,1,0-.72l24.62,1.08v.36h.12v.12a.12.12,0,0,1-.12.12Z"/><path class="cls-22" d="M211.63,325l-41.95-17.56c-.11,0-.23,0-.23.11s0,.24.12.24l41.94,17.57A1.21,1.21,0,0,1,211.63,325Z"/><path class="cls-22" d="M211.51,325.45h0l-42.06-17.69c-.12-.12-.24-.24-.12-.47h0c.12-.12.24-.24.47-.12h0l41.95,17.56h.12v.12a2.62,2.62,0,0,1-.36.6Z"/><path class="cls-22" d="M236.37,326.41v-.36L261,325a.12.12,0,1,1,0,.24h0l-24.62,1.2Z"/><path class="cls-22" d="M236.25,326.53v-.72L261,324.73a.36.36,0,1,1,0,.72Z"/><polygon class="cls-23" points="260.87 324.97 304.73 306.45 280.23 307.29 236.13 326.05 260.87 324.97"/><path class="cls-6" d="M261,325l43.51-18.4c.11,0,.23,0,.23.12s0,.24-.12.24l-43.5,18.4S260.87,325.09,261,325Z"/></svg>