<?xml version="1.0" encoding="utf-8"?>
<!-- Generator: Adobe Illustrator 23.0.0, SVG Export Plug-In . SVG Version: 6.00 Build 0)  -->
<svg version="1.1" id="Layer_1" xmlns="http://www.w3.org/2000/svg" xmlns:xlink="http://www.w3.org/1999/xlink" x="0px" y="0px"
	 viewBox="0 0 469 364" style="enable-background:new 0 0 469 364;" xml:space="preserve">
<style type="text/css">
	.st0{fill:#CCCCCC;}
	.st1{fill:#F2F2F2;}
	.st2{opacity:0.2;fill:#FFFFFF;enable-background:new    ;}
	.st3{fill:#F2F2F4;}
	.st4{fill:#FFFFFF;stroke:#000000;stroke-miterlimit:10;}
	.st5{fill:#D6B392;}
	.st6{fill:#D6D6D6;}
	.st7{fill:#E1BD97;}
	.st8{fill:#D7B291;}
	.st9{fill:#D9B394;}
	.st10{fill:#D7B393;}
	.st11{fill:#D6B390;}
	.st12{fill:#F8B196;}
	.st13{fill:#B80C12;}
	.st14{fill:#CD4E4D;}
	.st15{fill:#F0F0F0;}
	.st16{fill:#F78E68;}
	.st17{fill:#EAEAEA;}
	.st18{fill:#2D2D2D;}
	.st19{fill:#181616;}
	.st20{fill:#969697;}
</style>
<title>Vector 1</title>
<rect x="0.4" y="-0.1" class="st0" width="468.6" height="364.3"/>
<rect x="212.3" y="77" transform="matrix(0.7071 -0.7071 0.7071 0.7071 -1.5225 195.0482)" class="st1" width="44.8" height="44.8"/>
<rect y="0.1" class="st1" width="469" height="100"/>
<circle class="st2" cx="247.9" cy="86.9" r="7.4"/>
<path class="st3" d="M100.4,287.1l-8.3,5.1c-2.7,1.7-3.4,5.4-1.7,8.1l26.8,43.2c1.7,2.7,5.1,3.5,7.7,1.8l7.2-4.1
	c2.7-1.7,3.5-5.3,1.9-8L108.2,289C106.6,286.2,103.1,285.4,100.4,287.1z"/>
<path class="st4" d="M58.2,264.8"/>
<g>
	<g>
		
			<rect x="197.1" y="177.4" transform="matrix(0.2298 -0.9732 0.9732 0.2298 -14.8635 338.9634)" class="st5" width="19.3" height="3"/>
	</g>
	<g>
		
			<rect x="207.8" y="186.6" transform="matrix(0.8296 -0.5584 0.5584 0.8296 -67.7928 154.0716)" class="st5" width="21.4" height="3"/>
	</g>
	<g>
		
			<rect x="221" y="192.7" transform="matrix(1.817834e-02 -0.9998 0.9998 1.817834e-02 16.3258 420.8558)" class="st5" width="3" height="18.8"/>
	</g>
</g>
<circle class="st6" cx="70.5" cy="133.9" r="12.3"/>
<circle class="st6" cx="120.8" cy="154.1" r="14.7"/>
<circle class="st6" cx="262.8" cy="149.5" r="10.1"/>
<circle class="st6" cx="300.9" cy="168.8" r="9.2"/>
<circle class="st6" cx="310" cy="214.1" r="11.5"/>
<circle class="st6" cx="297.5" cy="279.5" r="14.7"/>
<circle class="st6" cx="263.3" cy="340.4" r="10.6"/>
<path class="st7" d="M99.2,314.7l-10.6,6.8L107,349l27.4-17.8c0.8-0.6,1.1-1.7,0.7-2.7l0,0c-0.5-1.3-2.1-1.8-3.3-1.1l-8.3,5.1
	l8.1-7.2c0.8-0.7,1-2,0.4-2.9l-0.1-0.2c-0.7-1.1-2.1-1.4-3.2-0.7l-8.7,5.6l8.1-7.5c0.8-0.8,1-2,0.3-3l-0.7-1c-0.7-1-2.1-1.3-3.1-0.6
	l-10.4,6.7l9.4-8.2c0.9-0.8,1-2,0.4-3l-1-1.5c-0.7-1.1-2.1-1.3-3.2-0.6l-17.2,11.7L99.2,314.7z"/>
<g>
	<polygon class="st8" points="56.6,272.4 49.3,277.1 57.4,289.7 64.6,285 	"/>
	<polygon class="st9" points="57.4,289.7 64.7,301.2 72,296.5 64.6,285 	"/>
	<path class="st10" d="M203.3,203.8c0,3.6-1.6,6.9-4.1,9.1l-6.8-10.7l8.6-5.5C202.5,198.7,203.3,201.2,203.3,203.8z"/>
	<path class="st11" d="M201.1,196.7l-8.6,5.5l-6.2-9.8c1.5-0.6,3.1-0.9,4.7-0.9C195.2,191.5,198.8,193.6,201.1,196.7z"/>
	<path class="st12" d="M223.2,252.2c0,1.5-0.7,3-2.1,3.9c-2.1,1.4-5,0.7-6.3-1.4l-1.3-2.1c0,0,0,0,0,0l-23-36.4l-5.6-8.9l0.1,0
		l7.6-4.9l6.8,10.7l23.3,36.8C223,250.5,223.2,251.4,223.2,252.2z"/>
	<path class="st13" d="M101.6,261.1l-36.8,23.8l-8-12.5l-0.2,0.2l-5.7-8.9c-1.4-2.1-0.7-5,1.4-6.3L85.6,236L101.6,261.1z"/>
	<path class="st14" d="M116.2,284L83,305.3c-2.1,1.4-5,0.7-6.3-1.4l-4.7-7.3l0.2-0.2l-7.4-11.5l36.8-23.8L116.2,284z"/>
	
		<rect x="68.3" y="283.8" transform="matrix(0.8397 -0.5431 0.5431 0.8397 -146.8983 83.7542)" class="st14" width="0.3" height="13.7"/>
	
		<rect x="60.6" y="271.2" transform="matrix(0.8431 -0.5377 0.5377 0.8431 -140.2966 76.3596)" class="st14" width="0.3" height="14.9"/>
	<path class="st15" d="M210.5,259.5l-49.8,10l0.2,0.3l-34.3,21.9c-2.1,1.4-5,0.7-6.3-1.4l-3.9-6.2l-14.6-23l10.8-7l68-44l4.4-2.8
		l5.6,8.9l23,36.4c0,0,0,0,0,0C215.1,255.3,213.6,258.8,210.5,259.5z"/>
	<path class="st16" d="M192.5,202.3l-7.6,4.9l-0.1,0l-5.2-8.2l-25.1-39.7l-1-1.5c-1.3-2.1-0.7-4.9,1.4-6.3c2.1-1.4,5-0.7,6.3,1.4
		l24.9,39.4L192.5,202.3z"/>
	<path class="st17" d="M184.8,207.3l-4.4,2.8l-68,44l-10.8,7l-16-25l-3.6-5.6c-1.4-2.1-0.7-5,1.4-6.3l34.3-21.9l-0.2-0.3l30.2-41.9
		c1.7-2.3,4.9-2.5,6.8-0.7l25.1,39.7L184.8,207.3z"/>
</g>
<polygon class="st18" points="80.4,318.2 -9.1,369.1 89,369.1 106.1,358.1 "/>
<polygon class="st19" points="100.2,349 106.2,358.3 88.5,369.3 67.6,368.9 "/>
<polygon class="st15" points="86.9,317.5 82.3,321.1 105.2,356.6 110.2,353 "/>
<circle class="st20" cx="97.5" cy="357.8" r="1.9"/>
<circle class="st20" cx="88.6" cy="363.3" r="1.9"/>
</svg>
